<svg width="1000" height="1000" viewBox="0 0 1000 1000" fill="none" xmlns="http://www.w3.org/2000/svg">
<rect width="1000" height="1000" />
<path d="M365.245 102.304C359.665 105.671 350.911 110.674 345.716 113.463L336.288 118.562L330.805 116.734C325.513 114.906 325.032 114.906 317.913 116.446C313.873 117.408 309.929 118.37 309.063 118.658C308.293 118.947 305.599 122.891 303.098 127.413C300.597 131.934 297.999 135.686 297.518 135.686C296.941 135.686 289.437 136.552 280.779 137.514L265.098 139.342L255.959 136.552C250.956 135.109 246.531 133.666 246.146 133.377C245.761 133.185 241.625 128.182 236.814 122.314C230.08 114.137 227.579 111.732 225.751 111.732C224.404 111.636 215.746 112.79 206.414 114.233L189.483 116.734L186.789 125.874C184.576 133.666 184.288 136.071 184.769 142.324L185.442 149.636L174.379 161.18L163.316 172.724L163.219 182.537V192.254L166.875 193.119L170.435 193.985L171.012 201.585C171.493 208.319 172.166 210.628 176.592 219.768C180.343 227.464 182.171 232.659 183.518 239.778C184.48 244.973 185.346 249.975 185.346 250.937C185.346 251.899 182.171 254.689 177.169 257.864L168.991 263.155V268.927V274.699L159.564 277.393C153.022 279.317 147.442 281.915 140.9 285.859L131.472 291.439L125.027 288.745C120.313 286.725 115.695 285.666 108.48 284.897C102.9 284.416 98.09 284.127 97.8014 284.32C97.4166 284.512 96.8394 288.072 96.4546 292.208C96.166 296.345 95.3964 304.522 94.8191 310.487C93.5685 322.608 94.6267 321.454 83.6596 322.801L78.6571 323.474L72.2115 333.479L65.8621 343.581L60.8595 343.292L55.9532 343.003L55.1836 350.315L54.3178 357.53L60.0899 369.074C64.0342 376.963 67.8824 382.831 72.3077 387.93L78.6571 395.241L85.5837 395.915C98.09 396.973 97.4166 396.588 100.206 405.15C101.65 409.287 102.612 413.135 102.419 413.712C102.227 414.193 96.3584 419.485 89.3356 425.545C77.5026 435.647 75.4824 436.993 63.3608 442.477C56.1456 445.844 49.7 449.019 49.0266 449.596C48.4494 450.269 43.1582 462.487 37.2899 476.821C31.4215 491.156 24.4949 507.606 21.8012 513.282C19.1075 519.054 17.0873 524.249 17.2797 524.73C17.5683 525.308 18.8189 526.462 20.1658 527.135C22.5708 528.386 23.0518 528.194 31.8063 521.075L40.9456 513.763H48.3532C55.1836 513.763 57.3962 513.186 73.1735 507.318C82.7938 503.854 91.0672 500.968 91.5482 500.968C92.3179 500.968 116.657 516.649 119.736 519.054C119.832 519.151 119.543 522.133 118.966 525.596C118.004 531.657 118.1 532.138 122.237 543.682C124.546 550.224 126.758 556.381 127.143 557.247C127.624 558.401 129.356 559.171 132.434 559.556C134.936 559.844 137.533 560.422 138.11 560.806C139.072 561.384 162.065 609.774 162.546 612.179C162.642 612.66 157.736 616.989 151.675 621.703C145.614 626.417 135.994 634.402 130.318 639.404C120.313 648.255 119.928 648.736 119.351 653.354C118.966 655.951 118.196 658.645 117.619 659.414C117.042 660.184 109.923 663.84 101.842 667.592L87.1229 674.422L68.171 674.518C57.7811 674.518 44.8899 675.095 39.5987 675.673L29.9785 676.827L24.4949 685.004C19.3961 692.508 18.4341 693.374 13.7202 695.106C10.8341 696.164 8.23662 697.318 7.94801 697.607C7.467 698.088 8.23662 700.878 10.7379 707.901C11.0265 708.766 12.7581 708.478 17.5683 706.65C21.0316 705.303 24.4949 704.245 25.2645 704.245C25.9379 704.245 27.2848 706.65 28.2468 709.632L29.8822 715.02L38.1557 714.442C42.6772 714.154 50.6621 713.673 55.9532 713.384L65.5735 712.807L79.5229 726.756L93.4723 740.802L89.8166 747.825L86.1609 754.751L88.9508 767.642L91.8368 780.534L96.5508 784.574C99.0521 786.787 102.419 789.673 104.055 791.02L106.844 793.521L99.3407 801.891L91.7406 810.164L94.8191 820.458C96.5508 826.038 100.303 835.273 103.189 840.949L108.384 851.339L101.938 848.934C98.3786 847.587 95.0115 846.24 94.5305 845.855C92.6065 844.701 97.9938 851.243 106.171 859.901L114.637 868.848L133.396 871.638C151.098 874.331 153.503 875.005 177.265 883.182L202.47 891.84H223.25H244.126L265.772 898.19L287.513 904.539L303.002 898.959L318.587 893.476L346.005 891.744C361.108 890.782 375.635 890.012 378.329 890.012L383.235 889.916L383.909 885.299C384.197 882.797 384.774 875.101 385.159 868.078L385.736 855.379L394.01 852.59C398.531 851.05 402.283 849.415 402.283 848.934C402.283 848.453 401.898 841.045 401.417 832.483C400.648 817.091 400.648 816.802 403.245 809.106C405.266 803.141 406.228 801.313 407.863 800.929C410.749 800.255 424.025 797.562 424.314 797.562C424.506 797.562 428.45 802.564 432.972 808.625C440.38 818.534 441.919 819.977 446.633 822.093C455.002 825.749 454.521 826.038 458.947 815.551C462.025 808.24 465.008 803.43 472.03 794.291L481.073 782.458L494.157 775.05L507.144 767.546L515.899 772.068L524.557 776.686L540.911 775.05C560.922 773.126 563.038 773.126 577.084 775.146L588.436 776.686L593.919 771.875C596.998 769.278 599.98 766.873 600.653 766.488C601.231 766.103 604.213 766.969 607.195 768.412L612.583 771.106L621.337 766.392L629.995 761.774L634.709 766.392L639.423 771.01L647.697 768.316L655.97 765.622L658.952 758.984C661.357 753.308 662.512 751.865 666.456 749.46C671.747 746.285 671.747 747.247 666.552 735.992L663.763 729.642L665.59 725.025C666.552 722.523 668.861 713.384 670.689 704.822C675.403 682.214 676.269 678.847 677.038 677.885C677.423 677.5 693.585 675.384 713.018 673.364L748.229 669.612L763.044 680.771L777.955 691.931L781.515 688.756C783.535 687.025 792.097 679.04 800.563 670.959C809.029 662.974 820.573 652.584 826.249 647.966C834.522 641.232 836.831 638.923 837.601 636.037C838.082 634.113 838.563 625.262 838.563 616.315V600.057L834.234 594.766C831.829 591.88 829.905 589.283 829.905 588.898C829.905 588.513 832.31 587.455 835.196 586.493L840.487 584.857L847.125 571.677C853.378 559.171 853.763 557.824 855.398 546.568C857.13 535.12 857.13 534.447 855.398 527.713L853.667 520.69L857.322 511.647L860.978 502.7L859.247 490.097L857.515 477.495L864.057 465.469C870.021 454.214 871.176 452.675 880.315 444.305C897.439 428.335 895.996 429.201 910.042 425.161L922.74 421.505L933.996 422.467L945.348 423.525L955.642 417.945C968.244 411.211 992.776 392.259 992.103 389.758C990.756 385.044 983.541 362.148 983.252 361.667C983.06 361.378 972.862 362.821 960.644 364.841L938.325 368.593L921.875 363.11C910.042 359.165 901.287 355.51 890.512 349.93C876.948 342.811 874.735 342.041 865.5 340.406C859.92 339.444 852.512 338.674 848.953 338.674C843.373 338.674 841.738 338.289 837.601 335.692C833.753 333.287 832.887 332.325 833.272 330.689C833.56 329.535 834.811 321.935 836.158 313.854L838.563 299.135L844.335 291.439C848.183 286.34 850.107 282.78 850.107 280.953C850.107 278.932 851.166 277.489 854.629 274.796C857.13 272.871 861.652 268.35 864.73 264.694L870.406 257.96L867.52 252.38C865.981 249.302 864.441 244.299 864.057 241.221C863.672 238.238 862.998 235.737 862.614 235.737C862.229 235.737 859.824 237.565 857.226 239.778C854.629 241.99 851.839 244.395 850.973 245.069C849.626 246.223 847.221 246.127 835.1 244.492C827.307 243.337 817.495 242.471 813.454 242.471C807.297 242.471 804.219 241.894 796.041 238.912C786.998 235.641 785.363 234.679 777.186 227.56C765.449 217.17 760.35 215.054 740.629 212.552L725.813 210.628L716.001 216.497L706.188 222.269L696.087 222.365C690.603 222.365 683.965 222.75 681.368 223.135C675.403 224.097 668.476 222.654 662.319 218.998C658.087 216.497 657.798 216.112 657.125 211.109C656.74 207.742 655.97 205.53 654.912 205.049C652.699 203.798 618.836 196.294 609.216 194.947L601.423 193.793L591.899 198.507L582.375 203.221L574.967 202.162C569.965 201.489 566.405 201.489 564.289 202.162C559.863 203.413 548.993 202.355 540.527 199.661C532.349 197.064 528.886 197.545 522.633 202.162C519.458 204.471 517.823 204.952 513.205 204.952H507.625L501.276 192.157C497.716 185.231 494.446 179.17 493.868 178.881C493.387 178.497 491.175 177.919 488.962 177.631C485.018 176.957 455.676 170.608 452.597 169.742C451.058 169.261 450.866 167.914 450.866 159.833V150.405L446.537 148.77C444.228 147.808 442.111 146.365 441.823 145.499C441.63 144.633 441.053 139.919 440.764 135.013L440.091 126.162L433.261 125.874L426.43 125.585L420.369 117.023C417.099 112.405 414.212 108.268 413.924 108.076C413.635 107.787 410.076 108.75 405.843 110.193L398.339 112.886L387.276 104.613C381.119 99.9951 375.924 96.2432 375.731 96.2432C375.539 96.2432 370.825 98.9368 365.245 102.304Z" fill="black"/>
<circle cx="264" cy="659" fill="#5CE50D"/>
<circle cx="590" cy="404" fill="#E52A0D"/>
<circle cx="204" cy="374" fill="#E52A0D"/>
<circle cx="828" cy="500" fill="#E52A0D"/>
</svg>
