<svg width="1000" height="1000" viewBox="0 0 1000 1000" fill="none" xmlns="http://www.w3.org/2000/svg">
<rect width="1000" height="1000" />
<path d="M939.625 126.486C933.283 140.804 922.52 161.464 920.31 163.77C918.1 166.076 917.908 166.749 918.965 167.998C919.926 169.151 919.541 170.112 916.466 173.475C914.448 175.782 911.95 177.896 910.893 178.28C906.569 179.625 906.184 178.953 909.163 175.878C911.181 173.764 912.334 171.457 912.815 168.479L913.488 164.154L903.686 173.283C893.404 182.796 890.81 184.814 887.927 184.814C887.062 184.814 878.414 191.445 868.804 199.42C859.291 207.492 850.258 215.084 848.913 216.237C846.511 218.159 846.511 218.351 848.048 220.08C851.123 223.444 849.298 225.75 840.937 229.017C836.709 230.555 833.058 231.9 832.866 231.9C832.577 231.9 833.154 230.555 833.923 229.017C835.364 226.326 835.268 226.038 833.73 225.462C832.77 225.173 831.713 224.693 831.328 224.501C830.944 224.309 829.406 226.038 827.869 228.248C826.043 230.843 822.776 233.63 819.124 235.744C812.494 239.587 811.437 241.221 814.224 243.143C816.146 244.488 816.146 244.584 813.167 248.332C811.533 250.35 809.899 253.232 809.515 254.578L808.842 257.076L806.632 255.154L804.326 253.329L801.635 256.307C800.002 258.229 798.753 261.016 798.368 264.091C797.311 270.625 792.122 274.949 790.681 270.337C790.393 269.28 789.816 268.415 789.432 268.415C788.279 268.511 776.267 284.559 775.979 286.577C775.69 288.21 775.114 288.402 770.597 287.922L765.601 287.442L760.988 292.823C758.394 295.802 753.493 300.318 749.938 302.912C742.442 308.486 719.572 331.452 718.707 334.239C718.227 335.776 715.921 336.833 708.81 339.043C700.258 341.542 698.72 342.311 692.666 347.692C689.015 350.959 681.519 356.821 676.138 360.568C666.625 367.295 664.607 369.697 667.682 370.85C669.22 371.427 669.604 375.751 668.355 377.577C667.97 378.153 666.433 379.018 664.799 379.595C662.301 380.363 661.917 381.036 661.628 384.591C661.34 387.762 660.956 388.531 659.899 388.147C659.034 387.859 658.169 387.57 657.977 387.57C657.784 387.57 657.592 386.129 657.592 384.303C657.592 381.613 657.112 380.844 654.71 379.883C652.115 378.826 651.154 379.018 645.773 381.324C637.893 384.784 635.491 386.321 635.491 388.051C635.491 389.012 636.548 389.492 638.854 389.492C642.89 389.492 643.082 390.261 639.815 393.336C638.47 394.585 637.413 396.123 637.413 396.699C637.413 397.372 636.548 398.621 635.491 399.582C633.185 401.6 632.993 405.155 635.01 406.789C636.836 408.326 635.971 409.672 632.993 409.672C631.071 409.672 630.686 410.152 630.686 412.554C630.686 414.957 630.11 415.629 627.227 416.879C624.056 418.128 623.768 418.608 624.248 421.107C624.729 423.221 624.152 424.758 622.038 427.545C620.5 429.659 619.155 432.446 619.155 433.887C619.155 436.385 618.867 436.578 615.311 436.578C610.891 436.578 610.603 437.442 613.87 441.671L616.176 444.842L612.621 450.799C610.699 454.066 608.585 456.757 607.912 456.757C607.24 456.757 606.663 457.43 606.663 458.199C606.663 459.159 605.702 459.64 603.684 459.64C602.051 459.64 600.033 460.024 599.072 460.601C596.862 461.754 592.441 459.544 586.291 454.451C581.006 450.031 580.141 446.86 580.91 435.617C581.198 432.83 580.91 432.253 579.277 432.253C577.067 432.253 571.109 441.478 571.109 444.938C571.109 446.667 570.532 447.148 568.61 447.148C564.767 447.148 562.46 448.878 562.46 451.664C562.46 454.066 562.653 454.066 567.169 453.682C571.878 453.202 572.07 453.298 576.586 457.91C579.373 460.793 584.177 464.252 588.694 466.462C594.459 469.441 596.093 470.691 596.093 472.324C596.093 473.477 596.766 475.111 597.63 476.072C599.648 478.378 597.63 481.741 594.171 481.741C592.345 481.741 590.808 482.798 588.886 485.489L586.003 489.236L576.298 489.621C567.649 489.909 566.112 490.197 562.653 492.6C558.232 495.483 551.89 496.059 546.029 494.137C541.416 492.6 532.672 483.855 532.672 480.876C532.672 479.627 531.999 477.801 531.134 476.841C529.693 475.207 529.404 475.207 525.369 477.225C520.468 479.627 519.603 482.414 523.831 482.894C525.849 483.087 526.522 483.759 526.714 485.777C526.906 487.315 527.579 488.468 528.347 488.468C529.02 488.468 530.269 489.525 531.134 490.87C533.248 494.137 531.518 497.116 527.29 497.116C525.561 497.116 522.87 498.269 520.564 499.999C518.546 501.536 515.759 502.882 514.51 502.882C513.261 502.882 510.186 504.035 507.784 505.476C504.613 507.398 501.441 508.359 496.637 508.743C489.334 509.512 481.839 511.434 479.724 513.068C478.764 513.836 476.169 513.932 470.788 513.26C465.599 512.587 462.908 512.683 462.236 513.356C461.659 513.932 458.008 514.413 454.164 514.413C447.918 514.413 446.765 514.125 444.939 512.107L442.825 509.896L423.606 511.146L404.484 512.395L400.352 509.993C398.142 508.743 395.739 506.629 395.163 505.476C394.49 504.323 393.914 503.266 393.817 503.074C393.721 502.978 390.07 503.747 385.746 504.804L377.962 506.821L374.022 504.611C370.947 502.882 369.986 502.689 369.41 503.747C368.737 504.804 367.008 504.804 360.089 503.939C345.771 502.209 342.504 500.768 338.66 494.906C333.183 486.258 325.015 482.702 324.342 488.66C324.054 490.87 323.093 491.543 317.328 493.753C309.928 496.636 307.814 496.443 307.814 492.984C307.814 489.813 305.7 488.276 300.031 487.411C296.283 486.834 294.457 487.026 291.959 488.179C289.076 489.525 288.211 489.621 284.56 488.468C282.254 487.699 279.371 487.219 278.026 487.315C276.2 487.507 275.143 486.834 273.798 484.624C272.837 482.99 271.587 481.837 271.011 482.126C266.206 484.144 262.266 484.816 258.615 484.24C255.059 483.663 254.195 483.183 253.33 480.78C251.888 476.841 247.564 476.841 243.24 480.684C239.877 483.567 237.667 483.663 237.667 480.78C237.667 479.723 235.841 477.705 233.15 475.88C230.556 474.15 227 471.363 225.078 469.537C222.1 466.655 221.043 466.27 218.64 466.847C216.142 467.327 215.469 468.192 213.451 473.862L211.241 480.3L203.458 483.087C196.155 485.681 195.482 486.162 193.56 490.101C191.734 493.945 191.254 494.233 187.891 494.233C184.816 494.233 182.702 495.29 175.687 500.575C171.074 504.131 167.038 507.782 166.846 508.743C166.462 509.993 165.501 510.569 163.579 510.569C162.042 510.569 158.102 511.914 154.931 513.548C149.357 516.335 148.589 516.431 141.189 515.854C131.196 515.085 119.953 515.085 115.437 515.758C112.265 516.239 111.785 516.046 109.959 512.971C108.037 509.608 107.941 509.608 101.215 509.608C96.8906 509.608 93.3352 509.032 91.4133 508.071C89.5876 507.11 87.3774 506.725 85.6478 507.11C81.5158 507.975 76.615 505.764 67.5823 499.134L59.4144 493.176L57.7808 479.531L56.1473 465.886L58.1652 463.772C59.991 461.85 60.0871 461.273 59.03 458.967C57.973 456.757 58.0691 456.181 59.3183 455.22C60.4714 454.451 60.8558 452.433 60.8558 447.148C60.8558 440.325 60.7597 440.133 57.0121 436.385C54.9941 434.271 52.784 432.83 52.3035 433.118C51.8231 433.503 51.0543 437.154 50.67 441.382C50.0934 448.013 49.8051 449.07 48.2676 449.07C46.9223 449.07 46.4419 448.397 46.4419 446.667C46.4419 445.322 45.2888 441.478 43.9435 437.923C40.8685 430.428 39.2349 430.908 39.2349 439.46C39.2349 442.535 39.0427 445.226 38.7545 445.514C38.4662 445.706 36.6404 446.283 34.5264 446.571L30.8748 447.244L31.6436 440.71C32.8928 430.812 32.2201 417.551 30.2022 413.708L28.4725 410.44L27.2233 413.419C26.2624 415.725 26.2624 416.686 27.1272 417.743C28.0882 418.8 27.9921 419.761 26.8389 422.068C25.9741 423.605 25.3015 426.68 25.3015 428.794C25.3015 432.446 25.0132 432.83 20.689 435.04L16.0765 437.346L11.9446 450.703L7.81256 463.964L92.5664 611.947C139.268 693.338 177.609 760.218 177.993 760.603C178.281 760.987 283.311 787.701 411.306 820.084L644.043 878.797L670.469 862.173C693.051 848.047 697.086 845.164 697.855 842.666C698.432 841.032 699.104 831.711 699.393 821.91L699.969 804.133L707.176 774.824L714.383 745.516L727.164 732.063C739.56 718.898 740.136 718.226 751.571 697.95L763.294 677.194L770.021 674.984C778.669 672.197 779.054 671.429 778.093 656.438L777.516 645.195L781.072 640.871L784.627 636.547L785.492 622.998C786.165 613.388 787.029 608.199 788.375 605.124C789.336 602.722 790.2 600.416 790.2 599.935C790.2 599.551 786.741 596.668 782.513 593.593C774.345 587.732 773.961 587.059 775.402 580.044C775.979 577.161 776.459 576.969 803.365 567.744L830.848 558.327L841.802 563.805L852.757 569.186L858.715 567.648C862.847 566.591 866.498 566.303 870.534 566.687L876.492 567.264L881.489 561.018L886.389 554.772L882.93 549.102C880.72 545.547 878.318 542.952 876.588 542.28C873.225 540.838 872.264 538.052 874.089 535.169C874.858 534.016 875.723 531.998 875.915 530.652C876.203 528.058 876.492 528.058 858.907 529.884C850.835 530.652 850.066 530.556 847.376 528.635C838.247 522.004 836.421 520.563 836.325 520.082C836.325 519.794 840.457 514.893 845.55 509.224L854.775 498.942L855.736 491.254C856.601 483.855 856.601 483.567 853.814 478.57C851.123 473.862 850.931 472.805 850.355 459.256L849.778 445.034L855.736 431.196L861.597 417.359L856.216 396.507L850.739 375.559L857.177 369.697L863.711 363.739L880.432 359.319C889.56 356.821 897.344 354.995 897.632 355.283C898.017 355.764 906.473 375.174 906.473 375.751C906.473 376.039 899.458 377.961 898.305 377.961C897.728 377.961 896.479 376.712 895.614 375.078C894.077 372.58 893.692 372.388 891.578 373.349L889.176 374.406L897.056 389.78L904.935 405.155L899.554 410.056L894.173 414.957L895.806 420.722C897.44 426.296 897.632 426.488 901.284 427.161C909.452 428.602 911.47 428.121 915.602 424.086L919.445 420.338L923.866 423.125L928.286 425.815L933.667 421.395C938.568 417.359 939.24 416.302 940.105 411.593C940.682 408.711 941.354 405.636 941.643 404.771C941.931 403.906 945.871 400.639 950.483 397.66C957.979 392.663 959.324 391.414 962.399 385.745C965.666 379.595 965.762 379.21 964.897 374.021C964.032 368.928 964.128 368.352 966.723 364.604C969.317 360.664 969.51 360.568 974.026 360.953C976.524 361.145 978.542 361.049 978.542 360.664C978.542 360.28 977.485 357.589 976.236 354.803L974.026 349.614L977.293 335.2C980.08 322.996 980.656 318.672 980.849 307.237L981.041 293.591L985.461 286.577C990.362 278.793 990.458 275.91 985.845 275.334C984.5 275.142 983.347 274.757 983.347 274.373C983.347 273.028 987.095 268.031 989.593 266.109L992.188 263.995L990.17 259.959L988.056 255.827L990.074 245.545C991.995 235.455 992.476 226.615 991.419 222.675C990.746 220.08 982.29 217.294 977.485 218.062C974.41 218.543 973.834 218.255 971.528 215.18L968.837 211.816L964.321 213.546C960.477 215.084 959.804 215.756 959.516 218.351C959.324 220.369 958.075 222.194 955.672 224.212C953.75 225.75 951.829 227.095 951.444 227.095C950.964 227.095 948.946 226.038 946.928 224.789L943.18 222.387L942.508 214.219L941.835 206.051L947.216 195.673C953.654 183.085 955.096 176.166 956.057 152.815L956.729 136.672L949.33 129.081L941.931 121.489L939.625 126.486Z" fill="black"/>
<path d="M223.06 439.839C220.85 442.914 220.85 445.893 223.349 453.196C225.655 460.211 226.712 461.556 227.577 458.769C227.961 457.328 229.018 456.752 230.94 456.752C232.766 456.752 234.399 455.791 236.129 453.773C239.012 450.313 238.916 449.064 234.88 442.338C232.574 438.494 231.805 438.013 228.442 437.725C225.367 437.533 224.406 438.013 223.06 439.839Z" fill="black"/>
<path d="M462.524 476.46C461.275 477.805 459.353 478.862 458.296 478.862C457.143 478.958 455.221 479.535 453.875 480.304C452.53 481.073 448.879 481.649 445.515 481.745C440.519 481.745 438.212 482.418 431.101 485.877C420.147 491.162 420.243 491.162 420.916 492.796C421.3 493.853 423.126 494.237 428.507 494.237C435.233 494.237 435.522 494.333 437.251 497.12C439.173 500.387 439.654 500.579 447.822 501.444C455.221 502.213 458.584 500.483 458.488 495.967C458.392 494.141 459.064 492.508 460.121 491.739C462.524 489.913 463.869 490.009 465.791 492.219C467.232 493.757 467.232 494.045 465.887 495.198C463.581 497.12 464.157 499.042 467.136 499.042C468.674 499.042 470.692 499.715 471.749 500.483C474.247 502.405 475.016 502.309 475.016 500.003C475.016 498.177 475.112 498.177 478.187 499.618C481.166 501.06 481.55 501.06 484.913 499.042C488.277 497.024 488.565 496.543 488.277 492.988C487.988 489.144 487.988 489.048 482.799 487.895C472.517 485.589 463.869 479.823 470.692 479.823C473.671 479.823 473.767 478.862 470.884 476.172C467.905 473.385 465.311 473.481 462.524 476.46Z" fill="black"/>
<circle cx="574" cy="449" fill="#5CE50D"/>
<circle cx="766" cy="294" fill="#E52A0D"/>
<circle cx="907" cy="180" fill="#E52A0D"/>
<circle cx="826" cy="518" fill="#E52A0D"/>
</svg>
