<svg width="1000" height="1000" viewBox="0 0 1000 1000" fill="none" xmlns="http://www.w3.org/2000/svg">
<rect width="1000" height="1000" />
<path d="M630.25 749.055L630.407 749.148L630.35 749.318L630.463 749.35L630.665 749.305L631 749.35L631.235 749.519L631.861 749.761L632.132 749.903L632.383 749.912L632.54 749.386L632.309 749.248L632.139 749.102L631.929 749.196L631.537 749.094L631.274 749.018L631.129 749.034L630.919 748.852L630.713 748.884L630.486 748.844V748.952H630.248V749.055" fill="black"/>
<path d="M95.7768 976.515L95.1747 981.955L94.5684 990.423L99.0019 990.018L101.625 982.561L108.674 977.32L107.474 972.078L95.7768 976.515Z" fill="black"/>
<path d="M676.922 751.123L676.721 751.564L676.43 751.819L676.175 751.827L675.832 752.069H675.501L675.222 752.048L675.141 751.98H674.87L674.813 751.879L674.538 751.907L674.129 751.514L673.51 751.453L673.143 751.171L672.925 750.993L672.314 751.094L672.083 750.949L671.793 750.868L671.392 750.929L670.968 750.95L670.487 750.97L670.175 751.002L669.981 751.577L669.957 751.888L669.82 752.341L669.828 752.644V752.907L669.804 753.069L673.817 753.934L673.943 753.573L674.258 753.675L674.282 753.602L674.888 753.756L675.434 753.978L675.66 754.027L676.116 754.035L676.318 753.663L676.427 753.381L676.621 753.28L676.816 753.271L677.168 753.243L677.487 753.26L677.464 753.373L677.169 753.332L676.982 753.36L676.866 753.562L676.8 753.967L676.832 754.452L676.938 754.589L677.128 754.642L677.569 754.744L677.722 754.109L677.924 754.13L677.916 754.413L677.984 754.651L678.041 754.905L678.235 754.966L678.244 754.845L678.7 754.866L678.74 754.624L679.092 754.615L679.02 755.007L679.302 755.076L679.408 754.704L679.662 754.736L679.597 755.27L680.191 755.331L680.174 755.529L680.53 755.573L680.777 755.662L680.753 755.824L680.785 756.074L680.955 756.176L681.217 756.265L681.682 756.434L681.61 756.636L681.852 756.797L682.119 756.838H682.438L682.701 756.802L683.182 756.931L683.154 757.554L683.065 757.558L683.057 758.027H683.154V758.306L680.665 758.323V758.545L682.912 758.566V758.707L683.001 758.788L683.224 758.849L683.183 759.12L683.224 759.233L683.385 759.301L683.368 759.556L683.676 759.916L680.673 759.928V760.13L683.794 760.098L684.15 760.119L684.202 760.713L684.485 760.757L684.574 760.859L684.812 761.028L684.981 761.089L684.941 761.287L684.795 761.691L684.852 761.906L685.03 762.027L685.232 762.116L685.022 763.223L684.715 763.405L684.354 762.904L683.898 762.387L683.313 761.78L682.783 761.481L682.416 761.413H682.104L681.74 761.481L681.21 761.719L680.697 762.184L680.6 762.252L680.32 762.483L679.969 762.746L679.613 762.867L679.286 762.988H678.983L678.635 762.947L678.34 762.814L678.122 762.708L677.458 762.163L676.873 761.682L675.701 761.035L675.018 760.664L674.585 760.522L674.072 760.563L673.68 760.713L673.086 760.935L672.94 760.907L672.819 760.596V760.333L672.972 760.038L673.093 759.856V759.735L672.988 759.703L672.89 759.856L672.717 759.888L672.619 760.119L672.425 760.123L672.319 759.937L671.83 759.572L671.374 758.909L671.244 758.517L671.038 758.235L670.695 758.133L670.46 758.154L670.436 758.457L670.29 758.679L670.173 758.979L669.762 759.148L669.491 759.165L669.321 759.1L669.115 759.051L668.969 759.011L668.626 759.112L668.383 759.557L668.173 760.05L667.559 760.22L667.364 760.18L667.267 760.059L667.235 760.2L667.227 760.302L667.195 760.374L666.548 760.536L665.905 760.504L665.558 760.402L665.449 760.212L665.384 760.078L665.263 759.937L665.142 759.896H664.976L664.775 759.82L664.887 759.718L664.879 759.625H664.709L664.597 759.532L664.414 759.403L664.406 759.273L664.341 759.112L664.099 758.91L663.787 759.258L663.529 759.46L663.331 759.783L663.056 759.913L662.352 760.216L661.375 760.369L660.878 760.276L660.17 760.045L659.463 759.819L658.735 759.471L658.165 758.93L657.701 758.296L657.652 757.823L657.733 757.326L657.826 756.974L657.733 756.643L657.724 756.319L657.667 756.089L657.392 755.98L657.032 756.048L656.871 756.129L656.519 756.097L656.309 755.955L656.216 755.777V755.421L656.046 755.09L655.755 754.565L655.662 754.524L655.452 754.605L655.258 754.544L655.141 754.387L655.149 754.221L655.117 753.962L654.964 753.7L654.794 753.679V753.526L654.548 753.335L654.321 753.303V753.125L654.058 752.943L653.857 752.822L653.662 752.75L653.601 752.851L653.423 752.661L653.464 752.426L653.269 752.337L653.071 752.248L652.918 752.176L652.821 752.022L652.51 751.872L652.389 751.925L652.227 751.844L652.146 751.872L651.964 751.722L651.722 751.945L651.395 752.183L651.234 752.465L650.591 752.716L649.928 752.951L648.57 753.294H647.866L646.981 753.072L646.396 752.768L646.173 752.146L646.157 751.641L646.092 751.136L645.587 750.468L645.345 749.523L645.114 749.037L644.968 748.836L644.786 748.759L644.511 749.16L644.309 749.463L643.173 749.693H642.465H642.113L641.912 749.261L641.269 749.03L640.853 748.759L640.574 748.585L640.275 748.557L639.859 748.112L639.657 747.951L639.419 747.85L639.137 748.019H638.971H638.696L638.465 747.898L638.336 747.72L637.912 747.777L637.71 747.547L637.487 747.396L637.22 747.275L637.006 747.195L636.853 747.174L636.618 747.113L636.453 747.045L636.251 747.142L636.041 747.295L635.818 747.586L635.208 747.747L634.606 747.82L633.995 748.07L633.579 748.119L633.252 748.288L633.051 748.49L632.853 748.825L632.893 749.096L633.253 749.157L633.832 748.96H634.37L634.633 748.996L635.372 749.157L635.918 749.077L636.148 749.157L636.581 749.077H637.009L637.592 749.906L637.834 751.093L637.866 752.12V753.09L637.656 754.036L637.531 754.352L637.393 754.557L637.223 754.828L636.581 754.772L636.302 754.67L635.998 754.772L635.748 754.804L635.494 754.945H635.089L634.705 754.541L634.434 754.299L634.281 754.117L633.937 754.068L633.493 754.299H633.23L632.668 754.319L632.187 754.421H631.912H631.617L631.447 754.703L631.297 754.934L631.519 755.286L631.6 755.54L631.382 755.771L631.176 755.71L631.03 755.839L631.013 756.094L630.517 756.647L629.684 757.282L629.13 757.755L628.072 758.369L627.283 758.774L626.762 759.056L625.833 759.209L624.56 759.237L624.325 759.216L623.772 758.752L623.452 758.684L623.242 759.396L623.299 759.719L623.044 760.249L622.786 760.467L622.442 760.851L622.459 761.304L622.544 761.656L622.811 761.842L623.114 761.741L623.453 761.842L623.619 761.98L623.691 762.263L623.723 762.848L623.549 763.249L623.242 763.753L622.947 764.125L622.745 764.356L622.584 764.631L622.241 764.529L622.135 764.764L622.175 765.104L622.964 765.468L623.267 765.771L623.453 765.792L623.421 766.245L623.179 766.9L622.892 767.275L622.46 767.817L622.339 767.756H622.137L621.842 767.978V768.362L621.939 768.58L621.535 768.883L621.264 769.118L621.029 768.985L620.783 768.847L620.662 768.915L620.678 769.449L620.88 769.672L619.489 771.514L618.786 772.464L618.281 773.196L617.917 773.904L617.573 774.558L617.395 775.112L617.141 775.367L616.906 775.549L616.562 775.718L616.308 776.021L616.384 776.297L617.294 776.576L617.775 776.879L618.28 777.134L618.24 778.027L618.11 778.794L617.701 779.602L617.5 780.144L617.173 780.826L616.668 781.384L615.968 782.018L615.216 782.625L614.981 782.928L614.044 783.328L614.149 783.983L614.429 784.185L615.055 784.738L615.92 785.272L616.122 785.414L616.93 785.393L617.402 785.818L618.312 785.979L619.739 785.85L620.349 785.708L621.044 784.568L621.279 783.913L621.905 783.327L623.267 782.471L624.278 781.763L624.774 781.521L625.158 781.396H625.987L626.892 781.565L627.64 781.905L628.938 782.742L629.22 782.822L630.069 782.369L630.599 781.633L631.29 780.635L631.682 780.404L632.138 780.356L632.772 780.303L633.476 780.324L634.118 780.222L634.907 779.98L635.113 779.749L635.634 779.777L636.438 779.801L636.976 779.85L638.386 779.615L638.957 779.494L639.724 779.615H640.504L641.507 779.445L641.713 779.598L641.778 779.445L642.918 778.588L644.284 777.42L644.971 777.178L646.078 778.205L647.432 778.366L648.669 778.216L649.704 777.961H650.007L650.803 779.331L651.285 780.523L651.268 781.853L651.107 782.762L650.884 783.999L650.602 784.734L650.201 785.786L650.064 785.923L649.769 785.931L649.434 786.053L649.361 786.214L649.256 786.347L649.158 786.468L649.207 786.67L649.11 786.88L649.004 787.151L648.996 787.414L649.278 787.516L649.344 787.628L649.615 787.596L649.776 787.528L649.914 787.88L649.979 788.325L649.882 788.563L649.655 788.83L649.542 789.008L649.239 789.169L649.045 789.33L649.068 789.54L649.157 789.693L649.109 789.806L648.979 789.823L648.871 789.835L648.79 789.791L648.515 790.013L648.155 790.187L647.803 790.098L647.447 790.037L647.216 790.005L646.99 790.013L646.799 790.208L646.751 790.64V791.016L646.727 791.247H646.581L646.411 791.376L646.484 791.457L646.371 792.031L646.181 792.576L645.922 793.102L645.684 793.502L645.401 793.737L645.179 794.068L644.985 794.44L644.746 794.641L644.488 795.013L644.25 795.36L644.055 795.78L643.998 796.285L643.975 796.839L643.886 797.364L643.72 797.865L643.421 798.431L643.11 798.855L642.746 799.296L642.402 799.712L642.002 800.193L641.505 800.496L641.064 800.577L640.862 800.537L640.6 800.598H640.324L640.151 800.61L639.754 800.731L639.435 800.699L639.297 800.598L638.808 800.517L638.472 800.388L637.991 800.097L637.373 799.794L637.171 799.612L636.811 799.45L636.624 799.41L636.467 799.418L636.33 799.39L636.224 799.289L636.038 799.18L635.783 798.756L635.605 798.534L635.508 798.32L635.399 798.243L635.294 798.251L635.237 798.381H634.97L634.82 798.393L634.699 798.454L634.61 798.583L634.538 798.656L633.899 798.676H633.511L633.111 798.745L632.799 798.987L632.403 799.048H632.027L631.555 798.927L631.268 798.798L630.944 798.859L630.633 798.96L630.406 799.069L630.256 799.06L630.151 798.999L629.973 799.169L629.613 799.545L629.435 799.695L629.229 799.703L629.075 799.715L629.059 800.18L628.824 800.621L628.194 801.772L627.87 802.173L627.47 802.637L627.183 802.94L626.763 803.32L626.307 803.466L626.21 803.28L626.036 803.102L625.841 803.041L625.506 803.102L625.097 802.888L624.709 802.981L624.398 803.102L624.277 803.182L624.171 803.28L623.779 803.413L623.427 803.534L622.914 803.566L622.712 803.542L622.118 802.888L622.029 802.779L622.046 802.181L621.913 802.052L621.726 802.164L621.488 802.273L621.206 802.281L620.951 802.173L620.466 801.982L620.563 801.671L620.587 801.355L620.482 801.044L620.291 801.718L620.186 802.042L620.088 802.466L619.777 802.704L618.702 802.999L617.954 803.25L617.57 803.181L617.4 803.149L617.489 802.927L617.377 802.85L617.442 802.649L617.058 802.212L616.929 802.103L617.009 802.281L616.944 802.383L616.794 802.427L616.616 802.334L616.633 802.629L616.665 802.758L616.616 802.839L616.463 802.799L616.297 802.697H616.185L616.297 803L616.455 803.242L616.624 803.364L616.887 803.513L616.819 803.845L616.617 804.249L616.217 804.754L615.918 804.992L615.797 805.134L615.829 805.498L615.752 805.64L615.004 806.388L614.515 807.002L614.171 807.333L613.824 807.301L613.529 807.265L613.128 807.354L612.861 807.839L612.999 808.07L613.152 808.272L613.063 809.08L613.205 809.237L613.253 809.472L613.286 809.682L613.407 809.924L613.601 810.026L613.953 810.208L614.256 810.229L614.474 810.167L614.701 810.055V809.695L614.883 808.927L615.182 808.535L615.598 808.34L616.168 808.3L617.025 808.332L617.708 808.385L618.197 808.393L618.63 808.442L618.965 808.563L619.296 808.586L619.68 808.521L619.991 808.371L620.347 808.177L620.763 808.075L620.994 808.116L621.677 808.491L622.351 809.045L622.671 809.49L622.881 809.801L623.346 810.015L623.891 810.327L624.202 810.549L624.444 810.751L624.635 810.961L624.804 811.062L625.14 811.143L625.536 811.062L625.903 810.921L626.166 810.719L626.611 810.355L626.793 810.314L627.06 810.327L627.298 810.214L627.557 810.053L627.54 809.794L627.419 809.713L627.347 809.567L627.338 809.41L627.459 809.317L628.316 809.289L628.551 809.16L628.68 809.079L629.056 809.087L629.465 809.196L629.946 809.567L630.726 810.57L631.126 811.221L631.304 811.484L631.535 811.738L631.696 812.021L631.753 812.243L631.696 812.413L631.438 812.32L631.349 812.453L631.454 812.514L631.81 812.684L632.137 814.034L632.266 814.891L632.258 815.073L632.064 815.093L631.943 815.037L631.911 815.206L632.008 815.518L631.943 815.668L631.87 815.659L631.72 815.829L631.737 816.031L631.745 816.173L631.648 816.314L631.616 816.225L631.454 816.342L631.495 816.415L631.438 816.65L631.414 816.751L631.305 816.8L631.265 816.727L631.159 816.84L631.038 816.787L631.022 816.686L630.916 816.658L630.851 816.8L630.957 816.88L631.349 817.442L631.575 817.697L631.895 817.887L632.065 817.895L632.211 817.867L632.323 817.759V817.589V817.354L632.372 817.144L632.578 816.829L632.898 816.254L633.067 815.741L633.197 815.026L633.173 814.392L632.898 812.961L632.837 812.876L632.853 812.787L632.885 812.658L632.994 812.626L633.115 812.618L633.475 812.726L633.54 813.09L633.39 813.139L633.596 814.218L633.636 814.816L633.596 815.217L633.475 815.912L633.204 816.198L633.475 816.376L634.327 815.431L634.126 815.318L634.102 814.716L634.062 814.15L633.904 813.212L633.881 813.062L633.711 813.001L633.703 812.876L633.8 812.868L633.933 812.9L634.063 813.078L634.479 813.224L634.713 814.481L634.608 814.614L634.85 814.865L635.395 814.258L635.185 814.068L635.007 813.421L635.419 813.502L635.593 813.837L635.552 813.906L635.682 814.059L636.146 813.703L636.365 812.906L636.373 812.482L636.511 812.162L636.604 812.049L636.975 812.041L638.548 812.494L638.69 812.466L638.851 812.515L638.923 812.657L638.681 812.725L638.491 812.685L638.345 812.583L638.192 812.575L637.529 812.825L637.327 813.137L636.975 814.059L636.773 814.641L635.468 815.288L634.707 817.329L635.734 819.657L637.524 820.203L638.09 819.151L637.378 817.559L638.122 815.725L638.501 815.454L638.389 814.718V814.379L638.599 813.882L638.853 813.632L638.926 812.972L638.853 812.916L638.95 812.762L639.048 812.775L639.149 812.795L639.335 812.734L639.441 812.762L639.53 812.896L639.857 813.057L639.881 813.498L639.561 814.387L639.326 814.932L639.103 815.562L639.014 816.059L638.869 816.915L638.86 817.509L638.909 818.406L639.111 819.312L639.212 819.926L639.341 820.561L639.358 821.127L639.269 821.612L639.245 821.721L638.829 822.626L638.668 823.184L638.627 823.406L638.636 824.089L638.612 824.736L639.008 825.147L639.114 825.018L639.065 825.2L639.207 825.338L639.482 825.039L639.849 825.026L640.274 825.423L640.29 825.62L640.108 825.811L640.306 826.077L640.051 826.417L639.898 826.429L639.809 826.531L639.728 826.507L639.546 826.519L639.4 826.621L639.328 826.729L639.304 826.891L639.377 826.992L639.296 827.065L639.231 827.206L639.097 827.359L638.992 827.368L638.814 827.558L638.612 827.384L638.398 827.53L637.323 826.419V825.575V825.413L637.028 825.11L637.566 824.75L637.291 824.285L636.745 824.75L636.515 824.544L636.947 824.003L637.25 823.982L637.178 823.166H636.907L636.931 823.316L636.689 823.381L636.591 823.652L635.904 824.428L635.027 824.525L635.043 824.428L635.238 824.234L635.181 823.862L635.993 823.167L636.769 822.149L636.167 821.401L635.758 821.615L636.001 822.37L635.75 822.714L635.091 823.267L634.926 822.653L635.099 822.337L635.205 822.269L635.366 821.905L635.342 821.4L635.48 821.364L635.565 821.048L634.813 820.813L634.724 821.068L634.861 821.209L634.902 821.775L634.756 822.087L634.154 820.959L634.186 820.474L633.329 819.969L633.087 820.183L633.754 821.209L634.146 821.973L634.429 822.713L634.675 823.711L634.74 824.386L634.91 824.434V824.596L634.397 824.617L634.34 824.536L633.992 822.802L633.56 821.723L633.2 821.12L632.864 820.554L632.238 819.706L631.636 819.165L631.034 818.741L630.449 818.499L629.935 817.601L629.846 817.5L629.673 817.29L629.446 817.088L629.543 817.258L629.293 817.44L628.973 817.586L628.638 817.594L628.363 817.554L628.157 817.372L628.011 817.101L627.841 816.859L627.744 816.806L627.602 816.685L627.432 816.664L627.222 816.717L627.032 816.846L626.96 817.048V817.218L626.911 817.379L626.968 817.585L626.83 817.561L626.725 817.877L626.575 817.953L626.244 817.905L625.973 818.43L625.674 818.802L625.557 819.255L625.525 819.7L625.459 819.869L626.021 819.93L626.543 819.842L626.918 819.809L627.31 819.822L627.815 819.652L628.106 819.277L628.171 819.115L628.572 819.232L628.718 819.151H628.883L628.9 819.054L629.231 819.321L629.51 819.277L629.76 819.531L630.015 819.438L630.29 819.729L630.513 819.818L630.553 819.709L630.763 819.741L630.84 820.053L631.058 820.17L631.425 820.63L632.359 821.544L632.783 822.421L633.126 823.735V824.519L633.353 825.045L633.607 826.245L633.769 828.338L633.745 829.43L633.688 830.477L633.453 830.598L633.417 830.82H633.485L633.526 831.245L633.437 831.321L633.428 831.516L633.517 831.524L633.59 831.605L633.484 831.956H633.391L633.375 832.13L633.294 832.187L633.334 832.272L633.229 832.429L632.93 832.542L632.65 832.4L632.456 832.441L632.233 832.574L632.168 832.703L631.95 832.784L631.8 832.937L631.719 833.249L631.784 833.479L631.909 833.762L631.975 834.133L632.087 834.142L631.926 834.776L631.704 835.14L631.574 835.852L631.469 836.219L631.109 837.634L630.947 838.45L630.725 839.165L630.377 839.896L630.131 840.212L629.675 840.996L629.577 841.009L629.497 840.92L629.31 840.96L629.072 841.138L628.805 841.15L628.632 841.178H628.405L628.11 841.17L628.045 841.077L627.795 841.056L627.564 840.874L627.475 840.745L627.313 840.636L627.197 840.414H626.995L626.906 840.382L626.76 840.273L626.36 840.415L626.336 840.605L626.425 841.11L626.073 841.664L625.617 842.108L625.023 843.026L624.558 843.309L624.234 843.188L623.883 843.086L623.624 842.933L623.49 842.925L623.272 843.014L622.912 843.164L622.718 843.31L622.596 843.734L622.709 844.349L622.984 844.591L623.417 844.652L623.922 844.531L624.46 845.072L624.763 846.042L624.924 847.372L625.046 849.808L624.827 850.233L624.892 850.738L625.503 851.405L626.262 852.047L626.408 853.042L626.824 854.804L627.273 855.604L627.451 857.576L627.459 859.41L627.14 859.944L627.074 860.502L627.042 861.04L627.24 861.561L627.785 862.337L628.101 862.41L628.468 862.944L628.549 863.857L628.646 864.338L629.095 865.256L629.568 865.875L630.954 868.643L631.525 870.81L632.398 872.896L632.43 873.458L631.892 874.221L631.37 874.484L631.508 874.889L632.005 874.961L632.215 874.791L632.91 874.957L633.828 874.889L634.188 875.058L634.548 875.341L634.895 876.157L634.98 876.861L635.231 877.152L635.51 877.338L636.129 877.406L636.659 877.357L637.051 877.107L637.455 876.804L638.231 876.772L638.833 877.208L639.035 877.75L639.152 878.061L639.362 878.534L640.219 878.865L640.675 879.092L641.758 879.253L643.338 878.619L644.81 878.214H646.467L648.339 877.843L648.844 877.96L649.422 877.83L650.101 877.737L650.36 877.438L651.632 878.146L652.177 878.343L652.917 878.364L654.206 878.627L655.059 879.148L656.03 879.254L656.782 879.157L658.221 879.496L659.453 879.625L660.569 879.456L661.276 879.86L661.677 880.636L662.182 881.008H662.784L663.762 880.058L664.57 879.901L664.901 879.929L666.222 879.686L667.095 879.962L668.069 880.596L669.172 881.271L669.576 882.277L669.682 882.985L669.375 883.486L669.718 884.565L669.512 885.305L669.953 885.773L670.685 886.109L671.63 886.181L672.471 885.636L672.798 885.231L673.292 885.299L674.019 884.976L674.957 884.725L676.169 884.766H677.075L678.489 885.533L678.921 886.108L679.592 886.641L680.364 886.783L680.788 886.618L681.342 886.412L682.809 886.048L684.021 886.181L685.128 886.548L685.961 887.086L686.572 887.661L687.013 888.566L686.94 889.172L686.435 889.605L685.939 889.908L685.563 890.51L685.635 891.549L686.068 891.791L686.589 891.532L686.812 891.42L687.28 890.947L688.258 890.482L689.891 890.179L690.599 890.211L691.249 890.312L691.722 890.611L691.682 891.392L691.985 892.196L692.39 892.567L693.093 892.094L693.639 891.189L694.273 891.015L695.25 890.481L695.78 889.644L695.756 888.936L695.51 888.637L696.015 887.486L696.799 887.248L697.098 887.155L697.931 887.223L698.805 887.692L699.815 888.294L700.555 889.171L701.06 890.311L700.09 890.946L699.382 891.891L699.31 892.627L699.814 893.403L700.186 894.139L699.846 895.016L699.414 895.582L699.503 897.085L699.301 897.809L699.398 899.183L699.006 900.156L698.372 900.491L698.202 901.566L698.805 902.003L699.782 902.201L700.849 902.099L700.995 901.828L700.955 901.121L701.156 900.72L701.702 900.364L702.28 900.445L702.729 900.526L703.185 900.352L704.466 899.899L705.149 899.324L706.054 899.089L706.68 898.988L707.137 898.657L707.892 898.617L708.749 898.988L709.19 898.976L709.953 898.616L710.915 898.555L712.144 898.486L712.286 897.856L712.585 897.456L713.115 896.821L713.628 896.798L714.299 896.887L714.695 896.628L715.176 896.588L715.6 896.556L716.243 896.725L717.221 897.162L719.169 897.13L719.924 896.184L719.985 895.982L720.644 895.752L721.849 895.76L723.029 895.478L723.627 895.72L723.975 896.354L725.009 896.22L725.402 896.155L725.571 895.913L725.785 895.097L725.548 894.337L725.216 893.864L725.621 892.955L725.819 892.454L725.924 891.848V891.246L725.892 890.741L726.959 890.135L727.937 889.73L728.571 889.471L729.222 889.302L729.751 889.2L730.349 889.268L731.032 889.729L730.729 890.077L730.689 890.577L731.162 890.707L731.307 890.198L731.797 889.975L732.278 889.744L732.832 889.805L733.207 889.903L734.015 889.498L734.512 889.26L735.309 889.118L735.968 888.924L736.481 888.956L737.011 889.198L737.29 889.372L737.395 889.44L738.021 889.396L738.559 889.771L738.854 890.074L739.096 891.141L738.854 891.642L739.032 891.937L739.751 892.422H740.386L740.729 892.119L741.045 892.147L741.469 892.038L741.869 892.261L742.245 892.119L743.49 892.45L743.986 892.563L744.524 892.995L745.175 892.975L745.446 893.428L745.976 893.456L746.235 893.176L746.514 893.153L747.262 893.225L748.03 893.326L748.907 893.929L749.537 894.304L749.812 894.635L751.223 896.753L752.257 897.428L753.51 897.933L754.174 898.434L754.848 898.999L755.402 898.983L755.684 898.797L755.587 898.292L755.256 897.658L754.633 896.934L754.431 895.908L753.837 895.261L753.13 894.837L752.714 894.538L752.532 894.101L752.386 893.527L752.458 893.05L752.475 892.529L752.729 892.043L753.404 891.178L754.03 890.435L754.551 890.269L755.048 890.229L755.311 889.364L755.23 888.649L755.145 888.127L755.521 887.784L755.929 887.549L756.059 887.076L756.532 886.773L756.947 886.975H757.134L757.036 886.267L756.956 885.535L757.102 884.889L757.299 884.25L757.445 883.979L757.64 883.951L758.178 883.919L758.578 883.548L758.627 883.257L758.809 883.075L759.059 883.007L759.318 883.075L759.508 882.82L759.5 882.38L759.46 881.839L759.557 881.301L759.989 880.626L761.13 879.918L761.91 879.454L762.613 879.312L763.321 879.352L763.402 879.425L763.688 879.687L764.347 879.304L764.602 879.202L764.74 879.255L764.958 879.336L765.261 879.643L765.67 879.95L765.536 880.856L765.937 880.997L766.042 881.025L766.167 880.351L766.648 880.552L766.85 880.188L767.323 880.35L767.251 880.725L767.651 880.794L767.757 880.45L768.278 880.418L768.734 880.823L769.385 880.729L769.841 880.664L770.779 880.422L771.398 880.301L772.594 880.491L772.865 880.795L773.572 880.524L774.405 880.592L774.511 880.794L774.786 882.136L775.251 882.289L775.7 883.141L775.853 883.917L775.016 884.754L774.134 885.126L773.629 885.429V885.934L773.973 886.771L773.775 887.547L773.574 888.355L773.703 888.755L773.9 889.293L773.606 889.463L773.868 890.413L773.974 890.744L773.957 891.625L774.103 891.653L774.071 891.876L773.704 891.892L773.728 892.543L772.85 892.823L772.693 892.411L772.394 892.487L772.491 892.92L772.171 893.057L771.489 893.425L770.373 893.295L770.046 892.96L769.771 893.263L769.371 893.526L768.465 893.594L767.584 893.622L767.054 893.724L766.674 893.999L766.581 894.201L766.282 895.005L766.113 895.409L765.417 895.999L765.07 896.286L764.399 897.053L764.028 897.316L763.692 897.437L763.243 897.526L762.985 897.991L762.843 898.362L762.487 899.24L762.754 899.571L763.429 900.217L764.196 900.448H764.807L765.337 900.416L765.68 899.814L766.089 899.652L766.445 899.943L767.123 900.549L768.13 901.73L768.736 902.595L768.664 903.27L767.896 903.948V904.449L768.232 904.712L768.834 904.51L769.811 904.781L770.952 905.415L771.586 905.791L772.26 906.292L773.036 906.19L773.372 905.819L773.174 904.914L773.744 904.651L773.982 904.198L773.95 904.007L774.314 903.502L775.018 903.138L776.4 902.29L776.824 901.829L777.136 901.425L777.6 901.251L779.027 901.267L779.351 901.284L779.334 901.587L779.791 901.628L780.458 902.028L781.404 902.263L781.667 901.891L780.6 901.556L779.521 901.022L778.951 899.842L778.885 898.605L779.172 897.959L779.88 897.142L779.831 896.657L779.52 896.487L778.413 896.992L778.211 896.92L778.276 896.678L778.034 896.58L777.904 896.724L777.034 896.3L776.456 895.847L775.89 895.184L775.486 894.605L775.558 893.935L775.857 893.729L776.192 893.661L776.826 894.505L777.331 895.241L778.075 895.414L778.572 895.111L778.438 894.307L778.237 893.773L778.027 892.965L778.164 892.634L778.516 892.352L779.183 892.021L779.818 892.061L780.347 892.292L780.829 892.696L780.594 893.371L780.274 893.31L779.963 893.581L780.043 893.965L780.168 894.256L780.2 894.712L781.013 895.685L781.429 896.425L782.031 896.696L782.237 896.724L782.205 897.5L781.626 897.803L781.533 897.532L780.721 897.73L780.826 898.712L781.299 898.971L781.397 898.813L782.528 899.589L783.154 899.961L783.263 899.738L783.505 899.637L784.18 899.879L784.988 900.583L785.461 901.331L785.696 902.034L785.789 903.389L785.494 904.035L785.021 904.86L784.05 905.191L783.113 904.92L783.073 905.696L783.849 907.341H784.483L785.053 907.207L785.356 906.763L786.327 907.134L786.986 907.352L787.402 907.74L788.061 908.035L789.625 909.118L790.3 909.786L790.227 910.231L790.531 910.364L790.603 910.029H791.059L791.108 910.425L791.286 910.171L791.432 909.541L791.622 909.173L792.511 908.854L793.444 909.023L793.788 908.801L794.326 908.882L794.358 908.377L794.629 908.179L796.075 908.247L796.811 908.781L797.11 908.276L797.324 908.038L797.615 908.216L798.189 908.924L798.318 909.255L799.604 909.384L800.206 909.122L801.039 909.283L801.847 908.681L801.919 908.147L802.04 907.795L802.489 907.742L802.898 907.77L802.987 907.321L803.46 906.662L804.062 906.46L803.965 905.96L804.858 905.483L805.218 905.292L804.713 903.942L805.153 903.626L806.285 904.184L807.191 904.483L807.36 903.809L808.541 903.538L808.844 902.972L809.046 902.426L808.698 901.593L808.136 901.116L807.392 901.161L806.685 901.767L806.422 902.026L805.545 901.924L804.639 901.257L804.166 900.352L804.207 899.576L804.51 899.345L804.712 899.155L804.858 898.771L804.785 898.415L804.68 898.148L805.047 898.095L805.371 898.515L805.306 898.831L804.966 899.372L805.208 899.546L805.713 899.906L806.578 900.451L806.983 899.813L807.391 899.675L808.062 899.141L808.321 898.955L808.802 899.141L809.476 899.271L810.212 899.804L811.121 901.013L811.465 901.619L812.099 902.468L811.994 903.373L811.319 904.444L811.425 904.844L812.468 904.917L813.51 904.614L814.921 904.383L815.122 904.249L815.288 903.575L814.847 902.669L815.252 901.631V900.984V900.321L815.858 899.945L815.394 899.343L815.725 898.938L815.652 898.332L815.288 897.932L814.815 897.095L814.039 896.949H813.712L813.203 896.084L812.5 895.38L811.938 895.19L811.497 894.39L811.311 893.586L811.141 893.024L809.642 891.913L808.874 890.745L809.364 889.524L809.772 888.699L810.383 887.851L811.328 887.245L812.282 886.885L813.079 886.772L813.047 886.942L813.511 886.974L814.287 887.245L814.724 887.609L815.165 888.312L815.092 888.959L814.785 889.796L814.514 890.229L814.554 890.875L814.385 891.005L814.417 891.882L815.197 892.787L814.938 893.483L815.076 894.259L815.29 893.633L815.173 893.119L815.436 892.651L815.727 892.489L815.468 891.815L815.695 891.439L816.398 891.382L817.138 890.675L817.409 889.527L816.835 889.296L817.21 888.153L817.683 887.207L818.245 886.5L819.053 886.269L819.526 886.201L819.55 885.829L819.63 884.758L819.117 883.429L818.854 882.612L818.895 882.14L818.22 881.364L817.408 881.202L817.105 881.13L816.503 880.192L815.924 879.991L815.694 880.052L815.362 879.118L815.492 878.512L815.767 878.141L815.125 877.373L814.058 878.21L813.585 878.412L812.902 878.007L812.446 877.506L812.171 876.698L811.795 875.721L811.638 875.316L811.092 875.215L810.223 875.59L809.52 875.255L809.115 874.451L808.469 873.505L808.012 872.798L807.909 871.124L807.404 870.348L807.372 869.584L807.635 868.492L807.909 868.028L807.363 867.426L806.729 867.224L806.055 865.842L805.719 865.409L804.846 865.538L804.539 864.864L804.846 863.458L805.247 862.487L806.095 861.61L805.775 861.238L805.23 861.056L804.931 860.774L804.382 860.026L803.456 859.536L802.951 858.938L802.87 857.912L802.777 855.976L803.407 854.153L804.074 853.356L804.733 852.952L805.897 853.113L806.402 853.586L807.331 854.693L807.934 855.17L808.572 855.299L809.049 854.592L810.427 853.678L810.665 853.828L812.173 853.76L813.409 853.917L815.325 854.458L817.278 855.226L818.478 856.333L820.066 857.141L821.206 857.546L822.483 858.653L823.764 859.53L825.074 859.963L827.022 861.042L828.667 861.951L830.158 863.2L832.393 864.57L833.574 865.374L835.388 866.012L836.621 866.816L838.779 867.39L840.687 868.308L842.235 868.2L843.723 868.503L844.907 868.361L845.469 868.208L847.506 868.127L848.424 868.402L850.097 868.099L851.31 867.764L852.151 867.804L852.648 867.825L853.731 867.668L855.215 867.865L855.938 868.039L856.516 867.971L857.159 867.926L857.983 868.253L858.497 868.169L859.907 867.967L860.206 868.032L860.638 868.011L860.941 868.072L861.56 868.432L862.228 868.675L863.076 868.634L863.784 869.079L864.289 869.31L865.194 868.979L865.756 868.372L865.429 867.968L864.721 867.629L864.543 867.669L864.24 866.893L864.038 865.915L864.24 865.68L864.49 865.854L864.745 865.708L865.08 865.522L865.593 865.579L865.828 865.68L865.796 866.314L866.358 866.791L867.066 866.69L867.64 866.185L868.077 865.983L868.675 865.854L868.78 865.511L869.055 865.349L869.181 865.709L869.382 865.883L870.288 866.186L871.242 866.118L871.909 865.609L872.248 865.208L872.479 864.441L872.935 863.644L872.2 863.709L871.436 863.859L870.588 864.012L869.625 863.911L868.821 863.758L868.413 863.859L867.964 863.104L867.705 861.997L867.656 860.886L867.964 859.527L868.413 858.819L869.172 858.064L869.774 857.814L870.587 857.664L871.339 857.611L871.892 857.967L871.941 858.42L871.597 858.804L871.803 859.001L872.045 859.224L872.845 858.819L873.706 858.164L874.514 857.764L875.222 857.21L875.157 856.839L874.962 855.598L874.865 854.135L875.516 852.571L876.328 851.767L877.435 851.161L878.243 851.011L879.35 852.017L879.936 852.389L880.303 852.624L880.825 853.339L880.655 853.642L880.457 854.539L880.712 854.588L882.325 853.784L883.735 852.874L885.95 850.858L886.258 849.653L885.647 849.851L885.045 850.404L883.881 850.207L883.23 849.601L882.422 849.147H881.917L881.565 848.238L881.763 847.231L882.119 846.778H882.725H883.174L883.433 845.868L883.231 845.214L883.328 844.203L885.095 842.59L885.446 842.291L885.552 841.737L884.695 841.078L883.988 841.184L882.929 841.232L882.024 839.769L881.716 838.561L881.708 837.155L882.12 835.74L881.316 836.092H880.964L880.54 835.422L880.459 834.278L880.762 833.773L881.267 833.672L881.413 833.421L881.566 832.917L881.469 832.363L881.7 831.967L882.278 831.833L882.824 832.113L883.232 832.566L884.19 832.719L885.293 832.363L886.555 831.963L886.987 831.562L886.353 831.356L885.447 831.155L884.591 831.405L883.637 831.659L882.978 831.757L881.943 831.562L881.494 831.287L880.86 830.903V830.046L881.114 828.704L880.427 828.139L879.946 827.859L879.664 827.815L879.301 828.339L878.73 828.824L878.37 828.623L878.973 826.969L879.619 826.408L880.423 826.165H881.15L881.753 825.761L882.242 825.559L882.723 825.733L883.228 825.543L882.193 824.957L881.712 824.739L881.296 824.726L880.552 824.484L879.861 824.715L879.562 824.957L879.34 824.715L878.973 824.108L879.381 823.426L879.862 822.9L880.505 822.698L880.914 821.728L880.465 820.843L880.67 819.836L880.751 819.109H880.181L879.579 819.27H878.973L878.649 818.543L878.491 819.27L878.087 820.074L877.93 821.408L877.606 821.97H876.955L876.397 821.768L875.545 822.051L875.504 822.977L874.663 823.138L873.774 823.263L872.683 823.021L871.632 822.697L871.15 823.34L871.348 824.593V825.999L871.028 826.847L870.729 826.945L870.709 826.326L870.426 825.518L869.989 824.467L869.418 823.946L868.978 824.229L868.736 824.916L868.129 825.195L867.366 825.68L866.998 826.121L865.915 825.761L865.426 826.085L865.029 826.279L863.708 825.35L862.843 825.132L862.884 824.687L864.02 824.108L863.373 823.381L863.814 823.224L863.454 822.779L863.627 822.181L862.08 822.552L861.501 822.491L860.653 823.445L859.97 824.132L859.594 824.395L859.352 824.383L858.814 823.946L858.454 823.38L858.575 822.536L859.016 822.172L858.616 821.565L858.134 821.286H857.726L857.164 820.559L856.602 820.276L855.951 820.6H855.83L855.389 820.034L855.151 819.27L855.309 818.624L855.591 818.422L855.992 818.462L856.271 818.058L855.389 816.368L854.581 815.641H853.939L853.01 815.681L852.125 816.489L851.595 817.374L850.104 817.293L849.899 817.573L850.072 818.276L849.988 818.825L849.842 819.848L849.385 819.351H848.654L848.581 819.707L848.431 820.078L847.995 820.503L847.522 820.22L846.657 820.382L845.966 820.753L845.38 820.854L844.22 821.889L843.336 822.657L842.494 823.267L842.022 823.166L841.763 822.818L841.193 822.576L840.393 821.364L840.466 820.988L839.863 820.786L839.702 820.196L839.423 819.696L838.404 819.817L839.496 819.384L840.834 819.271H841.194L841.283 818.827L842.568 819.55L843.178 819.954L843.336 819.753L844.18 819.551L844.988 818.463L846.322 817.255L848.132 815.724L849.543 814.555L849.947 813.788L851.317 812.781L851.357 812.255H849.947L849.264 812.013L849.103 811.609L849.385 811.208L850.314 810.763L850.755 810.521L850.723 810.275L849.608 809.822L849.305 809.353L849.385 808.585L849.947 808.064L851.196 808.666L851.806 808.751L852.409 808.342L852.89 807.821L853.657 807.902L854.219 807.74L855.751 807.134L856.418 806.847L856.785 807.009L857.165 807.659L857.884 808.266L858.535 808.104L858.855 807.337L859.586 806.613L860.309 806.249L860.669 805.198L861.126 804.761L861.639 804.611L862.281 804.999L862.568 805.068L862.932 805.157L863.445 804.83L863.611 804.595L863.829 804.134L863.789 803.419L863.373 802.401L863.131 801.973L862.885 801.787L862.505 801.848L861.992 802.259L861.054 803.218L860.59 803.105L860.254 802.725L860.068 802.337L860.238 802.01L860.46 801.747L860.933 801.493L861.487 800.959L861.802 800.615L863.003 800.514L863.456 800.162V799.677L863.011 798.263L862.894 797.135L863.294 796.694L863.905 796.492L866.56 799.354L866.277 800.122L865.518 801.209L865.594 801.892L866.277 802.297L866.879 802.135L867.53 802.014H868.092L868.698 802.5L869.22 802.864L868.011 802.904L867.417 802.961L867.135 803.854L866.48 804.679L866.84 804.876L867.37 805.001L867.932 804.677L868.542 804.031L869.342 803.829L870.833 804.597L872.247 805.078L872.805 805.199L873.536 804.961L873.856 805.159L874.353 805.013L874.62 804.512L873.856 804.192L873.177 803.509L872.821 802.462L872.887 801.957L873.024 800.971L873.384 799.601L874.14 797.581L874.589 797.18L875.385 797.019L875.576 796.639L875.656 796.194L875.576 795.479L875.519 794.833L875.551 793.996L875.422 793.192L874.925 792.897L874.302 793.147L874.124 794.218L873.668 794.46L873.017 793.587L872.366 793.146L871.738 793.532L871.31 793.104L871.326 792.51L871.561 791.976L872.244 791.77L872.802 791.41L873.372 791.45L873.614 791.491L874.786 790.484L875.789 790.524L876.557 790.762L876.847 790.54L876.956 790.317L877.117 789.635V789.433L878.055 788.98L878.273 788.725L878.504 788.301L878.459 787.97L878.169 787.618L877.882 787.064L878.145 786.357L878.42 786.086L878.853 785.965L879.22 786.086L879.381 786.207L879.572 786.296L879.79 786.134L879.62 785.884L879.293 785.783L879.172 785.609L879.285 784.926L879.463 784.675L879.653 784.603L879.904 784.675L880.264 784.877L880.546 784.824L880.873 784.473L880.712 783.947H880.385L880.583 783.587L880.914 783.385L880.994 782.9L881.395 782.217L880.546 782.294L879.984 781.853L878.893 782.737L878.974 783.263L879.341 783.825L879.235 784.229L878.811 784.674L878.281 784.982L877.117 784.674L876.798 784.954L876.467 785.98L876.066 786.853L875.787 787.254L875.9 787.485L875.391 787.541L875.185 787.569L874.825 787.537L874.453 786.41L874.093 786.208L873.612 786.49L872.921 786.895L872.764 787.416L872.399 787.578L871.797 787.012L871.267 787.056L870.964 787.614L870.621 788.148L869.946 788.5L869.457 787.982V787.497L869.618 787.012L869.711 786.159L870.197 786.062L870.892 785.436L871.47 785.44L872.352 784.963L873.043 784.882L873.613 784.559L873.662 784.118L874.037 783.948L874.461 784.057L874.826 783.87L875.586 783.185L876.188 782.401L876.286 781.646L876.173 781.315L875.724 781.537L874.373 781.775L873.614 781.735L873.084 782.014L872.603 782.58L871.512 782.256L870.63 782.418L870.189 782.863L868.815 784.031L868.366 784.313L868.237 784.604L868.047 785.041L867.323 785.566L866.592 785.602L865.792 785.643L865.101 785.441L864.66 785.243L864.454 784.605L864.515 784.403L864.22 784.113L863.209 783.789H863.048L862.648 784.314L862.361 785.082V785.644L862.2 786.25L861.88 786.574L861.278 786.453L860.788 785.887L860.384 785.406L860.024 785.244H859.543L859.413 784.958L859.583 784.606L860.266 783.713L860.306 783.026L859.744 782.865L858.972 782.905L858.693 782.541L858.067 782.258L857.776 781.644L857.874 781.232L857.842 780.727L857.555 780.323L857.042 780.533L856.682 780.375L856.552 780.323L855.59 780.456L854.588 780.795L854.151 780.978L853.775 780.848L852.805 779.922H852.485L851.859 780.06L851.624 780.161L851.321 780.133L850.687 780.194L850.67 780.489L851.018 780.885L851.762 781.189L851.964 781.46V781.803L851.434 781.86L851.499 782.135L850.109 782.6L849.676 783.526L849.397 783.808L849.178 784.05L849.081 784.422L849.259 784.842L849.7 784.56L850.67 784.519H851.232L852.129 784.523L852.829 784.826L852.926 785.182L852.037 785.332L851.617 785.692L851.738 786.178L851.233 786.631L850.158 786.352L849.758 786.562L849.637 786.873L849.35 787.217L847.811 786.214L847.423 786.267L847.014 786.4L846.412 786.073L846.452 786.417L846.783 787.225L847.288 787.867L847.926 788.554L848.128 789.116L848.714 789.844L848.233 789.823L847.865 789.884L847.566 790.026L847.543 790.248L847.118 790.224L846.718 789.764L846.435 789.481L846.173 789.299H845.849L845.715 789.481L845.586 789.825L845.756 790.411L845.813 791.074L845.667 791.337L845.186 791.377L845.065 791.195L844.664 790.831L844.397 790.326L844.264 789.481V788.394V788.091L843.685 788.006L843.132 788.434V789.501L842.986 790.568L843.107 791.416L843.05 791.982L842.864 792.746L842.383 793.691L842.237 794.136H841.574L841.052 794.075L840.664 793.974L840.026 793.368L839.905 793.13L840.123 792.725L840.689 791.981L841.013 791.152L841.134 790.223L841.291 789.479L841.542 788.598L841.574 787.886L841.307 787.801L841.027 788.047L840.32 788.832L840.025 789.539L839.798 790.222L839.624 790.408L839.478 790.667L839.171 791.172L838.589 790.99L838.184 790.889L837.743 791.171L837.678 791.716L837.44 792.136L836.999 792.318L836.813 792.221L836.47 791.473L836.211 791.331L835.908 791.533L835.544 792.135L835.24 792.54L835.014 792.904L834.295 793.349L833.814 793.243L833.349 793.006L832.739 792.743L832.44 792.46L831.91 791.413L831.575 791.231L831.413 790.645L831.231 790.387L831.085 790.366V790.042L831.388 789.699H831.655H831.793L832.136 789.719L832.577 790.084L833.203 790.989L833.441 791.01L833.708 790.791L833.522 790.424L833.308 790.064L833.546 789.74L833.788 789.316L833.642 788.653L833.892 787.966L834.293 787.541L834.798 787.222L835.052 787.016L835.303 786.859L835.54 786.814H835.945L836.592 786.879L836.891 786.697L837.154 786.273L837.291 785.97L837.21 785.307L837.316 784.802L837.155 784.6L836.609 785.444L836.007 785.929L835.502 785.95L835.078 785.668L834.415 785.51L834.091 785.309L833.546 785.37L833.202 785.669L833.162 786.194L832.761 786.68L831.832 786.841L831.311 786.962L830.987 787.184L830.667 787.386L829.111 787.225L828.711 787.545L828.141 787.746L827.352 787.948L826.774 788.13L826.39 788.029L825.845 788.251L825.622 788.272L825.42 788.07L825.461 788.434L824.713 788.532L824.087 788.633L823.222 788.779L822.7 789.038L822.397 789.381L821.956 789.462L821.435 789.3L821.208 789.22L820.946 789.3L819.996 790.594L818.944 792.485L818.665 793.431L818.201 794.542L817.719 795.549L817.158 796.236L816.572 796.838L816.188 796.862V797.201L815.48 797.504L815.8 797.1L815.643 796.453L815.881 795.669L815.683 795.086L815.8 794.722L815.865 793.878L815.586 792.564L816.091 790.891L816.329 790.288L816.531 790.006L816.866 788.854L816.49 788.313L815.88 787.949L815.746 787.286L815.839 786.817L816.106 786.7L816.426 786.134L816.466 785.71L816.41 785.31L816.814 784.905L816.956 784.763L817.28 784.622L818.448 784.823L818.852 784.378L818.691 783.833L818.464 783.413L818.691 782.827L818.731 782.545L818.708 781.741L818.651 780.973L819.051 779.704L819.573 779.259L819.88 779.178L820.442 779.138L820.866 779.117L821.553 778.793L822.115 778.353L822.7 778.09L823.408 777.848L823.687 777.443L823.793 776.72L823.954 776.376L824.011 776.255L824.209 776.357L824.274 775.932L823.809 775.771L823.086 775.573L822.342 775.327L821.837 774.948L821.292 775.028L821.066 774.382L821.716 774.038L821.09 773.456L820.811 773.981L819.336 774.422L819.069 773.836L819.518 772.85L820.08 771.924L820.665 771.54L821.373 771.479H822.092L822.48 771.581L822.597 771.136L822.359 770.735L821.692 770.695L820.729 770.796L819.597 771.095L818.906 771.56L818.147 772.005L817.08 771.984L816.454 771.762L816.045 771.357L815.524 770.772L815.18 770.473L814.595 770.513L814.057 770.795L813.749 771.281L813.111 771.842L812.218 772.525L808.972 772.343L808.467 772.263L808.011 771.943H807.599L806.815 772.085L806.132 772.133L805.789 772.254L805.405 772.141L804.843 771.964L804.257 771.519L803.753 771.183L803.11 770.872L802.71 770.771L802.459 770.734L802.003 769.643L801.7 768.879L801.643 768.415L801.497 767.469L801.376 766.984L801.194 766.842L801.177 766.397L800.51 765.892L800.143 765.856L799.157 765.67L798.635 765.633L798.207 765.957L797.463 766.095L796.396 766.803L796.275 765.918L795.531 765.332L794.48 764.342L794.929 763.376L794.464 762.491L794.141 761.38V761.081L794.359 760.757L794.581 760.252L794.743 759.848L794.423 759.787L793.893 759.104L793.529 759.544L792.931 759.625L792.77 759.286L792.386 758.862L791.654 757.992L791.173 757.066L791.092 755.979L791.254 755.393L791.517 755.029L791.921 755.009L792.241 754.928L792.467 754.508L792.346 753.942L792.641 753.138L792.868 752.871L793.398 752.669L794.505 752.067L794.865 751.743L796.862 750.17L797.447 749.827L798.033 748.841L798.712 748.158L798.691 747.552L798.513 747.39L798.691 747.087L799.058 746.824L800.061 746.364L800.829 746.926L801.176 746.987L801.447 746.946L801.545 746.708L801.577 746.377L801.439 745.937L801.273 745.294L800.631 744.166L800.752 743.581L800.55 743.18L800.207 742.856L799.685 742.877L799.059 743.123L798.659 742.776L798.19 742.23L798.392 741.563L798.674 741.264L799.042 741.118L799.195 741.061L799.231 740.686L799.089 740.221L799.032 739.894L799.153 739.49L798.992 738.843L798.71 738.601V738.241L798.285 737.615L798.047 737.494L797.647 737.676L797.42 738.302L797.077 739.146L796.859 739.47L796.208 739.612L795.448 739.288L794.887 738.985L794.66 738.843L793.714 739.167L793.795 739.47L794.437 739.894L794.887 740.517L794.967 740.901L795.383 741.321L795.326 742.413L795.205 742.756L795.1 743.965L794.853 744.624L794.065 744.995L793.507 745.339L793.047 745.799V746.021L792.663 746.522L792.542 746.946L792.077 747.209L791.92 747.027L791.734 747.169L791.694 747.553L790.748 748.135L790.251 748.377L789.984 748.297L789.802 748.195L789.786 748.863L789.559 749.064L789.239 749.044L788.932 749.605L789.615 750.515L789.437 750.657L788.75 749.909L787.986 750.394L787.465 750.798L787.295 750.616L785.909 751.647L784.802 752.27L784.034 752.771H783.751L783.129 751.946L782.951 752.027L783.286 752.754L783.129 753.396L782.567 753.659L782.543 754.145L781.633 754.565L781.419 754.427L781.137 754.565L781.234 754.847L781.258 755.009L780.264 755.655L779.581 756.278L779.116 757.187L779.181 757.548L779.582 757.815L779.768 758.073L780.491 757.992L781.053 757.669L781.583 757.422L781.453 756.958L781.583 756.707L781.918 756.618L782.743 757.184L782.791 757.593L783.474 758.377L784.076 759.388L784.117 760.294L784.036 761.381L783.712 761.644L783.752 761.866L784.298 761.624L784.459 761.705L783.914 761.987L783.409 761.967L783.433 762.149L784.035 762.21L784.362 762.089L784.419 762.897L784.621 764.287L784.818 765.375L784.539 766.522L784.842 767.892L784.482 767.932L784.539 768.6L783.977 769.323L784.923 770.256L784.058 769.97L783.205 769.909L782.34 770.07H781.835L781.354 770.009L781.378 769.706L780.711 768.942L780.791 768.316L780.645 768.034L780.488 768.276L780.553 768.437L780.505 769.12L780.573 769.27L780.157 769.618L779.886 769.59V769.223H779.579V769.59L778.527 769.489V769.283H778.289L778.184 769.525L777.606 769.489L777.02 769.849L776.717 770.192L775.969 770.475L774.942 770.551L774.198 770.697L773.531 771.198L773.01 771.643L771.696 771.481L772.463 770.915L772.641 770.252L772.985 769.626L773.227 768.859L773.344 768.498L774.173 768.276L774.637 767.932L775.159 767.953L776.634 766.825L776.169 766.158L775.462 765.673L774.997 765.393L774.156 765.272H773.408L772.745 765.656L772.037 766.339L771.314 766.965L770.162 768.133L769.35 768.63L769.128 769.268L769.244 769.478L768.958 769.923L768.845 769.628L768.211 769.398L767.403 769.786L766.777 770.392H766.514L766.671 769.688L766.474 769.644L766.15 770.913L765.043 770.752L763.976 770.574L763.567 770.008L763.673 767.672L763.608 766.601L763.898 765.995L764.916 763.768L766.286 761.941L766.88 761.056L766.553 760.636L765.644 760.676L765.042 760.293L764.819 760.05L764.641 759.185L764.52 757.831L765.09 756.764L764.795 755.927L764.812 754.776L764.496 754.125L763.939 753.923L762.949 754.085L761.659 754.529L760.851 755.091L759.837 755.677L759.134 755.556L758.572 755.717L757.359 756.453L756.6 756.805L755.932 758.255L755.265 759.04L754.865 759.828L754.627 760.434L754.514 760.466L754.239 760.038L753.952 759.788L753.653 759.909L753.511 760.07L753.592 759.003L753.838 758.32L754.057 758.458L754.441 757.735L754.962 757.149L755.002 756.918L755.225 756.599L755.394 756.582L755.629 755.94L755.451 754.731L755.201 754.464L754.825 754.448L753.96 755.434L753.293 756.121L752.966 756.884L752.642 757.066L752.242 756.905L752.056 756.076L751.696 755.272L751.053 753.983L750.79 753.017L750.952 752.289L751.433 751.36L751.849 750.907L752.387 750.576L752.524 750.099L752.965 749.853L753.551 749.586L754.133 748.943L754.663 748.519L755.77 748.418L756.773 748.236L757.08 747.977L757.063 747.553L757.367 747.334L757.863 747.351L758.595 747.33L758.89 747.169L759.339 747.007L759.557 746.906L759.799 746.49L759.581 746.123L758.89 746.099L758.595 746.285L758.328 746.205L758.09 746.103L757.977 746.12L757.912 745.796L757.952 745.432L758.065 745.173L758.154 744.971L758.271 744.647L758.57 744.627L759.019 744.748L759.076 744.477L759.189 744.08L759.305 744.032L759.427 743.364L759.483 743.195L759.718 743.013L760.134 742.778L760.502 742.943L760.801 743.068L760.998 743.327L761.431 743.153L761.511 742.878L761.56 742.587L761.463 742.377L761.24 742.224L761.071 742.305L760.958 742.495L760.623 742.56H760.469L760.207 742.548L759.685 742.435L759.314 742.508H758.898L758.497 742.48L758.376 742.306L758.643 742.003L758.923 741.785L759.246 741.634L759.363 741.311L759.255 741.035L759.045 740.866L758.345 740.664L758.107 740.571L757.906 740.664L757.817 740.596L757.897 740.422L758.018 740.159L758.188 739.969L758.491 740.017L759.405 740.433L759.769 740.421L759.959 740.19L760.072 739.866L759.991 739.542L759.83 739.292L759.87 738.855L760.194 738.576L760.659 738.294L760.97 738.289L761.375 738.495L761.767 738.645L761.989 738.698L762.256 738.848L762.354 739.079L762.754 739.301L763.243 739.431L763.595 739.766L763.996 739.968L764.5 740.4L764.735 740.845L764.945 740.954L764.816 741.176L764.638 741.155L764.533 741.268L764.448 741.377L764.286 741.336L764.149 741.357L763.987 741.47L763.724 741.409L763.421 741.336H763.001L762.819 741.425L762.472 741.272L762.827 741.656L763.163 741.741L763.398 741.66H763.968L764.865 741.62L765.361 741.539L765.883 741.478L766.258 741.345L766.485 741.154L766.659 740.932L766.974 740.79L767.326 740.693L768.041 740.216L768.272 739.662L768.49 739.096L768.664 738.3L768.672 737.969L768.834 737.528L768.899 737.354L768.867 736.857L768.843 735.488L768.673 735.136L768.65 734.784L768.747 734.392L769.022 733.98V733.806L768.876 733.604L768.638 733.617L768.468 733.767L768.307 733.828L767.563 733.537L767.232 733.516L766.905 733.476L766.522 733.17L766.539 732.794L766.458 733.069L766.297 732.964L766.369 732.523L766.458 732.373L766.475 732.223L766.369 732.361L766.337 732.433L766.159 732.259L766.062 732.291L766.183 732.474L766.207 732.764L766.141 732.914L765.927 732.927L765.588 732.914L765.422 732.853L765.075 732.724L764.379 732.23L763.939 731.866L763.72 731.567L763.51 731.414L763.191 731.305L762.911 731.244L762.636 731.253L762.284 731.361L761.9 731.393L760.974 731.211L760.485 731.01L760.15 730.799L759.923 730.605L759.733 730.455L759.402 730.285L759.228 730.152L759.066 730.143L758.755 730.164H758.473L758.25 730.083L757.365 729.429L756.965 729.125L756.719 728.871L756.314 728.64L755.995 728.309L755.752 728.127L755.579 727.977L755.377 727.532L755.239 727.14L754.649 727.015L754.088 726.817L753.429 726.708L753.178 726.656L752.475 726.17L751.872 725.661L751.59 725.337L751.55 725.132V724.909L751.679 724.792L751.857 724.841L751.914 724.679L751.808 724.437L751.703 724.247L751.63 724.154L751.473 724.186L751.376 724.275L751.303 724.347L751.182 724.368L751.061 724.328L750.944 724.215L750.839 724.045L750.822 723.629L750.806 723.423L750.863 723.116L751.053 722.885L751.174 722.805L751.663 723.33L751.744 723.391L751.85 723.258L751.53 722.736L751.49 722.554L751.898 721.636L752.089 721.535L752.044 721.442L752.052 721.252L752.137 721.143L752.21 721.071H752.363L752.683 720.788L753.87 720.8L753.887 720.647H753.535H753.164L753.079 720.579L752.602 720.591L752.404 720.49L752.194 720.308L752.122 720.113L752.029 720.154L751.923 720.113L751.858 720.207L751.425 720.255L751.337 720.215L751.264 720.336L750.993 720.408L750.71 720.255L750.533 720.113L750.261 719.814L750.019 719.511L749.538 718.873L749.252 718.222L749.042 717.669L748.961 717.183L748.977 716.678L749.107 716.456L749.26 716.335L749.398 716.363L749.506 716.464L749.587 716.488L749.7 716.509L749.78 716.456L749.38 716.225L749.194 716.112L749.129 715.862L749.258 715.486L749.476 715.066L749.578 714.771L749.658 714.695L749.626 714.331L749.812 714.108V713.995L749.723 713.947L749.885 713.845L749.828 713.635L749.747 712.617L749.61 711.922L749.489 711.598L749.387 711.606L749.298 711.651L749.112 711.586L748.688 711.699L748.32 711.719L748.062 711.658L747.888 711.597L747.661 711.496H747.451L747.091 711.504H746.78L746.578 711.273L746.432 711.152L746.282 711.233L746.234 711.366L746.553 711.778L746.432 711.819L746.356 711.717L746.235 711.738L746.048 711.867L745.608 711.928L745.288 711.88L745.304 711.726L745.094 711.686L745.192 711.084L745.062 711.063L744.949 711.629L744.549 711.557L744.566 711.383L744.485 711.557L744.271 711.504L744.23 711.699H744.093L743.915 711.618L743.786 711.505L743.684 711.448L743.514 711.347L743.353 711.023L743.228 710.586L743.05 710.425L742.649 710.033L742.399 709.842L742.238 709.753L742.088 709.681H741.91L741.732 709.62L741.437 709.47L741.202 709.275L741.134 709.167V709.086L740.932 709.114L740.948 709.025L740.706 708.673L740.573 708.479L740.476 708.288L740.363 708.074L740.282 707.876L739.915 707.775L739.58 707.553L739.135 707.188L738.645 706.675L738.261 706.033L738.079 705.657L737.74 705.063L737.509 704.542L737.372 704.065L737.306 703.571L737.323 703.147L737.395 702.937L737.355 702.683L737.29 702.351L737.339 702L737.404 701.769L737.372 701.413L737.194 701.041L737.056 700.779L736.941 700.412L736.884 700.029L736.941 699.827L736.965 699.547L736.827 699.325L736.658 699.139L736.585 699.07L736.537 698.828L736.46 698.618L736.339 698.417L736.178 698.222L735.931 697.911L735.802 697.822L735.624 697.72L735.426 697.64L735.151 697.619L734.897 697.651L734.727 697.719L734.432 697.921L734.214 698.042L733.987 698.123L733.797 698.171L733.413 697.972L733.195 697.822L732.904 697.761L732.641 697.72L732.455 697.659L732.217 697.631L732.031 697.752L731.893 697.869L731.671 698.043L731.429 698.253L731.206 698.382L730.822 698.524L730.442 698.577L730.091 698.617L729.816 698.678L729.633 698.699L729.326 698.671L728.991 698.688H728.688H728.607L728.567 698.829L728.526 698.95L728.437 699.003L728.365 699.165L728.102 699.226L727.86 699.327L727.694 699.465L727.638 699.55L727.476 699.666L727.226 699.747L727.035 699.726L726.457 699.767L725.863 699.516V699.326V699.132L725.774 698.82L725.624 698.525L725.503 698.125H725.431L725.333 698.173L725.511 698.618L725.653 698.788L725.677 698.869L725.609 698.97L725.414 699.051L725.228 699.091H725.071L724.965 698.909L724.997 698.8L725.086 698.728L725.062 698.599L724.731 698.688L724.828 698.849L724.845 698.962L724.773 699.07L724.635 699.151H724.469H724.316L724.251 698.99L724.194 698.828L724.086 698.82L723.891 698.881L723.81 699.038L723.745 699.325L723.729 699.624L723.705 699.757L723.547 699.879L723.378 699.94L723.143 700.061L722.808 700.271L722.254 700.521L721.983 700.593L721.748 700.573L721.348 700.492L721.178 700.471L720.875 700.37L720.737 700.289L720.584 700.317H720.434H720.24H720.11L719.949 700.249L719.824 700.241L719.726 700.317L719.581 700.309L719.375 700.277H719.188L719.059 700.398L718.946 700.572L718.796 700.64L718.546 700.721L718.4 700.741L718.347 700.924L718.282 701.004L718.153 701.045L717.68 701.134L717.397 701.146L717.054 701.195L716.799 701.247L716.509 701.268L716.356 701.228L716.262 701.046L716.271 701.228L716.206 701.336L716.084 701.429L715.773 701.58L715.701 701.511L715.733 701.196L715.79 700.905L715.499 700.695H715.418L715.426 700.771L715.515 700.865L715.596 700.966L715.636 701.087L715.564 701.479H715.362L715.124 701.471L714.874 701.479L714.651 701.411L714.619 701.258L714.554 701.33L714.441 701.358L714.081 701.379L713.689 701.249L713.382 701.209L713.184 701.258L712.966 701.249L712.828 701.156L712.695 701.197L712.549 701.338L712.436 701.311L712.044 701.319L711.955 701.251L711.85 701.259L711.449 701.097L711.065 700.887L710.79 700.726L710.608 700.467L710.373 700.245L710.147 700.152L709.843 700.031L709.476 699.861V699.768L709.355 699.679L709.044 699.55L708.761 699.465L708.664 699.448L708.539 699.55L708.45 699.526L708.337 699.449L707.945 699.384L707.815 699.242L707.448 698.579L707.367 698.377L707.311 698.087L707.278 697.824L707.173 697.582L707.02 697.452L706.895 697.299L706.878 697.231L706.34 696.887L706.13 696.826L705.94 696.697L705.657 696.596L705.471 696.442L705.354 696.353L705.248 696.192L704.998 696.002L704.856 695.929L704.776 695.8L704.678 695.788L704.492 695.828L704.327 695.889L703.93 695.99L703.627 696.003L703.203 695.918L702.879 695.761L702.559 695.587L702.288 695.457L702.046 695.296L701.852 694.993L701.694 694.722L701.589 694.548L701.468 694.491H701.347L701.06 694.406L700.899 694.358L700.693 694.39H700.475L700.244 694.329L700.017 694.268L699.896 694.227L699.767 694.106L699.65 694.094L699.432 694.316L699.351 694.579L699.254 694.95L699.201 695.185L699.031 695.294L698.861 695.415L698.749 695.483L698.607 695.544L698.412 695.759L698.291 695.928L698.219 696.017L697.924 696.17L697.689 696.162L697.492 696.271L697.257 696.339L696.986 696.371L696.832 696.359L696.743 696.27L696.663 696.096L696.506 695.999L696.4 695.946L696.36 696.107L696.44 696.237L696.57 696.309L696.678 696.41L696.61 696.572L696.735 696.814L696.678 696.903L696.295 697.113L696.36 697.234L696.165 697.367L695.822 697.537L695.535 697.679L695.308 697.7L695.098 697.639L694.908 697.497L694.868 697.577L694.795 697.63L694.371 697.537L693.939 697.436L693.777 697.395L693.616 697.294L693.458 697.052L693.369 697.105V697.295V697.448L693.491 697.557L693.673 697.665V697.827L693.73 698.17L693.443 698.473L693.031 698.898L692.745 699.099L692.567 699.168L692.28 699.087H692.11L691.904 699.099L691.662 699.188L691.468 699.249L691.343 699.411L691.148 699.742L690.978 699.895L690.828 700.004L690.723 699.955L690.537 699.983L690.439 700.064L690.144 700.043L689.825 700.035H689.655L689.437 700.092H689.182L688.932 699.983H688.83H688.661L688.58 699.894L688.378 699.822L688.237 699.842L688.067 699.895L687.954 700.045L687.849 700.287L687.691 700.518L687.683 700.66L687.473 700.821L687.376 701.003V701.355L687.25 701.468L686.984 701.629L686.704 701.678L686.3 701.746L685.899 701.759H685.734H685.636L685.164 701.71L685.01 701.496L684.784 701.427H684.659L684.506 701.516L684.417 701.658L684.408 701.787L684.271 701.949L684.105 702.03L683.935 702.203L683.749 702.474L683.664 702.616L683.276 702.919L683.079 703.073L682.844 703.178L682.715 703.243L682.5 703.304L682.339 703.272L682.076 703.454L682.036 703.556L682.403 704.251L682.549 704.684L682.666 704.885L682.884 705.209L683.159 705.48L683.35 705.622L683.592 706.116L683.944 706.912L684.23 707.357L684.262 707.458L683.806 708.296L683.325 708.942L682.731 709.839L682.339 710.401L682.108 710.834L681.817 711.44L681.304 712.237L680.92 712.851L680.415 713.526L680.051 713.861L679.324 714.605L679.049 714.831L678.657 715.158L678.33 715.3L678.2 715.421L678.022 715.563L677.703 715.745L677.597 715.656L677.5 715.584L677.375 715.766L677.116 715.988L676.813 716.19L676.651 716.34L676.675 716.441L676.562 716.583L675.835 717.084L675.127 717.561L674.525 717.852L674.076 718.034L673.781 718.095L673.587 718.074L673.345 717.792L673.171 717.69L673.098 717.61L672.787 717.589L672.626 717.601L672.326 717.33L672.242 717.318L672.21 717.419L672.137 717.601L672.328 717.932L672.449 718.236L672.594 718.539L672.832 718.757L673.019 718.91L673.099 718.978L673.067 719.18L673.411 719.233L673.702 719.322L673.892 719.314L674.454 719.301L674.64 719.151L674.632 718.977L674.551 718.961L674.398 718.876V718.698L674.511 718.552L674.68 718.576L674.96 718.786L675.113 719.036L675.424 719.008L675.433 718.665L675.316 718.552L675.259 718.395L675.162 718.355L675.456 718.16L675.666 718.576L675.861 718.746V718.928L675.659 719.097L675.667 719.38L675.627 719.562L675.862 719.704L676.052 719.817L675.94 720.531L675.301 720.608L675.204 720.398L675.365 720.277L675.515 720.256V720.155L675.236 720.026L675.066 719.924L674.969 719.689L674.795 719.588H674.593L673.518 719.851L673.551 719.952L674.047 719.875L674.225 719.973L674.265 720.276L674.257 720.882L674.217 721.323L674.047 722.063L673.845 722.693L673.591 723.363L673.216 724.21L672.869 724.844L672.509 725.418L671.987 726.255L671.587 726.76L671.203 727.613L670.366 729.258L669.917 730.087L669.654 730.568L669.177 731.445L669.116 731.748L668.978 731.95L668.663 732.225L668.247 732.719L668.113 732.897L667.887 733.03L667.952 733.272L668.122 733.45L668.073 733.895L667.976 734.351L667.781 734.833L667.644 735.168L667.462 735.467L667.405 735.782L667.453 736.094L667.958 737.241L668.189 737.585L668.367 737.956L668.189 738.389L667.413 739.731L666.601 741.06L666.043 741.788L665.368 742.555L664.718 743.068L664.172 743.63L663.676 744.249L662.993 745.093L662.706 745.405L662.504 745.466L662.282 745.417L662.176 745.506L662.233 745.668L662.634 746.039L662.666 746.321L662.674 746.665L662.634 746.847L662.472 747.008L662.561 747.373L662.707 747.542L662.962 747.603L663.253 747.434L663.645 747.247L664.174 746.961L664.457 746.556L664.599 746.225L664.533 745.869L664.809 745.545L665.362 745.125L665.916 744.883L666.389 744.701L667.056 744.6L667.904 744.672L668.507 744.863L668.988 745.053L669.78 745.538L670.423 745.983L670.863 746.125L671.578 746.335L672.075 746.307L672.94 746.933L673.247 746.961L673.854 747.001L674.29 747.01L674.561 747.171L674.82 747.453L675.204 747.441L675.604 747.239L675.907 747.089L676.312 747.231L676.534 747.239L676.785 747.373L677.128 747.866L677.404 748.63L677.48 749.507L677.404 750.243L677.306 750.522L677.234 750.785L676.922 751.123Z" fill="black"/>
<path d="M799.998 765.02L801.057 765.521L802.269 766.426L803.469 765.574L804.48 764.968L805.236 764.915L806.044 764.968L808.61 763.456L809.975 762.498L811.434 761.69L812.748 761.488L814.457 762.296L815.621 762.247L816.421 762.046L817.48 760.784L818.797 761.189L820.256 760.178H821.161L821.965 760.481L822.421 760.231L821.868 759.476L822.219 758.316L822.822 758.166L823.727 758.821L824.183 758.869L824.737 756.299L825.242 755.394L826.503 755.292L826.959 755.139L829.275 753.931L829.679 753.127L830.831 752.872L832.703 751.414L833.503 751.361L833.208 749.348L833.608 748.39L832.751 747.833L831.89 747.731L830.888 746.826H829.623L828.867 746.976L827.303 746.22L827.008 744.357V743.25L826.349 744.762L825.893 745.364L824.939 745.614L824.49 745.97L823.629 745.917L823.374 746.071L823.075 747.481L823.374 749.094L822.469 751.313L822.113 751.919L820.605 751.968L819.797 752.069L819.498 753.982L817.785 753.88L817.183 753.73L816.875 752.17L816.572 751.818L815.97 752.319L815.36 753.68L813.747 755.192L812.49 756.905L810.982 757.609L809.769 757.912L807.959 757.56L807.147 757.107L805.991 758.263L804.581 759.071L803.368 759.273L801.958 758.772L801.052 758.064L800.041 757.608L800.393 759.427L800.802 761.388L800.499 762.851L800.297 763.707L799.998 765.02Z" fill="black"/>
<path d="M785.611 723.949L785.7 723.869L786.132 723.464L786.557 722.821L786.981 722.417L787.182 722.057L787.263 721.709L787.445 721.58L787.846 721.478L787.818 720.876L788.873 720.319L789.358 720.399H789.84L790.312 720.501L790.794 721.026L791.097 721.633L791.42 722.659L791.38 723.596L791.497 724.069L791.65 724.352L791.949 723.947L792.123 723.442L791.977 722.638L791.746 722.056L791.924 721.477L792.652 720.944L793.464 720.742L794.64 720.067L794.971 719.938H795.355L795.901 719.966L795.957 719.683L796.766 719.384L796.992 718.758L797.287 717.95L797.776 717.416L798.525 717.113L799.228 716.963L799.83 716.862H800.235L800.817 716.883L801.278 716.862L801.443 716.611L801.246 715.904L801.004 715.329L800.499 714.492L800.264 714.291L800.433 713.515L800.219 712.88L799.815 712.476L799.285 712.274L798.606 712.177H797.313L796.287 712.124H795.661L795.43 712.245L794.569 711.974L794.02 711.639L793.312 711.295L792.968 710.761L792.79 710.66L792.685 711.097L792.838 711.597L792.482 711.699L792.381 711.901L791.496 712.131L790.89 712.204L790.344 712.232L789.888 712.304L789.18 712.175L788.651 711.827L788.072 711.326L787.623 710.438L787.094 709.512L786.818 709.128L786.883 708.647L786.661 708.323L786.411 708.141L786.188 708.302L786.237 709.531L786.516 710.489L786.54 710.994L786.237 711.325L785.569 711.879L784.838 712.263L784.438 712.534L784.389 712.987L784.236 713.14H784.038L783.812 713.411L784.087 713.945L784.462 714.903L784.439 715.489L784.422 716.115L784.159 717.101L783.812 717.775L783.46 718.248L783.092 718.479L782.704 718.653L782.458 718.903L781.977 719.861L781.775 720.637L781.921 721.142L782.629 721.526L783.212 721.805L783.616 721.826L783.936 722.028L784.368 722.857L784.708 723.895L785.108 724.065L785.611 723.949Z" fill="black"/>
<path d="M884.207 820.709L885.925 820.96L887.432 821.161L888.337 820.657L889.351 820.506L890.159 820.708L890.608 821.512V821.965L890.055 822.119L889.857 822.523L890.407 822.673L890.763 823.025L890.916 823.478L891.514 823.934L892.222 823.227L892.832 823.025L892.775 822.524L892.726 822.019L893.078 821.211L893.988 821.014L894.643 820.961L895.398 820.859L896.106 820.811L896.457 820.508L896.962 820.811L897.06 821.514L896.611 821.667L896.352 821.918L896.562 822.423L896.808 823.078L897.362 822.925L897.915 823.228L898.267 823.733L898.117 824.488L897.563 824.541L897.41 824.738L897.713 825.595L898.574 826.153L899.374 825.494L899.326 824.738L899.584 823.833L900.939 823.78L901.492 823.63L902.304 823.477L903.307 823.833H904.467L905.069 823.578L905.525 822.726V822.067L903.763 822.37L902.902 822.774H902.397L901.751 821.764L901.14 820.657L899.936 820.203L898.117 819.852L897.059 819.548L896.456 819.75L895.195 819.346L894.137 819.447L892.977 819.245L892.173 819.298L891.465 818.995L890.762 819.096L890.159 818.643L889.101 817.984L888.49 817.229L888.244 816.93H887.537L887.335 817.08L887.788 817.33L887.489 818.187L887.234 818.543H886.527L885.925 818.846L885.42 819.347L885.019 819.8L884.207 820.709Z" fill="black"/>
<path d="M825.182 775.849L825.198 776.451L825.953 776.851L827.917 775.493L829.279 774.482L830.188 774.785L831.142 775.088L833.212 774.785L834.117 775.036H834.517L835.73 773.88L836.485 773.225L836.886 772.72L837.944 772.57L838.555 772.012L838.696 770.957L839.509 770.202L839.86 769.547L839.052 769.445L838.556 770.1L838.2 770.755L837.791 771.41L836.381 772.114L835.176 772.065L834.368 771.762L833.919 772.065L834.012 773.023L833.815 773.476L832.708 773.275L832.251 772.219L832.001 772.114L831.391 773.375L830.793 773.88L828.723 773.981L827.665 773.274L826.662 772.218L826.707 772.671L826.965 773.779L826.755 774.534L825.801 775.189L825.182 775.849Z" fill="black"/>
<path d="M844.733 777.954L845.469 777.348L846.374 776.968L847.186 776.916L847.938 777.085L848.597 777.469L848.662 778.055L849.459 778.426L850.445 778.701L851.213 778.661L852.025 778.277L852.882 778.176L853.908 778.326L855.295 777.995L855.097 777.655L855 777.388L854.894 777.117H854.708L854.341 776.916L853.363 776.564H853.06L852.352 776.665L851.871 776.612L851.365 776.414L850.981 776.261L850.965 776.543L850.706 776.988L850.46 777.085L849.979 777.049L848.831 776.685L848.261 776.515L847.82 776.079L847.282 775.707L846.809 775.234L846.445 774.668L846.045 774.297L845.899 774.729L845.742 775.255L845.317 775.579L844.994 775.781L844.408 775.857L844.186 776.16V776.686L844.258 777.22V777.725L844.456 777.996L844.733 777.954Z" fill="black"/>
<path d="M781.717 731.662V730.655L782.222 729.693L782.977 728.889V728.287L783.083 727.276L782.873 726.872L782.472 727.478L781.919 727.579H781.163L780.812 727.022L780.004 726.621L779.499 726.116L779.094 725.514L778.896 725.211L778.945 725.966L779.354 726.467L779.956 727.073L780.106 727.728L779.803 728.383L779.5 728.739L779.095 728.941L779.803 729.191L780.005 729.846L780.106 730.953L780.308 731.56L780.91 731.761L781.717 731.662Z" fill="black"/>
<path d="M822.762 728.728L822.94 729.214L823.307 729.351L823.917 729.654L824.577 729.735L824.774 730.159L825.175 730.119L825.603 729.755L825.679 729.532L826.305 729.714L826.54 730.058L826.564 730.721L826.706 730.863H827.013L827.397 730.237L827.175 729.885L827.291 729.756L827.574 728.649L827.542 727.941L827.445 727.569L827.598 727.368L827.445 727.186L827.574 726.583L827.679 726.078L827.518 725.796L827.372 725.828L827.518 725.319L827.372 724.887L827.175 725.02L826.835 724.664L826.67 724.951L826.589 725.371L826.69 725.928L826.771 726.806L826.811 727.509L826.788 728.213L826.404 728.448L825.834 728.679L825.401 728.598L825.175 728.344L824.823 728.114L824.552 728.175L824.269 728.041L823.813 727.872L823.684 728.191L823.243 728.276L822.876 728.543L822.762 728.728Z" fill="black"/>
<path d="M889.318 843.282L889.751 843.411H890.183L890.304 843.011L890.328 842.708L890.485 842.729L890.761 842.809L891.128 843.233L891.363 843.31L892.268 843.112L892.847 842.951L892.709 842.676L892.741 842.474L892.951 842.224L892.846 842.122L893.108 841.569L892.951 841.399L893.028 841.015L893.278 840.813L893.003 840.559L892.445 840.409L892.017 840.328H891.394L890.792 840.389L890.222 840.531L889.749 841.016L889.821 841.469L889.781 841.874L889.652 842.327L889.514 842.651L889.318 843.282Z" fill="black"/>
<path d="M847.432 782.861L848.066 782.664L848.846 782.611L849.384 782.239L849.622 782.009L849.247 781.233L849.094 780.747L848.774 780.396L848.091 780.161L847.537 780.019L847.202 779.688L846.984 779.438H846.681L846.495 779.656L846.6 780.06L846.883 780.295L847.387 780.364L847.432 780.796L847.404 781.099L847.065 781.37L846.984 781.653L846.802 781.673H846.56H846.224H845.853L845.55 781.701L845.388 781.854L845.166 782.238L845.247 782.461L845.453 782.711L845.949 782.885L846.224 782.639L846.657 782.663L847 782.739L847.432 782.861Z" fill="black"/>
<path d="M826.614 785.511L826.012 786.162L826.234 786.538L826.966 786.739L827.617 786.335L828.369 785.979L828.979 785.627L829.282 784.972L828.874 784.014L828.369 783.711L828.057 784.148L827.822 784.601L827.503 785.054L827.22 785.37L826.614 785.511Z" fill="black"/>
<path d="M817.891 741.352L817.956 741.683L818.263 741.918L818.623 741.635L818.967 741.082L819.153 740.503L819.129 739.638L818.927 739.093L818.77 738.43L818.6 738.188L818.422 738.79L818.24 739.82L818.022 740.624L817.891 741.352Z" fill="black"/>
<path d="M821.416 738.739L821.671 738.767L822.095 738.415L822.353 737.283L822.192 736.883L821.954 737.004L821.672 737.424L821.49 738.03L821.416 738.739Z" fill="black"/>
<path d="M822.427 769.233L822.981 768.95V768.497L822.762 768.065L822.532 767.992L822.192 768.223L822.055 768.566L821.953 768.999L822.427 769.233Z" fill="black"/>
<path d="M820.318 784.639L820.5 784.336L820.407 784.005L820.091 783.714L819.859 783.602L819.496 783.792L819.56 783.953L819.371 784.216L820 784.721L820.318 784.639Z" fill="black"/>
<path d="M823.307 731.383L823.845 731.407H824.269L824.471 731.585L824.653 731.383L824.774 730.93L824.576 730.728L824.245 730.68L823.885 730.983L823.307 731.383Z" fill="black"/>
<path d="M827.615 740.253L827.951 740.504L828.245 740.253V739.768L828.048 739.327L827.813 739.064L827.74 738.891L827.813 739.728V740.052L827.615 740.253Z" fill="black"/>
<path d="M819.803 743.468L819.985 743.723L820.333 743L820.612 742.312L820.357 742.414L820.082 742.766L819.925 743.069L819.803 743.468Z" fill="black"/>
<path d="M845.581 786.388L845.957 785.972L845.726 785.883L845.253 786.133L845.164 786.485L845.293 786.638L845.581 786.388Z" fill="black"/>
<path d="M830.469 742.68L830.509 743.004L830.768 743.504L831.014 743.625L831.038 743.354L830.868 743.1L830.767 743.079L830.469 742.68Z" fill="black"/>
<path d="M823.812 721.205V721.456L824.014 721.807L824.148 721.528L824.115 721.354L823.764 720.82L823.812 721.205Z" fill="black"/>
<path d="M822.475 731.834L822.835 731.782L823.138 731.43H822.875L822.607 731.462L822.475 731.631V731.834Z" fill="black"/>
<path d="M827.732 741.941L828.04 742.021L827.959 741.516L827.813 741.484L827.732 741.941Z" fill="black"/>
<path d="M661.831 34.041H650.838L651.254 33.5071L651.383 32.5614L652.531 31.0622L653.966 28.997L655.32 26.5035L656.011 26.0751L658.104 25.9375L659.122 26.2044L660.352 26.9597L661.447 27.2308L662.073 28.4797L663.67 28.609L663.831 29.7006L663.766 30.7756L663.285 31.3457L662.17 32.6266L661.818 33.4999L661.831 34.041Z" fill="black"/>
<path d="M705.978 34.0388H663.104L663.1 34.0108L663.326 33.4211L663.994 32.673L664.443 32.1836L664.508 31.1086L664.73 30.9586L664.908 30.6792L665.09 30.4081L665.107 29.8142L664.973 29.5152L664.99 29.0662L665.204 28.8354L665.107 28.4392L664.893 27.9425L664.545 27.3486L664.577 26.2902L664.666 25.8939L664.795 25.3972L664.601 25.1303L664.633 24.1401L665.547 24.0067L665.935 24.2043L666.31 24.0067L666.969 23.9415L667.697 24.3015L667.979 24.6657L668.25 24.2777L669.681 24.585L670.122 25.361L672.575 24.2012L672.381 23.6311L672.894 23.182L673.856 22.822L674.49 22.584L675.517 22.4909L676.167 22.9999L677.283 24.4391L678.051 24.6171L678.879 24.346L679.558 23.897L680.362 23.5411L680.988 22.644L681.153 21.8028L682.212 21.7138L682.64 20.3357L682.293 20.2467L682.382 19.4986L682.64 19.3486L682.782 17.6145L683.098 17.4003L683.441 17.1334L683.579 16.5074L683.833 16.2653L684.092 15.7842L684.378 15.2182L684.779 14.3812L684.581 13.092L684.412 12.466L684.011 12.405L683.522 12.793L682.616 13.213L682.18 13.7511V14.2322L682.438 14.6481L682.831 15.3113L682.382 16.2653L681.852 16.7061L681.508 17.7366L681.436 19.1313L681.747 19.9725L681.541 20.4898L680.664 20.2312L679.969 19.718L679.718 19.2048L679.197 19.241L679.091 20.4898L679.511 20.8168L679.479 21.3703L679.197 21.8111L678.675 22.0656L678.146 21.8432L677.908 21.2576V20.4898L677.73 19.9404L677.802 18.8737L676.929 17.7738L676.335 18.2508L676.189 19.1686L676.229 19.9725L676.117 20.7082L675.563 20.8168L674.827 20.9668L675.107 19.6456L675.523 18.4329L675.947 17.6652L676.263 17.3455L676.453 16.7713L676.086 16.404L675.783 16.4484L675.677 16.7878L675.099 16.7754L674.674 16.6906L674.367 16.8768L674.072 17.1148L673.599 17.0423L673.51 16.2539L673.616 15.9508L673.903 15.4696L674.104 15.1458L674.225 14.6523L674.439 14.2281L675.025 13.7831L675.49 13.3589L675.676 13.0072L676.646 12.4215L677.459 12.106L678.514 11.8959L679.246 11.69L679.638 11.4758L680.592 11.4148L680.923 11.1727L681.347 10.6471L681.803 10.316L682.397 10.2436L683.152 10.345L684.147 10.406L684.98 10.4629L685.242 10.0625L686.309 10.0946L688.196 11.5379L689.167 12.4878L689.992 13.5876L690.21 14.2994L691.115 15.152L691.855 15.7304L692.175 16.644L693.307 17.4686L694.414 18.0387L694.806 18.8106L695.48 20.1039L696.939 21.9549L697.699 22.9658L699.546 24.6999L700.9 26.2757L701.486 26.8168L702.367 27.9322L703.018 29.0837L703.883 30.0098L704.311 30.9761L704.712 31.8898L705.306 32.7547L705.956 33.7615L705.978 34.0388Z" fill="black"/>
<path fill-rule="evenodd" clip-rule="evenodd" d="M704.268 30.876H664.781L664.725 30.9609L664.502 31.1109L664.437 32.1859L663.988 32.6753L663.321 33.4234L663.094 34.0131L663.167 35.6986L663.478 36.7053L664.169 38.7664L665.034 40.3711L665.653 41.382L666.231 41.7824L666.426 42.5905L664.757 42.8533L663.601 42.1456L663.536 41.6076L663.314 41.1026L663.216 40.3629L662.841 40.2615L662.679 39.89L662.393 39.3561L662.231 38.8833L662.68 38.5801L662.842 38.0059L662.393 37.9407L662.486 37.2009V36.2552H661.782L661.14 36.3235L661.398 36.0566L661.685 35.5517L661.846 34.8119L661.814 33.4979L662.166 32.6246L663.282 31.3437L663.678 30.875H652.652L652.527 31.0612L651.38 32.5605L651.25 33.5062L650.543 34.4115L650.142 34.6619L649.75 35.4586L648.603 36.695L648.34 37.6324L648.024 38.485L647.446 38.7033L647.256 39.5444L645.882 41.1451L644.811 42.4146L643.452 43.3323L641.904 44.3711L641.105 44.5657L639.981 45.3541L639.29 45.8311L639.076 46.2191L638.231 46.5543L637.888 47.0799L636.942 48.1384L636.627 48.3846L636.137 48.5057L636.004 49.4555L635.834 49.9159L636.388 50.5502L636.57 51.1482L637.261 51.7462L637.693 52.187L638.001 52.3246L638.336 52.6443L638.671 53.3117L639.305 53.5258L640.518 54.4074L642.042 55.5145L644.224 57.083L645.04 57.9604L646.467 58.8782L648.714 60.7819L650.513 62.366L650.913 62.7333L651.924 63.3479L653.048 64.5481L655.582 67.7173L656.814 69.4597L656.919 69.827L657.643 70.6919L658.58 72.9268L659.517 75.0934L660.192 77.1348L660.625 78.9134L660.576 79.3697L660.943 79.5435L661.577 81.3179L661.505 83.7349L661.611 84.3692L662.019 86.1922L662.068 87.6428L662.759 88.6982L663.931 90.0401L665.471 91.41L667.572 93.3459L668.999 94.6113L669.751 95.4959L670.899 96.5471L671.861 98.0505L672.293 99.4494L673.001 100.889L673.79 103.067L674.517 105.851L674.99 108.546L675.265 111.642L675.568 113.391L675.706 115.069L675.827 118.641L676.323 122.32L676.474 123.075L676.259 123.726L676.675 124.886L677.35 127.739L678.223 130.52L678.624 132.562L678.947 133.475L679.024 134.446L678.874 136.046L678.656 138.58L678.223 141.837L677.67 144.933L677.148 147.168L676.813 148.328L676.425 149.419L676.227 150.547L675.992 153.061L676.421 155.095L675.944 157.325L675.378 159.115L674.663 161.512L674.356 162.36L673.62 164.716L672.528 167.072L670.859 169.921L669.138 174.759L668.031 178.522L667.356 181.182L667.021 183.183L666.722 184.94L666.633 186.743L666.531 188.161L666.648 189.446L666.697 190.392L667.732 191.827L668.815 192.688L669.704 193.129L670.747 193.141L671.83 193.234L673.099 192.696L674.461 191.67L675.778 190.809L678.689 189.043L681.939 186.626L687.072 183.365L692.213 180.895L695.927 178.915L698.732 178.211L700.693 177.831L703.275 177.795L706.097 178.26L708.441 178.502L709.508 178.716H711.561L712.653 178.737L713.445 179.795L713.207 180.333L712.177 180.418L712.378 181.389L712.957 181.17L713.733 180.309L715.482 180.354L717.062 182.226L718.356 182.743L719.604 183.54L720.671 183.605L721.492 184.68L722.081 185.133L723.686 186.746L724.858 187.477L724.899 187.91L726.641 188.145L728.573 189.288L728.982 189.89L729.798 190.064L731.831 191.374L733.347 192.021L734.831 193.14L736.217 194.668L737.519 196.322L738.545 198.1L739.297 199.018L740.101 199.782L740.885 200.149L742.081 200.783L743.262 200.993L744.831 202.068L746.06 202.994L748.82 203.018L751.265 202.658L753.864 202.586L754.996 202.953L757.252 204.049L760.756 205.855L762.607 207.354L765.037 209.104L767.154 211.04L769.644 213.429L771.24 215.733L773.5 219.564L774.583 221.566L775.65 223.651L776.846 226.671L777.671 229.181L778.038 231.436L777.998 233.482L777.881 234.306L777.59 235.305L777.533 236.238L777.432 236.824L777.448 237.96L777.873 237.851L779.005 236.392L780.205 234.675L780.75 233.878L781.303 233.607L781.704 232.346L782.29 230.361L782.86 229.299L783.195 228.813L783.74 228.308L784.302 227.844L785.442 227.193L786.477 226.275L787.976 225.391L789.435 225.726L791.876 226.001L794.56 226.228L795.925 226.389L797.089 226.413L798.075 226.481L799.053 226.477L799.757 226.494L800.359 226.971L801.818 227.104L803.047 227.456L803.536 228.592L804.91 228.571L807.13 229.856L809.305 231.016L810.619 231.824L812.506 233.7L813.597 235.405L814.038 235.975L814.365 236.658L814.672 237.587L815.056 237.988L815.808 238.081L816.758 238.683L817.352 238.263L817.768 237.652L818.088 237.046L818.104 236.205L817.191 235.364L816.01 235.355L815.864 234.547L815.537 234.204L815.113 233.816L814.789 233.504L814.126 233.379L814.349 232.841L814.029 232.203L813.403 231.896L813.371 231.321L813.354 230.715L813.148 230.04L812.695 229.159L812.857 228.31L812.776 227.619L813.491 227.409L813.249 226.362L813.346 225.384L813.297 224.35L813.956 223.654L814.292 223.052L813.467 222.458L812.703 222.131L811.968 221.396L810.917 220.248L810.427 218.728L810.035 217.026L809.914 215.765L809.865 214.105L810.803 212.286L812.039 210.952L812.65 210.087L813.034 209.659L813.114 208.215L813.377 207.528L813.737 206.833L813.818 206.089L813.955 205.228L813.85 204.395L813.49 203.683L813.239 203.101L812.864 202.645L812.69 201.99L812.694 200.183L812.415 198.429L812.135 196.432L811.707 195.236L811.582 193.527L811.412 191.814L811.724 190.775L812.625 189.946L813.425 189.546L814.116 188.855L814.726 188.232L815.381 187.532L815.365 186.133L814.997 185.317L815.006 184.517L814.997 183.547L815.256 182.997L815.599 182.359L815.846 181.943L815.918 181.102L816.225 180.561L816.84 179.886L817.252 179.013L817.988 178.54L818.133 178.01L818.231 177.639L817.907 177.19L817.725 176.013L817.805 175.492L817.636 174.954L817.862 174.538L817.773 173.48L818.403 172.756L818.933 171.944L819.143 171.144L818.679 170.082L818.343 169.314L818.157 168.32L818.198 167.213L818.343 165.806L818.352 164.53L818.328 164.057L818.631 163.717L818.599 163.374L818.453 163.156L818.461 161.939L818.215 161.814L818.28 160.581L817.517 159.272L816.963 159.187L816.652 158.657L816.155 158.358L815.723 157.594L815.415 156.653L815.399 155.586L815.112 155.137L815.399 155.004L815.293 154.575L815.281 152.958L815.446 152.449L815.381 150.097L815.224 149.552L815.24 147.996L815.03 146.808L814.736 145.636L814.469 144.917L814.214 143.959L813.777 142.867L813.426 142.172L812.985 141.646L812.504 140.846L812.128 140.009L811.886 138.623L811.797 136.319L811.975 136.088L811.91 135.098L811.413 134.754L811.038 134.265L810.762 133.493L810.597 132.887L810.427 132.119L811.454 131.771L811.324 131.218L810.957 130.677L810.338 130.596L810.233 130.026L810.083 128.93L809.597 127.087L808.66 126.384L808.684 124.969L808.235 123.882L808.461 123.098L808.186 122.338L807.576 121.514L807.119 120.378L806.02 118.438L804.52 115.948L803.534 112.953L802.043 111.958L801.312 110.176L800.56 109.339L800.135 108.526L799.501 108.045L798.867 106.865L798.002 105.143L797.635 104.346L796.301 103.437L795.642 102.879L795.112 102.006L794.567 101.307L793.685 100.704L792.941 99.8963L792.008 98.9631L791.353 97.9926L790.197 97.1555L788.747 96.1126L786.972 94.2005L786.059 93.1338L785.473 93.0727L784.398 91.3511L783.828 90.6516L783.315 89.6004L782.656 88.1902L782.175 87.0748L781.132 86.4809L780.194 86.0846L779.616 86.0163L779.216 86.2305L778.286 86.1219L777.716 85.5807L776.504 84.5668L774.621 83.201L772.24 81.3376L771.213 80.3919L770.963 79.6604L770.385 78.901L770.336 77.9749L770.408 77.2755L769.366 76.3133L768.282 75.1658L767.506 74.8503L766.694 74.0173L766.132 73.4555L764.827 72.6185L764.152 71.8911L763.857 71.0499L762.515 68.9403L761.763 67.4814L761.69 66.604L761.298 65.6376L760.414 65.322L760.062 64.8213L759.451 63.6169L759.354 62.6712L758.849 61.5641L757.815 60.2708L756.501 59.1068L754.815 58.0928L754.488 57.5434L753.854 57.4783L752.69 55.9904L751.825 54.0225L751.672 53.5621L750.58 52.8347L749.901 52.3939L749.429 51.6821L749.073 50.9454L748.802 50.157L748.511 49.7162L748.705 49.2879L748.305 48.7022L747.517 47.8776L747.003 47.6593L746.676 46.9888L746.115 46.4757L745.731 45.9625L745.29 45.7845L744.518 45.4451L743.621 44.7095L742.651 45.1502L740.852 45.1296L740.153 45.2868L739.417 45.3272L738.71 44.9671L737.868 45.1327L736.906 45.323L736.077 45.3065L735.463 45.3789L734.969 46.2563L734.04 47.679L733.551 48.3174L732.654 48.038L731.676 48.4663L730.904 48.0659L730.326 47.3106L729.355 46.7281L728.212 45.2372L727.08 43.9521L726.348 42.695L725.581 41.5434L724.825 41.2444L723.572 40.5532L721.955 40.8285L720.88 40.9702L719.947 41.112L719.357 41.1244L718.844 41.3913L718.015 41.8849L717.72 42.0752L717.046 42.1725L716.229 42.2408L716.051 42.5522L715.163 42.904L714.666 43.4617L713.211 43.5993L712.452 42.8999L711.841 42.7581L711.392 42.0142L710.903 41.4606L710.511 41.0726L710.43 40.5957L710.103 40.0618L709.804 39.6531L709.477 39.0747L709.178 38.456L708.932 37.8135L708.467 36.8998L707.768 36.7302L706.43 35.7317L706.018 34.5512L705.957 33.7627L705.306 32.756L704.713 31.891L704.312 30.9774L704.268 30.876ZM688.995 38.6195L687.786 40.4343L687.988 46.4798L688.595 50.3111L689.601 53.5362L693.433 57.5662L698.671 60.5936L700.891 61.3976L707.139 62.4043H709.963L712.38 60.994L714.597 62.6081L716.21 64.8275L719.031 67.4462L721.853 69.261L722.459 65.0292L721.651 61.3996L722.662 57.5683L724.877 57.77L726.692 58.9827L728.305 58.7809L729.316 56.9661L729.518 53.3365L731.131 49.5051L728.709 49.3034L725.686 51.1182L722.865 52.5284L719.837 52.3308L718.427 50.1115L716.415 48.7012L713.19 47.6903H709.762L707.542 49.1047L705.323 49.9087L703.108 50.3132H701.091L700.287 48.4984L701.091 46.4819L702.098 44.0649L702.704 41.8455L701.9 39.6262L700.086 36.2025L698.271 36.8047L697.058 37.6127L695.247 38.6195L693.634 39.6262L688.995 38.6195Z" fill="black"/>
<circle cx="681" cy="766" fill="#5CE50D"/>
<circle cx="727" cy="64" fill="#E52A0D"/>
<circle cx="762" cy="209" fill="#E52A0D"/>
<circle cx="801" cy="852" fill="#E52A0D"/>
</svg>
