<svg width="1000" height="1000" viewBox="0 0 1000 1000" fill="none" xmlns="http://www.w3.org/2000/svg">
<rect width="1000" height="1000" />
<path d="M385.514 28.2534C380.668 31.8879 376.381 36.1747 372.653 41.1139C367.434 48.1033 367.061 48.8489 366.13 55.9315C365.198 63.1073 365.104 63.3869 362.588 63.6664C359.513 64.0392 357.649 67.301 354.015 79.0432C351.592 86.8714 351.126 87.5237 346.373 91.1582C343.577 93.2084 339.663 97.4021 337.613 100.291C335.562 103.273 332.114 107.001 329.784 108.585C324.659 112.127 322.795 116.134 322.795 124.055C322.795 129.46 322.609 130.019 319.999 131.883C318.135 133.281 315.433 137.382 312.078 143.998C308.35 151.454 305.089 156.3 299.59 162.544C295.49 167.11 291.948 171.863 291.576 172.981C290.83 175.125 291.016 175.218 313.01 195.441L316.738 198.795L314.128 204.014C311.985 208.581 311.612 210.444 311.612 217.62C311.612 222.187 311.985 226.846 312.451 228.058C312.917 229.269 312.823 232.531 312.264 235.979C311.426 241.198 311.146 241.757 308.909 242.037C306.859 242.316 306.486 242.875 306.207 245.578C306.02 247.349 306.3 250.517 306.766 252.567C307.418 255.736 307.232 256.668 305.368 259.277L303.131 262.166L307.139 264.962L311.239 267.758L310.68 273.443C310.121 279.686 310.307 279.78 315.246 278.102C317.483 277.357 320.372 277.263 326.057 278.009C333.046 278.941 335.096 279.686 346.839 286.117C354.108 289.938 360.818 293.106 361.936 293.106C363.893 293.106 363.986 293.386 363.334 298.418C362.961 301.773 361.843 305.221 360.352 307.458C358.022 310.999 358.022 311.279 359.14 317.802C360.258 324.326 360.258 324.512 357.835 327.96C355.878 330.849 355.412 332.713 355.412 337.093C355.412 341.753 355.972 343.616 358.767 348.742L362.215 354.799L360.072 359.366C358.022 363.653 357.556 364.026 350.473 366.728L343.018 369.617L334.724 366.821C330.25 365.33 326.523 364.398 326.523 364.771C326.523 366.449 329.691 374.743 330.53 375.302C331.089 375.581 333.233 376.141 335.376 376.42C338.917 376.979 339.29 377.352 340.781 381.453C342.831 387.137 342.831 387.137 339.383 396.177C336.681 403.539 336.215 404.098 331.462 406.987C326.802 409.783 326.523 410.156 326.523 413.79C326.523 417.052 325.964 418.17 322.795 421.246L319.067 424.88V433.92C319.067 440.909 319.533 443.985 320.931 447.246L322.702 451.533H328.2C333.326 451.533 333.792 451.72 337.426 455.447C340.595 458.709 341.527 460.573 342.459 465.139L343.577 470.824L338.172 481.448C335.003 487.599 332.487 493.843 332.114 496.172C331.648 500.086 331.369 500.366 327.734 501.671C325.498 502.323 323.727 503.255 323.727 503.535C323.727 503.907 324.938 505.585 326.336 507.262L328.853 510.338L327.827 523.571C327.175 530.84 326.243 538.295 325.684 540.066C324.286 544.539 324.379 545.471 326.43 546.124C327.361 546.403 329.132 548.453 330.344 550.69C332.487 554.79 332.487 554.79 330.903 561.687C329.971 565.414 329.319 568.862 329.319 569.328C329.319 569.794 331.555 567.744 334.351 564.855C337.147 561.966 339.849 559.636 340.315 559.636C341.061 559.636 344.229 572.963 344.229 576.131C344.229 577.343 325.777 587.128 324.938 586.289C324.659 586.103 324.938 584.332 325.591 582.562C326.616 579.393 326.523 578.927 323.727 575.479L320.745 571.751L318.415 573.615C317.11 574.64 315.153 575.479 314.035 575.572C313.01 575.572 311.332 575.945 310.4 576.318C308.816 576.877 308.816 577.063 310.68 579.486C313.569 583.214 316.085 592.067 316.365 600.175L316.644 607.165L312.358 610.147C307.232 613.688 307.325 613.688 306.393 629.438L305.834 641.087L298.472 649.753C294.371 654.506 291.11 658.7 291.11 658.979C291.11 659.818 295.49 667.646 303.504 681.159C310.494 692.902 310.773 692.995 312.078 685.167L312.637 681.625L315.619 683.396C317.297 684.421 320.652 686.378 323.075 687.776L327.548 690.292L327.268 698.4C326.989 706.135 326.896 706.414 324.659 706.694C322.981 706.88 320.652 705.576 316.551 702.221C313.383 699.705 310.587 697.561 310.307 697.561C309.375 697.561 324.566 716.759 328.759 720.859L333.046 724.96V738.939V752.824L329.691 756.832C326.896 760.373 325.87 760.932 322.795 760.932C319.161 760.932 318.135 759.907 318.135 756.272C318.135 753.197 311.612 741.921 307.139 737.354C304.716 734.838 300.988 731.576 298.751 729.992L294.837 727.29L291.016 730.272C287.289 733.161 287.289 733.254 288.966 735.211C289.991 736.236 292.228 738.845 293.999 740.896C298.472 746.114 305.461 759.255 307.698 766.803C309.841 773.886 314.781 780.596 328.387 794.854C336.028 802.775 336.867 803.335 351.219 810.51C359.42 814.611 369.95 820.202 374.517 822.998C379.176 825.701 386.445 829.428 390.826 831.292C398.467 834.461 398.84 834.74 401.356 839.586C403.872 844.339 404.432 844.805 409.744 846.669C412.912 847.694 417.572 849.744 419.995 851.235C424.188 853.658 425.12 854.963 431.923 867.731C436.024 875.372 439.752 883.2 440.311 885.157C441.149 888.419 440.963 888.978 438.354 892.613L435.465 896.527L438.447 897.738C440.031 898.391 444.411 901 448.232 903.61C452.705 906.592 455.967 908.176 457.924 908.176C464.261 908.176 465.1 920.011 459.229 925.417L456.153 928.212L458.017 931.195C460.067 934.456 459.322 938.091 456.247 939.768C455.221 940.327 453.917 942.098 453.358 943.682C452.332 946.571 452.426 946.571 455.128 946.199L457.831 945.826L457.272 950.019C456.992 952.349 456.153 956.356 455.501 958.966C454.849 961.482 454.476 963.812 454.662 963.998C454.849 964.185 457.458 963.905 460.347 963.346C467.616 962.134 473.58 963.625 482.9 969.124C493.617 975.368 504.427 978.257 510.857 976.486C512.721 976.02 513.001 975.461 512.535 973.411C512.255 971.547 512.628 970.335 513.933 969.124C515.797 967.446 515.983 967.446 522.506 970.149C523.811 970.708 524.091 970.242 524.091 967.26C524.091 964.091 524.836 962.973 530.707 957.009L537.324 950.299L534.994 946.292C533.13 943.03 532.571 940.607 532.292 933.99L531.919 925.883H535.181C537.324 925.883 541.052 927.187 545.245 929.331L551.955 932.872L555.217 929.703C558.385 926.628 558.572 926.069 558.572 920.664C558.572 915.352 558.199 914.234 552.328 903.982C548.973 898.018 545.152 892.426 543.941 891.681C541.984 890.376 541.797 889.631 542.263 886.835C542.636 884.785 542.077 880.311 540.958 875.559C539.933 871.179 539.281 867.544 539.467 867.358C539.654 867.171 541.797 867.451 544.313 867.917C548.6 868.849 548.88 868.756 552.701 865.68C555.776 863.164 556.894 861.393 558.106 857.107C558.945 854.218 559.783 851.142 560.063 850.397C560.249 849.558 562.486 846.949 564.909 844.526L569.382 840.146L572.551 842.382L575.812 844.619L580.192 842.382L584.573 840.146L589.884 843.314C594.824 846.389 595.383 846.483 598.085 845.364C599.67 844.619 605.354 842.103 610.853 839.773L620.638 835.393L623.434 826.819C626.136 818.432 626.136 818.152 624.832 812.001L623.527 805.758L628.187 800.352L632.846 794.947L633.405 785.162C634.058 773.047 635.176 769.413 639.276 766.71C641.699 765.126 642.445 764.007 642.445 761.771C642.445 759.907 643.47 757.67 645.52 755.34C648.316 751.986 648.596 750.96 649.9 739.777L651.298 727.849L655.306 725.705C658.101 724.121 660.152 721.978 662.109 718.436C663.693 715.64 665.37 713.404 665.836 713.404C666.302 713.404 669.844 714.243 673.664 715.361C677.485 716.386 682.425 717.132 684.475 716.945L688.389 716.666L690.439 709.21C693.328 698.214 699.013 690.479 706.375 687.496C709.264 686.285 709.264 686.285 710.848 673.518C712.246 662.521 712.339 659.539 711.314 652.829L710.196 644.907L701.622 636.52C693.98 629.158 692.862 627.667 692.489 624.312C692.21 622.075 692.583 619.652 693.328 618.254C694.26 616.577 694.54 611.451 694.54 598.311V580.605L690.905 576.504L687.177 572.404L680.281 573.056C674.037 573.615 673.012 573.429 667.234 570.819C663.786 569.328 660.711 568.024 660.524 568.024C660.338 568.024 658.567 570.54 656.517 573.522L652.789 579.02L643.563 576.691L634.43 574.361L626.136 547.428L617.842 520.496H610.76H603.77L601.161 516.116C598.551 511.922 598.551 511.642 599.856 508.287L601.254 504.746L593.705 493.283L586.157 481.821L581.684 460.852C579.261 449.297 577.303 439.605 577.21 439.139C577.21 438.766 578.608 438.486 580.379 438.486C583.454 438.486 583.454 438.393 587.741 428.142L591.935 417.891L585.132 412.858C578.142 407.64 577.21 406.055 577.21 398.227C577.21 396.27 576.372 395.059 573.389 393.195C570.873 391.61 569.009 389.467 567.798 386.671L565.934 382.571L568.543 377.818C570.966 373.438 571.898 372.692 581.218 368.033C586.716 365.237 591.189 362.441 591.189 361.696C591.189 360.95 589.046 355.638 586.436 349.86L581.777 339.236L583.081 333.831C584.386 328.706 584.386 327.96 582.615 322.834L580.752 317.336L582.802 311.092C584.2 306.712 586.064 303.544 588.487 301.027L592.121 297.207V286.117C592.121 275.4 592.307 274.747 594.917 270.274C596.967 266.826 597.713 264.403 597.713 261.141C597.713 257.134 598.179 256.016 601.72 251.822C604.236 248.747 605.634 246.324 605.448 245.112C602.465 228.897 598.924 216.688 595.569 210.817C591.935 204.573 591.842 204.201 592.401 197.864C592.96 191.34 592.96 191.247 587.927 181.182C584.386 174.286 582.802 169.906 582.802 167.576C582.802 164.594 581.684 162.637 575.346 154.715C568.357 145.955 567.518 145.21 560.715 142.134C548.973 136.823 543.847 133.561 542.636 130.672C541.984 129.274 541.052 128.249 540.399 128.528C539.84 128.715 537.044 129.181 534.249 129.553C530.241 130.019 527.818 129.647 522.693 127.876L516.169 125.639L515.89 119.209C515.703 113.338 515.424 112.592 512.908 110.356C510.298 108.119 510.205 107.84 511.137 104.485C511.976 101.316 511.789 100.105 509.553 94.6995C508.155 91.3446 504.707 84.5416 502.004 79.6024C497.065 70.7491 497.065 70.6559 491.753 68.8853C488.398 67.7669 484.298 65.3439 480.849 62.455C470.505 53.6017 471.53 54.1608 466.777 56.1179C463.329 57.5157 462.118 58.7272 459.788 63.1073L456.899 68.5125H449.537C442.175 68.5125 442.175 68.5125 437.701 72.4266C434.44 75.3155 430.898 77.1794 425.12 79.2296L417.013 81.9322L411.701 77.7385C406.948 74.104 405.923 72.7061 403.313 66.1827C401.636 62.0822 400.052 56.8634 399.679 54.6268C399.12 50.8059 399.306 50.34 401.822 48.3829L404.525 46.2395L403.313 39.4365C401.729 30.2104 400.89 28.2534 397.069 25.3644C395.206 23.9665 393.528 22.8482 393.342 22.8482C393.062 22.8482 389.521 25.2712 385.514 28.2534Z" fill="black"/>
<circle cx="406" cy="447" fill="#5CE50D"/>
<circle cx="480" cy="947" fill="#E52A0D"/>
<circle cx="346" cy="739" fill="#E52A0D"/>
<circle cx="346" cy="198" fill="#E52A0D"/>
</svg>
