<svg width="1000" height="1000" viewBox="0 0 1000 1000" fill="none" xmlns="http://www.w3.org/2000/svg">
<rect width="1000" height="1000" />
<path d="M113.137 15.2499C109.383 22.7571 109.094 23.0458 103.993 24.9708C101.106 26.0295 97.6409 27.1844 96.2935 27.5694C94.4648 28.0507 93.4061 29.4943 91.6737 33.9217C89.5562 39.4077 89.3638 39.6002 86.5726 39.2152C85.0327 38.9265 83.0115 38.4453 82.1453 38.0603C80.7978 37.579 80.4128 38.4453 79.8354 43.0651C79.2579 48.3587 78.8729 49.0324 72.8094 55.1921C67.5158 60.5819 66.5534 61.9294 67.4196 63.3731C67.997 64.2393 71.2694 70.2066 74.8305 76.6551L81.2791 88.2047L78.9691 93.9795C76.6592 99.658 76.6592 99.7542 78.1992 106.299L79.7391 112.844L84.6477 112.266C87.2463 111.881 92.3474 111.4 96.0048 111.015C99.5659 110.726 102.453 110.149 102.453 109.86C102.55 109.571 102.935 99.7542 103.416 88.1084L104.282 66.9342L101.876 65.0093L99.3734 62.9881L104.763 61.3519C110.73 59.427 115.254 54.9034 122.954 42.6801C127.67 35.2691 127.092 35.6541 140.278 33.248L143.935 32.5742L140.663 28.5319C138.931 26.4145 135.466 21.7946 133.06 18.3298C129.21 12.94 127.862 11.785 123.435 10.1488C120.644 9.09011 118.045 8.12764 117.66 7.93515C117.275 7.74266 115.254 11.1113 113.137 15.2499Z" fill="black"/>
<path d="M340.952 116.986C340.663 117.275 301.779 117.66 254.426 117.853C191.77 118.045 167.227 118.526 164.051 119.296C160.682 120.259 157.506 120.259 149.903 119.296L140.182 118.141L130.75 123.242C118.526 129.883 102.646 134.792 93.6947 134.792C90.0374 134.792 87.0537 134.984 87.0537 135.273C87.0537 135.562 88.9787 139.219 91.3848 143.358C93.791 147.497 96.8709 154.138 98.1221 157.987C101.394 167.516 110.73 181.568 120.644 191.77L128.728 200.143L131.423 211.982C133.926 223.146 135.177 226.034 153.752 264.243L173.387 304.667L168.189 316.698C163.088 328.536 162.896 328.825 153.945 337.391L144.802 346.053V352.79V359.624L149.71 364.34C152.694 367.323 156.062 372.136 158.469 376.852C162.222 384.263 162.318 384.648 161.741 391.481C161.163 397.93 161.26 398.7 163.57 402.357C165.013 404.571 168.671 411.693 171.751 418.045C174.927 424.494 179.643 433.83 182.338 438.738C185.225 444.128 187.15 448.94 187.15 450.769C187.15 453.464 188.209 454.715 195.427 460.586C199.951 464.243 204.089 467.805 204.667 468.478C205.244 469.248 204.763 470.981 203.031 474.061C201.587 476.467 200.528 478.584 200.721 478.777C200.913 478.873 202.934 480.413 205.244 482.145L209.287 485.321V494.561C209.19 499.758 208.42 508.036 207.458 513.04C206.014 520.836 205.918 524.59 206.592 539.027L207.458 555.87L201.683 567.997C198.507 574.734 192.444 585.418 188.112 591.77L180.316 603.416L174.83 604.474C171.847 605.052 168.671 605.726 167.804 606.014C166.938 606.207 162.8 610.057 158.469 614.484L150.576 622.569V629.595V636.717L141.048 645.283C133.156 652.309 131.327 654.523 130.461 657.795C129.595 661.164 128.728 662.126 124.59 664.436L119.777 667.035L120.259 675.504C120.547 680.124 121.029 687.15 121.221 691.193L121.702 698.507L115.928 707.362L110.153 716.12L109.575 731.809L108.998 747.4L101.876 772.906C97.9296 786.958 92.0585 807.073 88.7862 817.66L83.0114 837.006L78.0066 838.931C75.0229 840.182 73.1942 841.433 73.2905 842.299C73.3867 843.069 75.5042 857.121 77.8141 873.579L82.2414 903.512L80.7015 922.473C79.9315 932.964 79.354 942.492 79.5465 943.743C79.8352 945.957 80.124 945.861 88.6899 940.374C93.5985 937.198 98.1221 934.6 98.6033 934.6C99.1808 934.6 102.549 936.525 106.111 938.931L112.655 943.262L117.083 941.722C121.317 940.374 121.799 940.374 125.264 942.107L128.921 944.032L137.583 939.701C142.299 937.295 149.133 933.252 152.598 930.75C158.18 926.707 160.105 925.938 169.248 923.916C178.392 921.991 180.413 921.895 185.899 922.761C191.577 923.82 192.829 924.398 197.16 928.632C199.854 931.231 206.399 935.851 211.693 938.931C218.623 942.877 222.954 946.149 227.285 950.769L233.156 957.121L238.834 955.87C241.914 955.1 246.63 953.56 249.229 952.405L254.137 950.288L394.561 949.133C514.58 948.074 535.081 948.074 535.947 949.229C536.524 949.999 542.299 956.64 548.748 964.051L560.49 977.622L567.227 978.873C573.964 980.124 574.06 980.124 581.086 977.141L588.209 974.157L600.625 977.429C607.458 979.258 614.965 980.798 617.371 980.798C621.221 980.798 621.991 981.183 623.435 983.685L625.167 986.573L630.268 982.723L635.369 978.873L642.203 981.857L649.133 984.937L656.544 983.397L664.051 981.857L681.568 987.631L698.988 993.406L708.132 989.556L717.275 985.803L727.477 989.075C733.06 990.904 738.353 992.348 739.316 992.348C742.107 992.348 875.601 971.173 877.525 970.403C878.969 969.826 876.852 968.286 868.19 963.57C857.217 957.41 857.025 957.314 852.02 949.614C848.266 943.743 840.086 934.888 818.334 912.944L789.652 884.07L786.765 875.408L783.781 866.746L784.455 749.999L785.129 633.348H787.631C788.979 633.348 819.778 634.215 856.062 635.273C892.347 636.332 923.242 637.198 924.686 637.198C927.381 637.198 927.381 637.198 922.088 631.135L916.698 625.167V617.66V610.057L921.799 604.186C929.883 594.657 929.498 595.909 927.862 588.498C926.13 580.413 925.264 568.575 925.264 552.02C925.167 539.508 925.167 539.508 929.21 529.402L933.252 519.296L931.038 514.965C929.114 511.212 928.729 508.709 928.247 497.16L927.766 483.685L924.59 489.653C922.857 493.021 921.221 495.716 920.836 495.716C920.451 495.716 913.04 493.695 904.474 491.289L888.786 486.765L883.493 490.807C876.948 495.812 875.119 496.39 864.725 497.064C858.469 497.545 855.485 497.256 852.116 496.005C847.785 494.465 847.497 494.561 844.802 496.486L841.914 498.507L833.06 496.197C828.151 494.85 824.012 493.791 823.916 493.791C823.724 493.791 823.339 495.042 823.05 496.486C822.569 498.892 821.51 499.662 814.677 502.261C810.345 503.993 806.496 505.341 805.918 505.341C805.437 505.341 805.052 502.55 805.052 499.085C805.052 495.62 804.186 489.556 803.031 485.514C801.972 481.568 801.202 478.103 801.394 477.91C801.491 477.814 803.512 476.755 805.629 475.697L809.575 473.676L809.094 464.436C808.805 459.046 809.094 453.079 809.768 449.71C810.923 444.32 810.923 444.032 805.629 427.766L800.24 411.212L791.289 403.031L782.241 394.754L777.718 382.819L773.098 370.884L776.563 364.051C779.835 357.602 779.932 356.929 778.969 353.079C778.007 349.422 778.295 346.63 782.049 328.632L786.38 308.421L783.204 292.636C780.22 277.525 779.835 276.659 776.467 273.194L773.002 269.633L773.579 261.356C774.06 254.234 774.638 252.213 778.199 245.379L782.338 237.487L780.413 228.247L778.584 219.008L733.252 219.296L687.92 219.585L687.246 212.078C686.669 205.341 686.861 203.993 688.882 199.277C693.406 188.979 693.984 189.749 682.626 190.326C673.579 190.807 672.521 191 670.981 193.117L669.152 195.427H641.818C626.804 195.427 614.484 195.62 614.484 195.908C614.484 196.101 615.35 197.737 616.313 199.373L618.238 202.453L615.35 206.399L612.559 210.442L613.425 220.451L614.195 230.557L611.5 234.6C609.575 237.391 607.747 238.738 605.629 239.219C600.913 240.278 600.913 240.374 604.089 245.572L607.169 250.384L603.704 256.832C601.009 261.837 600.336 264.051 600.721 266.553L601.298 269.826L580.702 269.248C558.661 268.575 559.624 268.767 556.255 263.377C554.715 260.875 541.625 262.318 538.834 265.398C537.006 267.42 535.947 267.612 528.247 267.612C519.874 267.612 519.585 267.708 513.906 271.462L508.132 275.312H489.267H470.403L461.452 260.105C456.351 251.635 448.459 239.989 443.165 233.445C438.064 227.092 431.808 218.911 429.402 215.158L424.879 208.42V198.988V189.556L415.35 171.269L405.822 153.079L407.843 145.283L409.768 137.487L405.244 133.637C400.817 129.883 400.817 129.787 400.817 123.82V117.756L394.368 117.179C386.573 116.409 341.722 116.313 340.952 116.986Z" fill="black"/>
<circle cx="163" cy="334" fill="#5CE50D"/>
<circle cx="554" cy="486" fill="#E52A0D"/>
<circle cx="174" cy="614" fill="#E52A0D"/>
<circle cx="384" cy="816" fill="#E52A0D"/>
</svg>
