<svg width="1000" height="1000" viewBox="0 0 1000 1000" fill="none" xmlns="http://www.w3.org/2000/svg">
<rect width="1000" height="1000" />
<path d="M717.239 44.0513C717.239 45.2967 715.897 46.3505 713.311 47.4044C710.053 48.6498 709.479 49.3204 710.053 50.8533C710.341 51.907 710.149 56.4098 709.479 60.7209C708.712 66.5648 707.85 69.3431 706.221 71.0675C702.772 74.8038 698.078 83.0428 698.078 85.342C698.078 86.5875 698.653 87.3539 699.803 87.3539C701.719 87.4497 705.263 89.8447 704.114 90.3237C703.635 90.5154 701.91 92.5272 700.186 94.7307C697.024 98.8502 696.929 98.8502 698.366 102.874C699.611 106.706 699.515 107.185 697.791 109.58C695.013 113.412 694.054 121.076 695.779 125.292C696.737 127.591 697.216 131.423 697.024 136.596C696.929 140.812 697.408 145.602 697.982 147.134C698.94 149.434 698.653 150.967 696.641 157.002C695.013 161.792 694.246 166.295 694.246 170.51C694.246 179.132 691.276 187.276 686.007 192.736C682.941 195.898 681.696 198.101 681.217 201.167C680.259 207.011 675.948 213.334 671.158 215.825C665.793 218.507 660.141 217.741 653.051 213.525C650.177 211.705 646.441 209.789 644.812 209.118C642.896 208.352 641.363 206.723 640.309 204.328C637.914 198.963 629.196 193.694 622.873 193.694C617.604 193.694 615.018 192.161 607.737 184.785C599.498 176.45 590.396 170.606 584.361 169.935C581.104 169.552 579.954 168.977 579.283 167.349C578.804 166.008 577.367 164.954 575.547 164.666C573.44 164.187 572.098 163.133 571.044 160.834C569.895 158.343 567.691 156.715 560.506 153.074C555.524 150.583 551.022 147.709 550.543 146.751C549.106 144.069 550.926 139.662 558.207 128.549C565.009 118.011 566.638 113.508 563.093 114.658C560.123 115.52 558.782 112.167 560.41 108.143C561.847 104.694 564.817 102.395 569.033 101.341C571.332 100.766 571.619 100.958 571.619 103.161C571.619 106.706 574.206 106.131 575.068 102.395C575.451 100.766 575.739 98.5627 575.547 97.6047C575.451 96.7425 576.601 94.3474 578.134 92.3356C579.667 90.4196 581.87 86.9706 583.02 84.7672C585.032 80.7435 585.032 80.7435 583.211 79.6897C582.158 79.2107 580.625 78.7317 579.762 78.7317C578.9 78.7317 576.793 77.6779 575.068 76.3366L572.003 74.0374L568.841 75.9534C565.775 77.7737 565.775 77.9653 567.308 79.6897C569.128 81.7015 568.649 84.4798 566.542 84.4798C565.009 84.4798 562.614 81.989 561.752 79.4981C561.273 78.0611 560.698 77.9653 558.686 78.7317C554.95 80.1687 554.183 79.9771 555.333 77.8694C555.812 76.8156 556.291 75.666 556.291 75.3786C556.291 74.0374 548.052 76.145 546.519 77.8694C544.507 80.2645 542.112 80.1687 539.334 77.582C537.609 75.9534 535.406 75.3786 529.658 74.8996C524.964 74.5164 519.407 73.1752 514.33 71.2591C508.677 69.0557 504.749 68.1934 500.726 68.1934C497.373 68.1934 494.69 67.7144 494.115 66.948C493.54 66.3732 492.008 64.3613 490.571 62.6369C487.409 58.709 483.002 58.4216 479.553 62.0621C477.35 64.4572 477.35 64.553 478.979 67.3312C479.841 68.9598 480.607 71.2591 480.607 72.6003C480.607 75.9534 474.572 79.5939 467.099 80.6477C456.848 82.1805 454.07 81.8931 451.675 79.2107C449.376 76.5283 447.46 76.2408 443.723 77.9653C442.191 78.6359 441.328 79.7855 441.328 81.2225C441.328 82.8512 440.945 83.2344 439.412 82.8512C438.358 82.5638 435.963 82.6595 434.143 82.947C430.886 83.6176 430.79 83.8092 430.79 87.8329C430.79 91.665 430.598 92.0482 427.916 92.623C426.287 93.0062 425.042 93.6768 425.042 94.0601C425.042 94.5391 424.084 95.7845 422.934 96.9341C420.922 98.7543 420.922 98.9459 422.551 102.299C423.413 104.215 424.084 105.844 423.892 106.035C420.348 108.526 418.527 109.388 416.899 109.388C415.366 109.388 414.312 110.634 412.588 114.753C411.438 117.723 408.947 122.034 407.223 124.333C403.199 129.603 403.103 132.86 406.84 137.171C410.001 140.907 410.48 142.919 408.181 142.919C406.648 142.919 406.744 144.739 408.468 149.338C409.139 150.967 409.043 150.967 406.361 149.242C404.732 148.284 402.337 146.368 400.9 145.027L398.217 142.536V145.218C398.217 147.422 397.93 147.709 396.876 146.847C394.864 145.218 385.667 142.632 382.41 142.823C379.248 143.015 375.225 146.272 375.225 148.667C375.225 150.296 373.5 152.499 372.159 152.499C371.776 152.499 372.255 150.2 373.309 147.422L375.321 142.44L364.495 132.189C357.597 125.579 352.52 121.555 350.412 120.98C348.592 120.406 346.197 119.064 344.951 117.915C341.886 115.041 338.724 116.19 339.395 119.831C339.874 121.938 339.491 122.801 337.479 124.046C334.413 126.154 334.03 126.058 334.03 123.759C334.03 120.597 329.431 121.172 328.186 124.429C327.419 126.25 326.94 126.633 326.653 125.675C326.366 124.908 326.078 123.663 325.791 122.992C325.503 122.034 324.929 122.034 323.492 122.801C321.959 123.663 321.671 124.238 322.438 125.1C323.204 126.058 323.108 126.729 322.055 127.591C321.192 128.261 320.809 129.603 321.192 130.848C321.384 131.902 321.097 133.626 320.33 134.584C319.181 136.309 318.893 136.213 316.019 132.956C314.39 131.04 312.858 129.507 312.57 129.507C312.379 129.507 311.9 130.944 311.612 132.668C311.133 135.447 310.462 136.117 307.205 137.075C304.619 137.842 302.894 139.087 302.032 140.907C300.786 143.302 300.786 143.781 302.415 145.41C303.373 146.368 304.427 148.188 304.81 149.434C305.385 151.35 305.193 151.446 302.894 150.583C297.625 148.571 292.835 150.583 292.835 154.703C292.835 155.565 292.356 156.331 291.781 156.331C291.206 156.331 288.62 157.289 285.937 158.439L281.147 160.547L281.722 168.211C282.105 173.288 282.009 177.121 281.243 179.324C279.71 183.731 279.902 183.635 276.932 181.336C273.866 178.941 271.95 178.749 271.088 180.857C270.609 182.102 270.226 182.006 268.405 180.282C266.681 178.653 265.531 178.366 263.232 178.845C260.166 179.516 259.496 180.665 261.316 181.815C261.891 182.198 262.082 183.731 261.699 185.647C261.22 188.521 261.603 189.479 264.477 192.928C268.022 197.047 268.884 199.442 266.681 199.442C265.914 199.442 264.382 200.496 263.136 201.838C261.508 203.562 261.124 204.807 261.508 207.107C261.891 208.639 261.987 209.981 261.795 209.981C261.029 209.981 251.832 194.844 249.437 189.479C247.904 186.126 246.467 184.114 245.988 184.689C245.509 185.168 243.593 187.467 241.677 189.766C239.76 192.066 236.599 195.131 234.587 196.568C228.935 200.688 226.54 209.406 228.36 219.848C228.743 222.339 229.318 223.297 230.18 223.01C230.947 222.722 231.905 223.297 232.48 224.255C233.246 225.788 232.096 227.034 224.145 233.069C215.235 239.967 214.948 240.35 211.978 247.631C208.05 257.115 204.122 261.043 191.668 267.749C180.459 273.881 174.998 275.222 163.023 274.935C153.443 274.743 146.545 276.851 147.695 279.725C148.461 281.832 146.449 282.79 141.18 282.79C135.624 282.79 131.408 284.419 125.66 288.922C119.72 293.424 113.206 294.382 108.416 291.413C105.35 289.497 104.967 289.497 102.955 290.838C100.081 292.85 99.3145 292.754 99.3145 290.167C99.2187 288.251 98.9313 288.347 95.9614 291.604C93.6622 293.999 91.2671 295.532 88.5846 296.107C85.998 296.682 83.2197 298.406 80.2499 301.28C70.5738 310.573 62.3348 316.321 55.1497 318.716C46.3359 321.782 43.7492 324.177 40.8752 332.608C38.9591 338.164 38.1927 339.314 36.4683 339.314C34.8396 339.314 34.2648 338.547 33.7858 335.386C33.4026 333.278 33.4026 329.35 33.7858 326.764C34.3606 322.261 34.3606 322.069 32.0614 322.069C29.9537 322.069 29.1873 323.123 26.1216 329.733C21.4273 340.08 21.2357 341.709 23.535 347.744C25.2594 352.055 25.451 354.067 24.972 360.678C24.3972 368.054 24.1098 368.917 19.7029 375.431C16.4456 380.221 15.0086 383.191 15.0086 385.49C15.0086 394.208 26.3132 419.308 35.2228 430.23C37.7137 433.296 37.8095 433.583 36.5641 437.032C35.7976 439.044 34.648 441.822 33.9774 443.163L32.732 445.654L30.4327 440.768C28.6125 437.032 27.6545 436.074 26.3132 436.361C24.972 436.744 24.5888 436.265 24.5888 434.541C24.5888 431.475 22.0979 426.494 19.4155 424.386C16.6372 422.087 15.9666 422.278 15.9666 425.248C15.9666 430.709 17.8826 435.02 21.8105 438.373C25.2594 441.247 25.6426 442.014 25.3552 445.271C24.8762 451.402 22.2895 450.732 18.7448 443.451C15.4876 436.84 12.1345 433.583 12.1345 436.936C12.1345 437.99 11.5597 438.948 10.9849 439.235C10.0268 439.619 10.0268 439.906 10.8891 440.96C11.5597 441.63 12.1345 442.972 12.1345 443.93C12.1345 444.983 14.1463 448.241 16.733 451.211C19.2239 454.276 23.6308 460.312 26.5048 464.815C31.5823 472.574 31.7739 473.149 32.8278 482.251C33.8816 491.735 33.8816 491.735 38.2885 496.238C42.887 501.028 45.8569 507.926 43.1744 507.926C41.1626 507.926 41.45 508.5 47.1981 515.877L52.563 522.775L51.9882 533.6C51.5092 544.139 51.5092 544.618 55.2455 556.689C57.9279 565.215 60.8978 572.209 64.9215 579.394C71.4361 591.178 72.3941 595.68 70.7654 609.955C70.0948 616.565 69.8074 617.236 68.9452 615.224C68.1788 613.5 67.9872 616.374 68.083 626.72C68.1788 641.857 67.0292 647.797 63.8677 647.797C63.0055 647.797 60.323 647.126 58.1195 646.36C55.9161 645.593 53.8084 644.923 53.521 644.923C53.042 644.923 54.0959 660.826 54.8623 665.041C55.3413 667.34 56.0119 667.819 59.7482 668.394C64.9215 669.161 71.4361 673.568 76.6094 679.795C78.6212 682.19 80.7289 684.202 81.2079 684.202C81.7827 684.202 85.3274 685.543 89.0637 687.171C95.2908 689.95 96.5362 690.141 102.763 689.662C106.595 689.375 111.481 689.566 113.781 690.045C116.271 690.62 118.188 690.62 118.762 690.045C119.241 689.566 120.774 689.471 122.594 690.045C124.51 690.524 125.947 690.524 126.522 689.95C127.097 689.375 128.726 688.992 130.163 688.992C131.696 688.992 133.133 688.321 133.42 687.555C133.803 686.692 135.24 686.118 136.773 686.118C139.264 686.118 139.456 685.926 138.593 684.297C137.061 681.423 137.348 680.657 140.605 679.316C142.33 678.645 144.916 677.016 146.545 675.675C148.653 673.855 150.664 673.184 153.826 673.088C159.957 672.897 165.705 670.023 165.035 667.532C164.747 666.478 165.322 664.85 166.376 663.7C167.43 662.55 169.058 660.634 170.016 659.293C171.837 657.09 172.028 656.994 176.818 658.143C184.004 659.772 187.836 659.58 190.614 657.377C192.338 656.036 194.446 655.461 198.182 655.461C201.056 655.461 203.835 654.982 204.505 654.311C205.368 653.449 207.188 653.545 212.361 654.407C216.097 655.078 220.696 655.365 222.516 655.078C225.007 654.599 225.965 654.79 226.444 655.94C226.827 657.09 227.594 657.377 229.031 656.898C230.084 656.515 235.354 656.036 240.623 655.844C248.478 655.461 250.395 655.652 251.257 656.898C252.119 658.048 252.885 658.143 254.897 657.377C256.334 656.898 258.442 656.419 259.687 656.419C263.615 656.419 269.459 650.288 272.142 643.198C275.974 633.235 277.602 631.127 282.871 629.211C285.458 628.349 289.099 626.816 290.919 625.762C298.391 621.643 309.6 616.182 310.462 616.182C311.037 616.182 312.57 614.649 313.911 612.829C317.552 607.751 321.384 606.889 331.826 609.188L340.353 611.009L356.639 606.602C368.231 603.44 375.512 600.758 382.506 597.309L392.086 592.423L402.145 592.327C408.468 592.327 413.833 591.752 416.899 590.794C420.539 589.741 423.796 589.453 430.407 589.932C437.688 590.411 439.604 590.315 441.424 588.974C442.67 588.112 445.544 587.441 447.843 587.441C451.483 587.441 452.825 588.112 458.86 592.998C470.356 602.291 470.261 602.291 476.967 600.375L482.619 598.842L489.325 603.057L495.936 607.368L500.726 605.835L505.516 604.303L508.486 607.177C510.881 609.476 511.36 610.53 511.072 613.5C510.881 615.511 510.881 617.14 511.168 617.14C511.36 617.14 512.988 616.278 514.713 615.128C517.204 613.595 518.066 613.404 518.353 614.458C518.545 615.128 519.215 617.14 519.79 618.96C520.748 621.93 520.652 622.122 518.832 621.643C517.012 621.164 516.82 621.355 517.395 624.038C517.683 625.666 517.97 627.582 517.97 628.253C517.97 628.924 521.898 632.66 526.688 636.492C533.682 642.144 535.31 643.869 534.927 645.593C534.64 647.126 535.981 649.042 540.196 653.257C544.986 658.048 545.753 659.197 545.274 661.401C544.89 663.029 545.178 664.85 546.136 666.191C546.998 667.34 547.669 669.831 547.669 671.556C547.669 674.334 547.381 674.813 545.753 674.334C543.358 673.759 543.932 674.717 549.776 681.423C553.992 686.118 554.471 686.405 556.962 685.543C559.357 684.681 559.644 684.202 559.644 679.986C559.644 674.909 562.135 671.747 564.626 673.759C565.584 674.621 566.063 674.334 566.733 672.609C570.757 661.975 574.398 658.048 584.553 653.545C590.78 650.767 592.313 649.617 592.6 647.797C592.696 646.455 594.324 643.773 596.145 641.857C597.965 639.845 599.402 637.354 599.402 636.396C599.402 635.342 599.881 634.193 600.456 633.905C601.031 633.522 602.659 631.51 604.192 629.403C606.395 626.433 606.779 624.996 606.395 622.313C606.012 620.301 606.204 619.056 606.874 619.056C608.407 619.056 610.132 622.697 609.461 624.708C609.174 625.666 609.557 627.966 610.419 629.882C612.239 634.193 612.239 634.097 609.94 634.672C607.833 635.247 607.641 636.492 608.982 643.007L609.749 647.318L604.671 652.395L599.498 657.569L598.252 671.077C597.198 681.806 596.719 684.585 595.666 684.393C594.899 684.202 592.696 684.393 590.78 684.681C588.001 685.16 586.948 685.926 585.702 688.608C583.211 693.878 583.499 695.027 587.235 694.165C588.864 693.686 593.462 693.494 597.294 693.59L604.192 693.878V691.291C604.192 689.854 605.246 687.267 606.587 685.543C608.312 683.339 609.174 680.657 609.653 676.633C609.94 673.376 610.515 670.789 610.898 670.789C611.281 670.789 611.952 669.256 612.239 667.436C612.623 665.616 613.293 664.083 613.772 664.083C615.688 664.083 620.862 675.292 622.49 683.052L624.119 691.195L620.957 695.602C616.646 701.733 614.443 706.236 615.784 706.236C616.359 706.236 618.083 707.577 619.52 709.11C622.011 711.793 622.394 711.888 623.736 710.451C624.598 709.685 625.268 708.152 625.268 707.098C625.268 704.32 627.759 703.841 633.316 705.565C639.447 707.577 644.621 712.751 650.177 722.522C653.53 728.462 654.297 730.857 654.776 736.126C655.063 740.15 654.776 743.695 654.009 745.419C652.955 748.102 653.147 748.868 656.883 755.766C660.62 762.759 670.487 776.842 672.595 778.279C673.17 778.663 676.427 779.716 679.876 780.579C687.253 782.59 694.246 786.901 694.246 789.584C694.246 792.554 698.845 792.171 699.994 789.105C700.761 787.093 701.335 786.806 704.018 787.381C705.742 787.668 708.425 788.818 709.958 789.871C711.874 791.213 713.981 791.787 716.76 791.596C720.208 791.5 721.167 791.883 723.178 794.182C724.903 796.29 726.723 797.152 730.172 797.631C733.429 798.206 735.345 799.068 736.591 800.697C737.644 801.942 739.081 802.996 739.944 802.996C740.71 802.996 742.626 803.763 744.159 804.625C747.033 806.349 747.608 806.158 749.045 802.9C749.811 801.272 767.918 788.434 770.409 787.86C773.858 786.902 775.199 782.878 772.037 782.878C771.079 782.878 769.93 782.59 769.642 782.207C768.589 781.249 775.87 777.225 778.648 777.13C780.851 777.13 781.33 777.704 782.193 780.962L783.151 784.794L778.839 787.86C774.049 791.117 774.049 791.117 782.097 793.895C787.557 795.811 788.803 795.524 787.27 792.65C785.737 789.776 786.983 786.71 789.665 786.71C792.443 786.71 793.497 788.722 792.156 791.213C790.719 793.703 793.018 797.344 797.617 799.931C799.82 801.176 801.544 802.613 801.544 803.188C801.544 803.763 802.215 805.104 803.077 805.966C804.323 807.307 805.089 807.499 806.43 806.733C808.442 805.679 810.167 806.254 810.167 808.074C810.167 808.744 811.029 810.277 812.083 811.618C813.999 813.918 814.095 814.014 815.436 812.193C816.202 811.139 816.873 808.936 816.873 807.307C816.873 803.092 818.885 800.793 825.687 796.961C829.04 795.045 836.8 789.009 843.027 783.548C854.236 773.681 854.523 773.585 860.175 772.914C868.414 772.052 878.186 772.148 881.539 773.202C886.521 774.543 895.335 770.328 899.071 764.771C902.52 759.789 903.095 755.574 901.37 747.91C900.412 743.599 900.508 742.928 902.137 741.683C903.574 740.533 904.34 737.755 905.49 728.271C907.119 714.762 910.663 703.937 915.932 696.752C919.669 691.578 921.297 687.171 921.297 682.286C921.297 677.016 923.692 671.172 927.716 666.574C931.261 662.55 933.752 656.132 933.752 651.15C933.752 649.904 936.242 644.348 939.308 638.791C943.523 631.127 945.918 627.966 949.75 624.996C955.499 620.397 967.282 604.494 967.282 601.141C967.282 599.896 968.336 597.98 969.677 596.83C971.402 595.297 972.072 593.764 972.072 591.273C972.072 589.357 972.456 587.441 972.935 586.962C974.467 585.334 976.958 569.91 975.904 568.856C974.467 567.419 974.851 560.425 976.383 558.317C977.15 557.264 977.821 555.443 977.821 554.198C977.821 553.048 979.162 547.971 980.695 543.085C982.419 537.72 983.569 531.972 983.569 529.002C983.569 522.871 984.718 518.943 988.455 511.47C990.083 508.5 990.85 506.009 990.275 506.009C989.796 506.009 989.317 504.572 989.317 502.848C989.317 498.154 983.664 478.227 981.557 475.544C980.599 474.203 979.737 472.766 979.737 472.287C979.737 471.808 978.779 470.563 977.629 469.605C975.809 468.168 975.617 467.593 976.671 466.635C978.108 465.102 978.395 429.847 976.958 430.805C976.096 431.284 973.988 425.823 973.988 423.141C973.988 422.566 973.509 420.554 972.935 418.542C972.264 415.955 971.498 414.997 970.061 414.997C968.911 414.997 966.803 414.135 965.27 413.081C962.971 411.357 962.492 410.207 961.917 405.417C961.438 400.914 960.959 399.669 959.714 399.669C957.319 399.669 950.421 392.005 949.08 387.981C947.739 383.766 943.715 380.221 941.033 380.892C938.829 381.467 929.536 374.665 925.321 369.204C922.543 365.755 922.351 364.989 921.68 353.588C921.201 343.529 920.722 341.421 919.094 339.505C916.507 336.727 915.549 336.823 915.549 339.793C915.549 341.134 915.262 342.188 914.974 342.188C912.962 342.188 907.981 337.877 906.161 334.619C904.532 331.745 903.574 330.979 902.137 331.362C900.604 331.745 900.221 332.703 900.221 336.248V340.655L894.952 335.482C889.874 330.404 889.683 330.117 889.683 324.943C889.683 319.195 887.575 312.202 885.084 309.136C884.126 308.082 882.593 305.495 881.539 303.484C880.486 301.472 877.611 298.023 875.121 295.819C869.947 291.413 868.989 288.539 872.917 289.305C874.258 289.497 875.312 289.401 875.312 289.113C875.312 287.676 871.384 280.874 870.618 280.874C870.139 280.874 868.414 279.725 866.786 278.383C864.487 276.467 863.816 276.276 863.816 277.425C863.816 279.916 860.559 279.15 858.93 276.18C857.78 274.264 856.343 273.306 853.853 272.827C851.362 272.348 850.02 271.39 849.254 269.857C848.488 268.228 847.817 267.749 847.051 268.42C846.284 269.091 845.326 268.037 843.889 265.067C841.973 261.139 841.494 260.756 838.428 260.756C835.746 260.756 834.309 260.085 832.105 257.69L829.327 254.625V257.307V259.989L824.824 256.636C822.238 254.816 819.268 253.092 818.118 252.708C814.957 251.75 812.658 247.439 812.945 242.841C813.137 239.392 812.658 238.242 809.688 235.081C805.951 230.866 805.664 228.95 807.293 219.082C808.155 214.004 807.963 212.759 805.856 207.49C804.514 204.233 803.461 200.4 803.461 199.059C803.461 197.143 802.886 196.664 800.874 196.377C798.958 196.185 798.096 195.515 797.904 194.078C797.712 192.928 796.563 191.012 795.222 189.766C793.689 188.329 792.922 186.605 792.922 184.21C792.922 179.899 791.198 170.51 789.473 164.954C788.707 162.559 788.132 159.301 788.132 157.577C788.132 155.948 787.653 154.224 787.078 153.936C786.408 153.457 786.599 152.499 787.557 150.967C789.282 148.476 789.473 147.326 788.228 148.188C787.749 148.476 785.162 146.56 782.48 143.973C779.893 141.386 776.54 139.087 775.199 138.704C773.858 138.321 772.421 137.363 772.133 136.405C769.451 128.836 769.068 128.166 767.247 129.794C766.289 130.752 764.661 131.135 763.511 130.848C761.978 130.465 761.02 130.944 759.871 132.764C758.721 134.489 757.38 135.255 755.464 135.255C752.302 135.255 750.769 132.956 748.949 125.387C748.374 122.801 747.225 119.735 746.458 118.585C745.309 116.861 745.213 115.903 746.171 113.508C747.033 111.209 747.033 109.867 746.267 108.239C745.596 106.993 744.925 103.64 744.734 100.766C744.542 97.8922 743.776 95.4012 743.201 95.2097C742.626 95.0181 742.147 93.581 742.147 92.0482C742.147 90.228 741.093 88.3119 738.89 86.1085C734.675 81.7974 733.812 79.1149 736.016 76.7198C738.123 74.4206 736.782 71.4507 733.717 71.7381C731.513 72.0255 730.555 70.0137 728.256 60.5292C725.094 47.8834 724.903 47.2128 722.891 46.6379C721.454 46.1589 721.262 45.6799 721.933 44.8177C723.274 43.2849 722.316 42.3268 719.442 42.3268C717.909 42.3268 717.239 42.9017 717.239 44.0513Z" fill="black"/>
<path d="M773.57 875.897L773.858 887.585L779.031 894.483C784.396 901.859 785.641 903.967 789.473 912.493L791.868 917.954L789.09 916.517C787.557 915.751 786.12 915.08 785.833 915.08C785.641 915.08 787.27 920.253 789.473 926.576C793.018 936.731 794.072 938.743 798.383 943.15C801.065 945.928 804.323 950.239 805.664 952.826L807.963 957.52L814.094 957.329C817.448 957.233 821.567 957.616 823.196 958.095C825.495 958.766 826.549 958.574 827.507 957.616C828.273 956.946 830.572 955.7 832.68 955.03C835.363 954.071 836.608 953.113 836.8 951.581C837.087 949.76 836.8 949.569 834.405 950.144L831.722 950.718L834.596 948.228C836.225 946.886 837.949 945.832 838.524 945.737C839.099 945.737 839.386 944.491 839.099 942.767C838.811 940.563 839.195 939.51 840.727 938.456C841.781 937.689 842.739 936.156 842.739 935.103C842.739 932.899 843.123 932.899 846.092 934.815C848.296 936.252 848.296 936.348 846.763 939.031C845.23 941.713 845.23 941.905 847.529 944.3L849.924 946.791L851.649 944.587C853.086 942.863 853.373 941.521 852.894 938.168C852.128 932.899 853.852 918.912 855.768 913.356C857.014 910.098 857.684 909.332 859.696 909.332H862.091L861.421 891.321L860.75 873.406L857.301 869.766C855.385 867.85 853.373 866.221 852.703 866.221C852.128 866.221 848.775 867.466 845.326 869.095C840.44 871.298 837.566 871.969 833.159 871.969C829.423 871.969 826.549 872.544 824.92 873.502C823.579 874.364 820.13 875.705 817.256 876.376L811.987 877.526L800.586 872.352C790.048 867.562 779.893 864.401 775.199 864.305C773.379 864.305 773.283 864.88 773.57 875.897Z" fill="black"/>
<circle cx="862" cy="659" fill="#5CE50D"/>
<circle cx="647" cy="689" fill="#E52A0D"/>
<circle cx="78" cy="590" fill="#E52A0D"/>
<circle cx="960" cy="530" fill="#E52A0D"/>
</svg>
