<svg width="1000" height="1000" viewBox="0 0 1000 1000" fill="none" xmlns="http://www.w3.org/2000/svg">
<g clip-path="url(#clip0_1_319)">
<rect width="1000" height="1000" />
<path d="M300.391 2.63666L295.605 5.37103L295.312 13.5742C295.117 18.164 294.531 22.2656 293.945 22.8515C293.262 23.5351 285.254 23.8281 270.02 23.7304C245.215 23.4374 244.238 23.3398 237.695 17.6757C236.035 16.1132 232.422 14.5507 229.199 13.7695C223.828 12.5976 223.535 12.5976 218.066 15.6249C214.941 17.2851 210.352 20.1171 207.91 21.8749C203.906 24.9023 203.32 25.7812 202.148 31.2499C201.172 35.9374 200.293 37.5976 198.34 38.7695C182.812 48.1445 182.812 48.2421 177.246 59.8632C173.73 66.9921 171.777 72.5585 171.289 76.0742C170.996 79.1015 169.629 83.9843 168.262 87.0117L165.918 92.3828L159.375 94.0429C155.762 94.9218 148.828 95.8984 143.848 96.1913L134.863 96.7773L133.301 93.164C132.52 91.2109 129.004 85.7421 125.488 81.0546C119.629 73.2421 118.262 71.9726 107.227 65.1367C100.586 61.0351 94.6289 57.3242 93.9453 56.8359C92.8711 56.1523 92.8711 54.7851 93.75 49.707L94.9219 43.457L88.5742 37.5976C80.1758 29.9804 73.4375 21.0937 72.2656 16.2109C70.8008 10.4492 68.5547 4.49213 66.9922 2.44135C65.7227 0.683533 65.332 0.683533 57.5195 2.24603C53.0273 3.2226 45.5078 3.90619 40.8203 3.90619H32.4219L24.0234 10.9374C18.6523 15.4296 15.8203 18.5546 16.0156 19.5312C16.3086 20.3124 17.1875 24.414 18.1641 28.5156C19.8242 35.9374 19.8242 36.0351 17.8711 37.7929C16.1133 39.3554 16.0156 40.332 16.6016 47.8515C17.0898 54.0038 16.8945 57.1288 15.8203 59.8632C14.8438 62.4023 14.7461 63.8671 15.4297 64.746C17.0898 66.6992 17.1875 78.2226 15.625 81.9335L14.2578 85.2538L19.4336 89.8437C22.3633 92.3828 24.2188 94.7265 23.7305 95.0195C23.1445 95.4101 21.4844 99.9999 20.0195 105.371L17.2852 115.039L8.59375 115.723C-1.46484 116.504 -1.17188 115.527 4.98047 128.809C7.03125 133.301 8.78906 137.109 8.78906 137.305C8.78906 137.5 6.83594 137.695 4.39453 137.695C1.95312 137.695 0 137.988 0 138.281C0 138.574 1.36719 142.09 3.02734 146.094C5.17578 151.269 5.95703 154.297 5.46875 156.348C5.07812 158.301 5.56641 160.547 6.83594 163.184C8.59375 166.504 8.69141 167.285 7.42188 169.238C6.73828 170.41 5.85938 173.633 5.56641 176.367C5.07812 181.055 5.37109 181.934 11.0352 192.383C15.918 201.172 17.7734 203.711 20.7031 205.371L24.4141 207.422L29.1992 205.078C33.9844 202.832 34.375 202.832 46.0938 204.004C64.0625 205.762 62.3047 204.883 67.7734 215.137C74.5117 227.734 82.2266 238.477 88.8672 244.336C94.3359 249.121 94.6289 249.609 96.7773 257.812C98.7305 265.723 99.2188 266.504 102.734 268.652C106.934 271.191 106.934 271.582 103.906 279.492L102.148 284.18L104.98 287.109C108.008 290.332 108.008 290.234 103.906 301.074L102.148 305.664L110.156 313.477C114.551 317.676 118.164 321.875 118.164 322.754C118.164 323.633 117.09 326.269 115.723 328.516C112.5 334.082 113.477 337.598 118.359 338.086L121.582 338.379L122.559 348.144C123.145 353.906 123.242 358.887 122.754 360.352C122.168 361.914 122.363 368.164 123.34 377.051L124.805 391.309L141.309 413.867L157.715 436.426L163.672 436.523C167.09 436.523 170.312 435.937 171.387 435.156C172.363 434.473 173.926 433.984 174.707 434.18C175.586 434.375 177.832 434.766 179.785 435.059C183.398 435.547 183.398 435.644 184.57 442.187C185.156 445.801 187.109 451.465 188.672 454.785C191.992 461.23 193.164 461.914 201.66 461.914C209.375 461.914 211.914 462.891 212.012 465.723C212.012 467.09 213.672 472.852 215.625 478.516L219.238 488.77L224.219 489.551C228.906 490.332 229.199 490.527 230.078 493.945L230.957 497.559L238.672 498.73C245.898 499.805 246.68 500.195 250.977 504.395L255.566 508.887L256.152 521.387C256.543 528.223 257.129 535.84 257.422 538.379L258.105 542.871L277.832 556.543L297.559 570.215L304.395 584.961L311.23 599.805L338.77 625.098L366.406 650.391H371.582C374.512 650.391 377.051 650 377.441 649.512C377.734 649.023 379.883 647.852 382.227 646.973C385.84 645.605 387.305 645.508 391.797 646.387C396.484 647.363 397.461 648.047 401.172 652.832L405.371 658.203L401.27 663.086C397.266 667.773 397.266 667.969 398.828 670.41C400 672.266 401.27 672.852 403.809 672.852C406.738 672.852 407.227 673.145 407.227 675.098C407.227 676.27 404.98 679.98 402.246 683.398C397.363 689.355 397.266 689.551 398.828 691.895C400 693.652 401.27 694.336 403.711 694.336H407.031L410.547 713.086C412.5 723.437 414.355 733.105 414.648 734.473C414.941 735.937 416.211 738.477 417.48 740.234L419.824 743.457L422.07 738.77L424.316 734.18L430.176 734.766C435.449 735.254 436.328 735.742 439.062 738.965C441.797 742.285 442.285 743.652 443.262 752.93C443.945 758.594 444.727 764.551 445.02 766.211L445.508 769.336L454.395 770.02L463.184 770.703L485.352 789.551C506.641 807.715 507.52 808.594 509.277 813.867C510.254 816.797 510.84 819.531 510.547 819.824C510.254 820.117 505.664 821.973 500.391 823.828C491.309 827.051 490.43 827.246 485.449 826.27C482.52 825.684 479.98 825.391 479.785 825.586C479.59 825.781 484.375 828.809 490.43 832.422L501.367 839.062L507.324 837.598C513.086 836.23 518.359 836.816 517.188 838.77C516.895 839.258 510.742 841.699 503.516 844.238C490.918 848.633 490.234 848.828 485.254 847.754C482.52 847.168 479.98 846.777 479.785 846.973C479.59 847.168 484.375 850.293 490.43 853.906L501.367 860.547L507.324 859.082C513.184 857.617 513.184 857.617 522.461 860.937L531.738 864.258L540.527 861.816C545.41 860.449 549.609 859.375 550 859.375C551.367 859.375 557.715 871.387 559.277 876.953C560.449 881.152 562.207 884.277 566.113 888.867C574.707 898.828 575.879 900 585.059 907.715C593.75 915.039 593.848 915.039 599.512 915.039H605.176L628.516 933.008C651.27 950.586 651.953 951.172 657.129 959.375C660.059 963.965 662.891 967.773 663.477 967.773C663.965 967.773 669.141 966.602 674.902 965.234L685.449 962.793L697.656 970.703L709.961 978.711L724.023 972.559C737.695 966.699 738.086 966.406 737.207 964.16C736.719 962.891 736.328 960.352 736.328 958.496C736.328 955.273 736.426 955.176 741.699 954.102C744.629 953.516 747.07 952.734 747.07 952.441C747.07 952.148 745.898 947.754 744.531 942.676C741.992 933.105 742.09 931.738 745.898 931.641C747.461 931.641 747.559 932.52 742.871 914.453L738.77 898.633L729.004 887.695C723.535 881.543 718.945 875.586 718.652 874.023C718.164 871.582 718.555 870.898 722.266 868.164C724.609 866.504 726.66 864.844 726.953 864.355C727.246 863.965 726.465 859.961 725.195 855.371L722.949 847.168L725.293 844.238C726.562 842.578 731.445 836.523 736.133 830.566L744.727 819.824L751.465 818.066C755.273 817.09 759.961 815.82 761.914 815.332L765.625 814.355L765.527 798.047C765.43 784.375 765.723 781.055 767.188 778.027C768.555 775.195 768.652 773.828 767.871 771.191C766.895 767.969 767.188 767.48 773.535 758.691L780.176 749.512L780.273 738.281L780.371 727.051L795.41 713.184C803.711 705.469 811.914 698.535 813.77 697.656C817.09 696.094 817.188 696.094 823.926 700.098L830.762 704.199L832.031 711.523L833.203 718.945L841.211 722.656C847.852 725.684 850.586 726.367 856.543 726.562C870.312 727.148 869.727 727.344 870.996 720.703C872.07 715.234 871.973 714.648 869.629 709.961C867.773 706.348 867.48 705.078 868.555 705.078C869.336 705.078 870.312 703.027 870.996 699.316L872.168 693.457L867.383 683.887C863.867 676.855 862.402 672.754 862.012 668.359C861.426 662.988 857.227 649.414 855.371 646.973C854.98 646.387 850 644.434 844.336 642.578L833.984 639.258V635.645V632.129L842.285 630.371C846.875 629.395 850.879 628.809 851.172 629.199C851.465 629.492 851.953 632.422 852.246 635.645C852.539 638.965 853.125 641.602 853.418 641.602C853.711 641.504 856.836 640.918 860.352 640.137C863.867 639.355 868.848 638.77 871.582 638.672C875.586 638.672 876.758 638.281 878.516 636.035L880.566 633.398L889.258 634.375C896.191 635.156 899.316 635.059 904.688 633.887L911.328 632.422L910.645 629.004C908.594 617.773 908.398 618.848 915.039 612.598C922.168 605.957 922.852 605.566 922.852 608.398C922.852 610.742 923.145 610.742 932.324 606.934C935.449 605.664 938.086 604.785 938.184 604.883C938.281 604.98 938.086 608.984 937.695 613.672L936.914 622.363L939.844 624.121C943.652 626.465 945.02 626.465 945.801 624.219C946.094 623.34 948.242 620.508 950.488 618.066C954.199 613.965 955.371 613.379 961.816 611.914C969.336 610.254 975.586 607.129 975.586 605.078C975.586 604.395 974.902 601.66 974.121 599.023C972.266 592.871 972.266 589.355 974.219 586.426C975.391 584.57 975.586 582.52 975.195 576.953C974.512 567.969 974.512 566.504 975.195 558.301C975.684 552.637 975.391 550.781 973.145 545.02L970.508 538.281L964.258 537.109L958.105 535.937L957.52 530.371C957.227 527.344 956.445 522.07 955.762 518.555L954.59 512.207L943.555 508.301C930.762 503.809 931.738 504.883 921.777 482.91C915.43 469.043 915.039 466.211 920.117 470.02C921.875 471.387 924.902 472.754 926.758 473.145C928.613 473.437 937.5 475.488 946.582 477.734C962.793 481.641 962.988 481.641 971.191 480.469C980.664 479.102 980.078 480.078 978.516 467.871C977.832 462.5 977.832 460.352 978.711 459.863C979.297 459.473 984.082 458.887 989.453 458.496C994.727 458.105 999.316 457.422 999.609 456.934C999.902 456.445 999.805 452.051 999.414 447.07L998.73 438.184L987.891 438.769C974.707 439.453 975.977 437.988 989.453 437.012C994.727 436.621 999.316 435.937 999.609 435.449C999.902 434.961 999.805 430.469 999.414 425.586L998.73 416.699L986.914 417.383L975 417.969L965.82 409.473C960.742 404.883 956.543 400.391 956.641 399.512C956.641 398.633 956.934 395.605 957.324 392.773L957.91 387.695H950.488H943.164L933.691 379.004L924.316 370.312L922.461 360.156C920.801 350.488 920.508 349.805 917.578 348.047C911.719 344.531 898.34 340.82 891.406 340.82H884.961L877.637 334.668C867.773 326.562 866.699 321.973 873.438 317.285C876.367 315.332 876.855 314.355 877.832 308.203C878.613 303.516 878.711 299.512 878.027 295.898C877.441 292.383 877.539 288.769 878.223 285.254C879.102 280.859 879.59 279.883 881.934 279.102C883.691 278.516 885.645 276.465 887.207 273.73L889.648 269.336L886.719 265.625L883.789 261.914L889.355 261.133L894.922 260.254L896.777 253.418C898.34 247.656 899.219 246.094 901.953 244.238L905.273 241.894V230.664V219.336L908.789 215.723C912.109 212.305 912.402 211.426 913.379 203.125C914.16 196.582 914.16 193.652 913.379 192.383C911.621 189.648 913.672 176.66 916.211 174.707C917.383 173.73 918.652 170.996 919.434 167.09C920.508 161.816 920.508 160.254 919.336 156.836C918.066 153.32 918.066 151.855 919.336 146.191C920.605 139.941 920.508 139.258 918.457 132.519L916.211 125.488L905.566 121.484C899.805 119.336 893.555 116.797 891.895 115.918C887.598 113.672 880.762 114.453 865.234 119.141C858.496 121.191 850.195 123.633 846.68 124.609C842.09 125.781 837.695 128.125 831.055 132.812C825.977 136.328 821.289 139.551 820.605 139.941C819.922 140.332 816.406 141.016 812.793 141.504L806.152 142.285L799.512 136.035C792.188 129.199 789.844 127.93 784.277 127.93C782.324 127.93 779.98 127.344 779.102 126.66C775 123.34 772.754 116.211 775.879 116.211C776.66 116.211 777.734 114.551 778.516 112.207C779.59 108.398 779.492 107.812 776.953 103.027C774.707 98.9257 774.316 97.2656 774.805 94.3359C775.195 92.2851 775.195 89.3554 774.902 87.6953L774.219 84.7656L765.625 85.3515L757.031 86.0351L757.812 82.5195C758.496 79.5898 758.301 78.9062 756.738 78.0273C753.711 76.4648 749.805 67.6757 750.488 64.2578C751.562 59.5703 750.098 51.5624 747.656 48.5351L745.508 45.8007L742.676 52.9296C741.113 56.8359 739.258 61.5234 738.574 63.3788L737.207 66.6992L735.352 63.6718C733.691 61.0351 732.91 60.6445 727.344 60.0585C721.777 59.4726 720.508 59.6679 714.355 62.4999C707.715 65.5273 707.422 65.5273 701.66 64.3554C697.461 63.4765 694.824 62.207 691.895 59.5703C682.422 51.0742 681.641 50.7812 671.582 50.7812C662.793 50.7812 662.207 50.6835 658.594 47.7538C656.543 46.0937 651.172 42.7734 646.68 40.332L638.477 35.8398L634.668 39.6484L630.859 43.457L632.422 49.121C633.496 53.5156 633.691 55.5663 632.812 58.0078C631.836 61.0351 631.543 61.2304 624.219 62.3046C620.117 62.9882 612.695 63.4765 607.715 63.4765C599.121 63.4765 598.73 63.3788 596.68 60.8398C595.312 59.082 594.824 57.5195 595.312 56.1523C595.605 55.0781 596.094 52.6367 596.387 50.6835C596.777 47.4609 596.484 46.9726 593.457 45.0195C590.332 43.0663 589.844 43.0663 586.523 44.4335C583.887 45.6054 581.348 45.8007 577.148 45.3124C571.582 44.7265 571.289 44.8242 567.09 48.2421C561.914 52.4413 559.082 58.3984 558.105 67.0898C557.422 73.1445 557.324 73.2421 553.906 74.2187C549.023 75.5859 548.34 75.4882 540.43 73.1445C534.863 71.4843 531.152 69.4335 523.047 63.3788C517.285 59.082 512.109 54.5898 511.523 53.2226C510.254 50.3906 505.078 46.8749 502.344 46.8749C501.27 46.8749 495.605 48.2421 489.551 49.9023L478.613 52.9296L475.781 50.8788C474.219 49.8046 470.898 48.3398 468.262 47.6562L463.672 46.3867L459.961 50.7812C457.91 53.2226 456.055 54.9804 455.762 54.6874C455.469 54.3945 453.711 52.3437 451.855 50.0976L448.438 45.996L445.605 50.2929C442.383 55.2734 440.625 54.9804 439.844 49.2187C438.867 42.6757 438.867 42.6757 434.473 45.6054C430.566 48.1445 430.273 48.1445 424.023 47.0703C417.578 45.996 417.48 45.8984 410.352 38.1835C401.66 28.7109 400 28.3203 394.336 34.3749L390.43 38.5742L379.688 38.3788L368.945 38.0859L358.984 29.0038C347.07 18.0663 337.598 10.6445 333.594 9.17963C331.348 8.39838 329.492 8.49603 326.27 9.4726C323.926 10.1562 321.582 10.7421 321.191 10.7421C320.801 10.7421 319.238 8.39838 317.676 5.56635C314.941 0.585876 314.844 0.48822 310.059 0.195251C306.25 0.0975952 304.102 0.585876 300.391 2.63666Z" fill="black"/>
<circle cx="706" cy="539" fill="#5CE50D"/>
<circle cx="736" cy="284" fill="#E52A0D"/>
<circle cx="339" cy="224" fill="#E52A0D"/>
<circle cx="500" cy="687" fill="#E52A0D"/>
</g>
<defs>
<clipPath id="clip0_1_319">
<rect width="1000" height="1000" />
</clipPath>
</defs>
</svg>
