<svg width="1000" height="1000" viewBox="0 0 1000 1000" fill="none" xmlns="http://www.w3.org/2000/svg">
<rect width="1000" height="1000" />
<path d="M198.73 1.17188C192.578 2.05078 191.211 2.73438 185.059 7.32422C179.883 11.3281 175.684 13.4766 167.676 16.3086L157.129 20.0195L151.27 29.9805L145.312 40.0391H133.789H122.266L112.402 60.2539C106.934 71.4844 97.7539 89.2578 92.0898 100L81.8359 119.336L85.4492 135.156L89.0625 150.879L86.6211 156.934L84.1797 162.891L86.1328 171.094C87.5977 177.148 87.8906 180.957 87.4023 186.035L86.8164 192.871L95.6055 215.332L104.492 237.793L110.254 241.113C116.699 244.824 116.797 244.922 117.773 257.617C118.262 264.453 117.969 266.016 114.941 275.098L111.523 285.059L113.77 295.605C117.383 313.086 117.578 323.828 114.746 347.07L112.305 367.285L114.258 390.43C115.43 403.125 116.504 414.453 116.797 415.527C117.09 416.602 119.727 422.656 122.754 428.906L128.223 440.234L124.609 454.59L121.094 468.848L125.098 481.934L129.199 494.922L139.258 503.32L149.316 511.816L147.461 518.359C146.484 521.973 144.336 530.273 142.578 536.816L139.551 548.73L144.336 557.422L149.121 566.113L150.293 583.105C150.879 592.48 151.66 602.539 151.953 605.469L152.441 610.84L146.582 617.383L140.625 623.828V636.328V648.828L147.656 671.777L154.59 694.727L153.32 703.516C152.637 708.398 151.953 712.793 151.66 713.379C151.465 713.965 157.129 717.578 164.258 721.387L177.246 728.32L180.957 737.598C185.449 749.121 193.457 774.219 193.555 776.953C193.555 778.027 191.699 784.668 189.355 791.699L185.156 804.492L189.062 812.207L192.871 819.824L217.188 820.312L241.406 820.801L245.117 830.078C247.07 835.156 249.805 843.555 250.977 848.633L253.223 857.91L249.609 865.137C247.559 869.043 246.289 872.656 246.777 873.047C247.168 873.438 253.32 877.93 260.254 882.91L272.949 892.09L287.109 894.824L301.27 897.559L313.379 892.676C320.117 889.941 326.27 887.695 327.051 887.695C330.859 887.695 360.254 901.367 374.805 909.863L390.723 919.238L404.98 920.508C420.41 921.777 420.605 921.777 453.125 914.453L460.449 912.891L472.656 920.215C479.395 924.316 495.41 934.961 508.398 944.043L531.934 960.449L549.316 980.176L566.699 1000H577.539L588.379 999.902L594.531 992.285C600.586 984.863 600.781 984.668 608.203 982.52L615.723 980.371L625.879 967.773L635.938 955.273L641.211 957.617C644.141 958.887 646.68 959.961 646.875 959.961C648.438 959.961 654.785 949.023 657.129 942.285C658.789 937.793 662.012 929.883 664.453 924.609L668.848 915.234L677.93 910.449L687.012 905.664L695.801 907.91C700.684 909.082 704.883 910.156 705.176 910.156C705.566 910.156 706.348 908.203 707.031 905.762C708.398 900.879 710.645 897.754 719.727 887.988L725.781 881.543L736.133 880.273C742.48 879.59 746.68 878.516 747.168 877.734C747.656 877.051 750.977 871.289 754.59 864.844L761.23 853.32L769.238 850.098C778.418 846.387 788.281 838.867 797.168 828.809C802.734 822.461 802.832 822.363 814.258 818.652L825.684 814.844L828.809 807.031C830.957 801.855 831.934 797.559 832.031 793.945C832.129 789.062 832.422 788.184 836.23 784.082C838.965 781.152 841.602 779.297 843.848 778.809C849.609 777.539 850.586 776.66 850.586 772.559C850.586 770.02 851.953 766.309 855.176 760.547C859.57 752.441 860.059 751.953 871.68 743.555L883.594 734.863L888.477 715.039C893.164 695.508 893.262 695.02 891.992 689.16C890.039 679.883 890.039 679.883 894.824 679.492L898.926 679.199L899.219 673.145C899.512 667.09 899.512 667.09 905.078 662.305C910.547 657.617 910.742 657.129 914.453 645.801L918.262 634.18L916.211 617.285L914.062 600.391L906.055 591.504C901.66 586.523 896.973 581.348 895.703 579.883C894.434 578.418 892.969 575.195 892.48 572.559C891.699 568.652 890.527 566.895 885.059 561.328C881.445 557.617 878.027 554.688 877.441 554.688C876.855 554.688 875 557.52 873.34 560.938L870.215 567.188L863.965 567.871C858.008 568.555 857.52 568.359 848.926 564.062C832.324 555.762 823.34 550 821.582 546.387C820.605 544.531 811.719 535.84 801.758 526.953C784.766 511.816 783.301 510.645 777.051 508.789L770.41 506.738L765.137 511.133L759.961 515.625H752.148H744.336L729.785 503.906C716.016 492.871 714.941 492.188 707.52 490.234C703.223 489.062 697.07 487.402 693.848 486.426L688.086 484.766L681.641 474.121L675.195 463.477L670.02 462.207L664.844 460.84L659.473 465.527C656.543 468.066 653.613 470.605 652.93 471.094C652.051 471.68 647.168 469.531 637.695 464.258L623.633 456.543L618.945 449.121L614.16 441.699L602.734 439.062C594.629 437.207 582.715 433.008 561.816 424.609L532.422 412.695L531.25 406.641C530.566 403.223 529.59 399.805 528.906 399.023C528.32 398.145 518.848 392.48 507.812 386.328L487.793 375.195L468.066 346.973C450.293 321.68 447.754 318.555 443.359 316.113L438.477 313.281L438.379 305.859C438.281 301.66 437.988 295.215 437.598 291.309L437.012 284.375L424.609 273.535C412.793 263.184 411.719 262.012 397.949 241.992L383.594 221.289L385.156 208.008C386.035 200.781 386.719 194.531 386.719 194.238C386.719 193.945 383.594 192.48 379.785 190.82C372.949 188.086 372.852 187.891 369.434 181.152C367.48 177.344 361.816 164.258 356.738 151.953C348.047 130.566 347.656 129.297 347.656 122.266C347.656 116.797 346.777 112.012 344.043 102.637C342.09 95.8984 340.332 90.1367 340.234 89.9414C340.039 89.7461 338.086 90.332 335.742 91.2109C331.641 92.7734 331.348 92.6758 316.895 88.5742L302.246 84.2773L291.016 67.9688C280.273 52.4414 279.492 51.5625 273.438 48.2422C269.922 46.2891 264.941 42.8711 262.207 40.5273C259.57 38.2812 246.777 28.2227 233.984 18.1641C216.504 4.49219 210.059 0 208.105 0.0976562C206.738 0.195312 202.539 0.683594 198.73 1.17188Z" fill="black"/>
<circle cx="253" cy="817" fill="#5CE50D"/>
<circle cx="550" cy="428" fill="#E52A0D"/>
<circle cx="112" cy="248" fill="#E52A0D"/>
<circle cx="888" cy="690" fill="#E52A0D"/>
</svg>
