<svg width="1000" height="1000" viewBox="0 0 1000 1000" fill="none" xmlns="http://www.w3.org/2000/svg">
<g clip-path="url(#clip0_1_325)">
<rect width="1000" height="1000" />
<path d="M197.559 6.34766C194.922 10.3516 193.652 13.1836 194.043 14.4531C194.336 15.7227 193.457 18.0664 191.504 20.8984C187.695 26.3672 187.207 32.5195 190.625 32.0312C191.992 31.8359 193.066 30.6641 193.75 28.7109L194.824 25.5859L203.711 29.1016L212.695 32.6172L214.355 38.0859C215.234 41.0156 216.211 44.2383 216.406 45.1172C216.895 46.582 216.211 46.875 212.5 46.875C207.91 46.875 205.664 48.1445 195.02 56.8359C191.211 59.7656 191.211 59.8633 191.895 65.0391L192.48 70.2148L186.523 73.2422C182.031 75.4883 179.785 76.1719 177.637 75.6836C175 75.0977 174.121 75.5859 168.652 81.6406C159.375 91.6992 159.473 91.5039 162.402 94.5312C163.77 95.9961 165.234 98.3398 165.527 99.8047C166.211 102.344 166.016 102.539 163.379 102.539C161.523 102.539 159.668 103.418 158.203 104.98C156.25 107.031 155.957 108.301 156.152 112.305C156.348 116.797 156.152 117.285 153.711 118.164C151.172 119.141 151.074 119.336 151.66 125.293C152.344 132.227 155.664 142.09 158.496 145.215L160.449 147.363L163.965 144.629C165.918 143.164 169.336 141.406 171.68 140.918C175.684 139.844 175.977 139.941 177.832 142.48C180.176 145.605 191.699 155.469 198.535 160.059L203.125 163.184V170.801V178.516L206.543 179.102C209.277 179.688 210.254 180.469 211.426 183.105C212.109 184.961 213.477 186.523 214.258 186.523C215.039 186.523 216.895 188.086 218.359 189.941C220.605 192.969 221.484 193.359 225.488 193.359C228.418 193.359 230.859 194.043 232.422 195.312C235.352 197.559 241.406 197.852 243.164 195.801C243.848 194.922 245.996 194.336 248.145 194.336C250.879 194.336 251.953 193.945 251.953 192.871C251.953 190.43 255.176 191.211 259.18 194.434C262.598 197.363 262.793 197.852 262.402 201.562C262.109 203.809 261.621 206.641 261.23 208.008C260.84 209.766 261.523 211.914 263.867 215.82C266.699 220.605 267.48 221.191 270.703 221.484C272.656 221.68 274.805 222.461 275.391 223.242C276.074 224.023 277.93 224.609 279.492 224.609C283.398 224.609 288.086 227.246 288.086 229.395C288.086 230.469 286.035 232.91 283.594 234.961C279.492 238.477 279.199 238.965 280.176 241.406C280.957 243.359 280.859 244.238 279.785 245.117C278.906 245.898 278.516 247.168 278.906 248.633C279.785 252.148 276.367 251.66 270.215 247.559L265.137 244.043L262.598 247.07C259.277 250.977 253.418 251.27 250.098 247.656C248.242 245.703 246.582 245.215 240.234 244.629C233.203 244.043 232.422 244.141 228.613 246.484C223.828 249.512 223.73 249.512 217.871 246.973C213.77 245.312 212.598 245.117 209.082 246.094L205.078 247.168V252.539C205.078 256.543 203.711 261.914 199.609 273.73C191.406 297.07 191.211 297.656 187.207 298.34C184.18 298.926 182.812 298.34 175.098 293.262L166.504 287.5L161.23 288.281C158.301 288.77 155.664 289.258 155.469 289.551C155.273 289.746 156.348 292.188 158.008 295.02L160.938 300.098L158.887 303.32C157.715 305.078 155.078 307.324 153.125 308.203C151.074 309.082 149.414 309.961 149.414 309.961C149.414 310.059 149.805 311.523 150.293 313.281L151.27 316.406L147.363 315.82L143.555 315.137V319.824C143.555 322.949 142.969 325.195 141.602 326.855C140.527 328.223 139.648 329.688 139.648 330.176C139.648 330.664 142.09 334.57 145.02 338.867C149.121 344.922 150.391 347.559 150.391 350.391C150.391 359.082 151.27 361.035 156.738 364.648C160.059 366.797 164.941 368.848 170.117 370.117C176.562 371.777 180.078 373.438 187.5 378.32C192.578 381.738 199.609 387.012 203.125 390.039C209.473 395.41 209.473 395.508 215.918 395.508C220.312 395.508 223.828 396.191 227.051 397.559L231.641 399.609L233.984 397.363L236.328 395.117L239.844 398.535C245.117 403.516 246.875 407.812 245.898 412.695C245.215 415.918 244.434 417.09 242.188 417.969C239.355 419.141 239.258 419.336 239.258 426.367C239.258 432.52 239.551 433.691 241.211 434.57C242.578 435.352 243.164 436.621 243.164 438.965C243.164 442.188 243.359 442.383 246.289 442.383C249.316 442.383 249.316 442.383 247.461 444.434C246.484 445.605 245.605 447.656 245.508 449.121C245.215 462.012 245.215 461.914 242.676 461.914C241.113 461.914 239.355 463.184 237.207 465.82C234.668 468.945 233.594 469.531 231.738 469.141C230.469 468.75 228.125 469.043 226.562 469.727C224.121 470.801 223.34 471.973 221.582 477.637C220.508 481.25 219.824 485.156 220.215 486.23C220.508 487.305 220.312 492.773 219.727 498.34C218.848 507.422 218.848 508.984 220.41 512.109C221.68 514.844 222.949 515.918 225.879 516.797C228.809 517.676 230.469 519.043 232.52 522.266C233.984 524.609 237.207 527.734 239.551 529.297C242.383 531.055 244.141 532.91 244.336 534.375C244.531 536.133 245.312 536.719 247.754 536.914L250.781 537.207L249.414 540.527C248.633 542.383 248.047 546.289 248.047 549.219C248.047 554.004 247.754 554.785 245.215 556.543C243.066 558.105 242.285 559.57 241.895 563.184C241.211 568.945 242.871 575 245.41 576.367C246.484 576.953 252.246 577.539 258.203 577.734C264.16 577.93 270.605 578.516 272.461 579.102C274.316 579.59 277.539 580.078 279.492 580.078C285.449 580.078 284.277 582.715 273.535 593.75C263.281 604.492 261.719 607.52 261.719 617.676C261.719 621.387 262.109 622.168 265.039 623.926C267.773 625.684 268.359 626.758 268.945 630.664C269.727 636.426 272.754 641.602 275.391 641.602C277.93 641.602 279.004 644.238 277.539 646.582C276.855 647.559 276.367 649.805 276.367 651.367C276.367 653.027 275.684 655.664 274.902 657.129C274.121 658.691 273.73 660.156 274.023 660.352C274.219 660.645 274.902 666.895 275.391 674.219C276.27 685.547 276.172 688.086 274.902 691.113C273.047 695.508 273.438 696.777 277.051 697.559C278.711 697.949 280.664 699.512 282.031 701.562C284.277 704.785 284.277 705.273 283.594 720.41L282.91 736.035L288.477 745.215C292.773 752.441 293.945 755.371 293.945 758.496C293.945 761.816 294.336 762.598 296.094 763.086C298.242 763.574 298.242 763.77 294.727 767.285C290.332 771.875 289.453 776.074 291.406 782.715C292.285 785.352 292.969 790.137 292.969 793.262C292.969 798.73 292.871 798.926 289.941 800C287.207 800.977 287.012 801.27 287.695 804.102C288.574 807.617 288.672 812.988 288.086 819.824L287.598 824.707L292.969 827.832C296.094 829.785 298.926 832.324 299.707 833.984C301.367 837.305 305.664 838.184 305.664 835.156C305.664 830.859 304.395 829.199 300.488 827.832C296.777 826.66 296.387 826.172 294.336 820.02C292.48 814.648 292.285 813.086 293.262 810.547C293.848 808.984 294.629 807.617 295.02 807.617C295.605 807.617 298.047 814.844 299.414 820.508C300.391 824.609 307.422 825.684 311.23 822.07L313.477 820.02V824.023C313.477 826.27 314.258 829.59 315.137 831.445C316.406 834.277 316.504 835.352 315.625 837.402C314.941 838.77 314.453 842.285 314.453 845.215V850.586H320.801C326.855 850.586 327.148 850.488 328.711 847.461C330.176 844.531 330.176 844.336 328.32 842.871C326.367 841.406 326.367 841.113 327.734 835.938C328.516 833.008 329.004 828.32 328.809 825.488C328.516 821.289 328.711 820.41 330.273 820.02C331.25 819.727 332.031 818.652 332.031 817.383C332.031 816.309 333.301 813.672 334.863 811.719C337.109 808.984 337.891 806.836 338.086 803.223L338.379 798.34L340.43 801.855C342.383 805.078 342.48 806.348 341.992 819.238C341.406 835.352 342.188 837.891 347.07 837.891C349.609 837.891 350.586 837.109 352.832 833.594C355.762 828.906 356.348 822.949 354.004 820.312C352.832 819.043 352.832 818.066 353.711 815.039C354.688 812.109 355.762 810.84 358.984 809.277C363.086 807.324 363.086 807.324 363.477 801.367C363.672 797.266 364.551 794.141 366.211 791.602L368.555 787.793L370.312 792.969C371.68 797.07 371.973 799.805 371.484 806.152C370.801 814.062 370.801 814.258 367.578 815.82C363.086 817.969 362.402 821.191 365.625 825.488C366.992 827.344 368.164 829.492 368.164 830.273C368.164 833.594 370.312 837.695 372.363 838.281C374.902 838.965 377.93 836.426 377.637 833.789C377.441 832.031 378.125 831.836 384.082 831.543C392.188 831.25 394.531 829.59 392.773 825.684C392.188 824.316 390.527 822.656 389.062 822.07C385.645 820.508 381.836 812.695 381.836 807.129C381.836 803.613 382.129 802.734 383.594 802.734C387.207 802.734 387.988 804.199 386.23 807.617C384.57 810.742 384.668 810.84 387.598 813.867C391.406 817.773 397.363 820.215 398.535 818.262C399.121 817.188 399.609 817.188 400.586 818.164C401.172 818.75 403.613 819.336 405.957 819.336C409.57 819.336 410.254 818.945 411.621 816.406C412.402 814.844 415.039 812.402 417.48 810.938C421.094 808.887 421.875 807.91 421.875 805.664C421.875 804.102 420.801 801.562 419.434 800C417.188 797.363 417.09 796.582 417.676 790.527L418.262 783.887L414.941 781.152L411.621 778.418L415.82 778.32C420.801 778.32 420.801 779.004 417.383 760.645C414.453 744.824 414.941 738.281 419.336 731.738C420.996 729.395 421.875 726.758 421.875 724.316C421.875 720.996 422.07 720.703 423.73 721.68C425.391 722.461 426.172 721.973 429.395 717.969C431.445 715.332 434.766 711.816 436.719 710.059C439.941 707.227 440.43 707.031 440.43 708.789C440.43 709.863 438.477 712.5 436.035 714.746C433.203 717.285 430.762 720.898 429.199 724.609C427.832 727.832 424.805 733.594 422.461 737.5L418.164 744.531L420.117 748.535C423.438 754.883 425.781 765.43 425.781 774.121C425.781 784.082 428.613 792.48 432.324 793.359C435.84 794.336 436.523 793.359 436.523 787.305C436.621 782.715 437.109 781.055 439.453 777.93C441.504 775.293 442.383 772.949 442.383 770.508C442.383 765.723 446.484 761.719 451.27 761.816H454.59L450.488 763.867C446.289 766.016 445.312 767.676 445.312 773.535C445.312 776.074 444.531 777.734 442.48 779.688C440.723 781.348 439.453 783.691 439.258 785.742C438.867 788.965 439.062 789.16 442.773 790.137C446.484 791.113 446.875 791.016 448.828 788.574C450 787.109 452.637 782.91 454.688 779.199C456.738 775.586 459.375 772.168 460.449 771.68C461.621 771.191 465.43 768.457 469.043 765.82L475.586 760.84V765.527V770.312L471.289 770.898C468.262 771.387 466.504 772.266 465.43 773.926C464.648 775.195 462.207 777.246 459.961 778.418C455.176 781.152 451.562 786.328 450.684 791.797C450.098 795.312 449.512 796.191 446.68 797.363C443.555 798.633 443.359 799.023 443.359 803.418C443.359 816.211 445.996 818.945 452.344 812.793C454.395 810.742 456.055 808.398 456.055 807.52C456.055 806.543 456.543 805.469 457.031 805.176C459.473 803.711 457.031 812.109 454.492 813.965C451.758 815.918 453.223 819.629 457.715 822.07C461.133 823.926 462.598 824.219 466.895 823.633C470.996 823.047 472.949 822.07 477.637 818.262C483.789 813.086 484.766 810.938 488.965 792.969C490.039 788.379 491.602 784.57 493.164 782.715C494.531 781.055 496.68 776.953 497.852 773.633C499.121 770.312 500.586 767.383 501.172 766.992C501.953 766.504 502.051 766.895 501.562 768.066C501.27 769.043 501.172 771.289 501.562 773.047C502.148 776.172 502.344 776.367 506.445 776.367C510.547 776.367 510.84 776.172 513.574 771.387C515.137 768.555 516.699 764.844 517.09 762.891C517.578 760.059 518.359 759.277 522.363 757.617C525.977 756.055 527.734 754.492 530.469 750.098C533.789 745.117 534.18 743.75 534.961 734.473C535.645 726.66 535.547 723.438 534.57 719.922C533.789 717.48 533.203 711.719 533.203 707.129V698.73L527.539 694.336C522.363 690.527 521.582 689.355 519.434 683.203C517.48 677.539 517.383 676.367 518.555 675.977C519.336 675.684 521.289 674.219 522.852 672.656C525.586 669.824 525.684 669.727 525 661.621L524.316 653.418L528.027 654.883C535.547 658.008 546.191 654.395 547.07 648.438C547.461 645.801 546.973 645.215 543.066 642.676C539.551 640.43 536.914 639.648 531.055 639.16C522.949 638.379 519.824 636.523 519.336 631.836C519.043 629.492 519.336 629.395 526.074 628.613C532.617 627.832 533.301 627.93 537.598 630.371C540.039 631.836 542.285 632.812 542.578 632.617C542.773 632.324 542.285 628.516 541.504 624.121C540.625 619.629 540.039 615.625 540.234 615.137C540.43 614.746 542.188 615.723 544.238 617.48C547.363 620.117 548.242 621.68 549.414 626.953C550.293 630.469 552.148 635.254 553.711 637.695C555.469 640.527 557.129 645.117 558.203 650.684C559.668 658.301 560.352 659.863 564.551 665.137C567.188 668.359 569.336 671.387 569.336 671.875C569.336 672.363 570.703 672.852 572.461 673.047C575.098 673.34 575.684 673.926 576.855 677.344C577.734 680.078 579.395 682.227 581.836 683.984C583.887 685.352 586.328 687.891 587.305 689.551C588.672 691.895 589.551 692.383 591.211 691.895C592.285 691.602 594.922 691.016 596.973 690.723C601.66 690.039 602.539 687.305 599.707 681.836C597.656 677.734 596.973 673.828 598.438 673.828C600.293 673.828 603.32 678.613 604.492 683.301C605.762 688.086 605.957 688.379 610.156 689.453C612.891 690.137 617.578 690.234 622.852 689.844C629.883 689.258 631.543 688.77 633.887 686.621C635.449 685.156 636.914 682.617 637.207 680.566C637.891 677.051 637.793 677.051 633.594 675.977C631.25 675.391 628.32 674.707 627.051 674.609C624.316 674.316 622.949 671.875 625.488 671.875C626.855 671.875 627.051 671.289 626.66 668.945C626.074 666.113 626.172 666.016 629.395 666.016C632.422 666.016 632.812 666.309 632.812 668.457C632.812 670.605 633.203 670.898 636.621 670.898C639.844 670.898 646.094 669.434 647.363 668.359C647.559 668.164 647.07 667.188 646.094 666.113C644.531 664.355 644.531 664.355 648.73 664.746L653.027 665.234L654.004 661.523C654.59 658.691 655.469 657.617 657.227 657.227C658.789 656.836 660.059 655.566 660.645 653.809C661.133 652.246 662.988 649.707 664.648 648.242C666.309 646.777 668.066 644.043 668.457 642.383C669.043 639.355 669.141 639.258 669.922 641.309C670.605 642.871 670.215 645.215 668.555 649.609L666.211 655.762L670.41 661.621C672.754 664.844 676.855 669.238 679.59 671.387C683.203 674.219 688.184 680.859 698.73 696.68L712.988 717.969L714.453 727.441C716.016 738.086 717.969 744.141 720.703 746.582C722.461 748.242 722.559 748.145 723.242 745.703C723.535 744.238 724.023 743.164 724.121 743.359C724.316 743.555 725 749.121 725.684 755.762C726.66 765.723 727.051 767.578 728.027 766.211C729.492 764.355 729.59 764.941 731.445 780.273C732.422 787.891 733.496 791.309 737.402 799.902C742.09 809.961 742.188 810.352 741.211 815.332C740.723 818.262 740.234 823.73 740.234 827.539C740.234 834.082 739.258 836.914 737.109 836.914C736.719 836.914 736.328 835.449 736.328 833.691V830.566L734.375 833.008C733.301 834.375 731.738 837.598 730.859 840.137C729.395 844.629 729.395 845.117 731.445 850.488C733.203 855.371 733.496 857.324 732.91 863.867L732.227 871.582L735.742 873.242C739.16 874.902 739.258 874.902 739.258 872.949C739.258 871.387 739.648 871.094 741.504 871.582C742.676 871.973 744.336 872.461 745.215 872.656C746.484 873.047 747.266 871.582 748.926 866.309C751.465 857.91 751.465 854.395 749.023 847.07C747.07 841.406 747.07 838.867 749.023 838.867C749.609 838.867 749.805 839.844 749.414 841.113C749.023 843.066 749.414 843.652 751.758 844.629C754.199 845.703 755.176 845.605 757.812 844.238L761.035 842.578L760.449 846.484C760.059 848.535 758.594 852.441 757.129 855.078C754.785 859.082 754.395 860.938 754.492 866.504C754.59 871.387 754.297 873.047 753.32 873.047C752.539 873.047 751.27 874.707 750.391 876.758C747.266 884.277 747.266 884.473 755.859 895.41L763.77 905.664L763.184 912.012C762.891 915.527 762.402 920.898 762.109 923.828C761.621 929.199 761.621 929.297 766.797 935.645C769.629 939.062 772.754 943.75 773.73 945.898C775.195 949.023 776.66 950.391 780.762 952.441C785.449 954.688 786.133 955.469 787.109 959.18C788.477 964.453 797.07 983.398 800.781 989.258C802.344 991.699 805.176 995.215 807.031 996.973L810.547 1000.39V996.68C810.547 994.336 809.375 990.82 807.227 987.012C802.441 978.223 799.121 968.359 798.438 959.961C797.656 951.66 794.043 939.746 789.844 931.25C787.988 927.539 787.109 924.609 787.402 922.949C787.695 921.582 788.379 917.871 788.965 914.844C789.941 910.156 789.844 908.496 788.574 904.785C786.328 898.047 786.621 897.07 791.406 894.727C795.02 893.066 795.996 891.895 796.973 888.672C798.047 885.059 798.438 884.766 801.855 884.766C805.078 884.766 805.859 884.277 809.082 879.785L812.598 874.902L817.188 878.32C821.484 881.445 821.777 882.031 822.266 886.914L822.754 892.09L831.934 892.383C837.012 892.48 841.797 893.164 842.48 893.75C843.164 894.336 843.75 896.875 843.75 899.805C843.848 904.004 844.336 905.371 847.07 908.594L850.391 912.5L855.371 908.301C858.105 905.957 860.352 903.809 860.352 903.418C860.352 903.027 859.668 900.488 858.887 897.852C858.105 895.215 856.25 886.719 854.883 878.906C853.516 871.094 851.562 860.645 850.488 855.566C848.242 844.629 848.047 830.078 850 818.359C850.781 813.77 851.66 806.445 852.051 802.051C852.637 794.336 852.539 793.555 847.754 778.809C845.02 770.41 842.773 763.379 842.773 763.086C842.773 762.891 844.336 762.695 846.094 762.695C849.414 762.695 849.512 762.598 848.633 759.961C848.242 758.496 847.559 753.125 847.266 748.047C847.07 742.871 845.703 734.668 844.336 729.395C842.969 724.219 841.602 716.309 841.211 711.816C840.918 706.934 839.258 699.023 837.305 692.48C835.156 685.449 833.984 679.297 833.984 675.684C833.984 666.309 832.227 660.547 828.418 657.617C824.121 654.395 823.047 651.367 823.145 643.945L823.34 637.988L817.383 632.52L811.523 627.051V616.699C811.523 609.961 811.035 605.469 810.254 603.711C807.91 599.219 806.348 589.16 807.031 583.594C807.324 580.762 808.789 576.367 810.156 573.828C812.598 569.434 812.695 569.141 811.133 565.43C810.254 563.281 809.57 559.863 809.57 558.008C809.57 555.664 808.398 552.539 806.25 548.926C802.539 542.871 799.805 532.812 799.805 525.293C799.805 521.777 799.121 519.434 797.266 516.699C795.117 513.379 794.824 512.109 795.02 505.273C795.215 499.902 794.824 496.68 793.75 494.727L792.285 491.992L791.113 496.191C790.332 498.73 788.672 501.465 787.012 502.734L784.18 505.078V502.734C784.18 500 777.93 493.164 775.391 493.164C774.316 493.164 770.898 496.191 767.48 500C762.012 506.152 760.938 506.836 757.715 506.836C754.395 506.836 753.809 506.348 749.121 499.512C746.289 495.508 743.652 492.188 743.164 492.188C742.578 492.188 741.211 494.238 739.844 496.875L737.5 501.465L740.82 509.375C743.555 516.016 744.043 518.555 744.238 525.977C744.336 533.691 744.043 535.352 741.797 539.844C739.844 543.652 738.672 544.922 737.012 544.922C733.008 545.02 727.051 548.535 721.582 554.297C716.016 560.059 716.016 560.156 715.43 567.383C714.746 574.316 714.941 575.293 718.652 585.254C720.898 591.113 722.656 597.461 722.656 599.609C722.656 603.125 722.363 603.516 720.215 603.516C718.066 603.516 717.773 603.906 717.773 606.934C717.773 609.473 717.383 610.156 716.406 609.766C715.43 609.375 714.16 610.742 712.5 614.062C709.961 619.141 709.961 619.141 700.781 620.703C698.242 621.094 695.898 622.461 694.238 624.316L691.602 627.148L690.137 624.316C689.258 622.754 687.5 620.996 686.23 620.41C684.668 619.727 683.301 617.871 682.617 615.527C681.934 613.477 680.566 610.645 679.59 609.277C678.613 607.812 677.344 603.125 676.66 598.047C675.586 590.82 674.902 588.672 672.266 585.449C670.605 583.301 668.066 579.297 666.602 576.562L663.867 571.484L659.961 573.047C656.934 574.219 655.566 575.586 654.297 578.418L652.637 582.129L656.348 591.602C658.301 596.777 660.352 602.246 660.645 603.711C661.328 606.25 661.133 606.445 658.398 606.445C654.785 606.445 651.562 602.93 647.07 593.848C644.238 588.184 643.75 585.742 642.773 574.707C641.797 564.844 641.895 561.328 642.773 558.887C643.848 556.055 643.75 555.469 641.895 553.516C640.723 552.246 638.77 548.438 637.5 544.922C636.23 541.406 633.398 535.938 631.152 532.715C625.195 523.828 621.094 515.137 621.094 511.23C621.094 508.984 621.484 507.91 622.168 508.301C622.754 508.691 624.219 508.008 625.488 506.836C628.711 503.809 627.637 501.074 622.949 500.391C619.434 499.805 619.141 499.512 619.141 496.484C619.141 493.262 619.238 493.164 622.852 493.164C630.469 493.164 633.789 486.035 633.789 469.434C633.789 461.426 634.18 458.203 635.742 454.688L637.598 450.195H643.262C646.387 450.195 650 449.902 651.27 449.512C653.516 448.926 653.613 448.73 653.027 440.82L652.441 432.617L654.98 432.031C656.445 431.641 659.473 431.836 661.816 432.422C670.703 434.863 691.406 432.812 693.555 429.395C693.945 428.711 694.336 425.098 694.336 421.289C694.336 415.82 694.727 414.062 696.191 412.695C697.949 411.133 698.047 411.23 699.707 415.234C701.953 421.094 703.809 422.852 707.715 422.852C710.84 422.852 710.938 422.656 710.938 419.141C710.938 413.477 712.988 411.426 718.75 410.938L723.633 410.645V414.355C723.633 417.676 724.023 418.262 727.051 419.531C731.641 421.387 731.836 421.387 733.887 417.188C736.23 412.402 737.305 402.93 736.035 397.852C735.449 395.703 735.352 393.066 735.645 392.188C736.23 390.723 736.523 390.723 739.062 391.992C741.602 393.262 742.09 393.262 744.043 391.992C745.996 390.527 746.094 390.234 744.727 388.184C742.773 385.156 743.652 384.863 754.004 385.547C767.09 386.328 769.141 384.18 770.508 368.75C771.191 360.645 771.484 359.766 774.219 357.324C777.93 354.004 779.785 350.391 780.762 344.824C781.152 342.48 782.91 336.133 784.766 330.762C788.477 319.629 789.16 309.961 786.621 302.734C785.84 300.488 785.156 298.242 785.156 297.852C785.156 296.484 790.234 294.922 794.531 294.922C798.535 294.922 799.023 295.215 800.488 298.34L802.148 301.758H810.156C817.285 301.758 818.555 301.465 820.898 299.414L823.633 297.168L821.484 292.188C820.312 289.453 819.336 286.523 819.336 285.742C819.336 284.863 817.871 282.52 816.016 280.469C814.16 278.418 812.305 275.586 812.012 274.121C811.426 271.973 810.352 271.191 806.152 270.02C802.539 268.945 800.781 267.773 800 266.113C799.121 264.16 798.145 263.672 795.508 263.672C793.652 263.672 789.258 262.793 785.742 261.719C780.273 259.961 779.102 259.277 777.93 256.543C775.781 251.367 772.656 249.316 764.941 248.047C759.473 247.168 756.641 247.168 752.246 248.145C749.121 248.73 738.281 249.414 728.027 249.512C708.203 249.805 703.32 250.391 702.441 252.637C701.562 254.785 696.777 256.836 692.48 256.836C689.16 256.836 688.574 256.543 687.598 253.906C686.426 250.391 684.082 250.098 680.957 253.125C677.832 256.055 668.066 256.738 662.695 254.492C660.645 253.613 657.227 252.93 655.176 252.93C652.344 252.93 649.609 251.758 644.531 248.535C637.305 243.848 634.375 243.262 631.25 245.605C629.883 246.68 626.27 246.973 616.113 247.07C603.027 247.07 602.832 247.07 598.145 250.098C590.527 254.883 572.656 256.348 563.77 252.832C562.305 252.246 557.91 251.855 554.102 251.855C549.316 251.953 546.094 251.562 543.652 250.391C540.43 248.828 540.039 248.828 537.695 250.293C535.938 251.465 533.105 251.953 527.832 251.953C523.34 251.953 519.336 252.539 517.773 253.32C510.449 257.129 502.637 255.957 495.02 249.902C492.969 248.242 489.746 246.875 487.207 246.582C476.172 245.02 457.227 240.82 454.59 239.258C453.027 238.281 449.902 237.012 447.754 236.328C445.605 235.645 441.504 233.789 438.574 232.129C432.617 228.809 427.637 228.516 422.559 231.152C419.629 232.617 419.434 232.617 417.383 230.176C414.062 226.27 413.672 221.289 415.918 210.254C417.09 204.785 417.969 199.316 417.969 198.047C417.969 196.875 418.848 192.285 419.922 187.988C421.094 183.398 421.875 176.855 421.875 172.168C421.875 164.258 421.777 163.965 418.457 160.254C415.723 157.324 415.039 155.664 415.039 152.637C415.039 150.586 414.355 147.949 413.574 146.875C410.742 143.164 412.695 134.668 417.871 128.125C419.336 126.074 421.387 123.047 422.363 121.191C423.926 118.066 423.926 117.969 422.363 118.555C417.676 120.312 416.016 120.312 416.016 118.555C416.016 117.676 416.699 116.113 417.578 115.137C419.824 112.695 418.652 109.961 415.625 110.742C413.672 111.23 412.793 110.547 409.766 106.152C407.129 102.246 406.25 100.098 406.348 97.5586C406.543 95.5078 405.566 92.2852 404.004 89.0625C401.758 84.7656 400.879 83.9844 398.633 83.9844C395.215 83.9844 393.555 82.4219 393.555 79.1016C393.457 75.6836 390.332 72.2656 387.305 72.2656C384.961 72.2656 384.766 72.5586 384.766 76.5625C384.766 80.4688 384.473 80.957 381.836 81.9336C380.273 82.4219 378.906 83.3984 378.906 83.9844C378.906 86.2305 381.055 88.9648 383.594 89.9414L386.23 91.0156L381.934 92.6758C378.711 94.043 378.027 94.5312 379.297 95.0195C380.273 95.4102 381.836 95.7031 382.812 95.7031C384.18 95.7031 385.742 97.4609 385.742 99.1211C385.742 99.2188 384.473 99.9023 382.91 100.586C379.883 101.855 378.125 104.98 377.734 110.254C377.344 114.551 374.219 115.918 370.898 113.281C369.629 112.305 366.406 111.23 363.77 110.84C355.371 109.766 354.492 109.375 352.539 106.25L350.684 103.223L348.633 106.738C345.508 112.012 342.188 111.719 338.477 105.957C337.012 103.516 334.863 101.074 333.887 100.488C332.812 100 330.957 97.8516 329.688 95.8984C327.734 92.8711 326.172 91.8945 319.531 89.4531C312.109 86.9141 311.523 86.5234 311.133 83.5938C308.887 69.2383 308.496 67.8711 306.152 65.4297C304.59 63.8672 303.711 61.7188 303.711 59.8633C303.711 57.2266 304.102 56.7383 306.641 56.1523C308.301 55.7617 309.57 55.1758 309.57 54.8828C309.57 54.4922 307.812 53.125 305.664 51.7578C303.223 50.293 301.367 48.1445 300.781 46.2891C300 43.9453 298.73 42.8711 295.312 41.5039C292.871 40.625 290.43 38.9648 289.746 37.9883C289.062 36.8164 287.5 36.1328 285.645 36.1328C283.203 36.1328 282.227 36.9141 280.273 40.1367C277.539 44.5312 277.539 46.3867 280.566 49.5117C281.934 51.0742 283.691 51.7578 286.23 51.7578C289.746 51.7578 289.941 51.9531 290.527 55.6641C290.918 58.2031 291.797 59.668 293.066 60.0586C294.043 60.4492 294.922 61.5234 294.922 62.5C294.922 63.5742 295.996 65.1367 297.363 66.0156C298.73 66.8945 299.609 67.9688 299.316 68.3594C298.438 69.7266 291.699 70.2148 287.012 69.2383C283.203 68.457 281.934 67.5781 280.371 64.8438C278.32 61.3281 275.879 60.6445 272.363 62.5C271.191 63.1836 270.508 64.5508 270.508 66.4062C270.508 68.0664 270.312 69.3359 270.117 69.3359C270.02 69.3359 268.457 68.8477 266.895 68.2617C264.746 67.5781 263.77 66.5039 263.281 64.4531C262.988 62.8906 261.621 60.8398 260.254 59.9609C257.812 58.3984 257.422 58.3984 250.684 60.7422C246.777 62.207 242.871 63.5742 241.992 63.9648C240.625 64.5508 240.234 64.1602 240.234 62.4023C240.332 60.7422 241.895 58.8867 245.605 56.1523C248.535 54.0039 250.977 51.8555 250.977 51.4648C250.977 51.0742 249.414 49.8047 247.559 48.7305C243.359 46.2891 241.895 43.8477 242.676 40.7227C243.262 38.6719 242.773 38.1836 238.867 36.7188C236.426 35.7422 233.398 33.7891 232.129 32.3242C230.859 30.7617 228.125 29.0039 225.977 28.3203C221.191 26.7578 214.355 21.6797 212.988 18.75C212.305 17.2852 211.133 16.6016 209.082 16.6016C205.469 16.6016 204.102 14.4531 202.734 6.15234L201.66 0.0976562L197.559 6.34766Z" fill="black"/>
<path d="M534.375 659.181C532.617 659.571 531.055 660.06 530.859 660.255C530.664 660.45 529.004 665.333 527.051 671.095L523.633 681.446L525.879 684.767C528.32 688.282 533.691 692.384 538.77 694.337C541.699 695.411 541.992 696.095 543.75 703.907C547.559 720.509 548.047 724.415 547.656 735.548L547.266 746.583L543.066 752.54C539.16 758.107 538.867 759.083 538.086 767.189C537.695 772.364 536.523 777.736 535.254 780.568C534.18 783.204 533.203 785.548 533.203 785.841C533.203 786.915 537.793 784.767 540.43 782.325C543.359 779.689 543.262 780.177 539.355 786.329L537.109 790.04L539.844 791.407C542.578 792.872 542.773 792.775 547.168 788.282C549.805 785.646 551.758 782.716 551.758 781.544C551.758 779.884 552.637 779.103 555.566 778.321C557.617 777.833 561.133 775.685 563.379 773.634C567.285 770.216 567.676 769.435 570.898 756.837C574.316 743.458 575.977 733.302 576.758 719.239L577.246 711.427L570.898 702.247C566.699 696.193 564.453 691.993 564.453 690.236C564.453 688.185 563.965 687.501 562.598 687.501C561.426 687.501 560.547 686.622 560.156 685.06C559.668 683.107 558.887 682.618 556.641 682.618C553.125 682.618 550.781 678.81 550.781 672.853C550.781 669.923 549.902 667.579 547.852 664.454C543.555 658.204 541.602 657.423 534.375 659.181Z" fill="black"/>
<path d="M663.086 684.671C663.086 686.038 662.207 689.749 661.035 692.972C658.691 699.808 658.984 705.57 662.012 709.866C663.184 711.527 664.844 715.042 665.625 717.679C667.578 724.32 674.219 729.984 678.711 729.007C684.277 727.835 686.816 720.413 684.277 713.089C682.031 706.644 673.926 693.851 668.262 687.601C663.574 682.523 663.184 682.327 663.086 684.671Z" fill="black"/>
<path d="M608.301 707.223C608.301 710.641 607.91 722.555 607.52 733.883C606.836 753.023 606.543 754.977 603.906 762.398C602.344 766.793 601.367 770.602 601.66 770.992C603.223 772.457 607.227 770.016 609.668 766.109C611.523 763.18 613.574 761.422 616.504 760.25C625.977 756.539 628.516 750.484 625.098 740.035C624.023 736.617 622.266 730.758 621.094 726.852C619.824 722.262 617.578 717.867 614.746 713.961C611.523 709.566 610.352 707.125 610.352 704.586C610.352 702.73 609.961 701.168 609.375 701.168C608.789 701.168 608.398 703.902 608.301 707.223Z" fill="black"/>
<path d="M623.535 713.571C623.828 715.134 624.414 717.771 624.707 719.431C625.293 723.435 626.074 723.435 628.223 719.821C630.469 715.915 628.906 710.935 625.293 710.935C623.047 710.935 622.852 711.228 623.535 713.571Z" fill="black"/>
<path d="M530.566 764.551C527.734 765.918 524.707 768.066 523.828 769.336C523.047 770.508 520.605 772.363 518.457 773.535C515.723 774.902 514.648 775.977 515.039 776.953C515.332 777.832 515.625 778.906 515.625 779.492C515.625 780.078 516.895 780.273 519.043 779.883C523.242 779.102 523.535 780.469 519.922 784.277C516.699 787.598 517.383 790.039 521.387 790.039C525.195 790.039 527.148 786.426 528.418 777.637C528.906 774.219 529.883 770.215 530.664 768.75L532.031 766.113L533.496 769.531L534.863 772.949L535.645 768.359C536.035 765.82 536.133 763.379 536.035 762.891C535.84 762.305 533.301 763.086 530.566 764.551Z" fill="black"/>
<path d="M497.363 783.299C495.801 783.885 495.019 785.448 494.14 789.745C493.555 792.87 491.992 797.655 490.722 800.291C488.769 804.686 488.574 805.858 489.453 810.838C490.43 816.307 490.527 816.502 492.285 814.842C493.262 813.963 494.14 812.499 494.14 811.62C494.14 810.741 495.703 806.834 497.558 802.831C500.39 797.069 500.976 794.627 500.976 789.549C500.976 786.131 500.683 783.104 500.293 782.909C499.805 782.616 498.535 782.811 497.363 783.299Z" fill="black"/>
<path d="M506.64 783.398L503.027 784.375L505.078 788.574L507.129 792.773L504.492 795.996C501.562 799.512 501.269 804.297 504.101 805.957C505.273 806.738 506.445 806.445 509.179 804.297C516.015 799.121 517.383 792.676 513.086 786.133C511.621 783.984 510.449 782.227 510.351 782.324C510.351 782.422 508.594 782.813 506.64 783.398Z" fill="black"/>
<circle cx="532" cy="487" fill="#5CE50D"/>
<circle cx="370" cy="265" fill="#E52A0D"/>
<circle cx="400" cy="669" fill="#E52A0D"/>
<circle cx="737" cy="729" fill="#E52A0D"/>
</g>
<defs>
<clipPath id="clip0_1_325">
<rect width="1000" height="1000" />
</clipPath>
</defs>
</svg>
