<svg width="1000" height="1000" viewBox="0 0 1000 1000" fill="none" xmlns="http://www.w3.org/2000/svg">
<g clip-path="url(#clip0_1_335)">
<rect width="1000" height="1000" />
<path d="M575.684 91.3086C575.195 91.5039 572.852 92.1875 570.508 92.7734C566.797 93.75 565.82 94.6289 562.012 100.391C559.375 104.492 556.25 107.812 553.809 109.375C548.828 112.402 544.531 118.262 545.312 120.898C546.387 124.316 543.848 125.195 537.402 123.73C534.277 122.949 530.273 121.582 528.613 120.703C523.535 118.164 519.824 118.652 518.066 122.07L516.504 125.098L514.16 122.168C510.937 118.457 511.035 113.965 514.16 109.766C516.602 106.543 517.09 104.102 516.016 101.172C514.746 97.8516 504.395 99.707 495.312 104.883C492.285 106.641 487.207 108.594 484.082 109.277C479.59 110.254 478.516 110.84 478.906 112.109C480.664 117.969 480.566 119.141 478.613 121.973C477.441 123.535 476.562 125.098 476.562 125.488C476.562 125.781 478.32 128.125 480.371 130.664C483.984 135.059 487.305 142.48 487.305 146.387C487.305 147.363 486.23 148.73 484.863 149.414C481.836 151.074 469.434 149.219 465.82 146.582C464.453 145.605 461.523 143.848 459.277 142.676C455.273 140.723 454.98 140.723 448.633 142.188C440.039 144.141 434.668 147.852 434.57 151.855C434.57 153.418 433.301 156.934 431.836 159.57C429.687 163.477 426.758 166.211 416.211 173.926C409.18 179.102 401.465 185.059 399.121 187.109C395.898 190.137 393.164 191.406 386.719 193.262C378.906 195.41 378.027 195.996 371.582 202.246C364.746 208.984 364.648 208.984 359.277 208.984C355.078 208.984 353.418 209.473 352.051 210.938C349.805 213.477 349.219 213.379 345.215 210.352C342.09 208.008 341.504 207.91 336.426 208.691C331.25 209.668 330.859 209.57 327.051 206.738L323.145 203.809L323.437 196.68L323.73 189.453L316.406 187.109C312.402 185.84 307.52 184.57 305.566 184.277C303.711 183.984 299.316 182.031 295.996 179.785C292.383 177.441 287.695 175.391 284.375 174.707C281.348 174.121 277.344 172.559 275.586 171.387L272.266 169.141L262.891 173.633C257.715 176.074 253.027 178.516 252.637 179.102C252.246 179.688 252.148 182.617 252.441 185.547C252.734 188.477 252.637 191.406 252.148 191.992C250.781 194.043 241.504 194.434 232.715 192.773C224.707 191.309 223.926 190.918 220.703 187.207C215.723 181.543 214.941 179.688 214.844 174.609C214.844 172.07 214.16 168.457 213.281 166.602C211.816 163.574 211.816 162.598 212.988 157.52C214.453 151.367 214.355 140.625 212.793 140.625C212.305 140.625 208.496 142.578 204.297 145.02C199.219 147.949 193.652 150.098 187.012 151.758C181.641 153.125 174.512 155.273 171.191 156.641C167.773 157.91 160.352 159.766 154.59 160.645C148.73 161.523 143.164 162.598 142.09 163.086C140.918 163.477 131.543 170.117 121.094 177.832C107.227 188.086 91.6016 198.145 63.4766 214.941C42.2852 227.637 19.3359 241.016 12.5 244.531L0 251.074V256.543C0 259.57 1.17187 268.359 2.63672 275.977L5.27344 289.941L9.47266 290.625C13.4766 291.211 13.8672 291.602 18.0664 298.438C20.5078 302.441 22.4609 306.055 22.4609 306.445C22.4609 306.836 20.2148 309.375 17.4805 312.012L12.5 316.895L12.9883 329.199C13.4766 339.941 13.2812 341.992 11.6211 345.703L9.66797 349.902L12.5977 352.93C14.2578 354.688 16.0156 358.008 16.6992 360.645C17.2852 363.184 18.1641 365.43 18.5547 365.723C18.9453 366.016 22.4609 365.039 26.3672 363.574L33.4961 360.938L36.7187 364.648C38.4766 366.602 41.0156 370.996 42.4805 374.414C44.5312 379.199 45.7031 380.762 48.0469 381.641C50.7812 382.617 50.9766 382.91 50.293 386.621L49.6094 390.527L53.6133 391.211C57.5195 391.797 57.6172 391.992 57.6172 395.605C57.6172 399.219 57.7148 399.316 62.6953 400.781C65.5273 401.562 70.0195 402.734 72.6562 403.418C75.7812 404.199 79.3945 406.25 83.2031 409.375C86.4258 412.109 89.1601 414.062 89.2578 413.867C91.6016 411.035 96.6797 399.805 97.168 396.387L97.8516 391.992L107.617 390.332C113.086 389.355 120.117 387.305 123.633 385.742C128.027 383.789 130.859 383.008 132.812 383.496C134.961 383.887 137.207 383.105 142.187 380.371L148.828 376.66L151.855 380.176C153.613 382.129 157.52 388.965 160.645 395.312L166.406 406.934L171.777 408.301C178.711 410.059 178.906 410.938 178.125 431.836C177.441 448.145 177.441 448.242 179.883 451.855C183.691 457.715 185.547 464.453 185.547 472.656V480.078L196.68 490.527L207.812 500.977H212.891C218.848 500.977 225.293 497.949 234.082 491.113C241.602 485.254 243.848 484.961 244.727 489.844C245.117 491.797 244.922 495.312 244.434 497.656C243.848 500 243.652 502.148 243.945 502.441C244.238 502.734 248.535 502.93 253.516 502.93C264.648 502.93 274.512 506.055 281.348 511.816C285.254 515.039 286.035 516.309 287.012 521.094C288.477 528.809 288.379 541.406 286.621 547.852C284.18 556.836 284.668 562.109 288.184 566.504C289.844 568.652 291.797 572.266 292.48 574.512C293.164 576.758 294.336 578.711 295.215 578.906C297.656 579.395 303.613 573.34 306.738 567.188L309.57 561.523H322.656H335.645L340.137 565.039L344.727 568.652L354.883 568.164C362.109 567.773 366.211 566.992 369.629 565.527C372.266 564.355 376.27 563.477 378.906 563.477C383.008 563.477 383.691 563.77 384.668 566.113C385.352 567.676 387.988 570.312 390.723 572.168C397.559 576.855 402.051 582.422 404.004 588.672C405.371 592.969 406.445 594.434 409.473 596.387C415.82 600.391 416.016 600.293 416.016 595.41C416.016 592.969 416.406 590.723 416.797 590.43C417.187 590.137 419.336 590.332 421.484 590.82C424.121 591.406 426.367 592.969 428.906 595.898C430.957 598.242 432.52 600.293 432.52 600.586C432.52 600.879 428.418 604.199 423.437 608.105L414.355 615.137L413.77 624.902C413.281 634.082 412.988 635.254 409.277 642.188C407.031 646.289 405.371 649.805 405.469 649.902C410.352 653.223 413.477 654.297 417.773 654.297H422.754L423.926 659.961C424.707 663.867 426.074 666.504 428.32 668.945C430.469 671.191 431.738 673.73 432.227 676.465L432.812 680.566L427.148 680.859C421.484 681.152 421.484 681.152 420.605 684.668C419.922 687.598 419.043 688.477 414.453 690.723C409.375 693.262 409.18 693.457 409.18 697.266C409.18 700.195 409.863 701.953 412.305 704.688C414.844 707.52 415.137 708.398 413.965 709.082C409.766 711.621 409.863 711.523 411.621 714.648C413.184 717.285 413.867 717.578 420.117 717.969C425.879 718.457 427.344 718.945 429.785 721.289C432.617 724.023 432.715 724.023 438.281 722.852C448.047 720.801 456.055 721.289 460.156 724.121C466.895 728.711 476.367 731.543 486.523 732.129L495.996 732.715L502.148 728.809C510.84 723.242 515.137 721.191 522.949 718.652C526.758 717.48 532.031 715.039 534.863 713.281C537.598 711.523 541.504 709.766 543.359 709.375C546.387 708.887 546.973 708.301 547.852 704.98C548.34 702.93 549.316 699.414 549.805 697.266C550.391 695.117 551.66 691.895 552.734 690.137C554.297 687.402 554.394 686.23 553.516 680.859C552.344 673.242 553.418 671.289 561.523 666.211C566.406 663.086 567.383 661.914 568.945 657.617C570.41 653.125 571.191 652.344 575.781 650.098C579.883 648.047 581.445 646.582 583.301 643.066L585.547 638.574L589.844 641.992C593.848 645.117 594.824 645.508 600.391 645.508H606.641L603.223 651.562L599.902 657.715L601.66 662.109C602.637 664.551 603.418 666.797 603.418 667.188C603.516 667.578 601.562 668.457 599.121 669.043L594.727 670.117V676.172C594.727 679.785 593.945 684.18 592.773 687.305C591.406 690.918 590.82 694.727 590.82 700.391V708.301L586.328 713.477C582.519 717.969 581.934 719.238 582.227 722.363C582.519 725.977 582.617 726.074 589.062 728.027C598.535 730.859 601.465 734.473 601.562 743.262C601.562 753.906 600.879 755.762 596.094 758.105C590.527 760.742 590.625 762.695 596.289 768.457C600.293 772.461 600.879 773.535 601.269 778.32C601.758 782.91 601.465 783.984 599.707 785.547C598.437 786.719 597.656 788.574 597.656 790.527V793.75L606.25 794.336C613.184 794.922 615.918 794.629 621.289 793.066L627.734 791.211L632.812 794.629C635.547 796.484 640.234 798.828 643.066 799.805C645.996 800.781 650.195 802.734 652.539 804.004C654.883 805.371 658.301 806.738 660.254 807.031C663.477 807.617 664.062 808.203 666.309 813.281C667.676 816.309 669.238 820.02 669.824 821.484C670.703 823.73 671.484 824.219 674.023 824.219C677.051 824.219 677.441 824.609 679.199 829.297L681.25 834.473L688.379 835.84C695.117 837.109 695.898 837.109 701.562 835.059C704.785 833.887 707.812 833.008 708.203 833.008C709.18 833.008 719.727 846.191 719.727 847.363C719.727 847.852 718.652 849.316 717.285 850.586C714.746 852.93 714.648 854.297 716.406 860.449C717.09 862.988 724.219 863.281 729.199 861.133L733.301 859.375L738.965 862.988C742.09 865.039 746.484 867.578 748.828 868.555C752.734 870.312 752.93 870.605 752.93 874.512C752.93 880.273 755.762 892.676 757.617 894.727C758.691 895.996 758.887 897.656 758.496 900.781C757.91 904.59 758.105 905.371 759.961 906.738C763.672 909.277 769.531 908.496 778.613 904.297C783.203 902.148 787.598 900.391 788.379 900.391C789.16 900.391 791.016 902.344 792.383 904.785C794.336 908.008 795.605 909.18 797.363 909.18C799.414 909.18 799.805 908.496 801.269 902.246C802.539 896.582 804.687 890.527 806.152 888.867C806.836 888.086 819.238 894.629 821.191 896.875C823.144 898.926 824.414 899.414 828.223 899.414H832.91L833.984 895.215C834.57 892.969 835.254 890.527 835.449 889.844C835.742 889.16 837.5 888.672 839.746 888.672C843.262 888.672 843.75 888.965 844.922 892.09C846.094 895.41 846.387 895.605 850 895.312C853.125 895.117 854.394 894.238 857.519 890.527C861.133 886.328 861.426 885.645 862.793 874.609C864.551 861.328 868.164 852.246 871.875 851.758C873.73 851.465 873.144 850.684 867.676 845.996C860.84 840.137 861.133 841.113 863.477 831.738C865.234 824.609 862.402 820.41 855.859 820.312C854.199 820.312 853.516 819.238 852.148 814.16C851.172 810.547 849.316 806.934 847.656 805.176C846.094 803.516 844.141 799.805 843.262 796.387C842.285 793.164 841.406 790.234 841.113 789.844C840.918 789.453 838.574 790.137 835.937 791.504C833.301 792.871 830.859 793.945 830.566 793.945C829.687 793.945 830.078 778.223 831.055 770.996C831.836 765.527 832.519 763.77 834.473 762.402C835.84 761.426 836.914 760.254 836.914 759.863C836.914 759.375 834.57 757.52 831.641 755.566L826.465 752.148L827.148 747.852C828.223 741.602 833.398 730.957 837.109 727.637C838.867 725.977 842.578 723.73 845.312 722.656C848.926 721.191 850.879 719.629 852.148 717.285C853.906 714.062 853.906 713.867 851.66 709.082C848.73 703.027 849.414 700.391 854.492 697.266L858.398 694.824V687.988C858.398 682.031 858.789 680.566 860.937 677.637C862.305 675.781 864.453 672.168 865.723 669.629C867.285 666.211 870.41 662.891 876.562 657.617C887.793 648.047 888.281 647.461 889.062 641.699C889.648 637.598 890.234 636.426 893.457 633.887C899.316 629.199 902.441 629.883 904.199 636.23C906.055 642.676 907.519 644.043 911.816 642.969C915.039 642.188 915.527 641.602 916.504 637.695C917.383 633.984 917.969 633.301 920.117 633.008C922.656 632.715 922.754 632.91 923.926 639.941C924.805 645.02 925.879 648.145 927.637 650.293L930.176 653.418L933.496 647.852L936.719 642.383L934.668 638.574L932.519 634.863L935.254 634.18C940.039 633.203 940.332 633.008 942.871 629.004C945.996 623.926 945.996 623.047 942.383 619.629C940.332 617.676 939.453 615.918 939.453 613.867C939.453 611.23 940.137 610.547 944.629 608.105C948.535 606.055 950.098 604.59 951.367 601.562L952.93 597.754L959.57 597.461L966.211 597.168L969.336 585.938L972.363 574.707L978.125 574.805C981.348 574.902 986.523 575.293 989.746 575.684C995.508 576.367 995.605 576.367 997.852 573.34C1000 570.41 1000.1 569.922 998.926 564.844C997.754 559.57 997.559 559.375 991.113 555.664L984.57 551.758L985.059 547.656C985.449 545.312 987.793 538.477 990.43 532.422C993.066 526.465 995.019 521.094 994.727 520.703C994.531 520.312 992.09 518.945 989.355 517.676C984.57 515.332 984.57 515.332 982.715 507.91L980.859 500.488L974.609 499.316C965.234 497.559 961.133 497.754 957.324 500.098L953.906 502.246L948.047 496.387L942.187 490.527L943.652 485.547C944.434 482.812 944.824 480.273 944.531 479.98C944.238 479.688 942.773 479.492 941.211 479.492C939.453 479.492 938.477 479.004 938.477 478.027C938.477 474.609 941.309 471.387 948.828 466.406C954.98 462.305 957.812 459.668 960.449 455.469C962.402 452.441 963.867 449.805 963.672 449.707C963.184 449.219 951.953 446.484 947.461 445.801C943.945 445.215 942.871 445.41 941.016 447.168L938.769 449.316L938.086 442.48C937.5 436.23 936.914 434.766 930.859 425.098C924.609 415.039 924.023 414.453 917.969 411.426C912.5 408.691 910.937 408.301 906.641 408.789L901.66 409.375L899.512 404.395C898.047 400.977 896.777 399.316 895.215 399.023C882.227 396.191 872.461 394.629 870.703 395.117C869.141 395.508 868.262 394.922 866.894 392.578L865.137 389.551L861.328 392.578L857.617 395.508L851.953 393.555C846.387 391.602 846.191 391.602 844.434 393.359C842.676 395.215 842.48 395.215 837.598 392.48L832.519 389.746L828.125 393.945C824.902 397.168 822.559 398.535 819.043 399.219C814.551 400.098 814.355 400.098 812.988 397.461C811.719 395.02 811.719 394.141 813.086 390.234L814.648 385.742L811.426 380.566C809.57 377.832 805.859 373.34 803.027 370.703C797.949 366.113 797.852 365.918 797.852 360.449C797.852 357.324 798.535 352.832 799.414 350.391C800.879 345.996 800.977 345.898 806.152 345.215C811.914 344.531 811.914 344.531 812.891 336.914L813.574 332.52L817.383 332.812L821.191 333.203L821.875 328.223C822.461 323.828 822.949 322.949 826.074 321.094C828.027 319.922 829.687 318.945 829.883 318.848C830.078 318.652 829.394 316.797 828.516 314.453C826.953 310.547 826.66 310.449 823.633 310.938C820.996 311.523 820.312 311.23 819.824 309.473C819.434 308.301 819.531 307.129 820.117 306.738C830.273 300.391 830.859 299.609 832.031 293.262C833.008 287.402 832.91 286.914 830.664 283.496L828.125 279.883L830.469 276.953C831.738 275.293 834.18 273.242 836.035 272.363C839.16 270.801 839.355 270.41 839.844 264.551L840.332 258.301L844.531 257.422C849.219 256.445 849.609 255.176 846.191 251.953C843.066 249.023 842.871 243.066 845.703 238.77C846.777 237.109 847.656 234.473 847.656 232.812V229.688L840.82 229.004L833.887 228.32L830.566 223.047C826.66 216.895 825.781 216.699 815.918 219.824C807.91 222.266 805.469 221.777 800.293 216.895C797.852 214.453 795.019 212.891 792.773 212.5C787.5 211.523 778.32 207.129 778.32 205.469C778.32 202.051 771.191 182.617 768.848 179.395C764.941 174.414 760.644 173.828 753.809 177.344C744.336 182.129 738.574 183.594 729.492 183.594H720.898L717.383 187.5L713.867 191.406L708.496 188.965C703.418 186.719 702.832 186.719 699.121 187.988C695.605 189.258 691.602 189.16 689.258 187.793C688.867 187.598 689.844 183.887 691.406 179.59L694.238 171.875L691.602 170.508C690.137 169.824 684.473 168.848 678.906 168.457C667.09 167.676 666.016 166.797 666.016 158.398C666.016 153.223 665.918 153.027 659.668 146.582C653.516 140.234 653.32 139.844 653.32 134.961C653.32 131.738 654.297 127.637 655.859 123.73L658.398 117.578L656.152 112.793C654.297 108.984 652.246 106.934 646.289 102.832L638.769 97.5586L637.402 100.293C636.621 101.758 635.644 105.273 635.352 108.008C634.473 113.867 631.445 118.066 621.191 127.148C614.062 133.496 613.965 133.496 610.254 132.52C607.519 131.836 605.859 130.664 604.394 128.32C603.32 126.465 602.246 125 602.148 125C602.051 125 597.559 126.465 592.187 128.32C582.617 131.543 582.324 131.543 579.199 129.883C576.074 128.32 573.34 124.902 573.242 122.461C573.242 121.973 574.512 120.508 576.172 119.336L579.102 117.188L583.008 119.629C585.156 120.996 587.305 122.07 587.695 122.07C588.574 122.07 589.844 110.645 589.844 102.832C589.844 96.7773 587.5 93.0664 583.105 92.2852C581.152 91.9922 578.906 91.5039 578.125 91.3086C577.344 91.1133 576.269 91.1133 575.684 91.3086Z" fill="black"/>
<circle cx="500" cy="404" fill="#5CE50D"/>
<circle cx="500" cy="212" fill="#E52A0D"/>
<circle cx="813" cy="470" fill="#E52A0D"/>
<circle cx="203" cy="242" fill="#E52A0D"/>
</g>
<defs>
<clipPath id="clip0_1_335">
<rect width="1000" height="1000" />
</clipPath>
</defs>
</svg>
