<svg width="1000" height="1000" viewBox="0 0 1000 1000" fill="none" xmlns="http://www.w3.org/2000/svg">
<rect width="1000" height="1000" />
<path fill-rule="evenodd" clip-rule="evenodd" d="M708.309 772.608L709.609 770.613H707.528L707.181 769.312L705.707 768.272L703.886 763.675L704.666 762.375L708.656 759.166L713.859 759.339L714.206 756.391L715.854 755.523L717.501 756.564L719.496 756.391L720.797 757.345L722.098 759.686L724.352 757.692L724.699 760.987L723.572 763.675L724.266 766.277L721.751 768.792H719.496L714.9 770.787L711.951 771.047L710.91 772.608H708.309Z" fill="black"/>
<path fill-rule="evenodd" clip-rule="evenodd" d="M751.671 897.667L752.191 899.315L755.14 900.616L756.094 902.611V904.605L752.191 909.375L751.237 909.548L750.197 912.15L753.839 912.497L751.671 916.746L750.197 917.614L747.942 917.44V916.486L744.299 917.093L743.692 915.966L739.096 914.318H737.795L731.551 915.619L726.261 918.134L724.613 920.822H722.359L721.231 918.828L721.491 915.185L720.19 913.884L717.936 908.247L718.369 905.906L720.537 903.998V902.264L717.068 900.009V898.968L715.074 898.014L714.64 896.366L714.9 892.377L714.293 891.076L713.773 887.434L712.299 886.133L711.778 883.878L718.022 883.792L718.369 880.843L719.67 880.496L720.017 879.195L721.665 880.236L723.92 879.716L726.521 880.843L726.868 882.144L728.169 882.838L727.562 884.139L728.342 886.48L725.567 889.602L724.96 889.776L725.914 892.03L729.817 893.244H734.413L736.061 892.204L737.708 892.377L740.657 894.892L743.345 895.152L745.947 894.198L748.549 894.025L749.59 896.974L751.671 897.667Z" fill="black"/>
<path fill-rule="evenodd" clip-rule="evenodd" d="M660.352 896.187V895.579L664.428 894.018L665.728 891.07L662.433 886.734L661.306 886.56L661.913 883.785L665.815 877.107L666.682 872.945L667.116 866.874L664.601 860.197L667.289 856.554L669.544 852.565L670.325 848.402L669.371 845.454L664.688 841.725L663.994 840.164L665.642 840.25L666.422 842.505L669.024 844.673L672.059 843.199L677.349 835.654L677.696 833.312L680.471 830.537L683.767 828.456L684.634 826.808L686.889 824.12L689.057 820.824L690.531 819.87L691.312 816.488L692.959 815.534L693.566 813.193L695.214 812.586L696.862 810.938L698.163 806.949L699.203 805.301L701.805 804.26V802.959L704.06 802.612L704.147 803.306L708.396 804.087L709.697 803.133L711.692 803.306L712.819 805.561L712.645 806.602L714.64 807.035L717.242 806.255L718.022 805.214V802.612L715.941 801.312L718.89 799.664L719.843 796.975L721.144 796.368L720.797 794.027L722.185 794.374L722.445 792.986L725.22 792.032L725.307 793.68L723.833 795.328L725.134 796.455L727.388 796.022L726.781 793.333L729.036 792.726L729.383 793.68L731.638 792.639L731.204 791.685L731.378 788.737L733.286 788.39L734.326 786.742L734.933 788.043L733.459 789.344L733.112 790.992L734.326 792.032L733.806 794.634L730.077 796.975L729.556 801.312L730.51 802.959V804.607L729.556 805.561V807.903L730.25 808.857L730.424 812.846L729.73 812.672L728.429 814.667L726.781 815.187L726.001 818.483L724.527 819.263L723.312 821.084L723.139 824.727L721.578 825.681L718.282 825.854L715.16 827.068L714.64 829.323L715.334 830.537L713.686 830.884L712.385 832.705L712.732 836.955L715.941 837.128L717.589 835.134L719.583 835.654L719.93 837.649L719.757 841.204L721.578 844.239L727.128 844.5L727.822 846.668L730.077 847.535L730.597 850.83L729.817 851.958L725.22 853.779V856.207L718.282 858.722L721.231 857.074L722.098 856.121V854.126L720.884 852.652L718.976 851.611H714.987L710.738 852.999L709.263 855.427L706.662 858.115L706.141 859.416L703.193 861.237L701.892 862.538L699.897 863.058L697.122 858.115L694.867 860.804L694.174 863.752L691.398 864.88H690.098L687.149 866.094L686.022 868.002V870.343L685.328 873.292L686.022 874.332L685.501 876.587L687.149 876.934L688.276 878.235L688.623 880.229L689.837 882.571L691.745 882.918L691.398 887.514L693.046 888.468V890.81L699.117 891.157L699.203 894.452L699.637 895.753L702.933 898.008L703.106 899.655L702.152 902.344L702.325 904.946L704.233 905.119L705.708 906.246L706.401 908.935L705.101 912.577L703.626 913.184L702.933 910.236L699.984 909.455H697.382L695.301 910.929L694.954 912.577L695.735 915.179L694.434 915.092L692.786 916.046L690.965 918.561L689.837 922.117L690.531 924.458L691.485 924.805L694.26 927.407L694.174 928.708L691.832 929.575L689.577 931.223L687.929 934.345L686.282 936.166L685.328 936.339V939.288L687.236 939.808L690.531 939.635L692.179 937.467L696.081 937.033L697.122 934.345L699.724 933.998L701.892 936.946L701.718 939.288L704.147 938.594L704.494 941.889L703.366 945.185L696.428 947.7L694.52 948.827L691.572 951.342L689.924 953.337L688.797 956.459L690.791 960.448L688.623 961.402L687.669 965.391L686.802 965.738L686.368 968.687L684.027 969.381L682.032 971.289L681.599 976.232L682.379 978.226L686.022 979.527L691.919 983.343L694.607 985.338L698.163 986.812V987.419L702.152 989.067L703.886 990.975L698.51 987.939L689.23 984.21L684.981 984.731L683.333 983.343L681.425 982.649L677.176 980.308L674.748 979.874L670.758 976.318L669.544 975.972L665.035 970.768V968.427L664.254 966.606L664.948 958.627L668.33 953.597L669.978 951.949L671.192 949.695L671.018 948.567L673.967 943.19L675.355 935.125L675.094 930.355L673.88 926.279L672.753 924.458L672.406 921.596L673.88 918.474L675.094 914.832L675.702 907.374L675.268 902.257L673.533 898.875L669.631 894.712H668.07L668.243 893.672L666.682 893.932L666.335 892.024H665.381L664.428 894.105L660.525 895.579L660.352 896.187Z" fill="black"/>
<path fill-rule="evenodd" clip-rule="evenodd" d="M741.958 879.193L739.877 871.215L739.01 869.567L735.367 867.659V866.011H734.413L734.066 863.149L735.714 863.323L736.668 857.426L738.316 855.865L739.617 856.038L740.918 854.217L743.606 854.737L744.213 852.396L745.514 853.263L746.901 852.743L747.162 846.152L750.11 845.805L751.151 850.141L755.4 851.442L755.747 853.089L756.701 853.436L757.395 851.789L758.522 852.396L758.696 854.043L760.17 857.339L758.349 859.333L757.395 861.328L756.528 866.618L754.793 868.786L751.845 869.393L750.804 870.868L745.947 871.735L742.999 874.51L743.086 877.805L741.958 879.193Z" fill="black"/>
<path fill-rule="evenodd" clip-rule="evenodd" d="M285.275 199.111L283.454 197.724L280.679 198.678L280.332 200.325L278.51 201.279L279.118 215.155L278.597 221.226L281.806 221.833L285.882 221.226L293.08 221.833L293.774 222.96L293.687 225.649L294.814 227.903L299.411 227.21L299.324 227.99L294.988 228.424L295.421 230.245L296.636 231.806L295.595 233.714L295.248 237.356L292.473 241.172L292.906 243.34L291.953 244.901L292.733 246.289L292.126 249.844L291.953 255.915L292.733 258.863L292.039 260.424L292.126 262.592L292.82 264.067L292.299 266.061L292.906 269.183L295.075 270.484L298.717 271.265L299.844 270.831L298.89 273.086L299.584 274.56L298.89 277.162L297.763 278.376L296.462 281.325L298.457 286.528L299.584 287.482L299.151 290.257L295.335 289.563L292.56 287.222L290.305 285.748L287.616 284.88L278.51 284.707L273.394 285.574L271.399 286.701L269.925 288.349L264.201 286.962L261.079 287.222L257.697 286.615L253.361 285.14V282.799L255.529 280.544V275.948L254.315 273.259L250.065 271.698L250.326 269.704L251.453 267.709L251.8 265.021L250.933 261.031L249.285 260.858L246.857 257.736L247.117 253.4L245.989 253.14L246.336 251.752L247.29 252.793L247.117 247.85L247.29 243.86L249.545 243.167L250.239 240.825L249.198 240.478L252.494 238.484L252.147 237.53L249.892 239.004L250.499 236.836L251.8 236.662L254.141 233.54L255.789 232.847L256.483 234.147H258.131L257.784 233.193L259.518 233.454L261.339 232.239L261.426 231.286L263.421 229.204L265.068 229.638L264.808 227.296L265.589 226.082L266.629 226.863L268.104 224.521L264.288 222.787L251.106 215.849L246.076 213.941L239.919 212.553V210.992L243.821 211.946L250.412 214.114L258.131 218.364L259.431 219.491L266.369 223.22L267.844 220.445L267.323 220.012L269.665 217.236L276.082 222.7L277.383 222.613L277.296 220.532L274.088 216.976L268.537 211.773L266.456 211.339L262.207 209.431L261.513 209.778L251.887 206.743L239.832 205.008L241.133 204.488L249.025 205.442L253.708 206.569L258.477 208.217L261.339 208.564L266.716 210.906L269.405 211.513L269.751 212.467L273.827 216.456L277.21 220.012L278.337 219.838L278.771 215.155L278.164 201.366L277.383 197.55L274.695 196.857L273.481 195.903L272.006 196.683L268.711 195.035L268.19 192L271.659 191.133L272.7 192.26L274.608 192.347L281.979 195.296L283.714 194.515L283.28 195.816L285.275 196.163L284.234 197.29L285.275 199.111Z" fill="black"/>
<path fill-rule="evenodd" clip-rule="evenodd" d="M364.019 357.989L364.366 357.208L364.019 355.647L366.101 346.281L365.841 343.419L364.887 343.593L363.672 337.002L364.106 333.793L363.152 331.712V329.63L362.458 327.115L362.545 323.56L361.418 317.836L360.204 318.183L358.556 312.112L355.954 313.24L356.041 311.852L358.035 311.245L356.648 309.164L356.821 310.638L355.174 311.679L354.393 309.857L353.266 309.25L354.393 308.383L352.572 306.649L353.352 305.868L352.312 304.394L350.491 305.782L348.149 303.267L350.577 300.491L348.323 301.012L346.675 300.058L343.726 293.554L345.287 292.6L343.9 288.697L343.119 289.044L343.032 286.876L340.864 282.8L337.742 276.296L334.273 276.903L333.58 274.388L337.569 273.087L338.436 275.775L339.13 275.428L338.176 272.653L333.319 274.214L333.666 272.393L335.834 271.786L337.049 270.052L335.141 271.353L334.967 269.271L333.059 267.797L328.116 270.052L326.902 272.133L327.162 269.184L325.861 266.843L333.319 262.593L333.666 261.553L332.799 257.303L331.238 254.008L329.59 252.967L330.891 252.187L329.07 245.249V242.907L327.856 240.653L327.682 238.311L325.167 238.138L325.081 235.189H326.295L326.035 231.894L324.214 231.46L324.387 230.419L326.382 230.853L329.59 226.43L329.937 223.655L319.704 224.609L310.771 226.083L310.858 225.476L321.438 223.828L328.983 223.135L326.295 222.874L311.899 223.048V222.701L326.642 222.528L327.943 221.487L329.33 216.977L331.498 215.416L329.59 214.029L330.458 211.514L332.799 213.161L333.84 211.774L333.059 204.836L334.36 205.009L333.233 200.413L333.927 199.893L332.799 196.858L333.059 191.394L335.054 191.741L335.661 188.966L335.054 185.844L332.973 183.329L329.07 185.237L326.121 180.814L328.203 179.86L327.596 179.253L325.167 180.207L325.428 178.212L323.867 172.055L323.26 168.673L322.566 167.892L318.316 169.106L318.49 168.586L323.173 167.372L323.693 165.377L325.861 162.082L330.197 160.26L331.065 162.775L334.1 160.868L332.365 157.312L333.146 156.792L334.62 159.133L336.788 157.485L337.829 155.924L339.737 155.491L341.385 154.103L341.818 152.716L340.691 149.42L346.675 146.905L346.761 147.252L352.485 144.564L353.092 143.436L355 142.309L355.607 143.436L353.266 144.39L353.006 145.084L356.301 143.783L356.735 144.13L359.943 143.436L363.846 143.349L371.304 141.962L383.966 141.181L385.18 140.314L389.689 139.794L392.725 140.748L392.551 138.666L389.689 133.463L389.95 128.607L389.516 121.842L388.822 119.761L386.567 116.465L371.824 123.403V110.395L384.486 105.798L385.353 105.625L385.266 108.574L386.307 111.869L388.909 114.037L388.562 115.598L387.174 116.292L389.169 119.414L390.21 122.97L390.296 124.964L396.367 124.444L397.668 125.571L398.882 124.877L402.524 124.357L402.785 125.918L406.6 133.897L390.643 133.723L390.99 135.544L393.592 140.488L397.755 140.748L398.448 141.268L401.657 140.748L402.958 139.794L403.131 141.181H404.692L405.646 141.268L408.161 141.181L408.682 139.794L409.462 140.921L412.497 142.396L412.411 140.488L414.232 137.279L416.053 136.151L418.915 132.683L422.731 130.948L422.904 130.168L427.587 128.693L426.98 126.265L425.766 125.571L424.465 122.623L426.46 123.316L427.327 125.398L429.322 124.617L428.194 127.132L429.148 127.392L431.23 126.265L431.143 124.791L433.398 124.877L431.923 127.306L433.571 130.254L437.387 131.902L438.167 131.208L437.647 128L438.601 126.525L440.509 125.918L439.121 127.392L438.948 129.474L441.81 129.734L443.197 129.04L441.81 125.745L444.325 127.913L444.238 130.514L442.764 132.509L439.989 132.769L440.075 133.81L446.493 133.637L446.146 132.683V122.363L446.493 121.842L451.002 127.392L448.748 128.867L450.049 129.561L450.135 130.688L448.661 131.815L448.921 133.897L450.395 134.244L451.696 132.596L450.742 130.688L451.436 128.953L452.563 129.821L453.951 132.509L456.986 133.723L456.466 135.024L457.854 143.176L459.848 143.263L460.282 144.043L466.352 141.962L468 141.095L466.873 139.534L467.306 136.759L468.52 137.712L471.729 136.845L471.903 135.978L474.418 134.677L476.846 135.284L483.87 130.688L483.263 129.734L484.824 128.086L485.258 125.138L486.212 123.143L484.824 122.623L483.61 124.617L483.003 123.49L481.355 123.143L479.361 124.357L473.724 119.761L474.504 118.72L473.897 116.812L471.729 115.685L471.816 114.471L474.765 112.042L475.111 113.17L477.193 113.864L479.274 113.517L481.876 111.696L483.35 112.996L485.171 117.766L486.906 119.327L485.692 121.842L487.166 121.929L488.814 123.663L492.543 123.056L493.41 122.189L494.19 119.327L494.971 119.414L493.844 124.097L495.318 124.444L495.231 123.056L497.139 120.888L498.266 120.715L500.348 122.796L500.521 124.704L502.342 127.739L505.985 125.311L506.158 125.918L507.372 127.046L505.118 128.433L506.072 130.688L504.597 130.861L503.557 129.214L500.348 130.601L501.475 130.948L502.949 134.851L500.174 136.325L501.388 136.845L505.291 134.157L505.378 135.805L503.296 136.845L500.695 139.1V140.314L502.256 142.049L502.516 148.813L504.25 151.328L505.725 151.415L506.852 149.94L507.459 152.022L509.02 152.108L507.546 153.149L508.066 155.057L510.147 153.756L510.928 154.363L513.009 152.716L514.917 153.583L515.524 152.195L520.207 153.669L520.121 155.751L517.345 156.011V156.705H520.294L520.381 161.475L520.034 165.464L520.728 164.683L520.641 159.567L525.584 160.607L526.538 160.174L528.966 163.556L530.788 164.25L531.741 163.469L532.869 164.51L528.706 168.759L527.839 173.182L529.487 175.264L519.687 185.063L519.34 185.584L527.666 190.96L527.492 191.307L519.167 185.844L518.56 189.313L518.386 186.537L516.825 185.41L515.177 187.925L511.448 186.277L507.893 188.185L509.627 190.006L511.362 190.44L510.841 191.307L508.586 191.047L508.847 189.486L507.806 188.359L503.73 190.874L497.312 194.169L491.589 192.435L490.722 193.649L489.768 193.302L490.461 190.18L488.12 188.445L485.778 188.098L483.87 185.757L481.269 186.277L477.193 185.757H473.811L472.076 184.716L468.694 184.89L470.428 185.757L470.689 187.058L466.092 187.318L465.832 183.502L464.965 183.415L464.705 187.318H461.583L461.409 190.787L458.2 190.96L458.027 193.128L462.537 191.914L464.271 198.939L460.976 200.153L461.669 202.321L464.445 201.974L464.965 204.142L463.057 205.096L462.45 206.57L462.883 211.167L464.445 211.514L465.659 215.676L466.873 216.977L470.342 218.018L469.995 219.405L472.943 221.227L473.55 223.048L474.765 222.441L478.667 227.384L476.759 229.118L477.54 230.072L478.58 229.118L479.014 230.419L484.738 233.455L486.559 235.796L488.38 236.23L488.553 237.617L491.068 237.531L491.849 239.005L495.665 242.647L496.359 245.509L495.925 246.29L497.139 250.105L499.741 249.498L500.868 252.36L501.649 251.666L501.562 249.498H505.378V254.615L509.107 254.268L508.933 253.141L512.229 252.967L516.045 253.401L515.611 254.095L517.432 256.61L520.121 258.171L520.988 262.767L520.294 264.935L519.427 265.282L519.86 267.45L520.728 268.144L521.768 271.699L523.59 275.342L524.023 275.689L524.63 279.071L524.543 281.412L526.798 284.187L528.446 287.656L531.741 291.039L532.349 292.6L530.874 291.472L533.476 295.808L535.21 293.9L535.817 294.594L537.552 301.619L536.425 298.15L534.43 297.369L533.823 299.277L534.864 299.451L536.598 301.706L533.042 302.746L535.731 303.44L532.956 305.695L536.858 308.904L537.118 310.118L530.354 305.001L526.278 308.383L523.069 313.587L522.896 316.882L536.251 316.709L536.425 334.227L536.164 346.715L532.956 346.975L531.395 346.021L528.446 345.847L528.966 346.628L529.66 351.484L531.741 352.265L530.094 354.173L527.319 354.086L524.717 357.902L524.37 359.723L524.023 366.574L525.844 375.333L526.625 376.894L525.671 377.762L526.972 378.889L526.191 382.965L527.058 385.74L531.741 387.908L532.262 389.729L534.43 391.117L536.164 390.77L539.373 392.244L539.807 393.632L538.593 396.927L535.904 399.529L532.695 403.258L533.303 404.646L536.598 401.957L538.766 402.131L538.853 404.646L535.557 406.38L537.118 410.63L536.945 412.191L531.481 412.277L530.874 418.174L531.481 425.546L535.644 426.153L536.164 427.194L535.124 433.351L528.186 431.703L527.839 433.004L530.267 433.698L529.66 435.346L529.227 438.901L526.105 438.121L525.758 441.069L526.365 443.411V446.273L525.324 449.481L524.197 451.216L523.069 458.24L523.85 459.194L522.375 461.883L522.289 463.964L523.156 465.525L521.508 469.514L521.682 474.718H520.381L518.906 478.447V480.008L522.289 480.528L522.202 481.135L519.687 480.355L520.381 482.002L517.345 481.309L517.779 483.217L518.299 492.149L518.039 493.71L519.774 494.751L519.687 496.745H517.345V498.393L519.86 498.48L519.774 501.255L520.381 504.637L518.646 504.811L519.08 507.846L526.451 508.106L527.232 508.366L518.646 508.453L518.213 512.269L516.565 512.529L517.432 515.217L516.478 516.345L516.652 518.513L515.698 523.196L517.953 525.451L518.993 527.792L516.652 531.088L516.912 535.597L516.218 535.944L515.351 539.673L513.53 542.795L513.356 545.57L512.489 547.912L512.229 551.381L510.841 552.075L510.668 554.416L509.454 555.023L509.627 557.191L509.02 558.752L511.622 559.099L514.05 557.712L521.508 557.105L515.438 557.972L515.177 560.053L513.616 561.267L514.657 561.701L514.744 563.782L513.963 565.777L512.229 565.43L512.316 573.582L512.142 577.658L511.188 580.52L510.928 585.636L509.627 587.458L509.194 590.233L509.887 592.401L509.194 593.615L509.887 599.946L508.153 601.333V603.761L508.847 606.45L511.101 609.832L510.581 612.867L514.137 612.694L515.438 614.168L516.912 613.908L516.738 615.729L518.039 616.683L519.08 616.163L519.687 617.637L518.299 618.938L516.738 619.111L514.831 617.811L514.484 615.989L515.091 614.602L512.316 614.515L510.234 617.29L509.714 619.458L511.362 620.759L511.795 622.147L512.402 620.326L515.438 619.545L517.085 620.933L516.652 623.794L515.177 622.58L513.616 622.494L512.836 623.621L511.708 622.407L509.887 622.233L508.5 621.019L507.372 618.157L507.979 615.296L510.321 613.041L510.061 612.52L507.806 614.428L506.765 617.464L507.112 619.718L509.367 622.58L507.979 627.003L509.714 629.605L511.535 630.385L510.841 632.64L508.673 631.339L507.719 634.375L506.679 634.808L504.51 633.941L502.256 632.293L500.695 632.727L500.088 634.895L497.486 634.375L500.521 636.283L496.966 638.104L498.266 640.532L501.128 639.058L505.204 638.277L507.979 638.451L510.668 639.231L510.147 641.399L509.54 640.185L504.684 640.879L500.695 642.873L500.174 645.735L498.527 646.342L497.312 645.388L496.272 645.995L496.445 647.643L495.491 651.806L495.751 655.622L497.226 659.958L499.134 662.646L500.608 662.473L499.22 664.294L495.144 660.912L493.67 658.744L492.196 654.147L489.941 654.321L490.114 658.744L491.242 662.56L488.553 662.299L487.946 662.993L490.114 663.167L492.543 665.248L492.022 666.289L489.854 667.069L491.502 670.104L490.982 671.579L487.946 672.186L485.258 671.058L484.131 669.324L483.957 666.202L485.171 664.294L488.207 662.299L486.212 662.733L483.87 664.901L483.263 666.809L483.524 669.324L484.738 671.405L486.732 672.619L491.068 673.227L492.456 670.972L491.849 669.324L492.283 667.069L493.323 666.722L494.19 668.977L494.104 673.834L492.543 675.568L491.068 673.487L490.288 673.66L492.369 676.349L492.196 677.91L482.396 673.14L481.355 673.4L476.239 678.256L470.168 684.674L465.398 691.612L463.577 695.688L463.23 699.417L465.659 706.788L466.786 711.732L466.352 711.645L464.965 706.181L464.358 705.401L463.491 701.585L459.848 696.555L458.547 693.433L456.813 691.872L456.553 690.224L456.986 686.408L452.303 680.424L451.002 675.655L449.355 671.752L447.707 664.121L446.406 655.188L446.666 651.893L446.059 647.383L445.712 640.532L443.718 634.895L441.203 628.998L438.948 624.835L432.184 614.862L431.056 612.434L425.853 604.368L424.639 603.068L417.961 591.794L413.278 580.867L410.936 573.582L409.896 572.628L407.988 568.899L406.687 567.338L405.126 569.506L403.999 569.94L404.866 572.368L407.468 575.056L409.462 579.826L410.416 583.382L411.37 584.249L411.197 585.983L409.202 579.913L407.121 575.23L404.432 573.582L402.698 571.587L400.963 568.725L399.142 568.205L397.321 564.736L395.587 563.522L394.806 562.048L389.169 555.63L387.001 552.508L383.445 549.646L379.803 544.53L376.681 542.362L374.773 539.5L372.692 538.112L371.824 539.673L374.513 540.974V541.841L372.258 541.755L370.35 540.194L371.391 538.633L370.263 536.725L368.356 535.511L366.014 535.424L362.458 532.649L359.77 531.781L357.082 529.266L355.434 528.486L352.745 525.277L351.184 524.497L349.363 522.242L348.843 520.074L348.062 519.727L347.542 517.212L346.328 514.784L343.466 515.044L342.859 510.101L339.997 505.765L339.737 503.076L338.783 501.689L338.87 498.913L338.349 497.006L336.962 494.664L336.615 490.154L337.049 489.114L337.222 483.997L336.528 480.788L334.707 478.187L333.319 477.146L335.141 475.585L334.794 471.856L333.406 470.902L334.273 468.387L334.62 469.428L336.008 468.56L337.395 466.132L337.482 462.75L344.42 454.511L346.154 451.823L348.149 447.834L350.664 444.798L354.046 439.942L355.954 434.652L356.214 430.316L355 427.28L355.174 424.245L354.48 423.985L355.347 420.95L354.653 420.603L358.556 413.491L360.55 410.803L360.811 407.854L361.851 405.513L363.586 402.998L367.055 397.014L368.876 393.545L370.003 390.163L369.743 388.862L370.263 384.786L368.182 382.271L366.534 381.491L367.315 379.93L366.968 378.108L367.575 376.461L366.187 375.16L367.575 375.073L368.095 370.65L367.141 367.528L365.32 365.62L364.28 363.712L364.626 358.075L364.019 357.989Z" fill="black"/>
<path fill-rule="evenodd" clip-rule="evenodd" d="M521.161 262.247V261.639L522.462 260.772L520.554 257.824L523.503 254.181L522.635 251.319L521.508 253.141L511.361 247.33L512.662 245.249L511.188 244.382L509.02 246.116L507.632 245.422L508.413 244.295L505.724 240.826L506.331 238.224L506.158 233.801L503.816 231.113L503.556 228.425L502.429 228.858L500.001 225.91L502.255 222.874L499.827 220.706L502.342 218.798L503.556 216.544L504.163 216.89L515.177 204.663L518.299 203.969L528.966 204.055L529.833 204.142L530.093 207.091L531.741 207.524L530.787 211.253L527.058 215.85L530.614 212.901L534.863 212.814V216.023L539.633 215.937L538.506 216.37L536.337 220.533L532.348 221.053L530.18 220.359L531.394 222.874L533.823 224.435L535.21 228.251L537.638 228.338V242.127L535.644 242.994L536.511 244.729L534.69 246.29L533.649 244.295L531.741 245.249L531.308 246.376L531.915 251.233L535.297 258.171L552.815 249.412L552.728 247.677L553.942 247.937L569.552 240.132L569.379 239.785L574.756 237.01L569.726 239.872L569.899 240.306L561.14 244.729L561.314 244.989L575.623 237.877L575.97 238.224L572.154 240.132L571.981 240.739L574.062 244.468L575.623 244.642L575.536 243.601L577.965 243.341L581.694 240.045H583.948L585.423 242.04L584.382 243.861L581.087 244.555L574.929 245.249L571.2 246.636L569.466 246.723L566.17 245.769L562.528 246.463L554.896 250.366L554.636 251.319L555.85 254.268L556.804 253.834L560.1 260.252L549.606 265.715L547.091 260.859L540.674 264.501L537.985 266.93L536.424 270.138L537.205 273.174L539.893 273.087L538.852 275.342L541.628 274.908L541.281 275.515L538.506 275.949L539.546 281.759L538.766 283.667L539.113 285.141L542.061 288.61L543.362 289.044L545.183 291.299L545.79 293.814L544.316 296.762L544.229 298.237L542.321 297.456L541.454 299.971L539.98 299.711L540.413 301.705L542.061 301.098H545.964L545.79 304.134L542.148 303.44L541.888 302.226L540.413 301.966L539.46 299.798L538.245 300.405L538.332 301.966L535.991 294.161L536.684 291.819L533.215 285.402L531.568 282.8L530.007 278.811L527.492 275.082L525.584 271.526L524.11 267.363L521.768 262.16L521.161 262.247Z" fill="black"/>
<path fill-rule="evenodd" clip-rule="evenodd" d="M339.737 149.073L334.447 154.363L331.672 156.271L330.544 154.796L328.896 157.311L326.642 158.352L322.739 162.255L320.051 163.729L318.229 165.81L315.107 165.29L315.281 158.179L316.408 152.802L317.275 150.027L320.051 150.72L322.305 148.552L322.045 147.859L335.227 141.788L338.089 148.119L339.043 147.859L336.268 141.354L343.292 138.232L351.531 136.064L352.312 135.284L358.816 133.289L358.902 134.156L357.168 137.105L354.046 140.227L351.444 141.268L349.016 143.002L344.16 145.43L340.604 147.685L339.737 149.073Z" fill="black"/>
<path fill-rule="evenodd" clip-rule="evenodd" d="M332.972 128.002L331.411 127.655L331.932 134.073L335.054 141.271L322.132 147.254L319.357 140.924L318.143 140.317L319.53 138.235L320.311 135.981L323.606 130.777L324.994 130.257L330.891 126.875L332.972 127.655L335.054 126.961L335.747 125.314L334.013 124.446L337.829 123.319L339.476 122.192L339.91 122.885L342.078 122.625L341.905 121.584L345.72 122.712L346.848 121.584L350.664 120.717L352.311 120.977L353.005 119.07L353.959 119.33L352.832 117.422L349.796 117.682L348.062 117.075L347.889 115.601L346.674 114.733L347.281 112.739L349.103 109.53L352.398 107.796L353.092 108.229L354.913 106.235L356.994 106.408L358.295 108.403L359.249 107.188L360.897 106.842L361.244 105.801L366.447 102.766L367.661 103.459L368.182 105.367L366.794 106.408L364.279 109.877L362.718 111.004L360.116 114.213L361.851 117.162L362.285 115.427L364.886 113.433L366.447 115.427L365.753 118.462L365.146 118.029L363.499 121.324L357.688 125.053L355.433 125.921L355.78 124.273L354.479 124.36L352.051 129.997L348.496 131.731L347.802 130.517L345.027 130.69L339.91 131.905L335.14 134.073L333.493 133.899L332.972 128.002Z" fill="black"/>
<path fill-rule="evenodd" clip-rule="evenodd" d="M530.7 114.904L531.047 111.522L533.042 110.481L541.367 107.533L541.541 107.013L538.766 105.365L535.817 105.885L530.874 104.671L529.139 104.844L529.746 105.972L528.532 108.574L528.446 110.828L530.874 112.389L528.706 114.991L528.012 116.639L526.538 122.709L526.191 125.398L527.578 126.005L527.752 127.739L525.237 126.785L525.584 127.999L524.196 130.688L522.462 132.596L521.074 132.683L518.126 134.07L514.657 130.688L512.575 129.387L509.54 124.617L507.892 124.877L506.852 123.23L506.765 120.455L505.551 118.547L505.724 111.262L503.816 110.308H500.607L499.046 111.349L496.878 114.037L495.924 116.899L495.491 115.251L492.716 113.69L488.726 108.574L488.033 105.538L490.287 105.365L492.456 104.411L494.277 102.416L494.624 100.942L494.19 95.7385L493.67 93.7439L491.155 88.5405L488.119 84.638L485.344 82.2098L481.789 80.3886L475.545 78.8276L476.672 75.7923L480.054 75.1852L480.921 71.196L480.141 70.4155H477.192L475.198 68.7677L474.938 67.2067L475.805 64.7785L479.534 66.2528L482.222 65.7324L481.182 66.6864L483.697 67.8138L486.298 68.3341L488.987 67.3802L490.981 68.0739L491.068 71.3694L492.282 74.318L496.445 79.3479L499.133 80.3019L503.469 79.0877L502.255 76.7462L504.25 75.6188L505.117 78.4807L504.076 79.001L514.483 84.2044L517.432 82.4699L517.692 80.562L519.166 79.4346L522.809 80.3886L521.334 78.1338L522.635 77.3533L522.288 75.5321L524.543 75.2719L527.838 73.7109L527.231 71.8897L526.017 73.0171L524.456 73.2773V70.5022H526.364V69.4615L524.023 69.3748L523.069 68.681L524.803 65.8191L525.584 66.3395L525.67 69.1146L527.231 69.2881V70.4155H528.619L528.706 71.4561L527.318 71.7163L528.272 73.7976L531.654 73.1039L528.966 68.7677L527.405 67.727V64.4316H530.007V67.6403L529.053 68.5943L531.481 72.4101L533.042 73.1039L539.546 73.0171L541.194 74.4914L542.581 73.7976L543.362 75.0118L545.183 74.2313L546.744 71.196L545.01 69.8084L546.918 66.9465L548.479 67.8138L550.3 64.8652L531.394 52.8974L519.34 44.8322L528.879 30.4362L531.221 27.2274L533.215 27.054L537.725 27.8345L540.24 28.7017L541.974 30.0893L543.622 33.8184L543.449 37.5475L544.142 38.2413H548.912L551.687 37.2873L554.116 37.5475L556.284 38.935L557.758 37.2873L554.029 34.7723L554.462 32.6043L553.508 30.9565V34.4254L552.728 35.0325L549.259 35.2059L548.479 33.3848L549.953 31.5636L548.045 32.0839L545.01 31.6503L543.709 28.615L542.148 27.1407L539.373 25.9266L532.261 24.7125L536.597 18.0348L538.159 17.1676L540.673 17.9481L543.188 21.2436L545.183 21.9373H548.218L550.907 23.0647L551.34 21.6772L550.04 21.0701L546.918 17.7746L546.31 18.6419L543.275 19.4224L540.5 16.4738L538.072 16.0402L540.673 11.7908L541.974 10.143L543.969 9.01562L544.403 9.62269L547.871 9.96958L553.942 13.0049L554.462 14.0456L553.855 18.3817L551.254 23.3249L555.33 26.0133L555.85 25.5797L553.855 24.1054L553.335 22.6311L554.896 21.2436L557.584 23.4984L560.88 22.8046L561.834 24.6258L563.048 22.5444L560.013 20.8967L557.498 21.5904L554.029 19.6825L554.896 16.734L557.758 17.9481L562.528 18.5551L565.476 20.3763L568.425 25.0594L570.506 26.7938L571.46 28.5283L571.2 30.0026L569.639 32.6043L567.818 32.691L568.685 29.6557L567.384 27.8345L563.308 26.4469L562.788 27.9212L566.69 29.0486L567.558 30.3495L566.777 32.3441L565.65 32.691L566.69 29.9158L564.522 29.6557L562.614 31.5636L563.915 34.5989L562.441 36.767L562.267 38.8483L563.568 35.8997L565.823 33.6449L567.211 33.5582L567.991 34.7723L567.644 37.1139L565.997 37.8076L565.476 39.9757L564.522 40.4093L563.742 43.0977L561.487 44.4853L560.793 41.6234L562.181 39.3686L560.533 40.2359L558.192 37.7209L556.63 39.3686L558.018 40.7562L559.145 43.965L561.053 47.087L558.972 49.2551L559.753 51.4231L557.411 51.5966L556.717 54.6319L554.983 55.6726L553.335 60.7892L553.075 63.1307L553.942 63.7378L552.208 66.0793L551.34 66.166L548.999 69.8084L549.519 70.5022L548.045 72.8437L549.866 73.8844L549.606 75.0118L550.993 76.1392L560.62 81.516L561.574 80.0417L561.834 77.8736L564.436 77.0931L565.997 78.6541L569.465 79.4346L570.333 78.7409L570.94 76.4861L568.512 75.0985L570.68 70.8491L569.639 70.3287L571.287 69.4615L571.113 67.4669L569.899 66.8598L567.558 68.5943L565.91 68.0739L567.384 66.6864L569.379 65.8191L568.338 62.8706L568.512 60.2689L570.593 57.2336L571.46 57.1468L572.327 59.1415L571.026 61.9166L571.373 63.5643L574.149 64.0847L576.49 65.3855L578.832 65.1254L581.26 66.5129L583.601 65.8191L584.469 68.1607L582.127 68.9412L582.561 69.9818H584.989V72.3234L582.474 72.5835L582.647 73.7109L586.55 75.1852L586.984 77.0064L585.162 80.6488L581.693 81.2558L578.918 80.0417L578.225 80.562L576.23 85.2451L583.601 85.0716L583.428 89.7547H577.357L577.01 86.8928L575.796 86.7194L572.501 90.5352L574.495 95.912L580.219 94.958L584.035 91.6626L584.989 89.4945L585.336 85.2451L586.723 84.9849L590.539 86.4592L593.661 89.3211L596.436 93.0501L596.87 95.2182L596.263 96.6925L594.528 98.2535L589.672 99.4676L586.03 99.6411L582.214 101.115L579.265 101.202L579.525 99.988L582.3 98.5137L581.26 98.0801L579.265 99.2075L579.959 95.8253L574.669 96.7792L575.71 97.9933V99.9013L574.756 100.161L572.501 116.552L573.108 117.072L577.097 117.246L577.617 109.354L578.398 106.752L586.897 107.533L585.423 118.113L572.414 117.593L571.287 126.872L572.848 128.26V133.463H575.276V129.994L576.056 129.214L580.826 129.3L587.244 133.983L594.615 141.095L594.702 143.176L591.58 146.818L579.352 146.645V150.461L578.051 151.068L577.964 152.889L579.612 153.583H599.992L601.206 153.756H610.052L613.694 154.884L615.342 153.323L619.244 153.062L619.678 149.94H624.448L626.269 153.496L625.922 153.93L616.729 153.843L618.898 157.485L616.296 158.613L641.012 207.091V208.478L634.508 215.59L636.936 212.468L635.462 210.56L625.922 191.828L629.044 190.267L627.917 188.098L629.391 187.231L622.974 174.656L616.729 177.778L610.746 165.377L615.689 163.036L615.168 161.735H599.732L599.819 174.223L604.762 183.936L599.298 186.537L602.767 193.302L602.073 193.735L606.149 201.887L605.195 202.408L601.033 194.343L594.182 197.898L586.723 182.895L585.336 182.808L583.515 183.936L582.734 182.115L580.219 183.242L586.463 196.25L585.162 197.204L586.723 199.633L588.545 199.979L583.948 202.234L584.989 204.229L579.612 206.744L578.311 206.31V203.969L576.75 202.061L576.577 200.5L573.455 193.909L574.409 189.313L572.501 184.283L570.593 185.237L569.552 184.283L570.68 183.589L569.639 182.635L567.904 175.697L566.951 173.269L565.65 172.488L564.175 168.846L561.747 166.071L563.048 165.984L560.88 163.296L560.967 161.908L563.568 161.648L565.216 164.076H566.69L566.777 158.613L566.257 157.832L564.262 158.092L563.395 155.057L545.53 155.144L543.796 155.404L539.373 157.745L536.164 161.214L535.036 160.087L537.291 158.092L537.465 151.935L539.112 152.282H549.866V153.843L551.08 153.323L552.208 154.016H556.457L554.549 153.583L554.289 152.282L551.167 152.108L551.08 146.992L554.376 146.558V144.91L551.167 144.824L550.993 143.956L552.901 143.349L552.815 141.615L556.37 141.528L556.457 143.436L560.88 143.349L558.538 142.916L558.625 139.967L557.845 137.366H553.508L553.595 135.024L554.809 134.851L553.942 133.29L558.105 132.769L558.018 130.514L556.284 130.168L556.37 128.78L554.549 128.607L553.682 129.647L553.769 132.683L551.427 132.856L550.647 131.382L549.693 126.612L546.571 127.653L542.061 130.341L543.275 133.116L544.229 131.989L548.739 129.474L549.086 130.254L547.525 132.162L544.923 133.81L545.01 136.932L543.969 139.36L542.408 139.013L541.367 136.672L541.107 133.203L542.234 131.902L541.714 131.035L538.852 131.122L533.996 129.474L534.429 127.566L533.302 126.785L535.73 124.184L532.608 119.414L530.961 118.547L531.568 116.465L530.7 114.904Z" fill="black"/>
<circle cx="500" cy="150" fill="#5CE50D"/>
<circle cx="345" cy="246" fill="#E52A0D"/>
<circle cx="425" cy="569" fill="#E52A0D"/>
<circle cx="513" cy="379" fill="#E52A0D"/>
</svg>
