<svg width="1000" height="1000" viewBox="0 0 1000 1000" fill="none" xmlns="http://www.w3.org/2000/svg">
<rect width="1000" height="1000" />
<path d="M574.542 18.6332C572.186 19.1042 569.266 20.5175 567.758 21.9308C565.591 24.0036 564.837 24.2863 563.707 23.3441C562.576 22.4019 561.728 22.9672 558.713 27.0186C555.792 30.8815 554.756 31.7295 553.06 31.2584C551.835 30.9758 550.139 31.2584 549.197 31.8237C547.784 32.6717 546.653 32.6717 544.298 31.8237C541.471 30.8815 540.906 30.9758 539.021 32.7659C537.043 34.556 536.383 34.7444 532.897 33.8023C529.6 32.9543 528.375 33.0485 526.019 34.2734C524.418 35.1213 520.178 36.5346 516.503 37.3826C508.777 39.267 509.06 37.1942 513.677 57.0742C516.692 70.1705 517.634 72.2433 520.837 72.2433C521.78 72.2433 522.722 73.6566 523.381 75.9178C524.889 80.9114 524.889 81.2883 521.968 85.057C519.801 87.6951 518.67 88.2604 515.75 88.2604H512.169L512.735 93.3482C513.3 97.8707 513.206 98.5302 511.51 99.4724C510.285 100.132 509.531 101.828 509.06 104.843C508.589 108.517 507.835 109.836 503.972 113.323C499.544 117.185 499.356 117.657 498.79 123.592C498.413 126.984 497.942 130.188 497.66 130.753C497.283 131.224 494.833 132.731 492.195 134.05C486.259 137.16 478.345 143.472 463.741 156.946C452.529 167.31 452.435 167.404 447.724 167.404C445.18 167.404 441.411 166.933 439.527 166.462C436.983 165.708 433.497 165.802 426.431 166.933C421.154 167.686 414.088 168.346 410.79 168.346C406.268 168.346 403.63 168.911 400.144 170.701C397.6 172.02 393.925 173.057 391.947 173.057C388.743 173.057 388.084 172.586 385.634 168.723C382.337 163.447 380.452 162.693 370.653 162.693C363.87 162.693 362.456 162.976 359.347 165.048C356.521 167.027 355.861 168.063 355.861 170.513C355.861 172.868 355.202 173.905 353.129 175.13C348.889 177.485 346.91 181.065 348.23 183.986C349.831 187.566 349.549 188.226 346.816 187.19C345.403 186.624 342.859 186.53 341.069 186.813C337.866 187.378 337.771 187.566 338.242 191.053C338.619 194.162 338.431 194.633 336.546 195.104C335.322 195.387 332.589 195.01 330.422 194.256C326.182 192.748 317.232 192.277 317.232 193.596C317.232 193.973 317.609 194.727 318.08 195.198C318.551 195.763 319.21 199.061 319.587 202.736L320.341 209.331L318.362 207.541C316.384 205.845 316.29 205.845 312.992 208.766C311.108 210.367 309.317 211.686 308.941 211.686C308.564 211.686 307.716 212.063 307.056 212.534C306.02 213.1 306.491 214.701 309.129 219.977C311.013 223.652 312.521 226.855 312.521 227.044C312.521 228.269 302.439 225.536 297.54 223.087L291.793 220.166L290.851 222.521C289.626 225.725 289.626 229.211 290.945 231.661C292.358 234.299 291.699 234.581 287.741 232.885L284.35 231.472L282.465 236.748C281.335 239.575 280.487 243.438 280.487 245.416C280.487 247.301 279.921 252.671 279.168 257.194L277.943 265.579L270.688 272.834L263.433 280.183L264.093 292.997C264.658 304.397 264.564 306.093 263.15 307.695C261.831 309.108 261.549 311.652 261.36 320.791L261.172 332.097L306.868 362.153L352.564 392.114L353.223 422.264L353.977 452.414L351.527 457.031L349.172 461.742L351.245 466.735C352.658 470.127 353.694 471.634 354.731 471.54C355.955 471.352 356.615 473.425 358.311 482.846C359.536 489.253 361.043 495.189 361.703 496.037C374.14 511.112 377.343 514.504 380.735 516.2C382.902 517.236 386.199 519.592 388.178 521.476C391.287 524.491 391.664 525.339 391.664 529.673C391.664 532.217 392.324 539.472 393.077 545.69C394.02 553.322 394.491 566.795 394.491 587.052V617.107L397.411 622.101L400.238 627.189L397.883 630.298C396.281 632.371 395.433 634.726 395.433 636.799C395.433 638.683 394.773 640.662 394.02 641.322C392.135 642.829 392.229 643.771 394.396 646.786C395.998 649.142 396.187 653.381 397.411 702.092C398.165 731.111 398.73 766.538 398.73 780.764C398.825 794.991 399.202 819.111 399.578 834.186L400.426 861.792L392.606 861.133C386.011 860.662 384.88 860.756 385.257 861.886C385.54 862.64 386.576 865.655 387.519 868.67C388.649 872.25 390.251 875.077 392.135 876.773C394.962 879.223 395.056 879.411 394.868 887.702C394.585 896.276 393.172 901.929 389.874 907.394C388.272 909.938 388.178 910.503 389.403 912.105C390.157 913.141 390.722 915.12 390.722 916.439C390.722 919.36 394.208 922.94 399.767 925.672C405.42 928.499 406.927 931.325 406.174 937.638L405.514 942.82H409.566C413.146 942.82 414.088 943.291 417.197 946.683C420.966 950.734 421.343 952.242 422.379 964.113L422.945 971.745L420.212 972.781C418.611 973.252 413.052 974.477 407.775 975.419C399.013 976.927 398.259 977.21 398.259 979.188C398.259 982.297 399.673 982.674 404.666 981.072C410.319 979.188 428.692 976.738 437.36 976.738C441.506 976.738 454.319 974.76 471.75 971.462C494.55 967.128 501.711 966.092 511.321 965.809C517.822 965.715 525.831 965.15 529.223 964.584C532.615 964.019 537.514 963.548 540.152 963.548C542.79 963.548 550.139 962.511 556.546 961.192C562.953 959.873 568.229 958.837 568.323 958.837C568.418 958.837 568.794 955.539 569.077 951.488C569.36 947.531 570.679 940.276 572.092 935.377C574.636 926.991 574.636 926.426 573.223 923.976C570.867 920.113 572.092 915.968 576.52 912.387C579.912 909.655 580.195 909.184 579.912 905.133C579.63 901.458 579.347 900.893 577.462 900.61C575.861 900.327 574.73 899.103 573.411 896.276C571.809 892.602 571.809 891.942 573.034 887.702C573.788 885.253 574.448 881.201 574.448 878.846C574.448 875.36 573.882 874.041 571.527 871.591L568.7 868.67L570.302 864.807C571.433 861.698 572.94 860.285 576.897 857.929C579.724 856.328 581.985 854.914 581.985 854.726C581.985 854.443 580.76 853.689 579.347 852.936C577.745 852.088 576.049 850.109 575.201 847.942C573.882 844.456 573.882 844.079 575.861 841.253L577.934 838.238L576.143 828.533C574.071 817.227 573.976 816.379 574.259 803.188L574.448 793.107L577.651 793.672L580.854 794.143L581.514 788.302C582.173 782.932 581.985 782.366 580.101 781.047C570.019 773.981 568.794 770.495 568.794 749.107V733.09L565.403 729.792C563.518 728.096 561.257 725.458 560.221 724.139L558.43 721.595L561.728 717.356C563.518 715 565.026 712.079 565.026 710.855C564.931 704.165 568.229 683.72 569.925 680.234C572.186 675.523 571.715 671.471 568.323 664.876C567.099 662.521 565.497 658.281 564.743 655.36C563.518 650.555 563.518 649.801 565.12 646.88C566.062 645.09 566.816 642.546 566.91 641.227C566.91 639.908 567.664 638.118 568.606 637.176C571.338 634.82 572.846 628.979 572.186 624.268C571.809 622.007 571.244 613.15 570.867 604.576C570.396 595.531 569.642 587.806 568.983 586.204C567.852 583.566 567.946 583.283 570.113 581.493C571.715 580.174 572.563 578.572 572.563 576.876C572.563 575.463 573.223 571.883 574.071 568.962C575.578 563.78 575.578 563.686 573.694 562.367C572.092 561.33 571.904 560.671 572.563 559.352C573.788 557.09 576.332 544.936 576.332 541.45C576.332 539.943 576.615 538.529 577.086 538.341C577.462 538.058 580.383 538.341 583.681 538.906C589.146 539.754 589.711 539.66 591.689 537.776C594.893 534.855 603.844 534.949 605.916 537.87L607.33 539.848L615.715 536.268L624.101 532.688L627.681 521.759C629.565 515.729 632.203 508.851 633.428 506.495L635.595 502.067L633.617 490.384C631.355 477.099 631.826 473.707 636.726 471.258C639.929 469.562 647.561 457.502 648.409 452.697C649.257 447.986 651.801 445.724 654.533 447.232C656.417 448.268 657.077 447.891 661.034 444.029L665.368 439.6L662.259 433.947L659.15 428.294L660.563 423.866L662.07 419.343L672.906 415.763L683.741 412.277L687.038 414.255C690.901 416.611 691.843 416.234 695.141 410.581C696.272 408.697 698.627 405.87 700.323 404.363C703.244 401.724 703.527 400.877 704.469 392.868C705.694 381.656 706.542 379.677 709.933 378.924C712.289 378.453 712.854 377.793 713.325 374.872C714.55 367.052 714.079 365.168 709.933 361.022C707.672 358.855 704.469 354.333 702.679 351.035L699.475 344.911L702.961 337.562C704.846 333.51 706.353 328.705 706.353 326.915C706.353 323.994 706.73 323.523 710.687 321.922C713.043 320.885 715.586 320.037 716.434 320.037C717.188 320.037 720.674 321.733 724.255 323.806C727.835 325.879 730.944 327.575 731.132 327.575C731.98 327.575 733.959 321.545 734.713 316.74C735.09 314.102 736.032 309.767 736.88 307.129C737.634 304.397 738.576 297.048 738.953 290.83L739.612 279.523H735.655H731.792L727.929 271.232C724.255 263.318 724.16 262.941 725.574 260.397C728.589 255.027 726.704 239.386 722.653 235.052C720.203 232.509 720.203 232.414 721.428 225.631C722.087 221.862 722.653 218.376 722.747 217.905C722.841 217.434 721.051 216.491 718.884 215.738C715.398 214.513 713.325 212.252 699.664 194.539C691.278 183.703 683.364 172.868 682.045 170.513L679.784 166.367L681.856 158.453C682.987 154.119 683.646 150.162 683.364 149.596C682.987 149.031 684.306 148.183 686.379 147.524C689.771 146.582 690.148 146.11 691.184 141.682C691.749 139.044 693.351 134.427 694.764 131.412L697.214 125.854L694.764 123.31C693.351 121.802 692.22 119.447 692.032 117.468C691.843 114.83 691.278 114.076 689.582 113.888C687.886 113.605 687.415 113.04 687.698 111.344C687.886 109.742 686.756 108.235 682.61 104.843C679.689 102.487 676.392 100.509 675.355 100.509C674.225 100.509 671.681 99.0013 669.608 97.1169C666.028 93.9135 665.462 93.7251 661.034 94.102C658.302 94.3846 654.816 94.1962 653.026 93.6309C650.293 92.7829 649.634 91.8407 646.148 83.4553C644.075 78.3675 642.096 73.1855 641.719 71.7722C640.871 68.2862 631.544 60.9371 628.058 60.9371C625.796 60.9371 625.043 60.3718 624.289 58.2048C623.629 56.4147 621.745 54.7188 618.636 53.0228C614.585 50.7616 613.548 49.5367 610.25 43.0357C606.576 35.6866 606.482 35.5924 602.148 34.9329C598.567 34.4618 597.437 33.7081 595.27 30.6931C591.407 25.5111 582.456 17.5967 580.477 17.691C579.441 17.7852 576.803 18.162 574.542 18.6332Z" fill="black"/>
<circle cx="543" cy="923" fill="#5CE50D" id='78'/>
<circle cx="496" cy="968" fill="#FFE81E" id='77'/>
<circle cx="603" cy="159" fill="#E52A0D"/>
<circle cx="441" cy="702" fill="#E52A0D"/>
<circle cx="411" cy="297" fill="#E52A0D"/>
</svg>
