<svg width="1000" height="1000" viewBox="0 0 1000 1000" fill="none" xmlns="http://www.w3.org/2000/svg">
<g clip-path="url(#clip0_1_390)">
<rect width="1000" height="1000" />
<path d="M734.863 103.713C721.484 108.987 695.312 119.338 676.757 126.663C658.203 133.987 637.109 142.874 629.882 146.487C620.898 150.979 614.355 153.616 609.277 154.592C596.777 157.229 584.667 165.237 567.382 182.131C553.613 195.706 552.148 196.78 510.253 225.393C466.796 255.081 464.355 256.936 427.734 289.358L423.339 293.264L427.538 292.581C431.054 292.092 431.64 292.19 431.64 293.655C431.64 296.389 430.371 297.561 426.757 298.245C423.925 298.733 422.851 299.612 420.898 303.323C418.261 308.108 415.917 309.573 410.546 309.573C408.593 309.573 406.152 310.061 405.078 310.647C404.003 311.233 392.675 320.608 379.882 331.448C360.449 347.854 352.636 353.713 331.835 367.385L306.933 383.694L284.374 392.483C271.972 397.366 251.464 405.471 238.867 410.549C220.312 418.069 212.109 420.803 196.093 424.807C181.64 428.42 170.214 432.131 153.808 438.479L131.347 447.073L114.257 448.831C101.562 450.002 84.8627 450.588 48.9252 450.881C22.4604 451.174 1.17131 451.663 1.56193 452.151C2.05021 452.542 7.32365 454.69 13.183 456.936C23.8276 460.842 24.2182 460.94 36.6205 460.94C48.8276 460.94 49.8041 461.135 62.1088 465.139L74.9018 469.241L84.9604 480.667C93.5541 490.627 95.2143 492.092 97.2651 491.604C99.0229 491.116 104.98 494.143 122.753 504.397C136.23 512.112 147.167 519.045 148.73 520.803C150.195 522.561 154.687 530.471 158.788 538.577C162.89 546.585 170.312 560.647 175.292 569.827L184.374 586.428L185.058 599.612C185.449 609.475 185.253 614.456 184.179 619.534C182.812 625.979 182.91 626.37 184.765 629.006C185.839 630.471 189.746 634.377 193.456 637.6L200.097 643.655L197.167 651.565C194.433 658.987 194.238 660.745 193.749 676.663C193.163 691.897 193.359 694.631 195.117 700.686L196.972 707.522L205.761 707.327C211.132 707.229 221.679 705.764 232.91 703.616C242.968 701.663 251.464 700.393 251.855 700.686C252.148 701.077 254.003 704.202 255.859 707.815C258.886 713.577 259.765 714.358 263.574 715.627L267.968 717.092L270.8 713.772C272.363 711.917 275.39 706.643 277.441 702.053L281.347 693.752L287.597 691.702L293.847 689.651L298.144 702.542L302.343 715.335L301.66 725.393L300.878 735.452L307.324 751.272C310.839 759.963 316.992 772.659 320.996 779.495C327.929 791.311 328.515 791.995 331.835 792.483C338.671 793.557 348.828 799.319 356.738 806.643C367.48 816.604 369.531 820.022 372.949 833.499L375.878 845.022L384.96 854.202C395.996 865.237 401.855 868.948 414.55 872.952C420.41 874.807 425.585 877.053 427.441 878.713L430.468 881.35L423.632 891.018C416.503 900.979 416.21 902.151 420.117 904.69C422.265 905.96 457.324 895.608 469.238 890.139C474.023 887.893 481.249 884.866 485.156 883.206C491.503 880.764 493.261 879.397 499.413 872.561C503.32 868.264 509.667 859.67 513.476 853.518C519.628 843.557 521.581 841.311 530.566 833.792C539.648 826.077 540.82 824.71 542.675 819.631C544.433 814.456 545.117 813.772 550.195 811.038C555.468 808.303 556.152 807.522 562.597 796.389L569.335 784.67L563.964 781.936C561.035 780.471 558.593 779.006 558.593 778.616C558.593 778.323 560.937 775.393 563.769 772.073C566.601 768.752 572.656 760.842 577.148 754.397C581.64 747.952 588.867 738.87 593.261 734.085C600.781 725.881 601.171 725.1 604.687 714.651C608.496 703.323 608.496 703.323 605.761 693.948C605.371 692.483 604.101 693.264 598.242 698.928C592.773 704.299 589.843 706.35 584.57 708.401C578.222 710.94 577.831 710.94 575.976 709.377C574.999 708.401 574.414 707.034 574.609 706.35C574.902 705.667 581.64 696.78 589.453 686.624C598.828 674.71 607.128 662.6 613.281 652.249C621.484 638.284 623.144 634.67 626.269 623.928C629.687 612.307 629.882 610.745 629.882 598.147C629.882 584.67 629.882 584.67 626.855 579.885C624.706 576.663 623.242 575.295 622.167 575.588C621.289 575.881 616.406 576.565 611.425 577.151L602.148 578.323L593.652 574.221L585.156 570.022L580.859 554.983L576.562 539.944L577.831 525.1C578.417 516.897 579.492 502.053 579.98 491.995L580.956 473.635L576.562 456.838C574.121 447.659 569.628 433.303 566.406 425.002L560.644 409.866L563.574 396.194C565.136 388.674 566.308 382.424 566.21 382.327C566.015 382.131 563.085 380.471 559.57 378.518C554.394 375.784 552.734 374.221 551.171 370.901L549.121 366.702L551.269 360.842L553.515 354.983L549.218 350.003L545.019 345.022L548.144 342.092C550.39 339.944 556.054 337.307 568.164 332.913L585.156 326.663L594.531 307.913L604.003 289.065L618.652 284.182C630.566 280.178 634.57 279.299 640.136 279.299C643.945 279.299 651.367 278.616 656.738 277.834C662.109 277.053 673.144 276.37 681.152 276.37H695.8L701.757 272.561L707.714 268.655L708.3 261.135C708.691 257.034 708.984 248.245 708.984 241.702V229.788L718.847 223.635C724.218 220.12 728.808 217.092 729.003 216.799C729.199 216.506 729.589 212.112 730.078 207.034L730.761 197.756L724.999 202.932C721.874 205.764 712.597 213.284 704.589 219.631C692.773 228.909 689.355 232.229 687.206 236.135L684.472 241.116L680.273 237.991C677.929 236.135 673.339 233.987 669.628 233.01L663.085 231.252L666.015 227.151C672.07 218.948 670.703 219.631 679.101 221.194C683.3 221.975 686.816 222.659 687.109 222.659C687.304 222.659 690.039 218.752 693.261 213.967L699.121 205.276L715.136 195.901L731.054 186.526L734.863 178.42C738.085 171.78 740.136 169.045 746.972 162.502L755.273 154.592L752.636 148.733C749.902 142.581 749.316 136.721 750.976 132.424C751.757 130.276 752.539 129.885 756.054 129.885C758.398 129.885 764.16 129.397 768.945 128.811C777.636 127.737 778.32 127.932 779.492 131.057C779.687 131.448 787.89 133.401 797.656 135.354L815.624 138.967L820.019 134.573L824.511 130.081L816.796 125.588C809.374 121.194 808.886 121.096 801.171 121.096C794.335 121.096 792.187 120.608 786.621 118.167C783.007 116.506 778.808 115.237 777.343 115.237C769.726 115.237 771.581 113.772 786.718 107.815L802.245 101.663H786.816L771.386 101.565L766.308 98.3422C763.476 96.5844 760.839 94.8266 760.253 94.6313C759.765 94.3383 748.339 98.4399 734.863 103.713Z" fill="black"/>
<path d="M804.004 208.105C800.098 210.254 796.875 212.598 796.875 213.184C796.973 213.867 797.559 216.797 798.242 219.727C799.317 224.316 799.902 225.293 802.832 226.66C806.543 228.516 807.422 230.566 807.52 238.086C807.617 244.141 805.567 248.73 802.637 249.219C800.488 249.512 799.512 250.781 798.438 254.102C798.047 255.371 796.875 255.859 794.531 255.859C791.602 255.859 790.918 255.469 790.43 253.418C789.942 251.27 789.258 250.977 785.449 250.977C781.348 250.977 780.567 251.465 772.852 258.496L764.649 265.918V272.559C764.649 276.172 765.332 282.715 766.211 287.109C766.992 291.504 767.578 295.215 767.383 295.41C767.188 295.508 765.723 295.41 764.063 295.215C761.035 294.727 760.938 294.629 759.766 286.816C759.082 282.422 758.301 278.418 758.106 278.027C757.813 277.539 755.762 279.785 753.418 282.91C750.488 286.816 747.363 293.359 743.359 304.004C737.988 317.871 737.5 320.02 737.891 325C738.867 336.816 738.867 336.719 744.727 339.551C747.559 341.016 750 342.48 750 342.871C750 343.262 748.535 347.461 746.68 352.246L743.262 360.937L746.777 373.145C749.414 382.422 750.098 386.328 749.609 390.137C749.317 393.555 749.805 397.266 751.27 402.246L753.32 409.57L751.172 419.824L749.121 430.078L754.492 440.137C757.422 445.605 760.645 450.684 761.621 451.367C762.598 452.051 766.309 455.371 769.824 458.691L776.367 464.746L777.246 477.734C777.734 484.863 779.102 496.875 780.274 504.395C782.129 516.699 782.715 518.848 786.621 525.977L790.82 533.887L789.844 551.855C788.867 569.531 788.867 570.02 791.309 579.297L793.75 588.867L790.918 598.633C787.695 609.473 787.598 608.691 793.652 615.527L796.777 619.141H805.957C813.477 619.141 816.504 618.652 823.633 616.211C828.418 614.648 832.813 613.574 833.399 613.965C833.984 614.355 836.719 616.309 839.453 618.359C844.238 621.973 845.215 622.266 861.719 625C871.289 626.66 880.859 627.93 883.203 627.93C885.449 627.93 891.211 626.66 895.996 625C900.781 623.437 904.688 622.168 904.785 622.363C905.859 624.023 907.227 634.766 907.227 641.113V649.121L910.254 649.805C916.211 650.977 918.262 650.391 922.949 646.484C927.637 642.578 929.199 642.09 935.742 643.164C939.258 643.75 939.356 643.945 940.82 650.195C941.602 653.711 942.676 656.836 943.164 657.129C943.652 657.422 949.317 661.133 955.762 665.332C966.602 672.266 967.871 672.852 972.656 672.852C977.246 672.852 978.418 672.363 984.277 667.969C987.793 665.332 992.871 660.742 995.508 657.715L1000.2 652.246L997.266 643.75C991.406 627.051 987.793 620.801 980.176 613.965C976.27 610.547 970.508 605.762 967.285 603.32C958.692 596.777 941.406 577.734 937.305 570.312C933.887 564.062 933.887 563.867 934.668 556.152C935.254 550.488 935.059 546.777 934.082 542.48C933.301 539.258 932.617 532.52 932.617 527.539C932.617 521.582 932.129 517.48 931.25 515.723C930.469 514.258 928.418 507.617 926.758 501.074L923.828 489.16L928.711 480.859C931.445 476.27 935.645 468.555 938.086 463.672L942.481 454.883L944.043 437.207L945.508 419.629L936.914 411.133C932.129 406.445 927.246 402.051 925.977 401.172L923.731 399.707L925.879 391.113L928.027 382.617L925.098 376.562C922.949 372.266 921.192 370.02 918.652 368.652C916.797 367.676 914.551 365.527 913.77 363.867C912.5 361.035 912.598 360.449 915.625 353.613C917.481 349.707 918.945 345.898 918.945 345.312C918.945 344.629 917.188 342.383 914.942 340.332C912.402 337.793 908.887 332.227 905.176 324.902L899.317 313.379L901.465 301.758L903.613 290.234L897.363 284.57C890.137 278.027 878.125 265.723 874.219 260.84C872.754 259.082 868.75 252.246 865.234 245.801L858.887 233.887L849.121 230.469L839.356 226.953L839.063 216.211L838.77 205.566H832.227C828.613 205.566 822.363 205.176 818.359 204.883C811.035 204.102 811.035 204.102 804.004 208.105Z" fill="black"/>
<circle cx="646" cy="234" fill="#5CE50D"/>
<circle cx="443" cy="324" fill="#E52A0D"/>
<circle cx="167" cy="470" fill="#E52A0D"/>
<circle cx="795" cy="264" fill="#E52A0D"/>
</g>
<defs>
<clipPath id="clip0_1_390">
<rect width="1000" height="1000" />
</clipPath>
</defs>
</svg>
