<svg width="1000" height="1000" viewBox="0 0 1000 1000" fill="none" xmlns="http://www.w3.org/2000/svg">
<g clip-path="url(#clip0_1_402)">
<rect width="1000" height="1000" />
<path d="M317.703 29.6797C313.993 30.9492 306.766 33.9766 301.883 36.418C295.047 39.9336 291.727 41.0078 288.407 41.0078C285.575 41.0078 282.547 41.7891 280.203 43.1562C277.078 44.9141 276.297 46.0859 275.614 49.5039L274.735 53.8008L269.168 50.2852C263.993 46.9648 262.918 46.6719 255.496 46.5742C251.004 46.4766 246.61 46.7695 245.731 47.1602C244.461 47.8438 243.778 47.2578 242.508 45.0117L240.946 41.9844H232.059H223.172L231.375 47.8438L239.579 53.7031L239.188 61.5156C238.895 68.8398 239.09 69.7188 241.532 73.2344C243.778 76.3594 244.071 77.6289 243.485 80.8516C242.801 85.1484 242.411 84.9531 254.227 86.418C256.961 86.8086 259.696 87.1992 260.379 87.3945C262.235 88.0781 253.543 95.5 249.246 97.0625C246.414 98.0391 245.34 99.0156 244.95 100.969C244.657 102.336 243.192 105.07 241.629 107.023L238.895 110.539L236.454 108.195L234.012 105.949L231.082 109.562C229.52 111.613 225.614 114.641 222.489 116.301C218.582 118.352 215.75 120.891 213.114 124.504C209.11 129.973 207.84 130.363 207.84 126.359C207.84 123.332 207.45 123.43 199.539 126.945C192.118 130.266 193.387 130.656 184.012 122.355C178.934 117.766 177.664 117.18 173.954 117.18H169.754V111.711C169.754 106.73 169.364 105.754 165.262 100.48C160.282 93.9375 160.672 93.9375 151.883 100.383L147.098 103.801L143.582 101.945C141.629 100.969 139.676 99.9922 139.286 99.7969C138.797 99.6016 138.504 100.285 138.504 101.359C138.504 104.094 130.985 104.875 114.383 103.996L101.395 103.312L99.4418 107.805C98.4652 110.246 97.2933 114.543 96.9027 117.18L96.2191 122.062L100.516 122.16C102.86 122.16 106.766 122.941 109.207 123.82C112.918 125.285 113.7 126.066 114.383 129.191C114.871 131.242 115.067 133.195 114.774 133.488C114.481 133.781 112.723 133.098 110.965 132.023L107.743 130.07L100.711 133.293L93.5824 136.613V145.988V155.363L99.3441 160.637C104.422 165.422 105.399 166.984 108.231 174.895L111.453 183.781L109.305 189.836C107.547 194.621 106.961 199.504 106.082 214.348L105.106 232.902L100.418 245.109C97.2933 253.312 95.2426 257.219 94.3637 257.023C93.6801 256.828 90.7504 256.438 87.8207 256.145C83.7191 255.656 82.2543 255.852 81.473 257.023C79.9105 259.172 70.6332 263.664 67.8012 263.664C60.4769 263.664 42.9965 269.328 38.8949 273.039C37.5277 274.211 33.3285 277.238 29.4223 279.68C21.9027 284.465 20.9262 286.516 21.4144 294.914C21.6098 297.258 20.8285 299.602 18.973 302.434L16.2387 306.535L17.8988 312.199L19.559 317.863L17.2152 319.23C16.0433 320.012 12.9183 322.844 10.3793 325.383C6.766 328.898 5.69178 330.754 5.69178 333.098C5.69178 335.246 6.18006 336.223 7.64491 336.613C10.2816 337.297 10.0863 338.176 6.86366 339.641C0.320688 342.473 -2.80431 349.113 1.98084 349.797C3.641 349.992 4.32459 350.969 4.71522 353.508C5.39881 357.707 18.2894 377.238 23.0746 381.438L26.5902 384.465L23.9535 388.957C22.4887 391.398 21.3168 393.645 21.3168 393.938C21.3168 394.23 24.3441 394.523 28.0551 394.523C31.766 394.523 37.0394 395.012 39.7738 395.695C44.266 396.672 44.7543 397.062 44.7543 399.406C44.7543 400.871 45.4379 402.727 46.3168 403.41C47.1957 404.094 48.2699 405.656 48.6605 406.828C49.5394 409.074 53.641 410.148 61.8441 410.148C66.434 410.051 67.3129 409.66 76.9808 402.336C82.5472 398.039 87.723 394.523 88.309 394.523C88.8949 394.523 89.9691 395.207 90.6527 395.988C91.6293 397.16 91.434 398.43 89.6762 402.727C87.6254 407.609 87.5277 408.488 88.6019 415.422C89.1879 419.523 89.6762 424.895 89.6762 427.238C89.6762 431.047 90.0668 431.73 92.6058 433.098C96.5121 435.148 98.4652 434.953 102.567 432.121C105.985 429.777 106.864 429.68 119.657 429.68C127.078 429.68 134.5 430.07 136.063 430.461C140.75 431.828 146.805 429.777 149.735 425.871C151.102 423.82 153.934 421.77 156.375 420.891C158.621 420.012 163.309 417.277 166.727 414.738C170.145 412.199 173.954 410.148 175.223 410.148C176.59 410.148 178.153 409.172 179.227 407.609C181.473 404.094 187.332 400.578 195.438 397.844C200.809 395.988 204.422 395.5 211.844 395.5C222.879 395.5 223.27 395.891 220.926 404.582C219.071 411.418 219.168 417.961 221.121 420.793C222.293 422.453 222.586 424.211 222.098 427.434C221.805 429.875 221.903 433.488 222.489 435.441C222.977 437.395 223.661 440.129 223.954 441.594C224.344 443.645 225.418 444.523 229.227 445.793C232.45 446.867 234.891 448.527 236.649 450.773C238.309 452.922 239.969 454.094 241.532 454.094C243.485 454.094 243.973 454.777 244.559 457.512C245.145 460.539 245.438 460.93 249.539 461.516C251.981 461.906 256.961 461.906 260.672 461.613C265.848 461.223 267.508 461.418 268.485 462.492C270.731 465.227 275.125 466.887 277.078 465.91C278.446 465.129 279.422 465.52 281.571 467.766C283.133 469.426 285.086 470.695 285.965 470.695C286.844 470.695 288.993 471.77 290.848 473.137C293.289 474.895 295.34 475.578 298.856 475.578C303.055 475.578 303.543 475.871 304.129 478.02C304.422 479.387 306.082 481.535 307.84 482.805C310.477 484.758 312.43 485.148 322.098 485.734C336.356 486.516 337.918 486.809 342.118 490.617C344.95 493.059 345.633 494.621 346.317 499.016C346.903 502.922 348.27 506.145 351.2 510.441C353.934 514.543 355.301 517.57 355.301 519.719C355.301 522.941 355.301 522.941 350.907 522.648C346.903 522.258 346.512 522.453 345.926 524.895C345.438 526.848 345.926 528.215 348.172 531.047C350.321 533.684 351.2 536.125 351.59 540.031C351.981 542.961 352.957 547.258 353.836 549.504L355.496 553.703L370.828 553.801C379.227 553.898 388.7 553.801 392.02 553.703C399.051 553.508 400.125 554.68 397.782 560.246C396.903 562.199 396.317 566.691 396.317 570.695V577.629L403.446 582.219C407.254 584.758 411.649 587.297 413.211 587.98C416.922 589.641 418.094 594.719 417.996 608.098V619.133L414.09 623.723C410.379 628.215 406.082 639.152 406.082 644.23C406.082 647.648 410.086 661.613 412.039 664.641C414.383 668.449 414.481 674.895 412.235 683.098C410.868 688.371 410.77 689.738 411.844 691.691C412.821 693.449 412.821 694.621 412.039 696.086C410.184 699.504 410.77 699.992 417.703 701.164C423.465 702.238 425.028 702.238 429.032 700.773C433.426 699.309 433.914 699.309 435.477 700.773C437.137 702.238 437.43 702.238 439.871 700.285C442.508 698.137 444.168 698.332 444.168 700.773C444.168 701.75 445.536 702.141 449.637 702.141C454.325 702.141 455.692 702.629 458.914 705.168C461.063 706.828 463.211 709.172 463.895 710.246C465.946 714.055 468.582 725.969 469.168 734.172C469.852 741.789 470.047 742.375 472.684 743.742C475.125 745.012 476.2 745.012 483.231 743.352L491.141 741.496L492.899 743.742C497.782 749.992 497.586 759.758 492.118 774.113C489.188 781.926 489.188 782.219 491.043 783.195C492.02 783.684 494.168 784.172 495.731 784.172C497.293 784.172 500.614 785.051 502.957 786.125C509.305 788.957 510.575 792.766 510.477 809.074C510.477 821.672 510.477 821.77 507.84 823.82C506.375 824.895 502.567 826.848 499.344 828.117C495.828 829.484 491.043 832.609 487.235 835.832C483.914 838.859 478.641 843.352 475.516 845.793C463.993 855.266 453.25 866.594 451.981 870.598C451.297 872.746 448.563 877.043 446.024 880.168C443.387 883.293 440.555 887.199 439.578 888.762C438.602 890.324 437.039 891.887 435.868 892.18C434.793 892.57 432.352 894.035 430.399 895.598C427.469 897.844 426.981 898.82 427.371 901.262C427.664 903.605 428.348 904.289 430.789 904.875C433.328 905.363 434.11 905.07 436.063 902.727C438.895 899.113 443.68 899.309 446.61 903.117C447.684 904.582 451.297 908.488 454.618 911.906C458.036 915.227 460.77 918.84 460.77 919.816C460.77 920.793 461.551 922.258 462.625 923.234C464.188 924.699 464.481 924.699 465.653 923.332C466.336 922.453 467.801 921.281 468.875 920.695C470.633 919.816 471.61 920.5 476.883 926.164C481.864 931.535 483.426 932.609 486.063 932.609C488.7 932.609 490.36 933.781 496.512 940.227C500.516 944.328 504.032 948.039 504.422 948.43C504.911 948.82 509.305 953.117 514.383 958C522.391 965.715 530.887 971.672 533.914 971.672C534.403 971.672 535.868 970.012 537.039 967.961C538.211 966.008 543.289 960.148 548.172 955.07C553.153 949.992 558.621 943.547 560.379 940.91C562.235 938.176 566.727 932.316 570.536 927.727C581.668 914.445 582.938 912.492 584.5 906.633C586.356 899.406 592.313 891.105 602.469 881.34C611.063 873.137 622.879 859.074 622.879 857.121C622.879 856.438 624.442 852.727 626.297 848.82C629.52 842.082 629.618 841.496 628.25 838.859C627.469 837.297 626.786 834.367 626.786 832.414C626.786 830.363 626.102 826.555 625.223 823.82C623.661 818.84 623.758 818.742 627.274 807.121C632.547 789.738 635.282 785.246 644.266 778.898C648.368 775.969 655.008 770.402 659.012 766.398C668.387 757.219 674.051 753.605 684.012 750.285L692.02 747.746L698.075 750.285C701.395 751.75 704.52 752.922 705.008 752.922C705.496 752.922 706.766 751.555 707.743 749.895C709.207 747.551 709.403 746.184 708.719 744.328C708.231 742.961 707.938 741.691 708.231 741.496C708.426 741.203 711.746 740.031 715.555 738.859C722.391 736.711 722.489 736.613 720.536 734.855C717.899 732.414 718.875 731.438 724.149 731.438C727.274 731.438 729.032 731.926 729.911 733.098C731.082 734.758 731.571 734.465 736.063 729.973L741.043 725.188V728.703V732.219L756.961 732.805C765.653 733.195 775.614 733.586 779.129 733.684L785.477 733.879L786.453 727.922C787.723 720.305 789.969 717.668 797.684 714.934C806.18 711.906 810.379 707.316 810.379 701.066C810.379 697.355 810.868 696.184 813.7 693.449C815.848 691.398 817.215 688.957 817.606 686.516C818.094 683.391 819.266 681.926 825.907 676.652C832.84 670.988 833.817 669.914 835.282 664.836C836.649 660.441 837.625 658.977 840.262 657.609C842.997 656.145 844.168 654.289 847.391 646.477C850.125 640.031 851.395 635.246 851.688 630.852C852.469 619.523 855.106 612.395 860.282 607.316L864.872 602.824L866.434 589.738C867.313 581.828 869.168 572.551 871.024 566.398C873.856 557.121 874.247 554.484 874.832 538.078C875.418 522.746 876.004 517.961 878.641 506.34C880.399 498.82 882.84 490.227 884.012 487.297L886.161 481.926L891.629 481.438L897.196 480.949L903.348 472.648C909.793 464.152 917.606 451.555 922 442.766C923.465 439.934 926.688 435.93 929.813 433.293C932.84 430.754 936.844 426.555 938.7 423.918C941.727 419.914 943.094 418.938 947.196 417.863C951.493 416.691 952.86 415.617 959.598 408C979.52 385.148 982.352 381.34 988.309 369.621C999.735 347.16 1001.39 340.031 997.391 330.168C996.024 326.652 994.95 321.965 994.95 319.719C994.95 312.199 992.801 300.383 990.848 296.965C989.872 295.109 988.7 290.812 988.407 287.297C987.821 281.145 987.625 280.754 982.059 275.188L976.395 269.523H965.946C942.411 269.426 924.051 260.441 911.258 242.473C907.547 237.199 905.692 235.637 899.832 232.805C895.34 230.461 890.555 226.945 886.063 222.551C879.715 216.398 878.543 215.617 869.168 212.395C859.207 208.977 858.524 208.879 837.918 208C825.223 207.512 814.383 206.535 810.868 205.656C807.645 204.875 802.664 204.191 799.832 204.094C795.926 204.094 792.996 203.215 787.723 200.578C783.914 198.625 777.86 196.477 774.246 195.695C770.536 195.012 767.02 194.133 766.239 193.84C765.457 193.547 763.993 194.523 762.723 196.281C760.868 198.723 759.891 199.211 756.278 199.211C752.371 199.211 751.688 199.602 748.368 203.703L744.657 208.195L743.387 205.949C742.215 203.801 742.508 203.312 746.024 199.699C748.075 197.453 749.832 195.012 749.832 194.23C749.832 193.449 747.879 191.301 745.536 189.543C741.922 186.809 741.043 185.539 740.36 181.73C739.676 177.922 738.993 176.945 736.161 175.578C733.914 174.406 731.473 174.016 729.129 174.309C726.004 174.699 724.539 174.211 719.168 170.5C715.75 168.156 711.258 165.715 709.11 165.031C707.059 164.348 700.125 161.418 693.68 158.391L681.961 152.922L668.973 152.531L655.985 152.141L653.055 154.875C651.395 156.438 648.075 160.734 645.536 164.445C640.653 171.574 635.965 174.797 630.692 174.797H627.762L635.086 164.641C644.168 152.238 645.145 149.309 642.118 144.816C639.578 141.008 636.356 139.738 627.762 138.957C620.34 138.371 611.453 133.781 610.965 130.461C610.672 128.703 609.891 128.41 605.106 128.117C599.93 127.824 599.539 127.629 598.075 124.602C595.926 120.012 596.121 118.156 598.758 118.156C602.86 118.156 603.446 117.082 602.371 111.223C601.688 107.512 601.688 104.191 602.371 100.578C603.348 95.3047 603.348 95.1094 600.711 93.0586C599.149 91.7891 596.61 90.8125 594.95 90.8125C592.118 90.8125 591.825 90.5195 591.336 87.1016C590.946 85.0508 590.067 82.6094 589.286 81.5352C588.016 79.7773 587.821 79.7773 585.282 81.4375C583.817 82.4141 582.45 83 582.254 82.707C581.961 82.5117 581.375 79.582 580.789 76.2617C580.203 72.6484 578.641 68.3516 576.981 65.5195C574.735 61.9062 574.051 59.6602 574.051 55.5586C573.953 41.5938 568.387 30.2656 561.649 30.2656C559.012 30.2656 557.254 31.2422 553.348 34.8555C547.196 40.7148 536.649 60.9297 535.477 69.1328C534.891 73.4297 534.11 74.8945 530.887 77.9219L527.078 81.5352L516.239 80.6562C508.524 79.9727 503.934 80.0703 499.93 80.8516C496.805 81.5352 491.825 82.0234 488.7 82.0234C483.719 82.0234 482.45 81.6328 478.25 78.6055L473.563 75.0898L467.02 76.2617C463.407 76.8477 457.84 77.1406 454.618 76.75C449.93 76.2617 448.368 76.457 446.903 77.8242C444.754 79.7773 444.657 84.0742 446.707 88.0781C448.953 92.375 447.489 92.9609 434.793 92.4727C426.004 92.2773 423.368 91.7891 420.536 90.1289L417.02 88.0781L411.356 92.7656C406.668 96.5742 402.86 98.4297 391.922 102.434C375.614 108.391 372.489 108.586 365.653 104.191C362.918 102.336 359.305 100.09 357.547 99.1133C354.129 97.1602 353.348 95.3047 353.348 88.8594C353.348 86.418 352.664 82.0234 351.883 79.0938C351.102 76.1641 350.516 71.4766 350.614 68.7422C350.711 64.9336 350.223 62.9805 348.661 60.7344L346.512 57.8047L351.395 53.7031C356.082 49.6992 356.278 49.5039 356.278 44.4258C356.278 39.543 356.082 39.0547 352.469 36.2227C349.539 33.8789 347.684 33.1953 344.559 33.1953C341.336 33.1953 339.676 32.5117 337.039 30.2656C332.938 26.6523 327.762 26.457 317.703 29.6797Z" fill="black"/>
<circle cx="646" cy="500" fill="#5CE50D"/>
<circle cx="596" cy="138" fill="#E52A0D"/>
<circle cx="889" cy="470" fill="#E52A0D"/>
<circle cx="706" cy="742" fill="#E52A0D"/>
</g>
<defs>
<clipPath id="clip0_1_402">
<rect width="1000" height="1000" />
</clipPath>
</defs>
</svg>
