<svg width="1000" height="1000" viewBox="0 0 1000 1000" fill="none" xmlns="http://www.w3.org/2000/svg">
<g clip-path="url(#clip0_1_590)">
<rect width="1000" height="1000" />
<path d="M520.643 76.2549C517.03 79.3799 515.467 80.0635 512.147 80.1611C507.557 80.1611 507.655 80.0635 506.19 88.8525C505.409 93.54 505.799 93.2471 497.01 95.2002C494.959 95.6885 493.983 96.958 492.127 101.646C490.467 106.04 489.002 108.188 486.268 109.946C483.241 111.997 482.557 113.169 481.581 117.856C480.897 120.884 480.604 127.036 480.799 131.528L481.092 139.731H472.889C467.127 139.731 462.635 139.146 458.045 137.583L451.502 135.532L448.475 137.681L445.35 139.927L440.077 136.411C433.241 131.919 426.6 131.626 418.202 135.337C412.928 137.778 412.635 138.071 409.901 145.005L406.971 152.134L401.6 153.892C398.573 154.868 393.202 155.845 389.588 156.138C383.338 156.528 382.85 156.724 380.995 159.946C379.53 162.388 379.042 165.024 379.042 169.81V176.353L374.647 179.087C372.206 180.649 370.252 182.31 370.252 182.798C370.252 183.384 371.131 185.532 372.303 187.681L374.256 191.685L369.862 196.372C367.225 199.204 365.37 202.134 365.37 203.403C365.37 204.673 364.002 207.603 362.44 210.044C360.877 212.485 359.51 214.927 359.51 215.513C359.51 216.001 361.073 217.954 362.928 219.81L366.346 223.13L373.182 221.958C377.87 221.177 381.385 221.079 384.608 221.763C387.245 222.251 390.565 222.837 392.127 222.935C394.374 223.13 395.252 223.911 396.131 226.743C397.303 230.063 397.303 230.259 393.788 233.188C391.834 234.849 387.928 237.583 385.292 239.243C380.799 241.978 380.213 242.759 379.042 247.544C378.358 250.474 377.479 253.403 377.088 253.989C376.6 254.771 373.768 254.282 366.737 252.134C353.553 248.032 350.135 248.13 345.643 252.72C342.518 255.942 341.834 257.603 340.272 264.927L338.612 273.423L328.749 277.329C323.377 279.478 317.03 281.724 314.588 282.31C312.147 282.993 306.385 285.435 301.698 287.876L293.104 292.271V299.79C293.104 306.919 292.909 307.505 290.174 310.142C288.514 311.704 286.659 315.024 285.877 317.759C284.51 322.251 284.608 323.618 286.463 333.579L288.514 344.614L285.389 349.79C283.631 352.72 280.995 356.235 279.725 357.7C277.577 359.946 277.284 360.923 277.87 364.243L278.456 368.149L271.131 373.716C265.174 378.208 263.905 379.575 264.295 381.333C264.588 382.407 265.174 385.337 265.565 387.778C266.249 391.978 266.444 392.173 269.862 392.466C272.499 392.661 274.549 392.075 277.186 390.317L280.799 387.778L284.999 394.419C287.342 398.032 289.393 401.841 289.784 402.915C290.077 404.087 289.588 408.188 288.807 412.192C287.928 416.196 287.245 419.81 287.245 420.2C287.245 420.591 285.78 421.177 283.924 421.47C279.725 422.349 262.342 418.931 262.44 417.271C262.538 416.587 262.635 414.634 262.733 412.778C262.831 410.142 263.319 409.263 265.37 408.579L267.909 407.7L264.393 403.501C262.44 401.157 259.999 398.228 259.022 396.86L257.167 394.517L250.624 398.13C244.276 401.646 244.081 401.646 238.709 400.571C235.682 399.985 232.85 399.497 232.459 399.497C232.069 399.497 231.483 401.353 231.092 403.599C230.116 409.849 224.549 417.661 219.471 420.2L215.174 422.251L212.245 419.81C210.682 418.442 207.362 416.782 204.92 416.099C200.624 414.927 200.135 415.024 195.252 417.856L190.077 420.688V427.427C190.174 431.138 190.467 436.411 190.956 439.048L191.737 444.028L187.831 446.763L183.827 449.497L178.358 446.567L172.889 443.54L166.346 446.665C162.733 448.325 155.995 452.72 151.307 456.333C144.081 461.997 142.323 462.974 139.002 462.974H134.999L134.413 458.286C134.12 455.747 133.729 453.013 133.631 452.231C133.534 451.45 131.581 449.497 129.237 447.935L125.135 445.005L120.838 449.204L116.639 453.306L108.241 451.548C100.721 450.083 99.354 449.985 95.1548 451.255C87.7329 453.501 70.8384 452.622 62.8305 449.692L56.4829 447.251L57.0688 458.774C57.4595 465.122 58.436 473.13 59.2173 476.646C59.9985 480.161 61.3657 490.22 62.147 498.911C63.5141 513.462 64.1977 516.685 69.5688 534.556C72.8891 545.396 77.186 557.798 79.2368 562.095C81.1899 566.392 83.5337 573.716 84.5102 578.306L86.2681 586.606L83.9243 591.392L81.4829 596.177L83.729 601.548C87.0493 609.849 87.2446 611.997 86.1704 637.974L85.2915 662.192L81.7759 666.88C78.7485 671.079 77.3813 672.056 70.2524 674.692C64.686 676.841 59.6079 677.915 53.7485 678.403L45.4477 678.989L36.268 686.509C27.772 693.345 26.0141 695.493 15.0766 711.509C8.53367 721.177 2.47899 730.063 1.60008 731.235C0.135237 733.188 0.232893 733.579 3.06492 738.169C5.50633 742.173 6.58055 743.052 9.70555 743.638C11.6587 743.931 17.0298 746.372 21.6196 748.911C28.4555 752.72 30.5063 754.478 33.2407 758.677C34.9985 761.411 37.2446 763.755 38.1235 763.755C39.0024 763.755 41.3462 765.415 43.2993 767.368C46.3266 770.493 47.1079 772.251 47.9868 777.72C49.1587 784.263 49.1587 784.458 46.1313 790.024C44.3735 793.345 43.104 797.251 43.104 799.204C43.104 801.157 42.6157 804.868 41.9321 807.603C40.9555 811.899 41.0532 813.071 42.4204 816.099L44.0805 819.517L38.9048 821.86L33.6313 824.106L32.3618 832.31C31.5805 836.704 30.9946 842.563 30.9946 845.298C30.9946 851.06 32.8501 866.196 33.729 866.978C34.022 867.368 36.0727 867.075 38.3188 866.392C42.1274 865.22 42.3227 865.024 41.7368 862.095C41.4438 860.337 40.9555 857.114 40.5649 854.966L39.979 850.864L44.9595 849.79C55.5063 847.544 67.7134 849.497 68.9829 853.696C69.5688 855.454 74.7446 857.505 78.5532 857.505C79.5298 857.505 82.9477 855.747 86.0727 853.599C89.2954 851.45 95.7407 847.544 100.428 845.005C108.827 840.513 109.022 840.22 110.78 835.239C111.659 832.31 112.928 826.841 113.514 822.935L114.588 815.903L122.01 813.071C131.19 809.556 143.495 808.481 158.143 809.849C172.987 811.216 191.639 808.872 198.377 804.673C201.6 802.72 205.018 801.548 208.631 801.157C213.514 800.669 214.881 800.962 221.62 804.087L229.139 807.7L247.499 808.286C260.877 808.774 266.737 808.677 269.471 807.798C272.792 806.724 273.866 806.821 281.288 809.653C288.905 812.388 290.077 812.583 297.889 811.997L306.288 811.411L311.952 816.392L317.616 821.372H329.334H340.956L343.104 825.767L345.252 830.161H355.799H366.346L381.19 836.118C393.299 840.903 396.717 841.88 399.549 841.392C401.405 841.099 406.971 840.61 411.756 840.317C419.471 839.927 420.838 840.122 422.791 841.782C425.038 843.735 425.038 843.833 423.475 849.497C421.424 857.798 421.522 858.188 425.721 858.872C435.291 860.532 434.608 859.849 434.022 866.392L433.436 872.153H439.491C444.081 872.153 446.62 871.567 449.647 869.81C455.116 866.782 459.608 866.001 461.073 867.759C461.756 868.54 463.514 869.224 464.979 869.224C476.893 869.224 480.213 871.86 477.284 878.989C476.405 881.138 475.721 884.458 475.721 886.216C475.721 889.341 476.014 889.536 480.311 890.61C484.413 891.685 484.999 891.587 486.756 889.829C488.612 888.071 488.612 887.388 487.635 881.138C486.659 875.278 486.756 873.716 488.221 869.321L489.881 864.243L495.741 868.345C498.963 870.591 502.772 873.813 504.237 875.474L506.776 878.501L515.272 874.302C521.327 871.372 524.159 869.321 525.331 867.173C528.065 862.29 528.749 861.704 532.655 861.118C536.17 860.532 536.268 860.63 536.268 863.755C536.268 866.001 537.147 867.759 539.588 870.103C541.639 872.056 543.299 874.985 543.983 877.622C544.569 879.966 545.35 881.919 545.643 881.919C547.01 881.919 553.553 878.013 555.213 876.157C557.069 874.106 560.877 873.618 565.174 874.888C568.006 875.864 579.823 889.927 581.19 894.126C582.264 897.544 585.78 900.083 591.737 901.841C593.788 902.524 593.885 902.329 593.885 897.446C593.885 894.712 594.862 889.731 596.034 886.606C597.889 881.431 598.573 880.552 602.772 878.403C605.702 876.938 609.12 876.06 611.854 876.06C616.053 876.06 616.444 875.864 618.202 872.251C621.131 866.489 625.428 863.364 630.311 863.364C636.561 863.364 638.807 864.243 638.807 866.685C638.807 867.759 639.979 871.763 641.346 875.571C642.713 879.282 644.471 885.239 645.155 888.755C645.838 892.27 647.694 897.935 649.159 901.255L651.795 907.505L656.288 906.919C662.928 906.04 671.131 901.841 673.475 898.228C674.745 896.274 676.405 895.005 678.065 894.81C679.823 894.614 680.897 893.735 681.581 891.782C682.362 889.634 683.436 888.95 687.049 888.071C691.346 887.095 691.932 887.192 694.471 889.438C696.034 890.708 697.596 892.563 697.889 893.54C698.182 894.614 700.526 895.884 704.139 897.056C709.901 898.813 709.901 898.813 713.221 896.567C714.979 895.298 718.202 892.368 720.35 889.927L724.354 885.532L733.534 885.142C738.612 884.849 744.276 885.044 746.131 885.532C749.061 886.313 749.745 887.095 751.112 891.196C752.479 895.591 753.163 896.372 757.655 898.52C762.733 900.962 762.733 900.962 762.635 905.356C762.538 907.798 763.026 911.606 763.612 913.853C764.686 917.368 765.37 918.052 769.178 919.321C771.522 920.2 775.428 922.153 777.87 923.813C783.241 927.524 785.096 927.622 786.366 924.106C786.952 922.642 788.807 919.907 790.565 918.052C795.448 912.974 795.838 908.872 792.127 900.278C790.174 895.591 789.198 891.489 789.198 888.364C789.198 882.017 787.44 877.427 784.608 876.157C782.655 875.278 782.362 874.497 782.362 869.224C782.362 864.341 783.045 861.997 785.877 856.235C787.831 852.427 790.272 848.032 791.249 846.567C792.323 845.2 793.104 843.247 793.104 842.368C793.104 839.829 800.526 821.665 802.967 818.345C804.042 816.782 806.288 814.829 807.85 814.048C809.803 812.974 810.682 811.802 810.682 810.142C810.682 808.384 811.366 807.603 813.026 807.114C814.295 806.821 817.03 804.868 819.081 802.72C821.131 800.669 823.475 798.911 824.354 798.911C826.014 798.911 829.237 795.981 829.237 794.614C829.237 794.126 828.163 792.954 826.795 791.88C824.842 790.415 824.354 789.145 824.354 785.923C824.354 779.282 824.647 779.087 837.245 779.478C848.084 779.868 848.475 779.966 852.381 783.091C857.948 787.485 859.51 787.29 859.51 782.017C859.51 777.915 859.706 777.622 863.417 775.962C866.834 774.399 869.081 774.302 882.264 774.79C895.057 775.376 898.084 775.181 904.237 773.618C908.241 772.544 911.561 771.567 911.659 771.372C911.659 771.177 912.538 770.103 913.514 769.028C915.272 766.978 915.174 766.782 910.584 760.239C907.655 756.04 905.799 752.231 905.409 749.692C904.92 746.177 904.53 745.688 900.819 744.517C898.28 743.638 895.838 741.88 894.471 740.122C892.518 737.29 892.42 736.704 893.495 731.528C894.374 727.622 894.374 725.083 893.69 723.228C893.202 721.86 892.713 718.931 892.713 716.782C892.713 714.634 891.834 711.216 890.76 709.067C888.612 704.868 889.1 701.938 892.713 698.325C895.448 695.591 895.252 695.103 890.76 692.075C888.612 690.708 886.854 688.755 886.854 687.778C886.854 686.899 885.487 683.286 883.924 679.966L880.995 673.716L883.436 670.786C885.682 668.149 885.877 667.075 885.877 659.263C885.877 649.009 885.487 648.325 874.354 640.903C868.397 636.899 866.151 634.653 861.366 627.427C856.483 620.005 855.604 618.052 855.604 614.341C855.604 609.263 855.897 608.677 860.389 605.552C863.612 603.306 863.612 603.208 863.124 597.837C862.635 592.954 862.831 591.88 865.37 587.876L868.202 583.286L874.061 584.556C879.334 585.63 880.213 585.63 882.948 583.97C886.366 581.821 891.834 581.626 899.842 583.188C904.92 584.263 905.409 584.556 905.409 586.899C905.409 592.075 906.385 593.345 911.561 595.2C914.881 596.372 920.155 597.153 926.698 597.446C935.877 597.837 937.538 597.642 944.276 595.2C955.897 591.099 957.948 590.024 959.999 586.411C961.463 583.97 963.026 582.896 966.151 582.017C972.303 580.454 975.428 575.962 976.307 567.368L976.991 560.63L980.506 560.142C982.459 559.849 986.268 558.481 989.002 557.017C992.713 555.161 994.862 554.673 997.108 555.063L1000.14 555.649V548.521C1000.14 544.517 999.647 539.048 998.963 536.411C997.987 532.017 997.499 531.333 993.885 529.771C991.639 528.794 988.319 526.255 986.463 524.204C984.51 522.153 979.432 518.735 974.842 516.392C967.03 512.485 966.542 512.095 965.37 508.091L964.198 503.892L967.909 501.255C969.959 499.79 972.401 498.13 973.377 497.544C975.135 496.567 975.038 496.177 971.815 492.466C968.788 488.95 968.006 488.462 965.077 488.853C962.342 489.145 960.975 488.56 957.264 485.532C952.674 481.626 943.788 476.841 937.538 474.79C934.413 473.813 933.338 474.009 927.088 476.646C921.424 479.087 918.788 479.575 912.733 479.575C905.604 479.575 896.62 478.013 896.62 476.841C896.62 476.45 898.866 469.81 901.6 462.095L906.678 448.032L901.112 436.899L895.545 425.864H890.37C885.682 425.864 884.706 425.474 879.139 420.981C875.721 418.247 871.131 415.122 868.885 414.048C866.737 412.876 861.268 409.946 856.874 407.505C849.061 403.11 848.963 402.915 848.28 398.521C847.499 393.149 842.03 366.099 841.737 365.806C841.542 365.708 838.514 364.829 834.999 363.853C829.92 362.583 828.26 361.606 827.381 359.751C825.624 355.845 826.112 353.306 829.725 349.595C833.045 346.274 836.854 336.606 835.292 335.63C834.901 335.435 830.311 334.263 825.135 333.091C815.565 330.942 815.565 330.942 814.588 327.329C814.1 325.376 813.612 323.325 813.612 322.642C813.612 322.056 809.217 318.247 803.846 314.341C794.276 307.31 794.081 307.114 794.081 303.208C794.081 300.278 794.667 298.716 796.522 296.958C798.67 295.005 798.963 293.833 798.963 288.169C798.963 282.114 799.159 281.626 801.893 280.063C804.432 278.501 804.627 278.013 803.846 275.864C802.186 271.567 802.479 271.274 808.338 271.958L813.905 272.544L813.221 268.931C812.831 266.88 812.342 262.778 812.049 259.849C811.756 256.919 811.073 251.938 810.487 248.911C809.51 243.735 809.022 242.954 804.432 239.438C800.721 236.704 799.061 234.653 798.182 231.821C797.499 229.673 796.131 227.134 795.057 226.157C793.495 224.79 793.104 223.13 793.104 218.345V212.29L797.987 210.044C800.721 208.774 802.87 207.114 802.87 206.333C802.87 205.552 802.186 202.622 801.307 199.692C800.233 195.884 800.135 194.028 800.819 192.563C801.405 191.489 801.893 185.728 801.893 179.673V168.735L793.104 169.321L784.315 169.907L782.459 166.294C780.897 163.364 779.53 162.29 774.647 160.435L768.592 158.091L769.178 152.622L769.764 147.056L763.905 143.735C758.534 140.708 757.948 140.024 757.948 137.192V134.165L751.112 133.481C745.155 132.896 743.69 132.31 739.393 128.892C736.756 126.841 734.12 125.083 733.534 125.083C732.948 125.083 730.799 126.157 728.651 127.524C723.963 130.454 723.963 130.454 718.495 127.915C714.198 125.767 714.198 125.767 705.799 127.524C697.401 129.282 697.401 129.282 691.932 135.532C687.147 140.903 686.073 141.685 683.045 141.685C679.823 141.685 678.651 142.563 671.034 150.669L662.635 159.556L656.874 153.013C649.647 144.907 648.182 140.61 649.647 132.407C650.233 129.185 651.6 124.595 652.674 122.251L654.53 117.954L652.284 115.61C651.112 114.341 646.327 110.728 641.737 107.603C632.557 101.255 627.284 99.6924 615.565 99.6924H609.315L600.624 106.626L591.932 113.56L587.147 110.044C582.85 106.821 582.362 106.138 581.874 101.548C581.19 95.9814 576.795 89.9268 572.303 88.1689C569.276 86.9971 553.065 89.9268 548.768 92.3682C545.252 94.4189 543.495 94.2236 538.612 91.3916C535.096 89.3408 533.729 87.4854 530.311 80.6494C528.065 76.0596 525.917 72.3486 525.624 72.3486C525.331 72.3486 523.084 74.1064 520.643 76.2549Z" fill="black"/>
<circle cx="500" cy="500" fill="#5CE50D"/>
<circle cx="681" cy="273" fill="#E52A0D"/>
<circle cx="79" cy="762" fill="#E52A0D"/>
<circle cx="822" cy="732" fill="#E52A0D"/>
</g>
<defs>
<clipPath id="clip0_1_590">
<rect width="1000" height="1000" />
</clipPath>
</defs>
</svg>
