<svg width="1000" height="1000" viewBox="0 0 1000 1000" fill="none" xmlns="http://www.w3.org/2000/svg">
<rect width="1000" height="1000" />
<path d="M525.793 14.4792C523.407 15.7199 520.925 17.4378 520.257 18.2014C518.539 20.301 516.344 20.1101 516.344 17.915C516.344 15.7199 514.531 14.9564 509.473 14.9564C506.419 14.9564 504.223 15.9108 498.211 20.2056L490.862 25.3593L488.667 36.6212C486.567 47.0241 486.185 48.074 482.654 51.8915C479.123 55.8046 478.932 56.0909 480.459 57.7134C483.322 60.9583 482.177 63.2488 471.392 75.4651C462.612 85.4863 460.989 87.7769 461.944 88.9221C462.707 89.8765 462.898 91.5945 462.421 93.885C462.039 95.8892 461.657 99.9932 461.562 102.952C461.466 108.106 461.276 108.678 456.694 113.259C453.545 116.504 451.254 118.031 449.918 117.84C448.868 117.745 446.864 118.318 445.433 119.272C444.096 120.131 442.474 120.894 441.901 120.894C441.329 120.894 439.42 121.944 437.797 123.185C436.079 124.521 433.598 125.857 432.071 126.144C430.639 126.525 429.017 127.575 428.54 128.434C427.872 129.77 428.349 130.438 430.639 131.775C433.121 133.302 433.407 133.97 432.93 136.356C432.644 137.883 430.449 141.414 428.063 144.182C424.913 147.904 423.768 150.099 423.768 152.294C423.768 153.917 423.195 155.539 422.432 155.825C421.668 156.112 421.382 157.257 421.668 158.593C421.859 159.834 421.668 162.124 421.095 163.747C420.427 165.56 420.427 166.801 421.095 167.469C421.764 168.137 421.668 169.091 421 170.332C420.427 171.382 419.95 173.195 419.95 174.245C419.95 175.581 417.66 177.395 411.361 181.117C403.535 185.603 402.771 186.271 402.771 188.943C402.771 190.756 401.626 193.238 399.431 195.91C397.236 198.487 396.09 200.968 396.09 202.782C396.09 205.168 394.945 206.695 389.982 210.99C386.642 213.948 383.301 216.334 382.442 216.334C381.679 216.334 378.338 218.529 375.189 221.202C370.608 225.019 369.558 226.355 370.322 227.31C370.99 228.073 371.085 229.982 370.799 231.986C370.322 234.468 369.463 235.518 367.554 236.186C364.213 237.331 361.159 236.09 356.769 231.891C354.479 229.696 352.761 228.646 351.711 229.123C349.611 229.887 343.598 225.019 343.598 222.442C343.598 219.579 337.967 212.326 336.059 212.898C331.382 214.234 328.424 214.425 327.851 213.566C327.565 212.994 326.038 212.517 324.51 212.517C319.834 212.517 318.784 211.658 318.784 207.745C318.784 204.213 318.689 204.118 312.103 201.159C304.373 197.723 303.705 197.628 299.314 199.728C296.833 200.968 295.497 201.064 293.302 200.3C290.629 199.441 289.961 199.728 284.33 204.118C278.127 208.89 277.84 208.985 271.828 207.172C270.396 206.79 270.11 207.267 270.11 210.131C270.11 212.803 269.633 213.757 268.201 214.139C267.151 214.425 266.292 215.475 266.292 216.43C266.292 217.384 265.433 218.625 264.383 219.197C262.475 220.247 262.475 221.202 262.475 395.57C262.475 561.826 262.379 572.038 260.566 592.367C259.516 604.201 256.271 649.726 253.408 693.533C250.545 737.339 246.632 792.981 244.818 817.127C241.86 856.066 233.843 978.42 233.843 984.624C233.843 985.96 234.225 987.582 234.606 988.25C235.656 989.777 238.328 988.823 238.806 986.723C239.092 985.864 240.428 984.433 241.86 983.669C244.055 982.524 244.627 982.524 245.296 983.574C246.345 985.387 249.113 984.147 249.113 981.856C249.113 980.711 249.972 979.947 251.499 979.661C252.835 979.375 253.885 979.47 253.885 979.852C253.885 980.138 254.744 981.379 255.794 982.524C258.18 985.006 263.525 985.387 265.338 983.192C266.197 982.142 266.865 981.951 267.628 982.715C269.442 984.528 273.737 983.765 275.645 981.283C277.745 978.611 281.658 978.134 283.471 980.329C284.998 982.142 291.107 982.142 293.588 980.329C294.733 979.47 297.692 978.993 301.891 978.897H308.286V982.238C308.286 985.387 308.477 985.578 311.435 985.578C313.153 985.578 315.062 985.101 315.73 984.433C316.494 983.669 317.734 983.574 320.407 984.337C334.341 988.346 338.922 989.014 343.598 987.773C348.275 986.533 349.802 983.288 347.416 979.375C344.839 975.271 341.594 964.868 341.022 959.141C340.449 954.274 340.449 954.178 345.316 949.597C350.088 945.016 351.138 944.253 357.914 941.294C359.728 940.435 363.45 938.145 366.027 936.14C370.131 932.991 370.799 932.036 371.085 928.792C371.467 923.638 377.67 917.052 382.633 916.671C385.592 916.384 386.069 916.003 386.833 913.044C387.31 911.231 388.264 909.036 389.028 908.177C389.791 907.413 390.364 905.504 390.364 904.168C390.364 902.164 390.841 901.591 392.464 901.591C395.231 901.591 408.593 894.72 408.116 893.479C407.925 892.906 407.448 891.856 407.066 890.997C406.684 889.948 407.066 889.279 408.402 888.898C409.643 888.611 410.406 887.657 410.406 886.416C410.406 885.366 411.265 884.03 412.41 883.362L414.415 882.312L412.315 880.117C410.883 878.59 410.311 877.159 410.693 875.727C410.979 874.582 410.597 872.673 409.738 871.432C407.638 868.187 408.784 864.37 411.742 864.37C413.46 864.37 414.128 863.797 414.415 862.175C414.701 860.361 415.369 860.075 420.236 859.789C424.913 859.502 425.677 859.216 425.677 857.689C425.677 856.162 426.345 855.78 428.826 855.78C430.449 855.78 433.121 854.921 434.648 853.967C436.843 852.535 437.893 852.344 439.324 853.012C441.806 854.444 442.283 853.585 442.379 847.859C442.474 845.091 442.76 842.323 443.237 841.655C444.669 839.269 448.2 840.51 452.877 845.282C455.454 847.954 458.317 850.054 459.176 850.054C460.035 850.054 460.989 850.722 461.371 851.485C462.135 853.585 464.33 853.203 466.143 850.722C467.67 848.622 467.67 848.622 467.097 851.867C466.334 855.876 468.529 855.589 469.865 851.39C471.201 847.381 472.347 846.236 475.305 846.236C476.737 846.236 479.314 845.95 480.936 845.664L483.99 844.995L483.322 839.46C482.749 834.497 482.94 833.829 484.372 833.829C487.044 833.829 491.244 830.202 491.816 827.339C492.198 825.621 494.489 822.853 498.115 819.608C501.837 816.459 503.937 813.882 503.937 812.546C503.937 811.401 504.605 809.587 505.369 808.633C506.132 807.583 506.8 804.72 506.8 802.238C506.8 797.18 507.564 796.035 513.577 792.885C516.821 791.167 518.253 789.545 519.876 786.014C521.593 782.196 522.357 781.337 524.361 781.337C527.034 781.337 528.37 778.379 527.511 774.084C527.224 772.175 527.892 771.03 530.947 768.453C533.046 766.639 535.146 765.112 535.623 765.112C536.005 765.112 537.246 763.395 538.295 761.295C539.441 759.004 540.872 757.477 541.922 757.477C544.308 757.477 547.362 754.041 549.748 748.697L551.752 744.211L549.844 736.767C547.935 729.418 547.935 729.323 549.748 727.414C551.18 725.887 551.657 723.978 551.657 719.683V714.052L557.192 710.044C567.023 702.886 567.691 701.836 568.168 692.578C568.359 688.093 569.218 682.748 569.981 680.648C571.413 677.117 571.413 676.735 569.695 674.349C568.741 672.918 567.691 669.482 567.309 666.619C566.736 661.465 566.736 661.274 569.6 659.556C571.699 658.315 572.654 656.979 572.845 654.975C573.035 652.875 573.704 651.921 575.04 651.73C576.09 651.635 577.712 650.203 578.571 648.676C579.812 646.481 581.148 645.717 584.106 645.24L588.019 644.572L586.015 642.568C584.965 641.423 584.106 639.323 584.106 637.987C584.106 636.555 582.77 633.883 580.957 631.688C578.953 629.302 577.139 625.58 576.09 621.571L574.276 615.177L576.853 612.504C578.571 610.691 579.334 608.878 579.334 606.587C579.334 602.101 582.198 599.62 588.878 598.093C597.659 596.089 599.09 594.943 599.854 589.599C600.427 585.59 600.045 584.159 597.563 579.196C595.464 575.092 594.605 571.942 594.605 568.793C594.605 565.834 593.937 563.162 592.696 561.349C591.455 559.44 590.787 556.863 590.787 553.618C590.787 550.087 590.31 548.273 588.974 547.128C587.924 546.174 586.874 545.887 586.588 546.365C585.633 547.987 578.953 545.601 577.044 543.024C576.09 541.688 575.04 538.634 574.753 536.153C574.467 533.48 573.513 530.903 572.176 529.376C570.363 527.372 569.981 525.559 569.504 517.351C569.218 511.052 569.409 507.139 570.077 505.898C570.745 504.848 571.413 496.354 571.795 484.52L572.367 464.955L577.33 449.112C580.003 440.331 582.198 432.41 582.198 431.264C582.198 430.215 583.057 426.588 584.202 423.247C585.252 420.003 586.492 413.99 586.874 410.077C587.733 401.583 591.742 391.752 594.987 390.225C596.8 389.462 597.563 389.653 599.09 391.084C600.713 392.802 601.381 392.898 605.962 391.848C609.875 390.989 611.116 390.321 611.879 388.412C613.502 384.213 612.834 381.063 609.78 378.677C607.107 376.577 606.821 376.577 605.199 378.009C602.717 380.3 596.132 378.009 595.75 374.669C595.559 372.855 593.937 371.519 588.592 368.751C577.807 363.12 575.517 360.734 574.849 354.435C574.562 351.572 574.658 345.56 575.04 341.169L575.708 333.057L579.334 330.957C582.484 329.144 583.152 328.285 583.629 324.658C584.202 321.222 584.775 320.268 587.065 319.409C588.878 318.646 589.833 317.5 589.833 316.26C589.833 315.21 590.883 312.919 592.219 311.297C596.609 305.475 599.377 294.976 599.377 283.715C599.377 280.47 600.045 273.407 600.808 267.872C601.572 262.336 602.24 254.605 602.24 250.692C602.335 244.775 602.717 242.866 604.626 239.717C605.962 237.617 607.012 234.849 607.012 233.609C607.012 232.368 608.921 228.837 611.307 225.687C613.693 222.538 615.602 219.197 615.602 218.338C615.602 217.479 617.797 215.093 620.374 213.089C623.046 211.085 625.146 209.272 625.146 209.081C625.146 208.794 624.573 207.649 623.809 206.504C622.95 205.072 622.664 203.068 623.141 200.396C623.618 197.151 624.477 195.815 628.104 193.047C632.494 189.706 632.59 189.611 633.258 182.739C633.64 178.922 634.308 175.009 634.785 174.15C635.262 173.195 636.121 170.237 636.598 167.469C637.171 164.797 638.412 161.647 639.366 160.597C640.702 159.166 641.37 156.493 641.752 150.958C642.134 146.759 642.611 141.319 642.897 138.933C643.375 135.02 643.184 134.447 641.466 133.97C639.748 133.588 639.557 133.111 640.32 131.107C640.798 129.77 640.989 127.862 640.702 126.716C640.32 125.189 640.607 124.712 642.038 124.712C644.997 124.712 646.142 121.085 644.424 117.172C643.184 113.927 643.279 105.529 644.902 96.3665C645.283 93.7896 645.092 93.3124 643.088 93.0261C640.511 92.6443 640.511 92.9306 642.42 77.4694C643.661 68.1163 643.565 66.4938 642.229 62.2945C640.702 57.8088 640.607 57.7134 639.461 59.7176C638.603 61.3401 637.744 61.7219 636.121 61.3401C633.449 60.672 628.009 62.4854 628.009 64.0124C628.009 64.6805 625.814 65.7303 623.237 66.3984C620.564 67.0665 617.892 68.4026 617.224 69.357C616.461 70.4069 614.17 71.3613 611.307 71.743C608.253 72.2202 605.294 73.4609 603.004 75.2743C600.808 76.9922 599.281 77.6603 598.9 76.9922C597.754 75.1788 599.281 71.5521 601.286 70.9795C602.431 70.6932 603.194 69.7388 603.194 68.498V66.4938L599.377 68.4026C594.605 70.884 593.65 70.7886 593.65 68.1163C593.65 64.9668 591.932 63.4398 589.642 64.6805C588.688 65.1577 587.447 65.3486 586.97 65.0622C586.492 64.7759 584.393 65.3486 582.293 66.4938C580.193 67.5436 577.044 68.4026 575.326 68.4026C571.604 68.4026 559.197 74.8925 554.711 79.1873C552.898 80.9052 550.893 83.3867 550.13 84.8182C549.366 86.3453 548.126 87.4905 547.362 87.4905C544.785 87.4905 547.744 81.7642 551.275 80.0463C553.852 78.901 554.52 77.9466 554.52 75.8469C554.52 72.3156 556.715 69.0707 561.392 65.6349C564.923 62.9625 565.114 62.7717 563.301 61.8173C561.678 60.9583 559.769 61.5309 553.089 64.585C548.507 66.6847 543.64 68.4026 542.208 68.4026C538.391 68.4026 535.432 64.7759 535.432 60.1948C535.432 55.8046 537.055 54.373 550.703 46.4515C558.815 41.775 564.064 36.9075 564.064 34.0443C564.064 33.2808 565.782 31.6583 567.882 30.4176C571.413 28.4134 571.604 28.1271 570.554 25.6456C569.981 24.2141 567.882 21.4463 566.068 19.442C562.633 15.8153 562.537 15.7199 556.811 16.1971C553.566 16.388 550.225 16.1971 549.366 15.7199C548.126 15.0518 547.171 15.2427 545.644 16.5789C543.067 18.8694 539.632 18.3922 538.105 15.6245C535.909 11.3297 532.378 11.0433 525.793 14.4792Z" fill="black"/>
<path d="M728.603 130.539C728.316 131.112 727.076 131.303 725.93 131.017C724.212 130.635 723.258 131.398 720.586 135.884C718.391 139.511 717.436 142.183 717.532 144.187C717.722 146.382 717.15 147.814 715.432 149.436C714.096 150.773 712.95 152.586 712.95 153.54C712.95 154.495 712.282 155.258 711.519 155.258C710.564 155.258 710.087 156.213 710.087 158.026C710.087 159.744 709.324 161.271 707.988 162.225L705.792 163.657L709.037 164.898L712.282 166.043L710.278 167.761C709.133 168.62 707.415 169.192 706.365 168.906C705.124 168.62 703.979 169.383 702.548 171.388C700.83 173.774 700.639 174.537 701.689 176.16C702.643 177.782 702.357 178.832 699.207 183.604C694.817 190.38 689.568 201.451 688.136 206.891C687.468 209.086 685.941 211.759 684.7 212.713C683.078 214.049 682.41 215.481 682.41 217.676C682.41 219.585 681.646 221.493 680.501 222.543C678.783 224.166 678.688 224.452 680.024 225.216C681.264 225.884 681.36 226.361 680.406 227.411C679.547 228.46 679.737 228.747 681.455 228.747C682.696 228.747 683.746 227.983 684.032 226.933C684.223 225.979 685.464 224.643 686.705 223.975C687.945 223.307 689.854 220.634 690.904 217.962C692.526 214.24 693.194 213.381 694.053 214.24C696.726 216.912 684.509 233.901 680.596 232.851C678.115 232.183 676.111 234.95 677.638 236.859C679.165 238.768 678.306 239.627 674.488 239.913C667.521 240.39 664.276 240.868 663.704 241.44C662.654 242.49 665.421 245.067 666.949 244.494C667.712 244.208 669.812 244.399 671.53 244.972C675.538 246.308 680.692 243.826 684.796 238.577C690.522 231.228 699.589 218.344 699.589 217.389C699.589 216.912 702.166 211.568 705.315 205.555C708.465 199.638 711.042 193.816 711.042 192.766C711.042 191.812 712.378 189.998 713.905 188.853C716.386 187.04 716.768 186.085 716.768 182.363C716.768 179.404 717.436 177.209 718.677 175.587C719.727 174.251 720.586 171.769 720.586 170.051C720.586 167.57 721.54 166.043 725.644 162.225C728.412 159.648 731.657 156.976 732.802 156.308C735.856 154.686 735.57 150.486 732.134 147.241C729.843 145.046 729.462 144.187 730.32 142.851C731.179 141.515 730.893 140.465 729.271 137.697L727.076 134.261H729.462C732.516 134.261 735.379 138.27 734.043 140.751C733.375 142.088 733.565 142.756 734.997 143.615C735.951 144.283 737.001 144.76 737.192 144.76C738.051 144.76 738.337 139.988 737.478 139.129C737.001 138.652 736.333 136.838 735.951 135.12C735.474 132.83 734.52 131.685 732.325 130.73C730.225 129.871 729.08 129.871 728.603 130.539Z" fill="black"/>
<path d="M744.445 369.796C744.445 371.323 743.586 373.328 742.536 374.282C741.486 375.236 740.627 376.668 740.627 377.432C740.627 378.291 739.959 379.627 739.1 380.581C738.336 381.44 738.05 382.49 738.527 382.776C739.768 383.54 743.49 380.581 743.49 378.768C743.586 377.145 745.59 373.805 746.64 373.805C746.926 373.805 747.689 375.427 748.262 377.336C748.93 379.34 750.075 381.726 750.934 382.585C752.271 384.208 752.175 384.303 749.885 384.303C748.453 384.303 745.972 385.449 744.254 387.071C741.581 389.457 741.39 390.03 742.44 391.366C744.349 393.561 743.108 395.565 739.291 396.233C737.477 396.615 735.091 397.951 733.851 399.192C732.324 400.814 730.701 401.482 728.029 401.482C723.734 401.482 723.352 399.955 726.788 396.71C729.46 394.229 729.842 392.893 727.933 392.893C726.216 392.893 718.676 400.719 718.676 402.532C718.676 403.391 717.626 405.014 716.29 406.254C714.954 407.495 713.904 409.404 713.904 410.454C713.904 411.599 711.709 415.703 709.132 419.616C705.41 425.151 704.36 427.633 704.36 430.496C704.36 433.932 704.455 434.123 705.601 432.596C707.414 430.114 711.041 431.355 711.041 434.505C711.041 436.413 710.563 436.795 708.368 436.795C704.36 436.795 702.642 440.422 704.837 443.858C706.555 446.434 706.555 446.434 703.31 449.775C700.447 452.733 700.16 453.688 699.874 459.223C699.779 462.659 698.92 466.763 698.061 468.481C694.816 474.685 698.824 489.573 704.742 493.486C706.269 494.441 707.223 495.968 707.223 497.208C707.223 500.072 709.514 503.126 710.85 502.267C712.568 501.217 712.186 498.926 709.991 495.777C708.368 493.582 708.177 492.723 709.132 492.15C711.136 490.909 709.323 487.378 706.65 487.378C703.978 487.378 701.688 483.179 703.31 481.27C703.978 480.506 703.692 479.743 702.356 478.979C699.874 477.452 699.874 473.062 702.356 473.062C703.405 473.062 704.932 474.017 705.887 475.162C707.414 477.261 707.414 477.166 706.841 472.203C706.555 469.34 705.791 466.668 705.219 466.286C704.36 465.809 704.551 465.045 705.601 463.423C707.032 461.419 707.032 461.132 705.601 459.51C704.169 457.887 704.169 457.792 705.982 457.792C708.75 457.792 709.323 456.742 707.605 454.833C706.173 453.306 706.364 452.829 709.132 448.82C713.999 441.567 715.145 438.036 715.335 428.205C715.622 417.516 716.767 413.89 719.821 413.89C724.307 413.89 726.311 412.744 726.311 410.454C726.311 409.213 727.17 407.781 728.124 407.209C730.606 405.968 731.178 405.968 730.988 407.4C730.797 408.068 731.083 410.072 731.465 411.694C732.133 414.462 732.515 414.844 735.473 414.844C738.718 414.844 738.718 414.844 737.287 417.134C735.855 419.33 735.855 419.425 738.623 419.902C742.154 420.666 743.967 423.624 742.536 426.297C741.772 427.728 741.963 428.301 743.49 429.16C745.972 430.496 745.972 433.168 743.49 434.695C742.44 435.268 741.868 436.413 742.154 437.177C742.44 437.94 742.059 439.563 741.295 440.613C740.054 442.426 740.054 443.094 741.2 446.053C742.536 449.011 742.44 449.584 741.104 451.111C740.054 452.256 739.863 453.402 740.436 454.929L741.2 457.124L743.299 454.451C745.685 451.397 748.835 451.779 747.785 454.929C747.308 456.456 747.594 456.837 749.503 456.837C754.943 456.837 755.229 445.862 749.98 437.559C747.689 433.932 747.308 432.5 747.88 429.733C748.262 427.633 748.071 425.724 747.403 424.961C746.831 424.292 746.544 422.956 746.926 422.097C747.212 421.238 747.021 420.57 746.449 420.57C745.876 420.57 745.399 418.948 745.399 417.039C745.399 414.844 744.731 412.744 743.49 411.504L741.581 409.404L743.967 408.163C745.781 407.209 746.353 406.159 746.353 403.582C746.353 400.051 751.793 390.03 753.702 390.03C754.275 390.03 755.516 389.075 756.279 387.93C757.043 386.88 759.715 384.78 762.196 383.253C766.109 381.058 766.396 380.581 764.678 380.104C763.628 379.722 761.91 379.913 760.956 380.581C759.524 381.44 758.474 381.345 756.088 380.104C752.652 378.291 752.557 377.909 754.466 375.332C756.565 372.564 756.184 371.801 753.511 372.85C751.507 373.614 750.934 373.423 750.457 372.087C749.885 370.369 746.449 367.22 745.208 367.124C744.731 367.124 744.445 368.365 744.445 369.796Z" fill="black"/>
<path d="M732.993 460.472C732.993 461.713 732.134 462.572 730.607 462.953C727.839 463.621 727.171 467.344 729.843 467.344C731.084 467.344 731.179 467.63 730.32 468.489C728.507 470.302 728.984 473.833 731.179 475.074L733.184 476.124L730.989 478.415C729.843 479.655 728.316 480.705 727.553 480.705C726.885 480.705 726.312 481.564 726.312 482.518C726.312 485.668 725.262 487.386 723.258 487.386C721.731 487.386 721.445 486.909 721.826 485.382C722.208 483.855 721.922 483.473 720.299 483.759C718.677 483.95 718.104 484.809 717.913 487.195C717.627 489.963 717.913 490.44 720.681 491.394C723.64 492.444 723.64 492.444 723.162 497.503C722.685 502.084 722.876 502.656 724.403 502.656C726.98 502.656 730.225 497.025 728.984 494.735C728.316 493.399 728.412 492.635 729.652 491.776C731.084 490.726 731.084 490.345 730.034 488.531C728.412 485.859 730.225 482.232 734.043 480.705C737.097 479.369 741.582 474.024 741.582 471.543C741.582 469.92 740.342 470.016 734.233 471.734C732.993 472.116 732.038 471.925 732.038 471.352C732.038 470.779 733.279 470.111 734.806 469.73C737.669 469.157 739.674 466.007 739.674 462.094C739.674 460.758 739.101 459.708 738.528 459.708C737.86 459.708 736.333 459.422 735.188 459.136C733.47 458.659 732.993 458.945 732.993 460.472Z" fill="black"/>
<path d="M743.3 464.098C742.346 464.956 743.682 468.297 744.922 468.297C747.499 468.297 749.217 467.056 749.217 465.338C749.217 464.002 748.549 463.525 746.545 463.525C745.018 463.525 743.586 463.811 743.3 464.098Z" fill="black"/>
<path d="M707.987 504.371C706.651 504.658 706.27 505.708 706.27 508.953C706.27 513.629 707.606 514.297 712.473 512.007C715.432 510.67 715.909 506.471 712.95 506.471C711.996 506.471 710.755 505.898 710.373 505.23C709.992 504.562 708.846 504.181 707.987 504.371Z" fill="black"/>
<circle cx="401" cy="458" fill="#5CE50D"/>
<circle cx="576" cy="380" fill="#E52A0D"/>
<circle cx="546" cy="82" fill="#E52A0D"/>
<circle cx="440" cy="827" fill="#E52A0D"/>
</svg>
