<svg width="1000" height="1000" viewBox="0 0 1000 1000" fill="none" xmlns="http://www.w3.org/2000/svg">
<g clip-path="url(#clip0_1_691)">
<rect width="1000" height="1000" />
<path d="M692.772 2.04297L688.279 3.01953L686.522 10.7344C684.764 18.2539 684.666 18.4492 681.834 18.4492C680.272 18.4492 677.635 19.4258 675.975 20.5977C674.315 21.8672 669.627 23.5273 665.526 24.3086L658.201 25.8711L648.631 22.1602C643.358 20.1094 638.475 18.4492 637.791 18.4492C637.01 18.4492 635.936 19.7188 635.35 21.1836C634.471 23.2344 632.811 24.5039 628.611 25.9688C625.584 27.1406 614.744 31.1445 604.49 34.9531C594.334 38.7617 585.35 41.8867 584.568 41.8867C583.787 41.8867 582.225 41.0078 581.151 40.0312C579.979 38.957 574.803 37.0039 569.627 35.7344L560.057 33.293L555.174 37.2969C552.147 39.7383 549.998 42.375 549.51 44.2305C548.826 46.6719 548.143 47.3555 545.604 47.5508C542.772 47.8438 542.479 48.1367 542.479 51.3594C542.479 53.2148 541.795 57.1211 540.916 60.0508C539.549 64.7383 539.061 65.3242 536.229 65.8125C532.615 66.4961 525.486 65.4219 508.494 61.3203L496.483 58.4883L492.674 60.4414L488.963 62.3945L483.494 59.9531C479.979 58.3906 476.17 57.5117 473.045 57.5117C469.432 57.5117 466.502 56.6328 461.131 53.9961L454.1 50.3828L447.752 51.9453C441.795 53.3125 441.307 53.3125 437.889 51.5547C435.838 50.5781 433.983 48.918 433.787 48.0391C433.494 47.0625 433.006 45.207 432.713 43.8398C431.834 40.3242 428.123 36.418 424.705 35.6367C419.529 34.2695 405.369 25.0898 400.389 19.8164L395.506 14.6406L390.135 15.5195C387.205 16.1055 377.928 19.0352 369.627 22.2578L354.49 28.0195L352.733 33.0977C351.756 36.0273 349.608 39.4453 347.752 41.2031C345.213 43.6445 344.334 45.4023 343.846 49.3086C343.162 54.1914 342.967 54.3867 338.279 56.6328C335.643 57.8047 333.006 59.3672 332.518 59.9531C331.932 60.7344 331.834 67.375 332.322 78.1172C333.201 94.6211 333.299 95.207 336.131 100.09L339.158 105.07L337.303 114.25C334.764 126.555 331.639 134.27 324.217 145.891C316.99 157.316 308.104 176.945 308.104 181.633C308.104 183.488 309.08 189.152 310.154 194.426L312.303 203.801L308.592 208.781C305.662 212.883 304.783 215.031 304.197 220.305C303.709 223.918 302.928 227.043 302.44 227.238C299.901 228.02 297.947 230.461 296.287 234.758C294.529 239.348 294.529 239.445 296.483 242.277C298.143 244.523 298.338 245.891 297.85 250.188C297.264 254.777 297.459 255.461 299.608 257.512C301.951 259.758 301.951 259.758 300.486 266.008C299.217 271.281 298.533 272.453 296.385 273.234C294.139 273.918 293.26 275.773 289.744 285.734L285.643 297.258L287.791 303.312L290.037 309.367L286.912 315.715C284.08 321.477 283.494 322.062 280.076 322.648C274.705 323.527 273.826 324.309 273.24 328.996L272.654 333.195L262.693 337.883C248.436 344.621 242.967 350.676 233.397 370.5L226.268 385.148L217.967 391.789L209.666 398.332L208.885 407.902C208.494 413.078 208.494 427.434 208.885 439.641L209.471 462.004L204.881 468.449C202.342 472.062 198.729 479.191 196.776 484.27L193.26 493.547L187.986 494.328C185.057 494.719 180.369 496.086 177.537 497.355C173.338 499.309 172.264 500.285 171.58 503.02C170.799 506.047 170.506 506.242 166.209 506.535C161.912 506.828 161.326 507.219 158.983 510.93C157.615 513.176 152.83 518.938 148.436 523.82C144.041 528.605 138.67 535.344 136.424 538.664L132.42 544.621L125.779 543.156C117.186 541.301 113.377 537.59 112.303 530.461C111.815 526.457 112.01 524.699 113.768 521.379L115.818 517.375L113.279 512.98C111.912 510.637 110.447 508.684 110.057 508.684C109.666 508.684 105.272 511.32 100.193 514.445C91.0138 520.207 90.9161 520.207 87.0099 519.035C79.9786 516.887 78.4161 517.961 76.3654 526.359L74.6076 533.684L67.2833 535.832L60.0568 537.98L53.2208 534.562C49.5099 532.707 45.799 531.145 45.1154 531.145C44.3341 531.145 39.6466 533.293 34.5685 536.027C28.3185 539.25 23.5333 542.668 19.6271 546.574L13.963 552.434L14.0607 571.574L14.256 590.715H9.56849C7.02943 590.715 3.90443 591.008 2.6349 591.301C0.486458 591.887 0.388802 592.277 0.97474 596.965C1.36536 599.699 1.85365 602.238 2.04896 602.531C2.83021 603.898 12.3029 601.652 14.4513 599.699C15.8185 598.43 17.9669 597.551 19.8224 597.551C21.7755 597.551 23.2404 596.965 23.5333 596.086C23.924 595.305 25.2911 594.621 26.756 594.621C28.1232 594.621 31.4435 593.938 34.0802 593.156C38.1818 591.887 51.3654 591.691 123.533 591.691H208.201L210.35 594.035L212.596 596.477L215.33 594.426C217.479 592.863 218.846 592.57 221.385 593.059C224.217 593.645 224.998 594.523 228.318 601.359C231.834 608.586 231.932 609.27 231.346 615.715C230.467 624.895 234.568 640.52 238.67 644.035C241.99 646.77 244.041 653.117 243.162 658C242.576 661.32 242.967 662.199 246.873 666.984C249.217 669.914 251.658 673.723 252.244 675.48C253.514 679.094 258.885 687.004 263.67 692.277C265.721 694.426 267.576 698.137 268.846 702.531C271.483 711.418 273.045 712.395 281.151 710.734C285.447 709.953 289.061 709.855 293.748 710.539C297.361 711.027 300.486 711.223 300.779 711.027C301.072 710.734 301.268 708.781 301.268 706.73C301.268 703.508 301.561 703.02 303.514 703.02C304.686 703.02 307.225 703.508 309.08 704.094C311.131 704.68 316.111 704.777 321.58 704.484C329.393 703.898 330.565 703.605 330.174 702.238C329.979 701.262 329.49 699.113 329.1 697.453L328.416 694.23H333.69H338.963L341.209 698.723L343.358 703.312L354.783 702.629C361.033 702.238 368.553 701.75 371.483 701.359L376.658 700.773L376.17 693.352C375.975 689.25 375.389 685.148 374.998 684.27C374.51 683 375.193 682.414 378.416 681.438L382.42 680.168L381.834 670.891C381.443 664.348 381.639 660.051 382.615 656.633L383.885 651.75L400.486 652.043C409.568 652.238 418.162 652.629 419.627 652.824C421.873 653.312 422.361 652.922 422.947 650.871C423.533 648.43 423.826 648.332 430.858 648.332H438.182L437.596 652.922C437.303 655.559 436.912 659.758 436.815 662.492L436.619 667.375L459.959 667.082C472.85 666.984 486.717 666.594 490.916 666.301L498.338 665.715L499.608 671.184C500.584 675.871 500.584 677.824 499.022 684.855L497.361 693.059L499.901 700.773C501.268 704.973 503.318 712.98 504.393 718.547C506.151 728.02 506.151 729.387 504.881 738.566C504.197 744.035 503.221 752.336 502.928 757.219C502.537 762.004 501.658 768.742 500.877 772.062L499.51 778.02L503.026 787.102C506.834 797.355 507.713 798.43 514.158 802.629L518.651 805.559L521.776 819.426C523.729 828.117 524.901 836.027 524.901 840.324V847.16L521.483 848.82C517.967 850.48 517.967 850.48 518.651 855.656C518.943 858.391 520.213 863.762 521.287 867.473L523.436 874.113L528.318 873.527C533.006 873.039 534.471 872.062 537.108 867.57C538.084 865.91 538.377 866.008 542.283 867.961L546.385 870.109L549.608 867.668C552.537 865.422 553.416 865.324 560.057 865.812C567.381 866.301 567.381 866.301 571.385 862.785L575.486 859.27L591.404 860.148C606.932 861.027 607.518 860.93 612.498 858.684L617.674 856.438L619.139 859.367C620.408 861.809 621.19 862.199 624.803 862.199C630.565 862.297 635.057 866.398 635.936 872.551C636.522 876.652 636.326 877.238 632.811 880.754L629.197 884.465L632.908 885.051C641.99 886.418 643.748 886.125 648.143 883C650.877 881.145 657.029 878.605 665.428 876.066C677.928 872.258 678.611 872.16 680.858 873.723C683.104 875.285 683.201 875.676 682.615 884.758L682.029 894.133L684.861 896.574C686.424 897.844 688.279 899.895 688.865 901.066C689.842 902.824 690.33 903.02 692.967 902.043C695.408 901.164 697.361 901.555 706.151 904.68C715.037 907.902 716.404 908.586 716.893 910.93C717.967 916.008 718.162 916.105 721.483 915.52C731.932 913.664 737.401 913.859 747.85 916.301L758.397 918.84L762.693 916.398C767.674 913.469 767.967 912.883 768.748 903.605L769.334 896.574L772.85 897.062C778.416 897.844 778.514 897.941 779.295 903.703C779.881 908.684 780.174 909.27 783.299 910.734C785.936 912.004 786.912 913.273 787.693 916.301C788.279 918.547 790.428 923.234 792.576 926.848L796.483 933.488H803.026C808.494 933.488 809.764 933.781 810.838 935.441C811.424 936.516 814.256 938.469 817.088 939.934C822.264 942.57 825.682 942.668 837.01 940.715C839.842 940.227 840.037 940.324 841.111 945.207C841.795 947.941 842.283 952.043 842.283 954.191C842.283 958.195 846.287 966.691 848.143 966.691C848.631 966.691 850.096 966.301 851.463 965.715C853.709 964.934 854.197 965.227 856.736 968.938C858.299 971.184 859.959 974.113 860.35 975.48C860.74 976.848 862.986 982.023 865.428 987.004C869.725 995.891 869.92 996.086 872.654 995.5C874.901 995.012 875.877 995.305 877.244 996.965L878.904 999.016L888.475 993.059C897.166 987.688 898.338 987.199 901.951 987.785C904.881 988.273 905.76 988.859 905.369 989.836C903.709 994.035 903.807 995.695 905.565 997.258C907.127 998.723 907.908 998.82 909.959 997.844C911.326 997.258 912.693 995.793 912.986 994.621C913.279 993.547 913.572 978.996 913.572 962.395V932.219L909.471 932.902C907.127 933.293 903.221 934.172 900.682 935.051C896.19 936.516 896.19 936.516 897.068 939.641C898.631 945.012 898.436 945.207 891.893 943.156C888.475 942.18 883.787 941.301 881.346 941.301C877.049 941.301 876.756 941.105 866.697 930.754C861.033 924.895 853.807 918.254 850.486 916.105L844.627 912.004L842.381 902.727L840.135 893.547L843.065 885.93C844.627 881.73 847.166 872.941 848.631 866.398C850.975 856.242 851.658 854.387 853.611 853.508C856.541 852.238 856.541 851.066 854.002 834.855C852.049 822.355 852.049 822.16 853.904 812.492L855.858 802.629L849.022 788.371C845.311 780.559 842.283 773.82 842.283 773.43C842.283 772.941 846.19 770.012 850.877 766.887C857.811 762.395 860.74 759.66 865.526 753.312L871.58 745.402L870.701 738.566C870.213 734.855 869.92 731.73 870.018 731.73C870.018 731.633 891.697 728.605 917.967 724.895C944.334 721.281 965.916 718.254 966.111 718.059C966.307 717.961 962.401 705.949 957.518 691.398C949.022 666.496 948.143 664.543 942.674 656.926C937.986 650.578 935.057 647.648 928.807 643.449L920.994 638.078L914.354 622.746L907.811 607.414L909.666 600.969C911.326 595.207 911.326 594.133 910.154 590.617C909.373 588.469 908.006 580.949 907.225 574.016C905.858 563.078 905.076 560.148 901.268 551.652C897.459 542.863 896.971 541.105 896.971 534.367C896.971 529.289 897.654 525.188 899.022 521.379L901.072 515.812L896.58 499.309C892.186 483.098 892.088 482.512 891.502 462.883L890.818 442.961L883.592 435.051C879.002 430.07 874.901 424.309 872.459 419.426C870.311 415.227 868.651 411.711 868.846 411.613C869.041 411.418 870.701 410.441 872.752 409.27C874.705 408 878.709 404.094 881.736 400.383L887.205 393.742V386.613V379.582L893.748 371.574C897.361 367.277 902.928 360.734 905.955 357.219L911.619 350.773L910.057 346.965C908.983 344.426 908.69 341.789 909.08 338.762C909.373 336.32 910.154 328.605 910.643 321.672C911.131 314.641 912.498 301.457 913.768 292.18L915.916 275.48L919.334 274.016C922.654 272.746 923.045 272.062 926.072 262.883C928.904 254.387 929.295 252.141 929.002 245.207L928.709 237.199H932.811H936.815L939.354 230.559C941.893 224.016 941.99 223.82 947.068 222.062C953.514 219.816 956.053 218.059 966.209 208.977C986.326 190.91 992.479 184.465 996.678 176.945C1001.95 167.18 1001.46 164.836 993.162 160.344C988.182 157.609 986.326 157.219 980.369 157.121H973.436L972.947 152.141C972.557 147.941 973.045 145.695 975.779 138.859L979.1 130.559L976.365 127.141C974.901 125.285 973.24 123.234 972.752 122.551C972.264 121.867 973.729 117.57 976.463 111.418C978.904 105.949 980.955 101.066 980.955 100.676C980.955 100.285 978.904 97.6484 976.463 94.8164C974.022 91.9844 970.408 86.8086 968.455 83.1953L964.842 76.6523L960.35 76.8477C956.346 77.1406 955.662 76.8477 954.1 74.4062C953.123 72.9414 949.608 68.8398 946.287 65.3242C942.674 61.6133 938.279 55.4609 935.643 50.4805C933.104 45.793 930.272 41.7891 929.393 41.4961C928.514 41.3008 924.022 40.9102 919.432 40.7148L911.229 40.4219L908.397 46.2812C906.834 49.5039 905.467 52.2383 905.369 52.3359C905.272 52.5312 899.803 51.5547 893.26 50.3828C883.201 48.4297 881.151 47.7461 879.49 45.5977C876.756 42.1797 872.947 42.9609 870.799 47.3555L869.236 50.6758L861.424 50.1875C857.029 49.8945 849.803 48.625 845.311 47.5508L837.108 45.4023L835.057 40.6172C833.201 36.2227 832.225 35.4414 822.752 29.7773C817.088 26.3594 805.369 19.9141 796.678 15.5195L780.955 7.31641L774.901 12.5898L768.943 17.7656L765.037 15.6172C761.619 13.6641 760.252 13.4688 754.49 14.0547C748.533 14.6406 746.678 14.3477 736.619 11.2227C728.123 8.58594 723.729 7.70703 718.358 7.70703C712.01 7.70703 710.838 7.41406 705.955 4.28906C700.291 0.675781 699.803 0.578125 692.772 2.04297Z" fill="black"/>
<circle cx="164" cy="523" fill="#5CE50D"/>
<circle cx="682" cy="227" fill="#E52A0D"/>
<circle cx="233" cy="599" fill="#E52A0D"/>
<circle cx="341" cy="55" fill="#E52A0D"/>
</g>
<defs>
<clipPath id="clip0_1_691">
<rect width="1000" height="1000" />
</clipPath>
</defs>
</svg>
