<svg width="1000" height="1000" viewBox="0 0 1000 1000" fill="none" xmlns="http://www.w3.org/2000/svg">
<g clip-path="url(#clip0_1_694)">
<rect width="1000" height="1000" />
<path d="M607.284 159.812C606.502 160.105 604.256 161.276 602.401 162.546C600.545 163.816 597.225 165.085 595.077 165.476C593.026 165.866 589.998 166.745 588.534 167.526C587.069 168.308 583.163 168.894 579.94 168.894C575.545 168.894 573.202 169.382 571.248 170.749C569.784 171.823 566.952 172.8 564.803 172.995C561.385 173.288 560.604 173.874 556.209 180.222L551.424 187.155L553.963 195.847C557.284 207.37 556.6 210.495 549.276 217.429C545.37 221.237 543.221 222.605 541.17 222.605C537.948 222.605 533.163 227.097 528.67 234.421C526.131 238.62 525.448 239.011 521.248 239.597C516.463 240.28 514.413 242.038 509.237 250.241C508.358 251.804 506.014 253.952 504.159 255.026C502.303 256.101 500.838 257.468 500.838 258.151C500.838 258.737 499.959 260.984 498.983 263.034C497.909 265.085 496.737 268.112 496.444 269.675C495.956 271.726 494.881 272.995 492.928 273.679C491.463 274.265 489.706 276.023 489.022 277.487C488.241 279.343 485.409 281.687 480.233 284.714C476.034 287.253 472.323 290.085 472.03 291.062C471.639 292.038 469.491 293.698 467.147 294.773C463.534 296.335 462.655 297.312 461.19 301.413L459.53 306.101H444.784H430.038L423.202 310.495C417.147 314.401 415.78 314.89 410.506 314.987C407.284 315.085 401.229 316.062 396.932 317.136C389.706 319.089 388.827 319.089 382.479 317.819C367.538 314.597 353.475 317.038 347.518 323.776C345.956 325.632 344.588 327.78 344.588 328.562C344.588 329.831 348.885 333.542 356.405 338.913C358.456 340.28 358.456 340.671 357.381 345.359C356.405 349.46 354.94 351.609 349.178 357.566C334.823 372.409 325.448 383.151 323.592 387.058L321.639 391.062L298.69 392.136C278.573 393.112 275.155 393.503 271.053 395.359C266.561 397.409 266.17 397.507 259.334 396.042L252.303 394.577L243.026 399.753C237.948 402.585 230.428 406.101 226.424 407.663C222.225 409.226 215.78 412.839 211.288 416.159C207.088 419.284 202.889 421.823 202.01 421.823C201.229 421.823 196.639 423.093 191.854 424.655L183.065 427.487L174.569 420.261C167.147 414.011 165.975 412.546 165.389 409.128C164.413 403.464 161.776 403.855 158.553 410.007C155.526 416.159 149.959 419.382 134.139 424.265C127.694 426.218 120.76 428.855 118.807 430.222C115.291 432.468 114.608 432.566 96.5415 432.566H77.9868L74.4712 438.132C72.5181 441.257 69.0024 445.456 66.7563 447.409C63.5337 450.241 62.5571 451.902 62.0688 454.929C61.8735 456.98 59.1392 463.425 56.0142 469.089C51.0337 478.366 50.0571 479.636 46.3462 481.296C41.1704 483.542 37.9478 487.839 37.9478 492.527C37.9478 496.433 34.8228 505.417 31.4048 511.277C30.1353 513.523 28.7681 517.331 28.3774 519.577C27.6938 523.874 27.6938 523.874 17.3423 529.245C11.6782 532.175 5.33057 535.984 3.37744 537.741L-0.333496 540.769L3.67041 546.14C6.79541 550.241 8.55322 551.609 11.0923 552.097C17.9282 553.464 21.4438 566.745 18.3188 579.929C17.5376 583.542 17.6353 584.616 19.2954 587.155L21.1509 590.085L18.8071 593.796C15.1938 599.655 15.9751 604.441 21.2485 607.859C24.1782 609.714 24.2759 610.105 24.2759 616.452C24.2759 621.237 23.6899 624.167 22.2251 626.999C20.5649 630.319 20.4673 631.491 21.2485 633.933C21.8345 635.593 22.3228 641.355 22.3228 646.823L22.4204 656.687L27.4985 660.691C30.3306 662.937 35.0181 665.964 37.9478 667.429C40.8774 668.894 46.0532 672.507 49.2759 675.339L55.2329 680.612L55.9165 689.206C56.8931 701.609 60.1157 713.425 63.8267 718.698C83.6509 746.726 91.0727 756.491 97.3227 762.839C104.256 769.968 105.038 770.359 110.018 771.042C114.706 771.628 115.389 772.019 116.854 774.948C118.026 777.39 119.198 778.366 121.541 778.855C124.081 779.343 125.35 780.417 127.303 783.737C129.842 788.034 129.842 788.132 128.28 792.917C126.815 797.214 126.815 797.898 128.182 800.632C129.256 802.683 129.745 806.394 129.745 813.034C129.745 820.359 130.135 822.995 131.307 824.265C132.088 825.144 133.456 828.464 134.237 831.687C136.483 840.476 136.483 840.573 137.85 838.718C138.534 837.839 140.194 836.862 141.561 836.569C143.709 835.984 145.37 833.054 154.061 813.327C164.12 790.769 164.12 790.671 163.729 784.226C163.338 778.562 163.631 777.097 166.073 772.214C168.416 767.429 168.807 765.378 168.807 758.933V751.218L175.838 749.167C181.209 747.605 184.237 746.042 188.045 742.624C192.928 738.425 193.221 738.23 199.374 738.23C204.354 738.23 207.186 737.546 212.264 735.3C215.877 733.64 219.979 732.37 221.346 732.37C222.713 732.37 226.327 731.687 229.354 730.808C234.334 729.441 235.995 729.441 246.834 730.71C256.307 731.882 259.237 732.663 260.995 734.226C262.655 735.788 264.413 736.277 268.514 736.277C271.444 736.277 277.01 737.253 281.014 738.425C287.557 740.378 288.729 740.476 295.663 739.304C299.764 738.62 304.745 737.351 306.698 736.374L310.311 734.616L315.291 737.546C318.709 739.499 320.663 740.085 321.346 739.402C322.323 738.425 322.03 733.054 320.272 723.581C319.784 720.652 319.295 712.058 319.295 704.441C319.198 696.921 318.709 688.132 318.124 685.007C317.049 679.343 317.147 679.245 319.784 677.292C321.249 676.12 324.862 673.874 327.791 672.312C332.577 669.675 333.26 668.796 335.506 663.034C336.874 659.519 339.51 654.831 341.366 652.585C346.444 646.335 350.448 637.937 350.448 633.737V630.124L355.428 629.441C358.163 629.05 362.85 627.683 365.877 626.316C374.862 622.312 385.799 618.308 390.291 617.234C392.538 616.745 395.565 615.671 396.932 614.694C400.448 612.448 412.557 614.206 415.194 617.429C418.905 622.116 420.858 623.679 429.256 628.855C433.944 631.784 439.803 635.788 442.245 637.839C444.686 639.792 448.202 642.136 450.155 642.917C454.452 644.773 461.971 653.171 464.51 659.128C466.17 662.937 467.245 663.913 472.42 666.355C477.791 668.991 478.768 669.187 481.6 668.112C486.483 666.355 500.252 666.55 501.815 668.405C502.499 669.187 504.159 669.87 505.526 669.87C507.186 669.87 509.432 671.237 511.776 673.484C515.194 676.804 515.78 676.999 521.053 676.804C525.448 676.609 527.987 677.194 532.186 679.05C535.702 680.71 540.291 681.784 545.077 682.175C552.401 682.859 552.596 682.761 554.745 680.124C556.6 677.78 557.284 677.487 560.995 678.073C563.338 678.366 572.616 680.808 581.502 683.542C599.862 689.109 607.088 690.28 612.752 688.425C617.049 687.058 620.956 683.933 620.956 681.784C620.956 680.905 622.225 678.073 623.788 675.339C625.838 671.628 626.327 669.773 625.741 668.112C624.569 664.89 625.545 663.425 629.549 662.448C632.772 661.667 633.553 660.886 636.19 655.319C639.315 648.777 640.682 647.507 648.983 643.015L654.061 640.378L656.893 642.429C658.553 643.503 660.897 644.48 662.166 644.48C665.389 644.48 675.057 647.898 679.256 650.437C682.967 652.683 688.241 652.585 691.17 650.046C692.049 649.265 694.686 647.995 697.127 647.116C699.569 646.335 704.549 644.48 708.163 643.112C711.776 641.745 716.756 640.573 719.198 640.573C721.639 640.573 725.252 639.694 727.206 638.718C729.256 637.644 733.456 636.081 736.678 635.202C739.901 634.226 744.295 632.273 746.541 630.71C749.081 628.952 751.327 628.171 752.596 628.562C755.038 629.148 761.385 624.655 762.655 621.335C763.241 619.675 764.217 619.089 766.463 619.089C770.76 619.089 781.698 623.484 785.799 626.902C789.803 630.222 796.053 630.905 799.959 628.464C803.377 626.316 812.166 624.655 816.756 625.241C820.565 625.827 821.248 625.632 823.397 623.093C825.155 620.944 826.327 620.359 828.28 620.749C832.381 621.53 833.553 619.773 834.139 611.667C834.53 606.882 835.213 603.659 836.288 602.585C837.069 601.609 837.557 600.144 837.264 599.362C836.581 597.605 839.998 596.042 847.03 595.163C849.764 594.773 852.498 593.991 853.182 593.405C854.256 592.624 854.745 592.722 855.428 593.991C856.014 594.968 857.577 595.652 859.237 595.652C860.897 595.652 863.143 596.628 864.706 598.093C866.17 599.46 868.123 600.534 869.1 600.534C870.077 600.534 871.053 600.925 871.346 601.413C872.225 602.78 878.67 603.464 881.307 602.39C883.163 601.706 884.334 601.902 885.897 602.976C888.338 604.734 891.756 604.831 894.588 603.366C895.956 602.585 896.834 602.585 897.616 603.366C898.202 603.952 900.057 604.441 901.815 604.441C903.475 604.441 906.014 605.319 907.381 606.394C908.748 607.468 910.702 608.347 911.776 608.347C912.85 608.347 914.217 608.933 914.803 609.714C915.487 610.495 916.756 610.886 917.831 610.593C918.905 610.3 920.858 610.984 922.323 612.155C924.471 613.816 925.741 614.109 930.916 613.62C934.139 613.327 937.557 612.839 938.338 612.546C940.78 611.569 945.565 612.351 946.639 613.718C947.225 614.402 949.276 615.28 951.131 615.671C954.256 616.257 954.647 616.062 956.698 612.351C961.19 604.441 969.491 601.999 979.452 605.71C990.487 609.909 995.858 613.034 996.541 615.671C997.42 619.089 999.862 618.796 999.862 615.28C999.862 611.277 996.541 606.101 992.147 603.171C989.022 601.12 988.241 599.851 986.776 594.284C985.799 590.769 984.432 587.351 983.651 586.765C982.479 585.788 982.479 585.3 983.748 583.347C985.799 580.124 985.702 574.46 983.456 573.777C982.088 573.288 981.795 572.409 982.088 569.87C982.284 567.819 981.795 565.573 980.819 564.011C978.67 560.788 967.635 554.636 963.924 554.636C962.362 554.636 960.311 553.757 959.432 552.78C958.456 551.706 956.502 550.73 955.038 550.534C953.28 550.339 952.401 549.558 952.206 547.995C951.717 544.968 944.979 541.55 940.975 542.331C938.338 542.819 937.459 542.331 933.26 538.034L928.573 533.152L925.252 536.081C921.639 539.304 920.76 539.597 920.76 537.839C920.76 535.691 925.155 530.222 927.889 529.148C930.038 528.269 930.526 527.487 930.331 525.437C930.135 523.386 928.475 522.019 921.737 518.308C917.147 515.769 912.264 512.351 910.702 510.691L908.065 507.761L911.678 501.12L915.291 494.48L910.604 488.425C905.819 482.37 905.331 482.077 896.248 480.027C894.295 479.636 892.538 477.585 889.413 472.409C886.971 468.405 883.944 464.792 882.284 463.913C880.721 463.034 875.643 459.812 871.053 456.687C862.752 451.12 862.655 451.12 855.331 451.12L848.006 451.023L845.077 447.214C843.319 444.968 840.487 442.819 838.045 441.843C834.432 440.476 833.846 439.792 833.846 437.351C833.846 434.909 833.26 434.128 830.038 432.761C827.987 431.882 824.862 429.441 823.006 427.292L819.784 423.581L823.885 419.968C827.791 416.648 827.987 416.159 827.987 411.081C827.987 406.101 827.694 405.319 824.276 401.999C821.541 399.265 819.784 398.386 817.342 398.386C814.51 398.386 812.362 396.726 801.62 386.667L789.217 374.948H782.381C778.573 374.948 775.155 375.437 774.471 376.12C773.885 376.706 769.295 377.292 763.827 377.487C755.721 377.78 753.573 377.487 749.764 375.827L745.272 373.776L744.686 364.401L744.002 355.026L747.518 351.413C750.643 348.191 750.936 347.409 750.643 343.112L750.35 338.327L734.237 336.569C719.491 335.007 712.557 334.909 708.846 336.276C707.87 336.667 706.893 335.691 705.916 333.64C704.745 331.198 703.768 330.417 701.327 330.222C696.737 329.734 695.467 326.999 697.616 322.116C699.862 317.136 698.592 315.378 693.319 316.062C689.998 316.55 689.51 316.257 689.022 314.304C687.948 310.3 688.241 309.812 694.686 305.612C700.448 301.901 701.034 301.218 701.034 298.191C701.034 296.042 701.62 294.577 702.498 294.284C703.768 293.796 703.963 290.28 703.963 270.847V248.093L693.612 232.175C687.85 223.484 678.67 210.398 673.202 203.073C665.096 192.331 662.362 189.401 658.26 187.155C652.694 184.128 651.717 182.859 644.784 170.651L639.998 162.058H632.186C627.889 162.058 621.932 161.374 619.002 160.593C613.534 159.128 609.92 158.835 607.284 159.812Z" fill="black"/>
<circle cx="314" cy="673" fill="#5CE50D"/>
<circle cx="588" cy="349" fill="#E52A0D"/>
<circle cx="140" cy="569" fill="#E52A0D"/>
<circle cx="648" cy="643" fill="#E52A0D"/>
</g>
<defs>
<clipPath id="clip0_1_694">
<rect width="1000" height="1000" />
</clipPath>
</defs>
</svg>
