<svg width="1000" height="1000" viewBox="0 0 1000 1000" fill="none" xmlns="http://www.w3.org/2000/svg">
<g clip-path="url(#clip0_1_697)">
<rect width="1000" height="1000" />
<path d="M790.896 6.49609L784.744 12.7461L779.959 11.1836L775.174 9.62109L771.951 12.7461C769.119 15.4805 767.752 15.9688 758.572 17.3359C752.908 18.1172 746.658 19.4844 744.607 20.4609C741.092 22.0234 740.799 21.9258 732.986 18.8984C728.592 17.2383 724.783 16.1641 724.49 16.6523C724.197 17.043 722.928 19.0938 721.658 21.0469C719.021 25.1484 719.119 25.0508 713.357 23.4883C709.353 22.5117 708.475 22.6094 701.248 25.5391L693.435 28.6641L690.701 38.625C689.236 44.0938 685.623 53.2734 682.693 59.1328L677.518 69.582L680.447 75.4414C682.01 78.6641 683.377 81.4961 683.377 81.7891C683.377 82.082 682.107 82.2773 680.447 82.2773C677.615 82.2773 677.518 82.4727 677.518 86.3789C677.518 88.7227 678.201 93.7031 679.178 97.6094L680.74 104.641L665.799 139.113C657.596 158.059 650.564 174.27 650.076 175.148C649.295 176.613 648.611 176.613 643.143 175.441C632.693 173.195 633.572 171.926 633.572 189.699V205.324L638.357 217.922L643.045 230.52L637.088 234.914L631.131 239.309L630.838 231.594L630.545 223.879H621.072C612.771 223.781 611.307 223.586 609.06 221.633C607.596 220.461 602.615 216.262 598.025 212.258L589.627 205.129L577.029 201.906L564.529 198.781L558.279 203.469C552.908 207.57 551.346 208.254 547.439 208.254C543.045 208.254 542.85 208.156 542.557 205.129C542.361 202.688 541.287 201.32 537.674 198.781L533.084 195.461L527.127 198.488C523.807 200.148 520.486 201.32 519.705 201.027C518.924 200.734 515.896 198.684 512.967 196.438L507.596 192.434L503.201 193.898L498.807 195.461V189.602C498.807 186.477 498.416 183.84 498.025 183.84C497.635 183.84 495.486 185.598 493.435 187.746C491.385 189.895 489.334 191.652 488.943 191.652C488.65 191.652 487.771 189.699 487.088 187.258L485.818 182.863H479.373H472.83L467.068 177.004C463.846 173.781 460.916 171.145 460.525 171.145C460.135 171.145 457.107 175.051 453.885 179.934C450.662 184.719 447.83 188.723 447.635 188.723C447.439 188.723 445.975 186.77 444.412 184.328L441.678 179.934H378.494C319.217 179.934 315.311 180.031 314.822 181.594C314.529 182.57 313.846 186.086 313.162 189.504C311.893 196.047 312.771 195.07 299.686 204.934C299.49 205.129 300.076 208.156 300.955 211.672L302.518 218.02L299.1 223.195C295.779 228.078 295.682 228.664 295.682 236.965V245.656L300.564 252.199C305.252 258.547 305.447 259.035 305.447 265.285C305.447 271.633 305.252 272.121 300.955 277.785C295.877 284.328 295.877 284.523 303.982 286.281C308.768 287.355 309.939 287.258 319.412 284.523C325.174 282.766 331.912 281.496 334.939 281.496C339.236 281.496 340.994 280.91 344.998 278.176C348.904 275.637 351.541 274.758 358.182 273.781C372.83 271.73 371.853 272.219 371.853 266.848V262.16L378.201 260.598L384.549 259.035L394.217 265.383L403.787 271.828L410.135 268.703L416.58 265.578L422.537 270.168C425.76 272.707 428.494 275.051 428.494 275.441C428.494 275.832 427.811 280.324 427.029 285.402C426.248 290.48 425.564 295.168 425.564 295.852C425.564 296.438 427.908 297.512 430.74 298.098C433.475 298.781 436.502 299.66 437.381 300.148C438.26 300.539 441.58 305.031 444.9 310.012L450.955 319.191V326.613V334.035L444.607 339.016C438.357 343.996 438.26 344.094 438.26 348.781C438.26 353.469 438.26 353.469 430.74 359.426C422.439 366.066 422.146 366.066 411.014 364.113L403.885 362.844L404.471 366.066C404.764 367.922 405.35 370.852 405.643 372.609C406.228 375.734 405.936 376.125 400.174 380.422C395.682 383.742 392.361 387.355 387.869 394.191C384.451 399.367 381.619 403.762 381.619 404.055C381.619 404.348 383.67 409.426 386.209 415.383L390.701 426.027L387.674 429.934C377.42 442.824 378.299 441.066 379.666 445.949C380.35 448.391 381.424 450.734 382.01 451.223C382.596 451.711 389.627 453.957 397.537 456.301C406.228 458.84 412.381 461.184 412.771 462.062C413.26 462.941 414.139 466.555 414.822 470.168L415.994 476.809H424.002H431.912L444.412 487.648C451.248 493.605 456.619 498.781 456.424 499.172C456.228 499.465 454.275 502.98 451.932 506.887C447.928 513.723 447.83 514.113 449.002 517.727C450.076 521.242 449.978 521.73 445.682 530.422L441.092 539.406L447.537 553.664C451.053 561.574 453.494 568.215 453.103 568.508C452.615 568.801 450.662 570.07 448.709 571.34C446.756 572.609 445.096 573.977 445.096 574.367C445.096 574.758 447.732 577.004 450.955 579.348C454.178 581.691 456.814 583.742 456.814 583.84C456.814 583.938 454.861 585.305 452.42 586.867C447.537 589.895 447.439 590.285 449.393 597.609L450.76 602.59L445.975 607.277L441.189 611.965L445.779 616.652L450.369 621.34H447.244H444.119V632.473V643.605L434.939 646.73C424.588 650.148 425.467 648.879 423.611 663.039C422.439 671.828 422.342 672.023 417.654 676.613L412.869 681.301L418.924 687.453L424.978 693.605H420.975C416.287 693.605 415.896 693.996 412.478 702.883L409.842 709.719L394.51 708.156C386.111 707.277 379.08 706.496 378.982 706.398C378.885 706.398 380.057 703.176 381.717 699.367C383.279 695.461 384.549 691.945 384.549 691.457C384.549 690.676 371.463 671.73 369.217 669.191C369.021 668.996 361.014 676.613 351.443 686.184L334.061 703.469L313.26 700.539C301.834 698.879 289.139 697.512 285.135 697.512H277.713L282.4 692.727L287.088 687.941L279.275 681.789L271.365 675.539V670.754C271.268 668.02 269.803 661.477 268.143 656.203L264.92 646.438L255.252 641.75C246.463 637.355 244.9 636.965 238.65 636.965C234.842 636.965 228.494 637.648 224.588 638.625L217.557 640.285V648.293V656.398L221.951 659.426C224.393 661.086 226.346 662.941 226.346 663.43C226.346 664.016 224.295 671.145 221.853 679.25L217.361 694.094L193.826 697.219L170.193 700.344L166.971 697.219L163.846 694.191L149.686 698.879L135.525 703.469L128.299 697.609C124.295 694.289 120.779 691.652 120.486 691.652C120.193 691.652 119.9 696.535 119.9 702.59V713.43L124.393 721.145C126.932 725.441 128.592 729.25 128.103 729.641C127.615 730.031 124.002 732.961 120.096 736.086C113.064 741.652 113.064 741.652 113.064 746.438C113.064 749.074 113.26 751.223 113.553 751.223C113.846 751.223 116.775 749.855 119.998 748.195C123.318 746.535 126.053 745.363 126.248 745.559C126.346 745.754 129.861 751.809 133.865 759.035L141.189 772.219L136.893 772.512C131.619 772.902 131.717 772.414 135.037 787.062C135.33 788.137 138.553 791.359 142.264 794.094C148.123 798.488 149.49 799.074 153.787 799.074C158.182 799.074 158.963 799.465 162.771 803.371L166.971 807.668L162.283 810.891C158.279 813.527 146.658 826.418 145.389 829.641C145.193 830.129 147.83 833.254 151.15 836.672L157.205 842.824L154.08 847.414C151.443 851.32 150.564 851.809 148.416 851.418C146.951 851.125 142.166 850.344 137.674 849.758L129.568 848.684L124.783 839.113C120.779 831.008 119.412 829.25 115.31 826.613C112.771 824.953 110.33 823.879 110.037 824.27C109.744 824.66 108.182 828.176 106.717 831.984C105.154 835.891 103.787 839.113 103.494 839.113C103.299 839.113 100.467 838.43 97.2441 837.648L91.4824 836.086L84.9394 840.969C78.3964 845.754 78.3964 845.852 72.3417 859.621C68.9238 867.336 66.4824 873.879 66.6777 874.367C66.9707 874.758 72.0488 878.566 77.8105 882.668C87.5761 889.504 88.5527 890.48 89.7246 894.484C90.8964 898.977 97.7324 909.23 101.736 912.844C103.006 913.918 112.381 921.926 122.732 930.715C132.986 939.504 141.385 946.926 141.385 947.316C141.385 947.707 140.701 950.344 139.92 953.273C139.139 956.203 138.748 958.938 138.943 959.328C139.236 959.719 141.385 961.281 143.728 962.746L147.928 965.383L146.463 970.168L144.9 974.953L157.596 987.648L170.291 1000.34L178.299 993.898C182.693 990.383 186.307 987.355 186.307 987.258C186.307 987.16 186.99 983.352 187.771 978.762C188.553 974.172 189.236 970.266 189.236 970.07C189.236 969.777 190.506 970.852 192.166 972.414C194.998 975.148 195.096 975.148 200.76 973.879C207.986 972.414 208.182 972.316 209.451 967.531C210.037 965.383 211.502 960.5 212.576 956.691L214.627 949.855L227.518 947.023C234.646 945.559 241.385 943.801 242.459 943.117C243.533 942.434 246.853 938.82 249.783 935.012L255.154 928.078L261.6 927.98H268.045L269.217 932.082C270.096 935.207 272.635 938.43 278.787 944.777L287.186 953.176L291.092 951.809C293.24 951.027 295.291 950.441 295.779 950.441C296.17 950.441 299.978 955.227 304.178 961.184L311.795 971.926H318.143H324.588L327.811 978.469L331.033 985.012L334.061 979.934C335.818 977.199 337.967 973.586 338.846 971.926L340.603 968.898L344.9 971.828C347.342 973.488 349.49 974.855 349.686 974.855C349.978 974.855 351.736 972.707 353.592 970.07C356.033 966.652 358.182 964.992 360.818 964.113C362.869 963.43 364.822 962.648 365.213 962.258C365.603 961.965 365.213 955.324 364.334 947.707L362.771 933.645L367.264 929.152C369.803 926.711 371.951 924.855 372.146 925.051C372.342 925.344 374.588 928.273 377.127 931.691L381.717 937.746H387.967H394.119L397.244 932.863L400.369 927.98H409.842C418.924 927.98 419.51 927.883 421.756 925.441C423.904 923 428.299 919.973 437.478 914.406L441.092 912.258L439.529 916.75L437.967 921.34L444.217 927.59L450.369 933.84L444.119 940.188L437.869 946.535L441.092 953.176L444.314 959.914L442.752 971.926C441.873 978.566 441.385 984.133 441.482 984.328C441.678 984.523 445.193 983.254 449.393 981.496L456.912 978.469L463.162 984.621L469.412 990.871L475.564 987.941C478.885 986.379 484.06 983.547 486.99 981.594C491.971 978.469 492.85 977.199 497.244 968.41C501.834 959.035 502.322 958.449 512.967 949.465C521.951 941.848 524.49 939.113 527.225 933.84C530.447 927.883 530.838 927.492 537.381 924.758C541.775 922.902 546.756 921.633 551.443 921.242L558.768 920.656L563.357 912.941C566.775 907.277 568.338 903.371 569.217 898.488C569.9 894.777 570.877 891.164 571.463 890.48C573.416 888.039 588.064 883.352 597.439 882.18C606.424 881.008 615.408 878.762 617.459 877.102C618.045 876.711 619.803 872.316 621.365 867.336C623.904 859.426 624.588 858.254 627.42 856.887C631.033 855.129 631.033 855.129 632.693 844.484C634.06 835.5 638.357 826.027 645.096 817.238C649.393 811.672 649.49 811.379 648.123 808.449C647.146 806.105 646.756 799.074 646.463 778.859L646.17 752.297L649.685 740.285C651.541 733.742 653.103 726.516 653.103 724.367C653.103 722.121 651.541 715.773 649.685 710.207C646.463 700.734 646.268 699.172 646.268 687.941V675.832L652.713 667.727C656.228 663.234 665.408 654.055 673.318 647.121C686.697 635.305 688.162 633.645 697.049 620.363L706.424 606.203L707.986 596.73L709.646 587.16L719.217 576.027C724.49 569.875 733.67 560.598 739.725 555.52L750.564 546.145H759.939C768.728 546.145 769.803 545.949 775.955 542.824C781.131 540.188 783.67 538.137 787.869 532.863C790.799 529.152 798.514 520.656 805.057 513.918C812.771 506.008 818.631 498.977 821.658 493.996L826.346 486.281L824.685 472.512C823.709 464.895 823.025 455.129 823.025 450.637C823.025 443.02 823.221 442.141 827.713 433.059C831.033 426.516 833.475 419.582 835.623 410.891L838.748 398.195L845.193 391.652C851.346 385.402 851.639 384.914 852.908 377.98C855.057 366.066 855.057 366.262 848.416 363.039L842.557 360.207V350.93C842.557 345.754 843.24 339.211 843.924 336.379C845.096 332.082 845.096 330.52 843.924 326.125C843.24 323.391 842.557 316.848 842.557 311.77V302.59L848.611 296.438L854.666 290.383L853.103 279.348L851.541 268.312L856.326 263.43L861.014 258.547L862.576 246.047C864.041 234.523 864.139 232.863 862.674 224.074L861.014 214.602L864.041 205.91C866.873 197.512 866.971 196.438 866.971 181.008V164.797L873.709 157.961C879.178 152.395 880.936 149.758 883.182 143.801C884.744 139.797 887.576 134.035 889.529 131.105C894.314 123.684 899.197 110.695 899.197 105.422V101.125L906.814 98.1953L914.334 95.2656L914.627 87.0625L914.92 78.8594L922.635 71.0469L930.447 63.2344L931.912 49.1719C932.693 41.457 933.377 34.3281 933.377 33.3516C933.377 31.9844 931.521 30.6172 927.225 28.4688C921.561 25.6367 920.584 24.7578 916.385 17.7266C913.846 13.4297 911.502 10.0117 911.111 10.0117C910.721 10.0117 908.475 11.3789 906.033 12.9414C902.029 15.5781 900.857 15.8711 893.729 15.8711H885.818L884.451 21.9258C882.986 28.1758 882.205 29.1523 876.053 31.0078C873.904 31.5938 873.807 31.3984 873.807 25.1484C873.807 19.4844 873.611 18.7031 872.146 19.1914C871.17 19.4844 866.775 20.168 862.283 20.8516L854.275 22.1211L851.053 18.9961L847.928 15.9688L842.557 17.3359C839.627 18.1172 836.893 18.8008 836.502 18.8008C836.014 18.8008 835.721 16.8477 835.721 14.4062C835.721 10.3047 835.525 10.0117 833.084 10.0117C830.252 10.0117 814.92 11.6719 810.135 12.4531C807.791 12.8438 806.912 12.0625 802.908 6.59375C800.369 3.07812 798.025 0.246094 797.635 0.246094C797.342 0.246094 794.314 3.07812 790.896 6.49609Z" fill="black"/>
<circle cx="540" cy="908" fill="#5CE50D"/>
<circle cx="633" cy="246" fill="#E52A0D"/>
<circle cx="342" cy="804" fill="#E52A0D"/>
<circle cx="144" cy="938" fill="#E52A0D"/>
</g>
<defs>
<clipPath id="clip0_1_697">
<rect width="1000" height="1000" />
</clipPath>
</defs>
</svg>
