<svg width="1000" height="1000" viewBox="0 0 1000 1000" fill="none" xmlns="http://www.w3.org/2000/svg">
<rect width="1000" height="1000" />
<path d="M574.98 194.744C575.549 198.064 575.549 198.064 572.704 197.495C570.617 197.021 569.004 197.495 567.012 198.918C565.4 199.961 563.218 200.91 562.175 200.91C559.708 200.91 550.697 209.067 550.697 211.249C550.697 212.103 548.8 214.948 546.618 217.51C542.919 221.683 542.35 222.916 541.875 228.133C541.306 233.635 541.401 234.109 543.773 235.912C545.101 237.05 547.662 237.904 549.369 237.904C551.93 237.904 552.594 238.283 552.594 239.706C552.594 241.698 555.06 243.121 555.914 241.698C556.199 241.224 558.57 240.56 561.131 240.18C564.925 239.706 565.874 239.232 565.874 237.809C565.874 236.67 566.538 236.006 567.676 236.006C568.625 236.006 569.953 235.342 570.617 234.584C571.376 233.635 573.557 233.161 577.257 233.161C583.327 233.161 585.794 234.868 585.794 239.137C585.794 241.982 584.371 243.31 583.517 241.129C583.232 240.37 582.474 239.99 581.905 240.275C581.241 240.749 581.146 242.646 581.525 245.682C582.379 251.942 580.861 255.831 577.636 255.167C575.739 254.788 575.359 254.219 575.359 251.563C575.359 249.286 574.885 248.148 573.747 247.769C572.798 247.484 570.427 246.535 568.435 245.682C564.831 244.259 564.831 244.259 562.269 247.01C560.847 248.527 557.906 250.614 555.724 251.563C551.076 253.65 550.223 256.495 553.922 257.444C558.38 258.487 557.432 260.289 551.266 262.471C545.954 264.368 545.101 264.368 542.255 263.23C539.883 262.187 538.366 262.092 536.564 262.851C530.303 265.127 517.118 259.246 516.359 253.839C516.17 252.132 515.221 251.563 512.281 250.994C505.735 249.855 502.89 249.096 500.898 247.769C497.862 245.587 495.87 246.251 493.309 250.235C491.602 252.986 489.989 254.219 487.239 254.978C485.247 255.452 483.065 256.59 482.401 257.349C481.737 258.108 479.84 258.961 478.133 259.341C475.477 259.815 474.813 260.479 474.243 262.945C473.39 267.214 473.2 267.309 469.785 265.886C467.034 264.748 466.56 264.748 464.758 266.455C463.525 267.688 461.533 268.257 459.067 268.162C445.407 267.973 443.7 268.068 441.329 269.68C439.716 270.629 437.914 271.103 436.491 270.724C434.689 270.249 434.214 269.396 433.835 265.886C433.076 259.341 432.222 258.772 422.547 258.772H414.105L411.544 263.894L409.078 268.921L403.291 269.49C400.066 269.775 395.418 270.818 392.952 271.957C390.391 273.095 386.502 273.949 384.225 273.949C380.716 273.949 379.767 273.474 378.06 271.103C375.594 267.593 376.068 264.463 379.198 263.04C380.621 262.376 381.285 261.428 381.095 260.195C380.811 258.013 380.811 257.349 381.095 254.124C381.569 250.424 379.767 250.899 373.981 256.021L368.479 260.953L362.409 260.289C356.338 259.72 356.338 259.72 354.82 262.566C353.967 264.179 351.216 267.783 348.655 270.724C343.438 276.415 342.963 278.027 345.904 281.158C348.18 283.529 347.611 285.142 343.248 289.315L340.592 291.876L335.944 288.936L331.296 285.901L329.589 288.082C327.217 291.023 327.312 291.971 330.063 291.971C331.296 291.971 332.814 292.54 333.383 293.204C334.237 294.248 333.288 295.671 328.925 299.655C322.285 306.01 318.585 307.717 314.507 306.294C310.902 305.061 295.725 306.674 293.638 308.571C292.405 309.709 291.836 309.614 289.844 308.097C288.516 307.053 285.955 306.2 284.058 306.2C278.651 306.2 277.133 304.397 277.892 299.465C279.789 288.177 279.979 289.126 276.659 289.126C274.952 289.126 272.391 288.177 270.873 287.134C268.027 284.952 266.604 285.047 258.731 287.323C255.412 288.367 253.989 288.367 250.194 287.228C247.728 286.564 243.27 285.711 240.329 285.521C233.405 285.047 232.741 286.28 235.587 294.248C236.725 297.378 237.579 299.939 237.389 300.034C237.294 300.034 234.828 301.267 231.982 302.69C229.137 304.113 226.196 305.251 225.532 305.251C224.868 305.251 224.394 306.484 224.394 308.097C224.394 309.899 223.73 311.227 222.497 311.891C221.453 312.46 218.987 315.306 216.9 318.341C214.908 321.376 212.537 324.412 211.683 325.076C210.829 325.74 210.165 327.542 210.165 329.06V331.811L213.865 329.913C217.09 328.301 218.323 328.206 222.781 328.965C227.05 329.819 228.852 329.629 233.784 328.111C241.278 325.835 245.262 326.688 248.108 331.241C250.669 335.51 249.53 338.64 244.408 341.201C242.416 342.245 239.665 344.426 238.432 346.039C236.725 348.221 235.018 349.074 231.128 349.833C228.283 350.402 225.817 350.971 225.627 351.161C225.342 351.351 225.911 352.869 226.67 354.481C229.895 360.647 228.947 363.018 219.936 372.029C202.956 388.724 203.146 388.439 205.423 389.673C207.32 390.716 207.13 391 201.534 395.364C198.214 397.925 193.566 400.676 191.194 401.624C185.598 403.711 183.796 405.419 183.037 409.213C182.562 411.679 181.993 412.343 180.001 412.628C178.199 412.817 176.871 414.05 175.353 416.706C174.215 418.698 172.413 420.785 171.369 421.165C169.093 422.018 168.714 424.959 170.8 426.666C172.887 428.374 171.654 429.512 167.575 429.512C163.971 429.512 163.876 429.607 160.935 436.152C158.09 442.697 157.9 442.792 154.39 442.792C152.398 442.792 150.406 443.171 149.932 443.645C148.225 445.258 133.902 450.57 130.866 450.76C128.59 450.854 126.787 452.087 122.614 456.641C115.784 464.039 115.12 466.6 119.009 471.912C121.475 475.327 121.95 476.845 121.95 481.493C121.95 486.046 121.57 487.469 119.294 490.219C115.5 494.867 114.646 502.266 117.302 506.819L119.294 510.139L116.827 514.408C114.456 518.392 114.077 518.676 110.188 518.676C106.299 518.676 106.014 518.866 103.548 523.514C102.03 526.17 100.228 528.541 99.2792 528.826C95.0107 530.249 81.1618 539.355 79.5492 541.916C78.5058 543.433 71.2019 550.263 63.4238 557.093C55.5508 563.827 48.3417 570.847 47.3932 572.649L45.5909 575.874L48.816 578.435C50.9028 580.237 52.2308 582.419 52.8 585.075C53.6537 588.869 53.5588 589.249 50.144 593.043C48.152 595.13 44.7372 599.778 42.4607 603.287C38.4768 609.358 38.3819 609.738 39.4253 613.532C40.0893 615.998 40.1842 617.895 39.615 618.559C39.1408 619.223 38.4768 620.836 38.1922 622.164C37.4334 625.104 40.4687 628.329 46.8241 631.459C50.2389 633.167 51.472 634.59 53.6537 639.332L56.4045 645.119L52.136 650.62C49.8594 653.561 47.9623 656.786 47.9623 657.64C47.9623 658.493 47.3932 660.106 46.8241 661.244C46.1601 662.382 45.5909 666.082 45.5909 669.402V675.472L40.8482 676.8C38.2871 677.559 35.1568 679.077 34.1134 680.025C32.6906 681.353 31.3626 681.733 29.75 681.353C26.2404 680.405 18.4622 684.958 16.2806 689.132C14.5731 692.452 14.5731 692.641 16.2806 693.874C17.2291 694.538 18.5571 695.108 19.2211 695.108C20.9285 695.108 20.8336 695.961 18.0828 702.127C16.7548 705.067 15.7114 707.723 15.7114 707.913C15.7114 708.198 17.988 708.387 20.8336 708.387C23.6793 708.387 27.0941 708.767 28.4221 709.336C30.5089 710.095 31.078 709.81 32.7854 707.439C34.4928 705.067 35.062 704.783 37.1488 705.542C45.8755 708.862 59.1553 703.929 65.7952 695.013C69.3048 690.175 70.6328 689.321 77.4624 686.571C85.5251 683.251 86.8531 681.828 86.8531 676.231C86.8531 672.627 85.0509 671.109 82.6795 672.816C80.4029 674.524 76.419 672.816 76.419 670.066C76.3242 666.935 73.0042 660.296 70.8225 659.062C69.6843 658.493 68.8306 657.165 68.8306 656.027C68.8306 652.233 76.0396 642.558 82.3001 638.004C85.62 635.633 89.3194 632.503 90.5525 631.175C91.8805 629.847 93.7776 628.709 94.821 628.709C98.0461 628.709 110.757 624.82 115.689 622.353C118.345 621.025 122.614 618.275 125.27 616.283L130.202 612.583H149.078C169.472 612.583 167.196 612.204 191.479 619.318L197.834 621.215V628.045C197.834 637.056 195.463 641.04 189.961 641.04C185.977 641.04 185.598 643.601 189.202 646.447C190.815 647.68 192.143 649.482 192.143 650.431C192.143 651.853 194.514 654.13 204.759 662.951C206.466 664.374 204.284 672.627 201.249 676.042C197.075 680.784 195.937 683.82 195.937 690.744C195.937 696.151 195.652 696.91 192.807 699.661C190.246 702.127 189.677 703.36 190.056 705.542C190.625 709.526 195.273 712.182 201.439 712.182C204.19 712.182 208.079 712.846 210.165 713.699L213.96 715.217V721.003C213.96 725.556 213.58 727.169 211.968 728.876C209.501 731.532 210.165 735.611 213.296 736.844C215.003 737.508 215.857 737.129 218.228 734.567L221.074 731.437L224.489 734.852C226.291 736.749 229.042 740.259 230.37 742.725C231.792 745.096 233.974 747.942 235.207 748.891C239.76 752.495 241.278 757.617 239.096 762.645C238.527 763.973 239.191 764.542 242.796 765.49C247.444 766.724 247.633 767.008 246.305 771.561C245.547 774.312 245.831 775.071 250.1 780.098C252.661 783.228 254.748 786.453 254.748 787.307C254.748 788.161 255.791 789.868 257.024 791.101C258.257 792.335 259.49 794.137 259.68 795.18C260.249 798.5 263.759 798.026 266.604 794.232C269.545 790.437 272.011 790.437 274.952 794.326C277.418 797.457 282.256 797.552 282.256 794.421C282.256 791.196 286.05 788.066 289.749 788.066C293.069 788.066 297.717 784.177 298.855 780.383C299.33 778.865 299.994 778.58 301.511 778.96C302.65 779.339 305.78 780.003 308.341 780.383C310.997 780.857 314.696 781.995 316.593 782.849C319.818 784.462 320.008 784.462 322 782.47C323.044 781.426 325.036 780.478 326.269 780.478C327.881 780.478 329.494 779.339 331.106 777.252C332.624 775.166 334.616 773.838 336.134 773.648C338.126 773.458 338.79 772.794 338.979 770.707C339.169 769 339.833 768.146 340.971 768.146C341.92 768.146 343.248 767.482 343.912 766.724C344.576 765.965 346.283 765.301 347.611 765.301C351.026 765.301 353.303 763.498 354.156 760.084C355.2 756.289 357.856 755.91 360.512 759.23C362.314 761.412 363.452 761.886 366.772 761.981C369.049 761.981 372.558 761.601 374.455 761.222C377.586 760.558 378.25 760.748 381.285 763.878C383.087 765.68 385.459 767.198 386.597 767.198C388.209 767.198 388.494 767.767 388.494 770.992C388.494 774.217 388.873 774.881 390.865 775.355C392.478 775.735 393.996 775.261 395.703 773.933C399.307 771.087 401.679 771.466 405.663 775.355C408.508 778.106 409.457 778.58 410.88 777.727C411.923 777.252 415.148 776.494 418.089 776.209C424.065 775.545 423.685 776.019 425.108 765.775C425.582 762.265 426.531 760.368 428.523 758.471C431.084 756.1 432.033 755.815 440.475 755.625L449.676 755.341L452.711 750.124C454.324 747.278 456.6 743.389 457.739 741.587C459.541 738.741 459.73 737.887 458.782 735.326C457.454 731.722 458.782 727.074 462.292 723.28C464.189 721.288 465.612 720.719 468.552 720.719C473.769 720.719 476.899 718.916 477.943 715.501C478.417 713.889 480.124 711.802 481.737 710.759C483.919 709.431 484.867 708.008 485.057 706.016C485.152 704.403 485.721 701.368 486.385 699.091C487.239 695.677 487.144 694.823 485.816 693.305C484.962 692.357 483.634 689.511 482.875 686.95C482.022 683.82 480.219 680.974 477.658 678.508C471.398 672.532 471.398 672.247 475.951 665.702C479.745 660.39 480.219 660.011 482.875 660.485C491.887 662.382 492.551 662.288 496.534 658.968C499.285 656.596 500.518 654.794 500.898 652.233C501.372 649.387 502.036 648.533 504.502 647.68C508.107 646.447 520.343 635.064 520.343 632.977C520.343 632.218 519.3 630.606 517.972 629.467C513.324 625.484 514.557 623.966 526.888 617.8C535.805 613.437 539.219 612.204 542.729 612.204C547.093 612.109 547.377 612.299 549.464 615.903C553.163 622.543 552.31 641.514 547.757 653.656L545.006 661.054L547.377 667.41C551.551 678.603 552.31 679.551 559.708 682.871L566.443 685.907L574.79 700.514C582.758 714.553 583.138 715.027 586.173 715.027C587.975 715.027 590.536 715.976 592.528 717.493C594.331 718.821 597.366 720.719 599.263 721.762L602.868 723.564L607.326 721.288L611.879 719.011L615.199 721.762C618.898 724.892 620.511 725.177 623.451 723.09C625.348 721.762 625.728 721.952 630.186 726.979C635.119 732.67 635.783 736.18 632.178 737.129C630.755 737.508 630.471 738.172 630.85 740.354C631.324 742.63 630.85 743.389 627.53 745.76C624.115 748.037 621.839 751.357 621.839 753.823C621.839 754.203 623.451 755.056 625.538 755.625C627.815 756.384 630.85 758.566 633.601 761.506C636.257 764.352 639.197 766.534 640.905 766.913C643.371 767.388 643.656 767.767 643.656 771.277C643.656 774.407 644.32 775.83 646.975 778.58C649.631 781.331 650.39 783.039 651.434 788.73C652.477 795.37 652.477 795.654 650.485 797.836C648.493 799.923 647.734 803.243 648.967 804.476C649.252 804.761 651.149 804.381 653.141 803.717C656.556 802.484 656.84 802.579 658.832 804.666C660.445 806.468 661.394 806.753 663.101 806.089C664.808 805.425 665.377 805.709 666.326 807.606C666.895 808.934 668.128 809.883 669.267 809.883C673.25 809.883 674.863 808.081 676.95 801.061C678.088 797.362 679.985 793.188 681.218 791.86C682.451 790.532 683.685 788.066 684.064 786.548C684.538 783.892 684.159 783.228 680.46 780.193C678.183 778.391 675.337 776.588 674.009 776.209C672.112 775.735 671.258 774.407 669.551 769.19C666.895 761.222 666.895 760.368 669.361 758.092C671.164 756.479 671.258 755.625 670.689 749.46C670.12 743.389 670.31 742.156 672.112 739.31C673.25 737.318 675.337 735.611 677.234 734.947C683.495 732.86 685.582 728.402 683.874 720.055C683.305 717.209 683.59 716.924 688.712 713.984C691.652 712.371 694.593 710 695.067 708.767C695.636 707.534 696.87 706.3 697.818 706.016C698.767 705.731 699.81 704.593 700.095 703.55C700.474 702.506 701.517 701.747 702.845 701.747C704.648 701.747 705.501 700.704 707.114 697.1C708.157 694.538 709.106 691.977 709.106 691.408C709.106 690.839 710.149 689.701 711.382 688.847C712.71 688.088 714.038 686.096 714.323 684.579C714.797 682.681 715.556 681.828 716.789 681.828C718.212 681.828 718.591 681.164 718.591 678.508C718.591 676.326 720.489 671.394 723.903 664.564C728.931 654.509 729.12 653.751 728.551 648.723C728.267 645.783 727.792 639.996 727.508 635.823C727.034 628.614 726.844 628.045 723.429 624.44C718.212 618.938 718.022 617.895 722.386 615.903C726.18 614.196 727.128 612.109 727.128 605.374C727.128 603.572 727.887 601.39 728.836 600.442C733.199 596.078 745.151 595.319 745.151 599.398C745.151 601.106 746.669 604.52 748.661 607.556C749.135 608.125 750.653 608.979 752.076 609.263C754.447 609.927 754.826 609.643 756.534 605.564C758.526 601.295 761.466 598.355 763.932 598.355C765.071 598.355 765.166 599.588 764.691 604.71C762.889 623.776 762.889 623.492 764.976 627.57C766.114 629.752 766.968 632.977 766.968 634.779C766.968 638.194 768.58 640.471 771.521 641.419C772.375 641.704 774.367 644.36 775.884 647.205C779.584 654.414 786.224 660.77 790.587 661.434C792.484 661.718 795.804 662.857 797.986 663.805C801.875 665.607 802.064 665.607 807.376 663.805C810.317 662.762 814.111 661.908 815.724 661.908C819.423 661.908 821.984 658.209 821.984 652.707C821.984 650.715 822.364 648.628 822.743 648.059C823.976 646.162 827.106 646.067 830.142 647.869C833.082 649.577 833.272 649.577 837.351 647.775C839.722 646.826 842.473 644.834 843.516 643.506C844.939 641.704 846.362 641.04 848.828 641.04C850.63 641.04 853.95 640.376 856.227 639.617C858.503 638.763 861.254 638.289 862.298 638.574C863.341 638.858 865.238 638.479 866.471 637.815C868.558 636.676 869.032 636.866 873.206 641.135L877.759 645.783L878.423 654.509L879.087 663.331L885.253 667.41L891.513 671.583L891.039 677.559C890.47 683.535 890.565 683.63 893.221 684.768C895.592 685.717 896.256 685.622 897.869 684.199C899.481 682.776 900.43 682.681 904.319 683.44C909.346 684.389 913.045 683.63 913.045 681.543C913.045 680.784 914.089 678.603 915.417 676.611C917.599 673.48 917.693 672.911 916.555 671.488C915.796 670.635 912.761 665.797 909.82 660.77L904.319 651.664L905.836 646.067C906.595 643.032 907.544 639.617 907.923 638.574C908.208 637.435 909.915 635.728 911.717 634.779C914.373 633.357 914.943 632.503 914.943 629.942C914.943 627.855 914.373 626.527 913.045 625.863C911.907 625.294 911.148 623.871 911.148 622.543C911.148 619.792 910.579 619.697 904.034 621.405C901.473 622.069 898.343 622.448 897.11 622.258C894.264 621.784 890.944 615.334 891.703 611.729C891.987 610.307 891.798 608.03 891.324 606.607C890.565 604.805 890.754 603.003 891.703 600.157C892.462 597.975 893.126 594.181 893.126 591.715C893.126 588.205 893.6 586.877 895.497 585.075C896.825 583.747 897.869 581.755 897.869 580.332C897.869 578.909 898.912 576.917 900.24 575.589C901.568 574.356 902.896 571.985 903.18 570.183C903.75 567.337 904.129 567.052 906.975 567.052C908.777 567.052 912.381 566.009 914.943 564.681C917.504 563.353 921.013 562.31 922.626 562.31C924.428 562.31 926.989 561.361 928.792 559.938C932.586 557.093 932.965 557.757 932.965 567.147V573.787L937.044 575.495C940.079 576.823 941.882 578.435 943.779 581.755C945.771 584.98 946.814 586.024 947.952 585.549C948.901 585.265 954.118 584.79 959.62 584.601C967.398 584.316 970.054 584.506 971.477 585.549C973.753 587.257 977.927 587.352 979.255 585.739C979.729 585.17 980.677 582.704 981.341 580.332C981.911 577.961 983.144 575.02 983.903 573.787C984.851 572.27 985.231 570.088 984.946 566.863C984.472 562.879 983.903 561.835 980.393 558.8C976.788 555.67 975.935 555.385 971.477 555.575L966.639 555.765L965.311 550.737C962.94 541.821 963.319 538.88 967.682 535.276C970.623 532.715 971.192 531.861 970.243 530.913C969.579 530.249 969.01 528.541 969.01 527.118C969.01 524.842 969.959 523.703 976.409 519.056C976.599 518.961 975.84 517.158 974.796 514.977C972.141 509.855 972.33 508.147 975.65 504.922C977.737 502.93 978.496 501.318 978.496 499.041C978.496 497.239 979.35 494.203 980.393 492.117C981.626 489.65 982.29 486.52 982.29 482.726C982.29 479.121 982.954 475.422 984.187 472.576C985.42 469.826 986.084 466.506 985.895 464.324C985.61 460.34 985.61 460.34 975.46 455.597C972.994 454.459 971.856 453.226 971.856 451.898C971.761 449.906 965.975 442.792 964.267 442.792C963.793 442.792 961.422 443.74 959.145 444.878C956.015 446.396 954.497 447.819 953.454 450.285C952.695 452.182 950.988 454.743 949.66 455.977C947.857 457.684 947.193 459.297 947.193 461.763C947.193 464.514 946.719 465.462 944.822 466.506C942.735 467.644 941.976 467.549 938.846 466.126L935.337 464.419L932.775 467.549C930.499 470.3 930.119 471.533 930.119 476.655V482.631H926.989C925.092 482.631 922.152 483.864 919.211 485.856C915.701 488.133 912.856 489.176 908.777 489.65C903.275 490.314 902.991 490.219 900.335 487.469C898.722 485.856 896.541 484.528 895.497 484.528C893.979 484.528 892.367 483.01 889.901 479.311C887.34 475.422 885.917 474.094 884.209 474.094C882.881 474.094 880.605 473.051 879.087 471.723C876.905 469.826 875.198 469.351 871.404 469.351C867.23 469.351 865.618 468.782 860.97 465.652C855.563 461.952 855.468 461.763 854.804 456.641C854.425 452.846 854.614 450.38 855.753 447.629C857.081 444.12 857.081 443.645 855.753 441.653C854.899 440.515 854.235 438.333 854.235 436.911C854.235 433.78 854.235 433.78 849.587 436.057L845.983 437.954L840.007 434.255C835.833 431.694 832.418 430.366 828.719 429.891C825.873 429.512 820.182 427.994 816.103 426.571C807.945 423.536 799.788 423.062 791.441 425.054C787.741 425.907 786.698 425.812 784.611 424.485C781.576 422.493 779.299 422.493 775.031 424.485C771.9 426.002 771.616 426.002 770.098 424.485C768.58 422.967 768.77 422.587 773.892 417.37C780.627 410.636 780.817 408.074 775.979 397.546C773.703 392.518 772.659 389.009 772.659 385.878C772.659 380.187 776.264 369.658 781.006 361.5C783.188 357.896 785.56 353.058 786.508 350.782C787.457 348.505 789.543 345.375 791.251 343.952C792.958 342.434 794.855 339.589 795.519 337.692C796.089 335.795 797.701 332.19 799.029 329.629C801.4 325.266 801.495 325.171 806.048 325.171C810.032 325.171 810.601 324.886 810.601 323.274C810.601 322.135 809.937 320.333 809.273 319.195C808.515 318.057 807.566 314.262 807.187 310.848C806.617 305.441 806.807 304.492 808.23 303.923C809.843 303.354 809.843 303.259 808.23 301.457C807.281 300.413 805.859 299.56 805.1 299.56C804.436 299.56 802.539 298.706 801.021 297.568C799.503 296.524 797.891 295.86 797.416 296.145C795.614 297.283 787.267 285.426 784.99 278.407C783.473 273.759 782.809 273.095 773.323 266.36C767.727 262.471 760.897 257.444 758.146 255.262C755.301 252.986 748.756 249.286 743.349 247.01C738.037 244.638 732.63 241.888 731.207 240.844C727.603 237.904 721.911 236.67 715.746 237.429C710.813 237.998 709.865 237.809 705.122 235.153C701.517 233.066 698.672 232.212 695.731 232.212C693.455 232.212 688.333 231.359 684.443 230.22C678.088 228.418 676.665 228.323 671.164 229.367C667.749 230.031 662.247 232.023 658.832 233.73C654.469 236.006 651.529 236.955 648.398 236.955C644.414 236.955 643.656 236.576 641.094 233.35C639.577 231.453 637.774 228.892 637.205 227.754C636.162 225.952 636.352 225.667 638.154 225.383C642.043 224.813 640.81 223.011 634.455 219.881C630.945 218.079 627.245 216.087 626.392 215.328C624.874 214.095 624.305 214.19 620.89 216.561C618.803 217.984 617.096 219.312 617.096 219.407C617.096 219.502 618.803 220.735 620.89 222.158C624.969 224.813 625.538 226.521 623.167 228.513C622.028 229.461 621.27 229.461 619.847 228.608C618.898 227.944 617.286 227.469 616.337 227.469C614.061 227.469 611.689 224.908 610.836 221.304C610.456 219.691 609.602 217.604 608.938 216.561C606.946 213.81 607.326 210.68 609.508 210.111C610.551 209.826 611.405 208.973 611.405 208.214C611.405 206.411 608.18 205.273 604.101 205.558C601.54 205.747 601.065 205.463 600.496 202.807C599.073 196.262 591.106 190.95 591.58 196.831C591.864 201.289 591.58 202.807 590.157 202.807C589.398 202.807 588.355 201.005 587.691 198.159C586.742 193.985 586.268 193.511 583.043 192.468C581.051 191.899 578.3 191.424 576.877 191.424C574.506 191.424 574.316 191.614 574.98 194.744Z" fill="black"/>
<circle cx="331" cy="387" fill="#5CE50D"/>
<circle cx="581" cy="327" fill="#E52A0D"/>
<circle cx="53" cy="696" fill="#E52A0D"/>
<circle cx="202" cy="594" fill="#E52A0D"/>
</svg>
