<svg width="1000" height="1000" viewBox="0 0 1000 1000" fill="none" xmlns="http://www.w3.org/2000/svg">
<rect width="1000" height="1000" />
<path d="M382.927 2.40759C377.947 4.94666 377.752 5.04431 374.334 3.38416C369.353 1.04041 366.326 2.60291 365.544 7.974C365.252 10.1224 364.666 13.2474 364.47 14.7123C363.982 16.9584 364.275 17.5443 365.935 18.0326C368.474 18.7162 368.474 18.7162 365.349 22.9154C362.81 26.1381 362.517 26.3334 358.22 25.7474C355.779 25.4545 350.017 23.306 345.33 21.0599C338.201 17.7396 336.736 16.6654 336.248 14.3217C335.759 11.9779 331.365 7.77869 330.388 8.75525C330.193 8.95056 328.923 11.6849 327.556 14.8099C325.505 19.3021 324.822 22.8177 324.431 30.4349L323.845 40.2982L328.337 43.2279C330.779 44.7904 332.83 46.3529 332.83 46.6459C332.83 46.9388 330.193 50.0638 327.068 53.6771L321.306 60.2201L317.595 56.9974L313.884 53.7748L306.072 55.7279C300.115 57.0951 296.306 57.3881 290.642 56.9974L283.123 56.4115L279.216 61.6849L275.31 66.9584L278.142 73.892L280.974 80.8256L275.212 84.7318C271.99 86.8802 268.865 88.931 268.084 89.1263C267.4 89.4193 265.544 87.8568 263.884 85.4154C262.127 82.974 258.318 79.6537 254.607 77.4076C248.455 73.6967 248.259 73.599 239.861 73.892L231.267 74.1849V71.5482C231.267 69.2045 230.974 69.0092 229.119 69.5951C227.849 69.8881 224.822 70.474 222.283 70.767C217.302 71.3529 216.814 70.8646 218.669 66.8607C219.451 65.2006 219.451 63.4427 218.669 60.6107C217.693 56.9974 217.107 56.4115 212.712 54.849L207.83 53.0912V48.1107C207.83 43.9115 207.341 42.642 205.193 40.4935L202.459 37.9545L194.451 40.7865C185.271 44.0092 181.951 43.6185 177.752 38.6381L175.408 35.9037L167.693 41.8607C159.099 48.4037 158.416 50.1615 161.931 56.0209L163.982 59.2435L160.662 59.8295C157.83 60.4154 156.658 61.7826 150.701 71.0599C144.353 81.0209 143.67 81.7045 140.154 82.1927C138.005 82.5834 134.978 83.8529 133.22 85.1224C130.974 86.7826 129.607 87.1732 127.752 86.5873C126.384 86.1967 124.822 85.9037 124.138 85.806C123.552 85.7084 120.72 89.4193 117.888 94.0092C113.298 101.529 112.127 102.798 106.56 105.923C100.505 109.244 100.115 109.732 96.4039 117.74C94.3531 122.232 92.5953 126.431 92.5953 126.822C92.5953 127.31 93.4742 127.701 94.4508 127.701C95.525 127.701 97.0875 127.994 97.9664 128.286C99.3336 128.872 99.3336 129.068 97.7711 130.826C96.1109 132.779 96.1109 132.876 99.7242 135.904C103.435 139.029 103.435 139.224 102.459 142.935C101.97 144.986 100.798 151.626 100.017 157.486C99.1383 163.443 97.8687 169.986 96.9898 171.939C96.2086 173.892 95.232 178.091 94.939 181.216C94.4508 186.685 94.5484 186.978 100.31 196.646L106.17 206.509L113.298 207.876C119.06 209.048 121.209 209.146 124.334 208.169C126.482 207.486 130.095 206.9 132.244 206.9C135.466 206.802 136.443 206.411 136.834 204.849C137.127 203.677 138.201 202.896 139.373 202.896C142.205 202.896 142.009 207.193 138.982 212.173C137.322 214.712 136.541 217.544 136.541 220.376C136.541 223.501 135.662 226.138 133.123 230.337C130.095 235.122 129.705 236.49 130.486 239.126C130.877 240.884 132.341 243.13 133.709 244.107C135.955 245.767 136.345 245.865 139.763 244.4C144.744 242.349 145.427 242.447 144.353 245.376C143.572 247.427 143.962 248.111 147.087 250.65C149.138 252.212 152.849 254.458 155.388 255.728C157.927 256.997 159.978 258.267 159.978 258.56C159.978 258.951 158.513 259.829 156.755 260.708C153.826 262.173 153.337 262.076 149.822 260.318L146.111 258.365L142.498 261.783C140.252 264.029 137.224 265.689 134.392 266.47C129.412 267.642 129.216 268.033 130.584 272.915C131.365 275.454 131.17 276.529 129.607 278.482C128.533 279.751 126.873 285.025 125.798 290.298L123.845 299.868L126.97 303.482C129.9 306.9 130.486 307.193 133.611 306.607C135.466 306.216 138.787 306.118 140.935 306.314C143.084 306.607 146.697 306.802 148.943 306.802C153.044 306.802 153.044 306.9 155.486 312.759C156.853 315.982 159.587 323.892 161.541 330.337C163.884 337.857 166.13 343.326 167.986 345.669L170.818 349.283L167.888 353.97L164.959 358.658L170.037 363.931L175.115 369.204L171.209 368.521C169.06 368.228 164.763 367.935 161.736 367.935H156.169L154.607 362.271C153.728 359.243 152.849 356.021 152.556 355.142C152.166 353.872 146.502 351.333 143.962 351.333C143.67 351.333 143.377 353.384 143.377 355.826C143.377 360.22 143.279 360.318 140.837 359.732C139.373 359.341 137.029 358.853 135.564 358.462C133.416 358.072 132.341 356.9 130.779 353.091L128.728 348.208L124.627 348.99C119.451 349.966 119.841 349.966 100.798 349.087L84.9781 348.306L82.732 352.993C80.6812 357.095 80.3883 358.951 80.5836 367.349C80.6812 372.72 80.3883 378.97 79.9 381.216C78.5328 386.978 80.1929 390.786 85.3687 394.4C89.0797 396.939 90.2515 397.232 93.8648 396.743C97.6734 396.158 98.064 396.353 99.6265 398.99C102.166 403.286 106.56 403.677 109.49 399.966C111.345 397.525 112.029 397.232 114.08 398.013C116.228 398.794 116.423 399.38 116.521 405.337C116.521 411.783 116.521 411.783 121.599 416.958C125.701 421.158 126.482 422.427 125.701 423.892C124.724 425.552 124.529 425.454 121.892 423.599C119.841 422.134 117.595 421.646 113.201 421.646C109.88 421.646 107.244 421.841 107.244 422.036C107.244 422.329 107.634 423.599 108.22 424.966C109.002 427.115 108.318 429.068 103.337 438.54C100.115 444.693 97.4781 450.161 97.4781 450.747C97.4781 451.333 99.0406 452.701 100.994 453.872C103.826 455.728 104.314 456.509 103.923 458.658C103.63 460.025 103.24 463.15 102.849 465.689C102.459 469.204 101.677 470.474 99.5289 471.743C97.2828 473.013 96.4039 474.868 94.5484 481.216C92.9859 486.783 91.1304 490.591 88.4937 494.009C86.3453 496.646 84.1968 498.794 83.7086 498.794C83.2203 498.794 80.2906 496.841 77.2633 494.497L71.5992 490.201L65.3492 491.177C59.7828 492.056 58.9039 491.958 56.4625 490.201L53.8258 488.247L48.8453 492.056C42.7906 496.743 42.3023 499.283 46.9898 502.31C49.6265 504.068 50.4078 505.435 51.9703 511.587C53.0445 515.591 54.0211 521.743 54.2164 525.259C54.607 530.923 54.9976 532.095 57.5367 534.536C59.8804 536.783 60.3687 538.052 60.3687 542.056C60.3687 548.794 63.0054 552.212 68.6695 553.091C71.1109 553.384 73.064 553.97 73.064 554.361C73.064 554.654 71.8922 558.072 70.525 561.978L67.9859 569.009L70.6226 576.919C73.4547 585.415 73.1617 586.587 68.8648 586.685C66.5211 586.685 66.1304 588.345 67.0093 593.521C67.5953 597.036 67.4 598.501 65.9351 601.138C64.3726 603.872 64.1773 605.044 65.0562 609.829L66.0328 615.396L59.9781 622.036C56.4625 625.845 53.6304 630.142 52.9469 632.29C52.1656 635.22 51.2867 636.099 49.0406 636.587C47.3804 636.88 42.9859 639.029 39.0797 641.275C32.9273 644.986 32.0484 645.865 32.0484 648.306C32.0484 650.064 31.1695 651.822 29.9 652.993C23.9429 657.974 22.3804 659.634 21.8922 661.49C21.3062 663.443 21.5992 663.54 25.9937 663.052L30.7789 662.661L34.9781 669.107L39.1773 675.552L41.814 673.892C43.3765 673.013 44.939 671.06 45.4273 669.497L46.2086 666.665L50.2125 670.083C55.3883 674.478 56.3648 677.896 53.4351 681.021C51.189 683.462 51.482 686.294 54.0211 686.294C54.9 686.294 57.3414 685.415 59.4898 684.243L63.4937 682.29L67.7906 685.806C70.1343 687.759 74.7242 690.201 77.9468 691.372C81.2672 692.447 84.5875 694.302 85.6617 695.669C88.2008 698.892 95.3297 698.794 105.877 695.376C113.494 692.935 114.08 692.837 115.837 694.4C117.009 695.474 119.255 696.06 122.087 696.06C125.798 696.06 127.263 696.743 132.244 700.65C135.466 703.286 139.08 706.021 140.349 706.802L142.595 708.365L140.545 715.201C138.396 722.329 137.81 731.216 139.373 731.216C139.959 731.216 141.912 730.337 143.767 729.165L147.283 727.115L148.162 729.556C148.65 730.923 149.627 734.829 150.212 738.247C151.091 743.228 152.068 745.083 154.9 748.111C158.318 751.724 164.568 755.63 166.814 755.63C167.302 755.63 167.791 754.947 167.791 754.068C167.791 752.798 168.474 752.993 171.306 755.142C173.162 756.607 175.896 758.072 177.361 758.462C179.119 758.951 180.095 759.927 180.291 761.587C180.486 762.857 181.56 764.908 182.634 766.079L184.685 768.228L187.127 766.275L189.666 764.322L193.377 767.935L197.087 771.646L198.552 768.033C199.919 764.81 200.31 764.419 202.752 765.005C206.56 765.884 207.244 766.861 205.779 769.4C204.9 770.962 204.607 774.771 204.802 780.435C204.998 789.029 205.095 789.126 209.783 796.158L214.568 803.189L211.638 806.021L208.806 808.853L211.638 812.368L214.568 815.884L209.685 819.497C207.048 821.548 204.9 823.599 204.9 824.185C204.9 824.673 205.584 826.333 206.365 827.896C207.83 830.63 207.732 830.826 205.877 830.826C203.533 830.826 203.435 831.9 205.584 837.466C207.146 841.763 207.634 841.958 211.834 840.201C213.103 839.615 213.591 840.298 214.08 843.521C214.763 847.818 213.396 851.529 209.88 854.654C207.83 856.509 207.83 856.509 207.83 854.458C207.83 851.919 208.22 851.919 202.654 853.872L198.064 855.435L198.162 864.322C198.162 875.259 196.502 880.923 193.084 881.411C191.814 881.607 189.373 882.779 187.712 884.146C184.685 886.294 184.685 886.587 185.564 890.786C186.248 894.009 186.15 895.865 185.076 898.501C183.709 901.626 183.806 902.115 185.955 905.826L188.298 909.732L183.416 911.392L178.533 913.052V921.646C178.533 929.849 178.63 930.24 180.877 930.826C182.146 931.118 183.416 932.388 183.806 933.56C184.783 937.368 184.392 950.161 183.025 957.095C181.951 962.564 181.951 963.931 183.025 965.396C184.685 967.447 184.783 976.333 183.22 981.314C182.244 984.732 182.341 985.415 184.197 987.368C186.15 989.419 186.248 989.712 184.783 991.861C183.318 993.911 183.318 994.204 185.955 997.036C188.591 999.771 189.08 999.966 194.744 999.478C202.068 998.892 207.341 996.646 216.228 990.201C221.306 986.49 224.627 984.829 228.63 984.048C233.025 983.169 234.197 982.486 234.197 981.118C234.197 979.849 236.052 978.384 239.861 976.431C244.451 974.087 247.185 973.501 255.779 972.915C261.541 972.525 266.521 971.939 267.009 971.548C267.498 971.255 270.232 968.228 273.064 965.005C277.263 960.025 278.923 958.853 282.048 958.365C285.466 957.876 285.955 957.388 286.443 954.556L287.127 951.333L301.873 949.576C310.955 948.501 318.084 947.134 320.134 946.06C321.99 945.083 325.408 944.009 327.654 943.618C330.681 943.13 332.634 942.056 334.49 939.712C337.029 936.685 337.81 936.392 346.502 935.415C359.099 933.853 359.88 933.658 360.369 931.607C360.759 930.435 363.396 928.872 368.572 927.017C372.771 925.552 393.181 917.544 413.884 909.341C450.798 894.693 451.775 894.302 466.619 891.861C511.541 884.243 517.791 883.56 572.576 880.142C616.521 877.31 628.435 876.333 638.005 874.283C644.451 873.013 661.736 870.767 676.58 869.4C691.326 868.13 713.689 865.786 726.189 864.419L748.943 861.783L763.298 865.298C779.216 869.302 782.537 869.79 841.423 877.115C881.658 882.095 883.025 882.193 890.154 880.826L897.478 879.458L900.603 882.486C904.705 886.49 908.416 886.49 913.201 882.486L916.814 879.458L925.896 880.533C930.779 881.118 936.052 881.802 937.517 882.095C939.666 882.388 940.544 881.9 942.107 879.361C943.962 876.333 943.962 876.138 942.302 868.911C941.326 864.908 939.568 859.634 938.494 857.193C937.322 854.751 936.345 851.138 936.345 849.087C936.345 845.669 936.443 845.474 939.568 845.474C944.353 845.474 945.427 842.642 942.986 835.708C942.009 832.779 940.349 824.185 939.275 816.665C938.103 808.658 936.833 802.798 936.15 802.31C935.466 801.919 932.439 799.868 929.509 797.818L924.236 793.911L918.572 797.72C913.103 801.431 912.81 801.529 910.466 799.966C908.318 798.599 908.025 797.72 908.025 792.642V786.88H903.044H897.966L898.65 774.771L899.333 762.564L895.525 755.923C892.595 750.943 891.033 746.353 889.08 737.759C886.345 725.65 881.169 706.411 880.193 704.849C879.9 704.263 878.533 703.872 877.263 703.872C875.31 703.872 874.724 703.189 873.845 700.064C871.599 691.763 867.986 676.236 864.47 660.318L860.857 643.618L865.935 636.197L871.111 628.775L868.083 621.451C866.423 617.447 865.056 613.54 865.056 612.857C865.251 609.341 877.068 591.861 885.759 582.29C893.083 574.283 895.427 571.06 895.818 568.326C896.892 561.88 898.064 559.341 902.751 553.482C907.048 547.915 907.244 547.525 905.779 545.865C903.435 543.326 903.63 541.079 907.537 523.208C910.173 510.904 910.955 505.24 910.955 497.427V487.271L918.474 471.353C922.576 462.564 926.58 454.947 927.361 454.458C931.267 452.115 932.146 450.161 932.83 442.154L933.611 434.146L936.345 436.783L939.08 439.322L944.548 431.607C950.115 423.599 951.58 422.622 957.927 422.622C960.955 422.622 961.638 422.134 963.005 419.204L964.666 415.689L960.857 410.122L957.048 404.458L959.294 401.724C961.345 399.185 961.736 399.087 965.154 400.064C968.572 400.943 969.353 400.845 973.357 398.306L977.849 395.572L977.556 386.392C977.361 379.849 975.408 368.228 971.013 346.451C961.638 300.357 963.201 305.435 959.001 305.435H955.486L958.22 302.603L960.955 299.771L958.904 295.865C957.732 293.618 956.853 290.298 956.853 288.345C956.853 286.099 955.974 283.658 954.412 281.607C952.751 279.361 951.97 277.115 951.97 274.38C951.97 270.669 951.677 270.181 947.869 267.935C945.525 266.665 941.619 265.298 939.08 264.908L934.587 264.224L934.099 258.169C933.904 254.947 933.513 251.333 933.318 250.259C933.025 248.697 933.513 248.208 936.052 248.013C938.591 247.72 940.056 246.451 944.548 240.493C947.576 236.49 950.017 232.876 950.017 232.486C950.017 231.997 948.259 229.556 946.111 226.919C943.962 224.38 942.205 222.036 942.205 221.841C942.205 221.548 943.572 218.814 945.134 215.591C948.357 209.243 948.552 207.095 946.794 198.599L945.623 192.935L940.349 199.087C937.419 202.505 934.685 205.728 934.197 206.314C933.708 206.802 929.607 203.482 924.041 198.013C915.544 189.517 913.884 187.271 904.9 171.353C899.529 161.88 894.744 153.775 894.255 153.579C893.767 153.286 892.107 153.677 890.349 154.556C888.689 155.435 887.126 155.923 886.833 155.63C886.541 155.435 884.294 151.04 881.853 146.06L877.263 136.978L872.673 136.685L868.181 136.392L867.498 131.509C867.107 128.872 866.521 126.724 866.13 126.724C865.74 126.724 863.494 128.677 861.15 131.119C857.732 134.536 856.169 135.513 853.63 135.513C850.896 135.513 850.408 135.122 850.408 133.267C850.408 131.216 849.626 130.923 840.447 129.361C834.88 128.482 824.724 127.212 817.693 126.724C805.095 125.65 804.998 125.65 801.58 122.329L798.162 119.009L795.72 120.865C793.962 122.232 791.716 122.818 787.517 122.818C782.341 122.818 781.462 123.111 777.263 126.626L772.673 130.533L765.642 129.458L758.611 128.482L751.189 132.681C747.185 135.025 742.009 138.54 739.861 140.591L735.857 144.302L728.24 143.033L720.623 141.665L717.205 145.181C714.958 147.427 711.443 149.478 707.634 150.747L701.482 152.798L697.478 162.954L693.376 173.111L689.373 173.404C686.052 173.697 685.271 174.087 684.783 176.138C684.49 177.408 684.001 178.482 683.708 178.482C681.951 178.482 679.314 175.943 678.142 173.208C676.482 169.302 672.771 168.033 667.205 169.595C665.154 170.181 663.494 170.474 663.396 170.376C663.396 170.279 662.615 168.521 661.638 166.372C659.978 162.759 659.978 162.564 661.931 159.244C663.005 157.388 663.689 155.435 663.396 154.947C663.005 154.458 661.052 154.068 658.904 154.068C655.388 154.068 655.095 154.263 655.583 156.216C656.267 159.439 652.068 162.466 649.333 160.708C647.771 159.829 646.111 159.927 640.349 161.685L633.123 163.833L631.462 161.685C630.486 160.415 629.216 158.169 628.63 156.704C627.458 153.872 626.384 153.775 621.501 155.63C620.134 156.119 619.939 155.24 619.939 149.38C619.939 144.693 619.548 142.251 618.572 141.47C615.544 138.931 598.162 130.63 595.916 130.63C593.669 130.63 593.572 130.337 593.572 125.064C593.572 120.669 593.083 119.009 591.423 117.154L589.177 114.81L591.423 113.345C592.595 112.466 593.572 111.49 593.572 111.099C593.572 110.611 591.619 109.048 589.08 107.486C584.587 104.751 584.294 103.775 586.248 99.1849C586.931 97.5248 586.736 97.5248 583.416 98.892C579.998 100.357 579.9 100.357 579.9 98.1107C579.9 96.8412 579.021 94.9857 577.849 93.9115C574.919 91.2748 573.064 87.2709 573.064 83.7552C573.064 80.9232 572.966 80.8256 568.376 80.8256C564.861 80.8256 563.103 80.3373 561.833 78.8724C560.173 77.1146 560.271 76.8217 562.322 73.5013C564.177 70.474 564.373 69.6927 563.298 67.1537C561.931 63.8334 561.15 63.5404 559.392 65.6888C557.83 67.5443 556.169 67.5443 552.458 65.5912C549.724 64.224 548.552 64.3217 537.126 66.1771L524.724 68.3256L521.209 66.2748C519.255 65.1029 515.056 60.4154 511.443 55.5326C503.826 44.8881 499.138 41.9584 492.107 43.6185C488.689 44.3998 487.322 44.2045 485.466 43.0326C483.318 41.6654 482.732 41.6654 477.068 44.2045C473.259 45.9623 469.548 46.8412 467.009 46.7435C463.103 46.5482 462.615 46.9388 454.607 55.4349C447.673 62.8568 446.209 65.0052 445.916 67.9349L445.623 71.5482H440.447H435.369L432.048 77.4076L428.826 83.267H419.646C406.853 83.267 403.63 82.4857 402.166 78.8724C401.482 77.2123 399.919 75.6498 398.748 75.3568C397.576 75.0638 395.916 73.306 395.037 71.5482L393.474 68.2279L396.794 67.1537C400.798 65.8842 406.072 59.1459 406.072 55.4349C406.072 53.9701 405.388 50.7474 404.509 48.2084C403.24 44.4974 403.142 43.0326 404.021 41.0795C405.291 38.2474 404.9 37.3685 401.287 35.4154C399.431 34.5365 397.185 34.2435 394.841 34.6342C391.521 35.1224 391.13 35.0248 391.716 33.5599C392.107 32.5834 392.4 30.9232 392.4 29.9467C392.4 28.6771 393.377 27.6029 395.232 27.017C397.478 26.2357 398.259 25.2592 398.748 22.4271C399.138 20.474 400.017 18.1302 400.798 17.2513C402.166 15.7865 401.97 15.3959 399.236 13.4427C396.306 11.392 396.209 10.9037 396.794 6.99744C397.38 2.99353 397.185 2.60291 394.841 1.724C389.763 -0.229126 387.908 -0.13147 382.927 2.40759Z" fill="black"/>
<circle cx="565" cy="649" fill="#5CE50D" id='774'/>
<circle cx="470" cy="215" fill="#E52A0D" />
<circle cx="204" cy="679" fill="#E52A0D"/>
<circle cx="293" cy="950" fill="#E52A0D"/>
<circle cx="745" cy="859" fill="#FFE81E" id='153' />
</svg>
