<svg width="1000" height="1000" viewBox="0 0 1000 1000" fill="none" xmlns="http://www.w3.org/2000/svg">
<rect width="1000" height="1000" />
<path d="M526.013 15.1429C525.064 15.9017 523.167 16.5656 521.934 16.5656C519.848 16.5656 519.753 16.8502 520.417 20.0751C521.555 25.6714 521.175 27.0942 518.045 30.2242C515.484 32.7853 514.536 33.1647 510.362 32.975C506.189 32.8801 505.715 33.0698 506.284 34.3977C506.663 35.3463 507.232 40.658 507.517 46.4439C507.896 52.1349 508.465 57.3518 508.845 58.0157C509.983 59.7231 512.354 74.4251 512.354 79.7368C512.354 82.3926 511.88 86.9455 511.311 89.9807C510.647 93.6799 510.647 95.7667 511.311 96.6204C511.88 97.1895 512.07 98.6122 511.785 99.7504C511.501 100.794 511.88 102.975 512.734 104.588C514.441 107.908 514.726 114.358 513.303 115.78C512.734 116.349 511.69 122.705 510.931 130.008C508.56 152.298 508.465 152.678 505.715 152.583C502.585 152.393 501.921 153.626 501.921 160.076C501.921 165.293 502.015 165.577 503.912 165.008C505.809 164.344 505.904 164.629 505.335 167C504.956 168.518 504.102 175.252 503.438 182.082C502.3 192.895 502.3 194.697 503.533 196.689C505.715 200.103 504.861 210.158 502.015 213.857C499.549 217.272 498.411 222.393 499.739 224.67C501.351 227.516 497.557 253.315 495.186 255.971C494.712 256.54 494.332 259.575 494.332 262.895C494.332 267.353 493.953 269.06 492.91 269.44C491.297 270.104 490.064 274.372 489.116 282.15C488.736 284.996 487.693 288.79 486.649 290.497C485.701 292.204 484.847 294.67 484.847 295.809C484.847 297.042 483.994 299.128 482.95 300.456C480.579 303.492 480.579 306.622 482.95 309.657C484.563 311.649 484.847 313.546 484.847 322.177C484.847 331.188 484.658 332.611 482.95 334.318C481.812 335.457 480.579 336.026 480.105 335.741C479.536 335.362 479.156 335.457 479.156 335.931C479.061 336.31 478.682 338.587 478.303 340.863C477.733 343.519 477.923 348.451 478.872 355.091C479.63 360.592 480.579 369.793 480.958 375.579C481.433 381.27 482.286 387.435 483.045 389.048C484.468 392.652 483.425 398.343 479.915 404.983C477.828 409.061 477.354 416.365 479.061 418.072C480.674 419.685 480.294 422.53 478.113 424.332C474.793 426.988 472.327 434.576 471.947 443.303C471.663 448.614 471.094 451.839 470.145 452.883C469.386 453.736 468.723 455.823 468.723 457.436C468.723 459.333 468.153 460.566 467.11 460.945C464.265 461.894 457.625 477.544 456.392 486.081C455.633 491.298 454.779 494.333 451.554 502.206C450.606 504.577 449.468 507.992 448.993 509.794C448.045 513.683 445.01 514.726 442.164 512.165C440.552 510.742 440.457 510.742 439.793 513.493C439.508 515.105 439.603 517.097 440.077 517.951C440.552 518.899 440.741 521.176 440.552 523.073C440.172 525.444 440.646 527.721 442.069 530.566C443.777 533.886 444.061 535.498 443.492 539.957C443.018 544.794 443.302 546.406 446.432 554.374C449.563 562.531 449.847 563.954 449.373 569.835C448.804 577.328 446.907 580.932 443.682 580.932C441.5 580.932 441.405 581.217 440.741 590.133C440.267 596.014 439.508 599.998 438.655 600.946C436.852 603.033 437.137 607.87 439.888 622.383C440.077 623.521 441.121 624.754 442.164 625.038C443.682 625.513 443.871 625.987 443.113 627.41C442.449 628.643 442.544 629.307 443.302 629.496C445.199 630.16 443.207 632.057 439.888 632.626C437.042 633.196 436.758 633.575 435.714 638.697C435.05 641.637 434.576 647.234 434.576 650.933C434.576 654.917 434.007 659.28 433.153 661.272C430.877 666.773 431.256 667.816 435.999 669.524C441.69 671.421 445.01 670.377 444.346 666.868C443.966 664.876 444.156 664.402 445.863 664.402C447.95 664.402 448.424 662.979 446.907 660.608C446.338 659.754 446.432 658.995 447.191 658.521C448.045 658.047 447.76 656.719 446.148 653.778C443.397 648.467 443.397 645.242 446.243 644.009C448.709 642.87 449.563 638.602 447.76 635.377C446.148 632.247 447.286 630.255 450.796 630.255C453.167 630.255 453.926 629.686 454.779 627.41C455.538 625.513 456.487 624.564 457.815 624.564C460.376 624.564 464.549 627.41 463.126 628.263C462.557 628.643 461.893 630.255 461.514 631.868C461.134 634.049 461.324 634.903 462.557 635.377C463.506 635.662 464.739 635.567 465.403 634.998C466.256 634.239 466.731 635.282 467.11 639.456C467.679 644.862 467.3 647.139 466.351 644.104C466.067 643.25 465.687 641.922 465.403 641.163C465.213 640.404 463.885 639.74 462.652 639.74C460.47 639.74 460.281 639.93 461.134 642.206C461.798 643.724 461.798 645.242 461.134 646.38C459.901 648.656 459.901 653.114 461.134 656.434C461.893 658.331 461.798 659.469 460.66 661.177C459.901 662.41 459.237 664.022 459.237 664.686C459.237 665.445 458.573 666.583 457.815 667.247C456.202 668.575 455.918 674.361 457.34 675.31C459.048 676.353 457.72 681.76 455.538 682.803C453.926 683.467 453.546 684.226 453.926 685.838C454.305 687.071 454.115 688.304 453.546 688.589C452.124 689.443 452.408 690.96 454.021 690.96C454.779 690.96 455.443 691.624 455.443 692.383C455.443 693.142 455.918 693.806 456.392 693.806C456.961 693.806 458.668 694.754 460.186 695.798C461.704 696.936 463.506 697.6 464.17 697.315C465.213 696.936 465.213 697.695 464.075 701.299C462.842 704.809 461.704 706.326 458.479 708.318C456.202 709.741 453.736 710.879 452.882 710.879C451.839 710.879 451.554 711.448 452.029 712.966C452.408 714.199 452.787 715.622 452.882 716.191C453.072 716.855 453.641 717.993 454.305 718.752C455.254 719.89 454.969 720.459 452.882 721.882C451.365 722.925 449.373 723.874 448.329 724.158C445.768 724.917 445.484 728.047 447.855 730.513C449.942 732.79 450.321 735.066 448.709 736.015C448.14 736.394 447.476 735.73 447.191 734.687C446.812 733.169 446.148 732.79 444.915 733.169C442.828 733.833 442.544 731.557 443.966 727.668C444.725 725.771 444.535 724.917 443.207 723.779C441.69 722.451 441.31 722.356 440.362 723.589C439.698 724.348 439.319 726.624 439.508 728.616C439.793 731.936 439.603 732.221 437.232 732.505C435.714 732.695 434.386 733.549 434.102 734.687C433.533 736.299 433.343 736.299 432.11 735.066C430.213 733.169 425.66 733.264 424.047 735.256C423.289 736.11 422.72 737.817 422.72 739.05C422.625 741.042 422.909 741.232 425.281 740.757C428.79 739.904 428.98 742.844 425.47 743.698C423.289 744.267 421.107 746.164 416.839 751.096C416.175 751.855 415.131 752.614 414.467 752.803C413.803 753.088 413.234 754.795 413.234 757.261C413.234 761.34 414.752 763.237 417.503 762.763C419.115 762.478 420.064 758.305 418.546 758.305C416.08 758.305 417.787 755.364 421.107 753.847C423.004 752.993 424.806 752.139 425.091 751.95C425.375 751.76 425.565 752.993 425.565 754.7C425.565 757.356 425.944 757.831 428.79 758.684C431.256 759.348 432.205 759.348 432.489 758.494C433.058 756.597 436.188 757.261 437.706 759.633C438.56 760.866 439.508 763.047 439.888 764.47C440.267 765.893 441.121 767.221 441.785 767.505C444.061 768.359 443.207 769.972 440.931 769.308C439.224 768.928 438.37 769.308 437.422 771.11C436.758 772.438 435.809 773.481 435.335 773.481C434.861 773.481 434.766 774.335 435.05 775.378C435.43 776.611 435.24 777.275 434.291 777.275C433.627 777.275 432.394 778.318 431.73 779.552C430.782 781.354 429.644 782.018 426.608 782.207C423.763 782.397 422.625 782.966 422.435 784.199C422.15 785.527 422.53 785.907 424.237 785.622C425.375 785.432 426.514 785.907 426.703 786.476C426.988 787.14 426.514 787.709 425.66 787.709C424.806 787.709 424.142 788.468 424.142 789.511C424.142 792.167 422.245 793.02 421.581 790.649C421.012 788.373 418.641 787.993 417.882 790.08C417.598 790.839 417.787 792.926 418.451 794.728C419.305 797.384 419.305 798.806 418.356 801.462C417.313 804.308 417.313 805.067 418.356 805.636C419.305 806.3 419.21 806.584 418.072 806.964C417.218 807.343 416.554 808.292 416.554 809.145C416.554 810.663 417.598 810.663 421.581 809.05C422.814 808.481 423.099 808.766 422.625 809.904C422.34 810.758 421.202 811.422 420.253 811.422C417.787 811.422 416.934 813.983 418.736 815.975C419.779 817.018 419.969 818.061 419.4 819.01C418.167 821.002 419.4 822.14 421.107 820.622C423.573 818.441 426.419 818.251 426.798 820.243C426.988 821.191 426.608 822.614 426.039 823.373C424.996 824.511 424.711 824.511 423.668 823.088C422.625 821.666 422.435 821.666 421.771 823.752C421.297 825.27 421.486 826.124 422.625 826.788C425.091 828.21 424.522 831.34 421.771 831.34C420.443 831.34 419.4 831.91 419.4 832.479C419.4 834.565 421.012 836.368 422.15 835.704C422.72 835.324 423.478 835.704 423.763 836.462C424.522 838.454 429.454 838.454 430.213 836.462C430.497 835.609 430.782 833.427 430.782 831.53C430.782 829.633 431.351 827.357 432.015 826.503C432.963 825.27 433.058 826.408 432.869 832.289C432.584 838.359 432.774 839.687 434.007 840.162C436.852 841.3 438.18 839.782 438.844 834.66C439.224 831.625 440.077 828.969 441.121 828.021C442.354 826.977 443.113 824.511 443.587 820.433C444.156 814.741 445.958 811.896 447.381 814.267C447.76 814.836 447.476 815.216 446.812 815.216C446.148 815.216 445.863 816.449 446.148 818.536C446.432 820.812 446.148 821.855 445.294 821.855C443.113 821.855 443.966 826.313 446.432 827.926C447.665 828.779 449.278 830.392 449.847 831.53L450.985 833.522L448.329 831.53C444.915 828.874 441.216 828.779 441.216 831.34C441.216 832.384 441.69 833.238 442.354 833.238C443.207 833.238 443.207 833.522 442.354 834.376C440.552 836.178 440.931 836.842 444.061 837.506C445.674 837.885 446.907 838.739 446.907 839.593C446.907 840.826 446.622 840.826 444.441 839.403C443.113 838.549 441.785 838.075 441.5 838.265C440.457 839.403 442.544 843.007 445.294 844.715C447.855 846.232 447.95 846.517 446.338 846.517C445.294 846.517 443.492 845.473 442.354 844.145C439.888 841.3 436.473 840.92 436.473 843.481C436.473 845.473 439.983 849.647 441.216 848.888C441.595 848.603 442.259 849.078 442.544 849.931C443.018 851.164 443.397 851.259 444.535 850.311C445.674 849.362 446.053 849.457 446.622 850.785C447.002 851.828 446.622 852.872 445.674 853.631C443.871 854.864 443.492 856.95 445.01 856.95C445.579 856.95 445.958 857.52 445.958 858.278C445.958 860.081 448.899 861.029 450.037 859.606C450.606 858.753 450.701 858.847 450.321 860.081C450.037 861.029 449.752 861.978 449.752 862.262C449.752 862.452 448.519 862.357 447.002 862.072C444.82 861.598 443.966 861.883 443.207 863.495C442.069 865.582 442.828 870.514 444.156 869.661C444.63 869.376 444.725 870.419 444.441 871.937C444.061 873.929 444.251 874.877 445.294 875.257C447.002 875.921 450.321 872.601 448.899 871.652C447.002 870.514 447.855 869.566 450.226 870.04C451.649 870.23 452.598 871.083 452.598 872.127C452.598 873.075 453.262 874.308 454.021 874.972C456.392 876.964 455.633 877.818 452.882 876.3C450.606 875.162 450.226 875.162 449.942 876.395C449.752 877.059 450.132 878.577 450.606 879.62C451.175 880.663 451.649 882.371 451.649 883.319C451.649 884.742 452.124 885.121 453.451 884.742C454.969 884.363 455.538 885.026 456.297 888.062C457.72 893.089 462.083 895.081 462.083 890.623C462.083 889.39 462.842 887.967 463.695 887.398C465.213 886.639 465.118 886.26 462.747 884.457C461.324 883.319 460.186 881.896 460.186 881.327C460.186 880.568 460.47 880.474 460.945 881.232C461.704 882.371 468.059 885.406 469.576 885.406C470.145 885.406 470.62 884.837 470.62 884.078C470.62 882.465 465.118 877.628 463.98 878.292C463.601 878.577 463.031 878.102 462.652 877.343C461.988 875.541 462.462 875.541 465.687 877.249C470.525 879.81 471.853 882.086 471.189 886.923C470.904 889.39 471.094 892.045 471.663 893.184C472.896 895.365 471.947 901.815 470.43 901.341C469.956 901.151 469.292 898.685 469.102 895.934C468.912 893.184 468.438 890.528 468.153 890.054C467.015 888.157 465.877 889.39 465.877 892.52C465.877 894.322 465.403 895.84 464.834 895.84C464.265 895.84 463.98 895.176 464.359 894.417C465.023 892.615 462.652 892.52 460.85 894.417C459.617 895.65 459.332 895.65 458.289 894.417C456.676 892.52 454.21 894.417 454.969 896.883C455.254 897.737 454.969 898.875 454.305 899.349C453.641 899.728 452.124 901.436 450.985 903.143C449.278 905.514 449.088 906.273 450.132 907.127C451.554 908.36 453.546 906.747 453.546 904.281C453.546 902.574 455.159 900.962 456.012 901.815C456.297 902.1 456.107 903.143 455.633 904.092C455.064 905.135 454.969 906.463 455.443 907.222C456.107 908.36 456.582 908.265 458.099 906.937C459.048 906.084 460.091 905.514 460.376 905.799C460.66 906.084 461.134 905.325 461.514 904.092C461.988 901.91 462.273 901.815 466.067 902.764C468.343 903.238 470.809 903.997 471.663 904.376C472.422 904.756 473.845 904.661 474.793 904.186C475.742 903.617 478.682 903.523 481.717 903.902C485.891 904.376 486.649 904.756 485.796 905.799C485.132 906.653 483.614 906.937 481.433 906.558C478.777 906.084 477.733 906.463 475.836 908.55C473.56 911.016 470.62 911.111 470.62 908.645C470.62 907.127 467.869 904.756 465.118 903.902C463.316 903.428 462.747 903.807 461.609 906.653C460.85 908.455 459.806 910.162 459.332 910.447C458.858 910.826 458.858 912.344 459.522 914.336C460.376 917.276 460.85 917.655 463.695 917.655C465.403 917.655 466.825 918.035 466.825 918.604C466.825 919.078 467.489 919.552 468.248 919.552C469.007 919.552 469.671 919.837 469.671 920.311C469.671 920.691 467.964 920.88 465.877 920.691C463.79 920.501 462.083 920.501 462.083 920.785C462.083 920.975 464.739 922.967 467.869 925.149C473.655 929.132 476.121 929.702 473.181 926.382C470.904 923.821 471.189 921.544 474.034 920.501C476.216 919.647 476.311 919.363 475.267 917.94C474.034 916.517 474.224 916.517 477.354 917.086C480.105 917.561 481.053 917.276 482.571 915.664C484.752 913.197 491.202 909.783 492.341 910.542C493.763 911.395 489.874 918.13 487.313 919.363C485.891 920.027 484.847 921.355 484.563 923.062L484.183 925.718L483.994 923.062C483.804 919.552 480.105 919.268 480.105 922.777C480.105 924.105 479.725 925.338 479.251 925.623C478.777 926.002 478.587 925.338 478.872 924.2C479.346 922.588 479.061 922.303 477.639 922.588C476.69 922.777 475.742 923.726 475.552 924.674C474.793 928.184 477.639 931.124 485.037 934.729C491.771 937.954 492.435 938.048 494.807 936.815C497.368 935.487 497.368 935.298 496.799 929.607C496.419 925.338 496.609 923.252 497.557 921.829C498.316 920.785 499.075 917.276 499.265 914.051C499.36 910.826 499.929 908.075 500.498 908.075C500.972 907.981 502.679 907.791 504.197 907.601C505.62 907.506 507.612 906.747 508.465 906.084C512.828 902.574 518.045 901.246 518.045 903.712C518.045 904.376 516.812 906.368 515.2 908.17C512.449 911.395 512.354 911.395 510.931 909.688C509.793 908.17 509.319 908.075 508.086 909.119C506.284 910.636 506.284 911.964 508.086 911.964C509.698 911.964 509.888 912.818 508.655 914.715C508.181 915.474 507.137 915.758 506.284 915.474C505.051 915 504.766 915.664 504.766 919.552C504.766 923.252 505.146 924.485 506.853 925.623C508.655 926.951 509.129 926.951 510.457 925.718C511.406 924.864 513.872 924.295 516.433 924.295C520.227 924.295 520.891 924.58 520.891 926.097C520.891 928.089 517.476 930.84 512.544 932.832C509.604 933.97 509.414 934.254 509.698 938.428C509.983 942.791 509.983 942.791 517.097 946.87C520.986 949.051 524.306 951.233 524.495 951.612C524.59 951.992 524.116 953.225 523.262 954.173C521.934 956.07 521.934 956.07 521.839 953.984C521.839 952.845 520.986 951.423 519.942 950.853C518.899 950.284 518.045 950.095 518.045 950.474C518.045 950.759 517.002 950.379 515.674 949.526C513.587 948.198 513.303 948.103 513.303 949.431C513.303 951.138 512.259 951.328 510.742 949.81C509.414 948.482 498.885 948.103 497.273 949.336C496.609 949.81 493.194 950.474 489.78 950.664C482.855 950.948 481.527 951.612 480.579 955.311C479.82 958.536 481.527 959.58 484.752 957.872C487.598 956.355 491.107 956.165 491.866 957.398C492.151 957.872 493.574 958.536 494.996 958.916C498.696 959.769 502.585 962.994 500.782 963.658C500.024 963.943 498.221 963.753 496.799 963.184C495.376 962.71 492.815 962.236 491.202 962.33C488.262 962.33 488.262 962.425 490.444 963.279C491.677 963.753 494.143 965.366 495.85 966.883C499.834 970.393 504.387 971.531 506.473 969.444C507.801 968.116 507.801 967.927 505.999 967.263C502.774 966.03 505.62 963.089 510.647 962.52C513.398 962.236 514.346 962.425 513.492 962.994C511.785 964.133 510.362 975.705 511.785 976.653C512.354 977.032 513.967 977.412 515.295 977.412C516.623 977.412 518.52 978.266 519.468 979.309C521.65 981.68 523.072 980.163 522.219 976.274C521.934 974.946 522.219 973.523 522.788 973.144C524.306 972.195 526.582 974.471 526.582 977.032C526.582 979.024 527.056 979.309 529.807 979.309C533.222 979.309 536.067 981.301 536.067 983.672C536.067 984.431 536.921 985 537.964 985C540.905 985 540.241 981.965 536.541 978.076C534.36 975.799 533.601 974.566 534.549 974.566C537.3 974.566 537.11 972.669 534.265 972.1C530.566 971.341 530.566 970.393 534.265 968.78C536.921 967.737 537.395 967.832 538.533 969.349C539.292 970.298 539.861 971.91 539.861 972.954C539.861 973.997 540.335 974.566 541.094 974.282C545.647 972.574 546.406 972.669 547.449 974.566C548.018 975.61 549.441 976.463 550.769 976.463C552.571 976.463 553.14 975.894 553.615 973.238C554.373 969.255 552.002 965.081 548.967 965.081C547.924 965.081 543.655 964.607 539.482 963.943L532.083 962.805L532.747 934.729C533.316 910.542 533.222 906.558 532.083 905.514C530.945 904.566 530.091 904.661 528.005 905.704C524.685 907.411 523.167 906.842 521.365 903.143C518.425 897.262 520.701 894.606 526.677 897.073C532.368 899.444 536.067 900.392 536.541 899.634C537.11 898.78 525.539 893.943 522.788 893.943C521.65 893.943 518.709 892.899 516.148 891.571C511.785 889.39 510.552 889.2 496.704 889.2C485.322 889.2 482.002 888.915 482.002 887.967C482.002 885.975 479.725 881.612 478.587 881.612C478.113 881.612 476.88 881.043 475.931 880.379C474.414 879.241 474.319 878.671 475.457 875.162C476.311 872.127 476.311 870.894 475.457 869.85C474.603 868.902 474.603 867.953 475.457 866.151C476.975 862.831 475.742 855.338 473.56 854.105C472.611 853.631 471.568 853.441 471.284 853.725C470.999 854.01 469.671 854.389 468.343 854.484C466.92 854.674 465.023 855.528 463.98 856.476C462.937 857.425 461.988 857.994 461.798 857.804C460.66 856.192 459.237 851.639 459.237 849.552C459.237 848.129 458.479 845.948 457.625 844.62C455.918 842.154 455.823 841.774 454.969 832.289C454.305 824.132 455.064 820.907 457.435 821.191C458.858 821.286 459.712 820.527 460.66 817.777C462.178 813.319 463.79 811.422 465.403 811.991C467.774 812.939 469.956 808.102 469.292 803.454C468.723 799.755 468.912 799.091 471.094 797.384C474.034 795.012 474.319 790.459 471.568 787.898C469.671 786.191 469.671 785.907 470.999 781.923C471.853 779.646 472.517 776.991 472.517 776.042C472.517 774.999 473.37 774.05 474.319 773.766C475.362 773.481 476.69 772.058 477.259 770.541C477.923 769.023 478.966 767.79 479.536 767.79C480.389 767.79 480.579 766.083 480.294 762.194C479.915 757.167 480.105 756.503 481.812 756.028C482.95 755.649 484.088 754.511 484.373 753.562C485.037 751.381 483.14 744.172 481.433 742.275C480.389 741.137 480.674 740.662 482.571 739.145C484.752 737.343 485.701 733.643 483.994 733.643C482.666 733.643 481.812 730.324 482.571 727.573C482.855 726.245 483.709 725.107 484.468 725.107C485.227 725.107 485.796 724.538 485.796 723.779C485.796 723.02 486.46 722.261 487.219 721.882C488.072 721.597 488.641 720.174 488.641 718.088C488.641 713.819 484.278 709.93 479.536 709.93C476.975 709.93 476.311 709.551 476.311 708.033C476.311 706.326 476.975 706.136 483.899 706.136C489.21 706.136 491.677 705.757 491.866 704.903C494.143 697.6 492.815 695.703 485.132 695.703H479.82L480.389 691.814C480.674 689.727 481.622 687.166 482.476 686.218C483.899 684.605 483.899 684.226 482.666 682.424C481.907 681.285 481.433 679.673 481.717 678.724C482.002 677.776 481.527 675.689 480.674 674.077C478.777 670.377 478.777 668.196 480.674 668.196C481.622 668.196 482.002 667.532 481.812 666.109C481.622 664.402 480.769 663.833 478.492 663.643C476.121 663.453 475.267 662.789 474.793 661.082C474.129 658.426 474.888 640.309 475.742 638.982C476.026 638.412 477.164 638.223 478.208 638.507C481.053 639.266 481.527 636.61 479.536 630.445C478.587 627.504 478.018 623.141 478.208 620.77C478.303 618.399 478.587 614.889 478.587 612.992C478.682 611 479.061 609.198 479.441 608.819C479.725 608.439 479.346 606.922 478.492 605.309C477.354 603.033 477.259 601.989 478.113 600.661C478.682 599.713 479.156 598.195 479.156 597.152C479.156 596.203 479.82 594.876 480.579 594.212C482.381 592.694 482.381 590.797 480.579 590.038C478.682 589.374 478.682 585.675 480.579 585.675C481.717 585.675 482.002 584.347 482.002 579.225C482.002 574.957 482.286 573.344 482.95 574.293C483.614 575.336 483.994 575.146 484.752 573.06C485.322 571.542 485.796 569.835 485.796 569.171C485.796 568.507 486.08 567.653 486.46 567.274C486.839 566.894 487.029 564.808 486.839 562.436C486.555 556.84 487.788 554.848 492.91 552.856C497.652 551.054 499.36 547.924 496.893 545.458C496.135 544.699 495.186 541.569 494.807 538.629C494.427 535.593 493.668 532.084 493.194 530.756C492.246 528.479 491.392 519.943 491.487 514.536C491.487 513.208 491.487 509.509 491.392 506.189C491.392 502.3 491.771 500.309 492.435 500.309C493.194 500.309 493.479 499.265 493.194 497.463C492.815 495.281 493.194 494.523 494.712 493.954C495.85 493.574 497.463 493.384 498.411 493.574C499.644 493.764 500.024 493.1 500.024 491.013C500.024 488.073 502.11 485.607 504.671 485.607C505.715 485.607 506.379 484.374 506.853 481.338C507.517 476.785 506.094 465.403 504.671 463.791C503.438 462.463 503.628 461.704 505.525 461.23C507.327 460.755 509.793 452.978 508.94 450.511C508.655 449.753 508.845 449.089 509.414 449.089C509.983 449.089 510.457 448.614 510.457 448.045C510.457 447.476 511.311 445.959 512.354 444.631C513.398 443.303 514.251 441.406 514.251 440.457C514.251 439.224 514.82 438.75 516.433 438.94C518.425 439.129 518.52 438.94 518.33 431.067C518.14 426.609 518.52 421.392 519.184 419.4C520.037 416.649 519.942 415.416 518.994 413.519C518.33 412.286 517.381 411.433 516.907 411.717C515.674 412.476 513.303 410.2 513.303 408.208C513.303 407.164 513.682 406.406 514.156 406.406C516.053 406.406 516.148 403.181 514.251 401.473C513.113 400.335 512.354 398.438 512.354 396.446C512.354 394.644 511.501 391.704 510.457 389.807C508.37 386.202 507.896 381.744 509.604 381.744C511.69 381.744 509.983 377.571 507.707 377.002C505.809 376.622 505.051 375.484 504.102 371.785C502.585 365.904 503.343 359.833 505.715 359.264C507.232 358.885 508.94 355.85 508.655 353.953C508.465 352.625 510.742 344.278 511.501 343.329C511.975 342.855 512.354 341.812 512.354 340.958C512.354 339.915 513.113 339.44 514.536 339.44C517.381 339.535 520.701 333.37 518.52 332.137C517.381 331.568 517.192 330.335 517.666 326.825C518.045 324.074 517.856 321.988 517.287 321.608C516.717 321.324 516.528 320.185 516.812 319.237C517.097 318.288 516.812 317.15 516.243 316.866C514.441 315.727 515.105 311.933 517.476 309.372C519.658 307.001 522.788 297.231 522.788 292.489C522.788 291.161 524.495 288.315 527.056 285.47C529.428 282.814 532.083 279.874 532.937 278.83C535.024 276.554 537.016 272.855 537.016 271.337C537.016 270.768 538.059 268.112 539.292 265.551C540.62 262.895 541.853 260.05 542.138 259.101C542.517 257.868 543.466 257.394 545.268 257.583C546.785 257.773 548.398 257.678 548.872 257.394C549.441 257.014 550.959 256.54 552.476 256.161C555.796 255.402 555.701 253.6 552.192 247.15C548.967 241.269 548.588 236.716 551.054 234.44C552.571 233.112 552.666 232.068 552.097 227.8C551.718 225.144 550.674 221.255 549.821 219.169C548.113 215.09 548.872 211.486 552.287 207.692C553.994 205.794 553.994 205.605 552.002 201.621C550.01 197.637 550.01 197.448 551.718 194.317C552.666 192.515 553.994 191.092 554.753 191.092C555.417 191.092 556.271 190.523 556.555 189.765C556.84 189.006 561.392 186.634 566.704 184.548C572.016 182.366 576.948 180.279 577.612 179.805C578.276 179.426 580.647 173.26 582.924 166.147L587.002 153.247L584.347 150.686L581.691 148.22L575.241 149.642C568.886 151.065 568.791 151.065 567.178 149.073C566.135 147.745 565.756 146.228 566.135 145.089C566.514 144.046 566.704 142.339 566.704 141.295C566.135 133.518 565.092 128.87 563.574 126.783C562.531 125.455 561.677 123.274 561.677 121.946C561.677 120.523 561.013 118.436 560.159 117.298C559.306 116.065 558.831 114.168 559.116 113.125C559.78 110.753 556.271 103.544 552.666 99.6556C550.39 97.1895 550.295 96.8101 551.718 95.2924C553.14 93.7748 553.046 93.4902 550.485 91.4035C546.785 88.1786 546.311 87.1352 547.639 84.8588C548.588 83.3411 548.588 82.5823 547.639 81.0647C546.596 79.3574 546.691 79.1677 548.872 79.1677C550.959 79.1677 551.243 78.7883 551.243 75.6581C551.243 73.7611 550.579 71.4847 549.726 70.5362C548.303 68.9237 548.398 68.5443 551.054 65.3193L553.899 61.9047L550.2 58.2054C548.208 56.2136 546.121 54.5063 545.647 54.5063C544.224 54.5063 542.043 50.4277 541.379 46.4439C540.146 39.33 538.723 33.1647 537.869 31.4573C537.3 30.4139 537.3 29.0861 537.964 27.9478C538.913 26.2405 538.628 26.0508 536.067 26.0508C533.696 26.0508 533.222 25.6714 533.222 23.7744C533.222 22.5413 532.558 20.9288 531.609 20.2648C530.755 19.506 529.617 17.7987 528.953 16.3759C528.005 13.9098 527.72 13.8149 526.013 15.1429ZM452.882 851.923C451.08 852.587 451.365 853.915 453.546 854.579C454.59 854.959 455.254 855.528 454.969 856.002C454.685 856.476 453.831 856.666 453.072 856.286C452.313 856.002 451.649 856.286 451.649 856.856C451.649 857.425 451.27 857.899 450.701 857.899C449.183 857.899 449.563 853.915 451.365 852.018C452.218 851.07 453.167 850.595 453.451 850.88C453.736 851.259 453.451 851.734 452.882 851.923ZM483.899 927.615C483.899 928.374 483.235 929.038 482.381 929.038C481.053 929.038 481.053 928.753 482.002 927.615C482.666 926.856 483.33 926.192 483.519 926.192C483.709 926.192 483.899 926.856 483.899 927.615Z" fill="black"/>
<path d="M423.763 844.716C423.099 848.605 423.952 850.312 426.513 850.312C427.747 850.218 433.627 844.906 433.627 843.768C433.627 843.293 432.489 842.724 431.066 842.44C429.549 842.155 427.557 841.681 426.419 841.302C424.616 840.732 424.332 841.112 423.763 844.716Z" fill="black"/>
<path d="M435.43 852.018C436.852 854.579 436.757 856.002 435.24 856.002C434.576 856.002 433.153 856.571 432.205 857.33C430.592 858.468 430.592 858.752 432.015 860.744C433.817 863.305 433.343 866.435 430.687 870.229C429.833 871.557 428.79 874.403 428.505 876.585C428.031 880.094 428.126 880.473 429.738 879.999C430.782 879.715 432.489 878.482 433.722 877.248C434.86 876.015 436.663 874.972 437.611 874.972C438.56 874.972 439.318 874.308 439.318 873.549C439.318 872.411 438.56 872.221 435.524 872.696C431.446 873.36 430.687 872.411 433.438 870.04C435.714 868.048 438.18 867.289 438.844 868.332C440.077 870.419 441.215 869.091 441.215 865.582C441.215 863.495 441.69 861.503 442.164 861.219C443.397 860.46 442.449 854.105 440.836 852.492C440.267 851.923 438.56 851.069 437.042 850.69C434.576 850.121 434.481 850.216 435.43 852.018Z" fill="black"/>
<path d="M424.144 854.102C424.144 854.956 423.669 856.094 423.1 856.663C422.342 857.422 422.626 857.896 424.239 858.371C425.851 858.94 426.8 858.56 428.033 856.853C430.404 853.818 430.309 853.438 426.989 852.964C424.808 852.679 424.144 852.869 424.144 854.102Z" fill="black"/>
<path d="M432.206 882.938C430.499 884.171 430.499 884.361 432.491 888.629C433.629 891 434.577 893.846 434.577 894.794C434.577 897.355 438.466 900.106 439.51 898.304C440.743 896.122 439.604 889.577 437.233 885.499C434.767 881.136 434.672 881.136 432.206 882.938Z" fill="black"/>
<path d="M440.362 910.924C438.465 912.157 439.888 915.382 442.923 916.615C444.346 917.184 447.95 918.512 450.985 919.65C456.866 921.737 456.676 921.453 454.874 927.144C454.305 928.946 457.909 933.783 459.712 933.783C460.945 933.783 462.273 936.439 461.988 938.146C461.893 938.621 461.893 939.759 461.988 940.613C462.083 942.794 464.549 941.846 465.213 939.379C465.877 937.008 468.723 937.008 468.723 939.379C468.723 940.423 468.343 941.561 467.774 941.846C465.498 943.268 467.205 944.027 472.611 943.932C476.785 943.838 478.587 944.122 479.156 945.165C481.622 949.244 481.622 949.244 484.373 947.442C486.46 946.114 487.313 946.019 488.736 946.873C489.685 947.537 491.582 948.011 492.91 948.011C497.842 948.011 494.143 941.371 488.357 939.949C486.934 939.569 485.511 938.905 485.227 938.431C484.278 936.818 481.338 937.577 480.105 939.949C478.492 942.889 477.259 942.13 477.259 938.146C477.259 934.732 473.75 930.653 469.671 929.515C468.343 929.136 465.213 926.669 462.652 924.108C460.091 921.453 455.064 917.943 451.27 916.046C447.571 914.244 444.156 912.062 443.777 911.398C442.923 909.881 442.164 909.786 440.362 910.924Z" fill="black"/>
<path d="M502.109 931.127C501.445 931.791 500.971 933.119 500.971 934.068C500.971 935.111 500.402 936.439 499.643 937.008C498.126 938.146 497.367 944.027 498.505 945.924C498.884 946.588 501.066 947.062 503.627 947.062L508.085 946.968L504.765 944.122C501.92 941.656 501.73 941.277 503.627 941.656C505.714 942.13 505.714 941.941 505.145 937.293C504.386 930.938 503.627 929.61 502.109 931.127Z" fill="black"/>
<circle cx="500" cy="436" fill="#5CE50D"/>
<circle cx="503" cy="44" fill="#E52A0D"/>
<circle cx="440" cy="746" fill="#E52A0D"/>
<circle cx="557" cy="188" fill="#E52A0D"/>
</svg>
