<svg width="1000" height="1000" viewBox="0 0 1000 1000" fill="none" xmlns="http://www.w3.org/2000/svg">
<g clip-path="url(#clip0_1_734)">
<rect width="1000" height="1000" />
<path d="M794.953 82.1562C792.316 83.4258 788.508 84.793 786.652 85.1836C784.797 85.5742 780.305 87.625 776.691 89.6758C773.176 91.8242 769.074 93.4844 767.805 93.4844C765.949 93.4844 764.191 95.0469 760.48 100.027C757.844 103.738 755.402 107.449 755.109 108.328C754.426 110.281 756.574 111.258 759.797 110.477C764.094 109.402 765.852 111.453 766.926 118.582C767.609 123.465 767.609 125.516 766.828 126.199C762.141 130.301 759.309 134.793 759.309 138.406C759.309 140.457 758.918 142.508 758.332 142.801C757.844 143.094 757.355 144.852 757.355 146.707C757.355 148.562 756.965 150.32 756.379 150.613C755.891 150.906 755.402 152.371 755.402 153.836C755.402 155.301 754.328 158.621 753.059 161.355C750.715 166.141 750.715 166.238 752.57 166.531C757.648 167.41 755.5 173.562 749.641 175.32C747.395 176.004 745.637 176.98 745.637 177.371C745.637 177.859 743.586 180.691 741.047 183.719C737.824 187.625 736.066 189.09 734.992 188.602C734.113 188.309 730.793 187.625 727.57 187.234C724.348 186.746 720.832 186.062 719.66 185.77C717.805 185.184 717.414 186.16 714.289 196.219C712.434 202.273 711.066 208.035 711.262 209.109C711.359 210.086 710.578 212.43 709.406 214.188C708.137 216.336 707.648 218.191 708.039 219.559C708.527 220.926 708.039 222.293 706.574 223.855C703.547 227.078 704.621 231.277 709.016 233.719C712.336 235.477 712.434 235.477 714.582 233.426C715.852 232.352 718.781 230.984 721.125 230.398C724.738 229.52 725.812 229.617 728.449 231.277C730.109 232.254 732.648 233.133 734.113 233.133C736.262 233.133 736.945 232.449 738.02 228.934C739.289 225.125 739.777 224.734 743.977 223.953C747.98 223.172 749.152 223.367 753.742 225.613C756.574 227.078 759.602 228.25 760.578 228.25C761.457 228.25 762.238 228.934 762.238 229.715C762.238 230.496 764.289 232.254 766.73 233.719C774.543 238.309 779.328 247.488 775.52 250.613C774.836 251.199 769.27 251.883 763.117 252.176C753.059 252.664 751.887 252.859 749.543 255.105C747.883 256.668 745.832 257.547 743.781 257.547C741.145 257.547 740.461 258.035 739.68 260.477C738.703 263.016 738.117 263.406 735.09 263.406C733.039 263.406 730.5 264.188 729.426 265.164C726.496 267.41 723.176 274.441 723.176 278.055C723.176 280.008 722.59 281.277 721.516 281.668C720.539 281.961 718.488 283.426 716.828 284.891C713.508 287.918 705.891 290.75 701.008 290.75C698.273 290.75 697.785 291.141 697.785 293.094C697.785 295.438 689.777 303.836 685.188 306.277C681.965 308.035 670.246 306.766 667.121 304.324C665.559 303.152 663.215 302.469 660.188 302.469H655.695L651.691 310.77L647.785 319.07L651.691 323.66C653.84 326.297 656.477 329.129 657.551 330.105C658.625 331.082 659.309 332.645 659.016 333.523C658.527 335.281 652.375 340.262 647.395 342.801C645.734 343.68 643.195 346.219 641.633 348.562C635.676 357.645 632.258 361.062 629.23 361.062C627.668 361.062 624.738 362.137 622.785 363.504C620.344 365.164 617.902 365.945 615.07 365.945C612.824 365.945 610.676 366.434 610.383 367.02C609.992 367.605 607.16 367.898 603.742 367.801C600.422 367.605 596.027 368.094 594.074 368.777C591.633 369.559 589.875 369.656 588.703 369.07C587.434 368.289 586.359 368.582 584.602 369.949C583.332 370.926 580.988 371.805 579.426 371.805C574.934 371.805 562.531 377.664 552.375 384.5L543.195 390.555L539.973 388.992C537.531 387.82 536.652 386.844 536.652 384.988C536.652 382.547 536.652 382.547 533.137 384.012C527.863 386.16 524.055 385.867 514.484 382.156C509.797 380.398 504.133 378.543 501.984 378.25C497.395 377.469 495.93 376.395 492.805 372C490.949 369.363 490.07 368.875 486.457 368.875C484.211 368.875 477.57 367.996 471.711 366.922C464.582 365.652 460.773 365.262 460.09 365.945C458.527 367.508 449.152 367.117 434.016 364.871C423.469 363.309 419.562 363.113 417.805 363.895C416.047 364.676 414.777 364.676 412.629 363.504C411.066 362.723 407.551 362.039 404.816 362.039C400.324 362.039 399.934 361.844 399.934 359.793C399.934 358.523 398.469 356.18 396.613 354.324C393.977 351.785 392.805 349.148 390.656 341.727C388.996 336.16 387.141 331.668 386.066 330.887C385.09 330.203 384.309 328.348 384.309 326.785C384.309 324.246 384.016 323.953 381.184 323.953C378.742 323.953 376.398 322.684 372.102 319.07C368.879 316.336 365.363 313.895 364.289 313.602C363.215 313.309 360.383 311.16 357.941 308.816C353.742 304.812 353.254 304.617 345.734 304.031C340.852 303.641 333.332 301.98 325.52 299.539L313.117 295.633L312.043 291.922C310.676 286.844 310.676 286.648 313.996 282.938C316.438 280.008 316.828 278.641 316.926 274.051C316.926 270.242 317.414 268.094 318.488 267.215C320.637 265.457 319.562 258.133 316.535 254.129C315.266 252.469 313.898 248.953 313.508 246.219C312.531 240.164 307.648 232.84 305.012 233.719C303.742 234.109 302.961 233.523 302.082 231.668C301.203 229.715 300.52 229.227 298.957 229.715C297.785 230.105 295.246 230.594 293.293 230.887C290.266 231.277 289.582 231.082 289.582 229.715C289.582 228.738 288.801 225.906 287.922 223.367C286.555 219.461 285.578 218.289 282.16 216.727C278.84 215.066 278.156 214.285 278.547 212.723C278.84 211.551 278.352 209.5 277.375 208.133C276.008 205.984 275.91 205.203 276.887 203.348C278.645 200.027 277.57 199.246 271.809 199.539C268.977 199.637 265.168 199.832 263.508 199.832C260.578 199.93 260.285 200.223 260.285 203.152C260.285 208.23 256.379 211.258 248.762 212.137C242.902 212.82 242.609 212.918 240.266 216.922C238.117 220.535 237.824 222.293 237.824 229.91C237.824 239.773 237.434 240.457 230.207 243.191C224.738 245.34 223.664 245.242 220.832 242.41C218.977 240.555 217.316 239.969 214.094 239.969C211.164 239.969 208.625 239.188 205.402 237.137C196.418 231.473 197.785 230.887 190.559 243.387C187.043 249.539 184.113 255.301 184.113 256.18C184.113 257.059 182.551 259.891 180.695 262.332L177.375 266.922L179.426 269.07C181.281 270.828 181.379 271.414 180.207 274.051C179.035 276.883 177.277 278.152 177.277 276.102C177.277 275.613 175.52 274.734 173.371 274.148C171.32 273.562 169.172 272.488 168.684 271.609C168 270.34 166.047 270.242 153.645 271.023C145.832 271.609 138.508 272.488 137.434 273.074C134.602 274.539 135.773 277.078 139.191 277.078C140.656 277.078 142.414 277.762 143.195 278.641C144.172 279.91 144.074 280.691 142.609 283.23C141.047 285.77 140.754 288.113 140.949 296.121C141.047 301.492 141.34 308.426 141.73 311.453L142.316 317.117H139.289C136.75 317.117 136.262 317.508 136.262 319.559C136.262 321.316 135.773 322 134.504 322C131.77 322 129.426 325.125 128.84 329.422C127.863 336.258 126.496 338.602 123.664 338.602C122.199 338.602 120.637 338.992 120.051 339.578C119.562 340.066 113.703 341.629 106.965 342.996C95.6367 345.34 94.5625 345.73 91.8281 348.953L88.8984 352.273L81.2812 351.297C77.082 350.711 71.9062 349.637 69.8555 348.855L65.9492 347.488L60.8711 353.25L55.793 359.109H49.1523H42.6094L41.9258 355.691C41.2422 351.688 40.0703 350.711 38.1172 352.273C37.2383 352.957 35.2852 353.152 33.0391 352.762C30.207 352.371 27.9609 352.762 23.6641 354.715C20.5391 356.082 17.0234 357.156 15.8516 357.156C12.4336 357.254 8.91797 360.477 8.82031 363.699C8.82031 365.848 8.13672 366.727 5.59766 367.898C1.98438 369.559 0.910156 372.195 2.47266 376.102C3.25391 378.348 3.15625 379.129 1.88672 380.008C0.910156 380.789 0.519531 382.254 0.714844 384.5C1.00781 387.723 1.30078 387.918 5.20703 388.504C8.33203 388.895 10.3828 389.969 13.0195 392.605C16.5352 396.121 16.5352 396.219 15.3633 400.613C14.6797 403.055 14.1914 408.523 14.1914 412.82V420.633L11.5547 420.828C9.99219 420.828 7.64844 420.828 6.08594 420.73C4.32812 420.535 3.25391 421.121 2.76562 422.195C1.88672 424.539 8.42969 430.398 12.043 430.398C15.3633 430.398 17.1211 431.961 17.1211 434.988C17.1211 436.551 17.5117 437.039 18.6836 436.551C19.4648 436.258 21.125 436.941 22.5898 438.211C25.4219 440.945 25.8125 447.293 23.2734 450.125C22.0039 451.59 21.9062 452.371 22.7852 454.422C23.4688 455.691 23.957 457.742 23.957 458.816C23.957 460.477 24.4453 460.574 27.668 460.086C31.1836 459.5 31.3789 459.695 32.5508 462.918C34.2109 467.508 46.3203 475.32 51.6914 475.32C54.8164 475.32 55.207 475.613 55.0117 477.469C54.9141 478.738 55.1094 483.328 55.5977 487.82C56.3789 495.73 56.4766 496.023 59.9922 498.172C61.9453 499.441 64.2891 501.883 65.2656 503.543C67.0234 506.473 67.0234 506.57 65.2656 506.57C61.8477 506.57 59.3086 511.648 62.2383 512.625C63.0195 512.918 62.9219 513.699 61.75 515.359C58.5273 519.949 60.7734 528.445 65.4609 529.617C66.9258 530.008 67.6094 530.691 67.2188 531.57C66.9258 532.352 67.2188 534.988 67.8047 537.332C69.1719 542.898 67.9023 545.242 63.1172 545.926C61.1641 546.219 58.625 546.805 57.5508 547.098C55.793 547.684 55.4023 547.293 54.8164 544.266C54.2305 541.043 53.8398 540.75 50.8125 540.75C47.3945 540.75 47.3945 540.75 47.3945 545.242C47.3945 548.172 48.1758 551.004 49.4453 553.152C51.3984 556.18 51.3984 556.668 50.0312 558.035C48.8594 559.207 48.7617 560.184 49.543 562.234C50.2266 564.383 50.0312 565.75 48.8594 568.094C47.2969 571.219 47.2969 571.219 49.543 570.535C50.8125 570.145 52.1797 569.461 52.668 568.973C53.9375 567.801 56.0859 571.023 56.1836 574.051C56.1836 577.371 59.6992 581.766 62.1406 581.766C65.168 581.766 72.0039 587.723 71.5156 589.773C71.125 590.945 72.0039 592.215 74.0547 593.68C80.0117 597.684 85.4805 603.641 85.4805 605.887C85.4805 609.109 88.2148 609.891 89.9727 607.254C91.2422 605.496 96.125 602.273 97.6875 602.273C97.9805 602.273 98.1758 602.859 98.1758 603.641C98.1758 605.203 104.133 610.379 110.773 614.48C113.117 615.945 116.145 618.387 117.414 619.949C118.781 621.512 120.344 622.781 120.93 622.781C122.688 622.781 127.473 631.277 127.473 634.305C127.473 635.965 128.254 637.43 129.523 638.309C131.477 639.48 131.867 639.285 133.82 636.941C135.578 634.598 136.164 634.402 138.02 635.379C140.461 636.648 140.559 637.527 139.289 642.117C138.312 645.242 138.508 645.438 144.855 650.418C148.371 653.25 151.594 655.398 151.887 655.398C152.18 655.301 153.352 654.91 154.621 654.52C156.574 653.934 156.77 654.227 156.77 657.742C156.77 661.941 157.746 662.82 162.531 662.82C164.68 662.82 165.949 663.797 168.098 666.922C169.562 669.266 171.027 671.316 171.223 671.609C171.32 671.805 172.395 671.512 173.469 670.828C175.227 669.754 175.52 669.754 176.008 671.512C176.594 673.953 180.402 675.027 181.477 673.074C182.844 670.535 185.676 671.512 191.633 676.199L197.297 680.887L205.598 680.789C210.871 680.789 215.754 680.105 219.074 679.031C221.906 678.055 224.836 677.566 225.617 677.859C227.277 678.445 227.668 685.77 226.203 688.113C225.129 689.871 226.887 694.07 228.742 694.07C230.109 694.07 237.824 686.746 237.824 685.379C237.824 684.305 246.223 678.934 249.348 677.957C253.156 676.883 258.332 678.25 258.332 680.398C258.332 681.375 259.113 682.449 260.09 682.742C264.484 683.914 272.785 685.281 275.031 685.086C279.328 684.695 283.723 687.234 284.406 690.262C284.992 693.387 285.676 693.582 295.93 693.191C302.082 692.898 304.719 691.434 306.281 687.43C306.77 686.258 307.844 685.281 308.723 685.281C311.164 685.281 316.926 680.594 318 677.762C318.781 675.809 319.367 675.418 321.32 675.906C324.738 676.785 329.523 674.539 337.531 668.191C345.148 662.332 347.199 661.746 348.664 664.969C349.445 666.727 350.91 667.41 356.281 668.289C362.629 669.266 362.922 669.266 364.582 667.215C365.461 665.945 368.293 664.383 370.832 663.504C375.129 662.137 375.422 662.137 377.082 663.895C378.645 665.652 378.645 665.945 376.984 669.168C374.738 673.27 375.52 674.344 379.719 672.781C382.551 671.707 383.039 671.805 384.602 673.66C386.262 675.809 386.262 675.906 383.332 678.934C381.77 680.594 380.402 682.742 380.402 683.621C380.402 685.477 380.891 685.574 383.82 684.402C385.188 683.816 386.555 684.207 388.508 685.867C390.07 687.137 392.512 688.211 393.977 688.211C395.441 688.211 397.102 688.699 397.785 689.383C398.664 690.262 399.348 689.871 400.91 688.016C403.156 685.086 405.598 685.281 410.383 688.895C412.629 690.457 413.703 692.312 414.094 694.852C414.484 696.805 415.461 700.613 416.242 703.25C417.512 707.352 417.902 707.742 419.172 706.57C419.953 705.789 421.516 705.301 422.688 705.496C424.543 705.887 424.836 706.668 425.031 710.965C425.715 725.613 425.227 731.668 423.176 735.672C421.125 739.578 421.125 739.871 422.688 742.312C424.934 745.633 424.836 745.828 421.516 745.828C419.074 745.828 418.488 746.316 418 748.758C417.512 751.004 416.828 751.688 415.168 751.688C413.508 751.688 412.727 752.469 412.043 754.812C411.457 756.766 410.383 758.133 409.211 758.328C405.793 759.012 403.645 761.648 404.23 764.48C404.621 766.531 404.23 767.312 402.277 768.191C399.934 769.266 399.738 769.656 400.324 774.441C401.301 781.961 401.301 785.086 400.422 787.527C399.543 790.359 401.105 790.457 404.621 787.918C407.941 785.574 414.191 784.598 419.758 785.379C423.469 785.965 424.055 786.355 423.664 787.918C423.371 788.992 423.762 791.141 424.445 792.898C425.129 794.559 425.617 797.195 425.52 798.66C425.422 800.125 425.715 801.59 426.301 801.98C426.789 802.273 427.277 803.543 427.277 804.812C427.277 808.133 429.133 809.305 434.309 809.305C438.508 809.305 438.996 809.5 438.996 811.453C438.996 812.723 438.117 814.773 437.043 816.141C435.969 817.508 435.09 819.852 435.09 821.316C435.09 822.879 434.016 825.516 432.551 827.371C431.184 829.129 430.5 830.789 430.891 831.082C432.746 832.156 442.512 834.695 444.953 834.695C447.492 834.695 447.59 834.891 447.102 838.113C446.613 841.043 446.906 841.629 449.152 842.605C450.812 843.387 451.691 844.559 451.691 846.023C451.691 848.074 451.887 848.172 454.035 847.293C455.598 846.512 457.258 846.512 459.211 847.098C461.555 847.977 462.434 847.684 465.168 845.34C469.172 841.824 472.199 841.629 472.199 844.852C472.199 846.121 472.883 847.684 473.664 848.367C474.445 849.051 475.129 850.613 475.129 851.883C475.129 854.031 475.52 854.227 479.328 854.031C481.574 853.934 484.504 854.129 485.773 854.617L488.02 855.398L487.727 847.098C487.434 840.945 486.945 838.309 485.578 836.941C483.625 834.695 483.43 829.031 485.285 826.59C486.359 825.223 486.75 825.125 487.727 826.199C489.582 828.543 495.246 827.566 498.566 824.441C500.129 822.879 501.496 821.023 501.496 820.34C501.496 817.898 505.5 819.363 510.676 823.66L513.508 826.004L517.219 822.391C520.832 818.875 521.125 818.777 522.297 820.438C523.566 822.195 523.762 822.195 525.227 820.047L526.789 817.801L530.207 820.34C534.309 823.465 535.676 823.66 535.676 821.023C535.676 818.387 538.117 817.508 540.949 819.07C542.805 820.047 543.781 819.949 546.027 818.68C550.715 816.141 552.277 814.578 552.277 812.43C552.277 811.062 553.938 809.5 557.355 807.352L562.434 804.227L564.875 807.254C566.34 809.012 568.293 810.281 569.562 810.281C570.832 810.281 571.906 811.062 572.297 812.234C572.98 814.383 574.348 814.676 578.059 813.211C579.719 812.625 580.695 812.625 581.184 813.309C581.477 813.895 583.137 814.188 584.895 814.09C591.438 813.699 592.316 813.992 592.316 816.922C592.316 818.484 591.438 820.535 590.363 821.512C587.922 823.758 587.922 825.125 590.266 827.273C591.34 828.25 592.316 830.203 592.512 831.57C592.707 833.328 593.488 834.305 594.758 834.5C595.832 834.695 597.59 835.867 598.664 837.039C601.887 840.848 608.723 843.289 613.117 842.215C615.949 841.531 617.219 841.629 618.488 842.801C620.246 844.266 627.473 844.07 627.473 842.508C627.473 842.02 628.449 841.531 629.621 841.336C630.988 841.141 631.965 840.164 632.355 838.797L632.844 836.453L635.188 838.992C636.848 840.75 638.605 841.531 640.754 841.531C642.512 841.531 644.074 842.02 644.27 842.605C644.953 844.559 653.84 842.801 653.84 840.75C653.84 839.48 654.133 839.578 655.402 841.336C656.184 842.508 657.941 843.484 659.309 843.484C662.043 843.484 662.141 844.168 660.188 846.805C658.625 848.855 658.137 858.133 659.602 858.133C660.09 858.133 660.773 859.695 661.066 861.648C661.457 863.504 662.434 865.359 663.215 865.652C663.898 865.945 664.582 867.02 664.582 867.996C664.582 869.559 665.363 869.852 669.953 869.852C674.836 869.852 675.422 869.656 676.789 866.922C678.254 864.188 678.156 863.992 675.812 862.43C674.348 861.453 673.371 859.891 673.371 858.621C673.371 857.156 672.59 856.082 671.418 855.691C670.344 855.398 669.465 854.422 669.465 853.738C669.465 852.859 670.051 852.566 670.93 852.859C674.152 854.129 677.18 852.371 678.352 848.465C679.523 844.363 682.648 842.508 693.586 839.09C696.418 838.211 700.324 836.355 702.375 834.988C704.719 833.328 707.551 832.352 709.992 832.254C713.605 832.156 716.34 831.375 721.711 828.836C722.785 828.348 724.543 827.859 725.52 827.664C726.594 827.469 727.863 826.102 728.449 824.344C729.133 822.586 730.012 821.512 730.793 821.805C731.477 822 732.844 821.609 733.723 820.828C734.602 820.047 736.164 819.07 737.141 818.777C738.508 818.289 738.703 817.41 738.215 813.992C737.922 811.648 736.945 808.133 736.164 806.082C734.992 803.445 734.895 802.078 735.578 801.395C736.359 800.613 737.043 801.004 737.922 802.566C740.461 807.449 744.172 811.258 746.418 811.258C747.59 811.258 750.227 810.574 752.18 809.793C754.133 808.914 756.477 808.523 757.453 808.816C758.82 809.305 759.211 808.719 759.504 806.668C759.797 803.738 763.215 802.078 763.215 804.91C763.215 808.133 766.047 807.449 769.66 803.445C773.371 799.344 773.469 799.344 774.738 801.395C776.496 804.031 779.426 804.031 780.109 801.395C780.5 800.027 781.281 799.539 782.453 799.734C783.43 800.027 786.457 799.051 789.094 797.684C791.828 796.316 795.344 794.949 796.906 794.656C799.25 794.266 799.934 793.582 800.129 791.434C800.324 789.969 801.301 788.309 802.375 787.82C803.449 787.234 804.719 784.891 805.305 782.449C805.988 779.617 806.965 778.055 807.941 778.055C808.723 778.055 811.066 776.297 813.117 774.148C815.168 772 817.219 770.242 817.805 770.242C818.977 770.242 823.762 764.773 826.594 760.184C827.961 757.938 828.547 755.887 828.156 754.617C827.766 753.25 827.961 752.664 828.938 752.664C829.719 752.664 831.086 751.785 832.062 750.711C833.039 749.637 834.895 748.758 836.164 748.758C838.312 748.758 838.41 748.465 837.824 745.34C837.238 742.02 837.336 741.922 840.266 741.922C843 741.922 843.293 741.629 843.293 738.992C843.293 737.039 843.781 736.062 844.758 736.062C846.418 736.062 848.078 733.23 847.883 730.691C847.688 729.031 848.176 728.738 851.398 729.031C854.426 729.227 855.012 729.031 855.012 727.469C855.012 726.395 854.328 725.32 853.547 724.93C852.766 724.637 852.082 723.758 852.082 723.074C852.082 722.293 852.766 721.121 853.547 720.438C855.305 718.973 855.5 715.262 853.84 712.723C852.961 711.258 853.156 710.379 855.012 707.645C856.477 705.594 856.965 704.324 856.184 704.031C855.598 703.836 853.938 702.859 852.57 701.785C848.371 698.465 851.105 697.195 857.355 699.539C858.527 700.027 858.918 699.539 858.918 697.781C858.918 696.414 859.797 694.559 860.871 693.582C861.945 692.605 862.824 690.848 862.824 689.676C862.824 688.504 863.605 686.746 864.68 685.867C865.656 684.988 866.828 682.352 867.121 680.105C867.707 676.59 873.273 659.207 874.25 658.035C874.445 657.742 875.129 658.133 875.715 658.719C877.375 660.379 878.254 660.184 878.938 657.938C879.23 656.863 880.598 655.691 881.867 655.398L884.113 654.812L882.16 651.492C880.695 648.953 880.402 647.488 880.988 645.926C882.355 642.703 881.574 638.602 879.328 637.918C875.617 636.746 877.18 634.5 881.77 634.5H886.066L884.797 629.812C884.113 627.273 883.234 624.539 882.941 623.66C882.551 622.781 882.941 621.609 883.82 620.828C885.773 619.266 884.211 617.898 880.305 617.898C878.84 617.898 876.594 616.629 874.543 614.48C872.688 612.625 870.539 611.062 869.66 611.062C868.781 611.062 865.754 612.82 862.824 614.969C858.137 618.484 857.453 618.68 855.988 617.41C854.523 616.043 854.035 616.043 851.496 617.41C848.371 618.973 847.492 618.094 849.152 615.066C849.934 613.504 851.203 613.016 854.133 613.016C858.918 613.016 861.848 611.551 861.848 609.207C861.848 608.23 863.41 606.57 865.656 605.398C867.707 604.227 869.758 602.566 870.051 601.688C870.344 600.906 872.199 599.539 874.055 598.758C879.133 596.707 878.742 593.582 872.688 589.188C870.051 587.234 867.219 585.672 866.34 585.672C865.461 585.672 863.898 584.793 862.824 583.719C861.457 582.352 859.602 581.766 856.77 581.766C853.254 581.766 852.375 581.375 851.398 579.227C850.324 576.883 850.324 576.688 852.375 577.371C853.547 577.664 855.891 578.348 857.551 578.738C859.309 579.227 862.141 580.691 863.898 582.059C865.754 583.426 868.879 584.793 870.93 585.184C874.152 585.77 874.543 585.672 874.543 583.816C874.543 582.352 873.566 581.57 870.637 580.789C865.363 579.324 864.777 577.859 869.562 577.859C874.152 577.859 874.348 577.176 871.516 573.562C870.148 571.902 868.586 571.023 866.633 571.023C864.484 571.023 863.801 570.535 863.801 569.168C863.801 566.727 861.555 564.969 856.086 563.113C851.887 561.648 851.594 561.355 851.301 557.84C851.008 555.105 849.836 552.664 847.004 549.344C844.855 546.707 840.852 540.359 838.02 535.086L832.941 525.613L826.496 524.148C822.883 523.367 819.172 521.902 818.195 520.926C817.121 520.047 815.363 519.266 814.289 519.266C812.043 519.266 810.773 515.457 812.141 513.211C812.629 512.527 813.02 510.965 813.02 509.891C813.02 508.719 813.605 507.254 814.387 506.668C815.168 505.984 816.145 504.129 816.438 502.566C816.926 500.418 817.609 499.734 819.367 499.734C821.125 499.734 821.809 499.051 822.297 496.805C822.59 495.242 823.762 492.801 824.836 491.434C826.496 489.383 826.594 488.992 825.324 488.992C824.445 488.992 823.762 488.211 823.762 487.137C823.762 484.5 825.422 483.719 826.496 485.672C827.277 487.137 827.57 487.137 830.5 485.574C833.039 484.305 833.625 483.426 833.43 481.375C833.137 479.324 834.211 477.664 838.215 473.562C841.047 470.828 843.781 468.484 844.27 468.484C844.855 468.484 847.004 466.824 849.25 464.871L853.156 461.258L856.086 463.016C857.746 463.992 859.211 464.578 859.406 464.383C859.602 464.188 860.676 460.867 861.75 456.961L863.703 449.93H860.285C858.332 449.93 855.988 449.441 854.914 448.855C853.352 448.074 852.473 448.172 851.301 449.246C848.664 451.492 846.516 451.883 840.363 451.199C835.773 450.711 834.504 450.32 834.504 448.953C834.504 448.074 833.332 446.805 831.965 446.121C829.719 445.145 828.84 445.34 824.641 448.074C821.711 449.93 819.855 451.785 819.855 452.859C819.855 453.934 818.586 455.496 816.926 456.473C815.363 457.352 813.996 458.621 813.996 459.305C813.996 459.891 813.117 461.551 811.945 463.016C810.285 465.066 809.113 465.555 805.305 465.555C802.766 465.555 800.227 465.066 799.543 464.383C798.859 463.699 798.371 460.77 798.371 457.645C798.371 453.543 797.785 451.297 796.125 448.855C793.879 445.438 790.168 444.07 788.312 445.926C786.75 447.488 779.426 447.195 775.715 445.438C773.957 444.656 771.516 442.508 770.441 440.848L768.391 437.723L770.344 431.18C772.395 424.246 774.836 422.293 777.863 425.027C779.914 426.883 781.184 426.883 782.746 425.027C783.332 424.344 785.773 423.367 788.02 423.074C791.828 422.488 792.219 422.098 793.781 417.703C794.66 415.164 795.441 411.941 795.441 410.574C795.441 409.305 796.125 407.645 796.906 406.961C797.688 406.277 798.371 405.105 798.371 404.422C798.371 403.641 798.957 403.055 799.641 403.055C800.227 402.957 803.742 400.809 807.453 398.074C811.848 394.852 813.996 392.605 813.996 391.238C813.996 390.164 815.168 387.82 816.535 385.965C817.902 384.207 819.465 381.18 819.953 379.324C820.637 376.59 821.516 375.711 823.859 375.223C825.617 374.832 827.375 375.027 828.156 375.711C829.328 376.688 829.914 376.688 831.086 375.711C832.258 374.734 832.941 374.734 833.723 375.516C834.406 376.199 836.066 376.688 837.531 376.688C839.484 376.688 840.461 377.371 841.34 379.617C842.414 382.254 842.219 383.23 839.875 388.699C838.41 392.02 836.164 395.73 834.895 396.902C833.625 398.074 832.551 400.125 832.551 401.492C832.551 402.859 832.16 404.227 831.574 404.52C831.086 404.812 830.598 405.398 830.598 405.789C830.598 406.668 835.48 408.914 837.531 408.914C838.996 408.914 838.996 409.305 837.727 413.309C836.555 416.824 835.578 417.898 832.941 418.875C830.793 419.656 829.621 420.73 829.621 421.805C829.621 423.855 829.523 423.855 835.09 422.488C837.922 421.707 839.387 420.828 839.387 419.754C839.387 418.875 840.656 417.41 842.219 416.531C843.879 415.652 846.027 413.211 847.102 411.062C849.25 406.863 858.723 398.172 861.066 398.172C861.945 398.172 862.824 397.293 863.117 396.219C863.41 395.047 864.484 394.266 865.559 394.266C866.73 394.266 867.902 393.777 868.195 393.289C868.488 392.703 869.855 392.312 871.223 392.312C876.301 392.312 882.355 386.941 882.355 382.547C882.355 380.887 893.293 367.898 894.758 367.898C895.441 367.898 897.004 366.141 898.176 363.992C899.445 361.941 901.398 359.891 902.57 359.598C905.5 358.914 908.332 353.738 909.602 347C911.164 338.406 914.387 335.574 918 339.578C920.051 341.922 925.031 342.117 933.137 340.164C939.875 338.602 940.754 336.16 936.066 331.766C934.309 330.203 933.137 328.348 933.332 327.664C933.918 325.809 939.973 323.074 943.586 322.977C947.102 322.977 949.738 320.047 949.738 316.141C949.738 312.82 950.715 311.551 953.645 311.16C956.77 310.672 958.527 306.18 956.77 303.348C955.207 300.906 956.281 296.609 958.43 296.609C959.309 296.707 960.871 298.074 961.945 299.832C963.508 302.176 964.68 302.957 966.828 302.957C969.465 302.957 969.855 302.566 970.246 299.539C970.637 297.098 971.418 295.828 973.469 294.852C976.008 293.68 976.105 293.191 976.105 286.746C976.105 282.547 975.617 279.129 974.738 277.762C973.957 276.59 973.078 273.562 972.688 271.121C972.297 268.484 970.148 263.309 967.707 259.012C965.363 254.812 963.41 251.004 963.41 250.32C963.41 249.734 964.875 248.562 966.535 247.684C970.148 245.926 970.93 244.754 971.711 239.578C972.199 236.551 972.492 236.16 973.469 237.234C974.348 238.309 976.496 238.504 983.137 238.113C993 237.43 994.172 236.746 992.609 232.352C991.73 229.715 991.828 228.738 993.586 225.711C994.953 223.465 995.441 221.414 995.051 219.852C994.758 218.582 994.953 216.922 995.539 216.141C996.809 214.676 997.102 206.961 996.418 190.652C995.93 179.227 995.93 178.836 998.273 176.297C1001.11 173.367 1000.81 169.07 997.492 166.141C996.32 165.066 995.637 163.211 995.637 160.77C995.637 157.352 995.441 157.059 992.512 156.766C989.973 156.57 988.117 157.352 984.211 160.379C981.379 162.527 979.035 165.066 979.035 165.945C979.035 167.215 978.254 167.703 976.301 167.703C972.688 167.703 966.145 174.148 966.926 176.98C967.316 178.641 966.34 179.324 960.285 181.473C947.883 185.965 944.562 186.844 944.074 185.477C943.879 184.891 942.121 183.426 940.168 182.352C936.848 180.496 936.555 180.008 936.848 176.59C937.141 173.367 936.848 172.586 934.211 170.73C931.965 169.07 931.184 167.801 931.184 165.555C931.184 162.723 931.086 162.625 927.766 163.211C924.836 163.797 923.664 163.406 920.539 160.965C915.559 156.961 912.238 155.887 907.746 156.57C904.816 157.059 903.059 156.668 900.422 155.105C897.199 153.25 896.711 153.152 894.074 154.52C892.512 155.301 889.289 155.984 886.945 155.984C880.891 155.984 878.352 153.738 877.766 147.781C877.375 144.266 876.691 142.898 875.422 142.605C874.348 142.312 873.566 141.238 873.566 140.164C873.566 137.137 871.125 133.328 866.34 128.934C863.898 126.688 861.848 123.953 861.848 122.879C861.848 121.805 860.773 119.656 859.406 118.094C858.039 116.434 856.965 114.773 856.965 114.285C856.965 113.797 855.695 112.137 854.035 110.574C852.473 109.012 851.105 106.766 851.105 105.594C851.105 104.324 850.52 102.957 849.738 102.566C849.055 102.176 847.688 100.125 846.711 98.1719C845.832 96.1211 844.27 94.2656 843.195 93.9727C842.219 93.582 841.34 92.9961 841.34 92.5078C841.34 90.8477 834.992 85.6719 832.844 85.6719C831.672 85.6719 829.621 85.2812 828.254 84.793C826.691 84.1094 824.836 84.207 822.883 84.9883C820.246 85.9648 819.172 85.7695 814.387 83.3281C806.672 79.6172 801.105 79.2266 794.953 82.1562Z" fill="black"/>
<path d="M679.621 873.27C679.23 874.246 677.57 874.734 674.445 874.734C672.004 874.734 669.074 875.418 668 876.199C666.633 877.273 664.875 877.469 661.555 877.078C657.941 876.59 656.965 876.785 656.477 878.055C656.086 879.031 654.719 879.617 652.57 879.617C649.641 879.617 649.152 880.008 648.664 882.449C648.273 884.207 646.223 886.844 643.098 889.48L638.215 893.582V899.734C638.215 903.152 638.703 906.18 639.191 906.473C639.777 906.766 640.168 908.523 640.168 910.379C640.168 913.504 640.363 913.699 645.441 915.164C648.371 916.043 652.082 916.727 653.645 916.727C655.305 916.727 656.965 917.117 657.258 917.703C657.551 918.191 659.113 918.68 660.773 918.68C663.117 918.68 663.605 918.289 663.605 916.336C663.605 914.383 664.191 913.895 667.414 913.309C669.562 913.016 672.199 911.648 673.469 910.281C674.641 909.012 676.203 907.938 676.887 907.938C678.645 907.938 680.207 904.715 680.207 901.102C680.207 895.242 682.258 889.676 685.676 886.355C688.41 883.719 688.996 882.449 688.996 878.934C688.996 875.516 688.703 874.734 687.238 874.734C686.262 874.734 684.602 874.051 683.527 873.27C681.184 871.512 680.305 871.414 679.621 873.27Z" fill="black"/>
<circle cx="748" cy="404" fill="#5CE50D"/>
<circle cx="169" cy="434" fill="#E52A0D"/>
<circle cx="748" cy="798" fill="#E52A0D"/>
<circle cx="556" cy="637" fill="#E52A0D"/>
</g>
<defs>
<clipPath id="clip0_1_734">
<rect width="1000" height="1000" />
</clipPath>
</defs>
</svg>
