<svg width="1000" height="1000" viewBox="0 0 1000 1000" fill="none" xmlns="http://www.w3.org/2000/svg">
<g clip-path="url(#clip0_1_741)">
<rect width="1000" height="1000" />
<path d="M573.24 2.73389C572.264 5.46826 571.482 6.24951 568.748 6.73779C566.697 7.12842 565.623 7.81201 565.916 8.59326C566.404 10.0581 555.467 14.1597 550.975 14.1597C547.068 14.1597 546.482 15.0386 546.287 22.3628C546.189 26.269 545.408 29.98 543.943 33.0073C541.502 38.2808 538.572 40.1362 525.779 44.4331C515.916 47.8511 496.971 59.1792 490.623 65.6245C482.42 73.9253 482.322 73.9253 464.451 74.5112L448.533 74.9995L443.162 71.8745C437.889 68.9448 432.908 68.0659 428.025 69.4331C425.975 69.9214 422.752 77.0503 422.752 80.8589C422.752 81.9331 422.068 84.1792 421.189 86.0347C419.92 88.769 418.65 89.6479 414.646 90.8198C409.666 92.2847 409.568 92.2847 397.654 88.2808L385.643 84.2769L380.857 88.0854C378.221 90.1362 375.291 92.9683 374.314 94.3354C373.436 95.7026 370.018 98.3394 366.893 99.9995C362.986 102.148 360.74 104.101 359.959 106.054C359.178 108.105 357.127 109.765 353.416 111.621C348.338 114.16 348.045 114.55 347.459 118.652C347.166 121.191 345.604 125.097 343.846 127.832C342.186 130.468 340.33 134.082 339.744 135.839C339.158 137.597 337.596 139.746 336.229 140.625C334.275 141.894 333.982 142.48 334.959 143.652C335.936 144.824 336.717 144.433 340.135 141.406C344.041 137.89 344.139 137.792 344.432 140.039C344.627 141.21 344.139 142.773 343.357 143.359C342.088 144.433 341.209 147.949 339.158 161.621C338.768 163.867 337.498 165.917 335.545 167.675L332.518 170.214L337.107 170.898C342.186 171.679 342.381 172.265 341.111 180.273C340.33 184.765 337.889 186.035 329.393 186.035C324.314 186.035 321.971 186.621 317.283 188.964C312.01 191.601 311.229 192.48 307.127 199.902C301.463 210.351 296.385 216.308 293.26 216.308C291.6 216.308 290.916 216.894 290.916 218.261C290.916 219.433 288.865 221.484 285.057 224.121C281.834 226.269 278.807 228.906 278.221 229.98C277.439 231.347 275.682 232.031 271.287 232.519C266.404 233.105 264.842 233.691 262.498 236.23L259.666 239.257L263.67 241.21C268.65 243.75 271.385 247.949 271.385 252.929C271.385 255.078 272.068 259.277 272.85 262.207C274.412 268.164 274.705 273.73 273.436 275.683C272.947 276.562 271.678 276.757 269.822 276.367C268.26 276.074 266.014 275.585 264.842 275.292C262.107 274.804 261.814 271.972 264.451 271.972C265.818 271.972 266.404 271.093 266.697 268.75C266.99 267.089 267.576 264.843 267.967 263.769C268.65 262.207 268.455 262.109 265.721 262.695C262.889 263.281 262.596 262.988 260.643 259.375C259.568 257.128 258.006 255.371 257.225 255.371C256.443 255.371 254.686 253.222 253.416 250.683C251.561 246.972 250.193 245.605 247.068 244.433C244.822 243.554 242.771 241.992 242.479 241.015C240.232 233.984 238.182 233.3 233.494 238.085C229.686 241.992 229.588 243.945 232.811 247.753C234.178 249.316 235.545 251.855 235.936 253.222C236.229 254.687 238.182 258.3 240.135 261.23C242.088 264.16 244.627 269.14 245.799 272.265L247.947 277.929L245.213 278.906C243.748 279.394 241.99 280.078 241.404 280.273C240.721 280.468 239.451 283.3 238.572 286.523C236.814 292.675 233.982 296.191 227.244 300.195L223.631 302.343L222.459 300.097C220.604 296.386 216.502 292.48 214.451 292.48C212.791 292.48 212.693 292.968 213.279 297.558C213.963 302.246 213.768 302.832 211.521 304.589C209.959 305.957 208.396 308.984 207.127 313.183L205.174 319.726L207.811 322.07C209.178 323.339 211.814 325.292 213.572 326.269C216.6 328.027 216.795 328.515 216.6 332.519C216.111 341.601 216.502 342.968 219.432 343.554C222.068 344.14 225.486 349.121 225.486 352.539C225.486 353.418 226.463 354.003 227.928 354.003C229.393 354.003 230.369 353.418 230.369 352.539C230.369 351.367 230.76 351.269 232.811 352.246C234.178 352.832 235.252 353.808 235.252 354.296C235.252 354.882 236.229 356.347 237.498 357.714C239.549 359.863 239.549 360.058 237.986 361.23C237.01 361.914 236.229 363.183 236.229 364.062C236.229 364.941 235.447 366.015 234.568 366.601C232.908 367.48 232.908 367.675 234.666 368.945C236.424 370.214 236.424 370.605 235.252 373.535L233.885 376.757L232.225 374.609C231.346 373.535 230.369 372.558 230.076 372.558C229.881 372.558 229.881 374.609 230.076 377.148C230.467 380.468 231.932 383.886 234.861 388.574C237.791 393.261 239.158 396.484 239.158 398.828C239.256 400.781 239.842 403.418 240.623 404.785C241.795 407.031 241.697 407.421 239.354 409.863C237.498 411.914 235.936 412.597 233.104 412.597C229.881 412.597 229.1 413.086 226.951 416.503C223.631 421.875 223.729 424.316 227.342 424.316C232.029 424.316 232.713 426.171 233.396 441.796C233.689 450.195 234.568 457.519 235.35 459.668C236.424 462.402 236.619 466.113 236.131 475.097C235.447 487.89 235.057 488.867 228.709 492.773C225.975 494.531 225.486 495.312 225.486 498.632C225.486 501.66 226.463 503.808 230.467 509.277C233.201 513.085 235.74 516.113 236.131 516.113C236.521 516.113 237.889 513.867 239.158 511.132C241.404 506.543 241.6 506.347 242.479 508.3C243.26 509.96 243.064 510.644 241.795 511.328C239.646 512.597 238.572 518.652 240.232 520.605C241.502 522.168 244.041 522.07 250.877 520.41C252.83 519.921 252.439 520.41 249.217 522.949C245.799 525.39 245.018 526.66 245.018 529.101C245.018 532.617 237.791 542.48 229.49 550.293C225.682 553.906 224.705 555.664 223.631 560.253C222.557 565.234 222.166 565.918 220.115 565.918C217.186 565.918 215.721 568.457 215.721 573.73C215.721 575.976 214.744 579.98 213.572 582.714C211.814 586.816 210.74 587.89 207.127 589.453C204.783 590.429 201.854 591.308 200.584 591.308C199.119 591.308 198.045 591.992 197.654 593.261C197.264 594.628 196.189 595.214 194.236 595.214C192.088 595.214 191.307 594.628 190.525 592.285L189.451 589.355L186.229 591.211C184.471 592.187 180.076 594.043 176.463 595.214C170.799 596.972 169.236 598.046 165.135 602.832C162.498 605.859 159.373 610.937 158.104 614.062C156.053 618.945 155.955 620.117 156.932 622.851C157.615 624.707 158.104 627.343 158.104 628.808C158.104 630.175 158.787 631.64 159.568 631.933C160.35 632.324 161.033 633.105 161.033 633.789C161.033 634.472 161.717 635.253 162.498 635.644C164.256 636.23 164.354 638.183 162.889 641.503C162.01 643.359 161.326 643.75 160.154 643.164C159.275 642.675 156.053 641.992 153.025 641.699C147.752 641.015 147.166 641.113 142.967 644.14C138.768 647.168 134.666 652.343 134.666 654.492C134.666 655.078 137.303 656.445 140.525 657.617C143.748 658.789 146.385 660.351 146.385 661.035C146.385 662.988 159.275 675.293 161.229 675.293C162.205 675.293 163.377 676.171 163.963 677.246C164.646 678.515 166.014 679.199 167.869 679.199C170.018 679.199 171.482 680.273 174.314 683.593C176.854 686.718 178.611 687.988 180.369 687.988C181.834 687.988 184.764 689.55 187.596 691.992C190.525 694.433 193.65 696.191 195.994 696.484C197.947 696.875 201.658 698.046 204.295 699.218C207.811 700.878 209.764 701.269 212.693 700.683C216.99 699.902 219.627 701.269 219.627 704.394C219.627 706.933 225.486 712.011 229.295 712.89C232.225 713.476 232.322 713.769 232.322 718.652C232.322 723.73 232.322 723.73 236.717 725.878C239.256 727.148 243.064 728.027 245.506 728.027C249.217 728.027 249.998 728.418 251.463 730.859C252.537 732.714 254.197 733.886 256.15 734.277C263.67 735.546 290.428 736.816 292.674 736.035C293.26 735.839 293.846 733.984 293.846 732.031C293.846 725.976 300.389 721.679 303.611 725.586C304.295 726.367 306.346 727.05 308.104 727.05C309.959 727.05 311.424 727.441 311.424 728.027C311.424 728.515 312.4 729.003 313.67 729.003C315.232 729.003 316.795 730.566 319.627 734.863C321.678 738.086 325.193 742.089 327.439 743.75C331.053 746.484 331.932 746.679 336.619 746.191C341.6 745.605 341.99 745.703 346.189 749.316C351.365 753.906 357.518 755.957 361.521 754.492C365.135 753.125 369.725 753.125 370.604 754.492C370.896 755.078 373.826 757.226 376.951 759.277C381.932 762.5 383.201 762.89 387.01 762.5L391.404 762.011L391.697 766.211C391.99 770.117 392.283 770.507 395.311 771.289C403.318 773.339 414.939 785.742 414.939 792.187C414.939 794.238 415.818 795.703 417.967 797.265C419.92 798.73 420.603 799.804 419.92 800.195C419.139 800.781 419.236 801.855 420.311 804.492C421.971 808.398 427.537 812.011 432.029 812.011C434.764 812.011 437.693 813.671 444.139 818.75C447.068 821.093 449.217 822.168 450.975 821.972C454.295 821.582 462.791 826.269 462.791 828.515C462.791 829.394 464.158 832.226 465.721 834.863C468.064 838.574 468.455 839.843 467.674 841.406C467.088 842.382 466.893 844.824 467.283 846.679C468.162 851.562 475.193 856.445 480.076 855.664C484.471 854.882 488.084 856.64 488.768 859.765C489.061 861.132 490.135 865.234 491.111 868.847L492.869 875.293L490.525 877.539C486.228 881.543 488.475 888.183 494.041 888.183C495.408 888.183 497.85 889.55 499.607 891.308C502.83 894.336 503.123 894.531 509.959 894.238C515.623 893.945 517.283 893.554 518.748 891.894L520.408 889.843L526.365 892.578C530.467 894.433 533.299 895.019 535.35 894.726C543.748 893.261 547.459 892.382 549.412 891.308C550.584 890.625 553.318 890.136 555.369 890.136C558.787 890.136 559.764 889.55 563.084 885.839C567.674 880.664 574.119 876.464 574.119 878.711C574.119 880.371 576.17 881.347 579.393 881.347C580.662 881.347 583.494 882.617 585.643 884.277C587.889 885.839 590.135 887.207 590.721 887.207C591.209 887.207 592.088 888.086 592.674 889.16C593.748 891.211 597.557 891.699 604.588 890.527C607.322 890.039 608.299 889.355 608.494 887.793C608.689 886.23 609.568 885.644 611.912 885.449C613.572 885.253 615.525 884.472 616.111 883.691C616.795 882.91 618.943 882.324 620.994 882.324C624.705 882.324 629.197 885.156 637.889 892.773C639.939 894.628 642.576 895.996 644.041 895.996C645.408 895.996 647.752 896.679 649.217 897.461C650.779 898.242 653.807 899.121 655.955 899.511C659.178 900 660.154 900.781 661.912 903.906C663.768 907.128 664.549 907.714 667.283 907.714C669.334 907.714 671.189 908.496 672.654 910.058L674.803 912.304L654.197 943.457L633.689 974.609L638.279 976.757C643.162 979.003 647.85 979.687 648.728 978.125C649.021 977.636 651.365 976.953 653.807 976.562C658.299 975.976 658.494 975.976 663.182 980.664C665.916 983.3 668.357 986.914 669.041 988.964C670.408 993.75 676.658 999.804 679.685 999.316C681.834 999.023 682.322 996.875 696.287 920.41C704.295 877.148 710.74 840.136 710.74 838.183C710.838 835.351 711.424 834.179 713.279 832.91C715.33 831.543 715.721 830.566 715.721 826.464C715.721 823.046 715.135 820.8 713.768 819.14C712.693 817.773 711.814 815.527 711.814 814.16C711.814 812.89 710.35 809.765 708.494 807.226C703.807 800.781 701.853 796.679 702.244 793.652C702.342 792.187 702.146 788.574 701.756 785.546C700.975 780.371 700.779 779.98 697.947 779.394C696.287 779.101 692.576 777.05 689.842 774.902C687.01 772.753 684.373 770.996 683.885 770.996C683.396 770.898 680.955 769.043 678.514 766.699L673.924 762.597L674.9 741.601C675.389 730.078 675.975 720.214 676.17 719.531C676.365 718.847 679.783 717.382 683.689 716.211C687.596 715.039 692.576 712.793 694.822 711.328C700.486 707.519 708.103 707.128 712.596 710.449C715.135 712.304 717.283 712.89 722.752 713.183C729.197 713.574 729.685 713.476 729.002 711.816C728.611 710.839 727.928 707.128 727.439 703.613C727.049 700.097 725.975 695.605 725.096 693.554C723.24 689.355 719.236 687.207 716.502 688.867C715.33 689.55 713.279 689.648 709.764 688.964C707.029 688.378 702.635 687.988 700.193 687.988C697.654 687.988 695.115 687.5 694.627 687.011C693.846 686.23 692.771 686.328 690.818 687.011C689.353 687.597 687.986 687.89 687.889 687.793C687.791 687.597 687.889 678.808 688.182 668.261L688.67 649.023L693.162 648.437C695.603 648.144 699.803 647.461 702.439 647.07C705.174 646.582 708.494 646.582 710.252 647.07C713.768 648.144 741.795 648.242 768.846 647.265L788.084 646.679L784.959 643.457C781.932 640.332 781.834 640.039 783.201 637.597C783.885 636.132 785.057 634.765 785.74 634.57C788.182 633.593 791.6 635.253 792.674 637.793C794.236 641.113 799.9 647.949 801.17 647.949C805.271 647.949 809.471 645.605 811.912 641.992C815.232 636.816 821.482 630.175 826.268 626.269L830.076 623.339L834.373 625C838.279 626.464 838.768 626.953 838.768 629.589C838.768 631.738 840.232 634.375 843.943 639.062C846.873 642.578 850.193 648.144 851.365 651.367C853.416 656.738 853.514 658.203 852.928 669.336C852.244 680.761 852.342 681.347 854.002 680.859C855.076 680.566 857.908 680.078 860.545 679.687C865.623 679.003 865.818 678.613 863.768 672.851C862.986 670.703 861.228 663.867 859.861 657.617C858.396 651.464 855.857 643.554 854.197 640.039C852.635 636.621 851.268 632.421 851.268 630.761C851.365 628.515 850.486 626.855 848.045 624.511C844.236 620.8 843.455 616.015 846.189 613.769C847.459 612.597 846.482 611.23 838.182 602.929C832.908 597.656 827.635 593.164 826.365 592.773C824.9 592.48 823.435 590.918 822.654 588.964C821.482 586.328 820.506 585.546 816.893 584.57C814.451 583.984 811.131 583.496 809.568 583.496C807.908 583.496 806.541 583.105 806.541 582.714C806.541 581.25 829.685 559.082 831.248 559.082C833.299 559.082 838.67 553.418 839.451 550.39C839.939 548.535 839.451 547.46 837.205 545.605C835.643 544.238 832.81 540.039 830.955 536.23C828.123 530.566 827.049 529.199 824.803 528.808C822.557 528.418 821.678 527.343 819.92 522.949C818.65 520.019 815.428 513.281 812.596 508.007C807.81 498.73 807.615 498.242 808.982 495.605C811.326 491.015 810.838 487.304 807.518 484.57C804.588 482.128 804.588 482.031 806.15 478.418C808.592 472.656 809.178 450.878 807.127 443.066C805.271 435.546 805.662 434.57 813.084 427.539L818.455 422.558L817.771 416.992C816.893 409.57 818.26 406.543 825.291 399.902L830.955 394.531L828.025 389.843C825.584 386.035 825.291 385.058 826.56 384.668C827.342 384.277 828.025 383.105 828.025 381.836C828.025 379.98 826.853 379.101 820.799 376.562C812.693 373.144 807.615 372.753 800.291 375C797.654 375.781 793.943 376.464 791.99 376.464C790.037 376.464 786.521 377.441 784.178 378.515C780.467 380.175 778.611 380.371 771.873 379.785C765.135 379.296 763.475 379.394 761.228 380.859C758.689 382.519 758.201 382.519 749.119 380.566C733.201 377.148 733.982 377.148 729.588 380.859C725.291 384.57 720.799 385.351 718.553 382.714C717.674 381.64 716.404 381.347 714.256 381.738C711.326 382.324 710.74 381.836 694.822 362.304C685.838 351.269 678.123 342.285 677.635 342.285C677.146 342.285 675.193 340.917 673.338 339.257C670.115 336.425 669.529 336.328 664.549 336.914C658.103 337.792 646.873 334.57 645.896 331.64C645.506 330.273 643.943 329.687 639.353 329.199C630.76 328.32 625.096 328.515 624.412 329.589C623.24 331.445 616.111 334.57 610.643 335.546C606.15 336.328 604.881 336.328 603.611 335.156C602.635 334.375 599.119 333.496 595.603 333.203C572.654 331.152 574.803 331.054 570.506 333.789L566.502 336.328L560.74 333.886C555.564 331.64 554.588 330.761 551.853 325.683C550.096 322.656 548.728 318.945 548.728 317.48C548.728 314.16 543.846 311.035 538.377 311.035C535.154 311.035 534.08 310.546 532.322 308.105C530.369 305.566 530.174 304.101 530.174 293.066C530.174 283.3 530.564 280.078 532.029 276.562C533.103 274.121 534.373 271.875 534.959 271.582C536.228 270.8 536.228 263.867 535.154 257.031C534.471 252.929 533.396 251.367 526.072 243.847L517.869 235.351L514.646 223.339C510.057 205.566 510.545 206.542 504.783 206.542C499.9 206.542 499.9 206.542 499.9 203.32C499.9 201.66 499.607 199.218 499.314 198.046C498.728 195.898 498.631 195.898 490.916 199.804C484.666 202.929 482.322 203.613 478.709 203.417L474.314 203.125L478.709 197.265C481.053 194.042 483.787 189.843 484.568 187.89C485.35 185.937 487.4 183.398 489.061 182.226C493.162 179.296 499.9 165.917 499.9 160.839C499.9 158.789 500.779 154.589 501.756 151.66C502.83 148.632 503.904 141.699 504.295 135.742C505.076 125.292 505.076 125.097 510.35 115.82C513.279 110.742 516.404 104.687 517.478 102.441C518.455 100.195 520.213 97.8511 521.287 97.2651C522.459 96.5815 523.338 95.312 523.338 94.3354C523.338 89.8433 535.35 81.0542 540.623 81.7378C543.26 82.0308 543.748 81.3472 551.463 66.1128C558.885 51.4644 559.764 50.2925 562.205 50.2925C563.67 50.2925 571.482 48.437 579.49 46.1909C593.162 42.2847 594.432 41.7964 598.24 37.8901C600.389 35.5464 603.123 33.6909 604.197 33.6909C605.271 33.6909 607.225 32.812 608.689 31.6401C612.01 29.0034 612.01 24.7065 608.787 20.4097C607.42 18.6519 606.346 16.1128 606.346 14.8433C606.346 12.8901 605.369 11.9136 601.268 9.86279C598.436 8.49561 595.213 7.32373 594.041 7.32373C592.771 7.32373 591.209 6.54248 590.525 5.56592C588.768 3.02686 587.4 2.44092 582.127 1.56201C579.588 1.07373 576.853 0.390137 575.975 0.097168C574.705 -0.48877 574.021 0.194824 573.24 2.73389Z" fill="black"/>
<circle cx="440" cy="500" fill="#5CE50D"/>
<circle cx="380" cy="99" fill="#E52A0D"/>
<circle cx="282" cy="560" fill="#E52A0D"/>
<circle cx="500" cy="309" fill="#E52A0D"/>
</g>
<defs>
<clipPath id="clip0_1_741">
<rect width="1000" height="1000" />
</clipPath>
</defs>
</svg>
