<svg width="1000" height="1000" viewBox="0 0 1000 1000" fill="none" xmlns="http://www.w3.org/2000/svg">
<g clip-path="url(#clip0_1_744)">
<rect width="1000" height="1000" />
<path d="M328.377 346.807C321.443 350.029 314.705 352.666 313.436 352.666C311.678 352.666 311.189 353.154 311.189 355.205C311.189 359.111 308.846 357.549 307.869 352.959C307.088 349.541 306.404 348.76 303.279 347.783C300.74 346.904 297.811 346.807 293.904 347.295C286.287 348.369 267.537 347.881 263.631 346.611C261.287 345.732 259.529 345.732 256.697 346.611C254.549 347.295 249.275 347.783 244.783 347.783H236.775L224.861 354.814C213.826 361.357 212.557 361.943 205.916 362.529C201.326 362.92 198.396 363.604 197.811 364.482C197.127 365.557 196.736 365.654 196.15 364.58C194.881 362.725 180.037 364.092 180.721 365.947C181.014 366.729 180.428 367.705 179.354 368.291C176.814 369.658 176.619 369.561 177.107 367.021L177.596 364.678L169.979 366.338C164.412 367.51 162.068 368.486 160.994 370.049C159.236 372.686 157.869 372.783 157.869 370.244C157.869 367.998 157.869 367.998 152.596 369.463C150.252 370.146 146.736 372.393 143.904 375.029C140.779 377.959 138.533 379.424 137.264 379.229C136.092 379.033 134.139 379.814 132.967 380.986C131.307 382.549 129.939 383.037 128.182 382.549C126.326 382.061 125.447 382.451 124.666 383.916C123.982 385.186 122.615 385.869 120.76 385.869C118.904 385.869 117.83 386.357 117.83 387.236C117.83 388.896 115.779 389.775 111.971 389.775C110.506 389.775 108.748 390.361 108.162 391.143C107.479 391.924 104.744 392.803 102.107 393.193C99.373 393.584 96.9316 394.463 96.6387 395.244C96.1504 396.611 87.2637 401.104 81.8926 402.666C79.9395 403.154 78.377 404.424 77.791 405.791C76.8145 408.525 71.834 412.236 69.2949 412.236C68.3184 412.236 66.7559 413.506 65.7793 415.068C64.9004 416.533 62.8496 418.389 61.1895 419.072C58.748 420.049 58.2598 420.83 58.2598 423.564C58.2598 426.104 57.5762 427.373 55.2324 429.033C51.4238 431.865 48.4941 437.432 48.4941 441.826C48.4941 443.682 47.8105 445.732 47.0293 446.416C45.1738 447.979 45.1738 449.346 47.0293 449.346C47.8105 449.346 48.6895 450.713 49.0801 452.666C49.4707 455.107 50.6426 456.768 53.4746 458.525C55.5254 459.99 57.2832 461.846 57.2832 462.822C57.2832 463.799 57.8691 465.166 58.5527 465.85C59.5293 466.924 59.1387 467.021 56.3066 466.436C54.4512 466.143 51.6191 465.85 49.959 465.85C48.3965 465.947 45.0762 465.947 42.7324 465.947C39.8027 465.947 37.752 466.533 36.3848 467.803C35.2129 468.877 32.0879 470.635 29.2559 471.709C26.4238 472.783 20.6621 475.42 16.3652 477.666C8.65039 481.475 8.55273 481.475 4.45117 480.107C2.20508 479.326 0.251953 478.643 0.0566406 478.643C-0.138672 478.643 -0.333984 480.107 -0.333984 481.963C-0.333984 485.088 -0.0410156 485.381 4.25586 486.846C11.5801 489.385 13.5332 488.896 20.8574 483.33C27.2051 478.35 27.791 478.154 34.5293 477.861C41.4629 477.471 41.5605 477.471 42.2441 480.107C42.7324 481.963 42.3418 483.428 40.9746 485.283C38.4355 488.799 37.2637 493.291 38.9238 493.291C41.6582 493.193 48.2012 489.385 51.4238 485.967C55.916 481.279 58.4551 480.01 68.6113 477.568C75.252 476.006 77.5957 475.811 80.0371 476.689C83.748 477.959 85.5059 476.494 87.9473 469.658C89.3145 466.045 89.4121 464.678 88.5332 463.018C86.9707 460.088 87.9473 457.158 91.3652 453.838C94.2949 451.006 94.6855 451.006 105.721 451.494C108.357 451.689 111.287 450.908 114.51 449.248C121.639 445.439 124.08 445.146 126.131 447.393C129.158 450.811 142.244 449.541 142.244 445.928C142.244 444.268 143.318 443.975 144.783 445.439C145.955 446.611 151.033 440.068 151.033 437.334C151.033 435.381 155.33 432.354 157.186 433.037C157.869 433.33 159.725 432.939 161.385 432.256C163.533 431.377 165.096 429.229 168.025 423.271L171.834 415.459L179.061 413.115C183.455 411.748 187.068 409.99 188.045 408.623C189.021 407.451 191.561 405.791 193.709 404.912C196.834 403.643 198.006 402.471 199.178 399.443L200.643 395.635H207.283C211.775 395.635 214.412 396.123 215.486 397.1C216.658 398.174 217.83 398.271 220.369 397.588C222.127 397.1 229.744 396.416 237.264 396.123C248.689 395.635 251.131 395.732 252.498 397.002C253.768 398.174 254.939 398.369 257.381 397.588C259.139 397.1 264.9 396.416 270.076 396.025C281.795 395.244 286.189 396.709 299.275 405.889C299.373 405.986 298.787 407.646 298.006 409.6C296.834 412.432 295.271 413.799 290.877 416.045C285.701 418.584 284.236 418.877 271.15 419.365C263.338 419.658 256.209 420.146 255.33 420.537C254.158 421.025 253.572 422.295 253.572 424.15C253.572 426.592 254.158 427.275 258.064 429.033C260.604 430.107 264.607 432.256 266.951 433.721C269.393 435.283 273.006 436.748 275.154 437.139C278.377 437.725 278.963 438.213 278.963 440.166C278.963 442.021 279.744 442.998 282.381 444.072C286.189 445.635 295.564 445.928 295.564 444.463C295.564 443.389 311.58 443.779 317.049 444.951C318.904 445.439 321.053 446.611 321.736 447.588C324.861 451.982 333.65 453.936 333.65 450.322C333.65 447.881 335.799 447.783 337.947 450.225C339.217 451.592 339.314 452.568 338.631 454.619C337.459 457.646 338.533 457.939 340.975 455.205C342.342 453.643 342.537 452.373 342.049 448.271C341.658 445.439 340.779 441.533 340.096 439.482C338.924 436.162 339.021 435.771 340.584 435.381C342.635 434.795 346.346 439.971 346.346 443.291C346.346 449.932 352.01 453.936 363.338 455.303C369.295 456.084 371.15 455.889 376.521 454.131C381.99 452.275 384.139 452.08 392.83 452.568C404.646 453.35 408.357 452.471 407.381 449.053C406.99 447.881 405.232 445.635 403.377 444.17C399.568 440.947 399.861 439.58 404.354 439.58C409.725 439.58 413.631 440.654 414.119 442.412C415.779 448.467 415.779 450.322 414.217 450.322C411.58 450.322 413.143 456.182 416.268 458.525C417.732 459.6 421.053 462.334 423.787 464.58C426.619 467.021 432.381 470.342 437.459 472.49C444.881 475.615 446.639 476.885 449.08 480.4C451.619 484.111 452.107 484.404 453.182 483.037C454.158 481.67 455.232 481.572 458.943 482.061C462.947 482.646 463.533 483.037 463.533 485.088C463.533 487.041 464.021 487.432 466.463 487.432C468.025 487.432 469.686 486.748 470.174 485.869C470.955 484.404 471.346 484.404 474.08 485.869C475.74 486.748 478.182 487.432 479.451 487.432C482.967 487.432 491.072 490.361 493.514 492.51C494.979 493.877 496.053 494.17 497.225 493.584C498.787 492.607 512.264 494.951 517.537 497.1C521.834 498.76 526.229 498.369 531.404 495.83C534.041 494.463 538.533 493.096 541.561 492.803C550.545 491.826 559.529 490.166 562.166 488.994C564.412 487.92 569.002 487.92 569.002 488.994C569.002 489.287 568.514 490.361 568.025 491.338C567.146 492.998 567.537 493.291 570.76 494.17C572.811 494.756 575.35 496.221 576.424 497.393C580.33 501.787 584.627 509.6 584.627 512.432C584.627 514.58 585.506 515.85 588.338 517.705C591.072 519.463 591.561 520.146 590.291 520.439C588.143 520.83 588.143 521.221 589.9 526.299C590.682 528.447 591.561 532.744 591.951 535.869C592.928 544.17 593.123 544.658 596.639 546.123C598.396 546.807 601.912 548.955 604.451 551.006C606.99 553.057 610.408 554.912 611.873 555.303C614.021 555.791 614.9 556.768 615.779 559.697C616.658 562.627 617.244 563.311 618.709 562.92C619.881 562.627 622.127 564.092 625.74 567.705C631.307 573.369 633.846 574.346 642.244 574.346C645.369 574.346 647.615 573.76 649.275 572.393C651.521 570.635 652.107 570.635 656.795 571.904C662.752 573.467 692.146 573.076 696.541 571.318C699.861 570.146 704.744 571.123 706.99 573.467C707.967 574.541 709.627 575.322 710.604 575.322C713.24 575.322 714.51 580.107 712.166 581.377C709.529 582.842 710.311 583.818 716.561 586.064C719.979 587.334 723.104 589.287 723.982 590.654C726.033 593.682 725.057 599.248 721.932 602.568C720.662 603.936 719.295 606.084 718.904 607.256C718.416 608.916 717.537 609.502 715.486 609.502C713.631 609.502 712.264 610.283 711.189 612.041C710.213 613.408 707.479 615.361 705.037 616.436C702.596 617.412 698.201 620.537 695.174 623.271C692.049 626.006 688.24 628.838 686.482 629.619C684.334 630.498 683.064 631.963 682.283 634.502C681.6 636.455 679.646 639.678 677.986 641.631C674.861 645.146 668.221 655.4 668.807 655.791C669.002 655.986 670.955 656.768 673.104 657.646C676.717 659.014 677.303 659.014 679.256 657.646C680.428 656.865 683.26 656.084 685.506 655.889C687.752 655.791 692.928 655.107 696.932 654.424C702.889 653.545 704.646 652.861 706.404 650.713C708.455 648.174 709.822 647.783 719.393 647.49C720.174 647.393 723.396 647.881 726.619 648.467C731.209 649.248 732.967 649.15 735.701 648.076C737.654 647.295 740.291 646.611 741.756 646.611C743.123 646.611 745.564 645.537 747.225 644.268C749.471 642.51 750.545 642.119 751.912 642.9C753.084 643.486 754.744 643.486 756.795 642.705C758.553 642.021 764.314 641.143 769.686 640.752C783.553 639.58 794.393 638.018 799.08 636.455C802.01 635.479 806.99 635.283 818.123 635.576C831.795 635.967 833.455 635.869 836.873 634.111C840.584 632.158 840.682 632.158 842.537 634.014C843.904 635.381 845.76 635.869 849.764 635.869C852.791 635.869 857.479 636.748 860.701 638.018C864.705 639.482 868.318 640.068 873.201 639.971C885.506 639.775 895.467 638.604 899.764 636.748C903.67 635.088 903.963 634.697 903.963 631.279C903.963 626.592 906.307 622.979 909.139 623.369C912.166 623.76 912.264 626.885 909.432 632.256C906.99 636.846 906.99 636.846 909.041 636.846C910.213 636.846 913.924 636.357 917.342 635.771C922.713 634.795 923.787 634.307 925.057 631.865C925.838 630.303 927.01 629.033 927.596 629.033C928.182 629.033 931.209 626.885 934.334 624.15C937.459 621.514 940.486 619.463 941.268 619.756C943.416 620.635 961.775 617.607 967.928 615.361C972.322 613.701 975.838 613.213 981.6 613.311C985.896 613.408 989.9 613.115 990.486 612.725C991.072 612.236 992.342 610.479 993.221 608.818C994.1 607.061 995.955 604.912 997.225 604.033C1001.03 601.494 1000.54 597.1 995.955 592.607C992.049 588.799 989.217 588.115 985.701 590.361C981.99 592.705 976.717 593.193 975.154 591.338C974.373 590.361 971.443 588.604 968.611 587.334C965.291 585.869 961.482 583.037 958.162 579.424C955.33 576.396 950.74 572.49 948.104 570.928C945.076 569.17 942.537 566.729 941.561 564.678C940.096 561.65 939.803 561.455 936.58 562.041C934.041 562.529 932.381 562.236 930.037 560.771C925.057 557.744 915.389 556.182 909.92 557.646C906.6 558.428 904.549 558.525 902.596 557.744C901.131 557.256 897.127 556.768 893.611 556.768C888.729 556.768 887.361 557.061 887.361 558.232C887.361 559.014 886.482 559.697 885.408 559.697C883.943 559.697 883.455 559.014 883.455 557.256C883.455 554.912 883.162 554.814 878.084 554.814C873.396 554.814 872.713 555.01 872.713 556.768C872.713 558.037 871.834 558.916 870.076 559.307C868.514 559.6 866.854 559.99 866.17 560.186C865.584 560.381 864.803 559.893 864.51 559.014C864.021 557.842 863.631 557.744 862.557 558.623C861.385 559.6 861.092 559.209 860.506 556.768C860.115 555.205 859.432 553.838 858.846 553.838C856.893 553.838 851.229 557.939 851.229 559.307C851.229 560.967 851.131 560.967 847.908 559.697C845.662 558.916 845.369 558.232 845.369 553.74V548.76L853.963 549.053C860.994 549.346 862.459 549.15 862.459 547.979C862.459 547.197 860.994 545.732 859.139 544.854C856.209 543.389 855.428 543.389 852.693 544.463C848.885 546.123 846.346 544.951 846.346 541.631C846.346 538.994 848.982 538.311 850.936 540.264C852.889 542.217 856.404 540.85 857.283 537.725C857.771 536.064 858.65 533.818 859.236 532.646C860.018 530.986 859.822 529.912 858.162 527.568C856.99 525.908 855.428 524.541 854.744 524.541C854.061 524.541 852.107 523.467 850.252 522.1C846.639 519.463 841.561 518.877 836.873 520.732C835.408 521.318 832.479 521.807 830.525 521.709C828.475 521.709 826.619 522.197 826.131 522.979C825.154 524.541 818.318 525.518 815.584 524.541C814.51 524.15 812.947 524.15 812.068 524.639C810.799 525.225 810.115 524.639 808.943 521.611C807.869 518.682 806.893 517.705 805.33 517.705C804.061 517.705 799.471 515.459 794.979 512.725L786.873 507.744L780.428 508.428L774.08 509.111V513.408C774.08 516.533 773.689 517.705 772.615 517.705C771.834 517.705 771.15 516.826 771.15 515.752C771.15 511.846 768.318 507.939 765.682 507.939C763.826 507.939 763.24 508.33 763.729 509.404C764.51 511.65 758.26 511.357 756.209 509.111C754.061 506.768 754.158 506.182 756.795 505.791C757.967 505.596 758.943 504.814 758.943 504.033C758.943 503.057 757.088 502.178 753.084 501.299C749.861 500.615 745.955 499.346 744.295 498.564C739.021 496.025 735.115 495.244 734.334 496.611C733.162 498.564 729.451 500.225 727.791 499.541C726.619 499.053 726.717 498.662 728.279 497.1C729.256 496.123 730.135 494.658 730.135 493.877C730.135 492.119 722.811 482.939 720.76 482.158C718.611 481.377 718.416 481.377 718.416 482.842C718.416 483.623 717.537 484.99 716.463 485.967C715.389 486.943 714.51 488.701 714.51 489.873C714.51 492.314 712.85 493.291 708.553 493.291C706.307 493.291 705.721 492.9 705.721 491.24C705.721 490.068 706.404 488.604 707.283 488.018C709.334 486.455 708.064 483.525 705.232 483.525C700.35 483.525 697.127 482.256 696.053 480.01C695.564 478.74 693.514 477.08 691.658 476.299C687.752 474.639 685.994 472.002 687.264 469.658C687.947 468.389 687.557 467.9 685.408 467.119C683.846 466.631 681.795 466.533 680.525 467.021C679.158 467.51 677.498 467.51 676.424 466.924C675.447 466.338 672.615 465.947 670.271 465.947C663.924 465.947 660.213 464.287 658.846 460.967C658.162 459.404 657.186 458.135 656.697 458.135C654.842 458.135 651.033 453.252 651.033 450.811C651.033 448.857 650.545 448.369 648.592 448.369C646.639 448.369 646.15 448.857 646.053 451.006C646.053 452.568 645.662 454.521 645.271 455.596C644.686 457.158 644.197 456.865 641.756 453.643C640.193 451.494 636.092 446.904 632.576 443.193C627.986 438.408 625.643 436.65 623.787 436.65C622.42 436.65 619.979 435.771 618.318 434.697C616.756 433.623 612.947 432.256 610.018 431.67C606.014 430.791 603.67 429.521 600.74 426.787C597.42 423.662 595.955 422.979 591.072 422.393C587.85 422.002 583.943 420.83 582.283 419.854C575.643 415.654 567.732 411.26 566.951 411.26C566.561 411.26 566.072 412.92 565.877 414.873L565.584 418.584L562.166 415.068C560.311 413.115 557.479 411.26 555.916 410.869C554.451 410.479 544.979 410.967 534.92 411.846L516.756 413.506L507.674 407.549C502.693 404.326 497.811 401.396 496.834 401.006C495.857 400.713 493.221 397.881 491.072 394.756C488.826 391.631 486.385 388.604 485.604 387.822C484.725 387.139 484.041 385.771 484.041 384.795C484.041 383.818 482.967 381.768 481.697 380.303C479.842 378.252 479.061 377.861 478.182 378.74C477.303 379.521 475.838 379.229 472.42 377.471C468.709 375.518 467.244 375.225 465.291 376.006C463.143 376.787 462.654 376.592 461.678 374.346C460.604 372.002 460.701 371.611 464.217 368.682L467.928 365.557L463.729 366.338C461.482 366.729 458.748 367.803 457.771 368.682C456.111 370.146 455.721 370.146 451.717 367.803C449.373 366.533 446.639 365.361 445.76 365.361C444.783 365.361 444.002 364.678 444.002 363.799C444.002 362.725 443.416 362.529 442.049 362.92C441.072 363.213 439.021 362.92 437.557 362.139C435.115 360.869 434.627 360.967 431.502 363.018C426.521 366.436 422.518 366.826 417.928 364.482C415.779 363.408 413.143 362.725 412.166 363.018C409.432 363.701 399.471 359.014 397.518 356.084C396.639 354.814 394.393 352.764 392.537 351.592C389.217 349.541 389.119 349.541 378.865 351.104C373.201 351.982 367.732 353.154 366.756 353.643C364.9 354.717 358.064 355.01 358.064 354.033C358.064 353.74 358.455 352.666 359.041 351.689C359.92 350.127 359.627 349.932 355.818 350.42C349.959 351.104 349.373 351.396 348.299 354.033C347.713 355.596 346.248 356.768 344.197 357.354C341.17 358.232 340.682 357.939 336.58 353.74L332.088 349.248L336.092 347.197C340.682 344.658 344.49 340.947 342.342 340.947C341.561 340.947 335.311 343.584 328.377 346.807Z" fill="black"/>
<path d="M586.58 393.685C584.041 395.736 580.33 396.029 572.811 395.052C568.709 394.564 568.221 394.662 567.733 396.713C566.951 399.74 567.635 400.521 571.248 400.521C573.006 400.521 576.131 401.4 578.279 402.377C580.721 403.451 583.553 403.939 585.408 403.646C587.166 403.451 590.584 403.744 592.928 404.427C596.541 405.404 597.518 405.404 599.373 404.037C600.643 403.158 602.498 402.474 603.475 402.474C605.623 402.474 604.744 400.619 599.861 395.345C597.029 392.416 595.76 391.732 592.733 391.83C590.584 391.83 587.947 392.611 586.58 393.685Z" fill="black"/>
<path d="M608.063 405.301C606.208 405.691 603.767 406.473 602.692 407.156C600.935 408.133 601.228 408.23 604.841 408.328C608.063 408.328 608.845 408.621 608.454 409.793C607.575 412.039 610.993 412.918 612.556 410.77C613.825 409.012 613.923 409.012 613.923 411.16C613.923 412.527 615.485 415.066 617.731 417.215C621.247 420.828 621.54 420.926 622.028 418.875C622.614 416.922 622.81 416.922 624.86 418.289C626.13 419.168 627.204 421.023 627.399 422.586C627.595 424.148 628.376 425.809 629.157 426.199C630.036 426.688 630.329 427.762 630.036 428.738C629.353 430.887 631.11 432.449 634.431 432.938C636.286 433.133 636.97 433.914 637.165 435.867C637.751 440.457 647.126 447.195 647.126 442.996C647.126 440.945 648.981 441.141 649.763 443.191C650.837 446.414 653.278 448.367 655.915 448.367C658.063 448.367 658.747 448.953 659.333 451.004C659.919 453.445 661.384 455.105 662.849 455.203C663.142 455.203 663.239 453.836 662.946 452.273C662.653 449.93 663.142 448.758 665.095 446.902C667.146 445.047 667.731 443.68 667.438 441.238C667.146 438.211 666.95 438.113 662.751 438.016C660.31 438.016 657.087 437.234 655.427 436.355C653.864 435.477 651.911 434.695 651.325 434.695C650.642 434.695 650.056 433.621 650.056 432.449C650.056 430.105 647.321 426.883 645.368 426.883C644.782 426.883 644.001 426.004 643.708 424.93C643.415 423.855 642.438 422.977 641.56 422.977C638.728 422.977 634.431 419.656 634.431 417.41C634.431 415.652 633.845 415.262 630.817 414.969C627.985 414.773 627.009 414.188 626.813 412.723C626.032 407.449 625.544 406.473 622.614 405.496C619.196 404.324 613.435 404.227 608.063 405.301Z" fill="black"/>
<path d="M671.638 452.176C669.783 453.348 671.443 458.036 674.666 460.379C676.619 461.844 678.084 462.137 680.72 461.649L684.236 460.965L680.134 456.18C675.935 451.297 674.275 450.516 671.638 452.176Z" fill="black"/>
<path d="M688.338 462.82C688.534 463.211 689.413 465.555 690.389 467.996C691.463 470.535 693.221 473.074 694.491 473.758C695.76 474.441 697.323 476.297 697.811 477.762C698.69 480.398 699.178 480.594 704.061 480.594C708.065 480.594 709.725 481.082 711.092 482.547C713.631 485.379 715.682 483.328 715.291 478.25C714.999 474.344 714.901 474.246 711.092 473.66C706.112 472.976 701.131 470.34 700.35 467.996C700.057 467.019 697.616 465.262 694.784 464.09C689.608 461.941 687.752 461.551 688.338 462.82Z" fill="black"/>
<path d="M179.647 471.123C179.94 472.001 179.549 473.173 178.67 473.955C173.592 478.056 169.588 489.091 172.518 490.849C174.569 492.119 183.26 503.251 183.26 504.521C183.26 506.474 178.182 508.916 174.08 508.916C171.541 508.916 170.174 508.33 169.1 506.669C167.733 504.521 162.947 501.591 162.166 502.275C162.069 502.47 163.729 505.498 165.877 509.111C170.662 516.63 173.983 518.681 181.99 518.681C184.92 518.681 189.119 519.169 191.072 519.755C194.588 520.83 195.174 520.634 207.088 514.189C218.709 507.841 219.393 507.255 219.393 504.423C219.393 502.763 218.416 500.224 217.342 498.759C215.584 496.513 215.389 495.732 216.365 493.681C217.83 490.361 216.561 488.212 211.58 485.966C207.674 484.208 205.916 481.181 206.99 478.251C207.772 476.298 199.764 473.076 191.072 471.904C187.069 471.318 182.674 470.537 181.404 470.146C179.451 469.658 179.158 469.853 179.647 471.123Z" fill="black"/>
<path d="M513.338 541.141C513.338 542.508 517.83 547 519.197 547C519.783 547 520.174 546.219 519.979 545.34C519.588 543.387 513.338 539.383 513.338 541.141Z" fill="black"/>
<path d="M528.769 550.223C527.206 551.492 527.499 551.981 531.991 556.668C536.581 561.453 538.729 562.235 538.729 559.207C538.729 558.524 536.874 555.887 534.628 553.446C530.917 549.539 530.233 549.149 528.769 550.223Z" fill="black"/>
<path d="M542.245 561.258C543.514 564.578 544.784 565.555 548.202 565.555C551.131 565.555 551.424 565.359 550.545 563.699C549.96 562.723 548.495 561.648 547.323 561.453C546.053 561.16 544.295 560.574 543.319 560.184C541.952 559.598 541.756 559.793 542.245 561.258Z" fill="black"/>
<path d="M553.377 568.484C553.377 570.34 555.232 571.414 558.357 571.414C561.971 571.414 559.92 568.289 555.623 567.215C553.865 566.824 553.377 567.117 553.377 568.484Z" fill="black"/>
<path d="M566.267 575.907C567.146 576.786 568.318 577.177 568.904 576.786C570.466 575.81 569.197 574.345 566.755 574.345C564.802 574.345 564.802 574.442 566.267 575.907Z" fill="black"/>
<path d="M600.935 589.577C603.083 592.995 608.943 595.534 610.115 593.679C611.482 591.628 611.189 591.335 606.013 589.089C599.47 586.452 598.884 586.452 600.935 589.577Z" fill="black"/>
<circle cx="203" cy="362" fill="#5CE50D"/>
<circle cx="605" cy="413" fill="#E52A0D"/>
<circle cx="834" cy="560" fill="#E52A0D"/>
<circle cx="732" cy="645" fill="#E52A0D"/>
</g>
<defs>
<clipPath id="clip0_1_744">
<rect width="1000" height="1000" />
</clipPath>
</defs>
</svg>
