<svg width="1000" height="1000" viewBox="0 0 1000 1000" fill="none" xmlns="http://www.w3.org/2000/svg">
<g clip-path="url(#clip0_1_758)">
<rect width="1000" height="1000" />
<path d="M84.4316 45.7415C75.0566 48.6712 69.5879 50.9173 66.2676 53.3587C62.9473 55.7024 60.7012 56.679 59.334 56.2884C56.4043 55.5071 47.3223 63.9055 46.0527 68.4954C45.0762 72.011 44.8809 72.1087 38.2402 73.2805C34.4316 73.8665 26.9121 76.0149 21.3457 77.8704C13.1426 80.7024 10.2129 82.2649 5.42773 86.3665L-0.333984 91.347V98.9641V106.581L5.23242 109.902L10.8965 113.222L14.3145 122.988L17.6348 132.851L15.0957 135.878C12.8496 138.613 12.6543 139.296 13.4355 143.593C14.7051 150.234 14.8027 150.429 19.0996 152.675C23.7871 155.019 25.6426 155.116 32.5762 153.066C36.0918 152.089 39.1191 151.796 41.4629 152.187C43.5137 152.675 49.1777 152.87 54.2559 152.773L63.4355 152.48L81.4043 134.12C97.8105 117.226 99.666 115.663 102.107 116.152C105.428 116.835 112.264 113.613 123.201 106.093C131.893 100.136 133.65 98.3782 139.9 89.1985C143.514 83.9251 144.197 82.0696 144.197 78.261C144.197 73.9641 144.1 73.6712 141.072 72.9876C139.314 72.6946 135.311 70.3509 132.283 68.0071C126.814 63.7102 126.717 63.5149 126.424 58.2415L126.131 52.8704L121.248 50.9173C118.611 49.843 112.166 47.304 107.088 45.3509L97.8105 41.6399L84.4316 45.7415Z" fill="black"/>
<path d="M155.427 152.186L150.642 155.604L147.419 152.479L144.196 149.354L138.923 154.53C135.993 157.362 133.259 161.073 132.771 162.831C132.282 164.491 131.403 165.761 130.915 165.761C130.427 165.663 126.325 165.272 121.735 164.979L113.435 164.296L111.677 168.593C110.212 172.108 109.138 173.28 105.232 175.136C100.837 177.186 100.446 177.675 100.056 181.288C99.6651 184.901 99.9581 185.292 102.888 186.464C105.329 187.538 106.208 188.612 106.696 191.249C107.478 195.546 108.064 195.839 111.774 194.569C114.607 193.593 115.192 193.886 120.564 198.378C125.153 202.089 127.595 203.358 132.282 204.432C138.044 205.604 138.63 205.604 143.903 203.163C151.814 199.745 155.329 198.866 163.63 198.182C168.22 197.792 172.907 196.62 176.521 195.057C181.794 192.616 182.087 192.323 182.966 187.831C183.649 184.315 183.552 182.557 182.575 180.507C181.794 179.042 181.403 176.796 181.794 175.233C182.282 172.694 182.087 172.401 179.255 171.815C177.595 171.522 174.274 171.229 171.931 171.229H167.732L166.169 165.858C164.802 161.073 164.802 160.194 166.071 157.655C167.439 155.116 167.439 154.725 165.388 152.968C160.407 148.573 160.505 148.671 155.427 152.186Z" fill="black"/>
<path d="M901.424 176.207C899.861 177.183 897.029 178.062 895.076 178.062C892.146 178.062 890.486 179.039 884.92 184.117L878.377 190.172L878.768 197.984C879.061 204.429 879.549 206.578 881.6 209.8C883.846 213.316 884.041 214 882.869 216.636C882.088 218.199 881.6 221.519 881.697 223.863C881.893 227.574 881.502 228.453 878.768 230.797C877.01 232.164 875.643 233.726 875.643 234.019C875.643 234.41 877.986 234.703 880.818 234.8C883.553 234.8 888.045 235.386 890.779 235.972C895.076 237.047 895.76 237.535 896.932 240.757C898.299 244.273 898.201 244.468 895.271 248.179L892.244 252.086L896.834 256.285L901.424 260.484L901.717 268.297C902.01 272.691 902.303 276.695 902.498 277.379C902.791 278.16 905.135 277.769 910.506 276.109C914.607 274.742 918.221 273.472 918.416 273.277C918.611 273.082 917.83 270.836 916.854 268.199C915.779 265.66 914.607 262.144 914.314 260.386C913.924 257.75 914.119 257.261 915.975 256.968C917.635 256.773 918.221 255.894 918.416 253.55C918.611 251.597 919.686 249.644 921.15 248.472C922.42 247.496 923.494 245.933 923.494 245.054C923.494 244.273 921.736 239.195 919.588 233.824C917.537 228.453 915.096 221.324 914.314 217.906L912.85 211.754L915.389 209.703L917.928 207.75L915.389 198.961C913.24 191.441 912.947 189.586 913.826 186.363C914.9 182.652 914.803 182.457 911.189 179.234C905.33 174.254 904.646 174.058 901.424 176.207Z" fill="black"/>
<path d="M209.823 200.621C207.772 205.309 207.772 205.7 209.433 207.75C210.311 209.02 213.632 211.071 216.854 212.34C220.858 213.903 223.104 215.465 224.179 217.418C227.597 223.473 227.011 223.278 237.851 222.496C247.421 221.813 247.811 221.715 249.179 218.981C249.96 217.516 250.644 216.051 250.644 215.758C250.644 214.684 243.905 213.219 238.827 213.219C233.847 213.219 233.163 212.926 232.577 210.973C232.186 209.801 230.624 207.457 229.159 205.895C227.597 204.235 226.229 202.086 226.034 201.11C225.839 199.743 224.081 198.766 219.394 197.399C215.878 196.422 212.753 195.641 212.46 195.641C212.069 195.641 210.897 197.887 209.823 200.621Z" fill="black"/>
<path d="M372.811 242.611C370.956 244.174 369.198 244.467 364.803 244.369C359.335 244.174 358.944 244.369 354.745 248.177C352.303 250.424 349.471 252.279 348.397 252.279C345.272 252.279 343.905 258.92 345.565 265.756L346.835 271.029L357.479 277.67L368.026 284.31L373.788 294.955C377.694 302.279 379.647 307.064 380.135 310.677C380.721 315.365 381.112 316.049 384.042 317.513C387.069 318.881 387.46 318.881 389.217 317.318C390.78 315.853 390.975 315.072 390.096 312.142C389.315 309.213 389.51 308.431 391.073 306.576C392.147 305.502 395.565 299.545 398.592 293.49L404.061 282.552H407.772C410.311 282.552 412.557 281.674 415.292 279.623C418.807 276.986 419.686 276.791 427.401 276.693H435.702L446.932 283.138C460.409 290.853 463.729 291.537 482.577 290.756C499.667 289.974 501.815 288.607 498.202 281.576C497.03 279.232 496.053 278.646 493.514 278.646C490.975 278.646 489.315 277.572 485.116 273.373C481.405 269.564 478.28 267.513 474.178 266.049C468.905 264.095 467.831 263.998 457.577 265.072C447.128 266.049 446.542 266.049 443.905 264.095C436.678 258.724 434.042 257.552 426.229 255.795L417.733 254.037L414.413 256.088C411.581 257.845 410.506 257.943 408.358 257.162C406.112 256.283 405.233 256.478 403.475 258.138C402.303 259.213 400.936 260.092 400.448 260.092C398.983 260.092 393.514 254.135 389.999 248.763C387.167 244.369 386.483 243.978 382.674 243.685C380.135 243.49 378.28 242.806 377.889 241.927C377.206 240.072 375.643 240.267 372.811 242.611Z" fill="black"/>
<path d="M248.689 249.255C248.689 253.748 248.787 254.041 251.717 254.626C257.576 255.798 257.771 255.408 253.865 249.841C251.814 246.912 249.861 244.47 249.471 244.47C248.982 244.47 248.689 246.619 248.689 249.255Z" fill="black"/>
<path d="M281.405 263.999C279.94 265.561 279.744 266.538 280.526 268.686C281.893 272.69 285.116 272.592 287.655 268.588C288.729 266.733 289.705 264.975 289.705 264.682C289.705 264.292 284.334 262.045 283.358 262.045C283.26 262.045 282.381 262.924 281.405 263.999Z" fill="black"/>
<path d="M948.885 415.267L946.736 419.954L939.314 421.028C925.643 423.177 922.42 422.786 913.826 417.806C909.627 415.364 905.721 413.411 905.232 413.411C904.646 413.411 903.768 415.169 903.182 417.22C902.498 420.345 902.596 421.321 903.768 422.591C905.135 423.86 905.037 424.251 903.67 426.497C901.521 429.72 901.521 430.403 904.549 437.532C906.795 442.806 907.088 444.368 906.502 449.837L905.818 456.185L899.275 460.579C894.49 463.802 891.854 466.341 889.412 470.345L886.189 475.814L888.24 485.384C889.412 490.56 890.486 494.954 890.584 495.052C893.416 497.396 902.107 501.595 907.381 503.157C912.557 504.622 915.193 506.087 917.635 508.724L921.053 512.239L931.795 511.653C940.291 511.165 943.514 511.36 946.834 512.532C949.178 513.314 951.229 513.9 951.326 513.802C951.521 513.607 952.889 511.067 954.549 508.138C957.479 503.06 958.26 502.376 971.541 495.052C994.197 482.454 995.76 481.38 995.76 477.669C995.76 475.911 996.639 473.665 997.811 472.396C999.861 470.247 999.861 470.15 998.299 458.235L996.736 446.224L990.975 440.267C986.385 435.579 985.115 433.626 984.725 430.501C984.432 428.353 983.748 425.423 983.162 423.86C982.186 421.517 981.697 421.224 977.205 421.224C973.201 421.224 970.369 420.247 961.678 415.95L951.131 410.579L948.885 415.267Z" fill="black"/>
<path d="M592.244 756.872C588.338 760.876 587.654 762.146 587.459 765.954C587.068 772.107 590.193 780.896 594.002 784.607C596.932 787.439 597.029 787.829 596.15 791.15C595.564 793.103 594.1 796.033 592.83 797.693C591.17 799.841 590.486 802.087 590.486 805.115C590.389 807.458 589.607 810.876 588.631 812.634C587.264 815.368 587.068 816.736 587.85 821.13C589.217 828.552 587.557 839.685 584.334 844.665C582.967 846.814 581.6 850.72 581.307 853.552L580.623 858.728L584.822 860.779C588.045 862.341 589.51 863.806 591.072 867.419C593.025 871.716 593.318 872.009 596.443 871.716C599.373 871.423 600.154 871.911 603.377 876.111L606.99 880.896L603.963 883.923L600.936 886.853L608.064 895.154L615.193 903.357L630.428 909.704C643.904 915.368 647.225 916.345 659.627 918.298C673.104 920.447 688.338 920.642 693.123 918.786C694.295 918.396 694.979 916.443 695.467 912.634C695.955 908.142 696.834 906.189 699.959 902.478C703.279 898.474 703.67 897.595 702.791 895.349C701.326 891.54 701.424 891.345 706.502 889.49C709.041 888.513 711.385 887.439 711.873 887.146C712.654 886.365 710.799 879.333 707.479 870.154C705.623 864.978 705.232 864.587 702.4 864.587C699.666 864.587 698.787 863.708 693.904 856.482C689.803 850.525 688.24 847.204 687.752 843.591C686.678 835.876 686.385 835.486 681.209 833.825C677.498 832.556 675.74 831.286 673.396 827.868C670.564 823.669 670.271 823.572 665.389 823.572H660.213L652.107 809.314L644.002 795.154L640.291 795.349C637.166 795.642 635.408 794.861 629.744 791.052C626.033 788.415 621.346 784.216 619.393 781.579L615.682 776.697L616.756 770.642L617.83 764.685L613.436 759.997C610.994 757.361 608.846 755.115 608.553 755.017C608.357 754.822 607.088 756.189 605.721 757.947L603.377 761.169L600.252 756.775C598.592 754.333 597.127 752.283 597.029 752.283C596.834 752.283 594.686 754.333 592.244 756.872Z" fill="black"/>
<path d="M801.034 759.309C798.885 762.629 796.541 767.609 795.76 770.539C794.393 775.324 794.002 775.812 790.584 776.691C787.264 777.57 786.971 777.961 786.58 781.672C786.385 784.406 786.58 785.871 787.459 786.066C788.143 786.262 789.412 786.652 790.194 786.945C791.268 787.238 791.659 788.801 791.659 792.219C791.659 796.125 791.268 797.395 789.315 798.859C786.385 801.105 783.748 814.484 784.53 822.883C785.018 828.352 785.213 828.645 789.119 830.598C791.268 831.672 794.686 834.016 796.541 835.773C799.764 838.801 800.545 839.094 808.26 839.68L816.561 840.266L828.377 829.816L840.096 819.465L838.729 807.551C838.045 801.105 836.385 792.609 835.213 788.801C833.162 782.551 833.065 781.672 834.334 779.133C835.701 776.496 835.604 776.008 832.576 770.246C830.721 766.828 828.768 763.996 828.182 763.996C827.596 763.996 825.448 764.68 823.592 765.461C821.639 766.242 819.686 766.926 819.198 766.926C818.807 766.926 817.244 764.484 815.78 761.555C814.315 758.625 812.85 756.184 812.362 756.184C811.971 756.184 810.897 757.355 810.018 758.82L808.455 761.457L807.186 757.355C806.502 755.109 805.721 753.254 805.428 753.352C805.135 753.352 803.084 756.086 801.034 759.309Z" fill="black"/>
<path d="M359.432 864.977C356.209 866.148 352.205 868.004 350.643 869.176C349.08 870.25 344.393 872.398 340.096 873.863C333.162 876.402 331.99 877.184 327.693 882.555C321.932 889.781 317.537 900.523 314.803 914.195L312.752 924.254L322.713 934.215C332.283 943.785 333.162 944.371 344.295 949.254C352.693 953.062 357.088 954.43 360.213 954.43C366.365 954.43 377.4 949.156 385.701 942.418C389.314 939.391 393.123 936.656 394.197 936.363C396.053 935.777 396.15 934.898 396.15 922.398C396.15 905.797 394.881 895.152 391.561 884.801C389.314 877.477 388.533 876.305 383.162 871.422C377.889 866.539 370.76 862.828 366.854 862.73C366.072 862.73 362.752 863.707 359.432 864.977Z" fill="black"/>
<path d="M242.343 922.203C240.389 923.473 237.753 924.156 234.335 924.156C228.964 924.156 229.061 924.059 227.694 930.699C227.303 932.848 226.425 933.922 224.96 934.117C223.202 934.41 222.616 935.484 221.444 941.539C220.761 945.445 220.37 948.863 220.663 949.254C221.053 949.547 223.007 949.352 225.253 948.766L229.159 947.789L232.87 953.062C234.823 955.992 236.874 958.336 237.362 958.336C237.753 958.336 239.413 957.262 240.975 955.992C242.636 954.625 245.761 953.258 248.3 952.867L252.889 952.184L252.206 944.859C251.913 940.855 251.62 934.312 251.62 930.406C251.62 923.473 251.522 923.18 248.69 921.715C245.272 919.957 245.858 919.859 242.343 922.203Z" fill="black"/>
<circle cx="682" cy="920" fill="#5CE50D"/>
<circle cx="354" cy="253" fill="#E52A0D"/>
<circle cx="343" cy="866" fill="#E52A0D"/>
<circle cx="893" cy="484" fill="#E52A0D"/>
</g>
<defs>
<clipPath id="clip0_1_758">
<rect width="1000" height="1000" />
</clipPath>
</defs>
</svg>
