<svg width="1000" height="1000" viewBox="0 0 1000 1000" fill="none" xmlns="http://www.w3.org/2000/svg">
<g clip-path="url(#clip0_1_778)">
<rect width="1000" height="1000" />
<path d="M993.808 197.337C992.44 197.728 989.999 198.118 988.437 198.216C986.483 198.313 983.065 200.071 978.476 203.587C972.03 208.47 971.151 208.86 967.44 208.372C963.925 207.884 963.339 208.079 962.851 209.837C962.265 212.376 954.94 217.259 952.108 217.063C950.937 216.966 948.69 217.356 947.226 217.942C945.761 218.528 941.269 219.407 937.46 219.798C930.917 220.481 929.94 220.872 925.058 225.071C921.151 228.392 918.515 229.856 914.608 230.638C911.679 231.224 905.722 233.567 901.327 235.716C893.808 239.524 893.124 240.11 891.757 244.212C890.39 248.118 889.218 249.29 881.21 254.759C875.741 258.47 871.249 260.813 869.589 260.813C866.562 260.813 854.745 266.771 851.132 270.188C848.886 272.337 847.909 272.532 838.925 272.532C832.284 272.532 828.378 272.044 826.425 271.067C822.714 269.114 822.421 269.212 821.054 272.239C820.37 273.802 816.659 279.173 812.851 284.349C803.964 296.263 797.714 300.95 785.897 304.661C778.378 307.005 776.229 308.274 771.347 312.669C767.538 316.282 763.144 319.017 757.968 321.165C753.769 323.021 747.03 326.634 743.026 329.368C738.339 332.493 734.335 334.446 731.698 334.837C729.55 335.13 725.741 336.399 723.397 337.669C721.054 338.841 718.319 339.915 717.44 339.915C716.464 339.915 714.608 340.794 713.339 341.868C711.972 342.845 703.476 345.872 694.394 348.411L677.89 353.099H660.312H642.733L635.897 357.298C632.187 359.544 628.476 361.399 627.792 361.399C627.108 361.399 623.983 363.841 620.858 366.673C616.757 370.579 612.46 373.411 604.647 377.024L593.905 382.103L584.823 381.419C576.034 380.833 575.448 380.931 571.835 383.372C565.976 387.181 556.894 389.72 548.593 389.72C542.733 389.72 539.608 390.403 533.065 392.845C525.448 395.677 524.472 395.872 520.565 394.798C514.511 393.138 507.968 393.333 506.503 395.091C505.624 396.165 503.28 396.556 498.007 396.556C492.245 396.556 489.901 396.067 485.8 394.017C481.698 391.966 480.429 391.673 478.476 392.552C475.155 394.114 463.534 393.821 460.604 392.161C459.237 391.38 455.526 390.794 452.108 390.696C448.788 390.696 444.882 390.208 443.515 389.72C438.339 387.767 427.987 386.692 423.007 387.669C418.808 388.45 416.952 388.255 410.116 386.106C402.304 383.763 402.011 383.665 396.64 385.325C390.585 387.083 388.729 386.888 377.597 383.372C365.878 379.759 363.925 379.661 359.53 382.981C356.405 385.325 354.843 385.813 349.96 385.813C342.636 385.813 334.237 383.274 329.647 379.759C326.425 377.317 325.253 377.024 318.515 377.024C311.776 377.024 310.604 376.731 306.601 373.997C304.257 372.337 299.667 369.993 296.64 368.724C293.515 367.552 288.632 365.013 285.604 363.06L280.233 359.642L279.55 367.063C279.257 371.067 278.964 377.122 278.964 380.345C278.964 386.009 279.159 386.497 281.894 388.06C284.726 389.817 284.823 390.11 284.921 397.337C285.019 401.438 285.312 411.009 285.702 418.528C286.19 430.052 286.093 433.079 284.628 438.06C283.651 441.282 282.382 446.849 281.796 450.462C280.038 461.79 276.62 471.165 272.03 477.415C268.71 482.005 265.683 484.544 257.479 489.622C251.425 493.333 245.663 496.263 243.319 496.653C239.804 497.142 239.12 496.946 236.483 494.212C234.921 492.649 232.675 491.282 231.503 491.282C230.331 491.282 228.085 490.208 226.522 488.938C225.058 487.669 221.347 486.106 218.417 485.325C215.487 484.642 210.019 482.396 206.21 480.442C202.499 478.489 197.616 476.341 195.468 475.657C193.319 474.974 190.683 473.802 189.608 473.118C188.534 472.337 185.409 471.751 182.479 471.751C179.647 471.751 176.425 471.263 175.351 470.677C174.276 470.188 170.761 469.212 167.44 468.724C162.362 467.942 161.288 468.04 159.726 469.407C158.456 470.579 156.894 470.872 154.062 470.481C150.546 470.091 150.058 470.188 149.276 472.728C148.397 474.974 147.616 475.462 143.222 475.95C140.39 476.341 136.972 477.317 135.507 478.294C133.651 479.466 131.405 479.856 126.913 479.661L120.858 479.466L118.71 483.665C117.538 486.009 114.218 490.403 111.386 493.431C107.772 497.142 106.112 499.778 106.112 501.536C106.112 504.466 100.741 515.403 94.8818 524.583C91.1709 530.345 89.8037 531.517 82.2842 535.618C77.3037 538.353 73.2998 541.185 72.7139 542.454C71.3467 545.481 59.2373 549.388 53.7686 548.606C51.7178 548.216 47.4209 547.728 44.3936 547.337C39.1201 546.751 38.6318 546.458 33.3584 540.501C30.3311 536.985 26.4248 533.47 24.7646 532.591C18.9053 529.563 15.292 526.048 15.292 523.411C15.292 521.556 14.3154 520.091 11.5811 518.235C9.43262 516.771 7.18652 515.892 6.40527 516.185C5.62402 516.478 3.86621 518.431 2.30371 520.481C-0.235352 524.095 -0.333008 524.876 -0.333008 535.13C-0.333008 547.825 0.838867 550.95 10.2139 563.45L15.585 570.774L16.0732 580.833C16.4639 590.599 16.4639 590.892 14.4131 590.892C12.7529 590.892 12.3623 591.478 12.3623 594.212C12.3623 596.946 12.9482 597.923 15.292 599.388C17.1475 600.462 18.0264 601.634 17.7334 602.61C17.4404 603.392 18.124 605.345 19.1982 607.005C21.9326 611.106 21.7373 616.087 18.71 619.212L16.2686 621.751L19.6865 626.536C21.4443 629.27 24.0811 633.567 25.4482 636.302C28.1826 641.575 37.7529 649.485 41.4639 649.485C42.7334 649.485 44.2959 651.048 46.1514 654.075C48.3975 658.079 48.8857 660.032 49.2764 668.528C49.667 677.806 49.8623 678.587 53.085 683.079C56.3076 687.571 56.4053 688.06 55.8193 693.431C55.2334 698.802 55.3311 699.192 57.4795 699.778C59.7256 700.56 62.2646 702.317 68.5146 707.396C70.2725 708.86 73.7881 710.813 76.3271 711.595C78.7686 712.474 83.0654 715.208 85.8975 717.747C93.6123 724.778 96.542 726.536 99.374 725.95C100.937 725.657 103.769 726.438 106.894 728.001C109.628 729.368 113.339 730.54 115.097 730.54C116.854 730.54 121.737 731.712 125.839 733.079C132.382 735.228 134.042 736.302 138.046 740.794C142.245 745.481 143.319 746.067 148.495 747.044C151.62 747.63 157.479 749.876 161.483 752.024C165.487 754.173 169.979 755.931 171.542 755.931C173.007 755.931 176.718 757.005 179.745 758.372C186.776 761.497 191.659 761.595 192.538 758.763C193.222 756.81 193.612 756.712 201.229 757.298C208.847 757.884 209.335 757.884 211.483 755.54C212.753 754.173 215.194 752.806 216.854 752.415C218.515 752.122 221.151 750.95 222.616 749.876C224.96 748.216 225.937 748.02 229.062 748.899C232.089 749.583 233.554 749.485 236.483 748.02C239.804 746.36 240.39 746.36 241.757 747.63C243.124 748.802 244.198 748.802 249.862 747.532C257.284 745.872 259.237 746.458 267.05 752.708C271.835 756.614 281.894 771.067 285.507 779.173C287.948 784.739 288.046 788.06 286.288 796.653L285.604 799.876L293.71 799.388C298.202 799.192 304.159 798.704 306.894 798.411C311.093 797.825 313.046 798.216 318.124 800.364C325.839 803.685 330.722 804.563 330.722 802.708C330.722 801.927 331.015 800.462 331.308 799.388C331.601 798.02 330.429 795.677 327.011 791.478C319.784 782.493 319.394 781.028 320.858 768.724C322.03 759.446 322.519 757.884 325.351 754.27C330.233 747.825 343.905 737.864 350.253 736.106C353.769 735.032 356.796 733.372 358.847 731.224C360.995 728.978 364.022 727.317 367.929 726.146C373.397 724.485 374.96 724.485 392.538 725.755C411.19 727.024 423.007 727.22 429.159 726.146C431.21 725.755 434.042 723.802 437.265 720.677C442.05 715.892 442.147 715.892 444.979 717.356C450.253 720.091 461.386 718.333 462.851 714.427C463.339 713.353 464.901 712.962 468.417 712.962C472.714 712.962 474.276 712.376 478.866 709.056C481.894 706.907 485.507 705.149 486.874 705.149C491.269 705.052 497.323 701.731 499.569 698.02C502.206 693.626 510.116 690.501 525.937 687.376L537.069 685.228L543.319 677.708C548.593 671.263 550.448 669.798 554.94 668.138C561.386 665.696 570.175 665.403 571.933 667.552C572.616 668.333 574.179 669.017 575.351 669.017C577.304 669.017 577.987 667.942 580.233 661.302C582.87 653.294 587.948 646.556 592.245 645.188C594.491 644.407 594.882 641.575 596.347 617.845C597.616 596.556 598.69 594.212 610.507 587.181C619.003 582.2 619.296 582.103 626.815 582.103C631.112 582.103 637.655 581.614 641.366 580.931C651.034 579.368 660.409 581.126 667.636 585.911C670.565 587.864 674.179 590.013 675.644 590.696C677.206 591.282 680.331 593.626 682.675 595.774C685.019 597.923 687.851 599.681 688.925 599.681C692.245 599.681 703.964 594.896 706.405 592.649C707.968 591.185 708.651 589.427 708.651 586.888V583.274L715.292 582.103C718.905 581.517 724.081 580.735 726.718 580.442C729.452 580.149 732.089 579.271 732.675 578.489C733.651 577.317 734.628 577.317 739.706 578.587C742.929 579.466 747.616 580.149 750.058 580.149C752.987 580.149 756.405 581.028 759.53 582.688C763.144 584.446 765.292 584.935 767.343 584.544C769.784 583.958 770.858 584.446 774.179 587.474C777.304 590.306 778.378 590.794 779.452 589.915C780.526 589.036 781.308 589.134 783.065 590.306C784.237 591.185 785.604 591.868 785.995 591.868C787.558 591.868 786.679 587.181 784.823 585.521C783.358 584.251 782.87 582.493 782.87 579.075C782.87 575.95 782.089 572.825 780.429 569.798C779.062 567.259 777.987 564.622 777.987 564.036C777.987 563.353 776.132 561.302 773.788 559.349C771.444 557.396 768.124 553.099 765.878 549.095C763.827 545.384 760.995 541.673 759.726 540.989C754.843 538.353 737.753 519.407 735.214 513.743C732.675 508.177 728.573 503.001 726.718 503.001C724.569 503.001 716.659 493.626 714.999 489.036C713.827 486.009 712.362 483.958 711.093 483.47C708.651 482.493 707.675 480.638 707.675 476.536C707.675 474.974 706.991 471.946 706.112 469.798C704.647 466.282 704.647 464.524 705.624 456.028C706.21 450.657 706.698 443.919 706.698 440.892C706.698 433.47 708.749 429.075 715.194 423.411C720.175 418.919 720.565 418.235 719.491 416.282C717.929 413.353 719.003 411.692 726.913 404.368C732.772 398.997 733.847 398.411 736.679 398.802C738.827 399.192 740.487 398.802 742.147 397.532C744.296 395.872 744.687 395.774 746.64 397.142C750.937 400.169 754.55 400.56 757.675 398.411C759.237 397.239 761.19 396.653 761.972 396.946C764.315 397.825 771.249 395.677 774.667 393.138C777.304 391.087 777.987 389.622 779.55 382.2C781.21 373.997 781.601 373.411 787.851 366.282C791.366 362.278 799.374 354.075 805.526 348.216C816.073 338.157 817.245 337.278 825.448 334.153C830.233 332.298 837.362 328.685 841.366 325.95C850.155 320.091 862.069 314.524 865.976 314.524C869.979 314.524 872.714 312.474 880.624 303.587C890.585 292.259 899.862 284.544 906.21 282.396C913.046 280.052 916.073 278.001 917.44 274.974C918.026 273.606 919.394 272.532 920.37 272.532C921.64 272.532 922.616 271.067 923.983 267.356C927.694 256.81 935.312 246.165 939.218 246.165C940.292 246.165 942.245 245.091 943.515 243.821C944.784 242.552 948.007 240.989 950.741 240.306C953.476 239.72 958.065 237.474 960.995 235.423C965.097 232.591 967.44 231.614 971.542 231.224C980.526 230.442 985.702 228.001 989.999 222.239C993.026 218.235 994.003 215.892 994.394 211.888C994.784 208.763 995.956 205.052 997.421 202.903C1000.94 197.337 999.667 195.481 993.808 197.337Z" fill="black"/>
<circle cx="500" cy="470" fill="#5CE50D"/>
<circle cx="64" cy="689" fill="#E52A0D"/>
<circle cx="416" cy="719" fill="#E52A0D"/>
<circle cx="593" cy="605" fill="#E52A0D"/>
</g>
<defs>
<clipPath id="clip0_1_778">
<rect width="1000" height="1000" />
</clipPath>
</defs>
</svg>
