<svg width="1000" height="1000" viewBox="0 0 1000 1000" fill="none" xmlns="http://www.w3.org/2000/svg">
<g clip-path="url(#clip0_1_781)">
<rect width="1000" height="1000" />
<path d="M327.522 221.98C327.327 222.469 326.546 224.422 325.96 226.375C325.179 228.621 323.616 230.672 321.858 231.746C320.296 232.723 319.026 233.699 319.026 233.992C319.026 234.383 320.296 235.848 321.858 237.312C324.007 239.363 325.179 239.852 327.229 239.266C330.062 238.582 330.257 239.07 328.694 241.902C327.815 243.66 328.304 244.148 334.554 246.98C338.362 248.738 341.487 250.594 341.487 251.18C341.487 254.695 332.308 259.383 325.276 259.383C319.612 259.383 316.39 260.457 315.022 262.898C314.339 264.266 309.847 267.391 304.476 270.32C295.882 275.008 294.515 275.398 287.874 275.691C281.819 275.887 280.257 276.277 278.108 278.23C276.058 280.086 274.788 280.477 271.956 280.184L268.245 279.695V284.676C268.245 289.07 267.952 289.754 265.608 290.926C264.046 291.707 259.163 292.684 254.573 293.074C250.081 293.465 245.003 294.441 243.44 295.223C241.487 296.297 239.241 296.492 236.214 296.102C232.503 295.613 231.331 295.906 228.597 297.957C226.155 299.812 224.202 300.398 220.394 300.398H215.413L213.46 304.988C212.386 307.625 211.214 310.848 210.921 312.215C210.628 313.68 208.772 316.512 206.624 318.562C202.425 322.664 203.499 322.859 194.905 315.828L190.315 312.117L189.827 314.852C189.437 316.609 187.874 318.562 185.726 320.027C183.089 321.785 182.405 322.859 182.796 324.324C183.968 328.23 183.772 329.012 181.038 329.793C178.597 330.477 178.108 330.184 176.741 327.156C175.862 325.301 174.886 323.836 174.593 323.836C173.714 323.836 171.663 327.254 166.976 336.727L162.776 345.223L159.261 344.637C157.405 344.344 153.401 344.637 150.472 345.32C146.37 346.297 144.905 346.395 144.026 345.516C141.487 342.977 140.511 344.344 139.729 350.789C139.144 356.355 138.558 357.918 135.726 361.043C132.21 364.949 126.644 367.488 124.495 366.219C123.812 365.828 120.003 363.094 116.097 360.164L108.87 354.891L103.89 358.406C101.058 360.359 96.9561 363.289 94.71 364.949C90.9014 367.879 90.6084 367.977 88.46 366.414C85.2373 364.168 82.4053 364.461 72.1514 367.977C63.167 371.004 63.0693 371.102 57.6982 378.133C54.5732 382.234 51.3506 385.457 49.9834 385.75C48.2256 386.238 47.4443 387.215 46.9561 389.754C46.5654 392.098 45.7842 393.172 44.6123 393.172C42.2686 393.172 38.7529 401.961 38.7529 407.918C38.7529 413.875 36.1162 418.758 33.3818 417.977C30.1592 417 28.792 414.559 29.3779 410.555C29.9639 407.137 29.7686 406.746 26.8389 405.281C22.542 403.133 22.6396 403.328 24.4951 400.496C26.2529 397.762 25.8623 397.371 20.6865 396.883C18.1475 396.59 17.6592 396.004 16.292 391.219C15.1201 387.312 14.2412 385.848 13.0693 385.945C5.06152 386.336 5.35449 386.238 5.84277 388.484C6.13574 389.754 6.72168 391.902 7.01465 393.27C7.50293 395.32 7.1123 396.004 4.18262 397.566C2.22949 398.641 0.666992 399.715 0.666992 400.008C0.764648 401.18 4.37793 404.695 8.08887 407.039C10.8232 408.797 13.2646 411.629 15.6084 415.828C18.6357 421.199 18.9287 422.176 17.6592 423.543C16.8779 424.324 16.292 426.863 16.292 429.109C16.292 432.918 16.585 433.211 21.1748 435.75C24.8857 437.801 26.0576 438.973 26.0576 440.633C26.0576 442.586 26.7412 443.074 29.9639 443.562C32.4053 443.953 34.3584 445.027 35.335 446.492C36.1162 447.664 39.6318 450.301 43.1475 452.254C48.3232 455.184 49.4951 456.258 49.4951 458.309C49.4951 459.871 49.8857 460.555 50.7646 460.262C51.3506 459.969 52.6201 459.48 53.499 459.09C54.7686 458.602 55.4521 459.285 56.3311 461.922C56.917 463.777 57.3076 466.316 57.1123 467.488C56.917 469.148 57.7959 469.93 62.1904 471.688C67.5615 473.836 67.5615 473.836 67.2686 477.742C66.9756 481.355 62.9717 488.875 59.1631 493.27C58.1865 494.344 57.1123 497.469 56.7217 500.301C56.1357 504.988 55.8428 505.477 52.8154 506.453C50.96 507.039 48.6162 508.895 47.4443 510.457L45.3936 513.387L47.835 516.023C49.1045 517.488 50.667 519.93 51.1553 521.492C51.9365 524.031 52.8154 524.617 58.1865 525.789C62.9717 526.863 64.1436 527.449 63.7529 528.719C63.5576 529.598 63.0693 532.43 62.6787 535.066C62.0928 539.363 62.1904 539.754 64.5342 540.633C67.8545 541.902 70.6865 546.688 72.0537 553.426C73.0303 558.309 73.5186 559.09 76.4482 560.457C79.1826 561.824 79.7686 562.605 79.7686 565.242C79.7686 566.902 80.7451 571.297 81.917 574.91C83.5771 580.086 84.5537 581.648 86.2139 582.039C87.4834 582.43 90.6084 583.992 93.1475 585.555C97.6396 588.387 98.1279 588.973 100.081 595.613L102.132 602.742H107.796C110.921 602.645 114.241 603.035 115.12 603.523C116.487 604.109 116.878 603.914 116.878 602.254C116.878 601.082 117.464 600.203 118.245 600.203C121.565 600.203 128.304 603.523 132.112 607.039C134.456 609.188 136.995 610.945 137.874 610.945C138.851 610.945 139.339 611.922 139.339 613.777C139.339 615.633 140.706 618.367 143.05 621.395C145.101 623.934 147.737 627.645 148.909 629.598C149.983 631.453 153.011 634.48 155.452 636.238C159.065 638.875 159.847 639.949 159.847 642.586C159.847 645.027 160.726 646.395 164.144 649.324C167.659 652.254 169.319 652.938 172.737 652.938C176.546 653.035 177.62 653.621 184.554 660.066L192.073 667.195L193.538 674.91C195.101 683.309 195.198 683.406 204.671 690.242L208.968 693.367L208.382 689.754L207.796 686.141H213.46C217.854 686.141 219.515 686.531 220.882 688.094C221.858 689.168 223.421 690.047 224.3 690.047C226.644 690.047 227.62 691.414 230.647 699.031C233.479 706.062 233.479 706.062 239.241 704.793C242.854 703.914 243.05 704.012 244.319 707.137C245.101 708.895 246.761 711.629 248.03 713.094C252.132 717.977 254.573 723.543 253.401 725.594C252.034 728.035 253.89 729.109 259.358 729.109C263.362 729.109 264.241 729.598 270.198 735.359C273.812 738.875 277.913 742 279.28 742.293C281.624 742.879 288.753 751.277 288.753 753.328C288.753 753.816 287.581 754.695 286.214 755.379L283.772 756.453L286.702 760.262C290.706 765.242 291.194 765.633 298.519 768.172C303.304 769.93 307.112 770.516 313.851 770.516L322.835 770.613L326.839 774.52L330.745 778.328L333.479 775.691C334.944 774.227 336.897 773.055 337.776 773.055C338.948 773.055 339.241 772.469 338.851 771.004C338.362 769.051 338.558 768.953 341.487 769.344C344.417 769.832 344.71 769.539 346.468 765.535C347.444 763.094 348.323 760.066 348.323 758.797C348.323 755.477 351.351 755.77 353.499 759.285C354.866 761.629 356.233 762.41 360.53 763.289C365.12 764.266 366.097 764.168 368.44 762.703C370.882 761.043 371.077 761.043 372.347 762.801C373.128 763.777 373.714 765.047 373.714 765.535C373.714 766.023 374.788 766.121 376.058 765.828C378.011 765.34 378.987 765.926 380.94 768.367L383.382 771.492L385.726 769.344C387.776 767.391 388.167 765.926 388.655 758.602C389.437 746.785 390.511 743.66 394.612 741.414C398.812 739.168 403.011 733.309 403.011 729.793C403.011 726.57 403.499 726.57 413.265 729.695C421.175 732.332 426.058 732.82 427.522 731.355C428.011 730.867 427.425 728.621 426.253 726.277C424.3 722.273 424.3 721.883 425.765 717.098C426.644 714.266 427.132 711.043 426.839 709.969C426.546 708.797 427.229 706.062 428.401 703.816L430.452 699.715L428.499 694.344C425.667 686.824 425.765 682.82 428.89 681.453C430.55 680.672 431.331 679.5 431.331 677.84C431.331 675.984 431.819 675.398 433.577 675.398C437.776 675.398 440.12 676.57 440.706 678.914C441.292 681.062 441.78 681.258 446.858 681.258H452.425L454.573 685.75C456.429 689.559 457.112 690.145 458.968 689.656C460.14 689.363 462.972 689.07 465.315 689.07C469.124 689.07 469.612 688.777 471.077 685.652C472.64 682.43 472.933 682.234 477.62 682.234C481.722 682.234 483.577 682.82 487.679 685.652C490.901 687.801 494.612 689.363 497.347 689.754C501.253 690.242 502.132 690.828 503.011 693.074C503.792 695.32 505.354 696.297 511.409 698.543C515.413 700.008 520.979 702.84 523.812 704.988C527.718 707.918 530.257 708.992 535.433 709.773C540.022 710.555 542.171 710.555 542.366 709.871C542.562 709.383 543.245 708.113 543.929 707.234C545.003 705.77 546.175 706.258 556.233 711.922C562.679 715.633 569.808 720.613 573.323 723.934C576.546 727.059 581.331 731.258 583.772 733.309L588.265 736.922H602.229C612.581 736.922 617.562 737.312 621.37 738.582C626.351 740.145 626.644 740.145 628.597 738.387C630.159 737.02 630.843 736.824 631.722 737.703C633.772 739.754 634.944 738.973 640.706 732.039C645.882 725.887 646.761 725.203 649.983 725.203C651.937 725.203 654.378 724.52 655.452 723.738C657.112 722.371 657.601 722.566 660.823 725.691C664.144 728.914 664.437 729.012 667.952 727.938C671.37 726.863 671.761 726.961 674.495 729.598C676.351 731.453 677.425 733.504 677.62 735.848C677.913 739.266 678.011 739.363 681.429 739.07C683.577 738.875 687.386 739.754 691.194 741.219C697.347 743.758 697.64 743.758 704.769 742.391C708.772 741.609 712.19 741.121 712.386 741.219C712.483 741.414 713.362 745.613 714.241 750.691C715.12 755.77 716.097 760.164 716.487 760.652C716.78 761.043 718.05 758.113 719.319 754.305C720.589 750.398 722.542 746.102 723.714 744.734C724.983 743.367 726.448 740.34 727.132 737.898C727.913 735.066 729.964 731.941 732.601 729.109C734.944 726.668 738.558 722.371 740.706 719.441C744.319 714.363 744.808 713.973 751.253 712.508L757.991 710.848L767.464 715.73L776.937 720.711L786.019 717.195L795.101 713.777L799.104 716.023C804.28 719.051 806.233 718.953 811.995 715.535C815.022 713.777 818.929 712.508 822.64 712.02L828.499 711.336L832.698 702.645L836.995 693.953L840.999 694.051C847.737 694.246 853.108 691.121 859.065 683.406C862.19 679.402 865.413 676.277 866.878 675.887C868.147 675.496 872.054 673.641 875.374 671.59C882.601 667.293 886.409 662.02 889.925 651.57C891.194 647.762 893.147 643.758 894.319 642.586C895.882 640.926 896.565 638.484 897.054 632.723C897.542 627.84 898.616 623.348 900.179 620.223L902.522 615.438L913.753 611.922C919.905 609.871 927.229 607.234 929.866 605.965C934.261 603.816 934.944 603.035 936.702 597.957C938.069 594.344 940.315 590.828 943.245 587.801C945.784 585.164 948.812 580.77 950.081 577.84C952.132 573.152 952.815 572.469 957.698 570.516L962.972 568.367L969.808 570.223L976.546 572.078L987.581 567.977C998.616 563.875 998.714 563.875 999.69 559.969C1000.67 556.648 1000.37 555.184 997.835 548.152C996.175 543.758 994.417 538.191 993.733 535.75C992.464 530.672 989.534 526.961 986.604 526.961C982.796 526.961 980.257 525.789 979.671 523.934C979.183 522.566 978.108 522.078 975.667 522.078C970.198 522.078 966.487 519.637 966.487 516.121C966.487 514.461 964.729 509.09 962.581 504.305C960.433 499.422 958.675 495.027 958.675 494.637C958.675 494.148 959.749 492 961.116 489.852C962.483 487.703 963.558 485.75 963.558 485.457C963.558 485.164 962.288 484.969 960.628 484.969C959.065 484.969 957.698 484.676 957.698 484.188C957.796 483.797 958.187 481.648 958.577 479.402C959.261 475.691 959.163 475.105 957.015 473.738C954.769 472.273 954.671 472.273 953.694 475.203C952.718 477.84 952.229 478.133 948.616 478.133C945.491 478.133 943.929 477.449 941.487 475.105C939.241 472.859 936.604 471.688 932.112 470.711C923.812 468.953 923.812 468.953 922.64 472.371L921.565 475.398L918.636 473.25C916.976 472.078 915.022 469.93 914.241 468.367C913.362 466.707 911.507 465.145 909.554 464.559C907.015 463.68 905.843 462.41 904.28 458.797L902.327 454.207L901.058 456.844C899.495 460.066 899.007 460.164 893.538 457.82C890.218 456.551 889.241 455.574 888.753 453.23C888.46 451.57 886.312 448.152 883.968 445.516L879.769 440.73L877.62 444.93C876.448 447.176 875.667 449.129 875.862 449.324C876.058 449.422 877.132 450.105 878.401 450.691C879.573 451.277 880.55 452.547 880.55 453.426C880.55 454.598 879.866 454.793 877.522 454.305C874.983 453.816 873.616 454.402 869.026 458.016C864.729 461.336 862.386 462.41 858.577 462.898C853.792 463.484 853.597 463.387 847.933 458.309C843.733 454.5 841.097 450.887 837.679 444.344L833.187 435.652H829.28C825.179 435.652 822.64 433.602 815.706 424.227L813.069 420.711L818.05 419.637C820.784 419.051 824.593 418.562 826.448 418.562C829.085 418.562 830.062 418.074 830.94 416.219C831.526 414.852 833.284 413.289 834.749 412.605C837.093 411.727 837.581 410.945 837.581 408.113C837.581 406.258 836.702 403.426 835.628 401.961C833.87 399.422 833.772 398.934 835.042 395.32L836.409 391.512L831.722 387.996L827.034 384.48L826.448 387.41C826.155 389.07 824.983 391.707 823.812 393.27C821.858 396.004 821.565 396.102 813.851 396.102C808.675 396.102 803.597 396.785 799.495 398.055C790.608 400.789 788.851 400.594 787.679 397.078C786.409 393.465 784.944 393.367 781.819 396.688C779.476 399.129 779.476 399.129 777.913 397.176C776.741 395.711 776.448 393.953 776.741 390.73L777.327 386.336H773.616C770.979 386.336 767.952 385.164 763.265 382.234C757.503 378.719 756.526 377.645 756.526 375.398C756.526 372.762 756.429 372.664 750.765 372.664C745.394 372.664 744.808 372.469 742.854 369.734C741.097 367.293 740.12 366.805 736.8 366.805C734.456 366.805 732.015 366.121 731.038 365.242C729.378 363.777 713.753 358.992 710.433 358.992C709.456 358.992 707.894 360.555 706.722 362.801L704.769 366.707L708.089 369.441C711.409 372.176 713.46 376.277 715.511 384.09C716.487 387.898 716.78 388.289 721.858 389.754C726.839 391.121 727.229 391.512 727.229 394.246C727.229 395.906 727.718 399.227 728.304 401.668C729.28 405.281 729.183 406.258 728.108 406.941C725.667 408.406 723.812 407.918 722.249 405.184L720.589 402.645L719.515 404.695C718.636 406.355 717.464 406.844 714.534 406.844C711.214 406.844 710.433 407.234 709.065 409.969C706.917 414.266 707.015 414.266 704.964 411.727L703.206 409.578L700.179 412.117C698.421 413.582 695.491 417.586 693.538 421.004C691.194 425.301 689.437 427.352 688.167 427.352C686.995 427.352 686.019 428.523 685.237 430.867L684.065 434.48L679.183 433.895C676.546 433.504 672.835 432.332 670.979 431.16C666.39 428.426 662.288 419.93 661.409 411.922C660.823 405.672 660.823 405.672 651.937 396.004C644.222 387.703 642.366 386.238 639.144 385.75C634.065 384.871 631.331 381.16 632.21 376.082L632.796 372.469L625.667 372.762L618.538 373.152L617.171 368.953C615.901 365.242 615.413 364.852 612.581 364.852C610.14 364.852 609.163 364.266 608.284 362.41C606.722 359.09 606.722 358.992 609.456 358.992C611.214 358.992 611.995 358.406 612.19 356.844C612.386 355.477 614.339 353.621 618.147 351.473C622.542 348.836 623.714 347.664 623.714 345.711C623.714 343.367 623.812 343.367 626.351 344.734C628.792 345.906 629.28 345.906 632.601 343.66C636.8 340.926 639.339 336.141 637.483 334.285C635.433 332.234 636.409 330.965 640.315 330.281C642.464 329.988 644.222 329.5 644.222 329.207C644.222 329.012 641.097 324.422 637.288 318.953C631.038 310.066 630.159 309.188 627.327 309.188C624.3 309.188 619.515 308.211 615.218 306.844C613.362 306.258 612.972 306.746 611.507 311.141C610.237 314.949 609.358 316.121 607.308 316.707C605.354 317.195 604.378 316.805 602.815 314.754C601.644 313.387 598.909 311.824 596.565 311.141C591.194 309.773 587.874 311.824 586.995 317.195C586.409 320.809 586.312 320.906 581.917 320.906H577.522L578.108 316.707C578.499 313.973 578.206 311.238 577.034 308.406L575.374 304.109L570.491 304.793C567.854 305.086 564.046 305.574 562.093 305.965C558.772 306.453 558.479 306.258 556.038 302.059C554.573 299.617 553.401 296.59 553.401 295.223C553.401 293.953 552.327 291.902 550.862 290.633C548.812 288.582 548.226 288.484 547.542 289.656C547.054 290.438 546.565 291.414 546.565 291.805C546.565 293.27 538.851 292.586 534.651 290.828C532.308 289.754 528.694 288.68 526.546 288.289C518.929 286.922 503.987 281.551 500.569 278.816C498.616 277.254 496.468 275.984 495.979 275.984C495.394 275.984 493.538 277.938 491.878 280.379C489.339 283.992 488.558 284.578 487.093 283.797C485.726 283.113 485.14 281.16 484.651 275.984C483.87 268.66 482.991 267.195 477.327 264.363C474.202 262.703 473.616 261.824 472.054 256.16C470.784 251.18 470.589 249.227 471.468 247.371C472.737 244.637 471.272 240.828 468.929 240.828C468.147 240.828 467.464 240.242 467.464 239.559C467.366 236.434 465.901 235.652 462.19 237.02C458.675 238.289 458.479 238.289 456.136 235.164L453.597 232.039L451.644 234.578L449.593 237.117L447.737 234.188C446.175 231.746 445.198 231.258 440.218 230.672C433.577 229.891 429.769 231.16 428.987 234.48C428.694 235.75 428.108 237.41 427.815 238.191C427.425 239.266 428.011 239.754 429.573 240.047C431.429 240.242 431.917 241.023 432.112 243.855C432.405 246.883 431.917 247.762 429.476 249.617C426.741 251.57 426.546 251.863 427.913 253.816C428.694 254.988 429.573 257.82 429.964 260.066C430.55 263.777 430.354 264.168 428.304 264.461C427.034 264.656 422.64 264.363 418.733 263.973C414.729 263.484 409.554 263.387 407.405 263.777C403.499 264.266 403.304 264.559 401.741 269.539L400.081 274.812L394.905 273.348C388.265 271.492 375.667 266.121 375.667 265.047C375.667 264.656 376.546 262.02 377.62 259.188L379.573 254.012L377.229 251.668L374.788 249.324L371.272 252.059C368.343 254.207 367.464 254.5 366.78 253.426C365.511 251.473 365.706 250.301 367.952 244.148C370.003 238.68 370.003 238.484 368.245 235.164C367.073 233.016 365.12 231.355 362.776 230.379C359.651 229.109 359.065 228.426 359.065 226.082C359.065 222.664 358.675 222.566 354.476 225.789C352.718 227.156 349.69 228.914 347.737 229.695C344.222 231.16 344.124 231.16 341.097 228.23C339.241 226.473 336.897 225.203 335.53 225.203C334.163 225.203 332.21 224.324 331.233 223.25C329.378 221.199 328.206 220.809 327.522 221.98Z" fill="black"/>
<circle cx="326" cy="440" fill="#5CE50D"/>
<circle cx="550" cy="410" fill="#E52A0D"/>
<circle cx="850" cy="494" fill="#E52A0D"/>
<circle cx="701" cy="659" fill="#E52A0D"/>
</g>
<defs>
<clipPath id="clip0_1_781">
<rect width="1000" height="1000" />
</clipPath>
</defs>
</svg>
