<svg width="1000" height="1000" viewBox="0 0 1000 1000" fill="none" xmlns="http://www.w3.org/2000/svg">
<g clip-path="url(#clip0_1_784)">
<rect width="1000" height="1000" />
<path d="M297.632 4.73639C290.405 17.2364 288.94 21.6309 288.843 31.3965C288.647 39.1114 288.94 40.6739 290.112 40.6739C291.284 40.6739 291.675 39.1114 291.87 33.6426C292.261 24.9512 293.335 23.6817 298.901 25.5372C302.222 26.6114 303.296 26.6114 306.421 25.2442C311.792 22.9981 320.386 22.0215 320.386 23.7794C320.386 24.463 322.144 27.1973 324.292 29.9317C326.44 32.5684 328.198 35.3028 328.198 35.9864C328.198 36.5723 329.956 39.209 332.105 41.8458C334.155 44.3848 337.085 47.9005 338.452 49.5606C339.819 51.3184 340.894 53.8575 340.894 55.2247C340.894 57.3731 341.284 57.7637 343.628 57.7637C345.288 57.7637 347.241 58.6426 348.413 59.9122C350.562 62.3536 353.003 66.5528 352.417 67.0411C352.222 67.1387 349.585 68.0176 346.46 68.8965C342.065 70.1661 340.894 70.9473 341.284 72.0215C341.577 72.9005 341.87 73.9747 341.87 74.463C341.87 74.9512 343.823 75.3419 346.167 75.3419C349.39 75.3419 351.245 74.6583 354.077 72.4122L357.886 69.3848L359.155 72.5098C360.718 76.4161 360.815 76.3184 358.667 76.3184C357.69 76.3184 354.858 77.588 352.319 79.2481C347.827 82.0801 347.241 82.1778 336.108 82.1778C325.952 82.1778 324.39 82.3731 322.827 84.1309C321.167 85.8887 321.265 85.9864 323.901 86.67C328.003 87.6465 328.394 88.0372 327.124 89.5997C326.538 90.3809 324.585 90.9669 322.73 90.9669C320.288 90.9669 319.409 91.4551 318.823 93.1153C318.335 94.8731 319.019 95.9473 322.437 98.877L326.733 102.49L329.565 100.44C331.226 99.2676 334.351 98.2911 336.89 98.0958C339.331 97.9981 343.628 97.7051 346.265 97.5098C348.999 97.4122 351.733 96.8262 352.515 96.4356C353.491 95.752 353.687 95.9473 353.101 96.9239C351.343 99.9512 349.39 101.611 346.851 102.197C344.8 102.686 344.019 103.76 342.651 107.861C341.089 112.744 341.187 113.037 343.14 115.869C344.214 117.432 345.19 118.897 345.288 119.092C345.386 119.19 348.022 118.994 351.147 118.506L356.714 117.627L358.179 120.752C359.253 122.998 359.546 125.244 359.058 128.467C358.276 133.35 357.3 133.838 352.124 131.592C348.999 130.322 344.8 130.615 344.8 132.178C344.8 134.033 349.683 141.357 353.101 144.678C356.226 147.705 357.3 148.096 361.694 148.193C375.269 148.291 383.179 149.756 389.624 153.272C395.288 156.397 396.069 157.275 398.608 162.842C400.952 168.018 402.124 169.385 405.64 171.143C410.522 173.682 410.815 174.072 411.597 178.955C412.085 182.08 412.866 183.057 417.358 185.596C421.362 187.94 433.862 191.553 437.866 191.553C438.257 191.553 438.55 192.529 438.55 193.604C438.55 195.361 438.159 195.557 435.913 195.068C434.351 194.775 430.737 194.092 427.808 193.604C424.878 193.115 419.897 191.553 416.87 190.186C412.28 188.135 410.913 186.963 409.155 183.545C407.983 181.201 404.272 176.221 400.952 172.51C397.632 168.701 393.726 164.014 392.163 161.963C386.597 154.443 375.855 151.514 366.284 154.932C361.792 156.494 349.097 156.787 340.112 155.518C336.206 154.932 334.155 154.053 331.616 151.514C328.589 148.584 328.101 148.389 325.562 149.463C320.093 151.709 317.847 154.834 313.159 166.26C310.718 172.412 308.667 177.881 308.667 178.369C308.667 178.857 310.327 182.08 312.476 185.596C317.847 194.775 318.042 195.947 315.112 199.365C313.647 201.123 312.476 204.15 312.085 206.982C311.694 209.522 311.206 212.451 310.913 213.525C310.327 215.479 310.327 215.479 309.546 213.525C308.081 209.717 308.667 203.467 310.718 199.854C311.89 197.998 312.573 195.85 312.28 195.166C311.987 194.385 309.155 192.92 306.03 191.748C302.808 190.576 299.194 188.525 297.925 187.158C296.265 185.4 294.605 184.717 292.065 184.717C289.038 184.717 288.355 185.205 286.987 187.94C286.206 189.6 285.132 192.529 284.839 194.287C284.058 197.412 284.155 197.412 287.964 197.412C292.163 197.412 293.042 198.389 293.042 203.174C293.042 204.932 291.87 206.885 289.819 208.936C285.62 213.037 282.202 213.037 279.37 209.131C278.003 207.178 276.44 206.201 274.683 206.201C271.069 206.104 268.628 204.053 268.628 201.025C268.628 199.072 269.214 198.389 271.46 197.9C273.022 197.607 274.976 196.533 275.855 195.557C277.319 193.994 277.222 193.408 274.487 188.037C272.144 183.35 270.972 181.982 268.14 180.908C264.917 179.834 264.624 179.443 265.21 176.904C265.698 174.463 265.405 173.877 262.964 172.607C260.62 171.338 258.179 171.338 247.534 172.119C240.601 172.607 231.03 173.975 226.343 174.951C220.19 176.318 217.163 176.611 215.894 175.928C213.355 174.561 207.983 174.756 198.413 176.416C189.722 177.881 185.913 179.932 178.784 186.377C174.78 189.893 173.999 191.553 176.147 191.553C176.733 191.553 177.905 191.943 178.687 192.432C179.761 193.115 179.663 193.799 178.296 196.24C176.733 198.779 176.245 198.975 174.78 198.096C173.315 197.217 172.632 197.315 171.558 198.389C169.897 200.244 166.089 211.67 166.089 215.088C166.089 219.19 168.042 220.068 177.026 219.873C191.382 219.482 190.894 219.092 187.573 228.369C186.499 231.494 185.62 235.205 185.62 236.768C185.62 238.428 185.132 241.357 184.448 243.506C183.569 246.338 183.569 247.51 184.448 248.389C185.229 249.17 185.62 253.174 185.62 259.522V269.385L180.347 277.588C175.757 284.717 174.683 287.354 172.339 297.607L169.507 309.522L164.331 310.01C161.401 310.303 157.983 310.205 156.616 309.619C152.417 308.057 145.581 308.545 142.065 310.791C138.354 313.037 137.769 315.772 140.503 318.799C141.382 319.873 141.675 320.459 141.089 320.166C140.405 319.775 138.94 320.264 137.671 321.338C135.62 322.998 135.522 323.389 136.597 327.1C137.476 329.932 138.843 331.69 141.284 333.154C144.312 335.107 145.776 335.303 155.151 335.01L165.601 334.619L169.702 339.014L173.804 343.506L170.874 348.291C168.237 352.686 168.042 353.76 168.433 358.838C169.019 364.307 168.823 364.697 165.991 367.139C164.331 368.604 158.96 372.022 154.077 374.658C147.046 378.467 144.702 380.322 143.433 382.959C141.089 387.842 141.284 389.404 145.093 394.385C146.948 396.826 148.511 399.17 148.511 399.463C148.511 400.928 133.374 405.518 120.972 407.959C108.179 410.4 107.495 410.693 107.495 412.842C107.495 414.111 107.202 415.186 106.909 415.186C106.616 415.186 101.636 413.135 95.9717 410.596C88.1592 407.08 85.5225 406.299 85.2295 407.275C84.3506 410.01 81.3232 411.963 77.124 412.647C74.7803 413.037 71.2646 413.721 69.3115 414.209L65.7959 415.186L67.1631 421.24C68.1396 425.537 69.6045 428.565 72.4365 431.885C75.2686 435.303 76.2451 437.354 76.2451 439.893C76.2451 442.725 76.9287 443.897 80.4443 446.729C89.917 454.541 89.5264 453.857 90.3076 464.795L91.0889 474.658L83.0811 486.475C78.6865 493.018 75.2686 498.486 75.4639 498.682C75.6592 498.877 77.71 498.682 80.1514 498.193C82.5928 497.705 84.6436 497.51 84.8389 497.705C85.0342 497.9 84.0576 500.244 82.6904 502.881C80.542 507.08 79.1748 508.35 72.8271 511.865C66.6748 515.283 64.8193 515.869 61.9873 515.381L58.667 514.697V519.971V525.342L64.8193 527.002C70.3857 528.467 71.2646 529.053 73.6084 532.959C75.0732 535.4 76.2451 537.549 76.2451 537.842C76.2451 538.232 74.9756 540.088 73.3154 542.139C70.4834 545.752 69.7998 549.072 70.9717 553.565C71.46 555.322 72.3389 555.811 76.4404 556.006L81.3232 556.299L83.5693 561.572C85.5225 566.357 89.0381 569.678 94.3115 571.826C94.8975 572.022 93.335 573.877 90.9912 576.025L86.792 579.736L88.5498 583.447C90.1123 586.67 90.6982 587.061 94.0186 587.061C96.6553 587.061 98.5107 587.842 100.757 589.795L103.784 592.529L102.612 598.096L101.343 603.76L104.565 607.08L107.886 610.498H104.663C102.319 610.498 99.7803 611.768 95.3857 614.99C92.1631 617.529 88.8428 619.775 88.2568 619.971C87.5732 620.264 86.1084 623.584 84.9365 627.49C81.9092 637.451 82.7881 647.022 87.3779 656.104C90.3076 661.963 91.5772 663.428 98.3154 668.018C103.296 671.533 107.69 673.779 111.206 674.561C114.136 675.244 116.87 676.123 117.261 676.611C117.651 677.002 118.726 679.736 119.507 682.666L121.069 688.037L112.769 695.752L104.565 703.467V711.182V718.897H107.593C109.741 718.897 112.671 720.361 117.358 723.877C123.804 728.662 124.097 729.053 124.097 732.959C124.097 736.377 124.683 737.647 127.612 740.479C129.565 742.236 132.397 746.533 133.96 749.756L136.694 755.811L144.116 758.252L151.44 760.791V755.908C151.44 753.272 151.929 751.123 152.417 751.123C153.003 751.123 156.812 752.1 160.815 753.272C168.823 755.615 169.995 756.885 169.995 763.135L170.093 766.26L172.534 763.428L175.073 760.596L181.226 761.67C189.722 763.33 190.991 763.135 195.386 760.4L199.292 757.959L205.64 759.619C211.401 761.182 212.085 761.572 213.355 764.893C214.819 768.408 215.308 768.701 223.901 771.338C232.69 774.072 233.374 774.17 244.8 773.291L256.616 772.412L261.597 775.928C266.089 779.248 267.261 779.541 274.878 780.127C279.468 780.42 283.276 780.811 283.276 781.006C283.276 781.104 280.054 786.768 276.245 793.408C269.312 805.225 268.726 806.006 257.397 815.576C250.952 821.143 245.093 826.221 244.409 827.1C243.726 827.979 243.237 831.494 243.237 835.693C243.237 841.943 242.651 843.994 237.866 855.615C234.937 862.744 230.933 872.022 228.98 876.221C226.733 881.299 224.878 887.549 223.706 894.483L221.948 904.932L224.292 908.936L226.538 912.94L222.241 923.877C218.335 933.447 217.847 935.596 217.847 942.236C217.847 947.608 218.433 951.416 219.897 955.225C220.972 958.154 222.046 960.693 222.144 960.889C222.339 960.986 223.999 960.4 225.952 959.619L229.565 958.154V962.549C229.565 964.99 229.956 966.943 230.444 966.943C231.421 966.943 232.3 966.65 240.796 963.233L245.776 961.279L251.343 963.623C256.323 965.772 257.886 965.967 264.233 965.381C270.679 964.795 271.753 964.404 274.585 961.475C277.515 958.447 278.296 958.154 283.374 958.154C288.355 958.154 289.233 958.447 291.382 961.084L293.823 964.014L305.444 962.451C323.218 960.108 321.753 960.889 320.972 954.932C320.581 952.197 320.093 949.756 319.897 949.561C319.702 949.365 317.944 950.049 315.796 951.123C308.96 954.639 308.179 954.639 306.519 951.123C304.468 946.631 306.03 942.627 311.597 938.233C315.21 935.303 316.772 934.717 320.679 934.717C324.683 934.717 325.659 935.108 328.101 937.842C330.737 940.869 330.835 941.26 329.663 944.19C328.491 947.022 328.491 947.315 330.444 947.803C331.616 948.096 334.448 948.389 336.792 948.389H340.991L340.308 944.971C339.917 942.822 340.112 941.553 340.698 941.553C341.284 941.553 342.358 941.26 343.14 940.967C344.214 940.576 345.093 941.846 346.265 945.654C347.241 948.486 348.022 950.928 348.12 951.025C348.218 951.123 351.05 950.44 354.37 949.463L360.327 947.608L368.433 949.951C372.925 951.221 378.98 952.295 382.007 952.295C387.28 952.295 387.769 952.588 400.464 961.572L413.452 970.85H420.093C426.733 970.85 426.733 970.85 430.835 966.455C433.081 964.014 435.23 962.061 435.62 962.061C436.011 962.061 436.89 963.135 437.573 964.502C438.647 966.553 439.624 966.943 443.335 966.943C450.659 966.943 454.37 968.506 459.546 973.779L464.331 978.662L463.159 983.252C461.694 988.721 461.987 989.111 470.093 989.99C473.12 990.381 475.659 991.065 475.659 991.553C475.659 992.041 474.976 993.994 474.194 995.947C473.413 997.9 472.925 999.658 473.12 999.854C473.804 1000.54 489.526 997.51 490.21 996.533C490.503 996.045 492.944 992.529 495.483 988.721C499.878 982.373 500.171 981.592 499.292 978.467C498.315 975.049 498.804 964.99 499.976 964.99C500.269 965.088 502.515 965.479 504.956 965.967C507.69 966.455 510.718 966.455 513.062 965.869C516.48 964.99 517.261 965.186 521.655 968.018L526.538 971.143L534.448 968.994C538.745 967.822 542.358 966.943 542.456 967.139C542.554 967.334 543.628 971.143 544.897 975.733C546.069 980.322 547.437 984.424 547.925 984.912C549.194 986.182 562.28 984.131 568.237 981.787C573.706 979.541 573.511 979.443 574.683 984.717L575.269 987.451L582.69 982.275C587.378 979.053 590.503 976.221 591.089 974.463C592.065 971.924 592.358 971.826 598.511 971.826C602.124 971.826 605.542 971.436 606.03 971.045C606.616 970.654 608.374 968.311 609.937 965.772C612.866 961.182 612.964 961.084 618.237 960.986C621.167 960.986 633.081 960.4 644.605 959.815C668.042 958.545 666.284 959.229 664.722 951.221C664.038 947.9 664.233 947.51 667.358 945.557C669.214 944.483 670.972 943.506 671.362 943.506C671.655 943.506 671.948 945.068 671.948 946.924C671.948 948.779 672.046 950.342 672.241 950.342C672.339 950.342 675.562 949.463 679.273 948.389C682.983 947.315 686.792 946.436 687.769 946.436C688.648 946.436 690.503 948.389 691.87 950.83C694.312 954.932 694.702 955.225 698.804 955.225C701.148 955.225 705.151 954.346 707.788 953.174C711.597 951.514 713.55 951.318 718.433 951.807L724.487 952.393L725.171 957.861C725.659 961.572 726.831 964.893 728.882 968.018C732.3 973.096 733.96 973.779 742.847 973.779H748.12V969.092C748.12 965.088 748.608 963.916 751.05 961.572C754.273 958.447 754.468 957.471 752.905 952.002C751.733 947.803 748.999 946.143 741.187 945.068L736.694 944.385L740.601 936.865L744.507 929.248L742.261 923.682C740.503 919.385 738.94 917.529 735.425 915.088C731.519 912.354 730.64 911.279 729.956 907.471C729.175 903.565 728.687 902.881 726.148 902.49C723.218 902.002 723.218 901.904 723.511 896.631C723.804 892.139 724.487 890.576 727.808 886.67C731.421 882.373 732.105 881.983 736.011 881.983C739.722 881.983 740.991 881.397 744.605 878.076C748.511 874.463 749.683 873.975 758.765 872.315C769.409 870.361 767.651 871.436 782.886 858.057C786.108 855.225 786.304 854.736 786.89 846.826C787.378 839.6 787.866 838.037 790.405 834.912L793.237 831.397L800.171 835.205C811.792 841.65 811.206 841.455 815.015 839.404C816.968 838.428 819.8 835.889 821.46 833.838L824.487 830.127L822.241 824.17L820.093 818.213L822.437 811.475L824.78 804.736L821.655 801.904C819.898 800.244 817.944 798.096 817.261 797.119C816.48 796.045 814.429 794.873 812.573 794.385C809.937 793.701 809.058 792.725 807.886 789.502C806.616 786.279 805.737 785.303 802.808 784.424C797.827 782.959 795.874 783.057 794.507 785.01C793.433 786.475 792.944 786.377 788.94 783.838C785.034 781.397 784.351 780.42 783.374 775.928C782.398 771.533 781.421 770.068 777.417 766.748C773.315 763.33 772.437 762.94 770.19 763.721C768.042 764.6 767.456 764.307 765.308 761.572C763.94 759.815 762.28 757.861 761.597 757.275C753.687 749.658 747.73 742.725 747.925 741.357C748.023 740.576 746.167 738.428 743.726 736.768C739.331 733.545 734.741 732.666 732.788 734.619C731.128 736.279 721.851 731.885 721.167 729.053C720.776 727.686 718.921 725.83 716.577 724.561C712.378 722.217 711.304 720.068 711.108 713.818C711.011 710.693 710.62 710.205 708.179 709.619C705.64 709.033 705.151 708.447 704.663 704.834C703.882 700.049 703.491 699.268 700.757 697.803C699.39 697.022 698.804 695.654 698.804 693.408C698.706 690.381 698.315 689.99 694.702 688.721C690.991 687.354 687.573 683.643 687.573 680.908C687.573 680.322 688.94 679.248 690.503 678.369C692.847 677.1 693.433 676.221 693.433 673.584C693.433 670.947 693.921 670.166 695.679 669.678C697.925 669.19 702.905 660.693 701.733 659.424C701.343 659.131 699.683 658.35 698.023 657.764C695.483 656.885 694.995 656.201 695.19 654.053C695.483 651.514 694.8 651.123 691.284 651.416C690.112 651.611 689.526 650.928 689.526 649.756C689.526 648.486 687.769 646.924 683.765 644.775C680.64 643.115 677.319 641.748 676.44 641.748C675.562 641.748 674.878 640.967 674.878 639.795C674.878 638.623 673.511 636.963 671.46 635.693C668.628 633.838 668.14 633.057 668.53 631.104C669.507 627.295 667.358 623.584 663.062 621.729C659.155 619.971 657.983 617.041 660.62 616.065C661.499 615.674 661.792 614.697 661.499 613.623C660.815 610.791 664.917 609.619 666.773 612.061C667.456 613.037 668.042 614.404 668.042 615.088C668.042 615.772 668.823 616.357 669.8 616.357C671.948 616.357 676.831 622.412 676.831 625.049C676.831 626.416 677.515 627.1 678.687 627.1C680.151 627.1 680.835 625.928 681.714 622.119C682.69 618.115 683.96 616.162 688.452 611.768C701.245 599.268 702.124 598.779 711.792 598.779C716.773 598.779 718.921 598.291 720.776 596.826C722.144 595.752 723.901 594.873 724.78 594.873C725.562 594.873 726.636 594.482 727.222 593.897C727.808 593.311 729.663 593.994 732.495 595.85C735.913 598.096 737.573 598.682 739.819 598.193C743.628 597.412 748.12 593.115 748.12 590.381C748.12 588.33 748.706 588.135 756.03 587.451C763.355 586.865 763.94 586.572 764.819 584.229C765.405 582.861 766.773 580.713 767.847 579.541C769.409 577.881 770.288 577.588 772.241 578.369C774.976 579.346 776.44 578.857 776.44 576.709C776.44 575.928 776.929 575.342 777.515 575.342C778.198 575.342 779.273 574.561 779.956 573.682C781.128 572.022 781.323 572.022 783.472 573.975C786.792 577.002 790.21 577.49 792.847 575.342C794.019 574.365 794.995 572.705 794.995 571.729C794.995 570.752 795.386 569.482 795.874 568.897C796.362 568.408 796.948 567.139 797.144 566.162C797.437 564.014 805.737 561.475 809.351 562.354C810.523 562.647 812.476 562.158 813.55 561.377C815.112 560.303 817.163 560.01 820.874 560.4C824.097 560.791 826.245 560.498 826.636 559.815C827.026 559.229 828.198 558.74 829.175 558.74C830.542 558.74 831.03 558.154 830.835 556.592C830.542 553.467 835.913 550.635 842.847 550.342C845.972 550.244 849.487 549.463 850.757 548.682C852.026 547.803 854.956 546.729 857.202 546.143C859.448 545.459 862.085 543.994 863.159 542.725C864.624 540.869 866.284 540.283 871.558 539.697C877.026 539.111 878.296 538.623 878.98 536.865C879.956 534.131 879.565 533.643 875.659 532.959C873.511 532.568 872.046 531.592 871.655 530.42C871.265 529.346 869.995 528.174 868.628 527.881C865.796 527.197 865.894 527.393 867.944 523.096C868.823 521.24 870.288 519.678 871.069 519.678C873.901 519.678 879.956 521.729 879.956 522.607C879.956 523.877 884.546 523.877 886.987 522.51C888.55 521.631 889.331 521.826 891.089 523.486C892.261 524.658 893.921 525.537 894.702 525.537C895.483 525.537 896.655 526.416 897.339 527.49C898.315 529.053 898.218 530.127 897.046 533.057C895.386 537.061 895.776 538.232 898.511 536.475C902.124 534.229 903.296 534.912 902.319 538.916C901.831 540.967 901.44 542.92 901.44 543.213C901.44 544.482 911.987 548.975 914.819 548.975C918.335 548.975 920.972 546.338 920.972 542.822C920.972 540.967 922.046 539.6 924.878 537.549C927.612 535.596 928.784 534.131 928.784 532.373C928.784 531.006 929.761 528.369 930.835 526.514C932.007 524.658 934.839 516.553 937.183 508.447C941.87 492.529 941.968 490.186 937.964 484.815C936.597 483.057 935.62 480.42 935.62 478.955C935.815 473.486 934.839 467.725 933.569 466.455C932.788 465.674 927.612 463.428 921.948 461.279C910.327 456.885 909.741 456.104 913.159 449.268C915.796 444.092 915.21 439.502 911.499 437.158C907.202 434.326 904.37 430.713 904.37 428.076C904.37 426.709 903.198 424.365 901.831 422.9C899.878 420.85 899.39 419.58 899.878 417.725C900.171 416.357 901.148 415.186 901.929 415.186C902.71 415.186 903.394 414.795 903.394 414.404C903.394 414.014 904.956 411.963 906.812 410.01C910.327 406.299 910.62 405.322 910.327 399.561C910.23 397.705 910.815 394.775 911.597 393.213C914.038 388.623 913.55 386.182 910.132 384.326C907.495 383.057 907.202 382.471 907.788 380.225C908.081 378.76 908.569 374.561 908.765 370.85L909.155 364.209L903.296 361.572C898.804 359.619 897.534 358.545 897.534 356.982C897.534 355.811 896.558 352.393 895.483 349.365C893.335 343.897 893.53 339.014 895.776 339.014C896.46 339.014 898.218 337.842 899.683 336.377C902.515 333.74 903.198 330.42 901.44 328.662C900.757 327.979 900.757 326.611 901.538 324.463C903.198 319.678 901.44 317.432 892.456 313.037C886.597 310.205 883.472 307.959 880.151 304.053C877.71 301.221 874.097 298.193 872.241 297.412C870.288 296.631 867.163 294.482 865.308 292.725C863.257 290.674 860.425 289.209 858.179 288.818C854.565 288.135 854.468 287.94 855.151 285.498C855.64 284.033 856.03 280.127 856.03 276.709V270.557L863.355 266.162C867.358 263.721 871.851 260.596 873.413 259.131C876.538 256.104 878.394 250.147 877.612 245.459C877.222 242.92 877.808 240.967 880.054 236.963C882.886 231.982 882.983 231.592 881.519 228.76C880.64 227.197 879.956 224.658 879.956 223.193C879.956 218.799 874.976 201.904 873.023 199.756C871.655 198.291 871.167 196.338 871.167 192.432C871.167 189.209 870.581 186.279 869.702 185.107C868.921 184.131 868.237 181.885 868.237 180.225C868.237 176.904 866.675 174.951 864.136 174.951C861.694 174.951 861.89 173.682 864.526 172.51C867.456 171.24 867.847 168.506 865.405 167.139C863.843 166.357 862.671 166.455 860.23 167.725C854.273 170.752 844.116 168.506 833.569 161.768C831.421 160.4 828.491 158.74 827.026 158.154C823.023 156.397 823.511 153.272 828.491 149.17L832.593 145.752L825.855 139.307C820.874 134.619 819.702 132.959 821.167 132.959C822.241 132.959 823.608 132.275 824.292 131.494C826.343 129.053 828.491 129.639 827.808 132.471C827.319 134.424 827.515 134.912 828.98 134.912C831.421 134.912 833.081 133.057 833.081 130.322C833.081 128.857 833.667 128.076 834.839 128.076C837.183 128.076 840.894 130.811 840.894 132.471C840.894 133.154 841.87 133.936 843.14 134.131C844.898 134.326 845.288 135.01 845.288 137.842C845.288 140.869 844.995 141.26 843.042 141.065C841.773 140.869 839.917 141.26 838.94 141.748C837.183 142.725 837.085 142.529 837.573 139.795C838.159 137.061 838.062 136.865 835.23 136.865C831.323 136.865 830.737 137.94 832.69 142.041C835.034 147.022 833.96 149.951 829.468 151.123C825.366 152.1 824.097 154.736 826.929 156.201C828.882 157.275 839.819 155.908 841.382 154.346C841.87 153.857 846.46 153.467 851.636 153.467H861.108V148.975C861.108 144.775 860.815 144.287 855.64 139.99C852.71 137.451 848.315 133.545 845.874 131.397C842.749 128.565 840.112 127.1 837.378 126.709C832.593 125.83 827.124 121.631 824.878 116.846C823.608 114.307 822.632 113.428 820.776 113.428C819.116 113.428 818.042 114.111 817.749 115.381C817.456 116.455 816.48 117.334 815.601 117.334C813.257 117.334 812.378 116.26 813.55 114.893C815.796 112.158 811.597 112.744 807.105 115.772C803.687 118.018 800.855 119.19 797.144 119.482C791.089 120.068 790.601 120.459 792.065 123.193C793.042 125.049 792.944 125.244 790.991 124.951C789.526 124.756 788.452 123.584 787.769 121.436C787.183 119.678 786.108 117.822 785.425 117.432C784.644 117.041 784.448 115.967 784.839 114.893C785.523 113.33 785.132 113.232 781.519 113.818C778.296 114.307 777.417 114.111 777.417 113.037C777.417 112.256 776.831 111.182 776.148 110.791C775.366 110.4 773.999 108.838 773.023 107.275C771.948 105.518 770.483 104.639 768.823 104.639C767.456 104.639 765.601 103.955 764.722 103.174C763.843 102.393 761.401 101.416 759.253 100.928C756.03 100.244 755.444 99.7559 755.444 97.6075C755.444 96.2403 754.663 94.1895 753.687 93.1153C752.515 91.8458 752.222 90.9669 752.905 90.4786C754.663 89.4044 754.077 87.0606 752.124 87.0606C747.241 87.0606 746.265 82.0801 750.171 77.7833C751.148 76.6114 752.319 74.3653 752.612 72.7051C752.905 70.9473 754.077 68.7989 755.054 67.92C756.128 67.0411 756.909 65.1856 756.909 63.9161C756.909 62.7442 757.398 61.67 757.886 61.67C758.472 61.67 758.862 60.7911 758.862 59.6192C758.862 58.1544 758.374 57.6661 756.714 57.959C755.054 58.1544 754.37 59.1309 753.882 61.67C753.589 63.5255 752.808 66.1622 752.026 67.5294C751.245 68.8965 750.464 71.5333 750.073 73.3887C749.39 77.7833 748.218 77.9786 728.589 78.1739C715.991 78.2715 712.378 77.8809 707.3 76.3184C696.948 73.0958 695.972 73.3887 691.089 81.0059C688.745 84.6192 685.815 89.5997 684.644 91.9434C682.886 95.752 681.421 96.9239 675.171 100.244C670.874 102.49 666.187 105.908 664.136 108.252C660.718 112.158 660.132 112.451 655.542 112.451C652.905 112.451 646.558 113.33 641.382 114.404C634.253 115.869 630.542 116.065 625.171 115.479C618.237 114.795 618.14 114.795 614.331 118.018C611.304 120.557 610.132 122.607 608.862 127.295L607.202 133.154L602.515 132.568C597.046 131.787 591.675 133.643 590.015 136.67C588.55 139.404 588.648 139.795 590.894 139.795C591.87 139.795 593.823 140.283 595.19 140.869C597.241 141.846 597.437 142.334 596.558 144.287C595.288 147.022 594.898 147.119 592.358 145.361C591.284 144.678 588.94 143.506 587.183 142.725C584.351 141.65 583.862 141.65 582.788 143.115C580.933 145.654 576.245 143.604 576.245 140.283C576.245 138.525 575.562 137.744 573.901 137.256C572.534 136.963 571.265 136.084 570.972 135.303C570.288 133.447 564.526 133.545 555.835 135.498C550.171 136.768 548.413 137.647 546.753 139.893C544.116 143.408 543.433 143.408 541.87 139.99C540.991 138.135 539.233 136.963 535.815 135.889C529.468 133.838 527.71 130.811 530.64 126.611C531.714 125.049 532.69 123.584 532.788 123.486C532.886 123.389 534.546 123.682 536.597 124.268C540.112 125.244 540.405 125.049 544.312 121.533C546.558 119.482 551.147 116.065 554.565 113.916L560.815 110.01L560.23 103.662C559.937 100.147 559.448 96.1426 559.058 94.7755C558.667 92.92 559.155 91.4551 561.206 89.0137L564.038 85.7911L558.081 86.377C554.761 86.7676 550.757 86.5723 548.999 86.084C546.46 85.4005 545.679 85.4981 544.702 87.1583C544.116 88.1348 542.749 89.0137 541.675 89.0137C540.698 89.0137 537.671 90.5762 535.132 92.4317C528.394 97.2169 524.194 97.1192 519.214 92.0411C516.187 88.9161 514.429 88.0372 509.546 87.0606C506.226 86.4747 502.026 85.1075 500.073 84.1309C493.53 80.8106 488.745 80.0294 482.886 81.2989C477.905 82.4708 477.417 82.8614 474.585 87.7442C471.558 92.92 469.507 94.1895 468.433 91.4551C467.944 89.9903 469.605 86.084 470.776 86.084C471.069 86.084 471.851 85.6934 472.632 85.2051C473.608 84.5215 473.706 83.9356 472.73 82.2755C471.851 80.6153 471.851 79.7364 472.73 78.7598C473.608 77.6856 473.218 77.002 470.581 75.3419C466.87 72.9981 462.769 73.1934 449.878 76.4161C443.628 77.9786 441.968 78.1739 441.382 77.0997C439.722 74.5606 440.601 73.4864 445.19 72.0215C447.73 71.1426 451.636 68.7012 453.98 66.4551C457.788 62.8419 458.081 62.1583 458.081 57.4708C458.081 52.9786 457.788 52.0997 454.956 49.7559L451.733 47.1192L454.37 47.0215C457.69 47.0215 458.667 45.459 456.323 44.1895C455.347 43.6036 453.784 41.2598 452.808 38.9161C451.831 36.1817 450.269 34.2286 448.706 33.4473C446.46 32.4708 446.167 32.5684 445.288 35.3028C444.409 37.8419 443.823 38.1348 441.675 37.6465C440.21 37.3536 438.355 36.1817 437.476 35.2051C436.499 34.2286 431.714 31.8848 426.733 30.127C419.702 27.6856 417.456 26.4161 417.065 24.8536C416.577 22.8028 416.187 22.9005 408.765 27.4903C400.855 32.2755 399.585 32.3731 399.487 28.0762C399.487 26.4161 399.097 26.5137 396.362 29.1505C394.605 30.8106 391.675 32.4708 389.917 32.8614C386.987 33.4473 386.304 33.1544 383.569 30.2247C380.835 27.295 378.98 26.5137 369.702 24.0723C356.226 20.6544 349.683 19.6778 347.534 20.8497C346.362 21.4356 344.995 21.2403 343.433 20.1661C341.284 18.7989 340.698 18.7012 338.355 19.9708C336.011 21.1426 334.937 21.1426 330.347 19.9708C325.464 18.7012 324.878 18.7012 324.097 20.0684C323.413 21.338 321.265 21.6309 312.671 21.6309C303.491 21.6309 301.733 21.338 299.487 19.5801C297.437 17.92 296.948 16.7481 296.948 13.2325C296.948 9.42389 297.241 8.7403 299.683 7.86139C304.077 6.10358 304.956 5.51764 304.565 4.73639C304.37 4.24811 305.054 3.46686 306.128 2.88092C307.593 2.09967 307.69 1.70905 306.616 1.02545C303.198 -1.12299 300.366 0.0488892 297.632 4.73639Z" fill="black"/>
<path d="M307.202 38.9167C305.542 39.112 303.588 40.1863 302.905 41.3581C300.854 44.5808 304.272 47.2175 311.206 47.8034C316.186 48.1941 316.967 47.9988 318.432 46.0456C319.604 44.4831 319.897 43.0183 319.506 41.2605C318.92 39.0144 318.237 38.7214 314.428 38.6238C312.084 38.5261 308.764 38.7214 307.202 38.9167Z" fill="black"/>
<path d="M292.26 47.3159C289.526 50.2456 289.526 52.0034 292.358 54.6401C294.995 57.1792 298.12 57.3745 299.975 55.2261C301.049 53.9565 300.952 53.5659 299.585 52.7847C298.706 52.1987 297.143 50.2456 296.167 48.3901L294.409 44.9722L292.26 47.3159Z" fill="black"/>
<path d="M777.417 48.8771C769.995 49.5607 764.721 52.5881 764.721 56.2013C764.721 57.4709 763.843 59.2287 762.768 60.2052C759.936 62.842 761.206 63.2326 764.624 60.7912C766.577 59.424 767.358 58.1545 766.968 57.1779C766.382 55.6154 768.139 53.8576 770.385 53.8576C772.241 53.8576 771.753 56.299 769.604 58.2521C768.53 59.2287 767.651 61.0841 767.651 62.3537C767.651 64.3068 767.163 64.5998 763.647 64.5998C759.936 64.5998 759.643 64.7951 760.229 66.7482C760.522 68.0177 760.815 69.2873 760.815 69.6779C760.815 70.1662 762.182 70.4591 763.745 70.4591C765.405 70.4591 766.675 70.8498 766.675 71.4357C766.675 71.924 765.21 72.4123 763.354 72.4123C760.913 72.4123 759.448 73.0959 757.983 74.9513C755.542 78.0763 755.444 79.2482 757.397 79.2482C758.178 79.2482 758.862 79.6388 758.862 80.2248C758.862 80.713 760.327 81.2013 762.182 81.2013C764.331 81.2013 765.698 81.7873 766.089 82.7638C767.358 86.0841 766.675 86.7677 761.792 87.4513C757.3 88.0373 756.909 88.3302 756.909 90.7716C756.909 92.6271 757.885 94.1896 760.327 96.1427C762.182 97.6076 763.745 99.463 763.745 100.244C763.745 101.026 764.526 101.709 765.503 101.709C766.382 101.709 770.385 103.076 774.389 104.639C782.495 107.959 783.569 108.154 785.132 106.201C786.01 105.225 786.01 104.248 785.132 102.393C783.764 99.3654 785.425 95.8498 788.159 95.8498C789.233 95.8498 790.112 95.1662 790.112 94.3849C790.112 93.506 790.991 92.9201 792.456 92.9201C793.823 92.9201 796.069 92.4318 797.534 91.9435C799.487 91.1623 800.659 91.2599 802.417 92.4318C804.272 93.6037 805.053 93.7013 806.714 92.7248C809.546 90.8693 811.596 93.1154 809.35 95.6545C807.788 97.3146 807.885 97.5099 811.108 98.9748C814.526 100.44 814.526 100.44 814.526 98.0959C814.526 96.8263 815.698 94.6779 817.065 93.4084C818.53 92.0412 819.214 90.967 818.725 90.967C818.237 90.967 816.186 89.4045 814.233 87.549C811.499 84.9123 809.936 84.131 807.202 84.131C804.077 84.131 803.491 83.7404 802.221 80.713C799.878 75.049 800.366 73.4865 805.249 71.338C810.718 68.8966 812.182 65.2834 808.764 62.549C806.909 60.9865 805.346 60.8888 797.143 61.3771L787.573 61.963L784.448 58.7404C780.835 55.1271 780.835 53.9552 784.546 52.0998C787.475 50.6349 788.159 47.9006 785.522 48.1935C784.546 48.1935 780.932 48.5841 777.417 48.8771Z" fill="black"/>
<path d="M324.78 66.3594C322.144 67.1406 319.702 67.9219 319.507 68.1172C318.628 68.8984 322.534 73.3906 324.195 73.3906C327.222 73.3906 330.347 70.168 329.956 67.4336L329.663 64.9922L324.78 66.3594Z" fill="black"/>
<path d="M306.714 66.747C306.714 67.4305 307.202 68.7001 307.69 69.4813C308.472 70.6532 308.667 70.5555 308.667 68.7977C308.667 67.6259 308.276 66.3563 307.69 66.0634C307.202 65.7704 306.714 66.0634 306.714 66.747Z" fill="black"/>
<path d="M555.444 69.2845C553.589 71.2377 552.808 73.0931 552.808 75.6322C552.808 79.5384 554.956 81.3939 557.007 79.3431C558.667 77.683 560.62 78.0736 560.62 80.222C560.62 81.1986 561.401 82.4681 562.378 82.9564C564.233 83.933 582.104 84.2259 582.007 83.2494C582.007 82.9564 580.347 80.0267 578.394 76.9017C574.976 71.433 574.39 71.0424 568.921 69.4799C557.788 66.3549 558.276 66.3549 555.444 69.2845Z" fill="black"/>
<path d="M303.784 75.832C303.784 77.6875 306.421 81.2031 307.886 81.2031C309.839 81.2031 310.132 80.0312 308.667 77.1992C307.788 75.6367 303.784 74.4648 303.784 75.832Z" fill="black"/>
<circle cx="766" cy="315" fill="#5CE50D"/>
<circle cx="203" cy="470" fill="#E52A0D"/>
<circle cx="341" cy="629" fill="#E52A0D"/>
<circle cx="612" cy="893" fill="#E52A0D"/>
</g>
<defs>
<clipPath id="clip0_1_784">
<rect width="1000" height="1000" />
</clipPath>
</defs>
</svg>
