<svg width="1000" height="1000" viewBox="0 0 1000 1000" fill="none" xmlns="http://www.w3.org/2000/svg">
<g clip-path="url(#clip0_1_834)">
<rect width="1000" height="1000" />
<path d="M604.166 197.91C602.506 200.352 602.506 201.035 603.58 203.574C604.264 205.137 604.85 207.48 604.948 208.75C604.948 209.922 605.826 212.656 606.901 214.805C610.221 221.348 606.412 227.793 600.358 225.449C596.647 224.082 594.205 221.738 594.205 219.492C594.205 218.32 593.131 217.246 591.276 216.66C589.713 216.074 588.346 215.195 588.346 214.707C588.346 214.219 587.467 213.828 586.295 213.828C582.291 213.828 580.533 212.07 580.533 207.871C580.533 204.16 580.338 203.965 577.897 204.258C575.358 204.551 575.162 204.844 574.869 209.727C574.576 215.195 577.311 222.52 582.291 229.258C585.514 233.652 584.635 236.582 579.557 238.633C577.408 239.512 574.088 240.195 572.33 240.195C569.694 240.195 568.912 240.684 568.424 242.539C567.74 245.469 563.541 247.031 556.412 247.031C552.213 247.031 550.358 246.445 546.354 243.809C543.619 242.051 541.471 239.902 541.471 238.926C541.471 236.484 540.299 236.875 537.076 240.195C534.44 243.027 529.752 244.199 529.752 242.148C529.752 240.879 522.916 233.359 521.842 233.359C519.889 233.359 521.158 237.852 523.893 240.684L526.823 243.711L524.576 247.129C521.744 251.426 519.498 251.719 516.08 248.496C513.346 245.957 509.147 244.297 502.213 243.418C498.99 243.027 498.502 243.223 497.135 245.859C496.354 247.422 494.987 248.984 494.108 249.375C492.057 250.156 485.807 247.031 485.807 245.176C485.807 244.297 485.221 242.441 484.44 240.977C483.658 239.512 482.78 237.07 482.389 235.41C481.901 233.164 481.022 232.285 478.19 231.309C476.237 230.723 472.916 229.062 470.865 227.695C467.936 225.742 466.764 225.449 465.494 226.23C462.76 227.891 463.053 231.309 466.764 240.781C470.865 251.133 470.865 255.625 466.862 258.262C465.006 259.531 463.737 259.629 459.83 258.75C454.752 257.578 453.58 256.602 453.58 253.184C453.58 252.012 452.701 250.547 451.627 249.961C449.869 249.082 449.674 249.18 449.674 251.523C449.674 253.965 449.479 254.062 445.768 253.574C440.885 252.988 440.494 254.844 444.791 258.555C446.451 260.02 447.721 261.68 447.721 262.363C447.721 264.707 445.573 264.707 443.033 262.363C440.104 259.629 433.365 256.504 431.998 257.383C431.51 257.676 431.119 258.555 431.119 259.336C431.119 260.312 429.85 260.703 426.53 260.703C422.526 260.703 421.647 260.312 418.326 256.699C414.713 252.793 414.225 252.598 407.682 252.109C401.432 251.719 400.553 251.816 398.405 253.867C396.744 255.43 395.963 257.188 395.963 259.336C395.963 261.875 394.889 263.633 391.178 267.344C385.514 273.203 379.264 275.742 376.725 273.105C375.358 271.738 374.869 271.738 372.33 273.008C368.912 274.766 368.815 276.133 372.33 276.914C376.041 277.891 377.311 280.039 377.408 285.312C377.408 291.562 375.748 291.465 365.983 284.824C357.877 279.258 353.483 277.305 348.99 277.305C346.256 277.305 346.158 277.5 346.158 282.09C346.158 286.875 346.158 286.875 351.334 289.805C357.291 293.125 358.17 294.102 359.44 298.789C360.221 301.719 359.928 302.988 357.682 307.578C356.217 310.508 355.045 312.168 355.045 311.289C354.948 310.41 353.776 308.75 352.311 307.578C350.065 305.82 348.893 305.625 344.303 306.113C341.276 306.504 337.662 307.578 336.198 308.555C332.975 310.898 325.651 310.508 317.838 307.578C310.807 304.941 306.119 304.941 305.436 307.578C304.85 309.727 301.823 310.215 300.553 308.262C300.065 307.578 299.576 309.141 299.283 312.363C298.893 316.66 298.307 318.027 296.158 319.59L293.424 321.641L290.494 319.492L287.565 317.344L282.194 321.738C275.065 327.5 271.744 327.695 267.35 322.52L264.323 318.809L263.639 322.715C263.248 324.863 262.174 327.891 261.295 329.355C259.733 332.09 259.83 332.383 263.444 338.828C265.397 342.539 267.057 346.543 267.057 347.617C267.057 348.789 267.74 350.938 268.522 352.5C270.573 356.504 269.596 360.312 266.373 360.312C265.104 360.312 262.955 361.484 261.49 362.852C259.733 364.609 258.17 365.195 255.924 365C252.994 364.707 252.897 364.805 253.092 368.613C253.19 370.762 253.483 373.887 253.873 375.645C254.459 378.281 254.264 378.77 252.408 379.062C250.455 379.355 250.455 379.648 254.166 385.312C257.975 391.172 258.17 391.27 263.248 391.758C266.373 392.051 268.815 392.93 269.498 393.906C270.182 394.785 271.451 395.469 272.33 395.469C273.6 395.469 273.893 394.492 273.893 390.586C273.893 387.852 274.283 385.703 274.674 385.703C275.162 385.703 276.725 386.973 278.287 388.633C281.901 392.344 282.682 392.344 282.682 388.438V385.215L285.026 387.656C287.858 390.586 288.834 393.516 287.565 395.469C286.783 396.738 286.295 396.738 283.561 395.176C279.557 392.93 277.506 393.027 278.287 395.371C279.459 399.18 272.623 401.133 269.108 398.008C266.666 395.762 265.787 396.055 264.127 399.57C262.076 403.965 259.635 405.234 257.975 402.891C255.924 400.059 252.994 401.621 251.823 406.211C250.651 410.41 251.432 412.07 254.557 412.07C255.924 412.07 256.315 412.852 256.315 415.293C256.315 417.832 257.584 419.883 262.174 425.059C266.862 430.332 268.033 432.383 268.033 434.922C268.033 439.219 265.592 440.195 262.565 437.363L260.319 435.312L258.756 440.781C257.877 443.906 257.389 447.031 257.682 447.812C258.561 450.059 264.42 452.109 269.889 452.109C274.186 452.109 274.674 451.816 275.26 449.668C275.846 447.422 276.334 447.227 281.119 447.227C283.951 447.227 286.588 447.52 286.979 447.91C287.369 448.301 290.494 448.496 293.912 448.398C297.526 448.203 300.26 448.496 300.651 449.082C301.041 449.668 300.846 451.816 300.26 453.965C299.283 457.578 298.99 457.773 294.596 458.359C282.389 459.824 275.065 460.117 273.209 459.141C271.744 458.359 270.768 458.359 269.498 459.336C267.838 460.508 268.033 460.801 271.354 463.438C273.307 465 274.869 466.562 274.869 466.953C274.869 467.441 272.916 467.734 270.475 467.734C266.569 467.734 265.983 468.027 264.615 470.762C263.248 473.398 263.151 474.277 264.518 478.77C265.299 481.602 266.373 486.875 266.959 490.586C267.936 497.031 267.838 497.422 265.592 500.156C261.1 505.527 263.053 509.727 270.182 509.727C272.721 509.727 274.381 510.801 278.483 514.805C281.608 517.93 285.123 520.371 287.369 520.957L290.983 522.031L291.276 534.629C291.471 545.664 291.764 547.52 293.522 549.375C294.596 550.449 296.647 554.648 298.209 558.652C300.651 565.195 301.334 566.074 305.24 568.027C310.319 570.566 313.932 570.859 313.932 568.809C313.932 568.027 314.225 567.344 314.713 567.344C316.471 567.441 317.74 569.102 318.717 572.91C319.596 576.133 320.475 577.207 322.33 577.695C323.99 578.086 325.162 577.891 325.748 577.012C326.823 575.156 334.244 575.84 338.053 578.184C340.299 579.648 341.178 579.746 341.471 578.867C342.252 576.523 344.889 579.844 347.721 586.68C350.651 593.906 355.045 599.082 358.951 600.059C361.1 600.645 361.686 600.156 363.151 596.738C364.908 592.93 365.006 592.832 371.451 592.246C374.967 591.953 378.678 591.562 379.752 591.465C382.682 591.172 386.979 578.867 386.49 572.129C386.198 569.199 386.49 565.684 387.076 564.121L388.151 561.484H399.088C408.365 561.484 411.198 561.875 416.959 563.926C420.768 565.195 424.479 566.367 425.26 566.367C426.041 566.367 427.604 567.832 428.776 569.59C430.436 572.129 430.729 573.594 430.24 577.598C429.459 583.652 424.381 591.465 419.987 593.223C415.104 595.273 413.444 597.812 412.858 604.258C412.467 608.555 412.76 611.289 414.127 614.805C416.178 620.176 416.373 627.695 414.713 641.074C413.444 651.328 410.905 659.336 406.608 666.27C404.948 668.906 402.799 674.473 401.725 678.574C400.748 682.676 399.186 687.656 398.405 689.707C397.623 691.66 396.94 695.078 396.94 697.227C396.94 700.742 397.233 701.23 400.651 702.695C408.17 705.82 409.147 705.723 411.979 700.938C413.346 698.496 414.518 695.664 414.518 694.492C414.518 691.855 425.162 682.285 429.655 680.918C432.487 680.039 433.658 680.137 435.905 681.406C438.444 682.871 438.834 682.773 441.959 680.82C444.596 679.258 446.256 678.965 449.576 679.355C452.994 679.844 453.971 679.648 454.752 678.281C456.022 675.938 459.537 674.766 468.912 673.301C473.6 672.52 477.994 671.25 479.655 670.078C482.877 667.734 488.932 665.977 493.619 665.977C498.014 665.879 499.283 664.805 503.776 657.48C509.928 647.227 514.323 645.176 524.381 648.203C529.557 649.766 530.338 650.352 530.729 652.891C531.022 654.453 532.682 658.652 534.44 662.266C536.881 667.051 538.248 668.906 540.201 669.395C541.569 669.688 542.838 669.785 543.033 669.59C543.326 669.395 543.912 666.465 544.498 663.242C545.573 657.285 545.573 657.188 542.448 653.281C538.737 648.691 539.42 646.836 544.401 647.91C546.647 648.398 548.307 649.961 550.846 653.77C552.897 656.797 555.729 659.629 557.877 660.703C563.444 663.535 565.885 666.074 565.885 668.906C565.885 672.812 572.623 675.742 581.51 675.742H588.248L588.932 680.137C589.323 682.773 590.104 684.531 590.787 684.531C591.471 684.531 594.498 686.484 597.428 688.926C603.678 694.004 607.389 694.688 608.756 690.977C610.123 687.559 612.955 686.875 614.713 689.609C615.494 690.879 619.596 695.469 623.795 699.766C632.78 709.141 636.295 710.703 646.256 709.434C654.85 708.359 659.44 708.359 660.612 709.531C661.197 710.117 660.514 712.559 658.658 716.66C655.143 724.082 655.045 726.621 658.072 731.797C659.928 735.02 661.588 736.289 666.178 738.145C682.291 744.688 681.119 743.906 681.119 748.398C681.119 751.621 681.705 753.086 683.658 754.941C687.076 758.164 693.326 769.883 694.791 775.938L696.061 780.918L704.947 784.336C709.83 786.191 717.155 788.34 721.158 789.121L728.483 790.488L728.971 795.371C729.264 798.008 730.045 801.23 730.729 802.5L731.998 804.648L735.807 802.695C738.932 801.133 740.69 800.84 744.987 801.328L750.26 801.914L750.944 798.008C751.53 794.59 752.018 793.906 755.436 792.539C757.584 791.66 761.1 790.977 763.248 790.977C766.666 790.977 768.033 790.293 772.623 786.094C775.944 783.066 778.873 781.211 780.338 781.211C781.901 781.211 783.561 780.039 785.514 777.305C787.076 775.059 789.518 772.422 790.885 771.348L793.326 769.395L798.014 771.738C800.553 773.008 804.459 774.668 806.608 775.352C812.662 777.305 815.69 779.648 818.717 784.336C821.158 788.242 822.33 789.023 829.752 791.758C838.346 794.98 843.033 795.469 854.752 794.297C860.319 793.711 860.709 793.516 859.733 791.758C858.854 790.098 859.244 789.219 862.369 785.996C864.42 783.945 866.862 781.992 867.74 781.699C869.596 781.016 871.94 771.543 870.475 769.98C869.987 769.492 869.596 767.051 869.596 764.512C869.596 760.898 870.28 759.141 872.916 755.625C876.627 750.84 878.873 749.961 887.662 749.961C892.74 749.961 892.838 749.961 893.424 746.641C894.205 742.832 893.424 738.73 891.471 735.801C890.69 734.727 890.104 731.699 890.104 728.965C890.201 724.668 890.69 723.594 894.108 719.785C897.526 715.977 898.698 715.293 904.557 714.219C908.951 713.34 914.518 713.047 921.647 713.535C931.803 714.121 932.291 714.023 934.635 711.777C940.104 706.699 941.178 701.523 938.053 695.371C936.198 691.758 935.905 691.66 929.948 690.977C924.967 690.488 923.307 689.805 921.061 687.656C917.35 683.945 916.08 678.184 918.131 674.668C919.596 672.227 919.596 671.836 917.545 669.004C915.299 665.781 911.686 665 909.83 667.148C909.342 667.832 908.268 670.273 907.584 672.52C906.998 674.863 906.022 676.719 905.631 676.719C904.362 676.719 901.823 663.34 901.823 656.309C901.823 652.5 901.334 647.422 900.651 644.98C899.674 641.367 898.99 640.391 896.256 639.512C893.815 638.73 893.033 637.949 893.033 636.094C893.033 633.457 886.686 615.879 884.537 612.559C883.561 611.094 883.268 609.141 883.756 606.504C884.44 602.305 883.463 599.668 877.897 591.27C874.869 586.777 874.576 585.605 874.283 577.402C873.99 570.664 874.186 568.223 875.162 567.93C877.408 567.051 875.358 564.609 868.815 560.508C862.858 556.699 861.881 556.406 856.901 556.797C848.795 557.383 848.209 556.406 848.209 539.316C848.209 527.891 847.819 524.766 846.158 520.566C845.084 517.637 844.205 513.242 844.205 510.117C844.205 505.82 843.619 503.867 841.373 500.645C838.834 496.738 837.565 492.246 835.905 479.648C835.319 475.352 826.823 457.285 824.479 455.332C823.795 454.746 820.67 453.477 817.643 452.5C814.03 451.426 810.221 449.18 806.998 446.348L801.92 441.953L802.604 432.383C803.385 420.273 805.338 416.074 814.811 406.504C821.158 400.059 822.233 399.375 827.604 398.301C830.826 397.715 835.416 395.957 837.662 394.492C840.299 392.832 844.01 391.562 847.721 391.074C850.846 390.684 856.803 389.512 860.807 388.438C866.959 386.875 870.865 386.582 884.733 386.777C893.912 386.875 903.385 386.68 905.924 386.289C910.026 385.605 910.905 385.801 915.006 388.633L919.498 391.758L922.819 389.121C925.846 386.875 926.237 386.094 926.237 382.09C926.237 379.453 927.018 376.426 928.092 374.57C929.166 372.91 931.608 366.27 933.561 359.824C936.979 348.984 937.662 347.715 942.74 342.246C948.795 335.703 951.627 328.965 951.627 320.859C951.627 316.855 952.115 315.684 954.85 313.047C957.584 310.215 959.635 309.434 971.842 306.602L985.709 303.379L991.471 296.836C997.721 289.902 999.479 285.801 999.479 277.988C999.479 273.496 999.186 273.105 992.448 266.27C984.342 258.066 976.627 252.5 974.576 253.281C973.795 253.574 972.526 255.332 971.744 257.188C970.768 259.531 969.01 261.289 966.08 262.754C963.737 263.926 960.026 266.562 957.877 268.516C954.166 271.934 953.19 272.324 946.158 272.91C939.615 273.594 937.369 273.301 931.119 271.445C920.475 268.223 916.862 267.637 908.463 267.539C900.846 267.539 892.838 265.781 878.092 260.996L870.475 258.555L847.33 260.703C830.143 262.266 821.354 262.656 812.955 262.168C800.748 261.484 796.94 260.117 792.057 254.941C790.397 253.281 788.444 251.914 787.565 251.914C786.783 251.914 783.756 250.352 780.826 248.496C777.994 246.641 775.065 245.078 774.283 245.078C773.502 245.078 772.623 243.809 772.33 242.148C771.94 240.195 771.061 239.219 769.987 239.219C769.01 239.219 765.69 237.852 762.565 236.191C757.584 233.652 747.526 230.527 743.912 230.43C743.033 230.43 742.838 231.406 743.229 233.359C744.01 236.777 742.35 239.219 739.322 239.219C738.248 239.219 736.393 239.902 735.416 240.684C733.658 242.051 733.17 241.953 730.533 239.414C724.967 234.238 717.838 230.43 713.737 230.43C709.342 230.43 703.19 227.793 698.014 223.887C694.791 221.348 693.619 221.152 683.365 220.566C672.428 220.078 672.33 219.98 668.912 216.758C667.057 214.902 665.299 212.754 665.006 211.777C664.713 210.898 663.053 209.922 661.295 209.531C658.854 209.043 657.877 209.336 656.608 210.996C655.143 213.047 655.045 213.047 652.115 209.238C650.455 207.188 648.698 205.82 648.307 206.309C647.916 206.699 648.014 209.336 648.6 212.168C649.869 218.223 648.405 221.641 644.401 221.641C641.666 221.641 640.201 219.199 641.959 217.441C644.108 215.293 643.131 213.047 639.908 212.363C638.151 211.973 635.709 211.094 634.537 210.312L632.291 208.945V217.148C632.291 223.691 631.998 225.449 630.729 225.938C628.19 226.914 625.748 226.621 622.623 224.766C619.694 223.203 619.596 222.812 619.596 216.66C619.596 212.363 619.108 209.824 618.229 209.043C617.545 208.457 616.666 206.211 616.276 204.062C615.787 201.035 615.201 200.156 613.737 200.156C612.662 200.156 611.783 199.57 611.783 198.887C611.783 197.812 607.975 195.273 606.412 195.273C606.217 195.273 605.24 196.445 604.166 197.91Z" fill="black"/>
<path d="M418.815 218.421C418.522 220.472 417.35 223.108 416.276 224.28C414.323 226.331 414.323 226.331 416.666 227.6C417.838 228.186 420.475 230.042 422.33 231.604C427.018 235.413 429.264 235.315 428.483 231.116C426.725 222.229 423.112 215.003 420.182 214.808C419.791 214.808 419.205 216.468 418.815 218.421Z" fill="black"/>
<path d="M334.244 289.901C335.221 296.932 343.229 299.08 343.229 292.44C343.229 288.631 341.276 287.069 336.588 287.069C334.049 287.069 333.854 287.361 334.244 289.901Z" fill="black"/>
<path d="M322.721 292.34C324.381 294.684 326.92 297.125 328.19 297.711C331.412 299.078 331.51 299.078 331.51 297.028C331.51 295.367 328.092 292.145 323.209 289.313C319.694 287.164 319.596 287.946 322.721 292.34Z" fill="black"/>
<path d="M119.498 367.249C119.791 375.94 119.791 376.135 117.74 375.061C116.08 374.085 115.494 374.378 114.127 376.428C112.662 378.674 112.076 378.87 108.561 378.381C105.826 377.893 104.948 377.991 105.338 378.772C106.315 380.335 102.018 391.565 100.455 391.565C99.6741 391.565 99.0881 392.639 99.0881 394.006C99.0881 395.96 98.5999 396.448 96.6467 396.448C94.9866 396.448 93.8147 397.327 92.8381 399.182C92.0569 400.647 90.2991 402.405 88.9319 403.089C86.7834 404.065 86.3928 403.967 85.8069 402.112C85.2209 400.256 84.635 400.159 78.5803 400.549C74.967 400.842 71.0608 401.721 69.8889 402.503C66.3733 405.042 42.4475 402.991 42.4475 400.256C42.4475 398.499 40.7874 399.475 38.6389 402.405L36.3928 405.432L39.1272 408.264C40.885 410.12 42.8381 411.096 44.5959 411.096C46.3538 411.096 47.3303 411.585 47.3303 412.561C47.3303 413.342 49.3811 415.393 51.9202 416.956C56.4124 419.788 56.9983 419.885 66.3733 419.69C73.8928 419.495 76.6272 419.006 78.4827 417.737C79.7522 416.76 82.4866 415.979 84.4397 415.979C87.6624 415.979 88.7366 416.663 93.6194 421.936L99.0881 427.796V437.952C99.0881 447.815 99.1858 448.108 101.823 450.061C104.362 452.014 104.362 452.112 102.604 453.577C101.53 454.358 100.846 455.139 101.139 455.335C101.334 455.53 103.19 456.799 105.143 458.167L108.854 460.608L105.24 462.268L101.725 463.928L105.924 468.225C110.905 473.303 114.518 474.182 123.795 472.62C130.826 471.35 132.389 469.983 135.221 463.049C135.905 461.292 137.76 458.069 139.225 456.018C140.787 453.87 142.057 450.842 142.057 449.28C142.057 445.081 144.401 443.518 147.916 445.569C149.381 446.448 151.627 447.229 152.701 447.229C155.045 447.229 155.143 447.815 153.287 451.135C150.944 455.237 151.627 455.335 156.608 451.721C159.244 449.768 162.467 448.206 163.834 448.206C166.276 448.206 166.373 448.108 166.276 441.37C166.276 437.561 166.178 434.534 166.08 434.534C165.983 434.534 164.42 434.924 162.565 435.51L159.147 436.389L161.588 434.436C163.444 432.776 164.811 432.581 168.033 433.069C170.475 433.362 172.428 433.264 172.819 432.678C173.112 432.092 174.674 431.897 176.139 432.19C178.385 432.678 179.069 432.385 179.557 430.921C180.045 429.456 181.022 429.163 184.733 429.26C188.834 429.456 189.42 429.749 190.201 432.092C190.983 434.241 191.569 434.631 194.108 434.339C195.768 434.143 197.233 433.557 197.428 433.069C197.623 432.483 195.963 429.749 193.815 426.819C189.127 420.667 188.541 415.784 192.155 413.928C195.28 412.268 195.28 412.268 192.838 409.631C190.104 406.702 188.932 406.506 188.932 409.143C188.932 412.366 183.756 411.78 180.729 408.069C178.287 405.237 177.408 400.354 177.994 393.225C178.092 392.053 177.408 391.565 175.455 391.565C169.791 391.565 165.592 390.296 165.006 388.635C164.225 386.194 160.319 384.827 151.725 383.85C147.623 383.362 143.033 382.385 141.471 381.702C138.834 380.432 138.639 379.846 137.955 373.108C137.662 369.202 136.881 365.491 136.295 364.905C135.709 364.319 132.877 363.733 129.948 363.44C125.944 363.147 124.088 362.464 122.428 360.706C121.256 359.436 119.987 358.362 119.694 358.362C119.401 358.362 119.303 362.366 119.498 367.249Z" fill="black"/>
<path d="M211.686 374.277L205.533 376.328V381.016C205.533 384.531 206.022 386.191 207.682 387.852C208.951 389.121 210.612 391.367 211.393 393.027C212.174 394.59 213.639 396.055 214.615 396.25C217.057 396.738 221.158 393.809 221.158 391.66C221.158 390 222.916 388.633 225.065 388.633C225.553 388.633 226.432 391.074 227.018 394.004C228.092 399.375 228.19 399.375 231.705 399.375C234.928 399.277 235.123 399.18 233.658 398.008C231.022 396.055 231.51 394.004 235.123 392.344C237.955 390.977 238.444 391.074 241.178 392.637C242.838 393.711 244.596 394.492 245.182 394.492C247.526 394.492 247.526 391.172 245.28 387.754C244.01 385.801 242.643 383.262 242.252 381.992C241.178 378.77 238.346 377.695 232.487 378.379C227.701 378.965 227.115 378.867 222.819 375.547C220.28 373.594 218.131 372.031 217.936 372.129C217.838 372.129 215.006 373.105 211.686 374.277Z" fill="black"/>
<path d="M207.877 479.156C206.608 481.988 206.608 483.16 207.487 484.82C208.365 486.48 208.365 487.555 207.487 489.215C206.51 490.973 205.826 491.266 202.506 490.68C197.819 489.898 196.94 491.363 198.698 497.613C200.162 502.789 203.287 504.84 209.537 504.84H213.541L213.151 508.746C212.955 510.895 213.151 512.652 213.639 512.652C214.03 512.652 216.569 514.605 219.108 517.047L223.893 521.539L224.479 518.121C224.967 515.484 225.748 514.508 228.19 513.727C233.268 511.969 237.174 512.359 239.713 515.094C242.057 517.535 242.057 517.633 240.299 520.66L238.444 523.688L240.787 523.102C242.057 522.711 243.912 522.418 244.987 522.418C246.451 522.418 246.647 521.93 246.256 519.586C245.865 517.73 246.158 516.363 247.037 515.582C248.893 514.02 248.893 508.355 247.135 506.891C244.987 505.133 241.666 497.418 241.666 494.391C241.666 492.828 242.155 490.973 242.643 490.191C244.108 487.848 239.127 483.551 232.389 481.402C229.166 480.328 224.088 478.57 221.158 477.594C218.229 476.52 214.323 475.641 212.565 475.543C209.733 475.543 209.147 476.031 207.877 479.156Z" fill="black"/>
<path d="M111.002 493.812L106.022 500.453L97.9163 502.699C93.4241 503.871 87.9553 504.848 85.6116 504.848C83.3655 504.848 79.6546 505.433 77.5061 506.019C73.5022 507.289 73.5022 507.289 74.1858 511.195C75.7483 520.961 75.846 524.476 74.6741 527.308C73.5999 529.945 73.0139 530.336 70.3772 530.043C67.4475 529.75 67.3499 529.555 66.3733 523.695C65.2991 516.762 61.7835 511.879 59.928 514.613C59.4397 515.394 59.1467 517.055 59.3421 518.324C59.8303 520.863 57.4866 523.012 51.5296 525.746C46.3538 527.992 45.3772 530.531 45.3772 540.492C45.3772 546.742 45.0842 548.793 44.1077 548.793C41.7639 548.793 38.4436 544.301 37.0764 539.418C36.3928 536.781 35.0256 532.582 34.0491 529.945C32.096 524.867 30.2405 523.89 20.0842 522.719C14.8108 522.133 14.8108 522.133 15.4944 524.476C15.885 525.746 16.2756 527.504 16.3733 528.285C16.6663 530.336 11.9788 530.726 8.36549 528.773L5.33815 527.211V530.14C5.33815 532.582 5.92408 533.168 10.221 535.023C12.8577 536.195 15.1038 537.758 15.1038 538.539C15.1038 539.32 16.3733 541.371 17.9358 543.129C19.4983 544.984 21.0608 548.012 21.4514 549.965C22.0374 552.797 22.721 553.773 25.0647 554.555C27.7991 555.531 27.8967 555.824 27.3108 559.535C26.8225 562.66 27.0178 564.027 28.385 565.492C29.9475 567.25 29.9475 567.445 28.2874 569.301C26.5296 571.254 26.5296 571.254 23.2092 568.715C20.0842 566.371 19.9866 566.371 19.9866 568.324C19.9866 569.496 20.6702 571.742 21.5491 573.305C22.9163 576.039 22.9163 576.43 21.4514 578.09C19.7913 579.848 19.6936 579.848 16.471 577.797C14.7131 576.625 12.6624 574.476 12.0764 572.914C11.4905 571.449 10.6116 570.277 10.1233 570.277C8.46315 570.277 8.26783 574.183 9.73268 577.113L11.2952 580.238L8.07252 579.848C4.06861 579.457 3.38502 581.508 5.82643 586.879C7.09596 589.711 9.14674 591.566 14.1272 594.594C17.7405 596.742 21.9397 598.793 23.3069 599.183C25.4553 599.672 25.846 599.476 25.846 597.719C25.846 595.765 26.0413 595.668 28.4827 597.035C31.2171 598.402 31.9983 600.062 36.5881 612.465C38.2483 617.055 39.1272 618.129 40.885 618.129C44.303 618.129 52.3108 621.156 52.8967 622.621C53.1897 623.402 54.7522 623.988 56.6077 623.988C59.2444 623.988 59.928 624.379 60.221 626.43C60.5139 627.797 60.4163 629.164 60.0256 629.359C58.4631 630.336 53.2874 642.738 53.4827 644.789C53.7756 648.012 49.8694 648.207 47.8186 645.18C45.3772 641.371 43.0335 642.836 41.0803 649.476C40.0061 652.992 38.1506 656.312 36.4905 657.875C35.0256 659.34 34.0491 660.902 34.3421 661.293C35.221 662.855 33.6585 666.957 32.1936 666.957C31.3147 666.957 30.7288 667.836 30.7288 669.301C30.7288 670.57 29.7522 672.23 28.5803 673.012C26.9202 674.086 26.5296 675.258 26.6272 678.578C26.8225 683.754 27.3108 684.535 30.2405 684.535C31.7053 684.535 32.6819 685.219 33.0725 686.683C33.3655 687.953 34.4397 690.004 35.5139 691.273C37.1741 693.422 37.4671 693.519 39.5178 692.055C40.6897 691.273 43.8147 687.758 46.3538 684.242C50.0647 679.457 52.1155 677.601 55.5335 676.332L59.928 674.672L59.7327 669.008C59.635 664.515 60.221 662.269 62.2717 658.168C63.9319 655.043 64.9085 651.527 64.9085 648.988C64.9085 646.742 65.5921 643.91 66.471 642.738C67.5452 641.273 68.2288 636.879 68.8147 629.555C69.8889 614.125 70.2796 613.441 79.0686 609.047C83.3655 606.898 88.6389 605.238 91.7639 604.848C95.7678 604.359 97.2327 603.773 97.6233 602.406C98.5999 599.574 102.604 599.965 103.385 602.992C104.264 606.605 107.194 606.117 109.147 602.015C110.807 598.402 113.737 597.328 113.737 600.258C113.834 604.359 115.201 604.555 120.963 601.039C127.018 597.426 129.264 597.426 129.069 601.234C128.873 603.383 129.362 603.773 131.803 603.969C133.463 604.066 136.198 604.75 137.858 605.531C140.69 606.703 141.276 606.605 142.74 605.14C144.205 603.676 144.205 603.383 142.838 601.82C140.006 598.598 136.979 591.566 137.955 590.59C139.42 589.125 144.01 589.515 150.358 591.566C153.58 592.64 156.51 593.324 156.901 593.031C157.389 592.836 157.975 590.883 158.268 588.832C158.658 586.683 159.537 584.437 160.221 583.851C161.002 583.265 161.588 581.312 161.588 579.555C161.588 577.797 162.174 575.941 162.858 575.355C163.834 574.574 164.518 575.355 165.787 579.164C167.252 583.07 167.936 583.949 169.791 583.949C172.428 583.949 172.916 583.168 173.795 576.527C174.186 573.793 175.455 570.765 176.627 569.496L178.678 567.152L175.455 564.515C172.233 561.976 172.233 561.879 174.088 560.219C176.92 557.68 181.51 558.07 182.877 561C183.561 562.367 185.123 563.93 186.49 564.613C189.518 565.98 192.252 563.93 193.912 558.754C194.596 556.801 195.865 553.871 196.842 552.211C197.916 550.648 198.698 548.305 198.698 547.035C198.698 545.082 199.088 544.887 200.944 545.473C202.115 545.863 203.385 546.547 203.678 547.035C204.069 547.719 205.045 547.621 206.315 546.937C208.365 545.863 209.244 543.129 209.635 535.609L209.928 531.703L211.881 534.926C213.444 537.562 214.323 538.148 216.569 537.758C218.424 537.562 219.205 537.855 219.205 538.832C219.205 541.273 222.916 546.449 225.553 547.621C228.287 548.89 228.483 548.402 226.53 544.887C225.748 543.519 225.162 541.859 225.065 541.176C225.065 539.613 227.994 539.711 230.24 541.469C232.389 543.031 236.783 541.566 236.783 539.418C236.783 536.586 227.604 527.504 223.112 525.844C220.67 525.062 216.276 522.816 213.346 521.058C208.658 518.324 207.877 517.348 206.705 513.344C205.436 508.851 205.338 508.754 201.627 508.754C198.405 508.754 196.549 507.777 190.787 503.383C186.979 500.453 183.17 498.012 182.194 498.012C181.315 498.012 179.362 497.328 177.799 496.547C176.334 495.765 173.893 495.082 172.428 495.082C170.963 495.082 168.912 494.398 167.643 493.617C166.08 492.445 164.225 492.25 160.416 492.641C151.823 493.617 151.334 493.91 150.065 497.23C149.381 498.988 148.112 501.527 147.135 502.699L145.377 505.043L142.35 502.504C139.03 499.672 135.416 499.183 134.635 501.43C134.244 502.211 132.877 502.894 131.315 502.894C129.166 502.894 127.506 501.527 123.014 495.765C119.889 491.957 117.057 488.344 116.666 487.953C116.276 487.465 113.737 490.101 111.002 493.812Z" fill="black"/>
<path d="M9.24442 555.816C7.87723 556.402 5.24051 557.086 3.38504 557.477C-0.325895 558.16 -1.30246 560.016 0.650668 562.75C1.82254 564.215 2.60379 564.313 7.77957 563.336C11.0022 562.75 13.9319 561.969 14.4202 561.578C15.4944 560.504 14.1272 554.645 12.76 554.742C12.1741 554.742 10.6116 555.23 9.24442 555.816Z" fill="black"/>
<path d="M105.924 619.879C105.924 620.855 105.241 622.613 104.362 623.883C102.897 626.031 102.897 626.227 104.752 628.082L106.705 630.133L110.221 627.984C112.174 626.715 113.737 625.641 113.737 625.445C113.737 625.25 112.858 623.492 111.686 621.637C109.537 617.926 105.924 616.852 105.924 619.879Z" fill="black"/>
<path d="M338.737 624.863C336.49 626.23 335.514 627.793 334.733 631.309C333.365 637.266 334.049 639.609 337.076 639.609C338.932 639.609 339.811 638.73 341.471 635.02C342.545 632.578 343.717 628.867 343.912 626.719C344.498 622.422 343.424 622.031 338.737 624.863Z" fill="black"/>
<path d="M219.498 719.881C218.912 720.564 218.717 722.81 218.912 724.764C219.303 727.498 219.889 728.474 221.158 728.474C222.135 728.474 223.6 728.767 224.479 729.06C225.748 729.549 226.041 728.865 226.041 725.74C226.041 723.592 225.748 721.15 225.455 720.271C224.772 718.416 220.865 718.221 219.498 719.881Z" fill="black"/>
<circle cx="459" cy="262" fill="#5CE50D"/>
<circle cx="422" cy="569" fill="#E52A0D"/>
<circle cx="770" cy="269" fill="#E52A0D"/>
<circle cx="740" cy="559" fill="#E52A0D"/>
</g>
<defs>
<clipPath id="clip0_1_834">
<rect width="1000" height="1000" />
</clipPath>
</defs>
</svg>
