<svg width="1000" height="1000" viewBox="0 0 1000 1000" fill="none" xmlns="http://www.w3.org/2000/svg">
<rect width="1000" height="1000" />
<path d="M306.78 104.644C305.803 106.987 301.409 117.73 296.917 128.472C289.983 145.269 288.518 148.003 287.346 146.831C286.663 146.05 285.295 145.464 284.319 145.464C283.245 145.464 281.877 143.999 280.803 141.46C278.557 136.675 274.553 134.331 269.963 135.112C266.252 135.894 261.76 140.679 261.76 143.999C261.76 147.222 258.635 148.003 254.241 145.952C252.288 144.976 247.991 143.999 244.67 143.706C235.881 143.023 232.17 145.269 224.651 155.718L218.694 164.019L220.354 166.753C221.917 169.585 221.819 170.073 211.956 201.128C201.213 235.015 201.409 234.136 203.752 247.71C204.534 251.909 202.288 252.788 198.186 249.858C195.256 247.808 194.768 247.808 188.616 248.882C173.284 251.714 172.893 251.909 172.307 254.839C172.014 256.304 167.62 262.651 162.542 268.999C153.167 280.718 152.581 281.987 149.358 295.366C148.284 299.663 147.014 301.323 139.397 308.745C131.389 316.46 130.706 317.437 131.389 319.976C131.78 321.44 132.268 326.519 132.561 331.108L133.049 339.507L129.045 342.632C124.065 346.538 123.87 349.761 127.874 357.28L130.608 362.554L127.288 368.218C124.553 372.905 124.163 374.565 124.651 377.593C125.53 383.55 123.088 388.042 118.206 389.507C115.959 390.191 114.006 390.581 113.909 390.386C106.682 380.23 104.241 377.886 101.116 377.886C97.8931 377.886 97.6001 378.276 89.7876 391.167C82.7564 402.983 81.9751 404.741 82.9517 406.792C83.5376 408.062 83.7329 410.405 83.4399 411.87C83.0493 413.726 83.5376 416.069 84.9048 418.706C87.5415 423.882 86.7603 427.788 82.4634 431.108C79.1431 433.648 79.1431 433.745 79.1431 441.362C79.1431 448.882 79.0454 449.273 74.4556 456.694L69.6704 464.312L70.8423 498.491C71.5259 517.241 71.8189 532.964 71.6235 533.355C71.4282 533.843 70.2564 534.136 68.9868 534.136C67.229 534.136 66.5454 535.112 65.0806 539.507C63.1274 545.171 61.7603 546.148 53.3618 547.808C50.3345 548.394 48.9673 548.198 47.0142 546.831C45.647 545.855 42.4243 544.878 39.9829 544.487C36.3696 544.097 34.9048 544.39 32.2681 546.245C29.5337 548.101 28.4595 548.296 25.5298 547.515C23.186 546.929 20.647 546.929 17.9126 547.71L13.9087 548.784L13.2251 556.108C12.5415 563.335 12.4439 563.53 8.04933 567.437C1.31105 573.296 -0.251454 576.421 0.236827 583.159C0.822765 590.679 2.67823 592.73 9.2212 592.73C12.7368 592.73 16.0571 593.608 20.354 595.659C25.0415 597.905 26.9946 598.296 28.3618 597.612C31.0962 596.148 31.8775 596.343 35.4907 599.566C38.5181 602.202 39.0064 602.3 40.1782 600.933C41.8384 598.882 46.5259 599.858 49.8462 602.886C51.2134 604.155 53.4595 605.816 54.9243 606.499C58.9282 608.648 67.522 620.562 69.3774 626.812C70.8423 631.694 71.4282 632.573 76.0181 635.21C78.7524 636.773 81.2915 639.019 81.6821 640.093C83.7329 647.319 86.5649 649.858 94.2798 651.714C98.5767 652.788 101.604 656.011 101.604 659.624C101.604 663.921 104.045 667.046 107.268 666.753C110.295 666.558 114.202 668.413 116.057 671.05C116.741 672.026 118.694 673.491 120.354 674.37C122.502 675.444 123.186 676.421 122.795 677.788C122.502 678.862 123.284 682.769 124.553 686.382C125.725 689.995 127.092 694.976 127.483 697.319C127.874 699.761 129.631 703.569 131.487 706.108C134.124 709.624 134.807 711.577 134.807 714.898C134.807 717.827 136.174 722.612 139.397 730.132C143.889 740.581 144.28 741.167 148.674 743.608C154.436 746.733 154.631 747.124 153.459 751.519C152.678 754.253 152.874 755.718 154.045 758.257L155.608 761.48L161.663 758.55L167.62 755.523L171.624 758.062C175.139 760.308 176.018 760.503 178.948 759.526C181.975 758.648 182.854 758.843 186.272 761.089C189.69 763.335 190.276 764.312 190.862 768.218C191.35 772.222 191.155 773.101 189.104 775.249C186.858 777.691 186.76 778.081 187.249 789.507C187.737 800.64 187.932 801.421 190.667 804.839C192.62 807.378 193.303 809.136 192.913 810.503C192.229 812.749 195.647 818.316 197.795 818.316C198.577 818.316 199.846 819.585 200.725 821.148C202.385 824.37 202.385 824.37 238.323 826.03L256.389 826.909L267.62 832.28C273.772 835.308 281.682 839.8 285.198 842.437C288.713 845.073 295.745 850.054 300.823 853.472C305.901 856.792 317.424 864.995 326.311 871.636L342.424 883.745L353.069 885.308C361.077 886.48 364.592 886.577 367.62 885.796C371.135 884.917 372.307 885.112 375.725 886.773C378.557 888.14 380.217 888.433 381.975 887.749C383.733 887.163 385.393 887.456 388.713 889.116C392.424 890.972 395.354 891.362 408.245 891.948C422.307 892.632 423.577 892.827 425.823 894.976C427.581 896.636 429.729 897.319 433.635 897.612C436.565 897.905 439.788 898.394 440.667 898.784C442.034 899.37 442.913 898.589 445.061 895.073C446.526 892.632 448.479 890.581 449.26 890.581C450.139 890.581 453.264 886.089 456.682 880.034L462.639 869.585L485.881 857.573C507.268 846.441 509.905 845.366 518.889 843.608L528.557 841.753L530.706 844.487C535.784 850.933 539.592 854.546 545.256 857.964L551.311 861.675L574.846 862.066L598.381 862.456L600.725 855.913C603.362 848.296 606.292 845.659 612.151 845.659C614.202 845.659 626.213 844.78 638.811 843.706C659.319 841.948 661.956 841.558 665.081 839.409C667.424 837.847 668.889 835.894 669.768 833.062C671.819 826.03 679.827 819.292 699.846 807.378C715.374 798.198 719.28 796.343 728.069 793.804L738.323 790.972H772.795L807.17 790.874L815.374 781.89C825.823 770.464 1000.24 566.265 999.846 565.972C999.651 565.874 986.37 566.069 970.256 566.558L940.959 567.339L836.956 535.503L732.854 503.569L722.209 491.655C713.518 482.085 710.198 479.155 705.12 476.421C699.456 473.491 697.502 471.538 687.249 458.941C680.999 451.128 673.772 441.948 671.233 438.433C668.792 434.917 664.299 429.058 661.37 425.347C658.44 421.636 654.631 415.483 653.069 411.675C651.506 407.866 647.991 401.616 645.452 397.71C642.815 393.804 640.667 390.191 640.667 389.605C640.667 389.019 644.377 383.062 648.967 376.421C653.557 369.78 657.268 364.214 657.268 363.921C657.268 363.628 654.827 363.042 651.897 362.749C647.795 362.163 646.233 361.48 645.061 359.722C643.987 358.062 642.62 357.378 640.374 357.378C638.713 357.378 636.663 356.987 635.881 356.499C634.026 355.327 629.045 357.085 625.92 360.015C623.577 362.163 622.405 362.358 612.444 362.749C605.12 362.944 600.725 363.53 599.358 364.507C595.745 366.851 590.862 367.046 584.612 364.898L578.85 362.944L579.534 348.394C579.924 339.312 579.827 332.476 579.143 330.132C578.362 327.202 578.459 325.444 579.631 322.222C580.413 319.976 581.096 316.558 581.096 314.8C581.096 312.944 581.487 311.48 581.975 311.48C584.417 311.48 593.401 300.737 601.213 288.53C605.999 281.011 611.37 273.589 613.127 272.026C615.081 270.269 616.252 268.413 616.252 266.851C616.252 265.483 617.229 262.847 618.303 260.991L620.452 257.573L616.155 253.179C613.811 250.835 610.198 247.905 608.049 246.831C605.999 245.757 596.038 236.577 585.979 226.519C573.772 214.214 564.983 206.304 559.514 202.593C548.674 195.269 546.331 192.925 543.01 186.48C541.057 182.573 539.299 180.62 536.858 179.448C534.612 178.374 528.362 171.636 517.913 158.94L502.385 140.093L484.319 133.062C474.456 129.155 465.374 126.128 464.104 126.323C462.249 126.616 461.37 125.737 459.026 121.05C456.389 115.874 455.901 115.386 453.752 115.972C452.385 116.362 450.335 118.218 449.065 120.073C445.94 124.663 441.155 125.249 436.76 121.538C432.952 118.315 422.893 114.214 418.987 114.214C416.252 114.214 416.057 114.409 416.057 118.12C416.057 122.905 414.104 124.077 410.002 121.733C407.854 120.464 407.268 120.464 407.268 121.44C407.268 122.222 406.194 123.101 404.827 123.394C403.46 123.784 401.799 125.151 401.213 126.519C400.627 127.788 399.651 128.765 399.065 128.569C397.893 128.179 397.893 126.909 398.87 123.003C399.26 121.343 398.87 119.487 397.6 117.437C394.866 113.042 391.838 111.382 387.542 111.968C384.514 112.358 383.733 112.944 383.147 115.288C381.975 119.39 371.917 126.909 367.327 126.909C365.178 126.909 361.663 128.179 358.049 130.23C352.971 133.159 351.995 133.355 349.065 132.476C347.112 131.89 344.67 129.937 343.108 127.983C341.741 126.03 339.299 123.101 337.835 121.538C336.37 119.878 335.002 117.534 334.807 116.167C334.612 114.214 333.928 113.628 331.585 113.53C326.116 113.042 318.401 111.187 318.401 110.308C318.401 109.038 312.639 102.593 310.393 101.421C308.831 100.542 308.342 101.03 306.78 104.644Z" fill="black"/>
<circle cx="394" cy="540" fill="#5CE50D"/>
<circle cx="424" cy="774" fill="#E52A0D"/>
<circle cx="454" cy="251" fill="#E52A0D"/>
<circle cx="676" cy="540" fill="#E52A0D"/>
</svg>
