<svg width="1000" height="1000" viewBox="0 0 1000 1000" fill="none" xmlns="http://www.w3.org/2000/svg">
<rect width="1000" height="1000" />
<path d="M470.038 37.8497C451.776 41.9397 443.405 44.8884 435.796 49.9296L430.564 53.3538V58.395C430.564 61.2485 429.899 65.0532 429.138 66.9556C427.14 71.6163 427.331 74.5649 429.994 80.272C431.801 83.9815 431.991 85.3132 431.04 85.5985C429.613 86.1692 426.76 94.1591 426.76 97.7735C426.76 99.2003 427.235 100.532 427.806 100.722C428.567 101.008 428.472 102.054 427.331 104.051C425.143 108.332 425.428 109.188 429.613 112.326C437.032 117.843 440.837 126.214 435.891 126.214C434.559 126.214 433.228 125.738 432.942 125.262C432.562 124.692 430.374 123.265 427.996 122.028L423.621 119.841L417.914 125.928C411.922 132.206 399.271 143.24 395.656 145.142C394.515 145.713 391.757 146.188 389.474 146.093C387.191 145.998 383.672 146.664 381.484 147.425C379.391 148.186 376.443 148.661 375.111 148.376C369.975 147.33 364.078 149.042 357.705 153.417C354.28 155.795 349.334 158.553 346.671 159.6C344.008 160.646 340.584 162.358 339.157 163.404C335.352 166.068 330.311 176.721 330.311 182.143L330.216 186.518L339.632 188.23C348.288 189.752 351.807 191.084 350.571 192.32C350.286 192.51 345.91 193.557 340.869 194.603C334.211 195.935 328.979 197.837 322.036 201.261C316.424 204.115 311.002 206.112 309.29 206.112C307.578 206.112 302.632 204.4 298.256 202.402C288.459 197.837 282.657 196.6 271.719 196.6C265.631 196.6 262.588 196.125 260.59 194.983C256.88 192.891 252.695 193.937 252.695 196.886C252.695 200.5 251.554 201.166 246.322 200.69C241.852 200.215 241.281 199.929 241.281 198.027C241.281 196.886 241.947 194.603 242.803 192.891C244.23 189.942 244.23 189.752 240.901 183.664C238.998 180.335 237.477 176.816 237.477 175.96C237.477 175.009 238.808 172.916 240.425 171.299C242.803 168.921 243.279 167.685 242.803 165.782C241.947 162.358 237.477 161.787 230.438 164.26C227.299 165.307 223.494 166.163 221.877 166.163C218.263 166.163 207.42 162.834 204.281 160.741C202.093 159.314 201.998 159.314 202.759 161.502C203.139 162.739 204.09 169.302 204.947 176.15L206.373 188.515L213.317 195.935C220.926 204.019 222.068 206.397 220.451 210.963C219.88 212.675 219.69 216.194 219.975 219.048C220.546 223.233 220.926 224.184 222.353 224.184C224.731 224.184 224.636 226.372 222.163 239.879C219.69 252.719 220.165 254.241 227.68 259.378C233.291 263.087 234.147 265.655 230.153 266.607C222.258 268.319 220.26 269.08 219.404 270.792C218.453 272.504 218.168 272.599 216.265 271.362C215.124 270.602 211.224 269.46 207.515 268.889C198.954 267.367 196.766 266.036 196.386 261.756L196.101 258.331L192.771 261.185L189.442 263.943L191.155 268.794C192.962 273.931 192.676 276.689 190.108 279.543C188.777 281.159 185.162 281.92 185.162 280.684C185.162 280.303 185.638 278.401 186.208 276.404C187.16 273.265 187.064 272.409 185.257 269.46C184.021 267.558 182.689 266.036 182.309 266.036C181.833 266.036 180.406 267.082 179.075 268.414C176.126 271.362 174.414 271.458 172.131 268.604C171.18 267.463 169.753 266.511 168.992 266.511C168.041 266.511 167.565 265.655 167.565 263.943C167.661 261.756 167.375 261.565 165.853 262.326C164.902 262.897 163.19 263.182 162.049 262.992C160.717 262.802 159.195 263.658 157.768 265.275C156.532 266.702 153.203 269.175 150.349 270.792C147.591 272.409 145.213 274.216 145.213 274.692C145.213 275.167 144.452 275.548 143.501 275.548C142.264 275.548 140.267 272.789 136.652 266.226C125.809 246.442 125.048 245.491 120.102 245.966C117.439 246.252 117.344 246.156 117.914 242.732C118.485 239.403 118.39 239.308 116.773 240.735C114.585 242.732 112.873 242.637 111.446 240.64C110.4 239.213 109.829 239.308 105.359 242.161C101.935 244.349 99.842 245.11 98.225 244.73C96.3227 244.254 95.9422 244.635 94.8959 247.964C92.8984 254.622 85.194 258.046 82.1502 253.671C81.3893 252.624 79.582 251.483 77.965 251.198C75.492 250.722 74.9213 251.007 73.1141 254.051C70.9264 257.666 69.6898 258.141 65.8852 256.429C64.3633 255.668 63.4121 254.241 62.9365 252.054C62.4609 249.39 61.9854 248.915 60.7488 249.485C55.6125 251.673 47.2422 254.432 44.1984 255.002C41.2498 255.573 40.584 255.383 40.584 254.051C40.584 253.005 40.1084 252.719 39.0621 253.1C38.2061 253.385 35.8281 253.956 33.6404 254.241C31.4527 254.622 28.5992 255.668 27.2676 256.524C24.3189 258.522 19.0875 260.329 16.3291 260.329C14.5219 260.329 14.1414 260.995 13.5707 264.704C13.2854 267.177 13 270.982 13 273.265C13 277.355 13.0951 277.45 16.1389 277.45C17.7559 277.45 24.0336 276.404 29.9309 275.262C39.9182 273.265 40.584 273.17 40.584 274.787C40.584 275.643 39.6328 276.974 38.4914 277.545C36.4939 278.591 36.5891 278.686 39.6328 279.923C42.0107 280.969 42.5814 281.73 42.201 283.157C41.8205 284.584 42.201 285.059 43.7229 285.059C46.6715 285.059 47.908 286.106 49.1445 289.244C49.9055 291.242 49.8104 292.288 49.0494 293.239C47.5275 295.142 46.1008 294.856 42.1059 292.193C38.6816 289.91 29.3602 286.962 25.4604 286.962C23.8434 286.962 23.4629 287.532 23.4629 289.815C23.4629 292.669 23.4629 292.669 25.8408 291.147C28.1236 289.72 28.5041 289.72 32.3088 291.147C38.3963 293.525 40.3938 295.522 41.1547 299.993C41.9156 305.129 40.8693 305.605 27.9334 306.841C22.3215 307.412 16.7096 308.078 15.2828 308.458C11.6684 309.409 14.3316 310.741 19.8484 310.741C24.1287 310.741 24.5092 311.026 26.792 314.546C28.1236 316.638 30.3113 321.109 31.7381 324.628C34.2111 330.525 34.2111 331.001 32.6893 332.142C31.1674 333.189 31.1674 333.379 32.5941 333.95C33.3551 334.235 36.2086 334.52 38.8719 334.52H43.6277L43.057 331.286C42.5814 328.908 42.7717 327.957 43.9131 327.482C44.674 327.196 45.3398 325.769 45.3398 324.248C45.3398 321.014 46.8617 319.302 49.8104 319.302C51.3322 319.302 51.9981 319.872 51.9981 321.109C51.9981 322.155 51.6176 323.296 51.0469 323.582C49.2397 324.723 50.0957 326.816 52.759 328.243C55.232 329.574 55.6125 329.479 57.0393 327.767C59.3221 325.104 60.083 325.484 63.2219 330.525C65.5047 334.235 66.8363 335.376 70.1654 336.328C76.8236 338.325 85.5744 342.605 88.4279 345.268L90.9961 347.742V344.508V341.274L95.0861 342.986C98.1299 344.317 99.0811 345.268 99.1762 346.981C99.2713 351.451 99.4615 351.736 102.22 351.451C104.313 351.261 104.883 350.69 105.073 348.027C105.454 344.222 107.737 343.937 111.351 347.361C114.871 350.595 114.585 353.068 110.21 355.351C107.451 356.778 107.451 359.251 110.305 359.251C111.541 359.251 112.968 359.726 113.539 360.297C115.251 362.009 119.056 360.963 119.341 358.585C119.531 357.443 120.197 356.017 120.958 355.446C122.004 354.59 122.575 354.875 123.621 356.968C124.953 359.441 125.429 359.631 131.516 359.631C137.794 359.726 138.079 359.821 139.03 362.485C139.791 364.768 139.601 365.433 137.508 367.241L135.035 369.333L142.264 369.428C147.115 369.428 150.635 369.999 152.632 371.045C155.866 372.662 156.627 375.135 154.249 375.991C153.203 376.467 153.108 376.943 153.964 378.274C155.01 379.986 154.725 380.747 150.539 386.359C150.064 386.93 149.969 389.403 150.349 391.686L151.015 395.871L157.103 397.393L163.285 398.915L166.044 395.871C170.134 391.21 172.321 390.354 178.409 391.02C184.211 391.686 185.733 392.542 191.155 397.678C194.959 401.293 200.571 403.29 209.607 404.431C214.173 405.002 214.553 405.287 213.697 406.904C211.795 410.424 209.227 410.899 202.093 409.187C197.432 407.951 193.342 406.048 188.396 402.719C183.355 399.39 180.121 397.868 177.077 397.488C171.846 396.917 170.134 398.154 170.134 402.434C170.134 404.241 169.848 406.429 169.563 407.475C169.087 408.902 169.658 409.568 172.416 410.519C175.936 411.755 185.162 419.936 185.162 421.743C185.162 422.313 184.116 423.074 182.879 423.36C180.121 424.026 170.895 436.105 170.895 438.959C170.895 440.005 172.512 442.954 174.414 445.522C176.316 447.995 179.55 452.18 181.548 454.844C183.545 457.412 185.923 462.358 186.969 465.782C188.396 470.538 189.823 472.916 192.962 475.864C197.622 480.43 203.044 483.379 208.276 484.14C210.178 484.425 213.031 485.566 214.458 486.613C218.358 489.371 222.258 490.132 222.258 488.23C222.258 485.471 225.111 486.613 226.728 490.132C228.06 492.795 228.726 493.366 230.343 492.89C234.147 491.654 235.86 491.939 237.667 494.412C240.235 497.836 239.284 500.405 234.052 503.448C230.248 505.731 229.962 506.112 231.104 507.538C233.577 510.297 240.33 524.66 240.33 527.133C240.33 528.845 239.855 529.51 238.428 529.51C236.811 529.51 236.716 529.796 237.477 531.984C239.189 536.264 238.618 538.737 235.955 539.403C233.101 540.164 233.387 542.066 237.191 547.963C240.425 552.909 238.618 554.146 232.911 550.817C228.25 548.058 227.489 548.249 228.345 551.768C228.726 553.385 230.343 554.907 233.196 556.334C238.333 558.997 254.598 576.403 257.451 582.396C258.783 585.059 259.829 589.815 260.305 595.807C261.541 608.933 262.588 611.977 268.485 619.301C271.338 622.82 273.621 626.34 273.621 627.006C273.621 628.813 272.385 629.384 270.768 628.432C269.721 627.767 269.055 628.527 267.914 631.571C267.058 633.759 266.012 635.566 265.536 635.566C265.061 635.566 264.3 633.759 263.919 631.476C263.539 629.098 262.017 625.959 260.21 623.772C256.785 619.682 254.027 611.502 252.79 601.229C252.125 595.236 251.364 593.619 246.798 586.961C237.286 573.074 236.05 571.457 234.908 571.362C232.626 571.362 230.723 575.928 229.867 583.347C228.631 594.571 227.109 602.941 224.065 615.592C222.543 621.869 220.831 631.286 220.355 636.517C219.785 641.749 219.024 648.407 218.548 651.26C218.073 654.114 217.787 656.587 217.978 656.777C218.168 656.968 218.929 654.78 219.785 651.831C221.307 646.79 223.209 644.602 226.348 644.602C228.25 644.602 237.477 654.209 237.477 656.302C237.477 661.248 233.482 663.055 227.489 660.772C225.872 660.106 224.35 660.106 223.209 660.772C220.451 662.199 217.787 670.664 215.695 684.647C214.648 691.685 211.224 708.711 208.085 722.598C205.042 736.486 202.188 749.707 201.808 751.99C200.096 764.26 186.208 781.571 178.028 781.571C176.316 781.571 176.316 781.476 177.648 785.281C178.504 787.849 179.17 788.229 181.928 788.229C184.211 788.229 186.018 788.99 187.54 790.607L189.918 792.89V790.607C189.918 787.183 193.723 787.468 199.525 791.273C203.615 793.841 204.186 794.697 204.186 797.456C204.186 799.168 202.854 803.448 201.332 806.967C199.715 810.392 198.479 813.626 198.479 814.006C198.479 814.482 199.715 814.862 201.237 814.862C203.33 814.862 204.186 814.291 205.137 812.009C207.61 806.016 212.746 806.016 212.746 812.009C212.746 816.384 215.505 820.094 220.165 822.091C227.775 825.42 238.238 828.178 243.279 828.178H248.51L250.603 832.459C251.744 834.837 253.742 838.451 255.073 840.544L257.451 844.348H272.099H286.652L291.123 849.96C295.498 855.382 295.783 855.572 298.637 854.716C300.349 854.241 305.866 853.575 310.907 853.194L320.229 852.624L321.275 855.762L322.416 858.901L323.748 856.333C325.27 853.48 326.506 853.289 329.55 855.287C330.977 856.333 333.355 856.714 337.54 856.523L343.532 856.238L343.247 852.338C343.057 850.151 343.627 846.821 344.388 844.919C346.005 840.924 348.003 840.544 353.329 843.302C355.232 844.253 360.463 845.87 364.934 846.726C371.021 847.963 373.78 849.009 376.157 851.197C379.296 853.86 379.582 853.86 386.335 853.289C394.8 852.528 398.225 854.05 398.225 858.521C398.225 860.043 398.986 862.23 399.937 863.372C401.459 865.274 401.934 865.369 403.837 864.418C405.549 863.467 407.831 863.467 414.585 864.418C423.716 865.75 424.857 866.606 424.857 872.218C424.857 873.74 425.714 874.691 427.616 875.357C429.328 876.022 431.325 878.115 432.942 881.064C439.886 893.239 441.122 893.714 452.061 888.958L458.814 886.01L468.231 889.814C477.552 893.619 477.647 893.619 482.403 892.192C484.972 891.431 491.63 888.483 497.051 885.629C502.568 882.776 507.705 880.493 508.465 880.493C509.226 880.493 512.746 882.015 516.265 883.822C519.88 885.629 523.018 887.151 523.304 887.151C523.684 887.151 523.018 885.915 521.972 884.393C520.831 882.871 519.975 881.064 519.975 880.303C519.975 879.542 518.453 877.544 516.646 875.737L513.316 872.503V861.565C513.316 853.67 513.792 848.724 515.029 844.348C516.55 839.212 516.646 837.69 515.599 835.312C514.648 832.934 514.743 831.983 516.17 829.035C517.311 826.847 517.597 825.23 517.026 824.279C514.933 820.854 516.836 816.384 519.499 818.667C520.545 819.523 521.116 819.142 522.353 816.669C524.731 812.199 532.15 804.589 536.81 801.831C540.805 799.453 543.659 799.263 547.749 800.975C548.89 801.546 550.507 800.594 553.456 797.456C558.687 792.034 577.711 776.625 583.228 773.486C586.176 771.679 588.459 771.108 591.027 771.298C594.451 771.584 594.642 771.774 595.498 775.769C596.639 781.095 598.922 782.047 612.238 782.998C623.652 783.759 627.267 785.186 628.028 789.18C628.694 792.414 630.311 792.985 639.156 792.985H645.529V790.132C645.529 784.995 651.236 781.476 654.09 784.9C654.756 785.661 656.087 786.327 657.134 786.327C658.941 786.327 658.941 786.232 657.514 783.949C655.897 781.476 655.517 776.149 656.848 774.057C657.609 772.915 658.751 773.201 663.792 775.674C667.121 777.386 670.735 778.718 671.782 778.718C676.538 778.718 677.299 785.281 672.923 788.515C671.496 789.561 668.072 790.607 665.028 790.988C659.892 791.558 659.797 791.653 661.129 793.461C662.46 795.363 662.555 795.363 669.404 793.556C678.44 791.273 680.437 791.368 683.386 794.222C685.288 796.124 685.764 797.646 685.764 800.975V805.35H689.664C691.851 805.35 694.61 806.016 695.846 806.872C697.939 808.394 698.129 808.394 698.985 806.872C700.317 804.494 702.314 805.065 706.69 809.06C708.877 811.057 711.636 812.96 712.777 813.34C713.919 813.721 715.821 815.528 716.867 817.24C719.055 820.759 720.672 820.759 723.525 817.335C725.047 815.433 729.898 815.433 733.037 817.24C736.366 819.142 737.603 818.952 737.983 816.574C738.269 814.482 738.744 814.386 745.212 814.482C751.395 814.482 752.156 814.291 752.631 812.484C753.012 810.867 754.819 810.106 762.619 808.204C767.755 806.967 772.416 805.731 772.891 805.445C773.367 805.065 774.033 803.448 774.413 801.831C774.984 799.168 774.794 798.692 773.177 798.692C772.13 798.692 770.704 798.026 770.038 797.17C768.991 795.839 768.991 795.458 770.418 794.507C771.274 793.841 772.796 791.368 773.842 788.895C775.84 784.139 777.362 782.998 782.783 782.047C787.825 781.095 790.678 778.432 792.485 773.011C794.102 768.16 795.054 767.494 803.043 765.877C805.421 765.401 806.563 764.26 808.56 760.645C811.604 755.033 815.123 752.085 818.738 752.085C821.211 752.085 821.496 751.799 821.496 748.946C821.496 742.858 824.064 741.622 831.579 744C833.576 744.666 833.671 744.38 833.481 736.39C833.386 728.305 833.481 728.115 836.334 725.452C837.951 724.025 839.854 722.694 840.424 722.503C841.946 721.933 843.468 708.997 842.042 708.141C840.329 706.999 835.478 707.285 827.964 708.902C824.064 709.662 819.404 710.138 817.216 709.758C811.699 708.997 798.953 702.338 793.246 697.392C786.588 691.495 784.686 687.12 784.115 675.801L783.64 666.574L789.156 657.824C794.578 649.453 794.768 648.978 793.532 646.124C792.01 642.415 786.969 638.895 783.164 638.895C780.881 638.895 779.169 637.849 775.65 634.044C769.943 627.957 763.475 618.35 763.475 615.877C763.475 613.023 768.611 608.458 771.75 608.458C773.177 608.458 780.215 606.27 787.349 603.512L800.285 598.47L800.951 591.812C801.712 584.298 802.187 584.964 792.105 578.686C787.254 575.642 786.208 574.501 785.352 571.362C784.876 569.269 783.925 565.845 783.354 563.658C782.688 560.804 781.547 559.377 779.359 558.236C777.742 557.285 775.174 555.382 773.652 553.956C771.369 551.768 770.989 550.817 771.465 548.344C772.416 543.588 774.223 541.495 780.501 538.166C787.254 534.552 787.73 533.03 783.735 526.847C781.832 523.899 780.12 522.567 777.647 521.901C775.84 521.426 773.272 519.904 771.94 518.477C769.848 516.194 769.657 515.338 769.657 505.921C769.657 499.358 769.182 494.983 768.421 493.556C767.565 492.129 767.375 490.037 767.755 487.564L768.421 483.854H763.094C756.912 483.854 740.171 488.895 739.315 490.988C738.649 492.795 740.456 498.122 742.549 500.5C744.737 502.973 743.785 505.351 739.315 509.346C734.179 513.816 728.947 516.194 724.191 516.194C721.623 516.194 719.531 516.765 718.77 517.621C716.106 520.855 713.633 518.096 713.823 512.009C713.919 509.916 715.345 507.729 719.626 503.448C722.86 500.214 725.428 497.171 725.428 496.695C725.428 496.219 724.477 493.556 723.335 490.798C721.338 485.947 721.338 485.757 722.955 481.476C724.382 477.767 724.477 476.625 723.43 474.152C722.289 471.299 722.384 471.109 725.998 467.875C734.559 460.17 738.459 456.461 741.407 453.036C744.261 449.707 744.451 449.136 744.451 441.908C744.451 437.722 744.832 433.537 745.402 432.586C746.258 430.874 749.397 429.352 754.248 428.306C755.675 427.925 756.816 427.069 756.816 426.213C756.816 425.452 759.099 422.313 761.858 419.365C768.135 412.707 774.413 404.241 775.364 401.102C775.745 399.771 776.981 397.773 778.028 396.537C779.93 394.444 779.93 394.444 778.123 394.444C773.557 394.444 772.796 390.259 775.935 383.03C777.742 378.845 778.218 378.369 781.832 377.799C784.02 377.418 787.444 376.277 789.347 375.326C791.344 374.279 793.056 373.518 793.341 373.518C794.768 373.518 796.766 376.847 796.766 379.225C796.766 384.457 801.902 383.41 808.941 376.657C815.789 370.094 816.17 368.762 812.936 360.582L810.177 353.829L812.841 340.988C815.409 328.528 815.409 328.147 813.887 323.487C811.224 315.877 813.411 305.129 819.213 296.568C821.116 293.715 821.496 292.003 821.496 286.201C821.496 282.016 821.972 278.496 822.828 277.165C823.494 276.023 824.35 272.884 824.635 270.126C825.301 264.704 826.823 260.995 831.388 254.812C837.19 246.822 838.712 245.205 841.946 244.064C844.8 243.018 845.085 242.542 844.61 240.164C844.229 238.167 844.61 236.835 846.227 235.123L848.319 232.935L846.036 231.508C830.913 222.092 826.918 220.475 813.697 218.953C805.421 218.002 801.712 217.146 799.714 215.719C796.195 213.151 795.434 213.246 790.298 216.194C786.493 218.477 785.732 218.572 782.498 217.621C779.74 216.86 778.218 216.86 776.411 217.621C773.652 218.858 771.56 217.811 770.608 214.577C769.752 211.914 762.904 212.009 762.238 214.673C761.572 217.431 757.197 217.146 752.822 214.007C749.397 211.724 742.359 202.022 735.7 190.703C733.227 186.328 733.227 186.328 727.14 185.947C722.099 185.567 720.101 185.947 714.68 188.325L708.116 191.084L700.317 186.233L692.422 181.382L684.432 183.76C671.972 187.374 670.831 187.184 668.833 180.43C667.977 177.577 667.501 177.101 665.219 177.387C662.46 177.767 662.175 177.387 661.224 171.68C660.748 168.541 660.177 167.875 655.231 165.592C633.64 155.51 630.691 153.417 631.642 149.422C632.118 147.52 631.642 146.188 629.359 143.715C626.03 139.815 625.935 138.769 628.408 130.779C630.691 123.36 630.691 123.455 628.408 124.026C627.077 124.406 626.316 125.643 625.935 128.116C624.984 133.823 622.511 136.962 614.616 142.288C606.531 147.71 603.773 148.186 595.403 145.713C586.081 142.954 582.752 137.533 588.269 134.108C589.696 133.252 591.027 132.396 591.122 132.301C591.313 132.206 590.552 130.779 589.315 129.162C587.508 126.689 587.223 125.262 587.318 118.794C587.508 112.136 587.318 111.09 585.32 109.188C582.562 106.619 577.996 105.288 572.099 105.288C568.389 105.288 567.058 105.763 564.68 108.141C561.351 111.47 561.636 111.28 558.592 109.948C555.834 108.712 554.692 105.573 553.741 97.2979C552.79 89.3081 550.507 87.2155 542.517 87.2155C535.289 87.2155 532.15 85.3132 530.438 79.7964C529.772 77.894 527.584 73.043 525.491 69.1432L521.687 62.0095L517.502 62.3899C513.697 62.6753 513.316 62.8655 513.316 65.2434C513.316 66.6702 512.746 68.6677 511.985 69.6188C510.843 71.2358 510.273 71.0456 502.473 65.4337C492.866 58.4901 490.964 55.4464 489.442 44.6981C488.301 36.2327 487.73 33.9499 486.874 34.045C486.493 34.1401 478.979 35.7571 470.038 37.8497ZM445.878 881.159C447.305 885.059 445.593 888.102 441.979 888.102C439.315 888.102 439.125 887.912 439.125 884.488C439.125 878.495 443.976 876.118 445.878 881.159Z" fill="black"/>
<path d="M968.833 806.489C968.833 806.68 968.548 809.153 968.262 812.006C967.977 814.86 967.406 817.903 966.931 818.855C965.599 821.232 965.884 823.991 967.501 825.323C969.213 826.749 968.738 830.554 966.455 835.025C964.838 838.068 962.65 838.354 958.655 836.071C956.277 834.739 955.421 834.644 951.522 835.785C947.527 836.832 947.051 837.307 947.051 839.685C947.051 843.109 943.246 845.678 935.827 847.39C931.452 848.341 930.596 848.912 929.454 851.67C928.313 854.333 927.742 854.809 925.84 854.333C924.413 853.953 923.177 854.333 922.035 855.57C920.228 857.567 920.038 858.899 920.989 864.606C921.56 868.125 921.56 868.22 918.992 867.555C916.423 866.889 916.328 866.984 916.899 870.123C917.279 871.93 918.801 874.498 920.418 875.925C921.94 877.352 923.272 878.778 923.272 878.969C923.272 879.254 921.369 880.776 919.087 882.298C914.997 885.151 914.901 885.342 915.853 888.671C916.328 890.573 916.518 892.666 916.233 893.426C915.948 894.283 916.328 894.758 917.47 894.758C919.752 894.758 924.508 897.136 926.411 899.229C927.172 900.18 928.123 902.082 928.503 903.509C928.979 905.506 928.693 906.362 927.172 907.314C926.03 907.979 925.174 909.311 925.174 910.262C925.174 911.213 924.699 912.925 924.128 913.972C923.082 915.874 923.177 915.969 926.22 915.208C931.547 913.972 935.827 914.162 936.778 915.684C937.539 916.92 936.303 920.25 930.12 932.9C930.025 933.185 931.071 933.281 932.498 933.09C935.637 932.615 945.149 936.99 945.149 938.988C945.149 939.653 943.151 941.936 940.773 944.029C938.015 946.312 936.493 948.309 936.874 949.165C937.159 949.926 942.39 952.494 948.573 954.872C955.421 957.535 960.272 960.009 960.748 961.055C961.224 962.006 961.889 963.433 962.27 964.194C962.65 964.955 963.697 965.716 964.553 965.906C965.694 966.191 966.075 965.525 966.075 963.528C966.075 958.962 968.072 953.35 970.165 951.638C971.877 950.211 971.972 949.926 970.64 949.926C968.262 949.926 967.787 948.404 968.452 944.124C969.118 940.509 969.309 940.224 971.782 940.605C974.255 940.985 974.54 940.7 975.586 936.705C976.252 934.327 977.013 926.717 977.393 919.964L978.059 907.599L982.53 899.229C985.003 894.568 987 890.002 987 889.051C987 888.1 985.954 883.344 984.718 878.398C983.386 873.547 981.959 864.511 981.388 858.328C980.532 847.77 980.342 846.819 977.108 842.158L973.779 837.212L973.113 821.708C972.543 807.536 972.352 806.299 970.735 806.299C969.689 806.299 968.928 806.394 968.833 806.489Z" fill="black"/>
<circle cx="461" cy="273" fill="#5CE50D"/>
<circle cx="676" cy="530" fill="#E52A0D"/>
<circle cx="646" cy="776" fill="#E52A0D"/>
<circle cx="348" cy="590" fill="#E52A0D"/>
</svg>
