<svg width="1000" height="1000" viewBox="0 0 1000 1000" fill="none" xmlns="http://www.w3.org/2000/svg">
<rect width="1000" height="1000" />
<path d="M498.005 21.3046C493.881 21.7732 488.726 22.5231 486.476 22.9917C483.758 23.6478 478.884 23.6478 471.666 22.898C459.013 21.7732 457.607 22.2419 458.544 27.5846C458.919 29.9279 458.638 31.3339 457.513 32.5524C456.201 34.0521 456.107 42.6755 456.482 128.909L456.95 223.579H434.83C422.644 223.579 368.655 223.11 314.758 222.642L216.902 221.705L213.527 219.08C207.997 214.581 206.122 213.925 200.78 214.487C197.499 214.862 194.687 215.799 192.719 217.393C188.501 220.58 181.752 223.579 178.659 223.579C176.316 223.579 176.128 223.767 177.065 225.829C177.628 227.047 179.034 228.453 180.252 229.016C182.033 229.859 182.408 230.89 182.971 238.295C183.252 242.794 183.908 246.637 184.377 246.825C187.845 247.95 188.313 249.543 189.157 261.072C189.719 267.54 190.469 277.007 190.938 282.068C191.688 290.692 191.594 291.723 189.532 296.784C188.313 299.784 187.282 302.877 187.282 303.72C187.282 304.47 186.814 305.126 186.345 305.126C184.564 305.126 183.439 300.159 184.095 294.722C184.47 291.723 184.47 288.536 184.095 287.692C183.533 286.192 183.345 286.192 181.752 287.692C180.065 289.286 179.877 289.286 178.846 287.411C178.284 286.286 176.878 285.443 175.659 285.443C174.441 285.443 172.098 285.161 170.317 284.786C167.692 284.318 167.505 284.13 169.004 283.474C170.035 283.099 173.129 282.724 175.847 282.724L180.721 282.631V278.038C180.721 273.539 180.627 273.445 177.534 272.882C173.504 272.133 169.848 272.976 166.38 275.413C164.318 276.819 162.818 277.1 159.819 276.725C156.632 276.257 155.507 276.538 153.726 278.225C152.32 279.537 149.883 280.381 146.696 280.756C141.166 281.318 140.697 282.162 140.51 291.723C140.416 297.159 140.603 297.628 142.478 297.628C143.603 297.628 145.196 296.972 146.04 296.222C147.54 294.816 148.008 295.097 151.476 299.221C154.757 303.252 159.631 311.594 166.286 324.904C167.505 327.247 169.192 329.778 170.035 330.528C172.004 332.121 178.003 331.653 179.409 329.872C180.346 328.653 180.908 329.028 183.158 332.215C186.439 336.714 196.281 342.619 200.498 342.619C202.373 342.619 204.998 343.838 207.997 345.994L212.59 349.368L222.901 348.993C228.618 348.899 233.211 348.806 233.211 348.899C233.211 348.899 231.243 350.118 228.806 351.524C226.275 352.93 223.463 355.18 222.338 356.492C221.026 358.085 220.182 358.554 219.714 357.804C219.339 357.148 217.37 356.679 215.308 356.679C212.121 356.679 211.653 356.96 211.653 358.741C211.653 359.96 212.965 362.959 214.465 365.584C215.964 368.115 217.277 370.833 217.277 371.583C217.277 373.926 214.371 370.645 212.403 366.052C209.778 360.054 207.247 357.617 203.498 357.617C201.717 357.617 198.811 356.96 196.937 356.211C192.719 354.43 190.375 354.43 186.907 356.211C183.908 357.804 182.596 357.335 182.596 354.898C182.596 351.243 176.597 348.806 171.535 350.493C169.473 351.149 169.379 351.524 170.035 356.304C170.598 360.991 170.504 361.366 168.723 361.366C167.223 361.366 166.755 360.522 166.192 356.211C165.724 351.805 165.161 350.774 161.974 348.243C157.756 344.869 154.007 344.588 151.008 347.493C149.789 348.618 148.852 349.087 148.852 348.525C148.852 348.056 149.696 346.837 150.82 345.806C152.601 344.213 152.695 343.182 152.414 335.027C152.133 325.373 150.633 321.998 146.884 321.998C144.634 321.998 140.135 327.997 140.791 330.153C141.072 331.09 141.916 338.12 142.759 345.9C143.603 353.586 144.915 361.928 145.759 364.459C146.696 367.458 146.977 370.833 146.602 374.77C146.321 377.956 146.134 383.768 146.134 387.798C146.134 395.391 144.728 401.671 141.353 408.232C139.479 411.981 139.291 413.106 139.947 421.917L140.603 431.571L135.823 438.414C133.292 442.163 128.606 448.068 125.513 451.536C122.419 455.005 119.701 458.66 119.326 459.691C119.045 460.722 116.702 463.066 114.265 464.846C109.672 468.221 107.61 472.345 107.61 478.25C107.61 480.125 106.672 481.906 104.798 483.687C102.642 485.749 101.986 487.061 102.454 488.655C102.829 490.154 102.173 491.748 100.111 494.278C97.674 497.184 97.2991 498.496 97.2991 502.996C97.2991 508.713 96.6429 511.338 95.3307 511.338C94.862 511.338 94.4871 508.62 94.4871 505.339C94.4871 500.184 94.2059 499.059 92.3312 497.559C89.0506 494.935 86.0512 490.154 86.0512 487.53C86.0512 486.03 85.2076 484.624 83.7079 483.593C80.6147 481.531 78.0839 482.187 78.1776 485.093C78.2714 487.717 77.1466 488.842 74.1471 488.842C72.3662 488.842 72.085 489.498 71.5226 493.997C71.1477 496.809 70.4916 499.153 70.0229 499.153C69.5543 499.153 69.1793 498.59 69.1793 497.934C69.1793 497.278 67.9608 495.778 66.5548 494.747C64.3052 493.06 63.6491 491.654 62.8055 486.124C61.3058 477.125 59.15 471.97 56.9004 471.97C55.9631 471.97 55.1195 471.595 55.1195 471.127C55.1195 470.658 54.0884 470.002 52.7761 469.721C50.9952 469.252 50.4328 468.502 50.4328 466.721C50.4328 465.221 49.9642 464.472 49.308 464.753C48.4645 465.034 48.1833 466.909 48.277 470.377C48.4645 474.97 49.0269 476.657 52.7761 482.468C55.4944 486.592 57.4628 490.81 57.8377 493.435C58.3064 495.966 60.0873 500.184 62.3369 503.558C64.399 506.745 66.6486 511.244 67.3047 513.587C68.0545 516.399 69.4605 518.649 71.054 519.774C73.1161 521.273 73.6785 522.492 74.1471 526.804C74.7095 532.146 74.9907 532.615 88.0196 550.33C90.4566 553.611 91.1127 555.579 92.05 563.547C92.7999 570.295 93.6435 573.576 95.2369 575.732C96.3617 577.325 97.2991 579.669 97.2991 580.981C97.2991 582.668 98.7988 584.824 102.079 587.917C104.704 590.354 108.359 594.947 110.234 598.04C112.109 601.133 116.889 608.07 120.826 613.506C127.387 622.504 128.137 624.004 129.918 631.784C131.043 636.377 131.886 642.938 131.886 646.312C131.886 653.53 133.855 660.935 135.823 660.747C136.573 660.654 137.979 660.466 139.01 660.279C140.229 659.997 140.885 660.466 141.166 661.778C141.728 664.965 146.977 667.777 146.977 664.872C146.977 663.372 151.758 658.498 153.164 658.498C153.82 658.498 155.694 660.466 157.382 662.903C160.194 666.934 160.475 667.121 161.131 665.246C161.693 663.84 162.724 663.184 164.505 663.184C166.661 663.184 167.692 664.122 170.598 668.715C173.691 673.589 173.972 674.713 173.129 677.057C172.285 679.494 172.566 680.056 176.503 684.087C179.971 687.461 180.815 688.961 180.533 691.023C180.065 695.053 177.722 694.585 174.816 689.898C172.566 686.43 171.629 685.68 169.286 685.68C166.567 685.68 166.474 685.493 167.036 682.587C168.911 673.495 169.004 673.964 164.974 672.745C162.912 672.089 160.194 671.62 158.975 671.62C157.663 671.62 155.507 670.777 154.101 669.652C152.133 668.058 151.664 667.965 151.664 669.183C151.664 671.62 147.165 670.964 141.541 667.777L136.479 664.872L138.354 667.59C139.385 668.996 141.166 671.058 142.291 672.089C143.509 673.12 146.884 677.15 149.789 680.993C152.789 684.837 157.194 689.898 159.631 692.241C162.068 694.585 168.161 701.333 173.222 707.332L182.314 718.205L182.971 725.048C183.814 733.577 186.814 740.42 191.969 745.2C194.875 747.918 195.624 748.293 194.781 746.794C194.218 745.575 196.749 747.825 200.592 751.855C204.342 755.792 211.465 762.634 216.339 767.04C221.213 771.445 227.025 777.632 229.181 780.819C231.993 785.037 236.585 789.629 245.115 796.566C251.676 802.002 261.331 810.063 266.486 814.562C271.641 818.968 278.109 823.654 280.827 824.873C284.67 826.654 290.575 831.903 307.541 848.493C319.445 860.21 330.693 871.926 332.38 874.551C334.723 878.113 336.317 879.519 339.223 880.55C342.128 881.487 343.722 882.893 345.784 886.08C347.284 888.423 348.315 891.048 348.127 891.892C347.94 892.641 347.471 895.735 347.096 898.64L346.534 903.889L351.033 906.514C363.499 913.731 373.997 921.98 386.651 934.821C396.681 944.944 400.242 949.256 401.273 952.255C402.773 956.473 411.397 968.846 417.77 975.782C419.926 978.125 421.801 980 421.988 980C422.176 980 425.738 973.158 429.956 964.722C435.392 953.755 439.329 947.287 444.109 941.382L450.67 933.134H456.857C466.136 933.134 470.26 929.947 471.76 921.605L472.51 917.949L477.759 918.512C488.351 919.73 487.507 919.074 496.787 932.946C501.473 940.07 505.785 946.069 506.254 946.444C508.503 947.85 522.844 950.849 528.093 951.037C532.311 951.13 534.842 950.568 538.685 948.787C547.027 944.85 547.215 943.163 540.091 938.289C529.968 931.353 529.781 927.041 538.498 908.201C541.872 900.702 545.528 894.141 546.465 893.672C547.496 893.11 548.152 891.704 548.152 890.204C548.152 887.861 547.684 887.58 540.372 885.518C533.811 883.643 532.03 882.706 528 878.769C524.813 875.77 520.97 873.239 516.189 871.177C509.816 868.458 508.878 867.802 508.035 864.897C507.191 862.366 507.285 861.054 508.41 858.991L509.722 856.273L513.19 857.96C516.471 859.46 516.564 859.46 517.595 857.773C518.158 856.742 519.564 854.961 520.689 853.742C521.907 852.524 523.126 850.368 523.407 848.962C523.782 847.556 524.906 845.775 525.938 844.932C527.812 843.432 527.531 842.963 514.408 825.998L500.911 808.563L498.755 812.125C497.537 814.187 495.287 816.249 493.694 816.906C491.069 818.03 490.6 818.03 489.382 816.343C485.914 811.563 487.788 804.814 493.319 802.19C496.88 800.502 503.254 787.755 503.91 781.1C504.285 777.069 503.91 776.038 500.349 770.508C496.412 764.509 496.412 764.228 497.162 759.448C497.818 755.698 497.63 753.074 496.412 748.481C494.162 739.67 494.256 738.17 497.068 738.17C502.504 738.17 507.941 740.42 509.816 743.513C510.847 745.106 512.534 746.794 513.565 747.075C514.502 747.45 516.002 748.95 516.752 750.449L518.251 753.167L523.501 748.012C527.906 743.701 529.218 742.951 532.124 742.951C536.529 743.044 545.903 740.795 547.402 739.295C549.933 736.764 553.12 738.077 559.025 743.888L564.837 749.699L597.081 741.92C614.796 737.702 629.793 733.671 630.543 733.109C633.449 730.859 635.417 724.204 635.23 717.737C635.136 712.769 635.511 710.8 637.104 708.176C639.823 703.677 639.635 701.052 636.542 699.553C632.605 697.678 630.262 692.054 629.887 683.337C629.606 678.931 628.95 675.088 628.106 673.776C627.169 672.37 626.981 670.683 627.356 668.808C628.012 665.996 628.106 665.903 629.324 667.684C629.981 668.715 631.855 670.027 633.449 670.495C635.886 671.339 636.448 671.245 637.667 669.464C638.417 668.34 639.073 666.184 639.073 664.59C639.166 662.247 640.01 661.122 644.603 657.842C651.727 652.593 653.507 652.686 655.851 658.029C657.913 662.716 659.413 663.184 663.443 660.372L666.068 658.498L667.005 661.122C667.567 662.528 668.317 664.59 668.598 665.715C669.161 667.871 671.41 668.433 677.69 667.965C681.252 667.684 685.939 670.308 685.939 672.558C685.939 673.589 686.97 675.088 688.376 675.932C689.688 676.869 690.532 678.088 690.251 678.838C689.969 679.588 690.344 681.65 691.094 683.524C691.844 685.305 692.5 688.023 692.5 689.523C692.5 691.398 693.25 692.616 695.312 693.835C697.655 695.147 698.124 695.991 697.655 697.772C697.28 699.178 697.655 700.584 698.686 701.708C699.53 702.646 699.999 704.052 699.624 704.989C699.249 705.926 699.718 707.332 700.842 708.551C701.873 709.676 702.811 711.55 702.998 712.863C703.186 714.643 703.935 715.3 706.091 715.487C710.122 715.956 714.059 719.986 714.059 723.642C714.059 725.891 714.621 726.922 716.308 727.672L718.558 728.703L715.933 734.14C714.527 737.139 713.028 740.607 712.653 741.92C711.996 744.075 712.278 743.982 716.402 740.607L720.807 736.952L725.681 738.639C728.306 739.576 732.243 741.263 734.399 742.576C738.242 744.732 738.523 744.732 740.772 743.232C743.491 741.451 742.647 741.263 759.519 747.356C768.611 750.637 771.142 751.199 780.702 751.668L791.575 752.136L793.263 748.387C794.575 745.669 795.7 744.45 797.574 744.075C799.261 743.794 801.042 742.295 802.542 740.045C804.042 737.702 805.916 736.202 807.697 735.827C809.478 735.452 810.79 734.327 811.447 732.64C812.103 731.234 815.946 726.735 819.976 722.704C826.444 716.237 827.475 714.831 827.475 711.925C827.569 709.582 828.412 707.614 830.662 705.083L833.849 701.521L837.036 705.27C840.129 708.926 843.409 717.08 843.409 721.111C843.409 722.236 844.628 724.485 846.221 726.266C847.815 728.141 849.221 731.047 849.596 733.296C850.158 736.952 850.439 737.233 853.251 737.233C855.501 737.233 856.438 737.795 857.282 739.576C858.125 741.451 858.125 741.92 857.094 741.92C856.438 741.92 854.095 744.075 851.939 746.606C848.283 751.012 848.002 751.668 848.565 755.136C849.127 758.417 849.783 759.073 853.72 761.135L858.219 763.384L860.656 761.51C863.187 759.541 869.654 757.948 869.654 759.354C869.748 762.072 871.248 762.541 875.653 761.041C878.934 759.916 880.434 759.822 881.184 760.572C882.871 762.26 887.464 761.791 888.12 759.916C888.401 759.073 889.62 757.292 890.744 755.979C891.963 754.667 893.088 752.136 893.463 750.262C894.306 745.763 895.993 744.45 904.523 741.92L911.647 739.857L908.46 736.577C906.679 734.89 905.273 733.015 905.273 732.546C905.273 732.171 903.867 731.328 902.18 730.765C899.93 730.016 898.524 728.61 897.118 725.704L895.15 721.673L900.492 718.674C905.741 715.768 905.835 715.768 905.46 711.925C905.085 708.645 905.367 707.988 906.96 707.52C908.553 707.145 909.303 705.645 910.522 700.021C911.647 694.866 911.74 692.71 910.99 691.96C910.428 691.398 909.959 688.68 909.959 685.961V680.993H913.521C915.958 680.993 917.739 680.337 918.864 679.119C919.708 678.182 923.363 676.213 926.831 674.901C930.299 673.589 934.142 671.433 935.267 670.214C937.423 667.965 937.423 667.777 936.017 664.778C935.08 662.716 934.799 661.122 935.361 660.279C936.392 658.685 936.392 653.155 935.361 650.53C934.892 649.312 935.173 647.531 936.298 645.375C937.329 643.594 938.079 641.626 938.079 640.876C938.079 640.126 938.829 639.939 940.422 640.314C942.11 640.689 942.766 640.501 942.766 639.564C942.766 637.783 940.891 636.002 938.829 636.002C937.892 636.002 936.579 634.783 935.83 633.284C934.986 631.784 933.299 629.347 931.987 627.753L929.643 624.941L932.83 624.379C935.548 623.817 936.205 623.254 936.767 620.724C937.517 617.162 938.548 616.318 942.391 616.318C945.953 616.318 947.265 613.975 944.64 612.569C941.641 610.975 940.516 607.976 942.11 606.195C942.859 605.351 943.703 603.57 943.891 602.258C943.984 600.946 945.109 599.54 946.234 598.978C947.359 598.509 948.577 597.009 948.858 595.697C949.421 593.729 948.765 592.698 944.734 588.948C939.391 584.074 938.642 580.887 941.735 577.513C942.766 576.388 943.984 573.201 944.453 570.389C945.39 565.703 945.203 564.859 943.141 561.297C941.735 558.766 940.891 555.954 940.891 553.236C940.891 550.518 940.235 548.268 939.016 546.675C937.985 545.363 937.142 543.582 937.142 542.738C937.142 541.895 936.486 539.926 935.642 538.426C934.517 536.177 934.33 534.021 934.892 528.116C935.548 520.711 935.642 520.524 939.954 516.024C945.578 510.213 946.14 508.245 943.047 504.214C940.985 501.402 940.797 500.465 941.36 496.622C941.735 493.81 943.234 490.248 945.297 487.342C947.265 484.437 948.765 480.875 949.046 478.438C949.327 476.188 950.264 473.564 951.014 472.626C952.326 471.127 952.139 470.658 948.109 466.534C945.672 464.097 943.703 461.285 943.703 460.441C943.703 459.504 942.203 457.91 940.422 456.879C938.173 455.473 937.142 454.255 937.142 452.755C937.142 451.068 936.392 450.318 933.674 449.381C931.705 448.724 928.237 447.225 925.988 446.006C921.395 443.569 915.208 443.194 910.334 444.975C907.616 445.913 906.96 445.819 905.273 444.319C903.679 442.913 903.023 442.819 900.961 443.663C899.743 444.319 898.524 444.788 898.337 444.788C898.149 444.788 897.774 441.695 897.587 437.945C897.024 430.353 892.9 420.417 890.276 420.417C889.432 420.417 886.995 419.105 884.839 417.512C881.277 414.887 880.621 414.7 877.715 415.731C874.997 416.574 873.31 416.481 867.967 414.887C859.344 412.263 857.188 412.356 855.595 415.262L854.376 417.605L852.595 415.075C850.064 411.232 850.158 398.671 852.783 395.391C853.814 394.078 854.657 392.016 854.657 390.892C854.657 389.767 855.688 387.892 857.001 386.674C858.688 385.08 859.344 383.487 859.344 380.956C859.344 378.988 858.875 377.113 858.313 376.738C857.375 376.176 857.657 373.926 858.969 370.458C859.344 369.427 858.594 368.864 856.532 368.396L853.626 367.74L853.814 361.553C853.907 357.148 853.345 353.586 851.939 349.743C849.408 342.526 849.408 341.588 852.689 338.495C854.189 337.089 856.813 332.777 858.5 328.934C861.312 322.373 861.968 321.623 868.623 317.03C876.497 311.594 878.465 308.688 878.559 302.314C878.559 298.096 878.559 298.096 884.183 295.378C889.526 292.847 889.901 292.754 894.494 293.878C897.024 294.535 901.242 295.097 903.773 295.003C907.804 294.91 908.647 294.535 911.459 291.254C913.146 289.286 917.364 285.818 920.739 283.568C926.363 279.912 926.738 279.444 925.425 277.944C922.895 275.132 923.738 271.664 927.769 268.008C930.018 265.946 931.518 263.79 931.518 262.572C931.518 260.416 935.08 256.385 936.954 256.385C937.517 256.385 939.204 254.605 940.516 252.449C942.766 248.981 942.859 248.231 941.922 245.513C941.266 243.825 940.891 240.638 940.985 238.389C941.266 233.702 940.141 231.359 934.705 224.985C931.799 221.517 930.674 219.267 930.393 216.643C930.112 213.175 929.924 212.894 924.863 211.113C920.645 209.613 919.145 208.488 916.802 204.926C912.303 198.178 911.553 194.71 912.303 184.024L912.959 174.651L910.334 171.933C908.928 170.433 907.241 169.214 906.585 169.214C905.929 169.214 903.023 167.902 900.024 166.309L894.587 163.497L886.339 164.528L878.09 165.653L874.716 162.747C871.81 160.216 870.779 159.841 865.624 159.841C861.312 159.747 858.969 159.279 856.438 157.685C853.439 155.904 852.127 155.717 845.659 156.092L838.254 156.56L835.63 161.435L833.005 166.402L830.099 164.903C827.475 163.497 827.194 163.59 825.225 165.371C823.913 166.59 821.851 167.34 819.789 167.34C817.914 167.34 815.946 167.996 815.29 168.746C814.634 169.589 812.29 170.62 810.041 171.183C807.229 171.933 805.26 173.245 803.573 175.401C802.261 177.182 800.292 178.588 799.261 178.588C798.23 178.588 796.168 179.431 794.762 180.556L792.138 182.524L785.858 179.994C781.64 178.306 779.015 177.744 777.609 178.213C776.391 178.588 774.61 178.869 773.485 178.681C772.454 178.588 770.86 179.337 769.829 180.462C768.892 181.493 767.58 182.337 766.924 182.337C766.268 182.337 764.205 183.649 762.331 185.243C759.05 188.148 756.238 188.711 749.208 188.055C748.177 187.961 746.115 188.148 744.522 188.43C741.991 188.992 741.616 188.711 740.679 185.805C739.273 181.212 740.679 178.588 744.522 178.588C747.052 178.588 747.802 178.119 748.833 175.588C749.489 173.995 749.958 171.745 749.864 170.714C749.771 169.589 750.146 167.433 750.708 165.84C752.02 161.716 749.489 154.78 745.178 150.187C742.366 147.281 741.803 146.062 742.085 143.438C742.272 140.438 742.085 140.157 739.929 140.157C738.054 140.157 737.117 139.314 735.617 136.314C734.399 134.065 733.93 131.815 734.305 130.971C734.961 129.284 736.554 116.537 736.836 110.819C736.929 108.569 737.398 107.351 738.242 107.351C741.616 107.351 743.397 94.9782 740.866 88.0421C739.648 84.3865 739.648 84.2927 742.741 80.7309C744.99 78.2001 745.928 76.138 745.928 73.9822C745.928 71.4514 746.584 70.5141 750.333 68.077C757.082 63.5779 758.207 60.9534 759.05 47.8308C759.425 41.6445 759.519 36.1143 759.238 35.6456C758.956 35.0832 757.457 33.1148 755.957 31.2402C753.333 27.8658 753.145 27.8658 750.895 29.2718C748.74 30.6778 748.552 30.6778 746.115 28.2407C742.366 24.6789 735.898 24.8664 729.524 28.6157C725.4 31.0527 723.994 31.4276 717.339 31.4276C713.215 31.4276 708.247 31.0527 706.373 30.584C703.842 30.0217 702.436 30.1154 700.936 31.1464C698.78 32.7399 693.719 32.4587 687.157 30.3966C683.502 29.2718 682.846 29.3655 678.44 31.4276C673.754 33.5835 673.566 33.5835 669.254 32.0837C666.724 31.1464 662.131 30.4903 658.194 30.4903C654.351 30.4903 650.039 29.9279 648.165 29.0844C646.29 28.3345 643.291 27.6783 641.416 27.6783C639.541 27.6783 635.979 26.6473 633.449 25.335C628.856 22.9917 628.668 22.9917 623.701 24.3977L618.639 25.8974L613.765 22.898L608.984 19.9923L600.83 23.3666C596.331 25.2413 591.269 26.741 589.582 26.741C587.895 26.741 585.645 27.2097 584.614 27.6783C583.302 28.4282 582.271 28.2407 580.302 26.9285C577.772 25.2413 576.553 25.1476 553.776 25.9911C526.031 26.9285 522.657 26.6473 515.252 22.898C512.253 21.3983 508.785 20.2735 507.66 20.3672C506.441 20.3672 502.13 20.8359 498.005 21.3046ZM244.928 347.962C249.146 348.525 249.239 348.618 247.177 349.743C244.272 351.336 240.71 351.336 237.054 349.837C231.805 347.587 235.648 346.65 244.928 347.962Z" fill="black"/>
<circle cx="181" cy="318" fill="#5CE50D"/>
<circle cx="78" cy="500" fill="#E52A0D"/>
<circle cx="411" cy="733" fill="#E52A0D"/>
<circle cx="660" cy="318" fill="#E52A0D"/>
</svg>
