<svg width="1000" height="1000" viewBox="0 0 1000 1000" fill="none" xmlns="http://www.w3.org/2000/svg">
<rect width="1000" height="1000" />
<path d="M609.069 17.6382C609.069 18.8672 607.273 20.758 603.964 23.0269C599.048 26.4304 598.764 26.5249 596.684 25.0123C595.455 24.1614 593.092 23.4996 591.39 23.4996C588.932 23.4996 587.987 24.0669 586.852 26.3358C585.718 28.5103 585.623 29.6448 586.379 31.0629C587.23 32.67 586.852 33.1428 583.732 34.7499C581.747 35.7899 579.572 37.3025 578.911 38.0588C578.06 39.0988 576.074 39.5715 572.671 39.5715C567.282 39.5715 566.242 40.3278 562.461 47.2292L560.759 50.2545L557.545 47.1346C555.748 45.3384 554.236 43.3531 554.236 42.6913C554.236 40.3278 550.36 39.5715 538.637 39.5715C528.994 39.5715 526.63 39.8551 526.252 40.9896C525.401 43.0695 523.037 42.6913 520.39 40.3278C518.027 37.9643 507.911 36.4517 497.512 36.6407C450.147 37.7752 449.391 37.7752 446.271 36.0735C444.002 34.939 440.126 34.3718 431.712 34.0881C420.651 33.71 420.178 33.8045 419.516 35.6953L418.949 37.6807L327.056 37.397C240.363 37.2079 235.163 37.3025 234.879 38.8151C234.69 39.7606 235.541 41.8405 236.675 43.4476C238.661 46.2838 238.661 46.4729 237.148 49.5927C236.297 51.389 234.596 53.3743 233.272 53.9416C231.948 54.5088 230.625 56.0214 230.436 57.2505C230.152 58.4795 229.774 60.5594 229.396 61.9775C229.112 63.4901 227.221 68.028 225.047 72.0933C221.644 78.7111 221.36 79.751 222.684 80.6964C224.007 81.6418 224.007 82.209 222.116 86.3688L219.942 90.9067L223.534 101.117C227.694 113.313 228.167 114.258 232.516 119.08C235.636 122.483 236.108 122.672 239.701 122.105C243.104 121.632 243.482 121.727 242.915 123.145C242.537 124.09 242.253 125.225 242.253 125.698C242.253 126.265 241.024 127.021 239.606 127.588C236.865 128.534 233.745 133.45 233.745 136.948C233.745 138.933 242.442 146.402 244.711 146.402C246.697 146.402 243.01 153.209 239.89 155.289C237.904 156.612 237.715 157.179 238.472 158.692C239.89 161.339 240.646 171.077 239.606 173.818C238.944 175.615 239.323 177.6 241.402 182.705C243.955 188.756 244.05 189.607 243.199 195.185C242.253 200.762 242.348 201.613 244.617 205.962C245.94 208.515 246.98 211.067 246.98 211.54C246.98 212.107 245.09 215.322 242.821 218.725L238.661 224.965L240.552 229.408C241.592 231.866 243.293 234.891 244.144 236.215C245.751 238.389 245.751 238.578 243.577 242.076C240.741 246.52 241.308 249.734 245.468 252.476C247.075 253.516 250.006 256.447 251.991 258.999C254.827 262.686 255.583 264.388 255.583 267.602C255.583 269.871 255.678 273.842 255.773 276.584C255.962 281.027 255.583 281.878 252.747 284.809C249.722 287.928 249.627 288.212 250.762 291.048C251.424 292.75 253.031 294.452 254.26 294.924C257.474 296.153 256.907 298.706 252.653 302.866C250.573 304.851 248.209 308.349 247.358 310.618C246.508 312.887 245.279 314.683 244.617 314.683C244.05 314.683 243.104 316.952 242.537 319.599C241.97 322.341 241.308 325.272 240.93 326.028C239.701 328.864 242.537 330.755 250.762 332.551C258.703 334.253 258.798 334.253 258.609 336.995C258.231 341.154 260.972 348.718 262.863 348.718C264.092 348.718 264.47 349.663 264.659 353.161C264.754 355.714 264.943 359.401 265.037 361.481C265.132 363.56 264.943 366.113 264.565 367.248C263.998 368.666 264.376 369.422 266.077 370.178C268.157 371.124 268.63 373.298 275.248 413.761C279.029 437.207 281.96 456.966 281.677 457.722C281.109 459.235 272.317 461.409 268.441 461.031C266.456 460.842 265.416 461.315 264.281 463.3C262.769 465.664 262.769 466.042 264.187 467.555C265.605 469.162 269.292 479.089 268.63 479.561C268.441 479.656 264.848 480.696 260.689 481.925C253.882 483.816 252.558 484.572 247.453 489.677C244.05 492.986 240.93 495.255 239.701 495.255C237.904 495.255 237.621 495.917 237.054 501.4C236.486 506.316 235.919 507.923 234.123 509.341C232.61 510.476 231.854 512.083 231.854 513.974C231.854 515.486 231.192 517.283 230.436 517.944C229.679 518.606 229.018 519.741 229.018 520.497C229.018 521.159 228.356 522.01 227.505 522.388C226.654 522.672 223.534 528.249 220.415 534.773C215.215 545.739 214.837 547.063 214.837 553.303C214.837 557.84 213.513 565.971 210.677 578.45L206.517 596.791L208.692 599.627L210.866 602.463L205.288 610.499C200.656 617.212 199.71 619.102 199.71 622.506V626.477L195.078 627.138C192.431 627.517 189.973 628.273 189.5 628.84C188.933 629.502 184.678 637.16 179.857 646.046C169.646 664.954 168.323 669.492 170.686 677.056C173.05 684.524 172.861 687.171 170.025 687.171C165.487 687.171 162.84 692.938 166.149 695.68C167.188 696.531 167.567 698.8 167.567 703.81C167.567 708.254 168.607 714.966 170.497 722.813C172.105 729.431 173.712 738.318 174.09 742.477C174.657 749.473 174.846 750.041 177.021 750.513C179.006 750.986 180.046 752.782 183.733 762.142C186.853 770.083 188.271 775.283 188.744 780.199C189.216 785.588 190.445 789.464 193.943 797.5L198.576 807.994L197.725 817.731C196.401 834.843 196.118 833.709 201.696 833.709H206.517L206.139 837.679C205.855 839.948 206.139 843.163 206.517 844.864C207.368 847.984 207.557 848.079 210.866 847.417C212.757 847.039 215.498 846.188 217.011 845.432C219.469 844.108 220.225 844.202 225.992 846.093C235.73 849.308 235.068 848.551 235.73 857.911C236.108 863.394 237.148 868.783 238.85 873.321C240.268 877.292 241.308 882.397 241.308 885.044C241.308 889.393 241.119 889.676 239.133 889.204C237.999 889.015 236.297 888.447 235.446 888.069C233.934 887.502 233.745 887.975 233.745 891.473C233.745 893.931 233.083 896.2 232.138 897.239C230.719 898.847 230.719 899.13 232.61 901.116C233.934 902.534 234.69 904.519 234.69 906.599C234.69 908.395 235.825 912.177 237.148 915.013C240.363 922.009 239.795 923.994 234.123 924.845C231.759 925.129 226.843 925.129 223.345 924.845C219.091 924.373 216.822 924.562 216.349 925.318C215.215 927.114 204.815 926.547 200.561 924.467C197.63 922.954 195.361 922.576 190.445 922.765C184.395 923.049 184.111 923.143 183.828 925.507C183.544 927.87 183.828 928.06 198.954 932.314C211.055 935.812 217.484 937.041 229.018 938.175C242.159 939.593 245.373 940.255 260.878 945.36C270.332 948.386 281.204 951.411 284.985 951.978C299.261 954.247 311.551 959.541 316.278 965.592C317.696 967.388 320.154 969.563 321.667 970.319C323.18 971.17 324.692 972.777 325.07 974.006C325.449 975.708 326.678 976.559 329.797 977.41C332.823 978.26 334.43 979.395 335.47 981.286C337.172 984.595 340.008 984.878 345.302 982.137C347.382 981.097 350.313 980.246 351.92 980.246C354.283 980.246 355.796 979.206 359.578 975.141C362.603 971.737 365.817 969.468 369.126 968.05C371.868 966.916 375.744 965.214 377.635 964.174C379.526 963.134 381.889 962.283 382.929 962.283C385.198 962.283 387.845 959.352 387.845 956.8C387.845 953.964 392.572 951.033 398.906 949.804C401.932 949.237 404.862 948.669 405.43 948.575C405.997 948.386 406.753 946.495 407.131 944.415C407.699 940.917 407.982 940.539 410.44 940.539C411.953 940.539 414.6 939.972 416.302 939.215C418.098 938.459 422.636 937.419 426.512 936.852C430.388 936.19 434.642 934.961 436.061 933.921C437.573 932.881 440.22 932.03 442.206 932.03C444.096 932.03 448.54 931.179 451.943 930.234C455.441 929.194 461.965 927.776 466.597 926.925C475.011 925.318 485.221 921.064 491.083 916.62C492.879 915.202 495.904 913.406 497.89 912.65C501.199 911.231 501.577 911.231 502.711 912.744C503.751 914.257 504.697 914.351 512.922 913.311C517.932 912.65 524.267 912.177 527.197 912.177C532.775 912.177 533.626 911.704 543.458 902.628C550.549 896.01 561.799 891.094 574.373 889.015C578.533 888.353 584.016 883.909 584.867 880.506C585.245 879.088 588.176 876.157 592.524 872.943C598.008 868.877 600.371 867.743 603.018 867.743C604.909 867.743 610.771 866.325 616.159 864.529C621.454 862.732 629.584 860.085 634.217 858.667C638.849 857.344 644.238 855.169 646.223 853.846C648.114 852.617 651.045 851.388 652.652 851.009C654.448 850.726 657.095 848.646 659.932 845.526C662.862 842.123 665.509 840.232 667.873 839.57C669.858 839.003 672.6 837.774 674.018 836.828C675.436 835.788 682.338 832.763 689.144 830.116L701.718 825.105L709.943 826.24C718.074 827.28 751.352 827.847 752.203 826.996C752.486 826.807 752.203 824.916 751.635 822.836C750.217 817.542 749.556 806.859 750.69 807.615C751.163 807.899 751.825 809.979 752.108 812.153C752.297 814.422 753.904 819.055 755.606 822.553L758.631 828.982H766.951C771.867 828.982 776.878 828.414 779.241 827.563C781.416 826.807 785.67 826.145 788.601 826.145C792.95 826.145 794.651 825.673 797.298 823.687C799.095 822.364 801.08 820.946 801.742 820.567C802.404 820.189 804.389 814.422 806.091 807.615C807.887 800.903 809.683 794.474 810.156 793.34C811.007 790.882 819.515 784.169 827.835 779.159C836.533 773.959 836.249 774.432 833.98 770.367C832.184 767.247 831.333 766.68 827.551 766.112C817.341 764.694 817.057 764.6 815.166 761.007C814.221 759.116 811.858 756.186 810.061 754.389C807.981 752.499 806.28 749.568 805.429 746.826L804.2 742.477L796.731 742.194L789.262 741.91L784.441 737.372C781.888 734.914 778.579 732.172 777.161 731.227C774.136 729.242 764.966 718.275 762.791 713.832C761.184 710.712 761.184 710.617 763.548 707.497C767.235 702.77 766.856 701.352 761.94 701.352C758.537 701.352 757.308 700.785 754.85 698.233C752.108 695.396 751.825 694.64 751.73 688.589C751.541 678.379 751.163 677.434 745.396 675.921C740.952 674.692 740.48 674.314 740.48 671.95C740.48 670.06 739.534 668.547 737.171 666.656C733.389 663.631 733.2 662.496 735.753 657.486C737.833 653.231 737.076 650.773 733.295 649.355C731.404 648.599 730.931 647.843 731.215 645.857C731.404 643.683 732.16 643.116 735.658 642.076C737.927 641.414 740.669 640.185 741.614 639.239C744.545 636.592 746.341 631.393 745.679 627.611C743.978 617.779 743.978 615.226 746.058 613.052C747.381 611.634 748.327 609.176 748.61 605.772C748.894 602.936 750.028 599.438 751.068 597.925C752.865 595.467 752.865 594.806 751.825 587.904L750.69 580.436L743.978 580.625L737.36 580.814L733.956 575.141C731.404 570.698 730.553 568.24 730.269 563.607C729.608 554.153 730.553 551.317 734.713 549.143C738.873 547.063 739.534 545.834 739.534 540.54C739.534 537.136 741.992 533.071 744.072 533.071C744.45 533.071 744.829 531.275 744.829 529.006C744.829 526.831 744.923 523.711 745.018 522.199C745.018 520.592 745.112 518.039 745.112 516.526C745.018 514.919 745.301 511.705 745.679 509.247C746.152 506.411 745.963 503.102 745.207 500.266C743.505 494.026 742.465 486.935 741.52 476.347C740.763 468.311 740.858 467.082 742.465 464.907C743.978 462.639 744.072 462.26 742.843 461.22C742.087 460.559 741.425 459.33 741.425 458.384C741.425 456.021 748.327 450.916 754.566 448.836C761.373 446.567 762.224 444.203 758.821 438.153C757.591 436.073 756.552 433.52 756.552 432.669C756.552 431.724 755.039 429.549 753.243 427.753C750.785 425.295 749.934 423.593 749.934 421.325C749.934 415.936 746.909 412.343 740.952 410.641C737.076 409.507 735.375 408.467 734.618 406.765C734.051 405.536 732.727 404.496 731.782 404.496C730.837 404.496 729.324 403.646 728.473 402.606C727.528 401.566 726.11 400.715 725.164 400.715C724.219 400.715 722.328 398.918 720.91 396.65C717.979 392.017 709.281 373.393 709.281 371.596C709.281 369.989 713.536 370.178 714.954 371.88C716.75 374.054 717.79 373.582 717.79 370.367C717.79 367.437 717.885 367.342 721.572 367.909C725.07 368.382 725.353 368.193 725.353 366.113C725.353 364.789 726.204 362.142 727.244 360.062C728.284 357.983 729.135 355.43 729.135 354.296C729.135 353.161 727.055 348.907 724.408 344.747C721.855 340.682 719.586 336.144 719.492 334.726C719.397 333.308 720.248 330.377 721.477 328.108C723.179 324.799 723.368 323.475 722.612 320.828C721.855 318.181 722.044 317.33 723.652 315.912C727.433 312.509 729.135 307.782 728.095 303.528C727.339 300.03 727.528 299.179 730.08 295.113C732.633 291.048 732.917 290.008 732.917 282.445V274.22L729.986 273.18C727.811 272.424 727.244 271.762 727.622 270.438C728.095 269.02 727.339 268.453 723.179 267.13C718.263 265.522 708.903 265.05 704.933 266.09C703.893 266.373 702.569 267.697 702.096 269.115C701.34 271.1 699.922 272.046 695.668 273.369C689.05 275.544 685.646 274.976 685.646 271.762C685.646 270.438 685.363 268.831 685.079 267.98C684.607 266.751 685.174 266.468 688.199 266.468C690.941 266.468 692.548 265.806 694.155 264.104L696.33 261.741H692.17C688.199 261.741 687.726 261.457 686.308 258.337C685.363 256.541 684.89 254.556 685.268 254.083C685.552 253.61 688.861 253.138 692.548 253.138C696.33 253.138 700.489 253.138 701.907 253.138C705.027 253.138 706.823 251.152 705.973 248.411C705.405 246.614 704.838 246.52 700.962 247.087C695.762 247.843 696.14 247.843 693.493 247.654C692.17 247.56 691.319 246.992 691.319 245.953C691.319 245.102 690.563 243.589 689.712 242.644C688.294 241.036 688.294 240.753 689.617 239.335C690.846 238.106 691.697 238.011 694.25 238.957C695.857 239.524 698.504 239.997 699.922 239.997C702.475 239.997 702.664 239.807 702.664 235.931C702.664 233.662 702.002 231.015 701.246 229.975C699.166 227.234 699.449 220.521 701.813 217.307C703.609 214.943 703.798 213.809 703.231 208.326C702.664 202.559 702.758 201.802 705.027 199.25C707.958 195.752 707.958 194.901 705.311 192.065C702.475 189.039 703.798 184.88 707.674 184.407C710.132 184.123 710.321 183.84 709.754 181.098C709.376 179.396 707.863 176.749 706.351 175.237C704.649 173.346 703.798 171.739 704.176 170.51C704.365 169.47 705.216 164.175 705.973 158.692C706.823 153.209 707.674 147.347 708.052 145.551L708.62 142.337L704.933 142.904C701.34 143.377 701.151 143.282 698.031 138.65C695.573 134.868 695.006 133.166 695.384 130.708C695.857 128.156 695.479 127.399 693.493 126.076C691.319 124.658 690.941 124.658 689.617 125.887C688.388 127.21 687.821 127.21 685.552 126.076C683.378 124.847 682.81 124.847 681.865 126.076C680.919 127.305 680.069 126.265 677.138 120.214C675.153 116.149 673.262 112.084 672.978 111.233C672.694 110.098 671.087 109.342 668.44 108.964C665.226 108.491 663.43 107.357 659.932 103.764C655.015 98.7536 652.652 97.241 649.721 97.241C648.587 97.241 646.034 96.1064 644.049 94.6884C641.213 92.6085 640.267 91.0958 639.416 87.5033C637.904 80.6964 637.998 80.2237 643.293 71.6205C648.02 63.8683 648.398 62.7338 650.288 49.5927C650.761 46.0002 651.612 44.2985 653.786 42.5022C656.528 40.2332 656.528 39.9496 656.055 33.6154C655.583 26.5249 655.488 26.3358 648.965 23.8778C645.183 22.3652 644.711 22.3652 641.307 23.8778C637.809 25.485 637.526 25.485 633.933 23.5942C631.853 22.5543 629.868 20.8525 629.679 19.9071C629.301 18.489 627.977 18.0163 622.683 17.4491C619.09 17.0709 614.552 16.5982 612.661 16.22C609.542 15.7474 609.069 15.9364 609.069 17.6382Z" fill="black"/>
<circle cx="637" cy="854" fill="#5CE50D"/>
<circle cx="530" cy="274" fill="#E52A0D"/>
<circle cx="453" cy="715" fill="#E52A0D"/>
<circle cx="423" cy="937" fill="#E52A0D"/>
</svg>
