<svg width="1000" height="1000" viewBox="0 0 1000 1000" fill="none" xmlns="http://www.w3.org/2000/svg">
<rect width="1000" height="1000" />
<path d="M556.223 399.823C543.985 404.718 532.406 408.954 530.618 409.237C527.794 409.802 525.629 409.049 516.027 404.153C509.72 401.047 504.071 398.505 503.412 398.505C501.624 398.505 466.605 413.661 465.946 414.697C465.57 415.262 461.616 425.616 457.003 437.76L448.625 459.882L442.036 459.411C426.033 458.093 386.684 456.305 273.532 451.692C216.203 449.339 135.811 446.515 127.998 446.515H120.655L119.996 449.809C119.432 452.916 116.325 456.305 114.913 455.458C114.537 455.175 113.407 452.257 112.466 448.868C111.524 445.479 110.3 442.749 109.83 442.749C107.57 442.749 101.734 445.008 101.734 445.95C101.734 446.515 103.428 448.68 105.594 450.845C109.171 454.516 109.547 455.363 110.489 462.424C111.43 469.86 111.43 470.143 109.171 472.684C102.864 479.651 102.864 478.803 109.453 483.039C112.748 485.11 117.172 487.558 119.337 488.405L123.197 489.911L123.574 499.984L123.95 510.056L119.902 514.952C116.419 519.094 116.043 519.847 117.455 520.223C118.396 520.506 122.538 521.447 126.68 522.388C132.611 523.706 135.341 524.93 139.388 528.036C142.213 530.202 145.507 532.273 146.637 532.555C147.767 532.932 153.226 532.367 158.686 531.237C167.723 529.543 168.947 529.449 171.395 530.766C172.901 531.52 175.443 532.178 177.043 532.178C179.49 532.178 180.149 531.614 181.373 528.79C182.126 526.907 182.597 524.836 182.314 524.083C182.032 523.424 182.409 522.482 183.068 522.106C183.821 521.635 184.95 519.847 185.703 518.058C186.927 515.14 187.115 514.952 187.586 516.834C187.868 517.964 187.586 520.035 186.833 521.447C185.139 524.742 185.139 524.648 188.151 524.648C190.128 524.648 193.328 522.577 200.2 516.834C205.284 512.598 211.402 508.268 213.756 507.232C216.109 506.197 218.651 504.691 219.404 503.749C220.157 502.902 224.582 500.172 229.194 497.725L237.572 493.206L244.256 496.689C250.281 499.796 251.975 500.172 262.236 501.019C268.92 501.584 275.792 501.584 279.18 501.114C282.475 500.643 290.759 500.643 298.949 501.114C309.398 501.773 314.293 501.678 317.588 500.831C320.789 499.984 326.437 499.89 339.051 500.549C355.713 501.302 356.278 501.302 361.738 499.137C364.844 497.913 369.174 495.371 371.34 493.394C375.387 489.911 379.906 488.217 386.213 487.746C389.414 487.558 390.261 488.123 394.968 492.83C401.275 499.137 403.063 499.137 406.546 492.547C409.747 486.522 411.065 485.393 416.337 484.169C424.903 482.098 436.858 485.581 436.858 490.194C436.858 491.982 436.858 491.982 434.881 490.194C433.375 488.876 431.116 488.311 425.468 488.029C419.161 487.746 417.749 488.029 415.207 489.817C412.759 491.606 412.383 492.359 412.383 496.313C412.383 502.62 409.841 504.879 402.781 504.879C397.509 504.879 397.415 504.879 393.085 499.702C389.131 495.183 388.19 494.524 385.178 494.524C382.259 494.618 381.318 495.183 378.494 498.76C376.705 501.114 374.54 502.996 373.787 502.996C373.034 502.996 367.103 503.561 360.608 504.22C354.113 504.879 347.335 505.538 345.546 505.632C343.758 505.726 341.593 505.915 340.84 506.009C340.086 506.197 336.133 505.444 332.085 504.408L324.648 502.62L320.789 504.691C317.494 506.385 314.199 506.856 301.773 507.703C293.489 508.268 285.299 508.927 283.605 509.209C281.91 509.492 278.051 509.209 275.038 508.55C269.767 507.515 269.39 507.609 265.813 509.962L262.142 512.41L253.764 509.586C249.151 508.08 243.597 506.762 241.338 506.762C239.078 506.762 236.443 506.291 235.501 505.632C233.901 504.691 232.96 505.256 227.688 510.151C224.299 513.163 219.028 517.211 215.733 518.999L209.896 522.294L207.449 530.39L205.001 538.486L197.376 540.086C187.398 542.157 180.714 544.322 178.737 546.111C177.702 546.958 176.101 547.24 174.595 546.958C170.924 546.299 165.747 548.935 165.747 551.57C165.747 555.618 159.251 555.995 156.521 552.135C154.638 549.594 154.45 549.594 143.154 549.311C133.834 549.029 131.763 549.217 132.046 550.253C132.328 550.912 133.929 551.57 135.717 551.759C140.518 552.229 141.459 553.83 136.941 553.83C132.046 553.83 129.975 555.995 129.975 561.172C129.975 563.526 129.222 566.35 127.998 568.138L126.021 571.245L126.68 568.421C127.621 564.467 127.621 559.76 126.774 554.959C126.115 551.665 126.209 551.006 127.527 551.006C128.375 551.006 129.033 550.441 129.033 549.782C129.033 549.029 123.856 547.24 115.195 544.887C102.299 541.404 101.357 540.933 99.5689 538.015C97.4979 534.532 96.3682 534.344 91.5673 536.791C85.4485 539.803 83.8482 537.45 88.555 532.084C90.0611 530.296 92.038 527.283 92.8852 525.307C94.4855 521.729 94.4855 521.541 91.7556 513.634C89.4022 506.762 88.555 505.256 85.4485 503.185C81.4948 500.549 81.4006 500.36 83.4716 492.077C85.0719 485.958 85.0719 485.958 82.9068 483.698C81.1182 481.816 79.8003 481.345 76.129 481.345C73.6815 481.345 71.6105 480.968 71.6105 480.404C71.6105 479.368 66.6213 476.638 64.6444 476.638C63.7972 476.638 59.3728 480.121 54.7601 484.263C48.6413 489.911 46.0996 492.924 45.1582 495.748C43.8403 499.702 39.6042 503.373 28.9668 509.68C24.1659 512.504 23.507 513.351 22.9421 516.458C22.3773 520.035 20.9653 522.2 18.706 522.953C17.7647 523.33 17.7647 523.894 18.706 525.965C19.5532 527.754 19.6474 530.861 19.2708 536.038C18.6119 543.192 18.706 543.663 20.9653 546.111C24.26 549.594 24.7307 556.089 22.9421 570.209L21.5301 581.317L23.8835 583.859C25.2014 585.177 27.0841 589.225 28.2138 592.802C29.9082 598.733 30.0023 599.58 28.6844 602.592C28.0255 604.381 27.3665 605.981 27.3665 606.169C27.3665 606.358 28.9668 607.205 30.8496 607.958C34.8033 609.652 38.3805 609.088 40.169 606.734C41.1104 605.416 41.0163 604.757 39.5101 603.157C37.9098 601.463 37.8156 600.804 38.757 598.639C39.6984 596.756 40.5456 596.191 42.9931 596.191C45.3465 596.191 46.5703 595.532 48.0765 593.367L50.1475 590.543L48.0765 587.248L46.0996 584.047L48.2647 582.635C50.3357 581.317 60.4083 581.506 152.567 584.424C238.702 587.154 337.827 589.696 338.769 589.131C338.863 589.037 339.898 577.929 340.934 564.561C341.969 551.194 343.005 539.333 343.193 538.203C343.569 536.32 344.417 536.132 354.207 535.756C362.867 535.285 366.068 534.72 371.151 532.649L377.458 530.107L392.897 535.285L408.241 540.368L422.738 533.026C430.739 528.978 437.988 525.683 438.835 525.683C439.588 525.589 447.778 528.884 456.815 533.026L473.383 540.462L488.821 537.45L504.166 534.438L515.179 527.566C521.204 523.8 526.57 520.223 527.041 519.658C527.511 518.999 529.676 510.715 531.936 501.114L535.984 483.698L549.445 474.473C562.718 465.436 562.906 465.342 568.366 465.436H573.826L579.474 476.921L585.123 488.405L604.703 502.337L624.377 516.175L634.356 516.74C642.263 517.211 647.158 518.152 657.137 521.07C664.103 523.141 670.504 525.212 671.257 525.589C672.01 526.06 673.705 529.26 675.022 532.743L677.376 539.145L691.026 547.429L704.675 555.712L717.007 553.547L729.245 551.382L734.046 555.618C738.282 559.384 740.541 560.513 752.873 564.561L766.805 569.08L777.16 579.341L787.515 589.601H805.589H823.569L830.347 593.743L837.031 597.885L845.126 595.72C852.281 593.743 854.163 593.555 862.259 594.308C867.248 594.685 871.578 594.779 871.955 594.402C872.332 594.026 874.497 589.978 876.756 585.271L880.898 576.799L891.818 577.552L902.832 578.305L911.492 573.975L920.247 569.55L935.779 568.327C944.346 567.668 952.724 567.009 954.324 567.009C957.807 567.009 959.031 565.597 973.999 545.169L982 534.155L964.961 512.033L947.829 489.911L942.086 488.029C932.202 484.828 928.813 484.734 917.893 487.464C911.304 489.064 904.244 490.1 896.713 490.476C888.805 490.759 882.028 491.794 874.214 493.771C863.671 496.313 862.353 496.972 852.845 503.467C843.244 509.962 841.926 510.527 832.135 512.786C821.969 515.234 821.31 515.234 809.355 514.198L796.929 513.069L783.279 502.149L769.629 491.229L764.922 476.732L760.121 462.141L740.824 456.117L721.432 450.092L707.029 456.305C699.027 459.694 692.155 462.518 691.779 462.518C691.402 462.518 686.225 459.317 680.2 455.458L669.374 448.397V442.09C669.374 436.066 669.092 435.03 663.538 424.204L657.607 412.72L641.039 405.66L624.377 398.694L617.129 399.541C609.88 400.294 609.88 400.294 602.726 396.717C595.101 392.951 587.947 390.974 582.016 391.069C579.945 391.069 569.496 394.646 556.223 399.823ZM147.672 559.572C147.955 565.314 147.861 565.503 146.26 563.996C144.848 562.49 144.754 561.925 145.884 559.007C146.825 556.183 146.825 555.336 145.79 554.112C144.754 552.794 144.754 552.7 145.978 553.077C147.013 553.359 147.484 555.148 147.672 559.572Z" fill="black"/>
<circle cx="81" cy="493" fill="#5CE50D"/>
<circle cx="48" cy="609" fill="#E52A0D"/>
<circle cx="430" cy="487" fill="#E52A0D"/>
<circle cx="909" cy="530" fill="#E52A0D"/>
</svg>
