<svg width="1000" height="1000" viewBox="0 0 1000 1000" fill="none" xmlns="http://www.w3.org/2000/svg">
<rect width="1000" height="1000" />
<path d="M738.852 2.42456C734.262 5.06128 734.164 5.06128 734.164 10.1394C734.164 15.1199 734.262 15.3152 737.973 17.1707C741.781 19.2214 742.953 20.7839 742.953 24.2996C742.953 25.3738 743.637 27.7175 744.516 29.573C745.785 32.3074 745.883 33.3816 744.906 35.7253C744.028 38.0691 744.028 39.0457 745.297 41.5847C746.762 44.3191 746.762 44.905 745.395 47.5417C744.614 49.1042 743.93 51.0574 743.93 51.8386C743.93 53.7917 736.215 58.2839 732.797 58.2839C731.332 58.2839 728.793 58.9675 727.035 59.9441C725.278 60.823 721.762 62.0925 719.028 62.7761C714.438 64.0457 713.949 63.948 711.313 62.0925C708.676 60.1394 708.383 60.0417 705.16 61.6042C703.403 62.4832 700.961 63.1667 699.789 63.1667C698.617 63.1667 696.86 63.8503 695.981 64.7292C694.516 66.0964 693.735 66.1941 691.391 65.2175C689.34 64.3386 687.875 64.3386 685.824 65.1199C683.578 65.9988 682.797 65.8035 681.235 64.4363C679.379 62.7761 679.184 62.7761 677.035 65.5105C674.887 68.2449 674.594 68.3425 672.446 66.8777C670.297 65.4128 669.711 65.6082 661.508 69.7097C653.696 73.616 652.426 74.0066 648.227 73.4207C644.711 72.9324 643.246 72.2488 642.27 70.3933C640.707 67.2683 630.942 59.2605 628.793 59.2605C627.914 59.2605 625.278 57.8933 622.836 56.3308C620.199 54.573 617.172 53.4011 615.219 53.4011C613.461 53.4011 610.629 52.7175 609.067 51.8386C606.918 50.7644 604.867 50.5691 602.133 50.9597C599.008 51.5457 598.031 52.2292 597.25 54.573C596.371 57.0144 595.883 57.405 593.637 56.8191C592.27 56.4285 591 56.1355 591 56.0378C590.903 55.9402 589.926 53.8894 588.656 51.5457C586.703 47.6394 586.313 47.3464 583.578 47.9324C581.918 48.2253 580.063 48.1277 579.477 47.6394C578.891 47.1511 577.328 46.5652 575.961 46.3699C573.813 46.0769 573.129 44.905 570.492 37.2878C567.563 28.4988 567.563 28.4988 564.047 28.2058C561.313 28.0105 560.141 28.4011 559.067 30.0613C557.797 31.8191 556.918 32.1121 553.305 31.5261C550.668 31.1355 547.348 31.4285 544.516 32.405L539.828 33.7722V30.8425C539.828 28.6941 539.242 27.7175 537.387 26.8386C535.238 25.8621 534.653 25.9597 533.383 27.8152C532.602 28.9871 531.332 29.9636 530.649 29.9636C529.867 29.9636 528.793 30.5496 528.207 31.3308C527.133 32.6003 526.449 32.5027 522.836 30.9402L518.637 29.1824L516 31.5261C513.949 33.4792 513.461 34.8464 513.461 38.2644C513.461 42.7566 512.778 43.5378 510.824 41.5847C509.946 40.7058 508.969 40.9011 507.016 42.366C504.379 44.3191 504.281 44.3191 501.156 42.4636L497.934 40.6082L496.371 42.9519C495.199 44.7097 493.735 45.491 490.024 45.8816C487.387 46.1746 483.969 47.3464 482.504 48.4207C480.942 49.3972 477.621 50.5691 474.887 50.9597C472.25 51.3503 469.321 52.2292 468.442 53.0105C467.172 54.1824 466.196 54.0847 461.41 52.4246C453.403 49.5925 447.836 49.8855 441.586 53.4011L436.41 56.3308L433.871 53.7917C431.821 51.741 430.746 51.3503 428.305 51.8386C426.645 52.1316 424.692 52.4246 424.008 52.4246C423.227 52.4246 422.153 54.3777 421.567 56.9167L420.395 61.4089L406.625 60.823C384.848 59.8464 374.496 60.1394 372.738 61.7996C371.664 62.7761 370.981 65.8035 370.492 72.2488C369.809 81.1355 368.442 85.6277 366.391 86.3113C365.805 86.5066 363.949 85.53 362.289 84.1628L359.262 81.6238L357.699 85.2371C355.356 90.9011 354.672 91.1941 338.852 90.8035C324.985 90.5105 324.594 90.5105 321.957 87.9714C319.711 85.823 318.344 85.3347 313.949 85.4324C309.36 85.4324 308.285 85.823 305.649 88.5574L302.621 91.5847L298.813 89.0457L294.906 86.5066L290.707 89.3386C288.363 90.9011 284.555 93.2449 282.309 94.5144C279.477 96.0769 278.11 97.6394 277.719 99.4949C277.426 101.057 276.547 102.229 275.668 102.229C274.887 102.229 274.008 103.206 273.715 104.475C273.324 105.745 271.86 107.503 270.297 108.382C268.539 109.456 267.367 111.116 266.977 113.362C266.098 118.147 264.34 119.221 258.188 118.538C253.11 118.05 252.817 118.147 249.203 121.956C243.539 127.718 241.586 128.206 237.192 124.788C234.164 122.346 232.895 121.956 228.305 122.151C224.106 122.249 222.153 122.835 219.516 124.885C217.563 126.35 214.242 127.913 211.996 128.401C208.481 129.182 207.504 129.085 204.672 127.132L201.547 124.983L199.789 127.229C198.715 128.499 196.469 129.671 194.125 130.061C191.879 130.452 189.633 131.526 188.852 132.698C187.582 134.553 187.582 134.944 189.34 136.311C190.317 137.19 191.391 139.143 191.684 140.803C192.172 143.147 191.684 144.319 189.242 146.858C185.141 151.155 182.992 151.35 185.531 147.151C186.508 145.589 186.508 144.905 185.141 143.635C183.578 142.073 183.578 141.78 185.336 139.339C187.192 136.702 187.192 136.702 184.848 134.456L182.504 132.21L179.086 135.042C173.617 139.632 173.617 142.268 178.988 150.276L183.578 157.112L182.895 164.632C182.309 170.882 181.723 172.542 179.477 174.983C178.012 176.546 175.375 180.061 173.617 182.698L170.395 187.483L165.219 186.897C160.434 186.409 159.946 186.507 159.946 188.264C159.946 189.241 159.555 190.12 159.067 190.12C157.211 190.12 154.672 195.589 154.965 199.202C155.16 202.425 154.477 203.792 150.668 208.479C146.176 213.85 146.078 214.143 146.762 219.026C147.25 223.128 146.957 224.885 145.297 228.206C144.125 230.452 143.442 232.893 143.735 233.577C143.93 234.26 143.735 236.604 143.149 238.753C142.172 242.464 141.977 242.659 136.508 243.831C133.481 244.514 130.063 244.71 128.891 244.417C127.817 244.026 125.863 244.319 124.496 244.905C122.641 245.686 121.176 245.784 118.93 245.003L115.903 243.928L112.875 250.178L109.75 256.526H105.453C101.742 256.526 101.254 256.721 101.84 258.186C102.328 259.163 102.817 261.507 103.11 263.362C103.305 265.315 105.16 269.026 107.309 271.858C111.117 276.936 112.192 281.428 110.141 283.479C109.555 284.065 106.918 284.358 104.281 284.065L99.3986 283.577V286.702C99.3986 288.46 99.8869 290.706 100.473 291.78C101.254 293.342 100.961 294.319 98.6174 297.053C97.0549 298.811 95.4924 300.862 95.1994 301.643C94.8088 302.717 94.5158 302.717 93.4416 301.643C92.3674 300.667 91.9767 300.862 91.0978 303.303L90.1213 306.135L81.3322 303.303C76.5471 301.839 71.8596 300.569 71.0783 300.569C69.2228 300.471 81.8205 308.87 84.3596 309.456C85.8244 309.749 86.215 310.53 86.1174 313.655C86.0197 315.901 85.3361 317.854 84.3596 318.538C83.4807 319.221 82.7971 320.784 82.7971 322.151C82.7971 324.788 86.8986 326.839 92.3674 326.839C94.5158 326.839 95.4924 327.327 95.4924 328.303C95.4924 329.182 94.6135 329.768 93.3439 329.768C91.2932 329.768 91.2932 329.866 93.8322 332.503C96.6642 335.432 96.4689 336.604 93.051 336.604C91.0978 336.604 90.9025 336.995 91.4885 339.436C91.7814 340.999 93.2463 343.245 94.7111 344.417C96.2736 345.589 97.4455 347.444 97.4455 348.518C97.4455 349.69 98.5197 352.522 99.8869 354.768C102.524 359.163 102.426 359.163 113.266 360.53C117.856 361.116 118.93 362.19 118.93 366.194C118.93 368.538 136.117 387.385 138.168 387.385C138.852 387.385 140.707 389.241 142.367 391.487C144.711 394.71 145.297 396.467 145.297 400.569C145.297 404.085 145.883 406.428 147.055 407.893C149.106 410.432 151.156 409.846 151.156 406.819C151.156 404.964 151.254 404.964 154.184 406.428C155.844 407.307 157.406 407.796 157.699 407.503C158.774 406.526 157.016 403.889 154.086 402.229C150.571 400.276 150.473 399.104 153.403 395.589C155.649 392.952 155.746 392.952 157.602 394.905C158.578 395.979 160.824 397.151 162.387 397.542C164.047 397.932 166 398.909 166.879 399.69C168.246 400.96 168.637 400.96 169.711 399.592C171.274 397.737 173.324 397.737 174.301 399.592C174.789 400.276 176.938 401.253 179.184 401.643C183.188 402.229 183.383 402.132 185.434 398.714C187.094 395.784 187.778 395.393 188.949 396.272C191.488 398.421 192.563 401.448 192.563 407.112C192.66 411.507 193.149 413.069 194.906 415.022C196.469 416.682 196.957 417.952 196.371 418.928C195.785 420.1 195.102 419.807 193.149 417.073C190.024 412.874 187.485 412.776 186.703 416.682C186.02 419.807 184.653 420.491 183.774 418.147C183.383 417.366 182.602 416.682 181.821 416.682C180.844 416.682 180.551 415.999 181.039 414.143C181.625 411.8 181.43 411.702 179.574 412.288C178.11 412.678 177.035 412.483 176.254 411.507C174.887 409.651 168.93 408.967 167.953 410.432C167.563 411.018 166.586 411.702 165.61 412.092C164.438 412.483 163.852 411.897 163.363 410.042L162.68 407.405L160.434 410.042C157.895 412.971 154.379 413.655 153.5 411.311C152.719 409.26 151.449 409.456 150.18 411.8C149.301 413.46 149.496 414.534 151.059 417.073C153.598 421.077 153.598 421.175 151.156 421.858C150.082 422.151 148.715 423.714 148.129 425.374C146.957 428.792 145.297 428.499 145.297 424.885C145.297 421.37 143.539 421.956 138.852 427.034C135.043 431.038 130.649 439.925 130.649 443.44C130.649 444.221 130.063 445.296 129.281 445.882C128.207 446.76 127.914 449.3 127.914 455.354C128.012 463.46 128.695 465.217 130.551 461.8C133.188 457.307 133.285 457.307 136.41 460.725C139.145 463.85 139.34 463.85 139.438 461.8C139.438 460.628 140.024 459.651 140.805 459.651C141.488 459.651 142.66 458.967 143.344 458.186C145.004 456.135 147.934 457.112 152.231 461.311C155.453 464.436 155.844 464.534 156.332 462.678C156.625 461.409 155.942 460.042 154.477 458.577C151.742 456.038 151.547 453.987 153.598 451.253C154.379 450.276 155.063 449.104 155.063 448.714C155.063 447.542 151.254 449.104 149.594 450.96C147.934 452.717 147.934 452.717 146.664 450.374C145.59 448.323 145.59 447.249 146.664 444.221C147.348 442.171 147.641 439.534 147.25 438.069C146.664 436.214 146.957 435.237 148.324 434.456C149.887 433.479 150.18 433.577 150.18 435.042C150.18 436.018 150.473 437.092 150.766 437.385C151.84 438.557 157.504 436.214 159.653 433.772C160.824 432.405 161.996 431.331 162.192 431.331C163.266 431.331 165.805 439.534 165.805 442.854C165.903 448.03 168.735 451.253 172.641 450.374C175.278 449.788 175.571 449.983 175.571 452.034C175.668 453.303 176.254 455.354 177.035 456.721C177.817 458.089 178.5 461.604 178.598 464.534C178.598 467.464 178.988 470.979 179.379 472.249L180.063 474.592L183.774 471.272L187.582 467.952L186.899 473.518C186.313 478.01 186.606 480.257 188.266 484.944C190.024 489.632 190.219 491.096 189.242 492.854C188.363 494.514 188.363 495.979 189.242 499.202C190.805 504.768 193.344 505.452 197.25 501.546C198.813 499.983 200.766 498.714 201.449 498.714C203.696 498.714 208.774 495.393 209.36 493.538C209.653 492.561 210.824 491.878 212.289 491.878C214.34 491.878 214.633 491.389 214.633 488.362C214.633 485.628 214.926 484.944 216.391 485.237C217.367 485.432 218.149 486.604 218.344 488.362C218.637 490.413 219.418 491.389 221.567 492.171C223.813 493.05 224.399 493.831 224.399 496.272C224.399 500.862 229.086 504.964 233.09 504.085C234.75 503.694 237.485 502.327 239.145 500.96C242.367 498.225 246.567 497.737 255.844 499.104C261.313 499.885 261.41 499.885 262.094 497.346C262.778 494.514 268.149 491.292 269.613 492.757C270.981 494.124 276.059 492.952 279.379 490.608C281.625 489.143 282.602 488.948 284.75 489.729C286.215 490.315 288.754 490.999 290.317 491.389C294.418 492.268 302.914 496.37 304.477 498.225C306.235 500.276 307.406 500.081 310.531 497.053C313.168 494.514 313.363 494.514 316 495.979C318.246 497.346 324.692 498.323 328.696 497.835C329.477 497.737 329.867 496.467 329.77 494.026C329.574 492.073 330.16 489.339 330.942 487.971C331.723 486.604 332.406 485.432 332.406 485.237C332.504 485.042 334.36 486.116 336.508 487.678C341.293 491.096 344.516 495.882 344.516 499.495C344.516 502.717 347.153 505.55 350.082 505.55C351.742 505.55 352.231 504.671 352.817 500.862C353.5 495.979 354.477 494.319 357.406 492.757C358.969 491.878 359.457 492.366 361.117 495.979C363.266 500.862 366.293 503.987 370.199 505.452C373.129 506.624 373.617 508.577 371.274 510.53C369.906 511.604 370.004 511.897 372.055 512.971C373.324 513.753 376.352 514.241 378.793 514.339C382.797 514.339 383.481 514.632 383.969 516.78C384.653 519.514 388.461 520.296 388.461 517.757C388.461 516.585 389.731 516.292 393.832 516.292C398.91 516.292 399.203 516.389 399.203 518.733C399.203 522.053 403.305 523.03 407.211 520.686C409.653 519.221 410.336 519.221 411.02 520.296C411.508 521.077 411.899 522.249 411.899 522.932C411.899 523.714 412.68 523.909 414.34 523.518C417.27 522.835 421.664 525.862 419.516 527.132C418.637 527.717 418.637 528.206 419.516 529.28C420.395 530.354 420.102 531.135 417.953 533.089C412.289 538.362 410.434 539.046 403.305 538.264C399.692 537.874 395.688 536.995 394.321 536.311C392.367 535.335 391.391 535.335 389.828 536.116C386.801 537.971 381.625 541.975 381.625 542.659C381.625 542.952 384.262 544.71 387.387 546.565C392.563 549.495 393.051 549.983 392.172 551.839C389.34 558.284 382.016 557.503 374.008 549.885C365.317 541.487 355.356 534.26 347.446 530.354C340.805 527.132 339.731 526.936 335.727 527.717C331.918 528.401 330.942 528.303 328.403 526.35C326.742 525.178 322.738 523.811 319.223 523.225C315.414 522.639 312.192 521.467 310.824 520.198C309.653 519.124 308.188 518.245 307.602 518.245C307.016 518.245 305.844 516.975 305.063 515.413C303.207 511.995 299.985 509.846 294.418 508.382C290.512 507.405 289.926 506.917 289.438 504.085C288.852 501.35 288.266 500.764 285.141 500.178C283.188 499.788 279.574 499.495 277.133 499.397C274.692 499.3 272.153 498.811 271.469 498.323C270.59 497.835 269.418 498.225 267.953 499.592C266.781 500.764 265.121 501.643 264.34 501.643C262.582 501.643 258.188 507.796 255.942 513.46C253.403 519.807 251.742 521.565 246.567 523.518C240.805 525.667 235.531 524.983 229.477 521.077C225.375 518.44 224.887 518.342 222.738 519.71C220.688 521.077 220.395 521.077 219.321 519.221C217.172 515.901 216.586 516.975 216.586 524.007C216.586 527.815 216.196 531.135 215.61 531.428C215.121 531.721 214.633 532.796 214.633 533.675C214.633 534.553 213.949 536.604 213.071 538.264C212.192 539.827 211.117 542.464 210.824 544.124C210.434 545.784 209.164 547.542 207.797 548.225C206.43 548.909 204.672 550.178 203.891 551.155C201.352 554.28 195.688 558.089 193.149 558.479C191.098 558.675 190.512 559.553 189.535 563.655C187.778 571.565 187.68 571.467 194.418 573.323C197.738 574.3 201.938 576.253 203.793 577.62C205.649 579.085 207.602 580.55 207.992 580.842C209.946 582.112 211.508 591.389 210.629 595.491C209.36 600.862 210.922 602.815 213.559 599.397L215.317 597.053L219.613 600.081C221.957 601.741 226.547 604.671 229.867 606.624C234.75 609.651 236.313 611.214 238.363 615.51C239.828 618.44 243.149 624.3 245.785 628.596C248.52 632.893 251.449 639.143 252.328 642.366C253.988 648.323 253.988 648.421 251.742 652.62C250.571 654.964 247.641 658.382 245.395 660.237C240.219 664.534 239.047 668.538 240.024 679.28C240.414 683.675 240.903 687.483 241.098 687.678C241.293 687.971 242.953 689.827 244.711 691.78C256.235 705.061 256.039 704.768 254.379 706.038C252.426 707.503 252.035 710.725 253.012 716.487C253.598 720.003 254.477 721.37 257.113 723.225C260.434 725.471 260.629 725.471 264.438 723.909C267.367 722.737 268.344 722.639 268.344 723.616C268.344 724.3 269.223 726.448 270.297 728.499C271.371 730.452 272.25 732.796 272.25 733.577C272.25 735.823 273.52 735.335 276.742 731.819C280.649 727.717 282.406 723.518 281.039 721.858C280.356 721.077 280.063 716.096 280.258 708.772L280.551 696.858L285.238 693.831C290.512 690.51 297.934 689.143 301.449 690.999C303.793 692.268 304.086 695.784 302.524 702.327C301.742 705.745 301.84 706.428 303.696 707.991C304.77 708.87 306.528 709.456 307.406 709.163C308.676 708.772 310.531 710.53 314.633 715.803C317.66 719.71 320.102 723.909 320.102 725.081C320.102 728.792 326.156 739.925 328.207 739.925C329.867 739.925 329.867 740.12 328.5 742.073C326.645 744.71 326.449 749.788 328.11 754.378C329.184 757.112 329.086 758.089 327.621 760.628C325.473 764.339 325.473 768.635 327.621 770.296C328.5 771.077 329.281 771.467 329.281 771.272C329.379 771.077 330.942 771.858 332.895 773.03C335.531 774.592 336.703 776.057 337.094 778.401C337.68 781.331 340.61 785.432 340.61 783.284C340.61 782.796 341.098 779.573 341.684 776.057C342.465 770.784 342.367 769.221 341.098 766.292C340.024 763.948 339.633 760.823 339.828 757.014C340.121 751.35 340.219 751.155 342.758 751.35L345.395 751.546L343.93 747.542L342.563 743.635L345.004 744.221C346.762 744.71 347.446 744.417 347.446 743.44C347.446 742.659 346.957 741.682 346.469 741.389C344.711 740.315 345.492 736.409 347.934 734.065C349.301 732.796 350.375 730.745 350.375 729.475C350.375 728.01 351.547 726.448 354.184 724.69C357.699 722.346 358.383 722.249 361.606 723.323C363.559 724.007 366.391 724.3 367.856 724.007C370.199 723.518 370.883 723.909 372.641 727.132C374.008 729.475 374.789 732.6 374.789 735.335C374.789 737.776 375.278 740.999 375.863 742.561L376.938 745.296L378.207 742.952L379.477 740.608L380.063 742.659C380.453 743.831 381.43 744.807 382.211 744.807C383.09 744.807 383.578 745.882 383.578 748.128C383.578 750.96 384.067 751.643 386.508 752.522C388.656 753.206 389.438 754.085 389.438 755.842C389.438 757.112 390.219 758.967 391.293 759.846C393.051 761.409 393.051 761.604 391.293 765.12C388.559 770.393 388.852 771.858 392.367 771.37C394.711 771.077 395.297 770.491 395.297 768.635C395.297 765.315 398.813 763.655 401.254 765.901C402.231 766.78 403.11 768.245 403.11 769.026C403.11 771.956 405.356 776.741 407.309 777.913C408.774 778.889 410.238 778.889 413.949 778.01C419.418 776.643 419.906 775.178 416.293 771.565C412.875 768.147 411.996 766.194 412.582 763.264C412.973 761.214 412.485 760.237 410.434 758.87C400.082 751.546 398.227 747.737 402.231 741.292L404.281 737.971H401.742C399.789 737.971 399.203 737.483 399.203 735.921C399.203 733.089 402.035 731.038 404.281 732.21C405.551 732.893 406.039 732.796 406.039 731.819C406.039 731.038 406.625 729.866 407.406 729.28C408.871 728.01 409.067 728.694 404.086 718.44C403.207 716.585 401.84 712.581 401.156 709.651C400.473 706.721 399.301 702.913 398.617 701.253C397.836 699.495 397.543 696.663 397.934 694.71C398.324 692.073 397.934 690.51 396.371 688.264C395.199 686.604 394.418 684.846 394.809 684.26C395.102 683.772 394.418 681.624 393.344 679.378C391.684 676.057 390.903 675.471 388.266 675.471H385.238L385.922 670.198C386.313 666.194 386.215 664.632 385.238 664.046C384.457 663.655 383.578 661.8 383.285 660.042C382.895 658.284 381.528 655.354 380.16 653.596C378.793 651.839 377.719 649.69 377.719 648.909C377.719 648.03 377.035 646.858 376.254 646.175C375.473 645.491 374.789 643.733 374.789 642.268C374.789 640.51 374.008 639.046 372.543 638.069C370.492 636.8 370.102 635.53 369.613 628.889C369.321 624.592 368.442 619.124 367.758 616.585C366.488 611.604 367.172 609.944 371.469 608.675C373.129 608.186 373.715 608.675 374.594 611.8C375.863 615.803 381.625 622.346 381.625 619.612C381.625 617.268 383.969 616.878 389.926 618.147C395.102 619.221 395.297 619.319 395.297 622.346C395.297 626.253 396.274 626.936 399.594 625.667C401.547 624.983 402.133 625.081 402.133 626.057C402.133 627.62 404.184 628.596 407.504 628.596C408.774 628.596 410.531 629.573 411.313 630.745C413.363 633.675 413.266 634.749 410.922 633.967C409.36 633.479 408.969 633.772 408.969 635.823C408.969 637.678 408.481 638.362 407.016 638.362C403.5 638.362 404.77 642.268 409.946 647.249C412.68 649.885 415.219 652.034 415.707 652.034C417.367 652.034 418.832 649.202 418.246 646.956C417.367 643.342 421.176 641.878 424.789 644.417C426.645 645.686 428.696 646.175 431.137 645.979C436.02 645.589 435.922 643.831 430.942 643.44C428.793 643.245 426.254 642.464 425.375 641.585C423.813 640.217 423.813 639.925 425.375 637.776C426.645 635.921 427.621 635.628 429.77 636.018C431.235 636.311 432.992 636.116 433.676 635.628C434.36 635.139 438.754 634.456 443.539 634.163C451.547 633.675 453.793 632.893 453.891 630.354C453.891 630.061 452.621 628.499 451.059 627.034C448.031 624.202 448.031 621.76 450.961 621.76C453.891 621.76 454.086 620.198 451.742 615.803C449.789 611.897 449.594 611.8 448.715 613.753C448.129 614.925 446.957 616.096 445.981 616.389C444.906 616.78 444.125 617.854 444.125 618.928C444.125 620.296 443.637 620.784 442.465 620.589C441.391 620.393 440.805 619.514 441 618.44C441.196 617.366 440.805 616.292 440.219 615.901C439.438 615.413 439.731 613.753 441.196 610.139C443.637 603.792 443.637 602.62 441.196 601.936C439.438 601.448 432.406 602.815 432.406 603.596C432.406 603.792 433.09 605.55 433.871 607.405C434.653 609.358 435.336 611.604 435.336 612.483C435.336 616.194 428.012 615.315 426.547 611.507C425.961 609.944 424.887 609.065 423.422 609.065C418.051 608.967 415.024 603.303 414.828 593.44C414.828 591.096 414.242 589.632 412.875 588.753C410.629 587.385 410.238 584.651 412.289 584.651C413.071 584.651 414.438 583.967 415.317 582.991C417.563 580.842 416.586 576.253 413.071 572.639C410.531 570.003 410.141 569.905 404.477 570.491L398.422 571.077L398.031 568.05C397.738 566.389 397.934 564.827 398.422 564.534C398.813 564.241 399.203 562.874 399.203 561.507C399.203 558.772 398.52 558.87 407.895 560.823C410.141 561.311 411.41 560.823 414.438 558.089C421.567 551.741 424.106 550.862 433.871 551.057C441.488 551.155 442.66 551.35 442.563 552.815C442.367 554.182 443.051 554.378 446.664 553.792C450.473 553.206 450.961 553.401 450.961 555.159C450.961 556.624 449.985 557.307 446.664 558.186C441.586 559.456 440.707 560.432 442.367 563.069C444.223 565.999 446.762 566.194 449.887 563.557C451.449 562.288 453.403 561.214 454.281 561.214C455.16 561.214 455.844 560.725 455.844 560.042C455.844 559.456 456.528 558.186 457.406 557.21C458.774 555.647 458.774 555.452 456.918 554.866C455.746 554.573 454.867 553.694 454.867 553.01C454.867 552.327 453.793 550.471 452.426 548.909C450.571 546.76 449.789 546.37 448.813 547.346C447.055 549.104 443.735 548.909 444.516 546.956C444.809 546.077 445.102 545.198 445.102 545.003C445.102 544.807 446.274 544.612 447.836 544.612C449.301 544.612 452.426 543.733 454.77 542.659C460.629 540.022 461.703 540.12 461.703 543.635C461.703 545.589 461.215 546.565 460.238 546.565C459.457 546.565 458.774 547.151 458.774 547.737C458.774 548.421 458.481 549.983 458.188 551.155C457.699 553.01 457.992 553.401 459.946 553.401C461.313 553.401 463.363 554.475 464.633 555.842C466.196 557.503 467.27 557.991 467.953 557.307C468.442 556.819 469.613 556.331 470.395 556.331C472.153 556.331 477.133 564.632 478.988 570.589C480.649 576.057 482.602 577.62 484.946 575.471C487.289 573.421 487.485 573.518 491.488 576.155C494.418 578.01 494.906 578.889 494.906 582.014C494.906 584.651 495.59 586.409 497.348 588.167C498.715 589.534 499.789 591.585 499.789 592.854C499.789 595.784 501.254 596.956 506.235 597.737C509.75 598.323 510.434 598.128 511.801 595.979C512.778 594.612 513.461 591.682 513.461 589.534C513.461 587.288 514.145 584.26 514.926 582.6C516.293 580.061 516.293 579.378 515.024 576.546C514.242 574.885 513.363 571.76 512.973 569.612C512.582 567.073 511.801 565.706 510.434 565.413C508.188 564.827 507.992 563.362 510.043 562.581C512.094 561.702 511.899 559.456 509.555 558.772C507.016 557.991 506.723 551.448 509.164 551.448C510.434 551.448 510.629 550.862 510.043 548.714C509.75 547.249 508.969 545.882 508.481 545.784C507.992 545.589 507.602 543.928 507.602 542.171C507.602 540.315 507.113 537.776 506.528 536.507C505.063 533.284 506.821 530.159 511.117 528.401C514.145 527.132 514.438 526.643 514.438 522.737C514.438 519.417 513.949 517.952 512.192 516.585C511.02 515.608 508.676 513.069 507.113 510.823C504.184 506.721 500.18 504.768 490.707 502.717C488.656 502.229 486.02 500.96 484.75 499.788C483.188 498.323 481.332 497.737 477.719 497.737C472.153 497.737 471.664 497.444 468.637 492.854C467.367 490.999 465.317 488.557 464.145 487.483C462.875 486.409 461.606 484.553 461.215 483.284C460.141 479.475 464.047 480.647 467.074 485.042C468.735 487.385 470.59 488.948 471.762 488.948C472.836 488.948 476.059 489.729 478.891 490.608C482.992 491.878 484.653 491.975 486.606 491.096C488.266 490.315 489.828 490.315 491.586 490.901C495.59 492.464 502.817 492.073 504.867 490.217C506.528 488.753 506.723 488.753 507.992 490.413C508.676 491.389 509.75 491.878 510.336 491.487C511.899 490.608 511.899 497.932 510.434 499.397C509.653 500.178 510.531 500.667 513.461 501.155C515.707 501.546 517.66 502.327 517.856 502.913C518.051 503.596 518.442 505.257 518.735 506.819C519.321 509.163 519.613 509.358 521.274 508.479C523.715 507.21 523.91 508.967 521.762 511.8C519.516 514.729 520.004 516.292 523.031 516.292C528.11 516.292 531.039 521.663 528.012 525.471C526.059 527.913 526.059 527.913 528.012 531.819C529.867 535.335 530.453 535.725 534.164 536.018C537.485 536.214 538.559 536.8 539.535 538.753C540.61 540.999 540.414 541.292 536.41 543.928C533.188 546.077 532.016 547.444 532.016 549.202C532.016 551.253 532.406 551.546 535.238 551.253C537.875 551.057 538.461 550.471 538.656 548.225C539.047 544.71 542.758 544.417 542.758 547.835C542.758 549.397 543.637 550.569 545.199 551.253C549.399 553.206 550.863 552.815 550.18 549.983C548.813 544.514 555.942 546.565 558.383 552.327C559.262 554.475 560.238 555.354 561.801 555.354C564.34 555.354 567.172 553.01 567.172 551.057C567.172 550.374 567.953 548.714 569.028 547.444C570.395 545.589 570.883 543.05 571.176 535.823L571.567 526.546L564.731 526.448C560.336 526.448 556.528 525.764 553.988 524.69C550.961 523.323 549.496 523.128 547.446 523.909C545.492 524.592 544.516 524.592 543.735 523.616C542.953 522.737 542.953 522.151 543.735 521.663C545.395 520.589 544.809 519.221 542.66 519.221C540.414 519.221 536.801 517.464 535.727 515.901C535.336 515.315 534.946 512.678 534.946 510.139C534.946 506.819 534.36 504.573 532.992 502.913C531.723 501.253 531.039 498.909 531.039 496.175C531.039 493.05 530.649 491.878 529.574 491.878C528.793 491.878 528.11 490.999 528.11 489.925C528.11 488.85 528.598 487.971 529.281 487.971C530.16 487.971 530.16 487.678 529.281 486.8C527.426 484.944 527.914 477.132 530.063 473.616L532.016 470.393L528.305 468.05C521.762 463.948 519.906 458.577 523.52 453.987C524.692 452.522 524.789 452.62 518.832 449.788C513.656 447.346 504.672 446.565 504.672 448.518C504.672 450.471 499.887 451.057 497.543 449.397C496.371 448.616 494.613 447.932 493.539 447.932C489.731 447.932 480.258 443.635 480.258 441.878C480.258 440.901 478.988 438.753 477.426 436.995C474.789 434.065 474.399 433.87 472.153 435.139C469.418 436.604 462.485 436.018 461.899 434.26C461.41 432.991 453.11 427.425 451.547 427.425C449.887 427.425 446.469 423.616 445.199 420.296C444.613 418.733 444.125 415.51 444.125 412.971C444.125 409.163 443.735 408.186 441.977 407.405C440.707 406.819 439.047 404.866 438.168 403.01C437.192 401.155 435.141 398.518 433.383 397.346C430.356 395.003 430.16 395.003 425.961 396.663C423.617 397.542 421.469 398.616 421.176 399.104C420.883 399.592 418.442 399.69 415.805 399.397C412.485 399.007 410.922 399.202 410.922 399.983C410.922 400.569 410.141 401.057 409.067 401.057C407.797 401.057 406.918 402.229 406.039 405.354C405.063 408.87 404.574 409.553 402.914 409.065C401.547 408.772 400.863 409.163 400.473 410.628C400.18 411.897 398.617 413.167 396.371 413.85C391.781 415.315 383.969 419.319 380.453 421.858C376.84 424.592 376.742 426.936 380.453 426.057C381.918 425.667 384.848 425.178 386.996 424.885C395.102 423.811 395.59 423.616 395.004 421.077C394.613 418.928 394.906 418.635 397.25 418.635C399.008 418.635 400.473 419.417 401.547 421.077C403.5 424.007 407.016 425.081 409.848 423.616C412.875 421.956 418.735 425.374 423.129 431.331C425.18 434.065 427.817 436.507 429.184 436.8C430.453 437.19 433.578 439.534 436.02 442.171C438.461 444.807 441.196 446.956 442.074 446.956C444.418 446.956 446.078 448.909 446.078 451.546C446.078 452.815 446.762 454.085 447.641 454.475C448.52 454.768 449.985 456.917 451.059 459.26C452.524 462.874 453.305 463.557 455.551 463.557C460.434 463.557 462.485 464.632 464.145 468.05C467.66 475.569 463.852 481.135 458.774 475.764C456.039 472.835 454.867 472.639 454.867 475.276C454.867 478.206 453.11 477.913 442.465 473.03C440.414 472.151 438.754 472.249 435.141 473.811C434.164 474.202 433.383 474.104 433.383 473.518C433.383 472.932 434.75 472.249 436.41 471.858C440.414 470.979 439.926 468.05 435.531 467.659C433.676 467.464 432.406 466.78 432.406 465.999C432.406 465.315 431.723 464.534 430.844 464.339C429.477 464.046 429.574 463.655 431.332 461.409C432.992 459.358 433.188 458.284 432.504 456.428C431.528 453.889 428.403 452.229 425.375 452.717C424.496 452.815 423.227 452.034 422.641 450.96C421.957 449.592 420.59 448.909 418.637 448.909C416.098 448.909 415.805 449.202 416.293 450.862C416.781 452.327 416.488 452.815 415.024 452.815C413.949 452.815 412.582 453.499 411.899 454.28C411.215 455.061 410.336 455.745 410.043 455.745C408.871 455.745 405.063 448.225 405.063 445.979C405.063 444.807 404.281 442.561 403.403 440.999C401.938 438.46 401.156 438.167 397.055 438.167C394.418 438.167 390.707 437.483 388.754 436.702C386.801 435.823 384.457 435.432 383.676 435.725C382.895 436.018 381.235 435.237 379.965 434.065C378.305 432.503 376.645 431.917 374.399 432.112C371.567 432.405 370.785 431.917 368.149 428.303C366.488 426.057 364.926 423.714 364.731 423.225C364.535 422.542 362.973 423.03 360.922 424.3C357.406 426.448 354.574 426.936 350.571 425.862C348.715 425.276 348.422 424.788 348.91 422.835C349.399 420.784 349.203 420.491 347.446 421.077C343.832 422.249 345.492 419.905 350.18 417.366C353.891 415.315 355.16 415.12 356.723 415.999C357.797 416.585 360.434 417.366 362.582 417.757C364.731 418.147 368.149 418.733 370.102 419.124C375.375 420.198 378.305 419.124 379.477 415.803C380.453 413.167 380.649 413.069 384.457 413.753C387.973 414.339 388.852 414.046 393.051 411.116C396.176 408.87 398.227 406.526 399.399 403.694C401.547 398.323 401.645 395.784 399.594 396.565C398.715 396.858 396.957 397.444 395.492 397.835L392.953 398.421L395.199 395.393C397.348 392.366 397.348 392.268 395.688 388.753C394.613 386.507 392.856 384.749 391.196 384.065C388.949 383.284 388.461 382.503 388.461 379.866C388.461 377.229 387.973 376.546 385.824 376.057C383.969 375.569 382.895 375.862 382.016 377.034C380.942 378.499 380.649 378.01 379.184 373.128C377.328 366.682 377.914 361.507 380.649 360.042C381.625 359.553 384.164 359.065 386.313 359.065C390.903 359.065 391.684 358.479 390.317 355.94C389.535 354.573 389.633 353.206 390.414 351.253C391.586 348.421 391.586 348.421 394.809 349.983C396.664 350.862 398.324 352.522 398.617 353.889C399.203 355.842 399.789 356.135 404.379 356.135C410.336 356.233 414.145 358.772 415.219 363.46C415.61 365.022 416.977 367.757 418.344 369.514C421.664 373.811 421.274 378.596 417.66 378.596C416.684 378.596 414.926 379.866 413.656 381.526C412.485 383.089 410.922 384.456 410.141 384.456C408.969 384.456 408.969 384.163 409.946 382.893C411.02 381.624 410.824 381.038 408.676 378.792C405.356 375.569 403.988 376.643 403.305 383.284C402.914 387.971 402.914 388.069 406.137 389.241C408.969 390.217 409.75 390.12 412.094 388.362C413.559 387.288 416.098 386.409 417.66 386.409C419.711 386.409 420.785 385.823 421.176 384.456C421.469 383.382 422.348 382.503 422.934 382.503C423.52 382.503 426.352 381.331 429.184 379.768C434.262 377.132 434.36 377.034 434.36 372.639C434.36 368.928 433.774 367.366 430.942 363.85C429.086 361.507 427.524 358.479 427.524 357.112C427.524 355.647 425.961 353.206 423.617 350.764C421.469 348.616 419.711 346.37 419.711 345.784C419.711 345.1 417.856 342.268 415.512 339.339C413.168 336.507 409.848 332.112 408.188 329.573C406.039 326.35 403.988 324.69 401.449 323.811C396.274 322.151 390.707 318.44 389.34 315.901C388.754 314.632 387.387 312.678 386.313 311.604C384.848 309.944 384.262 307.112 383.481 299.397C382.992 293.831 382.406 288.264 382.113 287.19C381.821 286.018 378.403 282.014 374.496 278.401C367.953 272.249 367.27 271.272 366.684 266.975C365.805 260.921 365.903 261.018 360.043 257.796C354.672 254.866 352.914 251.936 351.84 244.124C351.547 241.585 350.571 237.581 349.789 235.335C348.422 231.526 348.422 231.038 350.278 227.327C351.449 225.178 352.328 222.053 352.328 220.393C352.328 216.878 356.723 207.796 359.262 205.94C362.094 203.987 361.703 199.104 358.676 197.737C357.309 197.151 355.942 195.491 355.551 194.124C355.258 192.757 354.086 190.12 353.012 188.264L350.961 184.944L355.063 185.53C358.481 186.116 359.262 185.921 360.141 184.358C360.824 183.089 360.824 182.21 360.141 181.819C358.871 181.038 358.871 175.471 360.043 175.471C360.629 175.471 361.215 175.862 361.508 176.35C361.801 176.839 363.656 177.425 365.512 177.62C368.637 178.01 368.93 177.815 368.93 175.374C368.93 172.639 370.395 171.565 374.106 171.565C375.278 171.565 378.11 170.686 380.356 169.71C383.774 168.147 384.457 167.268 384.75 164.534C385.043 161.702 385.434 161.311 388.168 161.018C390.805 160.725 391.391 161.116 391.977 163.167C392.27 164.436 392.27 166.487 391.879 167.561C391.488 168.928 391.977 170.491 393.246 172.151C395.102 174.495 395.102 174.983 393.832 177.425C392.27 180.452 386.899 181.819 381.039 180.745C378.11 180.257 377.719 180.354 377.719 182.21C377.719 183.284 378.11 184.26 378.598 184.26C380.258 184.26 383.871 190.315 384.457 193.928C384.946 196.956 385.434 197.444 387.973 197.737C392.953 198.225 396.176 199.983 398.324 203.499C400.961 207.796 409.36 213.948 414.34 215.315C416.488 215.901 421.469 217.561 425.375 219.026L432.406 221.663V228.206C432.406 231.819 431.723 236.409 430.942 238.362C429.477 241.78 429.477 241.878 432.211 243.245C435.727 245.003 437.778 247.444 439.047 251.546C440.024 254.378 439.926 255.159 438.168 257.307L436.215 259.846L438.461 260.725C439.731 261.214 442.367 261.311 444.418 261.116C447.153 260.725 449.789 261.311 454.379 263.46C460.043 265.999 461.703 266.292 470.59 266.292C478.012 266.292 480.356 265.999 480.063 265.022C479.77 264.436 478.11 263.655 476.254 263.362C473.715 262.971 472.836 262.385 472.641 260.725C472.446 259.163 470.981 258.089 467.172 256.624C457.211 252.913 449.887 247.249 445.883 240.218C444.223 237.385 441.488 233.87 439.731 232.503C434.75 228.694 434.262 223.714 438.266 217.464L441.391 212.678L445.395 214.241C447.641 215.12 451.059 217.268 452.914 219.026C456.235 222.053 456.528 222.151 463.266 221.663L470.199 221.175L472.446 225.667C473.617 228.206 476.742 232.405 479.379 234.944C482.016 237.581 484.164 240.413 484.164 241.389C484.164 244.417 489.34 252.62 492.465 254.573C494.223 255.647 496.371 258.284 497.348 260.432C498.52 263.069 499.594 264.241 500.571 263.85C501.254 263.557 503.012 263.362 504.379 263.362C506.528 263.362 506.723 263.069 506.137 260.335C505.649 258.089 505.942 256.819 507.406 255.257C510.434 251.741 510.824 249.69 508.383 248.811C507.113 248.323 506.723 247.835 507.406 247.346C508.09 246.956 508.09 245.979 507.113 244.124C506.235 242.366 506.039 240.999 506.723 239.827C508.09 237.093 507.797 236.311 504.965 235.53C503.403 235.237 497.934 232.503 492.66 229.475C485.629 225.471 482.406 223.03 480.746 220.296C479.379 218.343 477.914 216.389 477.426 216.096C476.938 215.706 475.961 213.948 475.375 212.093C474.399 209.065 474.496 208.186 476.352 205.354C478.207 202.229 478.598 202.034 481.235 203.01C483.578 203.792 484.75 203.596 487.289 202.034C490.024 200.374 491.293 200.178 495.688 200.862C499.887 201.546 501.938 202.62 506.723 206.819C512.094 211.507 512.973 211.897 518.735 212.288C525.766 212.874 527.914 214.729 530.063 221.956C530.844 224.593 532.602 226.741 535.531 228.987C537.875 230.745 540.121 233.284 540.414 234.651C540.805 236.116 541.586 236.897 542.27 236.604C542.953 236.409 545.395 235.628 547.543 234.944C550.375 234.065 551.449 233.284 551.059 232.307C550.766 231.624 550.571 230.647 550.571 230.257C550.571 229.768 548.227 227.034 545.395 224.007C542.465 221.077 538.852 216.096 537.289 213.069C535.141 208.968 533.774 207.405 531.821 207.014C530.453 206.721 529.086 205.745 528.793 204.768C528.598 203.792 525.18 201.546 521.078 199.593C514.633 196.468 513.559 195.589 512.192 192.073C511.117 189.241 510.141 188.167 508.676 188.167C506.821 188.167 506.625 188.753 506.625 193.538C506.625 198.616 506.528 198.909 504.184 198.909C500.278 198.909 495.004 195.784 492.856 192.268C491.781 190.413 490.317 186.409 489.633 183.284L488.266 177.62L493.051 177.034C496.762 176.546 497.836 175.96 497.836 174.593C497.836 173.421 496.567 172.444 493.735 171.565C487.875 169.905 486.02 168.343 482.602 162.483C480.16 158.284 479.086 157.307 476.547 157.112C472.641 156.721 472.543 155.257 476.352 148.714C479.086 143.831 479.477 143.635 486.606 141.487L494.028 139.339L498.422 142.268C503.598 145.882 512.485 149.104 517.172 149.104C519.906 149.104 521.567 148.225 525.18 144.807C527.719 142.366 532.992 138.85 536.801 136.995L543.735 133.479V129.085C543.735 125.374 544.125 124.495 546.469 123.03C547.934 122.151 549.985 120.686 551.059 119.807C552.817 118.343 564.535 113.948 566.781 113.948C567.27 113.948 568.539 115.413 569.516 117.073C573.617 124.104 577.035 127.62 579.77 127.62C581.235 127.62 583.285 128.303 584.36 129.085C585.336 129.866 587.485 130.55 588.949 130.55C590.512 130.55 592.563 131.038 593.539 131.526C595.102 132.405 595.981 131.917 598.617 128.987C607.699 118.831 607.699 118.831 612.485 118.831C615.61 118.831 616.977 118.44 616.977 117.464C616.977 116.78 617.856 115.022 618.93 113.655C620.004 112.288 620.883 110.53 620.883 109.651C620.883 108.382 621.957 108.089 626.254 108.089C631.137 108.089 631.821 108.382 632.797 110.53C634.946 115.218 639.828 117.268 648.617 117.073C655.063 117.073 656.918 117.366 658.481 118.831C659.555 119.905 664.34 122.444 668.93 124.593C676.352 128.01 678.305 128.499 684.067 128.499C687.68 128.499 696.86 128.792 704.379 129.28C716.196 130.061 718.735 130.55 723.031 132.698C728.012 135.335 730.258 138.362 730.258 142.757C730.258 145.686 730.453 145.686 736.606 143.343C740.121 141.975 741.586 140.901 741.781 139.436C741.977 138.069 743.637 136.604 746.274 135.237C750.082 133.382 750.473 132.893 750.375 129.671C750.278 126.839 750.668 126.155 752.035 126.155C753.012 126.155 754.477 125.374 755.16 124.3C755.942 123.323 756.918 122.835 757.504 123.225C758.09 123.518 758.578 123.225 758.578 122.346C758.578 121.565 760.043 120.003 761.801 118.928C764.926 117.073 765.024 116.682 764.926 111.604C764.828 108.675 764.145 104.964 763.461 103.303C762.485 100.764 762.485 99.8855 763.852 97.8347C766 94.6121 765.805 93.7332 762.875 93.0496C760.727 92.4636 760.531 92.1707 761.703 90.8035C762.485 89.8269 763.071 86.3113 763.071 81.6238C763.168 77.5222 763.559 73.616 763.949 73.03C764.242 72.4441 765.903 71.9558 767.66 71.9558C770.102 71.9558 771.957 70.7839 776.156 66.6824C782.602 60.4324 786.215 58.9675 790.707 60.823C793.735 62.0925 793.832 61.9949 794.906 59.4558C796.469 55.6472 796.274 48.9089 794.321 42.6589C793.442 39.7292 792.563 33.6746 792.465 29.28L792.27 21.1746H789.242C786.996 21.1746 785.922 20.5886 785.141 18.8308C784.067 16.2917 774.399 8.67456 770.004 6.72144C768.539 6.03784 764.926 5.54956 761.996 5.54956C757.699 5.54956 756.43 5.15894 755.16 3.40112C754.184 1.93628 752.621 1.15503 750.473 1.15503C748.813 1.15503 746.469 0.764404 745.395 0.471436C744.125 0.0808105 741.781 0.764404 738.852 2.42456Z" fill="black"/>
<path d="M575.277 139.145C573.812 140.707 571.761 142.172 570.785 142.562C569.808 142.953 567.952 145.687 566.585 148.617C564.632 152.816 564.242 154.867 564.73 157.797C565.316 161.312 565.609 161.605 569.222 162.191C571.273 162.484 573.031 163.168 573.031 163.559C573.031 163.949 574.3 165.805 575.863 167.66L578.695 171.078L580.843 169.125C582.015 168.051 585.042 166.488 587.484 165.609L592.074 164.047L592.757 157.895C593.245 153.793 593.05 151.254 592.367 150.375C591.585 149.398 591.781 148.617 593.05 147.152C594.613 145.395 594.613 145.199 593.245 145.199C592.367 145.199 590.902 144.125 590.023 142.758C588.949 141.098 587.484 140.316 585.726 140.316C584.261 140.316 582.308 139.437 581.331 138.363C579.085 135.824 578.597 135.922 575.277 139.145Z" fill="black"/>
<path d="M662.387 250.664C662.094 251.152 660.727 251.641 659.359 251.641C657.602 251.641 657.016 252.129 657.016 253.789C656.918 256.133 653.988 260.43 652.328 260.43C651.84 260.43 650.863 261.113 650.082 261.992C649.008 263.359 648.617 263.262 647.055 261.211C646.176 259.941 645.297 258.477 645.297 257.891C645.297 257.207 644.125 256.035 642.758 255.059C640.609 253.691 639.828 253.594 637.387 254.668C634.945 255.645 634.262 255.547 633.285 254.277C632.211 252.91 631.625 252.91 627.035 254.375L621.859 256.035V260.625C621.859 263.945 622.25 265.312 623.227 265.312C624.203 265.312 624.398 266.777 624.008 272.148C623.52 279.375 624.008 280.059 627.719 278.008C628.793 277.422 630.648 277.227 631.918 277.52C633.773 278.008 634.066 278.594 633.773 281.328C633.383 285.039 634.457 285.82 639.145 285.137C642.27 284.648 642.27 284.648 640.902 281.816C640.121 280.352 639.438 277.031 639.438 274.59C639.438 270.879 639.828 270 641.684 269.316C644.613 268.145 645.297 268.73 645.297 272.734C645.297 274.785 644.906 275.957 644.32 275.566C642.66 274.492 643.246 276.055 645.785 279.375C647.152 281.133 648.227 282.988 648.227 283.574C648.227 284.551 652.426 286.797 654.379 286.797C655.062 286.797 656.137 285.918 656.82 284.746C657.895 282.988 657.895 282.402 656.625 281.035C655.844 280.156 654.867 277.617 654.477 275.469C653.891 271.758 654.086 271.27 656.918 269.316C658.578 268.145 659.945 266.484 659.945 265.703C659.945 263.164 662.875 258.477 664.438 258.477C665.609 258.477 665.902 257.891 665.414 256.23C665.121 255.059 664.828 253.105 664.828 251.836C664.828 249.59 663.461 248.906 662.387 250.664Z" fill="black"/>
<path d="M48.4213 283.478C47.4447 284.552 44.3197 285.235 38.9487 285.528C31.6244 286.017 30.8432 286.31 28.9877 288.849C27.1322 291.388 27.1322 291.778 28.5971 294.61C29.3783 296.173 30.5502 297.54 31.0385 297.54C31.5268 297.54 31.7221 298.126 31.4291 298.907C30.6479 300.958 32.7963 304.376 34.8471 304.376C36.1166 304.376 36.8979 305.353 37.2885 307.696C37.6791 309.845 38.6557 311.31 39.8276 311.7C40.9018 312.091 41.7807 312.872 41.7807 313.458C41.7807 314.142 43.3432 315.704 45.1987 316.974C48.0307 318.927 48.7143 320.099 49.6908 324.884C51.1557 332.208 53.7924 336.505 57.6987 337.872C59.4565 338.556 65.0229 341.095 70.101 343.634C75.4721 346.368 79.6713 347.931 80.1596 347.443C80.6479 346.954 79.8666 344.122 78.2065 340.607C75.6674 335.431 75.0815 334.747 74.0072 336.114C72.4447 337.97 68.1479 338.068 68.1479 336.212C68.1479 335.528 66.1947 334.161 63.7533 333.282C58.8705 331.329 58.7729 331.134 57.7963 320.685C57.308 314.142 57.4057 313.165 58.7729 313.165C61.5072 313.165 60.433 311.505 56.6244 310.04C53.6947 308.868 52.7182 307.794 51.644 304.669C50.0815 299.982 50.4721 299.103 55.4526 296.564C60.726 293.829 63.2651 285.821 58.7729 285.821C58.0893 285.821 56.9174 284.943 56.2338 283.868C54.769 281.525 50.6674 281.329 48.4213 283.478Z" fill="black"/>
<path d="M615.218 321.171C613.948 322.44 613.656 328.495 614.632 331.229C615.218 332.597 615.804 332.304 618.538 329.667C622.249 326.151 622.738 323.319 620.198 321.366C618.05 319.706 616.683 319.706 615.218 321.171Z" fill="black"/>
<path d="M761.507 344.418C760.726 345.004 758.479 345.297 756.624 345.199C754.769 345.102 751.546 345.59 749.593 346.273C746.272 347.348 745.882 347.836 745.882 350.766C745.882 353.5 745.394 354.184 742.757 355.063C740.999 355.746 736.995 356.43 733.968 356.82C730.354 357.211 727.815 357.992 726.741 359.164C724.788 361.41 722.64 361.508 720.003 359.652C718.245 358.48 717.757 358.578 715.315 360.629C713.753 361.996 712.679 363.852 712.679 365.414C712.679 366.781 711.995 369.223 711.116 370.883C709.749 373.617 709.749 374.008 711.702 377.133C712.874 378.988 714.534 380.551 715.315 380.551C716.194 380.551 718.929 381.82 721.37 383.383C726.937 386.898 734.065 387.68 736.995 385.043C737.972 384.066 740.511 380.551 742.562 377.035L746.175 370.785H750.96C757.21 370.785 759.554 372.055 759.554 375.57C759.554 378.012 758.968 378.598 754.28 380.453C751.448 381.625 748.03 383.383 746.761 384.262C745.491 385.141 742.854 386.41 740.999 386.898C737.483 387.973 735.628 391.293 738.46 391.293C739.339 391.293 741.194 393.344 742.659 395.883L745.198 400.57L751.155 400.766C755.55 400.863 758.479 401.547 762.483 403.695C766.78 405.941 769.124 406.43 774.397 406.43C780.257 406.43 781.331 406.137 783.577 403.793L786.214 401.254L782.796 396.469C777.913 389.828 777.034 387.777 777.718 385.043C778.206 382.895 778.597 382.797 780.55 383.676C782.405 384.555 782.991 385.727 783.577 390.023C784.358 396.371 786.214 398.715 791.097 399.496C794.417 400.082 794.71 399.984 794.71 397.836C794.71 396.566 793.44 393.539 791.78 391C787.386 383.969 784.847 378.598 785.433 377.621C785.726 377.133 784.944 376.449 783.577 376.059C781.917 375.668 780.745 374.203 779.573 371.273C778.401 368.051 776.937 366.391 773.616 364.438C768.929 361.703 768.538 360.531 770.784 356.039C772.249 353.207 772.249 353.109 769.417 351.449C767.171 350.18 766.585 349.301 766.976 347.641C767.366 346.176 766.976 345.199 765.608 344.516C763.167 343.246 763.362 343.246 761.507 344.418Z" fill="black"/>
<path d="M498.812 361.9C498.812 362.29 497.249 364.634 495.394 366.978C493.538 369.322 491.976 372.154 491.976 373.13C491.976 374.204 491.292 375.767 490.511 376.646C489.632 377.622 489.241 378.99 489.632 379.869C490.12 381.236 490.804 381.04 494.515 378.404C496.858 376.744 498.812 374.595 498.812 373.814C498.812 372.935 499.886 370.494 501.253 368.345C504.378 363.169 504.378 361.021 501.253 361.021C499.886 361.021 498.812 361.412 498.812 361.9Z" fill="black"/>
<path d="M79.8672 366.88C79.8672 369.223 82.5039 373.032 85.1406 374.399C87.7773 375.766 88.168 375.766 89.3398 374.106C90.4141 372.641 90.3164 372.055 88.8516 370.493C85.8242 367.173 79.8672 364.731 79.8672 366.88Z" fill="black"/>
<path d="M460.727 370.975C460.727 371.659 462.289 374.882 464.242 378.007C466.195 381.229 467.465 384.55 467.27 385.624C466.879 386.991 467.367 387.382 469.125 387.382C470.492 387.382 472.641 388.065 473.91 388.944C477.133 390.995 478.793 390.214 481.234 385.429C482.992 381.913 483.09 381.425 481.723 380.839C480.844 380.546 479.672 380.741 478.988 381.425C477.426 382.987 476.84 382.792 475.57 380.057C474.984 378.69 473.91 377.616 473.227 377.616C472.641 377.616 470.004 375.858 467.465 373.71C462.68 369.706 460.727 368.925 460.727 370.975Z" fill="black"/>
<path d="M446.077 373.224C445.589 374.591 444.515 375.665 443.734 375.665C442.366 375.665 439.632 379.376 440.413 380.059C440.609 380.157 442.073 380.645 443.831 380.938C446.273 381.524 446.956 381.329 447.444 379.766C447.835 378.79 449.202 377.423 450.667 376.739L453.206 375.567L450.96 373.224C448.128 370.196 447.249 370.196 446.077 373.224Z" fill="black"/>
<path d="M557.991 407.109C557.698 408.379 557.21 410.625 556.917 412.285C555.257 420.488 555.257 420.586 556.624 420.586C558.48 420.586 562.581 426.152 561.312 426.934C560.726 427.227 560.335 428.496 560.335 429.668C560.433 431.621 560.726 431.426 563.265 428.399C565.609 425.567 566.39 425.176 567.757 426.055C570.296 427.617 570.491 429.082 568.245 429.863C566.292 430.449 566.292 430.645 567.855 433.574C569.32 436.602 569.417 436.602 570.198 434.453C571.077 432.207 574.007 432.402 574.007 434.746C574.007 435.625 574.984 435.625 578.304 434.551C582.113 433.281 582.601 432.793 581.917 431.035C581.527 429.863 578.695 427.031 575.57 424.688C570.687 420.879 570.101 420.098 570.101 416.875C570.101 414.043 569.32 412.481 565.999 409.16C561.409 404.473 558.675 403.789 557.991 407.109Z" fill="black"/>
<path d="M677.23 459.551C675.57 460.137 675.57 460.332 676.937 461.504C677.816 462.188 678.499 464.043 678.499 465.508C678.499 468.145 679.964 469.414 682.894 469.414C683.577 469.414 684.359 467.754 684.652 465.801C685.628 460.234 682.308 457.5 677.23 459.551Z" fill="black"/>
<path d="M719.027 461.309C712.386 461.895 707.405 465.605 708.284 469.316C709.066 472.539 713.069 476.738 716.78 478.301C720.784 479.961 726.839 492.363 725.96 497.148C725.179 501.25 723.323 503.301 719.71 504.277C716.683 504.961 712.777 507.598 712.679 508.867C712.679 510.43 723.226 522.637 726.155 524.395L729.085 526.055L729.769 522.93C730.648 518.73 731.917 517.266 734.749 517.266C737.386 517.266 738.558 515.703 738.167 512.578C738.069 511.211 739.046 509.062 740.902 506.914C744.222 503.203 745.882 498.516 744.124 497.93C743.343 497.734 742.952 494.805 742.952 489.922C742.952 485.625 742.464 481.035 741.78 479.668C740.804 477.422 740.804 476.934 742.269 476.152C743.343 475.469 743.929 473.906 743.929 471.367C743.929 466.973 742.855 465.898 740.023 467.461C738.265 468.34 737.777 468.047 736.116 465.215C734.066 461.797 730.745 460.43 725.96 460.82C724.886 460.918 721.761 461.113 719.027 461.309Z" fill="black"/>
<path d="M672.151 467.461C671.468 468.633 672.346 470.391 673.714 470.391C674.202 470.391 674.593 469.512 674.593 468.438C674.593 466.387 673.128 465.801 672.151 467.461Z" fill="black"/>
<path d="M747.836 469.319C747.836 471.663 749.789 473.323 752.523 473.323C753.793 473.323 755.648 473.811 756.723 474.299C758.09 475.081 758.578 474.983 758.578 474.007C758.578 471.956 755.16 469.319 751.352 468.44C748.422 467.757 747.836 467.952 747.836 469.319Z" fill="black"/>
<path d="M138.754 476.156C139.047 477.621 138.851 478.206 137.777 478.206C136.605 478.206 136.41 478.988 136.996 481.82C137.679 485.726 139.828 490.414 141.293 491.292C141.781 491.683 142.757 490.316 143.343 488.46C144.418 485.238 143.832 481.136 141.488 476.351C140.316 473.91 138.07 473.714 138.754 476.156Z" fill="black"/>
<path d="M126.449 481.722C126.253 483.089 126.253 487.093 126.546 490.511C126.937 496.468 126.839 497.054 124.3 499.691C122.738 501.351 120.98 502.621 120.394 502.621C118.636 502.621 116.195 499.593 115.414 496.371C114.828 494.027 114.632 493.832 113.851 495.199C113.363 496.078 112.386 496.761 111.703 496.761C110.921 496.761 110.14 498.422 109.749 500.863C109.359 503.109 108.48 506.332 107.796 507.894C107.113 509.554 105.941 513.265 105.257 516.195C104.085 521.273 104.085 521.566 106.332 523.226C109.261 525.472 113.656 525.668 114.437 523.519C115.511 520.785 115.023 509.847 113.851 508.675C112.972 507.797 113.07 507.504 114.632 507.504C116.39 507.504 117.464 509.457 121.468 520.687C122.152 522.445 122.054 522.543 120.394 521.175C118.734 519.906 118.636 519.906 119.124 521.175C119.32 521.957 120.199 524.691 120.882 527.132C121.859 530.257 123.031 532.015 125.082 533.285C127.914 534.847 128.109 534.847 130.16 532.894C133.187 530.062 135.628 530.453 140.902 534.457C144.515 537.289 146.566 538.07 150.277 538.265C154.671 538.461 155.062 538.363 155.941 535.531C157.503 531.234 157.308 530.257 154.085 526.742C149.398 521.664 144.32 514.535 142.757 510.922C141.488 507.894 141.097 507.601 139.437 508.48C138.363 509.066 137.093 509.261 136.605 508.968C135.238 508.187 134.261 502.425 135.335 501.742C136.507 501.058 133.675 486.898 131.624 483.089C129.281 478.597 127.23 478.109 126.449 481.722Z" fill="black"/>
<path d="M144.321 493.437C142.954 494.414 141.782 495.195 141.586 495.292C140.707 495.878 144.614 502.617 146.079 503.007C149.692 504.179 153.012 500.956 150.082 499.199C149.594 498.808 149.204 497.148 149.399 495.488C149.789 491.777 147.934 491.093 144.321 493.437Z" fill="black"/>
<path d="M588.655 549.1C583.284 552.616 581.721 554.373 582.209 556.131C584.944 566.776 585.041 566.873 587.092 566.092C590.022 565.018 594.514 568.436 594.514 571.561C594.514 573.221 596.174 575.76 599.69 579.178C602.522 582.01 605.647 586.209 606.623 588.358C608.674 592.85 610.041 593.436 612.288 590.702C615.998 586.307 617.073 577.811 613.557 580.741C612.288 581.717 612.092 581.619 612.092 579.666C612.092 578.397 612.581 576.639 613.069 575.858C613.752 574.784 613.264 573.807 611.311 572.244C609.163 570.584 608.87 569.901 609.944 568.924C610.53 568.241 611.116 566.483 611.116 565.018C611.116 562.772 610.627 562.284 607.502 561.795C598.42 560.233 598.518 560.33 597.444 556.229C596.858 554.08 595.686 552.03 594.905 551.737C594.221 551.444 593.538 550.467 593.538 549.491C593.538 546.756 592.366 546.659 588.655 549.1Z" fill="black"/>
<path d="M139.34 559.944C137.68 560.335 135.531 567.268 135.531 572.347C135.531 574.788 136.117 575.765 137.973 576.643C139.34 577.229 141.098 579.475 141.977 581.429C145.395 589.143 145.688 589.632 148.52 590.218C150.57 590.608 151.84 591.878 153.598 595.393C155.648 599.397 156.234 599.983 158.383 599.593C161.215 599.007 162.387 596.663 160.824 594.808C159.555 593.245 160.922 590.315 163.949 588.167C166.391 586.507 170.004 587.679 173.129 591.292L175.082 593.636L176.938 591.585C178.695 589.632 178.695 589.534 175.277 586.409C173.422 584.651 171.078 582.698 170.102 582.112C169.125 581.526 167.855 579.573 167.27 577.815C166.293 574.886 165.414 574.3 159.066 572.151C152.816 570.1 151.645 569.222 148.031 564.534C144.32 559.554 143.051 558.87 139.34 559.944Z" fill="black"/>
<path d="M804.476 576.836C804.476 577.324 803.792 577.812 802.914 577.812C802.035 577.812 800.082 578.887 798.421 580.254C796.859 581.621 795.003 582.695 794.32 582.695C793.636 582.695 792.171 583.77 790.902 584.941C789.046 587.09 788.949 587.383 790.316 588.555C791.39 589.434 791.683 590.703 791.292 592.559C790.414 596.367 792.074 596.758 795.199 593.438C798.714 589.727 803.597 588.75 806.917 590.898C808.285 591.777 809.359 593.145 809.359 593.926C809.359 595.977 816.292 601.25 818.929 601.25C820.394 601.25 822.738 599.785 825.082 597.344C827.23 595.195 829.671 593.438 830.746 593.438C831.722 593.438 833.089 592.754 833.773 591.973C834.457 591.191 836.117 590.605 837.582 590.703C840.414 590.898 844.515 589.043 844.515 587.578C844.515 586.992 843.832 586.602 843.05 586.602C841.097 586.602 841.195 583.77 843.246 581.523C844.906 579.668 844.808 579.668 842.367 580.254C840.804 580.645 838.656 580.352 836.898 579.375C832.308 577.031 830.55 577.324 831.234 580.254C831.624 581.621 831.624 582.695 831.429 582.695C830.257 582.695 821.078 577.422 821.078 576.738C821.078 576.25 817.367 575.859 812.777 575.859C807.894 575.859 804.476 576.25 804.476 576.836Z" fill="black"/>
<path d="M445.882 581.821C442.367 583.188 442.367 586.02 445.687 588.267L448.226 589.927L446.078 591.685L443.929 593.442H446.371C447.738 593.442 449.007 593.931 449.203 594.517C449.789 596.274 454.867 593.345 454.867 591.196C454.867 590.122 455.746 587.876 456.82 586.02C457.992 584.263 458.48 582.603 457.894 582.31C456.039 581.138 448.421 580.845 445.882 581.821Z" fill="black"/>
<path d="M433.773 591.876C433.48 592.755 433.48 594.22 433.871 595.099C434.457 596.759 434.555 596.759 435.922 594.903C436.703 593.927 437.191 592.56 436.996 592.071C436.41 590.411 434.359 590.313 433.773 591.876Z" fill="black"/>
<path d="M758.089 594.414C757.015 594.805 754.867 596.563 753.304 598.125C750.667 600.957 750.179 601.055 742.757 601.055C734.749 601.055 731.234 602.52 731.234 605.938C731.234 606.719 729.476 609.063 727.23 611.211C724.593 613.848 723.421 615.703 723.617 617.168C723.91 619.121 724.398 619.317 728.792 619.024C732.21 618.828 735.14 617.852 738.558 615.703C741.39 614.043 745.296 612.481 747.835 612.188C753.109 611.602 754.281 610.723 761.703 600.957L767.464 593.438L763.753 593.535C761.703 593.535 759.163 593.926 758.089 594.414Z" fill="black"/>
<path d="M541.781 595.88C541.781 596.661 541.195 597.345 540.511 597.345C539.73 597.345 538.656 598.419 538.07 599.786C536.8 602.521 536.41 616.095 537.581 617.267C537.972 617.56 540.999 614.923 544.32 611.407C551.351 603.79 552.62 600.079 549.398 596.661C546.956 594.122 541.781 593.536 541.781 595.88Z" fill="black"/>
<path d="M614.047 596.274C614.145 598.52 615.902 600.473 620.98 603.988C623.52 605.649 626.645 608.383 628.012 610.043C629.379 611.606 630.941 612.973 631.527 612.973C632.016 612.973 633.383 614.242 634.457 615.805C636.215 618.246 636.898 618.539 639.633 617.953C642.27 617.465 642.953 616.781 643.148 614.535C643.344 612.973 644.125 610.727 644.906 609.555C646.078 607.797 646.078 606.821 645.199 604.867C644.223 602.817 642.953 602.133 638.559 601.254C635.531 600.668 632.113 599.789 630.844 599.301C629.574 598.715 627.523 598.617 626.254 598.91C624.398 599.399 623.91 599.008 623.617 597.25C623.324 595.395 622.738 595.102 618.734 594.906C615.023 594.809 614.047 595.102 614.047 596.274Z" fill="black"/>
<path d="M603.792 623.32C605.354 627.128 604.866 630.937 602.522 633.671C601.741 634.648 601.546 635.429 602.132 635.429C602.718 635.429 603.401 636.699 603.792 638.359C604.573 641.972 605.159 641.972 608.479 638.554C610.628 636.406 611.116 634.843 611.116 631.132C611.116 625.468 609.944 623.222 606.233 621.269C602.229 619.218 602.132 619.316 603.792 623.32Z" fill="black"/>
<path d="M652.034 622.344C651.058 623.516 651.058 624.297 651.937 625.762C652.62 626.738 653.108 629.18 653.108 631.035V634.453L659.651 632.012C663.167 630.645 666.683 629.082 667.464 628.496C669.319 626.836 669.026 624.688 666.78 624.688C665.804 624.688 663.753 624.102 662.288 623.516C660.14 622.539 659.554 622.539 659.163 623.516C658.577 625.469 656.038 624.883 656.038 622.734C656.038 620.391 653.89 620.195 652.034 622.344Z" fill="black"/>
<path d="M551.938 625.469C549.887 626.738 547.445 632.598 548.422 633.77C549.008 634.551 548.91 637.676 548.129 642.461C547.152 648.516 547.152 650.078 548.129 650.078C549.984 650.078 555.453 643.437 555.453 641.289C555.453 640.215 556.723 638.164 558.383 636.797C561.02 634.355 561.117 634.062 559.555 632.891C558.676 632.207 557.113 631.523 556.234 631.523C554.867 631.523 554.477 630.742 554.477 628.105C554.477 624.687 553.891 624.102 551.938 625.469Z" fill="black"/>
<path d="M785.922 646.273C785.922 651.352 786.312 653.305 787.875 655.063L789.73 657.406L789.828 655.063C789.828 653.695 789.34 651.156 788.656 649.398C787.68 646.566 787.68 645.883 788.852 645.199C789.633 644.711 791.098 644.516 792.074 644.809C794.125 645.492 794.223 644.32 792.27 641.488C791.293 640.121 789.828 639.438 788.363 639.535C786.02 639.73 785.922 640.023 785.922 646.273Z" fill="black"/>
<path d="M453.402 640.897C449.691 641.678 440.413 646.659 439.241 648.514C437.288 651.541 439.534 652.713 443.636 650.76C445.589 649.881 448.226 649.1 449.593 649.1C451.253 649.1 452.327 648.416 452.62 647.245C452.913 646.17 454.769 644.608 456.917 643.827C458.968 642.948 460.726 641.874 460.726 641.288C460.726 640.311 457.21 640.116 453.402 640.897Z" fill="black"/>
<path d="M408.871 657.013C411.898 660.236 415.023 660.529 415.609 657.599C416 655.744 412.484 653.986 408.48 653.986H406.137L408.871 657.013Z" fill="black"/>
<path d="M557.406 665.02C554.672 667.168 552.523 670.977 552.523 673.711C552.523 676.738 553.598 677.227 555.453 674.98C557.211 672.832 558.871 673.223 560.141 675.957C560.727 677.324 561.605 678.398 562.094 678.398C563.07 678.398 565.219 671.758 565.219 668.633C565.219 664.727 560.531 662.48 557.406 665.02Z" fill="black"/>
<path d="M815.609 665.117C815.316 665.996 814.242 666.68 813.266 666.68C810.141 666.68 810.141 668.437 813.266 670.195C814.828 671.172 816.195 672.441 816.195 673.027C816.195 674.883 820.98 678.398 823.52 678.398C826.449 678.398 826.645 677.031 824.008 674.785C822.934 673.809 821.762 671.758 821.469 670.098C821.176 668.535 819.809 666.387 818.539 665.41C816.488 663.848 816.098 663.848 815.609 665.117Z" fill="black"/>
<path d="M671.468 667.169C669.515 668.536 667.659 670.489 667.268 671.563C666.975 672.637 665.901 673.516 664.925 673.516C663.948 673.516 662.581 674.102 661.897 674.883C661.311 675.665 659.847 676.446 658.675 676.641C657.307 676.837 656.429 677.715 656.233 679.083C656.038 680.352 655.452 681.329 654.866 681.329C654.28 681.329 654.475 682.11 655.257 682.989C656.136 683.965 657.015 686.7 657.307 689.044C657.698 691.973 658.772 694.219 660.725 696.368C662.386 698.028 663.85 700.665 664.046 702.227C664.436 706.231 666.194 706.426 669.319 702.911C670.784 701.251 672.932 699.883 674.202 699.883C676.057 699.883 676.741 698.712 679.378 690.801C681.038 685.919 682.405 680.547 682.405 678.985C682.405 675.567 677.62 664.727 676.155 664.727C675.569 664.727 673.421 665.801 671.468 667.169Z" fill="black"/>
<path d="M637.484 674.203C632.016 677.426 631.234 678.598 633.188 680.062C634.555 681.039 634.457 681.43 632.211 682.797C630.062 684.262 629.672 685.238 629.672 689.242C629.672 693.734 629.867 694.125 633.383 695.883L637.191 697.836L642.27 692.66C646.664 688.168 647.25 687.289 646.469 685.141C645.785 683.48 645.98 681.82 647.055 679.574C648.422 676.84 648.422 676.254 647.25 675.473C646.469 674.984 644.613 674.887 643.051 675.18C640.414 675.766 640.219 675.668 641.293 673.617C642.66 671.078 642.855 671.078 637.484 674.203Z" fill="black"/>
<path d="M826.449 684.453C826.84 685.723 827.23 686.699 827.328 686.699C832.699 688.848 832.992 689.043 831.137 691.484C829.77 693.34 829.086 693.633 828.012 692.754C826.84 691.777 826.645 691.875 827.23 693.242C827.523 694.121 828.109 696.562 828.5 698.613C829.477 704.277 830.551 705.742 833.773 705.742C836.02 705.742 836.703 705.254 836.703 703.887C836.703 702.52 837.484 701.836 839.438 701.641C842.465 701.348 843.344 698.223 841.586 693.633C840.805 691.387 840.316 691.094 839.145 692.07C837.973 693.047 837.387 692.656 835.629 689.727C834.457 687.676 831.82 685.234 829.672 684.16L825.766 682.207L826.449 684.453Z" fill="black"/>
<path d="M578.305 690.213C578.598 691.483 579.379 694.705 579.867 697.245C580.356 699.881 581.43 703.202 582.016 704.569C583.481 707.401 585.727 708.573 585.727 706.424C585.727 705.545 586.801 704.08 588.168 703.006C589.535 701.932 590.61 700.76 590.61 700.467C590.61 698.905 584.457 690.311 582.992 689.823C582.113 689.627 580.453 689.041 579.477 688.553C577.817 687.967 577.719 688.162 578.305 690.213Z" fill="black"/>
<path d="M622.444 690.215C619.417 692.559 619.222 695.391 621.761 699.199L623.518 702.031L624.104 699.688C625.081 695.586 625.96 688.164 625.472 688.164C625.276 688.164 623.909 689.043 622.444 690.215Z" fill="black"/>
<path d="M615.413 698.027C614.534 699.491 615.511 700.077 617.952 699.687C620.003 699.394 620.003 699.394 618.05 698.222C616.683 697.343 615.902 697.343 615.413 698.027Z" fill="black"/>
<path d="M726.351 704.764C726.351 705.253 725.569 705.741 724.69 705.741C723.714 705.838 721.761 707.499 720.296 709.549C718.733 711.795 716.292 713.846 714.241 714.628C712.093 715.409 710.628 716.678 710.237 718.143C709.847 719.803 709.065 720.389 707.112 720.389C705.647 720.389 703.499 721.366 702.229 722.538C700.96 723.71 699.983 724.1 699.983 723.514C699.983 722.831 699.593 722.342 699.007 722.342C696.956 722.342 698.128 725.956 700.472 727.03C703.89 728.592 706.331 728.495 707.796 726.737C708.479 725.956 709.749 725.272 710.726 725.272C711.702 725.272 714.925 722.44 718.05 718.924C724.397 711.698 727.62 709.647 732.796 709.647H736.409L732.112 706.717C727.522 703.592 726.351 703.202 726.351 704.764Z" fill="black"/>
<path d="M859.262 709.261C855.551 710.043 852.523 711.214 852.035 712.191C851.547 713.07 849.691 714.339 847.934 715.121C846.078 715.902 842.758 718.832 840.414 721.664C837.191 725.668 835.238 727.23 832.113 728.011C828.109 729.086 827.914 729.281 827.914 732.992C827.914 736.019 828.5 737.289 830.453 738.851C834.164 741.781 834.75 741.488 834.75 736.898C834.75 731.527 837.484 729.281 843.93 729.183C847.934 729.183 849.984 728.402 855.648 724.886C859.457 722.543 865.219 719.515 868.441 718.246C872.836 716.488 874.398 715.316 874.594 713.754C874.887 712.191 874.398 711.605 873.031 711.605C872.055 711.605 870.395 710.726 869.418 709.652C867.367 707.406 867.562 707.406 859.262 709.261Z" fill="black"/>
<path d="M566.097 718.439C564.73 720.295 563.558 723.127 563.46 724.689C563.167 729.865 558.773 732.307 555.843 729.084C553.988 726.936 551.546 726.643 551.546 728.4C551.546 731.428 552.816 733.674 554.671 734.553C558.089 736.115 557.991 737.971 554.574 737.971C552.523 737.971 551.253 737.385 550.863 736.311C550.179 734.553 545.687 730.256 544.515 730.158C543.636 730.158 541.488 743.537 542.171 744.709C542.562 745.295 543.929 745.295 545.98 744.709C547.64 744.221 551.839 743.83 555.159 743.83C558.48 743.83 562.288 743.439 563.656 742.854C565.902 741.975 566.195 741.389 566.195 736.799C566.195 730.451 566.976 727.229 568.538 727.229C569.222 727.229 570.296 725.568 571.077 723.518C571.859 721.564 572.64 719.611 572.835 719.123C573.031 718.732 572.347 718.439 571.273 718.439C570.101 718.439 569.124 717.658 568.929 716.779C568.636 715.412 568.05 715.803 566.097 718.439Z" fill="black"/>
<path d="M576.448 725.081C573.128 725.765 572.542 727.034 574.495 729.183C577.229 732.21 579.866 731.722 579.866 728.304C579.866 724.984 579.28 724.495 576.448 725.081Z" fill="black"/>
<path d="M646.565 726.449C644.124 729.574 644.124 736.019 646.663 736.019C647.249 736.019 649.299 738.266 651.155 740.902C653.889 744.711 655.061 745.687 657.014 745.492C659.163 745.297 659.553 744.711 660.042 740.414C660.725 734.848 660.237 733.383 656.917 731.723C655.647 731.137 653.987 729.379 653.303 727.914C651.936 725.082 648.225 724.301 646.565 726.449Z" fill="black"/>
<path d="M633.09 736.016C629.965 737.285 622.836 744.317 622.836 746.074C622.836 748.125 623.91 748.125 628.5 746.172C633.285 744.219 637.484 740.117 637.484 737.285C637.484 734.942 636.41 734.649 633.09 736.016Z" fill="black"/>
<path d="M599.692 743.632C598.129 744.608 599.203 748.71 600.961 748.71C601.645 748.71 603.012 749.491 603.989 750.565C604.965 751.542 606.723 752.714 607.992 753.007C609.848 753.593 610.141 753.397 610.141 750.858C610.141 748.71 609.262 747.538 606.137 745.487C601.84 742.655 601.449 742.557 599.692 743.632Z" fill="black"/>
<path d="M927.913 744.61C927.328 745 925.472 747.344 923.714 749.981C921.078 753.789 920.882 754.668 922.054 755.156C922.933 755.449 923.617 756.328 923.617 757.11C923.617 757.891 924.495 758.477 925.57 758.477C926.937 758.477 927.523 759.16 927.523 760.82C927.523 762.09 928.206 763.653 928.988 764.336C930.745 765.801 931.038 765.117 931.917 756.719C932.503 751.153 932.406 750.664 930.55 750.664C927.913 750.664 926.839 748.711 928.89 747.539C929.769 747.051 930.453 745.977 930.453 745.293C930.453 743.731 929.574 743.438 927.913 744.61Z" fill="black"/>
<path d="M767.367 747.641C767.367 748.129 768.051 749.008 768.832 749.691C770.59 751.156 770.785 753.5 769.125 753.695C768.442 753.793 764.828 753.793 761.117 753.598C754.867 753.402 754.477 753.5 755.16 755.16C755.551 756.234 756.43 758.383 757.016 759.945C759.262 766.098 761.117 767.953 764.34 767.465C767.465 767.074 768.149 765.512 766.293 763.656C765.707 763.07 765.414 761.41 765.805 760.141C766.293 758.09 767.074 757.699 772.25 757.113C775.961 756.723 778.11 755.941 778.11 755.258C778.11 753.402 770.981 746.762 769.028 746.762C768.149 746.762 767.367 747.152 767.367 747.641Z" fill="black"/>
<path d="M851.84 752.52C851.547 753.497 851.742 755.548 852.328 756.915C853.109 759.063 853.793 759.552 855.844 759.259C859.359 758.868 860.531 756.72 859.262 753.302C858.48 751.251 857.601 750.665 855.355 750.665C853.402 750.665 852.23 751.251 851.84 752.52Z" fill="black"/>
<path d="M658.676 771.27C657.309 772.051 657.114 772.637 658.09 773.712C658.676 774.493 659.946 775.079 660.922 775.079C662.094 775.079 662.778 776.153 663.266 778.692C664.438 786.114 664.242 786.797 660.434 786.797C655.942 786.797 656.137 788.067 661.02 790.508C664.731 792.364 665.121 792.364 668.051 790.899C669.809 789.922 671.274 789.141 671.469 789.044C671.664 789.044 671.469 786.797 671.078 784.258C670.59 780.547 669.516 778.594 666 774.883C661.215 769.805 661.215 769.805 658.676 771.27Z" fill="black"/>
<path d="M874.301 771.373C873.91 772.349 872.836 773.13 871.859 773.13C869.809 773.13 868.539 776.841 870.004 778.599C870.688 779.38 871.762 779.576 873.129 779.087C874.887 778.404 875.473 778.794 876.938 782.115C878.598 785.826 878.598 785.826 881.82 784.556C883.773 783.775 885.141 782.408 885.336 781.236C885.629 779.576 885.238 779.38 882.504 779.771C879.672 780.162 879.574 780.064 880.551 778.209C882.113 775.279 881.918 774.302 879.477 773.521C878.207 773.13 876.742 772.154 876.059 771.275C874.984 769.81 874.887 769.908 874.301 771.373Z" fill="black"/>
<path d="M653.305 775.568C653.403 777.131 654.184 778.498 654.867 778.791C656.625 779.377 656.332 775.568 654.477 774.006C653.11 772.931 653.012 773.127 653.305 775.568Z" fill="black"/>
<path d="M968.538 776.055C967.171 777.031 964.534 778.203 962.679 778.496C960.823 778.887 955.745 781.035 951.448 783.379C947.151 785.723 942.562 787.871 941.194 788.262C937.679 789.336 933.48 792.656 931.331 796.27C930.159 798.027 928.694 799.492 928.011 799.492C925.862 799.492 922.64 804.375 922.054 808.477C921.468 812.09 917.757 816.094 915.023 816.094C911.605 816.094 914.73 824.395 918.538 825.371C920.296 825.762 920.687 826.543 920.687 830.059C920.687 832.402 919.905 837.969 918.831 842.559C917.073 850.762 917.073 850.957 918.929 854.473L920.784 858.086L924.398 856.621C928.597 854.863 933.577 849.688 936.898 843.438C940.023 837.48 941.878 835.332 946.956 832.207C950.179 830.254 951.448 829.863 951.937 830.742C952.425 831.426 953.401 831.719 954.183 831.426C955.94 830.742 956.917 825.957 955.648 823.906C954.866 822.734 955.257 821.367 957.21 818.535C958.675 816.387 960.335 814.434 960.823 814.043C961.312 813.75 962.874 810.332 964.144 806.523C965.413 802.715 967.269 798.32 968.245 796.953C969.222 795.488 969.808 793.242 969.71 792.07C969.515 790.898 970.101 788.555 970.882 786.895C972.542 783.867 973.03 775.566 971.663 774.688C971.273 774.492 969.808 775.078 968.538 776.055Z" fill="black"/>
<path d="M698.909 784.947C697.054 787.486 696.956 788.169 698.128 789.341C699.886 791.099 707.796 792.075 709.749 790.806C710.921 790.025 710.921 789.536 709.359 787.876C708.382 786.802 706.038 784.947 704.28 783.97L701.058 782.017L698.909 784.947Z" fill="black"/>
<path d="M388.265 786.014C387.386 786.698 386.214 789.041 385.628 791.092C384.847 794.217 384.847 795.291 386.019 796.561C387.582 798.319 387.972 804.862 386.605 805.741C385.824 806.229 387.582 816.678 388.558 817.459C388.753 817.655 391.39 818.729 394.515 819.999C401.742 822.928 403.109 822.342 403.109 816.19C403.109 810.135 403.793 808.28 406.136 808.28C407.113 808.28 407.992 807.889 407.992 807.401C407.992 806.913 408.285 805.838 408.578 804.959C408.968 803.983 408.285 803.104 406.625 802.323C405.257 801.639 403.89 800.37 403.597 799.295C403.207 798.319 402.23 797.538 401.351 797.538C398.421 797.44 395.199 793.827 394.613 790.018C393.832 784.94 391.488 783.573 388.265 786.014Z" fill="black"/>
<path d="M895.588 806.523C892.463 807.988 892.756 810.234 895.979 810.234C899.592 810.234 905.159 808.086 904.768 806.816C904.28 805.449 898.225 805.254 895.588 806.523Z" fill="black"/>
<path d="M861.605 854.961C859.749 856.23 857.015 862.871 857.601 864.433C857.894 865.41 857.406 867.07 856.331 868.437C855.355 869.707 854.183 873.223 853.792 876.25C853.402 879.375 852.718 882.5 852.327 883.379C851.937 884.258 851.058 886.797 850.472 889.043C849.691 891.875 848.226 894.023 845.98 895.781C842.367 898.516 842.464 899.883 846.468 904.473C848.812 907.109 849.788 916.68 848.031 919.219C846.468 921.367 847.542 924.492 849.886 924.492C850.667 924.492 851.351 925.176 851.351 925.957C851.351 927.715 851.839 927.715 854.281 926.445C855.452 925.762 855.843 924.785 855.55 923.418C854.867 921.074 858.382 917.754 861.41 917.656C863.753 917.656 863.558 914.238 861.019 912.48C859.359 911.211 859.163 910.723 860.238 909.062C861.117 907.598 861.117 906.816 860.238 905.84C859.652 905.059 857.992 902.812 856.624 900.664C854.476 897.344 854.281 896.562 855.257 893.633C855.843 891.777 856.82 890.117 857.308 889.824C857.796 889.433 858.187 888.164 858.187 886.797C858.187 885.43 858.87 883.379 859.652 882.109C860.433 880.937 861.019 878.887 861.019 877.519C860.921 876.25 861.41 872.051 862.093 868.34C863.167 862.48 863.46 855.254 862.777 854.473C862.581 854.375 862.093 854.57 861.605 854.961Z" fill="black"/>
<path d="M476.155 888.654C474.983 890.9 474.69 893.146 475.081 896.662C475.374 899.299 475.667 903.986 475.764 906.916L475.862 912.287L472.249 912.58C466.097 913.068 465.022 911.896 464.339 903.889C463.46 893.635 462.093 893.537 460.823 903.693C460.237 908.381 459.456 913.557 459.163 915.217C458.87 916.779 458.675 919.416 458.675 921.076C458.675 922.639 457.991 926.154 457.112 928.693C456.331 931.33 455.843 935.041 456.038 936.994C456.331 939.533 456.038 940.9 454.964 941.682C453.597 942.756 453.597 943.146 454.866 945.588C455.647 947.053 457.014 948.42 457.893 948.615C458.772 948.908 459.944 950.08 460.53 951.35C461.507 953.498 461.897 953.498 472.639 953.205C478.792 953.107 484.944 952.424 486.507 951.838C487.972 951.35 489.729 951.154 490.315 951.545C492.757 953.107 500.276 954.475 503.694 954.084C507.014 953.596 507.503 953.889 509.163 956.525L510.921 959.553L519.124 959.064C526.35 958.674 527.62 958.869 530.159 960.725C532.796 962.58 533.87 962.678 539.632 962.092C543.245 961.701 546.956 961.018 547.932 960.432C549.3 959.748 550.081 959.846 550.862 960.92C553.108 963.557 556.917 965.51 559.944 965.51C562.386 965.51 563.753 966.291 565.901 968.928C568.538 972.053 569.319 972.443 576.448 973.322C580.745 973.908 584.944 974.494 585.823 974.787C587.679 975.373 589.827 979.963 589.827 983.283C589.729 988.264 588.362 995.783 587.581 995.783C587.093 995.783 586.702 996.662 586.702 997.736C586.702 1000.28 589.046 1000.28 593.831 997.736C596.956 996.076 598.323 995.881 602.815 996.564C605.745 997.053 608.577 997.053 609.261 996.662C609.944 996.271 611.214 996.467 612.19 997.053C613.46 997.834 614.534 997.834 616.194 996.955C617.464 996.369 621.761 995.393 625.764 994.807C634.358 993.732 640.022 992.365 646.761 989.826C653.987 987.092 659.749 986.604 668.831 987.873C675.081 988.85 677.718 988.85 679.964 987.971C681.624 987.287 687.776 986.799 694.612 986.896C704.964 986.896 707.112 986.604 712.483 984.455C720.003 981.428 725.569 981.037 728.108 983.381C729.085 984.26 731.526 985.041 733.479 985.041C735.432 985.041 737.093 985.432 737.093 986.018C737.093 987.482 740.608 987.189 746.175 985.334C750.081 983.967 751.643 982.697 753.889 979.279C755.354 976.838 756.624 973.908 756.624 972.736C756.624 971.564 757.307 970.1 758.089 969.416C758.968 968.635 759.358 967.365 758.968 965.998C758.577 964.338 758.968 963.459 760.432 962.58C762.874 961.311 762.288 959.943 758.968 958.674C755.647 957.404 755.745 951.74 759.065 947.346C761.702 943.83 762.386 939.826 760.139 940.705C759.456 940.998 758.382 942.268 757.796 943.537C757.21 944.904 755.55 946.174 754.182 946.564C752.815 946.857 751.741 947.834 751.741 948.713C751.741 950.861 744.221 957.697 741.878 957.697C740.706 957.697 739.632 956.916 739.436 955.939C738.753 953.693 730.159 953.693 727.522 956.037C726.546 956.916 725.276 957.697 724.69 957.697C724.104 957.697 723.128 958.381 722.444 959.162C721.761 959.943 720.491 960.627 719.514 960.627C716.585 960.627 709.163 965.412 707.893 968.049C706.917 970.197 706.331 970.49 703.889 970.002C702.229 969.709 699.788 968.732 698.421 967.854C696.077 966.291 695.979 965.803 696.468 960.432C696.761 957.307 697.347 952.131 697.639 949.006C697.932 945.783 698.811 942.658 699.593 941.975C702.425 939.631 701.057 938.459 694.514 937.873C687.483 937.189 681.136 938.264 674.983 941.291C672.737 942.268 669.612 943.244 667.952 943.244C664.436 943.342 659.944 940.705 659.944 938.654C659.944 937.482 657.991 937.189 649.007 937.092C642.952 936.994 636.897 936.701 635.53 936.311C634.261 935.92 631.038 936.115 628.499 936.604C624.397 937.482 623.616 937.385 622.444 935.725C621.565 934.553 621.272 932.6 621.565 930.646C622.054 927.912 621.858 927.424 620.1 927.424C619.026 927.424 617.952 926.838 617.757 926.252C617.464 925.373 616.585 925.471 614.729 926.74C612.386 928.205 611.8 928.303 609.358 927.033C607.405 926.057 605.257 925.861 600.667 926.545C596.858 927.033 593.636 927.033 592.073 926.447C590.608 925.861 587.19 925.471 584.261 925.471C580.257 925.471 578.401 925.959 576.253 927.717C572.151 931.135 567.659 932.404 558.186 932.795C553.499 932.99 548.811 933.576 547.932 934.064C546.956 934.553 543.929 934.748 541.194 934.455L536.116 934.064L535.139 926.252C534.651 922.053 533.968 918.244 533.675 918.049C533.382 917.756 531.917 918.146 530.354 918.928C527.913 920.197 527.034 920.197 521.761 918.244C517.952 916.877 515.804 915.607 515.608 914.436C515.315 912.775 515.706 912.678 520.491 913.166C525.276 913.752 525.764 913.654 527.425 911.311C529.085 909.064 529.085 908.381 527.913 904.67C526.936 901.643 525.764 900.178 523.323 898.908C520.296 897.443 519.807 897.443 517.757 898.811C516.194 899.787 515.413 901.252 515.413 903.01C515.413 904.572 514.729 905.939 513.948 906.33C513.167 906.623 512.483 907.502 512.483 908.283C512.483 909.064 511.702 909.943 510.725 910.236C507.405 911.311 500.569 911.115 499.886 909.943C499.495 909.357 498.421 909.064 497.444 909.455C496.565 909.846 493.147 909.553 489.925 908.869C485.335 907.893 484.065 907.209 483.772 905.549C481.819 895.197 481.429 892.463 481.526 890.412C481.624 889.045 480.94 887.58 479.768 886.799C477.913 885.627 477.62 885.725 476.155 888.654Z" fill="black"/>
<path d="M832.113 924.492C826.156 926.25 821.078 930.645 821.078 933.965C821.078 935.234 821.566 936.211 822.055 936.211C825.082 936.211 838.656 927.031 838.656 924.98C838.656 922.832 837.484 922.734 832.113 924.492Z" fill="black"/>
<circle cx="484" cy="556" fill="#5CE50D"/>
<circle cx="627" cy="107" fill="#E52A0D"/>
<circle cx="276" cy="509" fill="#E52A0D"/>
<circle cx="386" cy="167" fill="#E52A0D"/>
</svg>
