<svg width="1000" height="1000" viewBox="0 0 1000 1000" fill="none" xmlns="http://www.w3.org/2000/svg">
<g clip-path="url(#clip0_1_1523)">
<rect width="1000" height="1000" />
<mask id="mask0_1_1523" style="mask-type:luminance" maskUnits="userSpaceOnUse" x="0" y="0" width="1000" height="1000">
<path d="M1000 0H0V1000H1000V0Z" fill="white"/>
</mask>
<g mask="url(#mask0_1_1523)">
<path fill-rule="evenodd" clip-rule="evenodd" d="M499.875 214.828L497.458 215.981L494.797 216.016L481.728 221.72L469.682 229.424L463.946 232.263L451.022 237.221L445.753 240.581L435.472 249.697L427.581 254.943L425.863 256.909L423.039 258.935L418.646 262.09L411.339 266.224L405.967 267.646L405.148 268.777L398.347 271.116L396.015 272.568L393.742 272.975L382.195 277.772L381.373 278.682L380.228 279.234V279.233L362.605 287.736L359.507 289.234L358.686 290.066L354.313 292.073L353.341 293.133L342.007 296.739L334.057 298.206L329.727 298.196L310.998 295.502L308.351 295.512L305.15 295.521L303.471 295.024L298.225 294.808L293.576 293.763L278.577 291.689L266.951 291.393L254.811 292.221L250.113 293.045L247.224 292.792L241.359 290.909L219.572 283.918L215.24 283.917L213.257 283.427L200.977 285.491L190.63 288.363L185.014 288.609L183.889 289.374L179.877 289.502L178.726 289.537L172.544 287.777L168.279 287.401L163.879 287.626L160.333 288.957L152.372 293.872L141.308 299.437L139.286 301.118L134.922 303.21L134.181 304.116L126.963 308.125L116.493 312.864L112.743 315.17L109.978 317.533L107.114 318.705L105.213 318.802L81.8513 319.983L73.2331 322.005L69.0595 322.307L68.3656 321.647L64.0583 321.13L56.4909 320.226L53.2344 320.657L51.8828 321.431L44.3246 323.213L41.5175 323.34L38.0995 323.252L23.0798 320.579L22.172 320.417L15.3323 320.174L12.9893 320.743L7.26913 323.312L1.96115 327.518L0 330.747C2.98116 331.897 5.00176 330.351 7.03179 328.798C9.07699 327.233 11.1317 325.662 14.188 326.83C15.681 327.401 26.9582 335.775 30.5869 338.47C30.886 338.692 31.1333 338.876 31.3187 339.013C32.3476 339.777 33.7974 341.622 34.4601 342.726C34.8281 343.34 35.0809 343.89 35.3075 344.384C35.9595 345.803 36.3953 346.753 38.7414 347.386C42.1751 348.315 43.5207 347.45 44.7725 346.646C45.6344 346.091 46.4519 345.566 47.8758 345.674C51.8666 347.673 58.3917 351.901 59.8693 356.335C60.0597 356.906 60.1536 357.534 60.2486 358.17C60.3433 358.804 60.439 359.445 60.6326 360.045C61.8593 361.102 63.2402 361.79 64.6208 362.478C66.1164 363.224 67.6119 363.969 68.9111 365.184C68.9506 367.221 69.8443 369.264 70.7265 371.283C71.3287 372.66 71.9256 374.025 72.2418 375.367C73.4451 376.568 74.7624 376.378 76.1151 376.182C76.628 376.108 77.146 376.033 77.6649 376.033C79.8891 376.033 81.3363 377.215 82.836 378.44C83.5186 378.998 84.2121 379.564 84.9947 380.033L86.8029 379.936C87.3168 379.42 87.7125 378.82 88.1068 378.222C88.6091 377.46 89.109 376.702 89.8477 376.128C91.1654 375.726 92.6011 375.926 94.0429 376.128C95.9933 376.398 97.9553 376.672 99.6502 375.461C100.748 374.677 101.362 373.372 101.881 372.268C102.278 371.427 102.618 370.703 103.076 370.418C104.626 371.967 107.222 373.467 109.358 372.13C110.096 372.311 110.752 372.649 111.403 372.986C112.283 373.44 113.155 373.891 114.21 373.94C116.712 374.057 118.597 373.366 120.745 372.292C126.078 369.624 125.201 366.873 124.165 363.627C123.221 360.666 122.144 357.292 125.535 353.193C128.171 352.656 129.022 350.606 129.867 348.572C130.265 347.611 130.663 346.655 131.246 345.863C133.772 352.072 133.841 353.241 128.106 357.19C126.155 359.974 128.443 366.667 131.913 367.565C133.094 367.395 134.242 366.805 135.146 366.041C136.164 365.18 136.787 364.042 137.412 362.899C137.823 362.147 138.236 361.392 138.763 360.714C139.737 359.463 161.496 342.59 163.127 341.773C164.029 341.321 165.302 341.033 166.341 340.797C166.447 340.772 166.549 340.749 166.649 340.726C169.335 341.763 170.646 341.302 172.133 340.781C173.007 340.475 173.939 340.147 175.247 340.09C176.412 340.039 177.611 340.264 178.814 340.49C181.109 340.921 183.414 341.355 185.493 339.869C187.842 338.19 189.648 335.029 191.375 332.007C193.245 328.732 195.022 325.62 197.296 324.736C198.245 324.367 199.269 324.189 200.3 324.012C201.211 323.854 202.128 323.695 203.005 323.403C205.84 322.459 209.763 321.741 212.618 322.928L211.855 323.973C211.364 324.1 210.857 324.226 210.344 324.355C208.452 324.828 206.457 325.327 204.719 325.973C204.224 326.156 203.724 326.457 203.229 326.757C202.669 327.094 202.115 327.429 201.577 327.59C201.001 327.761 200.414 327.838 199.833 327.913C198.59 328.074 197.372 328.233 196.343 329.305C195.527 330.155 194.782 331.975 193.92 334.082C192.337 337.949 190.361 342.78 186.826 344.34C185.002 345.145 182.934 344.935 180.886 344.726C179.294 344.565 177.713 344.404 176.264 344.722C173.993 345.789 173.005 347.202 172.03 348.593C171.316 349.614 170.609 350.624 169.41 351.479C168.091 352.422 166.46 353.083 164.848 353.736C163.721 354.193 162.603 354.647 161.606 355.189C159.802 356.173 158.388 357.28 156.915 358.431C155.241 359.741 153.492 361.109 151.011 362.422C150.448 362.721 149.708 363.132 149.234 363.566C148.74 364.019 148.242 364.723 147.872 365.28C146.387 367.506 145.703 372.796 148.187 374.605C148.327 376.287 148.54 378.964 147.523 380.411C146.664 381.186 144.722 381.535 143.62 381.363C142.836 380.689 142.283 379.03 142.287 378.033C142.833 377.141 143.131 375.435 142.858 374.416L141.717 373.367L139.812 373.844C138.928 375.201 137.642 375.909 136.338 376.628C135.71 376.974 135.077 377.322 134.484 377.746C134.245 377.917 133.991 378.194 133.757 378.452C133.644 378.574 133.537 378.692 133.436 378.792C132.231 379.997 130.99 380.939 129.743 381.884C128.848 382.564 127.951 383.244 127.061 384.027C125.16 385.7 124.403 389.105 123.652 392.488C123.153 394.734 122.656 396.971 121.827 398.685C121.144 400.098 120.093 401.016 119.062 401.918C118.129 402.734 117.212 403.536 116.592 404.68V405.632C122.048 411.753 123.008 417.559 122.113 425.522C123.63 426.359 124.669 428.09 124.778 429.805C123.952 430.897 123.71 432.756 124.111 434.025C125.758 439.238 129.57 439.198 133.588 439.157C137.258 439.119 141.099 439.079 143.622 443.033C145.152 444.762 145.605 447.013 146.052 449.237C146.451 451.222 146.846 453.186 147.998 454.741C151.044 458.852 153.687 459.604 156.641 460.443C157.989 460.826 159.4 461.227 160.944 461.974C162.005 462.487 162.986 463.23 163.976 463.981C165.182 464.894 166.4 465.818 167.795 466.35C170.129 467.243 174.002 466.852 177.401 466.509C180.268 466.219 182.798 465.964 183.783 466.541C185.202 467.373 186.182 468.709 187.154 470.034C189.078 472.657 190.971 475.236 196.156 473.775C198.806 473.027 199.804 471.612 200.947 469.995C202.816 467.348 205.069 464.157 215.572 462.448C219.538 461.802 226.459 462.59 232.008 463.223C235.853 463.661 239.038 464.024 240.125 463.782C243.437 463.045 253.357 453.491 253.45 449.886C253.471 449.04 250.852 442.211 250.31 441.417C250.084 441.084 249.749 440.787 249.401 440.481C249.008 440.132 248.597 439.77 248.311 439.323C249.884 439.913 251.111 441.125 252.175 442.176C253.021 443.012 253.763 443.745 254.497 443.986L256.116 443.607L256.78 442.083L255.925 440.56L256.116 438.941C256.842 439.16 259.116 439.506 259.825 439.323C260.87 439.055 261.786 438.349 262.716 437.632C263.631 436.927 264.558 436.212 265.631 435.897C266.27 435.708 267.162 435.513 268.167 435.295C271.388 434.591 275.784 433.631 276.861 431.806C276.916 431.308 276.94 430.777 276.964 430.235C277.027 428.832 277.092 427.356 277.717 426.19L279.05 426.093C279.5 427.242 280.452 429.473 281.334 430.284C283.248 432.047 289.471 433.1 291.992 432.854C293.165 432.74 294.047 432.272 294.931 431.802C295.536 431.481 296.144 431.16 296.846 430.951C300.86 429.757 306.307 429.946 309.411 433.045C309.205 434.274 309.151 435.612 309.314 436.851C310.53 438.812 312.328 438.514 314.148 438.213C314.86 438.095 315.576 437.976 316.261 437.993C316.894 438.007 317.528 438.093 318.165 438.18C318.858 438.275 319.555 438.37 320.259 438.373C321.546 437.812 322.463 436.496 323.36 435.208C324.807 433.133 326.202 431.13 329.014 432.475L329.49 434.282C328.919 436.471 328.03 437.265 327.217 437.994C326.706 438.45 326.226 438.879 325.873 439.609C325.495 440.391 325.304 441.335 325.11 442.292C324.714 444.254 324.307 446.269 322.257 447.034C321.47 446.55 320.612 445.341 320.352 444.465C319.865 444.131 318.712 444.207 317.269 444.302C313.27 444.564 307.038 444.974 306.553 437.231C303.126 433.546 298.185 435.184 294.338 437.107C292.813 437.869 291.124 438.434 289.439 438.997C287.315 439.707 285.197 440.415 283.426 441.514C281.911 442.456 277.49 446.698 276.382 448.178C275.899 448.821 275.59 449.598 275.28 450.377C274.974 451.147 274.668 451.916 274.195 452.555C273.595 453.365 272.969 454.134 272.342 454.901C271.295 456.187 270.25 457.469 269.342 458.931C268.725 459.924 268.353 461.057 267.978 462.197C267.469 463.747 266.955 465.309 265.819 466.545C264.709 467.751 263.77 468.198 262.822 468.648C261.135 469.45 259.424 470.263 256.685 475.396C255.377 477.921 255.246 480.201 255.125 482.306C255.034 483.863 254.95 485.324 254.4 486.721C253.909 487.966 253.146 489.204 252.402 490.413C252.001 491.063 251.605 491.705 251.26 492.335C249.476 495.585 245.623 504.632 244.978 508.134C244.698 509.66 244.922 511.126 245.149 512.602C245.301 513.597 245.455 514.596 245.455 515.622C245.455 516.204 245.383 516.89 245.309 517.608C245.149 519.147 244.974 520.829 245.455 521.936C248.468 523.285 250.69 520.764 253.009 518.135C254.826 516.073 256.703 513.945 259.066 513.562C259.854 513.434 260.662 513.434 261.457 513.434C263.369 513.434 265.217 513.435 266.583 511.659C267.763 510.124 267.214 507.584 266.641 504.936C265.582 500.042 264.442 494.78 274.004 494.812C274.652 496.511 273.741 498.439 272.723 500.596C271.569 503.04 270.279 505.776 270.959 508.802C272.01 513.48 280.529 513.496 282.668 509.85C283.385 508.627 283.445 507.203 283.506 505.754C283.569 504.225 283.635 502.667 284.475 501.284C285.573 499.475 286.857 497.955 288.145 496.43C289.89 494.364 291.642 492.29 292.945 489.484C293.82 487.598 293.84 485.417 293.86 483.24C293.892 479.901 293.922 476.575 297.036 474.351C299.3 472.733 301.05 473.302 302.808 473.875C303.229 474.012 303.65 474.148 304.079 474.256C304.629 474.394 305.183 474.486 305.73 474.576C307.496 474.87 309.191 475.15 310.456 476.922C310.732 477.308 310.957 477.755 311.185 478.207C311.686 479.201 312.203 480.227 313.312 480.728C314.897 481.443 317.35 480.911 318.926 480.345L320.638 480.917L320.068 482.439C317.142 484.747 312.203 483.851 309.884 481.109C308.996 480.763 308.208 480.09 307.396 479.398C305.382 477.678 303.221 475.834 299.036 478.539C297.031 480.956 297.435 483.285 297.856 485.714C298.084 487.027 298.317 488.368 298.177 489.767C298.037 491.162 295.04 497.566 294.276 499.095C292.912 501.824 289.414 516.044 289.9 518.701L291.136 519.365C292.546 519.19 298.977 515.096 305.027 511.245C309.471 508.417 313.707 505.719 315.595 504.804C320.248 502.549 326.098 502.192 331.741 501.848C337.277 501.511 342.613 501.186 346.429 499.093C347.998 498.233 349.363 496.904 350.708 495.594C352.147 494.192 353.565 492.813 355.184 492.053C356.728 491.33 357.873 490.885 358.851 490.506C361.088 489.636 362.455 489.106 365.747 486.34C367.137 485.173 368.264 483.576 369.372 482.007C370.145 480.913 370.909 479.831 371.745 478.917C372.265 478.351 373.013 477.814 373.764 477.276C374.405 476.817 375.048 476.355 375.551 475.873C376.286 475.169 376.828 474.318 377.37 473.468C377.934 472.581 378.499 471.696 379.279 470.983V470.997C379.338 470.943 379.391 470.883 379.453 470.831C379.506 470.786 379.558 470.744 379.611 470.702C379.811 470.546 380.018 470.408 380.228 470.278V470.269C381.405 469.54 382.751 469.198 384.104 468.853C385.866 468.404 387.639 467.953 389.065 466.64C390.55 465.274 391.482 463.543 392.396 461.845C393.796 459.245 395.154 456.723 398.394 455.7C400.628 454.994 402.661 455.537 404.712 456.085C406.421 456.541 408.143 457.001 410.004 456.744C411.659 455.896 412.568 454.548 413.486 453.188C414.611 451.522 415.748 449.838 418.284 449.036C423.684 447.331 439.285 446.114 444.265 448.845C445.336 449.431 447.187 451.09 448.899 452.624L448.9 452.625C449.952 453.567 450.952 454.463 451.685 455.033C452.289 455.502 453.403 456.678 454.5 457.836C455.75 459.153 456.976 460.448 457.398 460.646C458.665 461.24 461.144 461.152 463.525 461.069H463.526C465.161 461.011 466.749 460.955 467.866 461.123C471.017 461.595 474.27 462.834 477.544 464.079C481.895 465.735 486.284 467.405 490.516 467.308C495.878 467.187 504.856 459.567 507.932 455.414C508.515 454.628 509.003 453.816 509.483 453.017V453.016C510.624 451.119 511.719 449.297 513.928 448.086C516.253 446.811 518.515 446.705 520.907 446.591C521.886 446.546 522.886 446.498 523.921 446.37C525.109 445.687 526.156 444.703 527.2 443.721C530.14 440.956 533.058 438.209 539.052 442.278C539.327 442.464 539.599 442.625 539.864 442.782C540.543 443.184 541.182 443.561 541.717 444.276C542.764 444.707 544.551 444.699 545.62 444.373C547.355 442.565 551.935 441.271 554.282 442.182C554.818 442.765 555.454 443.211 556.089 443.656C556.725 444.102 557.36 444.548 557.897 445.131L556.755 444.276C557.894 445.193 558.684 446.298 559.487 447.417C559.946 448.057 560.409 448.703 560.942 449.321L561.131 450.844C559.814 451.105 558.239 451.122 556.632 451.138C553.875 451.167 551.028 451.197 549.236 452.461C548.551 454.827 548.298 457.263 548.047 459.702C547.718 462.882 547.388 466.07 546.096 469.115C545.243 471.127 543.115 473.144 541.039 475.112C538.667 477.36 536.363 479.545 536.103 481.584C535.717 484.595 539.552 494.359 542.48 495.478C543.412 495.835 544.506 495.673 545.841 495.475C548.864 495.027 553.12 494.396 559.512 499.192C559.846 499.442 560.173 499.713 560.493 499.999H560.49C560.586 500.084 560.682 500.17 560.776 500.258C560.883 500.358 560.99 500.46 561.097 500.564C561.226 500.69 561.356 500.819 561.484 500.95H561.487C563.351 502.854 565.027 505.253 566.705 507.655C568.339 509.994 569.976 512.336 571.792 514.23C575.078 514.95 577.023 514.424 579.881 513.65C580.216 513.56 580.563 513.466 580.926 513.37L581.781 512.421L583.02 512.611C582.839 515.353 580.495 516.323 578.262 516.987C572.419 518.725 565.617 517.681 561.037 513.467C559.791 512.321 559.055 511.237 558.356 510.209C557.211 508.523 556.167 506.987 553.139 505.567C550.93 504.532 547.732 504.109 544.79 503.721C541.618 503.302 538.742 502.923 537.72 501.856C537.422 501.546 537.156 501.244 536.915 500.95C536.85 500.87 536.787 500.791 536.725 500.713C536.536 500.471 536.363 500.233 536.203 499.999H536.2C534.818 497.975 534.567 496.244 534.298 494.398C534.135 493.278 533.966 492.114 533.534 490.817C532.907 488.933 531.974 487.741 531.124 486.652C529.653 484.773 528.426 483.204 529.44 478.919C529.724 477.727 530.424 474.957 531.059 473.97C531.72 472.942 532.509 471.981 533.296 471.025C535.432 468.426 537.543 465.859 536.959 462.075L537.817 460.742C538.213 457.893 536.696 456.307 534.39 455.031C534.091 454.991 533.798 454.973 533.511 454.977C529.876 455.03 527.234 458.505 525.059 461.365C524.665 461.882 524.287 462.38 523.92 462.834C523.282 463.624 522.617 464.284 521.952 464.943C521.164 465.725 520.375 466.506 519.64 467.5C517.599 470.254 514.498 470.516 511.402 470.779C509.954 470.901 508.509 471.023 507.172 471.4C504.637 472.115 502.887 473.524 501.094 474.967C498.793 476.82 496.421 478.729 492.229 479.301C489.682 479.648 488.626 479.31 487.446 478.933C486.732 478.705 485.971 478.462 484.806 478.348C483.519 478.222 482.213 478.532 480.914 478.84C479.56 479.162 478.214 479.481 476.908 479.301C475.586 479.116 474.384 478.598 473.17 478.075C471.666 477.426 470.143 476.768 468.342 476.729C465.971 476.677 463.768 477.219 461.567 477.76C459.051 478.378 456.538 478.995 453.78 478.726C451.286 478.483 447.83 477.181 444.365 475.875C440.054 474.251 435.73 472.622 433.222 473.017C431.94 473.22 430.923 473.926 429.895 474.637C429.52 474.898 429.143 475.16 428.75 475.397L427.343 478.218C427.306 478.269 427.268 478.323 427.227 478.38C427.188 478.435 427.148 478.492 427.106 478.552C425.878 480.284 423.068 484.253 418.76 487.661C414.146 491.309 411.291 487.579 411.291 487.579C410.27 488.138 409.161 488.526 408.057 488.913C406.885 489.323 405.72 489.732 404.672 490.34C403.413 491.071 401.767 492.235 400.675 493.195C399.518 494.213 398.49 495.43 397.459 496.649C396.469 497.821 395.476 498.995 394.365 499.999H394.356C394.334 500.02 394.311 500.042 394.288 500.065C394.26 500.09 394.233 500.117 394.204 500.142L394.158 500.184C393.899 500.408 393.617 500.626 393.336 500.844L393.199 500.95H393.221C392.799 501.277 392.361 501.599 391.92 501.923C390.628 502.874 389.318 503.839 388.366 504.964C388.182 505.182 387.988 505.393 387.795 505.604C387.398 506.036 387.002 506.468 386.685 506.961C385.833 508.288 385.605 509.877 385.377 511.474C385.123 513.259 384.866 515.055 383.734 516.512C383.245 517.138 382.605 517.843 381.917 518.598C381.326 519.247 380.701 519.935 380.111 520.641C378.793 522.214 377.647 523.879 377.454 525.456L379.278 529.105L379.738 530.026C379.728 530.274 379.704 530.522 379.67 530.77C379.632 531.05 379.582 531.329 379.528 531.608C379.502 531.744 379.474 531.879 379.447 532.014C379.316 532.664 379.187 533.305 379.166 533.926C379.148 534.474 379.428 535.109 379.736 535.807C379.907 536.196 380.087 536.605 380.228 537.029V537.004C380.389 537.482 380.502 537.981 380.499 538.495C380.774 538.661 381.077 538.854 381.401 539.06C383.887 540.643 387.627 543.025 389.539 539.736C389.59 539.03 389.593 538.31 389.595 537.589C389.599 536.256 389.603 534.918 389.919 533.645C390.703 532.294 394.141 531.709 396.706 531.273C397.519 531.135 398.244 531.012 398.77 530.883L399.817 531.454L400.389 533.167C399.571 533.847 398.712 534.494 397.819 535.071C397.76 536.304 398.457 537.271 399.17 538.26C399.788 539.116 400.417 539.989 400.578 541.067C400.538 542.124 400.007 542.856 399.468 543.598C399.025 544.208 398.577 544.825 398.392 545.636C398.494 546.466 399.147 547.859 399.914 548.299C400.377 548.299 400.861 548.307 401.358 548.318C404.512 548.379 408.192 548.449 410.477 546.206V543.159C411.187 541.974 418.357 537.425 419.992 537.068L420.756 538.592C420.135 539.491 419.605 540.517 419.234 541.544C419.942 542.346 420.552 543.636 420.756 544.684C420.33 545.557 418.823 546.329 417.9 546.396C417.678 547.459 417.655 548.651 417.806 549.726C417.074 550.968 415.335 551.617 413.957 552.132L413.946 552.136C413.8 552.19 413.659 552.244 413.523 552.296C413.071 553.202 413.086 554.259 413.1 555.308C413.12 556.731 413.139 558.141 412 559.148C411.389 559.689 410.607 559.903 409.817 560.12C408.924 560.365 408.02 560.613 407.337 561.337C404.611 566.205 407.074 568.443 408.872 570.075C409.524 570.667 410.088 571.18 410.285 571.709C410.565 572.462 410.645 573.581 410.734 574.799C410.971 578.053 411.259 582.021 415.52 581.608L416.662 580.465C416.527 579.624 416.138 578.929 415.755 578.243C415.258 577.355 414.77 576.482 414.854 575.326L415.711 574.374C416.531 574.953 417.35 575.959 417.805 576.849L419.706 576.754C420.235 575.706 419.978 574.634 419.717 573.544C419.542 572.812 419.365 572.073 419.422 571.329L420.47 570.187C420.539 568.935 420.358 567.368 419.899 566.19C421.275 565.445 422.385 564.02 423.131 562.67L424.749 562.382C425.697 563.443 425.58 566.049 425.471 568.461C425.408 569.891 425.346 571.253 425.512 572.186L427.223 572.755C428.312 572.272 429.966 572.155 431.126 572.375L431.699 570.758C431.307 569.557 431.029 568.292 430.841 567.046C431.862 566.947 432.678 567.378 433.524 567.825C434.585 568.385 435.693 568.971 437.313 568.569C437.769 567.66 437.688 565.936 437.219 565.049L435.504 564.381C434.317 563.165 434.199 561.754 434.079 560.34C433.992 559.316 433.905 558.291 433.412 557.338C432.621 556.667 431.375 556.121 430.365 555.91L429.606 554.388C429.658 554.154 429.726 553.826 429.808 553.438C430.215 551.507 430.935 548.085 431.414 547.344L431.985 549.152C432.714 551.006 433.615 551.611 434.602 552.275C435.195 552.674 435.819 553.093 436.457 553.818C437.966 555.533 438.538 557.107 439.04 558.491C439.975 561.067 440.67 562.98 446.735 563.905L445.973 563.144L445.689 561.525C446.626 560.92 447.551 560.283 448.449 559.62C448.01 558.719 447.203 558.343 446.396 557.967C445.705 557.645 445.013 557.322 444.548 556.669C444.219 556.21 443.963 555.55 443.71 554.896C443.521 554.408 443.334 553.923 443.118 553.528L443.498 552.197L445.117 551.531L445.023 549.723C444.234 548.996 443.49 548.187 442.834 547.342L443.214 545.533C443.875 544.869 444.701 544.568 445.53 544.265C446.289 543.99 447.049 543.711 447.687 543.155C447.035 542.408 446.034 541.641 445.118 541.252L445.69 539.633L447.212 538.873C451.015 538.751 451.054 542.033 451.087 544.75C451.091 545.154 451.096 545.547 451.113 545.913C451.185 547.492 452.587 553.886 453.396 555.146C455.296 553.318 455.693 551.13 456.032 549.264C456.297 547.815 456.525 546.56 457.394 545.82L458.536 546.484C459.125 547.929 460.765 550.702 462.629 550.481L463.485 549.626L464.818 549.529C466.247 548.046 466.472 544.398 465.674 542.586C465.26 542.249 464.744 541.763 464.19 541.24V541.239H464.189C463.009 540.126 461.654 538.846 460.728 538.492C459.893 538.172 459.081 538.062 458.286 537.953C456.862 537.759 455.496 537.572 454.159 536.206L455.016 535.161L457.394 535.065L457.586 533.542C456.538 533.311 455.298 532.771 454.445 532.114L453.683 530.592C454.258 529.787 455.411 528.985 456.348 528.687L458.253 529.07C459.053 529.686 459.801 530.504 460.345 531.355C461.18 531.822 462.615 532.217 463.582 532.114L464.723 531.068C464.048 529.398 464.478 528.316 464.977 527.062C465.153 526.621 465.337 526.159 465.485 525.643C465.667 525.001 465.767 524.305 465.867 523.61C466.178 521.45 466.488 519.294 469.291 518.792L470.813 519.361C471.981 521.719 470.689 523.751 469.098 525.453C468.643 528.153 468.65 531.904 468.719 534.684C470.03 534.84 471.403 534.789 472.715 534.684L473.192 536.017C472.691 536.609 472.022 537.1 471.351 537.591C470.192 538.44 469.028 539.294 468.719 540.683C468.975 541.609 469.421 542.784 470.05 543.536L472.049 543.632C473.734 542.809 473.938 541.996 474.221 540.867C474.321 540.469 474.432 540.032 474.619 539.541C474.811 539.04 475.191 538.5 475.568 537.964C475.853 537.56 476.134 537.16 476.333 536.78C477.353 536.524 478.379 536.073 479.283 535.544L478.713 533.735L479.186 532.4L480.71 531.641L481.185 529.833C480.193 527.66 479.587 524.951 479.186 522.597C480.473 522.827 481.785 522.986 483.088 523.074C484.42 521.896 484.136 520.387 483.851 518.873C483.661 517.865 483.47 516.856 483.755 515.938L485.086 514.986C485.999 515.431 486.412 516.28 486.831 517.142C487.134 517.765 487.44 518.396 487.941 518.886C489.459 519.397 491.306 519.271 493.003 519.155C493.455 519.125 493.896 519.094 494.318 519.077L495.555 520.125L495.364 521.648C495.667 522.225 496.006 522.779 496.345 523.332L496.346 523.333C496.896 524.233 497.447 525.132 497.839 526.12L496.984 527.455C494.001 528.944 491.309 526.811 489.369 524.786L488.416 526.216C488.571 527.965 487.941 529.861 486.895 531.261L486.989 532.973C488.567 533.229 490.069 534.697 490.511 536.21C489.453 537.525 484.573 537.967 482.899 537.923L481.756 538.78C481.89 540.037 481.136 541.18 480.433 542.246L480.432 542.247C480.227 542.557 480.028 542.861 479.855 543.159C479.955 543.463 480.06 543.767 480.164 544.07C480.682 545.572 481.201 547.072 481.28 548.679L482.518 549.724C483.273 549.635 483.754 549.194 484.26 548.731C484.851 548.189 485.475 547.618 486.608 547.537L487.561 546.204C487.346 544.559 487.326 542.04 488.608 540.781C489.526 541.45 489.806 542.544 490.084 543.627C490.39 544.821 490.693 546.002 491.844 546.585C493.251 546.676 494.839 546.608 496.22 546.301L496.794 544.682C496.316 543.672 496.204 541.955 496.413 540.876L497.553 539.732C498.519 540.014 499.906 540.108 500.886 539.828C501.269 538.096 501.881 536.406 502.597 534.784L503.931 534.307C503.998 535.231 504.769 536.738 505.643 537.163C507.736 537.415 509.622 536.019 511.497 534.631C512.797 533.67 514.09 532.713 515.445 532.309C515.514 533.1 515.773 533.847 516.029 534.589C516.373 535.585 516.714 536.572 516.586 537.638C513.789 537.768 512.828 538.652 511.821 539.579C511.163 540.186 510.484 540.811 509.257 541.254C508.266 541.611 507.205 541.809 506.144 542.007C505.267 542.17 504.39 542.334 503.549 542.588C503.108 543.56 502.512 544.52 501.837 545.346L501.931 547.154L503.356 548.013C504.696 547.853 506.037 547.629 507.355 547.346L508.783 548.202L509.354 550.01C510.386 551.507 512.914 551.633 514.493 551.154C514.696 550.748 514.931 550.35 515.165 549.95C515.787 548.892 516.414 547.825 516.491 546.585L515.92 544.778L516.395 543.349L518.488 543.159C519.291 542.606 519.94 541.061 519.917 540.112C520.567 539.339 521.414 538.611 522.296 538.115C522.398 539.676 522.838 542 524.294 542.874L524.201 544.493L522.868 545.346C522.104 546.713 521.909 547.513 521.744 548.187C521.473 549.299 521.285 550.073 518.774 552.485L518.869 554.293C519.739 554.167 520.592 553.969 521.444 553.769C522.574 553.506 523.702 553.243 524.865 553.151L525.531 554.674C525.197 555.898 525.011 557.211 524.959 558.48L525.722 560.099L527.34 560.67L528.862 559.909C529.892 556.356 531.972 549.764 536.762 549.82L537.713 551.057C537.535 551.92 537.101 552.63 536.666 553.34C536.232 554.052 535.797 554.762 535.621 555.627C535.918 556.565 536.717 557.716 537.522 558.29L537.902 560.195L536.57 561.144L534.192 561.241L532.096 563.526L531.718 565.335L532.384 566.952C533.388 567.501 534.451 567.982 535.524 568.379C536.392 568.263 537.282 568.129 538.186 567.992C541.846 567.438 545.725 566.852 549.229 567.33C549.444 565.876 551.988 563.268 553.226 562.477H554.557L555.129 564.192C555.063 564.51 554.992 564.827 554.921 565.145C554.573 566.713 554.224 568.286 554.274 569.901L553.132 571.043L551.134 571.329C550.658 572.229 549.98 573.115 549.23 573.804L547.23 574.09L545.899 573.138H544.09C543.214 573.612 542.256 574.49 541.712 575.326L539.904 575.802C538.64 574.114 535.402 573.452 533.432 573.804C532.666 574.873 531.05 576.284 529.624 575.995L528.768 574.662L526.867 574.757C526.048 575.466 524.928 576.096 523.915 576.47C523.182 577.609 522.657 578.897 522.14 580.166C521.375 582.04 520.626 583.875 519.253 585.131L517.445 585.225L516.492 583.891C516.492 583.108 516.656 581.408 516.81 579.808C516.969 578.148 517.118 576.594 517.065 576.279C516.304 575.532 515.223 575.273 514.157 575.019C512.4 574.6 510.682 574.189 510.498 571.615C511.644 570.967 514.427 571.149 516.968 571.317C518.44 571.413 519.831 571.504 520.776 571.426C521.573 570.958 522.355 569.581 522.393 568.665C523.035 568.617 523.716 568.691 524.4 568.766C525.625 568.899 526.86 569.034 527.913 568.474L527.274 567.587C527.014 567.224 526.712 566.975 526.408 566.725C526.174 566.533 525.939 566.341 525.723 566.095C525.087 565.373 524.677 564.473 524.266 563.573C523.896 562.762 523.527 561.951 522.992 561.272L522.297 560.384C521.131 559.752 519.637 559.691 518.219 559.632C517.655 559.609 517.103 559.587 516.587 559.529L515.919 560.67C516.237 561.217 516.622 561.705 517.005 562.189C517.583 562.921 518.158 563.65 518.491 564.571L518.013 565.904C517.671 565.917 517.31 565.923 516.939 565.929C515.311 565.955 513.487 565.983 512.113 566.666C510.954 565.53 510.847 563.985 510.739 562.427C510.627 560.825 510.514 559.208 509.258 558.004C507.471 556.292 505.673 556.214 503.995 556.141C502.82 556.09 501.705 556.041 500.696 555.435C500.032 555.037 499.551 554.476 499.069 553.915C498.505 553.256 497.939 552.596 497.079 552.199C495.51 552.36 494.421 553.618 493.437 554.756C493.35 554.858 493.262 554.957 493.176 555.056C492.075 554.909 490.181 555.204 489.276 555.912L488.702 557.531L489.179 559.243L489.845 559.718C491.148 561.205 492.771 562.664 494.414 564.001C493.667 564.652 492.898 565.656 492.509 566.572C493.321 567.224 494.076 568.02 494.698 568.855L494.221 570.283C492.471 571.015 492.433 572.43 492.393 573.866C492.366 574.858 492.338 575.86 491.75 576.658L489.845 576.279L489.465 574.471C488.605 574.072 487.145 574.006 486.231 574.185C485.856 572.945 485.573 571.656 485.374 570.377L483.756 569.805L482.803 568.569L482.709 566.76C483.815 565.613 484.819 564.142 485.183 562.573L484.708 560.765L483.471 559.813C482.571 559.983 481.318 560.898 480.9 561.718L479.472 561.241L478.709 559.716L477.187 560.002L476.046 561.146C474.18 560.405 469.104 558.684 467.289 558.767L465.766 559.624L466.146 561.337L467.86 561.907C468.358 562.59 468.779 563.32 469.202 564.052V564.053C469.563 564.681 469.925 565.309 470.335 565.906C471.745 565.793 473.207 565.765 474.618 565.906L475.377 566.954L474.522 568.379C474.375 569.423 474.672 571.254 475.377 572.092C475.881 572.497 476.515 572.767 477.146 573.035C478.01 573.401 478.867 573.765 479.375 574.473C477.572 575.138 473.49 576.23 471.666 576.088L470.239 575.328C470.128 574.054 469.878 572.738 469.48 571.522C468.98 571.284 468.391 571.125 467.793 570.964C466.643 570.653 465.459 570.334 464.816 569.426C464.631 568.416 464.018 567.122 463.292 566.383L461.58 565.809L459.486 568.093C454.486 568.877 453.666 569.578 451.934 571.062C451.181 571.708 450.253 572.503 448.73 573.518C449.231 574.186 450.713 574.685 451.491 574.757C453.209 574.289 454.94 573.632 456.441 572.662L458.06 573.137C459.068 575.785 461.559 576.645 463.979 577.48C464.085 577.516 464.191 577.553 464.296 577.59C464.406 577.628 464.515 577.667 464.625 577.705C464.875 578.713 464.67 579.345 464.44 580.054C464.334 580.382 464.222 580.726 464.147 581.132L464.123 581.265C463.375 585.329 462.902 587.899 457.583 587.604L457.01 585.796C457.576 584.049 457.823 582.1 457.583 580.274L456.25 579.896L455.013 580.751L453.586 579.989L452.062 580.655C451.824 581.628 451.117 582.857 450.35 583.513L448.73 583.319C448.213 582.77 447.821 582.057 447.428 581.34C446.721 580.052 446.007 578.753 444.544 578.371L443.782 579.703C444.055 580.892 444.405 582.082 444.83 583.226L443.498 584.179L443.118 585.987C444.059 587.531 444.622 589.517 444.734 591.313L443.404 592.265C442.168 592.457 440.502 592.409 439.311 591.98L438.075 590.837C438.07 589.603 437.933 588.337 437.693 587.127L436.267 586.271L434.934 586.84C434.319 588.487 432.408 589.374 430.746 589.409C429.778 588.812 428.684 588.335 427.605 587.983L425.893 588.554L425.512 590.361L426.938 591.124L426.558 592.933C426.94 593.757 427.997 594.782 428.844 595.119C429.547 595.888 429.79 597.676 429.51 598.643C428.817 599.435 428.082 600.198 427.321 600.927L425.702 600.832C426.157 598.475 423.95 596.814 422.279 595.596L420.471 596.071C420.412 597.218 420.543 598.193 420.658 599.052C420.972 601.398 421.169 602.865 417.046 604.545L415.996 603.686C416.086 602.569 416.299 601.441 416.57 600.355L415.618 599.402C413.84 600.127 411.471 601.599 409.907 602.733L407.815 602.641L407.051 601.116L405.243 601.211C404.27 603.383 402.287 609.583 403.818 611.584C405.022 612.411 406.952 612.051 408.521 611.759H408.522C408.88 611.692 409.219 611.629 409.527 611.584L410.954 612.441L411.525 613.678C410.455 614.885 409.113 615.921 407.719 616.724L407.148 618.341C406.378 619.01 405.647 619.436 405.009 619.811C403.305 620.807 402.255 621.421 402.865 625.194C402.413 626.161 401.746 626.999 401.072 627.845C400.404 628.685 399.729 629.534 399.25 630.524C398.687 631.688 398.517 632.891 398.35 634.076C398.18 635.277 398.012 636.459 397.442 637.565C397.036 638.35 396.478 639.051 395.93 639.742C395.476 640.311 395.029 640.873 394.681 641.467C394.306 642.107 394.106 642.97 393.916 643.786V643.787C393.826 644.176 393.739 644.554 393.636 644.893C392.274 649.352 392.204 654.006 398.298 653.841C400.528 653.781 402.254 652.364 403.728 651.154C404.737 650.326 405.627 649.595 406.482 649.461C413.451 651.957 415.935 646.253 418.075 641.343C419.09 639.013 420.028 636.863 421.329 635.851C422.595 635.46 423.92 635.183 425.229 634.993C426.488 633.33 428.186 632.538 429.851 631.763C431.615 630.94 433.34 630.136 434.46 628.332C435.373 626.861 435.569 625.197 435.768 623.517C435.898 622.416 436.029 621.307 436.363 620.244C438.067 614.824 444.958 609.702 450.544 609.395L451.876 610.25L452.259 612.25C451.492 613.323 450.144 613.943 448.647 614.632C446.673 615.54 444.439 616.568 442.933 618.912C441.902 620.515 441.955 622.336 442.008 624.136C442.031 624.944 442.055 625.747 441.981 626.526C441.894 627.443 441.562 628.38 441.234 629.305C440.95 630.109 440.669 630.902 440.555 631.665C439.497 638.705 448.173 637.602 452.45 636.803C455.161 633.848 468.754 619.821 472.245 621.29C471.26 625.585 458.142 636.724 454.164 639.468C453.586 639.866 452.853 640.264 452.095 640.676C450.743 641.411 449.314 642.187 448.548 643.084C442.683 643.867 441.957 643.193 439.879 641.264C439.04 640.485 437.98 639.501 436.272 638.326C435.289 638.052 433.44 638.264 432.655 638.991C431.968 640.04 431.581 641.022 431.178 642.041C430.936 642.653 430.69 643.278 430.37 643.94C429.842 645.031 429.143 645.896 428.428 646.779C428.123 647.156 427.815 647.536 427.516 647.939C427.101 648.499 426.841 649.134 426.583 649.768C426.428 650.147 426.274 650.525 426.087 650.887C425.718 651.603 425.211 652.221 424.705 652.84C424.2 653.456 423.694 654.074 423.326 654.788C421.724 657.892 418.835 665.105 419.713 668.398C420.462 669.51 422.187 669.789 423.627 670.023C423.997 670.083 424.348 670.14 424.659 670.206C426.603 673.301 425.606 675.191 424.627 677.047C424.086 678.073 423.548 679.09 423.519 680.296C423.494 681.24 423.816 682.057 424.13 682.855C424.483 683.751 424.826 684.623 424.659 685.626C424.573 686.141 424.375 686.64 424.171 687.15C423.932 687.754 423.685 688.374 423.613 689.052C423.432 690.788 424.911 698.499 425.897 700.09C427.856 703.245 430.464 703.344 432.875 703.436C434.457 703.495 435.955 703.552 437.127 704.468L439.792 708.655C440.184 709.287 440.366 709.935 440.547 710.577C440.68 711.052 440.812 711.524 441.029 711.986C442.118 714.311 446.38 715.643 448.737 715.413C449.333 715.354 449.936 715.197 450.547 715.039L450.548 715.038C451.174 714.876 451.809 714.711 452.448 714.649C454.004 715.185 454.875 715.853 455.656 716.453C457.28 717.7 458.521 718.651 464.727 717.507C465.673 717.927 466.67 718.672 467.39 719.41C469.01 719.635 471.646 719.647 472.719 718.173C473.029 718.273 473.33 718.375 473.623 718.475C473.991 718.602 474.345 718.728 474.691 718.851C478.117 720.066 480.626 720.956 484.617 718.648C486.787 716.031 487.576 708.855 486.14 705.894C485.797 705.187 485.273 704.486 484.752 703.787C484.233 703.092 483.717 702.399 483.381 701.707C481.845 698.54 480.179 692.26 481.477 688.86C481.818 687.973 483.023 686.717 483.922 685.781C484.146 685.546 484.353 685.332 484.521 685.148C484.711 685.09 484.906 685.027 485.105 684.964C487.232 684.284 489.79 683.468 491.756 684.862L491.849 686.574C490.875 687.786 489.818 688.368 488.729 688.966C488.002 689.366 487.261 689.774 486.522 690.382C484.893 696.18 488.58 702.606 492.04 706.94C492.306 708.048 492.144 708.851 491.968 709.722C491.885 710.13 491.799 710.555 491.754 711.033C491.636 712.266 491.872 713.488 492.107 714.709C492.396 716.205 492.685 717.7 492.326 719.22C492.01 720.549 491.374 721.705 490.725 722.881C490.036 724.132 489.335 725.404 488.997 726.927C489.994 728.821 490.409 732.204 488.14 733.398C488.284 736.858 484.126 739.671 481.001 739.869C477.649 740.093 476.879 741.97 476.014 744.074C475.641 744.984 475.25 745.936 474.625 746.817C473.78 747.244 472.887 747.544 471.993 747.844C471.211 748.108 470.429 748.371 469.678 748.72L469.104 750.339L469.486 752.336L469.711 752.487C471.002 753.349 472.343 754.246 473.863 754.62C474.391 755.386 474.79 755.996 475.12 756.5L475.121 756.501C476.578 758.728 476.652 758.842 480.241 760.995C483.664 763.05 485.249 761.934 487.198 760.562C488.385 759.726 489.706 758.796 491.661 758.428C491.826 757.856 491.956 757.266 492.086 756.675C492.351 755.475 492.617 754.267 493.183 753.192C495.191 751.809 498.876 749.114 498.989 746.434C502.493 735.779 507.447 733.009 511.59 730.692C514.106 729.285 516.324 728.045 517.737 725.308C518.353 724.113 518.321 723.016 518.287 721.87C518.265 721.115 518.242 720.34 518.403 719.502L519.734 719.027L521.353 719.693C521.784 719.059 521.985 718.321 522.183 717.59C522.441 716.642 522.695 715.706 523.447 715.03L524.304 714.648C525.035 715.442 525.712 716.316 526.302 717.219C526.893 717.195 532.999 715.511 533.25 715.314L534.106 713.983C533.876 712.452 533.039 711.506 532.206 710.567C531.218 709.451 530.237 708.344 530.299 706.274C530.715 706.288 531.149 706.323 531.593 706.36L531.793 706.378C534.313 706.593 537.068 706.83 538.197 703.991L538.769 705.703L540.388 706.275L542.197 705.8C543.066 704.852 544.109 703.852 545.184 702.824L545.185 702.823C547.243 700.855 549.411 698.782 550.666 696.76C551.689 695.111 551.918 693.191 552.142 691.316C552.353 689.544 552.559 687.811 553.427 686.385L554.759 686.288C555.415 687.134 556.159 687.943 556.947 688.668C556.974 688.896 557.007 689.148 557.043 689.422C557.087 689.754 557.137 690.117 557.19 690.505C557.647 693.84 558.349 698.955 557.706 701.043C556.616 702.176 555.231 703.118 553.886 704.033C553.437 704.337 552.994 704.639 552.568 704.943L551.999 706.468C552.469 707.537 553.525 708.295 554.618 709.079C556.576 710.484 558.656 711.976 557.706 715.507L556.28 716.649L554.375 716.269C554.161 716.072 553.946 715.876 553.73 715.68C552.784 714.819 551.837 713.956 550.952 713.033C549.564 712.641 546.262 714.602 545.144 715.508L544.478 717.125C544.539 717.828 544.694 718.525 544.848 719.22C545.121 720.449 545.394 721.674 545.144 722.93L543.908 723.88C542.906 723.878 541.947 723.583 540.984 723.286C540.255 723.062 539.523 722.837 538.769 722.737L536.58 725.022C536.15 725.281 535.792 725.369 535.462 725.451C534.875 725.596 534.376 725.719 533.722 726.736C532.914 727.993 532.896 729.265 532.877 730.613C532.851 732.483 532.821 734.499 530.682 736.825C529.497 738.112 528.176 738.371 526.931 738.614C525.939 738.808 524.996 738.993 524.21 739.68C523.74 740.671 523.617 745.798 523.497 750.771V750.773C523.404 754.614 523.314 758.364 523.068 760.045C522.879 761.327 522.297 762.499 521.721 763.657C520.954 765.195 520.203 766.707 520.404 768.418C521.288 770.102 523.092 770.723 524.812 771.315C525.223 771.456 525.63 771.596 526.018 771.749C533.484 774.691 535.493 770.925 537.489 767.186C538.523 765.247 539.553 763.316 541.338 762.331L541.626 763.948C541.401 764.456 541.121 765.148 540.797 765.943C539.446 769.263 537.357 774.396 535.535 775.653C534.262 776.532 532.543 776.824 530.883 777.107C529.977 777.261 529.088 777.412 528.3 777.653C526.597 778.91 525.799 782.306 527.161 784.029C528.058 784.638 529.416 785.079 530.49 785.17C531.629 784.946 532.636 784.205 533.626 783.477C534.413 782.898 535.189 782.327 536.01 782.031C536.837 781.732 537.746 781.65 538.666 781.568C539.771 781.468 540.893 781.366 541.913 780.887C542.809 780.465 543.55 779.727 544.268 779.013V779.013C544.928 778.357 545.568 777.72 546.289 777.367C546.866 777.323 550.789 774.32 551.142 773.845L551.524 772.039C551.965 772.729 552.66 772.132 553.466 771.442C554.022 770.966 554.63 770.445 555.242 770.269C555.73 770.13 556.443 769.81 557.264 769.441C558.975 768.674 561.158 767.694 562.753 767.694C563.77 767.694 564.827 767.574 565.805 767.419L568.662 764.622L573.333 758.291L578.851 747.252L580.214 745.04L581.829 742.419L582.328 741.609L583.255 739.892L601.949 705.241L602.763 703.667L615.442 679.102L620.314 666.527L625.614 652.857L633.265 636.044L637.946 629.555L654.235 606.983L657.887 602.761L663.978 597.824L666.582 595.717L668.692 595.169L674.296 595.179L676.18 594.709L684.206 594.986L696.26 596.566L697.178 597.152L704.375 597.811L711.65 598.479L714.977 598.292L723.024 593.723L726.568 592.713L727.319 592.182L727.683 591.059L741.721 583.745L743.882 582.623L778.529 564.59L778.782 564.457L786.391 553.927L795.475 540.027L796.991 540.235L798.526 542.16L801.878 543.84L805.343 542.635L808.518 541.534L812.153 541.497L815.416 541.986L825.075 545.919L832.404 544.429L837.785 544.598L843.489 550.148L847.12 553.686L851.607 555.433L853.575 555.563L857.944 553.132L858.893 552.425L862.301 549.881L870.303 547.267L873.253 547.015L877.201 548.173L880.509 549.878L882.456 550.884L885.183 550.859L889.866 549.768L898.467 546.554L901.176 544.887L903.24 538.898L904.516 537.917L908.237 538.705L912.969 542.316L914.527 542.925L915.779 543.412L921.444 543.19L923.876 535.556L925.625 536.139L926.654 532.319L927.823 527.985L928.725 527.159L929.765 524.983L929.524 523.269L928.679 522.081L926.127 524.79L925.136 523.976L924.353 520.924L925.317 518.604L926.811 516.204L928.112 518.058L930.223 516.847L932.574 516.903L934.336 519.35L936.313 520.082L936.471 520.826L935.426 522.474L933.772 523.908L933.558 525.551L934.093 526.145L935.459 526.359L937.687 530.221L938.667 530.211L940.929 528.476L943.504 528.605L945.531 526.648L946.894 526.787L947.131 527.755L945.105 530.085L946.096 531.048L945.504 532.621L945.894 534.184L946.659 534.851L948.478 535.207L949.113 535.677L950.078 536.39L952.262 535.105L953.042 537.411L960.371 535.862L964.097 534.631L970.19 530.025L973.375 530.671L975.409 529.834L974.838 516.033L974.743 515.759L973.279 511.493L974.145 506.41L975.399 503.341L975.608 500.95L976.017 496.244L975.181 487.371L973.365 475.477L973.165 474.178L973.355 469.401L974.943 460.954L975.58 447.515L978.061 436.673L977.994 434.897L977.966 434.287L975.304 432.815L955.086 427.687L950.204 425.194L948.064 423.272L944.842 419.269L943.801 415.936L942.73 412.496L941.569 409.97L940.194 408.861L935.851 406.886L933.112 406.162L931.978 406.321L924.21 403.181L921.914 401.187L919.05 395.318L917.217 393.993L913.49 393.129L912.99 393.1L904.534 392.615L901.337 391.595L899.238 388.889L896.703 385.179L894.524 379.302L893.91 377.923L893.791 373.559L896.42 370.628L898.996 370.308L901.641 369.164L904.115 365.756L905.209 361.073L907.621 359.112L915.073 358.847L924.005 358.528L928.689 356.568L929.426 353.933L929.336 352.438L928.022 349.466L926.266 347.912L925.856 347.108L926.24 345.002L928.367 345.21L932.154 344.431L934.358 344.711L935.654 345.597L936.237 351.415L937.88 352.519L939.573 351.162L944.203 342.319L945.857 340.513L946.837 340.132L947.484 341.066L948.068 341.911L948.31 343.703L947.883 347.137L944.521 353.433L945.896 354.391L949.922 354.957L954.325 354.848L956.065 353.938L957.909 347.655L959.335 346.375L961.692 346.803L965.361 350.134L969.363 354.777L971.635 355.98L973.451 355.592L975.257 353.417L976.616 347.951L978.289 343.613L979.857 341.512L981.587 341.193L981.74 340.901L982.357 339.692L983.023 337.522L984.753 336.089L990.741 334.474L991.721 333.42L992.5 330.486L992.814 329.306L992.348 327.82L992.234 323.12L994.316 318.7L993.992 315.718L992.586 311.999L991.787 307.379L991.759 304.168L999.335 293.51L999.553 292.726L1000.37 289.771L999.639 284.401L993.973 271.166L991.673 268.349L987.072 264.432L986.388 263.095L985.181 256.463L985.076 256.114L982.367 247.383L982.196 245.297L981.027 241.423L979.867 239.868L978.812 231.82L978.574 223.013L976.844 216.315L967.243 216.349L945.829 216.429L939.745 215.959L939.749 216.335L927.661 216.44H925.855L885.167 216.456L884.07 216.34L880.6 215.975L856.506 216.206L854.079 216.677L845.331 216.387L842.414 215.822L832.331 216.218L830.818 216.758L827.467 216.195L800.777 216.098L794.7 216.078L781.932 216.362L781.937 216.734L779.422 216.237L771.728 216.206L759.425 216.162L717.635 216.021L675.845 215.903L634.059 215.798H633.691L628.903 216.154L599.851 215.632L592.289 215.496L592.024 215.491L589.678 215.968L587.388 215.625L576.6 215.911L558.029 215.412L550.592 215.209L546.634 215.102L539.416 215.423L534.771 214.885L524.901 215.838L521.548 215.212H508.952L504.67 215.214L499.875 214.828ZM425.613 473.966L424.09 474.347C422.875 475.247 422.024 477.013 421.615 478.438L419.996 479.106C419.583 478.377 419.22 477.623 418.855 476.869C418.492 476.115 418.128 475.361 417.715 474.632H415.907C415.314 475.056 414.636 475.477 413.934 475.914C410.862 477.825 407.342 480.014 408.577 483.863L410.957 486.052L414.685 486.368C415.651 486.368 417.26 485.725 418.548 484.651C419.405 483.937 421.304 481.801 422.702 480.228C423.406 479.436 423.983 478.787 424.235 478.535C424.987 477.784 426.944 475.108 426.944 475.108L425.613 473.966ZM403.626 554.766C402.577 555.045 401.875 555.724 401.159 556.415C400.715 556.843 400.266 557.278 399.726 557.624C396.549 556.39 395.01 557.983 393.214 559.842C392.89 560.177 392.558 560.521 392.206 560.858L390.209 561.144C389.29 560.636 388.394 559.971 387.64 559.241L386.117 559.527C385.358 560.193 384.789 561.78 384.786 562.763C383.573 563.305 381.381 565.81 380.332 567.01L380.228 567.128C378.51 567.069 376.507 567.949 375.553 569.424L375.65 571.613L374.698 572.944C373.647 573.064 371.982 572.767 371.081 572.186C370.184 572.523 369.134 573.057 368.702 573.518C367.646 574.104 366.184 574.462 364.99 574.563C364.395 575.482 363.912 576.404 363.437 577.308C362.448 579.195 361.498 581.006 359.662 582.56C358.728 583.35 357.094 584.069 355.601 584.726C354.161 585.36 352.852 585.936 352.43 586.462C352.505 587.181 352.805 587.814 353.101 588.438C353.528 589.34 353.946 590.222 353.664 591.314C355.155 591.849 357.345 591.069 358.425 589.98L360.517 590.173C361.165 590.671 361.681 591.283 362.197 591.896C362.705 592.498 363.214 593.102 363.85 593.599L365.658 593.979C366.47 593.515 367.112 592.868 367.759 592.218C368.239 591.735 368.72 591.25 369.273 590.839L370.604 591.982C371.034 593.184 371.273 594.518 371.367 595.788L373.272 596.074C373.882 595.648 374.498 595.225 375.115 594.802C376.287 593.996 377.46 593.19 378.6 592.364L379.17 590.745L379.278 590.725L380.228 590.543L381.169 590.362L381.836 588.84C380.993 587.41 380.316 586.616 379.703 586.176C378.901 585.594 378.213 585.627 377.422 585.663C376.607 585.701 375.683 585.744 374.412 585.129L374.127 583.512L374.887 582.179C376.418 581.713 377.855 582.043 379.278 582.455V582.463C379.431 582.508 379.584 582.552 379.736 582.598L379.741 582.599C381.179 583.025 382.61 583.449 384.116 583.131C384.9 582.404 385.315 581.836 385.656 581.368C386.361 580.401 386.755 579.863 389.448 579.229L389.732 577.991L388.592 576.943L388.306 575.326C389.08 574.621 390.254 573.995 391.257 573.707L392.682 574.469L392.969 576.468C393.724 577.199 394.619 577.863 395.538 578.373L397.441 578.277L398.679 577.324L400.297 577.517C400.594 578.456 401.396 579.607 402.202 580.182L403.817 579.322L404.199 577.513C405.113 577.337 406.025 576.954 406.862 576.561L406.101 575.04L404.672 574.181V571.041C404.014 570.635 403.306 570.338 402.6 570.04H402.599C401.736 569.677 400.874 569.315 400.106 568.756C400.364 567.596 400.71 566.435 401.151 565.332L400.581 563.617C401.001 562.756 401.805 562.44 402.628 562.117C403.39 561.818 404.167 561.513 404.671 560.763C404.722 560.44 404.785 560.107 404.85 559.768V559.765C405.128 558.292 405.428 556.713 404.864 555.34L403.626 554.766ZM274.318 437.005C275.754 436.244 277.087 435.536 278.686 435.462C279.486 435.426 280.355 435.546 281.334 435.898C280.99 437.732 277.562 438.94 274.714 439.944C273.417 440.4 272.24 440.816 271.53 441.227C270.505 441.822 269.58 442.801 268.64 443.793C266.721 445.821 264.741 447.911 261.728 446.938C261.78 442.037 266.368 440.292 270.301 438.796C270.901 438.567 271.487 438.344 272.038 438.117C272.855 437.782 273.599 437.386 274.318 437.005ZM134.619 445.163L135.587 444.103L137.798 444.887L139.578 447.022L142.422 451.446L145.034 455.513L147.355 458.237L149.16 459.401L152.644 461.655L153.12 462.841L152.611 463.971L150.296 465.948L149.339 467.682L149.503 468.424L150.796 468.478L152.895 467.173L155.607 466.382L156.593 466.514L157.82 467.24L163.221 472.822L164.675 473.471L168.473 474.078L173.02 474.002L173.567 475.113L173.36 476.163L172.616 476.996L170.735 477.7L168.388 477.887L166.206 478.82L165.015 480.033L164.755 481.103L164.237 483.255L163.052 484.768L157.26 487.254L155.44 487.135L153.454 486.198L151.33 486.159L149.531 487.235L148.794 487.313L147.868 487.412L142.574 483.695L138.993 482.56L134.827 482.556L131.227 484.781L127.029 483.062L123.469 483.049L121.942 482.478L122.3 481.278L124.935 480.411L127.989 477.299L129.49 473.788L131.264 469.629L134.407 454.572L134.619 445.163ZM235.642 467.378C237.252 466.767 238.857 466.159 240.6 466.256L240.315 467.59C239.792 467.891 239.236 468.148 238.679 468.406C237.672 468.871 236.663 469.338 235.841 470.066L235.652 471.207C236.626 471.408 237.826 472.104 238.506 472.826L238.983 474.634C238.889 474.721 238.485 476.139 238.005 477.825C237.359 480.092 236.577 482.842 236.224 483.485C235.229 485.297 233.771 486.398 232.359 487.466C231.251 488.303 230.171 489.119 229.368 490.239C229.153 491.031 229.185 491.786 229.217 492.533C229.24 493.103 229.264 493.668 229.179 494.238C229.052 495.082 228.559 495.963 228.067 496.842C227.678 497.537 227.289 498.23 227.085 498.902C227.007 499.158 225.361 510.442 225.309 511.02C225.218 512.021 225.113 513.036 224.609 513.938L223.277 514.891C221.053 515.076 219.062 514.78 217.049 514.481C215.792 514.294 214.527 514.106 213.191 514.033C211.787 513.957 210.578 514.41 209.387 514.855C208.277 515.27 207.183 515.68 205.958 515.65C204.975 515.627 203.475 515.055 202.721 514.416C201.832 513.664 201.546 512.637 201.246 511.563C200.935 510.448 200.61 509.283 199.583 508.324C199.31 508.227 199.015 508.136 198.71 508.041C197.398 507.632 195.904 507.167 195.203 506.039C194.77 505.07 194.799 503.268 195.299 502.325C194.529 501.778 193.674 501.4 192.817 501.022C192.141 500.724 191.464 500.425 190.827 500.042C189.528 500.052 188.202 500.2 186.925 500.424C183.793 498.875 182.663 498.534 182.243 497.792C181.806 497.018 182.142 495.807 181.785 492.334C181.69 491.41 181.223 490.423 180.76 489.444C180.413 488.713 180.069 487.986 179.882 487.291C179.93 486.349 180.344 485.543 180.753 484.746C181.164 483.946 181.571 483.155 181.594 482.246C181.611 481.577 181.421 480.743 181.235 479.929C181.108 479.373 180.983 478.825 180.928 478.346C181.935 477.266 183.801 477.012 185.177 476.824L185.18 476.823C190.329 476.122 192.411 477.087 194.48 478.046C196.038 478.768 197.589 479.488 200.438 479.488C204.54 479.488 206.785 478.073 209.203 476.549C210.529 475.713 211.907 474.845 213.67 474.159C214.993 473.645 215.856 473.598 216.79 473.548C218.114 473.475 219.583 473.397 222.71 471.969L220.807 471.683L219.855 470.255L219.759 468.541C220.752 468.209 221.719 468.299 222.712 468.39C222.932 468.41 223.152 468.431 223.375 468.447C226.145 468.645 229.285 468.83 232.036 468.447C233.279 468.273 234.461 467.825 235.642 467.378ZM233.142 494.258C234.295 491.576 235.84 487.98 238.809 487.764C239.301 487.728 239.833 487.787 240.409 487.957C242.612 492.017 238.461 496.501 234.793 497.855L233.272 497.283L232.606 495.475C232.777 495.106 232.953 494.694 233.142 494.258ZM354.643 532.751C355.346 531.595 356.591 531.002 357.878 530.998C358.308 530.997 358.741 531.062 359.162 531.193L359.861 532.302C359.053 534.147 357.769 536.524 355.457 536.544C354.829 535.677 354.587 533.771 354.643 532.751ZM248.975 562.477L250.497 561.81L251.736 562.856C252.487 564.264 252.432 565.712 252.375 567.191C252.346 567.959 252.317 568.734 252.398 569.517C252.878 569.956 253.321 570.53 253.772 571.113C255.083 572.812 256.453 574.589 258.966 573.325L260.298 570.087C260.912 571.576 262.761 572.317 264.201 572.751C264.24 573.614 263.986 574.396 263.734 575.168C263.437 576.08 263.144 576.979 263.345 577.987L264.582 579.034L264.011 580.651L262.584 581.604L262.298 583.412L263.44 584.459L265.057 584.175L266.201 585.317L265.151 586.46C265.375 587.506 265.26 589.324 264.678 590.264C263.555 590.575 262.405 590.849 261.251 591.026C261.235 591.222 262.754 607.112 262.87 607.587C263.248 608.093 263.673 608.532 264.085 608.955C265.202 610.104 266.218 611.148 265.914 613.201L265.057 614.533C263.997 614.932 262.98 614.824 261.958 614.717C261.009 614.616 260.057 614.515 259.062 614.82C257.377 615.894 256.363 617.358 255.399 618.747C253.651 621.268 252.072 623.546 246.973 622.814C246.153 622.264 245.234 621.325 244.785 620.436L242.693 620.243L241.55 619.197L241.168 617.198L240.029 616.15C239.408 617.049 238.877 618.074 238.504 619.101L236.982 619.864L235.27 619.292L234.604 617.767L232.985 617.101L231.653 618.053C231.43 619.079 230.818 620.305 230.131 621.1C229.383 621.535 228.553 621.731 227.726 621.925C226.802 622.142 225.881 622.359 225.085 622.909C224.744 623.144 224.486 623.389 224.24 623.623C223.743 624.094 223.296 624.519 222.328 624.717L221.375 621.291L220.139 620.149C219.7 620.052 219.228 619.981 218.747 619.908C217.375 619.699 215.924 619.477 214.903 618.628C214.837 618.428 214.769 618.213 214.699 617.989C214.271 616.62 213.731 614.897 212.525 614.249C211.488 613.793 210.391 613.921 209.276 614.052C208.363 614.16 207.44 614.269 206.529 614.058L205.861 612.535C206.22 609.961 209.761 608.282 213.005 606.743C214.945 605.822 216.779 604.952 217.76 603.972C218.808 602.923 219.117 601.502 219.428 600.076C219.737 598.655 220.048 597.229 221.091 596.167C221.875 595.898 222.748 595.925 223.606 595.952C224.661 595.984 225.693 596.015 226.514 595.5L227.56 594.263C227.162 592.66 227.859 591.195 228.54 589.763C229.418 587.917 230.269 586.128 228.703 584.175L228.798 582.652C229.343 582.166 230.086 581.799 230.84 581.425C232.187 580.759 233.572 580.074 233.937 578.657C234.074 578.122 234.106 577.582 234.14 577.037C234.183 576.32 234.226 575.591 234.51 574.847C235.337 573.871 236.765 573.533 238.433 573.139C240.93 572.55 243.961 571.833 246.311 568.661C247.14 567.541 247.661 566.055 248.165 564.615C248.426 563.871 248.683 563.14 248.975 562.477ZM141.986 572.853C142.39 572.229 142.792 571.61 143.24 571.041L145.336 572.946C147.191 572.374 148.703 572.917 150.377 573.706C151.659 573.537 152.978 573.218 154.185 572.755C155.187 573.429 155.934 575.848 156.087 576.941L155.985 577.188C154.606 580.533 154.089 581.789 154.089 585.602L152.28 585.985C151.565 586.776 151.455 587.912 151.345 589.048C151.272 589.804 151.199 590.561 150.948 591.217C150.486 591.671 149.934 591.943 149.401 592.206C148.966 592.421 148.543 592.63 148.188 592.928C146.559 594.298 146.736 596.593 146.897 598.688C146.968 599.597 147.035 600.468 146.951 601.208C144.467 602.535 140.582 601.005 138.195 599.876L136.578 600.639C136.502 600.776 136.426 600.913 136.35 601.051C135.372 602.825 134.369 604.646 132.297 605.302L130.394 604.922C129.67 604.284 129.491 603.65 129.313 603.019C129.204 602.637 129.097 602.257 128.869 601.876C128.767 601.707 124.124 597.854 123.921 597.784C122.985 598.166 122.257 598.813 121.523 599.464C121.016 599.915 120.507 600.367 119.924 600.736L117.925 600.639C116.499 599.523 115.286 598.092 115.45 596.167L114.022 595.405C113.117 596.232 111.857 596.667 110.675 597.074C109.463 597.493 108.331 597.883 107.743 598.639C107.328 599.172 107.086 599.746 106.843 600.318C106.478 601.179 106.116 602.033 105.172 602.733C104.637 602.859 104.112 603.008 103.593 603.155C101.606 603.718 99.6911 604.26 97.5599 603.496C97.6245 601.864 98.1987 600.202 98.8907 598.736C98.8203 597.618 98.4011 596.141 97.7491 595.214L97.846 593.691C97.8783 593.641 97.9107 593.588 97.9439 593.534C98.1816 593.153 98.4496 592.723 98.7985 592.454L98.9876 590.931L96.5124 588.837L96.7034 587.316C97.6407 586.063 98.8954 585.938 100.187 585.81C100.675 585.762 101.168 585.713 101.652 585.603C102.623 585.38 103.411 584.766 104.216 584.139C105.23 583.349 106.273 582.537 107.743 582.461C108.574 582.417 110.341 583.146 110.977 583.7C111.992 583.85 112.825 583.495 113.656 583.143C114.375 582.837 115.094 582.532 115.927 582.558C116.809 582.586 117.568 583.165 118.421 583.814C119.687 584.78 121.159 585.9 123.541 585.603C127.306 585.131 130.552 582.505 133.576 580.059C134.566 579.259 135.531 578.477 136.483 577.798C136.899 577.499 137.372 577.246 137.841 576.995C138.371 576.712 138.897 576.43 139.34 576.086C140.452 575.221 141.221 574.032 141.986 572.853ZM173.372 592.243C174.132 591.813 174.875 591.393 175.824 591.358C176.053 591.349 176.295 591.364 176.551 591.406C177.192 591.511 177.812 591.875 178.421 592.232C179.042 592.596 179.652 592.955 180.261 593.023L181.212 594.357L181.117 596.354C180.49 597.266 179.918 598.231 179.403 599.209C179.537 600.335 179.861 601.483 180.26 602.54C180.03 603.426 179.277 604.642 178.548 605.206L177.217 605.301L176.264 604.065L174.931 604.92C174.561 605.724 174.28 606.403 174.029 607.015C173.287 608.817 172.789 610.028 170.933 612.058C169.825 612.399 168.359 612.41 167.224 612.247L166.461 613.581C167.087 614.074 167.495 615.387 167.413 616.15C166.061 617.84 164.623 617.464 163.116 617.071C162.375 616.878 161.619 616.68 160.847 616.721C159.905 616.769 159.02 617.188 158.136 617.606C156.758 618.258 155.382 618.907 153.805 618.15C153.137 617.354 152.523 616.477 151.996 615.579C151.231 615.789 150.589 616.188 149.956 616.581C149.051 617.144 148.163 617.695 146.954 617.673L145.716 616.531C144.222 615.917 141.944 616.357 139.946 616.743C139.173 616.892 138.443 617.032 137.816 617.101C136.973 616.674 136.183 615.254 136.103 614.344C137.117 611.816 142.439 609.074 146.462 607.003C147.784 606.321 148.966 605.713 149.808 605.208C151.504 604.19 152.297 602.452 153.037 600.829C153.683 599.411 154.29 598.082 155.424 597.401C156.685 596.644 158.155 596.527 159.592 596.412C160.851 596.311 162.084 596.213 163.13 595.689C163.549 595.48 163.93 595.141 164.318 594.795C164.749 594.411 165.189 594.018 165.702 593.784C166.806 593.283 167.898 593.286 168.994 593.29C169.889 593.293 170.786 593.296 171.697 593.025C172.314 592.841 172.847 592.54 173.372 592.243ZM339.185 598.357C339.922 597.867 340.664 597.375 342.051 597.214L343.762 597.785C343.569 599.485 342.531 601.026 341.289 602.162L341.859 603.493C342.898 603.925 344.722 603.903 345.762 603.493L346.526 605.017L345.476 606.161C345.546 607.058 345.853 607.885 346.162 608.716C346.429 609.433 346.696 610.15 346.812 610.919C346.011 611.614 344.989 611.958 343.968 612.302C343.342 612.511 342.718 612.721 342.146 613.011C341.803 613.475 341.511 613.972 341.224 614.459C340.355 615.936 339.529 617.339 337.483 617.58C337.029 617.067 336.753 616.395 336.479 615.727C336.089 614.778 335.704 613.84 334.818 613.392C334.344 613.965 334.07 614.595 333.801 615.216C333.425 616.086 333.056 616.936 332.154 617.58C331.389 618.127 330.5 618.28 329.604 618.434C328.71 618.588 327.809 618.743 327.015 619.292L325.207 618.912C324.364 618.485 323.575 617.059 323.495 616.15C322.871 615.707 322.045 615.336 321.189 614.951C319.338 614.118 317.344 613.221 316.927 611.393L317.784 610.063C319.159 609.805 320.189 609.085 321.227 608.358C321.994 607.82 322.766 607.28 323.684 606.921L324.826 608.158L326.636 608.541C330.03 607.02 330.755 603.566 331.432 600.331L331.488 600.07L333.009 599.31C336.831 599.922 338.003 599.144 339.185 598.357ZM130.072 620.427L131.354 620.182L133.257 620.896L134.116 622.447L133.362 626.938L132.315 627.482L131.237 626.53L129.552 621.034L130.072 620.427ZM206.519 623.165C207.501 622.428 208.526 621.66 209.764 621.481C210.333 622.576 211.272 623.665 212.143 624.528C211.334 626.341 211.739 630.392 212.239 632.331C212.03 633.236 211.279 634.525 210.526 635.09L208.433 634.898C207.558 634.166 207.189 632.794 206.851 631.536C206.717 631.038 206.587 630.558 206.433 630.142L204.72 629.57L203.483 630.522L202.912 632.045L203.387 633.853C202.824 634.255 202.201 634.824 201.532 635.435C199.117 637.64 196.12 640.378 193.302 637.659C193.312 636.559 193.201 635.396 192.921 634.33C191.191 634.867 190.737 637.405 190.413 639.208C190.359 639.511 190.309 639.792 190.257 640.039L189.208 641.181L187.4 641.656L187.019 639.752L187.685 638.231L186.733 636.802C185.61 636.764 184.194 636.412 183.213 635.853L182.451 634.33C182.483 631.372 183.782 630.413 185.538 629.117C185.976 628.794 186.442 628.449 186.925 628.048C188.027 627.818 189.253 628.007 190.453 628.192C191.95 628.423 193.407 628.648 194.536 628.048C195.881 626.396 197.345 624.705 199.106 623.482H200.915C203.249 625.617 204.82 624.438 206.519 623.165ZM227.276 637.279C228.228 635 230.866 633.65 233.393 633.617C234.542 633.603 235.668 633.858 236.603 634.423C237.291 635.129 237.865 636.519 238.03 637.47C236.364 639.886 230.214 640.833 228.037 638.803L227.276 637.279ZM276.953 639.943C278.174 638.912 281.398 637.414 282.952 637.088L283.619 638.231C283.994 640.686 279.218 647.888 277.147 649.367C276.698 649.687 276.142 649.905 275.584 650.124C275.024 650.343 274.462 650.563 274.004 650.889C272.892 651.684 272.271 652.964 271.663 654.217C270.578 656.454 269.536 658.602 265.822 657.74L264.68 656.693C263.692 653.131 270.089 646.823 272.578 644.702C273.371 644.026 274.055 643.186 274.742 642.344C275.439 641.491 276.138 640.633 276.953 639.943ZM300.844 639.945C301.725 639.474 306.551 637.205 307.315 637.091L308.267 638.422L308.361 640.418C307.745 641.027 307.323 641.77 306.905 642.505C306.518 643.187 306.134 643.863 305.603 644.417C305.006 645.04 304.222 645.32 303.432 645.601C302.644 645.882 301.848 646.166 301.223 646.796C300.391 648.968 300.691 650.643 300.97 652.198C301.341 654.275 301.676 656.139 299.225 658.692L299.209 658.709C298.449 659.5 297.669 660.31 296.561 660.595C294.393 660.687 292.243 658.837 290.497 657.333C290.155 657.038 289.828 656.757 289.519 656.506C288.621 653.425 289.641 652.48 290.865 651.346C291.485 650.772 292.157 650.15 292.659 649.178C293.162 648.204 293.253 647.141 293.345 646.071C293.412 645.292 293.479 644.509 293.706 643.753C294.362 642.936 295.173 642.83 296.022 642.719C296.388 642.671 296.76 642.623 297.131 642.516C298.087 642.24 298.765 641.629 299.424 641.034C299.877 640.626 300.323 640.225 300.844 639.945ZM209.955 648.13C211.845 646.78 218.161 645.65 221.487 645.67C221.962 645.673 222.378 645.698 222.71 645.75L223.375 647.275C224.729 648.313 226.66 648.829 228.322 649.083L228.226 651.938L226.703 652.698L226.893 654.317L228.133 655.269L228.798 656.886L227.845 658.028C226.224 659.045 222.797 657.922 220.4 657.138C219.873 656.965 219.394 656.809 218.997 656.695C217.109 658.327 214.303 656.946 212.906 655.364L211.286 656.124C210.904 657.676 208.031 661.668 206.814 662.787C206.069 662.884 205.356 662.821 204.648 662.76C204.103 662.711 203.561 662.664 203.008 662.69C201.755 662.748 200.532 663.018 199.293 663.292C197.967 663.586 196.623 663.882 195.203 663.928L194.254 662.69C194.443 660.252 193.712 659.431 192.945 658.571C192.466 658.033 191.973 657.479 191.683 656.506L192.825 655.361L194.633 655.647L195.299 654.603C194.574 653.864 193.96 652.567 193.778 651.556L194.347 649.941L196.347 649.655C197.735 650.802 200.087 652.63 201.961 652.509L202.912 651.081L204.529 650.797C204.938 651.658 205.745 652.628 206.529 653.175L207.956 652.698C208.176 651.184 208.636 649.073 209.955 648.13ZM177.025 648.89L178.356 647.941C179.913 648.017 183.013 649.59 183.686 651.078L183.02 652.222C181.201 652.021 179.371 651.944 177.544 651.868C177.339 651.859 177.135 651.851 176.931 651.841L176.36 650.509L177.025 648.89ZM325.409 649.768L326.083 649.458L327.452 649.959L328.375 651.066L328.089 652.04L328.568 653.75L328.199 654.204L327.135 653.997L325.559 654.766L324.198 654.636L323.58 653.75L325.409 649.768ZM257.402 658.051L259.572 656.594L260.558 656.806L261.105 657.84L260.668 658.819L258.409 659.45L257.493 659.017L257.402 658.051ZM319.23 660.98L321.178 659.907L321.874 660.869L320.503 665.067L319.612 666.127L317.617 664.066L317.745 662.796L319.23 660.98ZM158.179 661.36C158.701 660.625 160.127 660.166 161.118 660.117C161.26 660.11 161.392 660.11 161.511 660.12L164.367 661.834L166.079 661.262L167.795 661.834C168.436 662.96 169.419 663.832 170.387 664.691C170.636 664.912 170.884 665.132 171.125 665.356C172.961 665.047 179.816 665.119 181.401 665.926L182.352 667.165C182.37 668.526 182.447 669.907 182.638 671.257C183.202 672.054 184.045 672.386 184.897 672.722C185.466 672.946 186.04 673.172 186.538 673.54L187.112 675.348C186.73 676.172 185.674 677.202 184.827 677.539L184.448 678.583C182.828 679.695 181.009 680.46 179.185 681.227C178.365 681.572 177.544 681.918 176.74 682.296L175.787 683.913C176.082 684.725 176.577 685.39 177.072 686.054C177.567 686.719 178.062 687.383 178.356 688.196L177.595 689.813C174.448 691.044 170.586 690.636 166.974 690.256C163.876 689.929 160.964 689.621 158.847 690.385C158.356 690.562 157.831 690.925 157.301 691.29C156.861 691.593 156.419 691.898 155.993 692.099L153.899 692.002C153.016 691.371 152.485 690.49 151.952 689.604C151.133 688.244 150.308 686.874 148.19 686.388C147.379 686.5 146.589 686.71 145.801 686.919C144.646 687.226 143.495 687.532 142.289 687.53L141.337 686.77C141.601 686.021 141.826 685.107 142.066 684.137C142.873 680.87 143.835 676.976 146.952 676.682L147.903 675.256L147.895 675.178C147.68 673.078 147.454 670.877 147.808 668.783C148.312 668.107 149.445 667.83 150.875 667.481C152.708 667.033 155.029 666.467 157.134 664.784C157.266 663.659 157.65 662.364 158.179 661.36ZM339.385 660.978L341.479 660.694C342.201 661.07 343.012 661.519 343.575 662.121C343.657 662.793 343.872 663.348 344.08 663.888C344.425 664.781 344.753 665.628 344.431 666.879C344.229 667.663 343.812 668.301 343.386 668.948C342.624 670.111 341.837 671.309 342.241 673.447C342.523 674.935 343.209 676.324 343.884 677.691C345.275 680.51 346.618 683.231 344.271 686.516C343.45 687.668 341.949 688.303 340.529 688.197C339.913 686.173 340.099 684.248 340.289 682.288C340.418 680.957 340.548 679.61 340.432 678.205C339.364 677.086 336.93 677.174 335.257 677.236C335.03 677.244 334.818 677.252 334.625 677.256L333.389 678.3V679.634L334.625 680.68L335.198 682.392C334.876 683.267 333.813 684.46 332.914 684.774C332.333 685.713 332.215 687.533 332.439 688.58L331.582 690.006L330.059 690.769L328.823 690.103C328.397 688.561 327.145 686.943 325.492 686.675C323.886 687.153 322.644 688.63 322.16 690.197L324.159 690.579L325.109 691.814C325.179 693.152 324.723 694.468 324.267 695.786C323.691 697.454 323.112 699.126 323.589 700.858L324.634 702.092L324.92 704.188C324.661 705.095 324.013 706.219 323.301 706.852L321.781 706.089C321.241 705.15 320.585 704.245 319.878 703.425L318.543 704.47L317.972 705.996L316.354 705.899C316.417 704.543 316.328 703.151 316.164 701.805L314.643 702.091C314.067 702.775 313.753 703.455 313.458 704.091C312.907 705.281 312.426 706.32 310.455 706.945L308.55 706.565L307.695 705.33C307.544 701.602 307.205 700.787 306.591 699.308C306.275 698.546 305.885 697.607 305.41 696.002L306.362 694.574L308.074 694.194L309.504 694.954L311.121 694.669C311.425 693.653 311.502 692.609 311.58 691.565C311.642 690.725 311.704 689.884 311.884 689.055L311.027 687.723C310.092 687.211 309.099 687.154 308.098 687.096C307.454 687.06 306.809 687.023 306.173 686.865C307.007 686.242 307.364 685.358 307.722 684.469C307.974 683.844 308.228 683.218 308.648 682.678C308.896 682.359 309.166 682.1 309.43 681.848C309.905 681.394 310.362 680.956 310.645 680.204L312.454 679.633L313.31 678.299C312.914 676.568 312.82 674.198 313.69 672.591C314.505 671.914 316.349 671.806 317.306 672.116C318.325 671.627 319.335 671.053 320.257 670.4C321.193 668.256 324.356 664.041 326.539 663.169C327.373 662.836 328.437 662.632 329.482 662.432C330.184 662.298 330.878 662.165 331.487 661.995C331.899 661.881 332.293 661.706 332.683 661.532C333.452 661.19 334.213 660.852 335.102 660.978L335.865 662.502L337.102 663.168C337.647 662.34 338.554 661.51 339.385 660.978ZM83.3783 661.222C84.4289 661.131 85.4786 661.041 86.5167 660.788C89.8598 664.852 90.7167 664.867 96.2253 664.406L96.7947 665.737C96.5542 666.441 96.1027 667.485 95.5589 668.023C94.9021 667.883 94.2132 667.698 93.5053 667.509C90.6915 666.753 87.5771 665.917 84.9947 667.546C84.4232 668.63 83.0852 669.498 81.8128 670.322C81.1311 670.764 80.4682 671.195 79.9522 671.639L78.3333 671.542L78.2363 670.209C78.6026 669.565 79.0869 668.906 79.5797 668.236C80.4496 667.053 81.3456 665.836 81.6636 664.595C81.366 663.846 80.3603 662.895 79.5694 662.692L80.7112 661.55C81.5966 661.375 82.4877 661.298 83.3783 661.222ZM280.952 662.023C281.229 661.955 281.519 661.915 281.82 661.898C282.778 661.849 283.836 662.034 284.908 662.222C286.195 662.446 287.498 662.674 288.662 662.501L290.087 663.357C290.521 664.348 291.07 665.336 291.706 666.211L291.418 668.02C290.66 668.58 289.078 668.75 288.184 668.592C287.741 669.597 287.786 671.39 288.184 672.398C287.202 673.783 286.485 675.566 286.283 677.251C286.437 677.672 286.609 678.081 286.779 678.485C287.344 679.827 287.89 681.123 287.709 682.676L286.376 683.724C286.327 686.76 286.952 687.746 288.756 690.004C289.174 694.638 285.597 694.718 282.202 694.794C280.757 694.826 279.344 694.858 278.287 695.24C277.731 695.44 277.267 695.683 276.832 695.911C275.753 696.475 274.847 696.949 273.148 696.476C272.23 696.222 271.624 695.552 270.971 694.831C270.207 693.988 269.38 693.073 267.914 692.668C267.741 691.796 267.789 690.346 268.199 689.529C267.212 689.676 265.449 689.375 264.68 688.671L264.013 687.149C264.323 686.894 264.706 686.638 265.095 686.377C265.684 685.983 266.288 685.578 266.68 685.151C267.89 683.831 268.41 681.353 268.9 679.011C269.348 676.877 269.772 674.855 270.673 673.92L272.578 673.348C273.05 672.406 273.471 671.391 273.894 670.367C275.393 666.751 276.935 663.027 280.952 662.023ZM104.505 665.356C105.055 665.196 105.666 665.131 106.31 665.135C107.905 665.142 109.693 665.556 111.205 665.908C111.524 665.981 111.83 666.052 112.119 666.116L112.212 667.448L110.882 668.496C109.422 668.646 107.862 668.633 106.41 668.399L104.98 669.163L104.029 668.783L103.746 666.782L104.505 665.356ZM203.103 695.998C203.872 694.545 205.05 693.078 206.814 692.954L208.241 693.812C208.674 694.804 209.224 695.789 209.86 696.666C210.497 696.92 211.379 697.095 212.278 697.274C213.628 697.541 215.015 697.817 215.666 698.382L216.522 699.905L216.333 701.9C215.85 702.677 215.251 702.996 214.611 703.338C214.303 703.502 213.986 703.671 213.666 703.898C210.396 706.235 210.933 708.549 211.625 711.535C211.772 712.163 211.924 712.821 212.049 713.513L211.286 714.845L211.953 716.367C212.106 716.423 212.263 716.48 212.424 716.537C214.323 717.22 216.652 718.055 217.188 720.176L216.997 722.268C216.053 722.84 214.227 722.946 213.191 722.647L212.809 723.979C215.658 724.977 216.382 729 216.522 731.595C218.002 732.782 217.987 735.505 217.759 737.211L216.903 738.54C215.993 739.036 215.024 739.382 214.053 739.727C213.346 739.979 212.638 740.231 211.953 740.542L211.383 742.157C211.876 743.71 213.277 744.899 214.525 745.869L214.142 747.2C213.557 747.732 212.938 748.003 212.304 748.28C211.937 748.439 211.567 748.602 211.194 748.819C210.481 749.232 209.875 749.665 209.306 750.071C207.606 751.284 206.241 752.258 203.387 751.769C199.039 748.562 197.764 749.199 195.663 750.246C194.736 750.709 193.648 751.252 192.064 751.58L192.042 751.515C191.507 749.929 190.894 748.113 189.682 746.916L189.588 745.201C190.242 744.316 190.833 743.344 191.3 742.349L190.825 740.635L189.303 740.921C188.965 742.096 185.856 747.201 184.925 747.867C185.688 748.044 186.712 748.816 187.114 749.484L186.925 751.103L185.591 751.958C184.316 752.128 182.752 752.09 181.5 751.769C180.863 750.956 180.674 749.214 180.926 748.249L179.214 748.056C175.717 750.61 172.664 748.182 169.956 746.026C169.512 745.672 169.078 745.327 168.652 745.012C167.551 744.196 166.584 743.76 165.711 743.367C163.965 742.58 162.603 741.966 161.324 738.827C156.03 735.901 151.257 728.321 156.946 723.314C158.109 722.29 159.33 721.79 160.575 721.28C161.356 720.959 162.148 720.634 162.941 720.174C163.277 719.979 163.618 719.776 163.966 719.569C166.137 718.275 168.532 716.849 171.03 716.652L172.554 717.319L172.46 718.84C171.732 719.309 170.894 719.577 170.061 719.843C168.676 720.286 167.303 720.725 166.463 722.075L166.272 723.599C168.087 724.471 169.71 723.502 171.255 722.582C171.607 722.372 171.955 722.165 172.3 721.982C173.117 721.55 174.057 721.172 175.01 720.789C176.49 720.195 178 719.589 179.124 718.746C180.893 717.418 180.368 715.087 179.806 712.59C179.393 710.749 178.958 708.819 179.407 707.135C180.826 705.077 183.703 704.909 186.01 704.773C186.126 704.766 186.241 704.76 186.355 704.753C187.092 704.318 187.473 703.634 187.854 702.955C188.274 702.202 188.692 701.453 189.588 701.044L191.113 701.899L191.779 703.423L193.205 704.374L194.729 703.994L195.68 702.661C195.86 701.629 195.509 700.704 195.164 699.798C194.462 697.948 193.794 696.187 197.775 693.81L199.583 694.19C200.185 695.069 200.822 695.931 201.486 696.762L203.103 695.998ZM237.352 694.911C238.026 694.598 238.614 694.325 239.433 694.341C239.59 694.343 239.757 694.358 239.933 694.384C243.425 697.037 242.057 699.572 240.644 702.191C240.205 703.005 239.761 703.826 239.458 704.663C239.624 706.547 240.51 708.234 241.437 709.996C242.471 711.964 243.555 714.026 243.74 716.561C243.858 718.187 242.845 722.161 242.028 723.603C240.932 725.537 239.471 727.331 238.002 729.131C236.362 731.144 234.714 733.166 233.558 735.405C233.375 735.76 233.267 736.051 233.172 736.305C232.936 736.94 232.783 737.353 231.75 737.974C230.702 738.603 229.212 738.826 228.037 738.451L226.8 737.498L226.325 735.689L226.703 734.357C226.492 733.674 225.84 733.183 225.156 732.667C224.561 732.218 223.941 731.75 223.564 731.123C221.416 727.541 222.95 718.863 226.8 716.845C225.601 716.979 224.413 716.97 223.226 716.961C221.701 716.949 220.174 716.937 218.616 717.227L217.283 716.37L216.619 712.945C216.326 712.639 216.013 712.347 215.701 712.055C214.811 711.225 213.919 710.393 213.477 709.231L213.666 707.234C214.69 706.334 215.134 705.516 215.631 704.601C215.864 704.174 216.107 703.725 216.428 703.237C216.702 702.817 217.116 702.416 217.531 702.013C217.889 701.666 218.247 701.318 218.524 700.953L220.328 700.38C220.668 699.509 221.898 698.495 222.803 698.286L224.422 698.953L226.228 698.382C226.536 697.507 227.568 696.378 228.419 696.004C229.352 695.922 230.265 695.93 231.168 695.937C232.997 695.953 234.784 695.968 236.603 695.241C236.872 695.133 237.117 695.019 237.352 694.911ZM248.975 698L250.972 696.859C252.26 696.825 253.634 696.986 254.874 697.334C255.598 698.192 256.205 699.167 256.818 700.149C257.374 701.039 257.932 701.936 258.586 702.759C261.847 703.29 262.084 705.854 262.316 708.371C262.433 709.647 262.55 710.913 263.059 711.895C264.113 712.361 265.198 712.777 266.294 713.131C266.088 714.36 266.038 715.699 266.201 716.937L267.34 718.176V719.984C264.645 723.245 265.981 730.984 268.579 734.07C269.356 734.227 269.968 733.887 270.578 733.546C271.188 733.205 271.798 732.863 272.576 733.021C273.905 736.005 273.727 741.311 270.671 743.206C269.34 743.152 267.967 742.968 266.676 742.633C265.365 744.196 261.406 744.63 259.728 743.584L259.35 745.393L257.731 746.156C256.216 746.104 254.896 744.511 254.4 743.204L252.875 742.537C251.953 742.598 250.607 743.146 249.924 743.776C248.978 743.922 247.212 743.643 246.5 742.918C245.592 742.909 244.834 743.288 244.064 743.672C242.859 744.274 241.625 744.89 239.742 744.06L240.315 742.918C240.349 742.025 239.732 740.661 239.076 740.063L239.932 738.635C241.359 738.078 242.719 738.183 244.055 738.286C245.163 738.372 246.255 738.456 247.356 738.162C248.974 736.996 249.304 736.078 249.56 735.366C250.02 734.088 250.24 733.477 257.254 733.307C257.861 732.39 258.378 731.321 258.682 730.262L257.92 728.738C256.584 727.576 252.691 726.908 250.972 727.215L249.64 728.167C249.041 729.045 248.785 730.759 248.975 731.784L248.119 733.212C242.063 731.069 249.036 720.341 251.732 717.986L251.45 716.462C248.041 713.836 245.012 706.359 246.404 702.186C246.664 701.404 247.299 700.5 247.913 699.626C248.313 699.057 248.702 698.501 248.975 698ZM357.471 742.064L360.895 741.875L362.039 742.827C361.988 743.755 362.336 744.609 362.689 745.479C363.001 746.244 363.317 747.021 363.37 747.868L362.514 749.201C361.48 749.734 360.432 750.246 359.372 750.722C359.273 750.878 359.175 751.034 359.077 751.192C358.331 752.385 357.572 753.6 356.612 754.626C355.578 755.014 353.742 755.079 352.71 754.626C351.392 753.804 350.354 751.799 350.618 750.248C351.153 749.76 351.756 749.439 352.347 749.124C353.205 748.667 354.041 748.223 354.615 747.298C354.918 746.81 355.095 746.231 355.269 745.658C355.432 745.126 355.592 744.599 355.851 744.156C356.046 743.825 356.308 743.548 356.574 743.266C356.911 742.91 357.253 742.547 357.471 742.064ZM324.836 754.416L325.57 753.209L327.763 753.328L329.079 755.397L329.638 757.403L328.474 760.257L326.959 759.908L324.937 756.204L324.836 754.416ZM339.633 766.209C339.903 764.917 340.186 763.563 341.006 762.62L342.339 763.097C342.343 765.744 343.374 766.591 344.682 767.667C345.175 768.073 345.708 768.513 346.24 769.092L345.669 770.709L344.337 771.757C341.683 772.044 339.748 770.173 339.293 767.665C339.425 767.208 339.529 766.713 339.633 766.209Z" fill="black"/>
</g>
<circle cx="360" cy="475" fill="#5CE50D"/>
<circle cx="203" cy="330" fill="#E52A0D"/>
<circle cx="557" cy="569" fill="#E52A0D"/>
<circle cx="679" cy="300" fill="#E52A0D"/>
</g>
<defs>
<clipPath id="clip0_1_1523">
<rect width="1000" height="1000" />
</clipPath>
</defs>
</svg>
