<svg width="1000" height="1000" viewBox="0 0 1000 1000" fill="none" xmlns="http://www.w3.org/2000/svg">
<rect width="1000" height="1000" />
<path d="M340.125 0.871033C339.051 1.55463 340.809 3.99603 348.133 11.8085C353.406 17.2773 358.777 23.7226 360.145 26.164C362.488 30.0703 362.586 31.0468 361.902 35.4413C361.024 40.3242 361.024 40.3242 355.652 42.082C352.723 43.0585 349.11 44.1328 347.645 44.4257C343.836 45.207 340.613 49.1132 338.66 55.3632C336.512 62.1015 333.68 65.0312 328.504 65.9101C326.258 66.3007 322.449 68.1562 319.422 70.4023C316.59 72.4531 313.27 74.2109 312 74.2109C310.242 74.2109 308.875 75.4804 306.531 79.1913C304.578 82.414 300.477 86.5156 294.813 90.9101L286.024 97.6484H278.113H270.203L265.613 103.41C262.098 107.707 260.926 109.953 260.926 112.394C260.926 116.594 250.867 132.805 248.328 132.805C246.18 132.805 243.348 135.734 243.348 137.883C243.348 138.762 244.324 141.887 245.399 144.914C247.156 149.406 247.938 150.383 249.793 150.383C251.551 150.383 252.137 151.066 252.723 153.703C253.113 156.242 253.992 157.316 256.043 158.098C258.387 158.879 258.973 159.758 259.461 163.469C260.047 167.473 259.852 168.254 257.117 171.574C255.457 173.625 254.09 176.164 254.09 177.238C254.09 178.41 257.02 182.219 261.414 186.516L268.641 193.742L270.106 190.324C272.742 184.074 274.012 183.488 284.754 184.269C293.934 184.855 294.422 184.953 299.11 188.762C301.942 190.91 303.797 193.156 303.504 193.937C303.211 194.621 302.527 196.867 302.039 198.918C301.453 200.969 299.5 204.191 297.645 205.949C295.106 208.391 294.031 210.441 293.543 213.664L292.86 217.961L288.953 217.473C285.731 216.984 284.461 217.375 282.117 219.328C280.555 220.598 278.504 221.672 277.527 221.672C276.551 221.672 273.914 223.234 271.668 225.09C269.422 226.945 266.981 228.508 266.199 228.508C261.902 228.508 255.75 231.926 250.867 237.004L245.594 242.57L240.613 240.422C237.488 239.055 233.68 238.273 230.262 238.273C227.332 238.273 223.719 237.785 222.254 237.297C218.934 236.027 217.371 237.785 219.422 240.812C220.594 242.668 220.496 242.961 216.395 244.914C213.953 246.086 210.731 247.062 209.168 247.062C207.606 247.062 206.043 247.551 205.652 248.137C205.36 248.723 204.09 248.918 202.918 248.625C201.844 248.332 198.524 248.332 195.692 248.723C189.149 249.406 183.777 253.898 183.777 258.488C183.777 260.637 183.192 261.711 181.336 262.492C179.285 263.469 178.895 264.25 178.895 267.863C178.895 271.379 179.481 272.648 182.313 275.383C184.168 277.238 185.731 279.191 185.731 279.68C185.731 280.266 186.61 281.828 187.586 283.098C188.856 284.758 189.246 286.125 188.66 287.492C187.293 291.203 186.512 303.508 187.586 304.191C188.172 304.484 188.66 305.656 188.66 306.73C188.66 307.707 189.344 308.586 190.125 308.586C192.274 308.586 193.934 312.297 192.567 313.957C191.785 314.934 191.785 315.812 192.469 317.277C193.934 319.914 194.031 319.816 189.637 321.184C186.512 322.16 185.438 323.039 183.875 326.555C182.215 330.461 181.727 330.852 177.527 331.437C173.328 332.121 172.645 332.609 169.715 337.199C167.957 340.031 165.516 344.133 164.442 346.281C163.074 348.918 161.414 350.676 159.559 351.359C157.117 352.141 156.727 352.727 157.117 354.875C157.899 358.879 245.594 455.07 248.524 455.07C249.11 455.07 252.039 454.582 255.067 453.898C259.754 452.922 261.219 453.019 264.637 454.387C267.371 455.461 270.106 455.754 273.524 455.363C276.16 455.07 280.457 455.363 283.094 455.949C287.684 457.121 287.781 457.121 289.93 454.387C291.688 452.238 292.371 451.945 293.348 452.922C295.008 454.582 301.551 454.387 304.676 452.434C306.141 451.555 308.68 449.504 310.34 448.039C312.977 445.598 314.051 445.207 318.152 445.5C322.254 445.793 322.938 446.086 323.231 447.941C323.621 450.578 323.524 450.48 326.942 449.211C329.188 448.332 329.969 448.527 331.922 450.285C333.094 451.555 334.168 453.41 334.168 454.582C334.168 457.316 340.516 463.371 345.594 465.324C351.063 467.473 352.625 471.086 350.379 476.555C349.5 478.703 348.817 482.414 348.817 484.758C348.817 487.102 348.231 490.52 347.449 492.277C346.668 494.133 345.789 501.164 345.399 508.293C344.813 519.23 344.422 521.477 342.469 524.504C341.199 526.457 339.539 529.582 338.758 531.437C337.684 533.977 336.512 535.051 333.485 535.93C328.699 537.395 327.82 538.469 327.039 543.254C326.453 546.867 326.649 547.062 329.969 548.43C333.192 549.797 333.582 549.797 335.633 547.844C337.781 545.793 337.977 545.793 340.516 547.453C342.078 548.527 346.375 549.504 351.16 549.992C366.785 551.652 368.445 551.945 369.031 553.312C369.324 554.094 370.887 554.68 372.938 554.68C375.477 554.68 378.699 556.145 385.047 560.246L393.641 565.715L391.199 568.645C389.246 570.988 385.926 577.238 385.926 578.703C385.926 578.898 386.61 579.094 387.391 579.094C388.563 579.094 388.66 579.484 387.879 580.949C384.754 586.809 388.27 594.816 394.715 596.477C398.035 597.258 398.133 597.453 398.426 602.434C398.719 606.73 399.305 608.195 401.551 610.539C403.113 612.102 404.969 615.129 405.555 617.277C406.531 620.5 407.313 621.281 410.242 622.062C416.492 623.82 416.883 624.602 412.586 626.848C408.289 628.996 406.434 632.512 406.434 638.371C406.434 641.105 405.848 641.984 403.406 643.352C396.375 647.16 394.715 649.309 394.715 654.094C394.715 658.195 394.324 658.977 391.395 661.32C389.539 662.883 387.391 664.055 386.61 664.055C385.926 664.055 384.266 665.129 382.996 666.496C381.238 668.352 379.676 668.937 376.551 668.937C371.863 668.937 371.277 669.816 371.277 676.262C371.277 679.387 371.961 681.242 373.719 683.391C375.867 685.93 376.063 686.613 375.086 689.348C374.5 691.105 374.207 693.645 374.5 695.207C375.379 699.406 373.426 705.949 370.203 710.051C368.543 712.102 366.981 715.422 366.688 717.473C366.395 719.523 365.32 722.551 364.246 724.309C363.074 726.262 362.488 728.996 362.586 731.633C362.684 734.758 361.805 737.785 359.168 743.156C356.824 747.941 355.652 751.75 355.652 754.387C355.652 756.535 354.481 766.301 353.016 776.066L350.379 793.84L353.016 797.551C354.481 799.699 355.652 802.531 355.652 803.898C355.652 805.266 356.336 806.633 357.02 806.926C360.438 808.293 365.418 824.309 365.418 833.977V839.348L372.547 844.914C376.942 848.527 380.555 850.578 382.117 850.578C386.61 850.578 388.074 853.508 389.149 864.348C389.93 872.941 389.832 874.797 388.465 877.629C387.098 880.461 387 881.926 387.879 886.711C388.758 891.691 388.66 892.766 387 895.598C385.926 897.453 384.852 901.359 384.461 904.387L383.777 909.855L391.688 910.344C396.082 910.637 399.891 911.125 400.184 911.418C400.574 911.809 399.695 914.348 398.328 917.18L395.692 922.355L399.11 925.676C402.235 928.801 402.625 928.996 404.871 927.727C408.973 925.578 414.539 928.703 419.324 935.832C421.473 939.055 424.11 941.887 425.086 942.082C426.16 942.375 426.942 943.156 426.942 943.937C426.942 945.891 432.801 952.141 434.656 952.141C435.535 952.141 436.805 952.629 437.488 953.312C438.172 953.996 440.125 954.973 441.785 955.461C444.129 956.242 445.106 957.219 445.301 958.977C445.496 960.344 447.352 963.176 449.305 965.324C451.356 967.473 453.992 970.598 455.164 972.355C456.922 974.895 458.875 975.969 467.762 978.801C473.524 980.754 481.238 982.512 484.949 982.805C494.617 983.586 500.086 986.516 502.82 992.375C505.36 997.746 508.973 999.992 514.832 999.992C520.399 999.992 525.281 997.648 527.332 994.035C531.336 986.613 530.555 986.906 544.129 988.566C558.094 990.227 559.949 989.836 561.609 984.367C563.172 978.996 562.879 975.676 560.34 970.402C558.777 967.277 558.387 965.52 559.168 965.324C559.754 965.129 562.879 964.445 566.102 963.859C574.109 962.297 576.356 960.734 576.356 956.73C576.356 954.582 577.137 952.824 578.602 951.457C579.774 950.383 581.238 948.723 581.824 947.746C582.801 945.988 582.996 945.988 586.317 947.551C588.27 948.43 590.516 949.211 591.297 949.211C592.078 949.211 594.227 949.797 596.082 950.578C598.231 951.555 599.891 951.652 600.867 951.066C601.551 950.578 603.309 950.187 604.676 950.187C606.727 950.187 607.41 950.871 608.094 953.312L609.07 956.535H617.274H625.379L627.332 951.652C628.406 948.918 629.578 944.816 629.969 942.375C630.652 937.59 631.043 937.492 638.367 938.957C640.711 939.445 641.785 939.055 643.641 937.102C645.399 935.246 647.059 934.562 649.695 934.562C652.137 934.562 654.285 933.781 656.141 932.219C661.512 927.824 662.977 927.434 669.52 928.703C672.742 929.387 676.746 930.559 678.309 931.34C681.336 932.902 685.535 932.512 691.59 930.07C694.715 928.801 695.399 928.02 696.082 924.504C696.766 921.184 697.645 920.109 700.379 918.742C704.871 916.496 705.945 914.836 706.727 908.977C707.41 903.996 709.852 900.383 712.586 900.383C713.367 900.383 714.93 899.113 716.102 897.551C719.52 892.863 722.645 892.082 728.699 894.426L733.973 896.477L738.953 893.059C743.934 889.641 752.625 886.906 755.457 887.98C756.336 888.371 757.703 890.422 758.582 892.57C760.731 897.844 763.953 899.406 772.742 899.406C778.016 899.406 780.262 899.797 781.629 901.066C783.289 902.531 786.609 903.41 797.449 904.973C800.77 905.461 801.649 905.168 803.309 903.02C804.969 900.969 806.727 900.383 813.172 899.602C819.813 898.723 821.766 898.723 826.16 900.187L831.434 901.75L836.902 898.918C840.027 897.258 842.664 895.891 842.859 895.793C843.738 895.207 840.613 892.57 839.149 892.57C837 892.57 830.262 888.957 827.234 886.125C825.086 884.074 823.817 883.781 817.371 883.781C810.731 883.781 809.852 883.586 809.266 881.828C808.875 880.754 805.652 876.652 801.942 872.648C795.203 865.324 794.813 864.543 793.738 858.195C793.25 855.461 792.078 853.898 788.758 851.359C784.754 848.332 784.461 847.844 784.363 843.547C784.363 839.445 784.07 838.859 781.043 837.102C778.602 835.637 777.625 834.27 777.234 831.926C776.453 826.359 773.914 820.988 771.277 818.84C769.91 817.766 768.738 816.008 768.738 815.031C768.738 814.055 767.371 812.004 765.711 810.441C763.27 808.195 762.781 807.023 763.074 804.68C763.465 802.141 763.074 801.457 760.242 799.797C758.289 798.625 757.02 797.16 757.02 795.891C757.02 794.816 756.141 793.449 755.067 792.766C753.895 791.984 753.113 790.422 753.113 788.859C753.113 787.102 752.332 785.637 750.77 784.562C749.402 783.781 748.231 782.121 748.035 780.949C747.84 779.484 746.961 778.703 745.301 778.508C741.883 778.02 739.93 775.969 738.465 771.477C737.293 767.961 737.391 767.375 738.953 765.617C740.711 763.664 740.711 763.566 738.465 761.223C736.512 759.172 736.317 758.195 736.805 753.312C737.391 747.551 736.317 745.012 728.602 733.781C726.16 730.168 725.867 728.996 725.77 720.598C725.672 715.52 725.867 710.637 726.258 709.66C726.746 708.586 726.356 707.219 725.574 706.242C724.695 705.363 723.817 703.312 723.426 701.75C722.84 699.309 722.449 699.113 720.106 699.699C716.688 700.578 713.27 700.578 709.754 699.699C707.215 699.016 706.922 699.113 707.41 700.969C707.899 702.824 707.313 703.312 702.723 704.777C698.231 706.145 696.961 706.242 693.348 705.07C691.004 704.387 685.828 703.508 681.824 703.215L674.5 702.629L674.695 697.746C675.281 684.855 675.086 683.586 672.352 680.168C670.887 678.312 668.445 676.359 666.981 675.871C665.32 675.285 664.246 674.211 664.246 673.137C664.246 670.305 659.168 665.52 654.09 663.566C649.305 661.711 646.668 658.391 646.668 653.996C646.668 649.309 642.469 639.152 638.856 635.148C636.805 632.902 634.852 630.266 634.559 629.191C634.266 628.117 630.652 625.187 626.746 622.551C620.399 618.449 619.324 617.375 618.543 613.859C616.688 606.437 615.223 594.523 615.906 592.082C616.199 590.812 618.543 587.785 621.18 585.344C623.719 583 627.039 578.801 628.602 576.066C630.945 571.672 631.238 570.402 630.75 564.641C630.359 558.781 630.652 557.609 633.094 553.41C634.656 550.871 635.926 548.527 635.926 548.332C635.926 548.039 638.367 542.473 641.297 536.027C644.227 529.582 646.668 523.918 646.668 523.527C646.668 523.137 645.106 520.988 643.25 518.84C641.395 516.594 639.832 514.152 639.832 513.469C639.832 512.687 638.27 510.246 636.414 508.098C631.922 502.824 632.02 500.48 637 496.281C639.149 494.426 642.078 491.105 643.445 488.957L645.887 485.051L651.453 485.637L657.02 486.125L658.973 482.512C661.219 478.215 666.492 475.383 670.594 476.164C673.426 476.75 675.672 476.75 684.266 476.555C686.414 476.555 689.539 476.555 691.102 476.555C692.762 476.652 697.742 476.164 702.332 475.676C706.922 475.09 713.465 474.309 716.981 474.016L723.426 473.43L719.813 469.816L716.199 466.301L718.348 459.66C720.399 453.019 722.742 450.676 725.086 453.019C725.672 453.605 727.82 454.094 729.774 454.094C733.484 454.094 734.559 452.922 734.559 449.016C734.559 446.965 728.211 437.492 726.746 437.492C724.891 437.492 723.817 440.227 724.793 442.766C725.477 444.719 725.379 445.305 724.402 445.305C722.156 445.305 720.984 443.059 720.692 437.98C720.399 433.781 720.106 433.098 718.152 432.805C716.395 432.512 716.102 432.023 716.59 429.875C716.981 428.41 718.641 425.676 720.399 423.82C722.645 421.379 723.719 419.133 724.109 415.812C724.5 413.273 726.063 409.074 727.82 406.144C734.266 395.695 735.535 391.301 735.535 378.117C735.535 366.789 735.633 365.91 737.977 362.883C740.223 359.953 740.516 358.586 740.613 350.48C740.711 342.57 740.32 339.934 737.586 331.535C732.996 317.668 730.945 314.543 721.766 307.902C717.469 304.777 712.488 301.555 710.828 300.676C695.594 292.961 691.395 291.203 689.637 291.691C688.563 291.984 687.684 293.059 687.684 294.035C687.684 296.574 687.195 296.379 683.289 292.18C681.434 290.227 678.797 285.637 677.43 282.121C674.988 275.871 674.695 275.48 666.199 270.012C661.024 266.594 656.434 262.785 654.774 260.539C651.453 255.656 645.008 249.992 639.637 247.062C637.098 245.793 633.973 242.766 631.824 239.738C629.774 236.809 626.063 232.805 623.524 230.754L619.031 227.043H608.192H597.352L589.637 222.355C582.801 218.254 581.336 217.766 576.16 217.766C565.027 217.766 553.309 225.871 549.988 235.93C549.402 237.785 548.524 239.25 548.035 239.25C547.547 239.25 545.496 242.18 543.445 245.793C540.027 251.848 539.735 253.117 539.637 260.246C539.442 272.844 538.465 277.824 535.633 280.461C533.289 282.512 533.192 282.512 533.875 280.754C534.363 279.68 535.047 269.23 535.438 257.414C536.121 240.812 536.707 234.465 538.27 228.996C539.344 225.187 540.223 220.695 540.223 219.035C540.223 217.375 540.906 215.422 541.785 214.738C543.738 213.176 552.332 200.48 553.309 197.746C553.699 196.672 553.699 186.516 553.309 175.285L552.625 154.777L549.207 151.848C539.149 143.254 534.754 138.566 531.141 132.316C526.063 123.625 518.738 116.105 516.004 116.887C514.539 117.277 513.367 116.301 510.828 112.59C504.578 103.508 497.645 96.2812 490.711 91.789C486.805 89.3476 481.922 85.0507 479.774 82.414C477.625 79.6796 474.012 76.164 471.668 74.6992C469.324 73.1367 465.516 69.8163 463.074 67.2773C459.949 63.957 456.043 61.3203 449.402 58.1953C444.324 55.7538 436.805 51.3593 432.801 48.332C428.895 45.3046 419.227 39.6406 411.414 35.7343C403.504 31.8281 391.59 25.6757 384.852 22.1601C371.375 14.9335 368.348 14.2499 368.348 17.9609C368.348 19.3281 369.031 21.0859 369.91 21.8671C371.18 23.2343 371.18 23.4296 369.91 23.4296C367.274 23.4296 361.219 19.1328 356.141 13.7617C341.688 -1.66803 342.762 -0.789124 340.125 0.871033Z" fill="black"/>
<circle cx="616" cy="232" fill="#5CE50D"/>
<circle cx="586" cy="445" fill="#E52A0D"/>
<circle cx="358" cy="136" fill="#E52A0D"/>
<circle cx="470" cy="828" fill="#E52A0D"/>
</svg>
