<svg width="1000" height="1000" viewBox="0 0 1000 1000" fill="none" xmlns="http://www.w3.org/2000/svg">
<rect width="1000" height="1000" />
<path d="M562.531 208.717C562.531 209.596 561.848 209.889 560.676 209.596C558.82 209.107 558.234 209.693 552.766 218.092C548.762 224.244 549.152 224.83 554.23 220.142C556.574 217.994 559.211 216.139 559.992 216.139C560.773 216.139 562.043 215.26 562.824 214.185C563.508 213.209 565.168 211.842 566.535 211.353L568.879 210.377L566.73 209.693C565.461 209.4 564.484 208.717 564.484 208.228C564.484 207.74 564.094 207.349 563.508 207.349C563.019 207.349 562.531 207.935 562.531 208.717Z" fill="black"/>
<path d="M516.437 219.753C517.121 220.046 518 219.948 518.293 219.655C518.684 219.362 518.098 219.069 517.023 219.167C515.949 219.167 515.656 219.46 516.437 219.753Z" fill="black"/>
<path d="M487.336 222.979C482.453 223.467 477.57 225.127 465.949 230.498C448.859 238.311 444.367 241.338 444.367 245.147C444.367 247.686 444.465 247.588 448.078 243.682C450.324 241.241 452.766 239.58 454.035 239.58C455.207 239.58 461.945 236.748 469.074 233.233C476.203 229.717 482.844 226.885 483.918 226.885C484.992 226.885 488.117 225.811 490.754 224.541C493.488 223.174 495.246 222.198 494.66 222.198C494.172 222.295 490.852 222.588 487.336 222.979Z" fill="black"/>
<path d="M397.492 272.683C396.711 273.171 394.074 273.757 391.633 274.147C387.141 274.831 382.844 276.979 382.844 278.542C382.844 280.007 387.824 280.69 391.047 279.616C392.707 279.128 395.344 277.272 396.906 275.71C399.738 272.585 400.031 271.413 397.492 272.683Z" fill="black"/>
<path d="M541.535 290.359C542.61 290.848 545.051 291.141 546.907 291.141C550.032 291.141 550.129 291.043 547.883 290.359C546.516 289.969 544.172 289.578 542.512 289.578C540.071 289.48 539.875 289.676 541.535 290.359Z" fill="black"/>
<path d="M554.426 294.072C556.184 297.099 556.184 297.099 558.039 295.244C560.285 292.998 559.992 292.51 555.793 291.728L552.668 291.045L554.426 294.072Z" fill="black"/>
<path d="M569.27 297.683C568.488 299.245 566.73 301.296 565.266 302.37C563.02 304.03 562.238 304.128 559.797 303.151C557.16 302.077 556.184 302.273 549.738 305.593C542.707 309.206 542.219 309.304 528.84 309.89C511.359 310.671 508.234 311.745 500.129 319.167C493.391 325.319 481.867 331.179 478.742 329.909C477.961 329.616 476.691 329.909 476.008 330.495C475.031 331.276 472.883 330.69 466.926 327.956C460.09 324.733 458.82 324.44 455.988 325.417C454.133 325.905 450.227 326.687 447.297 326.98C444.367 327.273 438.801 328.054 434.895 328.64C429.719 329.421 426.398 329.421 421.711 328.542C415.852 327.37 415.266 327.468 410.285 329.812C407.355 331.081 401.984 332.741 398.469 333.425C392.609 334.401 390.754 334.304 382.746 332.546C377.668 331.472 368.781 329.812 362.824 328.933C351.105 327.175 339.68 324.733 328.059 321.511L320.734 319.46L316.926 321.999C314.875 323.366 312.824 324.538 312.336 324.538C311.848 324.538 309.992 325.612 308.234 326.98C303.742 330.398 300.715 330.007 291.145 324.831C282.551 320.144 282.258 320.437 288.898 327.565L292.219 331.081L289.387 331.667C287.922 331.96 286.164 331.765 285.48 331.179C284.699 330.593 283.625 330.593 282.355 331.276C278.059 333.62 277.082 332.741 277.57 327.273C277.961 323.366 278.645 321.706 280.695 319.948L283.332 317.702L280.988 314.87C278.84 312.233 278.449 312.136 277.082 313.503C275.715 314.968 274.934 314.675 269.172 310.964L262.727 306.765L259.699 309.304C256.281 312.136 256.086 312.233 252.375 310.866C248.859 309.499 240.168 311.452 235.578 314.577C233.43 316.042 231.086 316.726 229.23 316.53C225.715 316.14 224.641 318.093 227.473 319.655C230.793 321.413 230.012 324.44 225.91 326.101C223.859 326.882 221.418 327.956 220.539 328.444C219.562 329.03 217.219 329.421 215.363 329.421C212.629 329.421 211.945 329.812 211.945 331.276C211.945 332.448 210.188 334.304 207.258 336.257C204.426 338.015 201.789 340.749 200.91 342.702C198.176 348.464 194.758 348.366 187.238 342.507C182.355 338.698 181.574 338.698 179.328 343.288C178.742 344.46 177.277 345.632 176.105 345.827C174.934 346.023 173.469 346.804 172.883 347.585C172.199 348.366 170.637 348.952 169.27 348.952C167.902 348.952 166.73 349.636 166.438 350.612C164.777 356.081 161.848 359.694 153.84 366.042C149.055 369.948 141.438 376.491 137.043 380.495C132.648 384.597 127.082 388.894 124.836 390.065C122.492 391.237 116.926 395.73 112.336 400.222C105.695 406.667 102.082 409.304 94.2695 413.21C86.8477 416.921 82.2578 420.144 75.2266 426.589C65.6562 435.28 60.3828 438.503 48.0781 443.191C37.2383 447.194 32.1602 451.101 30.6953 456.374C29.6211 460.085 29.6211 460.964 30.793 462.233C31.5742 463.112 32.2578 464.675 32.2578 465.554C32.2578 468.483 27.375 476.589 24.8359 477.761C21.6133 479.226 21.6133 484.206 24.9336 488.698C30.0117 495.73 31.1836 497.878 31.7695 501.491C32.2578 504.226 33.1367 505.593 34.7969 506.374C37.5312 507.644 37.6289 508.425 35.7734 513.698C34.9922 516.042 34.6016 519.362 34.8945 522.097C35.2852 525.417 34.9922 527.37 33.7227 529.226C32.1602 531.569 31.7695 531.667 26.4961 531.081L20.832 530.398L13.2148 538.796C9.11328 543.386 5.10938 547.194 4.52344 547.194C3.83984 547.194 2.57031 548.757 1.69141 550.612L0.128906 553.933L3.54688 556.569C6.18359 558.62 8.52734 559.304 14.2891 559.89C21.2227 560.573 21.9062 560.866 25.8125 564.675C28.0586 566.823 30.5 568.679 31.2812 568.679C32.0625 568.679 33.7227 567.214 34.9922 565.359C36.2617 563.503 38.5078 561.452 40.168 560.866C43.6836 559.401 45.4414 560.573 47.9805 566.335C48.8594 568.581 50.2266 570.73 50.8125 571.12C51.3984 571.511 52.7656 573.659 53.8398 575.905C56.1836 580.886 62.8242 589.382 65.168 590.359C66.1445 590.651 68.293 591.042 69.9531 591.042C73.3711 591.14 79.5234 596.413 82.2578 601.687C84.4062 605.691 90.6562 608.62 96.8086 608.718C101.301 608.718 101.301 608.718 101.984 612.624C102.375 614.87 103.84 617.898 105.598 619.948C108.527 623.269 108.918 623.366 113.312 622.78C118.098 622.194 122.395 623.562 124.934 626.687C125.715 627.663 127.766 628.249 130.109 628.249C134.113 628.249 139.68 630.593 139.68 632.253C139.68 632.839 139.191 634.206 138.605 635.28C137.727 636.843 137.824 638.698 138.605 642.507C140.363 650.124 141.633 650.71 148.469 646.999C155.109 643.288 156.867 643.191 159.797 645.925L162.043 647.976L170.148 643.386C180.402 637.526 181.477 636.55 182.258 632.448C182.551 630.691 183.625 628.835 184.504 628.347C185.383 627.956 191.145 627.761 197.395 628.054L208.82 628.444L213.508 636.941C216.047 641.53 218.293 645.534 218.391 645.73C218.586 645.925 219.953 645.339 221.418 644.362C224.934 642.019 235.09 641.433 241.242 643.288C245.344 644.46 246.223 644.46 247.98 643.288C250.617 641.335 252.961 642.702 256.77 648.073C258.332 650.417 261.262 653.542 263.117 655.007C265.07 656.472 266.633 658.23 266.633 659.011C266.633 659.792 264.875 664.48 262.727 669.362C259.699 676.394 258.82 679.616 258.82 683.913C258.82 688.21 258.332 690.066 256.379 692.702C254.523 695.241 253.938 697.194 253.938 701.198C253.938 706.179 254.035 706.374 256.672 706.374C260.578 706.374 263.508 708.816 264.289 712.722C265.07 717.116 264.094 718.288 256.281 721.901C250.227 724.733 248.859 726.882 252.961 726.882C253.938 726.882 256.184 728.151 257.941 729.812C261.066 732.546 261.164 732.644 262.434 730.788C263.215 729.714 264.777 728.835 266.047 728.835C270.051 728.835 275.129 722.78 273.469 720.046C271.906 717.605 272.395 716.237 275.52 714.675C279.328 712.722 279.914 713.308 278.645 717.605C277.668 720.534 277.863 721.12 279.621 722.292C281.379 723.464 281.574 724.05 280.695 726.98C280.109 728.835 279.133 730.202 278.449 730.007C276.496 729.616 274.445 731.765 274.445 734.304C274.445 739.089 282.746 741.433 285.383 737.331C286.262 736.159 289.191 734.304 292.121 733.327C300.812 730.3 308.234 726.198 310.383 723.269C312.043 721.023 312.531 720.827 313.898 721.901C315.949 723.659 315.852 724.636 313.605 725.417C312.531 725.71 311.555 727.273 311.164 728.933C310.773 730.788 309.895 732.155 308.625 732.448C307.648 732.741 306.477 733.816 306.184 734.792C305.793 735.866 303.84 738.015 301.691 739.773C299.641 741.433 297.883 743.191 297.883 743.679C297.883 744.265 299.445 746.511 301.203 748.757C305.207 753.542 309.504 762.429 309.699 765.944C309.797 770.046 310.871 771.316 314.387 771.511C318.391 771.706 320.832 773.952 320.832 777.37C320.832 779.323 322.004 780.886 325.715 783.718C329.523 786.55 330.598 788.015 330.598 790.066C330.598 792.409 330.988 792.8 333.039 792.605C334.406 792.409 339.484 791.921 344.27 791.335C355.988 790.066 363.312 790.066 368.684 791.53C372.492 792.605 373.176 792.507 374.25 791.042C374.934 790.163 377.277 788.796 379.426 788.112C381.867 787.233 384.699 785.085 387.238 782.155L391.145 777.468L391.242 767.116C391.34 761.257 391.926 754.812 392.707 752.37C394.367 747.097 399.445 741.921 404.328 740.456C407.551 739.48 408.43 739.675 413.508 742.507C418.488 745.339 419.27 745.534 421.906 744.46C426.691 742.507 427.277 741.14 425.812 735.183C425.129 732.253 424.25 729.812 423.859 729.812C423.566 729.812 422.492 729.226 421.516 728.542C419.855 727.37 419.855 727.077 421.516 723.757C423.078 720.339 423.078 719.655 421.516 710.085C420.539 704.226 418.977 698.952 417.902 697.39C416.242 694.948 416.242 694.46 417.512 690.651C419.465 685.28 419.465 685.378 416.047 683.23L413.117 681.374L415.07 677.761C416.34 675.417 417.023 672.292 417.023 668.776C417.023 664.284 417.316 663.308 419.27 662.234C420.441 661.55 428.254 660.476 436.555 659.89L451.691 658.62L456.281 661.159C460.383 663.405 461.164 663.503 463.898 662.429C466.535 661.355 467.316 661.452 470.246 663.015C473.078 664.48 474.152 664.577 476.594 663.698C478.84 662.819 479.719 662.917 480.598 663.991C481.184 664.773 482.453 665.358 483.43 665.358C486.457 665.358 490.559 659.011 490.461 654.421C490.461 652.663 491.242 651.101 492.805 649.831C497.199 646.413 509.797 631.862 509.797 630.202C509.797 629.323 511.164 628.151 513.117 627.468C516.242 626.296 516.438 626.003 515.949 622.487L515.461 618.776L523.859 615.651C532.844 612.429 538.801 611.745 539.68 613.894C539.875 614.577 539.484 616.921 538.703 619.167C537.336 622.976 537.434 623.366 539.582 626.394C540.754 628.249 543.879 631.472 546.516 633.62C555.109 640.651 554.523 640.359 557.062 639.089C558.234 638.405 560.578 638.015 562.141 638.21C564.289 638.405 565.07 639.089 565.266 640.944C565.461 642.312 566.047 644.851 566.535 646.609C567.609 649.929 568.195 650.124 576.496 651.101C580.207 651.589 581.086 651.394 581.086 650.124C581.086 649.245 580.207 647.878 579.035 646.901C577.082 645.339 576.984 644.851 578.059 638.015C578.742 634.011 579.328 630.788 579.426 630.691C579.523 630.691 582.16 629.812 585.285 628.737C588.41 627.761 591.828 625.905 592.805 624.636C593.781 623.366 594.953 622.39 595.441 622.487C598.566 623.073 601.203 621.901 605.109 618.288C609.113 614.577 609.602 614.382 610.676 616.042C612.531 618.484 615.461 617.507 617.316 613.894C618.195 612.136 619.172 610.964 619.562 611.355C619.855 611.648 621.906 610.573 624.055 608.816C627.277 606.276 628.352 605.886 629.426 606.765C631.867 608.816 636.457 605.007 635.871 601.589C635.773 601.101 636.652 599.538 637.727 598.073C638.996 596.218 639.582 593.972 639.387 591.53C639.191 588.015 639.387 587.722 641.73 587.722C643.293 587.722 645.344 586.648 646.711 585.183C649.055 582.741 649.641 582.546 657.355 582.839C661.848 582.937 666.73 583.327 668.293 583.718C670.637 584.401 671.125 584.206 672.395 581.081C673.664 577.956 673.664 577.273 672.102 574.636C671.223 572.976 669.855 571.609 669.27 571.609C668.586 571.609 668 570.73 668 569.753C668 568.679 667.023 567.116 665.852 566.335L663.801 564.87L668.488 555.788C671.125 550.808 674.25 544.655 675.52 542.214C677.57 538.405 677.766 537.038 676.984 534.206C675.324 528.249 679.719 526.491 683.918 531.472C686.262 534.304 686.262 534.304 689.191 532.644C692.219 530.788 696.027 525.71 694.367 525.71C693.879 525.71 693.391 525.026 693.391 524.245C693.391 523.464 693.879 522.78 694.367 522.78C695.93 522.78 695.441 520.632 693.391 518.386C690.949 515.749 691.73 512.624 694.562 513.308C696.223 513.796 696.418 513.503 695.93 511.55C695.441 509.597 696.32 508.523 701.691 504.323C705.109 501.589 708.625 499.343 709.406 499.343C710.285 499.343 712.043 497.292 713.508 494.851C715.754 491.042 716.535 490.456 718.684 490.847C720.051 491.14 722.785 490.749 724.641 489.968C729.426 487.917 732.062 488.894 737.336 494.655C741.145 498.757 741.828 500.026 740.949 501.394C740.168 502.663 740.852 504.226 744.758 509.108C747.297 512.429 749.641 514.675 749.836 514.089C750.324 512.526 756.672 512.819 761.555 514.48C763.898 515.358 768.488 516.237 771.711 516.628C776.691 517.116 777.473 517.507 777.082 518.972C776.301 521.804 784.113 523.952 787.922 521.901C788.801 521.316 790.656 520.73 792.023 520.437C793.586 520.046 796.027 517.702 798.664 514.089C801.984 509.499 803.156 508.425 804.816 508.816C806.281 509.206 806.672 509.89 806.281 511.355C805.891 513.112 806.184 513.21 809.699 512.624C813.02 512.038 813.508 512.233 813.508 513.991C813.508 515.358 814.191 515.944 815.852 515.944C819.66 515.944 820.539 513.894 818.879 509.011L817.316 504.812L820.441 501.784C823.273 499.05 823.469 498.952 824.543 500.71C829.133 507.937 830.988 508.523 838.996 505.105C843.781 503.054 844.66 501.98 842.805 500.808C840.852 499.636 841.926 497.683 845.246 496.12L848.664 494.46V497.487C848.664 499.831 849.055 500.417 850.129 499.929C850.91 499.636 852.277 499.05 853.059 498.757C853.938 498.366 854.523 498.757 854.523 499.636C854.523 500.808 855.402 501.003 858.332 500.612C860.48 500.319 862.336 500.515 862.727 501.101C863.215 501.882 863.996 501.882 865.656 501.198C867.316 500.417 868.488 500.417 869.953 501.198C871.613 502.077 872.004 501.882 872.59 499.538C873.664 495.241 877.668 493.972 880.988 496.999C882.648 498.464 883.137 498.464 887.141 496.804C890.461 495.437 891.438 494.558 891.047 493.288C890.656 491.921 891.242 491.628 894.465 491.726C897.297 491.726 899.25 491.042 901.398 489.187C903.156 487.819 905.012 486.648 905.695 486.648C906.379 486.648 907.355 485.671 907.941 484.401C909.211 481.667 917.121 479.226 919.953 480.788C921.516 481.569 921.906 481.472 921.906 480.3C921.906 479.519 923.664 477.663 925.812 476.296C930.5 473.171 934.992 467.507 934.211 465.554C933.82 464.675 934.504 463.796 936.066 463.21C937.434 462.722 938.508 461.648 938.508 460.769C938.508 459.987 939.68 459.011 941.145 458.718C943.195 458.132 944.172 458.523 945.832 460.671L947.98 463.405L952.082 461.355C955.109 459.792 956.086 458.718 956.086 456.862C956.086 453.835 956.379 453.835 960.676 457.058C963.117 458.913 964.387 459.401 964.68 458.523C965.461 456.081 977.375 458.718 976.789 461.257C976.594 461.941 977.277 462.136 978.449 461.745C980.5 461.159 992.902 460.866 997.102 461.452C998.664 461.648 999.543 461.257 999.836 460.183C1000.03 459.011 999.445 458.718 997.297 459.108C992.609 459.792 974.641 450.612 974.641 447.487C974.641 446.218 961.945 423.269 960.969 422.683C960.578 422.39 959.895 423.757 959.602 425.612C959.113 427.956 958.527 428.835 957.551 428.347C955.793 427.761 955.598 422.097 957.258 420.437C959.016 418.679 957.746 418.093 944.855 413.796C933.332 409.89 924.445 405.983 913.508 399.831C908.332 396.999 906.184 396.316 905.402 397.097C903.742 398.757 904.133 400.71 906.281 400.71C907.258 400.71 909.699 402.077 911.555 403.737C913.508 405.398 915.461 406.472 916.047 406.081C916.633 405.691 917.805 405.983 918.586 406.667C919.465 407.351 921.711 407.839 923.664 407.741C926.008 407.644 928.645 408.327 931.086 409.89L934.992 412.233L931.867 412.917C930.207 413.21 926.496 413.405 923.762 413.308C919.367 413.015 918.586 413.308 917.902 415.066C917.512 416.237 915.168 418.288 912.727 419.753C908.039 422.487 907.551 423.073 909.211 424.733C909.992 425.515 909.113 426.589 906.379 428.444C902.668 431.081 902.473 431.081 900.031 429.519C897.102 427.566 896.027 424.441 896.809 419.655C897.59 414.675 895.734 414.48 886.848 418.679C875.715 423.855 873.273 424.148 868.781 420.241C866.828 418.483 864.973 416.042 864.68 414.773C864.191 412.917 863.312 412.526 860.09 412.233C856.965 412.038 855.988 411.55 856.086 410.28C856.184 409.206 854.914 408.327 851.887 407.644C845.637 405.983 839.875 400.417 839.191 395.144C838.703 391.433 838.898 390.944 841.242 389.87C844.172 388.503 844.367 387.331 842.219 384.206C840.852 382.351 840.852 381.765 841.926 381.179C842.902 380.495 843 379.812 841.926 377.663C841.047 375.71 840.461 375.319 839.973 376.198C839.484 376.98 838.312 377.273 837.043 376.784C835.285 376.296 834.992 376.589 834.992 378.64C834.992 380.495 834.504 381.179 833.137 381.179C831.965 381.179 831.086 382.058 830.695 383.62C829.914 386.745 828.156 385.866 828.156 382.351C828.059 380.886 826.789 378.249 825.227 376.296C821.418 371.901 821.32 369.948 825.031 370.925C826.496 371.315 829.328 371.608 831.379 371.511C833.527 371.511 835.969 371.901 837.043 372.39C838.41 373.171 839.289 372.976 841.047 371.218L843.195 369.069L840.461 368.386C838.898 367.995 836.848 366.823 835.773 365.944C833.918 364.187 833.918 364.187 835.871 363.405C838.508 362.429 838.605 357.937 835.969 353.151C834.895 351.101 834.016 348.073 834.016 346.413C834.016 343.776 832.844 342.312 826.496 336.55C810.969 322.878 812.141 323.562 805.402 323.562C799.348 323.562 784.895 322.097 780.891 321.12C779.816 320.925 779.426 320.925 780.109 321.218C781.965 322.097 781.477 323.757 778.352 327.175C776.398 329.323 774.25 330.593 771.711 330.983C768.391 331.472 767.805 331.276 766.242 328.933L764.484 326.198L762.043 329.323C759.211 332.839 758.527 333.034 755.891 330.398C753.742 328.249 753.156 320.925 754.914 317.702C756.086 315.456 755.793 315.261 748.273 313.698L742.219 312.429L738.996 315.944C733.43 322.097 726.984 322.194 724.25 316.237C722.688 312.917 722.688 312.722 724.641 310.183L726.691 307.546L724.445 306.374C723.176 305.788 717.023 303.249 710.773 300.71C694.074 294.167 687.824 294.753 679.719 303.542C674.055 309.694 664.68 312.526 647.004 313.405C640.07 313.796 632.844 314.675 630.988 315.358C624.055 318.19 618 316.53 597.883 306.276C590.168 302.37 583.43 299.44 582.941 299.733C582.453 300.026 581.281 299.343 580.305 298.269C579.328 297.097 576.887 296.023 574.641 295.632C570.832 295.046 570.441 295.241 569.27 297.683Z" fill="black"/>
<path d="M837.922 349.147C837.922 352.955 838.703 353.639 840.461 351.881C841.828 350.514 846.125 353.932 847.687 357.643C849.152 361.256 848.371 364.87 845.539 367.506C844.367 368.58 843.879 369.459 844.465 369.459C846.809 369.459 848.664 372.389 847.687 374.342C846.906 375.807 847.102 376.295 848.762 376.784C851.008 377.565 852.57 376.1 852.57 373.073C852.57 370.924 852.57 370.924 859.309 374.245C863.02 376.198 865.363 376.784 865.949 376.198C866.828 375.319 874.25 382.252 875.129 384.889C875.422 385.67 876.398 385.768 878.156 385.28C880.598 384.596 880.305 384.303 870.441 375.807C864.777 370.924 855.109 362.135 849.055 356.276L837.922 345.534V349.147Z" fill="black"/>
<path d="M898.371 395.142C899.836 396.997 902.863 397.388 903.84 395.826C904.133 395.24 903.84 394.849 903.156 394.849C902.473 394.849 900.813 394.556 899.445 394.165C897.297 393.579 897.102 393.677 898.371 395.142Z" fill="black"/>
<path d="M858.43 397.779C856.379 399.83 856.184 400.709 856.965 402.857C857.355 403.736 858.625 404.127 860.773 403.834C862.629 403.638 865.07 404.029 866.34 404.712C867.609 405.396 871.027 405.982 873.859 406.08C879.328 406.275 881.184 407.154 879.035 408.521C877.961 409.107 878.84 410.084 882.355 412.33C887.629 415.65 888.898 415.943 890.559 414.087C891.34 413.013 888.898 410.962 879.035 404.224C872.102 399.439 865.949 395.923 865.363 396.216C864.777 396.607 864.289 397.779 864.289 398.853C864.289 399.83 863.703 400.709 862.922 400.709C860.773 400.709 859.992 398.853 861.359 397.291C863.215 395.045 860.773 395.435 858.43 397.779Z" fill="black"/>
<path d="M274.152 743.192C273.762 743.485 273.469 745.047 273.469 746.512C273.469 749.149 273.664 749.246 276.691 748.66C280.793 747.879 280.793 747.879 279.523 744.949C278.449 742.703 275.617 741.727 274.152 743.192Z" fill="black"/>
<circle cx="348" cy="629" fill="#5CE50D"/>
<circle cx="215" cy="406" fill="#E52A0D"/>
<circle cx="444" cy="336" fill="#E52A0D"/>
<circle cx="766" cy="416" fill="#E52A0D"/>
</svg>
