<svg width="1000" height="1000" viewBox="0 0 1000 1000" fill="none" xmlns="http://www.w3.org/2000/svg">
<rect width="1000" height="1000" />
<path d="M485.849 71.1883C484.189 74.8992 482.041 77.4383 477.646 80.7586C472.373 84.8602 471.591 85.9344 470.127 91.0125C469.248 94.0399 468.369 97.1649 468.173 97.7508C467.88 98.6297 465.439 99.0203 460.556 99.0203C453.916 99.0203 453.232 98.825 450.693 96.1883L447.959 93.3563L443.662 95.6024C441.318 96.8719 437.607 98.1414 435.459 98.532C432.334 99.0203 431.162 99.8016 430.283 101.755C429.697 103.22 427.255 106.54 424.912 109.274L420.615 114.157L403.916 118.552L387.216 123.044L386.142 127.829C385.068 133.2 382.919 134.567 379.794 131.735C378.232 130.368 376.767 130.173 371.298 130.661C367.685 131.052 363.193 131.345 361.435 131.247C358.603 131.247 358.017 131.735 356.455 135.251C354.99 138.473 354.794 139.938 355.576 142.184C356.259 144.138 356.259 145.309 355.478 146.286C354.697 147.263 354.599 147.848 355.38 148.337C355.869 148.63 356.357 150.388 356.357 152.048C356.357 156.735 358.212 158.688 367.002 162.888C371.298 165.036 375.107 167.575 375.4 168.454C375.693 169.43 375.107 171.872 374.033 173.923C372.47 177.145 372.177 179.001 372.666 185.837L373.252 193.845L370.029 197.165C366.806 200.485 366.123 203.024 367.392 207.614C367.978 209.763 367.587 210.544 365.048 212.399L361.923 214.548L355.771 211.325C350.4 208.395 349.521 208.2 347.959 209.372C347.08 210.153 345.517 210.739 344.443 210.544C343.466 210.348 342.685 210.837 342.685 211.52C342.685 212.204 341.806 213.376 340.83 213.962C339.365 214.841 338.584 214.841 337.216 213.766C334.677 211.911 331.943 214.45 331.943 218.747V221.872L324.912 223.044C319.931 223.923 314.658 225.876 307.334 229.489C301.669 232.321 296.689 235.153 296.298 235.739C295.517 237.009 298.349 241.598 299.912 241.598C300.498 241.598 301.865 242.282 302.841 243.161C304.502 244.723 304.794 244.626 308.603 242.184C313.095 239.157 315.341 239.938 315.341 244.235C315.341 246.286 315.634 246.481 316.709 245.602C318.466 244.138 321.591 248.63 320.615 251.559C320.127 253.22 319.443 253.513 316.22 253.024C314.169 252.731 312.412 252.927 312.412 253.415C312.412 253.903 310.947 254.294 309.091 254.294C306.259 254.294 305.771 254.684 305.283 257.126C304.892 258.884 303.916 260.055 302.548 260.446L300.498 261.032L302.451 263.473C303.525 264.841 305.185 269.138 306.064 272.848C307.724 279.782 307.724 279.782 313.095 282.516L318.564 285.251L313.974 288.962L309.384 292.673L304.404 291.11L299.521 289.548L294.834 293.942C291.806 296.774 289.658 298.044 288.584 297.653C287.802 297.36 285.752 297.555 284.189 298.044C281.65 298.923 281.064 298.727 278.134 295.7C276.377 293.942 273.447 291.891 271.689 291.305C269.931 290.72 268.466 289.645 268.466 288.864C268.466 287.106 263.388 284.567 260.947 285.153C259.873 285.446 258.505 285.055 257.822 284.177C257.041 283.298 255.185 282.614 253.525 282.614C251.865 282.614 249.13 281.54 247.373 280.173C242.197 276.169 239.853 277.243 238.388 284.079C237.705 287.497 237.216 288.083 233.798 289.059C224.13 291.794 224.716 291.891 222.47 287.204C220.81 283.786 219.052 282.126 214.169 279.294C210.752 277.341 206.65 275.778 204.99 275.778C201.962 275.778 201.377 274.509 202.939 271.97C204.209 270.016 201.377 266.013 197.666 264.548C195.127 263.473 194.443 262.302 192.88 256.735C191.416 251.657 190.537 249.997 188.681 249.313C184.091 247.555 182.822 248.239 180.673 253.317C179.013 257.126 177.451 258.884 173.935 261.13C169.541 263.766 169.248 264.255 169.638 267.38C169.834 269.235 169.541 272.263 168.857 274.216C167.392 278.61 164.755 279.489 137.216 284.567C113.877 288.766 109.384 288.864 99.2281 285.446C96.1031 284.274 92.8804 283.688 92.0992 283.981C91.3179 284.274 89.9507 286.032 89.0718 287.985C87.5093 291.208 87.1187 291.403 82.9195 291.403C79.7945 291.403 77.4507 292.087 74.9117 293.845C72.9585 295.212 70.8101 296.286 70.3218 296.286C69.7359 296.286 67.3921 295.016 65.146 293.454C61.6304 291.013 59.482 290.427 52.3531 289.645C44.15 288.864 43.4664 288.962 37.8023 291.501L31.7476 294.138L26.3765 291.794C23.3492 290.427 17.2945 287.399 12.9 284.958C8.40777 282.614 4.69684 280.661 4.50152 280.661C4.30621 280.661 3.23199 281.93 2.06012 283.591C-0.0883206 286.423 -0.0883206 286.52 1.76715 288.376C2.84137 289.45 4.1109 292.77 4.79449 295.993C5.38043 299.118 6.25934 302.536 6.64996 303.61C9.09137 309.665 9.87262 313.278 8.7984 313.669C6.94293 314.255 7.62652 318.356 10.0679 320.602C11.7281 322.165 13.1929 322.751 14.7554 322.36C18.4664 321.384 19.9312 323.044 16.8062 324.509L14.0718 325.778L16.2203 327.243L18.3687 328.61L16.3179 330.661C14.5601 332.419 14.5601 332.712 15.9273 334.274C17.6851 336.227 17.9781 339.841 16.5132 340.72C15.3414 341.403 15.1461 347.36 16.2203 348.434C16.7086 348.825 17.4898 351.462 17.9781 354.196L18.9546 359.274L26.7671 359.177C34.0914 359.079 34.189 359.079 28.7203 359.665C25.4976 359.958 21.982 360.837 20.9078 361.52C18.9546 362.692 19.0523 362.79 21.4937 364.938C23.6421 366.696 24.0328 367.673 23.6421 370.212C23.2515 372.751 23.4468 373.434 24.814 373.434C27.4507 373.434 31.7476 376.95 33.1148 380.27C33.7984 381.833 34.8726 383.2 35.5562 383.2C36.2398 383.2 37.9 384.958 39.3648 387.106C40.8296 389.352 42.6851 391.013 43.7593 391.013C45.4195 391.013 47.6656 393.747 51.6695 400.681C52.4507 402.048 53.0367 404.977 53.0367 407.126C53.0367 411.227 54.8921 413.669 57.3336 412.692C58.3101 412.399 58.6031 412.692 58.3101 413.571C58.0171 414.352 56.7476 414.841 55.1851 414.743C52.1578 414.548 51.8648 415.915 54.5015 417.38C55.5757 417.868 56.7476 419.333 57.0406 420.407C57.5289 421.872 58.0171 422.165 58.5054 421.286C58.9937 420.505 59.3843 420.602 59.8726 421.774C60.1656 422.653 60.2632 423.727 59.9703 424.216C59.2867 425.29 61.3375 426.657 65.439 428.024C68.564 429.001 69.0523 429.684 69.6382 433.005C70.5171 438.376 72.6656 438.083 72.9585 432.516C73.0562 429.001 72.6656 427.927 71.0054 426.657C69.15 425.388 69.0523 425.192 70.5171 425.192C71.4937 425.192 73.4468 426.071 74.9117 427.048C78.3296 429.489 84.5796 430.563 86.4351 429.001C87.607 428.024 87.607 427.634 85.8492 426.462C84.775 425.681 83.896 424.509 83.9937 423.923C84.0914 423.239 83.896 421.97 83.4078 420.993C82.9195 419.821 83.2125 418.845 84.2867 418.063C85.0679 417.38 85.9468 416.013 86.1421 414.938C86.5328 412.106 90.732 403.708 91.7085 403.708C92.1968 403.708 93.9546 400.876 95.6148 397.36C97.7632 392.868 99.0328 391.208 100.009 391.696C102.06 392.38 101.865 393.649 99.7164 394.235C97.6656 394.723 96.1031 398.825 97.8609 398.825C98.5445 398.727 100.302 397.751 101.865 396.481C104.404 394.431 104.892 394.333 107.236 395.505C111.044 397.556 112.216 397.165 113.681 393.649C114.658 391.208 114.755 389.352 113.974 385.641C112.412 377.731 112.9 373.825 115.634 371.091C117.002 369.723 118.369 367.282 118.662 365.72C119.052 363.962 119.736 362.985 120.517 363.278C122.373 364.059 125.595 356.54 127.255 347.751C129.99 333.786 132.724 324.899 135.263 322.556C136.533 321.384 137.607 319.821 137.607 319.235C137.607 318.649 138.584 317.184 139.755 316.11L142.002 314.157L153.72 317.966C161.435 320.505 166.123 322.556 167.49 324.118C169.345 326.071 176.572 330.466 178.134 330.466C179.111 330.466 178.623 326.95 177.451 325.778C175.888 324.216 177.646 324.313 179.697 325.876C180.576 326.559 181.455 328.61 181.748 330.466C182.041 332.321 182.431 334.567 182.627 335.348C182.822 336.325 182.334 336.813 181.064 336.911C176.669 337.106 176.572 337.204 177.646 339.157C179.111 342.087 178.818 342.673 176.669 340.72C174.814 339.059 174.814 339.157 175.205 342.575C175.498 344.528 175.888 347.556 176.084 349.411C176.377 351.559 175.888 353.61 174.619 355.466C173.642 357.028 172.763 359.274 172.763 360.446C172.763 362.302 172.47 362.399 169.931 361.423C166.22 360.056 163.584 361.13 164.267 363.766C164.658 365.329 164.169 366.013 162.021 366.696C156.845 368.552 157.431 371.872 164.169 378.317C170.224 384.079 178.916 386.618 183.017 383.884C184.677 382.712 185.459 382.712 188.193 383.884C191.416 385.251 192.294 387.692 190.146 389.841C189.365 390.622 189.658 391.403 191.416 392.868C192.685 393.942 194.443 394.821 195.224 394.919C196.005 394.919 198.935 396.091 201.572 397.556C204.306 399.02 208.212 400.388 210.361 400.681C213.779 401.169 214.267 401.657 214.56 404.001C214.755 405.563 215.634 407.028 216.513 407.321C217.392 407.712 219.248 408.786 220.517 409.763C223.935 412.399 226.279 412.106 225.693 409.079C225.302 406.638 220.908 402.731 218.759 402.731C218.173 402.731 217.685 402.341 217.685 401.852C217.685 401.364 216.806 400.778 215.732 400.485C214.365 400.192 213.779 399.118 213.779 397.458C213.779 394.821 214.267 394.626 218.857 394.919C222.08 395.114 222.861 393.845 221.982 389.645C221.591 387.302 220.712 386.032 219.248 385.544C216.22 384.665 211.826 380.173 211.826 378.024C211.826 374.509 209.97 372.36 207.431 373.044C204.013 373.923 201.279 372.653 199.619 369.528C197.763 365.915 197.763 362.302 199.619 360.739C201.279 359.372 199.912 355.856 197.763 355.856C196.982 355.856 195.908 355.173 195.127 354.294C194.248 353.22 192.978 352.927 191.123 353.317C189.658 353.61 188.388 353.415 188.388 352.927C188.388 352.341 189.072 351.95 189.853 351.95C191.904 351.95 191.709 350.973 188.388 345.798C185.263 340.72 184.189 335.056 186.923 337.302C187.705 337.985 188.388 339.059 188.388 339.743C188.388 340.72 195.224 346.774 203.037 352.536C204.599 353.708 207.138 355.661 208.603 356.931C210.166 358.2 214.853 360.348 219.052 361.716C223.447 363.083 226.865 364.743 227.158 365.622C227.451 366.403 228.72 369.235 229.892 371.97C234.091 380.856 236.24 386.227 236.24 387.79C236.24 388.669 237.021 389.938 237.9 390.622C240.341 392.282 240.244 404.294 237.9 407.614C237.021 408.981 236.24 411.13 236.24 412.497C236.24 413.864 235.752 415.524 235.166 416.11C233.212 418.063 232.919 429.977 234.677 436.716C235.459 440.036 235.947 443.942 235.654 445.407C234.97 448.727 236.044 451.169 241.123 458.884C243.173 462.106 246.201 467.184 247.861 470.212C249.423 473.239 252.353 476.95 254.209 478.513C264.462 486.813 270.81 492.673 272.861 495.602C275.4 499.411 283.701 506.638 287.314 508.298C288.681 508.884 292.099 512.204 295.029 515.72C300.498 522.36 310.459 528.806 317.294 530.173C319.248 530.563 322.568 532.516 325.107 534.958C330.576 540.036 333.115 541.403 336.728 541.403C340.244 541.403 342.197 543.747 341.904 547.36C341.611 549.802 342.197 550.583 346.298 553.024C354.306 558.005 355.673 559.079 354.599 560.153C354.013 560.739 352.646 560.544 350.693 559.567C346.884 557.614 344.052 557.614 343.369 559.372C342.88 560.641 342.197 560.641 338.779 559.274C336.533 558.395 334.384 556.931 333.896 555.954C333.115 554.587 333.701 554.098 337.412 553.22C340.83 552.341 341.709 551.755 341.318 550.583C341.025 549.704 340.732 548.239 340.732 547.165C340.732 545.895 340.048 545.309 338.681 545.309C337.607 545.309 334.482 544.333 331.845 543.259C328.134 541.598 326.669 541.403 325.791 542.282C323.935 544.138 321.298 543.552 315.927 539.938C313.095 538.083 310.166 536.52 309.482 536.52C308.798 536.52 308.408 536.227 308.798 535.934C309.58 535.056 304.111 530.661 302.255 530.661C301.377 530.661 300.693 530.173 300.693 529.684C300.693 529.098 300.107 528.708 299.326 528.708C296.396 528.708 296.689 530.856 300.107 534.079C303.818 537.595 304.599 539.45 302.158 539.45C300.302 539.45 300.302 539.841 302.158 543.356C304.794 548.434 300.009 546.384 291.709 538.766C289.169 536.423 286.63 534.567 286.044 534.567C284.97 534.567 285.654 538.571 287.119 541.598C288.779 544.723 288.193 545.602 284.97 544.919C281.748 544.333 275.498 539.45 275.986 537.888C276.084 537.399 275.107 536.13 273.642 535.153C270.712 533.005 258.701 528.61 257.529 529.294C256.259 530.075 256.65 533.005 258.31 535.446C259.775 537.497 260.361 537.692 266.025 537.009C271.982 536.423 272.177 536.423 272.763 538.864C273.056 540.134 273.154 541.794 272.861 542.575C272.373 543.845 275.107 547.165 278.623 549.606C280.283 550.778 280.38 550.973 278.818 554.001L277.158 557.126L283.115 562.888C286.435 566.013 288.681 568.649 288.095 568.845C286.533 569.431 292.392 576.169 295.615 577.731C297.08 578.415 298.837 580.466 299.619 582.126C300.4 583.884 301.865 585.641 302.939 585.934C304.404 586.423 304.599 586.716 303.525 587.399C302.548 587.985 303.134 588.571 305.771 589.743C307.822 590.524 309.873 591.208 310.361 591.208C310.947 591.208 313.779 594.138 316.611 597.751C324.423 607.516 334.189 616.501 337.705 617.184C339.462 617.575 341.416 618.942 342.49 620.602C344.736 624.216 353.72 630.856 358.212 632.321C360.166 632.907 362.412 633.981 363.193 634.665C363.974 635.348 365.537 636.13 366.611 636.423C367.685 636.618 366.904 636.813 364.853 636.813C359.775 636.813 359.58 637.497 363.877 640.134C365.927 641.403 368.662 643.552 370.029 645.016C371.982 646.97 374.13 647.848 379.599 648.825C384.677 649.704 387.509 650.778 390.244 652.927C393.173 655.173 394.541 655.661 396.884 655.27C398.74 654.88 399.326 654.977 398.447 655.563C396.591 656.735 397.959 658.493 401.962 660.153C403.72 660.934 405.576 662.302 405.869 663.278C406.162 664.157 407.822 666.208 409.482 667.868L412.509 670.798L409.482 671.091C406.455 671.384 406.455 671.481 407.236 674.997C407.724 676.95 408.115 680.563 408.115 682.809C408.115 686.227 408.505 687.204 410.068 687.595C412.509 688.278 412.705 690.817 410.361 690.817C409.091 690.915 410.068 692.184 413.291 695.212C416.22 697.946 417.49 699.606 416.513 699.606C414.365 699.606 414.56 701.462 416.709 702.145C417.587 702.438 419.15 703.122 420.127 703.61C421.103 704.098 422.275 704.294 422.861 703.903C423.447 703.61 424.912 704.294 426.084 705.368C428.72 707.907 441.318 709.47 441.318 707.321C441.318 706.54 442.587 706.345 445.712 706.735C449.423 707.321 450.205 707.126 451.084 705.368C452.06 703.708 451.669 703.22 447.763 701.462C445.224 700.388 443.271 699.411 443.271 699.216C443.271 699.02 445.029 699.313 447.275 699.899C450.107 700.583 452.646 700.583 456.064 699.802C459.775 698.923 461.337 698.923 462.802 699.899C465.83 701.755 465.146 702.438 460.166 702.731L455.478 703.024L458.212 704.88C460.556 706.442 461.63 706.638 464.658 705.856C466.611 705.27 469.248 705.173 470.615 705.563C474.521 706.638 487.216 706.54 487.216 705.466C487.216 704.88 486.63 704.489 486.044 704.489C485.361 704.489 482.627 703.415 479.892 702.048C477.255 700.778 473.74 699.606 472.08 699.606C469.052 699.606 464.755 697.653 467.587 697.653C468.369 697.653 471.787 696.481 475.205 695.114C481.259 692.77 481.748 692.673 490.927 693.747C500.888 694.919 505.283 696.677 498.252 696.677C495.908 696.677 493.759 697.263 493.076 698.141C492.392 698.923 491.123 699.606 490.244 699.606C488.974 699.704 488.974 699.802 490.537 700.778C491.513 701.364 496.298 701.852 500.986 701.95C509.091 702.145 509.873 702.341 514.267 705.466C527.353 714.743 528.232 715.231 533.31 715.231C537.314 715.231 538.584 715.622 539.951 717.477C542.294 720.407 550.595 722.848 562.314 723.923L571.494 724.802L581.65 735.348C587.216 741.208 592.197 746.774 592.783 747.751C593.369 748.727 595.127 749.997 596.591 750.583C598.154 751.071 599.716 752.341 600.009 753.415C600.791 755.759 611.826 766.989 613.486 766.989C614.169 766.989 615.537 768.356 616.416 769.919C617.587 771.872 618.955 772.848 620.517 772.848C624.521 772.848 632.919 776.559 637.9 780.368C640.537 782.419 646.396 787.497 650.986 791.696C656.552 796.872 659.775 799.118 660.849 798.825C662.021 798.434 662.9 799.02 663.486 800.485C664.072 801.657 665.341 802.829 666.416 803.024C668.857 803.415 669.834 804.88 669.834 808.102C669.834 811.618 676.474 819.723 679.306 819.723C680.478 819.723 681.943 820.602 682.529 821.677C683.115 822.751 684.482 824.02 685.556 824.704C687.314 825.583 687.412 825.583 686.533 823.825C685.556 821.97 686.24 821.677 698.154 818.747C706.552 816.696 710.849 815.134 710.849 814.255C710.849 809.567 708.212 802.634 704.111 796.384L699.326 789.255L682.919 780.27L666.416 771.384L664.365 765.524L662.314 759.763L655.576 757.516L648.837 755.27L643.662 742.184L638.486 729.098L640.537 721.091C641.709 716.696 642.49 712.985 642.294 712.79C642.099 712.692 639.462 711.13 636.435 709.47C632.334 707.126 629.892 706.442 626.669 706.54C621.884 706.735 620.127 705.856 608.115 696.677C602.255 692.184 597.08 686.911 590.146 678.317C578.623 664.059 565.048 652.731 554.794 648.825L548.349 646.384L545.517 639.548C543.173 633.688 542.002 632.223 537.9 629.489C535.068 627.634 531.845 624.313 530.087 621.481C528.427 618.845 525.302 615.329 523.056 613.669C520.81 612.106 517.392 608.2 515.439 605.173C512.216 599.899 511.435 599.313 505.185 597.067C498.935 594.723 498.349 594.333 497.08 590.524C495.712 586.716 495.322 586.423 491.025 585.837C487.216 585.348 485.752 584.372 481.65 580.173C478.916 577.341 476.181 573.434 475.498 571.384C474.814 569.235 471.396 564.352 467.587 560.153C462.998 554.977 460.849 551.852 460.849 550.095C460.849 548.727 459.775 544.333 458.408 540.329C456.064 533.591 455.966 532.712 457.138 526.852L458.31 520.602L455.478 518.356C453.916 517.087 451.377 515.817 449.912 515.427C446.689 514.743 446.591 514.548 449.033 511.52C450.888 509.177 450.791 509.177 445.81 496.091L440.732 482.907L432.041 476.266C424.228 470.309 422.666 468.552 416.611 458.688L409.775 447.751L402.255 448.337L394.638 448.923L389.267 444.626C384.775 441.11 383.505 439.352 381.845 434.567L379.892 428.903L384.384 424.802L388.974 420.602L385.166 413.962C379.111 403.122 378.33 394.626 383.408 393.356C385.556 392.77 385.752 392.38 385.166 388.669C384.775 386.52 383.408 382.321 382.138 379.391L379.794 374.118L382.138 371.579C385.849 367.673 386.337 365.231 385.068 357.223L383.994 349.899L386.826 347.556C388.388 346.188 390.244 345.114 390.927 345.114C391.611 345.114 392.978 344.333 393.857 343.259C395.322 341.696 396.005 341.598 399.521 342.477C402.841 343.259 403.623 343.259 404.404 341.891C405.869 339.255 409.58 339.841 410.654 342.868L411.533 345.407L414.755 342.673C417.88 340.036 418.173 340.036 420.615 341.403C422.08 342.184 424.423 343.161 425.986 343.552C428.818 344.235 429.209 345.212 427.646 348.141C426.865 349.606 426.962 349.997 428.037 349.997C428.916 349.997 430.966 351.266 432.627 352.731C435.166 354.977 435.849 356.54 436.533 361.13C437.509 368.259 440.146 371.481 445.127 371.481C448.252 371.481 449.423 372.263 454.99 378.317C461.044 384.958 461.63 385.251 467.49 386.227C470.81 386.813 475.498 387.009 477.939 386.716C482.138 386.032 482.236 385.934 482.919 381.638C483.31 379.098 484.97 375.095 486.728 372.458C488.877 369.235 489.56 367.38 489.072 366.306C488.388 365.134 489.56 364.059 494.248 361.52C500.107 358.298 500.302 358.005 502.548 351.462C505.38 342.966 508.115 339.938 512.119 340.524C513.681 340.817 516.709 340.524 518.759 339.938C522.08 339.059 523.252 339.255 530.185 342.184C536.24 344.626 538.877 345.212 541.709 344.821C544.052 344.431 547.959 345.016 553.134 346.481C562.314 349.216 564.072 348.727 564.56 343.356C564.853 340.231 565.244 339.743 567.49 339.45C569.248 339.255 570.224 338.376 570.615 336.716C571.005 335.446 571.982 334.372 572.861 334.372C573.74 334.372 575.498 333.395 576.767 332.321C578.525 330.563 579.209 330.368 580.38 331.345C581.455 332.223 581.65 333.2 580.869 334.958C579.306 339.157 579.794 340.231 582.919 340.231C585.263 340.231 585.849 339.841 585.849 337.985C585.849 335.934 585.947 335.934 587.607 338.473C589.267 341.013 589.462 341.11 591.123 339.45C592.783 337.888 592.88 337.888 592.294 339.938C591.709 341.794 592.002 342.087 594.345 341.891C596.494 341.696 597.177 342.184 597.373 343.747C597.568 345.309 600.302 346.97 608.603 350.876C618.564 355.466 620.127 355.856 626.572 355.856H633.701L635.459 352.341C636.63 350.095 637.607 349.118 637.998 349.899C638.388 350.485 639.56 350.973 640.634 350.973C641.611 350.973 642.49 351.657 642.49 352.438C642.49 353.22 643.173 353.903 643.955 353.903C644.736 353.903 645.419 354.294 645.419 354.88C645.419 358.102 660.947 360.348 663.877 357.516C664.853 356.54 665.439 356.735 666.904 358.493C667.88 359.763 669.345 360.739 670.224 360.739C671.103 360.739 671.787 361.52 671.787 362.595C671.787 365.036 679.306 366.013 680.576 363.766C681.259 362.399 681.65 362.399 683.212 363.962C684.482 365.036 685.361 365.329 686.142 364.548C686.826 363.864 687.9 363.962 689.56 364.645C691.611 365.622 692.783 365.427 696.982 363.278C699.716 361.911 702.353 360.739 702.841 360.739C703.33 360.739 709.97 364.645 717.587 369.528C725.205 374.313 731.845 378.317 732.431 378.317C732.919 378.317 736.63 376.462 740.634 374.216C747.08 370.602 747.959 369.821 747.959 367.38C747.959 365.134 748.349 364.645 750.302 364.645C751.962 364.645 752.939 363.766 753.818 361.618C755.576 357.419 758.603 356.442 761.533 359.177C763.193 360.641 763.974 360.837 764.267 359.958C764.853 358.298 768.955 358.493 770.419 360.251C771.103 361.032 771.396 362.399 771.005 363.181C770.615 364.157 771.689 365.817 773.935 367.77C777.158 370.602 777.841 370.798 784.384 370.602C792.197 370.407 794.345 368.942 793.369 364.645C792.88 362.302 793.271 362.009 797.763 360.348C800.498 359.372 802.841 358.688 803.037 358.884C803.232 359.079 803.818 360.153 804.306 361.13C805.673 363.669 813.095 365.524 821.787 365.622H828.818L832.334 369.919C835.263 373.532 836.63 374.411 840.244 374.997C842.685 375.29 844.931 375.973 845.224 376.462C846.201 378.024 847.568 377.438 848.74 374.899C849.521 373.044 849.521 372.165 848.544 370.993C846.982 369.138 848.544 369.04 851.084 370.993C853.427 372.751 854.404 372.848 854.404 371.188C854.404 370.407 855.771 370.016 858.31 370.016C862.412 370.016 862.9 370.407 861.044 372.263C860.166 373.141 860.752 373.727 863.486 374.899C868.076 376.852 868.076 376.852 868.076 373.532C868.076 369.528 870.419 367.868 871.787 370.895C872.373 372.165 872.568 374.118 872.373 375.095C871.982 376.462 873.056 378.024 876.377 380.759C880.185 383.884 880.869 384.86 880.283 386.911C879.697 389.255 879.697 389.255 885.166 388.571L890.537 387.985V392.477C890.537 394.919 890.927 397.751 891.416 398.727C892.197 400.095 891.904 400.29 889.169 399.997C886.044 399.606 886.044 399.606 886.435 403.708C886.826 407.321 887.216 407.907 891.513 410.056C894.052 411.325 896.787 413.473 897.763 414.841C899.326 417.38 899.619 417.38 911.044 417.38H922.666L923.349 412.399C924.13 406.247 926.474 404.977 933.994 406.442C938.681 407.419 938.974 407.321 942.392 404.196C944.345 402.438 947.373 400.681 949.13 400.29C952.06 399.606 952.255 399.411 951.572 396.091C950.595 391.11 950.595 391.013 945.127 391.013C939.755 391.013 939.951 391.794 942.49 381.931C942.978 379.88 943.076 377.341 942.783 376.364C942.49 375.29 942.685 373.63 943.271 372.458C944.15 370.895 943.857 369.821 941.806 366.891C937.607 360.544 938.486 358.395 944.638 360.251L948.837 361.52L952.841 356.442C956.552 351.657 956.748 351.169 955.185 349.704C954.013 348.434 953.916 347.751 954.697 346.97C955.576 346.091 957.822 346.286 963.779 347.848C971.591 349.802 971.591 349.802 972.666 347.848C973.544 346.188 974.326 345.993 977.255 346.579C979.306 346.97 981.943 348.239 983.31 349.606C984.677 350.876 987.216 352.243 988.974 352.536C992.978 353.317 998.935 352.243 999.521 350.485C999.814 349.802 999.13 347.067 997.959 344.431L995.908 339.548L983.505 337.692L971.103 335.739L970.517 332.907C970.224 330.954 969.541 330.075 968.564 330.368C962.119 331.931 956.162 331.345 950.205 328.708C944.541 326.266 943.759 325.485 942.587 321.97C941.318 318.161 941.025 317.966 935.166 316.794C926.962 315.134 921.787 311.813 921.787 308.102C921.787 305.661 922.275 305.173 926.669 304.001L931.552 302.634L928.623 298.044C926.669 294.919 925.693 292.087 925.693 289.548C925.693 285.934 925.888 285.739 929.404 285.153C931.357 284.86 934.677 284.567 936.63 284.567C939.267 284.567 940.634 283.981 941.806 282.419C943.173 280.368 943.173 280.075 941.123 278.513C939.853 277.536 937.216 276.266 935.263 275.778C933.31 275.192 931.357 274.313 930.966 273.727C930.38 272.653 920.615 273.239 917.294 274.509C916.416 274.802 915.927 274.313 915.927 273.044C915.927 269.528 914.853 267.966 912.412 267.966C909.287 267.966 909.384 265.524 912.509 263.473C914.755 262.009 914.853 261.813 913.193 259.47C911.63 256.93 911.63 256.93 914.267 257.419C916.513 257.809 916.904 257.614 916.904 255.759C916.904 254.587 917.783 252.829 918.857 251.852C921.787 249.216 921.201 246.97 916.904 243.356L912.9 240.231L916.611 237.985C922.959 234.177 924.716 230.368 919.834 231.052C918.173 231.345 916.611 231.149 916.318 230.661C916.025 230.27 914.267 229.88 912.314 229.88C908.505 229.88 901.865 226.364 902.841 224.802C903.232 224.216 905.185 224.118 907.529 224.411C911.63 225.095 911.728 224.997 912.705 221.579C913.584 218.747 913.486 217.77 912.119 216.11C910.556 214.157 910.459 214.157 906.845 215.817C902.06 218.161 900.791 216.891 902.158 211.618C903.037 208.395 903.72 207.516 906.162 207.028C909.384 206.442 909.775 204.977 907.627 202.145C905.673 199.606 905.771 198.923 908.115 198.141C910.263 197.458 910.849 193.747 908.896 193.747C908.212 193.845 906.552 194.43 905.185 195.212C903.818 195.993 901.474 196.579 899.814 196.677C897.861 196.677 896.298 197.555 894.834 199.313L892.685 201.95L882.627 198.825C874.13 196.091 872.373 195.798 871.494 196.97C861.24 210.934 854.404 218.649 850.4 220.7C847.666 222.067 845.029 222.751 843.759 222.36C842.002 221.97 840.537 222.848 836.826 226.462C831.748 231.442 829.697 231.833 822.47 228.805C819.736 227.731 819.15 227.731 817.587 229.098C815.341 231.149 808.603 230.173 799.716 226.559C792.197 223.434 779.111 222.36 777.158 224.606C775.302 226.852 768.857 226.266 764.56 223.532C761.142 221.384 759.58 221.091 751.474 221.091C743.759 221.091 741.611 221.481 738.681 223.141C736.728 224.313 735.068 225.095 734.873 224.899C734.775 224.704 733.603 223.044 732.334 221.286C730.38 218.356 729.697 218.063 727.158 218.552C724.912 219.04 721.201 217.966 712.607 214.645L701.181 210.251L699.423 204.782C696.884 196.677 692.197 193.649 678.232 190.817C672.275 189.645 666.416 188.473 665.244 188.18C663.486 187.79 662.802 188.278 662.021 190.329C660.947 193.063 660.459 193.063 653.33 190.036L649.814 188.571L653.232 187.399C656.455 186.325 656.552 186.227 654.404 185.544C652.841 184.958 652.353 184.274 652.744 183.005C653.525 180.466 647.568 179.098 645.908 181.442C644.248 183.591 643.955 183.493 641.611 179.587C640.244 177.243 638.877 176.169 637.412 176.169C635.263 176.169 635.263 176.071 638.095 173.825L641.025 171.481L637.412 170.798C634.384 170.212 633.701 169.723 633.701 167.77C633.701 166.013 633.212 165.427 631.552 165.427C629.502 165.427 629.502 165.427 631.357 163.376C633.115 161.325 633.115 161.325 630.478 159.372C629.013 158.298 627.841 156.833 627.841 156.149C627.841 155.466 626.279 154.294 624.423 153.708C621.298 152.731 621.005 152.243 621.005 149.02V145.407L602.841 137.595C584.873 129.88 584.677 129.684 578.916 123.239C574.326 118.063 573.154 116.11 573.154 113.473C573.154 109.079 568.271 101.755 563.584 99.0203C560.459 97.1649 559.384 96.9695 555.771 97.8484C552.353 98.6297 551.377 98.532 550.986 97.4578C550.693 96.6766 549.13 96.0906 547.275 96.0906C544.345 96.0906 543.857 95.6024 542.002 91.2078C540.537 87.8875 539.169 86.1297 537.607 85.7391C535.947 85.3484 535.459 84.6649 535.752 83.0047C536.142 81.1492 535.459 80.4656 531.357 78.7078C525.498 76.1688 525.009 76.1688 521.591 77.9266C519.248 79.1961 518.369 79.0984 513.388 77.0477C510.361 75.7781 506.65 73.4344 505.087 71.7742C502.841 69.2352 501.084 68.4539 495.322 67.3797L488.193 66.0125L485.849 71.1883Z" fill="black"/>
<path d="M136.533 355.081C135.361 357.425 133.799 359.671 133.115 360.257C131.553 361.429 132.432 366.507 134.287 367.288C135.068 367.581 135.654 368.558 135.654 369.535C135.654 371.488 137.803 373.539 142.295 375.785C145.322 377.347 145.518 377.738 145.322 382.23C145.127 386.527 145.42 387.406 148.838 391.214C150.889 393.558 153.428 395.706 154.404 396.097C155.381 396.488 156.162 397.269 156.162 397.855C156.162 398.441 155.479 398.441 154.209 397.66C152.744 396.683 152.061 396.683 151.084 397.66C150.107 398.636 150.205 399.515 151.572 401.956C153.135 404.691 153.135 405.179 151.865 406.449C149.717 408.597 144.932 406.351 141.514 401.566C138.584 397.464 138.096 397.66 136.045 403.324C135.166 405.863 135.264 406.546 136.631 407.425C137.607 408.011 138.584 409.671 138.877 411.234C140.342 418.656 140.732 420.121 141.709 423.538C142.393 425.785 143.271 427.054 144.053 426.761C146.006 425.98 147.08 428.128 147.666 433.988C148.057 437.015 148.936 439.847 149.814 440.433C150.791 441.214 151.279 443.167 151.279 446.585C151.279 451.468 151.182 451.663 149.131 451.078C147.861 450.687 146.494 450.003 146.006 449.515C143.857 447.562 142.49 448.734 142.49 452.445C142.49 458.402 143.564 462.113 145.908 464.456C149.521 468.167 150.498 470.706 148.838 472.074C146.689 473.831 146.982 478.617 149.229 479.886C152.061 481.351 154.209 481.058 154.209 479.105C154.307 476.859 159.092 482.621 159.092 484.964C159.092 485.843 160.264 487.503 161.826 488.578C164.951 491.019 165.732 491.703 168.76 494.925C171.396 497.855 176.67 498.538 176.67 495.902C176.67 494.242 169.346 486.722 167.783 486.722C165.928 486.722 158.799 478.519 156.748 474.124C155.576 471.683 154.209 468.949 153.721 468.167C153.232 467.386 152.744 463.871 152.646 460.453L152.451 454.203L156.064 458.011C158.115 460.062 160.068 462.699 160.459 463.871C161.045 465.726 167.979 471.097 169.932 471.097C170.42 471.097 170.811 470.413 170.811 469.632C170.811 468.851 172.373 467.581 174.229 466.8C179.209 464.652 178.428 462.503 173.057 463.187C172.275 463.285 171.787 462.113 171.787 460.062C171.787 458.011 171.201 456.449 170.42 456.156C169.639 455.863 167.881 453.617 166.416 451.175C164.072 447.269 163.877 446.292 164.854 443.558C166.318 439.261 166.221 438.675 163.389 434.476C161.729 431.937 161.436 430.96 162.412 431.351C164.17 432.035 164.365 431.449 163.975 425.199C163.877 422.757 163.096 419.73 162.314 418.46C161.338 416.898 161.045 415.042 161.436 412.601C161.826 410.648 162.314 407.523 162.607 405.667C163.584 399.124 163.975 397.855 165.439 397.855C167.002 397.855 167.393 394.339 166.123 392.191C165.635 391.507 163.877 391.117 162.021 391.214C158.506 391.507 158.799 391.996 149.814 373.636C146.592 367.093 146.396 366.214 146.982 360.355C147.568 354.593 147.471 354.105 145.322 352.542C141.318 349.808 138.877 350.492 136.533 355.081Z" fill="black"/>
<path d="M211.24 412.207C210.947 413.477 210.166 414.453 209.678 414.453C209.092 414.453 209.189 415.137 209.873 415.918C210.557 416.699 212.412 417.383 213.975 417.383C217.002 417.383 216.904 416.504 213.389 412.012C211.826 410.059 211.826 410.059 211.24 412.207Z" fill="black"/>
<path d="M207.04 420.114C206.357 421.481 205.283 421.872 202.841 421.481L199.619 421.091L203.329 424.704C207.236 428.61 207.724 429.294 205.478 428.513C204.501 428.122 204.013 428.513 204.013 429.489C204.013 430.661 203.427 430.954 201.572 430.466C200.204 430.173 198.447 430.173 197.47 430.466C196.103 431.052 196.396 431.638 199.228 434.567C202.158 437.595 203.036 437.985 206.943 437.79C212.314 437.497 214.365 438.571 220.322 444.528C225.595 449.802 230.869 452.341 231.747 450.095C232.626 447.653 225.693 438.376 218.661 432.614C211.63 426.852 210.751 425.388 213.29 423.239C214.658 422.067 214.658 421.774 213.193 420.212C211.044 417.868 208.31 417.868 207.04 420.114Z" fill="black"/>
<path d="M222.666 419.435L220.225 420.411L222.471 421.876C224.131 423.048 224.912 423.146 225.986 422.267C226.768 421.681 227.061 420.509 226.768 419.728C226.182 418.165 225.889 418.165 222.666 419.435Z" fill="black"/>
<path d="M137.802 432.227C136.435 433.594 136.239 436.914 137.509 436.914C138.388 436.914 139.95 432.129 139.267 431.445C139.071 431.25 138.388 431.641 137.802 432.227Z" fill="black"/>
<path d="M208.896 451.855C208.896 452.539 210.459 454.98 212.314 457.129C214.17 459.375 215.732 461.621 215.732 462.207C215.732 463.672 227.354 476.367 229.014 476.758C229.795 476.953 230.381 477.734 230.381 478.516C230.381 480.371 232.92 484.473 236.631 488.477C239.072 491.113 239.365 491.992 238.486 493.457C237.607 494.922 237.9 495.605 240.635 497.754C242.49 499.219 244.639 500.391 245.518 500.391C249.619 500.391 258.701 509.766 258.701 514.062C258.701 516.113 264.463 517.676 265.635 515.82C266.123 515.039 267.002 515.137 268.857 516.406C271.885 518.359 271.885 518.457 269.346 520.996C267.686 522.656 267.588 523.242 268.662 524.512C269.346 525.391 269.932 526.562 269.932 527.246C269.932 529.199 279.795 537.5 282.041 537.5C284.873 537.5 283.701 535.059 279.307 532.129C275.205 529.297 275.498 529.199 281.162 531.152C285.947 532.812 288.877 533.008 290.928 531.641C292.197 530.762 292.002 530.371 289.951 528.809C288.584 527.734 287.9 526.562 288.291 526.172C288.682 525.781 289.756 526.172 290.732 527.051C293.076 529.199 295.811 529.199 295.811 527.148C295.811 525 289.463 519.141 286.533 518.359C285.166 518.066 283.896 516.895 283.604 515.918C283.213 514.844 281.553 513.379 279.893 512.5C278.135 511.621 275.4 509.473 273.643 507.812C265.146 499.512 259.873 496.289 261.143 500.391C261.436 501.465 261.436 502.344 260.947 502.344C259.678 502.246 254.404 497.266 251.475 493.262C249.912 491.309 248.252 489.648 247.568 489.648C246.104 489.551 239.365 483.789 240.83 483.789C241.416 483.789 242.295 484.375 242.979 485.059C243.564 485.84 246.396 487.598 249.424 489.062C252.354 490.625 254.795 492.188 254.795 492.578C254.795 493.066 257.432 494.238 260.752 495.41L266.709 497.363L265.049 494.727C262.021 489.941 259.58 487.891 256.357 487.305C253.135 486.719 250.693 484.082 247.666 478.223C245.615 474.316 241.123 471.094 236.631 470.41C233.115 469.824 233.018 469.922 233.506 472.461L233.994 475.098L231.65 472.852C223.252 465.039 220.615 462.207 220.615 461.328C220.615 459.961 211.436 450.586 210.068 450.586C209.385 450.586 208.896 451.172 208.896 451.855Z" fill="black"/>
<path d="M128.525 456.25C127.158 457.812 125.888 460.547 125.595 462.891C125.204 466.504 125.4 466.992 128.232 468.945C129.99 470.117 131.65 471.094 132.04 471.094C133.408 471.094 132.626 468.359 130.771 466.699C128.329 464.551 128.232 460.547 130.576 459.668C133.701 458.496 134.775 455.078 132.333 454.199C131.65 453.906 129.892 454.883 128.525 456.25Z" fill="black"/>
<path d="M132.725 489.45C132.725 491.11 135.557 492.77 137.314 492.185C138.193 491.794 138.584 491.208 137.998 490.72C136.533 489.352 132.725 488.474 132.725 489.45Z" fill="black"/>
<path d="M214.267 514.06C214.755 516.794 214.56 518.552 213.681 519.626C212.509 520.896 212.802 521.482 215.244 523.435C219.052 526.462 223.544 526.56 223.544 523.728C223.544 522.654 222.861 521.091 222.08 520.31C221.201 519.333 220.908 517.869 221.298 516.013C221.982 512.302 220.224 510.154 216.513 510.154C213.681 510.154 213.584 510.251 214.267 514.06Z" fill="black"/>
<path d="M196.884 513.477C196.591 514.258 197.275 516.016 198.447 517.383C199.618 518.652 201.376 520.898 202.353 522.266C203.329 523.633 204.697 524.805 205.478 524.805C207.431 524.805 207.333 521.973 205.478 521.289C204.697 520.898 204.013 519.531 204.013 517.969C204.013 516.406 203.72 514.551 203.427 513.672C202.646 511.719 197.568 511.621 196.884 513.477Z" fill="black"/>
<path d="M183.506 524.218C183.506 525.78 187.998 529.491 192.979 532.03C197.764 534.374 198.643 533.886 195.42 530.663C193.76 529.003 192.1 527.734 191.709 527.734C191.318 527.734 189.561 526.659 187.803 525.292C184.092 522.46 183.506 522.362 183.506 524.218Z" fill="black"/>
<path d="M201.084 537.305C201.084 538.672 203.33 540.43 205.186 540.43C207.529 540.43 207.432 538.77 205.088 537.5C202.842 536.328 201.084 536.23 201.084 537.305Z" fill="black"/>
<path d="M211.143 537.988C209.385 539.844 209.58 540.82 211.826 542.871C212.9 543.848 213.779 544.141 213.779 543.555C213.779 542.871 215.147 542.383 216.709 542.383C218.76 542.383 219.639 542.871 219.639 544.043C219.639 546.777 224.717 556.055 226.182 556.055C227.451 556.055 227.451 555.664 225.986 553.516C224.229 550.684 224.522 549.316 226.475 551.66C227.158 552.441 228.232 553.125 228.916 553.125C229.6 553.125 230.674 553.809 231.455 554.688C232.725 556.25 236.729 555.859 238.682 554.004C239.854 552.734 236.436 549.902 234.58 550.586C232.529 551.367 225.498 547.07 222.275 542.969C220.615 540.918 217.881 538.574 216.025 537.891C212.217 536.23 212.607 536.23 211.143 537.988Z" fill="black"/>
<path d="M244.053 557.617C244.053 560.449 256.064 571.68 259.189 571.68C259.482 571.68 259.678 571.094 259.678 570.41C259.678 568.945 250.4 558.984 249.033 558.984C248.545 558.984 247.666 558.301 246.982 557.52C245.42 555.664 244.053 555.664 244.053 557.617Z" fill="black"/>
<path d="M229.404 562.01C229.404 562.693 230.283 564.256 231.455 565.428L233.408 567.478L230.674 567.576C229.209 567.576 226.963 566.99 225.791 566.209C224.521 565.428 223.545 565.135 223.545 565.623C223.545 567.088 231.553 571.775 233.018 571.189C235.459 570.31 252.354 586.814 258.896 596.58C265.439 606.15 276.67 618.357 283.604 623.338C287.705 626.267 287.998 626.365 287.998 624.51C287.998 623.142 287.412 622.459 286.24 622.459C285.264 622.459 283.408 621.385 282.139 620.017L279.893 617.576H282.041C283.213 617.576 285.654 618.65 287.412 620.017C289.17 621.385 290.83 622.459 291.123 622.459C291.416 622.459 291.611 621.189 291.709 619.529C291.709 617.576 291.221 616.502 290.049 616.111C289.072 615.818 285.752 613.377 282.725 610.74C279.6 608.006 276.768 605.857 276.279 605.857C275.889 605.857 274.619 604.392 273.545 602.537C272.275 600.389 270.322 598.826 268.076 598.045C264.463 596.873 259.678 590.525 258.311 585.057C258.018 583.592 257.236 582.42 256.748 582.42C256.162 582.42 255.771 581.736 255.771 580.955C255.771 580.076 255.186 579.49 254.6 579.685C252.549 580.076 245.713 576.365 245.322 574.51C245.029 573.533 243.564 572.264 242.002 571.678C240.439 570.994 239.17 569.92 239.17 569.236C239.17 568.65 237.51 566.795 235.557 565.232C230.381 561.131 229.404 560.642 229.404 562.01ZM279.209 614.646C280.088 616.209 279.99 616.404 278.721 616.014C277.939 615.623 277.256 614.842 277.256 614.06C277.256 612.107 277.939 612.4 279.209 614.646Z" fill="black"/>
<path d="M236.24 562.986C236.24 563.474 236.924 563.865 237.705 563.865C238.389 563.865 239.463 564.451 239.854 565.232C240.732 566.697 245.029 568.357 245.029 567.087C245.029 565.33 243.369 564.06 239.951 563.083C237.705 562.498 236.24 562.4 236.24 562.986Z" fill="black"/>
<path d="M256.748 563.281C256.748 565.234 261.143 568.164 262.998 567.48C263.877 567.09 264.854 567.969 265.635 569.824C266.221 571.484 267.881 573.535 269.248 574.414C270.518 575.293 274.814 579.199 278.721 583.203C284.482 589.16 286.338 590.43 288.096 589.941C290.342 589.355 291.807 590.527 298.838 599.121C305.283 606.934 315.342 616.602 317.1 616.602C317.979 616.602 319.834 617.48 321.201 618.555C322.568 619.629 325.107 620.508 326.865 620.508C331.357 620.508 330.674 618.066 325.107 614.16C322.666 612.5 320.127 609.766 319.346 608.008C318.564 606.348 317.002 604.59 315.928 604.297C314.756 604.004 312.314 602.539 310.459 601.074C308.604 599.609 305.088 597.168 302.744 595.703C297.178 592.188 287.412 582.617 286.24 579.492C285.557 577.832 283.994 576.66 281.357 575.879C279.111 575.195 276.182 573.535 274.619 572.07C267.197 565.234 263.682 563.086 262.607 564.746C262.119 565.625 261.631 565.723 261.24 564.941C260.85 564.355 259.678 563.379 258.604 562.891C257.139 562.109 256.748 562.207 256.748 563.281Z" fill="black"/>
<path d="M266.025 583.106C267.099 587.696 280.185 599.22 280.185 595.606C280.185 593.263 279.013 591.212 277.744 591.212C277.06 591.212 274.424 588.771 271.884 585.841C266.806 579.884 264.951 579.005 266.025 583.106Z" fill="black"/>
<path d="M296.787 621.386C296.787 621.874 297.764 622.655 299.033 622.948C300.205 623.339 302.939 625.292 305.088 627.343C312.803 634.569 317.295 636.425 312.607 630.468C311.045 628.515 309.482 625.683 309.189 624.315C308.604 622.167 308.115 621.874 305.576 622.265C303.818 622.558 302.646 622.265 302.646 621.581C302.646 620.995 301.377 620.507 299.717 620.507C298.154 620.507 296.787 620.897 296.787 621.386Z" fill="black"/>
<path d="M293.369 627.734C295.42 631.445 295.615 632.227 294.248 632.227C293.467 632.227 292.881 632.813 293.076 633.398C293.369 634.18 295.322 634.668 297.666 634.766C301.182 634.863 302.354 635.449 305.088 638.379C306.943 640.43 308.896 641.992 309.482 641.992C309.971 641.992 314.365 644.141 319.053 646.875C323.74 649.512 328.135 651.758 328.818 651.758C331.65 651.758 329.502 650 323.154 646.875C318.369 644.531 315.635 642.48 313.975 639.941C312.314 637.598 309.189 635.059 304.6 632.52C298.643 629.395 297.666 628.516 298.057 626.66C298.35 625.098 297.959 624.414 296.885 624.414C296.006 624.414 294.346 624.121 293.076 623.828L290.83 623.145L293.369 627.734Z" fill="black"/>
<path d="M348.545 631.738C348.545 633.301 353.623 639.941 355.283 640.527C356.26 640.82 357.627 642.383 358.311 643.945C359.287 646.289 360.166 646.875 362.314 646.875C363.877 646.875 365.146 646.582 365.146 646.289C365.146 644.531 360.947 639.258 359.287 638.77C358.213 638.477 356.846 636.914 356.26 635.254C355.381 632.91 354.697 632.324 353.428 632.715C352.451 633.008 351.377 632.812 350.986 632.227C350.4 631.25 348.545 630.859 348.545 631.738Z" fill="black"/>
<path d="M385.654 653.415C385.654 654.587 386.338 655.661 387.119 655.954C389.365 656.833 389.658 655.075 387.607 653.22C385.752 651.56 385.654 651.56 385.654 653.415Z" fill="black"/>
<path d="M381.161 655.273C381.454 656.152 381.747 657.227 381.747 657.715C381.747 658.203 382.431 658.594 383.212 658.594C384.97 658.594 384.97 658.105 383.701 655.566C382.431 653.32 380.283 653.027 381.161 655.273Z" fill="black"/>
<path d="M369.443 659.961C370.81 661.816 371.982 664.062 371.982 664.844C371.982 665.723 372.861 666.406 373.935 666.406C376.962 666.406 376.376 662.891 372.763 659.57C368.271 655.566 366.22 655.762 369.443 659.961Z" fill="black"/>
<path d="M377.549 659.958C377.256 660.739 378.33 661.813 380.381 662.79C384.873 665.036 384.677 662.106 380.088 659.762C378.525 658.883 377.939 658.883 377.549 659.958Z" fill="black"/>
<path d="M393.174 659.963C391.514 661.232 391.709 661.525 395.127 664.357C397.959 666.701 398.936 667.091 399.131 666.017C399.326 665.138 398.936 663.966 398.35 663.283C397.764 662.599 396.787 661.232 396.104 660.353C395.127 658.888 394.639 658.888 393.174 659.963Z" fill="black"/>
<path d="M365.146 662.989C367.49 665.43 370.029 666.211 370.029 664.453C370.029 663.574 365.048 660.547 363.583 660.547C363.193 660.547 363.876 661.621 365.146 662.989Z" fill="black"/>
<path d="M354.99 666.893C355.38 667.674 356.357 668.358 357.236 668.358C358.212 668.358 360.166 669.627 361.728 671.287C364.365 674.022 370.908 676.072 373.935 674.998C375.498 674.51 365.244 667.674 362.021 666.99C360.459 666.697 358.212 666.209 356.845 665.916C354.99 665.526 354.599 665.721 354.99 666.893Z" fill="black"/>
<path d="M434.287 712.108C432.725 712.304 431.553 712.792 431.553 713.28C431.553 714.159 437.314 715.136 437.9 714.257C438.682 712.987 436.826 711.815 434.287 712.108Z" fill="black"/>
<path d="M442.881 713.867C439.756 717.09 439.658 718.164 442.685 718.164C444.736 718.164 450.986 716.406 451.963 715.625C452.842 714.844 448.74 711.328 447.178 711.328C446.201 711.328 444.346 712.5 442.881 713.867Z" fill="black"/>
<path d="M458.213 720.801C455.576 721.29 455.673 721.29 457.041 724.219C458.017 726.563 465.927 730.176 470.322 730.372C471.396 730.372 473.74 731.836 475.302 733.594C477.158 735.547 479.209 736.719 480.771 736.719C482.236 736.719 484.189 737.305 485.263 737.891C488.486 739.942 489.756 737.5 487.021 734.473C478.037 724.415 478.232 724.61 476.67 726.563C475.302 728.321 475.302 728.321 475.791 726.172C476.181 724.512 475.888 724.024 474.228 724.024C473.154 724.024 471.494 723.34 470.615 722.559C468.857 720.997 461.826 720.02 458.213 720.801Z" fill="black"/>
<path d="M495.029 726.271C495.029 727.052 495.713 728.908 496.494 730.47C497.763 732.912 497.763 733.4 496.494 734.767C495.713 735.646 495.322 736.622 495.615 737.013C495.908 737.306 495.908 738.087 495.517 738.673C495.029 739.454 494.443 739.454 493.466 738.576C492.685 737.99 491.709 737.697 491.416 738.087C489.951 739.454 492.881 742.091 497.373 743.556C499.912 744.435 503.427 746.486 505.185 748.146C507.92 750.88 509.58 751.466 518.173 752.931C526.572 754.298 530.088 754.396 543.466 753.517C562.314 752.15 566.318 751.564 567.002 749.806C567.295 749.025 567.978 748.439 568.466 748.439C570.029 748.439 572.08 745.314 572.177 742.97C572.177 741.408 571.006 740.236 568.076 738.673C565.732 737.404 562.998 736.329 561.923 736.232C560.849 736.134 559.677 735.939 559.287 735.841C558.798 735.841 558.506 735.158 558.506 734.376C558.506 732.423 549.228 731.154 547.275 732.814C546.494 733.497 545.81 733.595 545.81 733.107C545.81 731.056 525.4 727.443 508.701 726.466C505.185 726.369 500.693 725.88 498.74 725.49C495.81 724.904 495.029 725.099 495.029 726.271Z" fill="black"/>
<path d="M512.802 759.472C510.165 760.839 510.556 762.597 513.485 762.499C514.56 762.499 515.536 762.792 515.536 763.281C515.536 763.769 516.708 765.234 518.075 766.503L520.712 768.945H518.173C516.806 768.945 515.536 768.554 515.341 768.163C515.243 767.773 513.681 766.406 512.021 765.331C509.286 763.378 508.407 763.281 503.72 764.16C500.79 764.648 495.224 765.331 491.317 765.722C484.482 766.21 484.286 766.308 485.849 768.066C486.728 769.14 488.095 769.921 488.876 769.921C489.657 769.921 491.903 770.8 494.052 771.874C496.2 772.949 498.935 773.828 500.302 773.828C501.571 773.828 504.794 774.902 507.431 776.171C514.657 779.687 531.942 782.714 541.415 782.031C546.298 781.64 553.622 782.031 560.946 783.007C574.716 784.863 608.114 785.156 616.415 783.496C624.911 781.738 622.079 780.078 609.384 779.296C603.525 778.906 597.079 778.124 595.028 777.538C589.755 776.171 576.571 774.999 557.528 774.218L541.415 773.632L538.192 770.117C536.435 768.066 534.579 765.429 533.993 764.16C533.212 762.109 532.626 761.913 529.208 762.499C526.571 762.89 525.302 762.695 525.302 762.011C525.302 761.425 524.716 761.132 524.13 761.425C523.446 761.718 522.079 762.206 521.2 762.597C520.028 763.085 519.54 762.597 519.247 760.937C518.954 758.398 516.317 757.812 512.802 759.472Z" fill="black"/>
<path d="M480.088 771.29C479.795 772.071 480.869 773.243 482.92 774.22C487.119 776.173 490.146 776.271 490.146 774.317C490.146 773.536 489.267 772.853 488.193 772.853C487.021 772.853 484.873 772.169 483.31 771.388C481.064 770.216 480.478 770.216 480.088 771.29Z" fill="black"/>
<path d="M436.923 791.404C430.673 794.236 428.329 799.509 433.896 798.533C435.849 798.142 436.435 798.435 436.435 799.802C436.435 800.681 435.751 802.243 434.872 803.22C432.138 806.247 434.091 807.322 441.415 806.638C445.028 806.345 449.228 805.564 450.595 805.075C451.962 804.49 454.306 804.099 455.771 804.001C457.626 804.001 459.286 802.829 461.63 799.997C466.806 793.454 465.634 791.111 458.114 793.357C455.478 794.04 454.892 793.943 455.282 792.966C455.673 792.087 454.794 791.404 452.841 791.013C448.544 790.134 439.169 790.427 436.923 791.404Z" fill="black"/>
<path d="M592.099 800.684C593.271 803.516 593.369 804.102 592.295 804.102C591.123 804.102 589.267 806.934 589.951 807.52C590.146 807.617 593.759 808.887 598.056 810.352C604.599 812.5 607.627 812.891 616.611 812.891C627.353 812.891 627.353 812.891 632.138 816.309C634.775 818.164 638.486 820.215 640.439 820.801C642.392 821.484 645.322 823.047 646.982 824.316C649.326 826.074 651.279 826.562 655.478 826.562C660.166 826.562 661.142 826.855 662.9 829.199C664.072 830.664 664.756 832.52 664.463 833.496C663.974 834.961 666.709 836.133 684.189 841.797C695.322 845.508 705.673 849.219 707.138 850.195C708.506 851.172 710.752 851.953 712.021 851.953C713.681 851.953 714.853 852.734 715.537 854.395C716.806 857.227 718.662 857.617 718.662 855.078C718.662 854.102 717.099 851.855 715.244 850C713.388 848.242 712.021 846.582 712.216 846.289C712.802 845.703 717.002 848.047 718.955 850.098C721.201 852.539 723.252 852.441 724.033 850C724.423 848.926 725.107 848.34 725.693 848.633C726.279 849.023 728.037 849.316 729.502 849.219C731.259 849.219 732.334 849.609 732.334 850.488C732.334 852.637 736.338 854.98 737.9 853.711C738.877 852.93 739.17 853.418 739.17 855.957C739.17 859.082 739.756 859.668 748.74 865.234C761.533 873.34 764.267 874.707 764.853 873.145C765.048 872.461 765.634 872.852 766.416 874.219C767.295 875.781 768.466 876.367 771.201 876.465C773.349 876.562 774.033 876.758 772.861 877.051C767.49 878.418 766.416 879.199 767.392 881.055C768.076 882.422 769.931 883.105 773.935 883.496C777.548 883.887 780.673 884.961 783.115 886.621C786.142 888.672 787.216 888.965 788.779 888.184C790.244 887.402 791.123 887.598 792.783 889.453C795.029 891.895 795.517 894.531 793.662 895.215C790.732 896.191 802.158 905.566 814.853 912.598C819.15 914.941 824.228 918.262 826.181 920.02C828.134 921.777 830.673 923.242 831.748 923.242C832.92 923.242 835.752 925.488 838.584 928.613C841.318 931.543 843.759 933.984 844.052 933.984C844.345 933.984 844.638 933.008 844.638 931.738C844.638 930.469 845.127 929.004 845.713 928.418C846.494 927.637 844.248 925.488 837.9 920.703C832.334 916.406 829.306 913.379 829.502 912.5C829.697 911.719 830.185 909.082 830.478 906.641C831.064 902.441 830.869 901.953 826.084 896.387C823.349 893.164 820.127 890.234 818.955 889.844C814.756 888.672 810.361 889.062 806.455 891.016C802.548 893.066 800.693 892.969 800.693 890.625C800.693 889.844 797.47 886.719 793.662 883.594C789.756 880.469 781.455 873.73 775.302 868.555C761.24 856.738 751.67 850.391 745.81 848.926C741.904 847.949 741.123 847.461 741.123 845.508C741.123 843.945 740.244 842.773 738.291 841.797C736.045 840.625 735.459 839.453 734.873 835.645C733.798 827.734 726.767 822.656 723.447 827.539C722.177 829.395 721.884 829.395 716.709 828.027C709.58 826.074 707.724 826.172 703.525 828.711L699.912 830.762L694.541 828.125C687.412 824.609 686.826 825.586 693.662 829.59C696.689 831.348 699.326 833.398 699.521 834.082C700.4 836.133 698.056 835.547 696.201 833.105C695.224 831.934 691.611 829.883 688.095 828.613C684.58 827.441 681.455 825.781 681.162 825C680.869 824.219 679.697 823.633 678.623 823.633C676.865 823.633 676.767 823.926 677.744 825.684C678.72 827.637 678.623 827.734 676.572 827.051C675.302 826.66 672.568 826.172 670.615 825.879C667.49 825.488 666.904 825 666.904 823.047C666.904 820.41 663.779 816.797 661.533 816.797C660.752 816.797 654.99 814.355 648.74 811.426C642.49 808.496 636.24 806.055 634.97 806.055C633.701 806.055 631.357 805.371 629.697 804.59C627.353 803.32 624.716 803.223 615.146 803.711L603.427 804.395L598.935 800.781C596.396 798.828 593.466 797.266 592.49 797.266C590.83 797.266 590.83 797.461 592.099 800.684Z" fill="black"/>
<path d="M528.916 809.667C526.376 810.351 527.451 812.401 530.38 812.499C531.65 812.499 533.408 813.085 534.287 813.866C535.556 815.136 535.361 815.624 532.431 818.554C530.576 820.312 529.208 822.265 529.501 822.948C529.697 823.632 531.943 824.12 535.166 824.218C538.095 824.315 541.806 824.901 543.369 825.487C545.029 826.171 550.107 827.148 554.892 827.636C559.58 828.124 564.169 829.003 565.146 829.589C567.197 830.858 574.912 828.808 580.869 825.487C584.482 823.339 584.58 823.437 602.06 826.757C611.923 828.71 613.291 828.808 618.076 827.44C624.13 825.878 625.302 824.12 621.005 823.144C619.15 822.753 617.49 821.483 616.611 819.726C615.146 816.796 610.849 814.843 605.966 814.843C604.306 814.843 601.767 814.257 600.302 813.476C597.08 811.815 583.115 812.304 574.423 814.55C566.416 816.601 551.474 815.136 545.517 811.718C544.345 811.034 542.294 810.351 540.927 810.253C539.56 810.058 536.728 809.765 534.58 809.569C532.431 809.276 529.892 809.374 528.916 809.667ZM539.658 816.405C539.365 816.698 538.486 816.796 537.802 816.503C537.021 816.21 537.314 815.917 538.388 815.917C539.462 815.819 540.048 816.112 539.658 816.405Z" fill="black"/>
<path d="M649.716 849.509C648.74 850.291 647.079 850.974 646.2 850.974C644.15 850.974 643.954 851.951 645.712 854.099C646.884 855.759 654.99 858.396 655.868 857.42C656.161 857.127 657.626 857.517 659.189 858.298C660.654 859.08 663.29 859.763 664.95 859.763C666.611 859.763 669.15 860.642 670.615 861.619C672.372 862.888 677.45 864.255 685.654 865.525C693.759 866.795 699.618 868.259 702.841 869.92C706.943 871.97 708.212 872.263 711.142 871.384C716.122 870.017 716.318 868.943 712.118 867.576C710.068 866.892 707.04 865.623 705.282 864.548C703.525 863.572 699.521 862.498 696.2 862.107C692.88 861.716 690.341 861.033 690.341 860.349C690.341 859.763 688.29 858.689 685.751 858.103C683.115 857.42 676.865 855.759 671.884 854.392C666.806 853.025 660.849 851.951 658.798 851.951C655.673 851.951 655.185 851.755 656.064 850.584C656.943 849.509 656.845 849.119 655.575 848.63C653.232 847.752 651.865 847.947 649.716 849.509Z" fill="black"/>
<path d="M556.455 855.471C555.479 856.74 557.725 859.182 558.799 858.107C559.189 857.814 559.482 858.205 559.482 858.986C559.482 859.865 558.994 860.744 558.311 860.939C557.627 861.232 558.018 862.209 559.385 863.576C560.947 865.139 562.217 865.627 563.682 865.139C568.076 863.772 571.201 863.479 571.201 864.455C571.201 866.506 575.107 864.357 577.061 861.232C580.674 855.373 580.283 855.08 568.174 854.689C561.045 854.494 557.041 854.787 556.455 855.471Z" fill="black"/>
<circle cx="435" cy="213" fill="#5CE50D"/>
<circle cx="852" cy="289" fill="#E52A0D"/>
<circle cx="139" cy="319" fill="#E52A0D"/>
<circle cx="745" cy="855" fill="#E52A0D"/>
</svg>
