<svg width="1000" height="1000" viewBox="0 0 1000 1000" fill="none" xmlns="http://www.w3.org/2000/svg">
<rect width="1000" height="1000" />
<path d="M566.783 122.949C560.63 123.34 555.064 123.926 554.478 124.316C553.794 124.707 550.279 125.391 546.47 125.977C542.662 126.465 537.095 127.832 534.068 129.004C528.794 130.957 528.599 131.152 530.259 132.91C531.334 134.082 533.189 134.766 535.728 134.766C537.779 134.766 544.224 136.328 549.986 138.184C556.724 140.332 563.365 141.797 568.736 142.188C578.697 142.871 592.369 145.801 600.474 148.926C603.697 150.098 609.361 151.465 612.974 151.758C616.685 152.148 620.689 153.027 621.763 153.711C623.13 154.59 628.697 155.273 636.412 155.762L648.912 156.445L647.447 153.613C645.689 150.195 639.732 144.531 634.654 141.406C632.505 140.039 624.4 136.914 616.587 134.277C608.775 131.738 598.326 127.93 593.248 125.879C588.267 123.73 582.798 122.168 581.041 122.266C579.38 122.363 572.935 122.656 566.783 122.949Z" fill="black"/>
<path d="M577.818 174.805C576.744 176.367 575.865 176.562 571.861 176.074C567.857 175.586 566.783 175.879 564.341 177.93C561.802 180.078 561.119 180.273 557.701 179.395C551.255 177.734 532.603 182.227 532.603 185.449C532.603 188.672 531.236 188.672 528.599 185.449L525.963 182.227L520.982 183.398C518.248 183.984 513.951 184.277 511.412 183.984C506.92 183.496 506.822 183.496 509.166 184.961L511.607 186.328L508.97 187.5C506.822 188.477 506.041 188.379 503.697 186.719C501.548 185.254 497.642 184.375 487.681 183.203C458.482 179.883 458.091 179.883 452.037 185.547C448.521 188.867 434.361 198.535 429.283 201.074C427.33 202.051 422.154 203.906 417.759 205.078C413.365 206.25 407.017 208.887 403.697 210.84L397.447 214.551L393.638 212.891C390.611 211.523 389.048 211.328 386.412 212.109C384.556 212.598 381.431 212.793 379.381 212.402C376.158 211.914 375.572 212.109 373.619 214.844C371.08 218.262 371.666 220.117 374.986 219.336C376.256 218.945 379.088 219.141 381.334 219.629C385.142 220.508 385.631 220.41 388.17 217.676C389.634 216.113 391.295 214.844 391.881 214.844C393.345 214.844 393.248 215.039 390.806 219.531C388.267 223.926 383.189 228.516 380.845 228.516C379.869 228.516 378.013 229.102 376.451 229.883C374.791 230.762 373.326 230.957 372.349 230.371C370.201 229.004 370.103 229.102 365.025 236.523L360.24 243.652L359.947 256.055L359.556 268.555L362.974 272.559C368.15 278.516 379.283 287.012 383.677 288.281C385.826 288.965 388.072 289.941 388.56 290.625C389.634 291.797 407.31 291.016 418.248 289.258C422.252 288.574 425.181 288.477 426.256 289.16C427.232 289.648 429.966 290.039 432.408 290.039C436.412 290.039 437.095 289.746 438.853 286.816C439.927 285.156 440.806 282.715 440.806 281.543C440.806 277.637 444.322 277.832 449.205 282.031C455.65 287.793 474.009 294.434 474.009 291.113C474.009 290.527 474.888 289.16 475.963 288.086C480.064 283.984 493.443 286.133 502.623 292.383C511.412 298.34 514.634 299.512 516.88 297.461C518.541 295.996 520.884 295.312 520.884 296.387C520.884 296.68 520.298 297.754 519.713 298.828C518.638 300.391 518.834 300.977 520.396 302.246C521.47 303.027 523.13 303.516 524.107 303.32C525.181 303.027 525.767 303.516 525.767 304.785C525.767 306.934 530.064 309.277 539.439 312.402C542.955 313.574 548.033 315.82 550.67 317.383C553.404 319.043 556.236 320.703 557.017 321.191C557.798 321.68 561.021 322.754 564.048 323.73C567.564 324.805 570.787 326.66 572.74 328.711C574.498 330.566 576.841 332.031 577.916 332.031C580.552 332.031 592.369 344.434 595.103 350.098C598.521 357.129 608.091 360.352 610.826 355.371C611.9 353.32 615.611 352.832 615.611 354.688C615.611 355.273 616.392 355.078 617.466 354.102C618.541 353.125 620.201 352.539 621.177 352.734C622.642 353.027 622.935 353.906 622.642 358.301C622.447 362.793 622.74 363.867 625.377 366.797C626.939 368.652 628.306 370.605 628.306 371.094C628.306 371.582 626.744 373.145 624.888 374.609C621.959 376.758 621.177 376.953 619.908 375.879C619.127 375.195 618.638 373.926 618.834 372.949C619.127 371.875 618.638 371.094 617.369 370.801C616.099 370.41 615.611 369.531 615.806 367.969C616.002 366.699 615.709 365.625 615.123 365.527C614.634 365.43 614.244 366.992 614.341 368.945C614.439 370.898 614.244 371.973 613.951 371.289C613.755 370.703 613.072 370.312 612.584 370.703C610.826 371.777 611.802 373.828 614.537 375C618.541 376.66 618.931 378.418 615.904 382.91C612.681 387.695 609.556 388.672 605.845 385.84C602.232 383.203 601.548 383.203 599.107 386.328C596.373 389.844 596.275 395.508 599.009 395.508C600.377 395.508 600.963 396.191 600.963 397.852C600.963 401.27 603.209 402.637 607.408 401.953C611.705 401.074 614.048 402.637 612.584 405.371C611.998 406.543 611.998 407.227 612.584 407.227C613.072 407.227 614.244 408.594 615.025 410.352C616.49 413.086 616.49 413.672 615.123 415.723C613.853 417.578 613.267 417.773 611.705 416.992C610.63 416.406 609.752 415.43 609.654 414.746C609.654 414.062 609.166 414.551 608.482 415.82C607.701 417.676 607.701 418.262 608.775 418.945C609.556 419.434 609.849 420.117 609.459 420.508C609.166 420.898 608.287 420.703 607.603 420.215C606.92 419.629 604.478 418.945 602.134 418.555C598.326 417.969 597.935 418.066 598.423 419.727C598.814 420.801 598.423 422.07 597.545 422.852C596.763 423.535 596.08 425.586 596.08 427.637C596.08 429.59 595.396 432.227 594.517 433.496C593.345 435.059 593.248 436.035 593.931 436.719C594.713 437.5 595.396 437.012 596.177 435.254C597.447 432.422 599.791 431.836 601.744 433.789C603.502 435.547 603.209 436.523 600.963 436.523C599.986 436.523 597.447 437.598 595.494 438.965C593.248 440.527 591.197 441.211 590.025 440.82C588.365 440.332 588.267 440.527 589.146 442.09C589.634 443.164 590.806 444.629 591.685 445.312C592.564 446.094 594.908 449.805 596.763 453.516C598.619 457.324 600.963 461.23 601.841 462.305C604.185 465.039 609.947 468.457 614.439 469.824C621.861 471.973 623.912 475.684 621.08 481.25C617.759 487.598 611.509 490.137 603.502 488.379C598.521 487.305 597.349 487.402 591.588 489.258C582.603 492.285 579.478 495.117 579.478 500.488C579.478 506.543 582.017 509.18 591.002 512.109C602.134 515.918 609.849 524.219 612.095 534.863C612.877 538.477 617.759 541.992 621.763 541.992C625.767 541.992 636.119 548.438 643.15 555.371C649.498 561.621 650.963 563.965 652.134 569.531C652.525 571.289 653.404 572.266 654.478 572.266C656.92 572.266 665.123 582.129 668.052 588.574C669.42 591.699 671.373 595.117 672.349 596.191C673.423 597.266 675.279 599.512 676.646 601.27C679.673 604.98 684.361 606.738 691.685 606.738C695.201 606.836 698.521 607.52 701.06 608.789C704.283 610.547 705.259 611.816 707.213 616.992C708.58 620.41 710.435 623.535 711.607 624.121C712.681 624.707 717.369 625.488 721.959 625.781C728.99 626.172 730.845 626.66 733.189 628.613C736.998 631.836 741.978 634.18 748.619 636.133C756.92 638.477 758.775 643.359 752.916 647.852C751.06 649.219 748.423 652.441 746.959 654.98C744.127 660.059 744.224 663.086 747.056 668.457C747.935 670.02 748.716 673.047 748.814 675C748.912 677.93 748.521 678.711 746.959 678.906C745.298 679.199 745.005 679.883 745.201 683.301C745.298 686.816 744.908 687.793 742.466 689.941C738.56 693.164 735.045 693.066 730.259 689.453C723.912 684.863 721.666 684.277 718.638 686.719C717.173 687.891 714.83 688.672 713.463 688.672C711.998 688.574 703.013 688.379 693.443 688.281L675.963 687.988L673.912 685.449C670.298 681.055 664.537 680.371 655.259 683.008C646.275 685.645 640.025 692.285 637.486 701.758C633.873 715.82 627.623 726.172 621.763 728.027C620.494 728.32 619.517 729.199 619.517 729.883C619.517 730.566 618.15 731.152 616.392 731.152C614.634 731.25 611.119 731.348 608.677 731.445C606.236 731.445 603.013 731.055 601.548 730.469C599.986 729.883 596.763 729.688 594.224 730.078C590.513 730.566 588.853 730.176 584.947 728.125C581.236 726.172 578.795 725.586 574.009 725.586C568.541 725.586 567.564 725.879 563.853 729.004C559.947 732.324 555.943 733.301 553.502 731.641C551.646 730.469 550.767 726.367 552.232 725.488C552.916 725.098 553.306 724.512 553.111 724.316C552.818 724.121 546.08 722.363 537.974 720.41C523.912 717.09 522.838 716.992 512.584 717.773C501.06 718.555 494.615 719.922 493.541 721.68C493.15 722.266 491.392 723.145 489.537 723.633C487.681 724.121 485.24 724.805 484.166 725.098C482.603 725.586 481.236 725 478.99 722.754C477.33 721.094 475.474 719.727 474.888 719.727C474.4 719.727 473.521 718.652 473.033 717.285C471.861 714.355 468.638 712.695 459.556 710.449C452.037 708.691 449.791 708.789 442.759 711.426C439.439 712.695 436.9 712.891 432.017 712.402C428.502 712.012 422.838 711.426 419.322 711.133C414.537 710.645 411.705 709.668 408.091 707.324C405.357 705.664 401.939 704.004 400.279 703.613C398.716 703.32 395.201 702.441 392.466 701.66C386.314 700 378.599 698.438 370.787 697.266C367.369 696.777 362.877 695.898 360.826 695.312C358.189 694.629 356.236 694.629 354.381 695.312C352.525 695.996 349.986 695.996 346.275 695.312C336.607 693.555 332.31 694.043 325.474 697.656C317.662 701.758 304.185 704.59 298.619 703.32C295.982 702.734 293.443 702.832 290.611 703.613C286.9 704.785 286.216 704.688 284.068 702.93C281.041 700.586 280.943 697.363 283.677 693.945C286.119 690.918 285.435 689.648 281.041 689.16C279.478 688.965 277.623 688.574 277.037 688.184C276.353 687.793 275.572 687.988 275.181 688.574C274.693 689.355 274.4 689.355 273.814 688.574C273.326 687.695 272.447 687.695 270.396 688.477C268.443 689.16 267.369 689.16 266.392 688.379C265.709 687.793 264.634 687.695 263.951 688.086C263.267 688.477 262.974 688.281 263.267 687.402C263.56 686.621 265.025 686.035 266.588 686.035C268.15 686.035 271.275 685.449 273.521 684.766C277.72 683.496 279.966 681.641 277.33 681.641C276.451 681.641 275.767 681.152 275.767 680.664C275.767 679.004 279.966 679.59 283.384 681.641C286.802 683.789 290.416 684.18 291.978 682.617C292.564 682.031 295.591 682.129 300.67 683.008C304.966 683.789 309.263 683.984 310.435 683.594C312.681 682.715 319.713 675.391 319.713 673.828C319.713 670.801 300.377 672.168 291.588 675.879C286.998 677.832 285.923 677.93 280.943 676.855C272.74 675.195 270.787 675.488 265.416 678.906C261.314 681.641 260.923 682.129 262.877 682.422C264.048 682.617 265.025 683.105 265.025 683.496C265.025 684.57 250.377 689.551 249.302 688.867C248.716 688.574 247.74 688.77 247.056 689.355C245.103 691.016 241.295 690.234 239.341 687.695C237.095 684.961 221.861 677.539 220.689 678.711C220.201 679.199 219.029 679.102 218.15 678.418C216.881 677.637 214.048 677.637 208.482 678.32C201.256 679.199 200.572 679.102 200.572 677.539C200.572 676.465 199.791 675.781 198.619 675.781C197.545 675.781 196.666 675.098 196.666 674.316C196.666 673.438 196.08 673.145 195.201 673.438C194.224 673.828 193.736 673.438 193.736 672.07C193.736 669.238 191.978 668.457 189.927 670.312C188.365 671.68 187.974 671.582 184.556 669.141C181.041 666.602 180.162 666.504 169.42 666.406C158.482 666.309 147.545 664.551 142.662 662.012C137.193 659.082 127.33 650.977 127.33 649.316C127.33 648.242 126.353 647.266 124.888 646.875C123.619 646.582 122.056 645.703 121.373 644.922C120.787 644.141 119.224 643.555 118.052 643.555C116.881 643.555 114.341 642.969 112.584 642.188C110.728 641.504 105.552 640.332 100.963 639.648C94.2243 638.672 91.5876 638.672 86.8024 639.746C83.5798 640.43 79.9665 640.918 78.7946 640.82C77.3298 640.625 75.6696 641.797 73.5212 644.531C69.8102 649.023 68.443 649.316 66.1969 645.996C64.2438 643.066 60.9235 642.773 60.2399 645.508C59.654 647.754 59.7516 647.754 56.7243 646.582C53.9899 645.508 48.5212 647.07 42.2712 650.684C39.0485 652.539 38.1696 652.637 35.4352 651.66C32.6032 650.586 32.2126 650.684 30.4547 652.832C29.3805 654.199 27.9157 655.273 27.1344 655.273C24.5954 655.273 19.029 659.668 18.443 662.109C17.9547 663.965 18.3454 664.941 20.2985 666.504C21.6657 667.676 22.8376 669.141 22.8376 669.922C22.8376 671.875 18.1501 681.738 16.2946 683.789C15.4157 684.766 15.1227 685.547 15.5133 685.547C16.0016 685.547 15.318 686.719 13.9508 688.086C12.3883 689.746 11.7047 691.406 11.9001 693.457C12.193 695.508 11.4118 697.363 9.26334 700.098C6.236 703.906 5.45475 706.055 7.1149 706.055C9.361 706.055 9.26334 710.254 6.91959 713.672C2.81803 719.727 -0.404628 727.441 0.181309 729.98C0.571934 732.031 1.5485 733.008 2.62272 732.227C3.50162 731.641 7.50553 734.961 8.6774 737.402C9.94693 739.844 10.0446 741.016 9.16568 743.75C8.28678 746.289 8.28678 747.461 9.16568 748.535C9.84928 749.316 10.0446 751.074 9.75162 752.734C8.87271 756.25 11.1188 758.301 17.1735 759.668C22.9352 760.938 26.7438 762.695 26.8415 764.062C26.9391 764.648 27.0368 766.016 27.1344 767.09C27.2321 768.359 28.0133 769.141 29.4782 769.336C30.7477 769.531 33.1891 771.094 34.8493 772.949C37.2907 775.488 39.6344 776.562 46.2751 778.223C50.8649 779.395 55.6501 780.273 56.9196 780.273C58.1891 780.273 62.9743 778.32 67.4665 775.879C74.4001 772.07 76.3532 771.484 81.236 771.484C86.0212 771.484 87.2907 771.875 89.2438 773.926C91.0993 775.879 92.4665 776.367 96.2751 776.367C100.67 776.367 101.353 776.66 106.334 781.738C109.361 784.668 112.584 787.109 113.56 787.109C116.783 787.109 133.58 795.215 136.314 798.047C137.681 799.512 139.537 800.781 140.513 800.781C142.271 800.781 147.838 806.445 147.838 808.301C147.838 808.984 148.326 809.57 148.912 809.57C149.498 809.57 151.256 810.645 152.916 812.012C154.478 813.379 156.334 814.453 157.115 814.453C157.799 814.453 158.58 815.137 158.97 815.918C159.263 816.699 160.631 817.871 161.9 818.457C163.267 819.141 164.732 820.801 165.318 822.363C166.002 824.512 166.978 825.098 169.517 825.391C172.154 825.586 172.838 826.172 173.033 828.125C173.424 831.152 178.795 836.914 181.236 836.914C183.384 836.914 186.9 842.383 186.9 845.801C186.9 847.461 188.267 849.707 190.806 852.344C193.736 855.371 194.713 857.031 194.713 859.57C194.713 861.523 195.884 864.453 197.545 866.992C199.107 869.336 200.181 872.07 199.888 872.949C199.009 876.172 205.455 877.734 220.103 877.734C235.24 877.734 240.025 876.758 239.146 873.926C238.756 872.656 238.951 872.07 240.025 872.07C243.15 872.07 241.588 868.262 237.193 865.234C234.752 863.574 231.92 860.449 230.845 858.398C229.771 856.25 227.525 853.809 225.963 853.027C224.4 852.246 222.349 850.195 221.47 848.535C220.103 845.703 220.103 845.117 221.568 841.309C224.205 834.277 238.267 823.145 247.838 820.508C250.767 819.629 262.486 812.402 264.048 810.449C264.341 810.059 266.002 809.473 267.759 809.082C269.713 808.691 270.884 807.91 270.591 807.227C270.298 806.543 270.689 804.688 271.47 802.93C272.642 800.195 273.228 799.805 276.646 799.805C278.795 799.805 280.65 800.293 280.845 800.977C281.529 803.027 286.216 800.293 287.974 796.875C289.244 794.336 289.83 794.043 291.002 795.02C293.15 796.777 292.662 798.34 288.463 802.832C284.068 807.617 283.384 810.059 286.802 809.082C291.685 807.617 293.834 805.176 294.127 800.586C294.42 796.387 294.615 796.094 297.545 795.508C304.088 794.141 305.552 794.336 305.845 796.582C306.041 797.852 305.455 799.121 304.283 799.707C302.134 800.879 299.888 806.25 300.767 807.812C301.548 808.984 307.603 808.105 309.556 806.543C310.338 805.859 310.728 804.59 310.338 803.125C309.459 799.512 311.705 800.293 313.267 804.199C314.83 807.91 317.564 808.691 319.713 806.152C320.787 804.883 320.396 803.906 317.759 800.098C313.951 794.824 314.537 792.773 320.298 791.895C325.377 791.016 327.037 792.09 328.99 797.363C330.65 801.66 330.845 801.758 334.947 801.758C339.537 801.758 342.173 800.977 342.173 799.707C342.173 799.219 341.49 798.828 340.709 798.828C338.463 798.828 338.951 797.266 341.881 794.922C343.345 793.75 345.591 792.969 347.056 793.066C348.423 793.262 350.474 792.773 351.744 792.09C353.013 791.406 354.478 791.113 355.162 791.309C355.845 791.504 356.822 791.016 357.408 790.137C358.287 788.965 358.873 788.867 359.947 789.746C360.728 790.43 362.291 790.723 363.463 790.332C364.732 790.039 365.611 790.234 365.611 790.918C365.611 791.602 367.173 792.773 369.029 793.555C373.326 795.312 373.619 795.312 373.228 793.262C373.033 792.188 374.009 791.113 375.572 790.234C377.134 789.551 378.599 787.891 378.892 786.523C379.381 784.668 380.162 784.18 382.31 784.18C385.435 784.18 387.291 786.719 385.24 788.086C383.775 788.867 389.732 792.969 392.369 792.969C394.81 792.969 394.224 795.801 391.002 798.828C387.388 802.148 385.923 807.617 388.56 807.617C389.537 807.617 391.099 806.934 392.076 806.055C393.443 804.785 394.224 804.785 395.884 805.664C397.642 806.641 399.205 806.445 404.088 804.883C416.392 800.781 420.298 800.879 422.252 805.762C423.423 808.398 423.912 808.691 428.013 808.691C430.455 808.691 437.974 808.984 444.713 809.473C454.576 810.059 458.091 810.645 462.779 812.695C473.033 817.188 482.408 819.043 502.623 820.898C506.041 821.289 509.459 820.996 511.119 820.312C513.463 819.336 514.244 819.434 516.685 821.191C520.103 823.633 529.576 826.172 535.533 826.172C540.123 826.172 548.033 828.418 551.646 830.664C552.72 831.348 555.357 832.129 557.505 832.52C559.654 832.91 562.681 833.594 564.146 834.18C566.197 834.961 567.466 834.961 569.322 833.887C571.373 832.812 572.447 832.812 576.158 834.277C579.38 835.449 581.138 835.645 582.994 834.961C584.361 834.375 586.998 833.984 588.755 833.984C591.588 833.984 592.271 833.594 592.759 831.543C593.443 828.711 594.42 828.613 599.791 830.469C601.939 831.25 603.99 831.641 604.283 831.348C604.576 830.957 603.795 829.297 602.427 827.539C600.084 824.512 600.084 824.316 601.841 822.168C603.599 820.02 603.697 820.02 607.701 821.582C612.193 823.438 618.052 823.73 619.029 822.266C619.322 821.777 620.982 821.387 622.74 821.484C624.498 821.582 626.939 820.996 628.209 820.41C629.478 819.727 631.724 819.434 633.287 819.727C634.752 820.02 637.584 819.629 639.439 818.848C642.564 817.48 643.443 817.578 650.474 819.727C654.673 821.094 659.166 822.07 660.533 822.07C661.9 822.07 665.025 822.852 667.466 823.828C671.763 825.488 672.154 825.488 674.595 823.926C677.525 821.973 678.013 817.969 675.474 816.602C674.595 816.016 673.326 813.477 672.642 810.938C671.568 806.836 671.666 805.957 672.935 804.395C675.377 801.855 678.697 802.441 682.896 806.152C684.947 808.008 686.998 809.57 687.486 809.57C687.974 809.57 690.123 808.594 692.271 807.52C695.396 805.859 696.47 805.664 697.935 806.543C699.107 807.324 700.181 807.422 700.865 806.836C701.548 806.25 704.283 805.664 706.92 805.371C709.654 805.078 716.685 804.297 722.545 803.613C728.502 802.832 738.365 802.246 744.615 802.246C754.283 802.344 756.334 802.539 759.068 804.297C762.095 806.25 762.584 806.25 768.248 804.883C773.716 803.613 775.181 803.711 783.189 805.273C791.685 806.934 792.271 806.934 798.814 805.176C802.72 804.199 809.849 803.32 815.806 803.125C821.47 803.027 828.697 802.246 832.017 801.465C840.025 799.512 851.841 800.488 853.306 803.223C856.236 808.496 864.439 813.477 865.416 810.742C866.002 808.984 868.345 809.375 871.373 811.523C872.935 812.793 877.427 814.16 882.31 815.039C893.345 816.895 893.15 816.895 897.545 821.582C899.693 823.828 903.99 827.441 907.017 829.59C910.142 831.738 917.271 837.988 922.838 843.359C931.138 851.562 932.994 853.809 932.994 856.152C932.994 858.594 934.361 860.156 942.174 866.504C947.252 870.605 951.646 874.023 951.939 874.023C952.232 874.023 952.525 873.34 952.525 872.559C952.525 871.777 953.502 870.215 954.771 869.141C955.943 867.969 957.017 865.918 957.115 864.453C957.213 862.988 957.506 859.277 957.701 856.152C958.189 851.27 957.994 850.586 956.627 850.781C954.576 851.172 953.795 846.289 955.455 844.238C956.822 842.578 954.966 838.574 951.158 835.059C949.791 833.691 948.619 832.129 948.619 831.445C948.619 830.762 947.349 829.395 945.787 828.516C940.416 825.391 941.588 815.527 947.935 809.18C949.302 807.812 950.67 805.371 951.06 803.711C951.451 802.148 952.525 800.293 953.502 799.805C954.576 799.219 955.064 798.145 954.771 797.07C954.185 794.824 960.24 784.473 962.584 783.887C963.658 783.496 964.244 782.422 964.244 780.469C964.244 778.906 964.927 777.051 965.709 776.367C966.49 775.684 967.174 774.219 967.174 773.145C967.174 772.07 968.443 768.848 970.006 766.016C971.666 763.281 972.642 760.742 972.349 760.449C972.056 760.156 970.591 760.059 969.127 760.449C966.978 760.84 966.099 760.449 965.22 758.789C964.341 757.129 963.56 756.836 961.412 757.324C958.58 757.91 948.521 754.199 947.252 752.051C946.861 751.465 945.494 750.977 944.224 750.977C942.857 750.977 940.318 749.414 937.877 747.07C935.631 744.922 932.115 742.773 930.064 742.188C926.158 741.113 924.107 738.867 924.888 736.523C925.572 734.766 919.42 728.516 917.076 728.516C914.146 728.516 903.697 723.535 903.697 722.07C903.697 721.387 902.818 720.508 901.744 720.215C898.912 719.336 897.642 716.211 898.326 711.914C898.814 708.887 899.498 707.91 901.841 707.129C903.404 706.641 904.674 705.957 904.674 705.566C904.674 704.785 890.611 706.152 889.634 707.129C887.974 708.594 886.314 708.105 882.701 704.98C879.771 702.441 879.283 701.367 879.283 697.754C879.283 695.02 878.599 692.773 877.134 690.918C875.279 688.574 874.693 688.379 871.08 688.867C868.931 689.258 866.783 690.234 866.295 690.918C865.123 692.969 863.267 692.676 860.045 690.039C858.58 688.77 855.65 687.012 853.599 686.23C851.646 685.352 849.986 684.082 849.888 683.398C849.595 680.273 850.279 677.246 851.646 675.098C853.013 673.047 852.916 672.656 850.377 669.629C848.814 667.871 846.666 664.844 845.689 662.988C843.834 659.473 843.834 659.375 845.689 655.664C846.666 653.613 848.716 651.27 850.181 650.488C853.795 648.438 856.92 650.098 860.826 656.152C864.341 661.523 865.513 662.402 867.662 661.035C868.736 660.352 868.638 659.961 867.076 658.789C864.439 656.836 866.099 654.199 870.494 653.027C872.349 652.539 875.279 650.879 877.037 649.316C880.845 645.996 884.459 645.703 886.412 648.438C887.193 649.512 887.974 650.098 888.365 649.805C888.658 649.512 889.83 649.805 891.099 650.391C892.955 651.465 893.931 651.27 896.666 649.805C899.986 648.047 899.986 648.047 901.744 650.195C902.916 651.66 903.697 651.953 903.99 651.172C904.674 649.316 907.994 651.562 908.384 654.199C908.775 656.836 911.119 656.836 912.486 654.297C913.072 653.223 914.537 652.344 915.806 652.344C918.834 652.344 924.205 654.297 924.205 655.371C924.205 656.934 926.939 656.348 927.525 654.688C928.013 653.516 928.892 653.223 931.041 653.613C934.166 654.297 935.826 652.832 934.068 651.074C933.482 650.488 932.994 647.656 932.994 644.824C932.994 637.891 935.924 632.129 940.416 630.273C942.271 629.492 943.736 628.32 943.736 627.539C943.736 625.879 946.763 623.926 952.818 621.582C956.529 620.215 957.408 619.434 957.408 617.578C957.408 616.309 958.189 614.453 959.166 613.477C960.338 612.207 960.826 610.156 960.826 605.469C960.924 601.465 961.509 597.852 962.584 595.801C963.56 593.848 963.951 591.602 963.658 590.137C963.267 588.77 963.56 586.719 964.244 585.352C965.318 583.398 965.318 582.715 964.049 581.348C961.9 578.906 961.119 574.316 962.291 570.41C963.267 566.797 962.779 565.039 961.314 567.383C960.045 569.434 956.334 565.82 956.92 563.086C957.31 561.328 956.529 560.645 951.646 558.496L945.884 555.859L945.299 550.195C944.908 546.973 944.615 542.969 944.615 541.211C944.615 538.379 944.322 538.086 941.49 538.086C936.607 538.086 929.576 535.645 929.283 533.789C928.892 532.227 925.572 531.641 923.619 533.008C923.033 533.398 922.349 534.473 921.959 535.449C921.568 536.523 920.591 537.109 919.615 536.914C918.443 536.719 917.466 537.5 916.685 539.258C915.416 542.188 913.072 542.871 912.095 540.527C911.802 539.746 911.119 539.062 910.533 539.062C910.045 539.062 909.556 539.746 909.556 540.527C909.556 541.309 908.677 541.992 907.603 541.992C905.259 541.992 904.966 538.867 907.115 537.109C907.896 536.426 908.58 534.863 908.58 533.496C908.58 532.227 909.263 529.785 910.142 528.125C911.412 525.586 912.095 525.293 914.439 525.684C916.783 526.172 917.271 525.879 917.759 523.926C918.638 520.605 924.302 517.969 927.037 519.727C928.697 520.801 929.478 520.703 932.115 519.141C935.045 517.383 935.338 517.383 936.412 518.945C938.267 521.387 940.123 520.898 939.439 518.164C939.049 516.699 939.439 515.43 940.318 514.648C941.099 513.965 941.783 512.793 941.783 512.109C941.783 511.426 942.955 510.059 944.517 509.082C945.982 508.203 948.521 506.152 950.279 504.59C951.939 503.027 953.795 502.051 954.381 502.344C954.966 502.734 955.943 502.539 956.627 502.051C957.31 501.465 959.459 499.707 961.412 498.047C963.365 496.484 965.709 495.117 966.588 495.117C967.955 495.117 967.955 494.824 966.978 493.262C966.002 491.699 966.099 491.016 967.466 489.453C969.42 487.305 969.517 486.035 967.955 483.398C966.881 481.738 966.978 481.25 968.15 480.469C970.494 478.906 974.986 479.297 974.986 480.957C974.986 482.91 975.963 482.812 978.502 480.371C980.357 478.711 980.943 478.516 982.603 479.59C984.263 480.566 984.849 480.566 986.119 479.59C988.658 477.441 993.638 467.578 992.662 466.406C991.197 464.453 991.685 458.594 993.541 455.566C994.713 453.613 995.201 451.66 994.81 450.195C994.322 448.438 994.81 447.363 997.056 445.703L999.888 443.457L996.47 439.941C994.615 437.988 991.978 436.23 990.611 435.84C989.244 435.547 987.584 434.863 986.998 434.375C986.314 433.789 985.045 433.691 984.166 433.984C983.287 434.375 981.529 433.984 980.259 433.105C978.795 432.227 976.939 431.836 975.084 432.227C971.373 433.008 969.908 431.836 966.49 425.684C964.537 421.973 963.56 420.996 962.095 421.484C959.849 422.168 953.013 418.359 950.963 415.234C949.986 413.77 949.693 411.914 950.084 410.156C950.572 407.812 950.279 407.031 948.228 405.762C946.861 404.785 945.689 403.32 945.689 402.344C945.689 401.27 944.517 400.195 942.759 399.512C941.197 399.023 939.83 398.145 939.83 397.559C939.83 396.387 945.201 394.531 948.521 394.531C951.744 394.531 953.404 393.457 954.869 390.527C955.552 389.16 956.92 388.184 958.091 388.184C959.263 388.184 961.119 387.207 962.291 385.938C963.951 384.18 965.318 383.691 968.248 383.887C973.131 384.277 973.814 383.398 971.666 379.395C970.006 376.367 970.006 375.781 971.275 373.828C972.252 372.266 972.447 371.094 971.861 370.117C971.177 369.043 971.763 366.797 973.912 362.305C976.841 356.25 976.841 355.957 975.084 354.004C974.107 352.93 972.642 350 971.666 347.461C970.201 343.555 970.201 342.285 971.177 338.867C972.349 335.156 972.252 334.766 969.81 332.227C968.345 330.664 967.174 328.516 967.174 327.344C967.174 326.172 966.295 324.707 965.22 324.023C964.146 323.34 963.267 321.875 963.267 320.703C963.267 319.629 961.998 317.48 960.435 316.016C957.994 313.672 957.701 312.988 958.677 311.426C959.654 309.863 959.459 309.375 957.603 308.105C955.259 306.348 954.771 303.809 956.627 301.953C957.506 301.074 957.603 300.293 956.822 299.023C956.236 298.145 955.162 295.02 954.478 292.188C953.404 287.598 953.502 286.816 954.966 285.156C957.506 282.324 955.943 275 952.72 274.609C950.279 274.219 946.666 268.164 946.666 264.258C946.666 261.621 947.252 261.816 933.287 259.766C929.478 259.277 924.888 258.789 923.326 258.789C920.396 258.789 920.299 258.887 920.299 263.184C920.299 266.406 920.689 267.578 921.763 267.578C924.498 267.578 930.845 270.703 931.529 272.266C931.92 273.242 931.431 274.414 930.455 275.098C929.478 275.781 928.697 277.734 928.697 279.492C928.599 282.52 926.158 284.766 926.158 281.738C926.158 280.859 925.181 278.906 924.009 277.344C922.154 274.805 921.47 274.512 917.369 274.805C914.83 275 911.607 275.879 910.142 276.855C907.603 278.516 907.506 278.516 905.162 276.367C903.892 275.195 902.427 274.512 901.841 274.902C901.256 275.195 900.767 275.098 900.767 274.512C900.767 274.023 901.256 273.242 901.939 272.852C902.623 272.363 902.33 271.875 900.963 271.387C899.791 270.898 898.814 270.215 898.814 269.629C898.814 268.066 902.33 267.773 905.552 269.141C908.287 270.312 908.873 270.215 910.533 268.555C912.388 266.699 913.658 266.211 916.002 266.504C917.564 266.699 918.541 260.742 917.271 259.18C916.685 258.398 914.732 257.812 913.072 257.812C911.412 257.812 907.408 257.129 904.185 256.25C900.963 255.469 895.591 254.492 892.369 254.102C887.193 253.418 886.216 253.613 885.24 255.078C884.263 256.543 883.97 256.445 881.334 253.809C878.697 251.27 877.916 250.977 874.693 251.562C869.322 252.539 868.541 253.516 868.541 259.375V264.648L864.927 264.551C857.506 264.551 852.33 265.137 850.181 266.406C848.326 267.48 847.447 267.48 845.103 266.406C842.466 265.332 842.369 265.039 843.736 263.574C844.81 262.305 846.177 262.012 848.619 262.402L851.939 262.988L851.451 257.812C851.06 252.93 849.009 249.512 848.131 252.246C847.935 252.93 846.666 254.688 845.494 256.152C844.224 257.715 843.15 259.57 843.15 260.254C843.15 261.816 839.634 264.062 838.365 263.281C837.877 262.988 837.291 261.816 836.998 260.742C836.607 259.082 836.998 258.789 839.244 258.789C841.197 258.789 842.271 258.203 842.662 256.836C842.955 255.762 843.736 254.883 844.224 254.883C844.713 254.883 845.103 254.395 845.103 253.906C845.103 252.344 840.025 252.832 838.072 254.59C836.9 255.664 836.314 255.762 836.314 254.98C836.314 254.102 835.435 253.906 833.384 254.395C829.283 255.273 822.056 251.855 820.494 248.34C819.029 245.02 817.955 244.141 814.927 244.141C813.072 244.141 812.877 244.434 813.853 245.605C815.806 247.949 814.146 248.926 810.338 247.754C807.701 246.973 806.431 246.973 804.966 247.852C802.623 249.316 796.959 249.316 795.494 247.852C794.615 246.973 794.322 247.07 794.322 248.34C794.322 249.219 793.931 250 793.345 250C792.857 250 792.369 249.805 792.369 249.512C792.369 248.633 794.713 244.727 795.884 243.652C796.568 243.164 797.349 240.332 797.642 237.5C798.423 231.738 797.935 231.445 789.83 233.496C786.509 234.375 785.24 234.375 784.068 233.398C781.92 231.641 779.38 233.008 779.966 235.449C780.455 237.207 780.162 237.402 778.111 237.012C776.158 236.719 775.767 237.012 775.767 238.867C775.767 241.992 774.498 242.48 769.908 241.113C766.685 240.137 765.22 240.137 762.486 241.113C759.556 242.188 758.677 242.09 756.627 240.723L754.185 239.16L755.748 242.188C757.213 245.117 757.213 245.41 755.65 246.484C754.088 247.656 754.185 247.754 756.236 248.34C757.701 248.73 758.091 249.316 757.603 250.195C757.115 250.879 756.724 253.613 756.724 256.348C756.724 260.645 756.431 261.23 754.576 261.523C751.353 262.012 747.935 258.008 746.47 252.051C745.591 248.145 745.494 246.68 746.373 245.801C747.252 244.922 747.74 244.922 748.326 245.996C748.912 246.875 749.4 246.973 749.791 246.191C750.181 245.605 750.181 245.117 749.693 245.117C749.302 245.117 747.935 242.969 746.763 240.43C745.103 236.914 743.052 234.668 738.267 231.152C732.994 227.441 731.822 226.074 731.822 223.926V221.191L730.552 223.633C728.404 227.93 722.154 227.441 717.271 222.656C715.611 220.996 714.146 220.117 713.755 220.703C712.291 223.047 704.478 220.996 704.478 218.262C704.478 216.211 703.209 216.406 701.744 218.75C700.181 221.387 699.205 221.191 696.177 218.066C693.541 215.137 692.857 216.016 695.201 219.141C697.545 222.266 696.861 222.949 693.736 220.703C692.173 219.531 690.806 218.066 690.806 217.285C690.806 216.602 690.22 214.941 689.537 213.574C688.365 211.328 688.072 211.23 686.802 212.5C685.533 213.77 684.459 213.184 678.404 207.617C674.595 204.199 671.666 201.172 671.861 200.879C672.154 200.586 670.787 199.414 668.834 198.242C666.978 197.07 664.927 195.215 664.341 194.141C663.365 192.383 662.681 192.285 658.775 192.871C649.888 194.238 646.763 193.945 644.517 191.309C643.345 189.941 641.88 188.965 641.392 189.16C640.806 189.355 639.537 188.574 638.56 187.5C637.584 186.426 635.826 185.547 634.556 185.547C633.287 185.547 632.115 185.156 631.822 184.668C631.529 184.18 629.869 183.594 628.111 183.301C626.353 183.105 622.447 181.836 619.517 180.664C616.588 179.492 612.193 178.125 609.752 177.637C607.408 177.148 602.427 175.781 598.814 174.609C593.052 172.754 591.588 172.656 587.974 173.535C585.435 174.219 583.482 174.316 582.994 173.73C581.431 172.266 579.088 172.754 577.818 174.805ZM558.58 183.105C560.338 184.375 560.24 184.473 556.822 184.57C554.185 184.57 553.111 184.18 553.111 183.105C553.111 181.25 556.041 181.25 558.58 183.105ZM945.689 268.262C945.689 268.75 944.615 270.02 943.345 271.289C941.881 272.656 941.099 274.316 941.295 275.879C941.49 277.637 941.002 278.32 939.83 278.32C937.779 278.32 936.509 275.781 937.974 274.805C938.56 274.512 938.853 273.145 938.56 271.777C938.267 270.117 938.463 269.531 939.341 269.922C940.025 270.117 941.392 269.727 942.466 269.043C944.42 267.48 945.689 267.188 945.689 268.262ZM630.259 381.055C630.259 383.301 628.697 384.863 627.037 384.18C625.084 383.496 624.986 382.617 626.548 381.055C628.111 379.492 630.259 379.59 630.259 381.055ZM635.63 384.375C637.877 389.844 637.584 391.309 634.166 391.211C632.213 391.113 631.041 390.43 630.357 388.867C629.283 386.523 630.162 386.035 632.017 387.891C632.896 388.77 633.189 388.77 633.189 387.598C633.189 386.816 632.701 385.645 632.213 385.156C631.041 383.984 631.92 380.859 633.287 380.859C633.775 380.859 634.849 382.422 635.63 384.375ZM623.423 393.555C623.423 394.043 623.228 394.531 623.033 394.531C622.74 394.531 622.252 394.043 621.959 393.555C621.666 392.969 621.861 392.578 622.349 392.578C622.935 392.578 623.423 392.969 623.423 393.555ZM652.427 395.898C652.037 396.777 651.255 397.461 650.572 397.461C649.693 397.461 649.693 397.168 650.474 396.387C651.06 395.801 651.353 394.531 651.06 393.652C650.572 392.383 650.767 392.383 651.744 393.262C652.427 393.848 652.72 395.117 652.427 395.898ZM604.869 397.559C604.869 398.047 604.478 398.438 603.892 398.438C603.404 398.438 602.916 397.754 602.916 396.875C602.916 396.094 603.404 395.703 603.892 395.996C604.478 396.289 604.869 396.973 604.869 397.559ZM623.814 399.023C625.572 399.707 625.963 403.711 624.205 403.125C623.619 402.93 622.74 401.758 622.349 400.586C621.47 398.242 621.568 398.145 623.814 399.023ZM618.541 400.391C618.541 400.879 618.052 401.367 617.466 401.367C616.978 401.367 616.783 400.879 617.076 400.391C617.369 399.805 617.857 399.414 618.15 399.414C618.345 399.414 618.541 399.805 618.541 400.391ZM606.822 517.578C606.822 518.066 606.627 518.555 606.431 518.555C606.138 518.555 605.65 518.066 605.357 517.578C605.064 516.992 605.259 516.602 605.748 516.602C606.334 516.602 606.822 516.992 606.822 517.578ZM869.615 552.344C871.08 553.906 871.373 554.59 870.299 554.199C869.42 553.809 868.443 554.004 868.052 554.59C867.759 555.176 866.685 555.664 865.806 555.664C863.756 555.762 858.775 559.961 858.775 561.621C858.775 562.305 857.408 561.621 855.845 560.059C854.185 558.496 853.209 556.934 853.599 556.641C854.088 556.25 857.115 554.98 860.533 553.613C863.853 552.344 866.588 550.977 866.588 550.586C866.588 549.316 867.076 549.609 869.615 552.344ZM878.013 555.859C877.72 556.641 877.427 556.348 877.427 555.273C877.33 554.199 877.623 553.613 877.916 554.004C878.209 554.297 878.306 555.176 878.013 555.859ZM898.521 557.129C898.131 557.91 896.861 558.594 895.689 558.496H893.443L895.689 557.617C896.861 557.129 897.838 556.152 897.838 555.566C897.838 554.883 898.131 554.59 898.424 554.98C898.814 555.273 898.814 556.25 898.521 557.129ZM902.037 557.422C901.06 558.398 900.084 559.082 899.888 558.984C899.302 558.496 901.841 555.664 902.818 555.664C903.306 555.664 902.916 556.445 902.037 557.422ZM878.306 560.449C878.306 563.672 877.134 565.527 875.67 564.648C873.912 563.574 875.181 556.641 876.939 557.324C877.72 557.617 878.306 558.984 878.306 560.449ZM883.873 562.305C882.603 563.672 882.506 564.355 883.384 565.234C884.947 566.797 884.166 567.285 880.845 566.699L878.013 566.113L881.334 563.379C885.142 560.156 886.119 559.766 883.873 562.305ZM900.963 564.941C901.841 565.332 902.232 566.504 901.939 568.164C901.646 570.312 901.06 570.801 898.521 571.094C893.248 571.484 892.174 571.777 890.318 573.535C888.56 575 888.463 575 888.267 572.266C888.072 569.141 887.974 569.141 896.373 568.945C898.716 568.848 899.302 568.457 899.205 566.602C899.107 564.16 899.107 564.258 900.963 564.941ZM819.713 650.879C821.47 652.734 822.74 654.59 822.349 654.883C821.373 655.859 811.607 653.906 811.216 652.637C810.826 651.562 814.537 647.461 815.806 647.461C816.099 647.461 817.857 649.023 819.713 650.879ZM499.693 735.059C500.084 736.035 501.353 738.086 502.525 739.551C504.771 742.285 504.771 742.383 502.916 743.75C500.572 745.41 495.103 746.484 492.955 745.703C491.588 745.215 491.685 744.824 493.443 742.578C494.615 741.113 495.494 739.453 495.494 738.77C495.494 738.086 496.177 737.207 497.056 736.914C497.935 736.523 498.423 735.645 498.033 734.863C497.74 734.082 497.838 733.398 498.326 733.398C498.814 733.398 499.4 734.18 499.693 735.059ZM520.884 738.77C520.884 739.746 519.908 740.234 518.345 740.234C516.197 740.234 515.904 740.039 516.978 738.77C517.662 737.988 518.834 737.305 519.517 737.305C520.298 737.305 520.884 737.988 520.884 738.77ZM221.08 772.461C221.08 772.949 220.689 773.438 220.103 773.438C219.615 773.438 219.127 772.949 219.127 772.461C219.127 771.875 219.615 771.484 220.103 771.484C220.689 771.484 221.08 771.875 221.08 772.461ZM237.681 776.367C237.681 776.855 237.291 777.344 236.705 777.344C236.216 777.344 235.728 776.855 235.728 776.367C235.728 775.781 236.216 775.391 236.705 775.391C237.291 775.391 237.681 775.781 237.681 776.367ZM408.775 795.508C410.631 796.68 409.263 797.461 405.455 797.461C402.134 797.363 401.158 796.973 400.963 795.508C400.572 793.848 400.963 793.75 404.283 794.434C406.431 794.824 408.384 795.312 408.775 795.508Z" fill="black"/>
<path d="M435.728 533.3C427.525 533.984 422.251 536.425 416.001 542.382C413.169 544.921 412.486 546.386 412.486 549.218C412.486 553.027 413.658 554.589 420.591 559.863C422.642 561.328 425.962 564.941 428.013 567.773C430.259 570.703 432.994 573.242 434.361 573.632C435.63 573.925 437.681 575.781 438.853 577.636C440.806 580.859 441.294 581.054 446.177 581.054C449.107 581.054 453.599 581.835 456.138 582.91C458.677 583.886 463.072 585.058 465.904 585.449C469.419 585.937 472.837 587.402 477.33 590.234C480.845 592.578 485.435 594.726 487.681 595.117C490.318 595.507 491.978 596.386 492.271 597.46C493.052 599.902 502.916 608.105 508.58 610.839C514.244 613.476 525.181 615.234 536.607 615.234C543.15 615.234 545.689 615.722 551.744 618.261C557.408 620.605 560.044 621.191 562.974 620.8C566.099 620.41 566.783 620.605 566.392 621.679C566.001 622.753 566.783 623.046 569.712 623.046C573.228 623.046 573.619 623.339 573.619 625.488C573.619 628.027 578.697 633.593 579.38 631.738C579.576 631.152 579.185 630.175 578.599 629.589C577.134 628.124 577.232 626.953 578.99 626.953C579.869 626.953 580.845 627.832 581.236 629.003C581.919 630.761 582.212 630.859 583.189 629.589C584.068 628.515 583.97 627.832 582.408 626.464C578.892 623.242 580.162 620.019 585.63 618.652C588.755 617.871 588.755 618.066 586.412 614.062C585.435 612.304 584.361 608.593 584.068 605.859C583.677 602.05 582.408 599.316 579.38 594.726C575.376 588.964 569.322 583.007 567.369 583.007C566.88 583.007 565.708 582.421 564.927 581.738C562.583 579.785 549.986 575.195 547.642 575.39C544.517 575.683 522.935 566.308 519.517 563.085C517.857 561.523 513.169 558.691 509.166 556.933C505.162 555.078 501.255 553.027 500.572 552.441C497.837 550.195 488.853 547.558 481.822 546.874C474.4 546.191 469.81 544.335 455.455 536.425C449.107 532.91 445.787 532.421 435.728 533.3Z" fill="black"/>
<path d="M246.958 652.444C242.564 654.983 238.658 659.573 238.658 662.21C238.658 664.846 240.806 667.971 242.662 667.971C243.248 667.971 245.494 668.85 247.642 669.925C249.888 670.999 252.427 671.878 253.306 671.878C254.185 671.878 255.259 672.268 255.845 672.854C257.115 674.124 265.806 669.925 269.029 666.409C274.4 660.452 273.423 658.499 263.56 654.69C255.65 651.663 249.693 650.882 246.958 652.444Z" fill="black"/>
<path d="M268.931 849.123C268.931 850.002 270.494 852.248 272.349 853.909C274.205 855.666 275.767 857.522 275.767 858.01C275.865 858.498 277.134 860.354 278.697 862.209C281.138 865.041 282.017 865.432 285.728 865.237C291.392 865.041 291.294 865.041 303.208 865.823C313.365 866.506 313.658 866.409 314.83 864.358C315.708 862.502 315.708 861.819 314.439 860.452C313.56 859.475 312.876 858.303 312.876 857.717C312.876 856.252 307.212 851.565 305.455 851.565C304.673 851.565 301.646 852.932 298.716 854.592C292.369 858.108 287.876 857.913 283.873 853.909C282.603 852.639 281.041 851.76 280.552 852.151C279.966 852.444 278.501 851.76 277.33 850.686C275.962 849.416 274.498 848.83 273.423 849.221C272.544 849.514 271.177 849.319 270.396 848.635C269.224 847.659 268.931 847.756 268.931 849.123Z" fill="black"/>
<circle cx="747" cy="682" fill="#5CE50D"/>
<circle cx="619" cy="349" fill="#E52A0D"/>
<circle cx="239" cy="712" fill="#E52A0D"/>
<circle cx="787" cy="256" fill="#E52A0D"/>
</svg>
