<svg width="1000" height="1000" viewBox="0 0 1000 1000" fill="none" xmlns="http://www.w3.org/2000/svg">
<rect width="1000" height="1000" />
<path d="M781.647 188.984C780.768 189.766 780.085 190.938 780.085 191.426C780.085 192.012 778.229 192.109 775.495 191.816C769.245 190.938 766.413 192.207 765.046 196.309C764.167 199.141 763.483 199.727 760.651 199.922C758.893 200.117 756.94 199.824 756.354 199.238C754.889 197.773 751.667 197.969 749.421 199.629C748.346 200.41 746.491 201.094 745.319 201.094C744.05 201.094 742.194 202.461 740.632 204.512C737.702 208.32 735.651 208.906 734.87 206.074C733.796 201.875 727.35 200.215 718.464 201.68C715.436 202.168 714.655 201.875 712.507 199.336C710.554 196.992 709.186 196.406 704.694 196.016C700.593 195.723 698.444 194.941 696.1 192.988C692.585 189.961 691.315 189.863 685.846 191.914C683.698 192.793 680.378 193.379 678.425 193.281C676.374 193.281 674.421 193.867 673.639 194.746C672.956 195.527 671.686 196.211 670.807 196.211C668.561 196.211 662.409 198.457 660.651 200.02C659.577 200.898 658.6 200.898 657.331 200.215C656.159 199.629 654.889 199.629 654.011 200.215C653.327 200.703 651.569 201.094 650.3 201.094C648.151 201.094 648.054 201.289 648.639 205.488C649.128 208.516 648.932 210.371 648.054 211.348C643.854 216.035 641.999 218.672 640.827 221.699C640.534 222.578 639.264 223.75 637.995 224.336C636.335 225.117 635.944 225.898 636.237 227.852C636.53 229.219 636.237 231.074 635.554 231.758C634.968 232.539 634.479 234.004 634.577 234.981C634.87 237.813 634.675 238.984 633.405 240.352C631.452 242.402 629.694 245.82 629.694 247.481C629.694 248.262 628.913 249.336 627.936 249.824C626.96 250.313 624.714 252.949 622.858 255.684C621.003 258.418 618.952 260.664 618.268 260.664C617.585 260.664 615.632 259.981 613.776 259.102C610.554 257.539 610.554 257.539 606.94 261.152C603.815 264.277 603.034 264.57 599.811 263.984C595.807 263.203 594.245 264.57 595.221 268.184C595.514 269.453 595.319 270.43 594.733 270.43C593.561 270.43 586.335 277.363 586.237 278.535C586.237 280.098 583.21 281.074 580.28 280.586C578.522 280.293 576.862 280.488 576.569 281.074C576.179 281.66 574.421 282.832 572.565 283.711C570.71 284.59 569.147 285.664 569.147 286.152C569.147 287.617 565.339 290.938 563.776 290.938C562.8 290.938 562.311 290.156 562.409 288.691C562.8 284.59 562.311 283.418 559.87 282.344C556.745 280.879 553.522 280.879 553.522 282.148C553.522 282.734 552.936 283.125 552.35 282.93C551.667 282.832 550.007 283.32 548.835 284.004C545.807 285.664 545.026 284.688 546.393 281.172C547.468 278.438 547.272 278.047 543.952 275.313C539.948 271.992 538.093 271.699 536.53 273.945C535.456 275.313 535.065 275.313 531.745 273.75C529.596 272.773 527.839 271.113 527.546 269.844C526.569 266.035 518.073 265.645 516.901 269.356C516.315 271.211 511.53 274.336 509.186 274.336C508.307 274.336 507.624 275.117 507.624 276.191C507.624 277.266 506.745 278.34 505.671 278.731C504.206 279.219 503.815 280.195 503.815 282.93C504.011 288.984 502.643 295.332 500.69 297.871C498.932 300.02 498.737 300.117 497.761 298.457C496.491 296.211 494.44 296.309 491.999 298.75C490.339 300.41 488.776 300.703 481.55 300.703C471.979 300.703 466.608 302.852 466.608 306.563C466.608 308.418 466.413 308.516 463.971 307.246C459.577 305 448.249 303.438 441.511 304.219C437.214 304.609 434.87 304.512 433.893 303.633C432.917 302.754 432.429 302.754 432.429 303.535C432.429 304.121 431.843 304.609 431.061 304.609C430.378 304.609 429.108 305.293 428.425 306.172C427.546 307.246 426.179 307.539 423.932 307.246C422.175 306.953 420.514 307.051 420.221 307.539C419.929 308.027 417.78 308.418 415.534 308.32C410.261 308.027 405.085 310.078 405.085 312.52C405.085 313.496 404.694 314.57 404.108 314.863C403.62 315.156 403.132 316.914 403.132 318.77C403.132 321.797 402.839 322.09 399.323 322.676C395.319 323.359 393.561 325.508 395.319 327.559C396.686 329.219 396.784 333.516 395.417 338.398C393.952 343.965 395.221 347.383 399.518 349.922C402.643 351.68 407.038 356.953 407.038 359.004C407.038 359.297 404.987 359.297 402.448 359.004C396.882 358.418 392.389 360.273 390.046 364.277C389.167 365.84 387.702 367.109 386.823 367.109C385.944 367.109 384.284 367.891 383.21 368.965C379.792 371.992 375.202 373.066 369.929 371.895C366.315 371.113 364.167 371.211 360.554 372.285C356.061 373.555 355.573 373.555 353.132 371.699C350.593 369.844 350.3 369.844 348.639 371.309C347.663 372.188 344.538 373.359 341.804 373.945C338.971 374.434 335.944 375.313 334.968 375.703C332.136 377.266 324.909 377.949 323.542 376.875C322.956 376.387 319.538 375.703 316.12 375.41C312.702 375.215 306.55 374.336 302.546 373.555C293.464 371.699 289.362 371.602 286.921 373.164C285.456 374.141 284.284 374.141 281.94 373.262C279.596 372.383 278.327 372.383 276.764 373.164C273.542 374.922 254.401 375.02 247.956 373.359C239.557 371.211 239.167 371.016 238.581 368.965C238.19 367.988 236.53 366.328 234.87 365.449C231.55 363.789 227.35 359.785 227.35 358.223C227.35 357.246 226.276 357.051 222.175 357.344C219.831 357.441 219.245 356.855 217.292 352.559C215.534 348.359 214.557 347.383 211.628 346.602C206.94 345.332 203.327 342.305 202.546 339.18C201.667 335.664 198.932 332.148 191.413 324.824C185.651 319.258 184.968 318.867 181.354 319.16C176.96 319.453 173.639 317.305 173.639 314.18C173.639 313.105 172.956 312.422 171.686 312.422C168.464 312.422 159.186 316.621 155.378 319.941C152.155 322.578 151.862 323.262 152.741 324.824C153.522 326.094 153.62 327.266 152.936 328.34C152.448 329.316 152.35 330.879 152.643 331.953C153.425 334.297 149.421 343.672 147.663 343.672C145.612 343.672 138.483 346.016 138.483 346.699C138.483 346.992 139.557 348.262 140.925 349.531C142.292 350.801 143.366 352.461 143.366 353.242C143.366 354.121 144.147 355.586 145.026 356.563C146.491 358.223 146.491 358.516 145.124 359.883C143.854 361.152 143.854 362.129 145.221 368.965C146.1 373.164 147.37 377.363 148.151 378.242C149.323 379.609 149.03 379.805 145.221 379.805C142.78 379.805 137.702 380.684 133.796 381.758C129.987 382.832 124.811 383.711 122.468 383.711C118.171 383.711 118.171 383.711 117.487 379.805C116.804 375.996 116.804 375.996 114.46 377.461C112.897 378.535 112.116 380 112.116 381.855V384.688H105.475H98.8348L96.8817 378.633C95.0262 372.773 94.9285 372.578 89.7527 370.918C86.9207 369.941 83.8934 368.574 83.2098 367.988C81.452 366.523 71.1004 367.5 70.0262 369.258C69.5379 369.941 69.1473 371.602 69.1473 372.871C69.1473 375.215 66.7059 377.754 64.4598 377.852C63.7762 377.852 61.7254 378.926 59.9676 380.293C58.2098 381.66 56.452 382.441 56.159 382.051C55.2801 381.172 51.5692 385.176 51.5692 386.934C51.5692 387.715 53.4246 388.887 55.7684 389.57C58.0145 390.352 60.3582 391.328 61.0418 391.816C61.7254 392.305 62.6043 392.402 63.0926 392.109C63.6785 391.816 66.6082 393.281 69.7332 395.43C74.8113 398.848 75.5926 399.141 76.9598 397.871C77.8387 397.09 79.6942 396.406 81.0613 396.406C83.0145 396.406 83.7957 397.09 84.7723 399.531C85.3582 401.289 86.2371 403.438 86.7254 404.316C87.116 405.098 87.116 406.563 86.5301 407.441C85.4559 409.395 86.2371 411.055 88.1902 411.055C89.3621 411.055 90.6317 413.398 91.2176 416.816C91.5106 418.477 88.7762 421.406 85.9442 422.285C84.0887 422.871 83.7957 423.359 84.3817 426.191C85.0652 429.902 82.6238 435.469 80.2801 435.469C79.4988 435.469 78.6199 436.152 78.327 436.934C77.9363 437.715 77.0574 438.398 76.2762 438.398C75.5926 438.398 73.8348 439.57 72.5652 440.938C70.9051 442.695 69.6356 443.281 68.1707 442.793C67.0965 442.402 64.8504 442.793 63.0926 443.672C60.1629 445.137 59.9676 445.137 58.1121 443.281C57.1356 442.109 55.5731 441.328 54.6942 441.523C53.327 441.816 53.1317 442.891 53.327 446.797C53.5223 450.313 53.2293 452.07 52.1551 453.047C50.0067 454.805 50.202 456.074 53.034 458.418C56.159 460.859 57.5262 467.695 55.866 472.578C55.2801 474.434 54.3035 475.996 53.9129 475.996C51.9598 476.094 50.7879 477.656 50.202 481.367C49.8113 484.004 49.1277 485.273 48.0535 485.273C45.4168 485.273 46.6863 490.547 49.4207 490.938C52.2527 491.328 54.1082 495.625 52.4481 497.676C50.4949 500.02 52.741 501.387 56.5496 500.02C60.7488 498.555 61.0418 498.652 61.6277 501.094C62.116 502.656 61.2371 504.023 58.4051 506.66C56.3543 508.613 54.3035 511.348 54.0106 512.715C53.4246 515.059 53.7176 515.449 56.8426 516.523C61.4324 517.988 61.3348 520.137 56.7449 521.016C52.3504 521.797 49.616 523.066 49.616 524.336C49.616 524.922 50.4949 525.313 51.5692 525.313C52.6434 525.313 53.5223 525.898 53.5223 526.68C53.5223 527.461 54.4012 528.438 55.4754 528.73C57.7215 529.414 57.9168 530.488 56.159 531.953C55.3777 532.637 54.4012 532.637 53.5223 532.148C52.741 531.563 50.5926 531.465 48.9324 531.758C46.6863 532.148 45.7098 531.953 45.7098 531.172C45.7098 530.293 44.7332 530.195 42.3895 530.586C40.3387 530.977 38.7762 530.781 38.3856 530.195C37.9949 529.609 37.0184 529.414 36.0418 529.805C33.7957 530.781 28.1316 530.879 28.1316 530C28.1316 529.609 27.741 529.219 27.1551 529.219C26.6668 529.219 26.1785 529.805 26.1785 530.586C26.1785 531.27 25.4949 532.441 24.7137 533.125C23.9324 533.809 23.2488 534.98 23.2488 535.762C23.2488 538.398 17.5848 543.086 14.7527 542.695C12.5066 542.402 12.0184 542.891 10.8465 546.504C10.0652 548.848 8.99102 550.703 8.40509 550.703C7.81915 550.703 5.67071 552.461 3.61993 554.512C0.49493 557.832 0.104305 558.516 1.37384 559.59C2.54571 560.566 4.69415 560.566 11.9207 559.59C22.5652 558.125 25.5926 558.613 29.7918 562.422C32.7215 565.059 32.9168 565.645 32.3309 569.746C31.9402 573.164 31.3543 574.141 29.9871 574.141C28.034 574.141 27.3504 577.461 29.0106 578.438C29.4012 578.73 29.5965 580.098 29.3035 581.465C29.1082 582.93 29.4988 584.688 30.3777 585.664C31.2566 586.543 32.3309 588.594 32.9168 590.156C33.6004 591.914 34.4793 592.695 35.4559 592.402C36.3348 592.012 36.9207 592.598 37.116 594.355C37.3113 596.406 38.1902 597.188 40.6316 597.773C44.8309 598.945 44.8309 603.145 40.6316 604.707C37.5066 605.879 38.7762 609.004 44.7332 614.766C47.9559 617.988 51.0809 621.797 51.6668 623.262C52.3504 624.824 53.8152 626.484 55.0848 626.875C56.9402 627.656 57.3309 628.73 57.9168 634.199C58.6004 640.352 58.8934 640.84 61.7254 642.109C63.3856 642.891 65.4363 643.867 66.2176 644.355C66.9988 644.844 68.366 645.527 69.1473 645.918C76.6668 649.043 79.4012 651.777 84.3817 661.738C84.6746 662.422 85.8465 663.008 86.8231 663.008C87.7996 663.008 88.6785 663.594 88.6785 664.277C88.6785 665.938 94.0496 668.184 96.2957 667.5C97.3699 667.109 98.6395 667.5 99.4207 668.379C100.104 669.16 101.374 669.844 102.253 669.844C105.964 669.844 108.6 674.434 109.284 682.148C109.772 687.129 110.554 690.156 111.823 691.523C113.874 693.867 121.589 699.141 122.956 699.141C123.444 699.141 123.835 700.02 123.835 701.094C123.835 702.363 124.518 703.047 125.593 703.047C126.569 703.047 128.815 704.121 130.671 705.488C132.526 706.855 134.382 707.93 134.772 707.93C135.261 707.93 137.897 709.492 140.729 711.348C143.464 713.203 146.296 714.766 146.979 714.766C149.323 714.766 154.206 721.016 153.62 723.262C152.839 726.387 154.011 728.438 156.647 728.438C158.991 728.438 159.479 729.512 159.186 733.516C159.089 734.492 159.577 734.98 160.261 734.688C161.042 734.395 162.116 735.273 162.702 736.738C163.386 738.105 164.557 739.473 165.339 739.766C166.12 740.156 166.804 741.426 166.804 742.695C166.804 744.063 167.487 745.332 168.268 745.723C169.538 746.211 169.538 746.504 167.78 747.676C166.12 748.848 165.925 749.434 166.901 750.508C167.487 751.289 168.854 751.875 169.831 751.875C170.905 751.875 171.686 752.559 171.686 753.535C171.784 756.465 175.3 759.883 177.546 759.199C179.694 758.516 180.28 760.469 178.425 762.324C177.741 763.008 177.546 764.18 177.936 765.059C178.327 766.23 179.206 766.523 181.354 766.035C183.307 765.645 184.284 765.84 184.675 766.816C184.968 767.598 186.725 768.184 188.679 768.281C191.608 768.379 192.194 768.086 192.194 766.523C192.194 764.473 195.417 763.691 196.491 765.449C196.979 766.23 199.128 766.719 209.089 767.988C211.042 768.281 214.264 769.453 216.12 770.625C219.245 772.773 223.444 779.316 223.444 782.246C223.444 785.078 227.253 789.961 229.499 789.961C234.479 789.961 239.167 791.23 240.046 792.891C240.925 794.453 244.343 795.723 249.518 796.113C250.886 796.211 251.862 797.188 252.253 798.555C252.546 799.727 253.229 800.703 253.718 800.703C254.304 800.703 254.694 801.289 254.694 802.07C254.694 804.609 256.94 805 258.6 802.852C259.968 801.191 261.628 800.801 268.952 800.41C276.862 800.02 277.936 800.215 280.182 802.168C281.647 803.34 284.87 804.609 287.507 805C291.413 805.488 292.487 805.293 294.245 803.633C296.589 801.484 300.593 801.094 302.35 802.852C303.229 803.73 303.815 803.73 304.694 802.852C306.647 800.898 308.991 801.484 313.288 805.098C315.534 806.953 317.682 808.516 317.975 808.516C318.366 808.516 321.393 808.711 324.811 808.906C329.304 809.199 330.866 809.004 330.866 808.027C330.866 806.172 333.6 805.488 335.749 806.855C336.823 807.441 337.702 808.711 337.702 809.59C337.702 811.445 339.655 812.422 343.171 812.422C345.026 812.422 345.71 811.836 346.198 809.492C346.589 807.441 347.272 806.563 348.639 806.563C349.909 806.563 350.983 805.488 351.667 803.73C352.546 801.289 352.936 801.094 354.499 801.973C355.866 802.852 356.647 802.852 358.014 801.973C358.893 801.289 361.139 800.117 362.897 799.336C364.557 798.555 366.022 797.48 366.022 797.09C366.022 796.699 367.292 794.941 368.757 793.379C370.221 791.719 372.077 788.984 372.761 787.227C373.639 785.273 374.714 784.102 375.983 784.102C377.057 784.102 377.546 783.711 377.155 783.027C376.862 782.441 377.35 780.293 378.327 778.145C380.378 773.945 383.405 773.164 386.921 775.801C387.995 776.582 389.655 777.266 390.632 777.266C391.608 777.266 392.389 777.656 392.389 778.242C392.389 779.316 397.565 782.148 399.616 782.148C400.495 782.148 401.179 780.977 401.374 778.926C401.667 776.191 401.96 775.801 404.792 775.703C406.55 775.703 409.284 774.531 411.432 772.969C414.264 770.723 415.632 770.332 418.073 770.918C419.831 771.211 423.346 771.797 425.983 772.09L430.768 772.578L430.182 769.648C429.304 765.352 433.21 762.227 438.386 763.105L441.999 763.691L441.12 759.199C440.339 755.195 440.534 754.316 442.878 750.801C444.929 747.676 446.003 746.992 447.956 747.188C450.104 747.48 450.593 748.164 451.276 751.973C452.057 756.367 452.253 756.563 455.964 757.148C458.112 757.539 460.651 757.344 461.53 756.855C462.507 756.367 465.925 756.27 469.343 756.66C474.714 757.246 475.397 757.148 474.811 755.879C474.518 755 474.03 753.828 473.835 753.34C473.639 752.754 476.081 750.703 479.304 748.555C483.991 745.527 485.456 745.039 486.628 746.016C487.409 746.699 488.971 746.895 490.241 746.504C492.975 745.625 500.788 738.301 500.788 736.543C500.788 735.859 502.546 734.395 504.694 733.32C509.089 731.074 510.456 728.926 508.698 727.168C507.136 725.605 507.331 723.555 509.089 723.555C509.87 723.555 512.018 721.895 513.971 719.941C516.608 717.207 517.682 716.621 518.561 717.5C520.319 719.258 525.3 718.965 527.35 717.012C528.425 716.035 530.475 715.449 532.136 715.547C535.163 715.84 541.413 719.258 543.659 721.992C544.343 722.871 545.71 723.555 546.686 723.555C547.663 723.555 548.932 724.238 549.616 725.02C551.276 727.07 554.206 726.875 557.429 724.531C558.893 723.457 560.944 722.48 561.921 722.285C564.557 721.895 569.538 719.063 571.003 717.305C572.37 715.742 577.546 715.254 581.452 716.328C582.624 716.621 584.089 718.281 584.87 719.941C586.53 723.652 590.436 724.824 591.218 721.895C591.511 720.82 592.585 719.453 593.659 718.867C595.319 717.793 596.003 717.988 598.542 720.137C601.667 722.773 604.304 723.164 607.233 721.602C609.675 720.332 612.116 721.309 612.116 723.652C612.116 724.727 612.8 725.508 613.874 725.508C614.753 725.508 616.804 726.191 618.366 726.973C621.491 728.633 621.686 728.535 623.249 725.313C623.835 724.043 625.788 722.578 627.448 722.09C629.108 721.504 631.354 720.332 632.429 719.355C634.089 717.891 634.479 717.793 635.456 719.063C636.139 719.844 637.214 720.332 637.995 720.039C638.679 719.746 640.827 720.234 642.878 721.016C644.929 721.895 647.761 722.578 649.128 722.578C652.35 722.578 656.061 718.965 656.061 715.938C656.061 714.082 656.647 713.789 659.772 713.789C662.702 713.789 664.167 714.473 666.804 717.207C668.659 719.063 670.514 720.625 671.003 720.625C671.393 720.625 673.151 721.895 674.909 723.555L677.936 726.387L679.108 723.555C680.182 721.016 680.671 720.82 683.6 721.211C686.53 721.699 687.018 721.406 689.167 717.598C690.436 715.254 691.511 712.129 691.413 710.664C691.315 708.32 691.706 707.93 693.854 707.93C696.296 707.93 696.296 707.734 695.71 703.438C695.124 698.652 697.077 692.988 699.323 693.477C700.007 693.574 701.374 693.184 702.448 692.598C705.28 691.035 712.702 689.961 712.702 691.133C712.702 691.621 714.362 692.793 716.315 693.574C719.636 694.844 720.124 694.844 721.198 693.379C722.272 692.012 722.565 692.012 723.932 693.965C725.593 696.309 730.475 696.992 733.21 695.234C734.186 694.648 735.261 694.844 736.628 696.113C739.655 698.848 742.78 699.336 743.952 697.09C744.538 696.113 745.612 695.234 746.393 695.234C747.272 695.234 747.956 693.672 748.444 690.84C748.737 688.398 749.518 686.348 750.202 686.25C750.788 686.25 753.034 686.055 755.182 686.055C758.991 685.957 759.089 685.859 758.796 682.734C758.6 680.684 759.186 678.73 760.456 677.07C761.823 675.313 762.214 673.75 761.823 671.406C761.53 669.453 761.921 667.012 762.897 665.156C764.362 662.227 764.85 662.031 769.636 662.031H774.714L777.155 657.051C779.304 652.461 779.304 651.973 777.839 651.094C776.96 650.605 776.179 649.434 776.179 648.359C776.179 647.188 775.397 646.406 774.03 646.211C771.979 645.918 771.784 645.43 771.979 639.961C772.077 635.176 772.663 633.027 775.007 629.316C777.448 625.41 777.741 624.238 776.862 622.773C775.886 621.309 776.081 620.234 777.643 617.402C779.792 613.496 783.991 611.641 787.018 613.203C789.557 614.668 792.78 614.375 792.78 612.813C792.78 612.031 794.245 610.273 796.003 608.906L799.128 606.367L796.979 604.902C794.538 603.242 793.952 599.922 796.003 599.727C796.589 599.629 798.932 599.434 800.983 599.336C804.108 599.141 805.182 598.457 806.55 596.113C808.991 591.914 808.796 589.277 805.964 587.422C803.327 585.664 802.643 581.563 804.889 580.684C806.354 580.098 808.014 573.164 807.624 569.648C807.428 568.086 808.6 567.012 812.702 565.059C816.022 563.398 818.268 561.641 818.757 560.273C819.147 559.004 819.831 557.734 820.417 557.344C821.1 556.953 820.807 555.781 819.733 554.121C817.78 551.094 818.366 546.797 820.71 546.797C821.491 546.797 823.737 545.234 825.69 543.281C828.815 540.059 829.303 539.082 829.596 534.004C829.792 529.121 829.596 528.145 827.936 527.266C825.202 525.801 825.495 524.043 828.913 521.602C830.671 520.234 831.94 518.184 832.428 516.035C833.112 512.031 836.335 509.102 841.706 507.734C845.026 506.855 845.514 506.27 846.003 503.047C846.979 497.09 848.346 494.648 851.862 491.816C854.401 489.766 855.28 488.301 855.28 486.25C855.28 484.59 854.792 483.32 854.206 483.32C852.448 483.32 854.01 477.461 856.843 473.359C858.893 470.43 859.186 469.355 858.307 468.281C857.331 467.207 857.721 465.84 859.87 461.641C861.432 458.809 863.385 454.609 864.264 452.461C865.632 449.043 866.413 448.262 869.44 447.773C871.296 447.383 873.249 447.383 873.737 447.676C876.569 449.336 881.061 436.836 878.718 434.004C878.034 433.223 877.839 432.539 878.229 432.539C878.522 432.539 877.936 431.074 876.862 429.219C875.3 426.68 874.909 424.922 875.3 421.211C875.885 415.254 877.448 413.594 882.917 413.105C883.307 413.008 883.405 411.934 883.014 410.566C882.526 408.613 882.819 408.125 884.772 407.637C885.944 407.246 888.19 405.293 889.655 403.145C891.803 400.215 892.975 399.336 895.319 399.336C898.542 399.336 899.714 397.773 900.69 392.012C901.081 389.863 901.96 387.227 902.643 386.055C903.425 384.883 904.108 382.539 904.303 380.684C904.499 378.145 905.085 377.363 907.038 376.875C909.089 376.387 909.479 375.703 909.772 372.285C909.968 369.551 910.456 368.379 911.237 368.672C911.921 368.867 914.167 367.598 916.218 365.645C919.245 362.91 920.319 362.422 921.784 363.301C922.76 363.789 925.104 364.18 926.764 364.082C928.522 364.082 930.866 364.277 931.94 364.668C933.991 365.254 934.186 364.863 934.382 359.492C934.675 353.242 935.456 351.582 938.288 350.996C940.729 350.508 942.194 350.996 946.296 353.926C951.276 357.539 951.471 357.539 958.014 356.953C965.143 356.27 971.491 353.828 971.491 351.777C971.491 351.094 971.882 350.508 972.37 350.508C972.858 350.508 973.542 348.75 973.932 346.602C974.616 342.793 975.104 342.305 978.62 342.695C980.964 342.891 984.186 339.961 984.186 337.617C984.186 336.641 983.796 335.859 983.405 335.859C982.917 335.859 982.526 334.492 982.526 332.93C982.526 330.586 983.014 330 984.675 330C985.846 330 987.604 329.121 988.581 328.047C989.557 326.973 991.315 326.094 992.487 326.094C994.05 326.094 995.221 324.727 997.37 320.234C1000.4 313.887 1000.01 312.227 995.221 310.371C992.585 309.395 991.022 306.367 992.78 305.781C997.468 304.219 998.151 297.871 994.44 291.914C993.073 289.766 991.608 288.008 991.12 288.008C990.729 288.008 989.948 286.641 989.46 284.883C988.678 282.441 987.8 281.563 985.456 281.074C983.698 280.781 981.94 280.879 981.257 281.563C980.671 282.148 978.718 282.441 976.764 282.246C974.323 282.051 972.468 282.637 970.026 284.492C966.999 286.836 966.413 286.934 961.725 286.055C955.182 284.785 954.889 284.59 954.889 280.586C954.889 277.07 953.62 273.945 951.276 271.602C950.593 270.918 950.007 269.063 950.007 267.598C950.007 265.547 949.225 264.473 946.198 262.715C943.659 261.348 941.901 259.492 941.12 257.344L939.948 254.023L932.721 254.219C927.936 254.414 925.202 254.902 924.616 255.684C924.225 256.465 923.346 256.856 922.663 256.563C921.296 256.172 915.827 246.504 915.827 244.648C915.827 243.867 915.143 242.793 914.46 242.109C913.678 241.523 912.897 239.18 912.702 236.934C912.409 233.027 912.214 232.832 908.307 231.953C905.085 231.172 903.913 230.391 903.034 228.242C902.155 226.094 902.155 225.117 903.034 224.238C904.889 222.383 904.303 219.648 902.057 219.648C900.983 219.648 899.225 219.258 898.249 218.672C896.1 217.5 887.507 220.918 887.507 222.969C887.507 225.703 883.698 227.656 877.741 227.949C874.323 228.145 871.882 227.852 871.882 227.266C871.882 225.606 858.6 228.731 856.159 230.977C855.378 231.758 854.401 232.148 854.108 231.856C853.815 231.563 852.057 231.953 850.202 232.734C848.346 233.516 845.905 234.004 844.733 233.711C843.073 233.223 842.682 233.613 842.389 235.957C842.096 238.398 841.803 238.691 838.678 238.496C830.866 238.008 824.909 235.957 823.542 233.418C822.858 232.051 821.1 229.805 819.733 228.535C818.366 227.168 817.194 225.215 817.194 224.043C817.194 222.969 815.729 219.844 814.069 217.109C812.311 214.473 810.163 210.078 809.284 207.441L807.819 202.559L803.132 202.852C798.053 203.145 794.733 201.289 794.733 198.066C794.733 195.332 793.659 193.281 792.194 193.281C791.511 193.281 789.362 191.914 787.604 190.352C783.698 186.934 783.6 186.934 781.647 188.984Z" fill="black"/>
<circle cx="447" cy="434" fill="#5CE50D"/>
<circle cx="856" cy="325" fill="#E52A0D"/>
<circle cx="132" cy="434" fill="#E52A0D"/>
<circle cx="717" cy="599" fill="#E52A0D"/>
</svg>
