<svg width="1000" height="1000" viewBox="0 0 1000 1000" fill="none" xmlns="http://www.w3.org/2000/svg">
<rect width="1000" height="1000" />
<path d="M15.7545 322.354C14.3245 322.926 15.1825 324.547 17.0892 324.547C17.8519 324.547 18.4239 323.88 18.4239 323.117C18.4239 321.687 17.8519 321.496 15.7545 322.354Z" fill="black"/>
<path d="M12.4178 326.643C12.9898 327.311 13.6572 329.885 13.8478 332.268C14.6105 339.514 19.282 346.283 31.1991 357.342C39.8748 365.445 42.5442 367.447 44.8323 367.447C47.5971 367.447 53.6986 372.5 53.6986 374.693C53.6986 375.265 54.5567 376.504 55.7007 377.553C60.3722 381.748 66.0924 390.519 66.0924 393.474C66.0924 396.43 66.5691 396.716 75.5308 401.006L84.9691 405.487L87.8292 411.493C89.3546 414.83 91.8334 421.789 93.2634 427.033C96.3142 438.283 97.7443 440.857 103.846 445.719C111.663 451.821 122.246 464.596 123.771 469.649C124.534 472.127 127.013 476.894 129.301 480.136C134.926 488.144 137.786 493.959 137.118 496.152C136.07 499.394 137.69 502.826 141.027 504.542C142.839 505.495 145.699 508.546 147.987 512.073C150.275 515.601 153.421 519.033 155.9 520.558C162.001 524.467 164.289 526.755 164.289 528.948C164.289 530.95 174.681 540.388 180.878 544.107C182.499 545.155 185.168 547.157 186.694 548.587C188.314 550.113 191.365 552.02 193.653 552.878C196.227 553.926 198.229 555.547 199.087 557.263C201.089 561.077 213.388 573.375 215.199 573.375C217.106 573.375 217.106 573.28 215.104 569.085C214.246 567.273 213.769 565.557 214.055 565.176C214.913 564.318 218.059 565.557 221.873 568.131C225.21 570.42 225.305 570.42 226.258 568.608C227.593 566.034 229.404 566.225 233.981 569.276C236.173 570.706 238.08 571.373 238.557 570.896C239.033 570.42 240.082 565.176 241.036 559.17C242.561 549.827 242.561 547.443 241.608 542.295C240.654 537.624 240.654 535.526 241.512 532.857C242.466 530.092 242.466 528.853 241.512 527.137C240.464 525.23 240.654 524.086 242.466 519.796L244.563 514.743L241.703 509.499C234.934 496.629 235.411 497.106 228.642 497.106C221.11 497.106 219.585 496.534 219.585 493.769C219.585 492.243 218.536 490.909 216.248 489.574C212.244 487.286 212.434 487.572 211.004 476.894L209.86 468.695H206.905C201.185 468.695 194.893 466.884 191.46 464.214L187.933 461.64L192.032 457.445C196.037 453.346 196.037 453.155 192.128 452.107C190.316 451.63 193.558 447.53 195.846 447.53C199.945 447.53 195.941 439.713 190.126 436.471L185.835 434.088L182.594 437.52C177.255 442.954 176.397 441.619 180.497 434.183L184.119 427.51L180.211 424.65C175.92 421.503 174.3 421.122 173.537 423.124C172.774 425.126 169.342 423.887 168.675 421.503C168.389 420.359 168.58 419.215 169.056 419.12C170.391 418.643 170.2 415.688 168.866 414.353C168.198 413.686 165.624 413.209 162.955 413.209H158.283L160.095 415.211L161.906 417.309L159.523 416.069C155.518 413.972 151.991 410.635 152.849 409.777C153.612 408.919 154.088 406.25 153.898 403.961C153.612 400.72 146.175 402.055 146.175 405.391C146.175 406.536 145.603 406.154 144.269 404.247C142.362 401.197 135.879 396.811 134.544 397.574C134.163 397.86 133.782 399.099 133.782 400.434C133.782 405.296 128.061 402.055 124.248 394.904C122.627 391.854 120.72 389.375 120.148 389.47C117.574 389.756 116.621 389.28 116.621 387.563C116.621 384.894 105.181 374.693 96.5049 369.64C92.4054 367.257 88.9733 364.969 88.9733 364.587C88.9733 364.206 86.8759 362.776 84.2064 361.346C80.2976 359.153 79.4396 358.295 79.4396 356.102C79.4396 354.577 78.4862 352.575 77.0562 351.24C75.7214 350.001 74.2914 347.903 73.91 346.473C73.5287 345.139 71.0499 342.088 68.3805 339.609C63.8043 335.224 63.423 335.128 60.5629 336.177C58.1795 337.13 56.8448 337.035 54.2707 336.177C52.1733 335.414 49.2178 335.224 46.167 335.605C39.1121 336.558 35.394 335.414 30.4364 331.029C25.5743 326.834 18.8054 325.118 16.0406 327.406C14.8965 328.359 14.5152 328.264 14.0385 327.025C13.7525 326.167 12.9898 325.499 12.5131 325.499C11.8458 325.499 11.8458 325.881 12.4178 326.643Z" fill="black"/>
<path d="M684.256 351.43C683.112 353.241 683.207 362.68 684.352 362.68C684.924 362.68 686.163 361.154 687.116 359.343C688.642 356.578 688.737 355.72 687.688 353.146C686.449 350.095 685.4 349.619 684.256 351.43Z" fill="black"/>
<path d="M456.878 354.674C450.681 356.485 448.965 358.201 447.535 363.445C446.677 366.972 446.582 368.784 447.345 370.214C448.107 371.644 448.107 372.883 447.059 375.267C446.296 376.983 445.438 379.176 445.152 380.129C444.866 380.987 443.436 382.036 442.006 382.322C439.908 382.703 438.86 383.847 437.525 387.184C435.999 390.807 435.904 391.569 437.048 392.332C438.097 392.904 437.62 393.762 434.855 396.05C432.281 398.148 431.137 399.959 430.756 402.533C430.47 404.44 429.326 407.872 428.277 409.969C426.18 414.164 423.987 415.118 415.883 415.118C413.5 415.118 411.879 415.785 410.449 417.501C407.589 420.742 403.49 420.552 396.435 417.024C391.954 414.832 389.38 414.259 384.708 414.164C377.844 414.164 375.27 415.213 374.031 418.55C373.458 420.075 371.266 421.696 367.643 423.316C362.781 425.414 361.637 425.605 358.205 424.747C354.772 423.889 353.438 424.079 348.385 426.081C345.239 427.416 341.902 428.465 341.044 428.465C340.186 428.465 337.23 426.177 334.561 423.412C331.796 420.742 328.078 417.31 326.171 415.88C324.265 414.45 321.786 411.304 320.642 408.921C319.498 406.537 317.972 404.63 317.305 404.63C316.638 404.63 315.017 406.442 313.682 408.635C312.348 410.923 310.441 413.401 309.392 414.259C308.153 415.308 307.295 417.692 306.818 420.933C306.437 423.793 305.674 426.653 305.197 427.225C304.625 427.988 304.435 430.848 304.911 434.566C305.388 439.428 305.865 440.763 307.295 441.144C308.343 441.43 309.869 443.147 310.727 445.053C312.252 448.199 312.252 448.581 310.822 450.201C308.343 452.871 308.82 456.589 311.776 458.972C313.587 460.403 314.064 461.165 313.206 461.737C312.348 462.214 312.443 462.881 313.587 464.502C314.636 466.027 315.589 466.504 317.4 466.027C319.879 465.36 320.737 467.267 318.258 468.125C317.4 468.506 316.828 469.936 316.828 472.034V475.37L321.023 472.892L325.218 470.413L327.697 473.368C330.557 476.8 330.652 477.658 328.65 482.807C327.22 486.334 327.22 486.811 328.555 487.86C330.366 489.29 333.036 498.633 333.036 503.781C333.036 505.974 333.512 508.548 333.989 509.596C334.942 511.312 335.133 511.312 337.326 509.882C339.519 508.452 339.9 508.548 344.285 511.026L348.957 513.6L357.251 511.026C361.923 509.596 365.832 508.643 366.118 508.929C366.404 509.12 366.785 512.075 367.071 515.412C367.834 523.706 368.692 524.469 372.791 520.846C375.079 518.939 376.7 518.177 377.749 518.653C383.278 521.037 391.382 518.367 393.193 513.6L394.147 511.026L396.625 513.696C398.627 515.889 399.581 516.27 402.25 515.698C405.301 515.126 405.492 515.221 405.492 517.986C405.492 521.513 407.494 522.276 414.549 521.418C422.366 520.369 424.368 521.227 425.036 525.518C425.322 527.424 425.989 530.666 426.561 532.573L427.514 536.195L431.995 533.907C434.474 532.668 439.908 530.284 444.103 528.664C448.298 526.948 452.683 524.946 453.827 524.278C455.83 522.943 455.925 523.039 456.974 528.187L458.118 533.526L460.12 531.714C463.266 529.14 463.742 528.282 463.361 525.994C463.17 524.85 463.552 523.706 464.219 523.42C466.031 522.753 465.935 519.988 464.124 519.988C463.266 519.988 462.694 519.13 462.694 517.7C462.694 516.461 462.217 515.221 461.645 515.031C460.978 514.84 461.264 513.505 462.598 511.408C463.647 509.596 464.601 506.45 464.601 504.448C464.601 501.588 464.982 500.921 466.221 501.111C468.509 501.493 469.844 496.058 467.747 494.533C466.984 493.866 465.84 493.198 465.363 493.103C464.791 492.912 464.696 490.91 465.077 488.146C465.745 484.046 466.698 482.616 474.42 474.608C480.808 467.839 483.382 465.741 484.717 466.123C485.67 466.504 487.291 466.218 488.435 465.646C490.913 464.311 491.199 457.066 488.816 455.064C487.577 454.11 487.386 452.776 487.863 448.962C489.197 437.522 493.488 428.751 497.206 429.99C498.35 430.276 499.494 430.085 499.875 429.418C500.447 428.465 501.591 428.465 504.928 429.323C511.411 430.943 516.464 430.657 518.275 428.655C519.229 427.702 519.896 426.463 519.801 425.986C519.705 424.842 507.121 414.641 501.496 411.209C496.252 407.967 495.394 406.347 496.824 402.533C497.682 400.054 497.396 398.529 494.346 390.807C491.676 384.038 490.246 381.559 488.149 380.32C483.954 377.841 485.861 375.553 490.627 377.459C493.964 378.794 492.344 374.695 488.625 372.502L485.098 370.405L489.674 370.309C494.536 370.309 495.013 369.547 492.82 365.542C491.676 363.54 491.676 363.064 493.011 362.11C494.25 361.252 494.918 361.252 495.871 362.015C496.92 362.873 497.11 362.492 496.824 360.203C496.443 356.676 492.725 355.818 490.627 358.773C489.865 359.917 488.816 360.776 488.244 360.776C487.577 360.776 487.577 360.394 488.339 359.536C489.102 358.487 488.53 357.82 485.765 356.295C482.905 354.674 480.14 354.197 471.465 353.911C464.982 353.721 459.166 354.007 456.878 354.674Z" fill="black"/>
<path d="M288.132 359.73L285.939 361.542L287.75 365.451C288.799 367.548 290.324 369.359 291.087 369.359C294.901 369.359 296.045 364.402 293.375 360.302C291.469 357.442 290.992 357.347 288.132 359.73Z" fill="black"/>
<path d="M660.517 368.402C660.231 368.879 660.613 370.023 661.471 370.976C662.233 371.93 663.473 373.551 664.14 374.504C666.333 377.555 667.954 375.457 666.142 371.93C663.949 367.83 661.757 366.4 660.517 368.402Z" fill="black"/>
<path d="M494.632 372.219C494.918 372.695 495.585 373.172 496.157 373.172C496.634 373.172 497.015 372.695 497.015 372.219C497.015 371.646 496.348 371.265 495.49 371.265C494.727 371.265 494.346 371.646 494.632 372.219Z" fill="black"/>
<path d="M249.616 376.88C249.33 377.356 249.52 378.024 250.092 378.405C250.569 378.691 251.046 378.31 251.046 377.547C251.046 375.831 250.474 375.545 249.616 376.88Z" fill="black"/>
<path d="M237.127 383.845C237.413 385.085 237.699 386.419 237.699 386.896C237.699 387.468 238.271 386.991 239.034 385.943C239.987 384.703 240.082 383.75 239.415 382.987C237.794 380.985 236.46 381.557 237.127 383.845Z" fill="black"/>
<path d="M303.577 384.514C302.623 386.134 302.719 386.516 303.863 386.516C305.77 386.516 306.437 385.276 305.388 383.751C304.816 382.702 304.435 382.893 303.577 384.514Z" fill="black"/>
<path d="M25.0976 386.036C23.4769 388.038 25.9556 390.803 30.7225 392.328C32.6292 392.9 35.2987 394.521 36.7287 395.855C38.2541 397.19 39.8748 397.953 40.7329 397.667C43.1163 396.713 42.5443 395.569 38.4448 392.805C36.3474 391.47 34.6313 389.658 34.6313 388.896C34.6313 388.133 33.8686 387.466 32.9152 387.466C31.9619 387.466 30.3411 386.798 29.2924 386.036C27.0043 384.32 26.5277 384.32 25.0976 386.036Z" fill="black"/>
<path d="M717.72 395.096C716.29 396.621 714.669 397.67 714.192 397.384C712.953 396.526 713.334 397.956 714.86 399.481C715.622 400.339 716.29 401.769 716.29 402.818C716.29 405.487 718.578 405.011 722.486 401.674C727.349 397.384 726.967 392.235 721.628 392.235C720.961 392.235 719.245 393.475 717.72 395.096Z" fill="black"/>
<path d="M56.6542 399.762C55.6055 400.43 55.7962 400.811 57.4169 401.669C59.1329 402.622 59.419 402.527 59.419 400.811C59.419 398.714 58.7516 398.428 56.6542 399.762Z" fill="black"/>
<path d="M705.326 399.955C704.373 401.385 705.612 402.339 706.851 401.099C707.519 400.432 707.519 399.86 706.947 399.479C706.375 399.193 705.612 399.383 705.326 399.955Z" fill="black"/>
<path d="M705.421 404.629C703.61 406.727 701.798 409.587 701.417 411.017C701.131 412.542 700.082 416.165 699.129 419.216L697.317 424.65L699.796 426.938C701.703 428.654 702.084 429.798 701.608 431.61C701.322 432.944 701.703 436.567 702.466 439.523C703.228 442.573 703.896 446.673 703.896 448.58C703.896 450.582 704.563 452.584 705.421 453.346C706.184 454.014 707.709 456.206 708.758 458.209C710.569 461.736 717.624 467.456 718.768 466.312C719.15 466.026 717.91 464.024 716.099 461.831C711.427 456.397 708.281 446.768 709.616 441.715C710.855 437.139 712.476 436.948 721.533 440.285C724.965 441.525 727.73 442.287 727.73 441.906C727.73 440.095 722.677 434.279 720.103 433.23C716.48 431.705 716.766 430.752 722.105 427.033C725.442 424.65 726.395 423.315 726.586 420.837C727.062 415.879 726.109 413.21 723.63 413.21C720.484 413.21 715.431 416.642 714.192 419.597C712.19 424.173 708.472 429.417 707.232 429.417C706.565 429.417 705.516 428.749 704.849 427.987C703.896 426.938 704.372 426.08 707.137 423.697C709.234 421.79 710.951 419.216 711.618 416.832C712.476 413.4 712.381 412.638 710.474 410.063C708.472 407.394 708.472 407.108 709.997 404.629C711.904 401.388 711.904 400.816 710.188 400.816C709.52 400.816 707.328 402.532 705.421 404.629Z" fill="black"/>
<path d="M643.834 414.455C642.118 418.363 638.972 420.842 635.73 420.842C634.967 420.842 632.107 422.844 629.438 425.228C625.529 428.66 624.004 429.518 622.002 429.136C620.667 428.946 616.377 428.183 612.563 427.42C606.366 426.276 605.508 426.372 604.174 427.706C602.648 429.136 602.362 429.136 599.979 427.42C597.5 425.514 586.155 423.321 584.534 424.274C584.058 424.56 583.104 424.37 582.437 423.798C581.484 423.035 580.339 423.035 578.623 423.702C574.143 425.418 572.331 424.942 572.331 422.177C572.331 419.984 572.045 419.793 569.948 420.27C568.422 420.651 566.706 420.365 565.562 419.603C562.512 417.41 559.079 418.745 557.459 422.654C554.885 428.755 549.45 432.855 549.45 428.66C549.45 427.706 549.164 426.658 548.878 426.276C548.116 425.514 540.87 432.95 540.87 434.571C540.87 435.333 540.393 436.287 539.917 436.573C537.915 437.812 535.913 442.96 536.961 444.009C538.773 445.82 538.201 447.822 536.103 447.25C534.006 446.678 533.338 448.966 535.341 449.634C537.438 450.397 534.387 460.788 530.097 467.557C526.284 473.468 526.093 473.945 526.093 481.381C526.093 487.864 525.807 489.485 523.995 491.773C522.756 493.298 521.803 495.396 521.803 496.54C521.803 499.4 519.229 502.832 517.036 502.832C514.748 502.832 514.08 505.692 515.892 507.789C517.036 509.219 517.036 509.696 515.796 511.507C514.271 513.605 514.462 517.704 516.273 521.232C517.513 523.711 521.421 524.95 523.709 523.615C526.188 521.995 528.858 524.569 530.764 530.289C532.766 536.104 532.671 538.202 529.906 549.738C526.76 562.894 526.76 564.229 530.764 566.612C534.482 568.9 536.389 569.091 537.915 567.28C539.249 565.659 547.639 564.61 549.26 565.945C550.88 567.28 550.69 564.991 548.974 561.941C547.067 558.604 547.258 553.932 549.355 549.642C551.071 546.401 551.071 545.733 549.832 543.35C548.116 540.013 548.116 531.052 549.832 528.287C551.166 526.189 550.69 523.043 547.162 511.889C546.686 510.363 547.544 509.41 551.357 506.836C556.315 503.595 558.889 503.118 561.939 504.739C564.8 506.264 564.418 513.605 561.367 517.323C560.033 518.848 558.984 520.564 558.984 520.946C558.984 522.09 569.757 531.052 573.38 532.863C575.954 534.293 576.049 534.484 574.715 536.486C573.952 537.725 573.094 540.585 572.713 542.969C572.236 546.973 572.331 547.259 575.191 548.784C578.719 550.786 587.776 551.263 585.869 549.356C582.151 545.638 587.871 541.348 595.307 542.301C599.407 542.873 599.979 542.683 601.79 540.395C604.364 537.058 604.364 535.437 601.504 534.198C600.265 533.626 597.691 531.242 595.784 528.954C593.877 526.666 591.685 524.759 590.922 524.759C589.015 524.759 588.443 523.329 589.396 520.755C589.969 519.611 590.35 518.944 590.445 519.516C590.445 519.992 591.113 519.039 591.875 517.323C593.115 514.463 593.115 513.891 591.875 512.652C591.113 511.889 590.445 510.554 590.445 509.696C590.445 508.743 589.301 507.503 587.871 506.836C584.725 505.406 576.145 493.87 576.145 491.01C576.145 488.913 579.481 486.434 585.964 483.764C588.252 482.811 591.685 479.665 595.498 475.184C598.74 471.275 602.648 467.462 603.983 466.604C606.462 465.269 606.748 465.364 609.417 467.939L612.373 470.703L613.803 467.176C615.709 462.79 615.233 461.456 611.419 459.454C609.036 458.214 607.892 458.119 604.746 459.072C601.6 460.026 601.028 460.598 601.504 462.028C601.981 463.648 601.6 463.744 595.975 463.172C590.827 462.695 589.206 462.886 585.869 464.602C581.484 466.794 577.098 467.176 575.382 465.46C574.524 464.602 572.903 465.746 568.232 470.894C562.893 476.71 561.939 477.377 559.651 476.71C558.126 476.328 555.647 474.231 553.55 471.371C551.643 468.797 548.878 466.222 547.448 465.65C545.542 464.792 544.398 463.267 543.349 460.121C540.584 452.113 542.014 444.295 547.067 439.242C550.69 435.619 552.024 435.429 557.84 437.717C561.749 439.147 562.416 439.147 568.994 437.621C574.143 436.382 576.526 436.191 577.861 436.954C579.1 437.621 583.962 437.717 591.685 437.335C602.744 436.763 603.888 436.954 607.51 438.861C609.703 439.91 612.754 440.863 614.279 440.863C615.805 440.863 617.235 441.244 617.521 441.721C618.093 442.579 626.101 441.53 630.963 439.91C634.872 438.575 642.88 430.185 649.077 420.842C653.463 414.264 653.558 413.978 651.937 412.262C650.984 411.213 649.173 410.355 647.933 410.355C646.122 410.355 645.264 411.308 643.834 414.455Z" fill="black"/>
<path d="M57.3212 416.454L54.7471 417.502L57.6072 422.555C59.2279 425.225 61.802 428.275 63.3274 429.133C64.8528 430.087 66.3782 431.803 66.6642 432.947C67.5222 436.188 70.4776 435.712 71.717 432.184C73.4331 427.322 73.0517 426.369 67.4269 420.553C61.802 414.833 61.3253 414.642 57.3212 416.454Z" fill="black"/>
<path d="M209.383 422.453C205.951 424.169 205.189 426.552 208.049 426.552C209.002 426.552 210.337 427.22 211.004 427.982C212.72 430.08 214.722 429.698 215.39 427.124C215.962 424.836 214.436 420.737 213.102 420.927C212.72 420.927 211.004 421.69 209.383 422.453Z" fill="black"/>
<path d="M200.517 423.222C199.373 424.652 199.945 426.559 201.566 426.559C202.138 426.559 203.378 427.513 204.331 428.657C205.284 429.896 206.428 430.563 206.81 430.182C207.191 429.705 206.714 428.561 205.761 427.513C204.808 426.464 204.331 424.843 204.617 423.699C205.189 421.411 202.329 421.03 200.517 423.222Z" fill="black"/>
<path d="M187.17 424.552C187.17 425.124 187.647 425.791 188.123 426.077C188.695 426.363 189.077 425.982 189.077 425.219C189.077 424.361 188.695 423.693 188.123 423.693C187.647 423.693 187.17 424.075 187.17 424.552Z" fill="black"/>
<path d="M187.17 430.375C187.17 431.805 187.837 432.281 189.744 432.281C192.127 432.281 192.223 432.281 190.507 430.375C189.553 429.326 188.409 428.468 187.933 428.468C187.551 428.468 187.17 429.326 187.17 430.375Z" fill="black"/>
<path d="M698.747 445.431C698.557 445.813 698.652 446.766 699.224 447.529C699.891 448.673 700.082 448.482 700.082 446.766C700.082 444.573 699.605 444.097 698.747 445.431Z" fill="black"/>
<path d="M211.576 448.388C209.098 451.057 211.1 452.868 215.866 452.487C218.155 452.201 219.585 452.487 219.585 453.154C219.585 453.726 220.061 454.203 220.538 454.203C222.731 454.203 221.205 451.248 217.964 448.96C213.674 446.099 213.674 446.099 211.576 448.388Z" fill="black"/>
<path d="M739.17 447.34C739.17 448.579 742.507 451.344 743.937 451.344C744.795 451.344 744.414 450.486 742.984 448.96C740.696 446.577 739.17 445.91 739.17 447.34Z" fill="black"/>
<path d="M762.814 448.955C761.289 449.813 760.145 450.957 760.145 451.625C760.145 453.245 765.675 456.201 766.437 455.057C766.723 454.485 767.486 454.771 768.153 455.724C769.202 457.059 769.869 457.154 772.539 456.296C774.255 455.629 776.829 455.152 778.259 455.152C781.691 455.152 782.74 452.578 780.261 450.099C777.782 447.525 766.533 446.858 762.814 448.955Z" fill="black"/>
<path d="M82.6814 451.917C83.0627 452.775 82.8721 454.015 82.3 454.682C80.87 456.493 82.5861 457.256 84.6835 455.731C86.0182 454.777 86.2088 454.205 85.2555 452.489C83.9208 450.106 81.8234 449.629 82.6814 451.917Z" fill="black"/>
<path d="M692.455 455.632C692.455 458.016 692.836 458.969 693.885 458.969C694.743 458.969 696.555 460.113 697.985 461.543C701.417 465.071 706.374 466.787 707.804 465.071C708.948 463.641 708.186 461.829 706.47 461.829C705.802 461.829 704.754 461.448 703.991 460.971C702.847 460.209 702.847 459.827 703.8 458.588C705.707 456.3 703.609 454.298 699.605 454.679C697.508 454.87 696.269 454.584 695.887 453.63C695.601 452.868 694.743 452.296 693.885 452.296C692.836 452.296 692.455 453.249 692.455 455.632Z" fill="black"/>
<path d="M209.384 454.972C206.905 455.353 206.714 456.592 208.43 459.643L209.67 461.836L212.244 459.357C213.674 458.118 214.818 456.783 214.818 456.592C214.818 455.639 211.291 454.59 209.384 454.972Z" fill="black"/>
<path d="M802.093 454.872C801.33 455.254 798.565 456.875 796.087 458.591C793.512 460.307 789.89 462.023 787.983 462.404C783.311 463.262 781.119 464.406 781.119 466.218C781.119 468.22 778.354 473.272 777.305 473.272C776.733 473.272 776.352 471.842 776.352 470.031C776.352 467.362 775.97 466.694 774.254 466.408C773.015 466.218 772.157 465.55 772.348 464.883C772.538 463.929 771.394 463.739 768.058 463.929C763.386 464.215 761.289 466.313 764.816 467.266C765.865 467.552 767.009 468.506 767.295 469.459C767.581 470.412 769.106 472.891 770.632 474.989C773.587 479.088 778.259 480.995 780.642 478.993C781.595 478.23 783.216 478.325 787.411 479.374C792.845 480.804 794.466 481.948 794.466 484.713C794.466 486.429 797.326 491.1 800.186 494.056C801.711 495.677 802.951 496.153 804.667 495.677C806.002 495.391 807.622 495.581 808.385 496.249C809.148 496.821 810.673 497.011 811.817 496.63C813.056 496.344 817.442 495.677 821.637 495.2C825.832 494.819 830.789 494.151 832.601 493.675C835.651 493.007 835.842 493.103 834.603 494.533C833.745 495.581 833.649 496.153 834.412 496.153C836.7 496.153 835.27 498.727 832.124 500.253C827.548 502.446 825.45 502.255 823.83 499.776L822.4 497.583L817.823 501.397C810.864 507.308 811.15 507.212 807.336 505.401C803.141 503.399 801.807 503.399 798.184 505.306C795.801 506.45 795.515 507.022 796.468 508.166C797.04 508.928 798.47 509.5 799.614 509.5C802.569 509.5 807.432 512.837 808.957 515.888C809.72 517.413 810.959 518.462 811.722 518.271C812.58 518.176 813.724 519.129 814.296 520.369C815.154 522.371 815.059 522.848 813.247 524.087C811.436 525.231 811.34 525.708 812.484 526.947C813.152 527.805 813.533 529.045 813.247 529.712C813.056 530.379 813.629 531.905 814.677 533.049C816.489 534.955 816.775 535.051 820.683 533.621C825.546 532 826.594 530.951 827.071 527.233C827.548 522.466 829.74 522.18 834.984 526.089C841.562 531.142 845.09 532.858 845.948 531.428C846.806 529.998 849.857 531.428 852.335 534.574C856.053 539.15 860.916 541.248 870.449 542.01C877.218 542.582 879.983 543.25 881.89 544.775C883.224 545.824 885.417 546.682 886.657 546.682C887.991 546.682 891.995 548.303 895.618 550.209C901.052 553.165 902.387 553.546 903.054 552.497C903.817 551.353 905.247 551.925 910.777 555.262C921.264 561.554 925.077 564.605 925.077 566.607C925.077 567.656 925.745 568.609 926.603 568.8C927.461 568.991 928.891 571.755 930.225 575.569C931.37 579.096 933.562 583.196 934.992 584.721C937.566 587.391 937.566 587.677 936.518 591.109C935.278 594.636 935.374 594.827 938.52 597.401C940.999 599.498 941.285 600.07 939.95 600.07C938.138 600.07 938.138 600.166 939.95 602.073C941.666 603.979 941.666 603.979 939.092 603.407C931.751 601.501 924.029 607.125 918.404 618.28C914.972 624.953 915.162 627.241 918.88 625.811C920.12 625.335 923.552 624.953 926.221 624.953C928.986 624.953 932.8 624.858 934.611 624.667C936.422 624.572 939.092 624.858 940.522 625.239C942.524 625.811 943.096 625.621 943.573 624.095C944.526 621.235 948.721 618.756 950.342 620.091C951.2 620.854 953.488 620.949 956.824 620.568C963.784 619.71 966.072 621.045 978.18 632.771L988 642.305V618.184C988 594.636 987.904 593.969 985.902 591.776C983.9 589.679 983.9 589.488 985.426 586.247C986.856 583.196 987.046 578.334 987.046 542.487V502.064L982.375 500.062C979.801 499.013 976.464 498.06 974.938 498.06C973.508 497.965 971.22 497.393 969.886 496.725C968.646 495.963 966.263 495.581 964.642 495.867C962.545 496.249 959.017 495.105 951.772 491.958C946.337 489.48 941.189 486.906 940.331 486.238C938.71 484.808 921.645 478.993 919.071 478.993C918.118 478.993 914.781 480.327 911.635 481.948C905.915 484.808 905.819 484.904 906.391 488.05C906.773 489.766 906.677 491.482 906.201 491.768C905.724 492.054 902.387 492.531 898.764 492.817C889.04 493.675 888.182 493.961 887.515 496.535C887.229 497.774 885.226 500.729 883.129 502.922C881.032 505.21 879.316 507.498 879.316 508.07C879.316 508.642 877.028 511.121 874.167 513.6C869.782 517.413 868.352 518.081 865.015 518.081C860.248 518.081 855.958 514.458 856.911 511.407C857.388 509.977 857.102 509.5 855.577 509.5C854.051 509.5 853.575 508.642 853.003 505.21C852.526 501.874 852.049 500.92 850.619 500.92C849.571 500.92 848.808 501.587 848.808 502.35C848.808 504.829 847.473 503.971 844.899 499.681C841.181 493.77 840.418 485.19 843.183 479.755L845.28 475.751L842.039 469.745C838.607 463.453 838.797 463.548 829.55 462.309C826.88 461.927 823.639 460.593 821.16 458.877C816.203 455.254 806.383 453.252 802.093 454.872Z" fill="black"/>
<path d="M750.611 456.117C750.611 456.594 751.278 457.07 752.041 457.07C752.804 457.07 753.471 456.594 753.471 456.117C753.471 455.545 752.804 455.164 752.041 455.164C751.278 455.164 750.611 455.545 750.611 456.117Z" fill="black"/>
<path d="M693.599 461.068C692.837 461.83 692.741 462.498 693.504 463.451C695.03 465.262 696.269 464.976 696.269 462.879C696.269 460.496 695.03 459.638 693.599 461.068Z" fill="black"/>
<path d="M867.875 461.833C867.875 462.31 869.496 463.549 871.498 464.598C873.405 465.646 876.265 468.03 877.695 469.841C879.792 472.511 881.031 473.273 883.415 473.273C886.275 473.273 888.849 471.939 888.849 470.318C888.849 470.032 887.61 469.46 885.989 469.174C884.178 468.793 882.748 467.553 881.794 465.837C880.745 463.74 879.22 462.786 876.074 461.928C870.83 460.594 867.875 460.594 867.875 461.833Z" fill="black"/>
<path d="M87.0664 468.408C85.541 471.364 85.9224 473.556 88.8778 478.228C92.0239 483.185 95.17 485.664 98.2208 485.664C102.511 485.664 102.416 482.804 97.8395 474.414C94.026 467.455 93.2633 466.597 90.8799 466.597C89.0685 466.597 87.7338 467.264 87.0664 468.408Z" fill="black"/>
<path d="M855.768 468.125C855.1 469.937 857.675 472.32 860.439 472.32C862.632 472.32 862.632 471.081 860.535 469.27C857.484 466.695 856.435 466.409 855.768 468.125Z" fill="black"/>
<path d="M604.269 472.223C601.885 472.699 601.313 473.367 601.123 475.941C600.741 479.659 603.03 480.994 605.699 478.515C607.51 476.894 607.606 476.894 609.417 479.087L611.228 481.375L613.707 479.087C616.281 476.608 616.949 473.843 615.137 472.699C614.565 472.413 613.612 472.604 613.04 473.176C611.515 474.701 609.512 474.511 609.512 472.795C609.512 471.269 608.845 471.174 604.269 472.223Z" fill="black"/>
<path d="M700.559 472.311C699.892 473.36 702.275 474.599 703.896 474.027C704.468 473.837 703.991 473.169 703.038 472.597C701.798 471.835 700.94 471.739 700.559 472.311Z" fill="black"/>
<path d="M749.181 472.32C749.467 472.797 750.42 473.273 751.183 473.273C751.946 473.273 752.518 472.797 752.518 472.32C752.518 471.748 751.66 471.367 750.516 471.367C749.467 471.367 748.895 471.748 749.181 472.32Z" fill="black"/>
<path d="M699.701 477.466C696.746 480.326 696.65 481.279 699.225 483.853C700.655 485.283 701.703 485.569 703.229 484.997C704.373 484.616 707.614 484.235 710.379 484.235C716.576 484.235 716.767 482.9 711.237 479.086C705.04 474.892 702.561 474.51 699.701 477.466Z" fill="black"/>
<path d="M237.698 479.753C237.698 480.23 236.65 480.421 235.315 480.135C232.55 479.658 230.071 481.374 230.071 483.662C230.071 484.52 228.737 486.332 227.021 487.762C225.305 489.096 224.256 490.622 224.637 491.003C225.019 491.48 228.069 491.957 231.406 492.147C237.222 492.529 237.508 492.624 239.891 496.437C241.321 498.63 242.465 501.681 242.465 503.397C242.465 507.115 244.467 509.499 250.188 512.74L254.668 515.219L256.766 509.785C258.005 506.734 259.435 503.683 259.912 503.016C261.056 501.586 261.056 501.49 256.098 500.156C249.711 498.249 248.185 496.437 245.993 487.571C243.895 479.658 243.8 479.467 240.845 479.181C239.128 478.991 237.698 479.277 237.698 479.753Z" fill="black"/>
<path d="M869.305 481.755C869.877 482.327 872.547 483.185 875.311 483.757C878.076 484.234 881.508 485.568 883.129 486.712C885.131 488.238 886.275 488.524 887.133 487.856C887.801 487.284 890.47 486.903 892.949 486.903C898.097 486.903 900.576 485.473 897.811 483.948C896.762 483.471 891.9 482.708 886.943 482.422C881.985 482.041 875.788 481.564 873.119 481.278C869.687 480.897 868.638 480.992 869.305 481.755Z" fill="black"/>
<path d="M633.919 483.372C632.107 485.088 632.107 484.898 633.347 487.948C634.395 490.809 636.874 491.095 641.069 488.902C643.262 487.853 644.31 487.758 645.264 488.52C646.217 489.283 647.552 489.283 650.507 488.52C653.463 487.758 655.179 487.758 657.086 488.52C658.897 489.283 660.422 489.283 662.329 488.52C666.333 487.09 666.619 487.281 666.047 490.999C665.571 493.764 665.761 494.431 666.81 494.05C667.573 493.859 668.24 492.525 668.431 491.285C668.621 489.474 669.67 488.52 672.244 487.567L675.772 486.232L672.911 485.565C671.386 485.184 667.096 484.898 663.378 484.802C659.755 484.802 653.367 484.04 649.268 483.277C639.734 481.466 635.73 481.466 633.919 483.372Z" fill="black"/>
<path d="M753.281 484.336C750.802 485.098 748.514 486.147 748.228 486.624C747.561 487.768 754.615 491.391 757.476 491.391C760.24 491.391 762.433 489.961 761.67 488.721C761.384 488.149 761.575 487.577 762.147 487.386C762.814 487.196 763.005 486.147 762.624 484.908C761.766 482.429 759.764 482.334 753.281 484.336Z" fill="black"/>
<path d="M114.714 500.824C114.714 503.398 117.002 507.593 118.337 507.402C119.29 507.211 120.053 508.165 120.529 509.976C121.006 511.597 122.627 514.171 124.248 515.696L127.108 518.461V514.933C127.108 512.073 126.25 510.548 121.769 505.781C116.716 500.347 114.714 498.917 114.714 500.824Z" fill="black"/>
<path d="M278.312 502.35C276.882 506.068 276.691 512.932 277.931 514.553C279.075 516.078 279.647 516.173 281.84 515.125C283.842 514.267 284.7 514.267 285.748 515.125C286.892 516.078 287.655 515.601 290.038 512.265C291.659 510.072 292.994 507.879 292.994 507.498C292.994 507.021 291.183 505.4 288.99 503.78C284.7 500.634 279.265 499.871 278.312 502.35Z" fill="black"/>
<path d="M738.408 507.589C736.024 509.114 735.357 509.21 734.403 508.066C733.641 507.112 731.257 506.921 724.393 507.303C715.622 507.875 715.241 507.97 711.713 511.307C708.186 514.644 708.09 514.93 709.139 518.076L710.283 521.413L712.095 517.885L713.906 514.358L717.719 517.695C720.103 519.792 721.056 521.222 720.389 521.508C719.722 521.794 719.15 522.652 719.15 523.415C719.15 524.845 722.296 525.131 725.346 523.796C727.158 523.129 727.158 523.033 725.537 522.366C723.916 521.699 723.916 521.508 725.918 519.411C728.016 517.123 730.59 516.455 731.925 517.79C732.306 518.267 734.403 519.029 736.596 519.601C739.742 520.364 741.363 520.364 744.032 519.315C747.465 517.981 747.655 518.076 759.191 523.796C765.579 527.038 770.917 529.516 771.108 529.326C771.203 529.135 771.68 527.705 771.966 525.989C772.538 523.415 772.252 522.461 769.773 519.887C768.153 518.171 766.818 516.36 766.818 515.692C766.818 513.404 762.432 510.449 759 510.449C757.094 510.449 754.52 510.068 753.185 509.591C751.945 509.114 748.799 508.066 746.13 507.303C741.649 505.968 741.077 505.968 738.408 507.589Z" fill="black"/>
<path d="M709.139 509.5C708.853 509.976 709.235 510.453 709.997 510.453C710.855 510.453 711.523 509.976 711.523 509.5C711.523 508.928 711.141 508.546 710.665 508.546C710.093 508.546 709.425 508.928 709.139 509.5Z" fill="black"/>
<path d="M676.534 512.357C671.577 513.406 668.621 514.931 668.621 516.552C668.621 518.554 673.579 524.465 677.678 527.039C682.35 530.089 684.638 530.185 690.549 527.134C694.934 524.941 695.315 524.465 695.315 521.414C695.315 518.649 694.934 518.077 693.313 518.077C692.265 518.077 691.597 517.696 691.883 517.219C692.265 516.742 691.121 515.217 689.5 513.882C686.449 511.308 683.78 510.927 676.534 512.357Z" fill="black"/>
<path d="M704.372 515.219C704.086 515.695 704.468 516.172 705.23 516.172C706.088 516.172 706.756 515.695 706.756 515.219C706.756 514.646 706.374 514.265 705.898 514.265C705.326 514.265 704.658 514.646 704.372 515.219Z" fill="black"/>
<path d="M699.606 517.133C699.32 517.609 699.892 518.086 701.036 518.086C702.18 518.086 702.752 517.609 702.466 517.133C702.18 516.561 701.513 516.179 701.036 516.179C700.559 516.179 699.892 516.561 699.606 517.133Z" fill="black"/>
<path d="M715.813 521.893C715.431 522.465 715.527 523.419 716.099 523.991C716.671 524.563 717.243 524.563 717.72 523.8C718.101 523.228 718.006 522.275 717.434 521.703C716.861 521.131 716.289 521.131 715.813 521.893Z" fill="black"/>
<path d="M692.932 529.523C693.218 530 693.694 530.477 693.98 530.477C694.171 530.477 694.362 530 694.362 529.523C694.362 528.951 693.885 528.57 693.313 528.57C692.836 528.57 692.646 528.951 692.932 529.523Z" fill="black"/>
<path d="M604.173 532.858C603.411 534.765 605.413 537.148 607.701 537.148C609.512 537.148 611.038 534.002 609.989 532.382C609.035 530.856 604.745 531.238 604.173 532.858Z" fill="black"/>
<path d="M826.88 537.148C827.643 537.625 828.787 538.102 829.264 538.102C829.836 538.102 829.55 537.625 828.787 537.148C828.024 536.672 826.975 536.195 826.403 536.195C825.927 536.195 826.117 536.672 826.88 537.148Z" fill="black"/>
<path d="M603.029 542.102C602.552 542.769 601.79 544.866 601.408 546.678C600.741 549.728 600.646 549.824 599.883 547.822C598.93 545.343 598.167 545.248 593.877 547.059C591.017 548.203 590.635 548.87 590.159 552.97C589.873 555.544 589.491 558.499 589.301 559.548C589.015 561.169 589.587 561.455 592.351 561.455C595.402 561.455 595.688 561.741 595.688 564.124C595.784 568.7 600.36 570.226 601.885 566.222C602.362 564.887 604.364 562.885 606.175 561.741L609.607 559.739L607.033 557.069C604.745 554.686 604.555 553.923 605.317 551.635C605.985 549.824 606.843 549.156 608.273 549.252C610.179 549.442 610.275 549.252 609.321 546.392C608.082 542.674 606.747 540.957 605.222 540.957C604.555 540.957 603.601 541.529 603.029 542.102Z" fill="black"/>
<path d="M580.053 555.546C578.528 557.072 578.814 559.551 580.721 561.267C583.104 563.459 584.439 563.269 585.011 560.79C586.06 557.072 582.437 553.163 580.053 555.546Z" fill="black"/>
<path d="M616.281 559.455C615.423 560.409 615.423 560.981 616.186 561.457C617.711 562.411 619.141 560.79 618.188 559.265C617.616 558.311 617.234 558.311 616.281 559.455Z" fill="black"/>
<path d="M161.811 561.556C162.097 562.414 162.383 563.272 162.383 563.462C162.383 564.32 167.054 563.748 167.722 562.795C168.484 561.46 166.387 560.03 163.431 560.03C161.811 560.03 161.334 560.412 161.811 561.556Z" fill="black"/>
<path d="M818.11 563.365C815.44 567.369 813.724 573.375 815.154 573.375C816.394 573.375 821.446 562.411 820.97 560.886C820.684 560.028 819.635 560.981 818.11 563.365Z" fill="black"/>
<path d="M846.138 565.74C844.422 567.838 843.469 569.649 844.041 570.031C845.09 570.698 845.376 574.607 844.327 575.56C844.041 575.942 843.183 575.751 842.516 575.179C840.8 573.749 840.514 574.702 839.751 584.522C839.274 591.386 839.369 592.339 840.895 593.197C843.278 594.628 847.378 591.958 849.475 587.668C850.429 585.857 851.191 583.854 851.191 583.378C851.191 582.806 852.24 581.566 853.479 580.422C855.481 578.706 855.577 578.23 854.433 576.514C853.479 574.988 853.479 574.13 854.337 573.177C855.863 571.27 852.907 561.927 850.81 561.927C849.952 561.927 847.854 563.643 846.138 565.74Z" fill="black"/>
<path d="M809.72 570.038C809.72 572.326 810.196 573.375 811.15 573.375C812.58 573.375 813.057 570.896 812.008 568.227C810.959 565.557 809.72 566.606 809.72 570.038Z" fill="black"/>
<path d="M550.022 570.989C549.164 573.372 550.404 583.001 551.453 582.334C552.501 581.762 552.501 573.658 551.453 571.084C550.785 569.273 550.69 569.273 550.022 570.989Z" fill="black"/>
<path d="M239.32 582.051C234.362 592.919 234.457 594.635 240.082 592.538C243.038 591.489 243.705 591.584 246.184 593.3C247.709 594.444 250.093 595.303 251.427 595.303C253.239 595.303 253.906 595.779 253.906 597.114C253.906 598.163 253.525 599.307 252.953 599.593C252.476 599.879 251.999 600.927 251.999 601.881C251.999 603.311 253.143 603.692 259.436 604.264C268.493 605.027 274.976 606.648 285.177 610.652L293.185 613.798L297.57 612.082C302.147 610.27 313.396 609.889 315.398 611.414C315.875 611.891 318.735 612.463 321.786 612.844C324.741 613.13 330.08 614.751 333.703 616.372C340.377 619.423 349.815 622.95 351.34 622.95C351.817 622.95 351.912 622.474 351.626 621.997C350.864 620.757 350.578 620.757 357.347 622.855C361.446 624.19 363.734 624.38 365.45 623.713C367.071 623.141 370.694 623.332 377.081 624.476C385.09 625.906 387.187 625.906 391.573 624.857C396.339 623.713 397.102 623.808 405.396 626.668C410.259 628.289 415.502 629.624 417.028 629.624C418.553 629.624 419.792 630.005 419.792 630.577C419.792 631.912 423.51 633.628 425.227 633.056C426.371 632.579 426.085 631.817 423.701 629.147C420.46 625.429 419.983 622.855 422.176 621.043C423.32 620.09 423.606 620.09 423.606 621.425C423.606 623.332 427.038 625.524 431.423 626.287C435.904 627.145 438.288 629.719 437.525 632.961C436.762 636.011 438.192 636.107 439.622 633.056C440.194 631.817 442.482 629.814 444.771 628.575C449.442 625.906 450.3 623.904 447.535 621.139C444.961 618.565 439.527 617.707 434.951 619.137C429.612 620.948 424.082 619.232 423.32 615.514C422.938 613.512 421.604 612.272 418.267 610.556C413.977 608.459 413.309 608.459 408.447 609.508C397.77 611.891 396.816 611.796 390.238 608.364C386.901 606.552 384.041 604.741 383.85 604.264C383.66 603.692 384.422 602.357 385.471 601.213C387.187 599.402 388.045 599.211 391.954 599.879C400.058 601.118 404.729 600.641 410.64 597.877C418.839 594.063 416.932 593.014 401.583 592.824C391.763 592.728 388.999 592.919 388.617 593.968C387.95 595.684 386.043 595.684 384.613 593.968C383.946 593.205 380.99 592.347 378.035 592.061C366.88 591.012 363.353 590.345 362.876 589.01C362.304 587.39 360.302 587.294 357.919 588.82C356.298 589.773 355.535 589.487 352.198 586.436C350.006 584.529 347.908 582.909 347.432 582.909C347.05 582.909 345.048 585.292 343.141 588.152C341.139 591.298 338.756 593.586 337.421 593.968C336.182 594.254 331.606 593.777 327.316 592.919C322.739 591.966 318.068 591.584 315.875 591.966C313.682 592.347 311.394 592.156 310.155 591.489C308.82 590.822 307.772 590.726 307.009 591.298C306.246 591.87 304.721 591.87 302.528 591.108C299.954 590.345 299.096 589.487 298.905 587.485C298.715 585.959 297.189 583.671 295.282 582.051C292.518 579.572 291.755 579.286 290.134 580.239C288.704 581.193 287.655 581.097 284.891 579.763C282.984 578.905 280.696 578.142 279.838 578.142C278.884 578.142 277.359 577.57 276.31 576.807C273.546 574.9 264.679 574.328 263.345 575.854C261.914 577.57 260.198 577.57 258.768 575.854C258.196 575.186 255.432 574.328 252.667 574.042C249.997 573.661 246.851 573.184 245.803 572.898C244.086 572.326 243.228 573.566 239.32 582.051Z" fill="black"/>
<path d="M853.67 586.812C852.431 588.433 851.763 589.958 852.145 590.34C852.907 591.102 856.339 586.812 856.435 585.001C856.435 583.476 856.339 583.571 853.67 586.812Z" fill="black"/>
<path d="M440.766 593.392C441.529 593.869 443.245 594.25 444.58 594.25C446.772 594.25 446.772 594.155 445.056 593.392C444.008 592.915 442.292 592.534 441.243 592.534C439.622 592.439 439.622 592.629 440.766 593.392Z" fill="black"/>
<path d="M554.217 597.112C554.217 598.446 555.933 599.304 557.172 598.542C557.935 598.16 557.84 597.684 556.982 597.112C555.266 596.063 554.217 596.063 554.217 597.112Z" fill="black"/>
<path d="M419.792 598.64C420.459 599.403 421.317 600.07 421.794 600.07C422.271 600.07 422.652 599.403 422.652 598.64C422.652 597.782 421.794 597.21 420.65 597.21C418.934 597.21 418.838 597.401 419.792 598.64Z" fill="black"/>
<path d="M722.391 598.25C722.105 598.823 722.391 599.681 723.059 600.157C725.156 601.492 725.823 601.206 725.823 599.109C725.823 597.106 723.535 596.534 722.391 598.25Z" fill="black"/>
<path d="M785.695 599.026C784.36 600.075 781.882 603.126 780.07 605.7C778.259 608.369 776.257 610.372 775.685 610.085C775.017 609.895 774.445 610.085 774.445 610.562C774.445 611.134 775.113 611.516 775.875 611.516C776.829 611.516 777.305 612.469 777.305 614.28C777.305 616.282 777.877 617.14 779.403 617.522C780.547 617.903 781.596 617.998 781.691 617.903C786.839 610.658 788.746 607.035 788.746 604.461C788.746 602.745 789.223 600.933 789.699 600.456C790.462 599.694 790.367 599.122 789.413 598.359C788.364 597.406 787.506 597.596 785.695 599.026Z" fill="black"/>
<path d="M792.082 598.16C791.796 598.636 792.368 599.494 793.417 599.971C795.896 601.401 796.372 601.306 795.8 599.685C795.133 597.969 792.75 597.016 792.082 598.16Z" fill="black"/>
<path d="M560.891 600.07C560.891 600.547 562.035 601.023 563.369 601.023C564.704 601.023 565.562 600.642 565.181 600.07C564.895 599.498 563.751 599.117 562.702 599.117C561.749 599.117 560.891 599.498 560.891 600.07Z" fill="black"/>
<path d="M775.398 605.403C775.398 607.024 777.496 606.738 778.068 605.022C778.259 604.355 777.782 603.878 776.924 603.878C776.066 603.878 775.398 604.545 775.398 605.403Z" fill="black"/>
<path d="M697.222 608.177C697.222 609.798 697.413 609.893 699.51 609.035C701.226 608.368 700.654 606.747 698.557 606.747C697.794 606.747 697.222 607.414 697.222 608.177Z" fill="black"/>
<path d="M676.248 609.226C674.437 609.989 671.768 610.465 670.337 610.179C668.24 609.798 667.382 610.179 665.761 612.372C662.901 616.567 663.283 617.234 668.812 617.234C672.34 617.234 675.581 616.376 680.348 614.184L686.926 611.133L684.829 609.417C682.255 607.319 680.634 607.319 676.248 609.226Z" fill="black"/>
<path d="M744.51 613.228C744.224 613.704 745.082 615.134 746.416 616.374C748.8 618.662 748.895 618.662 750.23 616.755C750.993 615.802 751.469 614.467 751.279 613.895C750.897 612.656 745.272 612.083 744.51 613.228Z" fill="black"/>
<path d="M492.248 619.046C487.195 620.094 486.337 620.762 487.577 623.145C488.435 624.671 488.339 625.338 487.386 625.91C485.479 627.054 484.526 626.959 482.619 625.243C481.094 623.813 480.617 623.908 477.09 625.91C474.897 627.054 472.99 628.77 472.799 629.533C471.179 635.634 471.274 636.397 473.562 638.685C476.327 641.45 477.662 641.64 480.426 639.734C481.475 638.971 484.24 638.399 486.623 638.304C491.104 638.304 503.212 634.967 504.165 633.442C505.023 632.011 506.549 632.297 506.549 633.918C506.549 636.492 516.368 635.825 520.945 632.965C523.042 631.63 524.472 630.105 524.091 629.533C523.709 628.77 523.233 628.865 522.661 629.723C521.612 631.535 520.087 629.819 519.705 626.291C519.419 623.717 519.038 623.431 516.082 623.336C514.271 623.336 511.983 622.954 511.03 622.478C509.981 622.096 508.36 622.287 506.835 623.05C504.642 624.289 504.261 624.099 501.973 621.238C499.303 618.092 498.35 617.902 492.248 619.046Z" fill="black"/>
<path d="M706.756 618.95C706.756 620.571 710.474 623.145 711.999 622.669C712.762 622.287 713.429 621.143 713.429 620.095C713.429 618.569 712.857 618.188 710.093 618.188C708.281 618.188 706.756 618.569 706.756 618.95Z" fill="black"/>
<path d="M519.991 620.475C519.133 621.429 519.133 622.001 519.896 622.478C521.516 623.431 523.423 621.334 522.184 620.094C521.421 619.331 520.754 619.522 519.991 620.475Z" fill="black"/>
<path d="M600.455 620.089C600.169 620.566 600.36 621.042 600.837 621.042C602.648 621.042 601.981 622.663 599.597 623.712C598.358 624.284 595.784 626.095 593.877 627.716L590.445 630.767L586.155 629.146C582.913 627.907 580.53 627.621 576.43 628.097C571.473 628.669 570.329 628.383 562.321 624.856L553.55 621.042L548.115 622.473C541.156 624.284 539.344 625.237 537.438 628.288C536.198 630.099 536.103 631.148 536.866 632.864C537.819 634.962 538.105 635.057 547.734 634.58C555.647 634.199 558.316 634.485 560.7 635.724C563.465 637.154 563.941 637.154 567.564 635.724C570.329 634.58 572.808 634.294 576.24 634.771C579.195 635.152 581.579 635.057 582.246 634.485C582.913 633.913 587.68 632.578 592.733 631.625C597.881 630.576 603.697 628.86 605.699 627.811C609.322 625.905 609.322 625.905 610.656 627.811C611.61 629.337 612.563 629.527 615.042 629.051C616.663 628.669 618.093 627.907 618.093 627.239C618.093 626.572 618.951 625.809 619.904 625.523C620.857 625.333 622.192 624.189 622.764 623.14C623.813 621.233 623.622 621.233 615.9 621.424C611.514 621.614 607.415 621.996 606.843 622.377C606.271 622.663 605.318 622.091 604.745 621.042C603.697 619.04 601.409 618.468 600.455 620.089Z" fill="black"/>
<path d="M634.872 623.33L633.442 626.953L637.923 626.286C647.075 624.951 650.507 623.807 650.507 621.9C650.507 619.994 649.554 619.803 640.306 619.708C636.493 619.612 636.207 619.803 634.872 623.33Z" fill="black"/>
<path d="M771.585 621.994C769.011 625.617 770.251 625.617 774.445 621.994C777.496 619.515 777.591 619.229 775.685 619.134C774.445 619.134 772.825 620.278 771.585 621.994Z" fill="black"/>
<path d="M628.389 622.661C624.289 625.426 624.003 626.284 626.673 627.714C629.056 628.953 630.105 628.381 632.012 624.663C634.109 620.659 632.584 619.801 628.389 622.661Z" fill="black"/>
<path d="M730.018 621.519C730.972 622.282 732.306 622.568 732.783 622.282C733.355 621.9 732.974 621.328 731.925 620.947C728.97 619.803 728.112 620.089 730.018 621.519Z" fill="black"/>
<path d="M459.357 623.043C457.164 624.759 456.878 625.617 457.45 628.287C457.831 630.765 457.641 631.623 456.211 632.386C455.162 632.958 454.018 633.053 453.637 632.672C453.16 632.291 453.16 632.481 453.541 633.149C453.827 633.721 456.02 634.96 458.403 635.818C463.17 637.725 467.46 637.153 467.46 634.674C467.46 633.816 468.509 631.337 469.748 629.145C472.323 624.759 472.037 623.52 468.128 622.09C464.219 620.564 462.312 620.755 459.357 623.043Z" fill="black"/>
<path d="M527.522 629.045C527.522 630.38 527.999 631.715 528.476 632.001C529.048 632.287 529.429 632.001 529.429 631.238C529.429 630.475 530.097 629.522 530.955 629.236C532.861 628.473 531.813 626.757 529.334 626.757C527.999 626.757 527.522 627.424 527.522 629.045Z" fill="black"/>
<path d="M445.247 631.245C444.007 632.389 444.579 633.438 446.486 633.438C447.726 633.438 448.202 632.961 447.821 632.007C447.154 630.482 446.2 630.196 445.247 631.245Z" fill="black"/>
<path d="M532.861 632.007C532.575 632.865 532.861 633.438 533.719 633.438C535.245 633.438 535.626 631.912 534.291 631.149C533.815 630.863 533.243 631.245 532.861 632.007Z" fill="black"/>
<path d="M645.359 636.674C643.929 637.914 638.59 640.297 633.632 642.013C632.527 642.389 633.066 642.346 632.059 642.752C630.854 643.238 629.505 648.387 628.453 648.907C627.291 649.48 623.688 647.024 622.731 647.625C619.036 649.945 618.093 651.253 618.093 653.454C618.093 654.502 616.567 656.981 614.756 659.079C612.944 661.081 611.419 663.75 611.419 664.894C611.419 666.992 611.514 666.992 613.135 665.561C615.232 663.655 619.237 663.464 621.811 665.085C623.241 665.943 624.575 665.943 627.817 664.989C633.823 663.273 638.685 659.841 646.026 652.31C651.746 646.303 652.414 645.255 651.937 642.871C651.46 640.869 651.746 639.916 652.795 639.535C654.797 638.772 654.702 636.674 652.7 636.007C651.746 635.816 650.316 635.34 649.554 634.958C648.791 634.672 646.884 635.435 645.359 636.674Z" fill="black"/>
<path d="M521.802 646.682C519.991 647.635 518.37 648.875 518.18 649.447C517.798 650.781 522.088 652.783 531.05 655.357C536.198 656.787 538.868 658.218 541.728 660.982C543.921 663.08 546.876 664.986 548.401 665.368C551.738 666.035 556.505 663.938 558.126 660.982C559.46 658.408 557.458 656.215 548.115 649.828C541.442 645.252 541.251 645.252 533.147 645.061C526.951 644.966 524.281 645.347 521.802 646.682Z" fill="black"/>
<path d="M579.005 669.193C577.861 670.527 577.956 670.909 579.005 671.576C580.626 672.625 584.058 670.909 583.486 669.383C582.914 667.572 580.435 667.477 579.005 669.193Z" fill="black"/>
<path d="M607.129 671.761C597.977 677.672 599.216 680.532 608.845 675.766C611.61 674.336 613.898 673.191 613.993 673.096C614.088 673.001 613.898 671.857 613.516 670.522L612.849 668.043L607.129 671.761Z" fill="black"/>
<circle cx="265" cy="580" fill="#5CE50D"/>
<circle cx="479" cy="442" fill="#E52A0D"/>
<circle cx="173" cy="435" fill="#E52A0D"/>
<circle cx="838" cy="527" fill="#E52A0D"/>
</svg>
