<svg width="1000" height="1000" viewBox="0 0 1000 1000" fill="none" xmlns="http://www.w3.org/2000/svg">
<g clip-path="url(#clip0_1_2126)">
<rect width="1000" height="1000" />
<path d="M403.276 1.02338C402.006 1.60931 400.834 2.9765 400.444 3.95306C400.151 5.02728 398.686 7.27338 397.221 8.93353C395.756 10.6913 392.631 15.2812 390.287 19.0898C386.479 25.3398 385.502 26.3163 382.475 26.8046C380.62 27.0976 377.299 27.9765 375.151 28.7578C372.905 29.539 369.975 30.1249 368.51 30.1249C366.069 30.1249 365.873 30.4179 365.873 33.7382C365.776 37.2538 364.311 39.0117 339.604 64.7929L313.334 92.1367L292.045 96.0429L270.854 99.9492L265.092 110.301L259.428 120.555L257.28 139.598L255.131 158.543L260.6 168.797L266.069 179.051L266.752 193.504L267.436 207.957L261.772 216.453C256.401 224.559 256.205 225.242 255.815 232.273C255.424 237.84 254.545 241.551 251.909 247.898L248.393 256.199L249.467 282.859L250.639 309.617L246.635 315.379C244.487 318.602 239.213 328.367 234.916 337.059C230.62 345.75 225.932 354.051 224.467 355.516C222.514 357.371 47.0258 450.437 5.91248 471.336L1.81091 473.387L6.20544 490.77C8.54919 500.34 14.4086 523.387 19.1937 541.941C24.0765 560.594 27.9828 576.414 27.9828 577.293C27.9828 578.27 26.5179 578.953 23.5883 579.344C20.2679 579.93 19.1937 580.516 19.1937 581.883C19.1937 583.641 22.9047 602.586 23.3929 602.977C23.4906 603.074 28.4711 602.195 34.4281 601.023L45.2679 598.777L47.9047 604.051C49.2719 606.883 50.4437 609.617 50.4437 610.105C50.4437 610.594 47.3187 613.719 43.5101 616.941C39.3109 620.555 37.1625 623.094 37.9437 623.387C38.6273 623.582 66.4594 629.734 99.7601 636.863L160.405 649.949L210.014 685.691L259.623 721.336L292.827 737.254L326.03 753.27L356.498 781.883C381.987 806.004 395.073 817.332 438.139 852.293C478.276 885.008 593.12 977.977 598.979 982.469C600.444 983.641 641.264 987.937 714.018 994.578L774.565 1000.05L778.471 998.094C780.62 996.922 784.819 994.969 787.748 993.699C794.389 990.77 806.01 978.367 811.674 968.113C813.823 964.305 816.752 960.105 818.315 958.641C819.877 957.176 822.514 952.293 824.467 947.605C826.323 943.016 829.741 936.082 832.182 932.273C834.721 928.172 836.577 923.973 836.577 922.41C836.577 920.848 837.455 918.406 838.432 916.941C839.409 915.574 841.752 910.203 843.51 905.125C846.635 896.141 854.35 880.906 856.498 879.539C857.084 879.148 859.721 878.367 862.455 877.684C865.092 877.098 868.51 875.535 869.877 874.168C872.416 871.824 872.416 871.824 891.85 872.117L911.284 872.41L924.662 877.684L938.041 882.957L941.166 880.223C944.096 877.879 944.975 877.586 950.346 877.977C954.838 878.27 957.573 879.148 962.065 881.687C972.807 887.937 987.846 890.965 995.268 888.523C998.588 887.449 998.784 887.254 997.319 885.691C996.44 884.812 993.412 883.738 990.678 883.152L985.698 882.176L983.354 875.34C981.987 871.531 980.912 866.355 980.912 863.621C980.912 859.031 980.522 858.445 973.979 851.219C968.022 844.578 966.752 843.602 963.823 843.602C958.647 843.602 956.987 842.234 956.205 837.156C955.229 830.711 954.936 830.125 951.518 829.441C949.76 829.051 946.537 827.879 944.291 826.805L940.092 824.852V811.473C940.092 804.051 939.799 789.988 939.409 780.125L938.823 762.254L922.026 762.742L905.229 763.23L904.545 757.371C904.252 754.148 903.959 742.625 903.959 731.785V712.059L911.284 690.281C915.385 678.27 918.412 667.723 918.12 666.746C917.827 665.77 916.069 663.719 914.213 662.059C912.358 660.398 910.795 658.445 910.795 657.664C910.795 656.785 909.916 655.711 908.745 655.125C907.67 654.539 905.229 651.512 903.276 648.484C901.323 645.457 898.295 641.16 896.44 639.012C894.682 636.863 892.045 633.641 890.58 631.883C889.018 630.027 886.674 628.172 885.209 627.586C882.963 626.805 882.475 626.023 882.475 623.484C882.475 621.727 882.866 619.969 883.354 619.48C883.94 618.895 881.987 615.672 878.178 610.984C873.686 605.613 871.83 602.488 871.342 599.559C870.659 594.773 865.678 588.719 862.553 588.719C861.381 588.719 859.526 588.133 858.452 587.352C856.791 586.082 856.401 586.18 854.643 587.645C853.569 588.621 850.737 589.695 848.295 589.988C844.194 590.477 843.51 590.184 835.112 584.422C826.616 578.465 818.315 570.555 814.702 565.184C813.823 563.719 811.772 562.352 810.209 561.961C808.549 561.668 804.448 559.031 800.932 556.102C797.514 553.074 792.729 549.754 790.483 548.582C788.237 547.41 783.94 544.676 781.108 542.43C778.276 540.281 774.662 537.547 773.198 536.375C769.682 533.836 758.549 531.785 747.807 531.687C737.651 531.59 736.284 530.32 739.604 524.266L741.655 520.359L738.139 517.43C736.186 515.867 734.135 514.5 733.647 514.5C733.256 514.5 733.354 513.816 734.037 513.035C734.721 512.254 736.186 511.57 737.455 511.57C738.627 511.57 741.264 510.105 743.315 508.25C747.123 505.027 747.123 505.027 745.463 502.488C744.584 501.023 743.803 498.777 743.803 497.508C743.803 496.043 743.022 494.578 741.948 494.09C738.237 492.039 732.084 483.152 732.084 479.832C732.084 475.828 724.662 466.258 722.319 467.234C721.537 467.625 719.389 468.113 717.729 468.406C713.725 468.894 713.334 466.648 716.85 463.328C719.194 461.277 719.194 460.984 717.924 457.273C716.752 453.758 716.264 453.367 712.358 452.879C709.037 452.391 707.573 452.684 705.424 454.246C702.397 456.297 701.225 455.809 700.639 452C700.444 450.437 698.588 448.289 695.268 445.75C691.459 442.918 690.092 441.355 690.092 439.5C690.092 438.133 688.627 435.301 686.772 433.055C685.014 430.809 682.573 427.098 681.303 424.656C677.104 416.355 675.639 414.891 671.635 414.891C669.389 414.891 667.338 414.305 666.557 413.328C665.385 411.961 665.58 411.473 667.827 409.617C669.389 408.348 670.561 406.102 671.049 403.66C671.928 398.387 673.784 395.262 677.397 392.625C679.838 390.769 680.327 389.793 679.936 388.035C679.643 386.766 680.034 384.227 680.815 382.273C682.573 378.172 682.67 375.633 681.205 370.75C680.327 367.43 679.838 366.941 676.323 366.453C673.002 365.867 672.123 365.184 670.561 362.059C667.729 356.59 667.924 352.586 671.049 351.805C674.272 351.023 676.42 346.824 676.42 341.258C676.42 335.984 677.495 335.105 681.108 337.547C683.061 339.012 685.405 339.5 690.483 339.5L697.123 339.598L696.733 334.91C696.44 331.785 695.073 328.172 692.729 324.461L689.311 318.797L691.166 315.086C692.143 313.133 693.022 310.887 693.022 310.203C693.022 309.519 694.78 308.152 696.928 307.273C700.639 305.711 700.834 305.516 700.834 301.219C700.834 298.777 701.03 296.727 701.225 296.727C701.42 296.727 703.471 297.41 705.815 298.191C711.381 300.242 711.772 299.656 712.065 288.914C712.065 285.008 712.748 282.566 714.506 279.93C715.873 277.977 717.338 276.316 717.729 276.219C718.12 276.219 720.17 277.293 722.123 278.66L725.639 281.102L728.178 278.66C729.545 277.293 731.791 276.219 733.159 276.219C738.627 276.219 739.409 275.437 739.018 270.75C738.823 268.309 739.213 265.769 739.799 265.184C742.436 262.547 739.604 256.687 735.6 256.687C734.233 256.687 733.94 256.199 734.428 254.441C734.721 253.269 735.307 250.437 735.6 248.191C736.186 244.383 735.991 243.992 733.647 242.82C732.182 242.234 730.034 239.891 728.959 237.742C727.885 235.496 725.737 231.98 724.272 229.832C722.709 227.488 721.44 224.07 721.147 221.336C720.659 217.234 720.854 216.746 722.709 216.453C724.467 216.16 724.76 215.574 724.467 211.766C724.37 209.324 724.467 206.297 724.76 205.125C725.248 202.977 725.639 202.879 730.131 203.465C734.33 204.051 735.014 203.855 735.991 202.098C736.87 200.437 737.944 200.047 742.241 200.047C747.807 200.047 749.077 199.168 752.006 193.504C754.35 188.914 754.057 185.398 751.42 185.398C750.248 185.398 748.393 186.277 747.221 187.352C744.584 189.793 738.725 189.109 737.358 186.082C736.87 185.008 735.307 183.25 733.94 182.176C731.596 180.516 731.205 180.418 727.69 181.98C725.541 182.859 722.709 183.25 721.245 182.957C719.389 182.566 718.51 182.859 718.12 183.934C717.729 184.91 716.459 185.398 714.604 185.203C713.041 185.105 711.088 185.594 710.209 186.277C709.33 187.059 707.67 187.254 705.815 186.863C704.155 186.57 702.69 186.668 702.299 187.254C702.006 187.84 700.737 188.328 699.467 188.328C697.905 188.328 696.733 187.156 695.17 183.836C692.045 177.488 687.748 172.41 681.401 167.625L676.03 163.621L668.217 164.695C661.186 165.672 654.936 165.477 654.936 164.207C654.936 164.012 655.815 162.156 656.889 160.008C659.33 155.32 659.33 154.344 656.889 151.219C655.522 149.461 654.936 147.215 654.936 143.406C654.936 138.23 654.741 137.937 651.909 136.863C649.272 135.789 649.077 135.496 650.053 133.543C650.932 131.98 650.932 130.516 650.248 127.879C649.662 125.926 648.979 122.898 648.686 121.141C647.905 116.746 644.975 113.035 643.12 114.207C641.459 115.281 635.405 115.379 633.842 114.305C632.475 113.523 623.686 100.535 623.686 99.4609C623.686 99.0703 624.955 96.8242 626.616 94.4804C630.229 89.207 630.229 86.8632 627.006 80.8085C624.272 75.8281 620.561 73.4843 612.162 71.2382C608.842 70.2617 608.061 69.6757 608.061 67.7226C608.061 66.4531 609.135 64.1093 610.502 62.5468C614.213 58.1523 614.995 55.1249 613.237 52.5859C612.162 51.0234 611.87 49.2656 612.358 46.0429C613.041 41.1601 611.479 39.0117 607.573 38.914C606.303 38.914 604.643 37.3515 602.885 34.3242C600.541 30.5156 600.248 29.4413 601.127 27.4882C601.713 26.2187 602.202 24.9492 602.202 24.7538C602.202 24.4609 598.491 24.2656 593.901 24.2656C586.577 24.2656 584.819 24.6562 579.936 27.0976C576.811 28.6601 572.612 31.7851 570.659 33.9335C567.436 37.4492 566.557 37.9374 562.651 37.9374C558.256 37.9374 558.256 37.9374 558.256 41.2578C558.256 46.0429 557.377 47.7031 554.936 47.7031C551.909 47.6054 550.151 45.9453 546.537 39.5976C543.705 34.6171 543.51 33.6406 544.487 31.3945C545.17 30.0273 546.733 28.0742 548.002 26.9999C550.932 24.7538 551.127 21.1406 548.881 15.4765C547.612 12.2538 546.245 10.9843 542.338 8.93353C538.139 6.7851 536.479 6.49213 531.401 6.98041C525.639 7.37103 525.151 7.664 520.659 12.4492C515.385 18.0156 510.112 20.3593 506.694 18.5038C505.62 17.9179 501.127 17.4296 496.733 17.4296C491.362 17.4296 487.846 16.9413 485.795 15.8671C484.037 14.8906 481.401 14.4999 479.252 14.7929C475.248 15.2812 467.729 11.9609 463.237 7.85931C460.893 5.61322 460.209 5.41791 457.67 6.39447C455.229 7.37103 454.35 7.07806 451.127 4.73431C447.026 1.80463 436.967 -0.929749 436.381 0.828064C436.186 1.31635 434.916 1.80463 433.549 1.80463C432.182 1.80463 428.959 2.58588 426.42 3.46478C421.928 5.02728 421.44 5.02728 416.264 3.46478C413.237 2.48822 410.795 1.31635 410.795 0.730408C410.795 -0.441467 406.01 -0.246155 403.276 1.02338Z" fill="black"/>
<circle cx="560" cy="470" fill="#5CE50D"/>
<circle cx="530" cy="147" fill="#E52A0D"/>
<circle cx="167" cy="530" fill="#E52A0D"/>
<circle cx="907" cy="827" fill="#E52A0D"/>
</g>
<defs>
<clipPath id="clip0_1_2126">
<rect width="1000" height="1000" />
</clipPath>
</defs>
</svg>
