<svg width="1000" height="1000" viewBox="0 0 1000 1000" fill="none" xmlns="http://www.w3.org/2000/svg">
<g clip-path="url(#clip0_1_2129)">
<rect width="1000" height="1000" />
<path d="M20.853 71.8607C18.6069 75.4739 16.4585 79.2825 16.1655 80.4544C15.7749 81.7239 12.5522 84.0677 7.76709 86.7044C2.00537 89.8294 -0.0454102 91.3919 -0.0454102 92.8568C-0.0454102 93.931 1.22412 99.0091 2.78662 104.185L5.71631 113.56L5.81397 142.369C6.00928 169.419 5.91162 171.47 3.9585 176.255L2.00537 181.236L7.47412 185.435C13.3335 189.927 22.8062 201.158 24.3687 205.454C24.9546 206.822 25.6382 216.88 26.0288 227.622L26.6147 247.349L30.521 254.478C33.4507 259.849 35.9897 262.974 40.4819 266.685L46.6343 271.763L47.8062 279.087C48.4897 283.091 50.1499 289.146 51.4194 292.466C53.3726 297.447 54.5444 298.911 57.8647 300.865C65.2866 305.161 73.1968 307.408 83.8413 308.189L93.9976 308.872L88.8218 315.611L83.646 322.349L84.2319 333.775L84.7202 345.298L80.3257 349.497C73.2944 356.431 65.5796 368.052 63.8218 374.693C62.2593 380.259 61.8687 380.747 58.5483 381.626C56.4976 382.212 54.4468 383.189 53.8608 383.872C52.5913 385.435 50.7358 396.665 50.7358 402.525C50.7358 406.236 50.1499 407.994 47.8062 410.923C42.6304 417.466 41.5562 424.009 44.4858 431.236C45.6577 434.361 46.7319 435.24 49.6616 436.216C51.8101 436.802 54.1538 437.095 54.9351 436.704C56.1069 436.314 57.2788 437.681 59.3296 441.88C60.9897 445.005 64.0171 450.572 66.2632 454.38C69.6812 460.142 70.2671 461.997 70.2671 466.587C70.2671 471.47 70.5601 472.349 73.3921 475.083C75.1499 476.744 79.8374 480.161 83.7437 482.505C87.6499 484.947 92.0444 488.462 93.6069 490.415C95.1694 492.369 99.8569 496.47 103.861 499.4C110.013 503.892 112.943 505.259 120.462 507.31C129.056 509.654 129.837 510.044 132.474 513.853C134.037 516.001 136.576 520.884 138.138 524.693C139.701 528.404 142.044 533.091 143.509 534.947C148.294 541.294 151.908 548.13 153.568 553.794C155.033 559.165 155.033 560.044 153.177 569.419C152.201 574.888 151.029 585.044 150.736 592.076L150.248 604.771L156.4 607.798L162.552 610.826L164.017 619.517C165.58 628.892 168.802 635.24 175.541 642.857C179.74 647.544 198.978 662.876 200.638 662.876C201.322 662.876 202.591 661.119 203.47 658.97C204.642 655.943 205.716 654.869 207.767 654.478C210.209 653.99 210.697 653.306 211.673 648.228C212.552 644.224 212.552 641.783 211.869 639.829C209.72 634.361 216.849 633.775 223.294 639.048C226.908 642.076 227.787 643.54 229.642 649.888C231.302 655.552 232.376 657.505 234.33 658.482C235.697 659.165 237.845 660.923 239.115 662.29C240.482 663.658 241.947 664.829 242.533 664.829C243.119 664.829 245.365 666.197 247.416 667.759L251.322 670.689L254.251 667.857C259.33 663.169 264.896 659.947 268.119 659.947C271.927 659.947 276.908 665.806 278.666 672.447C280.033 677.622 290.384 692.564 294.681 695.494C298.685 698.13 301.224 702.622 304.154 711.802L306.693 720.005L316.263 728.306C325.736 736.509 325.834 736.704 326.908 742.466C327.591 745.689 330.521 754.283 333.548 761.509C336.576 768.736 340.287 777.915 341.947 781.822C344.584 788.169 345.755 789.634 353.763 796.665L362.748 804.478H371.732C380.814 804.478 380.912 804.478 391.361 809.751C397.123 812.681 404.74 817.173 408.353 819.81C414.017 823.911 415.384 825.669 418.9 832.505L423.001 840.415L428.959 842.076C446.048 846.665 457.279 850.962 460.794 854.087C463.041 856.138 463.919 857.505 463.138 857.798C462.357 858.189 463.626 860.337 466.849 863.951L471.732 869.615L480.716 868.15C493.021 866.294 503.959 867.173 508.744 870.298C514.212 873.911 525.931 877.036 531.205 876.451C538.138 875.669 546.732 871.372 550.541 866.978C553.568 863.365 554.154 863.072 558.841 863.072C568.216 863.072 574.955 859.556 578.373 852.72C579.74 850.083 581.498 849.204 594.388 844.517C602.298 841.685 611.185 838.267 614.115 836.997C622.611 833.286 626.81 833.872 638.724 840.122L648.978 845.396L654.935 855.454C659.037 862.486 661.087 866.978 661.576 870.396C662.65 878.306 667.435 889.048 676.029 903.111L684.134 916.294L697.22 916.783C705.716 917.173 711.478 917.857 713.334 918.736C715.58 919.81 721.048 920.201 736.283 920.298C759.525 920.396 767.24 921.665 774.173 926.548C778.177 929.38 778.666 929.478 779.544 928.013C782.474 922.74 786.673 921.372 791.752 924.009C797.611 926.939 814.701 928.794 832.474 928.306C849.076 927.818 849.466 927.818 852.494 925.279C854.154 923.814 856.009 922.642 856.498 922.642C856.986 922.642 859.037 924.204 861.087 926.06C864.31 928.892 865.775 929.478 871.634 930.064C875.345 930.454 881.302 931.724 884.916 932.994C888.529 934.165 892.24 934.947 893.216 934.751C894.193 934.556 899.173 933.872 904.252 933.384C909.33 932.896 915.091 932.212 916.947 931.822L920.365 931.236L920.56 920.884C920.853 909.068 923.099 892.369 925.345 885.044C926.224 882.31 929.154 875.572 931.888 869.908C937.943 857.408 946.927 847.056 952.884 845.982C956.595 845.298 963.334 841.783 971.634 836.216C974.955 833.97 978.177 832.701 981.888 832.31C986.966 831.626 987.65 831.236 992.728 825.572C1000.64 816.978 1001.52 813.267 998.294 804.087C995.951 797.642 992.728 795.689 984.33 795.689C973.685 795.689 973.88 795.786 973.197 786.119C972.318 773.033 964.603 744.81 961.185 741.783C957.377 738.56 951.127 736.216 940.873 734.361C931.888 732.701 928.177 731.333 918.412 726.451C902.787 718.638 896.439 712.974 889.408 700.279C886.478 695.005 883.158 688.56 882.181 686.021C880.13 680.747 875.638 676.548 864.701 669.517C860.892 667.076 856.693 663.462 855.13 661.216L852.396 657.31L854.252 652.525C862.552 631.431 865.58 625.083 868.9 621.47C878.861 610.533 881.498 606.138 883.548 596.47C886.576 582.701 887.064 575.962 885.794 568.931C884.037 559.654 880.423 553.892 873.978 550.083C868.705 546.861 868.509 546.861 862.064 547.837C856.205 548.814 855.13 548.716 850.052 546.665C842.435 543.54 833.646 536.9 831.986 532.994C830.619 529.771 830.521 527.525 831.009 509.947C831.205 500.865 831.009 499.595 828.275 493.345C821.341 477.427 817.337 466.294 817.337 462.681C817.337 458.091 819.388 447.935 822.22 438.853C824.466 431.626 824.271 423.814 821.732 421.275C821.048 420.591 818.119 419.712 815.287 419.419C812.455 419.029 809.818 418.443 809.525 418.052C809.134 417.564 808.548 411.509 808.158 404.576L807.572 391.88L816.361 387.193L825.15 382.505V374.497C825.15 366.978 825.443 365.806 830.228 354.771L835.404 343.052L835.111 326.451C835.013 317.271 835.404 304.576 835.99 298.13C836.869 287.29 836.869 286.119 835.013 282.017C832.865 276.939 831.498 270.298 829.837 255.161L828.568 244.419L824.173 243.247C821.732 242.661 815.287 242.076 809.818 242.076L799.759 241.978L790.287 236.9C785.013 234.165 778.568 230.259 775.834 228.306C769.095 223.326 763.822 220.591 752.005 215.611C746.439 213.267 741.849 210.826 741.654 210.24C739.896 203.599 737.162 198.716 732.669 194.029C727.494 188.56 727.396 188.56 719.388 187.388C709.427 186.021 704.154 186.021 698.783 187.388C694.974 188.365 693.607 188.072 684.427 184.947C678.861 183.091 666.361 179.283 656.791 176.548L639.212 171.47L629.447 162.29L619.584 153.013L606.4 153.501C589.017 154.185 588.138 154.478 586.966 158.775C586.38 160.63 584.72 163.462 583.353 165.025C580.912 167.466 580.033 167.759 574.271 167.661C570.755 167.661 566.263 167.076 564.408 166.392C561.771 165.415 559.623 165.415 553.666 166.392C540.677 168.638 539.701 169.126 531.986 177.622C523.002 187.486 503.47 203.306 496.244 206.529C493.216 207.896 486.576 210.044 481.498 211.314C476.419 212.486 471.83 214.048 471.244 214.634C469.681 216.197 470.56 222.251 473.099 227.329C474.466 229.966 476.029 235.24 476.615 239.048C477.884 246.763 477.494 247.837 472.513 247.837C471.146 247.837 467.63 248.521 464.798 249.4C460.794 250.572 457.572 250.767 451.419 250.279C446.927 249.888 443.314 249.302 443.314 248.911C443.314 248.521 446.341 247.642 450.15 246.958C457.084 245.689 458.06 245.005 455.619 243.052C454.642 242.173 452.689 242.466 447.611 244.322C432.669 249.595 418.021 253.599 411.673 254.283C406.4 254.771 401.908 256.236 391.947 260.63C379.447 266.294 378.861 266.392 370.462 266.392C355.716 266.392 345.56 264.048 334.916 258.384C324.173 252.622 306.595 241.978 301.908 238.462C299.857 236.9 297.513 233.286 295.267 228.404C292.044 221.372 291.459 220.689 287.845 219.615C285.306 218.833 281.107 218.638 275.443 219.029C267.337 219.712 266.654 219.615 261.087 216.783C257.962 215.22 253.08 213.56 250.345 213.169C246.048 212.583 244.681 211.9 240.384 207.505C235.794 202.915 235.013 201.353 231.302 190.22C227.787 179.673 227.103 176.353 226.517 165.806C226.126 159.068 225.443 152.915 225.15 152.134C224.662 151.06 222.904 150.669 217.826 150.669C211.771 150.669 210.892 150.376 209.134 148.228C208.06 146.861 204.544 144.517 201.322 142.954C198.099 141.392 194.974 139.146 194.291 137.974C193.607 136.802 190.97 134.751 188.334 133.579C185.697 132.31 183.548 130.747 183.548 130.161C183.548 128.599 186.966 125.669 193.509 121.47L199.173 117.954L196.146 109.849C193.705 103.111 193.314 100.962 193.802 96.3724L194.388 90.9036L187.455 86.4114C181.302 82.3099 180.13 81.8216 175.052 81.8216C166.459 81.8216 155.228 86.0208 146.439 92.3685C140.384 96.763 137.845 99.4974 132.279 107.896C121.537 123.814 122.513 122.935 113.431 124.302C101.322 126.06 84.1343 124.595 71.2437 120.786L60.8921 117.759L53.1772 104.966C44.5835 91.0013 26.7124 65.22 25.5405 65.22C25.1499 65.3177 23.0015 68.2474 20.853 71.8607Z" fill="black"/>
<circle cx="346" cy="325" fill="#5CE50D"/>
<circle cx="621" cy="832" fill="#E52A0D"/>
<circle cx="243" cy="639" fill="#E52A0D"/>
<circle cx="735" cy="470" fill="#E52A0D"/>
</g>
<defs>
<clipPath id="clip0_1_2129">
<rect width="1000" height="1000" />
</clipPath>
</defs>
</svg>
