<svg width="1000" height="1000" viewBox="0 0 1000 1000" fill="none" xmlns="http://www.w3.org/2000/svg">
<rect width="1000" height="1000" />
<path d="M756.6 165.888C755.135 169.501 751.034 174.384 748.397 175.751C746.737 176.63 745.956 176.337 743.221 173.505C739.706 169.892 737.362 169.989 737.362 173.7C737.362 175.849 737.167 176.044 735.897 174.97C735.116 174.286 734.432 172.919 734.432 172.04C734.432 171.064 734.139 169.599 733.846 168.72C732.87 166.083 729.549 168.72 729.549 172.04C729.549 173.993 729.061 174.97 728.084 174.97C727.108 174.97 726.62 173.993 726.62 172.236V169.599L724.667 172.821C722.323 176.63 722.323 176.728 724.276 177.118C726.717 177.607 728.475 185.712 728.573 196.064C728.573 202.802 728.963 205.341 730.038 206.22C730.819 206.904 731.502 208.466 731.502 209.736C731.502 211.103 732.87 214.618 734.627 217.548C737.069 222.04 737.459 223.407 736.581 224.872C735.213 226.923 731.893 239.325 730.917 245.771L730.233 250.361L728.084 247.626L725.936 244.892L722.42 247.138C720.077 248.603 718.124 249.091 716.463 248.603C714.022 248.017 713.924 248.114 713.924 252.997C713.924 258.075 713.143 259.052 710.995 256.513C709.237 254.364 708.456 254.657 707.088 257.978C705.819 261.103 704.159 261.005 704.159 257.88C704.159 255.146 702.206 254.755 696.249 256.318C691.756 257.489 690.975 257.88 691.268 259.736C691.463 261.298 691.073 261.884 689.706 261.884C688.045 261.884 687.557 260.81 686.678 255.732C685.116 246.65 683.846 242.841 681.502 239.911C679.745 237.665 678.963 237.372 675.936 237.958C673.983 238.349 671.444 239.521 670.174 240.693C668.319 242.45 667.635 242.548 665.975 241.571C664.315 240.497 663.729 240.693 661.678 242.743C659.237 245.185 658.358 249.189 660.213 249.189C660.799 249.189 661.19 250.556 661.19 252.314C661.19 254.657 660.213 256.22 656.698 259.54C653.28 262.568 652.01 264.618 651.424 267.646C651.034 269.892 651.131 271.65 651.522 271.65C653.084 271.65 652.401 275.263 650.545 276.923C649.569 277.802 648.495 279.853 648.202 281.415C647.42 285.029 645.077 286.2 637.459 286.982L631.307 287.47L631.698 291.083L631.991 294.599L629.256 291.474C627.792 289.716 625.35 288.056 623.885 287.665C621.346 287.079 621.151 286.689 621.151 282.489C621.053 280.048 620.565 276.825 619.881 275.361C618.417 272.04 607.577 260.712 606.502 261.396C605.624 261.884 600.643 256.513 600.643 254.95C600.643 253.095 596.639 250.165 594.198 250.165C592.831 250.165 590.487 251.044 589.12 252.216L586.581 254.169L584.725 250.556C583.065 247.333 582.674 247.138 581.893 248.603C581.014 250.263 580.819 250.165 578.67 248.212C576.815 246.552 575.741 246.259 573.299 246.747C571.151 247.236 569.881 247.04 569.393 246.259C568.514 244.794 563.534 252.802 563.534 255.732C563.534 256.806 564.217 259.638 564.999 261.884C565.78 264.13 566.463 267.646 566.463 269.599C566.463 275.654 568.905 282.978 572.713 288.544C575.936 293.232 576.229 294.111 575.155 295.868C574.081 297.529 574.178 298.31 575.643 300.458C576.913 302.314 577.596 302.802 578.182 301.923C579.647 299.579 586.288 311.396 588.045 319.404C588.924 323.603 588.729 325.263 586.874 331.025L584.725 337.665L586.874 347.138C589.413 358.759 589.413 359.54 587.069 359.54C585.116 359.54 584.042 357.782 584.042 354.462C584.042 353.388 582.577 350.361 580.819 347.919C578.377 344.501 577.401 341.962 576.913 337.861C576.62 334.736 575.643 331.22 574.862 330.048C573.788 328.583 573.299 325.751 573.299 321.65C573.299 315.888 573.104 315.4 570.37 313.837C568.124 312.568 567.049 310.81 565.584 305.829C562.752 296.845 561.19 294.794 557.284 295.478C554.745 295.966 553.67 295.575 551.913 293.72C550.741 292.45 548.495 291.181 546.932 290.79L544.1 290.302L544.295 281.22C544.491 271.259 542.635 262.861 540.78 264.716C540.194 265.302 537.752 265.79 535.409 265.79H531.112L533.651 261.493L536.19 257.099L533.749 254.462C532.381 252.997 531.307 251.044 531.307 250.068C531.307 248.505 531.014 248.407 528.67 249.384C527.108 250.068 525.057 251.337 523.885 252.314C521.346 254.56 519.198 254.657 520.077 252.314C520.37 251.435 521.249 248.7 521.834 246.454C522.811 242.646 522.811 242.06 521.053 240.79C517.928 238.446 515.682 239.032 515.682 242.157C515.682 244.989 510.604 253.095 508.944 253.095C508.358 253.095 508.358 251.923 508.846 250.068C510.213 245.575 508.651 243.232 504.842 244.013C500.057 244.892 496.542 248.993 494.881 255.243L493.417 260.712L496.737 265.4C498.495 267.939 499.764 270.38 499.471 270.771C498.885 271.845 495.565 270.282 492.635 267.548C490.584 265.693 490.584 265.693 489.999 267.841C489.413 269.989 489.413 269.989 486.19 267.255C483.358 264.814 482.479 264.618 477.792 265.107C474.862 265.4 470.467 266.669 468.026 267.939C462.85 270.478 463.143 269.208 464.51 284.638C464.901 289.618 464.608 292.45 463.436 295.868L461.776 300.556L464.706 306.318C466.268 309.54 468.124 314.032 468.807 316.279C469.979 319.989 469.881 320.673 468.417 322.333C467.147 323.7 466.854 325.068 467.342 327.607C467.831 330.048 467.538 331.708 466.463 333.368C465.584 334.54 464.901 336.591 464.901 337.763C464.901 339.032 464.022 340.888 462.85 342.06L460.799 344.111L456.405 339.911L452.01 335.614L452.694 339.228L453.377 342.743L448.006 340.79C442.147 338.642 440.487 336.396 440.487 330.439C440.487 328.486 439.217 323.31 437.752 319.013C435.311 311.884 434.823 311.103 430.721 308.759C428.28 307.392 425.448 306.318 424.471 306.318C423.202 306.318 422.323 305.146 421.444 302.314C420.76 300.068 419.002 296.65 417.538 294.599C415.389 291.962 415.096 290.79 415.975 290.302C417.44 289.423 416.366 287.079 411.288 279.462C409.627 277.021 408.26 274.091 408.26 272.919C408.26 271.747 407.87 270.478 407.284 270.185C406.795 269.892 406.307 268.622 406.307 267.353C406.307 266.181 405.038 263.935 403.377 262.372C401.815 260.81 400.448 258.954 400.448 258.271C400.448 255.829 395.565 255.634 392.44 257.978C390.78 259.15 387.752 260.419 385.702 260.614C383.163 261.005 381.209 261.982 379.94 263.642C378.377 265.595 377.694 265.79 376.522 264.814C374.569 263.154 372.811 264.423 374.081 266.767C374.764 267.939 374.569 269.989 373.592 273.407C372.225 277.9 372.225 278.583 374.081 282.489C375.155 284.833 376.034 288.154 376.034 289.911C376.034 291.571 377.596 297.919 379.452 303.974C381.405 310.029 382.87 316.767 382.772 318.915C382.772 321.161 383.846 326.63 385.213 331.122C388.241 340.888 388.338 343.427 385.799 347.626C384.725 349.384 383.846 352.411 383.846 354.462C383.749 360.126 381.991 366.474 379.452 370.478C377.694 373.212 377.206 374.872 377.596 377.118C378.377 380.732 376.131 384.345 374.959 381.318C374.569 380.341 374.178 378.095 374.178 376.337C374.081 373.7 373.69 373.212 371.639 373.212C367.635 373.212 367.049 376.63 370.37 380.243C371.834 381.904 373.104 383.759 373.104 384.345C373.104 386.2 367.44 394.696 365.682 395.38C363.436 396.161 357.674 390.107 356.405 385.712C355.331 381.513 354.061 380.927 353.182 384.15C352.792 385.907 352.401 386.103 351.424 385.126C350.545 384.247 350.545 381.708 351.424 373.407C352.987 359.345 352.889 357.196 350.838 355.341C349.178 353.876 348.885 353.876 346.151 355.439C344.588 356.318 339.51 361.005 334.92 365.888L326.717 374.677L323.885 387.079L321.053 399.384L324.764 411.982C326.717 418.818 328.573 425.165 328.866 426.044C329.354 427.802 326.131 429.169 323.69 428.193C321.737 427.411 319.002 421.747 316.952 414.228C315.975 410.712 314.706 407.001 314.217 405.927C312.264 402.118 311.776 408.271 313.241 419.599C314.413 429.267 314.413 430.732 312.948 433.857C312.069 435.81 311.678 438.349 311.971 439.423C312.362 440.595 312.167 442.255 311.483 443.232C310.604 444.696 310.897 447.431 312.85 456.122C315.389 467.255 315.389 469.892 313.045 469.892C312.264 469.892 311.483 467.939 311.092 464.716C310.311 458.271 308.26 451.923 304.061 442.646C301.034 436.005 300.838 434.931 301.717 431.318C302.401 428.388 302.401 425.458 301.62 420.966C301.034 417.548 300.448 413.349 300.448 411.786C300.35 410.029 299.471 408.173 298.299 407.196C297.127 406.22 295.663 404.071 294.979 402.314C294.198 400.556 293.612 398.993 293.417 398.798C293.319 398.603 289.999 400.458 285.897 402.997C279.452 406.904 275.448 408.368 275.448 406.904C275.448 406.611 278.573 402.802 282.381 398.407C291.268 388.056 292.245 386.2 291.854 379.267C291.561 373.993 291.463 373.7 288.827 373.407C286.581 373.114 285.213 373.993 281.6 377.997C278.963 380.927 276.62 382.587 275.838 382.294C273.495 381.415 274.276 379.364 278.963 373.603L283.456 368.134L280.624 365.204C277.792 362.177 278.182 362.177 268.124 363.935C263.827 364.716 258.846 361.396 258.846 357.782C258.846 356.318 258.163 354.071 257.284 352.802C255.721 350.654 255.721 350.458 257.284 349.579C260.995 347.529 258.358 341.571 251.717 337.372C248.397 335.224 248.006 334.736 249.471 333.954C252.499 332.294 256.209 333.466 258.358 336.786C259.432 338.544 261.581 341.962 263.143 344.404C266.17 349.384 267.635 350.165 275.057 351.044L280.038 351.63L281.209 347.724C281.893 345.575 283.065 343.622 283.846 343.329C288.631 341.864 288.631 342.06 285.702 339.032C283.553 336.786 282.674 336.396 281.6 337.275C280.624 338.056 279.842 337.861 278.377 336.591C275.741 334.247 275.936 333.466 279.256 332.685C282.87 331.904 290.78 326.044 291.463 323.7C293.514 316.376 293.319 316.083 288.924 315.009C284.334 314.032 283.651 312.079 288.045 312.275C290.292 312.372 291.073 311.786 292.44 309.052C294.491 304.755 294.491 304.56 291.463 300.946C289.803 298.993 288.534 298.31 287.752 298.798C286.874 299.482 279.256 299.677 277.401 299.091C277.108 298.993 278.28 297.821 279.842 296.454C282.772 294.111 282.772 294.013 280.233 294.989C278.475 295.673 277.303 295.575 276.522 294.794C275.741 294.013 274.569 294.208 272.03 295.38C270.077 296.259 267.928 297.04 267.049 297.04C265.78 297.04 262.948 292.548 263.827 291.864C264.999 290.888 284.237 285.321 287.069 285.126L290.389 284.833L287.655 281.611C285.311 278.779 284.432 278.388 281.893 278.974C271.444 281.122 268.612 280.439 268.612 275.946C268.612 274.775 268.124 273.407 267.635 273.114C265.682 271.943 267.928 270.478 270.663 271.064C273.983 271.747 274.081 271.357 271.542 267.255C269.686 264.228 269.393 264.13 266.561 265.107C264.217 265.986 263.729 266.669 264.217 268.232C266.073 274.091 265.975 274.579 261.678 278.681C256.795 283.368 255.428 282.196 259.334 276.532C261.483 273.407 261.776 272.431 260.799 270.673L259.627 268.525L258.26 270.575C256.112 273.505 255.428 273.212 253.28 267.939C251.717 264.325 251.522 262.861 252.401 261.005C253.182 259.15 253.084 258.466 251.522 257.392C249.764 256.122 249.764 255.829 251.327 252.607C253.475 248.212 253.377 247.919 250.936 248.7C249.081 249.286 248.885 249.091 249.471 246.845C249.959 244.892 249.667 244.111 248.397 243.72C247.42 243.427 245.858 242.743 244.784 242.157C243.514 241.474 242.733 241.571 242.245 242.353C241.756 243.134 240.584 242.353 238.729 240.009C235.604 236.103 234.042 235.712 231.307 238.154C227.792 241.279 228.28 238.349 231.893 234.638C235.018 231.513 235.409 230.536 234.53 228.974C232.479 225.068 231.014 224.579 227.108 226.435L223.397 228.193L221.444 225.654L219.588 223.017L216.756 226.142L214.022 229.169L214.901 225.946C215.877 222.431 215.389 222.138 212.069 224.384C210.018 225.849 209.725 225.849 208.358 224.482C207.088 223.212 206.991 222.431 207.967 220.087C208.944 217.743 208.944 216.767 207.87 215.107C206.795 213.446 206.795 212.665 207.967 210.907C209.139 209.052 209.042 208.661 207.381 207.294C206.307 206.415 204.745 204.071 203.768 202.021C202.889 200.068 201.522 198.407 200.741 198.407C197.811 198.407 194.295 193.915 192.147 187.275C190.975 183.466 189.315 180.243 188.534 180.048C187.362 179.657 187.264 179.853 188.338 180.927C189.999 182.685 189.803 185.81 187.948 188.544L186.385 190.79L180.135 184.638C174.471 179.071 173.885 178.681 173.885 180.829C173.788 182.294 172.127 185.126 169.491 187.958L165.194 192.548L163.143 188.739C160.311 183.759 150.545 178.681 147.909 180.927C146.346 182.099 146.249 182.099 146.834 180.536C147.323 179.267 146.932 178.876 145.37 178.876C143.709 178.876 143.514 179.169 144.393 180.048C145.565 181.22 144.686 183.759 141.854 186.982C140.487 188.544 140.292 188.544 138.534 186.982C137.167 185.712 136.483 185.614 135.604 186.493C134.725 187.372 134.823 187.958 136.288 188.935C138.338 190.497 137.557 192.548 134.823 192.548C133.553 192.548 132.87 191.767 132.674 189.814C132.479 187.958 131.795 187.079 130.233 186.884C127.499 186.493 127.401 187.079 130.038 191.181C131.405 193.525 132.772 194.501 134.432 194.501C136.483 194.501 136.776 194.892 136.776 198.212C136.776 200.263 137.264 202.411 137.948 203.095C138.827 203.974 138.436 204.267 136.288 204.267C134.627 204.267 132.577 204.95 131.502 205.732C129.94 206.904 129.256 206.904 125.936 205.146C121.444 202.9 120.956 204.071 124.764 207.685C129.256 211.982 134.627 215.204 137.167 215.204C138.436 215.204 141.463 214.521 143.905 213.544C147.225 212.275 148.397 211.298 148.885 209.345C149.178 207.88 151.229 205.243 153.377 203.486C156.795 200.654 157.381 200.458 157.967 201.923C158.358 203.095 157.772 204.364 156.014 205.829C153.377 208.075 152.596 211.493 154.354 212.568C155.917 213.544 160.213 210.419 161.971 207.001C164.706 202.021 166.756 200.361 170.467 200.361C174.471 200.361 174.959 201.923 171.444 203.486C169.979 204.169 168.807 205.732 168.417 207.587C168.124 209.247 167.147 211.786 166.463 213.251C165.194 215.693 165.292 215.888 168.221 216.864C173.397 218.72 175.643 218.134 179.842 214.032C184.139 209.931 185.604 209.736 185.604 213.446C185.604 214.911 184.334 216.669 182.186 218.329C180.331 219.794 178.768 221.357 178.768 221.747C178.768 223.505 181.795 223.7 185.702 222.333C190.389 220.673 194.979 220.478 195.858 221.845C196.639 223.114 182.87 229.95 180.624 229.364C178.475 228.779 178.377 229.071 179.94 231.611C180.917 233.075 180.917 233.759 179.94 234.736C178.866 235.81 178.084 235.419 175.936 232.978C174.178 231.025 171.834 229.657 169.393 229.267C167.342 228.876 164.803 227.9 163.729 227.118C160.897 225.165 154.94 225.458 149.862 227.704C147.518 228.779 144.393 230.146 143.026 230.634C140.877 231.513 140.584 232.001 141.17 234.345C142.831 241.083 149.667 248.017 157.479 250.654C165.096 253.388 177.303 259.736 178.475 261.786C180.233 264.521 185.604 265.4 189.315 263.446C193.612 261.2 194.588 263.349 190.877 266.669C189.315 268.134 187.459 270.966 186.874 273.017C185.799 276.532 185.897 276.923 188.143 278.681C191.463 281.318 192.342 283.368 194.002 291.864C194.784 295.966 196.053 300.068 196.834 300.946C198.69 303.095 198.69 305.243 196.834 304.462C195.76 304.071 195.37 304.657 195.37 306.611C195.37 311.2 190.487 319.599 183.749 326.435C176.815 333.368 172.03 336.396 168.807 335.907C167.147 335.712 167.831 334.833 172.323 331.806C182.87 324.579 187.557 316.474 187.557 305.341C187.557 299.189 187.362 298.407 185.409 297.529C184.237 296.943 182.967 295.478 182.577 294.111C182.186 292.743 181.893 292.255 181.795 293.036C181.698 293.818 180.819 296.161 179.842 298.407C176.034 306.611 173.885 312.568 173.885 315.107C173.885 318.036 171.346 323.407 169.979 323.407C168.319 323.407 168.905 319.208 171.834 308.954C176.229 293.72 176.327 291.962 173.69 286.396C172.518 283.661 170.858 281.513 170.174 281.415C169.393 281.415 168.124 279.657 167.245 277.509C165.975 274.384 165.194 273.603 163.729 273.993C162.655 274.286 161.19 273.993 160.506 273.407C159.823 272.821 159.237 272.529 159.237 272.724C159.139 272.919 158.749 278.681 158.358 285.517C157.577 296.259 157.088 298.603 154.842 302.802C150.643 310.321 148.983 307.294 151.913 297.626C152.694 294.989 153.377 290.986 153.377 288.837V284.833L149.667 291.376C147.713 294.892 144.393 299.775 142.44 302.118C139.413 305.634 138.729 306.025 138.143 304.56C137.752 303.388 138.827 301.142 141.659 297.431C145.565 292.255 145.663 291.962 144.1 290.204C142.44 288.349 142.44 287.177 144.198 280.146C145.174 276.142 143.514 277.021 139.413 282.685C137.459 285.419 134.042 289.716 131.893 292.157C126.034 298.896 126.815 294.208 133.065 284.736C137.752 277.704 138.241 276.532 138.241 271.454C138.143 267.45 137.655 265.4 136.385 263.935C135.311 262.763 134.237 261.884 133.944 261.884C133.553 261.884 132.088 264.228 130.721 267.06C128.475 271.747 127.792 272.333 125.155 272.333C122.713 272.333 122.127 271.943 122.127 270.185C122.127 268.915 123.104 267.353 124.276 266.571C125.936 265.4 126.522 264.13 126.522 261.103C126.522 256.513 124.276 253.583 119.198 251.532C117.342 250.751 115.096 248.896 114.217 247.333C113.045 245.282 110.995 244.013 106.405 242.45C98.8853 239.911 96.9321 239.911 93.8071 242.353C92.4399 243.427 90.8774 244.306 90.2915 244.306C89.2173 244.306 85.0181 248.407 85.0181 249.482C85.0181 249.872 86.1899 250.165 87.7524 250.165C91.854 250.165 96.1509 252.997 100.545 258.564C102.792 261.396 104.549 263.935 104.549 264.228C104.549 265.4 99.1782 262.079 94.5884 258.075C89.8032 253.779 88.9243 253.486 86.1899 255.048C85.311 255.536 83.2603 256.513 81.6978 257.001L78.8657 258.075L82.0884 261.396C83.9438 263.251 87.9478 266.669 91.0728 268.915C94.1978 271.161 96.7368 273.505 96.7368 273.993C96.7368 274.482 97.4204 275.751 98.2993 276.728C101.424 280.048 97.2251 279.755 89.8032 275.946C81.6001 271.845 73.0063 268.72 69.979 268.72C68.8071 268.72 67.0493 269.892 66.0728 271.357C64.4126 273.603 64.3149 274.384 65.3892 278.29C65.9751 280.634 67.6353 284.052 69.1001 285.907C73.0063 291.083 88.8267 303.876 91.2681 303.876C92.4399 303.876 94.8813 305.439 96.7368 307.196C98.9829 309.638 101.424 310.907 104.745 311.591C110.116 312.763 121.151 318.036 121.151 319.501C121.151 321.161 115.682 320.575 113.143 318.525C111.581 317.353 108.358 316.376 104.061 315.986C99.2759 315.497 96.8345 314.716 94.686 312.958C92.5376 311.103 91.2681 310.712 88.729 311.2C85.9946 311.689 84.0415 311.005 76.229 306.415C71.1509 303.388 66.4634 300.946 65.7798 300.946C63.436 300.946 60.604 304.755 60.604 307.978C60.604 311.786 65.6821 322.138 70.1743 327.314C74.4712 332.392 87.4595 337.665 92.147 336.298C93.9048 335.712 97.9087 335.224 101.131 335.126C110.995 334.833 111.776 334.736 114.999 332.392C118.612 329.853 120.858 330.146 123.397 333.661L125.057 336.005L121.639 336.689C118.221 337.275 118.221 337.372 119.686 339.618C121.737 342.841 120.272 343.427 109.432 343.525C98.0063 343.525 90.8774 344.696 90.8774 346.357C90.8774 347.821 95.7603 352.118 99.6665 354.169C101.913 355.341 103.377 355.341 107.87 354.462C110.799 353.779 113.631 353.681 114.022 354.071C114.999 355.048 111.581 357.587 109.237 357.587C108.26 357.587 107.479 358.271 107.479 359.052C107.479 360.029 106.502 360.517 104.549 360.517C101.62 360.517 101.62 360.517 103.182 363.056C104.745 365.302 104.745 365.595 103.28 367.157C101.815 368.622 101.522 368.525 99.2759 366.474C97.2251 364.521 96.9321 364.521 96.3462 365.986C95.8579 367.255 95.4673 367.45 94.5884 366.571C92.8306 364.814 92.2446 365.107 90.8774 368.329C90.1938 369.989 88.9243 371.259 87.9478 371.259C85.604 371.259 84.6274 365.986 86.3853 362.665C88.0454 359.54 86.5806 355.634 83.7485 355.634C82.2837 355.634 81.9907 355.146 82.479 353.29C82.9673 351.142 82.2837 350.556 73.8853 346.454C68.8071 344.013 63.436 340.888 61.9712 339.521C60.0181 337.665 58.9438 337.372 57.5767 338.056C55.2329 339.325 54.7446 339.325 55.3306 337.763C55.8188 336.396 54.2563 334.736 50.8384 332.685C49.9595 332.196 47.4204 330.439 45.1743 328.974C41.9517 326.63 40.8774 326.337 39.2173 327.314C36.5806 328.681 36.4829 332.978 38.9243 340.693C41.854 349.97 44.0024 352.411 55.4282 359.931C62.7524 364.716 66.2681 367.743 66.854 369.501C68.2212 373.31 66.854 373.993 63.729 371.064C57.8696 365.497 51.7173 362.47 46.2485 362.47H41.1704L43.8071 366.864C45.272 369.208 46.7368 371.259 47.0298 371.259C47.4204 371.259 50.7407 374.286 54.4517 377.9C60.0181 383.466 61.9712 384.736 65.3892 385.321C68.9048 385.907 69.3931 386.2 68.4165 387.372C67.7329 388.154 66.4634 388.837 65.4868 388.837C64.5103 388.837 63.2407 389.521 62.5571 390.302C61.8735 391.083 60.9946 391.767 60.5063 391.767C58.7485 391.767 51.8149 384.638 51.8149 382.88C51.8149 381.415 51.1313 381.025 48.7876 381.025C44.686 381.025 42.4399 379.657 35.9946 373.407C31.9907 369.501 28.7681 367.353 24.4712 365.79C19.1001 363.837 18.6118 363.837 18.6118 365.4C18.6118 366.279 17.7329 367.841 16.6587 368.818C15.0962 370.185 14.7056 371.845 14.7056 376.142C14.7056 382.196 13.9243 383.368 9.43213 384.54C6.89307 385.126 0.154785 391.279 0.0571289 393.036C0.0571289 393.427 1.13135 394.208 2.40088 394.892C4.25635 395.673 5.72119 395.575 8.74854 394.306C11.2876 393.329 16.2681 392.646 22.2251 392.548C32.6743 392.255 36.6782 393.525 40.6821 398.31C42.5376 400.458 43.0259 400.556 44.7837 399.482C46.4438 398.407 47.1274 398.505 49.3735 399.97C51.6196 401.435 51.8149 402.118 51.229 404.755C49.8618 410.907 50.0571 411.591 54.1587 412.568C57.0884 413.251 59.8228 413.056 65.1938 411.786C72.3228 410.126 72.4204 410.126 75.3501 404.853C78.1821 399.97 78.4751 399.677 81.4048 400.263C83.1626 400.556 84.7251 400.946 84.9204 401.142C85.1157 401.337 88.8267 399.677 93.1235 397.529C101.229 393.427 101.229 393.427 110.702 395.673C116.17 397.04 117.538 396.65 119.686 393.427C121.053 391.181 121.053 390.693 119.686 387.079C118.221 383.564 118.221 382.88 119.491 380.341C120.272 378.876 121.834 376.728 123.006 375.751C125.057 373.896 125.057 373.896 125.057 376.728C125.057 380.634 125.936 381.611 130.624 382.978C134.139 384.052 135.116 384.052 137.167 382.685C138.534 381.806 139.803 379.755 140.194 377.9C141.268 372.529 142.733 368.329 143.612 368.329C144.002 368.329 145.174 370.282 146.151 372.626C147.909 376.728 148.104 376.923 149.667 375.458C150.838 374.384 151.424 372.431 151.424 369.599C151.424 367.353 151.717 365.4 152.01 365.4C152.303 365.4 153.475 366.474 154.549 367.841C157.088 371.064 158.26 370.966 158.26 367.353C158.26 364.032 159.627 363.642 162.362 366.083C164.022 367.548 164.315 367.548 166.463 365.497C168.514 363.642 168.807 363.544 169.979 364.911C171.053 366.181 170.76 367.06 168.026 370.38C164.999 374.189 164.901 374.482 166.073 378.779C166.659 381.22 167.928 384.638 168.807 386.298L170.467 389.325L170.76 384.931C170.956 382.587 171.542 380.048 172.03 379.364C172.616 378.681 172.713 375.849 172.323 372.333C172.03 369.013 172.03 366.376 172.323 366.376C173.885 366.376 176.717 375.068 176.62 379.462C176.522 385.029 177.401 386.2 178.768 382.392C179.647 380.341 179.549 377.509 178.768 371.943C177.792 364.911 177.987 362.47 179.549 362.47C182.186 362.47 185.604 375.654 185.604 385.614C185.604 391.962 186.092 392.646 189.706 390.693C191.366 389.814 191.561 389.032 190.975 385.321C190.292 380.536 191.366 379.657 193.417 383.466C194.1 384.833 194.979 385.907 195.37 385.907C195.663 385.907 197.42 383.954 199.081 381.513C202.206 377.118 204.159 376.532 204.159 379.95C204.159 380.927 203.182 382.88 202.108 384.345C199.764 387.275 200.155 388.349 202.987 387.47C206.502 386.298 209.92 382.978 211.776 378.779C213.045 375.946 214.901 373.993 217.635 372.431C219.881 371.161 221.737 370.478 221.737 370.771C221.737 371.161 220.37 373.114 218.807 375.165C217.147 377.216 214.803 381.318 213.436 384.247C210.897 390.009 207.967 392.743 204.452 392.743C201.034 392.743 194.393 395.771 194.393 397.236C194.393 398.017 195.272 398.603 196.346 398.603C197.42 398.603 199.959 400.165 202.108 402.021C204.159 403.876 206.307 405.439 206.893 405.439C207.479 405.439 208.065 405.927 208.26 406.611C208.846 408.368 210.506 406.904 214.217 401.239C216.561 397.724 217.538 395.38 217.147 393.72C216.659 390.986 218.319 385.907 219.686 385.907C220.174 385.907 221.639 387.568 222.811 389.521C224.081 391.474 225.252 392.548 225.448 391.962C226.131 389.716 228.377 390.79 232.967 395.771C235.799 398.798 237.362 401.239 236.971 402.118C236.678 402.997 236.776 403.29 237.362 402.997C237.948 402.607 240.78 403.388 243.709 404.56L249.081 406.806L252.108 404.56C254.745 402.607 255.526 402.411 257.674 403.486L260.311 404.657L256.893 407.489C255.038 409.052 250.838 411.591 247.616 413.251L241.756 416.083L240.096 414.032C238.729 412.177 238.338 412.079 236.874 413.251C235.995 413.935 235.506 415.4 235.702 416.376C235.995 417.45 235.702 418.134 234.823 418.134C234.042 418.134 233.456 418.818 233.456 419.599C233.456 420.478 232.284 421.552 230.917 422.04C229.452 422.626 227.303 423.896 226.034 424.872C224.764 425.946 222.811 426.532 221.834 426.239C219.588 425.654 216.854 429.169 217.538 431.708C217.831 433.075 217.147 433.759 214.803 434.638C213.143 435.224 210.897 435.712 209.92 435.712C209.042 435.712 206.893 436.884 205.233 438.251C202.987 440.107 201.522 440.595 199.764 440.204C198.397 439.814 197.323 440.009 197.323 440.497C197.323 440.986 196.053 442.743 194.393 444.306C192.831 445.966 191.463 447.919 191.463 448.798C191.463 449.579 190.487 450.361 189.315 450.556C188.143 450.751 186.288 452.314 185.311 454.071L183.358 457.294L186.092 460.126L188.729 462.861L185.702 464.618C184.139 465.595 182.967 466.669 183.26 467.157C184.139 468.427 188.436 468.036 190.975 466.376C193.221 464.911 193.514 465.009 197.518 468.232C203.084 472.626 205.331 473.798 209.042 473.798C210.702 473.798 214.217 474.872 216.952 476.337C221.834 478.779 221.932 478.779 226.913 477.118C233.163 475.068 242.635 466.083 243.905 461.005C244.686 458.075 245.174 457.685 248.495 457.392C256.307 456.708 258.456 464.13 252.987 473.31C251.424 475.946 250.057 478.974 250.057 479.853C250.057 480.732 248.983 482.782 247.616 484.345L245.272 487.177L247.616 488.251C250.643 489.618 250.741 492.45 247.811 495.771C245.858 498.017 245.37 498.212 242.538 497.236C240.292 496.454 238.924 496.454 237.459 497.138C235.995 497.919 233.944 497.821 229.354 496.747C221.834 494.989 218.124 494.892 217.538 496.454C217.245 497.431 216.659 497.431 214.803 496.65C213.534 496.064 210.018 494.794 206.991 493.915C203.963 493.036 200.936 491.669 200.252 490.888C199.276 489.618 198.69 489.716 195.956 491.083C193.905 492.255 190.877 492.743 186.385 492.646C180.038 492.548 179.745 492.646 176.815 495.868C173.299 499.872 173.299 500.068 175.936 504.56C178.573 508.954 177.596 510.126 174.081 506.708C172.518 505.243 170.858 504.071 170.272 504.071C169.588 504.071 168.221 502.704 167.049 501.044C165.78 499.384 164.315 498.31 163.534 498.603C161.678 499.286 161.776 496.845 163.631 495.282C165.194 494.013 165.682 489.423 164.217 489.423C163.729 489.423 162.85 490.107 162.167 490.888C161.385 491.864 160.116 492.157 158.944 491.767C157.772 491.376 156.698 491.669 156.209 492.45C154.842 494.696 155.233 495.282 157.772 495.282C162.557 495.282 160.116 498.31 153.28 500.654C150.936 501.532 148.104 503.095 146.932 504.169C145.077 505.829 144.784 505.927 143.612 504.56C141.756 502.314 139.022 502.802 137.167 505.536C135.604 507.978 135.604 508.173 137.752 510.419C139.999 512.763 139.999 512.958 138.436 516.279C136.483 520.478 134.432 520.771 135.018 516.864C135.311 515.009 135.018 514.228 134.237 514.521C133.651 514.716 132.87 513.935 132.577 512.861C131.6 509.15 129.94 511.786 129.94 516.864C129.94 522.529 128.67 522.919 125.936 518.232C124.764 516.376 123.495 514.814 123.006 514.814C122.518 514.814 123.202 512.665 124.569 509.931C127.792 503.583 127.694 502.802 123.592 501.532C118.612 499.97 117.538 501.63 119.198 508.368C121.542 518.329 118.514 522.236 110.995 518.525C106.991 516.669 106.698 516.181 107.186 513.642C107.577 511.591 107.381 510.907 106.209 510.907C105.233 510.907 104.94 511.493 105.233 512.763C105.624 514.521 105.233 514.618 99.9595 514.228C94.3931 513.739 94.2954 513.837 92.3423 516.962C91.1704 518.818 89.022 520.575 87.1665 521.259C85.4087 521.747 83.3579 523.212 82.479 524.384C79.8423 528.193 70.9556 526.435 65.2915 520.966C62.7524 518.525 62.3618 518.427 58.6509 519.599C56.3071 520.282 53.1821 522.333 51.0337 524.579C49.0806 526.728 46.6392 528.486 45.7603 528.486C43.7095 528.486 43.7095 528.583 45.0767 534.345C45.6626 536.786 46.9321 539.716 48.0063 540.79C49.0806 541.962 51.229 545.575 52.7915 548.798C54.9399 553.388 56.5024 555.243 59.9204 557.196L64.3149 559.833L69.1001 557.88C71.7368 556.904 74.9595 556.22 76.4243 556.513C79.4517 557.099 80.4282 555.829 81.1118 549.97C81.5024 546.064 81.9907 545.38 85.4087 543.72C89.1196 541.864 89.2173 541.864 93.4165 544.013C95.8579 545.087 98.2993 546.064 98.9829 546.064C99.5688 546.064 101.131 544.306 102.401 542.157C104.452 538.544 104.94 538.251 108.749 538.251C113.143 538.251 130.819 542.743 132.381 544.208C133.749 545.575 136.385 545.282 137.752 543.622C138.729 542.45 139.315 542.45 141.561 543.525C144.979 545.282 157.772 545.185 162.069 543.329C164.315 542.45 165.682 542.353 165.877 542.939C166.073 543.525 166.756 543.818 167.44 543.525C168.026 543.329 169.588 544.404 170.76 546.064C172.03 547.626 173.397 548.993 173.885 548.993C174.471 548.993 176.131 547.626 177.694 545.868C180.038 543.232 180.721 542.939 181.991 543.915C183.065 544.892 183.651 544.794 184.627 543.622C185.604 542.45 186.19 542.353 187.167 543.232C188.241 544.111 188.827 544.111 189.901 543.232C191.952 541.571 193.514 544.111 192.831 547.919C192.245 550.751 192.342 550.946 195.174 550.946C199.667 550.946 201.229 551.923 201.229 554.462C201.229 557.489 197.518 564.911 196.444 564.13C195.956 563.837 195.272 564.325 194.979 565.204C193.905 567.939 194.295 568.622 196.249 567.646C197.811 566.767 198.202 566.962 198.69 569.013C199.081 570.38 198.885 572.333 198.299 573.31C197.616 574.677 197.713 575.361 198.592 575.653C199.276 575.946 198.788 576.923 197.03 578.29L194.295 580.439L196.346 582.685C197.518 583.954 198.397 585.712 198.299 586.689C197.323 595.38 199.178 597.919 203.28 593.818C205.331 591.767 205.331 591.767 206.502 593.72C207.088 594.696 208.358 596.747 209.334 598.114C210.897 600.361 210.995 601.142 209.92 603.974C208.944 606.806 208.944 607.685 210.213 609.443C211.092 610.614 211.483 612.568 211.19 613.642C210.799 615.497 210.995 615.595 213.045 614.911C214.315 614.521 216.561 614.13 217.928 614.032C220.272 613.935 220.76 613.251 222.616 607.489C223.788 603.876 224.471 600.263 224.081 599.384C223.299 597.431 225.35 594.892 227.694 594.892C229.256 594.892 229.354 595.282 228.377 597.919C226.913 602.118 227.987 602.411 231.991 598.896C233.944 597.236 235.897 595.868 236.385 595.868C236.874 595.868 239.217 594.501 241.561 592.841C244.002 591.181 247.616 589.618 250.057 589.325L254.354 588.739L250.741 593.134C247.616 597.04 247.323 597.724 248.592 598.798C250.545 600.458 250.448 601.728 248.397 601.728C247.42 601.728 245.077 602.314 243.221 602.997C233.553 606.611 231.6 608.954 228.573 620.771C227.108 626.337 226.913 628.778 227.694 630.243C228.28 631.22 228.963 632.001 229.354 631.806C229.745 631.611 231.209 630.829 232.674 630.146C234.237 629.364 235.995 629.169 237.069 629.56C238.045 630.048 239.51 630.439 240.292 630.439C241.17 630.536 241.756 631.513 241.756 632.978C241.756 635.517 239.608 636.493 233.944 636.884C231.795 636.982 230.038 638.153 227.401 641.376C225.35 643.818 223.69 646.161 223.69 646.552C223.69 646.943 225.252 648.114 227.108 649.091C230.233 650.849 230.624 650.849 233.749 649.384C237.362 647.626 251.034 636.591 252.303 634.345C252.694 633.564 255.331 631.806 258.065 630.439C262.557 628.193 263.534 627.997 266.659 628.974C268.709 629.56 272.127 630.048 274.276 630.048C276.424 630.048 280.428 630.536 283.163 631.22L288.045 632.294L284.139 636.2C280.428 640.009 280.135 640.009 275.35 639.423C272.616 639.032 269.393 638.153 268.221 637.372C266.366 636.103 265.78 636.2 262.752 638.056C259.432 640.107 259.334 640.107 261.581 641.083C265.682 642.939 263.827 644.306 257.967 643.818C254.061 643.427 250.057 645.771 248.006 649.482C246.932 651.435 244.491 655.439 242.635 658.368C238.827 664.423 238.534 665.693 241.268 664.032C243.807 662.47 246.639 664.13 246.542 667.06C246.542 668.622 247.127 669.111 248.983 669.208C250.35 669.208 252.401 669.599 253.475 669.989C255.331 670.771 255.331 670.771 253.182 671.943C250.35 673.505 250.448 674.97 253.475 674.97C257.674 674.97 256.209 677.607 250.545 680.341C247.616 681.806 245.174 683.173 245.174 683.271C245.174 683.466 245.858 684.345 246.737 685.126C248.104 686.591 248.104 686.689 246.346 686.689C245.272 686.689 243.709 685.614 242.831 684.247C241.463 682.196 240.877 682.001 238.631 682.88C236.776 683.564 235.897 683.466 235.311 682.685C234.92 682.001 233.846 681.806 232.87 682.196C231.307 682.782 231.6 683.368 234.92 686.2C238.143 688.935 238.436 689.521 236.874 689.618C235.311 689.618 235.213 689.814 236.288 690.497C238.534 691.962 235.799 694.599 232.967 693.915C230.233 693.232 229.061 694.794 231.014 696.454C233.163 698.212 232.772 699.97 229.94 702.216C228.28 703.583 225.936 704.267 223.397 704.267C220.077 704.267 218.709 704.95 215.682 707.88L212.069 711.396L208.749 709.735C205.526 707.978 205.428 707.978 200.35 710.517C196.542 712.47 194.881 714.032 193.807 716.669C192.245 720.282 192.342 720.282 184.237 718.329C182.381 717.841 181.209 718.134 180.624 719.013C179.256 721.064 178.084 718.622 177.303 712.177C176.717 707.587 175.936 705.927 172.42 701.923C166.756 695.575 165.096 696.161 165.096 704.462C165.096 708.954 164.608 711.396 163.143 713.544C162.069 715.107 161.19 716.962 161.19 717.548C161.19 719.794 164.022 722.138 167.538 722.724C172.127 723.407 173.006 725.36 169.491 726.923C168.124 727.509 166.268 729.462 165.584 731.025C164.803 732.685 163.631 734.735 163.045 735.614C162.069 736.884 162.264 737.763 164.022 740.204C165.975 743.036 166.073 743.427 164.608 746.161C163.827 747.821 163.143 749.677 163.143 750.458C163.143 752.9 166.073 753.193 168.807 751.142C171.151 749.482 171.932 749.384 175.741 750.36C179.452 751.337 180.233 751.239 181.209 749.872C181.893 748.896 182.967 748.212 183.749 748.212C184.53 748.114 186.19 747.528 187.557 746.747C189.217 745.868 190.389 745.771 191.17 746.454C192.049 747.138 193.124 746.552 194.979 744.403C197.42 741.474 197.713 741.376 199.862 742.841C201.131 743.622 202.792 744.306 203.573 744.306C204.354 744.306 206.307 745.087 207.967 745.966C210.409 747.431 211.385 747.528 214.022 746.552C216.463 745.575 217.44 745.673 219.295 746.845C221.053 748.017 222.42 748.017 226.717 747.138C235.506 745.38 241.659 743.232 243.319 741.376C244.393 740.204 246.932 739.325 250.936 738.837C256.502 738.251 256.893 738.349 256.893 740.204C256.893 746.65 260.604 746.845 268.319 740.693C271.444 738.251 274.471 735.81 275.155 735.321C275.741 734.833 278.475 733.564 281.209 732.587L286.19 730.829L289.12 733.173L291.952 735.614L292.245 732.489C292.733 727.704 296.346 725.556 305.135 724.97C309.432 724.677 312.557 724.872 312.557 725.458C312.557 727.509 309.92 728.681 305.428 728.681C301.229 728.681 300.741 728.876 301.424 730.341C301.815 731.318 302.206 733.564 302.303 735.419C302.499 738.349 303.182 739.13 309.139 742.939C312.85 745.282 317.635 747.724 319.784 748.212C325.643 749.677 327.889 750.849 332.088 754.169C337.167 758.271 339.706 757.587 343.807 750.946C346.834 746.064 346.834 745.771 345.37 743.232C343.514 740.107 343.319 737.372 344.979 735.712C346.639 734.052 347.225 734.247 348.495 736.982C350.448 741.278 349.959 751.923 347.713 755.634L345.663 758.759L351.327 764.228C357.381 769.989 358.456 770.673 358.456 768.134C358.456 765.985 361.776 761.493 364.803 759.54C368.221 757.294 367.831 758.954 363.729 764.325C360.604 768.525 360.409 769.208 361.385 771.65C362.069 773.212 366.463 778.193 371.249 782.88C376.034 787.47 379.94 791.669 379.94 792.157C379.94 793.72 392.538 802.021 399.276 804.95C406.6 808.075 414.706 808.564 427.206 806.806C433.846 805.829 434.139 805.829 436.288 808.271C439.022 811.103 445.467 814.618 448.104 814.618C449.178 814.618 450.545 813.935 451.229 813.153C452.792 811.2 454.159 811.298 454.159 813.349C454.159 814.716 454.549 814.618 456.502 812.763C458.065 811.298 459.334 810.81 460.213 811.298C460.897 811.786 462.264 811.982 463.241 811.884C464.608 811.591 464.901 812.372 464.901 816.962V822.333L476.034 827.802C482.088 830.732 487.362 833.173 487.752 833.173C488.045 833.173 488.338 832.489 488.338 831.708C488.338 829.071 491.17 828.974 494.491 831.415C497.127 833.466 498.104 833.661 500.838 832.88C503.182 832.196 505.624 832.294 510.116 833.466C525.155 837.47 524.081 837.47 537.85 832.587C544.686 830.146 554.256 827.509 559.042 826.825C563.729 826.044 567.831 825.263 568.124 824.97C568.417 824.677 567.44 821.064 566.073 816.864C563.143 807.978 563.045 807.782 564.901 807.782C566.952 807.782 571.053 813.544 572.909 818.915C573.788 821.357 574.667 823.407 574.959 823.407C576.815 823.407 592.245 812.958 595.077 809.735C599.178 805.243 602.889 798.31 604.549 792.157C605.135 789.716 607.381 784.833 609.53 781.318C613.827 774.091 613.827 773.017 609.139 768.036C604.354 762.86 607.088 763.056 612.264 768.134L617.049 772.919L620.37 770.868C622.127 769.794 624.667 767.743 625.936 766.376C627.206 765.107 628.768 764.228 629.549 764.521C630.233 764.814 632.284 764.13 634.042 763.056C635.799 761.982 638.924 760.81 640.975 760.517C643.026 760.126 645.174 758.954 645.858 757.978C647.225 755.634 648.495 755.439 648.495 757.489C648.495 759.443 650.838 759.345 652.401 757.489C653.377 756.318 653.866 756.22 654.452 757.099C654.842 757.88 656.6 757.978 659.725 757.587C664.217 756.903 664.217 756.806 662.557 754.95C661.092 753.29 660.995 752.607 661.971 749.775C662.655 748.017 663.143 744.892 663.143 742.743C663.241 740.693 663.827 737.568 664.51 736.005C665.682 733.466 665.975 733.368 666.561 734.833C667.049 736.005 667.928 736.396 669.1 736.005C670.663 735.517 670.956 735.907 670.956 738.446C670.956 740.107 671.346 741.278 671.834 740.888C673.104 740.204 678.768 731.806 678.768 730.732C678.768 729.853 682.967 725.751 683.846 725.751C684.237 725.751 684.725 727.509 685.116 729.657C685.506 731.806 686.092 733.368 686.581 733.075C686.971 732.782 687.85 733.857 688.338 735.517C689.315 738.056 689.706 738.349 692.245 737.86C695.077 737.275 695.174 737.47 696.346 742.353C697.03 745.087 698.202 747.626 698.885 747.919C699.667 748.212 700.252 749.091 700.252 749.872C700.252 750.751 701.913 749.677 704.159 747.333C706.405 745.087 708.553 743.329 709.042 743.329C709.627 743.329 710.018 742.646 710.018 741.864C710.018 740.888 710.995 740.4 713.338 740.4C717.049 740.4 723.983 735.614 733.553 726.532C738.338 722.04 739.217 720.673 739.706 716.669C740.389 712.177 740.487 712.079 743.807 712.079C746.151 712.079 748.69 711.103 751.62 708.954C755.526 706.22 755.819 705.732 754.452 704.267C753.182 702.9 753.377 702.509 755.819 701.044C757.967 699.775 758.749 699.677 759.139 700.556C759.432 701.337 761.678 699.775 765.096 696.454C768.124 693.525 770.37 690.497 770.077 689.814C769.295 687.861 774.276 683.368 775.838 684.638C776.717 685.419 778.573 684.833 782.87 682.294C785.995 680.341 789.315 678.095 790.096 677.118C790.975 676.239 792.928 674.775 794.491 673.993C796.151 673.114 798.495 670.868 799.764 668.915C801.717 665.888 802.303 665.497 803.866 666.474C805.331 667.353 806.502 667.157 810.116 665.4C812.557 664.228 815.292 663.251 816.268 663.251C817.147 663.251 818.612 662.763 819.393 662.275C820.565 661.591 820.565 661.103 819.588 660.126C819.002 659.54 818.417 658.271 818.417 657.489C818.417 656.415 818.807 656.415 820.272 657.782C822.03 659.443 822.323 659.443 825.643 657.88C827.596 656.903 828.866 655.732 828.573 655.243C828.182 654.755 828.475 653.193 829.256 651.923C830.233 650.068 830.233 649.286 829.354 648.407C827.792 646.845 827.889 644.013 829.452 643.427C830.428 643.134 830.428 642.548 829.452 640.888C827.889 638.349 827.792 635.907 829.256 635.907C830.917 635.907 835.995 641.474 835.995 643.427C835.995 644.892 836.19 644.989 836.971 643.72C837.85 642.45 838.241 642.548 839.901 644.599C840.975 645.868 841.854 647.626 841.854 648.7C841.854 650.751 844.002 652.411 844.588 650.751C844.784 650.068 846.053 650.849 847.42 652.509C850.057 655.732 852.303 656.22 853.182 653.974C853.573 653.193 854.452 652.509 855.233 652.509C857.381 652.509 861.874 655.341 863.338 657.685C864.315 659.345 864.315 659.833 862.948 660.907C860.995 662.275 862.362 663.544 864.706 662.665C866.17 662.079 872.127 654.364 872.127 653.095C872.127 652.802 871.249 652.509 870.174 652.509C869.1 652.509 867.928 651.825 867.635 651.044C866.952 649.286 872.616 642.45 875.448 641.767C878.28 640.986 878.573 638.153 876.034 635.419C874.276 633.466 874.081 632.88 875.057 631.025C876.229 628.876 876.327 628.876 878.377 632.489C879.452 634.54 880.917 636.396 881.502 636.591C882.088 636.786 884.432 634.15 886.678 630.634C888.924 627.216 891.463 624.091 892.245 623.798C895.467 622.528 899.862 623.31 902.987 625.653C906.795 628.583 907.284 628.681 907.284 626.337C907.284 625.458 907.967 623.798 908.749 622.821C909.823 621.357 909.92 620.575 909.042 619.599C908.26 618.622 908.553 617.157 910.604 613.446C913.143 608.857 913.143 608.466 911.678 606.22C910.799 604.853 910.311 603.29 910.702 602.704C911.678 601.142 908.456 600.361 906.698 601.728C904.549 603.583 903.28 601.728 902.792 596.357C902.206 588.739 904.94 586.493 911.483 588.935C914.315 590.009 918.026 587.958 918.026 585.224C918.026 584.247 916.268 581.806 914.022 579.755C910.995 576.923 910.311 575.849 911.385 575.263C913.924 573.603 920.37 574.384 924.276 576.825C927.401 578.681 928.377 578.876 929.842 577.997C932.577 576.239 932.088 575.068 927.499 572.919C924.276 571.357 922.713 569.696 920.467 565.4C918.807 562.275 916.17 558.466 914.608 556.806C912.264 554.364 911.971 553.486 912.85 552.021C913.729 550.556 913.534 549.872 911.874 548.114C910.311 546.552 910.116 546.064 911.288 546.064C913.631 546.064 923.397 557.294 925.155 561.884C925.448 562.861 927.206 564.521 928.963 565.693C934.432 569.111 946.932 566.864 952.889 561.298L956.307 558.173L951.815 553.876C949.374 551.435 947.323 548.7 947.323 547.626C947.323 546.064 947.811 545.868 950.741 546.357C952.596 546.65 954.354 546.454 954.647 545.966C955.038 545.478 956.6 545.282 958.163 545.575C959.823 545.868 962.948 545.575 965.096 544.989L969.198 543.915L966.17 542.45C962.557 540.79 959.432 537.568 960.311 536.591C960.702 536.298 963.436 536.591 966.366 537.275C971.542 538.544 971.834 538.446 974.178 536.298C975.545 535.029 976.62 532.978 976.62 531.806C976.62 528.876 970.37 525.165 962.264 523.31C955.038 521.65 951.229 519.404 951.229 516.767C951.229 515.693 951.327 514.814 951.522 514.814C951.62 514.814 953.866 515.497 956.502 516.279C959.139 517.06 963.045 517.743 965.194 517.743C967.538 517.743 970.077 518.525 971.834 519.794C974.276 521.454 975.545 521.747 979.159 521.161C984.627 520.38 984.725 518.427 979.354 516.864C976.424 515.986 973.202 513.544 968.417 508.759C962.362 502.704 960.995 501.825 956.209 500.946C953.182 500.361 947.518 499.677 943.514 499.579C938.827 499.384 935.799 498.798 934.823 497.821C932.479 495.478 934.139 494.404 938.924 495.478C942.342 496.161 943.905 496.064 946.249 494.892C947.811 494.013 950.545 493.329 952.206 493.329H955.233L952.987 489.521C951.815 487.372 951.034 485.419 951.327 485.029C951.717 484.736 954.159 485.907 956.893 487.665C959.725 489.423 963.729 491.962 965.975 493.329C968.221 494.696 971.346 497.529 972.909 499.677C976.034 503.876 977.889 504.755 984.042 504.95C989.413 505.048 991.756 503.29 990.975 499.482C990.487 496.845 990.877 496.064 995.174 492.45C1000.45 488.056 1001.23 485.614 998.104 483.466C996.346 482.294 996.249 481.708 997.225 478.583C998.006 476.239 998.006 474.482 997.42 473.31C996.639 471.943 995.956 472.626 993.026 477.802C989.413 484.443 986.776 486.591 987.557 482.196C988.045 479.95 987.752 479.657 985.311 479.657C982.088 479.657 981.795 478.974 984.237 477.118C985.799 475.849 985.799 475.849 984.237 475.751C983.26 475.751 982.479 475.263 982.479 474.775C982.479 474.189 981.6 473.798 980.428 473.798C976.815 473.798 978.67 470.575 982.87 469.696C987.752 468.622 989.315 467.353 989.315 464.325C989.315 461.982 989.217 461.982 980.331 462.079C975.35 462.079 969.295 462.079 966.854 461.982C964.413 461.786 960.409 462.079 957.87 462.568C953.963 463.154 953.182 463.056 953.182 461.884C953.182 459.443 964.706 456.22 973.592 456.22C983.26 456.22 986.581 455.048 989.608 450.556C993.905 444.013 993.709 443.329 988.143 440.79C984.139 439.032 982.87 438.837 981.698 439.814C980.917 440.497 977.303 441.083 973.299 441.083C967.831 441.083 965.194 441.669 960.604 443.818C957.479 445.282 954.647 446.259 954.354 446.064C953.28 444.892 955.331 440.693 957.284 440.009C958.553 439.618 961.19 438.154 963.338 436.786C966.073 435.029 969.002 434.052 973.006 433.759C981.014 433.075 981.209 431.415 973.788 428.095C970.467 426.63 967.928 425.068 968.124 424.482C968.319 423.993 971.444 423.505 975.057 423.505C980.819 423.407 981.893 423.114 984.237 420.771C986.581 418.427 986.678 417.841 985.604 416.083C984.432 414.325 984.53 413.739 986.288 412.177C988.241 410.321 988.241 410.126 986.776 406.318C985.213 402.509 985.213 402.314 987.264 400.165C990.194 397.04 990.975 391.571 988.827 389.814C987.85 389.032 986.385 388.349 985.506 388.349C984.627 388.349 983.846 387.372 983.651 386.2C983.163 382.587 980.624 382.685 978.475 386.396C977.303 388.251 975.838 389.814 975.155 389.814C972.811 389.814 970.76 386.786 970.76 383.466C970.76 381.122 970.272 380.146 968.807 379.755C966.073 379.071 965.292 376.337 967.245 374.872C969.588 373.114 968.221 370.575 964.706 370.087C962.459 369.696 960.897 370.38 957.284 373.407C951.913 377.802 950.252 378.095 950.155 374.384C950.057 372.821 949.862 372.431 949.569 373.407C949.374 374.384 948.788 375.165 948.299 375.165C947.03 375.165 945.174 372.333 945.858 371.259C946.151 370.771 945.76 370.282 944.881 370.282C942.245 370.282 935.213 366.376 932.967 363.642L930.721 361.005L921.932 369.794C914.022 377.704 913.143 378.29 913.143 375.946C913.143 374.384 914.706 371.454 917.342 368.329C919.588 365.497 922.518 361.689 923.788 359.833L926.131 356.513L923.299 353.388C917.538 347.236 917.635 347.626 920.858 340.009C922.518 336.103 923.885 332.685 923.885 332.196C923.885 331.415 913.827 333.173 913.143 334.15C912.069 335.614 908.26 337.079 905.428 337.079C900.057 337.079 893.221 339.423 886.971 343.329L880.721 347.138L878.768 345.087L876.717 343.134L878.866 339.521C881.502 334.931 881.502 334.54 878.377 336.982C876.913 338.154 875.35 339.032 874.959 339.032C873.299 339.032 874.081 336.396 876.522 334.15C877.987 332.782 879.549 329.462 880.624 325.263C881.893 320.185 882.87 318.329 884.432 317.841C887.948 316.571 896.053 306.318 897.811 300.849C900.35 293.134 899.959 289.032 895.858 280.732C890.682 270.087 886.776 268.915 882.772 276.728C879.354 283.466 877.206 284.052 874.471 278.974C872.909 275.946 872.225 275.556 869.979 276.044C868.514 276.435 866.17 276.044 864.608 275.263C862.948 274.384 861.092 274.189 859.92 274.579C856.502 275.849 855.526 273.993 857.186 269.696C859.139 264.814 858.358 262.47 854.842 263.154C851.522 263.739 847.713 261.298 847.713 258.466C847.713 255.829 850.252 253.486 854.159 252.704C855.721 252.314 860.018 249.482 863.534 246.259C873.006 237.665 873.495 233.271 865.584 227.216L861.19 223.896L867.342 219.892C870.76 217.743 874.667 215.693 876.034 215.302C877.401 215.009 880.038 213.056 881.893 211.103C884.042 208.759 887.459 206.708 891.17 205.341C894.393 204.267 898.788 202.411 900.936 201.435L904.842 199.482H901.62C899.862 199.384 896.737 200.263 894.588 201.337C889.608 203.876 889.022 203.876 883.456 200.361C879.354 197.724 878.377 197.431 875.643 198.407C871.249 199.872 865.487 204.853 863.827 208.759C861.678 214.032 853.768 222.529 849.471 224.286C847.42 225.068 843.612 225.751 841.073 225.751C838.534 225.751 835.897 226.239 835.213 226.923C833.749 228.388 833.749 232.685 835.116 237.47C836.092 240.595 835.897 241.669 833.651 246.161L831.014 251.239L828.084 249.482C826.424 248.505 824.569 246.454 823.885 244.892C823.104 243.036 821.639 241.767 819.393 240.986C817.245 240.302 815.877 239.13 815.682 237.958C815.487 236.884 814.413 235.029 813.241 233.759C811.483 231.904 811.092 231.806 810.409 232.978C809.823 233.954 808.26 234.443 806.112 234.345C801.717 234.15 798.983 230.829 800.643 227.314C801.522 225.263 801.424 225.165 799.276 225.556C798.006 225.751 796.932 225.556 796.932 224.97C796.932 224.384 795.956 223.798 794.784 223.603C791.268 223.114 791.561 219.696 795.272 217.45C801.034 213.837 803.67 204.462 800.936 197.138C800.155 195.185 799.081 194.501 796.249 194.013C788.045 192.646 787.264 192.353 787.752 191.181C788.045 190.302 786.971 190.009 784.042 190.009L779.842 190.107L778.768 184.833C777.792 180.829 777.792 179.169 778.67 177.802C779.354 176.728 780.135 175.946 780.428 175.946C780.819 175.946 780.624 174.872 780.038 173.505C779.354 172.138 778.28 171.064 777.694 171.064C777.01 171.064 776.424 170.282 776.424 169.306C776.327 167.353 771.932 163.837 770.565 164.716C769.979 165.009 769.588 165.986 769.588 166.767C769.588 168.525 769.393 168.525 765.487 166.279C759.53 162.861 757.967 162.763 756.6 165.888Z" fill="black"/>
<path d="M225.252 396.353C224.667 397.72 224.764 397.818 225.741 396.939C226.424 396.255 226.717 395.474 226.424 395.181C226.131 394.888 225.545 395.376 225.252 396.353Z" fill="black"/>
<path d="M836.678 648.602C836.385 649.773 836.678 650.555 837.46 650.555C838.241 650.555 838.534 649.773 838.241 648.602C837.948 647.527 837.557 646.648 837.46 646.648C837.362 646.648 836.971 647.527 836.678 648.602Z" fill="black"/>
<circle cx="255" cy="689" fill="#5CE50D"/>
<circle cx="586" cy="365" fill="#E52A0D"/>
<circle cx="255" cy="464" fill="#E52A0D"/>
<circle cx="671" cy="719" fill="#E52A0D"/>
</svg>
