<svg width="1000" height="1000" viewBox="0 0 1000 1000" fill="none" xmlns="http://www.w3.org/2000/svg">
<rect width="1000" height="1000" />
<path d="M471.294 4.62604C466.509 7.06744 461.43 9.02057 459.966 9.02057C458.501 9.02057 454.204 7.84869 450.591 6.38385C445.122 4.33307 442.095 3.74713 435.063 3.74713C422.759 3.64948 420.22 4.33307 413.481 10.0948C406.157 16.4424 402.934 17.8096 395.122 17.8096C389.848 17.8096 387.798 17.2237 382.134 14.3917C373.052 9.60651 371.489 10.0948 370.805 17.9073C370.513 21.8135 369.536 24.9385 368.266 26.6964C365.532 30.4073 365.727 31.9698 369.145 34.4112C373.345 37.3409 373.052 39.8799 368.462 40.6612C362.016 41.6378 359.77 41.3448 357.036 38.8057C353.325 35.3878 350.591 35.6807 346.489 39.9776C341.704 45.1534 341.509 46.3253 344.731 50.7198C347.661 54.4307 348.345 57.2628 346.782 58.2393C344.927 59.4112 345.024 62.8292 346.88 65.1729C349.126 68.1026 348.54 71.2276 345.22 72.6924C343.169 73.669 342.29 73.1807 337.7 69.0792C334.868 66.5401 331.938 63.2198 331.157 61.6573C329.204 57.4581 326.47 57.2628 318.071 60.7784C313.97 62.4385 309.477 63.7081 308.012 63.5128C304.009 63.0245 301.86 59.3135 301.079 51.6964C300.395 44.2745 298.149 40.2706 294.634 40.2706C292.68 40.2706 292.29 41.0518 291.216 47.6924C289.653 57.8487 286.528 64.1964 280.278 70.0557C268.852 80.7003 269.829 79.0401 269.048 88.7081C268.657 93.4932 267.876 97.9854 267.387 98.5714C264.458 102.185 258.989 98.2784 253.325 88.5128C250.884 84.4112 250.786 83.7276 251.86 80.7003C252.544 78.8448 252.837 76.9893 252.446 76.501C252.153 76.0128 249.614 74.8409 246.782 74.0596C240.434 72.2042 237.309 70.0557 237.309 67.5167C237.309 64.8799 235.063 60.6807 232.427 58.5323C230.18 56.6768 230.083 53.7471 232.134 44.7628L232.72 41.9307L228.423 42.6143C225.298 43.1026 223.052 44.3721 220.22 47.0089C218.071 49.0596 214.262 51.9893 211.626 53.4542L207.036 56.0909L209.087 59.4112C212.016 64.1964 211.04 66.5401 203.423 73.0831C199.712 76.2081 194.927 80.5049 192.583 82.6534L188.481 86.5596L181.352 83.044L174.223 79.4307L169.341 80.8956C166.704 81.6768 159.38 82.8487 153.13 83.4346C142.778 84.5089 141.313 84.4112 138.091 82.8487C134.477 81.1885 134.477 81.1885 126.86 84.3135C119.536 87.2432 119.145 87.5362 119.145 90.4659C119.145 92.8096 120.024 94.4698 122.661 97.0089C127.446 101.599 128.911 104.724 128.911 110.778C128.911 115.661 129.106 116.052 132.524 118.396C138.286 122.302 142.583 126.306 142.583 127.868C142.583 128.649 141.509 130.7 140.141 132.458C138.481 134.704 137.7 136.95 137.7 139.685C137.7 143.591 137.602 143.689 135.063 143.2C133.305 142.907 129.497 143.689 125.005 145.349C121.001 146.814 114.458 148.278 110.454 148.669C106.157 149.157 102.934 149.939 102.446 150.72C101.274 152.478 101.86 156.579 104.399 163.806C106.645 170.056 107.915 171.423 116.02 176.11C121.587 179.431 124.028 182.946 124.028 187.927C124.028 190.564 123.149 192.126 119.634 195.544C117.192 197.985 114.067 201.501 112.798 203.454C110.649 206.482 110.454 207.263 111.43 210.095C112.309 212.732 112.212 214.001 110.356 218.2C108.305 223.083 108.305 223.278 109.966 227.673C112.212 233.532 120.22 241.345 128.032 245.251C133.696 248.083 134.77 248.278 144.634 248.278C161.04 248.278 164.067 250.427 159.673 258.923C158.305 261.657 157.231 264.978 157.231 266.345C157.231 268.2 156.352 269.372 154.204 270.544C148.345 273.767 146.489 275.72 146.489 278.552C146.489 285.485 149.419 285.974 165.239 281.482C182.329 276.696 183.11 276.306 188.579 268.2C195.61 257.751 198.637 254.626 203.52 252.771C207.329 251.306 208.11 250.524 210.259 245.349C212.309 240.759 213.579 239.196 216.509 237.732C231.352 230.114 248.735 231.091 257.72 240.075C260.259 242.614 261.723 244.86 261.43 245.739C261.137 246.521 261.528 247.692 262.309 248.278C263.384 249.255 264.067 249.06 265.532 247.204L267.485 244.86L271.684 248.767C273.93 250.915 276.079 252.966 276.372 253.259C276.665 253.552 278.325 254.626 280.18 255.603C282.036 256.482 287.7 260.583 292.876 264.685C298.052 268.689 302.837 272.497 303.52 272.985C304.399 273.669 305.18 273.376 306.157 272.107C307.427 270.251 307.524 270.349 309.77 272.399C311.137 273.669 312.993 274.646 314.067 274.646C316.313 274.646 323.247 281.384 323.247 283.532C323.247 284.314 324.321 286.462 325.591 288.22C328.423 292.028 328.911 294.567 330.473 313.22C331.645 327.478 331.841 328.259 336.235 338.122C338.774 343.786 341.704 350.036 342.778 351.989C345.22 356.482 345.22 359.021 342.778 371.521C340.337 384.021 340.337 383.63 343.266 381.677C346.489 379.528 348.247 379.724 353.227 382.556C356.352 384.411 357.427 385.681 357.427 387.439C357.427 388.708 357.036 390.075 356.45 390.368C355.962 390.661 355.473 392.712 355.473 394.763C355.473 396.814 354.985 398.864 354.399 399.157C352.837 400.232 356.352 403.552 359.087 403.552C365.337 403.552 375.884 411.755 378.13 418.396C378.716 420.153 380.278 422.888 381.548 424.45C383.11 426.306 383.696 427.868 383.208 429.333C382.329 432.36 379.888 434.802 377.739 434.802C375.493 434.802 375.493 435.974 377.934 438.806L379.888 441.149L381.743 438.806C383.208 436.853 384.184 436.56 386.821 437.048C401.665 439.489 413.97 450.524 424.223 470.642C426.274 474.841 427.251 475.817 429.302 475.817C430.962 475.817 432.72 476.892 434.38 478.942C435.845 480.7 439.946 484.997 443.462 488.513C451.567 496.618 452.153 497.302 454.106 503.454C455.473 507.849 456.352 508.923 460.259 510.974C465.825 514.099 475.102 524.45 479.106 532.067C481.743 537.243 482.427 537.829 485.454 538.122C487.309 538.317 489.653 539.294 490.727 540.271C491.802 541.247 495.024 543.005 497.759 544.177C501.567 545.837 503.618 547.497 505.864 550.817C507.427 553.259 508.794 556.091 508.794 557.067C508.794 559.704 512.407 559.314 516.411 556.189C518.266 554.821 521.782 553.259 524.223 552.868C528.423 551.989 528.813 552.185 534.38 556.384C537.602 558.825 540.63 560.778 541.118 560.778C541.509 560.778 543.559 559.9 545.61 558.825C548.637 557.36 550.102 557.165 553.13 557.849C555.278 558.337 557.329 558.532 557.72 558.239C560.845 556.384 577.153 594.958 577.153 604.04C577.153 608.435 578.716 608.825 579.595 604.724C580.376 601.306 580.766 601.208 583.208 603.454C584.966 605.017 585.259 605.017 587.993 603.552C591.606 601.403 592.876 601.892 597.173 607.263C599.126 609.607 601.762 611.853 603.032 612.146C607.524 613.317 606.841 616.735 600.591 623.083C598.345 625.427 596.684 627.478 596.88 627.673C597.075 627.771 601.567 626.501 606.938 624.743C612.309 622.985 620.024 621.228 624.028 620.837L631.45 620.153L634.966 625.915C644.927 642.126 646.001 646.716 641.704 654.724L638.677 660.29L642.192 660.974C644.341 661.364 646.391 662.634 647.661 664.392C649.223 666.54 650.102 666.931 651.079 666.15C652.739 664.685 660.942 671.521 663.579 676.403C664.653 678.454 666.02 679.724 666.704 679.431C667.387 679.235 667.973 679.431 667.973 679.919C667.973 680.407 669.048 681.579 670.415 682.458C672.856 684.021 673.052 684.021 677.544 680.212C683.989 674.841 684.087 674.841 687.993 676.403C692.876 678.454 696.294 681.384 699.516 685.974C701.762 689.392 702.153 690.954 702.153 696.521C702.153 703.845 704.009 710.095 709.38 720.739C711.723 725.329 713.872 728.259 715.434 728.942C720.415 731.189 723.637 742.419 723.637 757.36V766.833L729.594 778.747C735.356 790.271 735.552 790.759 734.38 794.567C733.794 796.618 732.036 799.646 730.571 801.11C727.837 803.845 727.837 803.845 723.54 802.282C717.973 800.232 715.337 801.013 710.259 805.993C706.45 809.607 704.692 813.122 706.938 812.536C708.012 812.146 712.895 819.177 712.895 821.13C712.895 823.278 704.594 839.392 701.665 842.907C700.2 844.567 697.075 847.107 694.731 848.474C691.02 850.622 690.63 851.208 691.509 852.868C692.192 854.333 692.094 856.774 690.825 862.146L689.262 869.47L691.997 872.497C696.587 877.38 700.102 879.138 702.934 878.064C704.302 877.575 707.915 877.38 711.137 877.771C715.923 878.357 717.192 878.161 718.852 876.599C722.466 873.376 726.567 866.638 726.567 864.001C726.567 862.439 728.325 859.118 731.157 855.407C739.946 843.884 742.876 841.345 750.102 838.61C753.813 837.146 757.524 835.095 758.305 833.923C760.552 830.7 760.356 810.583 758.11 806.774C756.45 804.04 756.45 803.747 758.305 800.427C761.821 793.884 769.634 787.829 778.813 784.509C788.677 780.896 788.579 780.993 795.024 783.337L799.907 785.29L801.86 780.7L803.813 776.208L801.177 770.935C798.637 766.052 798.54 765.368 799.712 761.071C800.591 757.458 800.591 755.798 799.712 753.845C798.833 751.892 798.833 749.939 799.712 745.739C801.177 738.415 801.177 738.806 797.856 737.048C796.196 736.169 794.341 734.411 793.755 733.142C793.071 731.677 789.751 729.138 785.552 726.794C781.743 724.743 777.641 721.716 776.567 720.251C774.809 717.81 773.93 717.517 767.192 717.224C760.161 716.833 759.575 716.638 757.427 713.708C751.079 705.31 750.786 701.306 755.864 694.177C759.575 689.001 761.723 682.165 761.723 675.525C761.723 671.911 762.212 669.958 763.384 669.079C764.262 668.298 766.02 665.271 767.29 662.341C768.657 659.411 770.708 655.603 771.88 654.04C773.149 652.38 774.614 649.548 775.2 647.692C777.934 639.489 784.575 633.337 793.169 630.993C799.614 629.333 806.255 633.63 805.473 639.099C805.278 640.759 806.645 641.931 813.481 645.544C818.071 647.985 823.637 650.915 825.884 652.087C829.594 654.138 830.962 654.235 840.239 653.845L850.591 653.259L853.813 656.775C855.571 658.728 858.501 663.122 860.356 666.638C863.579 672.595 863.677 673.083 862.505 676.403C861.333 679.724 861.333 680.31 863.677 684.216C867.192 690.271 886.137 704.138 889.262 702.966C890.337 702.575 890.63 700.427 890.63 694.177C890.63 684.607 891.313 682.458 895.61 677.575C899.419 673.181 899.223 671.228 892.876 658.435C888.774 650.232 887.016 647.888 876.958 637.927C870.805 631.775 864.751 625.329 863.579 623.767C862.407 622.107 861.333 621.423 861.333 622.009C861.333 624.45 858.598 623.278 857.622 620.446C856.841 618.396 855.766 617.419 853.325 616.931C849.907 616.15 844.536 613.708 843.755 612.536C843.462 612.048 839.848 609.997 835.649 607.849C826.958 603.259 814.36 593.982 810.649 589.294C809.282 587.536 805.278 584.411 801.762 582.263C794.438 577.868 776.469 570.544 773.052 570.544C771.684 570.544 768.559 568.982 766.02 566.931C763.384 564.978 758.501 562.536 754.887 561.462C747.563 559.314 740.141 555.7 738.384 553.552C737.602 552.673 736.235 551.989 735.161 551.989C734.087 551.989 730.766 549.646 727.739 546.814C724.712 543.982 719.829 540.173 716.997 538.415C711.333 534.802 709.575 532.36 710.454 529.431C710.844 528.357 715.239 524.45 720.219 520.642C733.598 510.583 734.966 507.653 729.106 500.72L725.884 496.911L716.606 499.06C707.817 501.013 707.134 501.11 701.86 499.548C696.782 498.181 695.512 498.181 686.43 499.548C677.348 501.013 676.274 501.013 673.54 499.548C671.88 498.767 667.68 497.79 664.262 497.497C658.403 497.009 657.817 496.716 651.958 491.442C647.466 487.341 644.145 485.29 639.555 483.728C632.915 481.482 628.911 478.454 628.911 475.72C628.911 474.548 627.446 473.278 624.809 472.107C621.977 470.935 617.485 466.931 611.333 460.192C606.255 454.626 599.809 448.669 597.075 446.911C590.239 442.517 587.309 438.806 582.524 428.454C576.86 416.345 573.54 405.407 572.759 396.716C571.88 386.56 570.122 380.896 563.286 366.052C558.208 355.31 557.231 352.185 556.841 346.618L556.45 340.075L544.048 331.872C534.477 325.524 527.837 319.958 514.165 306.872C504.595 297.595 492.973 286.95 488.481 283.044C483.989 279.235 479.497 274.841 478.52 273.181C476.079 269.274 470.61 248.083 470.61 242.907C470.708 234.509 470.708 230.993 470.61 225.915C470.415 218.982 472.856 215.564 477.934 215.661C480.278 215.759 481.45 215.368 481.45 214.489C481.45 211.169 483.696 208.435 486.235 208.532C488.579 208.728 488.774 208.337 489.653 203.064C490.434 197.888 490.239 197.107 488.481 195.251C486.723 193.493 486.04 193.396 483.891 194.372C480.083 196.13 479.497 195.837 479.497 192.224C479.497 185.974 478.13 176.403 477.641 178.649L477.055 180.896L473.833 178.357C469.927 175.232 467.485 170.739 468.266 168.103C468.852 166.247 469.634 166.149 474.419 167.907C475.2 168.298 475.591 167.321 475.591 164.88C475.591 158.142 480.669 149.548 486.919 145.642C489.653 143.982 490.532 143.786 491.802 144.86C492.876 145.739 493.559 145.739 494.341 144.958C495.024 144.274 496.782 143.786 498.345 143.786C500.786 143.786 501.079 144.079 500.786 146.423C500.591 148.278 499.712 149.353 498.052 149.841C496.294 150.427 496.587 150.524 499.419 150.134C501.47 149.939 506.059 148.278 509.673 146.618C513.579 144.665 518.071 143.298 521.001 143.103C531.645 142.419 532.231 142.321 533.696 140.075C535.161 138.024 535.161 137.927 532.817 137.927C529.79 137.927 529.692 137.146 532.329 132.653C533.598 130.407 534.77 129.431 535.747 129.821C536.528 130.114 537.895 129.626 538.872 128.845C540.337 127.478 541.313 127.575 548.345 129.626C556.45 131.97 558.11 133.532 555.473 136.657C554.302 138.122 554.399 138.122 556.45 137.048C557.72 136.364 559.477 134.509 560.356 132.946C562.505 129.235 564.36 129.333 569.341 133.532C574.809 138.122 577.153 141.149 577.153 143.786C577.153 145.446 577.641 145.837 579.887 145.544C581.938 145.349 582.622 144.665 582.817 142.614C583.208 139.099 582.036 137.536 574.028 130.603C570.317 127.38 567.387 124.157 567.387 123.376C567.387 122.497 568.266 120.446 569.341 118.884C572.173 114.685 571.88 111.755 568.657 110.583C564.262 109.021 561.235 107.263 560.845 105.993C560.552 105.31 562.895 102.087 566.02 98.8643C569.048 95.6417 571.391 92.8096 571.196 92.712C571.001 92.5167 566.606 91.1495 561.528 89.587C556.45 88.1221 551.665 86.462 550.981 85.876C550.102 85.1924 549.809 83.044 550.005 79.4307L550.298 73.962L558.012 69.8604C566.606 65.2706 578.325 57.751 577.837 57.2628C577.641 57.0674 569.634 55.6026 559.966 53.9424C550.2 52.2823 539.946 50.3292 537.016 49.4503C534.087 48.5714 526.079 46.4229 519.048 44.5674C504.985 40.8565 495.22 36.5596 492.192 32.751C489.067 28.7471 487.895 22.8878 489.165 18.0049C490.141 14.0987 490.044 13.5128 487.993 10.9737C486.723 9.50885 485.356 6.38385 484.966 4.23541C484.184 -1.03802 482.524 -0.940369 471.294 4.62604ZM482.231 296.325C483.208 297.302 483.891 297.302 485.259 296.423C486.821 295.446 487.212 295.544 487.7 296.716C488.677 299.255 488.384 301.989 486.723 304.431C485.259 306.677 485.161 306.677 480.864 305.212C476.079 303.649 475.298 301.306 478.13 297.302C479.79 294.86 480.571 294.665 482.231 296.325Z" fill="black"/>
<path d="M333.208 392.813C332.427 394.181 330.962 394.767 328.716 394.767C326.958 394.767 324.907 395.45 324.223 396.231C322.856 397.892 320.317 398.185 320.317 396.72C320.317 396.134 318.852 395.743 316.997 395.743C314.263 395.743 313.677 396.134 313.286 398.185C312.798 400.333 313.188 400.724 316.704 401.7C319.731 402.481 321.196 402.481 322.954 401.505C324.907 400.431 325.493 400.431 326.274 401.603C327.056 402.872 327.251 402.872 328.13 401.603C328.813 400.431 329.302 400.431 330.181 401.31C331.157 402.286 331.841 401.798 333.696 399.161C335.845 396.036 336.821 390.86 335.161 390.86C334.77 390.86 333.891 391.739 333.208 392.813Z" fill="black"/>
<path d="M226.566 534.124C226.566 534.612 227.25 535.784 228.031 536.76C231.254 540.959 228.129 545.452 221.879 545.549C217.973 545.647 212.113 549.749 204.789 557.561C201.273 561.37 200.395 561.76 196.195 561.76C192.68 561.76 189.848 562.737 184.184 565.666C180.18 567.815 176.176 569.573 175.297 569.573C172.953 569.573 162.211 563.909 159.574 561.272C158.207 559.905 157.523 558.342 157.816 557.463C158.207 556.487 157.914 555.901 156.84 555.901C155.57 555.901 155.473 556.291 156.449 558.342C157.426 560.491 157.133 561.76 153.813 568.108C150.004 575.627 150.004 576.897 153.617 576.897C157.035 576.897 156.84 580.413 153.324 583.538C151.566 585.1 150.492 587.053 150.492 588.42L150.688 590.569L151.078 588.42C151.664 585.295 154.301 586.76 154.301 590.276V593.108L156.84 591.155C160.648 588.127 162.113 588.518 161.43 592.327C161.137 594.573 161.625 596.624 163.09 599.163C165.043 602.385 165.238 603.655 164.652 609.612C164.164 614.299 164.262 616.448 165.043 616.448C165.531 616.448 166.801 617.913 167.68 619.768C169.145 622.893 169.145 623.381 167.582 626.604C166.215 629.436 166.117 630.803 166.898 633.831C168.754 640.276 168.363 641.35 163.871 643.206C161.527 644.182 160.258 645.159 160.941 645.452C161.82 645.745 162.016 647.307 161.527 650.823C160.941 655.217 161.039 655.706 162.602 655.315C163.676 655.12 164.75 653.752 165.238 651.995C166.117 648.674 168.656 647.014 170.316 648.674C171 649.358 170.902 650.627 170.121 652.874C169.242 655.315 169.242 656.975 170.023 659.124C170.805 661.467 170.707 662.932 169.535 665.569C168.266 668.694 168.266 669.084 169.633 669.573C170.902 670.061 170.902 670.452 169.828 671.819C168.754 673.088 168.754 673.479 169.73 673.772C171.391 674.358 171.195 677.874 169.438 678.655C168.559 678.948 166.996 678.362 166.02 677.483C163.48 675.237 163.188 675.627 162.504 681.975C162.113 684.905 160.941 688.811 159.867 690.666C158.793 692.522 157.133 696.916 156.156 700.334C154.496 706.487 154.496 706.682 156.352 709.026C158.793 712.248 158.695 713.03 155.18 716.643L152.25 719.67L153.813 723.674C154.691 725.823 156.156 727.776 157.133 728.069C158.109 728.264 159.184 729.729 159.477 731.389C159.77 733.049 161.039 734.807 162.504 735.588C164.75 736.76 164.945 737.346 164.457 740.276C163.969 743.01 164.164 743.987 165.629 745.061C167.094 746.135 167.289 746.819 166.313 749.26C165.531 751.409 165.531 752.483 166.508 753.752C167.582 755.315 167.777 755.315 168.852 753.264C169.535 752.092 171.195 750.725 172.563 750.139C174.711 749.358 175.492 749.553 177.738 751.702C179.594 753.459 180.668 753.948 181.156 753.166C181.645 752.385 182.23 752.581 183.109 753.85C184.281 755.413 184.574 755.413 188.188 752.873C192.973 749.553 198.051 744.377 198.344 742.424C198.441 741.643 198.246 738.909 197.855 736.272C197.367 733.538 197.465 730.022 198.051 727.581C198.93 724.26 198.832 723.088 197.758 721.819C196.293 720.256 195.805 718.01 196.879 718.01C198.441 718.01 202.934 721.428 204.691 723.967C206.254 726.409 207.035 726.702 209.672 726.213C214.652 725.237 218.363 726.702 223.637 731.291C226.957 734.416 229.008 735.588 230.277 735.198C231.547 734.709 232.426 735.295 233.402 737.053C234.086 738.42 235.063 739.495 235.453 739.495C236.234 739.495 239.262 732.268 239.262 730.12C239.262 729.338 240.336 727.581 241.703 726.213C244.047 723.87 245.023 720.94 243.461 720.94C242.973 720.94 242.094 720.549 241.41 720.061C240.336 719.475 240.824 718.108 243.656 714.299C246.488 710.295 247.172 708.538 246.977 705.51C246.781 703.557 246.977 701.409 247.27 700.92C248.344 699.163 250.102 687.737 249.516 686.663C249.125 686.174 249.32 685.1 249.906 684.416C251.273 682.854 253.91 672.502 253.91 668.791C253.91 667.229 254.594 665.178 255.473 664.202C256.742 662.834 256.742 662.151 255.766 660.588C254.789 658.928 254.789 658.147 256.156 656.096C258.402 652.776 258.305 652.092 254.887 645.354C252.836 641.252 251.957 638.225 251.957 634.709C251.957 630.12 252.152 629.631 257.719 624.358C260.844 621.331 264.555 616.643 265.922 614.006C268.363 609.124 268.363 609.026 266.508 606.78C265.043 605.022 264.652 602.971 264.652 597.795C264.652 593.01 264.262 590.959 263.285 590.374C262.504 589.983 261.332 587.444 260.648 584.905C259.477 580.608 259.477 580.12 261.43 578.166L263.578 576.018L261.43 574.944C259.965 574.26 259.281 572.991 259.281 571.233C259.379 569.084 258.988 568.791 257.23 569.182C254.691 569.866 250.98 568.889 250.98 567.62C250.98 567.131 252.934 565.374 255.375 563.616L259.867 560.393L257.133 559.221C254.984 558.342 254.105 558.342 252.836 559.416C249.711 562.249 248.93 558.049 251.957 554.241C254.105 551.506 254.301 550.237 252.934 548.088C252.152 546.916 251.664 547.014 249.613 548.967L247.27 551.213L245.609 548.772C244.73 547.405 244.145 545.549 244.34 544.573C244.535 543.206 243.559 542.522 239.945 541.448C236.43 540.471 234.867 539.397 234.086 537.444C233.305 535.881 232.328 535.002 231.254 535.198C230.375 535.393 229.398 535.002 229.008 534.514C228.324 533.245 226.566 533.049 226.566 534.124Z" fill="black"/>
<path d="M678.715 843.886C677.836 844.179 675.199 845.839 672.855 847.5C665.922 852.285 664.554 852.48 659.476 848.769L654.984 845.644L655.472 848.769C655.863 851.406 655.375 852.382 651.762 855.703C649.418 857.851 646.781 859.609 645.804 859.609C644.926 859.609 641.801 857.949 638.969 855.996C634.183 852.675 633.5 852.48 630.57 853.457C628.812 854.043 625.492 854.921 623.051 855.214C620.609 855.605 617.289 857.07 615.238 858.73C610.355 862.636 604.789 864.394 592.875 865.566C580.277 866.836 579.984 866.836 572.758 865.468C564.554 863.906 557.816 864.589 551.859 867.812C547.562 870.058 546 870.351 542.386 869.765C537.015 868.984 532.621 865.468 530.179 860.097L528.422 856.191H521.781C516.605 856.191 515.14 855.898 514.945 854.726C513.871 846.523 513.676 845.937 510.941 845.937C509.476 845.937 507.426 846.621 506.449 847.402C503.91 849.355 501.078 849.257 498.832 847.207C496.976 845.546 496.879 845.644 495.023 847.89C494.047 849.257 493.265 851.406 493.363 852.773C493.656 854.824 492.875 855.605 488.285 857.851C485.355 859.316 481.937 860.488 480.765 860.488C478.129 860.586 472.953 856.386 472.172 853.457C471.781 852.285 471.097 850.136 470.511 848.574L469.437 845.839L466.117 849.843C464.261 851.992 460.746 854.921 458.402 856.289C452.445 859.804 448.148 866.25 448.929 870.742C449.222 872.695 448.832 876.015 447.953 878.652C447.074 881.093 446.586 883.632 446.781 884.316C446.976 885 447.66 887.343 448.246 889.687C449.125 893.007 449.906 894.082 452.543 895.156C454.984 896.132 456.156 897.5 457.035 900.136C458.5 904.531 461.429 905.898 467.094 904.531C469.34 904.043 473.441 903.554 476.273 903.554C481.156 903.554 481.547 903.75 484.574 907.851C487.211 911.464 488.578 912.441 492.484 913.222C497.66 914.394 502.933 916.836 502.933 918.105C502.933 919.472 513.676 930.703 516.996 932.754C518.754 933.925 521.488 934.804 522.953 934.804C525.101 934.804 526.957 936.171 531.156 940.761C536.918 947.011 540.531 949.453 544.047 949.453C545.316 949.453 547.465 950.918 549.32 953.066C552.347 956.582 552.64 956.679 555.668 955.605C557.914 954.726 559.379 954.726 561.136 955.507C562.894 956.289 564.164 956.289 566.019 955.41C568.265 954.433 569.437 954.629 575.004 957.265C583.5 961.269 587.504 964.394 588.285 967.714C588.676 969.179 590.336 971.914 591.996 973.769C593.656 975.625 596 979.433 597.269 982.265C599.32 986.953 600.004 987.539 604.887 989.394C613.383 992.519 617.777 993.398 629.887 994.179L641.117 994.863L641.41 997.5C641.703 999.941 641.898 1000.04 644.144 999.062C646.39 997.988 646.488 997.597 645.902 993.496C645.512 991.054 645.219 987.636 645.219 985.879C645.414 979.238 654.594 967.031 659.672 967.031C661.625 966.933 661.625 966.933 659.672 965.468C657.914 964.101 657.914 963.808 659.281 962.832C660.746 961.953 660.648 961.367 658.109 957.949C656.547 955.8 655.57 953.75 655.765 953.261C656.058 952.871 655.375 952.285 654.301 951.894C653.226 951.601 651.957 950.527 651.371 949.55C650.687 948.086 651.078 947.5 653.91 946.132C656.937 944.765 657.23 944.277 656.156 943.007C655.472 942.129 652.836 940.468 650.297 939.199C646.097 937.05 645.609 936.367 644.633 931.875C642.777 923.379 643.265 919.375 646.39 915.371C649.711 911.171 651.664 906.875 653.226 900.136C653.91 897.402 655.961 893.203 658.109 890.371C660.16 887.734 664.164 881.386 666.898 876.504C669.73 871.523 674.125 864.882 676.762 861.855C679.496 858.73 681.644 855.507 681.644 854.726C681.644 853.847 682.816 851.504 684.183 849.55C685.551 847.5 686.527 845.644 686.332 845.546C685.16 844.472 679.887 843.398 678.715 843.886Z" fill="black"/>
<circle cx="487" cy="487" fill="#5CE50D"/>
<circle cx="326" cy="145" fill="#E52A0D"/>
<circle cx="427" cy="265" fill="#E52A0D"/>
<circle cx="716" cy="631" fill="#E52A0D"/>
</svg>
