<svg width="1000" height="1000" viewBox="0 0 1000 1000" fill="none" xmlns="http://www.w3.org/2000/svg">
<rect width="1000" height="1000" />
<path d="M230.096 297.364C226.482 298.145 222.381 299.415 221.111 300.294C219.842 301.075 217.889 301.759 216.717 301.759C215.545 301.759 212.322 302.833 209.588 304.103C202.947 307.228 198.26 313.77 198.26 319.825C198.26 322.169 197.869 324.415 197.283 324.708C196.697 325.001 196.6 327.735 196.99 331.251L197.576 337.208L192.498 336.622C189.666 336.231 186.639 335.45 185.76 334.767C184.979 334.083 181.463 333.302 177.947 333.009C172.967 332.618 171.404 332.13 170.525 330.567C169.939 329.493 169.354 328.419 169.158 328.224C168.865 327.735 155.096 330.86 149.92 332.618C147.771 333.302 145.037 333.692 143.865 333.399C142.693 333.106 137.908 333.302 133.221 333.985C125.604 334.962 124.627 334.864 122.869 333.302C121.307 331.837 120.818 331.837 120.135 333.009C119.549 333.79 119.158 334.767 119.158 335.157C119.158 335.645 118.768 335.938 118.182 335.938C117.693 335.938 117.205 334.864 117.205 333.497C117.205 331.837 116.717 331.056 115.447 331.056C114.568 331.056 113.201 330.177 112.518 329.103C110.662 326.075 102.654 326.368 98.748 329.688C96.0137 331.935 95.7207 332.618 96.3066 335.743C96.8926 338.77 96.7949 339.063 95.3301 338.575C94.3535 338.185 92.9863 337.892 92.2051 337.892C91.4238 337.892 90.8379 337.11 90.8379 336.134C90.8379 332.52 87.4199 330.763 79.5098 330.274C71.4043 329.786 67.6934 330.958 67.2051 334.278C67.0098 335.645 65.6426 336.72 62.9082 337.599C59.7832 338.673 58.5137 339.747 57.5371 342.091C56.8535 343.849 55.6816 345.606 54.998 345.997C54.3145 346.388 53.7285 347.657 53.7285 348.634C53.7285 350.001 53.0449 350.587 51.3848 350.587C48.1621 350.587 43.7676 354.298 44.4512 356.446C45.623 360.06 44.2559 360.841 38.0059 360.548C31.5605 360.157 30.291 360.841 30.291 364.942C30.291 366.212 29.4121 368.067 28.3379 369.142C27.2637 370.216 26.1895 372.169 25.7988 373.536C24.9199 377.052 23.6504 377.442 21.1113 375.099C17.9863 372.071 15.252 372.56 12.2246 376.466C9.7832 379.688 9.49023 382.813 11.541 382.813C12.0293 382.813 12.4199 384.864 12.5176 387.403C12.5176 390.04 12.9082 396.192 13.2012 401.173L13.8848 410.353L10.3691 413.673C8.41602 415.528 6.16992 416.993 5.38867 416.993C3.5332 416.993 0.0175781 422.56 0.0175781 425.392C0.0175781 427.638 6.46289 437.989 9.58789 440.821C10.7598 441.798 15.0566 444.044 19.2559 445.704C26.2871 448.536 27.3613 448.731 33.709 448.048C43.9629 446.876 45.8184 447.462 49.627 453.028C51.873 456.349 54.1191 458.302 56.8535 459.474C60.6621 460.938 60.8574 460.938 67.3027 458.009C74.7246 454.591 86.1504 451.173 90.1543 451.173C91.7168 451.173 94.3535 452.247 96.209 453.614C99.2363 455.958 99.8223 456.056 105.291 455.177C108.514 454.688 112.518 453.517 114.178 452.735C118.182 450.587 121.99 450.782 124.627 453.224C126.385 454.884 127.166 455.079 128.826 454.2C133.611 451.563 146.99 456.935 148.064 461.915C148.357 463.282 149.432 466.31 150.506 468.751C152.557 473.438 154.51 484.181 154.51 490.724C154.51 495.02 155.877 496.485 161.346 498.048C163.396 498.634 165.447 499.903 165.936 500.88C166.521 501.856 168.377 503.224 170.135 503.907C175.311 505.958 180.682 511.622 181.854 516.407C182.439 518.849 184.002 521.485 185.564 522.853C187.029 524.024 188.592 526.563 188.982 528.419C189.373 530.274 190.447 532.618 191.424 533.692C192.4 534.767 193.475 536.622 193.865 537.892C194.744 540.821 197.088 541.895 204.119 542.677C209.002 543.165 210.369 542.97 211.932 541.505C213.689 539.942 214.373 539.845 217.205 540.821C218.963 541.505 221.307 541.993 222.479 541.993C223.748 541.993 226.385 543.067 228.533 544.435C230.779 545.802 233.807 547.169 235.369 547.56C237.029 547.853 238.299 548.634 238.299 549.317C238.299 550.001 239.861 551.759 241.814 553.224C244.939 555.567 245.33 556.349 244.842 559.181C244.549 560.938 243.377 563.575 242.303 565.138C240.447 567.677 240.35 568.458 241.229 576.661C241.814 581.446 242.693 585.548 243.182 585.743C243.67 585.938 245.916 587.306 248.26 588.868C250.604 590.528 252.947 591.798 253.533 591.798C255.486 591.798 259.783 596.876 259.783 599.22C259.783 604.298 262.615 608.985 267.107 611.134C269.549 612.306 271.502 613.673 271.502 614.259C271.502 614.747 272.381 615.235 273.357 615.235C274.432 615.235 276.092 616.7 277.264 618.653C278.338 620.509 280.779 622.853 282.732 623.731C284.686 624.61 286.15 626.075 286.15 627.052C286.15 629.688 288.592 629.981 294.354 627.931C298.943 626.368 302.947 626.173 324.822 625.978C338.787 625.978 354.412 625.685 359.783 625.392L369.354 624.903L377.361 629.981C388.006 636.817 391.326 637.11 402.166 632.325C412.322 627.931 421.014 625.978 431.463 625.978H439.666L447.479 631.349C451.873 634.376 456.365 636.72 457.732 636.72C461.053 636.72 476.482 646.192 477.557 648.829C479.217 653.321 490.447 664.552 496.014 667.188C499.041 668.751 502.068 669.923 502.654 669.923C503.338 669.923 505.486 673.341 507.342 677.54C510.857 685.157 510.955 685.255 516.131 686.915C519.842 688.087 522.088 689.454 524.041 692.091C525.896 694.532 529.217 696.778 535.564 699.708C544.061 703.712 544.842 703.907 551.287 703.419C557.342 702.931 558.709 702.442 563.299 699.024C568.279 695.313 568.377 695.118 568.377 690.431C568.377 687.696 567.986 685.548 567.498 685.548C565.643 685.548 560.564 680.47 560.564 678.614C560.564 677.638 561.053 676.759 561.541 676.759C562.811 676.759 562.811 674.122 561.443 673.341C560.955 672.95 559.002 673.341 557.146 674.22C555.389 675.099 551.873 676.075 549.334 676.368C545.623 676.954 544.451 676.661 542.693 675.001C541.424 673.829 538.396 672.755 535.467 672.364C530.584 671.778 530.291 671.485 530.291 668.946C530.291 666.993 531.17 665.528 533.025 664.161C537.225 661.231 537.908 661.329 539.764 664.942C540.74 666.798 542.498 668.653 543.768 669.044C545.721 669.825 545.916 669.532 546.111 666.505C546.209 664.649 546.307 662.306 546.307 661.427C546.404 660.45 545.428 659.571 544.158 659.181C541.326 658.595 541.229 656.837 543.963 656.446C545.428 656.153 545.916 655.372 545.916 653.321C545.916 649.415 549.041 647.364 553.045 648.536C559.979 650.489 563.104 648.927 557.439 646.388C552.752 644.337 552.068 640.235 555.193 633.985C556.561 631.153 557.635 627.442 557.635 625.196C557.635 621.681 558.221 620.606 562.615 616.212C569.451 609.376 571.6 608.106 575.115 608.888C577.361 609.376 578.533 608.985 579.998 607.52C582.146 605.372 584.002 604.884 584.002 606.446C584.002 608.399 587.908 607.325 589.471 604.981C591.326 602.149 592.791 602.638 592.791 606.056C592.791 608.888 593.865 609.083 596.209 606.446C597.771 604.688 598.064 604.688 600.994 606.056C604.9 608.106 610.174 612.989 611.932 616.407C613.689 619.728 613.787 625.099 612.127 624.903C608.904 624.513 608.416 625.099 608.416 629.884C608.416 634.962 609.881 636.231 612.322 633.302C614.178 631.153 621.307 631.446 624.334 633.79C626.873 635.841 631.854 636.427 631.854 634.767C631.854 634.278 632.537 634.083 633.318 634.376C634.1 634.767 634.979 634.278 635.369 633.399C636.248 631.056 640.74 631.349 641.326 633.79C641.619 634.864 642.498 635.743 643.182 635.743C643.963 635.743 644.549 636.329 644.549 637.11C644.549 638.673 646.99 638.185 656.268 634.962C660.857 633.302 661.932 632.52 663.592 629.005C664.666 626.661 666.131 625.001 667.107 625.001C668.182 625.001 669.256 623.731 669.842 621.778C671.111 618.067 676.58 608.888 679.51 605.665L681.561 603.517H679.412C676.092 603.517 674.529 602.052 675.311 599.708C675.799 598.048 676.678 597.657 679.803 597.657C683.514 597.657 683.611 597.56 683.611 594.435C683.611 592.188 684.393 590.431 686.053 588.868C687.42 587.599 688.494 585.548 688.494 584.376C688.494 583.106 689.373 581.642 690.35 581.056C691.424 580.567 693.279 578.712 694.451 576.954L696.697 573.927L693.572 574.513C690.545 575.099 690.447 575.001 691.033 572.462C691.424 570.997 692.791 567.774 694.256 565.235C696.307 561.427 697.283 560.548 699.432 560.548C703.143 560.548 705.096 561.524 705.096 563.38C705.096 565.626 712.615 572.657 716.814 574.317C720.428 575.685 729.705 575.978 737.811 574.806C742.303 574.122 743.084 574.317 747.576 577.345C750.213 579.103 752.557 581.349 752.752 582.325C753.045 583.79 751.971 583.985 740.838 583.985H728.533L725.994 586.817C723.846 589.259 723.064 589.552 721.014 588.77C719.646 588.282 716.521 587.403 713.982 586.915C711.541 586.329 708.514 585.45 707.439 584.864C705.682 583.985 704.705 584.181 702.166 586.036L699.041 588.38L705.291 588.966C708.611 589.259 714.959 590.528 719.158 591.603C729.607 594.532 730.877 594.435 734.002 590.333L736.541 586.915H744.842C749.334 586.915 753.826 586.524 754.803 585.938C755.975 585.353 758.416 585.353 761.834 586.036C764.764 586.622 769.842 587.403 773.26 587.794C778.143 588.478 780.096 589.259 782.537 591.603C784.295 593.165 786.639 594.825 787.713 595.118C788.885 595.509 790.35 597.071 791.033 598.634C792.205 601.563 792.596 601.759 796.404 601.954C797.869 602.052 798.553 603.028 799.041 605.958C799.432 608.106 800.604 612.599 801.775 615.821C803.729 621.192 804.314 621.974 807.439 622.853C809.49 623.438 814.275 624.22 818.182 624.513C822.088 624.806 826.873 625.685 828.826 626.466C832.83 628.126 835.955 628.321 835.955 626.954C835.955 626.466 834.588 625.392 832.83 624.708C831.072 624.024 830.096 623.145 830.682 622.755C831.268 622.462 834.002 623.243 836.834 624.61C840.154 626.075 843.768 626.954 846.99 626.954C851.678 627.052 851.873 627.149 850.213 628.419C848.943 629.395 846.014 629.884 842.107 629.884C837.322 629.884 835.955 630.177 835.955 631.349C835.955 632.52 837.42 632.813 843.67 632.813C851.092 632.813 851.482 632.716 853.826 629.884C855.193 628.321 856.463 626.563 856.658 625.978C857.146 624.513 873.357 621.583 888.885 620.118L901.287 618.946L909.1 621.974C913.396 623.634 918.279 625.001 919.939 625.001C921.893 625.001 922.869 625.489 922.869 626.466C922.869 628.81 927.85 628.321 928.436 625.978C928.729 624.903 929.314 624.024 929.803 624.024C930.291 624.024 930.682 622.071 930.682 619.63C930.682 615.821 930.975 615.235 933.123 614.649C936.443 613.868 938.787 615.821 938.006 618.946C937.713 620.216 937.908 621.778 938.396 622.462C939.666 624.024 946.307 623.243 946.99 621.485C947.283 620.704 948.357 620.118 949.334 620.118C950.408 620.118 951.482 619.532 951.775 618.751C952.654 616.407 957.537 615.138 959.686 616.7C961.248 617.872 961.834 617.677 964.568 615.626C966.814 613.966 968.865 613.282 972.186 613.282C975.994 613.282 976.775 612.892 977.752 610.743C978.436 609.376 980.096 607.618 981.561 606.837C984.686 605.274 990.838 604.981 991.717 606.446C992.693 608.106 996.795 607.52 997.479 605.665C997.771 604.786 998.553 603.224 999.236 602.247C1000.21 600.978 1000.21 600.196 999.334 598.829C998.65 597.95 997.479 595.704 996.697 593.946C995.525 591.407 994.646 590.821 992.303 590.821C990.643 590.821 989.275 590.333 989.275 589.747C989.275 589.063 987.615 588.77 984.881 589.063C982.439 589.259 980.486 589.063 980.486 588.673C980.486 588.282 979.217 586.524 977.557 584.669C975.994 582.813 975.018 580.958 975.506 580.47C975.896 579.981 976.775 577.735 977.459 575.392C978.533 571.485 978.533 571.095 976.385 569.239C975.115 568.165 972.967 566.895 971.6 566.31C968.475 565.138 966.814 561.72 966.814 556.544C966.814 553.224 966.326 552.345 963.885 550.978C961.736 549.806 960.955 548.536 960.955 546.681C960.955 545.216 960.369 543.653 959.588 543.263C958.807 542.872 958.025 540.333 957.732 537.599C956.756 527.052 950.311 514.259 943.279 508.692C939.959 506.056 939.471 505.177 939.471 501.563C939.471 497.853 939.178 497.267 936.053 495.802C932.928 494.337 932.635 493.849 932.635 489.942C932.635 484.571 930.389 481.056 927.752 482.423C925.506 483.595 924.822 483.692 924.822 482.52C924.822 480.665 919.256 475.782 916.326 475.196C914.666 474.806 913.006 473.829 912.713 473.048C912.029 471.388 909.197 471.192 909.197 472.853C909.197 473.731 908.904 473.731 908.025 472.853C907.342 472.169 905.291 471.681 903.338 471.681C901.385 471.681 899.334 471.192 898.846 470.704C898.162 470.02 896.99 469.923 895.232 470.606C893.182 471.388 892.596 471.29 892.596 470.313C892.596 469.63 890.838 468.263 888.787 467.286C885.271 465.724 884.783 465.724 882.732 467.188C877.85 470.606 871.697 468.165 868.377 461.622C867.205 459.181 865.643 456.837 864.959 456.349C863.592 455.177 855.486 455.86 855.486 457.13C855.486 457.618 854.217 458.009 852.654 458.009C850.994 458.009 849.432 458.399 849.139 458.985C848.26 460.45 845.135 460.157 843.768 458.497C842.303 456.739 838.982 456.642 835.76 458.106C831.463 459.962 824.627 456.446 818.475 449.22C815.545 445.704 812.518 442.677 811.834 442.579C811.053 442.384 808.709 442.872 806.561 443.751C799.725 446.485 794.744 445.802 788.201 441.407C785.076 439.259 780.486 435.157 778.045 432.228L773.553 427.052L762.42 425.587C754.217 424.513 750.408 423.536 748.26 421.974C745.232 419.825 740.74 419.239 739.764 420.899C739.471 421.388 737.42 422.267 735.369 422.853C729.9 424.317 726.092 422.169 723.26 416.017C721.99 413.38 719.354 409.181 717.303 406.739C714.568 403.321 713.885 401.954 714.764 401.075C716.229 399.61 716.131 395.216 714.666 393.751C713.982 393.067 712.811 392.579 711.834 392.579C708.807 392.579 700.799 387.501 694.646 381.837C688.982 376.563 684.197 374.024 679.607 374.024C677.459 374.024 674.822 370.899 674.822 368.263C674.822 366.993 675.604 363.868 676.482 361.231C678.924 354.493 677.947 353.81 665.057 353.028L654.803 352.345L650.896 355.763C647.186 358.985 646.99 359.083 643.67 357.716C641.814 356.935 639.08 356.544 637.518 356.837C635.564 357.228 633.318 356.739 630.584 355.274C627.166 353.517 625.896 353.419 622.771 354.2C619.354 355.177 618.963 355.079 617.986 353.028C617.205 351.368 615.35 350.294 610.857 349.122C605.193 347.56 604.51 347.56 602.459 349.024C601.189 349.903 599.041 350.587 597.674 350.587C596.307 350.587 593.768 351.466 591.912 352.638C589.275 354.2 587.713 354.493 583.514 354.005C580.193 353.517 578.143 353.712 577.752 354.395C576.58 356.251 572.967 355.567 570.428 353.126C568.963 351.759 565.154 350.099 561.541 349.22C556.463 347.95 554.607 346.876 552.264 344.044C549.822 341.31 547.869 340.138 542.498 338.673C538.689 337.696 534.393 336.622 532.732 336.329C526.482 335.255 525.408 334.864 525.408 333.595C525.408 332.032 521.307 330.079 517.889 330.079C516.521 330.079 513.787 329.688 511.834 329.2C508.025 328.224 489.568 324.513 485.076 323.927C483.221 323.634 482.049 324.024 481.463 325.196C480.193 327.54 461.15 328.81 457.244 326.759C454.119 325.196 442.791 324.708 441.912 326.173C441.131 327.442 438.787 327.442 437.225 326.173C428.826 319.337 426.971 318.849 422.771 322.853L420.232 325.294L417.303 322.462C414.568 319.728 414.178 319.63 407.537 320.02C402.166 320.411 400.115 320.216 398.357 318.946C396.99 317.97 394.158 317.384 391.131 317.384C388.104 317.384 384.881 316.603 382.537 315.431C379.119 313.575 377.752 313.478 366.033 314.063C355.682 314.649 353.045 315.04 351.678 316.505C350.115 318.165 349.92 318.165 345.525 315.431C340.447 312.306 335.955 310.743 335.955 312.306C335.955 312.794 336.639 313.77 337.42 314.454C341.912 318.165 334.197 318.556 329.412 314.845C326.775 312.794 324.529 312.11 319.549 311.817C313.494 311.329 313.104 311.427 314.959 312.892C316.814 314.356 316.814 314.356 313.689 314.454C309.881 314.454 307.928 313.575 301.189 308.399C296.6 304.981 295.525 304.591 286.736 303.712C281.561 303.224 275.994 302.052 274.529 301.27C266.619 297.169 241.619 295.02 230.096 297.364Z" fill="black"/>
<circle cx="694" cy="557" fill="#5CE50D"/>
<circle cx="577" cy="360" fill="#E52A0D"/>
<circle cx="148" cy="450" fill="#E52A0D"/>
<circle cx="530" cy="659" fill="#E52A0D"/>
</svg>
