<svg width="1000" height="1000" viewBox="0 0 1000 1000" fill="none" xmlns="http://www.w3.org/2000/svg">
<rect width="1000" height="1000" />
<path d="M752.204 53.125C704.938 82.6172 635.505 125.977 597.907 149.707C560.309 173.34 512.848 202.93 492.438 215.43C472.028 227.93 451.813 241.016 447.614 244.434C438.923 251.367 438.434 251.465 425.446 249.023C421.052 248.242 416.559 247.754 415.485 248.047C414.216 248.34 412.458 247.656 410.7 246.094C408.063 243.945 406.989 243.75 397.419 243.75C385.7 243.652 374.665 241.895 372.126 239.648C369.489 237.402 366.169 236.621 359.04 236.719C353.669 236.816 352.399 236.523 351.716 235.059C349.958 231.445 335.017 218.555 325.446 212.305C320.075 208.887 315.095 204.785 314.313 203.418C313.044 201.074 312.556 200.879 308.942 201.465C306.696 201.758 304.841 202.148 304.645 202.246C304.548 202.344 302.79 201.953 300.739 201.27C298.688 200.488 295.075 200.195 292.145 200.488L287.165 200.977L286.481 196.777C285.798 192.383 281.892 184.863 279.743 183.496C278.962 183.105 277.985 180.078 277.497 176.855L276.618 170.996L272.224 169.727C264.509 167.48 263.044 166.602 264.216 165.43C265.974 163.672 265.583 161.719 263.63 161.719C261.97 161.719 257.087 157.812 256.501 155.957C256.013 154.59 241.071 151.855 235.993 152.148C232.087 152.344 230.329 151.172 230.231 148.242C230.231 147.461 228.669 147.07 225.544 147.07C221.735 147.07 220.368 147.559 218.415 149.609C217.145 150.977 213.727 153.223 210.895 154.492C207.966 155.762 204.352 157.91 202.692 159.277C199.372 162.109 196.931 162.305 191.266 160.254L187.263 158.887L188.727 161.719C190.974 166.016 190.583 168.066 186.774 172.168C182.477 176.758 181.794 178.809 183.649 181.543C184.333 182.715 185.309 186.035 185.602 188.867C186.188 193.555 185.993 194.141 183.942 195.02C182.38 195.801 181.794 196.68 182.087 198.242C182.38 199.805 181.892 200.684 180.329 201.367L178.181 202.344L181.306 205.957C184.431 209.375 184.431 209.473 182.77 212.012C181.306 214.258 181.208 215.137 182.184 217.676C183.161 220.312 183.063 220.996 181.403 222.754C180.231 224.023 179.45 226.172 179.45 228.32C179.45 230.273 179.059 233.008 178.571 234.375C177.888 235.84 177.985 237.988 178.571 240.039C179.059 241.797 179.938 251.465 180.427 261.426C181.403 278.613 181.306 279.785 179.45 283.887C178.376 286.426 177.497 290.332 177.497 293.359C177.497 297.07 176.716 300.098 174.567 304.297C171.247 310.938 170.661 318.164 173.2 320.996C174.567 322.559 174.567 322.949 173.102 325.879C171.54 328.809 171.54 329.199 173.005 331.836C174.274 333.887 174.567 335.742 173.981 339.258C173.688 341.797 172.907 344.434 172.321 345.117C171.052 346.777 173.102 356.738 175.153 359.082C176.227 360.254 176.52 361.523 176.032 362.598C174.86 365.332 174.763 372.559 175.837 378.223C176.618 382.422 177.204 383.301 179.352 383.789C180.72 384.082 182.77 385.059 183.845 385.84C185.798 387.402 185.798 387.598 181.306 409.375C176.52 433.105 176.423 437.109 180.036 448.047C181.208 451.562 181.306 453.516 180.524 456.348C177.79 466.895 176.52 474.414 176.52 480.566C176.52 484.766 175.934 488.379 175.056 489.844C174.274 491.211 173.2 493.457 172.517 494.922C171.638 497.266 171.052 497.559 168.903 496.973C167.438 496.68 165.876 495.898 165.485 495.312C164.704 494.238 165.29 488.477 166.364 485.547C166.657 484.668 166.462 483.984 165.876 483.984C164.509 483.984 160.7 488.184 157.77 492.773C156.599 494.629 154.841 497.168 153.767 498.438L151.716 500.586L149.665 498.633L147.614 496.68L145.27 501.465L143.024 506.25L147.712 514.453C150.251 518.945 153.669 523.926 155.329 525.684L158.259 528.809L156.599 538.77C155.231 547.266 154.548 549.219 151.716 552.734C146.052 559.668 145.27 562.5 147.028 570.801L148.591 577.93L144.196 582.031C141.755 584.18 138.434 587.207 136.774 588.574C134.138 590.723 133.649 591.895 133.063 597.656C132.673 601.27 132.575 605.664 132.868 607.52C133.356 610.254 133.063 610.938 131.599 611.426C128.669 612.305 123.786 619.141 123.786 622.266C123.688 627.734 121.052 636.914 118.024 642.188C116.364 645.117 114.997 648.34 114.997 649.316C114.997 650.195 112.946 654.004 110.505 657.715C106.501 663.867 105.72 665.82 103.278 677.832C100.153 692.871 97.8095 700.488 95.661 702.93C94.0009 704.883 94.3915 706.348 100.153 717.773L103.474 724.512L99.9579 727.539C96.6376 730.469 96.4423 730.957 95.3681 739.844C93.9032 751.172 93.8056 749.609 96.9306 764.062C98.2978 770.605 99.1767 776.562 98.6884 777.246C98.2978 777.832 95.1728 782.324 91.6571 787.207C86.1884 794.727 84.8212 797.559 82.0868 806.738C78.9618 816.895 78.8642 817.969 79.4501 827.734L80.036 837.988L76.4228 844.336C73.2001 850 72.9071 851.27 73.3954 855.371C73.786 858.789 73.3954 861.523 72.0282 865.137C70.4657 869.141 70.0751 872.656 70.0751 882.031V893.848L65.1923 899.121C58.9423 905.859 57.4775 911.523 60.5048 916.406C62.8485 920.215 62.4579 925.488 59.3329 934.57C58.161 938.086 57.6728 941.211 58.0634 943.555C58.5517 946.289 58.2587 947.461 56.9892 948.438C55.5243 949.414 55.329 950.488 55.915 954.59L56.5985 959.473L61.579 960.449C97.5165 967.48 278.962 999.609 282.868 999.609C283.356 999.609 303.474 983.105 327.595 962.988L371.345 926.465L396.735 881.738L422.126 837.012L498.591 821.289C540.583 812.695 575.056 805.469 575.251 805.176C575.446 804.98 583.063 787.305 592.145 765.918L608.649 726.953L642.536 706.836C661.188 695.703 676.423 686.426 676.52 686.133C676.52 685.84 631.013 631.836 575.349 566.016C489.899 465.039 474.47 446.289 476.032 445.703C477.009 445.312 500.446 438.574 528.083 430.664C555.72 422.852 609.333 407.52 647.224 396.582C685.114 385.645 752.985 366.309 798.102 353.613C843.22 340.918 880.622 330.176 881.208 329.883C881.891 329.492 894.782 317.578 910.016 303.32C925.153 289.062 939.118 276.074 940.974 274.512L944.391 271.484L940.192 257.91C937.849 250.391 935.7 243.945 935.407 243.555C935.114 243.164 925.153 245.508 913.337 248.633C901.52 251.855 891.559 254.492 891.169 254.492C890.778 254.492 890.192 252.539 889.899 250.195C889.509 247.754 887.067 238.574 884.528 229.59C880.72 216.406 880.134 213.281 881.208 212.793C881.989 212.5 886.481 211.035 891.169 209.668C898.298 207.422 899.567 206.641 899.372 205.176C897.419 194.824 840.485 2.53906 838.727 0.390625C838.337 0 799.47 23.7305 752.204 53.125Z" fill="black"/>
<circle cx="263" cy="360" fill="#5CE50D"/>
<circle cx="706" cy="223" fill="#E52A0D"/>
<circle cx="162" cy="856" fill="#E52A0D"/>
<circle cx="470" cy="650" fill="#E52A0D"/>
</svg>
