<svg width="1000" height="1000" viewBox="0 0 1000 1000" fill="none" xmlns="http://www.w3.org/2000/svg">
<g clip-path="url(#clip0_1_2203)">
<rect width="1000" height="1000" />
<path d="M890.43 276.082C885.059 278.719 884.277 278.914 870.898 278.914C859.863 278.914 855.176 278.523 848.242 276.863C835.352 273.738 829.687 273.348 822.754 275.203C819.434 276.082 813.769 276.766 810.156 276.766C806.641 276.766 802.832 277.156 801.855 277.742C800.879 278.328 789.258 278.914 775.977 279.109C756.152 279.402 751.562 279.793 749.609 281.063C748.34 281.941 745.898 282.625 744.238 282.625C742.578 282.625 738.672 283.406 735.449 284.285C729.883 285.75 729.199 285.75 724.316 284.285C721.484 283.406 717.871 282.625 716.211 282.625C714.551 282.625 712.207 281.844 710.937 280.867C707.129 277.938 705.957 277.84 691.309 279.305C675.098 280.965 672.852 281.648 673.633 284.48C674.121 286.336 673.73 286.531 669.727 286.531C666.309 286.531 664.941 287.02 664.258 288.387C663.379 289.949 661.621 290.34 653.223 290.926C645.508 291.512 642.676 292.098 640.527 293.66C637.988 295.516 636.426 295.711 611.914 295.711L585.937 295.809L584.082 298.25C583.008 299.617 582.129 301.473 582.129 302.449C582.129 303.328 581.055 305.867 579.687 307.918C575.879 313.582 573.437 313.973 548.73 312.898C537.109 312.508 525.879 312.313 523.828 312.605C519.629 313.191 514.746 311.141 507.129 305.77C503.906 303.426 501.66 302.645 497.168 302.352C493.848 302.156 490.82 301.375 490.234 300.594C489.551 299.813 487.207 299.227 484.57 299.227C482.129 299.227 477.051 298.055 473.242 296.688C469.531 295.32 465.234 293.953 463.77 293.66C462.305 293.367 459.375 291.707 457.227 289.852C454.395 287.41 452.441 286.531 449.902 286.531C447.461 286.531 446.387 286.043 446.387 285.164C446.387 282.039 431.152 276.766 422.266 276.766C419.727 276.766 418.75 277.254 418.359 278.719C417.773 280.965 417.187 281.16 406.348 282.625C399.316 283.602 397.559 283.602 394.629 282.332L391.211 280.867L386.816 285.555L382.422 290.242H375.879C370.996 290.242 368.652 290.633 366.699 292C360.742 296.297 358.887 297.273 357.031 297.273C353.32 297.273 349.023 300.887 346.387 306.16C344.336 310.457 343.848 312.703 343.848 318.953C343.848 325.789 343.457 327.352 340.332 333.699C336.816 340.633 336.719 340.828 337.305 349.52C337.988 360.945 340.43 367.098 344.824 368.074C347.754 368.758 347.852 368.855 346.191 370.613C344.824 372.176 343.164 372.469 336.621 372.469H328.613L321.973 366.902L315.332 361.434L300.293 362.605C285.645 363.68 285.059 363.68 282.422 361.727C280.566 360.457 278.027 359.773 275.098 359.773C271.777 359.773 269.043 358.895 264.941 356.551C259.766 353.719 258.691 353.426 250.098 353.328C243.945 353.23 239.355 352.645 236.426 351.473C232.715 350.105 230.566 349.91 222.754 350.594C210.352 351.668 196.191 351.277 189.258 349.52C179.004 346.883 175.488 347.469 163.867 353.426C158.105 356.355 150.977 359.48 148.047 360.262C142.187 361.727 132.031 369.637 129.395 374.715C128.516 376.375 126.172 378.23 123.73 379.305C117.969 381.746 117.187 384.676 121.777 386.922C124.805 388.289 125.098 388.875 124.902 392.098C124.805 395.125 125.684 396.785 131.348 404.109C137.891 412.508 137.891 412.508 141.602 411.922C145.02 411.336 145.508 411.629 148.34 415.047C153.125 420.809 153.809 419.539 138.086 433.699C134.473 437.02 128.711 441.902 125.391 444.637C122.07 447.371 117.773 451.57 115.723 453.914C113.77 456.258 110.449 458.992 108.398 459.871C106.152 460.945 104.492 462.41 104.199 463.777C103.809 465.438 100.293 467.977 91.4062 473.055L79.1992 479.988V483.895C79.1992 486.043 79.8828 488.875 80.7617 490.145C82.1289 492.195 83.1055 492.586 87.4023 492.586C91.5039 492.586 93.6523 493.27 98.1445 496.004C101.27 497.859 104.199 499.422 104.59 499.422C104.98 499.422 108.203 497.859 111.816 496.004C119.629 491.902 125.879 491.414 129.004 494.539C130.664 496.199 130.957 497.762 130.957 505.77C130.957 511.531 131.348 515.047 131.934 515.047C132.52 515.047 134.766 514.168 136.914 513.094L140.82 511.043L143.555 513.094C147.266 515.633 149.316 515.535 153.613 512.605C158.008 509.676 158.398 509.676 165.625 512.117C168.75 513.191 172.266 514.07 173.535 514.07C175 514.07 177.051 515.633 179.492 518.465C181.445 520.906 183.789 522.859 184.668 522.859C187.598 522.859 189.551 517.684 189.551 509.969V502.742L192.969 501.082C196.387 499.422 196.387 499.422 196.387 501.766C196.387 504.012 199.121 507.234 200.977 507.234C201.562 507.234 202.246 505.477 202.637 503.426C203.125 500.203 203.906 499.129 207.617 496.785C212.695 493.66 213.086 491.707 209.473 487.41C206.738 484.188 207.422 482.82 212.109 482.82C213.477 482.82 215.137 482.234 215.82 481.551C216.895 480.574 216.992 481.258 216.504 485.457C215.918 489.852 216.113 490.633 217.773 491.609C219.043 492.293 219.922 492.293 220.312 491.609C221.484 489.656 223.633 490.633 224.219 493.367C224.512 494.93 226.074 497.078 227.539 498.25L230.371 500.301L229.004 506.453C228.32 509.871 227.734 513.387 227.637 514.266C227.637 517.391 230.859 518.074 241.699 517.195L252.051 516.414L252.637 519.734C253.027 521.492 253.027 524.227 252.637 525.789L252.051 528.719H258.691C262.891 528.719 267.578 527.938 271.484 526.668L277.637 524.617L285.547 526.766C295.508 529.598 297.656 530.672 301.66 534.871C304.785 538.094 304.98 538.191 309.766 537.313C313.965 536.531 315.82 536.824 322.559 539.07C330.273 541.609 330.566 541.609 333.691 539.949C335.937 538.777 337.305 538.582 338.574 539.266C339.453 539.754 341.406 539.852 342.773 539.559C346.191 538.582 350.098 539.656 350.488 541.707C350.781 543.172 349.805 543.367 342.676 543.367H334.473L329.004 548.25C325.488 551.375 322.461 555.379 320.312 559.48L316.992 565.926L313.379 565.34C308.398 564.461 307.422 565.34 309.277 568.855C310.059 570.516 310.547 572.078 310.254 572.371C309.961 572.762 306.934 573.25 303.613 573.543C297.754 574.129 297.168 573.934 291.602 570.613C286.035 567.195 275.488 564.559 275.488 566.609C275.488 567.977 279.395 571.688 280.859 571.688C282.52 571.688 282.812 573.738 281.348 575.203C280.859 575.691 280.078 578.523 279.687 581.453C279.004 585.848 278.516 586.922 276.855 587.117C274.219 587.508 268.652 582.918 268.652 580.379C268.652 574.715 257.52 582.918 255.273 590.242C254.687 592.098 252.832 596.688 251.27 600.496L248.437 607.332L243.652 607.43C240.723 607.625 237.402 608.504 235.254 609.676C230.469 612.508 219.824 613.582 217.969 611.336C216.895 610.066 214.844 609.773 208.008 609.773C200.391 609.773 199.219 609.578 198.34 607.82C197.559 606.453 196.289 605.867 193.652 605.867C191.699 605.77 188.965 605.184 187.598 604.402C183.691 602.156 172.266 602.547 166.016 605.086C159.375 607.723 158.301 609.09 158.301 614.754C158.301 618.855 158.691 619.637 162.988 623.641C165.527 625.984 168.359 628.426 169.336 628.914C171.387 630.086 173.34 637.41 172.559 640.73C172.07 642.586 171.484 642.781 168.555 642.293C166.309 641.902 164.355 642.293 162.695 643.367C159.863 645.223 159.668 644.344 161.719 639.363C163.965 633.992 163.574 630.77 160.254 628.035C158.008 626.082 157.324 624.715 157.324 621.98V618.367L147.168 618.758C137.109 619.051 137.012 619.148 133.105 622.664C130.957 624.617 128.32 626.473 127.246 626.766C125.879 627.254 124.707 629.109 123.633 632.332C121.68 637.996 115.82 643.465 114.258 640.926C113.77 640.145 113.379 638.387 113.379 637.02C113.379 633.895 112.402 633.504 104.297 632.625C99.5117 632.137 96.7773 632.527 91.2109 634.188L84.2773 636.238L80.4687 633.895C76.6601 631.453 64.9414 628.426 51.5625 626.277L44.043 625.105L39.0625 628.23C36.3281 629.891 33.3984 631.258 32.5195 631.258C29.5898 631.258 22.7539 634.578 21.4844 636.629C20.8008 637.703 19.9219 640.535 19.6289 642.879C19.2383 646.785 18.8477 647.273 15.5273 648.445C12.0117 649.617 11.9141 649.617 9.27734 645.809C7.8125 643.66 6.15234 642.098 5.56641 642.293C4.98047 642.488 4.19922 645.027 3.90625 647.957C3.61328 650.887 2.63672 654.793 1.66016 656.746L-0.0976562 660.262L3.02734 666.316C5.95703 672.176 6.05469 672.957 5.46875 679.5C4.49219 690.047 3.90625 689.852 33.9844 689.852C48.9258 689.852 60.2539 689.363 63.7695 688.68C68.75 687.605 69.8242 687.703 72.2656 689.168C76.1719 691.512 78.125 691.219 82.1289 687.996L85.4492 685.164L89.3555 687.117C92.3828 688.68 93.6523 688.875 95.5078 687.996C98.8281 686.531 107.617 686.727 109.863 688.387C111.23 689.461 111.523 690.535 111.035 693.172C110.742 695.125 110.156 698.25 109.863 700.203C109.375 703.133 109.668 704.109 112.012 706.551C115.332 709.969 119.727 710.359 123.535 707.332C124.902 706.258 130.273 703.621 135.449 701.57C140.625 699.52 145.801 696.883 146.973 695.809C150.098 692.879 163.574 686.922 167.187 686.922C169.727 686.922 171.387 688.094 176.367 693.367C182.324 699.52 182.715 699.715 188.281 700.301C196.68 701.082 199.316 703.914 199.316 711.922C199.316 719.148 201.074 721.492 204.297 718.563C206.055 717 206.738 716.902 210.742 717.977C214.648 719.051 215.332 719.051 216.504 717.488C217.187 716.512 217.871 715.438 217.871 714.949C217.969 712.898 223.242 714.852 231.836 720.125C237.012 723.348 242.383 725.984 243.555 725.984C246.191 725.984 249.512 722.859 250.977 718.953C252.344 715.34 257.129 712.117 265.723 708.895C272.363 706.551 274.805 706.16 292.578 705.477C303.32 704.988 317.773 703.914 324.707 703.035C337.109 701.57 337.402 701.473 346.387 696.199C354.199 691.609 356.152 690.828 360.449 690.828C363.184 690.828 366.406 691.512 367.676 692.293C369.824 693.66 370.02 693.563 373.047 689.852C375.293 687.02 376.953 685.945 378.809 685.945C380.273 685.945 383.301 685.066 385.449 684.09C388.574 682.625 389.746 681.551 390.234 679.207C390.625 677.547 391.992 674.91 393.262 673.348L395.605 670.516L394.043 659.578L392.578 648.641L394.824 646.199C396.094 644.832 399.805 641.902 403.223 639.754C409.668 635.457 411.328 632.918 414.844 621.98C416.895 615.73 418.652 613.68 422.266 613.68C424.023 613.68 426.953 612.313 429.785 610.262C435.254 606.258 441.699 604.988 447.266 606.844C450.586 607.918 451.562 607.82 455.762 605.965C458.398 604.793 461.621 602.742 462.988 601.57C464.355 600.301 467.676 598.152 470.312 596.785C473.047 595.32 476.27 592.684 477.637 590.828C479.297 588.484 481.836 586.727 485.937 585.164C490.43 583.406 491.895 582.332 492.09 580.672C492.578 577.254 496.387 575.984 502.441 577.254C508.496 578.523 516.211 577.84 517.871 575.887C518.848 574.715 518.555 573.934 516.016 571.785C513.281 569.637 508.887 560.945 508.887 558.016C508.887 556.258 513.184 557.039 517.578 559.48L521.875 562.02L533.105 558.895C547.754 554.793 562.207 547.176 565.137 541.902C568.848 535.359 571.387 533.602 575.586 534.285C578.613 534.773 579.394 535.359 579.883 537.508C580.176 539.07 581.641 541.805 583.301 543.758C585.937 546.98 586.621 547.273 591.504 547.273C596.484 547.273 596.777 547.469 596.777 549.617C596.777 550.984 595.898 552.645 594.727 553.426C592.773 554.793 592.773 554.988 594.336 560.359C595.215 563.387 596.191 565.828 596.387 565.828C596.68 565.828 598.633 564.949 600.781 563.777C604.492 561.922 604.883 561.922 606.543 563.387C608.887 565.535 612.988 564.363 615.527 560.848C617.285 558.504 618.359 558.016 621.582 558.016C624.512 558.016 625.977 557.527 626.855 556.063C627.539 554.891 628.613 554.402 629.492 554.695C631.348 555.477 638.769 552.742 643.848 549.52C645.898 548.348 647.754 547.273 648.047 547.273C648.242 547.273 649.219 548.641 650 550.301L651.562 553.23L654.883 550.789C656.641 549.422 659.375 548.25 660.937 548.25C663.086 548.152 665.332 546.395 671.973 539.266L680.273 530.379L679.98 521.98C679.785 515.438 679.297 512.996 677.832 510.945C676.758 509.48 675.879 508.016 675.879 507.625C675.879 507.234 677.832 504.598 680.273 501.766C682.715 499.031 684.668 495.711 684.668 494.539C684.668 490.73 687.793 487.02 692.871 484.578C695.508 483.406 699.023 481.258 700.488 480.086C702.93 478.035 703.613 477.84 706.348 478.816C709.082 479.793 709.668 479.695 712.012 477.449C714.258 475.301 715.332 475.008 722.363 475.008C727.148 475.008 730.664 474.52 731.348 473.836C732.031 473.152 735.059 472.566 738.184 472.469C741.211 472.273 745.605 471.59 747.852 470.711C750.684 469.734 754.004 469.441 759.082 469.832C765.527 470.32 766.894 470.125 773.34 467.293C777.441 465.633 782.129 464.363 784.082 464.363C786.035 464.461 790.625 463.289 794.336 461.922C799.707 459.871 802.637 459.383 809.961 459.383C823.242 459.383 825.195 458.016 832.324 443.855C835.449 437.801 838.867 430.184 840.039 427.059C841.504 423.152 842.676 421.297 843.75 421.297C844.629 421.297 847.461 419.148 850.098 416.512C853.809 412.801 855.762 411.629 858.887 411.141C861.914 410.652 863.574 409.676 865.625 407.137C867.09 405.281 871.68 401.18 875.879 398.055C879.98 394.832 887.695 388.289 892.871 383.504C902.246 374.715 902.344 374.617 908.105 374.227C913.379 373.836 914.355 373.348 919.141 369.246C924.219 364.754 928.809 363.289 930.273 365.633C930.566 366.121 932.617 367 934.863 367.684C942.578 369.734 950.293 364.07 955.371 352.84C956.25 350.691 958.105 348.543 959.473 347.957C960.742 347.273 962.402 345.516 963.086 343.953C965.039 339.266 970.117 336.629 979.98 335.359C986.816 334.48 989.355 333.699 991.602 331.844C993.164 330.477 995.703 328.816 997.266 327.938C999.512 326.766 1000.1 325.887 1000.1 323.152C1000.1 321.395 999.805 319.637 999.316 319.344C998.926 319.148 996.68 319.246 994.238 319.734L989.844 320.516L982.324 313.289C976.269 307.527 974.121 306.063 971.777 306.063C970.117 306.063 967.48 305.379 965.918 304.598C961.914 302.547 943.945 303.133 940.43 305.379C939.062 306.258 936.035 307.332 933.594 307.625C930.078 308.113 928.516 307.723 924.707 305.574C922.07 304.109 920.019 302.645 920.019 302.254C920.019 300.203 912.012 292.586 909.277 292C907.617 291.707 904.59 290.047 902.441 288.387C899.219 285.848 898.633 284.578 898.047 280.281C897.656 277.547 897.07 274.813 896.68 274.227C896.289 273.641 894.141 274.227 890.43 276.082Z" fill="black"/>
<circle cx="500" cy="334" fill="#5CE50D"/>
<circle cx="850" cy="334" fill="#E52A0D"/>
<circle cx="290" cy="645" fill="#E52A0D"/>
<circle cx="189" cy="430" fill="#E52A0D"/>
</g>
<defs>
<clipPath id="clip0_1_2203">
<rect width="1000" height="1000" />
</clipPath>
</defs>
</svg>
