<svg width="1000" height="1000" viewBox="0 0 1000 1000" fill="none" xmlns="http://www.w3.org/2000/svg">
<rect width="1000" height="1000" />
<path d="M976.212 87.2427C975.431 89.0982 974.455 90.6607 974.064 90.6607C973.673 90.6607 971.33 92.5162 968.888 94.8599C964.884 98.5709 964.396 99.5474 963.224 105.797L962.052 112.633L956.193 112.34C950.626 111.95 950.236 111.754 946.818 107.653C943.888 104.235 942.521 103.356 940.08 103.356C935.294 103.356 932.169 104.919 931.486 107.555C931.193 108.922 930.021 110.192 928.947 110.485C927.482 110.876 926.994 111.754 926.994 114.391C926.994 116.344 926.603 118.981 926.017 120.348C925.236 122.497 924.455 122.887 921.427 122.887C917.912 122.887 917.619 123.18 915.275 127.965C913.224 132.36 912.052 133.532 907.462 135.778C900.529 139.196 898.576 139.098 894.767 135.583C891.154 132.165 885.978 131.481 885.978 134.313C885.978 135.29 885.001 138.122 883.83 140.563C882.169 143.883 880.802 145.348 878.654 146.032C876.115 146.813 875.724 147.399 875.724 150.231V153.649H868.205C863.517 153.649 860.294 154.137 859.513 154.821C858.83 155.505 857.56 156.09 856.681 156.09C855.9 156.09 854.142 156.774 852.97 157.653C850.822 159.118 850.529 159.118 848.478 157.165C847.306 155.993 845.841 155.114 845.255 155.114C844.767 155.114 843.498 153.649 842.619 151.891C841.642 150.231 839.396 147.692 837.638 146.325C835.587 144.762 834.123 142.712 833.732 140.758C833.146 137.34 829.044 133.434 826.896 134.215C824.845 134.997 813.517 130.7 810.587 127.965C809.123 126.598 807.853 124.45 807.658 122.985C807.462 121.13 806.779 120.348 804.923 120.153C799.064 119.469 798.087 118.981 798.087 116.442C798.087 113.903 790.861 104.333 789.005 104.333C788.517 104.333 785.978 105.993 783.537 107.946C781.095 109.899 778.947 111.657 778.751 111.657C778.654 111.754 778.947 113.024 779.533 114.489C780.412 116.833 780.314 117.028 778.654 116.051C777.58 115.563 775.626 115.075 774.259 115.075C772.013 115.075 771.72 115.465 771.72 118.2C771.72 119.958 771.037 123.278 770.158 125.524C768.79 129.04 768.107 129.723 765.861 129.723C764.396 129.723 761.271 130.407 758.927 131.188C754.923 132.653 754.63 132.653 753.165 130.797C752.384 129.723 749.845 128.454 747.697 127.868C745.451 127.282 742.521 125.915 741.056 124.743L738.517 122.79V126.598C738.517 137.047 724.259 154.821 721.525 147.79C720.939 146.13 716.935 145.837 715.372 147.399C714.591 148.18 714.103 148.18 713.712 147.399C713.322 146.813 711.564 146.325 709.708 146.325C707.072 146.325 706.388 146.715 706.095 148.473C705.9 149.84 704.826 150.817 702.872 151.403C700.529 151.989 699.552 151.696 697.404 149.645C695.451 147.79 694.181 147.301 692.619 147.79C691.251 148.18 690.763 148.962 691.056 149.938C691.349 150.719 691.642 152.38 691.642 153.551C691.642 154.919 692.521 156.188 693.888 156.774C695.841 157.751 696.33 158.825 696.915 164.001C697.404 168.786 698.283 171.422 700.919 175.329C704.24 180.309 704.533 180.505 708.732 180.505H713.126V184.313C713.126 192.223 717.033 197.985 726.408 203.551C728.165 204.626 728.165 204.821 726.115 209.118C724.259 212.926 723.38 213.805 719.767 214.782C717.423 215.368 714.396 216.442 712.931 217.223C710.294 218.59 710.197 218.981 710.197 226.012V233.434L703.654 232.751C699.943 232.36 695.939 231.481 694.572 230.797C692.912 230.016 689.396 229.723 683.634 230.114L675.04 230.505L667.521 224.059C663.322 220.544 658.83 217.321 657.462 216.93C656.095 216.637 653.068 214.977 650.626 213.219C641.837 206.872 629.728 201.989 622.794 201.989C619.767 201.989 618.205 201.403 616.447 199.547C614.396 197.399 613.322 197.106 607.267 197.106C592.912 197.008 581.29 194.762 570.255 189.782C564.689 187.34 558.927 184.02 557.658 182.653C555.412 180.114 549.65 168.2 545.548 157.555C543.79 152.965 543.4 152.672 540.275 152.672C536.955 152.672 536.857 152.77 535.685 157.946C535.001 160.973 532.951 165.563 530.802 168.688L526.994 174.157H521.037C515.177 174.157 514.787 173.962 510.587 169.86C507.56 166.93 505.705 164.001 504.435 159.997C502.677 154.43 502.677 154.137 504.337 150.915L506.095 147.497L500.724 144.469C497.794 142.809 494.181 141.442 492.716 141.442C485.294 141.442 474.259 139.098 471.915 137.047C468.595 134.02 465.665 133.239 464.201 134.997C461.857 137.731 456.583 138.805 451.798 137.536C448.283 136.559 446.915 136.559 445.06 137.536C443.79 138.219 441.642 138.512 440.177 138.317C437.15 137.731 428.556 142.028 425.138 145.934C422.794 148.669 423.283 148.669 411.076 146.715C408.048 146.227 407.169 146.52 405.705 148.278L403.849 150.524L400.919 148.376C397.404 145.739 389.787 144.469 384.22 145.641C379.337 146.618 354.142 146.13 351.505 144.958C350.138 144.274 349.552 144.567 349.162 146.227C348.478 148.962 343.498 149.059 342.033 146.325C340.568 143.493 336.955 143.883 334.025 147.204C331.193 150.329 323.576 151.891 319.181 150.231C314.494 148.473 307.169 148.962 305.607 151.11C304.435 152.965 304.044 152.965 299.943 151.598C297.599 150.817 294.279 149.547 292.521 148.766C288.517 146.813 285.392 146.911 283.732 148.962C282.462 150.622 282.365 150.622 280.9 148.473C279.728 146.911 278.361 146.325 275.724 146.325C273.771 146.325 271.232 145.739 270.158 144.958C269.083 144.176 266.642 143.395 264.787 143.2C261.271 142.907 260.88 141.93 262.443 136.266L263.126 133.63H257.072C251.798 133.63 250.626 133.922 248.673 136.071C245.939 139.001 243.498 139.196 239.298 136.559C235.978 134.606 231.486 134.118 225.822 135.192C223.283 135.778 222.306 136.657 220.939 140.075C219.962 142.321 218.205 144.665 217.13 145.251C214.591 146.715 214.396 146.618 213.81 144.372C213.029 141.54 208.634 140.758 205.998 143.2C202.384 146.422 199.845 147.301 193.498 147.301C190.177 147.301 183.048 148.18 177.58 149.157C172.111 150.231 164.884 151.598 161.369 152.184C151.994 153.747 143.595 158.141 138.712 164.098C130.998 173.376 129.435 174.645 126.212 174.645C124.455 174.645 121.818 175.719 119.767 177.184C117.033 179.333 116.447 180.407 116.447 183.434C116.447 185.778 115.763 187.633 114.494 188.805C113.419 189.782 112.541 191.637 112.541 192.907C112.541 194.274 111.662 196.422 110.587 197.79C109.123 199.743 108.634 201.794 108.634 206.481C108.634 212.633 108.634 212.731 104.923 214.587C101.603 216.344 91.2514 226.403 81.4858 237.34C77.4819 241.93 77.3843 242.126 77.3843 249.255V256.579L72.9897 259.606C70.5483 261.266 66.0561 263.805 62.9311 265.172C59.9038 266.54 54.0444 269.958 49.9429 272.594L42.521 277.477L43.5952 280.895C44.3765 283.727 45.5483 284.704 50.0405 286.852L55.4116 289.294L51.1147 290.563C48.771 291.247 44.8647 293.395 42.4233 295.446L37.9311 299.157H28.5561C23.478 299.157 16.5444 298.766 13.2241 298.278C7.26708 297.399 5.70458 297.887 0.235832 302.38C-0.0571364 302.575 0.528801 303.161 1.50536 303.649C5.41161 305.895 6.38818 310.094 5.70458 322.594C5.2163 333.141 5.41161 335.778 8.04833 349.45C9.70849 357.751 11.271 367.907 11.6616 371.911C12.2476 379.723 14.689 384.704 22.5991 394.372C24.5522 396.813 26.9936 400.036 27.9702 401.696C28.9468 403.258 30.8999 405.797 32.2671 407.262L34.7085 409.899L32.0718 411.071C29.8257 412.145 29.5327 412.829 29.5327 417.516C29.5327 420.446 30.2163 424.157 31.0952 425.817C32.1694 427.868 32.4624 430.016 32.0718 432.555C31.6811 435.094 32.0718 437.438 33.439 440.465C35.978 446.13 35.978 453.063 33.439 455.407C31.8765 456.872 31.4858 458.434 31.4858 464.196C31.4858 471.813 31.9741 472.399 38.0288 472.497C39.2983 472.497 42.9116 474.938 46.6225 478.258C50.1382 481.481 53.9468 484.411 55.021 484.704C56.0952 485.094 57.9507 487.438 59.2202 489.88C60.5874 492.419 64.7866 498.083 68.7905 502.477C79.1421 514.196 81.0952 516.735 81.7788 519.665C82.6577 523.083 81.6811 527.184 79.9233 527.184C77.6772 527.184 75.4311 530.602 75.4311 534.118C75.4311 535.973 74.5522 539.782 73.478 542.614C72.4038 545.446 71.5249 549.45 71.5249 551.501C71.5249 553.649 71.0366 557.555 70.353 560.29C68.7905 567.223 70.4507 573.766 75.9194 581.774C79.8257 587.536 80.4116 589.196 81.3882 597.008C82.4624 604.919 82.9507 606.286 86.3686 610.387C89.103 613.708 90.0796 615.856 90.0796 618.395C90.0796 624.743 93.0093 630.797 99.9429 639.098L106.681 647.008V659.313C106.681 670.348 106.876 671.52 108.537 672.008C109.806 672.301 110.49 673.669 110.978 676.696C111.759 681.969 114.689 690.661 116.349 692.516C116.935 693.297 118.595 694.274 119.865 694.567C121.427 694.958 122.306 695.934 122.306 697.106C122.306 698.083 123.38 700.622 124.748 702.575C128.068 707.555 127.873 709.411 123.283 712.536C121.134 714.001 119.181 715.954 118.888 716.833C118.595 717.712 118.986 721.715 119.767 725.622C120.646 729.821 121.037 735.192 120.744 738.61C120.158 744.372 120.255 744.469 123.283 746.227C124.943 747.106 126.896 747.887 127.58 747.887C128.947 747.887 131.974 742.126 133.048 737.34C133.83 734.215 132.462 729.137 130.509 727.087C129.24 725.817 129.044 714.489 130.216 713.024C131.583 711.462 135.197 711.364 136.759 712.926C137.443 713.61 137.931 715.27 137.931 716.735C137.931 718.102 138.615 721.227 139.396 723.473C141.251 728.844 141.251 735.094 139.396 737.145C138.517 738.122 136.564 741.833 135.001 745.544L132.169 752.282L134.708 752.77C137.931 753.356 142.716 760.876 144.279 767.809C145.353 772.497 145.255 772.985 142.423 777.477C139.494 782.165 139.494 782.36 141.154 785.192C143.107 788.512 143.4 797.106 141.74 802.575C140.568 806.481 141.642 809.606 146.33 815.856C148.283 818.493 149.357 818.981 154.533 819.469C160.392 820.153 160.587 820.055 165.666 816.247C170.06 812.926 171.525 812.34 175.529 812.34C180.412 812.34 188.712 816.149 188.712 818.395C188.712 819.079 190.373 819.176 193.888 818.786C200.822 817.907 205.509 816.247 205.021 814.88C204.826 814.294 204.044 811.559 203.361 808.922C202.287 804.626 202.287 803.551 203.751 800.915C204.63 799.157 205.314 796.813 205.314 795.641C205.314 794.469 206.193 792.126 207.169 790.465C208.146 788.805 209.318 786.071 209.708 784.313C210.001 782.653 210.978 780.993 211.759 780.7C212.54 780.407 213.126 779.04 213.126 777.672C213.126 775.524 212.833 775.231 210.49 775.817C208.048 776.501 207.951 776.403 209.415 774.45C211.857 770.837 219.376 764.782 222.111 764.196C226.603 763.024 229.435 764.88 232.658 771.325C235.587 777.087 235.685 777.184 239.787 777.184C245.646 777.184 248.771 780.407 247.99 785.68C247.208 790.563 249.455 800.622 251.994 804.333C254.337 807.555 258.048 818.395 258.048 821.911C258.048 823.18 256.486 826.012 254.63 828.258C251.115 832.36 249.748 836.755 250.431 841.637L250.919 844.567H243.986C238.615 844.567 235.978 845.153 232.169 847.008C225.919 850.036 224.748 851.11 222.697 855.505C221.72 857.458 219.376 860.973 217.326 863.219C214.591 866.344 214.005 867.419 215.08 867.809C215.861 868.102 218.498 870.251 221.037 872.594C223.478 874.84 226.017 876.794 226.603 876.794C227.091 876.794 228.458 878.356 229.63 880.309L231.681 883.727L234.611 882.067C236.173 881.09 237.638 880.505 237.931 880.797C238.224 880.993 239.201 884.508 240.275 888.512L242.13 895.837L247.404 896.618C250.333 897.106 253.751 897.692 255.119 897.887C256.388 898.18 261.759 902.672 267.033 907.751C277.677 918.2 277.287 918.102 284.22 911.95C287.248 909.118 287.345 908.922 287.345 900.524C287.345 889.391 286.955 888.122 282.755 886.169C279.533 884.606 279.435 884.411 280.705 882.36C286.466 873.571 287.54 870.739 287.052 866.93L286.564 863.122H290.373C293.888 863.122 294.181 863.317 295.158 866.833C296.427 871.618 299.65 874.645 305.119 876.305C307.56 876.989 312.833 878.942 316.935 880.7C324.748 883.922 325.333 884.02 339.201 882.067C341.837 881.774 344.572 881.969 345.744 882.555C347.306 883.337 348.673 883.141 351.994 881.676C354.24 880.602 357.365 879.723 358.732 879.723C362.052 879.723 366.154 884.118 366.935 888.805C367.326 890.856 368.302 893.2 369.083 893.883C370.939 895.837 375.236 895.739 377.97 893.786C380.119 892.321 380.412 892.419 384.318 896.325C390.373 902.477 398.38 907.555 399.845 906.286C401.505 905.016 405.119 906.383 406.681 909.02C408.341 911.657 409.025 911.462 410.197 908.044C410.88 906.188 412.54 904.626 414.982 903.454C417.814 902.087 418.986 900.817 419.962 897.79C420.646 895.641 422.013 893.2 422.99 892.419C423.966 891.637 425.04 890.172 425.431 889.098C425.919 887.536 426.798 887.34 430.9 887.731C434.318 888.122 436.076 887.829 436.857 886.95C438.322 885.192 442.912 885.29 448.869 887.047C452.091 888.024 457.951 888.512 466.642 888.512H479.63L482.951 885.192C484.708 883.337 487.931 878.844 489.982 875.231C492.912 870.251 495.06 867.907 499.259 865.27C502.189 863.415 508.634 859.118 513.615 855.895L522.599 849.938L522.697 845.348C522.697 841.344 522.404 840.563 519.865 839.098C517.423 837.633 517.033 836.657 516.447 831.676C516.154 828.551 514.982 824.255 513.908 822.106C511.173 816.637 511.466 814.977 515.861 810.973C520.158 807.165 521.525 806.676 522.306 808.922C522.892 810.485 527.091 811.755 534.611 812.829C537.052 813.122 539.689 814.098 540.275 814.782C540.958 815.563 542.423 816.247 543.595 816.247C548.087 816.344 559.611 819.274 564.005 821.618C568.302 823.766 568.986 823.864 571.427 822.692C575.626 820.446 583.341 809.899 583.927 805.505C584.513 801.208 584.806 801.012 587.736 802.965C588.81 803.747 590.763 804.333 592.033 804.333C593.4 804.43 596.72 804.723 599.357 805.016C603.263 805.602 605.997 805.114 613.517 802.77C618.595 801.11 624.747 799.255 627.189 798.669C629.63 798.083 633.83 796.032 636.466 794.274C639.201 792.419 643.205 790.758 645.744 790.368C648.185 789.977 650.822 789.489 651.798 789.294C652.97 788.903 653.849 790.075 655.119 793.493C656.095 796.032 658.244 800.133 659.904 802.575C665.177 809.997 666.447 813.024 666.154 818.493C665.861 823.473 665.861 823.473 669.669 825.231C671.818 826.11 675.626 826.989 678.165 826.989H682.755L682.169 823.669C681.779 820.934 681.974 820.251 683.732 819.665C685.099 819.274 685.783 818.2 685.783 816.442C685.783 814.001 685.978 814.001 690.958 818.786C693.693 821.52 698.478 825.817 701.505 828.258L706.974 832.848H716.154C722.306 832.946 726.115 833.337 727.775 834.313C731.486 836.462 731.681 836.169 731.681 830.602C731.681 825.231 730.314 822.204 724.552 814.977C722.501 812.34 721.915 810.973 722.697 810.192C723.38 809.508 723.478 807.165 723.185 804.235L722.599 799.352L728.165 799.938C733.146 800.426 733.732 800.329 733.146 798.864C732.755 797.985 732.072 794.469 731.681 791.051C730.997 786.071 730.216 784.118 727.287 780.602C725.333 778.161 723.283 776.208 722.794 776.208C722.208 776.208 720.158 777.282 718.205 778.649C714.884 780.895 714.494 780.993 713.81 779.43C713.419 778.454 711.271 776.696 709.22 775.426C707.072 774.255 703.751 771.911 701.896 770.251C699.162 767.809 698.478 766.54 698.478 763.512C698.478 760.192 698.185 759.801 695.451 759.215C693.79 758.922 690.861 758.63 689.005 758.63C686.857 758.63 684.415 757.653 682.267 756.09C679.435 753.942 678.947 752.868 678.947 749.645C678.947 744.762 675.822 740.075 672.599 740.075C669.669 740.075 669.279 738.805 670.744 733.337C671.33 730.895 671.622 726.403 671.427 723.473C671.037 719.274 671.232 717.712 672.501 716.735C674.455 715.075 674.552 710.485 672.697 707.555C671.818 706.188 671.33 702.672 671.33 698.278C671.33 692.126 671.037 690.758 669.083 688.708C667.912 687.438 666.154 686.364 665.177 686.364C662.736 686.364 659.611 683.239 659.318 680.505C659.122 678.649 660.392 676.598 664.689 672.301L670.353 666.54L674.552 668.59C676.798 669.665 680.607 670.837 683.048 671.227C687.052 671.813 687.443 671.715 688.517 669.274C689.201 667.907 689.689 665.954 689.689 664.88C689.689 663.903 690.568 662.829 691.642 662.438C694.767 661.462 697.501 656.676 697.501 652.282C697.501 649.255 697.99 648.083 699.552 647.204C702.58 645.641 708.146 646.813 711.271 649.84C714.787 653.161 722.501 654.821 724.845 652.672C726.701 650.915 730.314 650.719 731.29 652.282C731.583 652.868 734.708 654.626 738.126 656.188C741.544 657.653 744.376 659.313 744.376 659.899C744.376 661.364 750.724 664.88 753.556 664.88C755.021 664.88 757.56 664.196 759.22 663.317C761.857 661.95 763.029 661.852 767.716 662.926C770.744 663.61 774.064 664.977 775.236 665.954C777.189 667.809 777.287 667.809 779.435 665.465C781.876 662.926 781.779 662.633 777.482 657.067C773.576 651.989 773.38 649.45 776.115 642.516C777.677 638.903 778.361 635.583 777.97 634.215C777.58 632.458 778.068 631.481 779.728 630.114L782.072 628.356L777.97 617.809C775.724 612.047 774.357 607.262 774.943 607.262C775.529 607.262 776.798 606.481 777.872 605.602C779.435 604.137 779.826 604.04 780.607 605.309C783.244 609.801 783.048 609.704 788.419 608.337C792.228 607.36 793.693 607.262 793.986 608.141C794.181 608.825 798.087 609.215 805.9 609.215C815.373 609.215 817.521 608.922 818.009 607.751C818.498 606.383 818.888 606.383 821.427 607.751C827.091 610.583 829.533 609.411 833.537 601.891C835.001 599.157 838.322 594.665 840.861 591.735L845.548 586.462L852.482 588.122C861.662 590.172 866.251 590.075 872.306 587.731C875.041 586.657 878.751 585.778 880.607 585.778C883.244 585.778 884.22 585.192 885.88 582.555C886.955 580.797 890.08 577.184 892.814 574.45C895.451 571.813 897.697 569.079 897.697 568.395C897.697 567.809 898.38 567.223 899.162 567.223C899.943 567.223 900.626 566.344 900.626 565.368C900.626 564.294 902.091 562.633 904.044 561.364C905.9 560.192 908.244 558.239 909.122 557.067C912.15 553.258 915.665 551.598 929.533 547.79C949.259 542.223 950.138 542.126 954.435 546.032C956.29 547.692 958.927 551.012 960.197 553.356L962.54 557.555L965.275 554.333C966.74 552.575 968.009 549.938 968.009 548.571C968.009 546.422 968.79 545.739 972.599 544.274C977.677 542.321 985.001 536.071 987.15 531.969C987.931 530.407 988.517 527.282 988.517 524.938C988.517 522.594 989.396 518.102 990.568 514.88C991.642 511.755 992.716 506.481 993.009 503.258C993.205 500.036 993.595 494.567 993.888 491.051C994.376 485.973 994.181 483.825 992.521 480.407C990.861 476.598 990.763 475.719 991.935 473.473C993.009 471.422 993.009 470.544 991.935 468.59C991.251 467.223 989.884 461.266 988.908 455.407C987.247 445.251 986.955 444.274 981.779 436.462L976.31 428.258L976.408 414.489L976.505 400.719L982.072 385.192C985.197 376.598 989.396 366.149 991.544 361.95C993.595 357.751 995.841 351.989 996.427 349.255C997.013 346.422 998.087 342.907 998.869 341.54C999.845 339.684 1000.04 335.387 999.65 324.45L999.162 309.899L994.572 300.231C992.13 294.958 989.787 288.219 989.396 285.387C989.005 282.555 987.052 276.794 984.904 272.594C981.583 265.856 980.607 264.587 975.822 261.852C972.892 260.094 969.865 258.337 969.279 257.946C968.302 257.36 968.302 255.602 968.986 250.817C969.767 245.641 969.572 244.274 968.4 242.809C966.935 241.344 967.033 240.954 968.4 238.903C970.451 236.071 970.451 231.676 968.4 230.895C967.228 230.505 966.935 229.235 967.13 225.915C967.521 219.958 965.08 217.516 958.048 216.833C955.216 216.54 951.994 215.661 950.822 214.782C949.064 213.512 948.869 212.536 949.259 205.895C949.65 198.766 949.552 198.278 947.208 196.422C943.986 193.883 944.376 192.126 950.529 182.262C957.072 171.813 960.099 159.801 956.779 157.067C954.533 155.212 955.021 153.161 958.732 147.887C960.587 145.251 962.54 141.735 963.126 140.075C964.005 137.34 964.591 136.95 966.837 137.243C970.451 137.731 971.232 136.95 973.771 130.212C978.068 118.786 979.435 112.633 978.947 106.676C978.654 101.696 978.849 100.622 980.607 99.0591C982.267 97.4966 982.658 96.0318 982.658 90.4654C982.658 84.0201 982.56 83.8248 980.119 83.8248C978.263 83.8248 977.384 84.606 976.212 87.2427Z" fill="black"/>
<circle cx="500" cy="711" fill="#5CE50D"/>
<circle cx="135" cy="391" fill="#E52A0D"/>
<circle cx="208" cy="771" fill="#E52A0D"/>
<circle cx="743" cy="331" fill="#E52A0D"/>
</svg>
