<svg width="1000" height="1000" viewBox="0 0 1000 1000" fill="none" xmlns="http://www.w3.org/2000/svg">
<rect width="1000" height="1000" />
<path d="M112.271 125.772C110.076 127.51 107.789 128.241 103.674 128.699C98.9182 129.064 97.6378 129.613 95.8087 131.808C94.4369 133.454 92.7907 134.369 91.236 134.369C89.8641 134.369 85.2914 135.649 81.0845 137.295C74.0425 140.13 73.2194 140.679 69.8356 145.709C63.7996 154.489 61.7876 160.525 61.7876 169.853C61.7876 176.804 61.5132 178.176 59.9585 179.639C57.7636 181.651 57.6721 183.206 59.5927 188.418C61.4217 193.54 65.4458 219.147 65.4458 225.915C65.4458 229.116 64.6227 233.048 63.2508 236.524C62.0619 239.542 60.5987 245.486 59.9585 249.693C58.9525 256.369 59.0439 258.015 60.3243 262.314C62.4277 269.539 62.2448 276.215 59.5927 281.428C54.3797 291.945 54.1054 293.774 55.2943 315.632C55.843 326.606 56.5746 338.13 56.9405 341.331L57.3977 347.092L51.9105 354.043C48.3437 358.524 43.5881 366.389 38.9239 375.9C30.5101 392.637 30.3272 393.917 35.3572 402.514C37.1863 405.623 38.0094 408.184 38.0094 411.019C38.0094 419.067 44.4112 428.578 53.2823 433.883C55.7516 435.346 56.5746 436.809 58.5867 443.394C63.7996 460.679 65.3543 463.606 71.5732 468.27C74.6827 470.556 79.987 473.94 83.4623 475.678C90.7787 479.519 96.9976 480.342 119.861 480.433L134.494 480.525L139.25 483.726C142.359 485.829 144.645 488.298 145.926 490.95C147.023 493.145 150.681 498.998 154.248 503.846L160.559 512.808L166.503 513.997C172.173 515.094 172.631 515.369 175.191 519.484C176.746 521.771 181.959 527.167 186.898 531.282L195.769 538.781L201.347 538.415C207.749 538.05 215.431 534.574 216.803 531.556C217.352 530.185 218.815 529.361 221.193 528.996C225.309 528.264 226.406 526.252 226.406 519.118C226.406 513.54 226.68 513.082 231.07 510.43C232.808 509.333 235.094 507.595 236.009 506.589C237.655 504.76 237.655 504.669 235.734 502.657C234.728 501.559 233.631 499.181 233.265 497.444C232.808 494.883 231.802 493.603 228.692 491.682C225.583 489.67 224.668 488.481 224.12 485.829C223.205 480.89 220.644 476.409 216.437 472.294C213.602 469.55 212.688 467.995 212.688 465.8C212.688 463.514 211.956 462.234 209.578 460.222C206.194 457.478 203.451 451.991 198.421 437.998C195.494 429.767 195.311 428.67 195.311 416.964C195.311 398.033 191.745 387.607 181.41 375.9L177.02 370.87V362.914V354.957L173.82 353.037C171.442 351.665 170.619 350.568 170.619 348.83C170.619 346.178 166.595 341.879 161.473 339.227C158.729 337.855 157.906 336.666 156.169 331.271C155.071 327.795 154.157 322.674 154.157 319.93C154.157 316.638 153.517 313.986 152.419 312.065C150.773 309.413 150.681 307.95 151.139 294.231C151.687 279.507 151.779 279.233 154.797 273.746C156.717 270.27 157.998 266.338 158.272 263.686C158.455 261.216 159.095 253.809 159.736 247.315C160.742 235.883 160.65 235.243 158.729 230.396C155.712 222.714 155.163 207.99 157.724 200.765C158.821 197.747 159.644 193.723 159.644 191.711C159.644 188.967 160.467 186.772 162.754 183.388L165.863 178.724L165.406 167.567L164.857 156.501L159.461 149.825C153.517 142.6 152.328 140.313 152.328 136.198C152.328 132.723 149.858 131.168 141.719 129.247C138.244 128.516 132.299 126.869 128.458 125.589C119.495 122.754 116.112 122.754 112.271 125.772Z" fill="black"/>
<path d="M908.567 630.691C907.286 630.873 903.719 633.251 900.519 635.995C897.409 638.739 894.3 641.025 893.751 641.025C893.111 641.025 891.099 641.482 889.178 642.031C882.959 643.769 881.496 652.365 887.166 654.926C888.447 655.475 889.453 656.755 889.453 657.67C889.453 658.584 890.093 660.871 890.824 662.7C892.196 666.083 892.196 666.083 889.087 669.284C885.794 672.668 883.782 677.149 882.685 683.551C882.319 685.563 881.405 688.764 880.581 690.593C879.21 693.977 878.935 694.069 874.545 694.069C870.156 694.069 869.698 694.343 863.479 700.196C859.638 703.854 854.425 707.695 850.676 709.616C844.731 712.634 843.634 712.817 834.305 713.091C826.44 713.366 823.697 713.823 821.41 715.195C819.764 716.201 816.838 716.932 814.46 716.932C812.173 717.024 809.338 717.572 808.058 718.304C806.778 719.036 803.668 719.584 801.107 719.676C796.809 719.676 796.077 719.402 792.602 715.926L788.852 712.085L782.176 712.634C778.609 712.908 772.391 712.542 768.458 711.994C762.331 710.988 760.867 710.439 757.941 707.604C756.112 705.866 752.545 703.031 750.076 701.385C746.052 698.641 745.229 698.458 740.839 699.007C738.187 699.282 735.351 699.83 734.528 700.105C732.059 701.019 732.882 704.129 736.083 705.775C737.638 706.598 741.205 709.524 743.857 712.085C746.509 714.737 749.161 716.932 749.71 716.932C750.35 716.932 752.636 718.487 754.923 720.408C763.062 727.175 770.927 731.839 789.584 740.893L808.515 750.039L822.691 749.673L836.866 749.216L846.469 754.612C857.626 760.922 864.12 766.775 867.046 773.177C869.515 778.664 875.003 783.969 879.575 785.523C883.142 786.621 889.27 792.84 893.751 799.79C896.586 804.271 903.719 808.113 914.054 810.765C920.364 812.411 921.096 812.868 925.577 817.99C930.881 824.209 935.18 833.72 935.18 839.573C935.18 844.694 937.192 847.712 942.588 850.639C948.898 854.206 954.568 854.114 959.598 850.456C962.799 848.078 963.439 847.072 964.354 842.499C965.634 835.732 964.72 806.832 963.074 801.071C962.433 798.784 961.61 791.559 961.336 784.883C960.696 771.805 961.062 770.616 965.909 769.427C968.469 768.787 968.561 768.513 966.823 764.397C965.726 761.745 964.354 754.703 962.068 740.893C961.793 739.247 960.33 736.412 958.684 734.583C955.94 731.474 955.757 730.65 955.117 722.511C954.294 710.348 953.288 707.421 949.172 705.318C946.246 703.854 945.423 702.757 943.228 696.812C941.399 691.691 940.759 688.215 940.759 683.185C940.667 677.332 940.301 675.961 938.289 673.308C937.009 671.571 934.997 668.553 933.808 666.541L931.705 662.791L933.625 656.938L935.546 650.993L933.351 646.695C932.07 644.409 928.869 639.653 926.217 636.269L921.37 630.05L916.157 630.142C913.322 630.233 909.847 630.508 908.567 630.691Z" fill="black"/>
<path d="M331.578 758.09C331.03 759.187 329.658 759.919 328.286 759.919C324.719 759.919 319.232 763.12 317.952 766.046C317.311 767.418 316.58 771.717 316.305 775.649C315.757 782.325 315.94 782.783 318.775 787.538C320.787 790.739 322.341 794.855 323.256 799.702L324.719 807.018L328.835 807.567C337.431 808.847 342.461 812.231 345.205 818.724L347.126 823.114L345.296 826.681C344.29 828.693 343.467 831.345 343.467 832.625C343.467 834.912 343.467 834.912 346.668 833.631C349.686 832.351 349.961 832.351 352.704 834.637C355.539 837.015 355.722 837.107 367.794 836.832C378.22 836.649 380.049 836.832 380.049 838.021C380.049 841.771 385.994 843.691 388.006 840.49C389.195 838.57 391.481 838.753 398.615 841.405C401.907 842.594 402.273 842.502 403.645 840.673C404.468 839.576 406.663 838.387 408.492 838.113C411.601 837.564 412.241 837.838 418.277 843.051C421.844 846.161 424.953 848.63 425.228 848.63C425.411 848.63 425.777 847.532 425.959 846.252C426.417 842.411 428.886 841.405 432.453 843.6C434.556 844.88 437.666 845.52 443.61 845.886C451.292 846.344 451.841 846.526 452.116 848.356C452.481 850.55 453.579 851.099 454.585 849.544C455.499 847.99 457.511 848.538 460.346 850.916C462.633 852.837 464.005 853.203 469.035 853.203C474.796 853.203 478.637 854.483 490.069 860.336C490.435 860.519 490.709 859.604 490.709 858.324C490.709 856.952 491.35 855.672 492.081 855.398C493.087 854.94 493.453 853.386 493.453 849.27C493.453 844.24 493.087 843.234 488.972 836.741C486.411 832.9 483.484 827.778 482.387 825.492C480.192 820.919 476.717 818.541 469.218 816.346C466.657 815.615 461.627 813.511 457.969 811.682C454.402 809.853 450.104 808.39 448.457 808.39C444.616 808.298 442.604 807.109 437.757 801.805C435.562 799.427 431.63 796.409 428.977 795.037C425.685 793.483 423.765 791.837 423.033 790.007C422.393 788.544 421.204 787.355 420.289 787.355C419.375 787.355 416.54 786.624 413.979 785.801C410.504 784.703 408.857 783.606 407.851 781.685C407.12 780.313 404.376 777.478 401.633 775.466C397.06 771.991 396.42 771.808 390.384 771.808C384.439 771.808 383.342 771.442 375.385 767.235C368.892 763.851 365.782 762.662 362.856 762.662C360.295 762.662 357.917 761.931 356.18 760.742C353.71 759.004 353.253 758.913 349.046 760.193L344.473 761.474L343.376 758.913C342.37 756.444 342.004 756.261 337.431 756.261C333.499 756.261 332.401 756.626 331.578 758.09Z" fill="black"/>
<path d="M374.562 865.455C374.562 872.68 375.477 876.247 377.215 875.881C378.312 875.698 378.587 874.6 378.404 871.491C377.946 863.9 377.215 860.516 375.843 860.516C374.928 860.516 374.562 861.797 374.562 865.455Z" fill="black"/>
<path d="M348.954 866.006C347.857 866.738 347.948 867.561 350.052 871.676L352.521 876.523V870.762C352.613 865 351.972 864.086 348.954 866.006Z" fill="black"/>
<circle cx="62" cy="344" fill="#5CE50D"/>
<circle cx="881" cy="689" fill="#E52A0D"/>
<circle cx="217" cy="500" fill="#E52A0D"/>
<circle cx="375" cy="772" fill="#E52A0D"/>
</svg>
