<svg width="1000" height="1000" viewBox="0 0 1000 1000" fill="none" xmlns="http://www.w3.org/2000/svg">
<rect width="1000" height="1000" />
<path d="M165.521 20.8398C158.096 22.4377 156.686 23.0957 152.832 26.6675C149.542 29.7694 147.38 30.9913 144.278 31.4614C142.022 31.8373 139.39 32.7773 138.45 33.6232C137.135 34.8452 135.819 34.9392 131.871 34.3752C129.145 33.9053 124.163 33.6232 120.873 33.7172C115.891 33.9053 114.575 34.2812 112.789 36.2551C110.064 39.075 106.868 39.921 101.416 39.169C98.5021 38.793 97.2801 38.981 97.2801 39.827C97.2801 40.391 96.8101 42.5529 96.3401 44.4328C95.4002 47.7227 94.9302 48.0047 88.8204 49.9786C82.9927 51.8585 82.2407 52.4225 81.6767 54.9604C81.3947 56.5583 80.0788 59.1902 78.8568 60.8821C77.6349 62.4801 76.6009 64.924 76.6009 66.2399C76.6009 68.0259 76.0369 68.6838 73.969 69.1538C72.5591 69.4359 70.2092 71.1277 68.7992 72.9137C66.9193 75.2636 64.8514 76.4855 60.7156 77.6135L55.2638 79.2114L54.6998 84.4752C54.2298 88.6111 53.5718 90.303 51.7859 91.8069C50.564 92.9349 48.966 95.6608 48.4021 97.9167C47.7441 100.173 46.4281 103.65 45.4882 105.624C43.8902 108.726 43.7022 109.854 44.6422 114.46C45.1122 117.374 45.5822 124.988 45.5822 131.285C45.5822 142.847 45.5822 142.941 42.1983 148.957C38.4385 155.818 38.5324 158.262 42.5743 159.672C43.9842 160.236 49.436 163.056 54.6998 166.158L64.2874 171.704L74.627 187.401C80.3608 196.049 85.4366 203.098 85.9066 203.098C87.5045 203.098 89.0084 210.43 88.3505 214.848C87.9745 217.198 88.1625 220.3 88.8204 222.274C89.7604 225.282 90.2304 225.658 93.1443 225.658C95.6822 225.658 96.5281 226.128 97.1861 227.819C97.7501 229.135 99.63 230.451 102.544 231.579C106.868 233.083 107.432 233.741 111.662 241.167C115.609 248.123 116.831 249.533 120.873 251.507C123.411 252.822 127.265 255.924 129.427 258.368C143.432 273.878 144.936 275.006 158.284 280.645C165.239 283.559 174.545 287.413 178.963 289.105C183.381 290.797 188.362 292.865 189.866 293.711C191.464 294.557 193.25 295.215 194.002 295.215C195.412 295.215 202.932 299.257 215.245 306.494C219.381 308.938 224.927 311.664 227.465 312.51C232.165 314.014 232.165 314.108 236.207 322.756C238.65 328.019 240.154 332.719 240.154 334.881C240.154 337.513 240.906 339.205 243.256 341.837C244.854 343.717 247.768 348.229 249.554 351.989L252.844 358.662L259.612 360.73C263.371 361.858 268.165 364.114 270.327 365.712C272.677 367.404 275.497 368.532 277.189 368.532C281.513 368.532 287.341 372.198 288.374 375.582C288.844 377.086 290.16 379.341 291.194 380.469C292.886 382.443 293.262 382.443 295.706 381.221C300.124 378.871 303.696 379.435 307.832 383.195L311.498 386.579L319.863 385.921L328.229 385.263L332.083 388.647C335.843 392.031 335.937 392.125 338.756 390.715C342.422 388.741 357.18 388.741 364.229 390.621C367.049 391.373 371.279 392.031 373.629 392.031C377.671 392.031 377.953 392.219 378.799 395.039C379.551 397.295 380.397 398.235 382.559 398.705C384.157 399.081 386.695 399.927 388.386 400.585C391.112 401.713 391.676 401.619 393.556 399.833C396.188 397.483 401.264 397.859 404.366 400.773C406.434 402.559 406.622 402.559 410.57 401.055C414.141 399.739 414.987 398.799 416.303 395.415C417.807 391.561 418.277 391.185 422.319 390.339C430.309 388.553 458.696 388.177 468.565 389.681C473.453 390.433 477.777 391.091 478.247 391.091C478.623 391.091 478.905 393.535 478.905 396.449V401.901L487.647 411.018C493.38 416.94 497.422 420.418 499.584 421.17C503.156 422.298 527.313 424.93 534.833 424.93C541.13 424.93 545.83 428.031 547.334 433.201C548.65 437.619 550.53 439.405 553.162 438.747C554.478 438.371 555.606 439.029 557.016 441.003C558.426 442.977 559.742 443.729 561.716 443.729C564.723 443.729 577.695 450.027 591.512 458.11C598.656 462.246 600.912 464.126 603.638 468.262C605.518 471.082 609.936 476.534 613.507 480.481C619.053 486.779 619.899 488.189 619.899 491.385C619.899 496.273 622.343 505.672 624.505 508.586C625.351 509.902 626.667 512.346 627.231 514.038C628.641 518.08 626.855 521.84 622.249 524.848C619.711 526.446 618.959 527.574 618.959 529.829C618.959 533.119 621.779 537.349 624.599 538.195C627.325 539.041 627.325 548.911 624.599 551.355C623.095 552.671 622.719 554.268 622.719 558.404V563.856L618.959 565.36C616.891 566.206 614.635 566.864 613.977 566.864C613.413 566.864 610.688 567.898 608.056 569.12L603.168 571.376L605.142 578.331L607.116 585.193L612.568 587.731C617.925 590.175 618.019 590.363 618.019 594.029C618.019 596.755 618.489 598.071 619.805 598.729C621.215 599.481 621.403 600.515 621.121 604.65C620.933 607.376 620.275 611.136 619.805 613.016C618.865 615.93 619.147 617.152 621.497 622.792C624.223 629.183 624.411 629.371 628.265 630.029C632.025 630.687 632.683 630.405 637.477 626.928C642.552 623.168 642.646 622.98 641.894 619.69C641.518 617.716 641.142 611.418 641.048 605.684C641.048 597.507 641.33 594.687 642.458 593.371C644.432 590.833 655.054 585.381 657.122 585.851C658.062 586.039 660.976 589.235 663.607 592.901C667.837 599.011 668.683 599.763 671.409 599.763C674.323 599.763 674.417 599.575 674.417 596.191C674.417 593.371 675.075 591.961 677.613 589.517C679.399 587.731 681.467 586.603 682.501 586.791C683.817 586.979 684.381 586.415 684.569 584.441C684.945 581.151 689.174 579.083 695.566 579.083H699.796V583.219C699.796 586.509 700.266 587.637 702.052 588.859C704.214 590.269 704.684 590.175 708.914 588.389C714.083 586.227 714.835 585.287 714.835 581.245C714.835 578.895 713.989 577.486 710.606 574.572C706.752 571.188 706.376 570.436 706.376 566.582V562.352L710.888 561.788C720.005 560.472 720.099 560.472 721.321 556.43C722.167 553.704 723.295 552.295 725.457 551.261C728.277 549.945 728.465 549.569 728.183 545.433C727.995 542.989 727.337 540.545 726.679 540.075C726.021 539.511 724.517 536.503 723.201 533.307C721.791 529.547 720.287 527.198 718.877 526.54C717.373 525.788 716.715 524.754 716.715 522.78C716.715 518.832 714.929 517.516 707.316 515.636C700.642 514.038 700.548 513.85 695.754 507.552C692.276 502.853 690.302 501.067 688.798 501.067C687.482 501.067 686.637 501.631 686.637 502.477C686.637 503.322 685.791 506.33 684.757 509.244C683.723 512.252 682.877 515.542 682.877 516.67C682.877 520.054 680.151 521.652 675.169 521.088C671.315 520.618 670.657 520.242 669.623 517.704C668.871 516.012 668.495 513.568 668.683 512.158C668.777 510.748 668.401 508.68 667.743 507.458C665.393 502.947 658.908 496.085 655.712 494.769C651.952 493.171 649.32 490.351 648.568 486.873C648.004 484.335 644.808 482.267 641.33 482.267C640.296 482.267 636.913 481.421 633.905 480.293C628.829 478.413 628.547 478.225 629.487 476.158C630.239 474.372 630.051 473.338 628.453 470.706C627.419 468.92 626.479 466.57 626.479 465.536C626.479 463.28 619.993 457.828 617.267 457.828C613.977 457.828 612.38 456.794 612.38 454.632C612.38 451.343 607.868 447.771 602.792 447.019C599.878 446.549 598.28 445.891 598.28 445.045C598.28 444.105 597.058 443.729 594.52 443.729C591.418 443.729 590.572 443.353 589.632 441.379C588.974 439.969 587.471 438.841 585.685 438.465C580.421 437.337 577.601 435.269 575.345 430.757C574.123 428.313 572.807 424.272 572.431 421.828C571.867 418.35 571.209 417.128 568.765 415.624L565.851 413.744L563.407 416.094C561.246 418.162 560.682 418.256 558.05 417.316C552.974 415.53 551.94 412.24 551.752 396.637C551.564 383.571 551.47 382.725 549.214 379.717C546.864 376.616 546.864 376.428 548.086 370.412C548.838 367.028 549.214 363.832 549.026 363.268C548.838 362.798 546.112 361.576 543.01 360.542C539.25 359.414 536.243 357.816 534.269 355.748L531.167 352.552L530.603 339.393L530.039 326.14L520.075 316.082C509.642 305.46 506.822 301.325 502.874 290.985C501.558 287.507 499.678 283.183 498.644 281.585C497.61 279.893 496.764 277.449 496.764 276.134C496.764 272.468 495.166 269.084 493.098 268.426C492.064 268.144 491.03 266.734 490.654 265.23C490.372 263.82 487.835 260.436 485.015 257.616C481.819 254.514 479.845 251.601 479.469 249.721C478.999 247.465 477.119 245.209 471.761 240.791C466.121 235.997 453.62 222.18 445.254 211.464C444.408 210.336 444.314 209.208 444.972 207.516C445.818 205.26 445.536 204.884 441.306 202.159C438.204 200.185 436.513 198.399 436.137 196.613C435.855 195.109 434.539 192.947 433.223 191.819C431.813 190.409 430.967 188.529 430.967 186.743C430.873 182.419 428.805 179.505 424.763 177.813C418.653 175.276 411.416 169.166 410.382 165.594C408.878 160.612 404.93 157.04 400.888 157.04C397.88 157.04 397.222 156.57 395.436 153.374C394.308 151.401 393.368 148.205 393.368 146.325C393.368 142.659 391.77 141.531 385.191 140.403C383.217 140.027 381.243 138.805 379.739 136.737C377.671 134.011 376.731 133.541 373.535 133.541C371.467 133.541 367.237 132.413 363.947 130.815C359.436 128.841 357.744 127.432 356.334 124.706C355.3 122.732 353.796 121.322 352.856 121.322C349.848 121.322 338.944 116.81 334.809 113.802C329.733 110.136 296.552 75.0756 292.04 68.4958C287.716 62.3861 282.265 59.2842 275.403 59.2842C272.301 59.2842 269.763 58.6263 267.883 57.4043C266.285 56.3704 263.465 55.5244 261.492 55.5244C259.33 55.5244 255.476 54.3024 251.622 52.3285C246.734 49.8846 244.948 48.3807 243.726 45.7488C242.316 42.8349 241.564 42.3649 238.932 42.3649C237.241 42.3649 234.985 43.0229 233.951 43.7748C233.011 44.5268 231.507 45.1848 230.849 45.1848C230.097 45.1848 228.311 46.3127 226.901 47.6287L224.269 50.1666L220.227 48.4747C215.057 46.4067 213.835 45.3728 213.835 42.9289C213.741 39.169 210.358 33.2473 206.974 31.1794C205.188 30.0514 203.402 28.1714 203.12 26.9495C202.086 22.6257 197.198 20.7458 187.61 20.7458C182.535 20.7458 179.057 20.3698 179.057 19.8058C179.057 18.4899 175.203 18.7719 165.521 20.8398Z" fill="black"/>
<path d="M815.223 645.818C811.745 647.886 795.39 651.457 785.05 652.397C774.429 653.337 773.677 653.243 770.669 651.457C767.003 649.108 764.465 649.577 762.961 652.867C762.397 654.089 760.141 656.063 757.979 657.191C754.22 659.071 754.032 659.259 755.912 660.293L757.885 661.327L755.724 666.685C753.844 671.385 751.588 674.204 746.418 678.528C745.572 679.186 744.914 680.596 744.914 681.536C744.914 682.57 743.222 685.202 741.154 687.27C739.086 689.432 737.206 692.064 737.018 693.192C736.83 694.226 736.172 697.704 735.608 700.899C735.044 704.001 734.574 707.385 734.574 708.513C734.574 709.829 733.446 710.957 730.815 712.085C727.431 713.589 727.055 714.153 727.055 717.255C727.055 719.229 726.491 721.297 725.739 721.955C724.987 722.519 721.791 726.842 718.595 731.448C711.357 741.976 708.349 750.811 705.436 769.423C703.368 783.24 703.368 783.71 704.966 790.572C705.906 794.426 707.127 802.885 707.785 809.371L709.007 821.121L705.812 824.505L702.522 827.888L702.71 843.398C702.804 856.181 702.616 859.377 701.3 861.821C700.36 863.607 699.044 864.829 698.01 864.829C696.6 864.829 696.224 865.769 695.848 870.187L695.378 875.544L701.206 881.278C706.187 886.26 707.127 887.67 707.503 891.242C708.067 896.318 712.485 905.529 718.125 913.519C722.355 919.441 722.355 919.535 722.355 927.43V935.326L725.645 936.642C727.807 937.582 729.311 939.086 730.251 941.248C731.097 943.41 732.506 944.82 734.48 945.478C736.736 946.23 737.394 947.076 737.394 948.862C737.394 950.835 738.522 951.775 744.444 954.783C748.298 956.663 751.494 958.825 751.494 959.483C751.494 960.141 752.34 961.551 753.374 962.585C754.408 963.619 755.254 965.687 755.254 967.285C755.254 969.729 755.724 970.105 759.201 971.139C761.457 971.703 764.841 973.019 766.721 973.959C768.601 974.898 771.139 975.744 772.267 975.744C773.489 975.744 775.275 976.496 776.309 977.436C777.437 978.376 779.599 979.692 781.29 980.35C784.016 981.478 784.862 981.29 790.878 978.564C794.45 976.872 797.646 974.898 797.928 974.147C798.398 973.019 799.056 973.113 801.782 974.804C804.79 976.684 805.542 976.778 809.677 975.744C814.001 974.71 814.283 974.428 815.411 970.481C816.445 967.003 817.197 965.969 820.017 964.841C821.897 964.089 824.341 963.619 825.469 963.807C826.691 963.995 828.571 963.243 830.169 962.021C832.236 960.235 833.928 959.859 838.628 959.765C844.08 959.765 844.832 959.483 848.216 956.381L851.976 953.091L860.341 953.279C868.425 953.467 869.083 953.279 874.065 950.271C888.164 941.812 891.266 941.248 901.136 945.196C904.332 946.512 907.245 947.546 907.715 947.546C909.501 947.546 915.705 942.752 917.209 940.12C918.055 938.616 921.627 935.702 925.105 933.634C933.94 928.37 936.948 924.235 937.794 916.527C938.734 907.127 939.956 900.829 941.084 899.419C941.648 898.762 942.4 896.036 942.682 893.498C943.81 885.696 944.186 884.944 947.57 883.346C950.39 881.936 950.766 881.372 950.766 878.176C950.766 875.732 951.424 873.947 952.646 872.819C954.15 871.409 954.526 869.905 954.526 864.359C954.526 859.941 954.056 857.027 953.116 855.805C951.612 853.831 951.236 849.789 952.552 849.789C954.902 849.789 956.405 846.594 956.405 841.612C956.405 837.476 956.781 836.16 958.473 834.844L960.541 833.152L958.003 828.922C956.687 826.572 954.244 820.463 952.552 815.387C949.826 806.833 949.732 805.799 950.766 801.851C953.304 792.358 953.116 787.376 949.544 778.54C945.032 767.261 943.81 760.775 945.032 754.759C945.596 752.221 946.066 747.992 946.066 745.548C946.066 741.788 945.784 740.848 944.186 740.472C942.682 740.096 942.306 739.156 942.306 735.772C942.306 733.422 942.682 730.414 943.152 729.192C943.904 727.218 943.622 726.466 941.178 724.211C939.674 722.707 937.512 719.887 936.478 717.913C935.35 715.563 933.564 713.777 931.496 712.931C928.207 711.615 922.849 704.941 921.063 699.865C920.405 698.08 919.277 696.952 918.055 696.764C915.423 696.388 913.919 693.568 914.671 690.466C915.423 687.458 913.919 685.578 908.937 683.322C906.869 682.382 904.426 681.066 903.58 680.408C902.264 679.468 901.418 679.562 898.88 680.69C896.06 682.006 895.402 682.006 892.488 680.784C890.702 679.938 886.848 679.092 884.028 678.81C878.953 678.246 878.859 678.152 873.501 671.197C870.493 667.343 867.861 663.019 867.579 661.609C867.203 660.199 865.511 657.191 863.725 654.841C861.281 651.645 859.683 650.423 856.957 649.953C855.078 649.577 852.164 648.262 850.472 647.04C847.934 645.066 847.182 644.878 845.49 645.818C842.106 647.604 823.119 647.886 820.769 646.288C818.419 644.69 817.385 644.596 815.223 645.818Z" fill="black"/>
<circle cx="470" cy="374" fill="#5CE50D"/>
<circle cx="233" cy="69" fill="#E52A0D"/>
<circle cx="665" cy="600" fill="#E52A0D"/>
<circle cx="890" cy="675" fill="#E52A0D"/>
</svg>
