<svg width="1000" height="1000" viewBox="0 0 1000 1000" fill="none" xmlns="http://www.w3.org/2000/svg">
<rect width="1000" height="1000" />
<path d="M840.371 1.48718C839.102 2.07312 838.125 3.34265 838.125 4.31921C838.125 5.49109 836.856 6.66296 834.707 7.54187L831.289 9.00671L833.34 12.4247C835.195 15.5497 835.195 16.038 833.828 16.5262C832.754 16.9169 832.266 18.3817 832.266 20.7255C832.266 22.6786 831.289 26.1942 830.215 28.6356C829.141 31.077 827.383 36.0575 826.406 39.8661C825.332 43.577 823.867 48.7528 823.086 51.2919C821.719 55.5887 821.719 55.9794 823.574 58.4208C825.82 61.1552 825.43 66.4286 822.891 67.4052C821.328 67.9911 821.133 71.4091 822.5 75.0223C823.184 76.8778 823.086 78.1473 822.109 79.7098C821.231 80.9794 820.449 86.3505 820.059 93.2841C819.473 102.561 818.984 105.296 817.422 107.249C814.981 110.374 809.902 110.569 807.363 107.737C806.387 106.663 804.531 105.784 803.262 105.784C801.406 105.784 801.016 106.272 801.016 108.616C801.016 110.179 800.332 111.936 799.551 112.62C798.77 113.304 798.086 114.964 798.086 116.429C798.086 121.409 796.231 121.702 791.641 117.503C789.297 115.354 786.758 113.597 786.074 113.597C785.293 113.597 783.926 112.718 782.949 111.643C781.973 110.569 780.215 109.69 779.043 109.69C777.969 109.69 776.504 109.202 775.918 108.616C775.137 107.835 774.356 107.932 772.891 108.811C771.133 109.886 770.547 109.788 769.082 108.421C767.324 106.956 767.129 107.054 764.59 110.179C763.125 112.034 761.953 114.573 761.953 115.94C761.953 117.893 761.172 118.577 757.852 119.651C752.871 121.311 750.234 125.315 752.285 127.952C753.359 129.222 753.262 129.71 751.406 131.175C750.234 132.151 749.258 134.007 749.258 135.472C749.258 136.741 748.77 138.206 748.281 138.499C746.621 139.573 744.18 145.042 745.059 145.725C745.547 146.018 746.914 147.679 748.086 149.339C750.527 152.854 749.551 154.612 745.156 154.612C742.813 154.612 742.422 155.003 742.422 157.542C742.422 159.788 742.031 160.472 740.469 160.472C739.297 160.472 738.027 161.448 737.344 162.913C736.172 165.55 734.707 166.038 732.852 164.182C730.996 162.327 726.406 166.331 726.016 170.042C725.723 172.972 725.527 173.167 721.523 173.167C719.18 173.167 716.836 173.753 716.348 174.339C715.762 175.022 715.078 178.245 714.785 181.37C714.492 184.593 713.613 187.522 712.93 187.913C710.781 189.378 705.41 188.89 701.602 186.936C699.648 185.96 695.84 184.886 693.203 184.495C689.004 184.007 688.125 184.202 684.902 186.741C679.922 190.647 677.676 191.136 675.527 188.792C672.988 186.057 669.473 186.35 666.348 189.671C664.395 191.819 662.539 192.6 658.242 193.089C652.285 193.87 648.77 192.698 645.352 188.89C643.594 187.034 642.422 186.839 630.313 186.839C617.813 186.839 617.129 186.936 614.297 189.28C612.344 190.94 610.195 191.722 607.754 191.722C605.117 191.722 603.457 192.405 601.797 194.163C599.648 196.409 599.356 196.507 597.305 195.14C596.035 194.358 594.57 193.675 593.984 193.675C592.422 193.675 592.813 198.753 595.059 205.003C596.816 209.983 597.012 212.132 596.523 221.702L595.938 232.542L598.867 233.616C601.309 234.397 601.797 235.081 601.797 237.718C601.797 240.354 603.457 242.405 614.004 252.757C625.625 264.182 626.211 264.964 626.211 268.675C626.211 273.265 622.793 283.128 620.156 286.057C619.18 287.229 618.106 289.866 617.715 291.917C616.934 297.483 614.004 301.78 610.098 303.05C608.242 303.636 606.68 304.612 606.68 305.1C606.68 305.686 605.606 307.151 604.238 308.421C601.309 311.448 597.891 311.643 597.891 308.909C597.891 307.347 597.207 306.956 594.961 306.956C593.398 306.956 592.031 306.468 592.031 305.979C592.031 305.393 590.762 305.003 589.199 305.003C587.637 305.003 585.879 304.319 585.195 303.44C583.242 301.097 580.508 300.022 575.039 299.143C572.305 298.753 569.277 298.069 568.398 297.679C566.934 297.093 566.641 297.483 566.641 300.511V304.124L562.051 303.636C550.039 302.366 540.176 302.073 538.516 302.952C537.344 303.636 535.293 303.44 531.875 302.366C523.184 299.729 521.719 298.948 520.449 296.311C519.277 293.968 518.789 293.772 513.906 294.065C510.977 294.261 508.145 294.847 507.559 295.335C505.996 296.8 502.676 296.311 500.918 294.261C498.965 292.015 497.5 291.819 495.059 293.772C493.496 294.944 492.813 294.847 490.176 293.186C488.418 292.21 485.586 291.331 483.731 291.331C480.996 291.331 480.606 291.136 481.68 289.866C482.656 288.694 482.363 288.401 480.02 287.815C478.555 287.425 476.113 286.253 474.648 285.179C473.086 284.007 470.254 283.128 467.813 283.03C462.539 282.835 458.145 280.784 460.391 279.515C461.27 279.026 462.246 277.561 462.539 276.194C462.93 274.632 463.809 273.753 465.078 273.753C466.152 273.753 467.031 273.069 467.031 272.288C467.031 271.507 466.25 270.823 465.273 270.823C463.418 270.823 457.266 265.061 457.266 263.401C457.266 262.815 455.703 260.96 453.848 259.104C449.941 255.296 449.648 254.222 452.383 254.222C453.457 254.222 454.336 253.831 454.336 253.44C454.336 250.315 442.031 239.182 437.148 238.011C435.293 237.522 435 237.132 435.781 235.667C437.051 233.225 437.051 233.03 435.195 232.347C433.047 231.565 424.063 237.327 424.063 239.475C424.063 242.21 422.109 248.362 421.231 248.362C420.742 248.362 420.059 247.288 419.766 245.921C418.887 242.405 417.422 243.772 416.641 248.85C415.957 253.929 413.809 254.71 412.832 250.315C412.148 247.288 407.461 243.382 402.871 242.015C399.453 241.038 399.941 244.847 403.555 247.581L406.484 249.729L402.871 253.538C398.672 257.932 394.961 259.69 393.398 258.128C391.641 256.37 389.981 257.054 389.297 259.788C388.32 263.987 386.172 266.917 384.023 266.917C381.582 266.917 381.582 267.21 384.023 274.241C385.977 279.905 385.977 280.003 384.121 281.956C383.047 283.128 381.582 286.643 380.703 289.768C379.922 292.991 378.262 296.897 377.09 298.557L374.941 301.39L376.992 307.737C378.555 312.522 378.848 314.475 377.969 315.452C376.602 317.112 374.453 317.112 372.695 315.257C371.816 314.475 370.84 313.792 370.352 313.792C369.082 313.792 360.195 324.534 357.363 329.515C355.898 331.956 354.727 334.886 354.727 335.96C354.727 337.327 353.75 338.304 351.797 339.085C350.234 339.573 348.867 340.647 348.867 341.331C348.867 342.112 347.988 344.358 346.914 346.507C345.84 348.655 344.961 350.901 344.961 351.487C344.961 352.171 343.496 353.147 341.641 353.831C339.883 354.417 337.441 355.979 336.172 357.249C334.414 359.104 333.535 359.397 332.168 358.616C330.508 357.737 330.313 358.03 330.313 361.057C330.313 364.378 330.117 364.475 325.918 365.159C320.742 365.94 320.156 366.429 321.523 369.944C322.402 372.288 322.207 372.972 320.059 374.925C318.691 376.194 317.617 377.854 317.617 378.636C317.617 379.417 316.641 380.686 315.469 381.272C312.344 382.835 312.441 382.737 313.711 385.081C314.59 386.839 314.297 387.718 311.758 390.94C309.707 393.479 307.852 394.847 306.387 394.847C305.02 394.847 303.164 396.116 301.602 397.972C300.137 399.729 298.574 401.78 297.988 402.366C296.621 404.124 293.496 403.929 292.813 402.171C292.031 399.925 286.856 400.413 282.852 403.147C278.75 405.979 276.797 406.175 276.016 404.124C275.039 401.78 270.938 402.366 269.18 405.1C268.301 406.468 267.031 407.542 266.348 407.542C264.102 407.542 254.141 416.331 254.141 418.382C254.141 419.358 255.215 421.214 256.582 422.386C257.852 423.46 258.731 424.827 258.438 425.315C257.559 426.78 247.891 426.194 245.547 424.534C242.715 422.581 240.957 423.85 238.809 429.222C237.246 433.03 235.879 433.714 232.559 431.956C230.996 431.077 230.703 431.272 230.703 432.932C230.703 434.397 229.922 435.081 227.871 435.472C225.43 435.96 224.941 436.643 224.649 439.182C224.453 441.722 223.867 442.307 221.621 442.503C219.082 442.796 218.984 443.089 219.57 446.214C220.156 449.534 219.277 450.413 217.324 448.46C216.641 447.776 213.906 447.386 211.074 447.483C207.559 447.483 205.41 447.093 204.141 445.921C202.676 444.651 201.895 444.554 199.844 445.53C197.793 446.409 197.402 447.093 197.891 449.046C198.477 451.39 198.379 451.487 193.496 451.487C189.59 451.487 187.832 452.073 185.391 453.929C176.406 461.35 172.012 464.085 168.203 464.866C164.492 465.55 163.809 466.136 162.734 469.261C161.66 472.581 161.66 472.972 163.906 475.022C167.422 478.343 167.031 479.905 162.832 478.733C160.195 477.952 158.926 478.147 157.07 479.319C154.141 481.272 150.234 480.393 148.965 477.659C148.184 475.804 147.598 476.194 142.91 482.151C139.492 486.448 137.832 489.28 138.223 490.452C138.613 492.112 138.223 492.21 134.902 491.819C131.875 491.331 130.313 491.819 127.285 493.772C123.867 496.018 123.379 496.897 123.086 500.511L122.793 504.71L113.613 509.202C103.457 514.28 99.5509 517.503 87.1485 531.858C82.5587 537.132 77.1876 542.6 75.1368 543.968C69.7657 547.679 66.6407 551.78 66.6407 555.1C66.6407 556.663 67.129 557.933 67.6173 557.933C69.8634 557.933 68.3009 561.546 64.1016 565.745C61.6602 568.186 57.2657 572.874 54.2384 576.292C48.9649 582.054 48.6719 582.64 48.9649 587.034C49.0626 589.573 48.4766 593.479 47.6954 595.823C46.0352 600.511 46.5235 602.854 49.0626 602.854C51.0157 602.854 51.9923 600.999 51.9923 597.483C51.9923 596.311 52.5782 595.042 53.2618 594.749C54.7266 594.261 56.8751 585.081 56.8751 579.905C56.8751 576.585 59.0235 573.948 60.6837 575.022C62.4415 576.097 67.3243 572.776 68.6915 569.554L69.961 566.331L70.7423 569.163C71.6212 572.581 70.254 575.315 67.129 576.097C65.2735 576.585 64.6876 577.366 64.6876 579.515C64.6876 581.077 65.4688 583.128 66.543 584.202C67.5196 585.179 68.5938 587.132 68.9844 588.694C69.4727 590.647 70.1563 591.233 71.5235 590.843C72.9884 590.452 73.7696 591.233 75.0391 594.651C76.8946 599.436 77.0899 599.534 79.336 597.483C80.8009 596.214 81.4844 596.311 85.9766 598.46C88.8087 599.827 92.4219 600.901 93.9844 600.901H97.0118L95.3516 603.929C93.6915 607.249 94.4727 608.714 98.1837 608.714C99.3555 608.714 99.8438 609.495 99.8438 611.546C99.8438 613.206 99.4532 614.768 98.8673 615.061C97.2071 616.136 97.793 617.503 99.9415 617.503C101.309 617.503 102.285 618.479 103.066 620.432C103.848 622.581 104.629 623.167 105.899 622.776C107.266 622.386 107.656 622.776 107.656 624.729C107.656 626.097 107.168 627.464 106.68 627.757C106.094 628.05 105.703 629.319 105.703 630.589C105.703 631.761 105.215 633.225 104.629 633.811C103.555 634.886 104.434 641.917 105.703 641.917C106.094 641.917 108.633 639.964 111.172 637.522C114.785 634.202 116.738 633.128 119.082 633.128C122.109 633.128 122.207 633.03 121.328 630.686C120.547 628.636 120.742 628.05 122.109 627.561C125.137 626.39 126.309 623.362 123.77 623.362C122.988 623.362 122.305 622.679 122.305 621.897C122.305 621.116 122.695 620.432 123.184 620.432C124.844 620.432 125.234 615.55 123.77 612.62C120.84 606.956 122.891 607.249 127.09 613.108C129.727 616.819 130.703 617.503 133.535 617.503C135.879 617.503 137.246 618.089 137.93 619.456C138.516 620.53 139.883 621.409 140.957 621.409C142.324 621.409 143.399 622.679 144.668 625.511C145.645 627.854 147.402 630.296 148.477 630.882C150.234 631.956 150.723 631.858 151.895 630.198C153.555 627.854 154.824 628.929 155.899 633.518C156.484 636.057 156.68 636.155 158.34 634.69C160.586 632.64 161.074 632.737 161.66 635.179C162.149 636.839 162.734 637.034 165.566 636.546C169.57 635.765 174.063 638.206 174.063 641.136C174.063 643.675 176.895 647.776 178.652 647.776C179.434 647.776 180.899 647.288 181.973 646.702C183.926 645.725 183.926 645.725 181.875 642.307C179.336 638.304 179.922 638.011 183.34 641.526C185.879 643.968 185.977 644.065 187.93 642.307C189.004 641.233 190.469 639.182 191.152 637.522C192.422 634.69 192.422 634.886 192.52 641.429C192.617 647.581 192.91 648.655 195.645 651.975C199.063 656.175 203.555 656.956 205.313 653.733C205.801 652.659 207.656 651.585 209.316 651.194C210.977 650.804 213.711 649.241 215.469 647.776C218.594 644.944 224.746 642.6 223.574 644.554C222.109 646.897 229.824 647.581 231.68 645.335C232.363 644.554 233.633 643.87 234.512 643.87C236.563 643.968 231.875 647.679 229.727 647.776C222.207 647.874 215.176 654.124 217.031 658.909C217.813 661.057 217.715 661.448 216.055 661.448C213.027 661.448 211.66 664.964 213.613 667.893C214.883 669.847 214.981 670.628 214.004 671.8C213.418 672.581 212.344 673.167 211.563 673.167C210.879 673.167 209.609 674.143 208.731 675.315C207.266 677.464 207.363 677.659 209.316 679.319C211.27 680.882 211.66 680.882 213.125 679.515C215.176 677.659 217.617 677.659 218.399 679.515C219.082 681.37 223.281 681.37 224.844 679.515C226.211 677.854 228.75 677.561 228.75 679.026C228.75 679.515 227.969 680.882 227.09 681.956C225.82 683.421 224.16 683.909 220.254 683.909C215.371 683.909 215.078 684.007 215.078 686.35C215.078 687.815 215.664 688.792 216.445 688.792C218.399 688.792 219.473 690.647 218.203 691.917C217.715 692.405 217.52 693.675 217.715 694.749C218.106 696.214 218.789 696.507 220.352 696.018C222.305 695.432 222.305 695.432 220.156 697.874C218.301 699.827 217.91 700.999 218.496 703.538C219.082 706.272 218.984 706.565 217.52 705.979C215.274 705.198 213.125 707.054 213.125 709.788C213.125 711.448 212.637 711.936 211.367 711.643C208.926 710.96 202.969 717.405 203.652 719.944C203.945 721.311 203.652 721.995 202.774 721.995C200.918 721.995 197.305 729.515 197.988 731.858C198.379 732.835 199.063 733.714 199.551 733.714C200.039 733.714 200.43 734.593 200.43 735.569C200.43 736.643 200.918 737.815 201.406 738.108C203.75 739.573 202.188 740.745 198.477 740.257C194.863 739.768 194.57 739.964 194.57 742.015C194.57 743.284 193.887 744.456 193.106 744.749C192.324 745.14 190.566 747.19 189.102 749.339C187.051 752.366 186.66 753.831 187.344 755.003C188.125 756.175 187.637 757.151 185.098 759.397C181.387 762.718 178.945 766.819 178.945 769.847C178.945 771.018 177.969 773.265 176.895 774.925C175.039 777.366 174.844 778.831 175.234 784.886C175.527 788.792 176.016 792.503 176.406 793.089C176.797 793.772 178.945 794.261 181.191 794.261C185.293 794.261 185.391 794.358 186.66 798.85C187.539 801.78 189.492 805.003 191.836 807.347C195.254 810.765 195.84 811.058 199.16 810.374C201.211 810.081 204.336 808.909 206.094 807.835C207.852 806.858 210.977 805.979 213.027 805.979C215.664 805.979 217.324 805.296 218.984 803.538L221.328 801.097L223.77 803.44C225.137 804.71 227.871 805.979 229.922 806.272C236.172 807.249 243.399 813.304 243.399 817.698C243.399 819.749 240.469 818.479 239.297 815.94C238.418 814.183 237.149 813.206 235.391 813.011C233.047 812.718 232.656 813.108 232.07 816.136C231.289 820.53 229.434 820.823 229.922 816.526C230.215 813.597 229.824 813.108 225.332 810.667C219.375 807.444 219.277 807.444 218.496 809.983C217.91 811.839 217.324 812.034 213.125 811.448C209.609 810.96 208.242 811.155 207.266 812.327C206.582 813.108 205.41 813.792 204.727 813.792C203.945 813.792 203.359 814.085 203.359 814.475C203.359 814.964 202.481 816.331 201.406 817.698L199.551 820.14L197.109 817.796C194.961 815.745 194.375 815.647 191.152 816.722C189.199 817.405 186.27 817.6 184.609 817.308C181.68 816.722 181.582 816.722 182.168 820.14C182.461 821.995 182.363 823.558 181.973 823.558C181.582 823.558 179.824 821.995 177.969 820.14C176.113 818.284 174.16 816.722 173.574 816.722C172.5 816.722 173.184 827.561 174.453 830.393C174.941 831.663 174.356 831.858 171.133 831.565C167.52 831.175 167.227 831.37 167.227 833.518C167.227 834.886 166.934 836.253 166.641 836.546C165.469 837.62 162.344 835.276 162.344 833.323C162.344 831.956 161.27 831.175 158.731 830.491C152.578 828.733 151.504 829.026 152.188 832.054C153.359 836.839 154.434 839.183 155.508 839.183C155.996 839.183 156.484 840.94 156.484 843.186C156.484 846.409 155.899 847.776 153.555 849.925C151.992 851.39 150.625 853.538 150.625 854.71C150.625 855.882 150.234 856.761 149.649 856.761C149.16 856.761 148.672 856.077 148.672 855.296C148.672 852.073 146.816 854.222 144.18 860.374C142.617 864.085 139.688 868.675 137.539 870.823C133.926 874.436 133.828 874.729 134.805 878.147C135.391 880.1 136.074 884.202 136.27 887.327C136.465 891.038 137.344 893.87 138.613 895.628C140.859 898.655 144.473 899.632 145.352 897.386C146.035 895.628 150.137 895.237 151.113 896.8C151.406 897.288 150.82 897.776 149.746 897.776C148.672 897.776 147.012 898.85 145.938 900.218C143.789 902.952 141.836 903.44 141.836 901.194C141.836 900.413 141.152 899.729 140.371 899.729C139.59 899.729 138.027 898.85 136.856 897.679L134.805 895.628L131.387 898.948C129.531 900.706 127.578 903.245 127.09 904.515C126.309 906.37 125.625 906.663 123.477 906.272C121.426 905.882 120.156 906.37 117.617 908.811C115.176 911.253 113.32 912.034 109.316 912.425C105.02 912.815 104.238 913.206 103.945 915.061C103.652 917.21 104.727 917.796 114.004 920.14C118.984 921.409 133.34 919.358 135.684 917.015C137.149 915.55 137.637 915.647 141.738 918.675C151.602 925.804 155.02 927.268 160.098 926.487C162.637 926.194 165.957 925.218 167.422 924.534C172.109 922.19 188.125 922.776 191.543 925.413C192.617 926.292 192.324 926.975 190.078 928.733C187.637 930.686 187.441 931.175 188.516 932.933C190.078 935.569 189.981 935.862 187.734 935.862C186.465 935.862 185.781 935.179 185.781 934.007C185.781 931.077 183.34 929.71 179.727 930.589C177.969 930.979 174.941 931.175 172.988 931.077C169.863 930.979 169.375 931.272 168.984 933.421C168.594 935.081 169.375 937.327 171.328 940.354C173.672 944.065 174.453 944.651 176.309 944.065C178.457 943.382 178.457 943.382 176.602 945.53C175.039 947.19 174.063 947.483 171.231 946.995C169.277 946.604 166.445 945.725 164.883 944.944C162.344 943.577 161.856 943.675 159.512 945.432C158.047 946.507 155.508 947.679 153.848 947.972C152.188 948.362 150.527 949.339 150.234 950.218C149.453 952.073 151.113 954.124 151.992 952.561C153.066 950.901 154.824 951.292 154.141 953.05C153.164 955.491 156.289 958.323 159.805 958.323C161.66 958.323 163.32 959.007 164.004 960.081C164.59 961.058 167.422 962.425 170.352 963.108C176.699 964.671 181.387 963.597 185 959.788C187.246 957.347 190.078 956.663 191.055 958.225C191.348 958.714 192.52 958.909 193.594 958.616C195.156 958.225 195.547 958.616 195.645 960.667C195.742 962.034 195.84 963.597 195.938 964.085C196.035 964.573 194.18 966.331 191.934 967.991C187.149 971.409 186.563 973.46 190.176 974.143C191.543 974.436 192.617 974.339 192.617 973.948C192.617 973.558 193.887 972.972 195.547 972.776C198.086 972.386 198.477 972.581 198.477 974.632V976.975L201.406 974.925C203.066 973.753 205.313 971.116 206.387 968.968C207.461 966.819 208.633 965.257 209.024 965.452C209.414 965.745 211.465 966.722 213.516 967.698L217.324 969.456L219.375 966.819C220.547 965.354 222.305 964.183 223.281 964.183C224.649 964.183 224.844 964.671 224.356 966.917C223.965 968.968 224.258 970.14 225.82 971.507C226.992 972.581 227.774 972.776 227.774 972.093C227.774 971.409 228.262 971.214 228.848 971.604C229.629 971.995 229.434 972.679 228.457 973.655C227.188 974.925 226.699 974.925 224.063 973.558C219.375 971.116 216.543 971.604 212.734 975.413C210.781 977.268 208.34 978.831 207.168 978.831C205.215 978.831 205.117 978.929 206.68 981.272C207.559 982.64 207.949 983.714 207.461 983.714C207.07 983.714 205.02 985.96 203.066 988.597C199.551 993.382 199.453 993.577 200.918 996.311C203.066 1000.51 203.848 1000.61 205.215 996.8C206.875 992.21 211.367 990.257 217.91 991.136L222.5 991.722L224.16 987.522C224.941 985.179 225.82 982.347 226.016 981.37C226.504 978.538 228.457 978.44 229.141 981.272C229.824 983.909 232.363 984.593 233.242 982.249C234.121 980.003 236.465 980.491 237.539 983.225C238.223 984.983 239.199 985.667 240.957 985.667C243.399 985.667 243.399 985.667 243.399 976.975C243.399 970.823 243.789 968.089 244.668 967.893C245.84 967.405 246.426 964.475 246.328 958.518C246.328 954.612 246.816 954.612 248.77 958.323C251.016 962.62 255.117 962.425 258.633 957.835C261.563 954.026 261.172 952.073 258.047 954.905C256.094 956.663 256.094 956.663 256.094 953.147C256.094 950.608 256.484 949.534 257.559 949.534C258.34 949.534 259.023 949.046 259.023 948.46C259.023 947.776 257.852 947.483 256.191 947.776C253.945 948.069 253.555 947.874 253.945 946.409C254.141 945.432 254.043 943.968 253.75 942.991C253.164 941.624 252.676 941.819 250.43 944.456L247.793 947.483L244.18 945.042C239.883 942.307 237.051 938.401 237.832 936.448C238.418 934.983 243.984 934.886 247.793 936.253C252.871 938.108 256.094 939.866 256.094 940.745C256.094 941.233 256.582 941.722 257.07 941.722C257.656 941.722 258.047 940.843 258.047 939.768C258.047 937.034 261.172 937.229 265.664 940.257C267.617 941.624 269.766 942.698 270.449 942.698C272.012 942.698 272.109 944.847 270.645 946.311C269.961 946.995 269.766 948.558 270.156 950.022C270.742 952.171 271.231 952.561 273.281 952.171C275.234 951.878 275.527 952.073 275.137 953.538C274.746 954.71 275.918 956.565 279.238 959.593C281.875 962.034 284.414 965.452 284.902 967.308C285.684 969.944 286.367 970.53 288.711 970.53C290.176 970.628 292.031 971.409 292.715 972.288C293.398 973.167 294.668 973.948 295.547 973.948C297.012 973.948 297.012 973.655 295.645 971.018C294.863 969.456 294.18 967.405 294.18 966.526C294.18 965.55 293.398 963.987 292.52 963.011C291.25 961.546 291.055 960.765 291.934 959.495C293.496 956.956 294.277 957.444 298.379 963.206C302.676 969.358 303.555 969.944 305.313 967.503C306.484 965.94 306.68 966.331 307.363 971.018C307.754 973.948 309.609 979.222 311.563 982.933C314.688 988.792 315.469 989.671 318.789 990.647C320.84 991.136 322.988 991.331 323.477 991.038C324.941 990.159 324.648 983.128 323.086 979.417C321.523 975.706 322.402 973.362 326.016 971.995C327.676 971.311 328.359 970.335 328.359 968.577C328.359 966.233 328.555 966.136 330.508 967.308C331.777 967.991 333.535 968.382 334.609 968.186C335.586 968.089 337.637 968.479 339.199 969.065C341.738 970.14 342.422 970.042 345.742 967.698C347.793 966.331 350.332 965.159 351.504 965.159C352.578 965.159 353.75 964.475 354.141 963.694C354.824 961.839 358.633 961.741 358.633 963.597C358.633 965.452 362.441 970.042 364.883 971.116C365.957 971.604 369.766 974.436 373.281 977.366C381.68 984.495 384.316 985.179 391.445 982.249C396.523 980.198 397.207 979.515 398.965 975.218C400.82 970.53 401.309 960.862 400.039 953.636C399.551 950.901 399.746 950.511 401.504 950.511C402.676 950.511 405.215 949.632 407.168 948.557C409.219 947.483 411.563 946.604 412.441 946.604C413.32 946.604 416.641 943.87 419.863 940.452C424.844 935.276 426.016 933.421 426.895 929.026C427.969 923.948 428.457 923.362 434.805 918.479C441.543 913.401 441.641 913.206 441.641 908.714C441.641 904.515 442.129 903.636 446.914 898.46C449.746 895.433 452.676 892.893 453.457 892.893C454.238 892.893 456.973 890.745 459.609 888.108C464.004 883.714 464.59 883.421 467.129 884.3C469.473 885.081 470.645 884.886 474.16 882.835C477.773 880.686 478.945 880.491 482.266 881.175C487.832 882.542 492.715 882.347 494.961 880.784C496.621 879.612 497.891 879.612 504.336 881.175C508.34 882.151 512.637 883.421 513.809 884.104C515.664 885.081 516.641 884.788 520.645 882.249C525.82 878.929 531.094 878.343 538.613 880.393C542.129 881.272 544.082 881.175 549.356 879.905C558.438 877.561 560.195 877.757 563.223 881.272L565.762 884.397L569.668 882.64C571.719 881.663 573.965 880.296 574.551 879.612C575.332 878.636 576.309 878.636 579.531 879.808C581.68 880.589 587.637 881.858 592.617 882.737L601.797 884.3L612.441 876.78C623.867 868.772 628.457 864.671 632.656 858.518C635.098 855.1 635.488 853.343 636.27 843.284C636.758 836.936 637.441 831.175 637.832 830.393C638.223 829.612 639.981 828.05 641.641 826.975C644.473 825.218 644.668 824.534 644.766 819.749V814.378L637.441 807.249C633.34 803.343 629.824 800.12 629.629 800.12C629.336 800.12 629.141 800.804 629.141 801.585C629.141 802.659 628.066 803.05 625.234 803.05C621.426 803.05 621.133 802.757 617.129 796.409C614.785 792.796 611.758 789.28 610.293 788.499C608.731 787.718 607.656 786.155 607.461 784.593C607.168 782.249 606.387 781.858 599.16 779.905C590.078 777.561 585.684 774.925 584.805 771.311C584.414 769.749 583.535 768.87 582.363 768.87C581.094 768.87 580.313 767.991 579.824 765.94C579.434 764.378 578.848 763.011 578.457 763.011C578.066 763.011 575.625 761.448 573.184 759.495C569.668 756.761 568.594 755.296 568.594 753.147C568.594 751.39 567.715 749.729 565.762 748.167C564.199 746.897 561.367 742.698 559.414 738.792C555.801 731.565 553.652 730.1 551.016 733.225C550.332 734.104 548.184 734.69 545.84 734.69C542.813 734.69 540.859 733.811 537.148 731.077C533.34 728.05 531.777 727.464 528.75 727.757C526.797 727.952 524.453 728.44 523.574 728.929C522.305 729.612 521.328 728.831 519.375 725.804C516.836 721.995 516.641 721.897 514.395 723.362C512.344 724.729 511.758 724.632 506.777 721.897C502.481 719.651 501.113 718.284 500.137 715.452C498.672 710.96 499.551 703.44 501.699 701.878C503.066 700.901 503.262 699.827 502.676 696.995C502.09 693.675 502.188 693.479 503.555 694.554C504.434 695.335 505.117 696.604 505.117 697.581C505.117 699.046 506.875 700.511 508.731 700.511C508.926 700.511 508.926 699.143 508.535 697.483C507.852 694.554 507.852 694.554 511.367 695.14C514.59 695.823 514.883 695.628 514.883 693.479C514.883 692.112 514.004 690.257 512.832 689.182C511.27 687.718 510.488 687.62 509.023 688.597C506.387 690.159 502.285 690.061 501.602 688.401C500.918 686.643 504.824 682.64 506.484 683.225C507.266 683.518 508.731 682.444 509.902 680.882C512.93 676.78 514.883 677.171 514.883 681.858C514.883 685.667 518.789 695.628 521.523 698.753C522.305 699.729 524.063 700.511 525.332 700.511C527.481 700.511 527.578 700.218 527.09 696.8C525.918 689.573 524.356 683.323 522.598 678.733C521.328 675.511 520.742 671.507 520.742 665.745C520.742 656.858 521.914 653.343 526.406 648.557C528.75 646.018 528.75 645.823 527.188 642.503C526.309 640.745 525.625 638.694 525.625 638.108C525.625 637.522 523.867 637.034 521.719 637.034C518.398 637.034 517.813 636.741 517.227 634.495C516.836 633.128 516.836 629.319 517.129 626.097C517.617 621.018 518.106 619.749 521.133 616.624C523.086 614.671 524.648 612.132 524.648 610.96C524.648 608.421 532.656 600.901 535.391 600.901C536.465 600.901 538.027 601.975 538.906 603.343C540.176 605.296 540.762 605.589 541.836 604.71C542.617 604.124 543.203 603.05 543.203 602.464C543.203 601.78 544.18 600.315 545.449 599.143C547.207 597.483 548.965 596.995 552.773 596.995C557.656 596.995 557.949 596.8 558.438 594.261C558.926 591.722 559.609 591.331 565.176 590.257C571.133 589.085 571.328 588.89 572.012 585.667C572.305 583.811 572.207 581.565 571.621 580.686C570.254 578.147 572.891 573.558 575.82 573.558C578.066 573.558 583.145 568.87 586.758 563.304C588.223 561.058 588.906 560.765 591.934 561.253C593.887 561.643 598.086 562.132 601.309 562.425C604.922 562.815 607.949 563.694 609.121 564.768C610.879 566.331 611.367 566.429 613.516 565.257C614.883 564.475 617.129 563.89 618.594 563.792C621.426 563.792 623.281 561.448 623.281 558.03C623.281 553.636 627.578 554.612 629.629 559.495C631.387 563.89 633.242 563.694 635.391 559.007C637.832 553.44 643.008 549.143 647.402 549.143C650.137 549.143 651.602 548.362 654.141 545.725C656.289 543.382 658.242 542.308 660.098 542.308C662.051 542.308 664.004 541.233 666.152 538.987C668.008 537.132 671.816 534.788 675.039 533.616C681.387 531.272 682.559 530.198 683.438 525.999C683.926 523.558 683.535 522.679 681.387 521.018C680.02 519.944 678.457 518.87 677.969 518.675C677.481 518.479 677.285 516.722 677.676 514.671C678.066 511.936 678.75 510.862 680.508 510.472C681.68 510.179 683.438 509.104 684.414 508.03C685.391 506.956 687.832 505.882 689.883 505.589C691.934 505.198 693.887 504.515 694.18 504.124C694.473 503.636 695.645 503.245 696.816 503.245C700.332 503.343 712.832 496.214 714.59 493.186C717.617 488.011 722.207 483.616 726.895 481.272C729.434 479.905 731.875 478.343 732.168 477.757C732.656 477.171 734.121 476.975 736.074 477.268C738.809 477.854 739.688 477.464 742.324 474.436C743.984 472.483 745.352 470.53 745.352 469.944C745.352 469.358 746.719 467.6 748.281 465.94C749.941 464.378 751.211 462.229 751.211 461.155C751.211 460.081 752.773 455.882 754.629 451.78C756.875 446.995 758.047 442.893 758.047 440.257C758.047 436.448 758.34 435.96 761.074 434.983C765.566 433.421 766.152 433.616 768.008 436.839C770.254 440.843 771.426 440.55 772.793 435.569C773.477 433.03 775.332 430.1 777.773 427.757C780.703 425.022 781.484 423.655 780.996 422.093C780.41 420.237 780.508 420.14 782.461 421.214C784.316 422.19 785.488 421.897 790.273 419.358C793.594 417.6 797.402 416.331 799.453 416.331C801.406 416.331 802.969 416.038 802.969 415.55C802.969 415.159 804.043 413.597 805.215 412.034C807.754 408.909 814.492 407.249 824.746 407.151C827.773 407.151 830.313 406.956 830.313 406.663C830.41 406.077 830.996 403.343 833.438 392.307C834.707 386.741 834.707 386.253 833.047 385.179C829.141 382.737 828.457 377.659 828.164 348.46C828.066 337.913 829.043 328.733 830.41 327.854C830.898 327.561 831.289 326.097 831.289 324.632C831.289 323.069 832.363 320.335 833.535 318.479C834.902 316.624 836.074 312.913 836.465 310.081C837.051 305.1 837.051 305.003 834.414 305.003C832.363 305.003 830.02 303.147 823.77 296.604L815.664 288.108V281.175C815.664 276.975 816.641 270.335 818.106 264.475C820.156 256.565 821.231 254.124 823.867 251.292C827.871 247.19 829.336 244.358 829.336 241.233C829.336 237.522 831.289 232.835 833.34 231.663C834.707 230.979 835.977 231.175 838.027 232.249C843.008 234.788 843.594 234.3 844.473 227.561C844.961 224.241 845.156 219.554 845.059 217.21C844.961 212.913 847.207 206.37 848.77 206.37C849.258 206.37 850.918 207.054 852.383 207.835C855.02 209.202 855.215 209.104 855.508 207.542C855.703 206.663 856.289 205.491 856.777 205.003C857.266 204.417 857.656 203.147 857.656 202.073C857.656 199.046 860.977 185.862 861.758 185.862C862.149 185.862 863.125 186.546 863.906 187.425C865.176 188.597 865.567 188.694 865.859 187.62C866.055 186.936 866.738 184.397 867.422 182.054C868.399 178.343 868.692 177.952 869.57 179.417C870.938 181.761 872.305 179.807 872.305 175.511C872.305 172.874 872.695 172.386 875.43 171.8C877.774 171.311 879.043 171.702 880.606 173.167C883.242 175.608 884.024 175.608 884.024 173.167C884.024 171.995 883.34 171.214 882.461 171.214C879.727 171.214 881.484 167.796 884.707 166.917C886.563 166.331 887.93 165.159 888.223 163.987C889.688 157.835 893.008 151.097 896.328 147.679C898.379 145.628 900.332 143.87 900.723 143.87C901.113 143.87 901.602 145.53 901.797 147.483C902.188 152.073 904.238 152.757 905.606 148.85C906.192 147.19 907.266 145.823 907.949 145.823C908.633 145.823 909.512 144.261 909.805 142.405C910.293 139.866 910.977 138.987 912.344 138.987C914.492 138.987 914.883 137.034 913.223 135.374C912.442 134.593 912.539 133.811 913.418 132.347C914.395 130.784 914.395 129.807 913.516 127.854C912.149 124.827 913.711 124.339 916.836 126.78C919.57 128.831 921.328 128.538 923.672 125.511C925.625 123.167 926.113 123.069 927.871 124.046C931.192 126.097 932.07 125.608 931.387 122.386C930.899 120.042 931.094 119.456 932.461 119.456C933.828 119.456 934.024 120.14 933.535 123.362C933.047 127.171 933.145 127.268 935.879 127.268C938.027 127.268 938.711 126.78 938.711 125.413C938.711 124.436 939.297 123.362 940.078 123.069C940.859 122.776 941.738 121.507 941.934 120.237C942.227 118.968 942.324 119.651 942.227 121.604C942.031 123.557 941.445 125.804 940.859 126.487C939.981 127.561 940.274 128.44 942.227 130.491C944.766 133.225 948.184 133.909 951.504 132.151C954.043 130.784 953.848 129.026 950.918 125.511C948.281 122.386 947.891 120.335 949.453 117.503C950.918 114.768 945.938 104.807 943.106 104.807C937.93 104.807 936.758 103.733 936.758 99.5341C936.758 96.8973 935.684 93.6747 933.731 90.1591C932.168 87.2294 930.313 81.8583 929.727 78.3427C928.945 73.8505 927.969 71.5067 926.699 70.7255C923.672 68.7723 921.817 71.1161 922.402 76.1942C922.793 79.6122 922.402 80.6864 920.547 82.4442C917.52 85.2762 916.348 84.202 915.469 77.8544C914.883 73.9481 914.395 73.0692 912.734 73.0692C910.293 73.0692 896.719 61.0575 896.719 58.8114C896.719 57.8348 895.645 56.2723 894.473 55.2958C890.762 52.3661 889.981 49.9247 889.297 39.4755C888.613 30.2958 888.809 29.3192 890.957 25.2177C893.301 20.7255 893.301 20.7255 891.348 19.163C889.785 17.9911 887.637 17.7958 881.094 18.1864C876.504 18.3817 872.207 18.3817 871.621 18.1864C870.059 17.6005 869.961 14.9637 871.426 14.9637C872.109 14.9637 872.305 13.9872 871.914 12.4247C871.524 11.0575 871.719 9.29968 872.305 8.61609C875.332 5.00281 868.789 2.65906 864.102 5.6864C862.344 6.85828 860.488 7.05359 855.117 6.46765C849.453 5.78406 848.379 5.39343 847.988 3.73328C847.402 0.315308 844.473 -0.465942 840.371 1.48718ZM944.57 114.085C944.57 114.182 943.887 114.866 943.106 115.55C941.836 116.526 941.641 116.429 941.641 114.768C941.641 113.304 942.129 112.815 943.106 113.206C943.887 113.597 944.57 113.89 944.57 114.085ZM217.52 981.761C217.813 982.249 217.715 982.737 217.227 982.737C216.738 982.737 214.785 983.03 213.027 983.323C209.707 983.909 209.707 983.909 212.149 982.444C215.078 980.686 216.738 980.491 217.52 981.761Z" fill="black"/>
<path d="M141.055 641.914C140.469 643.477 138.907 645.332 137.54 645.918C134.805 647.187 133.34 649.727 135.489 649.727C137.54 649.727 138.419 653.73 136.563 654.805C134.708 655.879 134.415 660.469 136.27 660.469C136.954 660.469 139.493 658.516 141.836 656.074C144.18 653.633 146.719 651.68 147.403 651.68C149.258 651.68 148.965 648.75 147.012 646.504C145.352 644.746 145.352 644.648 147.012 643.379C149.258 641.719 149.063 640.352 146.524 639.57C142.715 638.594 142.032 638.887 141.055 641.914Z" fill="black"/>
<path d="M104.531 647.097C101.113 649.831 101.113 650.71 104.433 650.71C105.8 650.71 107.851 651.393 108.828 652.37C110.488 653.835 110.683 653.835 112.539 652.175C118.3 646.999 110.586 642.116 104.531 647.097Z" fill="black"/>
<path d="M114.297 652.754C112.148 653.926 111.953 658.516 114.004 658.516C114.785 658.516 115.664 657.441 116.055 656.074C116.934 652.656 116.348 651.582 114.297 652.754Z" fill="black"/>
<path d="M126.016 837.324C124.062 838.691 123.281 840.254 123.281 842.207C123.281 845.332 124.648 845.918 126.016 843.477C126.992 841.621 133.242 842.402 135.098 844.648C135.684 845.43 136.855 846.016 137.539 846.016C139.688 846.016 139.102 842.109 136.367 838.496C133.438 834.688 130.02 834.297 126.016 837.324Z" fill="black"/>
<circle cx="257" cy="755" fill="#5CE50D"/>
<circle cx="470" cy="374" fill="#E52A0D"/>
<circle cx="179" cy="548" fill="#E52A0D"/>
<circle cx="376" cy="916" fill="#E52A0D"/>
</svg>
