<svg width="1000" height="1000" viewBox="0 0 1000 1000" fill="none" xmlns="http://www.w3.org/2000/svg">
<rect width="1000" height="1000" />
<path d="M589.855 1.66797C588.878 2.74219 588.488 6.16016 588.39 12.6055C588.39 23.543 586.339 29.793 580.577 36.8242C572.667 46.4922 554.406 58.6016 547.765 58.6016C546.3 58.6016 540.831 57.625 535.558 56.5508L526.085 54.4023L520.812 57.1367C515.245 60.0664 514.171 59.9688 508.702 55.4766L505.968 53.3281L496.105 55.0859C486.535 56.7461 485.949 56.7461 480.968 55.0859L475.792 53.3281L470.421 56.9414C467.394 58.8945 464.464 60.5547 463.878 60.5547C463.292 60.5547 459.679 59.1875 455.87 57.5273C449.23 54.5977 448.644 54.5 444.445 55.6719C436.632 57.8203 435.558 57.918 431.554 56.0625C427.648 54.3047 427.55 54.3047 421.593 56.4531C418.37 57.625 414.464 58.6016 412.999 58.6016C409.679 58.6016 393.273 71.3945 389.367 76.9609C387.902 79.1094 386.437 82.7227 386.144 84.9688C385.656 88.582 384.874 89.6562 379.503 93.8555C374.23 97.957 373.156 99.4219 371.202 104.695C368.077 113.289 358.8 122.371 350.89 124.617C347.765 125.496 344.933 126.766 344.347 127.352C343.859 128.035 343.468 132.234 343.663 136.531L344.054 144.539L346.593 143.953L349.23 143.27L346.007 146.688L342.785 150.105L343.468 157.82C343.761 162.215 343.566 167.488 342.98 169.93L342.003 174.324L347.96 179.891C351.281 183.016 354.308 185.555 354.796 185.555C355.187 185.555 355.577 185.945 355.577 186.531C355.577 188.387 352.745 187.508 346.495 183.602C343.077 181.453 339.757 178.523 339.171 177.156C338.488 175.789 337.999 171.688 337.999 167.977C337.999 164.168 337.706 161.141 337.316 161.141C336.827 161.238 335.46 161.824 334.093 162.605C330.87 164.461 326.867 164.461 323.253 162.605C320.617 161.238 320.324 161.238 319.738 162.703C318.175 166.902 321.105 180.184 326.085 191.414C328.82 197.566 331.359 204.305 331.652 206.258C332.238 209.383 332.726 209.969 334.777 209.969C337.218 209.969 337.218 209.969 333.702 213.875C331.749 216.023 330.187 218.074 330.187 218.562C330.187 218.953 331.749 220.32 333.702 221.688C336.925 223.836 337.218 224.324 336.73 227.742C336.242 231.648 337.413 233.406 339.269 231.551C340.734 230.086 341.906 230.184 345.617 232.43L348.839 234.383L346.886 237.215C345.714 238.777 344.835 240.633 344.835 241.414C344.835 242.195 347.667 244.344 351.183 246.199C358.019 249.812 358.8 251.473 353.527 251.375C351.671 251.375 350.011 251.57 349.718 251.863C348.644 253.133 341.71 255.867 340.929 255.379C339.855 254.695 339.269 261.727 339.757 268.758C340.148 273.543 340.441 274.324 341.613 273.348C344.054 271.199 345.226 273.738 344.054 278.523L342.98 282.723L348.058 277.059C353.527 270.906 356.847 269.93 361.242 273.055C364.269 275.203 363.976 276.863 359.581 280.281C356.066 283.113 355.87 283.602 356.261 287.508C356.652 290.242 356.261 292.684 355.187 294.734C353.527 297.859 353.527 297.859 356.163 297.859C357.531 297.859 359.972 298.641 361.535 299.52C363.976 300.984 364.171 301.375 362.902 302.742C361.632 304.109 362.218 304.988 367.589 310.652C375.597 319.051 376.867 319.734 381.066 317.586C383.702 316.316 384.484 315.242 384.679 312.703C384.972 309.383 385.753 308.895 387.609 310.75C389.464 312.605 388.976 316.902 386.535 319.148C385.363 320.32 381.359 322.566 377.843 324.227C371.105 327.156 368.956 329.402 367.785 334.285C366.613 338.777 365.441 338.191 363.878 332.332C360.363 319.93 358.312 314.656 355.773 311.629C353.429 308.797 352.16 308.211 346.788 307.43C341.124 306.648 340.343 306.746 339.171 308.406C337.999 310.164 337.804 310.066 334.288 306.746C332.238 304.793 327.355 301.277 323.449 298.934L316.32 294.734L313.585 297.957C310.656 301.57 310.753 302.449 314.855 306.844C316.613 308.699 316.906 309.578 316.027 309.969C315.245 310.262 314.562 311.434 314.367 312.703C314.074 314.656 313.683 314.363 311.339 310.359C308.214 304.891 306.261 303.719 301.183 303.719C297.081 303.816 290.05 306.453 293.566 306.551C296.691 306.648 300.109 309.578 299.425 311.336C299.035 312.41 300.011 313.973 302.55 316.023L306.261 319.148L304.503 322.664C303.624 324.715 301.476 327.059 299.913 327.938C298.351 328.816 296.984 330.086 296.984 330.574C296.984 331.16 296.3 332.625 295.421 333.797C294.054 335.848 293.663 335.945 292.199 334.578C290.734 333.309 290.636 333.504 290.636 336.727C290.636 340.633 288.39 342 285.753 339.852C283.507 337.996 283.8 329.695 286.144 328.035C287.902 326.668 287.902 326.57 286.242 322.762L284.581 318.855L282.335 323.934C279.503 330.379 274.62 331.941 272.96 326.961C272.57 325.691 272.081 325.301 271.495 325.887C270.91 326.473 271.007 327.84 271.788 329.5C272.765 331.844 272.765 332.332 271.3 333.113C269.152 334.383 269.152 335.652 271.495 336.434C273.742 337.117 274.913 339.852 273.644 341.121C272.96 341.805 271.788 341.707 270.031 340.926C267.687 339.852 267.101 340.047 264.562 342.488C260.558 346.297 259.679 348.25 260.46 351.863L261.046 354.891L262.511 352.254C263.878 349.52 263.878 349.52 266.808 351.277C271.202 353.914 272.863 356.062 272.081 358.309C271.593 359.871 270.617 360.359 268.077 360.359C265.734 360.359 264.757 360.848 264.757 361.824C264.757 364.168 267.101 363.582 272.667 359.871C278.136 356.16 280.382 356.062 280.382 359.48C280.382 360.652 281.945 363.289 283.8 365.34C287.511 369.441 288.195 373.152 285.753 376.375C283.898 378.816 283.898 381.844 285.753 381.844C288.39 381.844 290.343 387.605 290.831 397.273C291.32 404.988 291.808 407.137 293.859 410.262C296.007 413.582 296.788 414.07 300.109 414.07C302.452 414.07 303.82 413.582 303.82 412.801C303.82 412.215 300.695 401.277 296.984 388.68C290.441 366.609 289.074 360.164 291.027 358.895C292.98 357.723 295.031 362.703 295.031 368.465C295.031 372.176 295.421 374.227 296.3 374.422C296.886 374.617 298.839 375.203 300.597 375.691C304.113 376.863 304.796 376.082 304.796 370.711C304.796 367.195 307.14 363.289 309.288 363.289C310.656 363.289 311.144 366.609 310.949 373.25C310.851 374.812 311.242 375.984 311.73 375.984C313.195 375.984 312.706 378.133 311.046 379.402C309.581 380.379 309.679 381.16 311.535 387.801C312.706 391.902 313.585 397.859 313.585 401.18C313.585 405.672 313.976 407.43 315.05 407.82C316.808 408.504 316.906 411.336 315.343 415.828C314.269 418.66 314.269 419.344 315.343 419.734C317.296 420.32 323.351 425.789 323.351 426.961C323.351 427.449 322.081 428.328 320.421 428.816C318.761 429.402 317.492 430.281 317.492 430.867C317.492 431.355 318.859 433.699 320.421 435.945L323.449 440.047L321.398 450.594C320.226 456.453 319.445 461.238 319.64 461.434C319.835 461.531 321.691 462.605 323.839 463.68C329.406 466.414 336.046 473.836 336.046 477.254C336.144 481.062 342.296 489.266 345.031 489.266C346.202 489.266 348.351 488.094 349.816 486.727C352.355 484.285 368.273 478.035 368.273 479.5C368.273 480.867 363.683 484.383 359.191 486.336C356.554 487.508 354.21 489.07 353.917 489.852C353.038 492.195 350.597 492.977 336.925 495.125C329.699 496.297 323.644 497.469 323.449 497.664C323.253 497.859 325.206 498.445 327.648 499.129C332.921 500.398 334.386 502.449 333.898 507.625C333.605 510.75 333.898 511.238 335.753 511.531C336.925 511.727 339.269 511.141 341.027 510.262C343.761 508.797 344.933 508.797 349.816 509.773C355.089 510.945 355.675 510.848 358.898 508.895C360.851 507.625 363.292 506.844 364.464 507.039C366.417 507.332 366.222 507.723 362.12 511.922C358.41 515.828 356.945 516.609 352.843 517.195C345.714 518.074 344.738 519.051 348.156 521.98C349.718 523.25 352.745 525.008 354.796 525.984C358.019 527.449 358.507 528.035 358.507 530.965C358.507 534.676 357.238 535.066 353.624 532.234C351.769 530.77 349.62 530.281 344.152 530.281H337.12L335.07 534.871C332.531 540.73 328.136 545.32 322.667 547.957C318.37 550.008 310.656 557.82 310.656 560.164C310.656 560.848 311.827 562.703 313.195 564.363C316.124 567.879 317.98 568.074 326.476 565.828C333.995 563.973 336.827 564.266 339.269 567.586C341.32 570.418 340.929 574.617 338.781 572.469C337.023 570.711 334.386 571.102 332.824 573.25C331.847 574.715 329.699 575.398 324.62 576.082C320.812 576.57 316.906 577.449 315.831 577.938C312.999 579.5 309.093 584.969 305.187 592.977C302.55 598.445 301.867 600.887 302.257 603.523C302.648 606.258 302.355 607.234 300.988 608.113C299.913 608.797 298.449 611.434 297.57 613.973C296.691 616.512 293.956 621.688 291.613 625.398C289.171 629.109 287.218 632.625 287.218 633.211C287.218 633.895 287.902 635.359 288.781 636.629C290.05 638.484 291.027 638.777 293.566 638.387C296.691 637.898 296.788 637.996 297.374 641.805C297.863 645.027 299.23 646.98 304.015 651.57L309.972 657.43L308.8 661.141C307.628 664.949 302.941 670.906 300.988 670.906C299.62 670.906 299.62 669.246 300.89 668.465C302.257 667.586 297.863 660.164 296.007 660.164C295.128 660.164 293.468 659.48 292.296 658.602C290.538 657.43 290.148 656.16 290.148 652.156C290.148 648.25 289.855 647.469 288.878 648.25C288.195 648.836 285.753 649.422 283.312 649.617C279.113 649.91 277.843 650.984 276.183 655.672C275.988 656.16 275.011 655.965 273.937 655.281C271.495 653.719 265.538 654.695 263.683 656.844C262.609 658.113 262.999 658.895 266.32 661.629C268.37 663.484 271.105 664.949 272.277 665.047C273.546 665.047 275.402 665.926 276.574 667.098L278.624 669.148L280.773 667.098C281.945 665.926 283.898 665.047 285.07 665.047C286.827 665.047 287.218 664.461 287.218 662.02C287.218 659.676 287.511 659.09 288.781 659.578C289.66 659.871 290.538 660.164 290.734 660.164C290.929 660.164 291.124 661.727 291.124 663.582C291.124 666.805 291.32 667 294.445 667C296.593 667 297.96 667.586 298.351 668.562C299.035 670.418 299.132 670.223 296.3 671.785C294.835 672.566 294.054 673.836 294.054 675.594C294.054 678.133 294.249 678.23 298.351 677.938L302.648 677.547L301.281 683.309C299.523 690.828 299.62 694.539 301.574 698.738L303.234 702.156L299.62 705.867C297.667 707.918 296.007 710.555 296.007 711.727C296.007 714.363 296.105 714.363 300.89 711.922C305.675 709.48 306.847 709.48 311.73 711.922L315.636 713.973L317.492 711.727L319.347 709.48L319.445 712.508C319.445 715.438 317.003 718.758 314.855 718.758C314.269 718.758 313.292 718.074 312.609 717.293C311.925 716.512 309.972 715.828 308.312 715.828C304.406 715.828 296.3 719.441 297.57 720.613C298.058 721.102 301.671 722.469 305.577 723.641C312.706 725.691 316.515 728.23 316.515 730.965C316.515 731.746 317.394 732.82 318.468 733.406C321.593 735.066 320.714 736.336 316.515 736.336C314.367 736.336 312.609 736.727 312.609 737.312C312.609 737.801 312.023 738.289 311.242 738.289C309.972 738.289 308.702 735.75 307.238 730.672C306.945 729.5 305.87 728.523 304.992 728.523C304.113 728.523 302.452 728.23 301.378 727.938C299.816 727.547 299.035 728.23 297.667 730.965C295.031 736.531 295.519 737.703 302.452 743.27C309.972 749.227 309.679 751.277 301.671 748.25C295.226 745.906 292.785 742.488 291.124 733.699C289.562 725.398 287.706 720.711 285.949 720.711C284.288 720.711 280.382 730.867 280.382 735.066C280.382 736.727 281.261 739.168 282.433 740.633C283.702 742.195 284.288 744.051 283.995 745.32C283.214 748.055 287.023 751.668 291.515 752.449C293.566 752.938 295.91 754.207 297.081 755.672C298.546 757.625 299.23 757.918 299.816 756.941C300.89 755.184 304.015 756.258 307.628 759.773C310.167 762.02 310.656 763.289 310.656 766.902C310.656 769.246 310.949 772.664 311.242 774.324C311.827 776.863 312.316 777.352 314.66 777.352C317.199 777.352 317.492 777.645 317.492 780.672C317.492 782.527 317.003 784.383 316.515 784.676C315.929 784.969 314.855 786.629 313.976 788.191C312.609 791.023 312.609 791.023 314.367 789.949C317.882 787.801 319.445 789.461 319.445 795.418C319.445 798.348 319.64 800.789 319.933 800.789C320.226 800.789 321.788 799.812 323.351 798.738C324.913 797.566 326.769 796.883 327.648 797.176C329.699 797.957 330.382 796.492 331.066 789.656L331.652 783.699L338.097 780.281C346.105 776.082 347.765 774.617 347.081 772.859C346.788 772.176 347.277 771.199 348.156 770.906C351.085 769.734 353.722 762.898 354.308 754.988C354.992 745.418 355.773 743.953 357.824 748.348C358.995 750.789 359.484 754.402 359.484 761.141V770.418L363.097 772.957C367.394 775.789 369.835 776.082 372.374 773.738C373.839 772.469 374.62 772.371 376.671 773.25C379.894 774.812 379.699 774.812 380.48 771.492C380.968 769.051 381.554 768.562 383.019 769.051C384.679 769.637 384.874 769.148 384.874 763.875C384.874 759.383 385.265 757.723 386.827 756.355C388.292 754.988 388.488 754.305 387.609 753.23C386.827 752.254 386.827 751.277 387.706 749.422C388.292 748.055 388.781 746.199 388.781 745.223C388.781 744.051 391.222 741.805 395.324 739.168C399.035 736.824 403.624 733.406 405.577 731.648C408.702 728.816 409.484 728.523 411.339 729.5C414.66 731.355 417.687 729.305 420.519 723.25C423.644 716.707 425.109 716.023 428.136 719.832L430.382 722.762L432.921 720.711C436.339 718.074 437.316 718.27 439.074 721.688C440.929 725.301 440.929 728.816 438.976 733.016C437.609 735.848 436.925 736.336 434.093 736.336C430.87 736.336 430.773 736.238 430.773 732.43C430.773 730.281 430.382 728.523 429.796 728.523C428.136 728.523 425.597 734.676 425.499 738.973C425.402 742.879 425.206 743.172 422.765 743.172C420.812 743.172 420.031 742.684 419.933 741.414C419.933 740.438 419.249 741.121 418.273 743.27C417.394 745.125 414.757 748.836 412.511 751.473C410.167 754.012 408.312 756.453 408.312 756.844C408.312 757.137 409.386 758.504 410.753 759.773C413.097 761.922 413.488 762.02 416.417 760.848C424.327 757.625 425.499 758.113 433.41 768.074L436.437 771.98L438.781 769.93C439.952 768.758 442.882 766.902 445.128 765.73C448.546 763.973 452.257 759.676 452.257 757.332C452.257 757.039 450.988 756.844 449.327 756.844C446.495 756.844 445.421 755.574 447.374 754.402C447.96 754.109 448.351 753.328 448.351 752.84C448.351 752.254 447.081 752.742 445.519 753.914C442.394 756.062 442.101 755.867 441.124 751.766C440.636 749.617 441.027 748.738 442.882 747.566C445.031 746.102 445.519 746.199 449.718 748.25C453.527 750.008 454.601 750.203 456.163 749.227C457.726 748.25 458.214 748.348 459.093 750.008C460.753 753.035 463.976 750.887 463.976 746.785C463.976 744.148 463.488 743.367 460.949 742.488C458.702 741.609 458.117 740.926 458.507 739.461C458.995 738.094 457.921 736.824 453.82 733.992C450.109 731.453 448.253 729.5 447.863 727.449C447.472 725.887 446.788 724.422 446.3 724.129C444.64 723.055 445.421 720.027 447.667 718.465C449.816 717 449.816 717 447.863 715.438C445.91 713.875 445.91 713.875 447.96 712.117L450.011 710.457L447.179 707.625C444.054 704.5 444.152 703.328 447.374 705.086C449.23 706.062 450.011 705.867 452.452 704.109C454.503 702.547 456.359 702.059 459.386 702.352C463.39 702.645 463.488 702.547 463.781 699.422C463.976 697.762 464.464 696.297 464.855 696.297C465.245 696.297 467.003 697.762 468.761 699.617C471.593 702.547 471.984 703.426 471.398 706.258C470.91 708.992 471.105 709.676 472.96 710.457C474.913 711.336 479.503 717.977 479.601 719.93C479.601 720.223 478.527 721.883 477.16 723.445C475.402 725.594 475.109 726.57 475.988 727.449C476.867 728.328 476.867 729.012 475.89 730.477C475.304 731.551 474.718 733.699 474.718 735.359C474.718 737.898 475.109 738.289 477.452 738.289C478.917 738.289 481.163 738.973 482.335 739.852C484.874 741.609 484.874 741.609 483.019 734.285C481.359 727.84 481.652 726.766 486.242 722.273L489.269 719.539L491.906 721.59C496.788 725.398 502.062 723.152 502.062 717.195C502.062 715.633 502.745 711.922 503.527 708.992C504.308 706.062 504.992 703.035 504.992 702.352C504.992 700.887 495.617 700.691 494.738 702.156C493.859 703.523 486.827 707.039 484.972 707.039C482.921 707.039 477.55 698.348 477.745 695.32C477.843 693.953 477.55 692.098 477.16 691.121C475.695 687.703 478.136 687.02 483.41 689.363C486.046 690.438 488.781 691.414 489.464 691.414C490.148 691.414 492.882 688.973 495.714 686.043C501.281 680.086 503.429 679.5 507.921 682.82C510.656 684.773 510.949 684.773 512.609 683.309C514.757 681.355 517.394 681.16 517.882 682.82C518.761 685.359 523.449 681.844 525.988 676.668L528.527 671.688L530.48 673.738C531.847 675.203 533.605 675.789 536.73 675.789C541.906 675.789 542.394 674.422 538.585 669.93C535.656 666.414 536.437 664.07 539.952 665.926C543.175 667.586 543.761 667.195 544.445 663.094C544.835 660.359 545.519 659.188 546.593 659.188C547.96 659.188 548.058 659.871 547.472 662.898C547.081 664.852 546.788 667.586 546.886 668.953C547.179 672.762 547.179 680.965 546.788 683.602C546.495 685.848 546.886 686.043 551.281 686.629C554.894 687.02 556.554 687.801 558.117 689.754C559.288 691.219 561.144 692.391 562.316 692.391C565.05 692.391 569.445 688.777 569.445 686.434C569.445 684.871 570.128 684.578 574.425 684.578C579.015 684.578 579.406 684.773 580.382 687.508C581.554 690.926 583.507 690.926 583.898 687.41C584.288 684.285 586.144 679.695 587.023 679.695C588.976 679.695 593.859 687.996 593.859 691.414C593.859 693.172 593.468 693.367 590.441 692.781C587.511 692.293 587.023 692.488 587.023 693.953C587.023 695.418 587.804 695.809 590.245 695.809C591.906 695.809 595.226 696.199 597.374 696.59L601.378 697.273L602.55 691.316C603.429 687.117 603.429 685.066 602.745 684.188C601.964 683.211 602.16 682.43 603.624 681.16C605.48 679.5 605.48 679.402 603.038 677.449C599.913 675.008 601.281 673.836 607.238 673.836C612.413 673.836 613.488 672.176 610.07 669.246C606.652 666.316 605.187 666.414 599.523 670.027C596.886 671.688 594.445 672.859 594.152 672.469C593.761 672.176 594.249 670.32 595.128 668.465C597.277 663.973 602.55 661.336 606.066 662.898C610.167 664.754 610.656 664.266 608.507 660.164C605.87 654.988 605.968 654.402 609.777 654.598C611.437 654.695 614.855 654.402 617.296 654.012C621.105 653.426 622.081 653.621 624.425 655.77C627.16 658.211 627.16 658.309 625.597 660.75C623.644 663.777 623.839 663.973 627.843 662.898C631.945 661.824 631.945 659.676 627.55 650.984C623.839 643.758 623.253 638.777 625.695 636.336C628.136 633.797 629.992 634.383 629.406 637.41C628.722 641.023 632.14 648.836 633.702 647.273C634.484 646.492 635.167 646.492 636.242 647.371C637.023 648.055 639.074 648.445 640.831 648.25C644.152 647.957 644.347 648.152 646.202 655.184C646.495 656.062 647.57 656.258 649.816 655.867C659.777 654.012 659.777 654.012 662.902 656.648C664.562 658.016 667.101 659.188 668.468 659.188C670.519 659.188 671.3 658.406 672.57 655.281C674.425 650.691 676.281 651.082 675.695 655.965C675.402 658.699 675.499 659.09 676.378 657.918C676.964 657.039 678.722 656.258 680.382 656.062C683.019 655.77 683.214 656.062 683.507 659.188C683.995 663.973 685.167 664.754 687.218 661.531C688.195 659.969 689.171 658.504 689.367 658.211C689.464 658.016 690.05 658.406 690.441 659.09C691.124 660.164 691.613 659.871 692.492 658.113C694.249 654.793 698.449 650.398 700.011 650.398C700.695 650.398 701.281 651.277 701.281 652.352C701.281 653.426 701.867 654.305 702.648 654.305C703.429 654.305 704.796 654.598 705.577 654.891C706.945 655.477 707.14 654.793 706.554 650.008L705.87 644.539H711.339C716.124 644.539 717.003 644.246 719.249 641.512C720.617 639.852 722.96 636.531 724.327 634.09C726.574 630.477 726.769 629.402 725.792 627.645C724.816 625.887 724.913 624.812 726.085 622.566C726.964 620.906 727.648 618.66 727.648 617.391C727.648 615.926 728.234 615.242 729.601 615.242C730.675 615.242 733.214 613.68 735.363 611.824C737.413 609.969 739.855 608.406 740.734 608.406C742.101 608.406 742.199 608.016 741.32 606.453C740.538 604.988 740.538 603.523 741.515 601.082C742.394 598.543 742.394 596.688 741.71 593.855C740.734 590.34 740.831 589.949 742.882 588.973C745.91 587.605 747.667 581.355 745.714 579.109C744.933 578.23 744.249 576.766 744.249 575.887C744.249 572.859 747.277 575.398 750.011 580.867L752.745 586.238L754.992 578.035C757.628 568.562 757.824 564.266 755.968 559.969C754.796 557.137 754.992 556.062 758.8 545.906C761.535 538.484 762.706 533.992 762.316 532.332C761.925 530.477 762.609 528.133 764.757 524.422C767.687 518.953 768.566 514.168 766.613 513.484C765.734 513.191 765.831 512.508 766.808 511.043C767.785 509.383 767.785 508.406 766.906 506.355C765.831 504.109 766.027 503.523 767.98 501.668C769.249 500.496 770.617 497.957 771.007 496.102C771.3 494.246 772.57 490.926 773.644 488.777C775.499 485.359 775.597 484.383 774.62 480.672C773.937 478.426 773.156 476.57 772.765 476.57C772.374 476.57 770.617 478.621 768.761 480.965C764.171 487.215 757.921 493.172 756.163 493.172C755.382 493.172 752.55 491.023 750.011 488.387C744.347 482.625 743.663 479.109 747.96 477.352C754.894 474.422 755.675 471.102 750.597 467.195C747.96 465.242 747.179 463.875 747.179 461.531C747.179 459.773 746.495 457.527 745.714 456.453C743.859 454.012 743.859 452.156 745.714 450.789C746.886 449.91 746.984 449.031 746.202 446.297C745.714 444.441 745.226 439.852 745.226 436.141C745.226 430.379 745.812 428.23 749.035 421.004C755.382 407.332 756.652 393.953 752.55 385.75C748.839 378.426 749.23 374.812 754.796 366.805C758.995 360.652 759.386 359.676 759.386 354.109C759.386 349.324 758.605 346.395 755.675 339.559C752.843 333.113 751.671 328.719 750.988 322.469C749.913 311.336 749.913 300.105 751.085 296.004C751.867 293.172 751.671 292.195 749.23 288.68C742.101 278.328 738.488 268.074 740.343 263.582C742.101 259.383 741.027 256.844 734.581 250.203C729.992 245.418 728.624 243.27 727.648 239.07C726.671 235.164 725.206 232.723 721.593 228.914C719.054 226.18 716.906 223.348 716.906 222.566C716.906 221.785 714.269 217.195 711.046 212.41C705.48 204.109 703.917 200.203 706.163 200.203C708.312 200.203 706.847 197.566 701.183 191.707C695.519 185.848 695.226 185.262 695.91 182.039C696.593 178.035 696.593 178.035 681.652 160.555C671.3 148.445 667.003 142.586 660.363 131.844C657.531 127.254 650.988 117.684 645.714 110.652C632.726 92.6836 629.406 87.0195 628.624 80.9648C627.648 73.6406 615.343 45.125 609.288 36.3359C607.726 33.9922 606.652 31.4531 606.945 30.7695C607.238 29.9883 606.652 28.9141 605.577 28.3281C604.406 27.7422 603.331 25.3984 602.648 21.7852C600.695 12.5078 594.835 0.0078125 592.296 0.0078125C591.71 0.0078125 590.538 0.691406 589.855 1.66797Z" fill="black"/>
<path d="M297.57 152.539C294.152 155.567 292.492 163.965 294.445 167.871C295.226 169.336 296.594 171.094 297.375 171.778C298.254 172.461 299.816 174.61 300.988 176.465L303.039 179.785L300.5 182.52C299.133 183.985 297.961 186.035 297.961 187.207C297.961 190.723 300.5 191.797 309.387 191.895C317.101 192.09 317.785 191.895 319.152 189.746C320.519 187.598 320.519 186.524 318.566 176.172C315.734 160.938 313.391 154.883 309.289 152.344C304.992 149.805 300.695 149.805 297.57 152.539Z" fill="black"/>
<path d="M274.523 154.888C273.937 156.255 273.547 158.306 273.547 159.38C273.547 160.943 273.937 161.236 275.793 160.65C276.965 160.357 279.699 159.576 281.848 159.087C288.977 157.329 290.051 154.888 284.582 153.423C278.234 151.665 275.598 152.056 274.523 154.888Z" fill="black"/>
<path d="M284.875 165.923C283.703 167.778 285.168 172.466 288.293 176.763C290.734 180.181 291.418 180.571 293.078 179.692C295.812 178.227 295.519 175.591 292.297 172.759C290.832 171.391 288.683 169.048 287.609 167.485C286.242 165.63 285.363 165.141 284.875 165.923Z" fill="black"/>
<path d="M313.976 208.699C312.414 210.652 310.656 211.434 306.261 212.02C300.109 212.801 295.226 216.316 296.3 219.148C296.984 220.711 303.82 224.617 306.164 224.617C306.945 224.617 309.289 222.664 311.437 220.223C313.585 217.781 315.636 215.828 315.929 215.828C316.32 215.828 318.859 214.852 321.496 213.777C325.5 212.02 326.085 211.434 325.109 210.262C324.425 209.48 323.058 208.406 321.886 208.016C316.808 206.16 316.027 206.258 313.976 208.699Z" fill="black"/>
<path d="M325.793 253.035C325.011 254.207 323.449 264.656 324.035 264.656C324.328 264.656 325.207 263.973 326.086 263.094C327.062 262.02 327.746 261.824 328.039 262.605C328.527 263.973 331.847 263.973 332.629 262.605C333.117 261.922 333.996 262.215 335.168 263.289C336.925 264.852 337.023 264.852 337.023 263.289C337.023 261.629 328.625 251.961 327.16 251.961C326.769 251.961 326.086 252.449 325.793 253.035Z" fill="black"/>
<path d="M307.434 253.615C307.043 253.908 306.75 255.47 306.75 257.033C306.75 260.158 308.605 260.646 311.535 258.107C313 256.935 313.293 256.056 312.512 254.689C311.535 252.931 308.703 252.345 307.434 253.615Z" fill="black"/>
<path d="M254.113 257.033C253.527 258.693 253.82 259.963 255.285 261.916C257.824 265.334 260.168 265.431 262.218 262.209C263.879 259.767 263.879 259.67 260.363 258.303C258.508 257.424 256.945 256.349 256.945 255.861C256.945 254.006 254.894 254.885 254.113 257.033Z" fill="black"/>
<path d="M257.238 649.909C256.945 650.788 254.602 652.546 251.965 653.913C247.863 655.964 247.18 656.745 247.18 659.089C247.18 662.897 251.77 666.413 255.383 665.436C257.727 664.851 257.922 664.362 257.922 659.87C257.922 656.061 258.41 654.401 260.07 652.644C261.926 650.69 262.023 650.202 260.852 649.421C258.801 648.054 257.922 648.249 257.238 649.909Z" fill="black"/>
<path d="M263.293 665.434L260.363 666.704L264.562 667.973C269.055 669.34 270.617 668.755 269.055 666.313C267.688 664.067 266.711 663.969 263.293 665.434Z" fill="black"/>
<path d="M641.711 672.76C641.711 676.373 638.586 680.182 633.801 682.623C631.75 683.697 629.992 684.869 629.992 685.162C629.992 685.455 631.066 687.018 632.433 688.678C636.144 693.072 635.558 696.002 631.359 694.147C629.601 693.268 628.43 693.365 626.574 694.342C624.426 695.514 623.84 695.416 621.789 693.463C618.957 690.826 616.32 691.315 613.39 695.025C610.656 698.541 610.949 700.299 614.855 704.108C616.711 705.963 618.273 706.94 618.273 706.451C618.273 705.865 620.031 704.4 622.277 703.229L626.183 700.983L628.625 703.229C631.555 705.963 631.555 707.135 628.527 710.748C626.086 713.678 626.086 713.775 628.039 714.361C630.285 715.045 630.48 716.022 628.918 718.854C628.137 720.514 628.234 721.1 629.601 722.174C631.164 723.248 631.164 723.639 629.992 725.104C628.82 726.471 628.82 726.861 630.09 727.643C631.066 728.229 632.043 727.74 633.605 725.787C636.144 722.76 636.437 720.709 634.68 718.854C633.605 717.877 633.898 717.193 636.047 715.338C637.512 714.068 638.976 711.92 639.367 710.553C639.855 708.404 640.246 708.209 641.906 709.088C644.348 710.455 647.375 709.381 645.812 707.818C643.859 705.865 644.543 702.838 647.375 700.592L650.012 698.443L647.473 698.932C644.348 699.518 642.883 696.881 644.933 694.44C647.375 691.705 647.57 687.213 645.519 682.721C643.469 677.936 643.176 674.713 644.738 673.15C646.008 671.881 645.129 669.928 643.078 669.928C642.199 669.928 641.711 670.904 641.711 672.76Z" fill="black"/>
<path d="M258.116 671.688C257.238 672.371 257.335 672.957 258.898 674.324C259.972 675.301 260.851 676.668 260.851 677.449C260.851 678.133 261.534 678.719 262.316 678.719C263.39 678.719 263.781 677.645 263.781 674.812C263.781 671.395 263.488 670.906 261.632 670.906C260.363 670.906 258.8 671.297 258.116 671.688Z" fill="black"/>
<path d="M287.804 682.13C288.488 684.473 291.808 688.087 292.589 687.306C292.882 687.013 293.37 685.255 293.663 683.497C294.249 680.274 294.152 680.177 290.734 680.177C287.706 680.177 287.316 680.47 287.804 682.13Z" fill="black"/>
<path d="M249.914 687.307C249.523 688.772 248.352 689.65 246.301 690.041C243.957 690.529 243.273 691.213 243.273 692.971C243.273 694.143 243.762 695.51 244.25 695.803C244.836 696.096 245.227 697.268 245.227 698.342C245.227 700.588 246.301 700.686 250.012 698.732C253.527 696.975 254.113 693.85 252.062 688.967C250.598 685.549 250.402 685.354 249.914 687.307Z" fill="black"/>
<path d="M519.738 690.139C518.176 692.092 515.832 695.51 514.66 697.756L512.512 701.857L515.539 708.498C518.957 715.627 519.25 717.385 517.492 717.971C516.516 718.361 516.516 718.947 517.395 720.998C518.371 723.146 519.25 723.635 522.18 723.635C525.5 723.635 525.598 723.537 525.012 720.803C524.23 717.092 526.672 714.65 530.773 715.041C533.703 715.334 533.801 715.529 533.801 719.924C533.898 725.099 535.656 728.029 537.219 725.588C538.098 724.318 538.293 724.318 539.074 725.588C539.953 726.76 540.148 726.76 540.637 725.392C541.027 724.514 542.004 724.025 543.078 724.318C544.641 724.709 545.129 723.732 546.496 717.385C547.766 711.721 547.863 709.572 547.082 708.596C545.129 706.349 540.93 706.154 537.023 708.107C532.434 710.451 530.773 710.451 530.09 708.01C529.797 706.74 528.723 706.056 527.16 706.056C525.012 706.056 524.719 705.568 524.133 700.978C523.449 696.291 523.645 695.705 525.891 694.045C528.625 692.092 529.113 689.553 527.258 687.697C525.207 685.646 522.766 686.428 519.738 690.139Z" fill="black"/>
<path d="M284.289 692.094C284.191 695.609 282.433 697.953 279.211 698.734C277.746 699.125 275.793 700.297 274.816 701.371C273.058 703.422 273.058 703.422 277.941 702.738C280.676 702.348 284.094 701.371 285.656 700.59C289.172 698.93 291.027 700.101 290.344 703.715C290.051 705.277 290.441 706.644 291.223 707.133C293.664 708.598 294.055 708.109 294.055 703.715C294.055 699.711 293.859 699.32 291.223 698.734C288.488 698.148 288.391 697.953 289.269 695.512C290.148 693.363 289.953 692.68 288 691.215C284.973 688.871 284.289 689.066 284.289 692.094Z" fill="black"/>
<path d="M538.488 691.603C537.414 692.872 535.754 695.021 534.875 696.485C533.312 698.927 533.312 699.22 534.777 701.564C536.047 703.419 537.316 704.103 539.66 704.103C541.418 704.103 544.836 704.396 547.375 704.689C551.183 705.274 551.867 705.079 551.867 703.712C551.867 702.833 551.183 701.857 550.402 701.564C549.621 701.173 548.937 700.392 548.937 699.708C548.937 699.122 548.058 697.755 546.887 696.681C545.226 695.118 544.738 695.118 543.957 696.29C543.273 697.364 543.176 696.485 543.566 693.556C544.152 689.942 543.957 689.454 542.394 689.454C541.32 689.454 539.562 690.431 538.488 691.603Z" fill="black"/>
<path d="M603.039 698.634C598.84 702.149 598.254 703.028 599.621 703.81C601.086 704.786 600.988 704.981 599.524 706.739C597.18 709.278 597.277 711.036 599.914 714.356C602.258 717.384 603.039 716.7 604.113 710.352C604.602 707.032 604.406 706.153 603.039 705.665C601.477 705.079 601.477 704.884 603.527 703.81C604.992 703.028 606.359 701.075 607.043 698.438C607.727 696.192 608.215 694.337 608.117 694.435C608.117 694.435 605.774 696.388 603.039 698.634Z" fill="black"/>
<path d="M250.89 705.085C251.378 708.308 251.671 708.503 255.577 707.038C258.116 706.062 258.116 705.964 256.456 704.109C255.48 703.034 253.722 702.156 252.55 702.156C250.792 702.156 250.499 702.644 250.89 705.085Z" fill="black"/>
<path d="M236.047 712.605C235.656 713.094 233.019 713.875 230.285 714.363C226.086 715.242 225.109 715.73 224.914 717.684C224.132 722.859 226.574 726.277 230.089 725.008C230.968 724.617 231.359 723.641 231.066 722.273C230.578 720.613 231.261 719.832 234.191 718.27C236.535 717 238 715.535 238.195 714.07C238.488 711.922 237.414 711.238 236.047 712.605Z" fill="black"/>
<path d="M254.113 719.926C253.625 721.196 253.625 722.563 254.113 723.051C254.602 723.637 254.992 724.809 254.992 725.786C254.992 727.836 255.383 727.934 258.02 726.274C259.68 725.297 260.168 725.395 261.34 726.86C262.902 729.106 266.027 728.715 266.516 726.274C267.004 724.028 264.074 720.708 261.828 720.708C260.852 720.708 259.582 720.024 258.898 719.243C257.141 717.094 255.09 717.485 254.113 719.926Z" fill="black"/>
<path d="M231.262 727.641C229.797 729.301 228.625 731.059 228.625 731.449C228.625 731.84 230.188 733.109 232.043 734.184L235.363 736.234L237.414 733.012C239.953 728.715 239.855 727.152 236.926 725.785C235.559 725.102 234.289 724.613 234.191 724.613C233.996 724.613 232.727 725.98 231.262 727.641Z" fill="black"/>
<path d="M502.16 735.059C499.523 737.208 497.961 743.458 499.523 745.509C500.89 747.462 506.066 749.317 507.043 748.341C507.531 747.852 508.117 744.923 508.507 741.798C509.093 736.817 508.996 735.841 507.433 734.766C505.09 733.009 504.699 733.009 502.16 735.059Z" fill="black"/>
<path d="M241.808 745.514C240.832 751.96 243.273 755.475 247.082 753.034C248.351 752.252 248.254 751.374 246.691 746.686C245.617 743.659 244.25 741.217 243.664 741.217C242.98 741.217 242.101 743.073 241.808 745.514Z" fill="black"/>
<path d="M249.327 742.875C248.351 743.266 248.449 743.754 249.718 745.219C251.769 747.465 251.085 754.106 248.546 756.938C245.714 760.063 247.765 760.16 252.257 757.133C255.968 754.594 256.456 753.91 256.163 750.883C255.87 747.27 251.476 742.094 249.327 742.875Z" fill="black"/>
<path d="M279.601 756.551C279.797 759.773 279.601 760.164 276.965 761.043C270.617 763.094 258.508 773.836 255.871 779.598C254.601 782.332 256.066 786.141 258.41 786.141C259.094 786.141 261.047 787.215 262.609 788.582C264.269 789.949 266.222 791.023 267.004 791.023C267.785 791.023 270.91 789.949 273.937 788.582C279.894 785.945 282.336 785.555 283.898 787.117C284.582 787.801 284.777 787.215 284.484 785.262C284.191 783.016 284.582 782.137 286.242 781.258C288 780.379 288.586 780.379 289.172 781.258C289.758 782.137 290.441 781.648 291.418 779.695C293.664 775.301 296.203 765.828 295.617 763.973C295.324 762.996 293.176 761.043 290.832 759.578C288.488 758.113 285.754 755.965 284.777 754.891C283.801 753.816 282.14 752.938 281.164 752.938C279.601 752.938 279.308 753.523 279.601 756.551Z" fill="black"/>
<path d="M498.254 758.211L496.008 760.652L501.477 764.168C509.484 769.246 510.949 768.367 505.969 761.726C503.82 758.797 501.672 756.258 501.184 756.062C500.793 755.965 499.426 756.941 498.254 758.211Z" fill="black"/>
<path d="M456.261 759.083C455.48 760.158 455.48 761.427 456.456 764.259C457.53 767.189 458.409 768.165 460.362 768.361C461.827 768.556 463.683 768.263 464.562 767.775C465.929 766.994 465.733 766.603 463.097 765.04C461.437 764.064 460.069 762.501 460.069 761.622C460.069 759.083 457.628 757.521 456.261 759.083Z" fill="black"/>
<path d="M415.637 769.532C414.562 770.02 412.316 770.411 410.559 770.411C406.457 770.509 406.066 771.485 408.41 775.294C410.168 778.126 410.754 778.517 413.391 777.931C415.051 777.638 417.59 777.345 419.055 777.345C421.203 777.345 421.887 776.759 422.375 774.61C422.766 773.145 423.254 771.192 423.547 770.216C423.938 768.849 423.449 768.556 420.812 768.653C419.055 768.653 416.711 769.044 415.637 769.532Z" fill="black"/>
<path d="M458.898 771.583C456.554 772.852 456.652 774.122 459.093 774.903C460.167 775.294 461.73 776.856 462.609 778.419C463.78 780.762 464.464 781.251 466.222 780.665C467.394 780.372 468.761 779.688 469.152 779.298C470.616 777.93 468.761 774.317 465.636 772.364C462.12 770.313 461.241 770.118 458.898 771.583Z" fill="black"/>
<path d="M359.679 778.23C354.503 781.16 350.695 787.117 354.015 787.117C354.796 787.117 355.577 787.8 355.773 788.679C356.066 790.046 356.456 789.949 358.702 788.191C360.07 787.019 362.12 786.14 363.195 786.14C367.687 786.14 370.226 783.21 366.808 781.843C366.027 781.55 365.343 780.183 365.343 778.816C365.343 775.984 364.073 775.789 359.679 778.23Z" fill="black"/>
<path d="M339.953 785.457C336.926 786.922 336.438 789.949 338.488 793.953C340.539 797.859 347.375 802.742 350.891 802.742C352.356 802.742 353.625 802.645 353.625 802.449C353.625 800.887 346.399 786.336 345.129 785.457C343.078 783.895 342.981 783.895 339.953 785.457Z" fill="black"/>
<path d="M371.301 786.036C370.52 787.5 370.715 787.989 372.766 788.965C376.379 790.528 380.969 790.332 381.652 788.477C383.117 784.668 373.254 782.325 371.301 786.036Z" fill="black"/>
<path d="M364.855 792.976C364.562 793.464 362.902 794.245 361.144 794.734C356.554 795.905 357.14 798.249 362.023 798.64C364.952 798.835 366.32 799.519 366.905 800.886C367.784 802.644 367.98 802.644 371.398 799.812C374.913 796.882 375.011 796.687 373.351 795.027C371.398 792.976 365.734 791.609 364.855 792.976Z" fill="black"/>
<path d="M244.641 800.203C243.762 802.547 246.985 805.672 250.305 805.672C252.649 805.672 253.039 805.281 253.039 802.742C253.039 800.594 252.551 799.812 251.379 799.812C250.402 799.812 248.645 799.52 247.473 799.227C245.91 798.836 245.031 799.129 244.641 800.203Z" fill="black"/>
<path d="M323.351 819.535C323.351 821.879 323.937 823.539 325.109 824.222C326.476 825.101 326.183 825.199 323.644 824.808C321.105 824.418 320.128 824.711 318.468 826.859C316.124 829.789 316.222 833.304 318.663 833.793C319.542 833.988 321.788 832.718 323.644 831.156C325.499 829.496 327.745 828.129 328.624 828.129C330.577 828.129 330.675 826.273 328.82 825.589C326.866 824.808 328.038 822.269 330.187 822.269C331.163 822.269 332.14 821.586 332.53 820.804C333.605 817.972 332.042 816.605 327.648 816.214L323.351 815.922V819.535Z" fill="black"/>
<path d="M370.422 821.688C369.055 824.715 371.301 828.133 374.719 828.133C377.356 828.133 377.453 828.035 375.988 822.957C374.816 818.758 372.082 818.074 370.422 821.688Z" fill="black"/>
<path d="M351.183 937.602C347.472 938.676 342.785 939.359 340.734 939.262C338.781 939.164 336.632 939.555 335.851 940.043C335.168 940.629 330.382 941.605 325.109 942.191C316.418 943.168 313.195 944.047 293.078 951.273C289.562 952.543 287.316 954.008 286.73 955.375C286.144 956.547 284.777 957.621 283.507 957.816C282.335 958.012 280.675 959.281 279.992 960.746C279.21 962.211 276.183 965.629 273.253 968.363C263.585 977.348 263.585 984.672 273.351 992.777C276.378 995.316 279.503 998.051 280.089 998.93C280.773 999.711 281.457 1000.2 281.652 999.906C281.847 999.711 283.214 997.953 284.582 996C287.218 992.582 287.316 992.484 295.812 991.898C301.476 991.508 306.164 991.703 309.875 992.582C314.66 993.754 315.636 993.754 317.492 992.484C319.152 991.313 320.324 991.215 324.425 992.191C328.527 993.168 329.503 993.168 331.457 991.801C332.628 990.922 335.07 989.066 336.925 987.797C338.781 986.43 341.418 985.355 342.785 985.355C346.984 985.355 352.257 983.5 354.113 981.449C355.382 980.082 357.14 979.496 360.168 979.496C363.683 979.496 364.367 979.203 364.367 977.543C364.367 976.469 365.441 974.906 366.711 974.125C367.98 973.246 369.347 971.586 369.64 970.414C369.933 969.242 371.886 966.313 374.132 964.066C376.281 961.723 378.039 958.891 378.039 957.719C378.039 956.547 376.867 952.641 375.402 949.027C373.546 944.047 372.375 942.387 371.007 942.387C368.664 942.387 365.734 940.824 362.121 937.895C360.558 936.625 358.996 935.551 358.703 935.648C358.312 935.648 354.992 936.527 351.183 937.602Z" fill="black"/>
<circle cx="382" cy="201" fill="#5CE50D"/>
<circle cx="474" cy="400" fill="#E52A0D"/>
<circle cx="360" cy="569" fill="#E52A0D"/>
<circle cx="680" cy="656" fill="#E52A0D"/>
</svg>
