<svg width="1000" height="1000" viewBox="0 0 1000 1000" fill="none" xmlns="http://www.w3.org/2000/svg">
<rect width="1000" height="1000" />
<path d="M436.693 40.8645C435.193 41.8961 431.254 43.5842 428.065 44.6158C418.03 47.7107 406.87 54.4631 397.773 62.9037C393.928 66.4675 391.583 67.4991 373.014 73.595C342.628 83.7236 338.314 85.6931 331.468 92.7269C327.06 97.2285 325.091 100.23 322.746 106.044C321.058 110.171 316.556 118.799 312.805 125.27C307.084 135.117 305.677 138.306 304.083 145.433C303.145 150.122 300.613 160.064 298.55 167.566C295.455 178.82 293.861 182.853 288.984 191.387C285.795 197.108 281.387 206.111 279.23 211.551C276.604 218.209 273.697 223.461 270.509 227.494C266.757 232.277 265.538 234.809 264.6 239.217C263.944 242.875 261.505 248.502 257.848 255.066L252.127 265.195L249.407 282.264C247.063 296.613 246.219 299.895 243.968 303.459C242.561 305.803 240.029 310.399 238.435 313.775C236.84 317.151 232.807 323.622 229.431 328.311C226.055 332.907 222.866 338.253 222.304 340.034C221.741 341.816 219.865 345.849 218.177 348.944C216.489 352.039 213.957 357.478 212.456 361.136C210.956 364.7 207.861 370.045 205.423 372.953C201.765 377.36 201.015 379.048 200.452 383.55C200.077 387.208 197.732 393.585 193.231 403.62C183.29 425.471 182.352 427.066 175.224 434.756C171.661 438.601 163.876 448.167 158.062 455.951C152.247 463.829 145.589 471.707 143.338 473.582C139.962 476.302 138.836 478.178 136.679 484.274C133.584 493.183 128.708 500.404 112.014 520.662C105.074 529.196 96.2585 541.294 91.8506 548.422C84.4417 560.52 83.3163 561.833 67.842 576.463C58.9326 584.904 49.1791 593.719 46.178 596.064C32.4856 606.849 29.3907 610.131 24.4202 619.228C21.7942 624.105 19.8248 628.232 20.0124 628.419C20.7626 629.076 238.81 658.336 356.039 673.529C426.752 682.72 484.898 690.504 485.367 690.879C485.836 691.254 486.399 694.724 486.68 698.476C486.867 702.227 487.524 706.072 487.993 707.01C488.462 708.042 493.714 715.263 499.622 723.141L510.313 737.583V743.679C510.313 751.838 513.502 758.966 520.067 765.812C525.037 770.97 525.037 771.064 534.416 798.168L543.888 825.365L544.638 846.466L545.482 867.568L550.265 875.539C554.298 882.198 555.236 884.73 556.267 891.013C557.111 897.016 558.424 900.486 562.457 908.082C567.428 917.367 567.897 917.929 578.119 925.995C583.934 930.59 590.405 935.279 592.468 936.311C597.345 938.843 600.908 944.751 602.784 953.848C603.534 957.412 604.472 960.695 604.847 960.976C605.316 961.445 978.481 954.88 979.982 954.411C980.169 954.317 978.857 951.598 976.981 948.315C974.824 944.47 973.605 941.094 973.605 938.843C973.605 936.592 972.667 934.06 970.791 931.34C965.352 923.463 964.226 919.524 964.226 908.27C964.226 898.422 964.133 898.047 961.882 896.547C959.631 895.046 959.35 895.14 954.379 898.891C951.472 901.048 948.471 902.736 947.627 902.549C946.595 902.361 945.657 900.486 944.907 897.109C943.125 889.7 943.219 889.325 945.938 889.982C947.251 890.263 949.315 890.826 950.534 891.107C952.222 891.576 953.16 891.013 954.754 888.763C957.38 885.105 956.63 881.729 952.878 880.228C950.721 879.29 950.159 878.446 950.159 876.383C950.159 872.35 953.441 872.726 955.88 876.946C958.037 880.603 958.318 880.697 960.85 878.822C962.444 877.602 962.538 877.227 961.131 873.945C960.1 871.319 959.912 869.162 960.569 865.692C960.944 863.066 961.319 858.846 961.413 856.313C961.413 853.688 962.257 849.749 963.288 847.592C965.445 842.809 964.977 839.151 961.975 838.588C960.944 838.307 957.943 837.932 955.504 837.651C952.878 837.369 949.784 836.15 948.002 834.837C946.314 833.618 940.218 830.242 934.403 827.334L923.806 822.082L919.116 811.954C916.49 806.421 912.833 798.355 911.051 793.947L907.768 785.976L908.894 773.315C909.55 766.375 909.926 758.403 909.738 755.59L909.363 750.526L904.205 748.744C901.391 747.806 897.171 746.587 894.826 746.024C890.887 745.18 881.697 739.178 879.164 735.895C878.602 735.051 876.163 730.925 873.725 726.611C870.911 721.546 866.879 716.388 861.908 711.324C855.437 704.853 853.655 702.133 848.497 691.911C845.215 685.346 840.995 677.28 839.119 673.998C835.836 668.183 835.649 667.621 835.18 656.179C834.523 641.643 833.023 636.485 828.334 632.452C824.77 629.451 824.77 629.169 824.207 621.385C823.832 615.665 822.988 611.726 821.112 607.318C818.674 601.597 818.58 600.472 818.58 587.623L818.674 574.025L814.079 564.271L809.483 554.518L808.545 527.227C807.983 512.221 807.326 499.373 807.139 498.716C806.857 497.966 808.358 495.434 810.327 493.089C814.923 487.556 815.767 484.836 813.703 482.586C812.297 480.991 811.922 480.991 804.982 483.617C794.29 487.65 790.258 487.369 782.192 482.117C777.784 479.209 775.346 476.959 774.69 475.177C774.127 473.582 771.782 471.144 769.156 469.362C766.343 467.486 764.092 465.048 763.529 463.454C760.528 454.638 752.65 455.295 745.054 464.954C743.553 466.736 739.146 471.05 735.207 474.426C728.642 480.147 727.798 480.616 726.016 479.585C724.984 478.928 723.953 477.709 723.671 476.865C723.39 476.021 722.077 474.802 720.764 474.145C718.607 472.926 718.232 473.113 715.887 475.364C713.824 477.427 713.167 479.209 712.417 485.118L711.479 492.245L703.039 495.34C695.817 497.966 693.285 498.435 686.064 498.435C673.778 498.529 671.903 498.06 671.34 494.402C671.059 492.808 671.34 489.057 671.903 486.056C672.84 481.366 672.747 480.241 671.246 477.521C669.933 475.083 669.839 473.957 670.59 472.457C672.278 469.268 678.092 467.111 686.533 466.642C693.754 466.173 694.504 465.986 695.255 463.923C696.005 461.766 695.911 461.672 691.597 462.235C688.033 462.61 686.439 462.328 683.907 460.734L680.718 458.858L679.03 460.922C677.53 462.703 675.373 463.36 666.276 464.767C660.18 465.798 653.709 467.018 651.927 467.486C650.145 468.049 644.049 468.518 638.328 468.518H628.012L623.416 472.269C620.978 474.333 618.165 476.021 617.227 476.021C616.289 476.021 614.882 476.302 614.132 476.583C612.444 477.146 610.662 472.645 610.662 467.955C610.662 465.048 610.943 464.767 613.475 464.767C615.539 464.767 616.289 464.298 616.289 463.079C616.383 460.078 619.853 453.7 621.822 453.044C622.948 452.669 624.636 453.044 625.855 453.888C629.606 456.514 632.889 455.763 635.327 451.825C636.64 449.949 639.172 446.479 641.048 444.228C643.017 441.883 645.643 437.851 646.956 435.319C653.24 422.939 661.211 413.092 669.558 407.371C670.871 406.527 673.216 403.338 674.81 400.431C678.28 393.96 688.596 384.582 699.006 378.486C702.757 376.235 707.54 373.14 709.604 371.452C711.667 369.858 715.887 367.326 718.888 365.919C724.328 363.48 739.052 353.164 742.428 349.413C744.022 347.725 745.241 347.537 757.34 347.537C771.219 347.537 780.317 348.944 795.416 353.633C799.261 354.852 806.013 356.728 810.421 357.853C819.143 360.01 823.926 362.542 833.398 370.139C838.744 374.453 839.775 375.766 840.995 380.08C842.683 385.895 844.371 386.457 848.122 382.425C850.842 379.705 852.061 376.891 854.03 369.482C855.719 363.105 854.593 358.322 849.904 351.476C844.465 343.411 842.683 339.378 838.65 326.248C836.68 319.683 833.679 311.806 831.991 308.898C830.397 305.897 828.052 300.927 826.833 297.832C825.614 294.643 822.988 290.142 821.019 287.703C814.172 279.45 814.172 279.45 814.829 268.384C815.392 258.724 815.298 258.349 813.141 255.91C810.515 253.097 796.166 243.437 791.946 241.655C789.507 240.718 788.663 239.311 786.225 232.84C784.631 228.619 783.036 223.274 782.661 220.929C782.286 218.397 780.973 215.302 779.379 213.239C777.878 211.363 775.627 207.143 774.408 203.861C773.189 200.672 770.657 194.67 768.781 190.543C765.499 183.322 765.405 182.947 765.405 171.036C765.405 162.596 765.874 157.25 766.905 153.686C768.312 148.81 768.312 148.153 766.905 145.246C765.311 141.87 765.03 138.118 766.343 135.117C766.905 133.804 766.437 132.022 764.748 129.115C762.029 124.52 761.747 120.768 763.342 112.234C763.904 108.951 764.186 105.95 763.998 105.575C763.717 105.2 758.84 104.075 753.025 103.137C742.897 101.449 742.24 101.167 738.208 97.5098C734.644 94.2274 724.234 89.2569 672.465 66.2798L610.849 38.9888H525.225C441.007 38.9888 439.413 38.9888 436.693 40.8645Z" fill="black"/>
<path d="M792.133 84.5635C780.504 88.5962 780.598 88.5024 779.941 92.7227C779.566 95.1611 777.503 99.2876 774.502 103.602C770 110.166 767.374 117.482 767.28 123.109C767.28 124.89 767.843 125.266 770.094 125.266C771.688 125.266 774.502 124.422 776.377 123.39C778.347 122.358 781.16 121.514 782.567 121.514C784.443 121.514 786.037 120.576 787.725 118.607C790.257 115.7 809.67 102.289 814.453 100.132C815.86 99.5689 818.955 99.0062 821.3 99.0062C823.644 99.0062 827.865 98.3497 830.678 97.5057C835.086 96.2865 835.93 95.5362 837.149 92.7227C837.899 90.9408 838.556 89.2527 838.556 89.0651C838.556 88.8776 835.18 88.69 831.147 88.69C826.927 88.69 819.143 87.7522 813.047 86.4392C798.135 83.2505 796.353 83.1568 792.133 84.5635Z" fill="black"/>
<path d="M821.018 109.702C815.11 111.202 813.234 112.609 813.234 115.61C813.234 118.518 815.86 122.456 817.829 122.55C818.673 122.55 821.018 125.176 823.175 128.365C826.27 133.054 827.583 134.367 830.396 135.023C834.335 136.055 834.335 135.961 832.553 145.715L831.334 152.467L834.992 153.03C838.462 153.593 838.556 153.78 837.055 155.375C833.21 159.689 838.931 161.658 846.621 158.657C852.154 156.5 852.623 155.468 849.903 151.06C848.309 148.341 848.121 145.621 849.434 139.525C849.997 136.712 854.499 136.524 854.499 139.431C854.499 140.838 855.53 141.776 858.25 142.808C860.313 143.652 862.001 144.683 862.001 145.152C862.001 145.527 862.658 145.902 863.502 145.902C864.627 145.902 864.252 146.746 862.095 149.279C860.407 151.154 858.907 153.874 858.531 155.375C857.969 158.376 855.906 159.97 852.717 159.97C849.528 159.97 850.279 163.44 853.842 165.316L856.843 167.004L852.904 167.285C848.215 167.66 847.934 168.692 851.404 172.349L853.936 174.975H851.123C849.622 174.882 847.371 174.037 846.152 173.1C844.183 171.412 843.995 170.661 844.558 166.535C844.933 163.909 844.933 161.846 844.651 161.846C842.87 161.846 840.431 164.003 840.431 165.597C840.431 168.317 839.212 168.504 833.022 167.097C827.677 165.878 827.395 165.878 828.239 167.473C828.708 168.317 830.584 170.38 832.46 172.068C834.992 174.225 836.68 174.975 839.4 174.975C841.744 174.975 843.526 175.632 844.651 176.851C846.152 178.539 846.246 179.196 845.214 182.478C843.714 187.636 844.558 189.981 847.934 189.981C851.404 189.981 852.06 191.106 850.747 195.233C849.434 199.078 846.433 199.359 846.715 195.608C846.809 193.92 845.871 192.607 843.62 190.919C841.275 189.23 840.431 187.824 840.431 185.854C840.431 182.197 836.211 177.789 832.835 177.789C829.365 177.789 827.302 176.945 827.302 175.444C827.302 174.413 826.27 174.506 822.425 175.819C819.799 176.757 817.454 177.883 817.267 178.352C816.892 179.664 825.144 184.354 827.864 184.354C829.927 184.354 830.115 184.729 830.115 188.668C830.115 192.982 830.115 192.982 827.395 192.513C825.895 192.231 823.175 190.919 821.206 189.606C815.672 185.854 811.921 185.573 806.106 188.48C801.136 190.825 801.042 191.012 801.042 194.857V198.89L812.109 199.078C823.55 199.171 828.239 200.203 828.239 202.641C828.239 204.517 826.833 204.423 819.611 202.173C813.89 200.391 805.544 199.734 802.543 200.86C801.511 201.235 801.042 202.641 801.042 205.83C801.042 209.957 800.855 210.238 796.822 212.77L792.602 215.49V223.18C792.602 230.589 792.695 230.87 795.228 232.371C796.634 233.121 800.573 234.34 804.137 234.997C809.201 235.935 810.889 236.685 812.765 238.936C814.078 240.436 815.11 242.312 815.11 242.968C815.11 243.719 816.329 245.688 817.829 247.376C819.986 249.908 820.549 251.597 821.018 256.942C821.299 261.35 822.05 264.164 823.456 266.039C824.582 267.446 825.426 269.603 825.426 270.822C825.426 272.135 827.489 275.324 830.396 278.606C835.086 283.858 835.554 284.89 837.899 294.268C839.306 299.801 840.431 305.147 840.431 306.179C840.431 307.21 841.463 309.273 842.776 310.774C844.089 312.368 845.496 315.651 845.964 318.183C846.902 322.685 851.31 334.22 853.561 337.878C855.437 340.879 859.563 342.848 863.783 342.848C865.847 342.848 869.504 343.317 871.849 343.973C875.694 345.005 876.257 344.911 879.07 342.848C890.23 334.783 903.548 322.403 915.833 308.992C926.994 296.706 931.495 290.892 937.31 281.42C943.968 270.353 944.906 268.29 949.314 253.003C954.003 237.248 954.097 236.404 952.69 233.684C951.846 232.09 950.721 226.463 950.158 221.117C949.033 211.551 949.033 211.551 946.407 211.551C944.625 211.551 943.687 212.114 943.312 213.427L942.843 215.302L939.561 213.427C937.028 211.926 933.84 207.331 925.024 192.513C918.834 182.103 910.019 167.754 905.423 160.533C897.358 147.872 896.889 147.309 881.227 133.523C867.347 121.331 864.158 118.893 856.374 115.235C850.185 112.328 845.027 110.64 839.493 109.702C830.021 108.201 827.489 108.201 821.018 109.702Z" fill="black"/>
<path d="M771.501 163.906C771.22 165.125 771.032 168.876 771.22 172.159C771.501 178.161 771.595 178.255 775.534 180.881C779.285 183.413 779.473 183.694 778.16 185.195C777.316 186.132 776.659 187.445 776.659 188.289C776.659 190.259 780.598 193.729 782.943 193.729C783.975 193.729 785.569 194.573 786.507 195.605C788.195 197.386 788.101 197.48 785.944 197.48C784.725 197.386 782.099 196.824 780.223 196.167C776.003 194.667 775.815 195.136 779.098 199.45C782.849 204.514 786.038 211.266 786.038 214.268C786.038 218.769 787.82 218.675 792.415 214.08C796.448 210.047 796.729 209.391 796.823 204.795C796.823 200.012 796.729 199.825 793.541 198.793L790.352 197.762L793.259 196.261C795.135 195.229 796.448 193.729 796.823 191.947C797.386 189.227 799.261 188.102 803.575 188.102C806.389 188.102 808.827 183.413 807.702 180.412C806.952 178.536 805.826 177.973 799.543 176.942C783.131 174.222 783.599 174.503 779.942 168.314C778.066 165.312 776.191 162.78 775.722 162.78C775.253 162.78 774.315 162.499 773.471 162.218C772.533 161.842 771.877 162.405 771.501 163.906Z" fill="black"/>
<path d="M906.081 411.969C904.017 413.844 902.798 416.283 901.766 420.222C900.922 423.223 899.516 427.349 898.484 429.319C896.046 434.102 896.139 435.04 899.328 434.477C912.645 431.663 912.552 431.757 916.397 433.258C918.46 434.102 922.68 434.758 925.681 434.758C931.027 434.758 931.308 434.946 935.716 439.26C938.248 441.698 940.968 444.699 941.718 445.825C943.219 447.982 957.755 453.703 964.508 454.734L967.978 455.297V450.608V445.919L954.285 432.601C941.625 420.316 940.218 419.19 935.716 418.252C927.463 416.564 923.993 414.97 921.93 412.156C920.148 409.718 919.492 409.437 914.427 409.437C909.738 409.437 908.519 409.812 906.081 411.969Z" fill="black"/>
<circle cx="766" cy="483" fill="#5CE50D"/>
<circle cx="778" cy="140" fill="#E52A0D"/>
<circle cx="272" cy="513" fill="#E52A0D"/>
<circle cx="920" cy="771" fill="#E52A0D"/>
</svg>
