<svg width="1000" height="1000" viewBox="0 0 1000 1000" fill="none" xmlns="http://www.w3.org/2000/svg">
<rect width="1000" height="1000" />
<path d="M355.729 1.34857C350.846 2.91107 348.796 5.93842 350.065 9.35638C350.944 11.6025 350.553 12.4814 346.94 16.7783C344.694 19.415 341.764 21.8564 340.397 22.1494C335.417 23.2236 335.221 23.4189 335.71 26.7392C335.905 28.3994 336.784 31.329 337.468 33.0869C338.737 36.0165 338.639 36.4072 337.077 37.2861C334.928 38.5556 334.928 40.4111 337.37 46.5634C338.639 49.9814 339.03 52.8134 338.639 55.1572C338.151 58.2822 338.444 59.0634 340.397 60.4306C341.667 61.3095 343.522 61.8954 344.499 61.7978C345.573 61.6025 346.159 62.0908 346.159 63.4579C346.159 64.6298 345.768 65.5087 345.182 65.5087C343.425 65.5087 344.206 67.2665 346.159 67.7548C347.428 68.0478 348.112 69.122 348.112 70.6845C348.112 71.954 348.796 73.6142 349.577 74.2978C350.846 75.2744 350.749 75.9579 349.089 79.2783C347.917 81.5244 347.135 84.9423 347.135 88.165C347.135 92.5595 347.526 93.7314 350.163 96.3681C353.776 100.079 353.19 101.642 348.405 101.642H344.987L345.671 106.134C346.257 110.04 346.061 110.821 344.303 112.091C343.132 112.872 342.253 114.435 342.253 115.606C342.253 116.778 341.471 119.317 340.397 121.173C337.175 127.325 336.979 128.888 339.518 132.501C340.69 134.259 342.253 135.821 342.839 135.821C344.596 135.821 347.135 139.239 347.135 141.485C347.135 143.048 346.452 143.536 344.01 143.829C341.178 144.122 340.788 144.513 340.495 147.149C340.202 149.884 339.909 150.079 337.175 149.688C335.124 149.395 333.659 148.224 332.194 145.88C330.339 142.657 329.948 142.462 325.944 142.95C322.526 143.341 321.745 143.145 322.135 142.071C322.428 141.29 322.917 140.118 323.21 139.435C324.089 137.481 315.593 133.868 310.124 133.868C307.487 133.868 302.507 134.747 299.089 135.821C290.885 138.36 289.811 138.263 288.053 134.942C286.589 132.11 286.979 126.739 289.03 118.048C289.616 115.997 289.225 115.216 287.175 113.849C284.147 111.798 283.952 109.942 286.589 106.036C289.225 102.032 289.128 97.6376 286.198 94.9033L283.854 92.7548L281.706 96.2704C278.581 101.349 269.01 107.403 261.003 109.454C257.292 110.431 252.897 112.286 251.139 113.653C246.647 117.071 244.401 117.462 240.397 115.802C233.854 113.067 233.464 113.36 227.995 124.786C221.452 138.556 218.327 142.462 213.542 142.852C210.417 143.145 209.831 143.536 209.44 146.075C209.147 147.638 207.975 150.86 206.706 153.204C204.948 156.427 204.753 157.794 205.534 159.259C206.706 161.505 206.608 161.505 211.784 160.235C216.862 159.063 219.303 160.333 216.081 162.384C214.811 163.165 212.175 164.435 210.221 165.216C206.803 166.388 206.022 166.29 201.432 164.239C194.01 160.919 190.495 160.626 187.565 162.872C186.296 163.946 183.073 165.606 180.436 166.583C171.061 170.099 165.3 177.813 161.003 192.95C158.171 202.813 157.682 203.888 154.362 206.036C150.944 208.38 150.846 208.575 150.846 214.435C150.846 221.368 152.018 223.419 156.51 224.298C159.635 224.884 159.635 224.884 159.635 220.978C159.635 217.364 159.928 216.974 162.37 216.681C164.128 216.485 165.104 215.704 165.3 214.435C165.593 212.188 170.475 209.063 173.698 209.063C177.702 209.063 179.85 211.7 181.608 218.536C182.585 222.247 185.124 228.595 187.272 232.696C190.983 240.021 193.229 241.974 194.401 238.849C195.28 236.7 197.721 237.091 197.721 239.337C197.721 240.509 197.135 242.56 196.354 244.024C195.671 245.489 194.792 248.126 194.401 249.981C194.108 251.837 192.741 254.767 191.471 256.427C190.104 258.087 188.932 261.017 188.737 262.872C188.542 265.411 187.663 266.583 185.026 268.341C181.608 270.392 180.632 271.368 177.116 275.372C174.186 278.692 174.479 291.29 177.8 299.2C182.194 309.747 186.1 312.384 190.983 308.282L194.01 305.743L196.94 308.185C198.503 309.552 200.553 310.626 201.53 310.626C202.507 310.626 204.069 311.505 205.046 312.579C206.022 313.653 207.292 314.532 207.878 314.532C208.561 314.532 212.272 311.603 216.178 308.087L223.21 301.544L229.753 302.618C235.514 303.595 236.686 304.181 239.714 307.599C243.62 311.993 249.186 313.458 253.385 311.114C255.339 310.04 256.218 310.04 258.268 311.114C260.417 312.286 260.807 312.97 260.417 315.899C260.026 319.415 255.729 324.298 252.995 324.298C251.237 324.298 249.577 330.548 250.163 335.04C250.456 337.188 251.042 338.946 251.335 338.946C251.725 338.946 251.823 344.61 251.628 351.446L251.237 364.044L255.241 367.462L259.245 370.88L256.803 374.2C255.436 376.056 253.581 378.79 252.702 380.353C251.725 382.013 249.772 384.454 248.21 385.821C245.964 387.97 245.28 389.825 244.01 397.638C243.229 402.716 242.741 407.989 243.034 409.356C243.425 411.31 242.839 412.579 240.885 414.337C239.421 415.704 237.468 417.071 236.491 417.364C235.612 417.755 234.343 419.024 233.757 420.392C232.585 422.833 229.167 424.884 226.042 424.884C224.772 424.884 224.089 425.567 224.089 426.739C224.089 427.813 223.014 429.962 221.745 431.427L219.303 434.356L221.647 439.239C222.917 442.071 224.772 444.513 225.846 444.806C228.385 445.685 229.362 448.224 227.507 448.907C225.456 449.786 225.456 458.673 227.604 459.454C228.874 459.942 228.678 460.528 226.628 463.263C223.893 466.778 223.014 473.028 224.87 474.884C225.749 475.763 225.065 476.642 221.647 478.79C218.522 480.743 217.057 482.403 216.667 484.356C216.178 486.407 214.909 487.677 210.905 489.63C206.51 491.778 205.729 492.56 205.143 495.685C204.753 497.638 203.874 499.395 203.19 499.688C202.409 499.981 201.53 501.642 201.139 503.302C200.358 506.622 200.163 507.501 199.089 515.216C198.698 518.048 197.624 521.075 196.354 522.442C194.303 524.688 194.303 524.688 196.257 525.86C197.331 526.446 201.237 530.157 204.948 533.966C208.659 537.872 212.077 541.095 212.565 541.095C213.053 541.095 213.932 539.728 214.421 538.165C215.3 535.821 216.081 535.235 218.229 535.235C220.378 535.235 222.331 533.77 227.311 528.302C232.585 522.735 234.44 521.368 237.468 520.88C242.057 520.196 243.913 518.829 243.327 516.485C242.839 514.923 243.327 514.728 246.354 514.923C248.405 515.118 250.26 515.606 250.553 515.997C250.846 516.485 253.385 515.606 256.218 514.044C260.221 511.895 261.1 510.919 260.807 509.356C260.124 506.622 261.198 505.353 264.616 504.669C273.112 503.009 277.995 500.567 280.827 496.563C282.292 494.415 283.854 491.388 284.245 489.923C284.538 488.556 285.221 487.188 285.612 486.896C286.1 486.603 288.932 487.579 291.96 489.044C295.671 490.899 297.819 491.388 298.698 490.802C299.382 490.216 303.19 487.677 307.096 485.138C311.003 482.501 315.3 479.083 316.569 477.521C320.573 472.833 327.311 474.493 328.874 480.45C329.264 482.306 331.413 486.31 333.464 489.337C336.393 493.634 338.053 495.099 340.983 495.978C343.034 496.563 345.671 498.321 346.843 499.786C350.553 504.962 356.706 508.38 363.151 508.868C368.62 509.356 369.108 509.552 370.085 512.188C370.866 514.532 370.671 515.216 368.815 516.681C367.643 517.657 366.667 519.415 366.667 520.685C366.667 523.614 371.354 528.399 374.186 528.399C376.042 528.399 376.432 527.911 376.432 525.079C376.432 522.149 376.823 521.759 379.557 521.173C381.315 520.88 383.561 519.708 384.733 518.731C385.807 517.755 388.053 516.681 389.616 516.388C391.276 516.095 394.499 515.118 396.94 514.239C402.995 511.993 408.366 512.188 411.1 514.728C412.858 516.388 413.737 516.681 415.3 515.802C418.229 514.239 420.768 509.747 421.354 504.962C421.745 501.739 422.428 500.372 423.991 499.493C427.702 497.735 429.85 495.196 430.534 492.169C431.218 488.556 436.1 485.431 441.081 485.431C443.034 485.431 445.28 485.138 446.159 484.845C447.526 484.356 447.428 483.966 445.768 481.817C444.694 480.45 443.815 478.888 443.815 478.497C443.815 478.009 445.475 476.056 447.526 474.2C450.553 471.368 451.628 470.88 454.069 471.368C455.729 471.661 460.026 472.345 463.639 472.833C470.671 473.712 480.241 478.302 486.393 483.771C488.835 485.821 490.983 486.7 495.085 487.091C499.968 487.579 500.749 487.97 502.116 490.704C504.264 494.806 505.339 495.294 508.366 493.536C512.468 491.095 515.397 492.462 520.28 499.298C523.698 504.278 524.87 506.817 525.749 512.286C526.725 517.755 527.897 520.685 531.803 526.642C534.635 530.938 537.37 536.505 538.249 539.825C539.225 543.634 540.788 546.661 542.936 548.907C544.694 550.763 548.405 556.915 551.139 562.579C557.096 574.884 557.292 575.177 563.151 578.595C565.69 580.06 570.573 584.063 573.991 587.481C578.971 592.462 580.925 595.294 583.464 601.251C586.296 608.087 586.491 609.356 585.905 615.216C584.928 624.786 579.948 638.556 575.944 642.755L572.624 646.27L572.233 662.481C571.843 676.642 571.55 679.376 569.596 683.868C568.229 687.091 567.448 690.997 567.35 694.415C567.35 699.298 567.741 700.274 571.452 704.962C574.577 708.868 575.749 711.31 576.237 715.02C576.823 719.024 577.507 720.392 580.241 722.442C584.831 725.958 588.346 733.185 588.346 739.044C588.346 748.419 593.815 753.106 613.444 760.333C619.694 762.677 625.163 765.118 625.553 765.802C626.042 766.681 624.772 768.145 621.452 770.294C618.815 772.149 616.667 774.2 616.667 775.079C616.667 775.86 617.448 778.106 618.522 780.157C619.499 782.11 620.671 785.235 621.061 786.993C621.745 790.313 625.456 793.048 629.264 793.048C634.733 793.048 640.397 799.395 643.132 808.38C644.303 812.481 644.206 812.579 640.788 816.388C638.639 818.731 637.077 821.661 636.686 824.005C635.319 831.72 634.831 832.599 630.729 833.185C626.042 833.868 621.55 835.724 621.55 836.798C621.55 838.751 626.237 841.876 629.167 841.876C631.901 841.876 632.292 842.267 632.292 844.317C632.292 846.075 631.608 847.052 629.753 847.833C628.288 848.321 625.065 850.47 622.526 852.618C616.471 857.696 615.593 861.31 619.401 865.802C620.866 867.657 622.624 869.122 623.307 869.122C623.893 869.22 624.479 870.001 624.479 871.075C624.479 872.052 625.651 874.493 627.018 876.544C629.655 880.45 629.167 881.915 624.968 881.915C623.21 881.915 623.014 882.403 623.307 885.333C623.6 887.872 623.307 888.849 622.135 889.337C621.061 889.728 620.768 890.606 621.061 891.681C621.452 893.048 621.061 893.536 619.401 893.829C617.35 894.122 617.057 894.806 616.471 901.642C616.081 905.743 615.3 910.919 614.714 913.067C614.03 915.606 614.03 917.755 614.714 919.415C615.593 921.759 615.202 922.345 608.854 927.423C605.046 930.45 602.018 933.477 602.018 934.161C602.018 935.235 598.21 936.212 591.081 936.993C589.616 937.091 587.858 937.774 587.077 938.458C586.296 939.044 585.026 939.337 584.147 938.946C583.366 938.653 582.389 938.849 581.999 939.435C581.706 940.02 580.339 940.509 579.167 940.509C577.311 940.509 576.725 941.192 576.335 943.731C576.042 945.685 576.335 947.149 577.116 947.54C577.8 947.931 578.678 949.493 578.971 950.86C579.85 954.083 585.417 962.774 588.151 965.313C590.007 966.974 591.276 967.071 600.944 966.485C609.733 965.899 612.077 965.997 614.616 967.267C616.276 968.145 617.643 969.513 617.643 970.392C617.643 971.368 618.229 971.661 619.499 971.27C620.475 970.977 621.745 971.27 622.331 971.954C622.917 972.638 625.358 974.102 627.8 975.177C630.729 976.446 632.292 977.716 632.292 978.888C632.292 981.134 633.659 983.77 638.249 989.923C641.862 994.903 642.057 995.001 648.21 995.587C651.725 995.977 656.218 997.149 658.171 998.224C661.686 1000.08 661.882 1000.08 663.151 998.419C663.835 997.442 664.518 995.977 664.518 995.196C664.518 992.56 667.35 989.63 670.378 989.044C674.186 988.263 674.186 986.212 670.378 981.817C668.034 979.181 667.448 977.618 667.448 974.2C667.448 970.392 667.057 969.708 664.616 968.438C661.491 966.778 660.612 965.118 660.612 960.919C660.612 959.259 660.124 957.11 659.538 956.036C658.464 953.888 659.245 950.079 660.417 951.739C661.784 953.692 666.764 955.352 667.448 954.083C667.936 953.302 669.987 953.204 674.089 953.692C677.311 954.083 680.827 954.083 681.901 953.79C683.659 953.204 686.589 947.931 687.175 944.024C687.468 942.364 687.76 942.364 690.495 944.806C693.034 946.856 694.596 947.345 698.893 947.345C704.46 947.345 706.51 946.173 706.51 943.145C706.51 941.583 706.999 941.388 709.05 941.876C711.296 942.462 711.589 942.267 711.198 940.704C710.71 939.142 711.491 938.458 714.616 937.188C719.303 935.333 720.182 936.017 720.182 941.681C720.182 944.61 720.573 945.294 722.331 945.587C723.796 945.782 724.772 946.856 725.456 949.005C725.944 950.763 726.725 952.227 727.116 952.227C727.604 952.227 728.874 953.106 729.948 954.181C731.022 955.255 732.878 956.134 734.147 956.134C736.003 956.134 736.589 956.915 737.565 960.528C738.249 962.97 740.202 966.583 741.96 968.438C744.889 971.661 745.475 971.856 747.428 970.782C749.577 969.708 752.311 969.806 757.096 971.27C758.464 971.759 759.245 971.563 759.245 970.782C759.245 969.317 768.132 961.114 769.792 961.017C770.378 961.017 770.964 961.407 770.964 961.798C770.964 962.286 771.55 963.36 772.233 964.337C773.503 965.997 773.893 965.899 780.827 962.677C784.831 960.724 788.932 959.063 790.007 958.868C791.178 958.673 792.057 957.696 792.253 956.329C792.448 955.157 793.62 953.106 794.987 951.739C796.257 950.47 797.331 948.907 797.331 948.321C797.331 946.759 802.018 950.177 802.702 952.325C803.288 954.083 807.78 957.11 809.831 957.11C810.221 957.11 811.589 955.157 812.76 952.716C814.128 949.786 815.69 948.126 817.253 947.735C818.62 947.442 820.866 945.587 822.331 943.731C824.577 940.802 824.772 939.923 823.796 938.36C822.819 936.798 822.917 936.212 824.284 935.235C825.651 934.161 825.749 933.77 824.577 931.915C822.819 929.083 824.186 926.935 828.874 924.591C832.78 922.735 833.561 920.489 830.729 919.61C829.753 919.22 827.507 917.657 825.846 915.997C823.405 913.653 822.721 912.091 822.721 909.259C822.721 905.743 822.819 905.548 826.725 905.06C829.069 904.767 831.608 904.962 832.682 905.645C834.245 906.622 834.831 906.427 836.491 904.474C837.468 903.204 838.346 901.349 838.346 900.372C838.346 899.298 839.323 898.028 840.593 897.442C841.764 896.954 843.62 894.513 844.694 892.169C845.768 889.728 847.135 887.774 847.819 887.774C850.358 887.774 849.089 882.892 845.573 878.985C842.546 875.665 842.155 874.591 842.643 872.052C843.425 868.048 841.96 865.606 838.346 864.825C834.831 864.044 834.05 862.97 835.319 860.626C836.882 857.794 832.585 853.888 827.018 853.009C822.135 852.325 821.843 851.935 819.694 843.438C818.815 839.923 817.741 838.263 815.69 837.091C813.542 835.821 812.956 834.845 812.956 832.013C812.956 829.376 812.272 827.911 809.928 825.86C807.194 823.419 807.096 823.028 808.464 821.466C809.343 820.489 810.026 818.438 810.026 816.876C810.026 814.142 810.319 813.946 817.643 811.798C821.843 810.626 826.628 809.649 828.385 809.649C831.706 809.649 832.194 809.259 836.003 803.399C838.053 800.274 838.346 798.907 837.858 795.88L837.175 792.071H831.51H825.749L823.21 787.774C821.257 784.454 819.596 782.989 816.276 781.72C810.905 779.669 809.831 777.716 810.612 771.856C811.393 765.509 808.659 762.286 801.432 761.31C796.452 760.626 795.768 760.138 790.69 753.985C785.319 747.442 784.147 742.56 787.175 739.239C788.639 737.579 788.542 737.286 786.589 734.552C783.952 730.743 782.389 730.743 779.85 734.649C778.776 736.407 777.018 738.458 775.944 739.142C774.772 739.825 773.893 740.997 773.893 741.681C773.893 744.513 770.475 743.829 767.35 740.411C764.03 736.798 762.37 731.134 764.128 729.181C765.593 727.325 764.421 724.688 760.612 721.075L757.292 717.95V705.938C757.292 698.419 757.878 691.876 758.757 688.556C760.71 681.231 760.612 679.864 758.268 680.45C757.096 680.743 755.241 679.962 753.288 678.399C751.628 677.032 749.968 675.86 749.479 675.86C748.112 675.86 746.647 670.392 747.624 668.927C748.796 666.974 748.698 666.095 747.233 666.095C745.768 666.095 743.62 662.091 743.62 659.356C743.62 658.38 742.936 657.013 742.155 656.329C740.397 654.864 740.202 651.739 741.96 651.153C742.839 650.86 742.643 650.274 741.471 648.81C740.495 647.735 739.714 645.685 739.714 644.317C739.714 641.192 736.882 640.606 736.1 643.634C735.807 644.708 734.831 645.587 733.854 645.587C732.096 645.587 728.971 642.657 728.971 640.997C728.971 640.509 727.897 639.435 726.53 638.751C725.163 638.067 724.089 636.7 724.089 635.821C724.089 634.942 722.819 633.282 721.257 632.11C718.425 630.06 716.081 626.446 710.807 616.778C704.167 604.376 697.526 594.903 694.206 593.341C691.96 592.267 690.885 591.095 690.885 589.63C690.885 588.458 689.323 585.528 687.468 583.185C683.561 578.302 683.659 578.692 685.124 576.056C686.1 574.2 685.807 573.614 682.975 571.27L679.655 568.536L681.218 564.337C682.096 561.993 683.073 559.356 683.561 558.478C683.952 557.306 683.464 556.036 681.706 554.278C680.339 552.911 679.167 550.958 679.167 549.884C679.167 548.907 677.897 546.075 676.237 543.731C674.284 540.899 673.307 538.165 673.307 535.821C673.307 532.794 672.917 532.11 670.182 530.938C667.155 529.669 666.862 529.767 665.007 531.915C662.565 534.747 659.928 534.942 657.096 532.208C655.339 530.645 655.046 529.474 655.534 525.86C656.022 521.661 655.925 521.563 652.995 521.563C650.944 521.563 649.968 520.978 649.577 519.61C649.284 518.536 647.721 516.876 646.061 515.997C642.741 514.044 642.155 511.407 644.694 508.673C646.159 507.013 646.061 506.817 643.132 505.841C641.471 505.255 639.616 503.985 639.128 503.009C637.565 500.079 637.956 491.388 639.811 488.067C642.839 482.501 644.108 481.524 646.061 482.599C647.721 483.478 647.917 483.185 647.917 480.255C647.917 478.399 647.233 476.349 646.452 475.665C645.671 474.981 644.987 473.614 644.987 472.638C644.987 471.368 644.303 470.782 642.741 470.782C641.471 470.782 638.346 469.708 635.807 468.438C633.268 467.169 629.655 465.802 627.8 465.509C625.456 465.021 624.479 464.337 624.479 463.067C624.479 460.04 621.354 458.087 617.448 458.673C614.616 459.161 613.542 458.868 612.175 457.208C611.198 456.134 609.343 455.157 608.171 455.157C606.51 455.157 605.534 454.181 604.557 451.739C603.581 449.591 602.018 447.931 600.358 447.247C596.452 445.782 587.565 436.798 586.882 433.478C586.198 430.45 583.073 428.302 579.948 428.692C577.702 428.888 574.675 425.177 574.675 422.149C574.675 420.978 573.503 420.001 571.257 419.122C569.303 418.438 566.862 416.583 565.69 415.021C564.518 413.458 562.663 412.188 561.491 412.188C558.952 412.188 557.096 410.431 557.78 408.673C558.073 407.892 557.78 407.306 557.194 407.306C556.608 407.306 556.12 406.524 556.12 405.45C556.12 404.376 554.948 403.204 553.288 402.423C551.725 401.837 549.284 399.981 547.721 398.419C545.475 396.075 544.206 395.587 540.495 395.587C535.807 395.587 531.706 393.536 531.706 391.095C531.706 390.313 531.022 389.728 530.241 389.728C529.46 389.728 528.776 388.849 528.776 387.774C528.776 386.407 528.093 385.821 526.725 385.821C525.651 385.821 525.065 385.333 525.358 384.845C525.651 384.259 526.823 383.868 527.8 383.868C528.776 383.868 530.925 382.696 532.585 381.329C534.245 379.962 537.175 378.595 539.225 378.399C545.671 377.423 548.014 376.153 548.6 373.126C548.991 371.466 550.065 370.099 551.237 369.708C554.264 368.731 553.678 364.435 549.772 358.868C546.452 354.181 545.768 351.446 546.94 348.321C547.819 346.173 550.944 346.368 552.214 348.712C553.288 350.763 559.538 351.544 560.221 349.688C561.003 347.247 576.628 349.005 576.628 351.544C576.628 352.13 578.874 352.228 581.901 351.935C587.077 351.446 587.272 351.446 588.737 354.474C589.616 356.134 590.788 357.501 591.276 357.501C591.764 357.501 593.327 358.673 594.694 360.04C596.745 361.993 598.014 362.481 601.335 362.286C603.581 362.188 606.315 362.481 607.487 363.165C609.343 364.142 609.733 363.849 611.589 359.552C614.225 353.497 619.108 349.396 621.745 350.958C623.307 351.935 623.796 351.837 624.577 350.372C625.163 349.396 626.725 348.712 628.288 348.712C629.85 348.712 631.608 348.028 632.292 347.247C634.05 345.099 632.585 340.411 629.655 339.044C627.604 338.165 627.409 337.677 628.385 336.505C630.729 333.673 642.448 328.204 646.159 328.204H649.87V323.907C649.87 321.466 650.358 319.22 650.846 318.927C651.432 318.536 651.139 317.364 649.87 315.802C647.526 312.774 647.428 311.798 649.479 309.552C650.846 307.989 650.846 307.794 648.698 307.208C647.428 306.817 644.987 305.157 643.229 303.595C640.397 301.153 639.128 300.763 634.928 300.86C628.678 301.056 623.014 299.688 623.112 298.126C623.21 297.442 623.307 295.685 623.405 294.122C623.503 292.169 624.186 290.997 625.456 290.606C628.19 289.728 627.897 286.505 624.772 283.38C623.21 281.817 621.257 279.474 620.28 278.106C618.913 276.056 617.741 275.47 614.909 275.47C612.956 275.372 609.538 274.688 607.389 273.907C605.241 273.028 602.507 272.149 601.335 271.856C598.698 271.271 595.768 268.146 596.55 266.778C596.94 266.192 599.675 265.021 602.604 264.044C606.901 262.677 608.366 262.579 609.831 263.556C613.053 265.509 615.495 264.923 617.057 261.896C617.936 260.333 620.378 257.501 622.526 255.743C624.675 253.888 626.432 251.642 626.432 250.86C626.432 249.981 623.405 247.442 619.694 245.196C614.323 241.974 612.76 240.509 612.272 238.263C611.784 236.212 610.612 234.845 608.268 233.771C606.413 232.892 604.948 231.622 604.948 230.938C604.948 230.255 604.167 229.474 603.19 229.181C602.214 228.79 600.065 225.86 598.503 222.442C595.964 217.071 595.28 216.388 592.936 216.583C590.983 216.681 590.3 216.29 590.3 215.021C590.3 212.872 585.221 209.063 582.194 209.063C581.022 209.063 579.46 208.575 578.874 207.989C577.311 206.427 570.964 207.794 569.596 210.04C568.718 211.407 567.741 211.798 566.081 211.31C563.932 210.821 554.948 213.067 550.846 215.118C549.577 215.802 548.796 215.704 548.307 214.923C547.819 214.142 546.55 213.946 544.987 214.337C543.132 214.825 542.448 215.606 542.448 217.267C542.448 218.536 541.764 219.806 540.983 220.196C540.007 220.587 539.714 221.563 540.104 223.712C540.69 226.544 540.593 226.642 537.37 226.642C534.05 226.642 533.854 226.837 533.268 230.548C532.78 233.868 532.292 234.454 530.241 234.454C528.874 234.454 527.8 233.868 527.8 233.185C527.8 232.501 525.651 229.669 523.112 226.837C519.694 223.126 517.643 221.759 515.788 221.759C512.663 221.759 509.245 218.634 509.245 215.899C509.245 213.751 507.682 213.458 504.069 214.825C502.214 215.509 500.553 215.021 495.671 212.481C492.253 210.626 488.932 209.454 488.249 209.649C487.565 209.942 486.686 209.747 486.296 209.161C486.003 208.575 485.026 208.087 484.245 208.087C481.706 208.087 473.112 200.177 473.21 197.931C473.21 196.856 471.843 192.267 470.085 187.97C467.546 181.817 466.276 179.767 464.225 179.083C462.272 178.302 461.589 177.227 461.1 174.298C460.71 172.247 459.733 169.22 458.952 167.657C458.171 166.192 457.487 163.653 457.487 162.188C457.487 159.063 455.241 156.329 452.702 156.329C451.725 156.329 450.358 155.743 449.772 154.962C448.893 153.888 449.479 153.399 453.093 152.325C456.999 151.153 457.487 150.665 457.487 148.224C457.487 146.563 458.854 143.731 460.905 140.997C465.593 134.845 465.495 133.38 460.71 136.505C458.171 138.165 458.073 138.165 458.757 136.505C459.147 135.528 459.44 134.259 459.44 133.77C459.44 133.282 460.221 132.501 461.198 132.11C462.077 131.72 465.202 128.888 468.132 125.86L473.307 120.196L472.917 114.239C472.428 107.403 470.866 105.548 465.593 105.548H462.37V98.2236C462.37 91.6806 462.175 90.8994 460.514 90.8994C458.952 90.8994 458.561 91.8759 457.975 95.9775C457.292 101.349 455.339 103.79 449.284 107.11C447.038 108.38 446.061 108.38 443.815 107.501L440.983 106.329V96.7587C440.983 90.5087 440.593 86.4072 439.714 85.1376C438.639 83.3798 438.639 82.8915 439.811 82.2079C441.862 80.9384 439.714 77.9111 434.147 74.3954C429.069 71.0751 427.507 68.7314 429.167 67.0712C430.925 65.3134 430.241 63.0673 427.214 60.1376C425.651 58.5751 424.284 56.329 424.284 55.0595C424.284 53.8876 423.405 52.4228 422.428 51.8369C421.354 51.3486 420.182 49.9814 419.889 48.9072C419.596 47.8329 418.718 46.954 418.132 46.954C417.448 46.954 416.471 45.9775 415.983 44.7079C415.397 43.5361 414.03 42.1689 412.858 41.5829C411.686 41.0947 410.514 39.8251 410.221 38.8486C410.026 37.7744 409.343 37.2861 408.757 37.579C407.585 38.3603 402.018 27.6181 399.382 19.8056C398.503 16.9736 396.647 13.3603 395.378 11.7978C393.327 9.35638 392.643 9.16107 390.104 9.84467C388.542 10.3329 384.733 10.6259 381.706 10.6259C376.53 10.5283 375.26 11.1142 374.186 14.1415C373.991 14.7275 372.526 14.1415 370.866 12.9697C368.718 11.5048 367.546 9.45404 366.471 5.7431C365.202 1.0556 364.811 0.567322 362.175 0.372009C360.612 0.274353 357.682 0.664978 355.729 1.34857Z" fill="black"/>
<circle cx="369" cy="500" fill="#5CE50D"/>
<circle cx="736" cy="867" fill="#E52A0D"/>
<circle cx="440" cy="294" fill="#E52A0D"/>
<circle cx="193" cy="216" fill="#E52A0D"/>
</svg>
