<svg width="1000" height="1000" viewBox="0 0 1000 1000" fill="none" xmlns="http://www.w3.org/2000/svg">
<rect width="1000" height="1000" />
<path d="M729.8 1.59772C727.163 2.86725 726.577 3.94147 725.601 8.53131C725.015 11.461 724.429 17.0274 724.429 20.836C724.233 33.2383 724.136 33.336 715.835 34.9962C708.999 36.2657 708.218 36.2657 701.089 34.2149C695.132 32.4571 693.081 32.2618 691.421 33.043C690.347 33.629 688.296 33.9219 687.026 33.5313C685.562 33.1407 683.511 33.629 681.753 34.7032C678.921 36.3633 678.726 36.3633 674.233 33.7266C669.741 30.9922 669.644 30.9922 661.44 32.1641C654.409 33.1407 652.847 33.1407 650.991 31.8712C648.843 30.504 643.765 30.0157 629.116 30.0157C626.284 30.0157 621.792 30.7969 619.058 31.6758C614.956 33.043 611.44 33.2383 600.21 32.9454C584.585 32.3594 575.698 30.211 568.569 25.2305C565.444 22.9844 563.491 22.3985 559.585 22.3985C555.288 22.3985 554.605 22.6915 554.605 24.254C554.605 25.3282 556.655 32.6524 559.292 40.6602L563.882 55.1133L563.687 70.7383C563.491 79.3321 562.905 89.3907 562.319 93.004C561.245 99.5469 561.147 99.8399 556.851 102.281C554.409 103.746 550.015 106.871 546.987 109.215C543.862 111.461 540.151 114.098 538.491 114.879C536.929 115.758 532.144 119.469 527.944 123.18C517.788 132.066 514.468 134.215 505.776 137.145C499.331 139.391 496.987 139.586 485.757 139.586C478.823 139.488 472.28 139.684 471.401 140.074C468.276 141.344 469.155 147.106 473.062 151.402C476.87 155.602 476.968 156.676 475.308 164C474.038 169.371 472.28 171.227 463.687 175.719C458.901 178.258 444.253 188.023 440.737 191.148C438.198 193.297 434.487 200.328 434.487 202.965C434.487 203.941 433.022 208.043 431.167 211.949C429.409 215.953 427.163 221.227 426.284 223.766C424.331 229.137 422.183 230.016 414.468 228.551C410.659 227.867 408.999 227.965 406.655 229.137C402.944 231.09 402.261 232.066 402.261 236.266C402.261 238.902 401.089 241.148 397.28 245.934L392.202 252.086L393.472 260.094C396.401 278.258 396.401 277.965 388.98 290.27C383.608 298.961 381.948 302.672 380.581 309.02C379.019 316.344 379.019 317.32 380.483 325.328C381.753 331.871 382.534 334.02 383.901 334.508C385.366 334.898 385.659 336.07 385.659 340.465C385.659 345.25 386.05 346.324 389.077 349.645L392.495 353.453L390.542 358.434C389.37 361.168 388.101 367.809 387.612 373.082C386.733 382.066 386.343 383.238 381.753 391.344C377.456 398.961 376.87 400.621 376.87 405.602C376.87 411.07 377.065 411.461 381.753 416.637C385.171 420.445 386.636 422.789 386.636 424.742C386.636 427.184 386.05 427.672 381.753 429.137C373.355 431.969 368.276 439.781 361.343 461.168C359.878 465.367 357.339 470.055 354.116 474.254C348.159 481.969 344.546 483.336 333.999 482.164C326.089 481.285 304.897 481.188 301.968 481.969C298.647 482.848 298.94 488.805 302.651 495.348C305.972 501.305 306.265 504.625 304.605 523.375C302.944 542.418 301.187 549.254 296.011 556.48C289.37 565.758 287.124 572.203 287.026 580.992C287.026 590.074 283.218 602.574 279.409 605.797C274.819 609.703 274.331 610.484 274.331 613.609C274.331 620.445 272.378 627.281 269.546 630.309C263.101 637.242 261.147 643.102 258.804 662.242C258.12 668.59 257.241 670.934 253.628 676.891C250.894 681.383 248.647 686.754 247.476 691.344C245.718 698.668 236.831 717.711 227.358 734.313C221.694 744.371 213.198 751.891 207.632 751.891C203.53 751.891 202.651 752.867 201.089 759.703C200.405 762.633 197.964 769.566 195.62 775.133C189.175 789.977 184.292 808.043 183.804 819.273L183.315 828.551L174.819 845.152L166.421 861.754L161.636 863.023C156.948 864.391 156.948 864.391 157.437 867.809C157.827 869.664 158.999 873.082 160.171 875.328C161.343 877.477 163.003 880.602 163.882 882.262C166.323 886.852 165.835 901.988 163.101 910.289C160.073 919.273 153.433 927.867 148.55 928.941C143.569 930.016 139.663 934.801 139.565 939.977C139.565 948.766 139.077 949.449 126.968 959.41C116.714 967.711 115.347 969.273 113.979 973.473L112.515 978.258L118.472 978.746C121.694 979.137 131.948 979.625 141.03 980.016C150.21 980.406 159.878 981.285 162.515 981.969C166.909 983.141 167.495 983.043 168.374 981.578C168.96 980.699 170.62 978.746 172.085 977.281L174.917 974.547L179.897 977.086C184.487 979.43 185.464 979.625 192.69 978.941C196.89 978.551 203.335 977.379 206.753 976.305C211.733 974.742 214.468 974.547 219.351 975.035L225.503 975.719V980.309C225.503 984.508 225.894 985.289 230.386 989.684C233.901 993.199 235.269 995.25 235.269 997.203V999.938H244.839C251.87 999.938 254.897 999.547 256.558 998.375C258.022 997.301 262.026 996.715 269.546 996.324L280.288 995.738L281.851 991.832C283.022 989.098 284.878 987.047 288.589 984.703L293.765 981.383H305.972H318.179L319.155 977.672C319.644 975.719 320.425 972.301 320.913 970.152C321.597 966.93 322.28 966.148 325.015 965.367C329.214 964.195 331.558 959.313 333.022 948.57C333.608 944.371 334.683 939.391 335.464 937.535C337.319 933.141 337.222 920.445 335.269 909.898L333.706 901.305L336.343 896.715C337.808 894.078 339.858 889.684 340.835 886.852C341.812 883.922 343.96 880.016 345.62 878.16C349.233 874.156 350.503 871.129 350.503 866.832C350.503 861.852 351.577 861.07 355.093 863.219C357.73 864.781 358.218 865.758 358.804 870.445C359.487 875.523 359.78 876.012 364.077 878.746C368.179 881.285 374.526 883.727 377.554 883.727C378.335 883.727 378.53 882.164 378.14 878.648L377.651 873.473L383.901 870.152C389.565 867.125 390.737 866.832 395.62 867.418L400.991 868.102L405.972 861.852C410.366 856.383 411.636 855.406 416.226 854.039C422.378 852.281 423.257 851.402 424.136 846.129C424.624 843.785 426.089 840.953 427.944 839.098C430.776 836.07 431.46 835.875 437.319 835.875C443.374 835.875 444.448 835.484 455.483 829.43C469.448 821.813 473.94 817.809 476.089 811.07C478.726 802.77 486.05 790.465 489.468 788.512C491.226 787.535 497.476 783.531 503.335 779.625C509.292 775.719 516.323 771.617 519.058 770.543C522.964 768.883 525.015 767.027 529.019 761.656C531.851 757.945 536.929 752.77 540.347 750.23C543.862 747.691 546.987 744.957 547.28 744.176C547.573 743.395 548.062 739.586 548.452 735.68C548.94 728.941 548.843 728.258 546.401 725.133C543.765 721.617 543.472 720.055 544.448 714.879C544.937 712.438 545.522 711.852 547.671 711.852C549.038 711.852 552.944 710.973 556.265 709.996C559.683 708.922 564.663 707.848 567.495 707.555C570.718 707.164 576.089 705.211 581.655 702.379C589.663 698.277 590.835 697.301 592.202 693.98C593.081 691.832 595.522 688.121 597.573 685.582C600.796 681.773 601.48 680.211 601.48 676.891C601.48 673.375 601.089 672.594 598.647 671.422C595.815 669.957 590.64 663.902 589.468 660.875C589.175 659.898 587.319 659.02 584.683 658.629C582.339 658.238 578.53 656.871 576.089 655.699C561.929 648.375 556.362 646.422 549.331 646.422C543.569 646.422 541.909 646.031 539.565 644.078L536.636 641.832L538.882 636.461C540.737 631.773 541.714 630.699 546.694 627.965C554.605 623.473 556.558 619.273 556.558 606.871V597.594L563.491 592.027C569.448 587.145 571.108 584.996 575.698 576.305L581.167 566.344H585.757C592.202 566.344 595.132 563.121 597.671 553.258C598.745 549.156 601.577 542.125 604.116 537.535L608.608 529.234L611.733 531.188C616.128 533.922 622.769 532.945 626.48 529.137C628.823 526.695 629.898 526.305 634.39 526.305C639.468 526.305 639.565 526.305 642.69 521.422C646.304 515.953 649.624 514.293 655.288 515.172C658.413 515.66 659.585 516.539 662.124 520.543C664.468 524.254 665.933 525.523 668.667 526.207C676.48 528.16 679.214 528.258 681.069 526.793C682.144 526.012 683.901 525.328 684.976 525.328C686.245 525.328 688.003 523.57 689.858 520.641C691.519 518.102 694.253 515.367 696.011 514.391C699.136 512.926 699.624 512.926 704.312 514.586C707.144 515.563 711.929 517.711 715.151 519.371C718.276 521.031 721.304 522.398 721.987 522.398C722.573 522.398 727.065 523.961 731.851 525.914C739.175 528.844 742.3 529.43 750.503 529.918L760.269 530.504L765.835 526.793L771.401 523.082V516.441V509.898L767.788 508.629C765.737 507.945 762.515 505.699 760.562 503.648C757.144 499.938 757.046 499.84 748.355 499.254C737.905 498.57 735.659 497.301 734.194 491.441C733.12 487.34 732.73 487.047 725.894 483.824C721.89 482.066 718.374 479.918 718.081 479.137C717.788 478.258 719.155 475.621 721.206 472.887C723.159 470.348 727.554 462.438 730.972 455.504C737.808 441.148 741.519 436.559 757.925 421.422C764.468 415.367 768.862 410.484 769.644 408.531C770.523 405.992 771.401 405.211 773.745 405.016C776.675 404.723 776.773 404.527 777.065 399.547C777.358 394.176 778.14 393.59 782.632 395.348C784.097 395.934 785.757 395.348 788.98 393.004C793.276 389.879 793.472 389.781 796.792 391.246C799.331 392.32 802.847 392.613 810.757 392.32L821.304 391.832L825.796 387.438L830.288 382.945L830.093 376.207C829.898 368.102 831.753 363.023 837.71 355.895C839.858 353.258 841.714 350.328 841.714 349.547C841.714 347.984 849.526 343.883 856.46 341.734C859.585 340.856 860.073 340.172 860.659 337.047C860.952 335.094 861.245 332.359 861.245 330.992C861.245 329.039 862.319 327.965 866.812 325.621C872.378 322.691 872.476 322.594 876.675 312.828C880.581 304.039 881.362 302.77 884.097 301.988C886.636 301.305 887.124 300.621 887.417 297.691C887.71 294.566 887.222 293.688 882.632 289.586C879.898 287.145 877.261 285.094 876.773 285.094C876.284 285.094 875.894 284.313 875.894 283.336C875.894 282.359 873.94 278.453 871.499 274.547C867.3 267.809 867.105 267.125 867.105 260.191C867.105 253.063 867.202 252.672 870.815 248.668C878.237 240.27 877.944 241.051 876.48 236.266L875.21 231.871L865.835 229.039C855.874 226.012 855.386 225.523 855.386 218.102C855.386 216.246 854.702 215.563 852.358 215.074C848.843 214.391 847.671 212.242 845.132 201.109L843.374 193.785L849.429 181.676C856.851 166.93 856.851 165.563 848.745 161.266C845.718 159.703 840.444 157.555 837.222 156.676C830.679 154.82 829.019 152.965 829.019 147.008C829.019 143.981 828.53 143.59 818.862 138.219C809.292 132.75 808.706 132.262 806.655 127.477C805.581 124.742 803.921 120.25 803.14 117.516L801.675 112.438L781.362 112.047C762.026 111.656 761.05 111.754 757.73 113.707C749.819 118.59 750.698 118.883 745.523 109.703C742.983 105.113 741.226 101.109 741.519 100.719C741.909 100.328 749.526 95.6407 758.511 90.1719L774.819 80.4063V66.6368C774.819 54.0391 775.015 52.5743 776.87 50.0352L778.921 47.3008L784.194 52.1837C789.761 57.3594 795.327 60.3868 796.694 58.9219C797.476 57.9454 802.651 39.1954 802.651 37.1446C802.651 36.168 800.601 36.0704 793.96 36.5587C785.952 37.2422 784.878 37.0469 779.898 34.8008C776.968 33.4337 772.183 31.6758 769.253 30.7969C764.858 29.5274 762.808 28.0626 757.046 22.1055C752.944 17.9063 749.819 13.7071 749.429 12.0469C747.866 5.01569 746.694 2.76959 744.058 1.4024C740.444 -0.453064 733.706 -0.355408 729.8 1.59772Z" fill="black"/>
<circle cx="319" cy="500" fill="#5CE50D"/>
<circle cx="500" cy="155" fill="#E52A0D"/>
<circle cx="530" cy="373" fill="#E52A0D"/>
<circle cx="173" cy="864" fill="#E52A0D"/>
</svg>
