<svg width="1000" height="1000" viewBox="0 0 1000 1000" fill="none" xmlns="http://www.w3.org/2000/svg">
<rect width="1000" height="1000" />
<path d="M562.646 30.1104C560.6 33.6442 558.555 37.457 558.183 38.7589C556.881 43.2227 551.115 52.6152 549.348 53.1732C548.232 53.5451 547.302 55.312 546.558 58.2878C545.535 62.6586 545.349 62.8446 543.024 61.9147C538.561 60.2407 527.959 58.2878 522.937 58.2878C518.288 58.2878 518.102 58.3809 516.986 61.3567C514.754 67.5873 516.149 69.8192 520.427 66.7504C523.681 64.4255 525.913 64.3325 530.563 66.2854C537.166 68.9822 541.908 75.1199 541.908 80.7926C542.001 86.4653 544.233 93.1609 546.186 93.4399C547.116 93.5329 549.441 94.0909 551.208 94.5558C552.975 95.0208 555.579 95.6718 557.067 95.9508C559.856 96.5087 560.6 99.5776 558.09 100.508C556.695 101.065 556.695 101.251 558.09 103.39C559.856 105.994 560.042 107.575 558.555 107.575C557.997 107.575 555.579 109.249 553.161 111.295C550.743 113.341 548.325 115.015 547.767 115.015C546.279 115.015 545.07 111.016 546.372 110.551C546.93 110.365 548.79 109.342 550.464 108.226C554.835 105.25 555.114 101.251 551.208 97.9037C545.814 93.3469 543.303 94.7418 541.908 103.111C540.607 110.551 539.212 111.76 531.4 112.411C524.89 112.969 521.822 115.015 519.776 120.129C517.916 124.965 518.009 124.872 516.149 123.198C514.847 122.175 512.429 121.803 506.105 121.896C497.922 121.989 497.736 121.989 496.899 124.5C496.155 126.453 496.341 127.476 497.55 128.778C499.503 131.01 499.596 136.311 497.643 139.007C496.248 141.053 496.248 141.332 498.201 143.378C499.782 145.052 500.154 146.447 499.968 150.446C499.782 153.887 500.247 156.49 501.456 158.722C502.758 161.14 503.316 165.325 503.967 175.461C504.896 191.178 504.617 194.153 501.549 199.733C499.782 202.802 497.829 204.569 494.016 206.615C489.459 209.126 488.715 209.87 487.785 213.403C486.948 216.937 486.204 217.681 482.02 219.82C479.416 221.122 474.766 224.47 471.79 227.074C466.769 231.63 465.839 232.095 460.445 232.653C453.098 233.397 450.773 232.746 450.773 229.863C450.773 225.307 446.589 223.726 439.707 225.679C437.382 226.33 436.08 226.237 435.15 225.493C434.127 224.563 433.569 224.749 432.546 226.144C430.222 229.305 433.011 235.35 437.847 237.861C439.8 238.791 441.567 240.465 441.939 241.488C442.683 243.813 446.682 243.999 449.007 241.86C451.145 239.907 452.819 241.023 452.633 244.092C452.261 249.392 452.633 250.88 454.772 251.624C456.353 252.275 457.562 251.903 459.887 250.136C463.607 247.346 465.002 248.183 464.537 252.74C464.351 255.344 463.793 255.995 461.933 256.181C460.631 256.367 459.143 257.018 458.678 257.669C457.934 258.692 456.818 258.599 453.098 257.483C450.494 256.739 446.868 256.181 444.915 256.181C441.567 256.181 441.195 255.902 439.614 252.089C438.033 248.462 437.475 247.997 434.499 247.811C432.732 247.718 430.594 247.625 429.757 247.625C428.827 247.532 427.804 248.741 427.153 250.415C426.595 251.996 424.177 255.065 421.759 257.204C418.039 260.645 417.109 261.017 415.9 260.087C414.784 259.157 413.947 259.157 412.088 259.994C410.042 260.924 409.763 261.575 409.949 264.551C410.135 266.782 409.391 269.665 407.996 272.548L405.857 277.105L407.996 281.197C410.879 286.59 411.251 295.425 408.833 299.61C407.438 302.027 407.252 303.143 407.996 305.096C408.461 306.398 409.298 307.514 409.763 307.514C410.135 307.514 410.786 308.816 411.158 310.49C411.623 312.722 411.995 313.187 412.832 312.35C415.435 309.746 419.992 312.164 420.085 316.256C420.085 317.279 418.969 319.325 417.574 320.719C413.762 324.718 409.112 324.346 399.254 319.232C385.77 312.35 384.747 312.722 384.747 324.718C384.747 331.228 384.561 332.065 382.422 333.739C380.469 335.227 380.097 336.343 380.097 340.62C380.097 343.875 379.446 347.037 378.237 349.362C375.727 354.291 375.913 356.894 378.981 359.777C380.841 361.544 382.794 362.288 386.421 362.567C389.118 362.846 391.815 363.497 392.373 364.055C393.861 365.543 386.049 367.403 381.957 366.566C373.588 364.892 373.402 364.985 370.891 372.425L368.659 379.213L361.777 383.026C356.198 386.281 354.803 387.49 353.966 390.187C350.525 400.974 345.224 413.435 343.271 415.481C341.318 417.527 341.04 418.457 341.597 421.34C342.248 425.339 340.203 428.407 336.855 428.407C334.437 428.407 332.112 430.732 330.717 434.731L329.694 437.707H321.511H313.234L311.374 442.822C308.956 449.238 308.956 449.517 311.281 450.726C313.978 452.214 313.606 455.934 310.351 460.026C308.398 462.537 307.561 464.582 307.561 467.093C307.561 469.511 306.538 472.208 304.772 475.091C302.447 478.811 301.331 479.741 297.983 480.578C292.589 481.88 287.846 487.738 288.218 492.574C288.497 495.271 288.962 495.922 291.566 496.666C295.472 497.782 295.472 500.2 291.473 503.175C287.381 506.337 284.034 512.847 281.988 521.402C281.151 525.215 279.384 529.958 278.082 531.911C276.873 533.864 274.641 538.513 273.246 542.326C271.665 546.232 268.782 551.44 266.179 554.509L261.901 559.902L262.273 584.081L262.645 608.353L267.574 610.863C270.27 612.351 273.525 613.467 274.92 613.467C277.524 613.467 279.849 615.513 284.685 622.209C287.288 625.65 287.474 625.743 291.194 625.092C296.867 624.069 300.959 624.162 302.168 625.371C302.726 625.929 303.47 628.532 303.842 631.229C304.307 634.856 304.121 636.344 302.912 637.925C300.773 640.715 299.285 645.178 297.797 653.641C296.774 659.407 295.472 662.476 291.287 669.45C286.545 677.262 286.08 678.471 286.638 681.818C287.66 688.421 288.962 690.188 293.24 690.467C295.658 690.653 297.797 691.49 298.727 692.513C300.215 694.094 300.215 694.838 299.192 698.744C297.239 705.997 294.728 709.159 280.686 722.271C261.436 740.405 261.436 740.498 276.315 753.425C288.218 763.654 288.032 763.375 288.032 777.603C288.032 784.299 288.032 784.299 292.031 787.926C294.635 790.436 297.89 792.203 301.796 793.319C306.445 794.807 307.561 795.458 307.561 797.039C307.561 798.248 310.909 802.34 316.303 807.734C323.37 814.801 325.323 817.312 326.253 820.753C327.09 823.729 329.787 827.913 335.181 834.516L342.899 844.002L348.293 844.281L353.594 844.56L356.105 849.302C358.058 852.929 359.545 854.417 362.614 855.719C364.846 856.649 368.566 859.253 370.891 861.485C373.867 864.367 376.192 865.669 378.795 866.134C380.748 866.413 383.817 867.715 385.491 868.924C388.281 871.063 389.025 871.156 395.535 870.598C402.23 869.947 402.602 870.04 405.113 872.365C408.089 875.248 413.204 876.364 417.109 874.969C418.876 874.411 425.293 874.318 435.522 874.783C452.633 875.62 453.563 875.992 453.563 881.571C453.563 883.431 454.772 885.663 457.283 888.453C460.166 891.801 461.003 893.475 461.003 896.172C461.003 898.59 461.654 900.17 463.421 901.844C464.723 903.053 466.676 905.657 467.606 907.517C469.186 910.586 469.837 911.051 472.627 911.051C474.394 911.051 475.882 911.516 475.882 912.074C475.882 912.818 477.649 912.911 481.741 912.539C488.622 911.795 490.668 912.911 495.876 919.699L499.224 924.07H511.499C518.939 924.07 525.913 924.628 529.354 925.465C532.423 926.209 537.166 926.767 539.863 926.86C543.489 926.86 544.698 927.232 544.698 928.255C544.698 930.859 546.744 934.114 549.069 935.137C550.371 935.787 553.254 937.74 555.579 939.6C560.042 943.227 559.856 942.669 557.625 951.225C556.974 953.921 555.114 955.967 549.813 960.431C541.35 967.406 540.699 969.824 546.651 971.59C549.534 972.52 550.836 972.52 552.138 971.683C553.161 971.126 555.486 970.382 557.439 970.01C560.6 969.545 561.344 969.824 564.134 972.799C567.668 976.519 568.505 976.705 570.644 974.845C571.481 974.194 574.643 973.171 577.618 972.613C584.221 971.312 585.43 970.382 586.174 966.29C586.918 962.384 585.151 959.501 579.85 955.688C577.339 953.828 575.108 951.039 573.341 947.505C570.365 941.46 570.179 939.693 572.132 938.019C572.969 937.368 575.108 933.928 576.875 930.487C579.106 926.209 580.78 924.07 581.896 924.07C582.826 924.07 584.5 923.233 585.709 922.303C587.848 920.629 587.941 919.885 587.941 909.935C587.941 896.637 589.429 893.289 599.472 884.826C600.495 883.989 602.355 879.712 603.75 875.062C607.005 864.181 607.284 863.623 612.585 860.462C619.187 856.463 619.28 855.254 612.957 855.254C608.4 855.254 607.842 855.068 607.005 852.836C605.517 849.116 605.889 847.814 608.679 846.233C610.167 845.396 612.027 843.537 612.771 842.142C613.793 840.468 615.188 839.445 616.955 839.259C619.001 839.073 619.652 838.422 619.838 836.376C620.117 833.958 620.396 833.772 623.093 834.33C626.534 835.074 629.324 837.306 629.324 839.166C629.324 840.282 630.347 840.375 634.252 839.91C640.204 839.166 643.273 841.119 644.947 846.791C645.598 848.837 646.435 850.79 646.9 850.976C647.365 851.255 649.132 848.744 650.805 845.303C654.432 838.236 656.664 836.283 658.524 838.701C660.198 841.026 664.104 841.677 665.499 840.003C666.429 838.887 666.336 837.027 664.755 830.145C663.639 825.496 662.988 821.311 663.267 820.846C663.546 820.288 665.499 819.916 667.452 819.916C670.799 819.916 671.264 819.637 672.938 816.103L674.798 812.29L672.566 808.942C670.706 806.246 670.52 805.316 671.45 804.386C672.287 803.456 673.403 803.456 675.821 804.2C680.471 805.595 684.656 803.921 683.726 801.038C682.052 795.737 682.145 794.063 684.098 793.04C686.887 791.552 686.515 789.228 683.354 788.019C680.006 786.81 679.541 784.764 679.541 772.86C679.541 764.305 679.634 764.026 681.959 763.189C683.447 762.631 684.935 760.678 686.236 757.888C687.91 754.075 688.189 751.565 688.282 737.057C688.375 720.69 688.375 720.597 690.7 718.737C692.188 717.529 695.164 716.599 698.605 716.227C701.674 715.948 705.672 715.297 707.439 714.925L710.694 714.181L706.974 712.507C704.277 711.298 701.953 711.019 698.14 711.391C693.211 711.949 692.932 711.856 691.444 709.159C690.421 707.392 688.84 706.183 686.98 705.904C683.633 705.16 683.354 703.207 686.515 702.37C690.235 701.44 689.584 698.279 685.586 697.535C682.145 696.884 681.401 695.396 683.726 693.443C684.842 692.513 686.422 692.699 691.816 694.373C701.767 697.349 707.439 695.954 707.439 690.56C707.439 688.328 706.602 687.491 701.953 684.887C696.187 681.725 694.606 679.401 696.838 677.541C698.047 676.518 701.395 676.704 706.044 678.099C707.625 678.564 707.904 678.192 707.904 675.216C707.904 672.054 708.183 671.682 710.973 670.938C714.6 670.008 714.693 668.52 711.624 665.172C708.834 662.104 708.834 662.383 711.252 658.384C713.112 655.408 713.205 654.757 712.089 649.735C711.159 645.271 711.159 643.598 712.089 641.366C712.74 639.785 713.019 637.274 712.647 635.507C712.182 632.81 712.368 632.252 714.414 631.322C717.576 629.834 717.39 628.346 713.949 628.346C711.624 628.346 711.159 627.974 711.159 626.022C711.159 624.255 710.415 623.418 707.997 622.395C706.323 621.651 704.649 620.721 704.277 620.163C703.72 619.233 712.089 618.117 720.087 618.117C726.596 618.117 727.898 617.466 727.898 614.304C727.898 612.63 728.549 611.328 729.758 610.677C733.664 608.632 730.874 603.424 726.224 604.075C724.829 604.168 721.947 606.028 719.622 608.074C716.274 610.956 714.972 611.607 713.019 611.142C709.95 610.305 709.857 610.212 711.159 607.888C711.996 606.307 711.903 605.563 710.787 604.261C708.927 602.215 708.927 600.076 710.694 598.588C711.438 597.937 712.089 596.635 712.089 595.705C712.089 593.38 715.623 591.148 719.25 591.148C723.062 591.148 723.806 589.847 720.831 588.452C717.204 586.871 713.019 587.243 707.625 589.754C700.558 593.008 692.467 593.008 687.631 589.754C684.191 587.336 682.889 583.709 685.586 583.709C686.329 583.709 687.631 582.593 688.561 581.105C689.491 579.71 691.165 577.85 692.281 576.92C694.978 574.688 694.978 574.037 692.095 572.736C689.77 571.713 689.77 571.527 691.165 568.83C691.909 567.342 693.397 565.668 694.327 565.11C697.024 563.715 701.488 563.994 702.883 565.668C704.184 567.249 707.625 569.109 710.973 570.132C713.391 570.969 713.856 568.83 711.624 566.97C709.392 565.11 710.043 563.436 713.391 562.32C717.576 561.018 718.32 558.879 715.623 556.089C713.856 554.23 713.763 553.765 714.879 553.021C715.623 552.556 717.204 552.37 718.32 552.649C721.389 553.486 722.318 548.929 719.622 546.418C717.297 544.186 717.204 543.814 719.157 541.117C720.087 539.815 721.482 539.071 723.341 539.071C725.852 539.071 726.131 538.885 725.387 536.932C724.736 535.073 724.643 532.283 725.108 526.424C725.387 523.262 724.085 522.146 719.994 522.146C716.46 522.146 713.019 519.728 713.019 517.311C713.019 516.381 712.182 516.009 710.508 516.102C708.369 516.288 707.904 515.823 707.16 512.754C706.602 510.336 705.579 508.941 704.091 508.383C702.418 507.732 701.86 506.802 701.86 504.756C701.86 500.2 703.534 497.875 709.392 494.527C714.321 491.644 714.879 490.993 714.879 488.389C714.879 485.599 714.414 485.134 708.369 482.251L701.953 479.09L701.86 472.022C701.86 459.84 705.858 452.586 712.74 452.586C716.46 452.586 719.529 451.563 719.529 450.447C719.529 449.982 721.017 447.75 722.783 445.612C724.829 443.008 726.224 440.218 726.596 437.614C726.968 435.382 727.898 432.778 728.642 431.848C729.851 430.453 729.851 429.523 728.921 425.246C727.991 420.875 727.991 419.759 729.2 417.341C730.037 415.853 731.432 414.365 732.455 413.993C734.129 413.528 734.222 412.691 733.85 404.415C733.199 392.418 733.013 391.489 730.316 390.838C727.061 390.001 726.131 386.56 728.735 384.886C730.967 383.305 731.246 381.631 729.386 380.143C728.642 379.492 727.898 377.074 727.619 374.656C727.433 372.239 726.875 369.449 726.503 368.333C726.038 366.659 726.317 366.287 728.642 365.822C731.153 365.264 731.525 364.799 732.083 360.428C732.455 357.731 733.571 354.291 734.501 352.71C735.431 351.129 736.268 348.897 736.268 347.781C736.268 346.665 736.733 345.456 737.198 345.177C738.593 344.34 738.314 340.992 736.733 340.434C735.989 340.062 735.338 338.667 735.338 337.18C735.338 335.134 734.408 333.925 731.06 331.6L726.689 328.624L728.921 326.95C730.13 326.02 731.432 325.183 731.897 325.183C732.269 325.183 732.548 324.253 732.548 323.044C732.548 321.928 733.385 319.138 734.501 316.907C736.454 312.536 736.268 310.304 734.036 310.304C733.292 310.304 731.339 309.002 729.758 307.328C727.712 305.282 725.573 304.166 722.876 303.887L719.064 303.329L718.134 297.099C717.669 293.658 716.646 290.31 716.088 289.659C715.437 289.101 714.879 287.892 714.879 287.148C714.879 286.311 713.577 282.964 712.089 279.802C710.508 276.547 709.299 273.199 709.299 272.362C709.299 271.432 708.648 269.944 707.904 269.014C705.765 266.224 706.23 263.249 709.113 261.11C714.135 257.297 714.228 257.204 713.577 252.833C713.298 250.508 712.368 247.904 711.624 247.068C710.88 246.231 710.229 244.743 710.229 243.72C710.229 241.023 708.462 239.628 705.114 239.628C703.441 239.628 701.488 238.884 700.651 237.954C699.349 236.559 699.349 235.815 700.279 232.932C700.93 230.979 702.139 228.747 702.976 227.818C704.835 225.679 705.951 216.937 704.742 214.612C703.998 213.31 702.232 212.659 697.954 212.194C688.282 211.078 685.028 207.452 691.165 204.569C694.513 202.988 695.536 200.291 693.025 199.268C692.281 198.989 691.63 197.966 691.63 196.943C691.63 196.013 690.421 194.06 688.84 192.851C687.352 191.549 686.05 190.155 686.05 189.876C686.05 189.504 690.049 189.411 694.792 189.597C705.207 189.969 704.649 190.713 704.649 177.042V167.929L707.904 166.627C711.252 165.139 713.019 162.814 712.368 160.768C711.531 158.35 703.72 151.283 700.465 149.981C697.954 148.865 697.21 148.028 697.21 146.168C697.21 143.471 695.257 139.193 691.909 134.916C690.328 132.777 688.654 131.847 685.864 131.382C683.075 130.917 680.75 129.615 677.588 126.639C672.38 121.803 668.102 121.059 665.034 124.407C663.918 125.616 662.523 126.174 661.128 125.895C659.454 125.616 657.78 126.639 653.874 130.266C650.898 133.149 648.853 135.939 648.853 137.055C648.853 140.03 646.156 140.495 644.947 137.798C644.017 135.753 644.296 134.637 646.807 129.801C650.154 123.291 650.34 122.082 648.388 117.526C646.156 112.225 646.528 109.993 649.875 108.784C653.688 107.296 653.223 104.599 649.039 103.762C644.947 102.925 644.668 102.46 646.435 99.9496C647.272 98.8336 647.923 97.0667 647.923 96.1368C647.923 94.7418 647.458 94.4629 645.877 94.9279C644.668 95.2068 642.901 95.4858 641.785 95.4858C640.669 95.4858 639.46 96.4158 638.809 97.8107C636.019 103.948 626.534 97.1597 626.534 89.0692C626.534 86.4653 626.069 84.9774 625.139 84.6984C624.395 84.3264 623.744 83.2105 623.744 82.0015C623.744 78.7467 621.326 77.4448 614.909 77.2588C611.748 77.1658 608.679 76.8868 608.028 76.5148C607.47 76.1429 607.005 74.376 607.005 72.5161C607.005 69.3542 607.098 69.2612 609.888 69.8192C611.748 70.1912 613.886 69.7262 616.118 68.6103C619.559 66.8434 619.652 66.8434 621.791 68.6103C624.023 70.3772 624.023 70.3772 627.371 67.9594C629.231 66.5644 631.276 64.7975 631.927 64.0535C633.787 61.7286 633.229 57.9159 630.719 55.498C627.836 52.8011 627.65 47.9655 630.254 43.5947C632.113 40.6188 632.113 40.6188 630.254 40.6188C629.138 40.6188 627.929 39.6889 627.278 38.2939C626.069 35.6901 626.162 35.6901 622.163 36.806C619.373 37.643 619.094 37.55 618.164 34.5742C617.327 31.8773 616.583 31.4124 613.328 30.8544C609.702 30.2034 609.237 30.3894 607.005 33.1793C604.122 36.7131 601.425 36.527 601.425 32.8073C601.425 31.5053 601.053 29.4595 600.495 28.1575C599.658 25.8326 599.286 25.7396 592.405 25.7396C588.406 25.8326 582.826 26.3906 579.943 27.0416C575.015 28.2505 574.736 28.1575 572.225 26.1116C568.226 22.5778 566.738 23.2288 562.646 30.1104Z" fill="black"/>
<circle cx="470" cy="226" fill="#5CE50D"/>
<circle cx="542" cy="927" fill="#E52A0D"/>
<circle cx="291" cy="629" fill="#E52A0D"/>
<circle cx="704" cy="470" fill="#E52A0D"/>
</svg>
