<svg width="1000" height="1000" viewBox="0 0 1000 1000" fill="none" xmlns="http://www.w3.org/2000/svg">
<rect width="1000" height="1000" />
<path d="M430.463 7.33246C430.463 19.0512 427.24 35.9457 423.334 45.6137C421.381 50.3989 418.353 59.3832 416.791 65.6332C411.713 84.8715 407.025 97.8598 399.701 113.289C390.619 132.137 374.017 162.704 367.67 172.176C364.935 176.18 361.029 183.016 358.881 187.313C356.83 191.61 353.9 196.59 352.338 198.543C348.724 203.133 346.869 207.039 346.088 211.629C345.697 213.778 344.037 217.098 342.474 218.954C339.935 222.079 339.642 223.055 339.642 229.793C339.642 240.438 337.006 259.774 334.857 265.438C332.318 271.981 328.9 279.5 317.963 302.547C312.787 313.289 306.146 328.329 303.021 336.043C298.236 348.055 297.357 351.473 296.185 361.434C293.841 380.672 294.33 400.106 297.65 424.325C301.752 454.11 306.244 472.567 312.298 484.676C313.763 487.606 315.326 492.489 315.716 495.418C316.205 498.836 318.158 504.207 321.185 510.067C323.724 515.145 326.849 522.176 328.119 525.692C329.388 529.207 334.173 537.996 338.763 545.223C348.627 560.75 360.345 582.625 363.177 590.731C366.107 599.325 371.576 623.836 372.357 632.137C372.748 636.141 374.31 644.832 375.873 651.375C378.998 664.657 382.513 684.871 385.541 706.844C386.713 714.852 389.447 728.329 391.693 736.629L395.795 751.766V774.227C395.795 795.418 395.697 797.079 393.451 803.524C391.009 810.457 385.931 819.442 379.779 827.547C376.166 832.332 361.322 844.832 343.548 858.211C337.884 862.411 328.021 870.321 321.576 875.789C303.802 890.731 299.213 894.051 286.42 900.692C279.974 904.11 269.33 910.457 262.689 914.754C251.849 921.883 250.58 923.055 249.701 926.473C248.431 930.965 249.408 945.516 251.263 950.496C251.947 952.352 253.607 956.746 254.974 960.262C256.244 963.778 257.904 970.711 258.588 975.692L259.857 984.774L262.787 984.481L265.814 984.188L265.521 977.743C265.228 970.516 265.619 970.028 272.259 968.172C274.701 967.489 277.435 966.707 278.412 966.512C279.877 966.024 280.072 966.61 279.877 971.688C279.681 976.571 280.267 978.524 283.588 985.653C287.103 992.977 291.107 998.446 292.181 997.274C292.279 997.079 295.599 990.926 299.408 983.7C309.662 964.364 311.517 962.704 318.353 966.219C320.697 967.391 323.92 969.637 325.58 971.2C327.631 973.153 329.486 974.032 330.951 973.739C332.904 973.543 333.49 972.469 334.759 967.489L336.224 961.434L338.959 962.899C342.279 964.559 346.478 964.657 362.298 963.387C376.459 962.215 380.756 960.457 382.611 955.086C385.052 947.957 386.713 946.981 403.412 943.172C411.908 941.317 421.283 938.582 424.31 937.313C427.24 935.946 430.951 934.871 432.513 934.871C434.369 934.871 435.931 933.895 437.591 931.746C440.033 928.719 444.72 926.766 452.533 925.399C455.658 924.911 460.736 927.059 471.478 933.407C474.408 935.164 478.9 937.411 481.341 938.289C485.15 939.657 486.42 940.829 488.47 944.637C489.838 947.274 492.963 951.375 495.306 953.914C499.896 958.7 500.97 962.215 502.24 976.864C503.314 988.289 504.584 992.977 507.416 995.614C512.396 1000.3 521.673 1001.08 525.873 997.274C532.904 991.024 537.494 988.68 546.088 987.215C550.873 986.336 556.146 984.774 558.099 983.602C561.224 981.649 562.982 981.356 574.408 981.356L587.201 981.258L595.013 976.668C599.31 974.227 604.681 971.688 606.927 971.004C609.466 970.223 611.322 968.954 612.006 967.489C613.47 964.168 616.986 962.313 623.92 961.043C628.705 960.262 630.756 959.286 633.099 956.942C634.662 955.282 638.275 953.036 640.912 951.961C645.111 950.301 645.892 949.52 646.673 946.395C647.357 943.465 648.334 942.489 651.068 941.414C654.291 940.145 654.779 940.145 656.927 941.805C662.396 946.2 667.767 942.977 673.431 932.039C675.677 927.547 677.533 923.055 677.533 921.883C677.533 920.711 679.095 915.34 680.951 909.969C685.345 897.371 685.345 893.758 680.951 886.434C676.361 878.914 676.166 877.645 677.631 869.442L678.802 862.606H683.588C686.127 862.606 690.912 863.485 694.232 864.657C697.455 865.829 700.287 866.512 700.384 866.414C700.58 866.219 703.705 861.629 707.318 856.258C711.029 850.887 714.154 846.395 714.252 846.2C714.349 846.004 720.697 845.223 728.412 844.442C745.502 842.684 745.892 842.391 745.892 833.407C745.892 828.621 746.576 825.594 748.334 821.786C752.435 812.899 751.459 796.102 745.892 780.184C743.548 773.446 727.24 741.512 722.064 733.7C720.111 730.77 718.451 728.133 718.353 727.84C718.158 727.547 716.693 726.278 715.033 725.106C710.443 721.981 710.15 719.051 713.568 712.411C717.474 704.891 719.427 697.762 720.209 688.094C720.795 680.282 720.892 679.989 726.459 672.469C731.048 666.414 733.197 664.461 737.006 662.801C742.474 660.36 744.623 657.235 745.599 650.204C745.892 647.86 747.259 644.442 748.529 642.684L750.873 639.461L748.041 638.875C746.576 638.582 741.009 635.36 735.736 631.844C730.56 628.231 725.58 625.301 724.798 625.301C721.966 625.301 720.502 619.051 720.502 607.235C720.502 598.055 720.111 595.223 718.646 592.293C717.67 590.34 716.302 586.825 715.716 584.579C714.642 580.868 714.838 580.086 716.986 576.668C718.256 574.618 720.209 570.028 721.283 566.512L723.236 560.067L719.916 556.844C716.4 553.524 711.029 543.465 709.271 537.118L708.295 533.407L699.798 539.852C695.111 543.465 691.009 547.176 690.716 548.055C690.131 550.106 683.002 552.059 675.97 552.059C664.447 552.059 657.416 544.637 653.998 528.914C651.849 518.954 650.384 515.145 647.748 512.996C646.673 512.118 646.381 510.848 646.869 508.7C648.724 498.446 634.271 482.332 611.127 469.051C607.123 466.707 599.213 461.141 593.646 456.649C582.123 447.372 580.17 446.883 572.064 450.985C567.865 453.133 565.912 453.426 557.709 453.426C549.603 453.426 547.357 453.036 542.865 450.985L537.591 448.543L538.275 444.442C539.056 439.754 540.326 437.801 542.67 437.801C543.548 437.801 545.306 436.922 546.673 435.848C548.041 434.774 549.701 433.895 550.384 433.895C551.068 433.895 553.607 430.868 555.951 427.059C558.392 423.348 560.834 420.028 561.322 419.735C562.884 418.758 562.494 390.438 560.834 382.625C560.052 378.817 559.369 371.688 559.369 366.707V357.625L569.916 346.2C579.974 335.262 580.463 334.383 583.002 326.473C587.591 312.02 592.474 299.032 594.623 296.102C595.697 294.539 596.283 292.782 595.892 292.098C595.502 291.414 590.814 286.727 585.638 281.747C577.142 273.739 576.068 272.176 574.994 267.782C574.31 265.047 572.552 261.434 571.185 259.676C569.72 258.016 567.865 255.086 567.181 253.329C566.4 251.473 564.642 248.543 563.275 246.981C561.908 245.321 558.588 240.243 555.951 235.75C550.873 227.352 550.677 227.059 541.888 224.422C538.08 223.25 534.759 221.2 529.877 216.805C522.748 210.36 520.306 209.481 510.931 209.383C507.806 209.286 505.463 208.797 504.681 207.918C503.802 206.844 502.923 206.649 501.068 207.43C499.701 207.918 498.334 208.114 498.041 207.821C497.162 206.942 505.463 187.118 509.857 179.5C516.595 167.782 525.677 154.403 532.416 146.297C542.963 133.602 543.256 125.008 533.588 112.118C530.756 108.407 527.045 102.547 525.287 99.227C519.818 88.9731 486.42 57.6254 476.068 53.0356C473.529 51.8637 470.99 50.0082 470.404 48.8364C469.818 47.6645 467.865 45.1254 466.205 43.27C463.373 40.2426 458.685 28.3286 457.611 21.395C457.416 20.1254 456.146 19.1489 454.095 18.6606C452.045 18.0746 447.943 14.852 442.279 9.09027C437.494 4.20746 432.904 0.301208 432.025 0.301208C430.756 0.301208 430.463 1.57074 430.463 7.33246Z" fill="black"/>
<circle cx="421" cy="614" fill="#5CE50D"/>
<circle cx="348" cy="286" fill="#E52A0D"/>
<circle cx="664" cy="790" fill="#E52A0D"/>
<circle cx="391" cy="903" fill="#E52A0D"/>
</svg>
