<svg width="1000" height="1000" viewBox="0 0 1000 1000" fill="none" xmlns="http://www.w3.org/2000/svg">
<rect width="1000" height="1000" />
<path d="M410.828 2.5517C409.754 3.91888 408.582 6.75092 408.192 8.89935C407.606 12.6103 407.41 12.8056 400.77 14.8564C396.18 16.3212 393.641 16.7119 392.859 16.0283C392.176 15.4423 389.539 14.7587 387.098 14.4658C383.192 13.9775 381.629 14.3681 375.184 17.5908C370.301 19.9345 366.395 22.6689 364.149 25.3056C361.902 27.9423 359.852 29.4072 358.387 29.4072C357.117 29.4072 355.359 30.4814 354.285 31.8486C352.527 34.29 352.43 34.3876 348.817 32.8251L345.203 31.3603V22.6689V13.9775L341.883 11.9267C339.246 10.2665 337 9.87592 330.359 9.87592C323.133 9.87592 321.863 10.1689 320.203 11.9267C316.395 16.1259 310.242 19.7392 307.703 19.0556C306.434 18.7626 305.067 18.9579 304.774 19.5439C304.383 20.1298 302.527 20.6181 300.574 20.6181H297.059L297.645 24.7197C298.035 27.747 297.645 29.8954 295.984 33.2158C293.152 38.7822 291.492 46.3017 291.492 53.4306C291.492 57.9228 290.906 59.5829 288.465 63.2939C284.461 68.9579 283.777 74.2314 286.414 77.9423C288.856 81.3603 290.027 88.1962 288.66 90.7353C288.074 91.8095 285.34 94.1533 282.508 96.0087C277.332 99.2314 277.234 99.2314 266.59 99.0361C251.16 98.7431 247.449 99.8173 239.832 106.751C236.317 109.876 232.801 114.075 231.922 116.126C230.75 118.763 228.602 120.813 224.402 123.352L218.543 127.063L217.859 144.349C216.395 185.462 216.297 186.634 213.953 186.634C212.781 186.634 210.731 187.415 209.461 188.294C203.992 192.005 192.469 202.942 189.637 207.142C174.5 229.505 153.992 250.11 146.961 250.11C143.348 250.11 138.172 252.845 131.043 258.802C124.207 264.368 109.852 274.134 101.942 278.626C99.0118 280.188 97.0587 282.63 94.2267 287.708C92.1759 291.419 88.6603 296.302 86.5118 298.45C83.4845 301.282 82.5079 303.04 82.5079 305.286C82.5079 308.313 82.3126 308.509 73.4259 311.536C61.0235 315.833 53.8946 320.13 53.211 323.938C52.8204 325.501 50.4767 329.505 47.9376 332.825C43.3478 338.685 43.3478 338.782 43.9337 344.544C44.6173 350.013 44.5196 350.306 42.1759 351.38C38.3673 353.138 36.2189 356.946 36.9024 360.852C37.2931 363.489 36.9024 364.759 34.5587 367.591C32.9962 369.544 30.8478 371.302 29.8712 371.692C27.3321 372.474 24.5001 379.212 25.2814 382.532C26.1603 385.755 24.7931 386.731 19.5196 386.927C17.3712 386.927 14.8321 387.317 13.8556 387.708C12.0978 388.294 12.0978 388.489 13.6603 389.759C14.5392 390.442 17.3712 394.153 20.0079 397.962C23.5235 403.04 26.3556 405.872 30.2618 408.216C38.7579 413.392 41.1017 419.739 38.4649 430.286C37.4884 433.997 37.6837 434.974 39.4415 438.294C41.1993 441.321 42.7618 442.493 48.1329 444.642C51.7462 446.106 57.1173 447.962 60.1446 448.743C63.172 449.622 69.9103 452.552 75.086 455.188C80.2618 457.923 94.2267 464.075 106.141 468.86C117.957 473.743 129.774 478.821 132.215 480.286C134.656 481.751 138.66 483.899 141.102 485.071C143.543 486.243 151.063 491.81 157.801 497.474C169.617 507.435 170.203 508.118 173.817 515.931C176.746 522.083 177.625 525.306 177.625 529.407L177.723 534.778L174.598 534.681C172.84 534.583 171.375 534.876 171.375 535.267C171.375 535.755 173.621 538.099 176.356 540.54C180.067 543.86 182.117 545.032 184.461 545.032C186.219 545.032 189.832 546.497 193.055 548.353C200.086 552.649 218.152 559.29 225.086 560.169C234.168 561.341 255.359 568.372 260.828 572.083C264.344 574.427 266.688 575.403 268.641 575.11L271.473 574.817L267.762 571.204C265.711 569.153 262.293 567.005 260.242 566.419C258.094 565.735 255.652 564.466 254.774 563.392C253.211 561.731 253.211 561.634 255.457 561.634C256.824 561.634 258.289 562.024 258.875 562.513C260.438 564.075 270.887 569.446 272.352 569.446C273.133 569.446 274.109 570.423 274.5 571.595C274.891 572.864 276.746 575.208 278.699 576.966L282.215 580.091L279.09 580.188C275.184 580.188 275.086 581.263 278.602 584.583C282.02 587.806 287.977 590.442 295.106 591.907C300.477 592.981 301.258 593.567 312 604.114C319.324 611.341 324.793 615.931 327.625 617.103C330.067 618.177 333.875 620.618 336.219 622.474C338.563 624.427 342.567 626.77 345.203 627.747L349.891 629.407L350.965 636.731L352.137 644.056L359.07 650.403C362.879 653.919 367.469 657.923 369.227 659.29C370.984 660.657 375.379 664.173 379.09 667.2C382.703 670.228 387.684 673.743 390.125 675.013C393.152 676.673 395.301 678.821 396.961 681.849C400.867 688.978 410.242 698.548 421.863 707.239C427.82 711.634 435.047 717.493 437.977 720.325C440.906 723.06 446.57 727.454 450.477 730.091C455.067 733.118 457.508 735.364 457.508 736.634C457.508 740.149 460.242 745.227 462.195 745.227C465.418 745.227 473.133 749.134 477.235 752.845C479.383 754.798 482.41 758.899 483.875 761.927C487.977 769.935 497.449 780.481 506.141 786.634C510.242 789.563 514.539 792.786 515.516 793.958C516.59 795.13 521.375 798.255 526.063 800.989C533.387 805.188 534.559 806.165 533.192 807.142C532.215 807.825 531.922 808.899 532.215 809.876C533.192 812.22 541.395 817.493 544.129 817.493C545.594 817.493 549.012 819.935 553.797 824.329C557.899 828.138 563.758 832.532 566.785 834.095C569.91 835.657 573.914 838.099 575.672 839.661C586.512 848.743 593.738 852.649 607.41 857.044C614.93 859.388 622.156 861.536 623.524 861.829C627.43 862.61 643.055 872.864 648.426 878.138C652.625 882.239 654.188 883.02 659.07 883.997C669.715 885.95 688.172 893.665 694.422 898.841C695.985 900.11 699.5 901.868 702.137 902.845C708.875 905.286 716.395 909.681 719.227 912.806C726.356 920.423 740.809 928.724 749.988 930.384C757.996 931.751 763.465 934.778 770.496 941.321C774.988 945.618 778.699 948.352 781.336 949.134C783.778 949.817 791.395 950.306 800.672 950.306H816.004L828.895 955.774C836.024 958.802 845.887 962.806 850.867 964.563C855.945 966.419 863.074 969.251 866.883 970.813C870.692 972.474 875.086 973.743 876.844 973.743C881.434 973.743 882.508 975.013 883.094 980.481L883.582 985.462H887.098C890.027 985.462 891.199 986.048 892.859 988.392C894.52 990.638 895.887 991.321 898.328 991.321C900.086 991.321 904.285 992.395 907.606 993.763C912.391 995.716 914.637 996.106 918.348 995.618C922.059 995.13 923.817 995.423 927.137 997.083C932.703 999.915 939.149 1000.6 947.547 999.134C956.141 997.669 956.629 996.204 950.086 990.638C945.692 986.927 945.594 986.829 946.473 983.02C947.938 976.38 947.352 960.267 945.301 951.087C943.445 942.884 943.445 942.395 945.106 939.563C947.254 936.048 947.254 933.02 945.594 911.731C944.324 895.813 944.129 894.935 941.102 890.149C938.074 885.267 937.977 884.778 937.977 874.231C937.977 864.368 938.172 863.392 939.734 863.392C940.809 863.392 942.371 862.513 943.348 861.438C944.324 860.364 946.18 859.485 947.449 859.485C949.402 859.485 949.695 858.997 949.695 855.481C949.695 852.942 948.914 850.306 947.254 847.962C945.008 844.642 944.813 843.567 944.813 833.118C944.813 826.966 945.203 821.399 945.594 820.813C946.961 818.665 952.82 816.419 956.238 816.712C960.047 817.005 962 815.149 965.223 808.02C967.078 804.017 967.078 803.919 964.93 795.423C962.879 787.22 962.879 786.536 964.246 780.677C965.711 775.013 966.004 774.524 968.543 774.524C970.008 774.524 972.352 773.841 973.719 772.962C974.988 772.083 976.258 771.497 976.356 771.692C976.551 771.888 977.137 773.157 977.723 774.524L978.797 776.966L980.262 773.548C981.043 771.692 983.094 769.153 984.656 767.981L987.488 765.833L986.121 757.727C985.34 753.333 984.559 749.427 984.266 749.231C984.07 749.036 982.996 750.013 981.824 751.477L979.774 754.017L976.649 749.915C972.449 744.446 971.277 736.731 974.402 736.243C976.16 735.95 976.649 734.876 977.625 728.138C978.211 723.743 979.481 717.981 980.359 715.149C981.727 711.243 981.824 709.388 981.141 707.239C979.969 704.017 980.457 703.235 983.094 703.235C985.535 703.235 985.242 701.478 982.117 696.79C980.652 694.642 978.602 690.247 977.625 687.024C976.551 683.899 974.5 677.845 973.035 673.645C970.887 667.786 970.496 665.54 971.18 663.587C971.766 662.22 972.156 656.067 972.156 650.013C972.156 637.708 971.766 636.829 965.418 636.829C962.781 636.829 962.391 637.317 960.926 641.712C958.973 647.474 958.094 647.278 954.578 639.759C953.309 637.122 952.039 634.876 951.746 634.876C951.453 634.876 949.207 636.145 946.766 637.806L942.469 640.638L939.149 634.388C936.512 629.407 935.145 627.942 932.606 627.063C927.82 625.501 919.031 620.52 916.981 618.274C914.149 615.149 911.805 615.735 911.024 619.739C910.633 621.888 909.852 623.157 908.875 623.157C907.02 623.157 892.371 613.489 889.734 610.56C887.781 608.411 887.586 605.872 888.66 598.645C889.246 594.935 888.953 593.372 886.707 588.88C885.242 585.95 883.484 583.313 882.899 582.923C882.313 582.532 879.481 582.142 876.746 582.142C870.594 582.142 870.594 582.239 873.524 568.372C876.649 553.724 876.551 553.528 869.129 549.427C865.223 547.181 862.098 544.642 860.731 542.395C858.094 538.099 851.746 535.267 844.715 535.267C841.395 535.267 839.149 534.778 838.367 533.802C836.414 531.458 830.945 530.97 824.109 532.728C819.031 533.997 817.371 534.095 816.297 533.216C815.125 532.239 814.246 532.63 811.707 535.071C809.949 536.731 807.02 538.392 805.164 538.88C800.867 540.052 791.785 538.196 787.977 535.56C786.414 534.388 781.629 532.532 777.332 531.36C772.254 529.993 768.543 528.235 766.59 526.478C761.707 521.985 748.426 518.567 743.25 520.52C741.199 521.399 740.125 521.302 739.149 520.52C737.977 519.544 737.977 519.251 739.246 518.274C740.613 517.298 740.516 516.517 738.856 511.341L736.903 505.481L739.442 502.845C741.59 500.599 741.785 499.915 740.711 498.645C740.028 497.864 738.563 497.181 737.391 497.181C736.219 497.181 733.973 495.813 732.41 494.251C730.848 492.591 728.602 491.321 727.43 491.321C725.672 491.321 725.086 492.2 724.11 496.204C723.231 500.013 722.547 501.087 721.278 500.696C720.399 500.403 718.641 499.915 717.274 499.622C715.906 499.231 713.66 497.278 712.098 495.13C708.192 489.368 704.285 487.415 697.059 487.415C691.59 487.415 690.906 487.22 690.906 485.462C690.906 484.192 691.59 483.509 692.86 483.509C695.106 483.509 699.695 477.161 699.695 474.036C699.695 472.376 700.281 471.79 701.746 471.79C705.36 471.79 707.508 469.935 707.508 466.907C707.508 463.587 707.41 463.587 710.926 464.954C713.367 465.833 713.66 465.638 715.125 462.122C716.395 459.095 717.567 458.02 720.399 457.142C722.84 456.458 724.11 455.481 724.11 454.407C724.207 452.747 727.43 450.013 733.582 446.399C735.633 445.227 736.805 443.567 737.293 441.321C737.781 439.173 739.735 436.536 743.25 433.411C746.961 430.091 748.524 427.942 748.524 426.185C748.524 424.622 749.207 423.548 750.477 423.255C752.332 422.767 754.383 417.884 754.383 413.782C754.383 412.708 755.164 409.583 756.043 406.653C757.606 401.575 757.606 401.477 755.555 399.231C753.016 396.497 752.82 393.47 754.969 390.247C756.238 388.392 756.434 386.536 755.945 382.532C755.262 377.649 755.457 377.161 757.313 376.575C760.438 375.599 765.125 368.47 765.125 364.856C765.125 363.196 764.051 358.509 762.684 354.602C759.949 346.399 759.461 337.61 761.707 334.681C763.66 332.142 763.66 324.72 761.707 324.036C760.926 323.645 757.313 321.204 753.504 318.372L746.766 313.294L746.082 307.337C745.106 297.376 744.617 296.106 741.883 294.837C739.735 293.763 739.051 292.493 738.074 288.196C737.488 285.267 736.903 280.286 736.903 277.259C736.805 274.231 736.317 270.52 735.731 268.958C735.145 267.493 734.266 262.122 733.778 257.044C733.094 248.841 732.606 247.278 728.992 241.126C724.988 234.485 724.695 234.29 716.004 230.188C711.024 227.845 705.36 224.427 703.309 222.669C699.793 219.544 699.598 218.86 698.524 210.755L697.449 202.259H688.367C677.918 202.259 673.133 203.724 666.785 208.802C663.27 211.634 662.586 212.806 661.219 218.763C659.07 228.333 659.168 238.001 661.512 242.493L663.465 246.009L657.606 252.942C654.383 256.751 651.356 259.876 650.77 259.876C649.11 259.876 645.496 264.856 645.008 267.981C644.617 270.618 644.031 271.106 641.59 271.399C639.051 271.595 637.977 272.767 634.266 279.114C631.824 283.216 629.676 286.927 629.578 287.317C629.383 287.806 630.653 289.954 632.41 292.2L635.535 296.204L633.485 300.501C631.922 303.528 630.653 304.895 628.699 305.384C627.137 305.677 624.305 306.36 622.254 306.849C618.348 307.825 616.688 307.435 616.688 305.384C616.688 304.7 615.613 303.138 614.344 301.966C612.098 299.817 611.903 299.817 609.461 301.38C608.094 302.356 606.922 303.431 606.922 303.919C606.922 304.31 605.555 306.263 603.895 308.118C601.551 310.852 599.988 311.634 596.375 312.122C588.66 313.099 587.684 313.489 583.485 317.005C580.164 319.739 578.602 320.423 575.086 320.423C572.742 320.423 570.789 320.227 570.789 319.935C570.789 319.544 571.473 318.079 572.254 316.517C573.719 313.782 573.621 313.685 569.324 310.95C566.199 308.997 564.93 307.532 564.93 305.97C564.93 304.114 564.442 303.821 561.317 303.821C554.578 303.821 549.695 299.231 547.254 290.735C546.668 288.782 546.766 286.634 547.547 284.583C549.695 278.821 545.985 277.356 533.192 278.821L527.332 279.505L525.379 275.306L523.426 271.106L516.395 270.813C509.949 270.52 509.266 270.716 508.192 272.767C505.652 277.649 500.477 277.942 497.84 273.45L496.082 270.423L490.223 276.966L484.363 283.411L484.461 276.575C484.559 268.763 486.902 264.075 492.957 259.485C495.985 257.142 499.5 249.427 499.5 245.227C499.5 244.446 500.574 242.786 501.844 241.419C503.309 239.856 505.164 235.56 506.531 230.677C508.875 222.669 508.875 222.474 507.117 219.056C506.141 217.102 505.36 214.661 505.36 213.685C505.36 211.536 507.801 202.649 509.949 196.692C511.707 191.907 511.024 186.341 508.485 184.485C507.606 183.802 505.555 181.458 503.895 179.31C502.332 177.161 499.891 174.427 498.426 173.255C496.277 171.497 495.692 169.739 494.813 163.001C493.152 151.282 493.348 143.86 495.496 139.173C498.524 132.532 498.914 127.649 496.863 124.134C495.399 121.595 494.617 121.106 492.274 121.497C489.93 121.79 489.735 121.692 491.004 120.716C492.371 119.739 492.371 119.251 490.223 115.735C488.27 112.513 487.879 110.657 487.781 103.919C487.781 95.0322 488.66 96.0087 478.699 94.2509C476.258 93.8603 474.402 92.6884 473.133 90.9306L471.18 88.0986L473.328 83.6064C475.086 79.8954 475.281 78.7236 474.402 76.3798C473.621 74.0361 473.621 73.2548 474.891 71.9853C476.258 70.6181 476.356 70.0322 475.086 67.2001C473.035 62.415 473.328 57.2392 475.867 54.5048C477.039 53.2353 478.016 51.7704 478.016 51.1845C478.016 49.4267 474.695 47.2783 470.887 46.5947C468.348 46.1064 465.711 44.4462 462.586 41.4189L457.996 37.0244L453.504 38.5869C450.965 39.4658 448.035 40.1494 446.863 40.1494C445.692 40.1494 443.445 40.8329 441.883 41.6142C438.27 43.4697 438.27 42.9814 441.981 36.2431C445.692 29.4072 445.301 24.7197 440.516 21.1064C437.391 18.7626 432.703 17.9814 430.555 19.4462C429.969 19.8369 428.602 22.7665 427.625 25.8915L425.672 31.6533L422.547 24.4267C420.008 18.5673 419.422 16.3212 419.91 13.2939C420.496 9.97357 420.106 8.70404 417.469 4.70013C415.711 2.16107 413.953 0.110291 413.563 0.110291C413.074 0.110291 411.805 1.18451 410.828 2.5517Z" fill="black"/>
<circle cx="185" cy="539" fill="#5CE50D"/>
<circle cx="542" cy="371" fill="#E52A0D"/>
<circle cx="542" cy="802" fill="#E52A0D"/>
<circle cx="853" cy="660" fill="#E52A0D"/>
</svg>
