<svg width="1000" height="1000" viewBox="0 0 1000 1000" fill="none" xmlns="http://www.w3.org/2000/svg">
<rect width="1000" height="1000" />
<path d="M660.125 2.5C660.125 3.57422 651.043 12.4609 646.453 15.7812C643.914 17.7344 642.351 18.2227 640.203 17.832C638.641 17.4414 636.785 17.7344 636.004 18.418C634.93 19.2969 633.855 19.2969 631.316 18.3203C628.777 17.4414 627.508 17.4414 625.848 18.3203C624.285 19.1016 623.601 19.1016 623.016 18.2227C622.43 17.3438 621.746 17.3438 620.281 18.125C619.207 18.7109 616.766 19.1992 615.008 19.1992C613.152 19.1992 610.808 19.8828 609.734 20.6641C607.098 22.6172 604.656 22.4219 603.289 20.1758C601.336 17.1484 592.547 17.4414 588.641 20.6641C587.078 22.0312 584.637 23.1055 583.367 23.1055C582 23.1055 579.168 23.9844 577.019 25.1562C573.113 27.1094 572.918 27.1094 571.062 25.3516C569.207 23.6914 569.109 23.6914 567.742 25.5469C566.961 26.5234 566.375 29.0625 566.375 31.1133C566.375 34.1406 565.984 34.8242 564.519 34.8242C563.348 34.8242 560.906 37.0703 558.172 40.5859C554.656 45.1758 553.68 47.2266 553.68 50.1562C553.68 53.4766 553.094 54.4531 549.187 57.6758L544.793 61.3867L542.547 59.3359L540.398 57.2852L537.078 60.7031C533.074 64.8047 530.535 65.0977 529.266 61.582C528.094 58.5547 527.117 59.043 521.355 65.4883L517.742 69.3945L513.738 66.7578C511.59 65.293 508.855 64.1211 507.781 64.1211C506.512 64.1211 505.828 63.4375 505.828 62.2656C505.828 60.8984 504.558 60.0195 501.043 58.8477C494.793 56.7969 493.133 56.8945 493.133 59.1406C493.133 61.6797 489.031 64.1211 483.367 64.8047C478.777 65.293 478.582 65.1953 477.898 62.7539C477.215 59.8242 475.555 59.3359 475.555 62.0703C475.555 63.1445 475.262 64.6094 474.969 65.4883C474.48 66.7578 474.09 66.6602 472.723 64.9023L470.965 62.8516L467.937 67.3438C466.082 69.9805 465.203 72.0312 465.789 72.4219C466.961 73.2031 467.058 76.8164 465.887 76.8164C465.398 76.8164 464.031 76.0352 462.762 74.9609L460.516 73.2031L455.73 78.3789C453.094 81.3086 450.164 83.6523 449.187 83.6523C447.918 83.6523 447.137 84.6289 446.746 86.7773C445.867 90.6836 444.598 92.3438 441.766 93.418C440.301 94.0039 439.031 95.957 437.957 99.4727C436.98 102.305 435.613 105.039 434.93 105.43C434.148 105.82 433.562 106.992 433.562 107.871C433.465 111.191 429.363 114.609 424.676 115.293C420.574 115.879 420.086 116.27 419.109 119.492C418.23 122.422 418.23 123.398 419.402 124.668C420.183 125.547 420.867 126.719 420.867 127.207C420.769 128.672 416.57 132.969 413.348 134.922C410.613 136.484 410.418 136.973 410.906 140.879L411.394 145.176L407.586 145.078C405.437 145.078 402.215 144.492 400.359 143.809C397.234 142.637 396.844 142.734 395.476 144.785L394.012 147.031L389.031 143.809C384.93 141.27 383.269 140.781 379.949 141.074C376.726 141.367 375.945 141.855 375.945 143.418C375.945 146.543 374.09 149.082 371.746 149.082C364.91 149.18 363.055 151.914 366.277 157.285L368.328 160.801L366.277 163.633C363.836 167.051 360.027 168.125 356.219 166.562C353.973 165.684 353.484 164.805 353.484 162.168C353.484 159.043 353.289 158.848 350.066 158.848C347.234 158.848 346.648 159.238 346.648 160.801C346.648 161.875 345.867 163.047 344.988 163.438C344.012 163.73 341.863 165.293 340.105 166.953L337.078 169.785L332.391 168.223C329.851 167.344 326.824 165.879 325.75 164.902C324.09 163.438 313.543 158.848 311.883 158.848C311.687 158.848 311.492 160.117 311.492 161.68C311.492 163.438 312.273 165 313.543 165.879C315.594 167.148 315.594 167.344 314.031 170.273C313.152 172.031 312.469 174.277 312.469 175.449C312.469 177.207 311.883 177.402 307.098 177.402C301.922 177.402 301.726 177.5 298.308 181.895C296.062 185.02 294.891 187.559 294.891 189.707C294.891 194.102 294.012 195.957 291.863 195.957C289.519 195.957 289.519 196.152 291.961 200.84C294.109 205.039 294.305 206.504 293.035 208.555C292.254 209.727 291.277 209.629 287.078 207.773C280.926 205.137 280.144 205.625 279.461 212.559C279.07 216.855 278.777 217.441 277.117 216.855C275.359 216.367 275.359 216.465 276.824 219.883C277.605 221.934 278.289 223.691 278.289 223.789C278.289 223.984 276.336 224.766 273.992 225.547C270.183 226.816 269.5 226.816 268.426 225.645C267.156 224.082 265.008 223.789 264.226 225.059C263.933 225.547 264.715 227.305 265.887 228.965C267.449 231.309 268.621 231.992 270.086 231.602C271.648 231.309 272.527 231.992 274.187 234.922L276.336 238.73L272.918 240.879C269.988 242.637 269.012 242.832 266.473 241.953C262.957 240.684 261.687 242.637 263.641 246.25C265.594 249.863 263.055 258.848 259.93 259.238C258.172 259.531 257.781 260.215 257.781 262.949C257.781 265.781 257.391 266.27 255.144 266.758C253.582 267.051 251.14 267.637 249.676 268.027L246.941 268.711L249.383 273.301L251.726 277.793L249.578 279.844C247.918 281.406 246.16 281.895 242.449 281.895C236.785 281.895 234.832 283.457 233.269 289.219C232.39 292.148 231.512 293.125 227.996 294.688C225.75 295.664 223.113 297.617 222.234 298.887C219.89 302.598 216.765 305.234 212.664 306.992C210.613 307.871 209.344 309.043 209.734 309.629C210.027 310.215 210.32 312.266 210.418 314.121C210.418 317.539 210.418 317.539 214.519 317.246C218.23 316.953 218.719 317.246 220.086 319.883C220.965 321.445 221.648 323.203 221.648 323.594C221.648 324.082 219.012 326.133 215.789 328.184C212.664 330.234 209.734 332.578 209.441 333.457C209.246 334.434 206.902 336.289 204.265 337.754C201.726 339.219 198.797 341.27 197.82 342.344C196.551 343.809 195.281 344.199 193.23 343.711C187.078 342.539 183.758 345.078 185.516 349.766C186.004 351.133 186.199 353.477 185.906 355.039C185.418 357.383 184.344 358.359 179.656 360.312L174.09 362.754L173.308 371.25C172.723 378.574 172.43 379.551 171.062 378.965C164.226 376.133 164.129 376.133 162.566 378.086C161.297 379.844 161.394 380.234 163.933 382.48C165.496 383.848 167.156 386.582 167.742 388.535C168.719 392.148 168.621 392.344 164.812 395.566C162.566 397.52 159.539 399.082 157.781 399.277C155.144 399.57 154.754 399.961 154.168 403.184C153.582 406.895 147.43 415.391 144.598 416.465C140.887 417.832 140.594 422.129 143.719 428.086C146.258 432.773 145.769 433.75 140.496 434.727C137.664 435.215 136.492 434.922 134.148 432.871C131.219 430.43 131.121 430.43 128.387 432.285C126.824 433.262 124.09 436.387 122.332 439.219C119.695 443.418 119.109 445.371 119.109 449.57C119.109 454.258 118.914 454.746 116.668 455.332C115.008 455.723 113.543 455.43 112.371 454.355C109.539 451.719 105.242 452.402 101.726 456.016C99.9686 457.773 98.6014 460.215 98.6014 461.387C98.6014 464.316 93.328 465.781 89.6171 463.926C86.1991 462.168 84.9296 462.168 84.9296 464.023C84.9296 464.805 83.66 466.074 82.0975 466.855C80.535 467.734 79.0702 469.297 78.7772 470.469C78.1913 472.52 77.996 472.617 67.6444 471.934C57.4882 471.25 56.8046 471.348 51.2382 473.887C42.4491 477.891 38.1522 481.699 37.4686 486.191C36.8827 489.316 36.1014 490.293 32.5858 492.246L28.3866 494.59L26.4335 491.27C23.2108 485.801 22.2342 486.777 20.9647 496.25C20.5741 498.887 19.6952 502.109 18.9139 503.281C17.5467 505.43 17.4491 505.43 14.6171 503.672C13.0546 502.793 10.7108 500.449 9.44128 498.594C8.2694 496.738 6.21862 495.176 5.04675 494.98C2.99597 494.688 2.89831 494.98 3.09362 501.035C3.19128 505.82 2.80065 507.871 1.62878 509.238C-0.324346 511.387 -0.519659 517.148 1.23815 519.395C1.82409 520.273 4.16784 522.031 6.41393 523.398C9.34362 525.156 11.0038 527.207 12.5663 530.82C14.2264 534.727 16.2772 537.07 22.3319 541.855C26.5311 545.273 31.3163 548.691 32.7811 549.57C35.3202 550.938 38.6405 558.262 61.0038 611.094C74.871 644.102 86.8827 673.496 87.6639 676.426C89.3241 682.969 90.0077 683.848 93.8163 684.629C95.4764 684.922 98.0155 686.094 99.578 687.168C101.043 688.242 102.996 689.121 103.875 689.121C104.851 689.121 105.437 690 105.437 691.27C105.437 695.273 108.855 699.375 113.543 701.23C118.621 703.184 117.547 700.156 124.09 730.82L127.215 745.664L131.316 746.348C136.199 747.031 155.828 746.348 158.855 745.371C161.101 744.59 161.394 745.078 162.566 751.816C163.055 755.039 162.859 755.527 160.808 756.016C158.367 756.699 155.047 761.289 154.266 765.293C153.875 767.051 152.996 767.832 151.238 768.027C148.797 768.32 148.699 768.613 148.113 776.328C147.137 788.242 147.332 804.844 148.406 807.676C149.09 809.434 150.066 810.215 151.726 810.215C153.875 810.215 154.168 810.703 154.656 815.879C155.926 827.891 155.926 828.281 153.777 828.77C152.312 829.258 151.824 830.137 151.824 832.578C151.824 837.852 154.168 838.535 160.711 835.312C163.836 833.75 168.426 832.285 171.062 831.992C174.871 831.504 176.141 830.918 176.922 829.16C177.898 827.012 183.562 825.156 185.516 826.328C187.762 827.695 189.617 833.359 190.105 840.391C190.594 847.227 190.887 848.105 194.109 851.426C196.062 853.477 198.406 855.137 199.383 855.137C200.457 855.137 201.629 856.406 202.508 858.555C203.973 861.875 203.973 861.875 211.004 862.168L218.133 862.461L221.355 866.66C223.894 870.078 224.578 871.836 224.578 875.352C224.578 878.867 225.262 880.723 228.094 884.531C231.512 889.219 231.707 889.316 236.883 889.316C242.156 889.316 242.156 889.316 242.156 892.344C242.156 894.492 243.23 896.641 245.672 899.277C248.797 902.793 249.09 903.574 248.894 908.164C248.504 914.805 249.676 916.66 257 920.957C260.418 922.91 266.57 927.012 270.672 929.941C277.508 934.727 278.387 935.703 279.363 939.707C280.242 943.223 281.121 944.297 283.66 945.371C285.808 946.348 288.055 948.691 290.594 952.793C294.109 958.555 294.793 959.043 305.047 964.219L315.789 969.59L334.246 968.906C351.433 968.223 352.996 968.027 356.121 965.879C359.734 963.438 367.742 961.777 369.012 963.145C369.5 963.633 370.574 966.953 371.551 970.566C373.601 978.379 377.605 982.676 385.808 985.898C390.691 987.852 391.473 987.852 394.402 986.68C397.43 985.41 397.918 985.508 402.898 988.145L408.074 990.977L420.574 989.512C432.391 988.145 433.172 988.145 435.516 989.805C436.883 990.781 440.105 993.027 442.644 994.883L447.332 998.203L449.187 995.762C451.336 992.93 451.824 984.238 450.066 980.82C449.383 979.746 448.894 975.352 448.992 971.055V963.34L454.168 960.02C457 958.164 459.93 956.699 460.613 956.699C461.297 956.699 462.957 955.039 464.324 952.891C466.277 950.059 466.863 947.91 466.863 943.906C466.863 939.805 467.644 937.168 470.281 932.188C472.723 927.305 473.406 924.961 473.016 922.715C472.625 920.957 473.016 918.711 473.992 916.855C476.141 912.754 475.945 910.117 473.601 909.336C472.332 908.945 471.648 907.871 471.648 906.406C471.648 904.844 470.574 903.477 468.035 901.914L464.519 899.668L469.5 895.273C473.699 891.562 474.578 890.195 474.578 887.559C474.578 884.434 474.578 884.434 479.754 884.434C482.488 884.336 485.906 883.75 487.273 882.969C488.641 882.188 490.887 881.602 492.254 881.504C493.621 881.504 495.769 880.43 497.039 879.062C498.308 877.695 500.945 876.328 502.898 876.035C506.316 875.449 506.512 875.254 508.562 868.516C509.734 864.609 510.711 860.801 510.711 860.02C510.808 859.238 511.394 857.676 512.176 856.699C513.055 855.527 513.641 852.598 513.641 849.668C513.641 845.371 513.25 844.395 511.199 843.027C509.246 841.758 508.758 840.586 508.758 837.656C508.758 834.238 508.465 833.75 505.144 832.383C502.703 831.406 500.555 829.453 498.992 826.914C497.43 824.277 495.867 822.91 494.207 822.715C492.449 822.52 490.984 821.25 489.422 818.32C487.176 814.219 487.176 814.121 489.129 814.121C490.203 814.121 491.668 813.145 492.254 811.973C492.937 810.703 495.086 807.871 497.137 805.625C499.285 803.281 500.945 801.035 500.945 800.449C500.945 799.961 501.824 799.473 502.996 799.473C504.168 799.473 506.512 798.789 508.367 797.91C511.101 796.641 511.98 796.543 513.152 797.52C514.031 798.203 517.937 798.984 521.941 799.277C528.973 799.668 529.266 799.668 529.266 797.617C529.266 793.418 531.023 791.855 537.957 790.098L544.598 788.34L545.183 781.602C545.476 777.793 546.355 774.082 547.234 773.203C548.016 772.324 549.09 769.688 549.773 767.246C551.141 762.07 553.875 758.75 557.586 757.969C561.004 757.188 563.055 754.941 563.933 750.742L564.617 747.422L569.305 748.008C571.941 748.301 575.848 749.473 577.996 750.547C583.562 753.379 592.351 753.281 601.433 750.156C610.711 747.031 618.523 743.223 620.769 740.684C622.43 738.73 623.113 738.73 636.199 739.414C643.719 739.805 652.605 740.098 655.828 740C659.148 739.902 664.324 740.488 667.254 741.367C672.625 742.93 672.723 742.93 677.703 740.391C680.535 738.926 688.25 735.41 694.988 732.578L707.195 727.305L711.883 729.16C717.742 731.406 722.625 730.43 725.652 726.328C727.605 723.691 727.996 723.496 733.269 723.984C736.98 724.375 739.715 724.082 741.277 723.203C742.547 722.52 745.379 721.738 747.43 721.445C750.75 720.957 751.433 720.371 752.312 717.637C753.68 713.73 753.973 713.535 764.617 710.02C769.207 708.555 773.797 706.602 774.969 705.82C776.043 704.941 779.754 702.207 783.074 699.57C786.98 696.738 790.203 694.98 791.961 694.98C793.426 694.98 795.769 694.102 797.137 693.027C798.699 691.855 801.043 691.074 803.484 691.074C807 691.074 807.683 690.684 809.637 687.363C813.055 681.699 815.398 679.551 820.867 677.012C823.797 675.645 826.629 673.496 827.605 671.836C829.266 669.004 830.34 668.223 841.375 662.168C846.355 659.336 847.723 659.043 850.359 659.727C854.168 660.898 854.558 660.312 855.34 653.281C855.828 648.398 856.219 647.715 859.344 646.152C861.199 645.176 865.203 643.809 868.133 643.125C876.238 641.367 882.098 635.996 879.168 633.164C878.875 632.773 878.68 629.844 878.777 626.621C878.973 621.055 878.875 620.762 876.726 620.762C873.699 620.762 872.625 619.883 870.574 615.879C867.937 610.605 862.273 605.234 858.66 604.551C855.73 603.965 853.094 602.207 855.242 602.207C855.828 602.207 857.195 601.133 858.465 599.766C859.734 598.496 861.59 597.324 862.469 597.324C864.812 597.324 866.961 590.098 865.496 587.559C863.152 583.945 863.055 579.453 865.203 575.352C867.547 570.762 867.742 567.051 865.691 567.051C863.348 567.051 863.933 565.195 866.668 563.926C868.523 563.047 869.012 562.363 868.523 560.801C868.23 559.629 867.742 558.066 867.547 557.188C867.254 556.211 867.84 555.43 869.109 555.039C871.453 554.453 871.648 551.719 869.598 546.934C867.84 542.539 869.207 538.926 872.918 538.535C875.359 538.242 875.457 537.949 875.75 531.602C876.043 525.059 876.043 525.059 878.875 525.059C880.633 525.059 882.195 524.277 883.172 523.008C884.051 521.738 885.223 521.152 886.101 521.445C887.078 521.836 888.152 521.055 889.324 519.102C890.301 517.441 892.742 515.195 894.793 514.219C897.234 512.949 898.406 511.68 898.406 510.312C898.406 508.555 898.699 508.457 899.871 509.434C901.043 510.41 901.922 510.215 904.558 508.555C907.293 506.895 909.441 506.504 916.668 506.504C922.625 506.504 925.848 506.113 926.433 505.234C927.312 504.16 929.363 490.391 929.949 482.09C930.144 478.867 930.34 478.672 934.246 478.184C942.742 477.207 945.183 470.859 938.933 465.781C935.711 463.242 935.516 462.852 936.492 459.629C937.371 456.699 937.078 455.82 934.93 452.402C932.781 449.277 932.586 448.203 933.465 446.738C935.125 444.004 934.734 439.023 932.586 436.68C930.926 434.824 930.828 434.336 932 432.773C933.172 431.113 933.758 431.016 936.785 431.992C940.691 433.164 941.375 432.871 941.375 429.941C941.375 428.77 942.058 426.816 942.937 425.645C944.109 423.887 944.793 423.691 946.355 424.473C947.82 425.352 948.406 425.156 948.894 423.887C949.383 422.617 950.359 422.422 954.656 423.008C958.172 423.398 959.93 423.301 959.93 422.617C959.93 422.031 960.516 421.543 961.297 421.543C962.078 421.543 962.859 420.566 963.055 419.395C963.25 417.832 964.226 417.051 966.473 416.562C968.133 416.27 970.672 415 972.137 413.828C973.601 412.754 975.359 411.777 976.141 411.777C976.824 411.777 977.996 409.922 978.777 407.578C979.949 404.062 980.535 403.477 982.781 403.672C985.223 403.867 985.32 403.672 985.32 398.496C985.32 393.711 985.516 393.223 987.566 393.223C992.937 393.223 993.719 392.441 994.891 385.605C995.476 381.992 995.672 376.523 995.379 373.398C994.793 367.93 994.793 367.832 997.43 367.832C999.578 367.832 999.969 367.441 999.969 364.805C999.969 363.047 998.797 360.117 997.137 357.773C994.5 353.965 994.207 352.695 993.621 342.246C992.84 329.844 992.156 328.281 986.883 327.598C983.465 327.207 982.488 325.254 985.223 324.375C988.641 323.301 987.957 318.613 983.953 315.391C981.219 313.34 980.73 312.461 981.512 310.996C982.195 309.824 982 308.359 981.023 306.504C979.851 304.258 978.289 303.281 973.797 302.012C970.672 301.133 966.473 300.449 964.422 300.449C961.297 300.449 960.711 300.059 959.832 297.52C959.148 295.859 958.074 294.59 957.098 294.59C953.875 294.59 953.289 292.734 953.777 284.531C954.168 278.574 954.754 276.035 956.121 274.473C957.195 273.301 957.976 271.055 957.976 269.004C957.976 266.172 956.414 263.535 949.09 253.965L940.301 242.344L933.758 241.172C927.215 240 927.215 240 923.016 242.93C918.133 246.445 915.594 246.348 915.203 242.637C915.008 240.781 913.641 239.219 910.516 237.266C908.172 235.801 906.219 234.043 906.219 233.359C906.219 230.43 903.875 227.207 901.629 227.207C899.578 227.207 899.383 226.816 899.383 221.934C899.383 217.148 899.09 216.367 895.965 213.633C894.012 211.973 891.863 210.605 891.082 210.605C890.301 210.605 889.617 209.922 889.617 209.141C889.617 207.09 885.613 205.723 880.047 205.723C875.652 205.723 875.359 205.527 872.234 200.938C869.891 197.52 868.133 195.957 865.984 195.566C863.348 195.078 863.055 194.688 863.543 192.246C864.031 189.805 863.348 188.633 857.586 182.969C852.801 178.281 849.871 176.328 846.941 175.449C842.937 174.473 842.742 174.18 842.742 170.664V167.051L835.516 164.707C829.656 162.852 827.996 161.973 827.117 159.922C826.531 158.457 824.48 155.43 822.43 153.086C819.109 149.18 818.523 148.887 816.57 149.961C815.105 150.742 814.422 152.012 814.422 153.867C814.422 156.602 814.226 156.699 809.344 157.09C804.558 157.48 803.777 157.188 798.601 153.574C793.816 150.156 793.035 149.082 792.937 146.445C792.937 144.004 792.254 142.93 790.008 141.562C786.59 139.609 786.297 137.363 789.031 134.922C790.398 133.652 790.691 132.773 790.008 132.09C789.519 131.602 789.031 129.648 789.031 127.988C789.031 126.23 788.641 124.57 788.152 124.277C787.664 123.887 786.59 121.738 785.808 119.395C784.441 115.391 784.441 115 786.394 113.047L788.445 110.996L786.394 108.945C784.637 107.188 784.539 106.406 785.32 103.965C785.906 102.402 786.199 101.035 786.004 100.84C785.808 100.742 782.391 98.6914 778.484 96.3477L771.355 92.1484L767.254 96.1523C764.91 98.3984 762.762 100.254 762.469 100.254C762.176 100.254 760.32 98.1055 758.465 95.5664C755.437 91.2695 754.558 90.6836 750.359 90.0977C746.355 89.6094 745.086 89.9023 740.594 92.4414C737.664 94.0039 734.441 95.3711 733.465 95.3711C731.219 95.3711 729.461 92.6367 729.461 89.1211C729.461 87.7539 728.973 85.5078 728.289 84.1406C727.312 81.8945 727.508 80.918 730.047 76.3281L732.879 71.0547L729.461 67.5391C726.726 64.707 725.457 64.1211 722.137 64.1211C718.816 64.1211 717.547 63.5352 714.715 60.6055C711.492 57.1875 711.199 57.0898 706.023 57.6758L700.555 58.3594L695.086 52.9883C689.324 47.3242 689.226 46.9336 687.957 33.8477C687.078 24.668 686.394 23.0078 679.754 16.0742C671.355 7.08984 660.125 -0.625 660.125 2.5Z" fill="black"/>
<circle cx="203" cy="363" fill="#5CE50D"/>
<circle cx="599" cy="207" fill="#E52A0D"/>
<circle cx="470" cy="788" fill="#E52A0D"/>
<circle cx="727" cy="598" fill="#E52A0D"/>
</svg>
