<svg width="1000" height="1000" viewBox="0 0 1000 1000" fill="none" xmlns="http://www.w3.org/2000/svg">
<rect width="1000" height="1000" />
<path fill-rule="evenodd" clip-rule="evenodd" d="M38.2797 243.548L40.0092 243.178L44.4564 242.066H44.5799L51.2507 240.337L51.4977 239.472L51.7448 239.225L51.9919 239.595V239.348H52.6095L52.733 239.101H53.1036L53.5978 238.731L53.8448 238.854L53.9684 238.607L54.339 238.484L54.586 238.854L54.9566 238.978L55.8214 239.842L55.9449 240.09H56.439L56.3155 240.337L56.6861 240.46L56.9332 240.954L57.4273 241.201L57.3038 241.448L57.4273 241.819L58.045 241.943L58.1685 241.695L58.5391 241.572H59.0332V241.695H59.5273L59.6509 241.448L61.0097 241.325L61.2568 241.078L60.7627 240.954V240.584H61.0097L61.3803 240.337L61.2568 240.213L61.6274 239.966L61.5039 239.719L61.8745 239.472V239.101H62.1215L62.3686 238.607L62.2451 238.113H62.6157L62.4921 237.742L62.8627 237.125V236.878L62.3686 236.631L62.7392 236.136L62.6157 235.642L63.2333 235.395L63.1098 235.025L63.4804 234.531L63.2333 234.16V233.789L63.6039 234.036H63.851L63.7275 233.789L64.2216 233.542L64.5922 233.666L64.8392 233.419V233.172L64.5922 233.295L64.3451 232.925L64.5922 232.678L64.3451 232.431L64.4686 232.307L64.098 231.936L64.3451 231.689L64.4686 231.936L64.7157 231.813L64.5922 231.566L64.8392 230.701L64.9628 230.454L65.4569 230.33L65.704 229.96H66.3216L66.5687 229.589L66.3216 229.466L66.1981 228.725L66.5687 228.354V227.86L66.8158 227.736L67.0628 227.489L66.8158 226.995V226.501L66.9393 226.377L66.5687 226.254L66.6922 225.883H66.9393L67.1864 225.636L66.9393 225.019L66.5687 224.895L66.8158 224.648L66.6922 224.524L66.5687 223.907L65.704 223.66L65.4569 222.795V222.424H65.5804L65.704 222.177L66.1981 222.054L65.951 221.807H65.4569V221.56L65.8275 221.683L65.2098 220.818V219.707L65.5804 219.46L65.4569 218.842L65.0863 218.471L65.2098 217.854L64.9628 217.607L65.2098 217.483L65.0863 217.236L65.2098 216.865L65.8275 216.248L65.704 216.124L65.8275 215.877L66.8158 215.63L67.0628 215.877V215.507L67.557 215.754L67.9276 215.259L68.4217 215.383L68.7923 215.136V214.765H69.2864L69.5335 215.012L70.1511 214.889L70.0276 214.518L70.3982 214.024L70.6453 213.901L70.7688 214.395L71.1394 214.024L71.2629 214.271L71.51 214.024L71.8806 213.901L72.0041 213.53L71.8806 213.406L72.1277 213.159L72.0041 213.036H72.4983L72.6218 213.283L72.9924 213.036L73.2395 212.542L73.1159 212.295H73.6101H73.8571V211.924L73.7336 211.677V211.306L73.9807 211.059L73.6101 210.689L74.4748 210.812L74.2277 210.565V210.071L74.3513 209.824V209.206L75.0925 208.712L75.216 208.095L75.4631 208.218L75.8336 207.971V207.724H76.0807L76.2042 207.353H76.6984L76.9454 207.106L77.316 206.489L77.1925 206.118L78.0572 204.883L77.9337 204.759L78.3043 204.142L78.5514 204.018L78.7984 203.524L79.2926 203.03V202.783L79.7867 202.412L80.2808 201.424V201.177L80.6514 200.93L81.022 200.312L81.3926 200.188L81.7632 199.447L82.1338 199.2H82.875L82.7515 199.447L83.1221 199.324L83.6162 199.571V199.324L83.8633 199.077L84.3574 198.83V198.706H84.728L84.8515 198.459L85.0986 198.212V197.965L85.3457 197.841L85.8398 197.718L86.2104 197.347L87.1987 197.1H87.6928L87.9398 196.853H88.5575L90.1634 196.483L90.7811 196.112L94.7341 193.888L96.7107 192.282L96.9577 192.159L99.0578 192.653L100.54 190.924H100.664L102.517 190.182L103.381 188.947V188.453L104.617 186.723L104.864 185.982V185.488L104.617 184.87L104.987 183.635L105.852 182.77L106.099 182.4L107.582 180.3L108.446 178.941L108.94 178.447L109.064 178.076L108.94 177.582L109.805 177.088L110.176 177.335H110.423L110.176 176.964L110.299 176.47L110.793 176.223L111.288 176.717L110.917 176.964L110.793 177.211H111.411L111.658 176.964H112.029V177.211L112.646 177.335L112.523 177.953L112.77 178.076L113.017 177.582H113.511L113.388 177.335H114.005L114.129 176.841L114.252 177.088L114.499 176.717H114.993L115.364 176.594L115.735 176.964L116.105 176.841L116.476 176.594L116.599 176.223L117.217 175.853L117.341 175.482L117.464 175.358L117.835 175.729L118.205 175.482V174.988L118.329 174.741L118.947 174.247L119.441 174.123V173.753L119.935 173.382L119.688 172.641L119.811 172.517L120.429 171.776L120.676 171.158L120.182 170.911L120.429 170.664L120.676 170.788L120.8 170.541L120.552 170.417V170.047L120.923 169.923L121.047 170.17L121.17 169.923L121.664 170.294L122.282 170.047L123.023 170.541L123.394 170.417L123.27 170.047L123.517 169.676L123.394 169.429L123.517 168.935L124.011 169.058L124.506 168.811L124.629 168.688L124.382 168.441H124.629L124.753 168.07L125.247 168.194L125.494 168.07L125.741 168.317L126.111 167.946H126.729L126.606 167.699L127.223 167.823L127.47 167.576L127.594 167.823L128.335 167.946L128.211 167.576L128.706 167.329L129.2 167.699L129.817 167.576L130.188 167.823L130.435 167.699L131.053 168.194L131.176 167.946L131.423 168.441L131.67 168.317L131.794 167.946L132.288 168.07L132.412 168.194L132.782 167.946V168.441L133.153 168.317L133.4 168.688L133.276 168.811L133.894 168.935H134.141L134.265 168.688L134.759 168.811L135.006 169.182L135.376 169.305L135.5 169.676L135.87 169.552L135.994 169.305L136.488 169.552L136.859 169.305L137.106 169.676H137.353L137.476 169.923L137.847 170.047L137.6 170.17L137.723 170.294L138.094 170.417L138.218 170.788H138.341L138.588 171.158L138.959 171.282L139.082 171.529L139.453 171.282L139.576 170.911H140.071L140.194 171.035L140.318 170.788L140.565 171.035L141.059 170.911L141.182 171.405L141.306 171.158L141.677 171.282H141.924L141.8 171.035L142.294 171.405L142.788 171.282V171.035H143.159L143.282 170.788L143.653 170.664L144.271 170.788L144.147 171.035L144.641 170.788L144.765 171.035L144.888 170.788H145.259V170.664L145.753 170.911L145.877 170.541L146.371 170.664L146.494 170.788H147.112L147.236 170.664L147.606 170.788L147.853 170.664V170.294L147.73 170.047L147.977 169.552L147.853 169.182L147.977 168.811L148.841 168.688L149.212 168.317L149.459 167.452H149.583L149.953 166.958L149.83 166.711L150.2 166.464V165.97L150.941 165.723L151.065 165.476L151.189 165.352L151.312 165.105L151.683 164.735H151.93L152.053 164.488L152.671 164.364L152.918 163.746H153.289L153.783 163.87L153.906 163.746L154.4 163.87L154.524 163.623L155.018 163.499V163.252H155.636V163.129L156.253 162.758H156.5L156.871 162.388H157.118L157.489 162.017H157.736L158.23 161.646L158.353 161.029L158.724 160.658V160.287L158.971 160.411L159.218 160.04L159.959 159.793V159.546L160.577 159.176V158.682L161.071 158.064L161.195 157.693L161.442 157.323L161.565 156.581L161.442 156.211L162.059 156.334L162.43 156.458L162.924 156.334L163.171 156.087H164.036L164.159 155.593L166.012 153.493L168.483 153.987L169.101 154.481L171.077 155.099L171.448 156.211L171.818 156.458L172.189 156.581L173.671 155.717L174.413 155.84L175.648 155.47L175.772 155.593L177.254 155.223L178.736 154.852L179.478 154.481H179.848L179.725 153.864V153.493L180.095 153.246L182.195 152.876L182.566 152.628L182.936 152.505L183.183 152.628L183.431 152.505H184.048L184.419 151.64L184.666 151.517L185.036 151.146L185.654 150.528H186.272L186.889 151.64L188.125 152.011L188.866 151.64L189.607 149.417L189.36 147.934L189.484 146.946L189.978 146.452V146.328L190.225 145.958V145.464L190.719 145.093L191.213 144.969L191.46 144.105L191.584 143.734V143.116L192.078 143.24V142.993H191.831V142.622L192.201 142.499L191.954 142.005L192.201 141.758V141.387L191.831 140.893H192.201L192.448 141.14L192.572 140.893V140.399L192.819 140.769L193.19 140.522L193.313 140.893L193.684 141.016L194.178 140.893H195.043L195.166 140.769L195.66 140.646V140.399L195.166 140.028L195.29 139.781L195.166 139.41L195.043 139.163V138.793L195.413 138.546L195.537 138.669L195.66 137.928L195.784 137.681L196.278 137.805L196.525 137.434L196.772 137.681L197.266 137.434L197.39 137.681L197.76 137.557L197.884 137.805L198.007 137.681L198.749 137.557L199.243 137.928L199.366 138.299L199.613 138.175L199.984 138.422L199.737 138.793H200.107L200.231 139.04V139.287L200.602 139.41V139.658L200.849 139.905H201.343L201.466 139.163L201.713 139.287V138.546H202.084V138.793H202.578L202.949 138.546L202.825 139.287H203.196L203.443 139.04L203.69 139.287V138.916L204.061 139.04L204.184 138.669L204.308 138.793L204.431 138.422L204.678 138.546V138.175L204.431 137.928L204.925 137.805L205.049 137.434L205.419 137.805L205.543 137.557L205.913 137.928H206.161L206.284 138.052L206.655 138.175L207.025 137.928L207.396 138.175L207.272 137.928L207.025 137.681L207.149 137.31H207.396V137.063L207.89 137.187V136.569H208.137L208.261 136.816L208.755 136.693L209.125 136.94L209.496 136.569V136.94H209.743L209.867 137.187H210.237L210.361 136.569L210.731 136.446V136.693L211.349 136.569V136.322H211.596L211.72 136.569L212.09 136.446H212.461L212.214 136.199L212.584 135.828L212.831 135.952L212.955 135.828L212.831 135.581L213.449 135.828V135.457L213.82 135.581L213.943 135.334L214.561 135.581L214.684 135.334L215.302 135.704L215.549 136.075L215.92 136.446L218.637 137.434L220.737 139.163L221.973 138.916L224.32 138.546L227.655 137.681L228.273 138.175L228.52 139.04L228.767 139.658L228.891 140.522V141.263L229.138 141.387H229.755L229.879 141.881L230.002 142.252L230.373 142.375V142.869L230.867 142.746L231.238 142.499L231.608 142.622L231.979 143.116L232.349 143.611V143.981L232.226 144.228L232.473 144.722L232.844 144.599L233.091 144.969L233.708 145.093L234.326 144.599L234.82 144.722L235.067 144.475L235.932 144.352L236.426 143.981L236.797 143.858L236.92 143.611H237.167L237.414 143.981L238.526 143.858L238.773 143.981L239.391 143.858L239.514 143.487L239.638 142.869L239.885 142.499H240.256L240.503 142.005H240.873L241.244 142.499L241.491 142.622L241.985 142.746L242.356 142.869L242.973 142.622L243.838 142.375H244.332L244.703 142.005L245.073 142.128L246.062 142.499L246.556 143.611L246.432 144.228L246.556 144.475L247.668 144.722L248.285 144.599L248.656 144.846L248.779 145.216L249.521 145.711L249.768 146.328L250.385 146.699L250.879 146.822H251.25L251.621 146.452H251.868L252.115 146.081V145.711L252.362 145.216L252.609 145.093L253.226 144.846L253.721 144.352L254.956 144.475H255.079L255.944 144.846H256.315L256.562 144.969L257.55 144.846L258.168 144.599L258.538 143.981L259.403 143.611L260.268 142.746L260.762 142.622L261.009 142.746L261.133 142.499L261.75 142.375L261.874 142.622L262.368 142.375L262.491 142.252H262.862L262.986 142.005H263.356L264.344 142.128L264.715 142.375L265.333 143.116H265.703L266.074 143.487L266.815 143.611L267.433 144.105H267.68L268.297 144.228H268.792L269.162 143.981L269.533 143.858L270.15 144.105L270.768 143.981L271.633 143.858L272.003 143.734L272.745 144.228L272.621 144.475L272.992 144.969L273.239 144.722L273.486 144.969L273.856 145.464L275.092 146.081L275.215 145.958L276.327 146.205L276.821 146.575L278.057 147.193L278.674 146.946L279.045 147.193L279.539 147.069L280.404 146.946H281.145V147.069L281.639 147.44L282.133 148.181L282.504 148.305L282.627 148.181L283.616 148.305L284.233 148.181L284.851 148.305L285.345 148.552L285.592 148.675L285.963 148.552L286.704 148.675L287.445 148.428H287.692L288.063 148.058L288.433 147.811H289.298L289.916 148.181L289.792 148.428L290.039 148.799L290.41 149.17V149.417L290.78 149.664L291.275 149.54L291.645 149.911L292.386 150.158L292.88 150.281L293.128 150.158L293.498 150.281L294.116 150.034L294.733 150.281L295.104 150.158L295.351 150.281L295.598 151.023H295.969L296.586 151.764L296.957 152.011L297.204 152.505L297.328 152.999L297.698 153.37L297.822 153.74L298.439 154.358V154.852H298.686V155.223L299.181 155.717L299.798 155.964L299.922 155.84L300.045 156.087H300.416L300.539 156.211L301.034 156.334L301.528 156.458L301.898 156.211L302.887 156.458V156.705L303.257 157.199L303.751 157.446L304.369 157.94L304.74 158.682L305.357 159.176L305.851 159.423L306.222 159.299H307.087L307.457 158.929L307.828 159.052L307.951 158.929L308.322 159.052L308.446 158.929L308.816 159.052L309.928 157.57L310.175 157.076L310.299 156.581L310.669 156.087L311.163 155.47L311.657 155.223L312.028 154.728L312.275 154.358L312.893 153.987H313.263L313.51 153.37L313.881 153.493L314.252 152.999L314.622 153.37L314.869 153.246L315.116 153.37L315.363 153.123L315.981 153.37V153.246H317.34L317.711 153.37V153.864L317.958 153.987L319.193 154.728L321.417 154.976L323.887 154.605H324.999L327.099 154.852L327.84 155.223L329.817 154.852L330.064 154.728L330.558 154.976L331.052 154.852L331.793 154.976H332.04L332.164 155.47L332.534 155.223L333.276 154.976L333.399 154.605L334.017 154.481L334.387 154.605L334.758 154.976L334.882 154.852L335.005 155.099L335.252 155.223L335.499 154.852L335.129 154.358L335.252 154.111L335.623 154.234L335.993 153.987L336.24 154.111L336.487 153.864L337.229 153.617L338.711 153.37L339.329 153.617L342.293 152.752L343.529 151.764L345.505 151.27L347.111 148.552L346.741 147.193L346.247 147.317L345.752 145.216L345.876 145.34L347.729 144.722L348.347 144.228L348.47 143.858L348.1 143.363L348.223 142.499V141.758L348.964 141.387L349.088 140.893L348.964 140.646L349.211 140.522L353.782 140.893L355.141 143.24L359.217 143.116L362.059 153.74L359.712 154.481L360.329 156.581L360.823 158.434L361.07 159.299L361.194 160.287L361.441 161.152L362.923 162.882L363.294 164.364L363.418 165.105L363.294 165.599L363.665 165.723L364.282 166.835L364.653 167.082L365.023 167.329L365.394 167.823L365.888 168.194L366.382 168.811V168.935L368.729 168.194L370.582 167.576L372.93 169.676L373.794 172.27L374.288 173.505L374.412 173.382L377.994 172.517L377.5 171.035L381.33 168.194L383.059 166.958L386.395 165.599L388.124 164.858L389.359 163.746V162.264L388.124 161.523L387.383 158.558L388.865 157.446L387.136 154.976V154.852L388.124 154.358H388.865L391.954 154.234H393.56L396.154 153.987L398.871 153.864L400.23 153.74L405.172 153.37L405.542 153.123L405.789 153.37L405.913 152.999L406.16 152.876L406.778 152.752L407.025 152.381L407.272 152.258L407.519 152.505L407.889 152.258L408.383 151.764L408.754 151.64L409.001 151.393H409.248L409.619 151.023L409.742 150.528L410.113 150.652L409.866 150.281L409.742 150.405L409.619 150.034L412.831 150.405L414.684 150.528L423.207 151.27L426.79 153.617L428.149 153.864L429.26 155.47L430.002 156.829L431.608 159.423L437.167 160.411L438.649 160.658L440.502 161.399L443.467 164.241L445.32 164.364L447.543 164.611L449.149 165.352L451.126 164.735L451.99 163.746L453.72 163.376L454.214 162.635L455.449 161.276L458.661 160.287L461.008 158.929L461.255 158.311L463.232 156.952L465.085 156.458L466.32 156.087H467.803L468.42 155.593L475.585 155.099L477.068 154.111L478.674 153.864L482.009 154.234L482.874 154.111L484.603 153.74L485.591 152.999L488.186 154.605V156.829L486.827 158.558L486.703 159.67L485.715 162.017L485.591 163.376L485.097 163.993V164.982L486.085 165.105L485.838 167.823H485.962L488.186 168.688L488.309 168.811L488.927 166.835L489.915 164.982L490.656 163.252L492.015 162.264H493.621L496.215 163.499L502.639 163.376H507.827H510.051L510.298 163.499L510.421 163.993L510.298 164.117L510.421 164.488L510.298 164.982L510.421 165.599L515.733 165.723L518.204 165.846H519.686H521.663L521.786 166.093L521.91 165.846L527.716 165.97L528.334 171.652L528.951 172.27L532.657 175.111L532.163 180.917L540.687 181.659L540.44 183.512L541.428 184.747L544.269 186.353L544.022 187.218L544.146 187.712L543.775 188.576L543.652 188.7L543.528 189.565L544.64 190.182L546.122 189.812L549.581 188.823L550.199 188.7L553.781 189.565L555.017 188.206L557.858 184.747L561.687 182.77L563.17 182.029L564.405 181.412L567.246 181.782L569.223 179.929L570.582 179.559L572.558 179.188L571.694 174.741H571.817L572.435 175.111L573.299 175.358L575.153 175.111L575.77 174.864L576.141 174.617H576.758L577.747 174.864L578.735 174.988L579.229 175.235L580.341 175.729L581.206 176.347L581.576 176.841L581.823 177.335V177.953L581.947 178.817L582.07 179.435L582.812 180.547L583.429 181.906L583.553 182.77L583.8 183.141L587.506 181.164L589.482 181.288L590.1 182.029L594.671 186.476L599.735 187.341L600.724 186.847L600.971 184.994L602.453 184.623L604.677 184.006L610.606 180.547L613.448 180.053L616.536 178.694L618.142 178.076L620.489 178.447L621.107 173.258L619.871 170.294L620.118 167.946L620.736 167.823L621.107 167.576L621.354 166.835L621.477 166.341L621.724 165.476L621.971 165.229L622.465 164.858L623.083 164.611L623.33 164.488L624.071 164.611H624.442L625.06 164.241L625.183 163.993V163.623V163.129V162.882L625.924 162.14L626.171 161.77L626.666 161.399H627.53L627.901 161.152L628.395 160.164V159.793V159.299L628.519 158.434L628.272 157.817L628.024 157.446L627.901 156.952V156.211L628.519 155.593L629.013 154.852V154.358L628.395 153.246V152.752L628.642 152.381L628.889 152.134L629.877 152.258L630.372 152.134L630.866 151.764L631.483 151.517H631.854L632.595 151.764L632.966 152.258H633.46L634.078 152.011L634.942 152.134H635.436L636.548 151.887H636.919L638.154 152.134H638.401L638.895 151.764L639.636 151.146L639.884 150.652L640.501 149.417L641.119 148.922L641.242 148.428L640.872 146.946L640.378 146.205L640.254 145.711L640.625 144.599L640.501 144.105L640.872 143.858H641.242L641.49 143.981L641.737 144.352L642.231 144.722L642.972 144.846L643.713 144.475L644.331 144.105H644.825L645.69 144.722L646.184 144.846L646.678 144.599H646.925L647.296 144.846L648.284 144.475V144.105L648.778 143.981L649.766 144.105L650.26 143.734L650.878 143.611L651.249 143.858L651.372 144.352L651.743 144.475L651.99 144.722L652.607 144.969L652.854 145.216L653.225 144.846L653.102 144.352L653.349 144.105L653.596 144.228L654.09 144.599L654.831 144.105L654.955 143.487L655.943 142.746L656.684 142.375L656.931 141.881L657.549 141.511L657.672 141.387V140.646L657.919 140.275L657.796 140.028L657.549 139.781L657.178 139.905L656.931 139.658L657.178 139.04H657.672L657.919 138.546L658.29 138.422H658.537L659.649 139.163L660.637 139.534L660.884 139.658L661.008 140.275L661.131 141.14L660.884 141.387L661.131 141.758L662.119 141.634L662.49 141.881L662.737 141.758L662.984 141.14L663.725 140.646L664.096 140.769L664.837 141.016L665.455 140.893L666.32 140.646L667.308 140.275L667.431 140.028L667.555 139.658L667.308 139.04V138.669V138.422L666.443 137.681H665.949L665.578 136.693L665.825 135.334L665.949 134.963L665.825 134.716L665.578 134.346L665.825 133.975H666.32H666.69L667.061 133.234L667.802 132.616L668.173 131.998V131.257L668.667 130.64L669.037 130.146L669.531 130.022L670.026 130.146L670.52 129.898H671.014L671.384 130.022L671.755 130.146L671.631 130.516L671.755 130.887L672.002 131.01H672.743L672.99 130.64L673.237 130.516L673.608 131.01L674.226 130.763H674.596L674.843 131.134L674.967 131.998L675.337 132.246L676.449 132.616L676.696 132.987L676.82 134.469L676.449 135.087L675.708 135.952L675.585 137.187L675.461 137.434L675.214 137.805L674.72 137.928L674.226 138.422L674.102 138.793L673.979 139.163V139.658L674.72 140.275L674.473 141.016L674.596 141.14L674.967 141.511L675.09 142.128L675.214 142.375L675.708 142.746L676.202 143.24V143.487L675.832 143.858L676.696 144.475L676.943 144.228L677.19 143.981L677.808 144.228V144.475L678.179 144.846L678.055 145.34V145.587L678.426 145.958L678.796 146.452V147.069L679.167 147.687L679.538 148.181L679.29 148.305V148.675L679.908 149.293L680.032 149.787L680.279 150.405V150.775L680.773 151.64L680.649 152.011V152.505H680.896L681.267 152.134L681.885 151.764L682.008 152.011L682.132 152.381L682.502 152.876L682.626 153.37L682.873 153.617L682.749 153.864L682.996 154.111L683.738 154.605L683.985 154.358H684.232L685.097 155.223L685.22 155.47L685.097 155.84L685.344 156.458V157.076L685.097 157.446L685.22 158.311V158.805L685.714 159.299L685.467 159.793H684.973L684.849 160.04V160.658L684.973 160.905L684.602 161.77L684.726 162.017L684.973 162.635V163.005L685.097 163.376L685.344 163.499V163.993L684.849 164.117L684.726 164.364L684.973 164.611L685.467 164.858V165.105L685.22 165.723V166.217L684.849 166.711L684.973 167.082L685.22 167.452V167.699L685.097 168.07L685.344 168.935L685.467 169.182L685.961 169.676L685.714 170.417L685.961 171.035L685.714 171.776L685.838 171.9L686.455 172.023L686.579 172.27L686.95 172.641H687.444L687.938 173.011L688.185 173.382L688.432 173.876L688.802 174.741V175.111L689.05 175.482L689.667 175.606L690.532 176.47L690.779 176.347H691.397L691.767 176.47L692.261 176.964L692.879 177.335V177.582L692.632 178.076L692.508 178.694V178.941L692.385 179.435L692.508 179.806L693.126 179.929L693.373 180.176V180.794L693.497 181.288L693.25 181.535L693.373 181.782L693.867 182.029H694.609L694.732 182.153V182.647H695.103L695.72 183.141L696.462 182.647H697.079L697.326 182.894L697.45 183.512L697.079 183.759V184.129L697.45 184.5L698.067 184.623H698.438L699.426 184.994L699.55 185.365L699.303 186.229L699.426 186.6L699.797 186.971L700.044 187.218L699.92 187.588L699.55 188.082L699.673 188.7V189.194L699.797 189.318L700.538 189.565L700.785 189.812L699.92 191.047L699.55 191.418L700.291 191.788L700.168 192.282H701.279L701.526 192.406L701.65 193.518L701.526 194.259L701.279 194.753L701.032 195.618L700.662 195.988V196.73L700.785 196.977H701.403L701.65 197.718L702.021 198.088L702.268 198.583L702.515 199.077L702.638 199.447L702.268 199.694L702.021 200.188L701.773 201.547L701.897 201.918L702.021 202.536L702.515 202.783L702.638 203.277L702.391 203.647V204.018L702.762 204.389L703.009 205.253L702.638 205.747L702.762 206.118H703.503L703.75 205.747L704.12 205.624L704.491 205.747L704.615 206.612L704.985 207.848L705.109 208.218L705.479 208.836L706.097 208.959L706.344 209.33L706.715 209.083L707.579 209.33L708.444 208.836L709.432 209.206L709.803 209.33L710.421 209.206L711.162 209.453L711.656 210.071H712.027L712.891 210.689H713.756L714.497 211.43L714.991 212.295H715.238H716.968L717.709 212.418L719.068 212.295L719.933 211.801H720.797L721.292 211.677L723.268 211.801L723.392 211.677L725.615 208.589L725.739 208.465L727.839 207.23L728.827 206.983L728.951 207.106L729.692 208.589L729.815 208.712L731.298 209.083L731.421 209.206L731.545 210.689L732.286 212.665H732.409L734.757 213.406L735.004 213.53L736.115 216.124L736.486 216.371V217.112L737.227 217.36L737.598 217.73L738.71 218.348L739.451 218.471L739.698 218.965L740.563 219.83L742.169 220.695L742.292 221.066L744.639 219.336L745.01 219.213L745.133 219.089L745.998 218.348H746.369L746.739 218.471L748.716 218.718L752.422 217.977L757.116 217.112L756.869 220.077L759.71 221.066H759.957L761.687 218.224L765.516 218.842L765.393 220.448L769.716 221.683L771.693 221.436L773.793 221.189L774.164 218.101L774.411 217.236L774.658 216.865L776.758 215.754L778.981 215.012L781.576 216.001L783.799 222.548L787.134 223.413L789.976 224.277L793.558 223.783L795.288 224.154L798.005 224.03L798.499 223.66L800.476 221.683L801.711 219.83L803.564 221.313L802.947 223.413L802.205 225.513L803.317 226.377L805.294 227.983L806.035 228.601L805.911 229.713L805.417 231.442L805.047 233.295L805.911 234.036L805.664 234.407L805.417 235.889L804.058 236.507L803.811 237.001L804.182 237.495V238.484L806.159 239.472L807.023 239.842H807.888L809 240.09L810.235 240.831L812.212 241.325L814.806 243.178L816.165 245.278L817.894 245.648L822.959 246.76L826.047 247.872V248.737L826.418 249.231L826.788 250.837V251.084L827.406 251.702V252.319L828.024 253.431L828.518 254.419L828.888 254.666L829.136 255.037L829.506 255.161L830.247 255.037H831.112L831.73 255.778L831.606 256.149L832.471 257.384L832.594 259.731L830.865 261.708L832.718 264.178L837.165 263.931H838.153L839.018 264.302L839.389 265.043L846.677 267.761L846.801 267.884L846.677 268.255L846.924 268.378V268.626H847.542L848.53 268.378L848.901 268.873L849.395 269.243L849.766 269.12L850.136 269.367L850.754 269.614H851.495L851.742 269.737L851.866 270.231H852.36V270.973L852.607 271.343L853.595 271.467L853.966 271.837L854.213 272.702L854.46 272.826L854.336 273.196L854.707 273.443L855.448 274.061L855.077 274.308L855.819 275.049L856.313 274.802L857.548 273.937L863.478 277.643L863.354 280.361L863.478 280.485L864.96 283.449L866.442 284.808L869.778 290.861L870.766 293.456L872.99 296.05L873.978 296.915L875.831 299.756L880.896 300.497L884.602 303.956L886.331 302.968L889.543 305.809L893.867 311.986L894.855 317.421L894.114 319.027V319.521L896.955 325.08L898.561 328.168L898.931 329.28L899.179 329.651L899.302 330.145L900.29 332.739L903.379 335.333L905.355 337.433L906.961 339.41H907.085L907.208 339.657L907.702 339.904L907.826 340.027H908.32L908.691 340.151L909.185 339.904L909.432 340.274H909.802L910.049 340.522L910.173 340.151L910.667 340.027L910.791 340.274L911.038 339.78H911.285L911.779 340.027L911.902 339.78H912.149L913.879 340.151L916.35 343.363L917.338 346.081L918.079 349.91L919.809 351.269V351.145L920.426 351.022L920.673 350.651L920.55 350.404L920.797 350.034L921.167 349.91L922.403 349.539L922.65 349.292L923.391 349.416L923.514 349.292L924.009 349.416L924.132 349.786L924.626 350.034H925.367L926.232 349.539H926.85L927.344 349.786H928.332L929.197 350.034L929.568 350.157L929.815 350.651H931.174L931.544 350.775L932.038 351.639L933.273 351.763L933.521 351.887H933.768L934.756 352.628L935.127 353.245L935.497 353.369L935.991 353.863H937.227L936.979 354.604L937.474 355.716V356.21L938.091 356.457L939.203 356.828H939.574L939.944 356.457L940.685 356.334V357.322L940.933 357.816L941.921 358.804L942.168 358.928H943.28L943.527 359.051L943.774 359.422H944.144L945.503 359.299L945.75 359.422L945.874 359.175L946.244 359.051L946.368 359.422L946.739 359.299L947.109 358.804L947.356 358.928L947.727 358.804L948.097 359.051L948.221 358.681L949.95 358.557H950.692V359.051L950.939 359.546L951.186 359.669L952.05 359.793L952.421 359.916L953.286 359.546H954.027H954.274L954.768 360.04L956.127 359.299L957.115 358.804L958.351 358.187L960.327 358.31V359.546L960.574 360.534L960.327 362.51V364.734L961.439 366.093L960.574 379.558L961.192 382.77L959.833 390.058L958.845 390.799L958.598 391.17L959.215 391.788V392.158L958.845 392.529L958.598 392.776H958.351L957.733 392.035H957.486L957.115 392.776L956.621 393.023L956.498 393.641L956.127 394.011L955.88 394.752H955.633L955.386 394.999L955.015 395.123L955.139 395.864L955.015 396.235L954.398 396.605L954.151 396.976L953.78 397.223V397.347L953.039 397.717L952.915 397.964L953.162 398.211L952.915 398.458V398.829L953.162 398.952V399.447V399.941L952.792 400.311L952.421 400.435V400.682L952.174 400.929L951.803 401.053L951.556 400.805L951.062 400.929L950.815 401.3L950.445 401.176L950.321 401.3H949.827L949.456 401.423L949.58 402.041H948.962L948.592 402.658V402.906L948.344 403.029V403.4H947.48L947.356 403.647L947.109 403.894L946.492 403.4L946.121 403.523L944.268 404.017L942.662 408.341L943.897 410.935L944.639 411.8L945.256 413.035L945.133 415.876L946.986 417.977L948.097 421.93V422.177L947.727 422.3L946.862 422.918L946.615 423.412L945.75 425.388L945.627 425.759L946.739 426.871L947.603 427.859L948.221 428.724L948.468 429.341L947.233 428.6L946.615 428.23L945.997 428.106L945.38 428.477L945.133 428.971L945.627 429.712L946.121 431.194L946.368 432.059L947.727 435.518L948.468 437.248L946.615 438.236L946.739 439.224L946.862 441.201L946.986 441.571H947.233L947.356 441.942V442.312L947.603 443.795L945.874 444.165L945.38 444.412L943.774 444.907L942.044 445.895L940.438 446.513L939.203 449.354L937.844 449.601L936.609 448.366L935.497 449.354L934.509 449.23L934.262 451.083L934.015 453.06L932.532 453.924L931.915 454.419L931.421 454.542L931.297 454.913L930.309 454.789L929.815 455.16L929.691 455.407L928.826 455.283L928.703 455.654L928.95 455.777L929.444 456.519V456.889L929.938 457.136V457.383L930.309 457.63L930.679 457.383V457.878L930.926 458.001H931.05V457.63L931.421 457.754L931.544 457.878L931.791 457.63L932.162 457.754L932.285 457.878L932.656 458.125H932.903L933.521 458.001L934.015 457.63L934.262 457.878L934.632 457.507L935.374 458.248V458.372H935.621L935.868 458.248L936.238 458.372L936.485 458.866L936.732 458.619L936.979 458.495L937.35 458.742L937.227 459.113L937.597 459.236L937.844 459.607L938.091 459.483H938.338L939.203 459.978L939.574 459.854L939.944 460.101H940.438L940.562 460.225L940.809 459.978H941.056V460.595L941.18 460.842H941.674L941.797 460.966L942.168 460.595L942.415 460.719L942.662 460.472H942.786L943.156 460.101V460.472L943.527 460.595L943.897 460.719L944.021 460.966L944.268 460.595L944.391 460.842V461.213L944.762 461.089L945.133 461.336L945.503 461.213L945.627 461.089L945.997 461.336L946.368 461.213L946.492 461.46L946.739 461.213V461.954L946.986 462.201L947.109 462.078L947.233 462.572L947.48 462.448L947.603 462.695V462.942L947.727 463.313H948.592L948.839 463.189L949.086 463.436V463.931L949.333 464.054L949.58 463.436L950.198 463.313L950.321 463.436L950.568 463.189L950.815 462.695L951.433 462.325H951.927L952.05 462.201L952.421 461.954H952.792V462.201L952.421 462.695L952.792 462.942V463.313H953.039L952.792 463.56L952.915 463.684H953.286L953.409 464.054L954.027 463.807V463.56L954.274 463.436L954.151 463.189H954.274L955.139 463.56L955.386 463.436L956.004 463.684L956.374 463.931L956.621 463.807L956.374 463.436L956.498 463.066L956.868 462.695L957.239 462.572L957.362 462.201L957.486 461.831L957.733 461.707L958.104 461.954L958.227 461.584L957.857 461.089L957.98 460.472H957.609L957.98 460.225L958.351 460.595L958.598 460.348L958.845 460.472L959.092 460.225V459.978L959.71 459.483L960.327 459.731V459.978L959.833 460.225L959.71 460.595L959.462 461.213L959.339 461.954L959.71 462.572L960.204 462.695L960.574 463.313L961.562 462.325L961.686 462.448H962.057L961.81 461.46L961.933 460.842L962.18 460.595V460.225L962.551 459.607L963.539 459.483L965.268 459.36H965.392L965.639 458.495L965.886 458.248L966.504 458.372L967.616 459.36L967.863 459.607L969.098 460.472L969.592 460.348H969.839L970.58 460.719L971.075 460.842H971.445L971.939 461.213H973.175L973.669 461.831L974.657 462.572L975.028 463.066L975.151 463.313L975.645 463.436H976.386L976.757 463.313L977.004 462.942H977.498L978.363 462.572L980.092 462.819L980.463 462.942L980.834 462.695L981.081 462.819H982.316L982.44 462.942L983.551 463.56L984.169 463.684L984.416 463.807L984.54 464.178H985.404L985.651 463.807L986.146 463.56L987.01 463.436L987.257 463.684V464.178V464.425L987.875 464.548L988.122 464.301H988.616L989.11 464.548H989.604L990.099 464.919L990.469 465.042L990.716 465.166L990.469 465.784L990.593 466.154V466.648L990.716 466.895L991.334 467.266L991.828 467.142L992.199 467.39L992.693 467.266L992.94 467.39H993.31L993.434 467.637H993.681L993.31 468.872L994.052 470.354L994.299 473.813L993.187 476.531L993.063 476.655L992.693 476.284L988.122 477.272L987.999 478.508V479.249L988.122 479.496L987.504 479.743L987.01 478.878L986.393 479.002L986.022 479.125L985.775 480.36H985.404L985.157 480.855V481.349L984.169 481.596L983.181 481.472L981.945 481.843L981.698 482.461L980.587 483.202L979.969 483.449L979.845 483.696H979.722L979.598 482.831H979.228L978.981 483.078V483.572L978.734 483.943L978.487 484.314L978.116 484.684H977.745L977.498 485.055V485.425L977.004 485.549V486.167L976.757 486.29L976.51 486.661L976.263 487.278L976.139 487.649L976.757 494.196L975.645 494.814L975.028 495.184L974.286 495.802L973.175 496.79L972.68 497.902L971.939 498.52L970.827 497.161L970.704 497.037L969.345 498.149L969.098 498.273L967.616 499.508L967.986 500.002L967.863 501.979L968.48 502.349L969.716 505.191L970.333 504.573L971.198 505.438L971.816 504.943L972.433 505.438L972.68 505.932L972.804 506.796L970.951 508.279H970.704L968.11 507.291V507.908L968.233 508.526V509.638L967.863 510.626L966.627 511.491L965.763 511.367L964.157 510.008L963.292 510.502L962.674 510.626L962.427 511.12L962.057 511.738L960.698 512.726L960.451 512.479L959.215 513.22L959.462 513.344L958.227 514.208L956.374 513.22L955.756 512.973L954.027 512.108H953.409L950.939 513.591L950.445 513.344L950.321 513.591L949.456 513.097L949.58 513.467L948.715 513.591L948.097 513.838V514.332L947.85 514.208V514.579H947.727L947.603 514.95H947.356L947.109 514.703L946.986 514.332L946.615 514.208L946.492 514.332V514.579L946.368 514.826L945.874 514.703L945.627 514.95L945.38 514.826L945.256 515.197L944.021 513.467L941.427 510.008L938.585 512.232L937.597 512.85L936.856 512.232L935.374 513.591L935.127 515.938L935.003 516.803L934.632 517.297L933.15 518.656L932.285 519.397L931.668 517.05L930.556 518.161L928.826 517.667L928.085 517.05L927.097 516.308L925.985 515.938L926.109 516.185L924.997 517.173L924.503 516.432L924.873 515.938L924.379 515.814L924.009 515.938L924.132 516.185L923.885 516.432L922.773 516.926L922.65 517.297H922.156L921.538 517.914L921.291 517.544L920.673 517.173V516.803L920.92 516.556L921.044 515.691L920.92 515.32L920.179 515.567L919.685 514.826L919.314 514.579V514.455L917.214 513.344L916.72 513.467L915.114 513.097L914.62 512.973L914.744 513.344L914.497 513.714L913.879 514.208L913.014 514.455L912.273 514.579L912.149 514.208L910.914 514.826L910.42 514.208L909.432 514.703L909.802 515.814L909.679 516.556L910.42 517.05L909.802 517.297L909.432 517.42L906.343 517.667V518.038H905.849L906.096 518.285L907.208 518.656L907.579 519.273L906.838 519.397L906.591 519.891L905.849 520.385L905.355 520.509L903.749 520.756L899.426 521.497H899.055L898.561 521.991L894.608 525.079L893.867 525.573V526.068L894.484 527.179L895.225 527.921L896.214 528.662L896.09 528.785L896.955 529.897L897.078 530.268L897.696 530.021L898.931 532.121H898.808L899.549 532.738L900.784 534.221L899.796 535.085L899.179 535.209L899.426 535.703L899.92 536.321L899.426 537.433L899.179 537.309L898.561 536.938L897.573 536.444H897.202L896.584 536.321L895.596 537.927H895.102L894.855 539.038L894.978 539.656L895.102 539.903L896.461 540.274V541.633L895.225 541.88V543.115L895.72 543.239L895.843 543.362V544.597L895.596 544.721L895.967 544.968L894.484 546.574L893.99 547.809V548.303L893.249 549.045L892.878 550.527L891.767 552.009V552.504L890.408 552.998V556.333V557.321L889.049 557.815L888.184 558.186L887.937 558.557L887.072 558.804L886.702 559.051L886.455 559.421H885.961L886.084 558.804L885.096 558.927L884.355 558.557L881.76 558.804L881.513 559.174L880.649 559.298L880.031 559.668L879.29 560.78H878.919L878.055 560.657L876.943 559.915L875.831 559.668L875.09 559.915L875.337 560.41L875.46 562.386L874.101 564.733L869.531 565.104L868.419 565.227L868.666 565.721L868.419 566.71L867.925 567.327L868.542 568.439L869.284 569.675L867.801 570.292L867.925 570.539L866.566 570.91L864.96 571.157L864.589 571.775L866.442 573.01L866.072 573.504L865.207 573.133L864.219 573.257L861.995 573.133L860.76 572.763L859.648 573.01L856.313 571.404L854.213 570.539V568.81H853.224L852.36 569.922L851.866 569.551L849.889 570.292L849.395 570.91L848.53 570.786L847.912 571.033V571.157L846.554 571.775L846.801 572.145L845.812 573.01L843.836 574.616L842.354 574.863L841.983 575.604L840.624 576.345L838.524 575.481L837.536 574.986L836.547 574.863L836.3 575.481L835.93 575.851L835.683 576.839L835.065 576.963H834.818L834.447 577.087L833.583 577.21L832.347 577.457L831.483 579.928L832.718 580.175L832.224 580.669L832.1 581.534L831.977 582.028L831.606 582.151L831.853 582.398V582.645L832.1 582.893L832.224 583.14L832.1 583.51H832.347L832.471 583.757L832.1 584.251L831.977 584.746L831.606 585.363L831.483 586.475L830.865 586.722L830.494 586.969L830.371 587.34L830.124 587.216L829.877 587.463L829.63 588.328H829.259L828.888 588.699L828.518 589.316L828.147 589.44H828.024L827.653 590.057H827.406H826.665L826.541 590.552L826.665 590.922L826.418 591.169L826.541 591.416L826.294 591.54L825.924 591.416L825.677 591.293L825.306 591.54V591.787L824.935 591.91L824.812 592.281L824.935 592.652H825.43L825.306 593.022L825.43 593.269L824.935 593.393L824.688 593.146V593.393L824.318 593.887V594.381L824.071 594.999L823.453 595.369L823.082 595.246V595.74H822.835L822.588 596.111L822.094 596.358L822.218 596.728H821.971V596.975L821.6 597.099L821.229 597.346L820.365 597.222L820.118 597.469L819.377 598.458L819.129 598.952V599.693L819.253 601.052V601.793L819.377 602.04L819.871 602.411L820.118 602.781L819.994 603.028L819.5 603.646L819.253 604.14L819.129 605.375L819.253 605.746L819.006 606.364L818.265 607.476L818.018 607.723H817.647L816.782 607.846H815.423L814.682 607.476L814.435 608.217L814.312 608.464L814.065 609.081L813.694 609.205L813.323 609.946L813.076 610.564V611.552L811.717 613.529L811.841 613.776L811.717 614.146L811.965 614.393L811.841 615.382L812.459 617.976L812.582 618.47L812.706 619.458L812.829 620.446L813.2 621.805L813.818 623.164L814.312 624.399L814.065 626.129L813.694 626.994V627.611V628.723L813.818 630.329L813.941 633.294L813.818 634.282V636.012L813.694 637.617L813.57 638.606L813.323 639.47L813.076 640.459L812.459 641.818L811.965 642.435L812.088 644.165L812.335 645.524L812.706 646.882L812.459 647.377L811.717 647.006L811.347 647.13L811.1 647.871L811.841 649.353L811.717 649.477L812.212 651.577L813.076 656.024L813.323 657.63L813.818 660.224L814.188 660.471V660.718L813.447 662.324L813.694 662.571L813.941 662.942L814.188 663.189L814.065 663.683L813.818 663.93L814.065 664.301L814.682 664.548L815.547 666.03L815.3 666.648V667.265L814.929 668.007V668.624L815.423 669.242L815.3 670.107L815.794 671.342L815.547 671.713L815.3 671.836V672.33V672.701L815.671 672.948L815.547 673.318L815.3 673.565L815.794 674.06H815.918L816.041 674.307V675.171V675.542L816.165 676.036L816.288 676.407V676.777L815.918 677.024L816.535 678.136L815.423 678.63L815.918 678.877L815.547 679.372L814.435 680.73L814.559 681.595L813.941 682.336L811.965 683.325L809.494 685.301L808.753 685.919L807.888 686.413L806.776 687.278L806.406 687.031L805.911 687.772L804.429 688.76L803.194 689.748L802.947 690.119L801.464 692.96L800.847 694.195L798.994 697.654L798.87 698.519L798.499 700.619L798.005 702.596L797.758 703.337L796.77 704.819L796.523 705.807L796.276 705.931L795.782 706.672L796.399 706.919L796.276 707.413L796.029 707.908L795.658 708.402L794.917 708.278L794.176 708.155L793.682 708.525L792.94 708.896L792.57 709.39L791.582 710.131L791.335 710.502L789.976 711.243L790.593 712.602L791.705 712.725L792.446 711.861L793.929 712.602L794.176 712.849L794.052 713.096V713.343L793.805 713.59L793.558 713.466L793.435 713.714L793.188 713.837L793.064 714.208H792.817L793.311 714.949L793.064 715.196L793.188 717.049L793.682 717.172L793.805 718.408V719.025H794.052L794.793 721.62L795.041 721.867L794.423 723.226V723.72L793.064 725.696L792.693 725.943L792.199 726.808L791.088 728.414L790.47 729.649L789.605 729.526H788.987L788.493 728.785L787.999 728.167L787.629 729.155L787.258 731.008L787.382 732.367L788.123 733.849L788.37 735.332L788.493 735.579L787.382 736.32L786.27 736.938L784.911 737.802L783.799 738.297H783.305L782.934 741.508L782.687 741.879L782.317 744.967H779.105L778.364 745.214V745.832V746.203L778.981 748.056H781.081L781.328 749.291L781.576 749.662L781.328 750.032L780.711 750.279L781.699 752.75L783.799 752.009L787.505 750.65L787.876 752.503L789.852 753.12L791.211 753.615L792.94 754.109L794.176 752.132L794.67 751.885L795.535 752.379L796.646 753.985L797.264 753.368L799.858 750.773L802.329 750.279L803.564 751.638L805.294 753.862L807.023 756.085L806.9 756.332L807.764 757.321L807.517 757.444L807.888 757.938L807.023 758.803L806.159 759.668L807.394 761.15L805.911 762.509L808.259 765.103L809.741 763.744L810.359 764.486L810.853 764.115L811.347 764.238L811.841 764.733L812.212 764.486L812.459 764.609L812.829 765.227L813.447 764.609L814.559 766.091L813.818 766.709L814.682 767.821L814.435 767.944L814.929 768.686L815.053 769.056L815.547 769.921L815.423 770.415L815.547 770.786L816.659 772.145L817.029 772.639L817.894 773.627L818.018 773.874L818.512 774.739L819.5 774.862L820.118 774.615L820.365 775.851L819.377 776.345L817.276 777.456L817.647 777.703L816.041 778.445V778.568L814.929 779.062V778.939L814.435 779.186L815.176 780.792L814.682 781.162L814.806 781.286L815.423 781.409L815.794 781.904V782.521L815.918 782.892L816.659 783.015L817.276 783.757L818.018 784.127L818.388 784.868L818.759 785.239L819.006 785.486V785.98L819.129 786.227L819.253 786.968L819.5 787.215L819.253 787.833L818.882 788.451V788.945L818.265 789.81L817.771 790.18L818.635 790.921L819.253 791.663V792.157V793.021L819.377 793.639L819.253 794.504L819.871 794.38L819.994 795.122L820.118 795.369L820.859 795.245L820.365 798.086L819.994 798.457L819.871 797.963L819.747 798.086L819.377 798.21L819.253 797.839L819.5 797.963L819.377 797.716L819.624 797.345V796.851L819.747 796.604H819.377L819.253 796.727H819.006L818.882 796.357L818.635 796.48L818.388 796.11L818.141 796.233V796.727L817.153 796.604L817.029 796.975L814.559 796.604L812.953 796.357L812.706 797.839L811.841 797.592L812.088 796.233L810.235 795.986L809.988 795.122L809.37 794.627L807.888 794.133L807.27 794.257L806.776 794.133L806.406 794.257L807.023 794.875H806.9L807.394 795.739L806.9 796.11L806.159 797.222L804.058 798.086L804.429 800.063L803.688 802.163L803.07 801.916H802.329L801.958 802.163L801.217 801.916L800.229 802.163L799.611 802.781L798.499 803.769L798.252 804.881L797.882 805.622L796.276 805.004L796.029 805.869L794.917 805.251L794.299 805.004L794.67 804.263L794.546 803.645L793.929 803.275L793.435 802.657L794.052 801.792L793.311 801.422L791.705 802.039L790.84 801.916L789.729 801.669L789.852 800.681L787.258 800.433L786.517 800.186L785.281 799.692L783.923 799.198H783.676L783.181 799.816L782.193 800.557L781.823 800.063L781.081 798.704L780.464 798.581L778.611 797.839L778.734 797.098H777.993L777.87 795.245L777.993 794.998L777.499 794.38L777.005 795.122L776.14 794.504L775.769 792.898L775.522 792.404H774.781L775.028 791.786L775.275 791.292L775.028 791.045L775.275 790.798L775.769 789.316L776.758 789.192L778.24 788.574L779.475 787.833L779.599 788.08L780.093 787.957L780.464 787.586L782.193 786.598L782.687 785.857L783.305 785.61L783.428 784.868L783.799 783.262V783.139L783.676 782.521V782.274V781.904V781.533L783.305 780.545L782.934 780.421L782.317 780.545L781.946 780.174L780.958 779.68L780.711 779.433L781.205 779.309L780.834 777.58L782.687 777.333L783.676 776.221L783.923 776.345V776.839H784.293L784.664 777.333L785.034 777.209L785.529 778.074L785.652 778.445L786.517 778.074H787.011L787.876 778.321V776.221L787.629 775.974L787.011 775.727L786.517 774.986L784.664 772.392L784.17 770.909L784.911 770.786L784.54 770.044L784.417 769.056L783.676 769.18L783.552 767.944L783.428 767.697L783.058 767.327L782.193 767.45L781.699 766.833L782.564 766.462L782.934 766.586L783.305 766.215L783.552 765.721L783.923 765.474L783.428 764.115L783.058 764.362L782.564 764.609L780.093 763.868L779.846 763.744L779.352 763.127L777.87 763.003L776.881 762.262L776.387 762.385L775.769 759.297L775.399 758.803V757.568L774.905 756.703L775.275 754.85L775.152 754.603L773.546 754.109V754.479L772.558 754.232L772.434 754.356V755.962L772.928 756.95L772.063 756.456L770.334 756.332H769.84V757.321H769.593L769.716 758.432H769.346V758.679L768.11 758.803L767.74 759.05V759.544V759.791L767.369 759.915L767.246 759.421H766.628L766.257 759.544L765.269 759.421L765.64 757.568L763.663 757.691V758.309H762.057L760.822 759.297L759.71 760.162L758.598 760.409L757.981 760.656L757.734 761.274V762.015L757.363 762.88L756.004 763.991L755.757 763.868L755.634 764.362L754.028 763.621L753.287 763.25L752.545 764.733L752.051 764.609L751.063 764.856L750.692 765.103L749.828 766.339L749.333 766.833L748.839 767.203L748.469 767.327L748.222 767.08L747.604 767.203L747.481 767.574L746.986 766.956H746.616V766.586H746.369L745.998 766.709L745.875 766.586L745.504 767.08L744.639 767.327L743.404 767.821L741.798 767.697L740.439 767.944L740.192 768.068L739.821 767.821L739.574 767.944L739.204 767.821L739.08 767.574L738.833 767.944L738.339 767.821L737.968 767.45L737.721 766.956L737.845 766.833L737.598 766.709L737.474 766.462H737.227V766.215L736.857 765.844L736.363 765.597V765.474L735.868 765.35V765.103L736.115 765.227V764.98H735.868L735.992 764.733L735.745 764.362H735.251L735.127 764.115H734.757L734.263 765.227L733.521 767.574L732.904 768.315L732.162 770.044L731.915 770.909L730.309 769.427L729.692 768.562L729.074 767.45L727.468 768.191L726.233 769.056L725.739 769.55L726.109 770.044V770.415H725.986L725.739 770.909L725.986 771.033L725.739 771.156L725.862 771.527L725.739 771.65V773.009L725.615 773.503L725.245 774.121L724.627 774.368L724.256 774.615L724.133 775.109L724.256 775.727V776.345L724.009 776.962L724.133 777.951L724.009 778.445L723.762 779.433L723.392 779.804L723.145 779.927L722.774 780.421V781.162L722.897 781.286L722.65 781.656L722.033 782.151L721.662 782.645L721.415 782.892L720.797 783.139H720.303L719.439 783.88L719.315 784.251L718.944 784.498L718.203 784.868L717.956 785.115L716.968 785.486L716.844 785.733V786.845L717.215 787.71L716.474 788.451L714.991 788.821L714.374 789.192L714.127 789.81L713.88 789.933H713.385L712.891 790.551L712.027 791.786L711.038 793.269L710.05 794.133L709.432 794.875L708.815 795.616L708.197 796.727L707.085 798.21L705.85 799.445L705.356 800.681L704.615 801.175L703.379 801.298L703.009 801.669L702.515 803.522L701.897 804.139L701.403 804.016L700.785 803.892L700.291 803.522L699.303 803.028L697.45 803.151L694.979 803.398L692.879 803.151L692.261 802.657L691.15 801.669L689.173 801.175H688.926L687.691 799.939L687.567 799.569L687.444 798.086L687.197 797.963L686.332 796.975L687.073 796.727L686.702 795.739L686.085 794.998L684.726 793.763L683.985 794.257L683.861 794.133L683.12 793.269L682.996 793.516L682.379 793.886H681.885L681.761 794.01L680.896 794.504L679.785 794.998L679.414 795.122L679.167 795.369H679.043L678.549 794.998L678.055 795.245L677.685 795.492L677.19 796.11V796.604H677.067L676.202 796.851L675.832 796.975L675.337 796.851L674.226 797.839L673.361 797.963H672.99L671.384 798.951L670.89 799.198L670.52 799.445H670.026L669.161 799.816L667.925 800.433L667.678 800.186L667.431 799.816L666.69 799.569L666.072 799.939L665.208 800.063L664.961 800.31L663.478 800.433L662.984 799.816L662.737 800.063L661.749 799.816L661.625 800.433L660.019 800.681L659.278 801.051L659.896 801.916L661.008 802.904L661.625 803.769L662.243 804.51L659.896 806.24L658.784 807.104L657.919 807.969L656.808 808.834L656.066 809.328L654.831 809.451L654.337 808.957L653.843 808.34L652.731 808.71L652.484 809.451L652.978 810.44L652.731 810.81L653.102 811.428L653.225 812.293V812.54L653.349 812.91L653.596 813.651L654.584 814.516L655.572 814.887L656.066 815.504L656.684 815.999L657.302 817.234L657.672 817.605L658.29 818.593L658.537 819.334L658.784 819.705L659.031 820.569L659.402 821.063L660.019 821.805L660.266 822.546L660.39 822.793L660.884 824.275V825.016L660.761 825.264L661.008 825.511L660.761 825.881L661.255 826.128V826.622H661.008L660.884 826.993L660.761 828.352V828.475L660.513 828.97L660.884 829.217L660.761 829.587L661.502 829.834L662.367 830.452L662.861 830.823L663.108 831.193L663.355 831.44L663.849 832.305L665.084 832.428L666.567 831.811L666.443 831.44L667.678 830.823L668.79 832.058L668.667 833.046L668.173 833.664L667.308 834.281L666.69 833.293L665.949 833.787L665.825 833.417L662.367 834.281H662.737L662.984 834.776L662.861 834.899L663.108 835.023V835.393L663.602 836.011L663.108 836.382L662.737 837.123L662.367 837.37V838.358H661.749L661.008 838.111L660.39 838.482L659.278 840.582L658.784 840.458L658.413 840.582L658.537 841.323L659.525 842.188L660.266 842.558L659.649 842.929L659.155 843.052H658.661L658.413 843.299L657.055 842.682V842.805L656.066 841.817L654.955 842.682L654.708 842.805L654.337 843.423L653.596 843.299L653.225 843.546H652.731L652.36 843.793V844.411L652.113 844.658H651.99L651.496 844.04L650.507 843.176V842.805L650.631 842.311L650.137 842.064L650.013 841.817L649.643 842.064V842.435L648.778 843.423L649.643 843.917L650.26 844.658L649.766 844.905L649.149 845.893L645.813 849.476L646.431 849.846L647.296 850.711L646.925 851.452L644.825 851.205L641.737 851.947L640.995 851.7L640.625 851.576L637.907 852.564L638.031 851.452L638.154 851.205L638.772 850.958V850.588L639.142 849.599L639.389 849.105L639.142 846.635L639.513 844.411L640.378 843.299L640.872 841.076L640.748 840.952L641.366 839.099V838.976L640.131 836.999L639.636 837.123L639.019 836.876H637.784L637.042 837.246H636.548L635.931 837.123L634.201 839.47L634.448 839.593L633.831 840.334L632.595 839.964L631.483 840.211L631.113 840.087V839.47L629.136 840.334L628.272 838.976L627.901 839.47H627.283L626.913 839.593L626.419 840.334L625.801 840.705L625.677 840.952V841.446L625.43 841.57L625.307 842.064H625.06L624.813 841.817L624.442 842.188H624.071L624.195 842.682L624.318 842.929L624.195 843.176L624.442 843.299L624.195 843.67L623.577 844.164L623.33 843.917L622.836 844.411L622.713 844.658L622.465 844.411L622.095 844.535L621.724 844.411L621.477 844.782L621.601 845.029L621.23 844.905L621.107 845.152L620.736 845.276L620.86 845.523H620.612L620.242 845.77L619.871 845.646V845.276H619.624V845.523L619.254 845.646L619.13 846.017L618.76 845.893L618.389 846.388H618.142L617.771 846.635V846.882L617.524 847.376L617.401 847.252L617.03 847.994V848.241H616.783L615.918 848.858H615.301L614.93 849.105L615.054 849.476L614.806 849.599L614.559 849.476V849.723L614.436 849.97L614.312 849.723L613.942 849.846L613.571 850.464H613.077L611.965 851.452L610.236 851.329L609.742 852.317L609.124 852.441L608.63 853.058L609 854.788L608.63 855.158L608.877 855.405L608.506 855.653L608.753 856.023L608.383 856.147V856.517H608.136L608.012 857.011H607.889L608.012 857.258L607.518 857.629H607.271L607.024 857.876H606.9V858.247L606.653 858.494L606.283 858.741V858.988L606.159 859.482H605.789L605.665 859.853L605.418 859.729L605.171 859.976L605.294 860.1L604.924 860.47L604.43 860.594V861.088L604.183 860.964H603.688V861.212L603.194 861.088L602.947 861.459L602.7 861.706V861.953L602.453 862.2V862.941L601.959 863.682H601.712V864.176H601.341L600.971 864.67H600.6L600.477 865.288H600.6L600.724 865.535L600.477 865.782V865.906L600.23 866.4L600.477 866.647L600.23 867.018H599.983L600.106 867.265L599.983 867.635L599.735 867.759L599.488 868.376H599.118L598.747 868.871H598.377L598.13 868.747L597.883 869.118L597.635 869.241L597.512 869.488L597.388 869.612L596.894 869.365V869.735L596.524 869.612L596.4 868.747L589.112 869.118L588.123 869.365L586.147 869.859L582.812 870.971L579.229 868.747L578.858 868.623L578.364 868.129L577.994 867.882L577.5 867.759L576.882 867.882L576.388 867.388L576.141 866.894L575.647 866.4L575.276 866.276L574.782 865.535L574.658 864.67L574.782 864.423L575.523 863.929L575.77 863.312V862.57L575.523 862.323H575.276L572.064 863.806L569.841 860.1L568.235 859.853L568.111 858.864L567.741 858.617L567.123 858L567.617 856.27L566.011 855.158V855.9L565.764 856.27L565.146 856.394L564.405 855.776L563.17 857.382L562.305 857.011L561.811 856.641L561.44 856.888L560.823 856.764L559.34 856.023L559.464 854.541L560.329 853.923L557.981 850.341L556.376 851.452H554.77L553.287 852.317V852.564L551.311 853.058L550.075 852.811L548.099 854.911L547.358 854.664L546.369 854.417H544.146L543.528 853.676L543.034 854.047L542.787 854.911L541.675 855.776L541.922 857.506L541.799 858.123L541.552 858.617L536.857 859.729L528.951 861.582L521.663 863.312L520.18 862.447L519.316 862.57L518.822 860.223L519.81 860.594L519.686 858.247L518.945 856.888L518.08 854.664L516.104 853.429L514.869 854.047H514.622L513.633 853.552L511.657 851.947L512.027 851.205L510.174 850.464L509.31 851.205L509.186 851.576L509.433 852.564V852.935L509.186 854.047L509.31 854.788L509.186 855.158L508.692 855.776L508.198 856.023L506.715 856.764L505.974 857.629L505.604 857.753L504.986 857.876H504.245L503.751 857.629L502.762 856.764L501.898 855.405L501.527 855.035L501.28 854.911L500.168 854.664L499.427 854.417L498.562 854.294H498.192L497.574 854.664L496.462 855.529L495.721 856.27L495.35 856.641L494.486 858L493.868 858.494L493.25 858.864L492.633 859.111L491.15 860.1L490.903 860.594V861.335L491.15 862.076L491.521 862.817L493.003 863.682L493.744 864.3L494.115 864.794L494.239 865.288L494.362 865.906L494.486 866.771L494.362 867.141L493.992 867.512L493.744 867.759L492.88 867.882L492.633 868.006L492.015 868.623L491.15 869.982L490.656 870.229L490.286 870.106L489.791 869.982H489.174L488.556 869.859L488.186 869.982L487.815 870.353L487.197 869.982L487.074 869.241L487.321 868.376H487.444L488.309 867.018L488.186 866.771L487.815 866.647L487.074 867.018L487.197 866.523L486.827 866.029L486.085 865.412V865.288L485.838 865.041L485.715 864.547L486.085 864.3L485.838 864.053L485.715 863.559L485.344 863.065V863.312L484.974 862.817L484.85 862.941L484.356 863.065L484.109 862.817V862.57L483.738 862.323L483.615 862.694V862.323L483.368 862.2L482.997 862.447H482.75L482.627 862.076L482.503 862.447H482.132L481.638 861.953L481.391 862.076L481.268 861.829V861.582L481.021 861.459L480.897 861.706L480.527 861.582H480.156L479.909 861.459L480.032 861.088L479.538 860.964L479.662 860.47L479.415 860.594L478.921 860.347V860.223L478.674 860.1L478.303 859.606L477.932 859.853L477.685 859.729L476.944 859.606V859.359L476.45 858.988H476.079L476.326 859.606L475.462 860.223L475.338 860.47L474.968 860.347L474.844 860.223L474.226 860.1L473.856 860.347L473.732 860.47L473.362 860.594L473.238 860.841L472.867 860.717L472.62 860.594L472.25 860.841L471.756 861.088L471.385 860.964L471.262 860.594L470.767 860.223L470.397 860.47L469.903 861.212L469.285 861.335L468.791 861.088L468.544 860.717L468.173 860.594L467.803 860.347L466.938 860.223L466.073 860.47L464.097 861.335L463.355 862.2H462.367L461.379 862.323L461.132 862.2L460.761 862.323L460.391 862.817H460.144L460.02 863.065L459.032 862.2H458.538L458.414 861.829L458.167 861.953L457.92 861.706L458.167 861.335H458.414L458.291 860.964L458.044 860.717L457.92 860.47L458.291 860.347L458.167 859.976L457.92 859.729L457.797 860.223L457.549 860.347L457.302 860.223L457.549 859.853L457.302 859.729L457.179 860.1L456.932 859.853L456.808 859.482L456.561 859.359L456.438 859.606L456.067 859.729L455.696 859.482L455.82 859.235L455.449 859.359L455.202 859.111L455.449 858.741L455.326 858.494L455.449 858.37L455.079 858.247L455.202 858L454.461 858.37L454.214 858.247L454.091 858L453.843 858.247L453.473 857.629L453.102 857.506L452.979 858L452.732 857.876L452.485 858.123V858.37L452.114 858.247L451.99 858.123L452.114 858.864L451.867 858.988L451.373 858.617L451.249 858.247L451.002 858.37V858H450.385L450.014 858.247L449.89 857.753L449.52 857.629L448.779 858L448.284 858.37V858.123L448.161 858L447.79 858.247V857.506H448.037L447.79 857.258L447.296 856.888L447.173 856.641L446.926 856.764L447.049 856.023H446.926L446.802 855.653L446.555 855.776L446.308 855.158L446.679 855.035L446.555 854.788H446.184L446.308 854.664L446.061 854.294H445.69V854.541L445.567 854.417L445.443 854.664L445.073 854.417V854.788H444.702V854.664L444.331 854.541L444.579 854.417L444.208 854.17L444.455 853.8L444.084 853.552L444.331 853.429L444.208 853.058L443.59 852.935L443.837 852.564L443.22 852.317V852.07L442.602 851.823L442.973 851.452H442.478L442.355 851.082L442.231 851.329L441.861 851.205L441.984 851.082L441.861 850.588L441.737 850.835L441.367 850.711L441.243 850.835L440.996 850.464L441.367 850.217V849.846L441.12 849.723L440.873 849.352L440.749 849.599L440.625 849.229L440.502 849.476L440.255 849.352V849.105L439.884 848.982L440.131 848.735L440.008 848.488H439.761L440.008 848.241L439.514 847.994L439.637 847.746H439.39L439.514 847.376H439.761L439.637 847.129L439.884 846.758L439.637 846.882V846.635L439.267 846.264L439.143 846.017L439.39 845.523L439.143 845.399L439.267 845.276V844.782L438.772 844.905L438.896 844.658L438.772 844.411H439.143V844.164L439.02 843.67L439.143 843.299H438.772V842.682L438.525 842.435L438.772 841.94L439.02 842.064V841.817L439.39 841.94L439.884 841.199H440.131L440.378 840.829L440.131 840.582L440.255 840.334L440.502 840.087L440.625 839.84L440.996 840.334L441.367 840.087L441.12 839.84V839.593L441.737 839.717L442.231 840.211L442.355 839.84L441.861 839.717L443.22 838.605L443.343 837.74L443.467 837.37L443.837 836.876L443.59 835.764L444.331 834.652V833.787L445.073 833.417L445.814 833.17L446.061 832.428L445.567 831.317L445.937 829.834L446.184 828.599V827.858L446.308 826.746L445.937 825.881L446.184 824.399L446.431 823.287L445.69 821.31L445.196 820.94L444.702 819.705V816.493L444.331 815.999L442.849 813.775L442.355 811.551L441.984 810.069L441.12 809.945L440.502 808.834L440.625 807.598L440.873 804.51L440.255 803.645L440.008 801.051L439.514 799.322L439.39 798.581H438.772L438.155 797.963L437.29 797.222L437.661 795.739L436.796 795.492L435.314 794.504L435.066 793.639L434.943 792.28H433.584L431.608 791.786H429.137L428.89 790.057L428.396 789.068L428.272 787.957L427.037 787.215L426.172 786.474L425.925 785.61L425.802 784.745L425.431 784.127L424.813 783.386L424.566 782.645V781.533L424.196 780.668L422.96 780.174L422.713 779.804L422.96 778.321L422.466 777.951L421.972 777.209L421.849 777.086L421.231 777.209L420.737 776.715L419.501 776.962L418.76 776.592L418.266 775.851L417.895 774.862L417.401 773.874L416.537 772.392L414.807 770.786L414.313 770.539H412.831L412.089 770.292L411.101 769.921L408.631 769.55H408.26L408.013 769.674L406.654 769.18L405.542 768.191L404.801 768.439L403.566 768.315L401.836 768.562L400.477 769.056L400.107 769.303L399.613 769.18L398.501 768.315L397.636 768.068L396.648 766.462L395.907 764.98L395.536 764.486L394.918 764.115L393.93 763.25L392.942 761.768L392.448 760.285L390.595 759.915L389.854 760.038L388.124 759.668L387.012 758.432L385.777 758.309L384.418 757.938L384.789 756.456L385.283 754.356L383.677 753.368L383.553 752.997L382.195 752.503L380.094 753.862L378.489 754.726L376.636 755.838L375.4 757.321L374.165 757.444L371.694 755.962L368.977 754.232L367.371 753.491L365.888 752.503L366.506 749.291L367.371 747.562L369.347 745.461L368.482 744.103L366.753 743.114L363.294 742.126L360.453 741.261L357.859 739.408L358.229 738.667L359.835 735.208L360.329 734.467L360.576 733.479L358.106 733.108L356.376 732.985L356.253 731.626L353.041 731.255L350.323 730.638L348.1 729.649L346.741 729.526L342.664 728.785L342.046 728.538L340.193 728.661L340.317 726.067L339.576 725.943L336.982 726.19L334.758 725.696L333.893 726.561L332.781 726.685L331.793 726.808L331.299 727.92L330.187 730.391L328.458 734.344L327.593 736.814L326.728 737.555L324.381 739.038L324.011 737.555L322.281 735.579L321.417 734.591L321.046 733.849L320.675 733.232L320.305 732.985L320.058 732.243L315.24 716.431L309.804 713.59L309.434 713.343L309.557 712.849L309.434 712.355L309.681 712.108V711.49L309.804 709.884V709.019L309.557 707.908V707.043L309.31 706.055L309.063 705.19V704.819L308.816 703.831V703.46L308.693 702.966L308.816 701.978L308.693 700.866L308.569 699.754L308.693 699.384L308.569 698.643V698.519L308.94 698.396L309.063 698.025L308.816 697.654H308.446L308.199 697.407L307.828 696.79L307.704 695.801L307.334 695.307L306.84 695.06L306.593 694.813L306.469 694.072L306.222 693.701L306.098 693.084L306.346 692.59L306.469 692.219V691.725L306.098 691.231L305.975 690.737L306.098 689.995L306.469 689.625V689.378L306.84 688.884L307.457 688.389L307.828 688.142V687.648L308.075 687.154L307.951 686.66L308.199 685.795L309.31 685.054L309.681 684.683L310.175 683.819L310.299 682.954L311.04 682.213L311.41 681.842L311.163 681.719L310.546 681.595L310.422 681.348L310.051 681.224L309.681 680.977L309.31 680.236V679.372L309.187 678.383L308.693 678.26L308.075 677.889L307.457 677.642L307.087 677.395L306.716 676.901L306.469 676.407V675.542L306.84 674.183H306.963L308.693 673.195L308.816 673.071L309.31 671.96L309.804 671.218L310.051 670.724L311.41 670.107H311.657L312.522 669.736L312.769 668.377L312.893 668.13L312.646 667.883L312.893 667.265L312.646 667.142V666.771L312.769 666.648L313.14 666.03L313.263 666.277L313.51 666.154L313.263 665.783L313.51 665.536L313.634 665.042L314.005 664.795L314.252 664.918H314.499L314.622 664.671L315.24 664.301L316.228 663.93H316.599V663.312H316.969V662.695H317.216L317.34 662.448L317.216 661.583L317.463 661.089L317.587 660.471L316.969 659.977L316.228 659.606L316.105 659.359L316.722 658.124L316.846 658H318.205L318.699 656.641L318.452 656.024L317.958 655.653H317.711L317.587 655.406H317.093L317.216 655.283L316.846 655.159L316.475 654.912V655.036L315.981 654.789L315.734 654.171L315.487 654.047L315.363 653.553V653.183L314.746 652.936L314.252 652.565L314.375 652.071L314.005 651.947L314.252 651.577L314.622 651.453L314.869 651.577L315.61 651.33L315.734 651.083L315.363 650.959L315.734 650.588H315.858V650.218L315.363 649.724V649.353L315.487 648.735H314.993V648.612H314.622L314.252 649.106L313.881 648.982V648.488L314.005 648.118L313.634 647.994L313.51 647.377L313.387 647.13L313.14 647.006V646.759L313.51 646.635V646.018L313.387 646.265L313.263 646.141V645.771H313.51L313.881 645.4H313.634L313.757 645.029L314.005 645.153L313.881 644.535L314.005 643.918L314.252 643.794L314.128 643.547L314.375 643.671L314.499 643.3H314.869L314.622 643.053H314.993L315.24 643.424L315.734 643.176L315.61 643.053H315.363L315.487 642.559H315.734L315.363 642.065L316.228 641.941L316.475 641.571L316.722 641.447L316.599 641.2H317.216L317.093 640.459L317.216 640.088L316.969 639.965L317.216 639.47L316.846 639.223L316.352 639.47V638.976L316.105 638.729L316.228 638.359L315.858 638.482L315.61 638.359L315.981 637.988L315.61 638.112L315.858 637.865L315.734 637.37L316.722 635.641L316.352 635.27L316.105 634.776H316.228L316.599 634.159H316.352V633.912L316.846 633.788L317.093 633.912L317.216 633.788L317.463 633.912L317.34 634.159L317.587 634.035V633.664L317.834 633.417L318.205 633.664V633.294L318.452 633.047L318.575 633.17L318.946 632.923L319.193 632.8L319.44 632.429L319.811 632.553L319.564 632.182L320.058 631.935L320.305 632.059V631.688H320.552L320.428 631.194L320.799 631.317L320.922 630.823L321.417 629.835L321.169 629.711L321.417 629.094H321.787L321.911 628.847L321.664 628.723L321.417 628.353L321.787 628.229L322.034 627.982L322.158 628.229V628.476H322.528L322.652 628.847H322.899L323.022 628.6L323.269 628.723L323.517 628.105L323.887 627.982L324.134 627.364H324.258V627.858L324.628 627.735L324.875 627.488L325.122 627.735L325.37 627.611H325.74L325.246 627.982L325.37 628.353L325.864 628.6L325.74 628.723L325.617 629.217L325.987 629.341L326.481 629.217L326.234 628.97H326.481L326.728 629.341L326.975 628.97L326.605 628.723L326.852 628.476L326.728 627.858L327.099 627.611L327.47 627.982H327.717L328.087 627.611L328.334 626.994L328.087 626.623L327.593 626.747L327.47 626.994L326.852 627.488L326.605 627.364V627.117L326.975 626.747V626.005L327.346 625.388L327.84 625.017V624.029L328.087 623.782L328.581 623.905L329.323 623.782L329.94 624.523L330.311 624.399L330.681 623.658V623.164L331.299 623.041L332.411 623.288L332.781 623.411L332.905 623.782L333.399 623.164L333.646 622.67L333.893 622.299L333.646 621.929L333.77 621.435L335.005 621.064L335.499 620.941L335.623 620.57L335.129 619.952L334.882 619.582L334.511 619.335L334.264 618.964L333.77 618.47V618.223L334.264 618.099L334.511 617.729L334.634 617.235H335.129L335.499 617.482L335.993 617.605L336.982 617.358L337.476 617.482L337.97 617.358L338.711 616.864V616.617V616.123L338.34 615.876L337.97 615.629L337.599 615.011L337.723 614.64L337.97 614.393L338.217 614.146L338.093 613.776L337.846 612.787L337.97 612.417L338.34 611.923L338.588 611.058L338.958 610.811L339.699 611.058L339.946 610.934L340.07 610.564V610.193L339.946 609.699H339.082L338.958 609.081L338.464 608.587L337.723 608.711L337.476 608.464L337.723 607.599L338.093 607.352L338.34 607.599H338.711L338.958 606.981V606.734L338.588 605.746L338.464 604.634L338.34 604.387L337.723 604.017L336.611 603.893L336.24 603.77L335.623 603.152L335.499 602.905L335.623 602.534V602.164L335.746 601.669L336.117 601.175L336.364 600.928L336.487 600.187L336.735 599.94H337.105L337.229 599.446V599.075L336.982 598.705H336.487L336.24 598.087L335.623 597.469L335.005 597.346L333.77 596.605L333.276 596.728L333.029 596.605L332.534 596.111L332.287 595.616L332.411 595.246V594.628L332.534 594.258L332.905 594.01L333.029 593.516V593.022V592.652L333.399 591.91L333.646 591.046L334.017 590.552L334.511 589.934L334.882 589.687V588.946L334.264 588.328H333.646L333.523 588.081V586.599L333.399 586.228L332.905 585.857L332.658 585.734L331.917 585.857H331.793L331.67 585.487L331.793 584.498L331.546 584.128L330.805 583.757H330.311L329.94 583.387L329.693 582.769L329.323 582.151L329.076 582.028H328.211L327.84 582.151L327.346 582.645L326.605 583.387L326.234 583.634L325.864 584.498L325.37 584.746L324.875 584.498L324.505 584.375L323.887 583.51L323.764 583.016V582.645L323.887 582.028L323.764 581.534V580.545L323.887 579.804L323.517 579.187L323.269 578.816L323.022 578.322L322.158 578.198H321.787L320.675 578.569L320.305 578.94L319.811 579.928L319.564 580.422L319.316 580.545H319.069L318.822 580.298L318.328 580.175L317.958 579.804V579.434L317.463 578.94L317.34 578.569L317.463 578.075L317.711 577.581L318.452 576.839L319.316 576.592L320.181 576.098L320.305 575.851L320.181 575.234L319.687 574.616L317.093 574.492L316.599 574.369L316.228 574.245L315.981 573.751L315.858 573.257L315.981 572.639L315.61 572.269L315.116 572.145L314.746 571.775L314.622 571.404L314.375 570.91L314.252 570.416L313.757 569.675L313.881 568.933L314.005 568.686L314.128 568.192L313.387 567.204L312.646 566.71L312.275 566.586L312.028 566.216L311.41 565.969L311.163 565.721L310.793 564.61L310.422 564.239L309.681 564.116L309.434 564.239L309.063 564.486L308.94 564.733L308.446 565.104L307.828 564.98L307.334 564.486L307.21 563.621L307.087 562.016L306.716 561.521L306.098 560.657L305.604 560.286L304.863 559.915L304.493 560.039L303.998 560.41L303.257 560.78L302.887 561.398L302.64 561.645L302.392 562.139L302.516 562.633L303.01 563.251L303.257 563.868L303.381 564.61L303.257 565.104L303.628 565.227L303.998 565.474L303.875 565.845L303.504 566.216L303.257 566.71L303.01 566.957L302.64 566.833L302.516 566.586V566.216L302.145 565.845L301.898 565.969L301.775 566.586L301.651 566.71H301.281L300.663 566.216L300.416 565.598L299.922 565.351L299.551 564.733L299.675 563.868V563.374L299.428 563.004L299.551 562.386L299.798 561.768L299.675 561.151L299.428 561.027L299.181 561.151L298.686 561.027L298.439 560.039V559.792L298.192 559.174L297.822 559.051L296.957 557.939L297.328 557.321L296.957 555.962L296.71 555.345L296.463 555.098L295.969 554.604L295.104 553.862V553.121L294.857 552.874H294.363H293.622L293.128 552.627L293.004 552.009V550.898L292.757 550.527L292.263 549.909L292.016 549.168V548.18L291.769 547.562V546.821L292.016 546.45L292.139 545.833V545.215V544.721V543.733H291.892L292.263 543.362L291.892 542.992L291.645 542.744V542.497L291.151 541.509L291.027 540.891L291.275 539.78V539.286L290.78 536.321L290.533 536.197H289.669L288.31 536.444L285.468 537.185L284.11 537.556L282.998 538.05L282.01 538.544L279.415 540.15L278.18 540.768L275.956 542.127L274.598 542.868L273.239 543.362L272.251 543.609L271.139 543.733H270.398L268.915 543.609L268.05 543.239L266.074 542.003L265.333 541.509L263.85 541.015L263.109 540.891H262.368L260.762 541.139H258.538L257.921 541.015L256.438 540.644L251.374 538.915L250.879 538.791H246.432L245.567 538.668L244.579 538.544L243.591 538.421L242.109 537.927H241.491H240.75L238.773 538.05L237.538 538.297L236.426 538.544L235.067 538.791L233.585 538.915H232.349H230.867L229.385 539.162L228.767 539.286L228.026 539.533L226.296 540.397L225.555 540.768L223.949 541.139L223.455 541.015L222.22 540.891L220.12 540.521H219.255L218.884 540.768L217.773 541.633L216.167 542.497L215.426 543.239L214.931 544.227L214.561 546.203L214.437 546.574L214.067 547.439L213.82 547.933L213.202 548.55L212.214 549.045L209.99 549.662H209.249H207.519L206.408 549.539L205.296 549.168L203.937 548.674L202.084 547.562L201.096 546.821L200.602 546.203L199.86 545.339L199.366 544.35L198.749 542.744L198.378 541.633L198.254 540.891L198.378 540.15L198.625 539.162L199.119 538.297L199.737 536.691L199.86 535.332V533.974L199.737 533.356L199.366 532.862L198.625 532.244L197.76 531.997L195.29 531.503L194.301 531.379L192.819 531.503L190.966 532.121L190.101 532.615L189.113 533.727L188.742 534.468L188.372 534.715L187.631 535.209H187.26L186.642 535.085L185.778 534.591L184.542 534.221H183.06L181.948 533.974L181.207 533.727L179.354 533.232L178.242 532.738L176.513 531.75L175.648 531.132L174.042 529.897L172.93 529.403L171.201 529.156L169.842 529.032L168.854 528.785L168.113 528.415L167.495 527.797L166.63 526.685L166.012 525.944L165.642 525.326L164.159 523.597L163.542 522.732L162.801 522.238L162.183 521.991L160.948 521.867H160.206L157.859 522.238H157.118L155.759 521.867L153.659 521.003L153.042 520.756L151.436 519.52L150.694 519.15L149.83 518.779L147.606 518.285L147.236 518.161L146.865 517.791L146.618 517.42L146.371 516.926L146.247 516.185V515.197V514.579L145.877 513.714L144.888 512.602L144.147 511.985L143.035 510.873L141.8 509.761L141.182 509.267L140.565 508.896L138.959 508.279L138.588 508.032L137.353 506.673L136.612 505.561L135.747 504.696L135.253 504.326L134.759 504.202L132.412 503.708L131.67 503.461L130.806 502.967L130.188 502.72L129.2 502.473L128.335 502.349H126.976L126.111 502.226L125.494 501.855L125.123 501.485L123.764 500.126L123.147 499.755L122.405 499.261H122.035H120.8L118.947 499.384L118.082 499.508L116.97 499.755L116.105 500.373L115.488 500.867L114.129 502.349L113.388 502.72L112.893 502.967H112.276H111.658L110.67 502.473L110.052 501.979L109.558 501.361L109.311 500.743L108.817 499.632L108.57 498.643L108.446 498.396L107.952 497.902L106.099 496.173L104.864 495.184L103.134 493.578L102.393 492.961L102.023 492.467L101.652 491.725L100.911 489.996L99.9225 487.772L99.6754 486.784V485.919L99.1813 484.19L99.0578 483.449L98.8107 483.202L97.8225 482.337L97.0813 481.349L96.5871 480.484L95.9695 479.372L95.4753 477.396L94.9812 476.284V476.037L93.9929 475.049L92.5106 472.825L92.0164 472.331L91.2752 471.466L90.6576 471.343L90.4105 471.466L90.1634 471.837L89.9164 472.949L89.5458 473.196L88.9281 473.443L87.5692 473.69L86.9516 473.937L86.581 474.06L85.7163 475.049L84.728 476.037L84.3574 476.16L83.4927 476.407L82.9985 476.655L82.5044 477.025L81.5161 478.384L81.1455 478.755L80.6514 479.372L79.7867 479.99L78.5514 480.731L78.3043 480.978L77.9337 481.966L77.6866 482.337L77.316 482.955L76.3278 483.696L74.5983 484.314L73.9807 484.684L73.7336 484.931L73.2395 485.302L72.4983 485.672L71.8806 485.302L71.2629 485.425V485.178L71.0159 484.561L71.1394 484.314H71.3865L71.7571 484.066H72.0041L72.3747 483.943L72.6218 483.449L72.7453 482.831L72.4983 480.855L72.0041 480.113L71.8806 479.743L71.51 479.249L71.6335 478.755L71.51 478.631L71.2629 477.643L71.3865 477.396L71.2629 476.902V476.284L71.3865 475.666L71.2629 475.543L71.6335 475.296H72.0041L72.1277 475.049L72.4983 474.802L73.8571 473.813L73.6101 473.443L73.9807 473.196H73.8571L74.1042 472.701L73.9807 472.454L74.4748 472.331L74.7219 471.466L74.9689 471.59L75.0925 470.848L75.4631 470.725V470.354L75.7101 469.984V469.243L75.8336 469.119L75.4631 468.378L75.5866 467.513L75.3395 467.39L75.0925 466.895V466.648L74.8454 466.401L74.7219 465.907V465.537L74.3513 464.919L74.4748 464.425L74.8454 464.178L74.7219 464.054H74.1042L73.8571 463.189L73.6101 462.819L73.1159 461.954L72.3747 461.336L72.0041 461.089L70.8923 460.595L70.3982 460.225H70.2747L69.9041 460.595H69.1629L68.4217 460.101L68.5452 459.731L68.6688 459.36L68.5452 458.495L67.9276 458.248L68.0511 457.754L68.2982 457.63L68.5452 457.878L68.6688 457.63L68.9158 457.754L68.7923 457.383L69.41 456.889V456.148H69.5335V455.654L70.0276 455.283L70.1511 455.407L70.0276 454.789H69.657L69.5335 454.172L69.1629 454.295V453.801L69.41 453.677L69.7805 452.813L69.657 452.689L70.1511 452.442H70.3982V451.948H70.5217L70.8923 452.319L71.0159 452.195L71.51 452.442L71.6335 452.936L72.0041 452.813L72.1277 452.689L71.8806 451.948L71.6335 451.577H71.51L70.1511 450.589L69.41 450.713L69.2864 450.589L69.0394 450.713L68.4217 450.96L67.9276 451.33L67.6805 451.577L67.1864 452.442L67.0628 453.677L66.9393 454.048V454.666L67.1864 454.789L67.3099 455.16L67.0628 456.148L66.6922 457.013L66.3216 457.136H65.5804L65.2098 456.889L64.5922 456.766L64.2216 456.889L63.1098 457.383H62.8627L62.7392 457.26H62.4921L62.1215 457.013H61.5039L60.7627 457.26L60.0215 457.507H59.7744L59.6509 457.63L59.0332 457.878L58.9097 457.26L59.4038 456.766L59.7744 456.025L60.0215 455.901L60.2685 455.16L60.5156 454.789L60.7627 454.172L61.3803 453.183L61.5039 452.566L61.998 452.072V451.701L62.3686 450.836L62.4921 450.713L62.6157 450.219L62.9863 449.23V448.613L63.6039 448.118L63.851 447.995L63.7275 447.871L64.098 447.13L64.3451 446.389L64.7157 445.771L65.0863 444.783L65.2098 443.548L65.3334 443.301L65.2098 442.56L65.5804 442.436L65.704 441.571L65.951 440.954L66.3216 440.707L66.4452 440.336L66.9393 440.089V439.718L67.3099 438.854L67.6805 438.359L67.9276 437.742L68.1746 437.618L68.4217 437.001L68.5452 436.259L68.6688 436.136L68.7923 435.642L68.9158 435.518L68.6688 435.395L68.5452 435.024V433.295H68.6688L68.5452 432.924V431.194V430.577V430.206V429.836L68.6688 429.465L68.7923 428.847V428.353L68.5452 427.983L68.7923 427.859V427.365L68.9158 427.241L68.5452 427.118L68.7923 426.994L68.9158 426.253V425.141L69.0394 424.894V424.277L69.1629 423.165L69.0394 422.424V421.559H69.2864L69.0394 420.694L69.2864 420.2L69.1629 420.077L68.9158 419.212V418.718L68.6688 417.977L68.7923 417.482L68.6688 417.235V416.618L68.5452 416.494L68.4217 416V415.382L68.2982 414.888L68.4217 414.271L68.2982 413.9H68.1746V413.406L67.9276 412.788V412.541L67.804 412.418L67.557 411.923L67.0628 411.306L66.9393 410.812L66.8158 410.317L66.4452 409.823L66.3216 409.206L66.4452 408.712L66.3216 408.217V407.6L65.5804 407.106L66.1981 406.859L66.0746 406.364L65.2098 405.5L64.8392 405.376V404.882L64.3451 404.635L64.2216 404.882L63.9745 404.635L63.3569 404.264L62.9863 403.77L62.8627 403.276L62.3686 402.288L62.2451 401.423L62.3686 401.3L62.1215 400.682L62.2451 400.435L62.1215 400.064V399.817L61.8745 399.076L61.7509 397.717L61.8745 397.099L61.6274 396.852L61.998 395.988H61.8745L61.998 395.494L61.8745 394.752L61.3803 393.394V392.776H61.1333V392.158L60.7627 391.541L61.0097 391.17L60.7627 390.676H60.5156L60.2685 390.058L60.0215 389.935L59.7744 389.44L59.5273 388.699L59.2803 388.576L59.1567 387.958L58.6626 387.34L58.045 386.599L57.5508 385.734L57.4273 385.364L57.0567 384.746V384.129L56.8096 383.634H56.5626L56.439 383.264V382.893L56.0684 381.164L55.9449 380.423L55.8214 379.805L55.5743 379.681L55.6978 379.311L55.5743 378.817L55.2037 377.581V376.964L54.9566 376.717L54.8331 375.605V375.358L54.7096 374.617L54.2154 372.887L53.9684 372.393L53.5978 372.022L53.4742 371.775L52.9801 371.158L52.6095 370.293V368.687L52.3624 367.946L51.9919 368.069L52.1154 367.822L51.8683 367.081L52.1154 366.958L51.9919 366.34L51.4977 364.981L51.2507 364.116L51.4977 363.993L51.9919 363.869V364.116L52.8566 366.71L52.9801 366.587L53.5978 367.699L54.586 369.181H54.9566L54.4625 368.563L54.9566 368.44L54.586 367.328L54.339 367.081L53.5978 364.734L53.2272 364.61L52.8566 363.499H52.733L52.9801 364.24L52.486 364.363L52.2389 363.375V362.881H52.1154L51.9919 363.128L51.6213 360.41H51.3742L51.1271 358.928L50.8801 357.569H50.633L50.5095 357.198H50.7565L50.633 356.457V356.334L50.3859 355.716L50.1389 355.469L49.2741 353.492L48.78 353.74L49.2741 353.369L49.1506 353.122H48.9035L48.5329 352.504V352.134L49.0271 351.887L48.9035 351.516L48.6565 351.639L48.5329 351.392L48.2859 351.516L48.1623 351.145H47.9153L48.1623 351.887H48.0388L47.7917 351.022L47.9153 350.898V350.651L48.1623 350.528L47.9153 350.281H47.7917L48.1623 349.91L47.2976 348.798L47.1741 348.922L47.4211 349.416L45.8152 346.945L45.074 346.328L43.9622 345.463L43.8387 345.216L42.974 344.722L41.4916 343.98L40.8739 343.733L41.368 343.857L41.6151 343.486L41.7386 342.992V342.251L41.4916 340.274L41.368 338.545L41.2445 336.939L40.8739 334.592L40.5033 333.233L40.1327 331.38L39.8857 330.268L39.6386 329.404L39.268 328.292L39.0209 326.933L38.8974 325.327L38.6503 324.092L38.5268 322.239L38.4033 320.633V320.015L38.2797 319.397L38.1562 316.803L37.9091 315.568L37.7856 314.827L37.415 312.356L37.2915 311.615L37.415 310.256V309.144V308.28L37.2915 307.662L37.0444 306.179V305.068V303.709L36.9209 302.844L36.6738 301.115L36.1797 300.003L36.0561 299.632L36.4267 298.397V297.903L36.3032 296.297L36.1797 295.679L36.0561 294.444L35.8091 293.209V292.344V291.479L35.9326 289.997L35.8091 289.256L35.6855 288.514V287.773L36.1797 287.279L36.5503 286.291L36.7973 285.055L37.0444 283.82L37.415 282.091L37.9091 280.608L38.2797 278.385L38.4033 277.643L38.7739 276.285L38.8974 275.42L39.268 272.455L39.3915 269.737V267.884V267.267L39.5151 263.931V260.967L39.3915 259.237L39.268 258.002L39.0209 256.766V256.519L38.8974 255.408L39.3915 254.419L39.5151 253.678V251.825L39.268 249.231L38.6503 245.401L38.2797 243.548Z" fill="black"/>
<path fill-rule="evenodd" clip-rule="evenodd" d="M24.9413 476.165L21.4824 475.548L20.3706 475.301L20 475.177L20.6177 474.065L21.3589 472.706L22.2236 470.977L23.0883 469.371L23.4589 468.383L24.0766 467.147L24.9413 465.294L25.559 463.936L26.5472 461.835L27.2884 459.982L27.9061 458.624L28.6473 456.647L29.0179 455.782L29.6355 454.3L30.5003 452.323L30.8709 451.088L31.7356 449.235L32.2297 447.753L33.0945 445.653L33.5886 444.047L34.0827 442.811L34.3298 441.823L34.8239 440.464L35.5651 438.488L35.6886 437.994L36.5534 435.276L37.4181 431.941L38.1593 429.47L38.777 426.629V426.258L39.1476 424.776L39.2711 424.405L39.6417 422.429L39.7652 421.44L40.2593 419.587L40.5064 418.476L41.2476 414.893L41.6182 412.917L41.8653 411.928L42.3594 409.828L42.9771 406.369L43.3477 404.146L43.5947 401.428L43.8418 399.946L43.9653 398.587L44.0889 396.734V396.116L44.4595 391.422L44.7065 388.21V386.851L44.9536 383.516L45.0771 378.822L45.2007 376.598V373.757L45.0771 370.792V368.939L44.9536 366.962L44.8301 364.986L44.7065 362.886V362.145L44.3359 357.697L44.0889 354.609L43.8418 352.015L43.3477 349.05L43.1006 347.321V346.085L42.6065 345.715L41.1241 344.974L40.2593 344.727L41.0005 344.85L42.6065 345.715L43.7183 346.456L44.2124 346.827H44.4595V347.321L44.8301 348.185L45.6948 349.544L45.9418 350.286L46.5595 351.274L47.5478 353.374L47.6713 353.868L47.9184 354.115L48.7831 355.844L49.6478 357.821L49.7714 358.192L49.6478 358.315L49.7714 358.933H49.8949V360.045L49.6478 361.033V361.651L49.5243 361.774L49.2772 362.515L49.0302 364.121L48.9066 365.48L49.0302 366.098H49.1537L49.2772 366.962V368.568V368.939V369.804H49.4008L49.2772 370.545L49.5243 371.039V372.521L49.6478 372.645V373.016V374.251L49.5243 374.621L49.6478 374.992V375.486L49.5243 376.104V376.474L49.6478 376.598L49.7714 377.339L50.0184 377.463L50.142 378.204L50.0184 379.192L49.8949 379.686L49.7714 380.798L49.1537 381.786V383.022L49.2772 383.392L49.4008 384.133L49.6478 384.628L49.2772 385.492L49.1537 385.616L48.9066 386.357V387.345L48.7831 388.21L48.9066 388.457L49.1537 388.704L49.2772 389.198L49.0302 390.063L48.9066 390.31V391.175L48.7831 392.534V393.028L48.9066 393.398L48.6596 394.263V394.757L49.0302 395.746H48.536V396.116H48.9066L48.7831 396.61L48.4125 396.981L48.536 397.228L48.289 397.846L48.1654 398.093L47.7948 398.957H47.9184L47.6713 399.204L47.4242 399.575V400.193L47.1772 400.687L47.3007 400.934V401.552L47.4242 401.675L47.3007 402.293L47.4242 402.663H47.1772L46.9301 403.899V404.64L46.683 405.258L46.8066 406.616L46.9301 406.74L47.4242 407.234L46.8066 408.346L46.5595 409.581V410.446L46.3124 411.434V412.175L46.5595 412.669V413.411L46.683 414.028L47.0536 414.275L47.1772 414.893L45.8183 416.623L45.3242 417.981V418.352L44.9536 419.711L44.7065 420.576L44.8301 421.193L44.7065 422.058L44.583 422.429L44.2124 422.923L43.8418 423.911L43.9653 424.405L43.8418 424.776V425.64L43.5947 426.135L43.1006 426.876L42.9771 427.123L43.1006 427.864V428.235L42.9771 428.605L42.4829 428.976V429.346L43.1006 429.964L43.4712 430.211L45.5713 432.929V433.299V433.67L45.9418 434.535L45.0771 435.276L44.583 435.523L44.4595 435.77L43.9653 436.141L43.8418 436.388L43.3477 436.758L42.8535 437.005L41.9888 437.747H41.8653L41.7417 438.241L41.9888 438.611L42.2359 438.364L42.4829 439.105L43.2241 439.723L43.1006 440.094H42.8535L42.4829 440.588L42.2359 440.711L42.1123 441.082L41.8653 441.206L41.1241 441.947H41.2476L40.7535 442.194L40.1358 442.935L39.7652 443.676L39.8888 444.294L40.1358 444.541L40.6299 444.664L40.7535 445.035L40.3829 445.653L39.3946 446.888L39.2711 447.629L38.9005 448L38.777 448.37L38.4064 448.617L37.0475 449.976L36.6769 450.718L36.8004 451.088L36.6769 452.323L36.4298 453.065L36.5534 453.435L37.4181 454.547L37.5416 455.041L37.4181 455.659L37.171 456.029L36.3063 458.006V459.118L36.5534 459.982L36.8004 460.23L37.171 460.477V460.6L36.5534 461.218L36.1828 461.588H36.0592L35.318 462.206L34.8239 462.453L34.5768 462.7L34.2062 462.824L33.9592 463.071L33.4651 463.318L31.9827 463.688L31.4885 463.936L31.1179 464.43L30.1297 465.541L29.2649 466.653L28.8943 467.518V467.889L29.0179 468.012L28.8943 468.753L29.2649 468.877H29.0179L28.5238 469.371L27.5355 469.865L27.2884 470.483L27.1649 470.977L27.7826 472.583L27.659 472.953L26.3002 473.695L25.6825 474.189L25.4354 474.559V475.177L24.9413 476.165Z" fill="black"/>
<circle cx="730" cy="641" fill="#5CE50D"/>
<circle cx="648" cy="315" fill="#E52A0D"/>
<circle cx="55" cy="363" fill="#E52A0D"/>
<circle cx="447" cy="641" fill="#E52A0D"/>
</svg>
