<svg width="1000" height="1000" viewBox="0 0 1000 1000" fill="none" xmlns="http://www.w3.org/2000/svg">
<rect width="1000" height="1000" />
<path d="M396.638 15.8267C389.883 18.2052 387.694 18.5858 377.895 18.5858C365.717 18.5858 362.387 19.3469 359.437 22.9622C357.344 25.4359 357.439 27.7193 360.103 39.5168C361.055 43.5127 360.96 43.8932 358.676 45.7009C354.966 48.6503 353.063 58.9255 354.871 66.0611C356.869 73.6724 356.203 75.3849 349.923 78.2391C345.927 80.0468 341.932 80.9031 333.94 81.5691C315.197 83.0913 314.436 83.4719 305.968 91.3686C301.877 95.1743 297.786 99.741 296.93 101.549C295.122 105.069 289.604 134.658 289.604 140.842C289.604 144.457 289.223 145.123 286.084 147.216C284.086 148.548 280.946 150.071 279.138 150.737C277.236 151.307 273.525 154.066 270.861 156.826C267.056 160.726 265.819 162.819 264.867 166.72C263.44 172.809 264.201 175.378 269.624 182.989C271.717 186.034 273.43 188.983 273.43 189.649C273.43 190.315 271.147 195.263 268.292 200.59C265.438 205.918 262.679 211.817 262.108 213.72C261.347 216.194 260.11 217.526 257.446 218.762C255.544 219.714 250.311 222.758 245.839 225.613C237.086 231.131 232.519 236.363 232.519 241.025C232.519 245.592 234.993 252.252 238.989 258.626C241.082 261.956 243.461 266.809 244.222 269.377C245.459 273.564 245.459 274.42 243.936 277.94C242.129 282.221 237.657 285.932 234.517 285.932C230.997 285.932 222.244 289.738 220.912 291.926C220.151 293.067 219.009 296.112 218.343 298.776C217.677 301.345 216.536 304.294 215.679 305.15C214.347 306.577 213.967 306.482 210.161 303.818C205.499 300.488 201.123 300.108 196.461 302.582C193.036 304.294 192.75 305.055 191.609 316.948C190.657 326.747 189.896 330.172 187.518 334.93C186.757 336.452 185.425 343.397 184.473 350.247L182.856 362.615L178.384 365.375C176.006 366.897 170.012 372.225 165.16 377.267C157.643 384.974 156.407 386.686 156.882 388.684C157.643 391.633 160.022 393.536 165.73 395.534C180.097 400.672 191.989 415.99 187.708 423.981C186.091 427.216 185.044 427.692 179.621 427.692C175.72 427.692 174.388 428.168 172.581 430.07C170.392 432.449 170.297 433.02 170.583 443.676C171.249 464.036 171.344 463.56 167.728 467.271C164.494 470.6 164.494 470.696 164.589 478.878C164.684 483.445 165.16 488.392 165.826 489.819C166.396 491.341 166.872 496.384 166.872 501.141C166.872 505.898 167.348 512.558 167.919 515.792C168.87 521.12 169.346 521.977 172.2 523.689C176.101 525.973 181.809 525.687 188.945 522.738C197.793 519.122 201.123 521.025 201.123 529.683C201.123 535.962 202.55 540.624 205.024 541.861C205.975 542.432 208.639 545.762 211.018 549.282C213.301 552.802 216.536 557.464 218.058 559.652C219.675 562.031 221.293 566.027 221.959 569.547C223.005 574.494 223.862 576.207 227.001 579.347L230.807 583.152L230.141 593.237C229.38 605.415 229.285 618.83 229.951 619.496C230.141 619.781 234.232 620.257 238.894 620.543C245.554 620.923 248.503 620.733 252.404 619.401L257.446 617.784L264.296 621.209C270.861 624.539 271.242 624.919 273.715 630.628C276.57 637.192 277.045 644.138 275.143 650.512C274.096 653.937 272.383 655.935 268.197 658.409C266.39 659.55 264.011 669.445 263.916 676.581C263.916 680.672 264.392 681.909 267.246 685.238C269.72 688.188 271.717 689.425 275.238 690.281C280.185 691.423 294.171 699.129 294.837 701.032C297.025 706.931 298.928 735.283 297.596 740.515C297.215 741.942 294.076 744.321 288.272 747.746C276.379 754.787 275.618 755.833 273.811 766.013C272.669 772.768 272.003 774.766 270.29 775.813C269.149 776.574 265.628 779.904 262.489 783.139C259.349 786.373 254.782 789.989 252.214 791.13C246.791 793.699 246.505 794.08 247.266 798.076C247.742 800.74 248.884 801.786 254.212 805.021C257.732 807.019 262.869 809.778 265.628 811.11C270.481 813.298 270.671 813.584 270.195 816.248C269.434 819.863 269.339 819.958 264.677 820.529C261.347 821.005 260.205 821.766 258.112 824.81C256.78 826.808 254.021 829.377 252.118 830.328C249.359 831.756 248.027 833.468 245.839 838.13C243.365 843.838 242.795 844.314 236.04 848.025C229.285 851.735 228.809 852.306 225.955 858.205C221.768 867.243 222.434 870.858 230.046 880.753C233.281 884.939 238.228 891.409 241.082 895.215C254.782 913.291 256.019 914.528 263.726 917.287C267.626 918.714 274.952 920.807 279.995 921.949C288.367 923.852 289.509 923.852 293.79 922.615C297.31 921.569 302.353 921.378 314.721 921.664L331.085 922.044L335.462 925.089C338.982 927.467 340.885 928.133 344.595 928.133C348.877 928.133 349.828 928.514 354.205 932.51L359.057 936.886L358.867 953.251C358.771 964.382 359.152 971.613 360.103 976.18C361.34 982.459 361.626 982.935 364.956 984.552C368.286 986.169 368.856 986.169 373.709 984.837C381.034 982.649 385.982 982.839 388.17 985.313C389.692 987.026 390.739 987.216 394.259 986.835C396.638 986.55 400.538 985.218 402.822 983.886C408.245 980.841 410.433 980.746 413.287 983.791C415.475 986.074 419.376 986.93 421.374 985.408C421.945 985.028 424.419 981.603 426.988 977.892L431.554 970.947H439.832C447.348 970.947 448.489 971.232 452.39 973.706C454.769 975.228 458.003 978.463 459.811 981.317C462.57 985.503 463.331 986.169 465.995 986.169C467.708 986.169 469.896 985.598 470.848 984.837C472.465 983.696 472.56 983.22 471.513 981.032C469.23 975.989 470.562 966.095 474.082 962.004C475.319 960.576 476.461 960.386 481.028 960.862L486.451 961.433L488.353 956.105C489.495 953.251 490.351 950.111 490.351 949.255C490.351 948.303 491.493 946.21 493.015 944.498C495.299 941.643 496.821 941.073 507.952 938.409C514.803 936.791 520.511 935.269 520.797 935.079C521.082 934.793 521.177 931.368 521.082 927.277C520.892 922.52 521.272 919.38 522.033 918.239C523.936 915.575 529.454 914.814 553.144 913.862C572.743 913.101 576.454 912.625 583.114 910.532C592.247 907.678 594.531 907.583 600.429 909.961C602.903 910.913 606.614 911.959 608.612 912.34C610.514 912.72 612.132 913.482 612.132 913.957C612.132 914.528 614.891 917.858 618.316 921.378C622.978 926.231 624.5 928.514 624.5 930.607C624.5 932.129 625.356 935.269 626.403 937.552C627.45 939.836 628.306 942.5 628.306 943.546C628.306 946.496 632.968 951.919 635.536 951.919C636.868 951.919 640.294 952.775 643.338 953.917C647.239 955.344 650.759 955.914 655.992 955.819L663.318 955.629L667.314 960.672C669.502 963.431 671.785 966.761 672.356 967.997C673.307 969.995 673.878 970.09 677.779 969.615C681.68 969.139 682.441 969.329 686.247 972.374C689.291 974.848 691.004 975.514 692.621 975.133C694.334 974.657 695.666 975.228 697.949 977.511C701.564 981.032 704.609 982.078 708.129 980.841C711.554 979.605 711.744 976.56 708.605 972.945C706.226 970.09 706.131 969.52 706.702 963.05C708.7 939.455 708.605 935.935 705.465 923.852C703.943 917.573 701.469 909.295 700.137 905.395C697.664 897.879 696.998 887.508 698.615 880.468C699.091 878.565 702.135 873.427 705.465 869.051C712.886 859.346 714.884 855.446 714.884 851.164C714.884 848.31 713.933 846.978 707.273 840.604C700.137 833.754 699.661 833.088 699.661 829.377C699.661 825.001 702.135 821.861 706.321 821.005C712.315 819.768 712.981 819.007 712.981 814.059C712.981 811.205 712.506 809.017 711.554 808.256C710.032 807.019 710.317 803.499 712.601 797.219C713.838 793.699 714.408 793.223 719.451 791.796C722.4 790.94 726.396 789.989 728.204 789.703C733.151 788.752 735.53 786.849 739.335 780.855C741.238 777.906 744.188 773.529 745.995 771.246C747.708 768.963 749.611 765.347 750.181 763.159C752.274 755.643 755.985 746.985 758.554 743.56C763.501 737.376 766.546 730.145 767.021 723.485C767.402 717.396 767.402 717.206 764.357 714.637C762.645 713.21 759.981 711.783 758.554 711.497C752.94 710.356 754.272 702.174 760.837 697.417C763.025 695.799 769.971 689.615 776.25 683.621C786.906 673.441 793.375 668.208 800.13 664.117C801.653 663.261 806.315 657.933 810.406 652.415C818.778 641.188 820.11 637.002 817.256 630.913C816.399 629.105 815.733 626.156 815.733 624.253C815.733 620.352 816.685 620.067 822.108 622.255C826.77 624.253 827.15 624.063 827.15 620.828C827.15 618.735 826.009 616.642 823.059 613.407C815.258 604.94 814.687 603.608 815.353 596.567C815.924 590.859 816.209 590.193 819.159 588.48C820.871 587.338 824.486 584.104 827.15 581.154C831.622 576.302 832.003 575.446 831.527 572.401C831.241 570.499 830.195 568.405 829.148 567.549C826.294 565.361 825.343 560.128 826.96 556.132C827.911 553.754 828.102 551.09 827.721 546.428C826.865 538.626 827.721 536.914 833.239 534.821C841.041 531.871 844.942 522.833 842.468 513.604C841.136 508.847 840.565 508.371 836.855 509.133C834.667 509.608 833.81 510.369 833.335 512.367C833.049 513.794 831.527 516.173 830.005 517.6C826.484 520.93 823.059 520.264 820.395 515.792C817.541 510.845 811.928 507.61 806.315 507.61C802.128 507.61 801.653 507.325 801.082 505.232C800.416 502.663 798.703 501.521 794.232 500.57C791.473 499.999 790.902 500.284 788.523 503.71C786.811 505.993 783.956 508.371 781.292 509.608C777.392 511.416 775.869 511.606 769.495 511.035C763.311 510.56 760.932 509.799 754.463 506.278C750.181 504.09 744.473 501.616 741.714 500.95C737.432 499.999 736.005 498.952 731.724 494.1C728.965 491.056 724.779 487.25 722.305 485.633C717.929 482.779 716.692 480.876 713.457 472.218C712.41 469.268 710.412 466.509 707.844 464.511C702.135 459.85 700.328 459.088 694.904 459.088C690.813 459.088 689.196 459.659 684.82 462.609C681.965 464.607 679.396 466.985 679.111 467.937C677.969 471.362 674.735 472.503 669.407 471.362C666.648 470.791 664.269 470.03 663.984 469.554C663.698 469.078 663.032 463.941 662.461 458.137C661.795 451.572 660.273 443.961 658.37 437.967C655.136 427.502 655.231 427.692 647.144 426.265C645.146 425.979 642.957 425.123 642.196 424.267C640.008 422.079 627.735 417.226 620.79 415.799C614.891 414.562 614.13 414.087 608.802 408.378C590.249 388.589 585.587 380.883 584.826 368.609C584.256 360.713 584.256 360.522 579.689 355.29C575.312 350.247 575.122 349.771 576.073 346.917C576.644 345.3 577.976 343.492 579.023 342.921C581.306 341.685 580.735 339.401 576.835 333.788C575.312 331.6 573.79 328.555 573.505 326.938C573.124 325.225 572.458 323.703 571.887 323.322C571.411 323.037 567.511 322.847 563.229 322.942C554.191 323.132 550.671 321.99 544.867 316.567C541.632 313.618 540.776 312.096 540.776 309.717C540.776 307.339 539.825 305.626 536.59 302.391C532.879 298.681 532.118 297.159 530.691 291.07C529.454 285.456 529.359 283.744 530.311 282.602C532.404 280.128 527.837 272.612 522.699 270.043C520.321 268.902 517.467 267.855 516.23 267.855C514.232 267.855 511.473 265.286 506.335 258.722C504.052 255.867 504.623 251.681 507.286 251.681C509.76 251.681 516.23 245.402 515.849 243.499C515.659 242.643 514.707 241.406 513.661 240.835C512.614 240.264 511.473 239.313 511.092 238.837C509.855 237.22 510.236 232.558 511.948 229.799L513.471 227.04L507.952 219.619C501.673 211.341 499.961 207.441 499.866 201.256C499.866 198.878 499.2 194.501 498.534 191.362C497.392 186.605 497.392 185.273 498.629 181.657C501.388 173.475 498.819 169.099 492.825 172.048C489.781 173.475 489.305 173.475 487.973 172.143C486.26 170.336 486.26 170.811 488.068 163.2C488.829 159.775 491.017 154.352 492.825 151.022C495.394 146.17 495.87 144.648 495.108 143.125C494.347 141.698 494.538 140.271 496.06 136.941C497.106 134.372 497.963 130.471 497.963 127.712C497.963 123.812 498.438 122.385 500.436 120.291C503.957 116.676 505.574 108.684 505.574 95.0791C505.574 81.5691 505.384 81.1885 495.299 74.0529C491.779 71.5793 488.734 69.4861 488.544 69.3911C488.353 69.2007 489.59 66.9174 491.208 64.3486C494.252 59.5915 494.347 59.4963 493.681 50.7434C492.825 38.6605 491.208 34.4743 485.88 30.7638C481.694 28.0047 480.932 27.8145 470.372 27.3387L459.24 26.863L457.242 29.527C456.101 30.9541 454.959 33.5229 454.578 35.3306C453.532 41.039 450.678 42.371 439.356 42.371C429.842 42.371 429.366 42.2759 423.848 39.0411C420.708 37.1382 417.854 35.3306 417.569 34.8549C417.283 34.3792 416.712 30.0978 416.237 25.2456C415.571 19.3469 414.714 15.9218 413.668 14.685C411.384 12.1161 405.866 12.4968 396.638 15.8267Z" fill="black"/>
<circle cx="500" cy="803" fill="#5CE50D"/>
<circle cx="382" cy="191" fill="#E52A0D"/>
<circle cx="322" cy="530" fill="#E52A0D"/>
<circle cx="670" cy="607" fill="#E52A0D"/>
</svg>
