<svg width="1000" height="1000" viewBox="0 0 1000 1000" fill="none" xmlns="http://www.w3.org/2000/svg">
<rect width="1000" height="1000" />
<path d="M580.208 215.436C579.452 216.854 579.83 217.894 582.004 220.446C585.407 224.416 585.88 230.559 583.044 234.151L581.248 236.42L578.318 231.694C576.711 229.142 575.104 225.266 574.821 223.187C573.497 215.058 568.582 212.789 559.603 216.192C555.822 217.705 555.538 218.083 553.175 225.172L550.623 232.639H544.291C538.903 232.639 537.012 233.111 532.381 235.663C527.844 238.121 526.426 238.499 524.441 237.648C523.023 237.176 520.377 236.892 518.392 237.176C515.367 237.554 514.233 238.405 511.019 242.658C507.522 247.289 506.955 247.573 504.781 246.722C502.796 245.966 501.945 246.155 500.055 247.857L497.881 250.031L495.14 247.384L492.399 244.832L485.026 248.424C477.748 251.921 477.559 252.11 476.803 256.269C475.669 261.94 473.873 264.02 470.754 262.791C469.525 262.318 467.256 261.94 465.744 261.94C463.192 261.94 463.097 262.129 462.625 267.8C460.923 288.595 461.869 306.081 465.46 320.637C466.973 326.498 466.973 327.065 465.46 329.333C463.475 332.358 463.286 340.581 465.177 345.685C465.838 347.765 466.689 353.436 467.067 358.351C467.445 363.266 468.391 369.126 469.147 371.395C469.997 373.947 470.47 379.429 470.47 386.518C470.47 394.836 470.848 398.144 471.888 399.562C472.644 400.507 473.306 403.437 473.306 406.084C473.306 412.984 468.485 420.546 455.725 433.495C444.477 444.932 435.214 452.116 425.573 456.842C420.469 459.394 419.334 460.339 418.862 462.796C417.822 467.711 412.529 471.114 399.58 475.368C386.914 479.432 371.223 481.984 365.174 480.85C362.055 480.283 361.11 479.337 357.234 473.194C352.414 465.632 348.917 463.269 340.221 461.946C334.833 461.189 329.918 458.543 326.043 454.573C323.491 451.832 322.545 449.658 320.56 440.962C319.237 435.291 317.252 428.107 316.212 424.988C315.267 421.869 313.944 416.292 313.471 412.7C312.904 408.92 311.297 403.437 309.596 399.94C307.611 395.781 306.76 392.568 306.855 389.921C307.044 386.046 306.949 385.951 302.507 384.439C300.049 383.588 294.945 380.942 291.164 378.389C285.021 374.514 283.319 372.624 276.23 362.605C270.937 354.948 266.684 350.033 263.375 347.481C255.341 341.432 245.889 332.169 242.865 327.348C241.352 324.891 239.367 320.637 238.422 317.896C236.91 313.17 236.91 312.225 238.328 304.474C239.178 299.937 239.84 295.022 239.84 293.605V291.053L234.452 291.714C227.836 292.565 218.195 296.251 208.081 302.017C203.922 304.38 195.793 308.444 190.028 310.996C184.262 313.643 175.566 317.896 170.651 320.543L161.671 325.269H151.558C141.822 325.269 141.066 325.458 132.086 329.144L122.823 333.02L121.311 339.163C118.381 350.789 111.386 363.361 105.904 367.047C104.486 367.898 101.084 372.907 98.059 378.389C95.1289 383.777 90.781 390.772 88.4179 394.08L84.07 400.035L83.4084 421.207C83.0303 432.833 82.9358 443.042 83.2193 443.798C83.5029 444.554 82.5577 449.753 81.0453 455.424L78.3988 465.632L70.3645 473.194C66.0166 477.352 61.7632 481.889 60.9125 483.307C59.9673 484.725 54.2015 490.018 48.0577 494.933C41.8193 499.943 36.1481 505.047 35.2974 506.276C34.0686 508.072 33.7851 511.191 33.7851 521.116C33.7851 537.468 30.5714 554.859 26.0344 563.65L22.9152 569.605L22.8207 584.728C22.6316 598.433 22.4426 600.513 20.0796 607.413C17.7166 614.502 17.5275 615.636 18.1892 625.372C18.6618 633.595 18.4727 636.62 17.3385 639.928C15.1645 645.977 15.4481 649.285 19.607 662.991C21.5919 669.891 23.5769 678.303 23.9549 681.706C24.333 685.203 24.9001 688.511 25.2782 689.079C25.7508 689.835 27.6412 689.646 31.9892 688.228C35.2974 687.188 39.3618 686.337 40.9686 686.337C44.5604 686.337 48.6248 682.368 49.9481 677.263C50.8933 673.955 50.7988 673.483 48.5303 671.687L46.0727 669.702L50.9878 667.528C54.5796 666.016 57.1316 664.031 59.7782 660.533C62.7084 656.847 65.2604 654.862 70.9316 652.121C74.9015 650.136 78.2097 648.151 78.2097 647.679C78.2097 647.3 79.9111 644.937 82.0851 642.48C85.2042 638.983 86.5275 638.132 88.9851 638.132C91.159 638.132 92.8604 637.281 95.1289 634.918C99.0988 630.854 101.084 630.381 109.023 631.421L115.262 632.366L120.177 628.774C128.117 622.82 130.196 622.063 138.986 622.063H147.021L149.951 618.472C156.189 610.816 155.906 611.005 165.925 610.532C174.81 610.154 175.282 610.248 179.63 612.895C184.262 615.731 189.744 616.581 202.977 616.392C205.34 616.392 211.578 616.676 216.966 616.959L226.701 617.526L231.995 622.063C238.044 627.168 244.566 629.72 246.929 627.735C248.347 626.506 265.455 626.789 268.291 628.113C269.425 628.585 270.748 627.262 273.867 621.874C276.136 618.094 277.932 614.88 278.026 614.785C278.121 614.785 279.633 614.407 281.523 614.029L284.832 613.368L286.533 621.213C288.518 630.476 291.732 635.769 296.174 637.187C299.104 638.226 299.86 637.943 305.059 634.824C308.178 632.933 311.392 630.192 312.054 628.774C313.377 626.317 314.038 626.128 323.585 624.994L333.699 623.859L338.992 627.073C351.28 634.54 357.234 635.202 366.97 630.192C372.547 627.357 374.532 626.789 379.73 626.789C387.386 626.789 388.615 627.546 387.764 631.326C387.103 634.446 388.615 636.242 390.411 634.446C391.923 632.933 399.58 633.217 402.415 634.824C403.738 635.58 407.141 636.242 409.977 636.242C414.136 636.242 416.026 636.809 419.334 639.077C421.603 640.684 423.966 641.913 424.533 641.913C425.195 641.913 426.423 643.142 427.274 644.748C428.219 646.261 430.488 648.718 432.378 650.136L435.686 652.688L440.129 650.987C442.492 650.042 447.029 648.529 450.148 647.489C453.173 646.45 456.481 644.937 457.426 644.087C458.938 642.763 459.317 642.858 461.963 645.126C463.948 646.733 466.028 647.584 468.391 647.584C470.47 647.584 472.549 648.34 473.778 649.474L475.858 651.365L479.544 649.474C481.529 648.435 485.026 647.111 487.2 646.639C492.304 645.41 496.936 641.535 496.936 638.51C496.936 636.998 497.692 635.863 499.204 635.202C501 634.351 501.567 633.217 502.134 629.058C502.796 623.859 502.796 623.765 508.751 622.536C510.547 622.252 512.154 621.024 513.099 619.322C514.422 617.148 515.462 616.581 519.621 616.014C522.362 615.636 525.481 614.691 526.615 613.935C527.655 613.179 529.451 612.611 530.585 612.611C532.759 612.611 533.799 611.005 533.799 607.791C533.799 605.9 533.893 605.9 536.634 607.507C538.525 608.642 540.037 610.91 541.455 614.407C542.589 617.337 544.291 620.929 545.236 622.536C546.181 624.048 547.221 628.113 547.504 631.516C548.166 637.187 548.544 638.037 552.797 642.385C557.429 647.111 560.264 653.066 561.682 661.006C562.249 664.031 562.911 664.692 567.637 666.772C575.86 670.363 576.995 670.552 578.129 668.662C580.586 664.409 580.681 664.314 583.044 665.543C584.273 666.205 587.297 668.662 589.755 670.931C594.197 674.995 594.386 675.089 599.112 674.428C602.515 673.955 606.012 674.333 610.927 675.562L617.922 677.263L620.758 674.522L623.499 671.876L627.374 675.279C631.533 679.154 633.896 679.532 639 677.358C640.891 676.602 642.592 675.94 642.875 675.94C643.065 675.94 643.537 678.587 643.915 681.8C644.86 689.457 646.467 691.82 652.895 694.561C656.392 696.168 660.74 699.476 666.128 704.674C672.271 710.629 676.241 713.559 682.858 716.962C687.867 719.42 692.121 722.255 692.688 723.484C696.847 731.613 700.722 735.677 708.756 740.309C716.885 745.035 717.074 745.129 718.114 749.95C718.775 752.691 720.76 757.417 722.462 760.631C724.919 765.073 726.526 766.774 729.362 768.098C733.804 770.083 737.49 773.674 738.908 777.455C739.854 779.913 740.137 780.102 743.54 779.535C747.415 778.968 751.291 780.196 756.3 783.599C757.907 784.639 760.743 785.773 762.822 786.151C766.036 786.624 767.643 786.151 774.543 782.654L782.482 778.495L785.507 780.196C787.208 781.236 789.571 782.654 790.989 783.41C793.258 784.733 793.541 784.639 796.66 781.614C798.456 779.913 801.386 777.455 803.088 776.132C805.64 774.242 806.396 772.729 807.152 768.665C807.908 764.128 808.854 762.615 814.808 756.188C820.952 749.477 821.897 748.721 825.206 748.721C829.364 748.721 832.956 747.02 836.17 743.617C840.234 739.269 843.07 740.214 853.278 749.194L862.258 757.039L868.118 752.88L873.978 748.626L878.988 751.273C883.336 753.542 885.321 753.92 894.489 754.203L904.981 754.581L906.588 750.706C907.438 748.343 908.1 744.089 908.1 739.931C908.1 732.463 911.503 717.718 914.244 713.087C916.512 709.211 918.781 707.983 924.736 707.415C929.651 706.848 929.84 706.754 929.84 704.013C929.84 702.028 930.785 700.137 932.675 698.152C935.511 695.222 935.511 695.222 933.621 693.426C931.258 691.252 931.163 690.118 933.432 690.118C934.377 690.118 936.173 689.079 937.401 687.755C938.63 686.432 940.332 685.392 941.182 685.392C942.128 685.392 944.869 682.462 947.61 678.492C953.186 670.458 953.659 669.985 958.48 668.284C960.37 667.622 961.977 666.488 961.977 665.921C961.977 665.259 963.3 664.503 964.812 664.125C966.419 663.747 967.648 662.896 967.648 662.14C967.648 661.479 969.066 660.155 970.767 659.305C975.966 656.658 977.951 654.2 979.085 648.813C980.125 644.37 980.03 643.52 978.707 642.196C977.384 640.779 977.478 640.211 980.597 634.446L984 628.207L978.612 617.621C973.036 606.373 971.901 600.607 974.359 595.22C975.399 593.14 975.021 592.384 971.145 587.847C968.877 585.106 966.608 581.514 966.325 579.813C965.947 578.206 964.623 575.748 963.3 574.331C960.464 571.211 960.464 570.266 963.395 566.296C964.718 564.5 965.758 562.326 965.758 561.476C965.758 558.829 960.748 555.899 956.4 555.899C952.997 555.899 952.241 555.521 950.162 552.307C948.838 550.228 947.326 546.352 946.948 543.517C946.475 540.681 945.625 537.184 945.058 535.672C943.356 531.418 938.536 525.274 935.511 523.384C931.825 521.21 931.919 519.036 936.078 510.246C938.158 505.898 939.292 502.117 939.103 500.415C938.819 498.052 938.441 497.769 935.795 498.052C933.243 498.242 932.014 497.485 928.422 493.894C925.964 491.531 922.751 487.561 921.238 485.009C919.726 482.551 917.836 480.188 917.08 479.905C914.622 478.959 910.747 469.98 911.314 466.577C911.975 463.08 911.219 460.433 909.518 460.433C907.344 460.433 905.075 456.936 906.021 455.046C906.588 454.1 907.533 451.548 908.195 449.374C909.234 445.688 909.14 445.026 906.966 440.773C904.792 436.614 904.697 436.047 906.115 435.196C907.344 434.44 907.438 433.968 906.399 432.739C905.264 431.415 905.832 430.848 910.652 428.391L916.229 425.65L917.458 417.71C918.119 413.362 919.537 406.368 920.577 402.209L922.562 394.458L920.671 389.921C918.875 385.762 918.214 385.195 914.527 384.25C911.03 383.399 910.18 382.737 908.289 379.051C906.493 375.554 905.264 374.514 900.255 372.246C897.041 370.828 892.693 367.992 890.614 365.913C887.117 362.605 884.848 361.565 874.356 358.729C872.371 358.257 872.938 352.68 875.49 346.536C878.61 338.88 878.61 335.383 875.301 333.303C872.938 331.696 872.56 331.696 867.74 333.209C864.999 334.059 860.745 334.816 858.288 334.721C855.736 334.626 852.333 334.91 850.632 335.288C848.174 335.761 846.756 335.383 843.732 333.398C840.99 331.507 837.966 330.657 832.673 329.995C824.166 329.05 822.559 328.577 818.778 325.742C817.171 324.607 814.525 323.284 812.918 323C811.217 322.622 809.043 321.299 808.097 320.07C806.49 318.085 806.207 317.991 803.371 319.22C799.401 320.826 795.054 319.409 794.297 316.195C793.352 312.414 791.651 313.265 787.586 319.787C784.373 324.891 782.01 326.214 776.338 326.214C772.936 326.214 771.234 326.97 766.319 330.657C761.877 333.965 760.081 336.044 759.514 338.218C758.852 340.676 758.19 341.337 756.3 341.337C754.788 341.337 753.748 340.676 753.181 339.258C752.425 337.273 752.425 337.273 750.629 339.163C749.684 340.203 748.36 341.81 747.888 342.755C746.186 345.685 741.838 342.755 739.854 337.273C738.908 334.721 737.68 332.169 737.112 331.507C736.545 330.846 733.237 329.995 729.74 329.711C725.392 329.239 722.462 328.388 720.099 326.781C718.208 325.553 715.467 323.946 713.86 323.284C712.254 322.528 710.363 320.448 709.418 318.653C708.567 316.857 706.488 312.509 704.881 309.106C703.274 305.609 699.682 299.937 696.941 296.346L691.932 289.824L684.181 288.028L676.43 286.232L677.092 279.994C677.375 276.591 678.321 273.094 678.982 272.243C680.4 270.731 680.589 266.855 679.549 263.074L678.888 260.9L675.674 263.358C667.545 269.313 649.964 263.642 648.169 254.473C647.507 250.976 641.552 249.558 637.582 251.826C634.841 253.433 634.841 253.339 628.603 249.18C624.917 246.817 621.892 243.887 621.23 242.374C620.285 240.106 618.962 239.35 612.818 237.554C605.823 235.569 605.445 235.285 603.838 231.41C602.704 228.763 600.341 226.022 597.033 223.47C594.197 221.296 590.7 218.272 589.188 216.665C585.974 213.262 581.626 212.695 580.208 215.436Z" fill="black"/>
<circle cx="417" cy="500" fill="#5CE50D"/>
<circle cx="597" cy="328" fill="#E52A0D"/>
<circle cx="46" cy="582" fill="#E52A0D"/>
<circle cx="812" cy="627" fill="#E52A0D"/>
</svg>
