<svg width="1000" height="1000" viewBox="0 0 1000 1000" fill="none" xmlns="http://www.w3.org/2000/svg">
<rect width="1000" height="1000" />
<path d="M155.904 62.3242C155.416 62.5195 153.268 62.9101 151.119 63.3007C146.041 64.1796 142.721 67.5976 142.721 72.0898C142.721 73.9453 141.842 78.1445 140.67 81.4648C138.326 88.2031 138.717 92.7929 141.842 95.6249C147.115 100.41 146.236 105.586 139.693 107.734C137.643 108.418 134.225 110.371 132.174 112.129C130.221 113.789 123.775 117.5 118.014 120.234C110.201 124.043 106.197 126.777 102.193 130.684C99.2637 133.613 96.1387 136.055 95.1621 136.055C92.4277 136.152 89.4004 139.18 86.8613 144.355C84.8105 148.555 84.0293 149.238 78.6582 151.191C67.8184 155.195 64.9863 157.148 63.2285 161.445C60.3965 168.574 61.1777 176.484 65.6699 187.227L69.6738 196.797L68.502 205.293C67.5254 212.617 67.0371 214.082 64.2051 217.109C62.4473 218.965 59.6152 222.676 57.9551 225.41C53.1699 233.125 49.2637 236.348 43.5996 237.129C40.9629 237.519 33.9316 239.473 28.0723 241.621C19.1855 244.648 16.6465 246.113 13.1309 249.531L9.0293 253.73L12.3496 263.008C14.1074 268.086 17.4277 276.191 19.6738 281.074C24.5566 291.426 33.4434 317.012 35.7871 327.461C37.4473 334.59 37.3496 335.469 34.9082 361.445L32.3691 388.008L34.9082 395.918C36.2754 400.215 37.7402 406.172 38.2285 409.199C39.0098 413.984 38.9121 415.156 37.252 417.793C36.1777 419.551 35.2988 422.676 35.2988 424.922C35.2988 428.242 34.8105 429.316 32.1738 431.27C29.5371 433.32 29.0488 434.492 28.6582 439.082C28.0723 445.918 31.7832 463.594 34.5176 467.5C36.4707 470.137 36.4707 470.723 35.3965 478.242C33.541 490.254 33.541 490.254 26.3145 495.918C20.1621 500.703 18.9902 501.289 14.791 501.289H10.1035L5.12305 509.102C2.38867 513.496 0.142578 517.109 0.142578 517.402C0.142578 517.598 8.93164 530.684 19.6738 546.406L39.2051 575.02V582.832C39.3027 593.672 40.377 598.164 43.8926 602.461C46.4316 605.488 47.0176 607.148 47.0176 610.859V615.547L53.9512 619.062L60.9824 622.578L66.9395 620.039C74.0684 617.012 73.9707 617.012 74.6543 619.355C75.1426 621.504 83.4434 622.773 86.4707 621.211C87.7402 620.527 89.8887 620.527 93.3066 621.309C97.8965 622.383 98.5801 622.871 101.51 627.754C103.268 630.586 105.416 633.223 106.393 633.516C107.271 633.711 115.377 635.176 124.361 636.641C140.279 639.18 140.67 639.375 141.646 641.914C142.428 644.258 141.939 645.527 138.717 650.996L134.811 657.441L148.189 674.336C155.514 683.613 162.057 691.719 162.643 692.402C163.229 692.988 186.373 698.652 214.01 704.805C241.646 711.055 265.182 716.523 266.256 717.012C267.33 717.5 276.803 724.141 287.252 731.953C297.701 739.668 306.881 746.406 307.564 746.797C308.346 747.285 330.416 737.129 364.889 720.527L420.943 693.477L677.291 815.645C818.307 882.832 934.127 937.812 934.713 937.812C935.299 937.812 935.494 936.836 935.299 935.566C935.006 934.395 934.615 929.316 934.225 924.336C933.834 917.402 933.932 915.352 934.908 915.352C955.123 914.961 999.557 913.301 999.85 913.008C1000.14 912.715 992.818 773.262 983.639 602.949L967.037 293.281L959.127 283.223L951.314 273.262L951.803 267.402C952.096 264.18 952.389 260.469 952.486 259.102C952.584 257.734 950.631 251.484 948.092 245.234C943.697 234.004 943.6 233.809 944.576 227.266C945.357 221.504 946.529 219.062 952.877 208.613L960.201 196.602L955.709 189.375C951.51 182.539 951.021 181.074 948.287 166.426L945.357 150.898L953.561 142.891C958.15 138.594 962.057 134.199 962.35 133.125C962.838 131.269 959.518 127.461 955.514 125.41C954.146 124.727 953.268 123.262 953.072 121.113C952.779 118.086 952.584 117.988 947.408 117.402C944.479 117.109 940.084 116.133 937.74 115.156C933.834 113.691 932.857 113.691 927.877 114.961C924.752 115.742 917.33 116.523 911.275 116.621C901.998 116.719 900.143 116.523 899.361 115.156C898.873 114.277 897.701 113.594 896.725 113.594C895.748 113.594 891.744 112.422 887.74 110.957C881.393 108.613 878.561 108.32 864.596 107.832C850.924 107.344 848.482 106.953 847.408 105.488C846.725 104.609 844.869 103.828 843.307 103.828C839.4 103.828 838.424 102.949 837.252 98.6523C836.178 94.9413 836.275 94.8437 838.619 95.4296C840.475 95.9179 840.963 95.7226 840.963 94.1601C840.963 93.1835 840.279 91.8163 839.498 91.1328C838.717 90.4492 838.033 88.3984 838.033 86.6406C838.033 82.7343 836.861 82.1484 827.096 80.3906C819.967 79.121 800.143 72.871 798.092 71.2109C797.311 70.6249 793.209 70.1367 788.912 70.039C781.979 69.9413 781.002 69.746 779.439 67.6953C777.975 65.7421 777.389 65.6445 774.459 66.5234C772.604 67.1093 765.67 67.7929 759.029 68.0859L746.822 68.6718L742.232 72.5781C736.471 77.4609 733.834 78.5351 725.24 79.414C721.529 79.8046 716.158 80.7812 713.521 81.5624C705.807 83.7109 688.814 93.3788 681.49 99.7265C677.877 102.852 673.189 106.269 671.139 107.246C668.307 108.516 666.061 110.762 662.643 115.937C660.104 119.746 656.686 124.629 654.928 126.777C649.557 133.418 647.311 138.887 646.822 146.309C646.432 152.754 646.627 153.73 649.947 160.273C651.9 164.082 653.463 168.281 653.463 169.551C653.463 171.016 655.025 173.262 657.857 175.801L662.252 179.707V186.836C662.252 196.992 659.127 205 650.436 216.816C641.842 228.633 634.615 236.152 629.537 238.789C627.389 239.961 620.748 242.5 614.889 244.453C606.49 247.285 603.561 247.871 601.705 247.187C600.338 246.699 596.529 245.82 593.111 245.332C589.107 244.746 585.787 243.574 583.834 242.109C582.076 240.742 579.439 239.375 577.779 238.984C576.217 238.594 572.701 236.445 569.967 234.199C567.33 231.953 562.936 228.633 560.201 226.875C557.564 225.117 553.561 222.09 551.412 220.234C545.65 215.352 536.471 210.273 533.248 210.273C530.514 210.273 526.51 207.344 526.51 205.391C526.51 204.805 525.143 204.414 523.482 204.414C519.088 204.414 509.322 201.68 503.951 198.945C501.314 197.676 497.896 196.602 496.139 196.602C491.744 196.602 481.588 193.867 478.072 191.621C474.361 189.375 466.158 188.203 442.525 186.348C432.564 185.566 422.213 184.492 419.381 183.906C414.01 182.734 401.607 176.68 391.549 170.332L385.396 166.426L380.025 153.047C375.045 140.352 374.752 138.887 374.166 128.73C373.482 114.863 372.311 112.422 365.377 110.859C362.643 110.176 358.053 109.687 355.318 109.687C349.557 109.687 340.377 108.223 334.029 106.172C331.49 105.391 328.17 104.805 326.705 104.805C323.678 104.805 313.424 97.4804 309.713 92.8906C308.248 90.9374 306.49 90.2538 302.193 89.6679C299.068 89.2773 295.064 88.3984 293.111 87.6171C288.521 85.8593 279.146 84.2968 273.287 84.2968C269.576 84.2968 267.232 83.5156 262.74 80.8788C255.318 76.582 252.193 76.4843 236.959 80.6835C226.51 83.5156 223.971 83.8085 213.326 83.6132L201.412 83.5156L181.1 73.164C161.275 63.1054 157.955 61.6406 155.904 62.3242Z" fill="black"/>
<circle cx="250" cy="92" fill="#5CE50D"/>
<circle cx="668" cy="213" fill="#E52A0D"/>
<circle cx="200" cy="470" fill="#E52A0D"/>
<circle cx="894" cy="629" fill="#E52A0D"/>
</svg>
