<svg width="1000" height="1000" viewBox="0 0 1000 1000" fill="none" xmlns="http://www.w3.org/2000/svg">
<g clip-path="url(#clip0_1_2353)">
<rect width="1000" height="1000" />
<path d="M643.555 108.933C641.699 109.422 638.574 111.375 636.719 113.133C632.715 116.941 629.199 118.504 624.219 118.504C622.266 118.601 619.531 119.187 618.164 119.969C616.797 120.75 613.086 121.336 609.766 121.433H603.711L602.539 127.976C600.977 137.644 598.145 146.726 592.285 160.984C589.453 167.918 586.816 175.828 586.426 178.562C586.035 181.199 583.789 187.254 581.445 191.844C579.004 196.726 576.367 204.148 575.098 209.422C572.754 219.48 571.875 221.531 563.184 236.57C559.961 242.137 552.441 255.906 546.387 267.039C533.496 290.867 526.758 299.461 517.09 304.246C513.867 305.906 510.156 307.957 508.789 308.933C507.422 309.91 503.516 311.863 500 313.328C496.484 314.793 492.09 317.43 490.234 319.187C488.379 320.945 485.352 322.801 483.496 323.484C481.641 324.07 478.711 325.633 476.953 327C474.902 328.562 472.461 329.441 470.312 329.441C467.676 329.441 465.234 330.613 460.156 334.324C456.445 336.961 452.832 339.207 452.051 339.207C451.27 339.207 445.898 341.258 439.941 343.699C434.082 346.141 426.953 348.777 424.121 349.461C420.605 350.34 417.09 352.391 412.305 356.199C408.105 359.617 404.59 361.668 403.125 361.668C400.195 361.668 394.629 367.332 391.504 373.582C390.43 375.926 386.914 380.418 383.789 383.641C380.762 386.863 375.391 392.82 371.875 396.824C364.648 405.32 357.227 412.449 346.289 421.238L338.672 427.488L339.16 432.469C339.453 435.105 339.16 439.402 338.574 442.039C337.793 445.359 337.891 447.019 338.672 447.801C340.332 449.461 338.965 462.254 336.719 465.379C335.742 466.844 334.277 469.871 333.496 472.117C332.52 474.754 329.492 478.953 325.391 483.25C316.797 492.137 305.176 506.98 304.199 510.105C303.809 511.473 302.734 513.914 301.758 515.574C300.879 517.234 299.512 520.262 298.828 522.312C298.145 524.363 296.191 528.465 294.434 531.297C291.699 535.789 291.406 537.156 291.797 541.355C292.09 544.187 291.504 548.973 290.527 553.074C288.77 560.105 288.77 566.062 290.625 585.984C291.211 592.527 291.113 593.211 288.184 598.387C286.035 602.098 285.156 604.832 285.352 606.98C285.645 609.812 286.035 610.203 288.77 610.496C291.113 610.691 293.164 612.156 296.973 616.355C302.051 621.922 307.129 631.394 306.25 633.641C306.055 634.324 305.078 639.793 304.199 645.848C301.465 664.305 291.699 683.152 281.25 690.086C276.27 693.406 268.75 704.539 266.797 711.375C265.527 716.062 259.277 724.461 250 734.226C245.898 738.523 240.039 745.359 237.109 749.363C228.027 761.668 224.902 764.012 207.52 771.922C198.926 775.73 189.16 780.906 185.84 783.25C178.125 788.719 161.133 805.711 156.25 812.84C150.586 821.141 145.605 824.266 122.559 834.031C109.18 839.793 97.5586 843.016 83.0078 845.164C79.0039 845.75 71.0938 847.312 65.625 848.582C59.4727 849.949 52.4414 850.926 47.9492 850.926C39.3555 850.926 30.7617 852.293 24.6094 854.539C21.2891 855.809 19.9219 857.078 17.5781 861.277C14.4531 866.648 9.76562 871.336 4.88281 873.875C2.44141 875.144 0 877.976 0 879.539C0 879.734 11.7188 880.223 26.1719 880.516C40.5273 880.906 79.4922 882.566 112.793 884.129C174.219 887.156 378.809 893.211 380.078 892.039C381.836 890.476 382.91 852.684 381.934 827C381.348 812.449 380.859 799.461 380.859 798.094C380.859 795.945 382.227 794.676 388.965 790.281C393.359 787.449 400.488 781.98 404.785 778.172C409.082 774.363 414.551 769.871 416.992 768.211C419.434 766.551 422.168 764.305 423.242 763.23C424.219 762.059 427.246 760.398 430.078 759.519C433.105 758.543 437.305 755.809 440.723 752.879C443.945 750.144 448.828 745.848 451.66 743.309C454.492 740.867 457.812 738.523 459.082 738.133C460.254 737.742 463.379 735.887 465.918 734.031C470.02 731.101 471.68 730.613 478.027 730.125L485.352 729.539L490.234 723.387C493.555 719.187 497.949 715.281 504.004 711.18L512.891 705.223L519.434 707.762C523.535 709.422 527.832 710.301 531.25 710.301C534.18 710.301 540.82 711.375 545.898 712.742L555.176 715.086L558.301 712.156C561.719 708.738 564.453 699.949 564.453 692.234V687.742L567.188 689.207C570.801 691.062 584.473 690.574 588.672 688.426C590.918 687.254 593.164 686.961 596.875 687.449C600.684 687.84 604.492 687.351 611.426 685.496C616.504 684.129 625.488 682.566 631.445 681.98C639.258 681.199 642.578 680.418 644.043 679.148C645.117 678.074 649.316 675.144 653.418 672.605C658.984 669.09 662.598 665.769 667.188 660.008C678.027 646.531 685.352 635.789 687.988 629.637L690.625 623.582L701.953 618.894C708.301 616.355 715.039 613.133 717.188 611.863C720.41 609.91 721.68 609.617 726.074 610.203L731.25 610.789L736.035 605.711C739.648 601.902 742.383 600.047 746.68 598.582C751.953 596.726 752.832 595.945 756.836 589.793L761.328 583.152L777.344 579.832C791.602 576.902 793.75 576.219 796.289 573.68C798.926 571.043 799.121 570.457 798.242 566.551C797.559 563.133 796.973 562.254 794.922 562.058C793.555 561.863 791.113 560.203 789.453 558.25L786.328 554.637L783.105 557.469L779.785 560.203L779.492 557.957C779.199 556.59 779.785 555.125 780.859 554.344C782.422 553.269 782.422 552.586 781.348 547.605L780.078 542.137L783.105 539.012C784.766 537.254 786.133 535.594 786.133 535.203C786.133 534.812 784.375 533.641 782.227 532.566L778.32 530.613V520.555C778.32 510.301 778.613 509.422 782.715 506.004C784.57 504.441 785.254 504.441 790.527 505.711C798.828 507.664 806.055 507.566 810.352 505.32C815.723 502.586 824.023 499.363 830.078 497.703C836.719 495.945 842.48 493.016 845.801 489.891C848.242 487.644 848.34 487.058 847.852 481.199C847.363 475.047 847.461 474.754 850.586 471.531C852.93 469.187 854.883 468.113 858.301 467.625C860.742 467.332 869.824 465.476 878.418 463.523L894.043 460.008L912.109 461.18C922.07 461.766 943.457 462.254 959.766 462.254H989.453L988.77 459.031C988.379 457.371 987.012 453.367 985.645 450.242C983.594 445.75 983.203 443.699 983.691 439.793C984.473 432.957 985.645 431.297 990.234 430.516C993.457 429.93 994.727 429.051 997.07 425.633C998.73 423.289 1000 421.141 1000 420.945C1000 420.652 993.555 416.062 985.645 410.594C966.211 397.312 962.5 393.797 960.938 387.351C960.254 384.324 960.059 380.223 960.449 376.902C961.133 371.824 960.938 371.141 958.398 367.82C956.836 365.769 954.395 362.254 952.93 360.008C951.465 357.762 949.414 355.516 948.34 354.93C945.215 353.172 944.531 342.625 947.168 335.691C948.242 332.664 949.219 328.66 949.219 326.805C949.219 322.996 944.238 313.426 941.797 312.449C940.723 312.058 940.332 310.496 940.43 306.785C940.43 303.953 940.137 298.387 939.844 294.48C939.453 290.281 939.648 284.422 940.43 280.027C941.797 271.141 941.016 267.43 935.352 256.492C933.301 252.488 931.641 248.387 931.641 247.312C931.641 246.238 932.812 243.601 934.277 241.453L936.914 237.449L930.273 231.394L923.633 225.437L926.562 220.555C928.223 217.82 929.883 214.598 930.176 213.23C930.762 210.887 930.273 210.496 924.219 207.957C918.066 205.418 915.527 203.367 912.109 197.703C911.035 196.043 908.594 194.578 904.395 193.308C898.34 191.258 898.145 191.16 896.582 186.375L895.02 181.492L886.328 178.367L877.539 175.242L875.488 177.488C874.219 178.855 871.289 180.223 868.262 180.906C863.574 181.883 862.5 181.687 852.734 178.562C846.973 176.707 841.699 174.754 841.016 174.363C840.332 173.875 839.551 171.824 839.258 169.676C838.965 167.625 837.793 162.742 836.719 159.031C835.547 155.222 834.473 151.512 834.277 150.73C833.984 149.851 832.129 152.488 829.98 156.785C826.855 162.937 825.684 164.402 823.926 164.402C822.559 164.402 820.02 166.16 817.383 168.894L812.988 173.387L803.711 172.801C796.777 172.41 792.383 171.531 786.23 169.285C778.613 166.453 777.93 166.355 775.684 167.82C774.414 168.699 772.949 170.457 772.461 171.824C771.68 173.875 770.898 174.168 767.09 174.168C763.379 174.168 762.695 173.875 762.695 172.215C762.695 170.652 762.012 170.262 759.473 170.262C757.715 170.262 754.59 171.141 752.441 172.215C750.293 173.289 747.754 174.168 746.582 174.168C745.508 174.168 742.188 175.34 739.258 176.805C732.715 179.93 725.391 179.93 712.891 177C699.512 173.777 695.02 172.117 691.895 169.285C690.332 167.82 685.254 164.109 680.664 161.18C671.875 155.515 656.543 141.16 654.688 137.058C650.391 127.293 649.121 117.137 651.758 113.426C652.637 112.254 653.32 110.887 653.32 110.594C653.32 110.008 647.461 107.469 647.07 107.859C646.973 107.859 645.41 108.347 643.555 108.933Z" fill="black"/>
<circle cx="541" cy="289" fill="#5CE50D"/>
<circle cx="872" cy="241" fill="#E52A0D"/>
<circle cx="311" cy="647" fill="#E52A0D"/>
<circle cx="430" cy="500" fill="#E52A0D"/>
</g>
<defs>
<clipPath id="clip0_1_2353">
<rect width="1000" height="1000" />
</clipPath>
</defs>
</svg>
