<svg width="1000" height="1000" viewBox="0 0 1000 1000" fill="none" xmlns="http://www.w3.org/2000/svg">
<rect width="1000" height="1000" />
<path d="M312.305 4.54376C308.398 6.98517 300.684 10.6961 295.215 12.9422C289.453 15.2859 284.082 18.118 282.617 19.6805L280.078 22.3172L278.418 19.5828C276.953 17.0438 276.172 16.7508 271.777 16.7508C262.598 16.7508 260.449 18.0203 252.246 28.4695L244.727 37.9422L236.719 38.5281L228.613 39.2117L215.234 32.1805C207.129 27.9813 201.27 25.4422 200.293 25.8328C199.121 26.3211 198.73 27.8836 198.73 32.8641V39.2117H194.434C191.797 39.2117 189.355 39.8953 187.793 41.0672C185.449 42.9227 185.449 42.9227 178.418 39.6024C174.121 37.6492 168.75 34.0359 164.746 30.4227C158.105 24.4656 156.738 23.6844 156.738 25.7352C156.738 26.4188 156.25 28.6649 155.664 30.618C154.688 34.2313 154.59 34.3289 149.902 34.3289C144.434 34.3289 143.652 35.7938 146.582 40.0906C147.754 41.7508 147.852 42.6297 147.07 43.4109C146.484 43.9969 145.996 47.9031 145.996 52.493V60.5984L140.43 61.282C137.305 61.6727 134.766 61.575 134.57 61.0867C134.375 60.5984 132.422 56.8875 130.078 52.8836C126.367 46.3406 125.586 45.5594 122.754 45.2664L119.629 44.9734V49.7586C119.629 55.2274 117.676 57.7664 113.477 57.7664C110.84 57.7664 110.84 57.8641 110.84 64.6024C110.84 70.8524 111.035 71.4383 112.793 71.4383C113.965 71.4383 115.234 72.4149 115.918 73.8797C117.188 76.7117 118.359 76.907 120.801 74.7586C122.363 73.1961 122.656 73.2938 124.414 75.4422L126.172 77.6883L127.93 74.368L129.59 71.0477L131.543 73.6844C133.301 76.1258 133.984 76.3211 140.137 76.3211C148.633 76.3211 149.609 76.7117 151.953 81.3016C153.027 83.45 154.492 85.1102 155.273 85.1102C157.227 85.1102 165.527 93.2156 165.527 95.0711C165.527 99.7586 167.969 101.028 170.898 97.8055C171.875 96.7313 173.438 95.8524 174.512 95.8524C175.879 95.8524 176.27 96.6336 176.27 99.1727C176.27 102.2 176.758 102.786 181.641 105.618C184.668 107.376 186.914 109.231 186.719 109.915C186.523 110.501 184.473 111.087 182.227 111.282C178.125 111.575 178.125 111.673 179.688 113.43C180.859 114.7 183.398 115.579 187.207 115.97C192.676 116.555 193.164 116.848 194.434 119.876C195.215 121.634 195.801 124.856 195.801 126.907C195.801 133.938 196.973 136.673 202.734 143.216C208.594 149.759 209.277 151.321 207.422 153.177C206.055 154.544 210.84 158.352 213.965 158.352C216.016 158.352 216.309 158.841 216.309 161.77C216.309 164.114 216.895 165.384 218.262 166.165C219.531 166.848 220.215 168.216 220.215 169.973C220.215 171.536 220.898 174.661 221.68 176.907C222.461 179.153 223.145 182.766 223.145 184.817C223.145 188.723 226.074 191.946 230.664 193.118C232.813 193.704 232.91 194.094 232.91 202.395V211.184L236.23 213.137C239.648 215.091 240.137 218.118 237.207 219.29C235.352 219.973 235.449 225.247 237.5 228.469C238.477 229.934 241.699 233.938 244.824 237.454C249.512 242.727 250.488 244.387 250.488 247.317C250.488 250.344 250.098 251.028 247.559 252.102C245.898 252.786 244.336 253.665 244.141 254.153C243.848 254.544 245.313 257.766 247.363 261.184C249.512 264.602 251.563 268.411 251.953 269.583C252.344 270.852 254.102 273.489 255.762 275.442C259.668 279.739 267.578 291.067 268.359 293.411C268.75 294.387 271.191 296.536 273.926 298.196C278.418 300.93 279.004 301.809 280.762 307.571C282.031 311.477 283.594 314.505 285.156 315.774C287.305 317.434 287.598 318.411 287.598 323.977C287.598 331.106 287.891 331.399 297.852 333.255C301.855 333.938 303.418 334.915 306.348 338.235C309.57 341.946 309.961 343.02 310.059 347.61C310.059 350.442 310.547 353.665 311.133 354.739C311.621 355.813 312.207 359.427 312.305 362.844C312.5 367.923 312.988 369.485 315.234 372.122C316.699 373.88 317.871 375.735 317.871 376.223C317.871 376.712 319.531 379.348 321.484 382.083C326.172 388.235 337.402 396.145 342.969 397.122C345.215 397.415 347.461 398.294 347.949 398.88C349.805 401.223 350.684 406.009 350 409.719C349.414 413.333 349.707 413.919 353.809 418.313C357.129 421.927 358.594 424.466 359.961 429.544C361.035 433.157 361.816 437.454 361.816 438.919C361.816 440.969 362.988 442.923 365.723 445.657C368.457 448.391 369.629 450.442 369.629 452.395C369.629 454.641 370.313 455.52 373.34 457.083C379.004 460.012 390.918 471.048 391.016 473.489C391.113 475.149 392.578 476.126 399.512 478.567C404.102 480.227 408.594 481.594 409.57 481.594C413.672 481.594 429.102 510.11 431.445 522.122C432.324 526.223 432.617 530.911 432.227 533.841C431.25 541.262 435.645 555.813 440.332 560.598C443.652 564.016 443.848 564.602 443.848 570.462C443.75 576.321 444.238 577.688 449.805 588.528C454.59 597.903 455.957 601.516 456.445 606.594C456.836 610.11 457.91 614.407 458.887 616.262C460.547 619.387 460.547 619.68 458.594 625.149C457.422 628.274 456.543 633.059 456.543 636.087C456.543 639.212 455.566 644.387 454.102 648.587L451.66 655.813L454.98 659.231C460.449 665.091 462.207 673.977 458.496 677.395C457.129 678.665 456.543 680.423 456.543 683.548C456.543 686.966 455.859 688.821 453.223 692.434C446.777 701.321 445.41 706.106 447.949 711.477C448.828 713.43 448.633 715.286 447.266 720.364C445.508 727.102 445.801 726.907 437.012 727.981C436.133 728.079 435.156 730.325 434.277 734.036C433.594 737.259 432.422 740.188 431.641 740.677C430.566 741.262 430.762 742.63 432.715 748.391C435.254 755.911 435.84 767.239 434.082 773.587C433.594 775.442 430.762 781.204 427.93 786.282C423.145 794.68 422.754 795.852 423.438 799.466C423.926 801.614 424.219 805.813 424.316 808.645C424.316 811.673 425.488 817.727 426.953 822.317C429.492 830.227 429.59 831.692 429.492 847.805C429.395 857.18 429.199 867.923 429.004 871.731C428.809 878.274 429.004 879.055 433.984 889.309L439.16 900.052L438.574 918.118C438.184 928.079 437.402 937.356 436.816 938.821C435.938 941.262 435.254 941.555 431.25 941.555C427.832 941.555 425.977 942.239 423.535 944.29C420.313 946.927 420.313 947.024 421.387 951.614C422.656 956.594 428.613 963.04 431.934 963.04C435.449 963.04 437.793 967.141 439.941 976.712C443.066 991.36 444.043 993.606 448.047 997.219C451.27 1000.05 451.953 1000.25 453.223 999.075C454.004 998.294 455.469 994.68 456.543 990.969C458.984 982.18 462.402 976.614 466.699 974.368C470.215 972.512 470.508 972.512 480.273 974.173C486.328 975.247 492.383 977.005 495.703 978.665C501.074 981.399 501.172 981.399 508.008 980.13C520.02 977.884 522.656 976.712 524.023 973.587C524.902 971.341 524.902 970.071 523.535 966.458C522.559 964.016 521.387 961.868 520.898 961.575C519.238 960.501 520.02 958.157 521.973 958.157C523.047 958.157 525.293 956.887 527.051 955.325C530.078 952.591 530.176 952.395 528.516 950.637C527.246 949.075 526.855 946.927 526.855 940.286C526.855 935.012 526.465 931.79 525.879 931.79C523.828 931.79 520.02 926.614 520.02 923.977C520.02 920.755 524.414 912.552 526.855 911.282C527.832 910.696 529.883 910.305 531.445 910.305C535.645 910.305 536.328 909.329 537.109 902.493C538.086 893.606 539.16 892.727 548.34 892.727C555.469 892.727 555.859 892.63 558.887 889.505C561.621 886.77 562.012 885.598 562.012 881.204C562.012 876.516 562.207 876.126 564.355 876.126C566.797 876.126 578.32 868.216 579.199 865.969C579.59 864.993 576.758 843.899 575.098 835.989C574.707 833.841 575.195 833.255 579.297 831.399C582.91 829.739 623.145 815.579 624.121 815.579C624.316 815.579 625.098 814.895 625.879 814.016C628.027 811.868 627.832 806.399 625.098 797.415C621.484 785.208 621.191 782.669 623.34 781.985C628.711 780.227 640.137 762.259 640.137 755.52C640.137 751.809 639.551 750.93 630.371 741.848L620.605 732.083V727.005C620.605 724.173 621.094 720.852 621.68 719.583C622.461 717.825 622.363 715.188 621.191 708.938C619.531 700.149 616.699 679.739 616.699 676.712C616.699 675.735 620.117 671.341 624.219 666.848C632.031 658.45 639.844 653.274 646.68 652.005C648.731 651.712 655.176 648.782 660.938 645.559C666.699 642.434 672.656 639.798 674.121 639.798C675.586 639.798 678.027 640.774 679.492 642.044L682.227 644.192L682.324 661.77C682.422 678.567 682.324 679.544 680.176 683.157C677.246 687.942 675.977 695.169 677.93 695.95C681.445 697.219 683.887 696.243 688.477 691.555C692.09 687.942 694.336 686.477 696.973 685.989L700.684 685.403V677.786C700.684 668.118 702.637 662.747 706.641 661.38C709.277 660.501 709.473 660.598 710.059 663.04C710.352 664.505 712.012 668.606 713.672 672.219C716.309 678.177 716.895 678.86 719.336 678.86C721.973 678.86 722.168 678.567 722.168 674.954C722.168 671.341 722.852 670.462 730.566 662.747C735.254 658.157 739.453 654.446 739.941 654.446C740.527 654.446 742.09 655.13 743.555 656.009C745.996 657.473 746.191 657.962 745.606 661.966C744.629 668.118 745.898 673.977 748.633 676.028C750 677.102 753.125 677.884 756.152 678.079L761.328 678.372L763.086 683.352C765.723 691.36 767.383 693.118 773.047 694.485L778.027 695.755L781.445 692.337C784.277 689.505 784.766 688.235 784.961 684.134C785.059 681.497 784.766 678.665 784.375 677.884C783.789 676.712 784.961 676.028 789.551 674.661C795.996 672.805 795.898 672.903 796.875 665.774L797.559 660.989L809.18 672.61L820.801 684.231L818.848 690.481C817.773 693.997 817.09 696.829 817.188 696.927C817.285 696.927 819.043 697.708 821.094 698.684C827.734 701.712 830.371 701.028 836.231 694.876L841.406 689.309L861.914 688.821L882.422 688.333L885.84 683.352C887.695 680.618 889.16 677.786 889.16 677.102C889.16 675.54 886.133 674.368 879.59 673.489C876.074 673.001 874.023 672.219 873.242 670.95C872.559 669.876 870.996 669.094 869.531 669.094C868.066 669.094 865.43 668.411 863.477 667.63C859.277 665.872 858.203 662.649 860.938 659.719C863.281 657.18 862.793 655.618 858.398 652.591L854.883 650.247L852.539 652.493L850.098 654.837L847.363 652.2C845.898 650.735 843.359 649.173 841.699 648.587C839.648 647.805 838.086 646.243 836.621 643.118C835.449 640.774 834.473 638.137 834.473 637.356C834.473 634.817 841.504 630.032 846.387 629.446C852.051 628.665 852.148 628.177 848.731 614.016C846.387 604.348 846.387 604.348 848.242 600.052C849.707 596.536 850.098 593.313 850.098 583.743C850.098 573.098 849.707 570.364 846.68 559.231C844.727 552.298 842.773 546.145 842.188 545.364C840.625 543.606 837.695 543.802 837.012 545.755C836.523 547.024 835.742 546.243 834.082 542.532C832.813 539.895 830.176 536.575 828.32 535.11C825.098 532.669 824.023 532.376 816.699 532.376C812.207 532.376 806.445 531.79 803.711 531.106C798.926 529.934 798.731 529.739 795.41 522.805C792.188 516.165 791.895 515.774 788.672 515.774C783.496 515.774 777.734 513.821 772.656 510.208C769.824 508.157 766.309 506.692 763.477 506.302L758.984 505.716L759.57 498.587C760.254 491.067 763.281 481.692 766.211 477.786C767.676 475.93 768.066 473.782 768.066 467.239V459.036L764.648 457.571C758.984 455.227 755.762 455.716 752.734 459.622C751.27 461.477 749.609 463.04 749.023 462.942C747.949 462.942 739.746 451.809 739.746 450.442C739.746 449.368 748.047 445.852 752.734 444.973C759.57 443.704 761.133 435.794 756.836 425.149C754.492 419.29 753.613 411.087 755.176 408.645C755.566 408.059 757.129 407.18 758.594 406.887C762.012 406.009 763.184 403.762 763.184 398.391C763.086 394.485 760.938 382.278 760.156 381.594C754.199 376.614 750.879 375.149 745.606 375.149H739.941L738.281 382.18C736.133 391.262 734.57 392.727 726.66 392.727H720.703L717.09 387.063C713.574 381.692 713.379 380.911 713.379 373.391C713.379 365.579 713.379 365.384 710.449 363.919C708.887 363.137 706.152 362.454 704.297 362.454C701.074 362.454 700.879 362.161 699.805 358.157C699.219 355.716 698.731 352.884 698.731 351.907C698.731 350.54 697.461 349.466 694.824 348.391C692.676 347.512 690.43 346.829 689.746 346.829C688.184 346.829 686.133 343.704 686.035 341.165C686.035 338.43 682.422 338.235 679.102 340.774C677.832 341.848 675.684 342.923 674.316 343.216C672.266 343.704 671.582 343.313 670.117 340.872C669.238 339.212 668.457 335.989 668.457 333.743C668.457 330.032 667.773 328.86 663.184 323.684C658.301 318.411 657.813 317.337 657.227 312.063L656.641 306.302L664.453 297.903C668.652 293.313 672.949 287.844 673.828 285.696C676.465 279.739 677.539 265.481 675.781 261.184C675 259.231 674.316 255.911 674.316 253.665C674.316 250.344 674.902 248.977 677.344 246.634C680.469 243.704 684.082 237.552 684.082 235.208C684.082 233.059 681.152 231.009 675.586 229.153C670.606 227.591 670.41 227.395 670.41 224.075C670.41 221.243 671.68 218.997 677.246 211.966C686.328 200.442 686.231 199.075 676.563 195.95C670.41 193.997 668.555 191.458 667.481 183.743C666.504 177.102 664.746 173.294 659.961 168.02C656.641 164.407 656.25 164.212 650.488 164.212C647.266 164.212 643.555 164.505 642.285 164.798C640.137 165.384 640.039 165.774 640.625 171.438C641.113 176.907 641.016 177.493 638.867 179.055C637.5 180.032 633.594 180.911 628.809 181.302L621.094 181.888L608.008 166.165C595.215 150.833 595.02 150.442 594.336 144.68C593.848 140.872 592.871 138.04 591.602 136.673C590.527 135.403 589.355 132.669 588.965 130.52C587.402 121.048 587.598 121.438 582.813 120.657C580.371 120.266 576.563 118.997 574.316 117.727C571.191 115.97 568.848 115.384 563.77 115.384C558.203 115.384 556.836 114.993 554.297 112.845C550.098 109.329 541.504 107.278 534.668 108.059C530.273 108.548 527.637 109.817 519.629 115.091L509.961 121.438L510.547 129.055C511.328 138.43 510.156 139.309 504.785 133.841L500.977 129.934L501.27 117.727L501.563 105.618H498.926C494.629 105.618 490.039 109.134 488.574 113.528C487.598 116.458 486.426 117.923 484.18 118.802C481.152 120.071 480.957 119.973 478.516 116.751C476.074 113.528 476.074 113.43 477.637 110.305C478.516 108.548 481.641 104.446 484.57 101.223C490.137 95.0711 490.43 93.6063 487.793 86.6727C486.523 83.2547 480.273 81.7899 475.098 83.6453C472.852 84.4266 470.215 85.1102 469.238 85.1102C468.262 85.1102 465.137 86.6727 462.305 88.5281C458.203 91.3602 456.641 91.9461 454.199 91.3602C448.828 90.2859 447.754 89.2117 447.754 85.3055C447.754 80.618 446.973 79.7391 442.969 78.8602C440.039 78.3719 439.258 78.6649 436.914 81.2039C434.668 83.5477 433.398 84.1336 430.078 84.1336H426.074L426.66 80.4227C429.883 59.6219 428.418 57.5711 409.57 56.2039L399.414 55.5203L393.359 50.0516C389.941 47.0242 386.816 43.3133 386.23 41.8484C384.863 37.8445 380.859 33.45 375.781 30.2274C373.34 28.6649 368.066 24.075 364.063 19.9734L356.738 12.6492L351.758 13.2352C348.926 13.6258 343.848 14.7977 340.527 15.8719L334.277 17.9227L326.953 14.2117L319.629 10.4031L320.215 5.22736C320.508 2.49298 320.508 0.149231 320.117 0.246887C319.629 0.246887 316.211 2.20001 312.305 4.54376Z" fill="black"/>
<circle cx="604" cy="470" fill="#5CE50D"/>
<circle cx="386" cy="239" fill="#E52A0D"/>
<circle cx="500" cy="846" fill="#E52A0D"/>
<circle cx="766" cy="592" fill="#E52A0D"/>
</svg>
