<svg width="1000" height="1000" viewBox="0 0 1000 1000" fill="none" xmlns="http://www.w3.org/2000/svg">
<g clip-path="url(#clip0_1_2362)">
<rect width="1000" height="1000" />
<path d="M327.414 1.30951C326.047 2.09076 324.289 2.6767 323.41 2.77435C321.262 2.77435 317.941 6.6806 317.062 10.0986C316.184 14.0048 314.23 16.0556 311.008 16.7392C305.734 17.8134 293.527 24.2587 291.867 26.7001C290.305 29.1415 290.305 29.5322 291.867 34.3173C292.746 37.1494 293.918 40.1767 294.406 41.1533C295.285 42.9111 295.48 42.9111 297.238 41.2509C298.215 40.372 299.094 38.4189 299.094 37.0517C299.094 35.6845 299.484 33.829 300.07 33.0478C300.852 31.8759 301.34 31.8759 304.27 33.2431C307.59 34.8056 307.688 35.0986 308.371 41.7392C308.762 45.5478 308.762 50.8212 308.371 53.4579C307.688 58.7314 308.566 59.7079 314.328 59.2197C318.43 59.0244 323.117 61.7587 323.996 64.9814L324.68 67.7158L326.34 65.4697C327.902 63.3212 328.098 63.3212 329.562 64.9814C330.441 65.9579 333.176 70.6454 335.812 75.4306C340.305 83.829 340.5 84.5126 340.793 93.204C340.988 98.1845 341.574 103.458 342.062 104.825C342.648 106.29 343.039 108.341 343.039 109.513C343.039 111.075 344.406 112.442 347.824 114.298C352.023 116.544 352.609 117.423 353.098 120.645C353.391 122.696 354.758 127.579 356.125 131.583C359.934 142.325 359.836 142.423 352.316 142.423C347.922 142.423 344.699 143.009 342.258 144.278C338.84 146.036 338.449 146.72 335.812 155.802C334.25 161.075 332.59 167.227 332.004 169.474C330.832 174.454 327.609 175.626 322.238 173.087C319.113 171.622 318.82 171.134 319.309 168.204C320.188 162.833 318.137 159.317 312.863 157.462C307.395 155.411 303.977 152.481 303.977 149.845C303.977 148.673 305.148 145.352 306.516 142.423C309.445 136.173 309.152 129.727 305.832 129.727C304.855 129.727 300.852 126.407 296.945 122.306L289.816 114.884L280.539 115.274C273.117 115.567 269.895 116.153 264.426 118.399C260.715 119.962 257.492 121.329 257.297 121.427C257.199 121.524 257.785 123.477 258.566 125.821C259.348 128.067 260.031 130.118 260.031 130.216C260.031 130.997 234.25 144.962 218.527 152.677C213.645 155.118 208.762 158.829 201.438 165.665L191.281 175.333L196.848 181.681C199.875 185.196 202.414 188.321 202.414 188.712C202.414 189.005 197.727 192.813 191.965 197.11L181.516 204.825L179.27 214.395C178.098 219.669 177.121 225.235 177.023 226.7C177.023 228.165 176.145 231.192 175.07 233.341L173.02 237.149L174.973 260.88C176.047 273.868 177.219 288.224 177.609 292.813L178.195 301.114L171.359 303.263C165.207 305.313 162.57 305.509 145.578 305.509H126.633L120.188 310.88C115.207 315.177 113.645 317.032 113.254 319.669C112.961 321.524 111.398 324.649 109.836 326.7C106.027 331.681 102.609 344.571 101.828 356.778C101.242 366.349 101.34 366.739 104.367 372.891C106.027 376.407 107.688 380.997 108.078 383.145C108.469 385.294 108.957 388.224 109.25 389.688C109.641 391.739 109.25 392.52 106.809 393.985C104.367 395.45 103.977 396.134 104.465 398.38C105.344 402.774 104.074 406.095 101.633 406.095C100.461 406.095 98.2148 407.266 96.75 408.731C94.6016 410.782 94.0156 412.247 94.0156 415.665C94.0156 418.009 94.5039 420.743 94.9922 421.817C95.8711 423.282 95.5781 424.356 93.5273 426.993C91.1836 430.118 91.0859 430.509 92.2578 435.294C93.1367 439.2 93.1367 441.153 92.2578 443.399C91.2812 445.938 91.4766 447.11 93.0391 450.821C94.1133 453.165 94.9922 456.388 94.9922 457.852C94.9922 462.54 97.7266 467.52 101.828 470.059C104.172 471.524 105.734 473.282 105.734 474.356C105.734 476.309 110.031 480.313 112.082 480.313C112.668 480.313 114.035 481.29 115.109 482.364C117.941 485.489 124.777 488.126 130.344 488.126C134.934 488.126 135.227 488.224 134.641 490.274C134.348 491.544 134.055 494.181 134.055 496.134C134.055 498.966 133.273 500.724 130.637 503.653C128.293 506.29 127.219 508.341 127.219 510.489C127.219 513.809 130.539 521.329 132.102 521.329C133.566 521.329 137.668 527.481 138.449 530.802C139.035 533.829 138.938 534.024 136.496 534.024C132.395 534.024 119.797 541.446 118.527 544.571C117.062 547.989 119.406 554.141 124.777 561.075C128.781 566.251 129.465 571.622 126.34 572.599C124.094 573.282 119.406 572.208 119.406 571.036C119.406 569.278 113.059 566.251 109.445 566.251C106.32 566.251 104.758 567.325 96.457 574.747L87.082 583.341L87.5703 587.931C88.1562 593.692 86.1055 603.946 83.3711 608.927C82.1992 610.977 80.2461 616.056 78.9766 620.157L76.6328 627.677L83.7617 632.364C89.7188 636.27 91.8672 638.516 97.043 646.231C103.977 656.29 113.352 664.688 115.402 662.638C117.16 660.88 116.672 659.415 113.254 656.876C111.496 655.509 109.445 653.263 108.664 651.798C107.492 649.454 107.492 648.77 109.152 645.743C110.617 643.106 111.301 642.52 112.961 643.009C114.133 643.399 115.598 644.474 116.281 645.45C117.844 647.794 125.363 648.868 129.172 647.306C131.809 646.231 132.395 646.427 138.254 650.626C141.77 653.067 145.48 655.118 146.555 655.118C147.727 655.118 148.898 655.606 149.191 656.095C149.875 657.169 153.977 656.778 161.008 655.02C163.645 654.337 165.891 652.872 167.16 651.114C168.332 649.552 170.09 648.282 171.164 648.282C172.141 648.282 173.312 647.794 173.605 647.306C173.996 646.72 175.949 645.157 178.098 643.79C180.93 642.032 181.906 640.763 181.906 638.907C181.906 637.638 182.785 634.806 183.859 632.755L185.715 629.044L183.273 627.872C181.906 627.286 179.758 626.798 178.488 626.798C176.34 626.798 173.117 624.552 173.117 622.989C173.117 621.427 179.758 616.056 181.711 616.056C183.078 616.056 184.348 615.177 185.031 613.614C185.617 612.247 186.887 611.173 187.961 611.173C189.523 611.173 189.719 611.954 189.719 617.325C189.719 625.138 191.184 627.188 197.629 628.751C201.828 629.727 203.098 629.727 206.125 628.458C208.078 627.579 212.082 626.7 214.914 626.309C220.48 625.724 222.043 626.895 220.09 630.411C219.406 631.681 219.406 634.61 220.09 639.493C220.871 644.669 220.773 647.306 219.992 649.356C219.016 651.602 219.113 652.97 220.383 656.681C222.141 661.856 222.336 663.907 221.066 663.907C220.676 663.907 219.211 660.294 218.039 655.997C214.426 643.302 207.297 635.977 197.043 634.122C194.895 633.731 192.355 632.657 191.379 631.778C189.719 630.313 189.426 630.411 188.156 632.169C187.375 633.145 186.789 634.806 186.789 635.782C186.789 636.759 186.105 638.614 185.324 639.786C184.152 641.739 184.055 642.618 185.324 646.524C186.008 648.966 186.398 651.212 186.105 651.505C185.91 651.798 188.352 656.192 191.574 661.368C197.434 670.548 198.41 672.696 196.555 672.696C196.066 672.696 195.383 674.259 194.992 676.114C194.699 677.97 194.211 679.532 194.016 679.532C193.723 679.532 191.867 678.458 189.719 677.091C187.57 675.724 184.738 674.649 183.371 674.649C179.953 674.649 169.602 670.548 163.84 666.934C158.469 663.516 153.781 661.954 148.898 661.954C147.141 661.954 144.406 660.977 142.844 659.806C140.109 657.852 139.621 657.755 134.543 659.024C128.586 660.489 127.512 661.27 126.242 665.665C125.559 668.302 125.656 668.692 127.512 668.985C128.781 669.181 129.758 670.255 130.148 671.72C130.441 673.184 132.004 674.845 134.055 675.821C137.375 677.481 138.742 680.411 136.789 681.583C136.105 681.974 137.082 683.438 139.328 685.391C141.281 687.149 142.844 688.907 142.844 689.395C142.844 692.423 151.242 697.403 158.371 698.575C161.984 699.161 162.375 699.063 162.375 697.208C162.375 694.278 165.988 694.571 167.453 697.599C168.82 700.724 169.309 700.724 172.043 697.013C173.996 694.376 174.191 693.595 173.215 691.446C172.531 690.079 172.434 688.712 172.824 688.224C173.215 687.833 176.34 687.345 179.66 687.149L185.617 686.856L186.887 690.567C187.57 692.618 189.035 695.059 190.207 696.036C194.113 698.966 194.602 705.02 190.891 703.067C188.156 701.7 187.18 702.774 187.57 706.876C187.961 710.294 188.254 710.684 190.988 710.977C193.527 711.173 194.309 711.856 195.188 714.493C195.676 716.153 196.652 718.106 197.336 718.79C198.215 719.669 198.02 720.157 196.848 721.036C195.48 722.11 195.48 722.501 196.945 725.626C197.824 727.481 199.875 730.313 201.438 731.778C203.098 733.341 204.367 735.196 204.367 735.88C204.367 736.563 205.246 737.149 206.223 737.149C207.297 737.149 209.348 738.809 210.91 740.763C212.375 742.813 215.012 745.841 216.574 747.403C218.234 749.063 220.676 751.895 222.141 753.653C225.656 757.852 228.195 757.462 228.586 752.481C228.977 748.282 229.855 747.891 232.102 751.309C234.152 754.337 235.422 754.434 236.594 751.407C237.863 747.989 239.23 747.501 242.16 749.356C244.211 750.723 245.969 750.919 251.438 750.333C255.246 750.04 258.664 750.138 259.348 750.626C260.031 751.114 262.473 751.798 264.816 752.091C267.551 752.384 269.992 753.458 271.555 755.02C274.191 757.657 276.633 766.348 276.633 773.087C276.633 775.919 277.316 778.263 278.586 779.825C279.66 781.192 280.539 783.243 280.539 784.22C280.539 786.759 288.742 794.473 293.918 796.72C296.164 797.696 298.703 799.649 299.68 801.016C300.559 802.384 302.023 803.556 303 803.556C305.539 803.556 307.395 806.29 307.004 809.61C306.809 812.052 307.59 813.321 311.984 817.423C314.816 820.059 318.43 822.891 319.895 823.673C322.336 825.04 322.922 825.04 324.973 823.673C327.121 822.306 327.219 822.306 327.805 825.235C328.098 826.895 328.391 829.141 328.391 830.313C328.391 831.485 328.977 833.341 329.758 834.317C330.93 835.977 331.418 836.075 333.762 835.001C335.617 834.122 336.691 834.024 337.082 834.708C337.863 835.88 343.234 836.173 347.922 835.294C350.852 834.806 351.535 835.001 352.707 836.954C353.488 838.223 354.367 840.47 354.758 842.13C355.148 844.083 356.516 845.841 358.957 847.403C363.84 850.626 366.965 857.071 365.402 860.587C364.523 862.442 363.449 863.126 361.398 863.126C359.934 863.126 358.664 863.614 358.664 864.102C358.664 865.958 372.824 879.434 376.926 881.485C382.297 884.317 387.961 891.251 387.961 895.157C387.961 896.817 388.547 898.575 389.23 898.966C391.281 900.235 391.77 902.579 390.305 904.63C389.328 905.997 389.23 906.778 390.109 907.755C390.988 908.829 390.988 910.001 390.012 912.54C389.23 914.688 389.035 917.716 389.426 920.743C389.914 924.649 389.816 925.626 388.352 926.407C385.52 927.97 387.277 933.536 391.867 937.247C396.457 940.86 396.652 941.934 393.234 942.813L390.695 943.497L395.48 948.282C398.02 950.919 403 954.727 406.516 956.681C410.031 958.634 416.379 962.54 420.676 965.372C425.266 968.399 428.684 970.059 429.074 969.473C429.465 968.79 434.934 970.157 444.602 973.184L459.445 977.872L470.676 988.809C483.957 1001.9 486.594 1002.87 486.594 995.059C486.594 992.423 487.277 988.516 488.059 986.173C489.328 982.462 489.328 981.876 487.766 979.825C486.887 978.556 484.445 976.7 482.297 975.723C472.531 971.329 471.359 967.716 478.879 965.079C481.613 964.005 484.152 962.638 484.445 961.954C485.227 959.903 482.492 955.802 478.586 953.263C474.191 950.235 473.605 948.868 474.973 944.181C476.047 940.763 476.535 940.372 480.148 939.786C488.645 938.419 491.477 937.345 491.477 935.391C491.477 934.317 490.598 932.657 489.426 931.583C487.57 929.825 487.473 929.337 488.547 926.114C489.816 922.403 489.621 918.595 487.57 906.583C485.812 896.329 487.766 877.872 491.281 871.427C492.453 869.278 493.43 867.325 493.43 867.032C493.43 864.688 478.684 859.708 477.023 861.368C476.047 862.345 473.605 860.782 463.742 852.384C458.566 847.989 455.93 846.524 453.098 846.524C451.438 846.524 450.363 845.548 449.191 843.106C448.02 840.665 446.945 839.688 445.383 839.688C444.113 839.688 442.648 838.907 441.965 837.833C441.379 836.856 439.523 835.782 437.961 835.489C436.203 835.098 434.738 834.122 434.348 832.95C434.055 831.876 432.199 829.532 430.344 827.774C428.391 826.016 426.242 823.38 425.461 821.915C424.68 820.352 423.41 819.181 422.727 819.181C421.066 819.181 418.918 815.958 417.258 810.88C416.574 808.731 415.5 806.681 414.816 806.29C414.133 805.802 413.059 803.36 412.375 800.723C411.789 798.087 410.422 795.157 409.445 794.278C407.688 792.716 407.688 792.618 409.738 790.567L411.789 788.516L408.859 787.638C407.297 787.052 404.855 785.88 403.391 784.903C402.023 783.829 399.973 783.048 398.996 783.048C397.922 783.048 396.262 782.169 395.285 781.095C393.332 778.946 388.938 778.556 385.812 780.216C383.078 781.681 375.266 780.509 375.266 778.556C375.266 777.774 375.949 776.895 376.73 776.602C378.879 775.723 378.488 773.77 375.852 772.403C374.484 771.622 373.117 769.571 372.336 767.227C371.359 763.809 371.457 762.638 372.922 759.415C374.484 755.997 374.484 755.606 373.02 753.946C372.043 752.97 371.359 751.016 371.359 749.747C371.359 748.087 369.406 745.352 365.012 741.056C359.641 735.782 358.957 734.61 360.422 734.122C363.645 732.95 367.453 734.317 369.016 737.345C369.797 738.907 371.359 740.47 372.434 740.958C373.605 741.349 376.34 744.669 378.586 748.477C381.32 753.067 383.273 755.313 384.738 755.509C386.594 755.802 386.789 756.29 386.301 758.731C385.324 763.516 389.133 762.442 393.234 756.681C396.652 751.895 399.387 750.919 398.41 754.825C398.117 755.997 398.41 756.681 399.289 756.681C400.07 756.681 401.633 758.731 402.707 761.27L404.758 765.958L406.613 762.247C408.273 759.122 408.957 758.634 412.082 758.634C414.035 758.634 416.477 757.852 417.453 756.973C419.113 755.509 419.504 755.509 422.727 756.973C424.582 757.95 427.121 758.438 428.391 758.048C429.66 757.755 431.027 757.95 431.32 758.536C431.711 759.122 433.859 759.61 436.105 759.61C439.035 759.61 441.672 760.587 445.48 763.028C450.363 766.153 451.145 766.348 456.32 765.763C461.984 765.177 466.281 766.544 468.918 769.766C470.578 771.817 471.945 771.72 471.945 769.766C471.945 768.888 473.508 765.958 475.363 763.419C479.27 757.852 479.27 758.048 477.219 757.266C476.34 756.876 474.289 757.852 472.141 759.61L468.527 762.54L467.941 759.415C467.648 757.657 467.062 755.02 466.672 753.653C466.184 751.798 466.477 750.626 467.648 749.356C469.309 747.794 469.406 747.794 470.676 749.454C471.359 750.431 471.75 751.798 471.555 752.384C471.262 753.067 472.727 754.239 474.973 755.118C478.488 756.485 479.074 756.485 482.199 755.02C484.445 753.946 485.617 752.677 485.617 751.407C485.715 750.235 486.301 748.282 487.082 746.915C487.863 745.548 488.449 742.813 488.547 740.763C488.547 737.442 488.742 737.149 491.281 737.149C493.723 737.149 494.406 736.368 496.75 731.388C498.996 726.798 500.266 725.333 503.293 724.063C507.492 722.208 507.688 721.427 505.93 713.809C504.953 709.513 505.051 708.634 506.516 706.974C507.395 705.997 508.664 703.458 509.152 701.407C510.52 696.524 517.258 689.493 521.359 688.712C527.902 687.54 534.543 678.556 539.816 663.712C541.086 660.099 542.355 658.536 546.262 656.095C549.777 653.751 551.047 652.384 551.047 650.626C551.047 649.259 552.023 647.696 553.391 646.817C555.051 645.743 556.027 643.888 556.418 641.153C556.906 638.321 558.957 634.61 562.863 629.337C567.941 622.403 568.625 621.036 568.625 616.934V612.345L576.926 607.657C581.418 605.118 586.496 601.7 588.059 600.04C591.281 596.72 591.574 594.962 590.5 583.731C589.719 575.528 590.891 573.087 601.926 559.415C606.418 553.751 610.812 548.184 611.691 547.013C612.668 545.645 614.426 544.766 616.965 544.571C620.383 544.278 620.969 543.79 623.215 539.493C624.875 536.466 627.805 533.048 631.418 530.313C636.398 526.407 637.277 526.016 639.426 526.993C640.695 527.579 642.551 529.532 643.43 531.29C644.309 533.048 646.555 536.075 648.41 538.028C651.73 541.544 651.73 541.641 650.559 545.548C649.387 549.454 649.484 549.649 654.953 558.634C657.98 563.712 660.422 568.399 660.422 569.278C660.422 570.255 658.762 571.231 655.539 572.013C651.73 572.989 650.559 573.77 650.07 575.626C649.68 576.895 649.973 578.653 650.656 579.434C651.535 580.509 651.535 581.583 650.754 583.927C648.703 589.688 649.484 598.477 652.609 607.266C656.516 617.813 656.906 618.595 660.52 620.645C662.18 621.622 664.816 624.552 666.379 627.091C668.82 631.095 670.383 632.266 676.633 635.196C680.637 637.052 684.445 638.516 685.129 638.516C685.812 638.516 688.156 636.27 690.5 633.634C694.406 629.141 695.09 628.751 698.996 628.751C702.707 628.751 703.586 628.36 705.051 626.016C705.93 624.552 706.809 623.184 707.004 622.989C707.102 622.794 708.957 623.77 711.105 625.138C714.719 627.579 715.012 627.579 716.477 625.919C717.355 624.942 718.039 623.38 718.039 622.306C718.039 618.302 719.211 616.056 721.262 616.056C722.434 616.056 724.777 614.688 726.535 612.931C729.562 610.001 729.855 609.903 733.371 610.977C735.422 611.563 742.062 612.54 748.02 613.126C763.059 614.493 762.57 614.884 764.523 600.235L765.109 595.645L773.508 592.911C780.637 590.567 782.004 589.786 782.883 587.442C783.762 585.099 784.348 584.708 786.594 585.196C790.598 585.977 792.844 582.071 794.699 571.036C797.434 555.313 799.094 548.38 802.023 541.349C803.684 537.345 805.051 532.364 805.148 529.239L805.441 524.063L800.559 521.231C796.652 519.083 793.527 518.204 785.91 517.423C773.703 516.056 770.969 515.177 762.57 510.294C753.977 505.216 749.875 499.845 750.754 494.962C751.926 488.224 756.223 481.681 765.988 471.72C777.121 460.489 778.684 459.806 794.504 459.806H803.391L811.301 465.079L819.113 470.45L837.766 471.036L856.418 471.72L857.59 468.595C859.055 464.2 858.957 460.391 857.199 456.192C855.246 451.505 855.344 445.841 857.59 441.446C859.348 438.028 860.129 437.54 868.527 434.903C873.898 433.145 879.367 430.704 881.906 428.751L886.105 425.626L893.234 427.481L900.461 429.239L903.195 427.091C905.148 425.626 908.664 424.552 914.328 423.673C918.918 422.989 922.922 422.306 923.215 422.11C923.605 421.915 923.215 419.083 922.434 415.86C921.066 410.782 920.676 410.001 918.625 410.001C915.402 410.001 912.375 404.923 912.375 399.259C912.277 393.595 911.398 392.227 902.609 383.927C898.605 380.118 893.332 374.356 890.891 371.036C886.887 365.665 885.812 364.884 878.977 362.247C874.875 360.587 869.602 358.829 867.258 358.243C864.914 357.559 854.758 353.653 844.504 349.454C826.242 341.934 825.852 341.837 820.09 342.618C816.77 343.009 812.863 343.985 811.301 344.766C808.664 346.134 807.785 346.134 802.316 344.571C795.383 342.716 790.207 339.102 786.984 334.024C784.836 330.606 784.738 329.923 785.52 322.11C786.008 317.52 786.594 313.321 786.789 312.735C787.082 311.856 784.543 306.485 782.98 304.727C782.785 304.532 779.562 303.556 775.656 302.579C766.77 300.333 758.762 294.571 757.004 289.2C756.418 287.149 753.781 283.243 751.242 280.509C747.824 276.7 745.969 273.282 743.625 266.739C739.914 256.485 736.691 252.774 731.613 252.774C728.684 252.872 727.707 253.556 723.215 259.513C718.527 265.665 717.844 266.153 712.961 267.227C700.852 269.766 702.121 269.962 699.582 264.786C694.016 253.067 689.426 249.259 671.164 241.056C649.289 231.192 627.805 224.454 617.941 224.454C615.598 224.454 612.668 224.063 611.398 223.575C608.566 222.501 601.828 213.907 595.188 202.97C590.012 194.474 585.715 190.079 578.879 186.563C575.656 185.001 574.68 183.731 573.41 179.825C572.531 177.286 567.551 168.985 562.277 161.466C557.102 153.946 551.535 145.352 550.07 142.423C548.02 138.419 545.969 136.075 541.965 133.341C538.938 131.29 535.324 127.97 533.762 126.017C532.297 123.966 526.926 118.106 521.848 112.833C515.207 105.997 511.984 103.36 510.324 103.36C507.102 103.36 494.992 96.2314 489.523 91.1533C483.566 85.5869 477.023 81.29 453.098 67.3251C437.961 58.5361 431.418 54.1415 427.902 50.3329L423.02 45.2548L423.41 34.7079C423.703 24.9423 423.898 24.0634 426.34 21.5244C428.977 18.79 429.758 16.0556 428.098 15.079C425.852 13.7119 412.863 11.3681 403.195 10.5869L392.453 9.8056L388.254 12.6376C382.395 16.7392 378 18.3994 373.312 18.3994C371.164 18.3994 368.332 18.9853 367.16 19.7665C365.988 20.5478 363.059 21.4267 360.617 21.8173C357.004 22.3056 355.832 23.0869 353.977 25.8212C352.707 27.7744 351.047 29.1415 349.875 29.1415C348.117 29.1415 347.922 28.4579 347.922 23.4775C347.922 18.5947 347.434 17.3251 344.504 13.5165C342.551 11.0751 340.109 7.65717 339.035 5.89935C337.863 4.2392 336.203 2.77435 335.227 2.77435C334.25 2.77435 332.98 2.09076 332.297 1.30951C330.832 -0.448303 330.539 -0.448303 327.414 1.30951Z" fill="black"/>
<circle cx="441" cy="682" fill="#5CE50D"/>
<circle cx="286" cy="470" fill="#E52A0D"/>
<circle cx="272" cy="742" fill="#E52A0D"/>
<circle cx="723" cy="553" fill="#E52A0D"/>
</g>
<defs>
<clipPath id="clip0_1_2362">
<rect width="1000" height="1000" />
</clipPath>
</defs>
</svg>
