<svg width="1000" height="1000" viewBox="0 0 1000 1000" fill="none" xmlns="http://www.w3.org/2000/svg">
<rect width="1000" height="1000" />
<path d="M665.218 2.81567C664.339 4.28052 662.191 6.62427 660.433 7.8938C656.722 10.6282 656.332 11.8 658.968 11.8C661.8 11.8 663.558 14.5344 662.191 16.7805C661.507 17.7571 661.019 19.5149 661.019 20.5891C661.019 21.8586 660.335 22.5422 659.066 22.5422C657.992 22.5422 656.82 23.2258 656.527 24.0071C656.136 24.7883 654.964 25.4719 653.792 25.4719C651.058 25.4719 647.738 29.0852 647.542 32.1125C647.542 33.3821 646.761 35.5305 645.882 36.8977L644.222 39.3391L641.585 36.8C638.363 33.675 633.578 32.6008 631.917 34.554C630.941 35.7258 631.039 36.1165 632.21 36.6047C632.992 36.8977 633.675 37.5813 633.675 38.2649C633.675 40.0227 638.753 45.4915 640.121 45.1985C640.999 45.0032 641.195 45.9797 640.804 48.7141C640.511 51.0579 640.707 52.8157 641.39 53.2063C641.976 53.5969 642.464 55.0618 642.464 56.5266C642.464 57.9915 643.148 60.1399 643.929 61.3118C645.98 64.2415 645.003 70.1985 640.804 78.9875C638.265 84.261 637.386 87.4836 637.289 91.6829C637.289 94.8079 636.605 97.8352 635.921 98.5188C635.238 99.2024 634.652 100.765 634.652 102.034C634.652 105.55 632.601 107.308 626.449 108.87C618.929 110.823 616.976 109.847 614.925 103.304L613.363 98.2258L613.265 102.913C613.265 105.452 613.851 109.163 614.632 111.116C616.585 115.609 616.488 116.585 614.437 115.511C613.46 114.925 612.093 114.925 611.019 115.413C610.042 115.902 608.382 116.781 607.308 117.269C605.941 117.952 605.355 117.952 605.355 117.171C605.355 116.585 604.867 116.292 604.281 116.488C603.597 116.683 603.011 120.296 602.718 125.081C602.425 132.503 602.035 133.675 599.789 135.628C597.542 137.679 597.152 137.777 595.687 136.409C594.71 135.531 593.246 132.308 592.269 129.281C591.292 126.156 589.339 122.445 587.874 121.077C586.507 119.71 584.847 117.757 584.164 116.683C582.992 114.925 582.894 114.925 581.624 116.488C579.964 118.636 578.988 118.734 578.988 116.781C578.988 115.999 578.597 115.316 578.011 115.316C577.523 115.316 577.035 115.999 577.035 116.781C577.035 117.659 575.863 119.417 574.496 120.687C572.445 122.64 572.054 123.714 572.445 126.253C572.64 128.109 572.249 130.648 571.468 132.21C570.296 134.652 570.296 135.628 571.566 140.12C573.128 145.296 574.398 146.566 578.109 146.566C580.648 146.566 580.453 148.128 577.621 150.081C574.691 151.937 575.179 153.792 578.988 155.355C582.406 156.82 583.187 159.554 581.332 164.046C580.55 165.902 580.16 168.05 580.453 168.831C580.746 169.515 580.257 171.077 579.476 172.249C578.011 174.3 578.011 174.202 578.011 170.98C578.109 169.124 578.695 166.488 579.476 165.12C581.527 161.507 581.234 160.531 577.816 159.359C574.105 157.991 573.226 158.675 575.472 161.116C576.644 162.386 576.937 163.753 576.449 165.609C575.863 168.05 575.472 168.148 571.761 167.855C569.613 167.562 567.171 167.269 566.39 166.976C565.511 166.781 564.632 167.757 563.949 170.003C563.363 171.859 561.8 174.984 560.628 176.839C559.066 179.281 558.675 180.941 559.164 182.698C559.457 184.066 559.847 186.409 559.945 188.07C560.335 193.831 560.238 193.734 563.46 193.05C565.316 192.757 567.171 192.952 567.953 193.538C568.929 194.417 569.906 194.417 571.761 193.441C574.007 192.171 574.398 192.366 576.937 195.003C579.867 197.933 581.722 202.23 580.16 202.23C579.671 202.23 578.792 201.156 578.207 199.788C576.839 196.859 575.082 196.566 575.082 199.3C575.082 200.374 574.691 201.253 574.105 201.253C573.617 201.253 573.128 200.667 573.128 199.984C573.128 199.007 566.488 194.417 565.023 194.417C564.242 194.417 556.82 204.671 554.085 209.554C552.621 212.191 550.765 215.316 550.082 216.39C549.3 217.464 548.714 219.515 548.714 220.98C548.714 222.738 548.128 223.812 546.761 224.202C545.687 224.495 544.808 225.667 544.808 226.644C544.808 227.718 543.539 229.183 541.878 230.062L538.949 231.624V226.448C538.949 222.542 539.632 220.101 541.683 216.585C544.124 212.581 544.417 211.312 543.832 207.113C542.855 199.788 541.781 199.3 536.8 203.695C529.183 210.531 527.23 215.902 532.796 214.437C534.554 214.046 535.14 214.241 534.847 215.12C534.554 215.804 532.894 216.781 531.039 217.269C528.304 217.952 527.328 218.929 525.765 222.542C524.593 225.081 521.859 228.597 519.027 230.941C516.488 233.089 513.949 235.921 513.46 237.191C512.484 239.632 514.144 244.222 516.097 244.222C516.781 244.222 518.246 246.273 519.417 248.714C520.589 251.156 522.445 253.695 523.421 254.281C526.156 255.941 525.667 256.917 522.054 256.917C520.296 256.917 517.171 257.796 515.023 258.87C512.874 259.945 510.433 260.823 509.457 260.823C508.382 260.823 507.699 261.507 507.699 262.777C507.699 263.851 507.308 264.73 506.82 264.73C505.453 264.73 507.406 257.796 509.554 255.062C510.726 253.695 512.191 251.351 512.972 249.984C514.437 247.542 514.339 247.347 511.117 245.589C508.773 244.32 507.699 243.05 507.699 241.585C507.699 238.558 506.234 238.07 502.914 239.827C499.496 241.488 489.632 249.495 483.285 255.55C480.843 257.894 476.839 260.628 474.398 261.605C467.953 264.437 463.753 269.808 463.753 275.472C463.753 277.913 463.07 280.941 462.191 282.113C460.433 284.652 461.117 286.214 463.851 286.214C465.023 286.214 466.683 287.191 467.757 288.363C469.71 290.804 470.296 293.148 468.441 291.292C466.683 289.534 464.73 289.827 464.73 291.878C464.73 294.222 461.117 294.417 460.335 292.073C460.042 291.097 458.675 288.753 457.406 286.898C455.746 284.359 455.453 283.284 456.332 282.991C457.113 282.698 457.406 281.331 457.113 279.573C456.82 277.034 456.234 276.546 453.011 275.96C449.007 275.277 446.273 276.253 442.562 279.671C440.023 281.917 439.437 285.531 441.781 284.652C442.66 284.261 443.246 284.652 443.246 285.433C443.246 287.972 437.679 286.409 436.996 283.773C436.214 280.745 433.285 279.866 429.769 281.722C426.937 283.187 419.32 282.894 418.246 281.234C417.464 279.866 415.902 280.159 415.902 281.624C415.902 282.406 415.023 283.773 414.046 284.652C412.679 285.921 412.289 287.191 412.679 290.023C412.972 292.269 412.777 294.027 412.093 294.417C411.507 294.808 411.312 296.175 411.605 297.542C412.093 299.3 411.8 299.886 410.628 299.886C409.554 299.886 409.066 299.007 409.066 296.859V293.831L404.476 294.417C395.492 295.687 394.417 296.077 394.417 298.031C394.417 299.007 394.906 299.886 395.394 299.886C397.64 299.886 396.078 301.741 392.464 303.597C388.265 305.648 387.191 305.452 388.558 302.816C389.73 300.57 388.656 294.027 386.898 293.343C384.261 292.269 377.816 296.175 374.496 300.96C372.64 303.499 369.808 306.331 368.148 307.308C366.488 308.284 365.121 309.456 365.121 309.847C365.121 310.238 364.339 310.628 363.46 310.628C362.582 310.628 361.019 311.312 360.042 312.191C358.871 313.363 357.992 313.558 357.113 312.874C356.429 312.288 351.449 311.605 346.078 311.214C340.707 310.921 335.042 310.531 333.48 310.335C330.843 310.14 330.55 310.433 328.89 316.39L327.132 322.64L329.964 325.96C333.48 329.866 333.578 331.136 330.843 336.019C329.085 339.144 328.89 340.316 329.671 344.027C330.648 348.323 330.55 348.519 327.425 351.058C325.57 352.523 324.105 354.476 324.105 355.55C324.105 356.527 323.617 357.698 323.128 357.991C322.542 358.382 321.468 360.238 320.687 362.093C319.808 364.046 318.246 366.585 317.171 367.659C314.046 370.784 308.48 379.964 308.48 382.015C308.48 382.991 307.601 384.261 306.527 384.847C305.453 385.433 304.574 386.312 304.574 386.898C304.574 387.484 302.816 390.804 300.667 394.417C298.421 398.031 295.98 403.304 295.199 406.234C293.734 411.019 293.734 411.702 295.394 415.218C296.273 417.366 298.128 420.491 299.398 422.152C302.035 425.863 302.23 428.304 299.984 435.335C298.421 440.413 298.421 440.804 300.667 450.081C302.035 455.452 302.914 462.093 302.816 465.413C302.718 472.933 304.867 479.573 308.48 482.894C310.14 484.261 311.41 486.019 311.41 486.702C311.41 487.386 312.972 491.585 314.828 495.98C317.464 502.23 317.953 504.574 317.269 506.331C316.781 507.601 315.902 511.312 315.316 514.632C314.339 520.296 314.339 520.784 316.976 525.179C318.441 527.816 320.589 531.234 321.859 532.894C323.128 534.554 324.105 536.214 324.105 536.702C324.105 537.093 326.058 540.413 328.499 544.027C333.675 552.034 333.968 555.062 330.55 563.07C327.132 571.077 326.351 575.277 328.207 576.644C330.062 578.109 333.871 584.456 333.871 586.214C333.871 587.093 333.285 588.265 332.503 588.851C331.722 589.534 330.843 591.097 330.55 592.464C330.16 593.831 328.499 596.37 326.742 598.128C324.984 599.788 321.468 605.55 318.929 610.726C316.39 615.902 313.851 620.199 313.363 620.199C312.874 620.199 310.921 622.249 308.968 624.691C306.527 627.913 305.55 630.257 305.55 632.699C305.55 636.605 301.253 644.613 299.203 644.613C295.882 644.613 289.828 654.574 288.851 661.702C287.582 671.077 286.019 677.327 284.164 679.769C282.699 681.82 281.429 682.308 275.667 682.699C271.761 683.089 267.367 684.066 265.316 685.14C262.289 686.8 261.507 687.777 260.628 691.781C259.359 697.933 259.359 700.765 261.019 706.917C262.191 711.507 262.191 711.995 260.628 711.995C259.749 711.995 257.601 714.046 255.843 716.585C253.109 720.492 252.718 721.761 253.109 725.374C253.304 727.718 253.207 729.574 252.718 729.574C252.23 729.574 251.839 728.89 251.839 728.011C251.839 726.644 251.546 726.644 250.374 727.62C249.593 728.304 248.91 729.769 248.91 730.843C248.91 731.917 248.226 733.577 247.445 734.456C244.027 738.265 244.71 750.081 248.324 750.081C249.105 750.081 249.886 750.765 250.277 751.546C250.667 752.62 250.082 753.011 248.031 753.011C245.492 753.011 245.199 753.402 244.71 756.624C244.515 758.675 244.71 760.824 245.101 761.409C246.468 763.07 248.91 771.761 248.91 774.984C249.007 776.546 249.984 782.21 251.253 787.484C253.597 797.835 255.648 801.253 266.097 812.386C270.589 817.171 271.175 818.343 271.664 823.128C271.957 826.058 271.957 829.671 271.761 831.136C271.273 833.284 272.054 834.554 276.546 838.851C281.429 843.538 281.917 844.32 281.039 846.468C280.453 848.128 280.453 849.398 281.136 850.179C282.406 851.742 281.332 852.62 278.109 852.62C274.105 852.62 273.812 855.257 275.277 873.714C275.96 882.406 276.156 890.023 275.863 890.609C275.472 891.195 275.472 895.98 275.863 901.156L276.546 910.628L286.703 921.175C295.492 930.257 296.761 931.917 295.785 933.577C294.124 936.702 294.613 938.851 298.226 944.417C300.082 947.347 301.839 951.253 302.23 953.011C302.523 954.769 303.304 956.527 303.988 956.917C304.574 957.308 305.55 958.48 306.136 959.554C306.82 960.726 308.48 961.605 310.531 961.8C312.289 961.995 315.414 963.46 317.367 965.023C319.32 966.585 321.371 967.855 321.859 967.855C322.347 967.855 323.128 969.71 323.714 971.956L324.593 976.156L333.871 976.839C338.949 977.23 347.445 978.695 352.621 980.159C361.312 982.601 362.191 983.089 363.851 986.214C365.218 988.851 367.171 990.316 372.738 992.855C378.304 995.394 379.769 996.566 379.769 998.226C379.769 999.984 380.16 1000.18 382.503 999.691C383.968 999.398 390.023 998.812 395.882 998.519C407.601 997.835 411.703 996.37 417.855 990.902C423.226 986.117 445.882 974.495 451.546 973.617C454.281 973.226 460.824 971.663 466.292 970.199C475.96 967.562 476.253 967.562 481.234 969.222C486.117 970.784 486.312 970.784 490.414 968.734C492.66 967.562 496.566 964.925 499.105 962.874C503.207 959.456 503.988 959.163 505.746 960.238C507.601 961.409 508.089 961.214 510.238 958.773C511.605 957.21 513.851 955.648 515.316 955.257C517.171 954.671 517.953 953.89 517.855 952.425C517.855 951.253 518.343 950.277 519.124 950.277C519.906 950.277 520.394 949.105 520.394 947.445C520.394 945.882 521.468 943.343 522.64 941.781C524.007 940.218 525.277 937.093 525.57 934.359C525.96 931.82 527.132 928.011 528.109 925.96C529.183 923.909 531.039 918.245 532.21 913.558C533.382 908.773 534.749 904.378 535.14 903.89C537.582 900.667 543.343 887.777 542.464 887.484C541.878 887.288 542.269 886.214 543.441 885.238C546.566 882.308 551.449 870.394 552.523 862.874C554.281 850.667 555.16 847.347 559.554 837.484C562.679 830.257 563.851 826.351 563.949 822.347C564.046 819.32 564.828 815.413 565.804 813.558C567.855 809.554 570.199 798.909 572.542 782.796C573.519 776.351 574.691 770.394 575.082 769.515C576.449 766.878 580.941 753.402 580.941 752.034C580.941 751.351 583.578 745.199 586.898 738.46C590.121 731.722 593.539 723.519 594.32 720.296C595.101 717.074 596.175 713.656 596.761 712.679C597.249 711.8 598.519 707.601 599.496 703.597C600.57 699.495 602.328 694.71 603.402 692.952C604.476 691.195 605.746 687.191 606.234 684.066C606.722 680.941 608.089 675.081 609.261 671.077C611.019 665.218 611.214 663.753 610.042 662.972C609.066 662.288 609.066 661.995 610.433 661.117C612.289 660.042 615.023 651.839 620.589 629.964C622.835 621.273 625.667 612.874 628.011 608.187C631.722 600.667 637.386 586.507 638.07 582.601C638.265 581.527 639.242 576.449 640.023 571.37C641.097 565.609 642.855 559.554 644.906 555.257C646.761 551.449 648.617 546.566 649.203 544.515C652.132 532.113 654.378 525.179 657.015 519.613C661.312 510.531 664.632 501.839 668.05 491.39C669.613 486.312 671.957 480.55 673.128 478.695C674.398 476.644 675.765 471.956 676.449 467.366C677.23 462.386 678.304 458.968 679.574 457.601C680.746 456.331 681.136 455.159 680.55 454.183C679.281 451.937 681.039 440.902 684.066 432.21C686.605 424.788 686.703 424.105 685.433 418.05C684.749 414.534 684.164 410.531 684.164 408.968C684.164 407.406 683.675 406.331 682.894 406.331C682.015 406.331 681.527 405.257 681.527 403.499C681.527 401.839 681.136 400.277 680.55 399.984C678.695 398.812 679.574 394.613 682.992 387.777C684.847 384.066 686.41 380.159 686.41 379.183C686.41 378.109 687.679 374.495 689.242 370.98C692.562 363.851 694.515 362.484 703.304 361.702C709.847 361.019 710.433 359.652 705.453 356.527C701.546 354.085 700.863 350.374 703.988 348.714C705.062 348.128 705.941 347.054 705.941 346.37C705.941 345.687 707.015 343.538 708.187 341.683C710.531 338.265 712.582 328.206 711.019 328.206C709.164 328.206 708.773 320.589 710.433 316.488C712.289 311.995 711.605 310.531 706.527 307.991C704.867 307.21 702.718 305.55 701.839 304.378C699.691 301.741 699.593 294.222 701.644 291.292C702.425 290.12 702.718 289.144 702.23 289.144C701.644 289.144 700.96 288.07 700.667 286.8C700.374 285.531 699.105 282.308 697.933 279.671C696.859 277.132 695.785 273.616 695.687 272.054C695.589 270.394 695.199 268.441 694.906 267.659C694.417 266.781 695.296 264.339 697.054 261.605C699.789 257.308 700.082 257.113 705.941 256.429C709.261 256.038 712.191 256.038 712.582 256.331C712.874 256.722 713.07 259.456 712.972 262.386C712.777 267.269 712.972 267.757 715.121 268.636C717.269 269.417 717.464 270.003 716.976 272.933C716.585 275.765 716.878 276.741 719.027 278.695C720.882 280.355 721.566 282.015 721.566 284.554C721.566 287.288 722.249 288.46 724.593 290.316C726.253 291.585 728.499 293.441 729.671 294.515C732.699 297.347 736.117 296.566 737.777 292.562C738.46 290.706 739.535 289.046 740.023 288.656C741.195 287.972 744.027 282.406 744.027 280.745C744.027 280.062 745.98 275.374 748.519 270.394C753.597 259.749 756.136 249.691 755.16 243.245C754.476 237.972 750.96 230.941 747.542 227.718C746.175 226.351 745.003 224.593 745.003 223.714C745.003 222.835 744.124 220.394 742.953 218.343C739.535 211.8 737.093 204.573 737.777 202.913C738.07 202.034 737.386 199.691 736.117 197.64C733.773 193.929 733.382 189.339 734.261 176.644C734.457 173.812 734.066 171.468 733.285 170.491C732.503 169.613 731.917 165.706 731.722 160.921C731.234 146.566 729.769 132.406 728.597 130.257C727.914 129.085 727.425 127.23 727.425 126.058C727.425 124.984 726.839 123.031 726.058 121.859C725.277 120.687 724.203 116.488 723.519 112.484C722.738 107.894 721.664 104.671 720.394 103.402C719.32 102.327 718.734 101.253 718.929 100.96C719.222 100.667 718.539 98.4211 717.464 95.9797C715.999 92.5618 715.707 90.1204 716.097 86.7024C716.488 83.0891 716.097 81.0383 714.535 77.6204C713.363 75.2766 711.8 73.3235 711.214 73.3235C710.531 73.3235 710.042 72.5422 710.042 71.5657C710.14 69.8079 703.597 59.6516 701.644 58.4797C700.863 57.9915 699.984 58.675 699.3 60.1399C697.64 63.7532 695.687 63.1672 695.589 59.1633C695.589 56.8196 694.71 54.8665 693.05 53.011C690.414 50.2766 687.972 42.0735 690.218 43.4407C691.585 44.3196 691.683 39.8274 690.414 37.386C689.828 36.5071 689.242 34.554 688.851 32.9915C688.363 30.6477 687.874 30.3547 684.652 30.3547C681.039 30.3547 680.843 30.1594 679.476 25.7649C678.011 20.8821 674.691 18.5383 674.691 22.4446C674.691 24.886 672.738 26.1555 671.664 24.3977C671.078 23.3235 670.589 23.3235 669.613 24.3C668.246 25.6672 664.925 25.8625 664.925 24.4954C664.925 23.9094 665.804 23.5188 666.781 23.5188C669.417 23.5188 670.394 21.468 668.539 20.1008C666.781 18.8313 666.292 15.7063 667.757 15.7063C668.246 15.7063 669.124 16.3899 669.808 17.1711C670.785 18.343 671.273 18.4407 671.859 17.4641C672.445 16.5852 673.128 16.6829 674.789 18.1477L676.937 20.1008L676.156 17.1711C675.667 15.511 675.374 13.0696 675.472 11.6047C675.57 10.1399 674.984 8.77271 674.203 8.47974C673.421 8.18677 672.738 7.01489 672.738 5.94067C672.738 3.88989 669.515 0.0812988 667.855 0.0812988C667.269 0.0812988 666.097 1.35083 665.218 2.81567ZM663.46 8.96802C664.535 10.6282 663.363 11.0188 661.996 9.35864C661.214 8.47974 661.214 7.8938 661.8 7.8938C662.386 7.8938 663.167 8.38208 663.46 8.96802ZM327.523 970.784C329.281 972.64 329.183 972.738 327.328 972.738C326.156 972.738 325.082 971.956 324.789 970.784C324.496 969.71 324.593 968.831 324.984 968.831C325.472 968.831 326.546 969.71 327.523 970.784Z" fill="black"/>
<path d="M598.519 94.4141C598.519 96.6602 598.226 96.9531 595.589 96.5625C592.757 96.1719 592.66 96.2695 592.66 99.8828C592.66 104.863 595.296 107.5 600.472 107.5H604.476L603.988 103.789C602.425 92.5586 602.23 91.875 600.375 91.875C599.007 91.875 598.519 92.5586 598.519 94.4141Z" fill="black"/>
<path d="M602.425 111.41C602.425 111.898 603.402 112.777 604.574 113.461C606.332 114.438 606.527 114.34 606.039 112.875C605.648 111.996 605.355 111.02 605.355 110.824C605.355 110.629 604.671 110.434 603.89 110.434C603.109 110.434 602.425 110.824 602.425 111.41Z" fill="black"/>
<path d="M717.757 354.082C716.585 357.11 715.706 359.844 715.706 360.332C715.706 360.723 714.632 362.09 713.265 363.36C711.898 364.629 710.824 366.778 710.824 368.242C710.824 369.61 710.433 371.172 709.945 371.66C708.187 373.418 705.941 379.863 706.82 380.449C708.578 381.426 721.566 355.742 721.566 351.25C721.566 347.637 719.613 349.102 717.757 354.082Z" fill="black"/>
<circle cx="572" cy="487" fill="#5CE50D"/>
<circle cx="692" cy="244" fill="#E52A0D"/>
<circle cx="344" cy="567" fill="#E52A0D"/>
<circle cx="448" cy="784" fill="#E52A0D"/>
</svg>
