<svg width="1000" height="1000" viewBox="0 0 1000 1000" fill="none" xmlns="http://www.w3.org/2000/svg">
<rect width="1000" height="1000" />
<path d="M696.958 112.305C687.387 116.699 686.411 117.383 686.411 119.824C686.411 124.219 682.798 126.66 676.157 126.66C670.395 126.66 670.298 126.758 664.829 132.129C659.458 137.5 659.165 137.598 656.04 136.523C652.622 135.352 650.766 136.133 649.79 139.453C649.302 141.016 648.52 141.211 643.637 140.723C638.95 140.234 636.899 140.625 630.552 143.066C623.911 145.605 622.544 145.898 618.149 145.02C614.243 144.336 612.583 144.434 610.141 145.801L607.016 147.363L600.571 141.016C595.2 135.742 593.442 134.57 590.024 134.18C587.29 133.887 583.969 132.227 579.77 129.199C574.399 125.391 573.032 124.902 570.591 125.586C567.759 126.27 567.759 126.465 567.661 133.496L567.563 140.625L563.266 142.871C558.286 145.508 556.528 145.703 556.528 143.848C556.528 142.383 552.329 141.309 546.177 141.309C542.856 141.309 541.88 140.918 541.391 139.355C540.61 136.816 535.141 134.473 532.895 135.645C531.919 136.133 530.844 137.695 530.552 139.16C530.161 140.625 528.891 143.652 527.524 145.898C525.278 150 524.985 150.098 520.395 150.098C516.489 150.098 515.512 150.391 515.512 151.66C515.512 152.539 513.559 154.98 511.118 157.129C507.407 160.352 506.723 161.621 506.723 164.551C506.723 170.215 505.649 171.191 501.059 169.824C494.712 167.871 489.927 168.359 486.899 171.094C485.434 172.461 484.262 174.121 484.262 174.707C484.262 175.391 483.091 177.051 481.723 178.516L479.184 181.152L474.692 178.32C471.665 176.465 468.93 175.488 466.294 175.488C464.048 175.391 461.216 174.805 459.848 174.023C458.481 173.242 455.942 172.656 454.184 172.559C452.329 172.559 450.766 171.973 450.473 171.094C450.083 170.215 448.618 169.629 446.762 169.629C445.102 169.629 442.856 168.945 441.88 168.164C439.243 166.113 437.876 166.309 433.677 169.141C430.649 171.094 429.477 171.387 427.036 170.703C424.985 170.117 423.52 170.215 422.251 171.191C421.274 171.973 418.735 172.559 416.684 172.559C413.462 172.559 412.973 172.266 412.973 170.312C412.973 166.699 408.286 163.281 399.692 160.449C393.345 158.398 391.294 158.008 389.145 158.887C387.68 159.375 385.434 159.863 384.067 159.863C382.114 159.863 381.723 160.352 381.723 163.086C381.723 164.844 381.04 167.285 380.161 168.457C378.696 170.605 378.794 170.996 381.235 174.609C382.602 176.855 383.579 178.809 383.286 179.199C382.7 179.785 379.38 178.809 371.86 175.977C368.93 174.805 366.294 174.414 364.048 174.902C361.216 175.391 360.239 176.367 357.505 181.348C355.649 184.57 353.598 187.207 352.817 187.207C352.036 187.207 350.473 189.062 349.399 191.406C347.544 195.215 347.055 195.605 344.321 195.215L341.391 194.727L341.977 199.512C342.466 203.809 342.173 204.688 338.755 209.473C335.825 213.574 335.141 215.137 335.727 216.797C336.411 218.555 335.532 220.508 331.235 226.562L325.962 234.18L327.427 238.77C328.989 243.066 328.891 243.262 326.841 245.508C325.669 246.777 324.204 247.754 323.618 247.754C322.934 247.754 321.665 248.73 320.591 249.805C318.833 251.758 318.052 251.855 310.141 251.27C298.227 250.488 298.13 250.391 297.446 241.016C296.86 233.203 296.762 233.008 287.973 218.652C283.188 210.645 279.184 203.223 279.184 202.246C279.184 200.781 277.231 199.707 270.395 197.266C261.899 194.238 261.411 194.238 257.895 195.605C255.942 196.484 253.11 198.242 251.743 199.512C250.376 200.781 246.665 202.832 243.54 204.102C238.364 206.152 237.68 206.641 236.411 210.449C234.555 216.016 228.989 219.727 212.485 226.27C201.841 230.469 199.399 231.055 196.762 230.371C194.223 229.59 193.052 229.883 190.317 231.738C188.462 233.008 186.411 234.082 185.727 234.082C185.044 234.082 184.458 235.059 184.458 236.23C184.36 237.5 182.505 240.527 180.259 243.066L176.157 247.656L165.903 249.219C156.919 250.586 155.259 251.074 152.622 253.711C150.18 256.055 147.934 257.031 141.391 258.301C134.36 259.766 133.188 260.254 132.895 262.109C132.7 263.281 130.552 266.113 128.012 268.359C124.204 271.973 123.618 273.047 123.813 275.977C123.911 278.613 123.325 279.98 120.884 282.52L117.759 285.742L118.247 297.168C118.735 308.203 118.93 308.789 121.372 310.742C122.837 311.914 124.302 314.16 124.79 315.723C125.766 319.336 124.497 325 122.446 326.074C121.177 326.855 121.47 327.637 124.497 331.348C127.622 335.059 127.915 336.035 127.427 339.062C127.036 341.016 126.059 342.871 125.278 343.164C124.595 343.457 123.911 344.629 123.911 345.801C123.911 348.438 123.13 349.414 119.419 351.953C117.466 353.418 115.61 356.152 114.048 360.156C111.606 366.406 111.313 366.602 102.817 369.238C100.18 370.02 97.2508 370.996 96.3718 371.289C95.2 371.777 94.5164 370.996 93.6375 368.164C92.9539 366.113 92.1726 364.16 91.782 363.77C91.489 363.477 88.8523 363.574 85.9226 364.16C81.3328 365.137 80.3562 365.723 77.3289 370.02C75.3758 372.656 73.1297 374.707 72.1531 374.707C70.9812 374.707 69.2234 372.754 67.1726 369.238L64.0476 363.77L59.0672 364.355C56.3328 364.648 52.9148 364.941 51.5476 364.941C49.6922 364.941 48.2273 366.016 46.0789 369.043C43.2468 373.145 43.1492 373.535 43.3445 383.008C43.6375 391.211 44.1258 393.945 46.5672 400.098L49.4968 407.422L47.4461 409.57C46.3718 410.84 44.0281 412.012 42.3679 412.402C40.6101 412.695 37.7781 413.77 36.1179 414.844C33.3836 416.504 33.0906 417.188 33.0906 421.191C33.0906 424.805 32.407 426.66 29.6726 430.469C27.5242 433.301 25.7664 437.207 25.0828 440.527C24.0086 445.605 24.1062 445.996 26.5476 449.805C28.8914 453.418 29.1844 454.59 29.1844 462.695C29.1844 469.434 28.7937 472.168 27.7195 473.34C26.3523 474.902 26.3523 475.488 28.2078 480.078C29.282 482.812 30.1609 486.133 30.1609 487.402C30.1609 488.574 31.2351 490.625 32.6023 491.895C35.0437 494.238 36.1179 497.07 37.9734 506.152C38.4617 508.789 39.1453 511.816 39.4383 512.891C39.9265 514.551 38.5593 516.016 32.114 520.996C26.8406 525.098 23.325 527.051 21.5672 527.051C20.0047 527.051 17.9539 527.734 16.8797 528.516C15.9031 529.297 12.9734 529.98 10.532 529.98C6.5281 529.98 5.84451 530.273 5.35623 532.227C5.06326 533.496 5.25857 536.035 5.74685 537.891C7.2117 542.773 7.01638 543.262 3.20779 545.508C0.375758 547.168 -0.210179 548.047 0.0827896 550.195C0.278102 552.148 1.05935 553.027 2.81716 553.418C4.28201 553.711 5.74685 555.176 6.62576 557.031C7.60232 559.18 8.87185 560.352 10.825 560.742C15.0242 561.719 20.3953 570.117 20.3953 575.879C20.3953 578.32 21.0789 581.152 21.8601 582.129C22.6414 583.203 23.325 585.059 23.325 586.328C23.325 589.746 26.157 593.457 28.6961 593.457C30.2586 593.457 32.5047 595.312 35.825 599.121C41.8797 606.152 42.8562 609.082 40.0242 612.598C38.7547 614.16 37.9734 616.602 37.9734 618.848C37.9734 623.438 35.4343 629.199 31.8211 632.715C30.3562 634.18 29.1844 636.426 29.1844 637.793C29.1844 639.258 28.4031 640.723 27.1336 641.406C25.3758 642.285 24.6922 642.09 22.4461 639.941C19.1258 636.816 17.1726 637.305 15.8054 641.797C14.8289 644.727 15.0242 645.312 17.5633 647.754C20.1023 650.195 20.3953 651.074 20.3953 657.129C20.3953 661.035 21.0789 665.332 21.9578 667.48C23.2273 670.605 23.325 671.875 22.2508 676.27C21.0789 681.25 21.0789 681.445 23.8133 684.277C26.5476 687.109 26.5476 687.109 25.2781 693.066L24.0086 699.023L27.1336 702.148C29.7703 704.98 30.1609 706.055 30.1609 710.84V716.406L35.4343 718.75C39.3406 720.605 40.8054 721.777 41.2937 723.828C41.6843 725.293 43.2468 728.125 44.8093 730.078C46.3718 732.031 48.032 735.156 48.325 737.012C48.7156 738.867 50.2781 742.969 51.7429 745.996L54.575 751.562L52.6218 756.152C50.2781 761.426 50.5711 762.5 54.9656 767.578C57.7 770.898 59.1648 771.582 65.9031 773.242C70.1023 774.219 74.0086 775 74.3992 775.098C74.8875 775.098 74.9851 772.363 74.6922 768.945C74.2039 763.77 74.4968 762.305 76.5476 758.496C81.6258 749.121 82.9929 745.605 82.7 742.578C82.407 739.941 82.8953 739.258 86.3133 737.207C89.8289 735.156 91.0984 734.961 99.5945 735.352C106.235 735.645 109.751 736.23 111.802 737.402C114.829 739.258 125.376 754.688 126.45 758.887C127.036 761.23 130.942 763.379 134.555 763.379C137.876 763.379 138.266 765.234 136.509 770.508C134.165 777.344 134.165 783.398 136.509 786.719C138.169 789.062 138.559 791.797 139.145 805.664L139.829 821.973L136.802 828.613C135.044 832.227 133.286 837.402 132.798 840.137C132.309 842.773 131.137 846.582 130.356 848.535C129.477 850.586 128.794 853.516 128.794 855.176C128.794 859.57 126.157 863.965 122.837 865.137C121.274 865.625 120.005 866.406 120.005 866.797C120.005 867.188 123.52 868.359 127.817 869.531L135.63 871.582L139.927 867.773C142.368 865.625 144.614 862.891 145.005 861.719C145.298 860.547 147.544 857.52 149.985 855.078L154.38 850.488L164.536 856.152L174.595 861.816L177.134 859.863C178.891 858.496 180.454 858.105 182.114 858.496C183.384 858.887 185.337 858.691 186.313 858.203C187.876 857.324 189.536 858.691 197.641 866.992C207.602 877.246 210.239 879.102 213.169 877.441C214.731 876.562 214.634 876.27 212.095 874.023L209.458 871.484L211.606 870.703C212.778 870.215 213.755 869.531 213.755 869.043C213.755 867.48 210.337 865.039 206.43 863.77C203.501 862.793 202.427 861.816 201.841 859.57C200.864 855.762 198.227 854.199 191.098 853.223C185.532 852.441 181.626 849.805 181.528 846.68C181.528 844.629 185.532 836.133 187.485 834.375C188.559 833.398 191.782 829.102 194.809 824.805C200.376 816.895 201.548 816.211 206.235 817.969C208.188 818.75 209.067 818.457 210.923 816.504C213.95 813.281 215.122 813.574 217.27 818.262C219.419 822.949 221.079 823.926 221.86 820.996C222.837 817.09 225.376 817.578 230.454 822.559C233.97 825.977 235.239 828.027 235.239 830.078C235.239 833.691 237.583 838.281 241.88 842.676C244.712 845.703 245.493 847.363 246.177 852.344C247.055 859.18 249.399 864.551 253.989 870.605C256.626 874.121 257.114 875.586 256.919 879.395C256.821 882.617 257.407 885.156 258.97 887.891L261.216 891.797L266.977 891.504C272.348 891.113 273.227 890.82 277.231 886.816C280.649 883.496 282.407 882.52 284.946 882.52C286.704 882.52 288.852 882.129 289.829 881.641C292.368 880.273 304.673 884.375 309.458 888.281L313.364 891.406L317.173 889.453C319.223 888.379 328.403 885.645 337.485 883.398L353.891 879.297L365.317 870.215L376.645 861.133L385.63 864.062C393.93 866.895 394.614 866.992 396.274 865.527C397.837 864.062 399.497 863.965 407.895 864.551L417.661 865.234L425.278 875.488L432.895 885.742L439.438 885.156C445.688 884.668 446.47 884.277 456.333 877.246C463.657 872.07 467.661 869.824 469.614 869.824C473.227 869.824 474.887 866.992 474.106 862.012C473.618 858.887 474.009 857.715 476.841 854.004C478.696 851.562 481.626 849.023 483.286 848.34C486.02 847.168 486.899 847.266 490.903 849.316C493.442 850.488 497.934 852.539 500.864 853.711C506.04 855.664 506.528 855.762 512.973 854.297L519.712 852.93L522.934 845.801C525.18 841.113 526.255 837.207 526.255 834.277C526.255 831.934 526.548 829.199 526.841 828.32C527.231 827.441 530.942 824.805 535.141 822.363C541.782 818.555 542.856 817.48 542.856 815.234C542.856 813.184 544.126 811.719 549.497 807.812C555.259 803.516 556.04 802.539 556.333 799.414C556.626 796.289 557.016 795.801 559.751 795.215C561.411 794.922 563.852 793.945 565.122 793.066C567.368 791.602 567.466 791.211 566.782 783.301C566.098 775.293 566.196 774.902 568.735 771.582C570.2 769.629 576.059 764.355 581.723 759.961C590.61 752.93 592.661 751.66 596.958 751.172C601.841 750.488 620.298 743.652 622.739 741.699C623.325 741.113 623.911 739.648 623.911 738.477C623.911 733.496 624.79 733.008 628.891 735.742C630.942 737.109 632.895 738.965 633.188 739.844C633.481 740.723 637.29 743.457 641.587 745.996C647.739 749.707 650.376 750.684 653.696 750.684C657.895 750.684 658.188 750.488 664.927 742.383C668.735 737.793 671.958 734.082 672.055 734.082C672.153 734.082 675.376 733.203 679.087 732.129C682.895 731.055 689.536 729.785 693.93 729.199L701.938 728.32L714.438 733.984L726.938 739.648L727.622 743.848C728.794 750.586 731.626 751.367 738.559 746.875C741.977 744.727 744.712 743.945 750.473 743.457L757.993 742.773L763.169 747.852L768.247 752.832L778.794 751.855C784.653 751.27 794.321 749.805 800.18 748.438C806.137 747.07 813.657 745.703 816.88 745.41L822.837 744.922L824.594 749.219C825.473 751.66 826.45 753.613 826.743 753.613C827.036 753.613 830.161 751.953 833.774 750C840.024 746.68 840.708 745.801 846.86 735.938C850.473 730.176 853.403 724.414 853.403 723.047C853.403 720.996 854.184 720.312 857.7 719.141L861.899 717.676L870.102 727.93L878.305 738.184L882.212 737.598C887.094 736.816 892.466 731.348 892.466 727.051C892.466 725.586 892.466 724.023 892.563 723.535C892.661 722.656 890.708 721.68 887.583 720.996C885.727 720.605 884.653 719.336 883.286 715.82C882.309 713.281 880.259 708.691 878.794 705.762C877.231 702.734 875.766 698.73 875.376 696.777C874.692 693.359 874.985 692.969 880.942 687.207C887.192 681.152 887.387 681.055 893.149 682.812C895.688 683.594 895.786 683.203 897.348 669.727C898.13 663.086 898.13 660.254 897.348 659.277C895.981 657.715 897.934 647.656 899.985 645.605C900.766 644.922 902.915 644.043 904.77 643.652C907.602 643.164 908.481 642.383 909.751 639.258C911.802 634.082 915.024 633.301 918.833 636.914C921.665 639.551 921.762 639.648 923.618 637.988C926.645 635.254 932.798 634.375 949.692 634.082L965.512 633.887L970.591 629.492L975.766 625L975.571 614.453C975.376 605.859 974.887 602.832 973.032 598.145L970.688 592.48L975.571 587.207C981.04 581.152 981.528 578.613 978.012 573.145C976.548 570.898 975.18 566.602 974.399 562.012C973.13 554.59 973.227 554.395 975.376 552.051L977.622 549.609L974.985 541.602C972.348 533.691 972.348 533.496 974.009 530.273C975.473 527.637 975.669 525.684 975.18 519.043C974.594 511.426 974.399 510.938 971.079 508.301L967.661 505.469V492.383C967.661 479.688 967.661 479.395 970.102 477.832C971.372 476.953 973.813 476.27 975.473 476.27C978.403 476.27 978.794 475.781 984.458 463.77C988.755 454.59 991.587 450.098 995.2 446.387L999.985 441.406L993.344 426.855L986.606 412.305L979.575 411.426C972.837 410.645 972.544 410.449 972.544 407.91C972.544 406.25 970.298 402.051 966.196 396.387C961.313 389.551 959.848 386.719 959.848 384.18C959.848 382.227 957.7 375.781 955.161 369.629C950.376 358.594 950.376 358.594 946.86 358.301L943.247 358.008V351.172C943.247 344.824 942.954 343.75 939.145 337.305L934.946 330.273L934.458 313.672C934.067 304.492 933.384 295.703 932.7 294.141C932.114 292.48 931.333 289.551 931.04 287.5L930.454 283.887H922.837H915.122L910.532 278.516L905.942 273.145L903.208 275.488L900.376 277.734L891.098 275.586C882.895 273.633 881.04 272.852 876.548 268.945C872.055 265.039 870.786 264.551 865.122 263.965C855.552 262.891 852.524 261.621 845.2 255.469C839.927 250.977 837.485 249.609 833.969 249.121C830.259 248.535 827.817 246.973 818.735 239.453C812.876 234.57 806.43 229.59 804.477 228.418C802.524 227.246 799.009 224.219 796.665 221.68C792.856 217.48 792.173 216.016 790.512 208.398L788.657 199.707L782.7 196.777L776.743 193.848L770.981 181.641C765.903 171.191 764.731 169.336 761.899 168.164C759.36 167.09 757.895 165.234 754.673 158.691C750.864 150.977 750.18 150.195 743.344 145.801C737.876 142.188 713.364 123.047 707.602 117.871C707.212 117.578 707.602 115.527 708.384 113.477C709.751 110.449 709.751 109.57 708.677 108.594C707.7 107.617 705.356 108.301 696.958 112.305Z" fill="black"/>
<circle cx="376" cy="330" fill="#5CE50D"/>
<circle cx="683" cy="239" fill="#E52A0D"/>
<circle cx="376" cy="773" fill="#E52A0D"/>
<circle cx="782" cy="530" fill="#E52A0D"/>
</svg>
