<svg width="1000" height="1000" viewBox="0 0 1000 1000" fill="none" xmlns="http://www.w3.org/2000/svg">
<rect width="1000" height="1000" />
<path d="M540.843 0.956299C538.695 1.83521 537.914 3.30005 537.914 7.2063C537.914 9.55005 537.23 11.3079 535.863 12.5774C531.273 16.7766 529.613 25.2727 533.129 27.4211C536.156 29.3743 535.277 33.5735 531.566 34.7454C527.562 36.0149 520.336 41.093 520.336 42.5579C520.336 43.2415 518.773 44.6086 516.722 45.6829C513.011 47.7336 510.57 52.0305 510.57 56.425C510.57 58.0852 512.816 61.4055 517.406 66.679C523.363 73.4172 524.144 74.6868 523.265 76.4446C521.996 78.886 520.238 78.886 515.453 76.4446C513.304 75.3704 510.961 74.4915 510.179 74.4915C509.3 74.4915 508.617 73.3196 508.421 71.2688C508.226 68.6321 507.347 67.7532 503.539 65.7024C499.046 63.3586 498.949 63.3586 495.433 65.0188C493.285 65.9954 489.574 66.679 485.961 66.679C479.125 66.679 477.855 67.3625 466.722 78.2024C456.078 88.3586 453.539 90.5071 451.976 90.6047C451.195 90.6047 450.414 91.5813 450.218 92.7532C449.925 94.511 449.242 94.9993 447.093 94.9993C445.336 94.9993 443.871 95.7805 442.796 97.4407C440.941 100.273 437.132 102.421 432.25 103.3C430.394 103.691 427.171 105.351 425.121 107.011L421.507 109.941L421.898 118.437C422.191 124.198 422.875 128.105 424.242 130.839C426.488 135.234 426.097 136.406 420.336 142.558C417.699 145.488 417.503 145.976 418.48 149.101C419.652 152.812 419.359 153.593 416.625 153.593C415.453 153.593 413.5 155.644 411.156 159.452C408.324 164.042 407.054 165.312 405.101 165.312C403.05 165.312 402.269 166.191 400.511 170.683C397.875 177.031 397.679 179.277 399.828 181.034C402.171 182.988 404.125 187.382 404.125 190.605C404.125 192.265 402.855 195.781 401.195 198.32C399.632 200.956 398.265 203.593 398.265 204.179C398.265 204.863 397.191 206.034 395.824 206.913C394.457 207.792 393.382 209.355 393.382 210.331C393.382 211.308 392.503 212.577 391.429 213.163C390.257 213.749 388.402 216.581 387.132 219.413C385.863 222.343 384.398 224.882 383.812 225.273C383.226 225.566 380.98 231.327 378.734 238.066C376.488 244.804 374.144 250.273 373.461 250.273C372.875 250.273 370.629 249.394 368.48 248.32C366.332 247.245 363.011 246.366 361.058 246.366C358.226 246.366 357.25 245.878 356.761 244.413C355.98 241.972 349.828 241.679 346.898 243.925C344.066 246.073 342.113 245.683 338.89 242.46C336.449 240.116 335.472 239.726 333.617 240.409C330.98 241.386 331.078 242.753 333.91 249.589C336.058 254.667 337.816 266.386 336.644 267.558C335.57 268.73 333.617 280.156 333.421 286.503C333.226 293.827 331.761 295.585 326.488 294.706L322.386 294.12L321.703 302.226C320.629 313.456 320.921 318.046 322.679 326.152C324.828 335.429 323.656 338.847 318.089 339.726C314.476 340.312 314.281 340.507 314.281 343.925C314.281 345.878 313.89 347.929 313.5 348.613C312.328 350.468 307.933 348.906 305.98 345.878C304.32 343.437 303.441 343.046 300.609 343.241C297.386 343.534 297.191 343.73 297.484 346.757C297.582 348.515 296.996 350.956 296.214 352.128C294.554 354.57 294.261 367.558 295.628 376.445C296.898 383.671 296.019 388.945 293.773 388.945C292.796 388.945 291.527 388.359 290.941 387.577C290.257 386.796 288.695 385.917 287.425 385.624C286.058 385.234 284.984 384.355 284.984 383.573C284.984 381.913 281.078 380.741 278.343 381.523C277.367 381.913 275.609 382.988 274.535 383.964C272.777 385.624 272.582 386.503 273.363 390.312C273.851 392.753 273.949 395.39 273.754 395.976C273.461 396.659 274.73 402.031 276.586 407.988C279.515 417.851 280.101 418.827 283.128 420.39C285.277 421.562 287.132 423.71 288.597 426.738C289.867 429.277 291.722 432.206 292.796 433.378C293.871 434.452 295.238 436.894 295.824 438.749C299.242 448.515 304.613 452.616 308.812 448.613L311.058 446.464L312.718 449.003C313.695 450.566 313.89 451.445 313.207 451.445C311.839 451.445 313.011 463.945 314.476 465.8C316.234 468.046 317.113 467.167 317.406 462.87L317.699 458.769L320.531 461.698C322.875 464.238 323.265 464.335 322.679 462.48C322.289 461.308 322.289 459.257 322.679 457.89C323.168 455.741 323.851 455.351 326.586 455.351C332.152 455.351 333.812 457.988 333.812 466.581C333.812 473.71 333.91 473.906 336.156 473.906C337.718 473.906 338.793 473.222 339.183 472.05C339.964 469.609 343.48 465.116 344.652 465.116C346.019 465.116 345.726 467.656 344.066 469.023C341.722 470.976 342.308 472.734 345.531 473.417C348.168 474.003 348.461 474.394 348.461 477.812C348.461 480.546 348.949 481.718 350.218 482.109C351.097 482.402 353.246 483.769 354.808 485.136L357.738 487.675L354.32 486.991C352.464 486.698 350.218 485.722 349.339 485.038C347.289 483.281 344.554 484.257 344.554 486.796C344.554 487.87 345.629 490.019 346.996 491.679C348.363 493.241 349.437 495.39 349.437 496.366C349.437 498.027 349.828 498.124 352.464 497.148C354.027 496.562 355.589 496.366 355.882 496.659C356.761 497.538 354.32 501.249 352.855 501.249C350.511 501.249 341.918 495.585 340.16 492.851C338.597 490.409 338.5 490.409 336.644 492.07C335.668 492.948 334.789 494.218 334.789 494.706C334.789 495.195 336.742 497.831 339.183 500.37C342.015 503.398 343.578 505.937 343.578 507.597C343.578 508.964 344.359 510.722 345.336 511.503C346.214 512.284 349.046 514.726 351.488 516.874C353.929 519.023 356.761 520.78 357.738 520.78C359.3 520.78 359.398 519.999 358.812 512.968C358.421 508.671 358.421 505.155 358.91 505.253C361.254 505.644 362.132 504.863 362.23 502.421C362.328 499.98 362.425 499.98 363.304 503.202C364.574 507.597 364.671 510.527 363.695 515.507C363.109 518.73 363.402 519.902 364.867 521.757C366.429 523.71 367.015 523.905 368.285 522.929C370.14 521.366 371.312 522.929 370.531 526.054C370.14 527.616 370.629 528.886 371.898 530.058C372.972 531.034 373.851 532.89 373.851 534.159C373.851 536.991 375.121 539.53 379.027 544.511C381.761 548.027 381.859 548.32 380.199 550.077C378.539 551.933 378.539 552.128 380.98 554.374C383.617 556.816 385.277 563.749 384.203 568.046C383.91 569.413 384.007 570.78 384.593 571.073C385.082 571.366 385.57 573.515 385.57 575.859C385.57 578.105 386.058 580.448 386.742 581.132C387.425 581.816 388.011 586.405 388.207 593.046C388.402 601.64 388.207 603.984 387.035 604.374C386.253 604.667 385.961 605.546 386.253 606.425C386.644 607.304 386.156 608.476 385.082 609.257C383.812 610.234 383.128 612.48 382.738 617.558C382.25 622.441 381.566 624.882 380.394 625.761C379.515 626.445 378.734 627.616 378.734 628.495C378.734 631.718 374.828 646.269 373.851 646.562C373.363 646.757 372.875 647.538 372.875 648.417C372.875 649.198 372.289 651.249 371.507 652.909C370.043 656.327 368.773 670.292 369.75 671.757C370.14 672.245 371.214 673.222 372.191 674.003C373.754 675.273 374.437 674.882 378.734 670.683C381.468 668.046 383.617 665.116 383.617 664.14C383.617 663.066 384.691 661.894 386.058 661.405C387.425 660.917 389.671 659.257 390.941 657.792L393.285 655.058L393.382 658.476C393.382 661.601 392.699 662.577 386.546 667.753C382.836 670.976 379.711 673.905 379.711 674.198C379.711 674.589 379.418 675.566 379.125 676.347C378.832 677.226 379.418 678.007 380.882 678.3C382.543 678.788 383.812 678.202 385.863 676.054C389.086 672.636 389.867 672.343 388.988 675.077C388.597 676.445 388.89 677.226 389.964 677.616C390.843 678.007 392.015 679.277 392.503 680.546C393.675 683.671 395.921 683.476 397.777 680.253C398.558 678.691 400.316 676.152 401.683 674.589C403.734 672.148 404.32 671.855 405.101 673.124C405.785 674.198 405.296 675.175 403.148 677.03C400.121 679.472 399.144 683.866 401.488 683.866C402.269 683.866 403.832 684.941 405.003 686.21C406.371 687.577 407.933 688.359 409.007 688.066C410.961 687.577 413.89 681.327 413.89 677.616C413.89 675.175 417.308 670.195 418.968 670.195C419.554 670.195 419.554 670.78 418.773 671.659C416.918 673.808 418.187 684.745 420.433 686.405C421.898 687.48 422.289 687.382 422.582 686.015C422.777 685.136 423.851 683.476 425.121 682.304C426.293 681.23 427.66 678.398 428.05 675.956L428.929 671.659L429.32 675.859C429.515 678.886 429.125 680.644 427.66 682.499C426.097 684.452 425.902 685.527 426.586 686.894C428.05 689.53 429.125 689.921 433.714 689.238C437.132 688.652 438.402 687.773 441.332 684.062C443.187 681.523 446.41 676.542 448.461 672.929C452.367 665.702 455.492 663.359 461.156 663.359C463.89 663.359 465.648 662.382 469.554 658.964C472.289 656.523 475.121 654.57 475.902 654.57C478.148 654.57 478.539 652.812 476.976 650.468C476 649.101 475.414 646.171 475.414 643.046C475.414 640.214 474.925 636.991 474.437 635.917C473.656 634.452 473.754 634.062 474.73 634.062C475.609 634.062 476.293 635.429 476.683 637.773C477.953 646.757 480.882 649.394 488.5 648.32C496.312 647.148 501.586 642.655 506.859 632.597C510.961 624.98 511.449 623.32 510.961 619.902C510.57 617.753 510.082 615.605 509.789 615.019C509.496 614.53 509.105 610.82 509.007 606.718C508.714 599.589 508.812 599.491 510.375 601.835C511.254 603.202 514.086 606.23 516.625 608.573C519.261 610.917 521.312 613.456 521.312 614.042C521.312 614.726 521.898 615.8 522.679 616.386C523.461 616.972 524.242 619.999 524.437 623.32C524.73 626.835 525.511 629.765 526.488 630.937C527.367 631.913 528.148 633.671 528.148 634.745C528.148 635.82 529.515 637.87 531.078 639.238C532.738 640.702 534.007 642.851 534.007 644.12C534.007 648.417 535.277 649.101 539.964 647.636C544.164 646.269 550.609 646.269 550.609 647.538C550.609 647.929 549.828 649.198 548.851 650.468C547.289 652.519 546.8 652.616 544.457 651.542C542.406 650.566 541.527 650.663 540.257 651.738C538.207 653.495 538.988 660.038 541.625 662.675C544.066 665.116 545.726 664.14 545.726 660.331C545.726 657.988 546.117 657.402 547.484 657.695C550.316 658.183 550.023 662.284 546.8 667.46C545.14 670.097 543.773 672.831 543.773 673.515C543.773 674.101 546.019 676.835 548.656 679.472C555.492 686.21 556.761 690.8 555.687 704.765C555.004 714.14 555.101 715.409 556.566 716.191C557.445 716.679 558.714 718.339 559.203 719.902C559.984 722.245 559.886 723.027 558.714 724.101C557.445 725.077 557.347 726.738 557.836 733.476C558.617 743.241 559.886 745.683 563.304 744.999C565.746 744.609 565.746 744.609 565.941 751.542C566.136 759.159 567.699 764.53 571.41 770.39C574.535 775.468 575.023 778.398 573.656 782.402C572.386 786.113 573.656 797.05 576.293 804.472L577.66 808.378L578.734 804.96C579.32 803.105 580.101 799.198 580.394 796.269C581.175 790.312 582.836 791.191 582.836 797.734C582.836 800.859 583.421 802.226 585.863 804.57C589.281 807.695 593.578 816.386 593.578 819.999C593.578 825.077 594.75 828.398 596.605 828.398C597.777 828.398 598.656 829.374 599.046 831.132C599.437 832.597 600.218 834.452 600.902 835.234C602.269 836.796 602.953 840.898 603.832 850.859C604.32 857.304 603.148 865.019 601 869.413C600.316 870.78 600.121 872.929 600.414 874.296C600.804 875.663 600.707 877.226 600.218 877.909C597.777 880.937 602.269 884.745 605.004 882.011C605.589 881.425 606.859 881.132 607.738 881.327C609.203 881.62 609.203 881.913 607.25 884.257C605.296 886.796 605.296 887.089 606.664 889.14C607.543 890.312 608.226 892.07 608.226 893.046C608.226 895.683 603.734 895.292 601.195 892.363C600.023 890.995 598.558 889.921 597.972 889.921C596.41 889.921 593.578 893.144 593.578 894.999C593.578 897.636 597.875 900.663 601.683 900.663C604.613 900.663 605.296 901.054 605.296 902.519C605.296 903.593 604.808 904.765 604.32 905.058C602.66 906.034 603.246 907.109 605.882 908.378C608.812 909.648 611.742 909.062 612.523 906.913C613.011 905.741 613.304 905.741 614.867 907.206C616.527 908.866 616.429 908.964 613.89 910.136C610.961 911.405 610.375 914.14 612.132 918.73C612.914 920.878 612.718 921.855 611.156 923.808C609.3 926.152 609.3 926.542 610.668 928.593C612.718 931.718 612.523 935.527 610.179 938.456C607.738 941.581 607.64 944.218 609.984 945.585C611.546 946.562 611.546 946.562 609.984 947.538C609.007 948.124 608.226 949.491 608.226 950.468C608.226 951.737 607.054 952.909 604.808 953.788C602.562 954.765 601.39 955.937 601.39 957.206C601.39 960.331 600.316 962.089 598.851 961.503C596.898 960.82 596.996 969.023 598.949 976.737C600.414 982.304 600.414 982.792 598.461 986.601L596.41 990.507L599.437 994.902C603.441 1000.66 604.125 1000.96 604.906 996.855C605.296 994.609 606.664 992.46 608.812 990.702C611.156 988.749 612.328 986.698 613.109 983.183C613.695 980.546 614.671 977.714 615.355 976.933C616.039 976.152 616.527 972.734 616.527 969.316C616.527 963.163 616.625 962.87 620.14 960.038C622.191 958.476 624.73 955.155 625.707 952.812C626.781 950.468 628.148 948.515 628.734 948.515C630.492 948.515 637.425 940.409 638.109 937.48C638.402 936.015 640.355 932.792 642.406 930.448C644.457 928.105 646.898 924.101 647.777 921.464C648.656 918.925 649.925 915.605 650.414 914.042C651 912.577 651.976 911.405 652.66 911.405C653.832 911.405 659.984 905.155 659.984 903.984C659.984 903.788 659.3 902.421 658.421 901.152C657.543 899.882 656.957 897.538 657.054 896.073C657.445 890.605 656.957 888.945 654.32 885.82C650.707 881.523 646.605 866.679 648.265 863.554C650.023 860.331 648.558 857.89 644.261 856.523C639.867 855.253 633.812 849.003 633.031 844.999C632.836 843.632 631.957 840.605 631.078 838.163C628.246 830.058 628.246 828.593 631.078 827.323C634.496 825.761 634.984 823.32 633.617 814.628C632.933 810.624 632.152 804.96 631.664 802.03C631.273 799.101 629.613 794.12 627.953 791.093C626.293 788.066 624.632 783.964 624.242 782.011C623.949 780.155 623.265 778.593 622.875 778.593C622.386 778.593 619.261 776.152 615.843 773.222C612.425 770.292 607.836 767.07 605.492 766.191C601.879 764.823 601.293 764.238 600.804 760.82C600.121 756.62 597.093 752.226 595.043 752.226C594.261 752.226 593.089 751.249 592.504 750.077C591.82 748.808 589.671 745.976 587.621 743.73C584.203 740.019 583.812 739.042 583.812 734.452C583.812 730.839 583.226 728.495 581.859 726.835C579.613 724.003 579.613 723.613 580.882 718.827C581.761 715.702 582.347 715.214 585.668 714.628C588.695 714.14 589.671 713.456 590.16 711.503C590.648 709.257 591.039 709.062 594.652 709.55C598.168 710.038 598.656 709.843 599.535 707.499C600.218 705.644 600.316 702.812 599.632 698.515C598.461 691.288 599.144 673.222 600.609 671.366C601.195 670.683 603.832 670.195 606.761 670.195H611.937L614.379 662.968L616.82 655.741L614.183 653.202C610.668 649.882 609.496 649.98 607.543 654.081C605.296 658.769 603.636 658.378 602.757 653.105C602.464 650.663 600.414 645.878 598.363 642.46C594.945 636.796 594.652 635.917 595.629 633.183C597.972 626.542 594.75 621.171 587.718 619.706C585.57 619.316 584.593 618.437 584.203 616.581C583.812 615.214 581.468 611.796 578.929 609.159C576.39 606.425 573.558 602.909 572.777 601.347C571.898 599.687 566.82 594.023 561.449 588.652C555.98 583.28 551.586 578.202 551.586 577.226C551.586 576.249 552.367 573.905 553.246 572.05C554.906 568.632 554.906 568.339 553.246 565.507C552.367 563.945 551.586 561.698 551.586 560.527C551.586 559.355 550.707 556.913 549.632 555.155C548.07 552.616 547.093 552.03 544.359 552.03C540.648 552.03 537.914 549.296 537.914 545.585C537.914 544.511 537.035 542.753 535.961 541.777C534.203 540.116 533.226 537.382 534.496 537.382C534.789 537.382 536.742 538.261 538.793 539.335C542.504 541.191 542.601 541.191 544.261 539.335C545.433 537.968 546.703 537.675 549.144 538.066C551.683 538.456 552.562 538.163 553.929 536.308C554.808 535.038 555.492 532.499 555.492 530.546C555.492 528.593 556.175 526.054 557.054 524.882C557.836 523.71 558.129 522.734 557.738 522.734C557.25 522.734 555.394 521.366 553.539 519.706L550.218 516.679L553.246 515.409C556.664 513.945 560.179 506.523 558.91 503.495C557.152 499.491 559.886 483.671 562.425 483.671C564.476 483.671 569.164 478.398 569.75 475.273L570.336 471.952L576.879 475.37C582.543 478.398 583.91 478.691 586.254 477.812C587.718 477.226 590.453 477.031 592.308 477.421C594.945 477.909 596.312 477.616 598.558 475.956C602.66 472.929 608.714 470.976 614.183 470.976H618.871L619.457 465.312C619.75 462.284 620.531 458.671 621.214 457.304C622.386 454.96 622.972 454.863 630.785 454.765C641.039 454.667 644.75 452.812 644.066 448.124C643.871 446.464 643.382 444.316 642.894 443.339C642.308 441.874 642.894 441.679 648.168 441.679C653.05 441.679 655.101 441.093 660.179 438.359L666.136 434.941L670.824 437.284L675.414 439.628L677.074 430.937C678.734 422.245 678.832 422.05 683.421 418.73C687.425 415.8 688.89 415.312 693.382 415.312C697.484 415.312 699.144 414.823 700.414 413.456C702.074 411.601 702.074 411.503 698.656 410.917C695.629 410.331 695.14 409.843 695.14 407.402C695.14 405.546 695.629 404.57 696.605 404.57C698.461 404.57 702.953 397.929 702.953 395.097C702.953 391.386 704.027 389.921 706.273 390.409C707.836 390.898 710.472 389.042 717.699 382.695L727.074 374.394L725.902 368.73C725.316 365.605 724.339 363.163 723.851 363.261C723.363 363.456 720.14 364.531 716.625 365.702C713.109 366.874 709.691 367.948 709.105 368.046C708.421 368.241 707.836 369.706 707.836 371.269C707.836 375.37 706.957 377.128 704.027 378.593C698.949 381.23 695.433 381.425 693.285 379.277C691.136 377.128 687.816 376.64 685.472 378.105C684.593 378.691 682.64 378.3 679.808 376.933C676.293 375.273 675.609 374.491 675.804 372.441C676.097 370.292 675.511 369.804 672.191 368.632C666.722 366.874 665.941 365.507 667.015 359.843C667.894 354.863 667.601 352.323 665.355 349.491C664.379 348.124 663.597 347.929 662.718 348.613C660.668 350.273 653.929 348.906 653.441 346.855C652.953 345.292 651.976 344.999 646.214 344.999C642.601 344.999 638.402 345.488 636.937 345.976C634.984 346.757 633.421 346.757 631.371 345.878C628.734 344.706 628.539 344.413 629.027 340.702C629.32 338.456 631.175 333.281 633.129 329.081C636.546 321.757 636.644 321.171 635.57 316.484C634.789 312.382 634.789 311.21 635.961 309.941C636.742 309.062 637.816 307.206 638.402 305.644C638.988 304.179 640.062 303.007 640.941 303.007C641.918 303.007 642.406 302.031 642.406 299.687C642.406 297.831 642.699 295.683 642.992 294.804C643.382 293.632 642.992 293.241 641.527 293.241C640.355 293.241 638.109 292.265 636.449 291.093C633.617 289.042 633.421 288.945 632.25 290.507C630.492 292.948 625.707 292.948 620.238 290.605C617.699 289.433 614.769 288.261 613.793 287.968C612.425 287.48 612.23 286.991 613.109 285.429C614.574 282.597 611.839 273.515 608.812 271.562C608.031 271.073 608.129 270.488 609.007 269.609C611.351 267.265 610.375 263.261 606.273 258.866C600.316 252.323 599.925 246.757 605.394 243.925C608.129 242.46 611.839 237.968 611.058 237.089C610.765 236.894 608.91 237.089 606.761 237.577C601.586 238.847 595.824 238.749 593.578 237.577C590.941 236.113 573.558 238.359 568.773 240.702C566.722 241.777 562.718 244.511 559.886 246.855C553.148 252.323 551 253.007 548.363 250.37L546.312 248.417L549.925 243.144C553.636 237.87 554.613 233.085 552.171 232.109C551.39 231.816 551.097 230.741 551.293 229.374C551.879 226.64 550.121 222.929 548.265 222.929C545.336 222.929 544.457 220.195 545.238 213.456C545.921 206.718 547.484 204.277 553.343 200.468C555.394 199.101 555.394 198.71 554.32 195.878C553.343 193.241 553.441 191.679 554.515 187.089C555.98 181.62 556.078 181.425 560.57 180.156C567.308 178.3 573.168 171.073 574.535 163.066C575.218 159.062 576.976 158.378 580.589 160.917C582.64 162.382 582.836 162.187 586.937 154.96C591.039 147.734 591.136 147.636 594.652 147.831C598.07 148.124 601.39 146.562 601.39 144.706C601.39 144.316 599.632 141.874 597.484 139.433C595.336 136.991 593.578 134.55 593.578 134.062C593.578 133.573 595.336 131.523 597.484 129.57C601.976 125.37 602.171 124.687 599.339 123.808C597.875 123.32 597.386 122.538 597.875 121.073C598.168 119.902 599.339 115.409 600.511 111.113C602.66 103.007 602.66 100.077 600.414 85.2336C599.828 81.718 599.242 73.4172 599.046 66.679C598.851 59.9407 598.656 53.6907 598.558 52.7141C598.461 51.5422 597.679 51.054 595.629 51.054C593.578 51.054 592.504 50.468 592.113 49.1008C591.332 46.6594 585.765 46.2688 585.765 48.6125C585.765 49.3938 584.496 51.4446 582.836 53.2024L580.004 56.425L579.906 53.6907C579.906 52.2258 579.125 49.3938 578.05 47.343C577.074 45.3899 576 41.679 575.609 39.2375C575.218 36.6985 574.339 33.8665 573.558 32.8899C572.777 31.8157 572.093 28.9836 572.093 26.5422C572.093 22.8313 571.507 21.3665 569.261 18.925C567.601 17.1672 566.039 14.9211 565.746 13.8469C564.867 11.1125 559.691 8.7688 555.882 9.35474C552.757 9.84302 552.66 9.74536 552.367 6.32739C552.074 3.10474 551.781 2.71411 549.437 2.71411C547.875 2.61646 546.214 2.12817 545.531 1.44458C544.261 0.175049 543.187 0.0773926 540.843 0.956299Z" fill="black"/>
<path d="M337.425 518.533C335.277 518.923 334.789 519.314 335.375 520.583C335.668 521.462 336.254 523.22 336.449 524.392C336.742 525.759 337.718 526.638 338.793 526.638C339.867 526.638 340.648 527.126 340.648 527.615C340.648 528.201 341.82 529.079 343.285 529.665C345.238 530.447 346.214 530.251 347.289 529.177C350.316 526.15 345.824 517.458 341.429 517.947C340.746 518.044 338.89 518.337 337.425 518.533Z" fill="black"/>
<path d="M587.718 860.138C587.23 861.505 586.351 862.579 585.765 862.579C584.496 862.579 584.496 866.192 585.765 866.974C586.351 867.267 586.742 869.122 586.742 870.978C586.742 874.689 586.839 874.786 591.234 873.126C594.457 871.954 595.531 870.099 595.531 865.314C595.531 863.36 595.14 862.774 594.066 863.165C593.089 863.556 592.601 863.165 592.601 861.896C592.601 859.942 590.843 857.696 589.476 857.696C588.988 857.696 588.207 858.771 587.718 860.138Z" fill="black"/>
<path d="M569.554 873.809C568.773 877.13 569.554 877.813 572.679 876.446C575.316 875.177 575.121 874.005 572.093 872.345C570.433 871.466 570.043 871.759 569.554 873.809Z" fill="black"/>
<path d="M575.023 881.032C576.293 883.474 578.246 883.767 577.757 881.423C577.562 880.446 576.683 879.568 575.707 879.372C574.144 879.079 574.047 879.275 575.023 881.032Z" fill="black"/>
<path d="M573.07 905.25C573.07 908.277 574.535 911.207 575.609 910.231C576.488 909.254 575.121 902.613 574.047 902.613C573.461 902.613 573.07 903.785 573.07 905.25Z" fill="black"/>
<path d="M585.472 904.179C584.691 905.546 581.859 917.265 581.859 919.316C581.859 922.636 584.593 921.269 586.742 916.777C588.304 913.554 588.695 911.601 588.207 909.257C587.328 905.253 586.156 903.105 585.472 904.179Z" fill="black"/>
<path d="M592.601 908.671C592.601 911.503 592.992 914.335 593.382 915.019C594.066 916.093 599.437 918.632 599.925 918.046C600.023 917.851 600.414 915.019 600.707 911.601C601.195 905.741 601.097 905.351 598.754 904.472C593.48 902.519 592.601 903.105 592.601 908.671Z" fill="black"/>
<circle cx="474" cy="499" fill="#5CE50D"/>
<circle cx="516" cy="140" fill="#E52A0D"/>
<circle cx="318" cy="439" fill="#E52A0D"/>
<circle cx="612" cy="858" fill="#E52A0D"/>
</svg>
