<svg width="1000" height="1000" viewBox="0 0 1000 1000" fill="none" xmlns="http://www.w3.org/2000/svg">
<rect width="1000" height="1000" />
<path d="M346.629 255.579C344.286 262.122 341.454 264.954 336.278 265.93C333.348 266.516 332.567 267.298 331.004 271.009C328.368 277.063 327.391 278.235 325.34 277.161C322.801 275.794 319.872 278.821 318.407 284.387C317.723 287.024 316.258 290.442 315.282 291.907C313.133 295.032 313.036 300.208 315.086 302.551C315.965 303.528 316.844 305.579 317.04 307.141C317.528 311.438 321.043 318.86 323.192 320.227C324.95 321.301 325.047 322.083 324.559 327.844C323.875 334.485 319.579 343.469 316.942 343.469C316.258 343.469 314.598 344.348 313.329 345.423C311.473 346.79 310.008 347.18 307.469 346.79C303.856 346.204 300.829 348.059 300.829 350.891C300.829 352.454 295.262 355.188 292.235 355.188C291.258 355.188 289.793 354.114 289.11 352.747C288.329 351.38 285.594 348.938 282.86 347.278C278.172 344.348 277.879 344.348 274.852 345.716C272.118 347.083 271.629 347.083 271.141 345.813C270.848 345.032 269.676 344.446 268.602 344.446C267.43 344.446 264.989 343.274 263.133 341.907C260.497 339.856 259.129 339.466 256.688 339.954C254.54 340.344 253.075 340.051 251.805 338.88C250.34 337.512 249.657 337.512 247.704 338.587C246.239 339.368 243.993 339.563 241.551 339.173C239.5 338.782 235.692 338.196 232.958 337.903C227.391 337.317 225.926 336.438 225.438 333.411C225.145 331.555 224.364 331.165 219.286 330.774C214.11 330.383 213.426 329.993 213.133 328.04C212.938 326.868 211.961 325.403 210.887 324.915C209.227 324.036 209.032 322.766 209.032 314.661C209.032 309.094 208.641 305.286 207.958 304.798C207.372 304.505 203.563 303.821 199.364 303.333C195.262 302.844 190.379 301.868 188.524 301.184C182.665 298.743 175.438 296.594 173.583 296.594C171.532 296.594 170.262 293.958 171.727 292.493C173.192 291.028 171.434 287.805 169.09 287.805C168.114 287.805 166.551 288.684 165.575 289.758C163.036 292.493 162.059 292.2 158.348 287.317C154.637 282.337 153.661 281.946 152.489 285.266C151.219 288.489 148.875 289.075 141.942 287.708C136.473 286.633 135.692 286.633 133.25 288.391C131.883 289.368 129.735 290.735 128.661 291.419C127.586 292.005 126.415 293.079 125.926 293.762C125.34 294.739 122.997 295.032 117.43 294.739C111.375 294.544 109.52 294.837 108.543 296.008C107.762 296.887 106.2 297.571 104.93 297.571C103.661 297.571 102.196 298.45 101.61 299.524C100.926 300.891 99.5591 301.477 97.313 301.477C95.5552 301.477 91.9419 302.161 89.3052 302.942C86.6685 303.723 83.5435 304.407 82.3716 304.407C81.1997 304.407 79.6372 305.286 78.856 306.458C77.8794 307.727 75.9263 308.704 73.0942 308.997C66.5513 309.876 65.1841 310.95 65.77 314.466C66.356 318.762 65.6724 320.032 63.0356 320.032C61.7661 320.032 59.52 320.52 58.1528 321.204C56.2974 322.083 55.4185 322.083 54.5396 321.204C52.6841 319.348 49.8521 319.837 49.8521 321.887C49.8521 324.719 42.7231 326.38 41.7466 323.645C41.4536 322.766 40.6724 322.766 38.3286 323.548C35.7896 324.524 35.106 324.426 33.6411 322.864C32.3716 321.399 30.6138 321.008 26.2192 321.008C19.188 321.008 17.0396 322.083 16.1606 325.891C15.77 327.454 14.9888 328.821 14.4028 328.821C13.7192 328.821 11.3755 329.602 9.12939 330.481C4.83252 332.337 2.39111 335.657 4.14893 337.415C5.51611 338.782 4.24658 340.54 1.90283 340.54C0.437988 340.54 0.0473633 341.223 0.0473633 344.348C0.0473633 347.571 0.535645 348.45 3.46533 350.403C6.68799 352.649 6.78564 352.747 5.02783 354.7C1.80518 358.216 2.09814 359.387 6.78564 362.903C9.22705 364.758 11.4731 366.712 11.6685 367.298C11.8638 367.786 13.1333 369.251 14.4028 370.423C15.9653 371.79 16.9419 373.938 17.1372 376.38C17.4302 379.309 18.4067 380.969 22.2153 384.485C24.7544 386.926 27.6841 390.051 28.563 391.516C30.4185 394.348 35.4966 396.008 37.5474 394.348C39.2075 392.981 44.9692 394.055 44.9692 395.715C44.9692 396.399 45.8481 398.938 46.9224 401.477C48.9731 405.872 49.4614 406.262 54.7349 406.36C56.688 406.458 57.2739 407.044 57.4692 409.192C57.6646 410.95 58.9341 412.61 61.0825 414.075C64.6958 416.419 65.2817 418.274 65.9653 429.016C66.2583 432.825 67.1372 437.805 67.9185 440.149C68.6997 442.395 69.3833 445.13 69.3833 446.106C69.3833 446.985 70.5552 448.743 72.1177 449.915C75.438 452.551 76.6099 458.704 76.2192 470.911C76.1216 474.036 75.438 475.305 72.8013 477.551L69.481 480.286L70.0669 488.489C70.4575 494.641 70.3599 496.79 69.481 496.79C68.895 496.79 66.1606 498.84 63.4263 501.282C59.6177 504.895 58.2505 507.141 56.7856 511.829C55.1255 517.2 55.1255 517.981 56.395 519.446C57.3716 520.52 57.6646 522.083 57.3716 523.84C56.5903 527.747 59.4224 534.876 61.7661 534.876C62.8403 534.876 65.5747 536.145 67.9185 537.805C70.2622 539.368 73.2896 540.735 74.6567 540.735C76.0239 540.735 77.2935 541.126 77.6841 541.614C78.7583 543.469 84.3247 545.52 89.9888 546.204C93.2114 546.594 96.8247 547.571 97.9966 548.548C102.098 551.77 109.129 553.723 114.403 553.235C118.211 552.844 120.262 553.137 122.508 554.505C124.168 555.383 127.782 556.555 130.418 556.946C133.153 557.239 137.743 558.801 140.672 560.266C147.704 563.88 163.133 577.844 165.379 582.825C166.356 584.876 168.114 587.122 169.286 587.708C170.458 588.391 172.606 590.344 174.168 592.102C175.633 593.86 179.247 596.692 182.274 598.45C187.157 601.184 188.329 601.477 193.993 601.087C197.411 600.891 200.243 600.989 200.243 601.282C200.243 601.575 199.364 602.844 198.29 604.212C197.215 605.579 196.336 608.215 196.336 610.071C196.336 612.903 196.922 613.88 199.559 615.54C202.489 617.493 203.172 618.86 206.395 629.7C208.446 636.438 210.008 643.86 210.008 646.497C210.008 650.794 210.692 652.258 216.747 661.145C221.239 667.786 223.68 672.473 224.168 675.11L224.754 679.114L230.711 679.798C239.012 680.676 246.922 680.579 248.875 679.505C250.047 679.016 256.102 680.383 267.625 683.899C280.614 687.805 290.575 690.051 309.129 693.079L333.543 697.18L340.868 695.618C345.36 694.641 349.95 694.251 352.684 694.641C355.321 695.032 357.958 694.837 359.227 694.153C363.133 692.102 378.075 694.544 395.262 700.208L411.083 705.383L415.868 711.731C420.262 717.395 421.336 718.176 427.098 720.13C430.614 721.399 435.594 722.376 438.133 722.376C441.942 722.376 444.872 723.548 454.833 728.821C470.848 737.317 478.758 739.954 488.231 739.954C492.333 739.954 497.313 739.465 499.364 738.88C505.028 737.317 506.59 738.294 506.493 743.176L506.395 747.278L512.645 747.571C516.161 747.766 519.872 748.548 521.141 749.426C523.387 750.891 523.68 750.794 528.368 746.399C531.004 743.958 533.641 741.907 534.325 741.907C534.911 741.907 538.036 740.344 541.258 738.391C552.489 731.555 587.645 715.833 594.579 714.563C598.192 713.88 602.391 712.415 604.051 711.145C608.446 707.923 610.887 707.434 614.208 709.192C616.747 710.462 618.309 710.559 623.583 709.68C627 709.094 631.102 708.215 632.567 707.63C634.032 707.141 636.375 706.946 637.743 707.239C641.942 708.411 659.129 708.02 660.594 706.848C661.473 706.165 663.817 705.969 667.43 706.36C670.75 706.751 673.387 706.653 674.071 705.969C674.754 705.383 677.098 704.7 679.247 704.309C681.493 703.821 685.594 701.77 688.915 699.329C692.625 696.594 695.75 695.032 697.606 695.032C702.098 695.032 712.743 688.587 714.305 684.876C714.989 683.215 716.747 680.774 718.211 679.505C719.579 678.137 720.75 676.575 720.75 675.891C720.75 675.208 723.29 671.204 726.512 666.907C731.004 660.852 733.153 658.801 736.473 657.532C738.817 656.555 742.137 654.505 743.895 652.942C745.75 651.38 747.801 650.11 748.485 650.11C749.168 650.11 750.926 648.352 752.391 646.204C753.758 644.055 756.2 641.712 757.762 640.93C759.325 640.051 760.79 638.391 760.985 637.024C761.668 633.606 756.297 625.794 749.754 620.715C742.137 614.661 739.696 608.508 742.723 603.235C743.504 601.868 744.09 599.036 744.188 596.985C744.188 594.837 745.653 589.758 747.411 585.559C751.415 576.087 754.735 573.938 765.282 573.938C772.02 573.938 772.215 574.036 775.731 577.747C779.833 582.141 780.321 582.337 797.704 583.704L810.79 584.778L814.891 580.969C817.137 578.919 820.75 576.282 822.899 575.012C825.243 573.743 827.586 571.399 828.465 569.544C829.344 567.786 831.981 564.075 834.422 561.34C837.45 558.02 838.915 555.383 838.915 553.626C838.915 551.673 839.891 550.403 842.333 548.743C845.36 546.594 846.043 546.497 849.168 547.571C852.098 548.548 853.465 548.45 856.786 547.278C859.032 546.399 862.84 545.423 865.282 545.13C871.727 544.055 875.926 541.614 878.27 537.219C879.54 535.071 882.665 531.946 885.692 529.895C892.137 525.598 892.918 524.231 891.551 520.325C890.086 516.126 890.965 512.317 894.969 505.676C900.633 496.399 907.665 491.907 916.551 491.907C921.629 491.809 923.875 490.051 923.875 486.145C923.875 479.798 926.61 477.747 931.2 480.774C934.325 482.825 936.375 481.946 937.645 478.235C938.231 476.673 939.305 475.305 940.086 475.305C940.868 475.305 943.407 473.352 945.848 471.008C949.852 467.005 950.243 466.809 952.098 468.176C953.856 469.348 954.833 469.348 957.665 468.469C959.52 467.786 962.059 467.493 963.133 467.786C964.5 468.176 965.282 467.786 965.575 466.419C966.063 464.563 970.555 463.782 972.118 465.247C972.508 465.735 974.657 466.516 976.903 467.005C980.125 467.883 981.883 467.688 985.79 466.321C988.524 465.442 991.942 464.661 993.504 464.563C995.165 464.563 996.141 464.075 996.141 463.098C996.141 462.317 997.02 461.243 998.094 460.657C1000.93 459.192 1000.54 455.383 996.825 447.962C994.09 442.493 992.723 440.93 986.864 437.024C983.055 434.485 978.563 431.067 976.708 429.407C974.754 427.649 972.313 426.477 970.75 426.477C968.407 426.477 967.918 425.989 967.43 423.255C966.844 420.032 966.649 419.934 960.301 419.055C953.954 418.176 953.758 418.079 951.219 413.782L948.68 409.387L940.965 409.094C936.083 408.899 932.372 409.29 930.907 410.071C929.247 410.95 927.977 410.95 925.829 410.169L922.997 409.094L917.528 419.739L912.157 430.286L904.833 426.965C894.676 422.376 889.989 421.79 886.375 424.817C883.836 426.868 882.958 427.063 879.54 426.282C876.219 425.501 875.34 425.696 874.559 426.965C871.727 431.848 868.016 436.243 866.942 436.243C866.356 436.145 863.036 433.997 859.715 431.262C853.954 426.673 853.563 426.184 853.563 422.376C853.563 418.958 854.149 417.59 857.079 414.661L860.692 411.048L859.422 404.798C858.348 398.84 858.446 398.157 860.79 392.298C862.157 388.88 863.329 384.973 863.329 383.606C863.329 382.239 865.965 371.008 869.188 358.606L874.95 336.243L872.899 333.997C871.727 332.727 869.969 331.751 869.09 331.751C868.114 331.751 865.77 330.969 863.915 330.091C860.985 328.723 859.813 328.723 856.59 329.602C854.442 330.286 851.708 332.044 850.438 333.606C848.387 335.95 847.215 336.438 841.063 336.926L833.934 337.512L830.907 334.094C824.071 326.575 814.305 322.766 809.032 325.696C807.469 326.477 806.395 326.477 804.344 325.403C800.926 323.548 798.875 324.426 793.993 329.993C791.747 332.63 789.208 334.68 788.329 334.68C787.352 334.68 782.567 338.587 777.684 343.274C768.797 351.575 768.602 351.966 768.602 356.262C768.602 360.657 768.504 360.755 764.696 362.024C762.547 362.708 760.301 363.88 759.715 364.563C759.032 365.442 757.274 365.637 754.54 365.344C751.219 364.856 749.754 365.149 746.825 367.2C742.43 370.227 732.274 373.743 728.075 373.743C726.415 373.743 724.168 374.426 722.997 375.208C721.825 375.989 720.262 376.38 719.481 376.087C717.723 375.403 712.45 378.04 711.668 379.895C711.083 381.458 699.754 388.391 697.801 388.391C697.02 388.391 694.872 387.708 693.016 386.731C689.989 385.364 689.403 385.266 687.352 386.633C684.422 388.587 670.458 388.782 668.895 386.829C668.211 386.048 666.844 385.755 665.086 386.145C662.938 386.536 661.766 386.145 660.008 384.29C657.079 381.067 653.368 380.188 650.731 382.044C649.559 382.825 647.899 383.215 647.118 382.923C646.239 382.63 642.625 382.825 639.012 383.508L632.469 384.778L627.977 379.895C625.536 377.161 622.411 374.622 620.848 374.329C617.821 373.645 614.305 368.665 614.305 365.149C614.305 358.606 609.032 355.188 598.68 355.188C593.7 355.188 593.407 354.993 586.571 348.45C582.762 344.837 578.661 341.223 577.489 340.637C576.317 340.051 572.118 339.563 568.211 339.661C563.036 339.758 559.715 339.173 555.907 337.708C553.075 336.536 548.875 335.657 546.629 335.657C544.383 335.657 540.77 334.973 538.426 334.094C534.325 332.532 534.227 332.532 531.297 335.071C528.172 337.708 520.067 340.54 515.77 340.54C511.375 340.54 506.883 342.298 503.368 345.325C499.852 348.45 497.02 349.036 492.723 347.376C490.868 346.692 488.915 346.692 486.375 347.473C483.348 348.45 482.274 348.352 480.516 347.083C478.954 346.008 477.684 345.813 476.024 346.399C474.168 347.18 473.485 346.887 472.606 345.13C470.946 342.102 468.7 340.637 465.575 340.54C464.11 340.54 461.278 339.563 459.227 338.294C457.274 337.122 454.735 335.657 453.661 335.071C452.586 334.485 451.61 333.118 451.415 332.141C451.219 330.969 449.852 329.7 448.094 329.016C445.262 327.942 445.165 327.649 445.653 324.036C446.043 321.008 445.75 319.739 444.286 318.469C442.821 317.2 442.723 316.516 443.602 315.442C444.481 314.368 444.481 313.196 443.504 310.559C442.821 308.704 442.137 303.626 442.04 299.426C441.942 295.227 441.454 291.321 440.965 290.833C439.012 288.88 426.122 284.68 422.411 284.68C419.579 284.778 417.43 284.094 414.598 281.946C412.45 280.383 406.883 277.063 402.196 274.622C395.36 271.106 392.625 270.227 388.719 270.227C382.665 270.227 377.684 268.274 375.633 265.149C374.657 263.587 372.02 262.122 368.504 261.048C365.379 260.071 361.766 258.216 360.399 256.848C357.665 254.114 351.024 249.719 349.657 249.719C349.168 249.719 347.801 252.356 346.629 255.579Z" fill="black"/>
<circle cx="556" cy="448" fill="#5CE50D"/>
<circle cx="826" cy="470" fill="#E52A0D"/>
<circle cx="175" cy="418" fill="#E52A0D"/>
<circle cx="673" cy="643" fill="#E52A0D"/>
</svg>
