<svg width="1000" height="1000" viewBox="0 0 1000 1000" fill="none" xmlns="http://www.w3.org/2000/svg">
<rect width="1000" height="1000" />
<path d="M722.34 14.3683C722.34 15.6974 706.961 114.807 706.676 115.091C706.486 115.281 654.938 110.725 591.998 104.934C529.058 99.1428 476.37 94.3962 474.851 94.3962H472.193L465.738 132.084C462.225 152.875 454.821 198.632 449.315 233.852C443.904 269.072 439.347 297.931 439.157 298.026C439.062 298.121 433.176 300.209 426.151 302.583C414.095 306.76 412.956 306.95 406.595 306.475L399.855 305.81L381.153 316.633C363.876 326.506 361.977 327.835 356.756 334.005L351.06 340.745L351.629 355.365C352.104 368.181 351.724 375.491 348.212 412.324C346.123 435.583 344.13 454.854 344.035 454.949C343.845 455.139 296.379 451.626 238.47 447.164C180.656 442.703 126.165 438.621 117.432 438.051C102.812 437.197 100.818 436.817 90.6606 433.304C80.6927 429.887 78.7941 429.507 70.2502 429.507H60.8519L56.8647 436.342C54.6813 440.14 51.1688 447.259 49.1752 452.196C45.9475 459.98 45.4729 461.974 45.4729 468.619C45.4729 476.024 45.4729 476.119 47.6563 475.454C50.5043 474.6 50.1245 475.17 52.5928 466.815C53.732 462.638 56.1053 456.848 57.8141 453.81C61.5164 447.259 61.9911 447.639 64.0796 459.411C66.263 472.037 68.7313 478.682 74.1424 486.941L79.1738 494.536L79.4586 488.935C79.7434 483.808 79.8383 483.429 81.8319 483.998C82.9711 484.283 84.2052 484.568 84.5849 484.568C86.0089 484.568 89.1417 492.162 89.1417 495.675C89.1417 502.795 91.6099 509.82 96.0718 516.18C101.008 523.11 101.673 526.908 98.7299 530.705C97.6856 531.939 96.6413 535.262 96.2616 538.015C95.692 542.192 94.9326 543.521 91.4201 546.748C88.4772 549.501 87.2431 551.4 87.2431 553.204C87.2431 555.102 87.7177 555.767 89.1417 555.767C91.3251 555.767 91.3251 555.957 89.9961 560.988C89.2366 563.741 86.8633 566.969 80.8826 572.95C74.8069 579.12 72.9083 581.684 73.1931 583.297L73.4779 585.386L76.041 583.392C77.7498 582.063 78.7941 581.684 79.1738 582.443C79.5535 583.013 80.6927 583.297 81.6421 583.013C83.2559 582.538 83.2559 582.728 81.9268 584.721C79.9333 587.759 75.6613 589.278 70.7248 588.803L66.6428 588.329L67.4022 592.696C68.8262 600.29 69.0161 600.86 74.5221 608.454C77.56 612.631 80.5029 618.138 81.2623 620.796C82.9711 626.492 83.6356 647.282 83.6356 685.35C83.5407 712.12 83.5407 713.26 80.7877 725.791C78.0346 738.512 77.8448 738.986 68.7313 755.03C63.4151 764.428 57.8141 775.725 55.4407 781.896C53.2573 787.781 48.6056 798.414 45.0931 805.439C39.8719 815.692 37.8783 820.913 35.0303 832.21C33.0367 839.899 31.6128 846.26 31.8026 846.26C32.0874 846.26 33.4165 845.69 34.8404 844.931C38.4479 843.032 41.5806 839.33 46.707 831.071C50.5992 824.615 51.5485 823.761 55.8205 822.147C62.2759 819.869 67.8769 820.818 73.5728 825.185C77.9397 828.507 78.0346 828.507 85.4393 827.938C89.9961 827.558 95.0275 826.419 98.7299 824.9C105.375 822.242 109.647 822.052 126.925 823.476C136.798 824.235 137.937 824.141 140.69 822.527C145.057 819.869 162.05 819.869 170.783 822.527C174.96 823.761 179.707 824.425 185.498 824.425C198.883 824.425 200.592 824.9 203.155 829.552C204.295 831.64 207.712 836.007 210.75 839.14C217.205 846.07 218.25 847.874 218.25 852.715C218.25 856.797 219.389 857.652 225.559 857.652C228.312 857.652 228.977 858.221 230.97 862.303L233.344 866.86L242.647 868.949C247.773 870.183 252.615 871.227 253.374 871.512C254.134 871.702 256.602 873.505 258.786 875.404C262.108 878.442 264.387 882.429 272.456 899.896C277.772 911.383 282.519 921.256 282.993 921.921C283.468 922.49 284.987 923.25 286.411 923.63C287.835 923.914 290.778 926.003 293.056 928.186C296.853 931.889 297.043 932.363 297.043 937.585C297.043 945.369 300.366 951.824 306.157 955.242C316.504 961.413 325.048 968.912 329.605 975.842L334.162 982.772L344.984 984.386L355.806 986L363.686 981.538C368.053 979.07 371.66 976.981 371.755 976.887C371.755 976.887 371.375 973.469 370.711 969.482L369.572 962.077L377.736 946.698C385.9 931.414 385.995 931.224 391.121 928.566C393.874 927.142 397.766 924.389 399.76 922.49L403.178 919.168L407.07 921.826C410.867 924.484 410.962 924.674 410.962 930.275V935.971L426.341 949.641L441.815 963.311L449.979 954.577L458.238 945.939H462.985C467.921 945.939 468.871 945.084 468.871 941.097C468.871 939.483 469.63 939.293 476.086 939.293C479.978 939.293 486.148 938.819 489.661 938.249L496.211 937.3L509.502 942.711L522.792 948.122L537.792 947.268L552.886 946.413L553.171 940.053L553.455 933.692L558.297 930.749C560.86 929.136 563.138 927.901 563.328 928.091C563.423 928.281 562.664 931.224 561.62 934.832C560.575 938.344 559.911 941.382 560.101 941.572C560.48 941.951 838.727 963.121 842.429 963.026C844.138 963.026 845.277 959.419 853.156 930.465C857.903 912.617 861.89 897.428 861.89 896.859C861.89 896.289 858.283 892.871 853.916 889.454L845.942 883.093L845.372 877.303C844.802 870.657 842.524 208.41 842.999 207.935C843.189 207.745 868.82 209.264 899.863 211.258C930.906 213.156 959.006 214.96 962.329 215.15C965.556 215.34 968.214 215.245 968.214 214.96C968.119 214.675 962.898 210.403 956.538 205.467C950.177 200.531 926.159 180.785 903.186 161.703C858.852 124.964 725.568 15.5075 723.574 14.2734C722.909 13.8937 722.34 13.8937 722.34 14.3683Z" fill="black"/>
<circle cx="88" cy="712" fill="#5CE50D"/>
<circle cx="410" cy="500" fill="#E52A0D"/>
<circle cx="88" cy="500" fill="#E52A0D"/>
<circle cx="546" cy="835" fill="#E52A0D"/>
</svg>
