<svg width="1000" height="1000" viewBox="0 0 1000 1000" fill="none" xmlns="http://www.w3.org/2000/svg">
<rect width="1000" height="1000" />
<path d="M114.507 80.8354C114.13 81.1187 113.846 82.1573 113.846 83.1015C113.846 84.0457 112.997 85.2731 112.052 85.8396C109.692 87.0671 102.799 87.0671 102.044 85.8396C101.289 84.6122 87.2202 85.5564 79.1002 87.3504C71.7355 88.9555 65.1261 92.2602 58.4223 97.8309C53.7958 101.513 52.7572 101.985 50.2079 101.419C45.6757 100.286 43.1264 100.569 41.0492 102.457C39.6329 103.779 38.8776 103.874 37.0836 103.024C35.9506 102.457 32.1738 102.08 28.5858 102.174C20.1825 102.552 18.9551 103.779 17.6332 113.599C16.689 119.925 16.7834 121.436 18.0109 123.23C19.5216 125.59 19.8993 129.273 18.5774 129.273C18.1997 129.273 18.0109 130.311 18.2941 131.633C18.5774 133.238 19.3328 133.993 20.749 133.993C21.7877 133.993 23.5816 134.654 24.5258 135.41C25.5644 136.165 27.0751 136.637 27.9249 136.354C28.8691 136.071 30.6631 137.204 32.5515 139.092C35.384 142.019 35.6673 142.774 35.1952 145.985C34.8175 147.873 35.1008 151.083 35.6673 152.972C36.5171 156.088 36.4226 156.843 34.5343 159.676C33.3068 161.375 31.324 163.736 30.0966 164.963C27.3584 167.701 27.1696 172.705 29.8133 175.066C30.9463 176.104 31.7017 177.993 31.7017 179.881C31.7017 182.714 31.9849 182.997 35.5729 183.564C39.1608 184.225 39.3496 184.413 39.0664 187.152C38.7831 189.984 38.4999 190.173 34.7231 190.456L30.7575 190.739V197.821C30.7575 205.469 29.2468 209.623 24.7147 214.533C23.3928 215.949 22.2598 217.649 22.2598 218.215C22.2598 218.688 23.5816 220.859 25.1868 222.842C27.6417 226.052 28.5858 226.524 31.7961 226.524C34.251 226.524 36.6115 227.28 38.4055 228.602C41.1436 230.679 41.3324 230.679 42.4655 229.074C43.4097 227.846 45.1092 227.469 50.3023 227.469C55.1177 227.469 57.2893 227.091 58.1391 226.052C59.6498 224.258 63.7098 224.258 65.6926 226.052C66.5424 226.808 69.4694 227.752 72.302 228.13C76.5508 228.79 77.5895 229.357 78.9113 231.717C80.0444 233.795 81.4606 234.739 84.3876 235.305C86.937 235.777 88.3532 236.627 88.3532 237.477C88.3532 239.837 90.997 240.026 94.4905 237.949C99.0226 235.305 100.817 235.494 97.7008 238.232C96.2845 239.46 94.8682 241.348 94.4905 242.481C94.0184 243.992 93.1686 244.464 90.6193 244.464C87.0314 244.464 86.6537 245.219 89.1086 247.391C89.9584 248.241 91.9412 250.885 93.3575 253.434C95.718 257.399 96.2845 257.872 98.7394 257.494C101.855 257.022 102.422 257.872 101.855 262.026C101.289 265.52 102.611 266.653 105.349 265.236C106.859 264.387 107.426 264.481 107.804 265.614C108.559 267.597 111.769 268.447 113.28 267.219C114.035 266.558 117.434 265.52 120.833 264.859C127.443 263.442 129.142 263.726 137.262 267.219C139.434 268.258 142.078 269.013 142.928 269.013C143.872 269.013 145.099 269.485 145.666 270.052C146.232 270.618 150.953 271.468 156.052 271.846C161.151 272.223 166.721 273.073 168.421 273.64C170.592 274.301 173.142 274.301 176.258 273.734C179.94 272.979 181.734 273.167 184.566 274.301C188.06 275.622 188.343 276.094 188.91 280.438C189.476 284.309 190.043 285.348 192.214 286.481C193.725 287.236 196.652 287.897 198.729 287.897C201.94 287.897 202.884 288.463 205.716 291.863L209.021 295.828L212.703 291.863C215.064 289.313 217.424 287.708 219.596 287.33C221.39 286.953 225.733 284.97 229.227 282.798L235.553 278.927L235.27 274.867C235.081 272.695 234.231 270.052 233.287 269.013C232.343 267.974 231.965 267.125 232.531 267.125C233.098 267.125 234.514 269.107 235.836 271.562C237.725 275.245 238.763 276.189 241.879 277.133C243.956 277.794 247.072 278.927 248.772 279.871C252.171 281.571 254.531 280.627 254.531 277.416C254.531 274.773 255.853 274.489 262.462 275.717L268.6 276.85L273.415 272.507C278.042 268.352 280.969 266.936 280.969 268.919C280.969 269.485 280.591 270.146 280.024 270.429C278.703 271.279 278.891 272.79 280.308 272.79C280.874 272.79 283.896 271.09 286.917 269.013C289.844 266.936 293.149 265.236 294.187 265.236C295.226 265.236 296.076 264.764 296.076 264.292C296.076 263.726 297.114 262.781 298.436 262.215C301.174 260.987 302.024 258.816 301.174 255.417C300.702 253.528 300.136 253.056 298.814 253.434C295.037 254.661 297.492 248.996 301.458 247.391C304.196 246.352 312.788 246.352 314.582 247.58C315.526 248.146 324.874 248.43 341.869 248.524C344.985 248.524 346.968 248.996 347.629 249.94C348.573 251.262 349.234 251.262 352.727 250.224C355.749 249.374 356.976 248.335 357.731 246.258C358.77 243.52 358.864 243.52 364.624 244.086C370.384 244.653 370.478 244.653 373.594 241.443C378.315 236.627 383.036 233.983 385.113 235.117C386.34 235.872 386.718 235.683 386.718 234.739C386.718 233.983 388.04 232.85 389.645 232.19C392.383 231.057 392.478 230.773 391.911 227.091C391.25 222.748 385.019 209.529 383.13 208.301C382.469 207.829 380.392 206.035 378.409 204.147C376.521 202.353 372.555 198.576 369.723 195.933C366.89 193.194 363.019 189.795 361.225 188.285C359.431 186.868 356.882 183.469 355.56 180.825C353.483 176.671 352.727 176.01 350.083 175.727C348.29 175.538 345.929 176.104 344.513 176.954C342.152 178.559 342.058 178.559 338.659 174.877C336.77 172.8 334.41 170.817 333.371 170.439C331.861 170.062 331.388 169.023 331.294 166.285C331.2 164.396 331.105 162.13 330.916 161.375C330.822 160.525 331.011 158.731 331.388 157.221C331.955 154.955 331.483 154.105 328.556 151.272C325.346 148.251 324.59 147.968 320.719 148.44C318.359 148.723 315.998 149.573 315.432 150.422C314.771 151.272 313.543 151.933 312.693 151.933C311.844 151.933 309.483 152.783 307.406 153.822C302.968 156.088 302.685 156.088 302.685 154.388C302.685 153.633 301.174 151.461 299.38 149.478C297.586 147.59 296.076 145.607 296.076 145.229C296.076 144.757 295.226 144.38 294.282 144.38C293.243 144.38 290.977 143.53 289.183 142.491C285.973 140.603 284.84 138.431 284.745 134.466C284.651 132.105 279.175 129.367 275.776 130.028C273.887 130.311 272.66 131.822 270.582 135.882C268.033 140.886 267.561 141.358 263.973 141.925C260.668 142.491 259.347 142.114 255.853 139.942C253.587 138.526 251.699 136.826 251.699 136.26C251.699 134.466 247.45 131.161 243.106 129.745C238.858 128.328 233.759 124.363 233.759 122.569C233.759 122.002 232.909 119.547 231.776 116.998C230.454 113.882 228.944 112.088 227.15 111.333C225.639 110.672 223.75 109.444 222.806 108.406C221.957 107.462 220.163 106.612 218.935 106.612C217.708 106.612 215.725 105.951 214.497 105.196C211.665 103.307 209.776 104.157 207.416 108.123C203.45 114.826 199.957 113.127 199.579 104.44C199.296 98.6807 199.201 98.5863 195.802 96.8867C192.97 95.6593 191.365 95.4704 188.438 96.1313C185.133 96.8867 184.472 96.6979 183.717 95.2816C182.489 93.0155 182.489 89.8997 183.717 89.1443C184.283 88.8611 184.661 87.728 184.661 86.6894C184.661 83.9513 179.846 84.3289 177.107 87.2559L174.936 89.522L173.425 87.5392C171.82 85.5564 167.76 84.5178 157.279 83.3848C154.447 83.1015 150.953 82.4406 149.631 81.9685C148.026 81.3075 146.327 81.4019 144.533 82.0629C142.455 82.8182 141.606 82.7238 140.284 81.5908C138.207 79.7024 134.241 79.7968 132.258 81.6852C130.087 83.9513 122.439 84.0457 119.606 81.874C117.246 80.0801 115.546 79.7024 114.507 80.8354Z" fill="black"/>
<path d="M395.876 272.229C396.537 278.555 395.215 279.593 391.344 275.722C389.739 274.117 387.85 272.795 387.095 272.795C386.34 272.795 385.49 272.134 385.207 271.379C384.829 270.623 383.696 269.962 382.468 269.962C380.863 269.962 379.919 270.907 378.786 273.739C377.936 275.816 376.614 277.516 375.859 277.516C374.821 277.516 374.443 276.477 374.443 273.739C374.443 269.302 373.027 268.829 368.778 271.945C366.7 273.55 365.379 273.834 362.829 273.362C360.091 272.889 359.525 273.078 359.052 274.683C358.769 275.722 359.43 278.083 360.374 280.065C361.319 281.954 362.168 284.881 362.168 286.58C362.168 288.846 362.924 290.168 365.379 292.057C367.173 293.378 368.778 295.456 368.967 296.589C369.155 298.005 369.911 298.76 371.138 298.855C372.177 298.949 373.687 299.232 374.632 299.61C377.181 300.743 375.104 305.653 369.533 311.224C366.889 313.962 364.906 316.417 365.284 316.794C365.567 317.078 367.928 316.889 370.477 316.228C373.027 315.661 377.653 315.284 380.675 315.473C383.79 315.567 386.906 315.284 387.662 314.812C388.417 314.245 392.76 313.867 397.292 313.773C401.73 313.773 405.979 313.301 406.734 312.734C408.717 311.224 416.743 309.524 419.198 310.185C422.691 311.035 425.429 309.807 425.429 307.352C425.429 306.219 426.468 304.237 427.79 303.009C430.056 300.838 431.094 296.4 429.206 296.4C427.979 296.4 423.541 291.49 423.541 290.074C423.541 288.28 414.76 281.293 412.399 281.293C409 281.293 404.657 278.649 404.657 276.572C404.657 274.4 398.425 267.13 396.631 267.13C395.687 267.13 395.498 268.357 395.876 272.229Z" fill="black"/>
<path d="M348.383 285.162C348.1 285.729 346.967 286.012 346.023 285.729C343.19 284.973 343.662 289.411 346.589 291.3C348.856 292.81 349.139 292.716 350.744 291.3C352.443 289.789 352.821 289.789 355.465 291.111C358.958 292.999 359.336 292.999 359.336 291.205C359.336 290.45 358.486 289.317 357.448 288.656C356.409 287.995 355.559 286.956 355.559 286.39C355.559 284.218 349.611 283.274 348.383 285.162Z" fill="black"/>
<path d="M362.168 296.958C362.168 297.808 362.829 298.28 363.773 298.091C366.134 297.619 366.417 295.448 364.151 295.448C363.018 295.448 362.168 296.014 362.168 296.958Z" fill="black"/>
<path d="M466.218 334.351C465.557 335.012 465.085 336.334 465.085 337.278C465.085 338.6 464.708 338.884 463.48 338.411C459.231 336.523 457.06 336.901 454.416 339.639C451.772 342.377 451.772 342.377 453.377 345.776C454.699 348.609 455.549 349.175 458.381 349.458C461.025 349.647 461.781 350.119 461.781 351.63C461.781 352.669 461.12 353.613 460.364 353.707C459.609 353.802 456.871 354.179 454.416 354.463C450.45 355.029 449.695 355.407 448.845 357.862C448.09 360.128 447.429 360.6 444.691 360.6C441.858 360.6 441.197 360.128 440.442 357.862C439.309 354.557 437.609 353.707 434.493 354.935C432.038 355.785 430.15 360.506 430.15 365.415C430.15 368.72 429.489 369.098 426.562 367.587C425.146 366.832 422.219 366.265 420.047 366.265C416.743 366.265 415.987 366.548 415.987 367.965C415.987 369.57 415.515 369.57 409.944 368.814C404.562 367.965 403.524 368.059 400.502 369.853L397.103 371.836L394.365 369.57C391.438 367.02 384.262 366.265 382.374 368.154C380.769 369.759 375.198 365.321 374.254 361.733C373.404 358.617 371.61 358.334 371.61 361.355C371.61 362.205 370.949 364.188 370.194 365.699C368.305 369.287 369.25 370.231 376.426 372.308C383.507 374.291 385.395 376.368 383.885 380.806C382.94 383.733 382.563 384.11 380.958 383.166C377.936 381.561 375.765 382.977 371.138 389.492C367.55 394.402 366.323 395.535 364.151 395.535C362.263 395.535 361.224 396.196 360.469 397.896C359.902 399.217 358.864 400.256 358.297 400.256C357.73 400.256 357.447 400.917 357.73 401.672C358.108 402.428 357.919 403.277 357.447 403.561C356.881 403.938 356.503 404.883 356.503 405.827C356.503 406.771 355.842 408.093 355.087 408.754C354.048 409.604 353.954 410.264 354.615 411.114C355.37 411.964 354.992 412.719 353.198 413.852C351.877 414.702 350.838 416.118 350.838 417.063C350.838 418.857 356.597 424.805 359.997 426.599C363.49 428.393 368.4 427.826 371.421 425.277C374.065 423.106 374.348 423.011 382.563 423.861C387.189 424.333 391.061 424.805 391.249 424.805C391.344 424.805 391.438 425.844 391.438 427.071C391.438 428.299 392.477 430.848 393.799 432.736C396.726 437.08 397.103 442.745 394.365 442.745C391.344 442.745 391.155 444.539 393.799 448.032C396.159 451.148 396.631 451.337 400.314 450.77C403.902 450.204 404.09 450.298 402.296 451.715C397.67 455.208 395.97 457.285 397.198 457.663C400.314 458.607 400.88 459.835 399.369 462.101C397.575 464.839 398.897 467.86 402.391 469.182C403.618 469.654 404.657 470.882 404.657 471.826C404.657 473.714 401.919 476.736 400.125 476.736C398.142 476.736 396.159 479.757 396.159 482.779C396.159 484.478 395.309 487.027 394.271 488.349C393.043 489.954 392.477 491.843 392.666 494.298L392.854 497.98H388.606C386.245 498.074 382.94 498.83 381.335 499.68C378.031 501.379 375.104 506.006 375.576 508.649C375.67 509.499 375.481 510.727 375.104 511.293C374.82 511.86 375.481 513.842 376.614 515.542C378.408 518.186 379.353 518.752 382.468 518.847C384.546 518.941 388.606 519.696 391.533 520.546C395.97 521.868 397.009 522.623 398.331 525.362C399.747 528.289 401.352 529.233 404.09 528.761C404.562 528.666 406.64 528.855 408.528 529.138C412.966 529.894 413.721 531.782 411.644 536.786C410.133 540.374 410.133 540.374 412.683 542.451C414.854 544.151 415.043 544.718 414.193 546.512C412.966 548.778 411.455 548.966 408.056 547.456C405.318 546.134 400.88 547.078 400.88 548.872C400.88 549.533 401.73 551.232 402.768 552.554C404.374 554.632 405.223 554.915 408.15 554.443L411.549 553.876L410.983 557.936C410.605 560.958 410.983 563.035 412.305 565.679C414.571 570.022 414.099 571.155 409.944 571.155C407.678 571.155 405.884 570.305 403.335 567.756C400.786 565.301 399.181 564.451 397.292 564.64C395.876 564.829 394.176 564.64 393.61 564.262C392.854 563.79 391.061 564.451 389.267 565.962C386.056 568.322 386.056 568.417 385.395 578.236C384.734 589.095 385.301 591.361 389.078 592.305C390.494 592.683 391.438 593.532 391.438 594.571C391.438 595.61 392.76 596.931 394.743 597.876C396.914 598.914 398.048 600.142 398.048 601.369C398.048 604.013 400.691 609.111 402.863 610.622C405.318 612.322 405.129 614.21 402.58 614.965C399.181 615.815 391.344 615.626 387.189 614.493C380.486 612.699 377.275 612.416 375.859 613.644C373.782 615.343 375.009 619.214 378.975 623.274L382.28 626.768L379.447 631.3C377.842 633.755 376.237 636.776 375.859 638.004C374.82 641.686 376.992 646.124 381.619 649.617C386.434 653.205 390.305 659.815 393.515 670.106C395.309 675.96 395.593 679.265 395.309 689.557C395.215 692.295 395.781 693.9 397.481 695.694C398.708 697.016 401.73 701.265 404.185 705.041C406.829 709.29 410.039 712.784 412.305 714.2C414.288 715.522 415.987 717.222 415.987 717.882C415.987 720.809 422.03 723.17 431 723.831C436.571 724.209 439.592 724.775 439.592 725.53C439.592 726.097 438.365 727.797 436.759 729.307L433.927 732.045L436.571 733.745C437.987 734.689 440.347 735.444 441.858 735.444C443.746 735.444 446.013 736.861 449.884 740.354C455.549 745.453 457.815 748.569 458.759 752.534C459.137 754.139 461.308 756.217 465.274 758.86C468.579 760.938 473.583 764.998 476.416 767.925C479.248 770.852 483.875 774.251 486.707 775.573C489.445 776.989 494.072 780.388 496.81 783.221C500.965 787.375 502.758 788.508 506.819 789.452C509.557 790.113 512.106 791.152 512.578 791.718C512.956 792.379 517.205 794.834 522.02 797.1C526.741 799.366 531.462 802.104 532.501 803.238C533.445 804.371 535.711 805.692 537.41 806.259C540.904 807.486 541.565 809.752 539.582 814.096C538.732 816.079 538.921 816.928 540.715 819.383C542.509 821.744 543.548 822.31 546.475 822.31C549.496 822.31 550.723 822.971 553.178 825.615C556.011 828.731 556.672 829.014 560.921 828.825C564.603 828.636 568.097 829.58 576.5 832.885C586.98 836.945 587.358 837.228 587.169 839.872C587.075 841.477 587.641 843.366 588.774 844.499C589.719 845.537 590.663 847.898 590.852 849.692C591.135 852.902 591.229 852.996 596.706 854.129C599.727 854.696 603.504 856.112 604.92 857.151C607.092 858.756 608.036 858.945 609.452 858.19C612.19 856.773 619.744 856.962 620.594 858.567C621.538 860.267 628.714 860.833 630.508 859.417C632.774 857.529 636.928 859.134 638.628 862.533C639.383 864.327 640.611 865.743 641.366 865.743C642.027 865.743 642.971 866.593 643.538 867.631C644.671 869.709 647.314 870.086 648.92 868.481C649.769 867.631 651.28 868.009 655.151 869.803C657.984 871.125 661.1 871.975 662.138 871.786C663.366 871.408 664.31 871.975 665.065 873.485C666.859 876.696 674.79 880.945 676.962 879.717C678.19 879.056 679.323 879.151 680.833 879.906C683.949 881.605 687.254 880.472 690.181 876.601C693.202 872.73 694.902 872.447 696.979 875.657C698.395 877.734 699.151 878.018 704.438 878.018C710.292 878.018 710.481 878.112 713.502 881.889C717.468 886.987 726.06 892.558 728.798 891.803C730.215 891.425 731.631 892.086 733.33 893.691C735.691 895.957 736.352 896.052 742.772 895.674C746.643 895.391 751.081 894.919 752.592 894.541C754.858 894.069 755.897 894.352 757.218 895.863C758.918 897.657 759.673 897.751 770.72 897.185C778.18 896.807 783.089 896.996 784.506 897.562C785.639 898.129 789.888 899.734 794.042 901.15C798.102 902.472 805.467 905.966 810.471 908.798C815.475 911.631 820.102 913.897 820.668 913.897C821.235 913.897 822.462 914.747 823.312 915.691C825.767 918.429 834.17 919.468 855.698 919.751C873.354 919.94 874.865 919.845 876.753 918.146C878.075 917.013 879.869 916.446 881.757 916.541C885.723 916.918 892.805 911.725 892.805 908.515C892.805 906.155 893.749 905.777 895.354 907.382C896.676 908.704 902.246 905.682 902.246 903.511C902.246 902.755 906.118 898.223 910.744 893.597C915.465 888.97 919.242 884.816 919.242 884.438C919.242 882.739 917.259 884.155 909.045 891.803C902.435 897.94 900.358 899.451 900.358 898.034C900.358 896.996 900.641 895.957 901.113 895.768C902.624 895.107 910.744 885.571 910.744 884.438C910.744 882.455 902.341 873.391 900.547 873.485C899.697 873.485 897.809 873.202 896.392 872.825C891.577 871.503 892.144 874.618 897.903 881.039C900.83 884.249 903.191 887.082 903.191 887.365C903.191 887.743 902.341 888.498 901.397 889.065C899.697 890.103 898.47 889.253 889.783 881.417C881.663 873.863 879.869 872.636 878.358 873.485C877.225 874.052 876.753 875.091 877.036 876.224C877.414 877.451 877.036 878.018 875.998 878.018C873.354 878.018 871.749 876.412 872.221 874.43C872.504 873.297 871.938 871.219 870.71 869.425C866.462 862.91 866.367 862.533 867.783 861.022C869.011 859.889 869.389 859.889 870.522 861.494C871.749 863.288 871.938 863.194 875.337 860.644C878.358 858.284 878.736 857.623 878.264 855.074C877.509 851.202 875.148 847.803 873.354 847.803C872.221 847.803 871.938 847.237 872.41 845.632C872.693 844.499 872.976 842.799 872.976 841.761C872.976 840.25 873.449 840.155 877.131 840.628C880.152 841.1 882.23 840.911 884.212 839.872C888.744 837.512 891.199 837.984 892.899 841.477C893.749 843.366 895.92 845.254 898.47 846.576C903.474 849.22 905.834 849.314 906.684 847.048C907.062 846.198 908.1 844.404 909.045 843.177C910.65 841.1 910.65 840.722 909.328 838.739C908.573 837.512 907.912 835.529 907.912 834.396C907.912 833.168 907.251 829.486 906.59 826.087C905.457 820.894 905.457 819.478 906.59 816.928C908.006 813.34 908.478 813.246 911.594 815.418C913.766 816.928 913.766 817.023 912.066 817.589C910.461 818.156 910.555 818.439 913.105 819.761C918.581 822.782 923.774 828.353 925.946 833.641C927.079 836.473 928.684 839.4 929.439 839.967C930.478 840.816 930.855 842.61 930.667 846.293C930.478 851.297 930.478 851.486 933.122 851.769C935.388 852.052 935.765 852.524 936.049 855.168C936.237 856.962 935.954 859.511 935.482 861.022C934.632 863.288 934.821 863.949 936.709 865.743C938.315 867.254 939.07 869.237 939.448 873.674C940.392 881.7 940.581 881.983 945.963 880.189C949.55 879.056 950.4 878.395 949.834 877.168C949.456 876.318 949.078 874.618 948.984 873.297C948.89 871.88 948.04 870.558 946.812 869.992C944.452 868.953 943.885 866.121 946.246 867.065C949.078 868.104 951.061 866.026 951.722 861.305C952.005 858.85 952.95 855.546 953.705 854.035C955.31 851.014 955.216 850.825 952.1 849.314C950.589 848.464 950.023 847.52 950.211 845.821C950.4 844.593 950.589 842.422 950.589 841.005C950.684 839.306 951.061 838.645 951.911 839.022C952.855 839.4 953.233 838.456 953.233 835.623C953.233 831.941 953.044 831.752 950.4 831.752C946.812 831.752 943.791 828.542 943.791 824.576C943.791 820.233 945.868 819.95 950.495 823.726C955.027 827.598 956.443 827.881 955.593 824.86C954.744 822.216 950.589 816.645 949.362 816.645C948.89 816.645 948.512 815.418 948.512 813.907C948.512 811.83 949.078 810.98 951.25 810.036C953.611 809.091 954.649 809.186 958.237 810.791C960.503 811.83 963.336 814.001 964.469 815.606C966.452 818.345 969.284 819.572 969.284 817.684C969.284 817.212 970.134 816.645 971.172 816.362C973.533 815.795 974.572 813.057 973.344 811.074C972.872 810.319 970.795 808.714 968.718 807.675C963.808 805.126 962.958 802.388 964.941 795.495C966.263 790.963 967.018 789.83 969.379 788.98C975.138 786.809 971.361 784.826 962.108 785.109C955.688 785.392 955.404 785.298 953.894 782.749C950.778 777.461 952.855 771.324 957.765 771.324C961.164 771.324 962.391 770.38 962.769 767.547C963.052 765.564 963.713 765.092 967.207 764.714C970.984 764.242 971.456 763.959 972.589 760.654C974.288 755.745 976.46 753.573 980.048 753.195C983.541 752.818 984.108 750.268 980.803 749.796C979.67 749.607 978.16 748.663 977.499 747.625C976.838 746.586 974.288 744.225 971.739 742.431C967.018 738.938 964.185 738.749 960.881 741.393C959.653 742.431 949.362 744.981 948.701 744.414C948.512 744.225 949.078 742.809 949.928 741.204C951.156 738.749 951.817 738.371 953.705 738.844C955.404 739.221 957.01 738.749 959.37 736.955C961.164 735.539 963.808 734.5 965.224 734.5C969.851 734.5 979.67 733.367 980.142 732.706C980.331 732.329 979.009 730.157 977.121 727.891C975.327 725.53 972.683 721.754 971.361 719.393C968.151 713.822 960.409 704.947 957.482 703.342C956.065 702.587 955.121 701.265 955.121 700.037C955.121 698.904 954.366 697.299 953.516 696.544C951.817 695.127 940.864 689.746 937.937 688.801C937.087 688.518 935.482 686.441 934.443 684.08C933.027 680.87 931.989 679.643 929.911 679.265C925.285 678.226 924.907 677.943 924.907 675.866C924.907 672.561 921.319 668.501 917.165 667.274C914.804 666.613 911.311 664.158 908.006 661.042C905.079 658.21 900.547 654.527 897.998 652.828C895.354 651.128 892.616 649.051 891.955 648.201C890.444 646.407 889.311 646.313 886.101 648.012C883.929 649.145 883.551 649.051 882.607 647.635C882.041 646.69 879.964 645.463 877.981 644.802C875.998 644.235 870.427 641.781 865.612 639.514C857.492 635.643 853.148 634.416 853.148 636.021C853.148 637.154 856.264 642.064 860.135 647.068C864.195 652.355 864.29 653.3 861.174 653.3C859.852 653.3 858.814 652.828 858.814 652.355C858.814 650.278 855.792 650.278 853.621 652.355L851.354 654.433L856.075 660.57C858.625 663.875 860.702 666.99 860.702 667.463C860.702 667.84 859.286 667.746 857.681 667.274C850.694 665.008 849.56 664.063 843.612 656.793C840.591 653.205 838.325 652.45 836.342 654.433C835.492 655.283 836.153 656.416 839.269 659.437C842.668 662.647 843.706 664.441 844.934 669.634C846.728 676.716 846.917 680.492 845.595 682.57C844.934 683.608 844.651 682.57 844.651 679.076C844.651 675.016 844.084 673.505 841.535 670.106C839.835 667.84 838.136 665.385 837.852 664.536C837.475 663.686 835.303 662.27 832.943 661.514C828.599 660.003 828.599 660.003 828.599 662.175C828.599 663.403 829.638 665.857 830.865 667.651C832.093 669.445 833.32 672.467 833.698 674.261C834.076 676.149 835.114 678.698 836.153 680.02C838.419 682.853 838.608 688.424 836.625 690.123C835.398 691.162 835.209 690.69 835.209 686.819C835.209 683.231 834.642 681.625 832.282 678.698C829.827 675.583 828.788 675.016 825.956 675.016C823.973 675.016 820.763 675.96 818.685 676.999C815.664 678.604 814.625 678.793 813.209 677.849C811.132 676.527 809.716 677.849 809.716 681.153C809.716 682.286 808.488 683.703 806.883 684.647C804.334 686.063 804.05 686.724 804.05 691.067C804.05 694.467 803.673 695.788 802.729 695.788C802.068 695.788 800.368 696.638 798.952 697.771C797.063 699.282 796.497 699.376 796.497 698.338C796.497 697.488 797.063 696.638 797.724 696.355C798.48 696.072 798.291 695.505 797.063 694.467C794.514 692.389 791.776 692.578 789.227 695.033C786.961 697.205 786.3 696.072 787.999 692.861C789.132 690.784 793.57 690.406 796.591 692.2C798.196 693.239 798.668 693.145 799.896 691.54C801.123 689.934 801.029 689.557 798.857 687.479C797.535 686.346 796.497 684.741 796.497 684.08C796.497 683.419 795.458 682.381 794.136 681.814C791.493 680.587 790.832 678.226 793.381 679.171C797.063 680.587 803.389 678.604 807.638 674.733C811.415 671.145 818.874 660.759 820.385 656.793C820.668 655.943 822.084 654.716 823.406 654.244C824.728 653.772 826.9 651.411 828.316 649.145C830.393 645.746 831.904 644.519 835.681 643.102C840.024 641.403 840.402 641.025 840.968 637.626C841.252 635.643 842.385 632.15 843.518 629.978C846.161 624.974 846.161 622.519 843.612 621.103C841.157 619.875 837.475 621.48 836.531 624.219C835.87 626.39 832.187 627.334 829.732 626.013C827.183 624.691 827.466 624.596 823.406 627.806C821.424 629.317 818.78 630.639 817.552 630.639C816.136 630.639 813.87 631.961 811.887 633.944C810.093 635.738 808.205 637.248 807.733 637.248C807.261 637.248 806.883 637.626 806.883 638.004C806.883 639.514 796.969 649.523 795.647 649.523C794.892 649.523 793.098 650.656 791.681 651.978L789.132 654.433L789.227 649.901L789.415 645.274L783.939 645.557C780.823 645.652 777.424 646.407 776.102 647.351C773.742 648.862 773.647 648.862 774.025 646.69C774.403 643.48 782.051 640.742 788.094 641.497C794.136 642.253 797.063 640.931 797.63 637.343C798.102 633.849 796.119 631.583 789.604 628.751C785.167 626.768 784.694 626.296 785.639 623.746C786.111 622.613 786.961 622.708 791.304 624.124C794.042 624.974 797.347 626.485 798.668 627.334C802.068 629.506 806.316 630.545 808.11 629.506C809.055 629.034 810.565 626.957 811.698 624.879C813.492 621.292 813.492 620.914 812.076 618.742C810.754 616.665 809.999 616.476 803.012 616.476C798.574 616.476 794.136 617.043 792.248 617.798C788.094 619.592 787.244 618.27 789.888 614.588C792.154 611.472 794.136 610.245 802.823 607.129L808.677 604.957L814.909 610.245C821.424 615.721 825.956 617.42 829.449 615.626C830.771 614.871 831.432 613.644 831.432 611.944C831.432 609.772 830.865 609.111 828.411 608.451C826.333 607.79 824.634 606.279 822.934 603.352C820.385 598.914 819.252 598.064 815.003 597.12C812.548 596.648 812.359 596.27 812.926 593.532C814.153 587.017 814.059 586.829 811.037 585.79C809.432 585.318 807.544 584.374 806.789 583.807C806.033 583.241 803.862 582.391 801.784 582.108C799.518 581.635 797.158 580.314 795.364 578.425C792.626 575.498 792.626 575.404 791.209 577.292C790.454 578.331 789.604 580.219 789.321 581.541C788.377 585.79 788.094 586.262 786.111 586.262C784.978 586.262 783.184 586.734 782.145 587.301C780.351 588.245 780.257 588.15 780.634 584.279C780.918 580.786 780.634 579.936 777.802 577.198C776.008 575.498 773.931 573.893 773.081 573.704C772.137 573.515 772.42 573.421 773.647 573.61C774.78 573.799 776.763 574.271 777.896 574.554C781.107 575.309 782.9 573.043 783.656 567.189C784.222 562.563 784.034 561.996 781.673 560.013L779.029 557.842L782.334 555.009C784.978 552.743 785.355 552.082 784.222 551.327C783.467 550.855 782.428 550.855 781.862 551.232C781.39 551.705 778.557 552.271 775.725 552.554C772.892 552.838 769.587 553.31 768.454 553.687C764.678 554.915 766.094 552.838 770.72 550.383C776.197 547.456 777.991 543.962 775.253 540.941C774.214 539.808 772.326 539.052 770.532 539.052C768.643 539.052 767.227 538.486 766.849 537.636C766.566 536.881 765.527 536.22 764.489 536.22C763.545 536.22 760.334 534.237 757.407 531.782C753.347 528.383 752.12 526.683 752.12 524.701C752.12 522.435 751.553 521.962 747.21 520.735C735.313 517.43 732.669 517.242 726.438 519.319C721.622 521.018 719.356 521.302 713.03 520.735C708.781 520.452 703.399 519.508 700.945 518.563C697.262 517.242 696.412 516.581 696.412 514.692C696.412 511.954 693.58 506.95 691.975 506.95C691.408 506.95 690.464 507.516 690.086 508.177C689.709 508.933 688.576 509.782 687.631 510.066C686.026 510.632 685.932 510.066 686.026 503.834C686.121 495.336 685.271 490.804 683.383 489.199C681.4 487.688 680.833 487.783 679.039 489.577C678.095 490.426 677.529 492.693 677.529 495.053C677.529 498.452 677.151 499.302 675.168 500.152C672.902 501.19 672.808 501.096 672.808 498.452C672.808 496.941 672.43 495.431 671.863 495.147C671.391 494.864 670.919 493.826 670.919 492.787C670.919 491.843 669.503 490.238 667.615 489.105C664.31 487.122 663.555 485.8 665.254 484.761C666.765 483.817 666.387 480.512 664.782 480.512C664.027 480.512 662.044 479.191 660.344 477.68C657.323 474.753 655.434 474.186 654.396 475.791C654.018 476.358 651.469 475.131 648.259 472.959C645.237 470.882 641.555 469.182 640.233 469.182C638.911 469.182 636.551 468.238 635.04 467.105C632.302 465.122 632.207 465.122 630.319 466.822C629.28 467.766 628.431 469.56 628.431 470.693C628.431 473.242 618.233 484.289 615.967 484.289C615.212 484.289 613.229 486.083 611.624 488.255C609.924 490.521 607.186 494.014 605.298 496.092L601.993 499.868L604.448 492.787C605.864 488.916 607.658 485.045 608.508 484.195C611.813 481.079 612.663 477.302 611.057 473.431C608.98 468.521 609.169 464.178 611.435 462.101C612.663 460.968 613.323 459.174 613.323 456.719C613.323 452.659 615.023 451.337 618.328 452.848C621.16 454.169 622.765 453.414 622.765 450.676C622.765 448.599 622.388 448.41 618.705 448.41C611.152 448.41 592.268 459.646 591.229 464.744C590.474 468.427 584.809 473.903 582.826 472.864C582.071 472.392 579.144 472.298 576.311 472.77C571.873 473.337 571.212 473.809 570.363 476.264C568.946 480.418 568.097 481.457 566.114 481.457C565.17 481.457 564.225 481.929 564.037 482.495C563.753 483.345 562.243 483.156 558.655 481.929C555.917 481.079 552.895 480.512 551.857 480.796C550.723 481.079 550.063 480.796 550.063 479.946C550.063 478.341 550.157 478.341 546.38 479.663C544.775 480.229 543.453 481.079 543.453 481.457C543.453 482.59 536.938 486.178 534.861 486.178C532.689 486.178 525.514 490.521 525.514 491.843C525.514 492.409 524.192 492.787 522.681 492.787C521.076 492.787 518.432 493.448 516.921 494.298C514.278 495.62 513.9 495.62 512.2 494.109C511.256 493.259 510.406 491.465 510.406 490.238C510.406 487.783 516.544 480.512 518.527 480.512C520.415 480.512 523.908 474.658 522.492 473.809C521.737 473.337 522.587 471.826 524.853 469.277C528.629 465.028 529.479 460.873 526.93 458.796C525.041 457.285 525.419 454.169 527.591 452.753C529.007 451.903 529.762 452.281 532.028 454.83C535.522 458.607 537.882 458.702 540.054 454.925C541.659 452.187 541.659 451.998 540.149 450.298C538.638 448.599 538.638 448.221 540.621 444.067L542.792 439.629L540.526 435.474C538.449 431.603 538.355 431.226 539.96 430.376C543.925 428.11 538.921 425.088 534.011 426.882C531.651 427.638 530.801 427.543 529.385 426.316C527.496 424.616 525.23 424.427 522.775 425.749C521.454 426.41 520.604 426.127 519.282 424.711C518.243 423.578 516.355 422.161 515.033 421.406C512.956 420.367 512.295 420.367 510.501 421.595C509.462 422.35 508.518 423.578 508.518 424.239C508.518 424.994 507.574 425.749 506.441 426.127C504.741 426.599 503.514 425.938 501.248 423.389C499.548 421.595 498.132 419.234 498.132 418.196C498.132 415.174 495.488 414.797 492.656 417.44C490.862 419.14 487.085 420.651 480.287 422.35C474.905 423.672 469.145 425.655 467.54 426.599C465.746 427.732 461.969 428.676 457.532 429.054C453.66 429.432 448.845 430.281 446.862 431.037C440.631 433.397 437.137 432.831 433.644 428.865C429.395 424.05 426.657 419.234 425.901 415.269C425.335 412.058 425.524 411.681 428.639 409.792C430.433 408.659 432.227 406.865 432.511 405.921C432.888 404.694 433.832 404.127 435.154 404.222C437.704 404.411 443.369 401.2 443.369 399.595C443.369 398.84 444.596 398.084 446.107 397.801C447.901 397.423 449.789 395.913 451.394 393.741C452.716 391.758 455.454 389.209 457.532 388.076C460.742 386.282 461.308 385.527 461.308 382.789C461.308 378.634 463.669 377.123 471.222 376.274C474.905 375.896 478.021 374.857 480.287 373.347C482.081 372.025 484.252 370.986 485.102 370.986C486.613 370.986 489.823 366.454 491.051 362.583C491.523 360.978 491.145 360.411 488.973 359.561C487.557 358.995 485.574 357.862 484.63 357.012C482.836 355.407 476.416 342.283 476.416 340.205C476.416 339.544 475.566 338.695 474.527 338.411C473.489 338.034 471.411 336.806 469.995 335.579C467.918 333.879 466.974 333.596 466.218 334.351ZM795.647 703.059C794.514 704.947 794.325 704.381 795.175 701.926C795.553 701.076 796.025 700.604 796.214 700.887C796.497 701.076 796.214 702.114 795.647 703.059Z" fill="black"/>
<circle cx="833" cy="629" fill="#5CE50D"/>
<circle cx="863" cy="867" fill="#E52A0D"/>
<circle cx="299" cy="237" fill="#E52A0D"/>
<circle cx="514" cy="500" fill="#E52A0D"/>
</svg>
