<svg width="1000" height="1000" viewBox="0 0 1000 1000" fill="none" xmlns="http://www.w3.org/2000/svg">
<rect width="1000" height="1000" />
<path d="M459.445 994.322C460.438 994.171 461.907 994.178 462.71 994.335C463.513 994.492 462.702 994.609 460.905 994.609C459.11 994.603 458.453 994.472 459.445 994.322ZM456.33 992.845C456.555 992.479 456.17 992.179 455.474 992.179C454.779 992.179 453.844 991.741 453.397 991.199C452.95 990.663 452.18 990.219 451.685 990.219C451.19 990.219 450.781 989.559 450.775 988.749C450.767 987.56 450.644 987.469 450.132 988.259C449.628 989.043 449.487 988.906 449.438 987.606L449.376 985.973L448.719 987.776C448.357 988.762 447.793 989.409 447.465 989.207C447.136 989.004 446.867 989.239 446.867 989.736C446.867 990.409 445.64 990.657 441.97 990.729C438.992 990.794 437.073 990.565 437.073 990.16C437.073 989.795 436.779 989.67 436.42 989.893C436.061 990.115 435.767 989.984 435.767 989.605C435.767 989.226 435.278 988.913 434.68 988.913C434.081 988.913 433.763 988.743 433.972 988.534C434.437 988.07 432.108 985.646 431.197 985.646C430.838 985.646 430.544 985.352 430.544 984.993C430.544 984.634 429.442 984.307 428.095 984.261C425.659 984.19 425.657 984.183 427.606 983.687C428.767 983.393 425.71 983.19 420.097 983.197C413.87 983.203 411.412 983.386 412.915 983.732C415.197 984.255 415.196 984.255 412.425 984.118C410.539 984.026 409.65 984.248 409.65 984.817C409.65 985.431 408.104 985.646 403.774 985.646C400.291 985.646 397.897 985.379 397.897 984.993C397.897 984.634 397.236 984.333 396.428 984.333C395.24 984.32 395.146 984.203 395.938 983.687C396.726 983.177 396.623 983.053 395.41 983.046C394.574 983.04 394.082 982.746 394.306 982.38C394.546 981.995 393.769 981.727 392.386 981.727C391.108 981.727 390.062 981.426 390.062 981.054C390.062 980.603 389.608 980.616 388.705 981.1C387.083 981.969 383.054 980.355 382.398 978.578C382.177 977.977 381.68 977.239 381.295 976.945C380.805 976.566 380.829 976.305 381.374 976.083C382.54 975.606 381.62 973.888 380.198 973.888C379.514 973.888 378.962 973.437 378.962 972.869C378.962 972.313 378.668 972.032 378.309 972.255C377.95 972.477 377.656 972.333 377.656 971.928C377.656 971.529 377.38 971.373 377.042 971.575C376.705 971.784 376.08 971.582 375.654 971.124C375.18 970.621 373.766 970.386 372.023 970.523C370.242 970.667 369.168 970.484 369.168 970.034C369.168 969.642 368.36 969.308 367.372 969.308C365.973 969.295 365.794 969.158 366.556 968.662C367.209 968.244 367.264 968.028 366.72 968.021C365.149 968.002 364.919 967.793 364.271 965.787L363.618 963.762L358.184 963.573C353.033 963.39 352.681 963.468 351.443 965.043C350.726 965.957 349.701 966.702 349.168 966.702C348.634 966.702 348.379 966.996 348.601 967.355C348.823 967.714 348.644 968.008 348.204 968.008C347.764 968.008 347.586 968.191 347.808 968.413C349.047 969.655 342.868 972.581 339.015 972.581C337.33 972.581 336.596 972.829 336.883 973.293C337.174 973.764 336.581 973.933 335.126 973.803C333.664 973.672 332.985 973.868 333.093 974.397C333.208 974.953 332.081 975.194 329.378 975.194C327.244 975.194 325.317 975.488 325.095 975.848C324.874 976.207 323.992 976.501 323.136 976.501C322.281 976.501 321.399 976.207 321.177 975.848C320.664 975.018 317.211 974.998 315.678 975.821C314.808 976.285 314.152 976.115 313.11 975.142C312.34 974.423 311.71 973.555 311.71 973.208C311.71 972.862 311.18 972.581 310.532 972.581C309.884 972.581 308.231 971.556 306.858 970.295C304.919 968.518 303.809 968.008 301.873 968.008C300.502 968.008 299.221 967.747 299.025 967.434C298.83 967.113 296.713 966.65 294.323 966.388C291.72 966.114 289.518 965.493 288.836 964.847C287.56 963.632 287.308 960.104 288.445 959.366C288.851 959.098 286.613 958.882 283.47 958.876C280.104 958.869 277.757 958.595 277.757 958.21C277.757 957.85 277.316 957.556 276.778 957.556C276.239 957.556 275.776 957.04 275.747 956.413C275.718 955.773 275.555 955.616 275.374 956.067C274.976 957.047 272.534 955.721 272.534 954.519C272.534 954.061 271.973 953.905 271.126 954.127C270.162 954.381 269.865 954.257 270.185 953.741C270.468 953.284 270.218 952.983 269.546 952.983C268.937 952.983 267.759 952.252 266.927 951.35C265.87 950.207 264.667 949.691 262.934 949.632L260.454 949.547L262.74 949.064L265.025 948.581L262.903 948.417C261.736 948.326 260.414 948.215 259.965 948.169C259.516 948.123 258.859 947.424 258.504 946.614C257.845 945.112 256.863 944.622 256.863 945.798C256.863 947.274 254.197 946.307 252.807 944.328C251.464 942.42 251.033 942.224 248.524 942.407C246.99 942.518 245.905 942.884 246.114 943.224C246.323 943.563 245.724 943.838 244.784 943.838C243.811 943.838 243.249 943.557 243.478 943.185C243.7 942.825 243.406 942.531 242.825 942.531C242.245 942.531 241.951 942.825 242.172 943.185C242.394 943.544 242.1 943.838 241.519 943.838C240.939 943.838 240.645 943.544 240.866 943.185C241.102 942.806 240.439 942.531 239.277 942.531C236.193 942.531 232.061 940.5 232.001 938.951C231.969 938.161 231.81 937.978 231.602 938.501C231.373 939.076 230.818 938.657 229.978 937.273C229.014 935.692 228.806 934.555 229.129 932.648C229.418 930.936 229.314 930.119 228.806 930.119C228.395 930.119 228.239 929.825 228.461 929.466C228.69 929.094 228.131 928.813 227.163 928.813C225.01 928.813 222.307 925.841 222.279 923.45C222.266 922.378 221.757 921.405 220.996 921C220.302 920.628 219.529 919.674 219.278 918.883C219.026 918.093 218.402 917.022 217.89 916.512C217.378 916.003 217.105 915.199 217.282 914.742C217.46 914.278 217.183 913.736 216.667 913.54C216.151 913.337 215.728 912.795 215.728 912.325C215.728 910.861 211.433 907.909 209.313 907.909C208.647 907.909 207.768 907.177 207.359 906.275C206.923 905.322 206.07 904.642 205.296 904.642C204.57 904.642 203.976 904.348 203.976 903.989C203.976 903.63 202.93 903.336 201.652 903.336C200.269 903.336 199.492 903.604 199.731 903.989C199.978 904.388 198.977 904.642 197.158 904.642C195.521 904.642 194.182 904.348 194.182 903.989C194.182 903.63 193.3 903.336 192.223 903.336C190.63 903.336 190.263 903.61 190.254 904.806C190.246 905.995 190.123 906.086 189.611 905.296C189.131 904.551 188.976 904.832 188.969 906.439C188.963 907.608 188.696 908.562 188.376 908.562C188.056 908.562 187.614 909.281 187.396 910.149C187.176 911.025 186.41 911.926 185.692 912.155C184.974 912.383 184.388 912.834 184.388 913.154C184.388 914.108 173.89 913.834 172.906 912.847C172.432 912.37 172.202 911.828 172.396 911.632C172.589 911.443 172.134 910.953 171.385 910.554C169.913 909.764 169.533 906.831 170.641 904.799C170.98 904.172 171.436 902.552 171.653 901.193C171.87 899.841 172.327 898.9 172.668 899.109C173.25 899.469 173.572 898.136 173.341 896.333C173.284 895.889 173.69 894.837 174.245 893.994C174.799 893.145 175.054 892.257 174.814 892.015C174.573 891.773 174.736 891.577 175.177 891.577C175.617 891.577 175.795 891.283 175.573 890.924C175.352 890.565 175.481 890.271 175.861 890.271C176.242 890.271 176.552 889.552 176.552 888.677C176.552 887.801 176.824 886.913 177.156 886.71C177.487 886.508 177.952 885.456 178.188 884.378C178.424 883.3 178.888 882.588 179.218 882.791C179.547 882.993 179.854 882.706 179.899 882.144C180.08 879.884 181.579 876.552 182.413 876.552C182.781 876.552 183.082 875.389 183.082 873.972C183.082 872.417 183.452 871.182 184.015 870.869C184.964 870.34 185.04 870.15 185.04 868.347C185.04 867.792 185.334 867.511 185.693 867.733C186.059 867.962 186.346 867.452 186.346 866.59C186.346 865.061 187.369 863.683 190.313 861.259C191.314 860.436 191.913 860.273 192.08 860.769C192.218 861.188 192.757 861.527 193.277 861.527C193.798 861.527 194.392 861.971 194.599 862.507C194.805 863.049 195.548 863.487 196.249 863.487C196.95 863.487 197.342 863.781 197.12 864.14C196.898 864.5 197.175 864.794 197.734 864.794C199.434 864.794 198.881 866.668 196.467 869.085C195.21 870.34 194.182 871.653 194.182 871.999C194.182 872.352 195.959 872.633 198.131 872.633C200.744 872.633 202.995 873.077 204.783 873.939C206.444 874.743 208.822 875.246 210.954 875.246C212.862 875.246 214.423 875.54 214.423 875.899C214.423 876.944 219.392 876.67 220.299 875.572C220.746 875.037 220.878 874.592 220.592 874.592C220.305 874.592 220.713 873.913 221.497 873.077C222.281 872.241 222.725 871.359 222.482 871.117C222.239 870.875 222.548 870.673 223.167 870.673C223.787 870.673 224.137 870.418 223.944 870.111C223.507 869.399 225.801 867.25 226.376 867.825C226.608 868.06 226.983 867.766 227.21 867.171C227.436 866.583 227.99 866.1 228.44 866.1C228.935 866.1 229.151 865.519 228.985 864.63C228.794 863.605 229.415 862.422 231.033 860.711C232.31 859.365 233.698 858.261 234.118 858.261C234.538 858.261 234.699 858.078 234.477 857.856C234.255 857.634 234.502 857.026 235.027 856.497C235.552 855.975 235.81 855.269 235.6 854.929C235.391 854.59 235.462 854.354 235.758 854.407C237.289 854.668 238.034 854.25 237.679 853.329C237.456 852.747 237.566 852.486 237.936 852.715C238.298 852.937 238.581 852.362 238.581 851.402C238.581 850.428 238.863 849.867 239.234 850.095C239.593 850.317 239.887 850.03 239.887 849.462C239.887 848.887 240.328 848.253 240.866 848.044C241.405 847.841 241.846 846.96 241.846 846.084C241.846 842.922 245.037 837.357 246.85 837.357C248.273 837.357 248.531 835.998 247.353 834.698C246.354 833.594 246.317 833.215 247.073 831.797C247.552 830.902 248.352 830.171 248.85 830.171C249.35 830.171 249.577 829.877 249.355 829.518C249.133 829.158 249.242 828.864 249.597 828.864C250.017 828.864 250.028 828.12 249.627 826.741C249.288 825.572 249.195 823.769 249.419 822.73C250.128 819.438 250.114 815.799 249.393 815.793C249.013 815.786 249.142 815.492 249.681 815.146C250.518 814.604 250.495 814.512 249.518 814.506C247.768 814.486 248.094 811.599 250.086 809.463C251.027 808.457 252.056 807.705 252.372 807.797C252.688 807.888 252.946 807.522 252.946 806.98C252.946 806.275 253.672 806 255.557 806C257.848 806 258.169 805.817 258.169 804.498C258.169 803.675 258.503 802.662 258.911 802.257C259.465 801.702 259.393 801.251 258.631 800.493C257.441 799.298 256.21 799.154 256.21 800.199C256.21 800.624 255.531 800.8 254.578 800.617C253.484 800.408 252.946 800.598 252.946 801.192C252.946 801.682 252.309 802.081 251.531 802.081C250.753 802.081 250.289 801.911 250.499 801.702C251.4 800.8 248.079 798.161 246.042 798.161C244.78 798.161 243.795 797.769 243.569 797.181C243.362 796.646 242.523 796.195 241.703 796.195C240.502 796.182 240.403 796.058 241.193 795.548C242.03 795.006 242.006 794.914 241.03 794.908C240.401 794.901 239.887 794.457 239.887 793.915C239.887 793.379 239.593 792.935 239.234 792.935C238.875 792.935 238.581 791.89 238.581 790.609C238.581 789.336 238.349 788.428 238.064 788.604C237.779 788.78 237.478 787.99 237.395 786.847C237.312 785.704 237.084 784.253 236.889 783.626C236.673 782.927 236.943 782.32 237.574 782.078C238.288 781.804 238.414 781.438 237.976 780.909C237.15 779.916 237.34 777.316 238.227 777.466C238.601 777.531 238.834 777.218 238.744 776.767C238.655 776.316 238.949 776.022 239.397 776.114C239.846 776.205 240.133 775.892 240.035 775.415C239.936 774.938 240.136 774.722 240.479 774.931C240.822 775.147 241.29 775.016 241.519 774.644C241.749 774.271 242.177 774.121 242.47 774.298C242.764 774.481 243.367 774.193 243.811 773.657C244.254 773.122 245.446 772.684 246.458 772.684C247.47 772.684 248.48 772.39 248.702 772.031C248.924 771.672 250.19 771.351 251.516 771.312C253.68 771.253 253.759 771.195 252.293 770.724C251.205 770.378 251.042 770.182 251.803 770.136C253.096 770.064 253.326 768.085 252.27 766.112C251.806 765.243 250.901 764.845 249.379 764.845C247.802 764.845 246.8 764.381 245.898 763.238C245.201 762.35 244.445 761.807 244.218 762.036C243.991 762.265 243.805 762.075 243.805 761.618C243.805 761.154 242.629 759.377 241.193 757.659C238.731 754.719 237.655 751.127 239.234 751.127C239.593 751.127 239.887 750.715 239.887 750.219C239.887 749.715 240.328 749.141 240.866 748.932C241.658 748.625 241.846 747.122 241.846 741.106C241.846 733.848 242.715 729.667 244.448 728.596C244.813 728.374 245.11 727.374 245.11 726.381C245.11 724.839 247.506 721.743 248.704 721.736C248.882 721.736 249.252 721.736 249.525 721.736C249.798 721.736 250.826 720.985 251.81 720.071C252.794 719.163 253.608 718.646 253.619 718.927C253.631 719.215 254.084 718.862 254.627 718.143C255.17 717.425 255.748 716.909 255.913 717C256.076 717.085 256.725 717.157 257.353 717.151C258.33 717.144 258.353 717.046 257.516 716.51C256.672 715.962 256.689 715.87 257.64 715.864C259.181 715.851 262.711 712.473 263.055 710.69C263.286 709.488 263.125 709.292 262.225 709.671C259.618 710.768 258.169 710.788 258.169 709.723C258.169 709.142 257.875 708.671 257.516 708.671C257.157 708.671 256.863 708.201 256.863 707.626C256.863 707.058 256.276 706.431 255.557 706.248C254.839 706.058 254.252 705.64 254.252 705.327C254.252 705.006 253.404 704.752 252.368 704.752C250.192 704.752 248.375 702.511 248.375 699.833C248.375 698.905 248.143 698.284 247.858 698.461C247.351 698.774 247.049 697.239 246.845 693.32C246.789 692.242 246.404 691.138 245.99 690.87C245.575 690.602 245.225 688.91 245.211 687.114C245.197 685.252 244.748 683.22 244.169 682.391C243.609 681.594 243.152 680.274 243.152 679.451C243.152 678.634 242.858 677.968 242.499 677.968C241.439 677.968 241.644 660.003 242.714 659.115C243.206 658.703 243.465 657.593 243.312 656.548C243.141 655.385 243.425 654.379 244.076 653.843C244.645 653.366 245.11 652.119 245.11 651.06C245.11 649.95 245.385 649.316 245.763 649.551C246.122 649.773 246.416 649.492 246.416 648.931C246.416 648.375 246.857 647.918 247.396 647.918C247.947 647.918 248.375 647.33 248.375 646.579C248.375 645.847 249.11 644.508 250.007 643.607C250.905 642.712 251.677 641.699 251.721 641.353C251.766 641.013 251.84 640.491 251.885 640.19C252.047 639.119 255.2 634.958 255.642 635.232C255.891 635.382 256.3 634.291 256.551 632.808C256.872 630.907 257.177 630.372 257.578 631.005C258.063 631.776 258.343 629.934 258.142 627.308C258.127 627.112 259.109 625.988 260.323 624.812C262.006 623.173 262.635 621.912 262.966 619.495C263.205 617.751 263.839 615.843 264.377 615.249C264.915 614.654 265.158 613.968 264.918 613.727C264.678 613.491 264.988 613.295 265.608 613.295C266.228 613.295 266.569 613.028 266.367 612.701C265.829 611.826 266.666 610.029 267.609 610.029C269.306 610.029 267.304 601.108 265.334 599.89C263.562 598.794 266.539 593.747 269.019 593.643C269.695 593.615 269.927 593.459 269.533 593.296C268.501 592.869 269.599 586.642 270.976 585.12C271.586 584.447 271.817 583.892 271.492 583.886C271.168 583.879 271.274 583.639 271.728 583.351C272.182 583.063 272.724 581.23 272.931 579.278C273.138 577.327 273.574 575.633 273.9 575.512C274.226 575.393 274.493 574.991 274.493 574.619C274.493 574.247 275.381 572.931 276.466 571.695C277.552 570.458 278.287 569.201 278.102 568.901C277.916 568.6 278.223 568.179 278.782 567.964C279.341 567.75 279.637 567.311 279.438 566.99C279.24 566.669 279.516 566.043 280.05 565.599C280.584 565.155 281.022 564.227 281.022 563.535C281.022 561.451 283.97 559.001 286.065 559.344C287.062 559.507 289.274 559.841 290.979 560.084L294.081 560.527L294.158 558.003C294.201 556.615 294.194 555.14 294.144 554.724C294.094 554.309 294.745 552.665 295.593 551.07C297.102 548.23 297.108 548.151 295.886 547.158C295.2 546.601 294.575 545.715 294.498 545.188C294.421 544.661 293.855 543.727 293.24 543.113C291.88 541.752 291.844 541.152 293.05 539.946C293.561 539.435 294.075 538.458 294.193 537.775C294.513 535.92 295.743 534.902 297.664 534.902C298.643 534.902 299.208 534.621 298.978 534.249C298.756 533.889 299.032 533.595 299.593 533.595C300.152 533.595 300.611 533.303 300.611 532.947C300.611 531.877 305.395 526.59 307.508 525.327C308.204 524.911 308.698 524.25 308.609 523.857C308.519 523.465 308.727 523.143 309.069 523.143C309.413 523.143 310.798 522.393 312.149 521.475C313.756 520.384 315.29 519.876 316.585 520.006C317.986 520.146 318.573 519.917 318.594 519.224C318.611 518.685 318.979 518.317 319.412 518.407C319.844 518.497 320.199 518.112 320.199 517.552C320.199 516.991 320.492 516.715 320.852 516.937C321.211 517.159 321.504 516.882 321.504 516.32C321.504 514.893 323.842 510.675 324.351 511.184C324.58 511.414 324.769 511.112 324.769 510.513C324.769 509.894 325.284 509.425 325.961 509.425C327.579 509.425 329.993 506.737 329.993 504.934C329.993 504.124 330.284 503.649 330.646 503.872C331.005 504.094 331.298 503.818 331.298 503.257C331.298 502.471 332.042 502.239 334.563 502.239C336.542 502.239 337.828 502.528 337.828 502.972C337.828 503.5 338.066 503.507 338.676 503.001C339.143 502.613 340.832 502.092 342.43 501.842C344.029 501.591 345.484 501.211 345.663 500.996C346.291 500.244 348.918 498.973 349.844 498.973C350.357 498.973 350.875 498.687 350.995 498.338C351.115 497.989 351.801 497.607 352.519 497.49C353.237 497.372 354.508 496.9 355.345 496.441C356.181 495.981 357.261 495.758 357.746 495.943C358.229 496.13 358.98 495.855 359.414 495.332C359.847 494.81 360.53 494.421 360.931 494.468C362.417 494.644 363.36 494.385 363.051 493.885C362.876 493.602 363.49 493.307 364.416 493.231C365.341 493.155 366.54 492.725 367.081 492.276C367.621 491.827 368.238 491.521 368.452 491.595C369.251 491.871 371.78 490.97 371.78 490.409C371.78 490.089 372.735 489.806 373.902 489.781C375.68 489.743 375.813 489.644 374.719 489.174C373.806 488.781 374.691 488.603 377.657 488.581C380.91 488.557 382.282 488.848 383.533 489.827C384.431 490.529 385.497 491.111 385.901 491.119C386.306 491.127 387.004 491.574 387.451 492.113C388.911 493.873 389.88 493.2 390.219 490.191C390.569 487.093 391.871 485.254 393.716 485.254C394.34 485.254 394.665 485.068 394.437 484.841C394.21 484.613 394.751 483.855 395.641 483.155C396.53 482.456 397.109 481.644 396.928 481.351C396.747 481.058 397.038 480.649 397.575 480.444C398.111 480.234 398.55 479.595 398.55 479.019C398.55 478.443 398.918 477.588 399.366 477.119C399.815 476.649 400.606 475.654 401.124 474.906C401.842 473.868 402.726 473.559 404.843 473.601C406.549 473.635 408.012 473.265 408.635 472.642C409.765 471.512 410.003 469.573 409.011 469.573C408.643 469.573 408.413 467.508 408.468 464.703C408.52 462.024 408.775 459.963 409.033 460.123C409.291 460.282 409.662 459.799 409.858 459.048C410.055 458.297 410.529 457.877 410.912 458.114C411.295 458.351 411.609 458.212 411.609 457.806C411.609 457.4 412.05 456.627 412.588 456.088C413.127 455.549 413.568 455.272 413.568 455.471C413.568 455.965 418.707 453.254 419.159 452.521C419.358 452.199 419.193 451.935 418.791 451.935C418.39 451.935 418.211 451.694 418.393 451.398C418.576 451.103 418.262 450 417.696 448.949C416.274 446.304 415.928 437.255 417.2 435.983C417.735 435.448 418.138 433.794 418.138 432.138C418.138 430.36 418.516 428.917 419.11 428.424C419.645 427.98 419.942 427.389 419.77 427.112C419.599 426.833 419.897 426.243 420.431 425.798C420.965 425.355 421.403 424.431 421.403 423.745C421.403 423.059 421.842 422.329 422.379 422.123C422.916 421.917 423.212 421.518 423.039 421.237C422.865 420.956 423.161 420.363 423.695 419.919C424.23 419.476 424.667 418.69 424.667 418.174C424.667 417.658 424.961 417.417 425.32 417.639C425.68 417.861 425.973 417.584 425.973 417.025C425.973 416.464 426.194 416.041 426.463 416.083C427.776 416.291 428.62 415.938 428.249 415.336C428.022 414.968 428.078 414.709 428.374 414.76C429.824 415.012 431.232 414.632 430.891 414.079C430.68 413.738 431.618 413.255 432.975 413.005C434.331 412.755 435.588 412.373 435.767 412.155C436.697 411.028 439.306 410.127 441.635 410.127C444.554 410.127 445.145 409.185 442.623 408.552C441.708 408.322 440.991 407.669 440.991 407.066C440.991 406.474 440.82 406.161 440.61 406.371C440.135 406.846 437.726 404.496 437.726 403.556C437.726 403.175 437.432 403.045 437.073 403.268C436.703 403.496 436.42 402.947 436.42 402C436.42 401.08 436.051 400.328 435.601 400.328C434.835 400.328 432.866 396.885 432.799 395.428C432.783 395.069 432.415 394.133 431.983 393.348C431.551 392.563 431.197 391.519 431.197 391.027C431.197 389.603 435.357 385.956 436.98 385.956C437.822 385.956 438.279 385.668 438.043 385.287C437.816 384.918 437.872 384.659 438.168 384.71C441.221 385.242 441.881 383.542 439.359 381.646C438.461 380.972 437.726 379.891 437.726 379.245C437.726 378.599 437.26 377.358 436.689 376.487C435.646 374.894 435.874 371.474 437.129 369.908C437.436 369.525 437.758 368.283 437.844 367.148C437.931 366.014 438.399 364.933 438.885 364.747C439.371 364.56 439.62 364.168 439.439 363.875C439.259 363.583 439.827 362.805 440.704 362.146C441.58 361.488 442.297 360.564 442.297 360.093C442.297 359.623 442.664 359.002 443.113 358.715C444.344 357.927 445.561 355.459 445.561 353.753C445.561 352.919 445.967 351.682 446.461 351.005C447.215 349.974 447.219 349.632 446.483 348.896C445.003 347.415 446.51 342.188 448.417 342.188C448.822 342.188 449.181 341.232 449.215 340.065C449.319 336.494 449.73 334.426 450.271 334.761C450.554 334.936 450.806 334.4 450.833 333.571C450.898 331.514 452.865 328.296 454.586 327.431C455.364 327.039 455.784 326.503 455.52 326.238C455.256 325.973 455.771 325.825 456.667 325.908C457.562 325.992 458.881 326.009 459.599 325.948C460.691 325.854 460.744 325.732 459.926 325.203C459.198 324.732 459.574 324.567 461.395 324.56C462.742 324.554 464.011 324.623 464.216 324.713C464.421 324.803 464.877 324.362 465.228 323.733C465.58 323.104 466.587 322.59 467.467 322.59C468.348 322.59 469.067 322.296 469.067 321.937C469.067 321.578 469.655 321.284 470.373 321.284C471.091 321.284 471.679 321.024 471.679 320.706C471.679 320.389 472.193 319.943 472.821 319.716C475.688 318.679 477.222 317.351 477.025 316.075C476.913 315.347 477.133 314.751 477.515 314.751C477.896 314.751 478.208 314.301 478.208 313.75C478.208 313.2 478.649 312.581 479.188 312.374C479.902 312.1 480.167 310.976 480.167 308.228C480.167 305.687 480.484 304.196 481.139 303.651C481.674 303.207 481.951 302.583 481.754 302.265C481.557 301.946 481.927 301.681 482.577 301.675C483.579 301.667 483.609 301.57 482.779 301.033C482.126 300.61 482.072 300.396 482.615 300.389C483.065 300.384 483.432 299.921 483.432 299.361C483.432 298.8 483.725 298.524 484.085 298.746C484.444 298.968 484.737 298.831 484.737 298.442C484.737 298.052 485.472 297.454 486.37 297.113C487.268 296.771 488.002 296.089 488.002 295.597C488.002 295.105 488.583 294.177 489.293 293.534C490.003 292.891 490.421 292.103 490.224 291.783C490.026 291.463 490.253 291.282 490.729 291.381C491.205 291.479 491.52 291.193 491.43 290.744C491.341 290.294 491.582 289.927 491.967 289.927C492.943 289.927 494.772 287.994 494.991 286.732C495.843 281.801 494.707 277.725 491.621 274.637C488.379 271.394 487.756 270.041 489.021 268.99C490.261 267.961 490.22 265.763 488.944 264.829C488.032 264.162 488.049 263.952 489.114 262.797C489.767 262.089 490.955 261.143 491.755 260.694C493.364 259.79 496.099 259.579 495.593 260.398C495.416 260.685 495.541 261.346 495.871 261.868C496.393 262.694 496.472 262.692 496.481 261.855C496.487 261.215 496.833 261.382 497.513 262.354C498.076 263.158 499.581 264.252 500.858 264.786C503.927 266.069 509.989 266.063 511.275 264.777C511.813 264.238 512.653 263.797 513.14 263.797C513.628 263.797 514.468 264.238 515.006 264.777C515.545 265.316 516.174 265.757 516.405 265.757C517.596 265.757 518.69 267.925 518.69 270.288C518.69 272.364 518.253 273.412 516.716 275.022C514.741 277.089 513.597 279.822 514.377 280.604C514.606 280.832 516.336 280.947 518.221 280.859C520.267 280.765 522.399 281.089 523.507 281.665C525.594 282.748 528.333 282.488 529.767 281.072C530.603 280.246 530.419 280.128 528.303 280.128C526.74 280.128 525.293 279.615 524.219 278.681C522.818 277.462 522.579 276.742 522.699 274.108C522.777 272.389 523.082 270.983 523.378 270.983C523.673 270.983 523.914 270.533 523.914 269.982C523.914 269.432 524.354 268.812 524.893 268.605C525.456 268.389 525.872 267.414 525.872 266.311C525.872 265.17 526.534 263.679 527.505 262.631C528.724 261.316 529.137 260.154 529.137 258.04C529.137 255.317 530.215 253.345 531.702 253.345C532.087 253.345 532.402 253.051 532.402 252.691C532.402 252.332 532.989 252.038 533.708 252.038C534.434 252.038 535.013 252.473 535.013 253.018C535.013 253.557 535.418 253.998 535.913 253.998C536.408 253.998 537.179 253.557 537.625 253.018C538.072 252.479 538.846 252.038 539.343 252.038C540.075 252.038 540.097 251.796 539.459 250.773C539.025 250.078 538.435 249.654 538.148 249.832C537.222 250.404 537.593 246.751 538.558 245.785C539.619 244.725 542.849 244.514 542.849 245.506C542.849 245.865 543.436 246.159 544.155 246.159C544.873 246.159 545.46 245.847 545.46 245.467C545.46 245.086 545.733 244.944 546.066 245.15C546.4 245.356 546.86 244.932 547.09 244.208C547.386 243.275 548.076 242.893 549.461 242.893C550.535 242.893 551.281 242.672 551.117 242.403C550.955 242.133 551.231 241.533 551.732 241.07C552.233 240.607 552.643 240.423 552.643 240.66C552.643 240.898 553.08 240.73 553.614 240.286C554.185 239.812 555.059 239.687 555.736 239.983C556.369 240.26 557.107 240.44 557.376 240.383C557.646 240.326 557.866 240.594 557.866 240.978C557.866 241.362 558.505 241.583 559.286 241.468C560.511 241.287 561.981 239.554 563.479 236.523C564.162 235.142 569.185 235.504 570.272 237.013C571.17 238.258 572.685 238.929 571.963 237.76C571.773 237.453 573.298 237.76 575.352 238.442C577.407 239.124 580.343 239.857 581.88 240.072C583.415 240.286 584.828 240.715 585.02 241.024C585.21 241.333 586.395 241.586 587.652 241.586C588.909 241.586 589.789 241.346 589.608 241.053C589.427 240.76 590.512 240.458 592.018 240.381C594.336 240.264 594.997 240.536 596.318 242.143C597.73 243.861 598.089 243.985 600.081 243.435C602.922 242.649 603.572 243.11 603.572 245.909C603.572 247.267 603.306 248.032 602.919 247.792C602.56 247.57 602.266 247.679 602.266 248.034C602.266 248.39 601.605 248.808 600.797 248.964C599.642 249.187 599.747 249.266 601.286 249.337C603.512 249.439 606.836 251.983 606.836 253.584C606.836 254.17 606.591 254.651 606.292 254.651C605.993 254.651 605.749 255.092 605.749 255.631C605.749 256.17 606.308 256.611 606.992 256.611C608.664 256.611 610.091 258.14 610.15 259.994C610.189 261.386 610.235 261.405 610.692 260.227C611.155 259.053 611.234 259.088 611.619 260.64C612.22 263.038 614.342 263.42 615.68 261.371C616.464 260.177 616.947 259.932 617.476 260.461C618.331 261.315 620.551 261.43 620.551 260.619C620.551 260.309 621.322 259.28 622.268 258.333C623.973 256.631 626.428 255.999 626.428 257.264C626.428 257.623 626.741 257.917 627.126 257.917C628.027 257.917 629.692 259.579 629.692 260.483C629.692 260.869 630.13 261.184 630.672 261.184C631.207 261.184 631.671 261.698 631.697 262.327C631.742 263.241 631.827 263.274 632.134 262.49C632.343 261.951 632.976 261.152 633.551 260.714C634.766 259.78 637.123 259.6 636.574 260.483C636.365 260.817 636.861 261.184 637.678 261.3C638.846 261.467 639.192 261.987 639.343 263.797C639.584 266.812 640.733 268.991 642.026 268.894C644.325 268.722 645.291 269.078 645.656 270.237C645.99 271.277 646.819 271.471 651.415 271.58C654.367 271.65 657.063 271.985 657.409 272.325C657.749 272.665 659.1 272.942 660.406 272.942C661.797 272.942 663.377 273.451 664.193 274.162C665.623 275.402 666.159 278.822 664.925 278.822C664.461 278.822 664.461 279.214 664.925 280.085C665.937 281.979 665.741 283.901 664.461 284.649C663.371 285.282 663.371 285.315 664.461 285.334C665.16 285.346 665.604 285.859 665.604 286.661C665.604 287.408 665.166 287.967 664.585 287.967C664.024 287.967 663.749 288.261 663.971 288.621C664.193 288.98 664.043 289.274 663.645 289.274C663.24 289.274 663.077 289.542 663.279 289.871C663.482 290.2 663.279 290.618 662.829 290.799C662.332 290.999 662.463 291.151 663.155 291.182C664.18 291.228 664.592 291.964 664.37 293.357C664.33 293.626 664.598 293.847 664.977 293.847C665.806 293.847 665.702 304.814 664.866 305.33C663.821 305.976 664.278 306.937 665.93 307.565C666.825 307.906 667.562 308.603 667.562 309.112C667.562 310.147 669.319 311.07 669.639 310.203C669.75 309.898 670.729 309.547 671.807 309.423C672.884 309.3 674.131 308.757 674.582 308.218C675.306 307.348 675.489 307.352 676.214 308.245C676.945 309.149 677.128 309.143 678.009 308.19C679.374 306.709 679.498 305.605 678.297 305.605C677.735 305.605 677.461 305.311 677.683 304.952C677.905 304.593 677.592 304.299 676.997 304.299C676.299 304.299 676.044 303.948 676.286 303.319C676.514 302.722 676.286 302.339 675.698 302.339C674.451 302.339 674.464 300.118 675.711 299.079C676.247 298.634 676.495 297.965 676.266 297.591C676.038 297.217 676.155 297.1 676.527 297.331C676.899 297.562 677.565 297.314 678.009 296.779C678.453 296.244 679.668 295.806 680.7 295.806C681.731 295.806 682.58 295.513 682.58 295.153C682.58 294.077 686.961 294.38 687.386 295.485C687.595 296.027 688.58 296.819 689.579 297.245C691.93 298.247 693.68 299.725 693.68 300.707C693.68 302.44 691.231 304.299 688.946 304.299C687.686 304.299 686.289 304.74 685.845 305.279C685.153 306.107 685.296 306.259 686.739 306.259C687.686 306.259 688.456 306.626 688.463 307.075C688.469 307.681 688.62 307.665 689.031 307.013C689.442 306.364 689.697 306.575 690.01 307.826C690.245 308.756 690.65 309.484 690.911 309.443C691.179 309.403 691.832 309.409 692.374 309.458C693.242 309.535 693.242 309.615 692.374 310.178C691.551 310.706 691.61 310.826 692.701 310.899C693.419 310.946 694.222 310.951 694.496 310.909C694.764 310.866 694.986 311.125 694.986 311.485C694.986 311.844 695.495 312.14 696.128 312.142C697.597 312.147 701.006 314.384 700.431 314.963C700.19 315.206 700.333 315.404 700.758 315.404C702.514 315.404 700.764 321.832 698.59 323.396C697.571 324.126 694.986 323.988 694.986 323.205C694.986 322.824 694.698 322.687 694.359 322.9C694.013 323.113 693.131 322.913 692.4 322.455C691.342 321.796 690.8 321.789 689.788 322.42C688.985 322.921 688.365 322.979 688.117 322.576C687.503 321.583 683.435 321.823 682.345 322.917C681.803 323.456 680.758 323.897 680.014 323.897C679.27 323.897 678.662 324.191 678.662 324.55C678.662 324.909 678.075 325.203 677.357 325.203C676.638 325.203 676.051 324.85 676.051 324.419C676.051 323.809 675.874 323.809 675.267 324.419C674.294 325.387 669.521 325.463 669.521 324.511C669.521 324.13 669.26 323.98 668.94 324.177C668.62 324.374 668.163 323.877 667.922 323.072C667.497 321.65 667.471 321.645 666.916 322.917C666.531 323.8 666.328 323.906 666.289 323.243C666.243 322.394 666.152 322.389 665.636 323.212C665.303 323.734 665.179 324.395 665.356 324.682C665.532 324.969 665.388 325.203 665.029 325.203C664.677 325.203 664.187 325.83 663.939 326.596C663.593 327.69 663.377 327.795 662.927 327.086C662.496 326.408 662.352 326.535 662.346 327.598C662.339 328.377 661.967 329.148 661.523 329.312C661.014 329.498 661.627 330.449 663.155 331.833C665.839 334.271 666.328 336.591 664.461 338.012C663.384 338.828 663.39 338.881 664.592 338.901C665.538 338.916 665.676 339.11 665.121 339.663C664.566 340.217 664.624 340.654 665.356 341.385C666.087 342.117 666.524 342.177 667.079 341.623C668.098 340.602 670.076 340.693 671.199 341.814C672.348 342.963 672.381 343.961 671.317 345.151C668.816 347.935 668.757 348.067 669.809 348.47C670.364 348.683 670.657 349.12 670.455 349.442C670.259 349.764 670.553 350.027 671.114 350.027C671.839 350.027 672.153 350.727 672.205 352.477C672.283 354.876 672.296 354.886 672.734 352.967C673.125 351.239 673.223 351.426 673.55 354.546C673.798 356.901 674.314 358.376 675.11 358.956C675.763 359.434 676.018 359.844 675.685 359.867C675.345 359.89 675.737 360.177 676.553 360.504C677.474 360.875 678.186 361.865 678.44 363.129C678.741 364.633 679.002 364.932 679.459 364.288C679.903 363.669 679.988 363.842 679.759 364.889C679.576 365.697 679.701 366.395 680.027 366.44C683.115 366.866 687.131 369.456 687.17 371.048C687.196 372.248 688.815 374.269 689.331 373.751C689.566 373.517 689.762 373.645 689.762 374.034C689.762 374.423 689.39 374.89 688.946 375.071C688.456 375.268 688.587 375.422 689.273 375.452C689.899 375.481 690.415 375.742 690.415 376.034C690.415 376.325 690.944 377.134 691.59 377.83C692.237 378.527 692.962 379.611 693.197 380.24C693.438 380.869 693.954 381.383 694.346 381.383C694.738 381.383 694.881 381.089 694.659 380.73C693.993 379.66 701.456 379.925 702.54 381.01C703.761 382.232 703.781 382.163 701.522 384.724C700.451 385.94 699.569 387.137 699.563 387.382C699.556 387.627 698.969 388.015 698.25 388.243C696.566 388.776 696.572 389.901 698.257 390.341C699.824 390.752 700.333 392.45 700.072 396.409C699.883 399.254 699.942 399.353 701.842 399.496C703.428 399.616 703.552 399.541 702.495 399.1C701.404 398.646 701.58 398.509 703.585 398.272C706.086 397.977 708.175 398.412 708.09 399.21C708.064 399.466 708.064 400.189 708.09 400.818C708.129 401.795 708.214 401.772 708.697 400.655C709.167 399.563 709.265 399.701 709.305 401.491C709.357 403.823 711.035 405.082 712.014 403.526C712.497 402.763 712.595 402.774 712.615 403.594C712.628 404.393 712.739 404.411 713.196 403.688C713.843 402.666 715.997 403.154 717.505 404.664C718.047 405.204 718.491 405.332 718.491 404.947C718.491 404.534 719.961 404.247 722.083 404.247C725.354 404.247 725.68 404.377 725.726 405.717C725.752 406.525 725.922 406.819 726.105 406.371C726.712 404.86 731.178 405.4 732.856 407.187C733.737 408.125 735.122 408.82 736.101 408.82C737.048 408.82 738.171 409.17 738.595 409.598C739.046 410.047 740.75 410.304 742.63 410.204C745.751 410.038 749.075 411.319 748.089 412.308C747.847 412.545 747.945 412.74 748.298 412.74C748.644 412.74 749.336 413.755 749.819 414.996C750.309 416.237 750.903 417.13 751.151 416.978C751.393 416.827 752.131 418.294 752.797 420.237C753.456 422.181 754.207 423.637 754.475 423.475C754.736 423.313 755.134 424.015 755.356 425.035C755.65 426.359 756.401 427.138 757.987 427.762C759.208 428.241 760.188 428.805 760.168 429.016C759.94 431.13 760.423 434.297 760.978 434.297C761.905 434.297 763.544 435.968 763.544 436.91C763.544 437.321 763.178 438.044 762.728 438.517C762.277 438.991 761.357 440.146 760.677 441.084C759.998 442.022 759.026 442.79 758.516 442.79C758.007 442.79 757.759 443.058 757.961 443.387C758.164 443.715 757.994 444.096 757.589 444.231C756.721 444.52 755.65 450.629 756.466 450.629C757.308 450.629 757.119 455.371 756.198 457.352C755.748 458.32 755.017 459.113 754.566 459.116C754.116 459.119 753.75 459.428 753.75 459.804C753.75 460.179 753.012 461.222 752.118 462.12C751.216 463.019 750.485 463.446 750.485 463.07C750.485 462.694 749.454 462.387 748.2 462.387C746.463 462.387 745.915 462.113 745.902 461.244C745.895 460.285 745.797 460.256 745.288 461.062C744.955 461.591 744.472 461.815 744.217 461.562C743.962 461.308 743.368 461.611 742.898 462.234C741.762 463.732 741.782 464.347 742.976 464.347C743.512 464.347 743.956 464.596 743.956 464.901C743.956 465.206 745.125 465.982 746.548 466.625C747.978 467.269 748.99 468.049 748.794 468.358C748.605 468.667 748.905 468.92 749.467 468.92C750.048 468.92 750.485 469.479 750.485 470.227C750.485 470.945 750.263 471.533 749.995 471.533C749.728 471.533 749.506 472.268 749.506 473.166C749.506 474.064 749.728 474.799 749.995 474.799C750.883 474.799 750.505 480.098 749.551 481.052C749.036 481.565 747.756 481.985 746.692 481.985C745.634 481.985 744.4 482.426 743.956 482.965C743.257 483.803 743.466 483.945 745.379 483.945C746.607 483.945 747.978 484.31 748.422 484.756C749.068 485.402 749.362 485.368 749.858 484.592C750.394 483.755 750.57 483.749 751.086 484.549C751.562 485.297 752.033 485.064 753.456 483.37C754.546 482.072 755.604 481.404 756.205 481.634C756.74 481.84 757.583 481.671 758.079 481.259C758.777 480.679 759.561 480.896 761.572 482.228C763.002 483.172 765.078 483.945 766.188 483.945C768.539 483.945 770.073 485.23 770.073 487.203C770.073 487.968 770.367 488.413 770.726 488.191C771.085 487.969 771.425 488.319 771.477 488.969C771.536 489.619 771.647 490.445 771.732 490.804C771.81 491.164 771.914 491.798 771.954 492.216C772.052 493.147 773.723 492.964 774.781 491.908C775.852 490.838 777.223 490.934 777.673 492.111C777.876 492.65 778.457 493.091 778.96 493.091C779.462 493.091 779.874 493.744 779.874 494.56C779.887 495.621 780.044 495.786 780.442 495.154C781.284 493.821 781.793 497.375 781.31 501.256C780.938 504.243 780.866 504.355 780.461 502.563C780.03 500.647 780.017 500.658 779.946 503.053C779.854 505.82 780.004 506.545 780.618 506.341C781.056 506.195 782.126 509.364 781.93 510.239C781.872 510.508 782.12 510.729 782.479 510.729C782.838 510.729 783.138 511.831 783.138 513.178C783.152 515 783.315 515.377 783.785 514.648C784.32 513.815 784.418 513.842 784.425 514.834C784.431 515.476 784.914 516.731 785.502 517.624C786.495 519.144 786.488 519.321 785.339 520.378C783.909 521.694 783.635 526.43 784.941 527.263C785.398 527.555 785.6 528.069 785.391 528.406C785.182 528.744 785.326 529.02 785.704 529.02C786.083 529.02 786.403 529.828 786.403 530.816C786.416 532.216 786.553 532.397 787.05 531.633C787.474 530.98 787.683 530.925 787.689 531.47C787.696 531.918 788.31 532.286 789.047 532.286C789.785 532.286 790.229 532.549 790.027 532.871C789.831 533.192 790.105 533.624 790.641 533.83C791.183 534.036 791.62 534.802 791.62 535.531C791.62 536.262 791.986 536.785 792.436 536.696C792.887 536.606 793.181 536.899 793.089 537.349C792.998 537.798 793.383 538.165 793.945 538.165C794.506 538.165 794.78 538.459 794.558 538.819C794.336 539.178 794.61 539.472 795.172 539.472C795.845 539.472 796.191 540.081 796.197 541.268C796.21 542.668 796.347 542.849 796.844 542.085C797.372 541.268 797.49 541.322 797.562 542.412C797.614 543.13 797.588 544.143 797.516 544.663C797.405 545.43 797.562 545.455 798.358 544.794C799.024 544.244 799.475 544.203 799.762 544.666C799.997 545.043 800.637 545.351 801.185 545.351C803.112 545.351 805.985 548.791 805.985 551.103C805.985 552.294 806.246 553.106 806.559 552.91C806.879 552.713 807.297 553.21 807.486 554.014C808.355 557.653 809.837 560.616 810.862 560.767C812.462 561.002 814.44 562.966 814.061 563.946C813.702 564.882 815.459 566.903 816.641 566.919C817.091 566.925 817.006 567.19 816.432 567.562C815.818 567.957 815.746 568.199 816.242 568.205C816.68 568.211 818.221 569.414 819.67 570.88C821.518 572.75 822.308 574.104 822.308 575.42C822.308 576.452 822.674 577.531 823.124 577.818C825.253 579.183 826.657 585.853 824.809 585.853C824.391 585.853 824.228 586.031 824.443 586.249C824.659 586.467 824.123 587.362 823.248 588.238C822.373 589.115 821.655 590.039 821.655 590.292C821.655 591.259 818.514 594.346 817.535 594.346C816.974 594.346 816.353 594.595 816.164 594.901C815.975 595.207 813.533 595.65 810.738 595.886C807.943 596.122 805.56 596.607 805.443 596.963C805.319 597.32 804.587 597.616 803.81 597.621C802.472 597.63 802.478 597.675 804.026 598.453C805.247 599.068 805.71 599.882 805.861 601.687C806.043 603.9 806.259 604.137 808.472 604.547C809.798 604.793 811.326 605.503 811.868 606.125C812.416 606.747 813.441 607.367 814.153 607.503C815.256 607.713 815.478 608.362 815.648 611.826C815.818 615.386 815.694 615.902 814.669 615.915C813.702 615.922 813.663 616.033 814.434 616.523C815.015 616.888 815.851 616.869 816.601 616.464C817.496 615.987 818.247 616.091 819.389 616.836C820.251 617.398 821.479 617.842 822.119 617.816C823.144 617.777 823.124 617.705 821.982 617.208C821.002 616.79 821.466 616.634 823.823 616.601C825.736 616.575 827.336 616.921 827.904 617.489C828.968 618.554 829.17 622.807 828.184 623.414C827.825 623.637 827.525 624.61 827.518 625.577C827.512 627.661 827.087 628.346 824.939 629.823C823.686 630.679 823.575 630.927 824.45 630.927C825.344 630.927 825.573 631.521 825.573 633.814C825.573 635.513 825.233 636.832 824.757 637.028C824.306 637.211 824.619 637.381 825.455 637.407C827.323 637.473 828.837 638.903 828.837 640.608C828.837 641.314 829.275 642.065 829.817 642.267C832.024 643.117 829.569 647.258 826.852 647.258C826.03 647.258 825.54 647.448 825.775 647.676C826.004 647.905 825.096 648.682 823.758 649.395C822.419 650.107 821.146 650.969 820.93 651.315C820.708 651.661 820.343 651.916 820.114 651.89C818.044 651.609 815.772 651.949 816.105 652.484C816.327 652.844 815.903 653.138 815.165 653.138C814.427 653.138 813.82 653.464 813.82 653.869C813.82 654.274 813.245 654.444 812.514 654.255C811.104 653.889 810.673 654.797 812.024 655.287C812.658 655.516 812.631 655.927 811.9 657.136C810.64 659.226 810.451 664.243 811.632 664.243C812.821 664.243 812.782 667.986 811.58 669.188C810.496 670.279 807.943 670.443 807.943 669.43C807.943 669.051 807.669 668.907 807.336 669.116C807.003 669.319 806.605 668.822 806.448 668.012C806.2 666.732 806.148 666.771 806.076 668.326C806.024 669.312 805.691 670.122 805.332 670.122C804.973 670.122 804.679 670.521 804.679 671.004C804.679 672.154 802.459 674.695 801.453 674.695C801.022 674.695 800.226 674.258 799.69 673.715C799.148 673.18 797.777 672.703 796.635 672.657L794.558 672.585L796.517 672.082L798.476 671.586L796.517 671.429C795.44 671.344 794.186 671.324 793.736 671.383C793.285 671.442 792.195 670.671 791.307 669.665C790.425 668.659 789.694 668.221 789.681 668.692C789.668 669.162 789.367 669.365 789.008 669.143C788.649 668.92 788.355 669.071 788.355 669.469C788.355 669.874 788.062 670.018 787.702 669.796C787.343 669.574 787.05 669.855 787.05 670.41C787.05 671.004 786.488 671.429 785.704 671.429C784.967 671.429 784.542 671.723 784.764 672.082C784.986 672.442 784.712 672.735 784.15 672.735C783.589 672.735 783.132 673.173 783.132 673.709C783.132 675.172 785.802 677.962 787.206 677.962C787.879 677.962 788.264 678.236 788.062 678.563C787.859 678.896 788.577 679.359 789.661 679.595C790.745 679.836 791.463 680.3 791.261 680.627C791.059 680.96 791.346 681.228 791.907 681.228C792.782 681.228 792.926 682.495 792.926 690.047C792.926 697.599 792.782 698.866 791.907 698.866C791.346 698.866 791.065 699.147 791.274 699.493C791.738 700.238 787.879 704.092 786.677 704.092C786.227 704.092 785.704 703.726 785.522 703.275C785.326 702.792 785.176 702.923 785.143 703.602C785.091 704.68 782.884 705.183 779.965 704.778C779.482 704.713 779.28 704.974 779.515 705.359C779.75 705.738 779.658 706.052 779.312 706.052C778.96 706.052 778.829 706.862 779.018 707.848C779.208 708.835 779.495 711.924 779.665 714.707C779.939 719.287 779.854 719.77 778.777 719.783C777.85 719.79 777.784 719.92 778.47 720.358C779.031 720.711 779.103 721.011 778.653 721.162C778.241 721.305 778.176 721.763 778.49 722.279C778.816 722.801 780.239 723.147 782.061 723.147C783.726 723.147 785.091 723.415 785.091 723.748C785.091 724.075 785.456 724.356 785.907 724.369C786.357 724.376 787.383 724.937 788.192 725.617C789.4 726.623 789.661 727.505 789.661 730.555C789.661 733.717 789.465 734.318 788.355 734.606C787.637 734.795 787.05 735.265 787.05 735.651C787.05 736.036 786.619 735.781 786.09 735.082C785.221 733.939 785.13 733.926 785.11 734.958C785.091 735.958 784.379 736.102 779.502 736.102C775.943 736.102 774.063 735.866 774.317 735.448C774.539 735.089 774.409 734.795 774.03 734.795C773.651 734.795 773.338 735.507 773.338 736.376C773.338 737.245 772.972 738.101 772.522 738.283C771.928 738.525 771.908 738.767 772.437 739.159C773.697 740.08 773.194 746.717 771.771 748.024C771.085 748.651 770.726 749.167 770.974 749.167C771.222 749.167 770.752 749.866 769.93 750.715C769.113 751.564 768.252 752.159 768.016 752.028C767.788 751.897 767.422 752.244 767.207 752.805C766.991 753.367 766.521 753.642 766.162 753.419C765.797 753.191 765.503 753.321 765.503 753.7C765.503 754.086 764.327 754.393 762.891 754.393C761.455 754.393 760.279 754.687 760.279 755.046C760.279 755.405 759.692 755.699 758.973 755.699C758.255 755.699 757.667 755.405 757.667 755.046C757.667 754.687 756.551 754.393 755.186 754.393C753.822 754.393 752.353 754.04 751.922 753.609C751.314 753.001 751.138 753.001 751.138 753.609C751.138 754.066 750.218 754.393 748.944 754.393C746.953 754.393 746.777 754.55 747.057 756.026C747.24 756.98 747.07 757.659 746.646 757.659C746.241 757.659 745.947 757.881 745.993 758.149C746.208 759.514 745.732 760.435 743.793 762.434C742.591 763.669 741.768 765.132 741.899 765.792C742.023 766.432 741.834 766.785 741.488 766.57C741.135 766.354 740.685 767.014 740.476 768.046C740.273 769.072 739.66 770.358 739.124 770.894C738.582 771.436 738.275 772.011 738.438 772.174C738.595 772.331 737.995 772.86 737.1 773.337C736.199 773.821 735.468 774.624 735.468 775.121C735.468 775.617 735.174 775.846 734.815 775.624C734.456 775.402 734.162 775.781 734.162 776.466C734.162 777.825 732.249 779.87 730.969 779.87C730.525 779.87 730.349 780.164 730.571 780.523C730.793 780.882 730.518 781.176 729.957 781.176C729.395 781.176 728.938 781.503 728.938 781.902C728.938 782.3 728.547 782.476 728.076 782.293C727.6 782.111 726.836 782.561 726.379 783.299C725.7 784.384 725.432 784.462 724.962 783.724C724.531 783.038 724.387 783.175 724.374 784.279C724.368 785.102 724.009 785.677 723.552 785.586C723.101 785.494 722.807 785.788 722.899 786.239C723.003 786.749 722.311 787.056 721.064 787.056C719.902 787.056 719.236 786.788 719.471 786.402C719.712 786.011 718.785 785.749 717.114 785.749C715.599 785.749 714.541 785.939 714.776 786.167C715.285 786.677 711.068 789.016 709.638 789.016C709.076 789.016 708.808 789.323 709.043 789.701C709.324 790.159 707.777 790.316 704.349 790.191L699.23 789.995L699.158 787.226C699.119 785.697 699.471 783.711 699.935 782.816C700.653 781.431 700.64 781.176 699.844 781.176C699.328 781.176 698.903 780.589 698.903 779.87C698.903 779.151 698.59 778.563 698.211 778.563C697.833 778.563 697.741 778.929 698.009 779.38C698.388 780.007 698.283 780.027 697.558 779.458C697.042 779.047 695.345 778.505 693.797 778.25C691.049 777.793 690.996 777.819 691.832 779.151C692.302 779.909 692.909 780.523 693.184 780.523C693.458 780.523 693.68 781.111 693.68 781.83C693.68 782.548 693.366 783.136 692.988 783.136C692.609 783.136 692.478 783.43 692.701 783.789C692.922 784.149 692.792 784.443 692.413 784.443C691.963 784.443 691.721 787.108 691.721 791.955C691.721 796.365 691.46 799.468 691.088 799.468C690.742 799.468 690.611 799.873 690.8 800.363C690.99 800.859 690.663 801.741 690.082 802.322C689.495 802.91 689.194 803.387 689.416 803.387C689.632 803.387 689.201 804.047 688.45 804.851C687.706 805.654 687.399 806.412 687.777 806.536C688.822 806.889 688.58 810.54 687.438 811.684C686.85 812.271 686.609 813.153 686.863 813.761C687.105 814.342 687.32 815.185 687.34 815.636C687.353 816.139 688.306 816.452 689.788 816.452C691.12 816.452 692.57 816.884 693.001 817.406C693.608 818.138 694.059 818.19 694.953 817.628C696.84 816.452 698.25 817.439 698.25 819.947C698.25 821.169 698.688 822.541 699.23 822.985C699.765 823.436 700.209 824.592 700.209 825.559C700.209 826.643 700.862 827.891 701.894 828.792C702.906 829.668 703.428 830.654 703.2 831.249C702.991 831.791 702.801 832.875 702.775 833.653C702.729 835.025 702.71 835.031 702.168 833.764C701.783 832.862 701.613 833.77 701.626 836.703C701.639 839.774 701.789 840.499 702.168 839.316C702.573 838.056 702.703 837.971 702.756 838.931C702.814 840.1 702.893 840.107 704.035 839.075C705.563 837.69 709.905 837.461 710.702 838.722C711.028 839.232 711.322 840.381 711.361 841.276L711.44 842.909L711.962 841.276C712.458 839.728 712.491 839.754 712.55 841.766C712.602 843.432 712.896 843.889 713.914 843.889C715.821 843.889 717.838 845.901 717.838 847.796C717.838 849.037 718.367 849.684 719.961 850.376C721.129 850.886 722.298 851.617 722.559 852.003C723.258 853.028 723.173 866.1 722.468 866.1C722.141 866.1 722.024 866.76 722.2 867.57C722.461 868.752 722.383 868.85 721.821 868.06C721.24 867.25 721.123 867.328 721.11 868.55C721.103 869.36 720.542 870.581 719.849 871.274C719.164 871.96 718.772 872.698 718.981 872.907C719.19 873.116 718.896 873.286 718.328 873.286C717.76 873.286 716.911 874.148 716.448 875.2C715.984 876.252 715.37 876.97 715.09 876.794C714.802 876.617 714.574 876.787 714.574 877.166C714.574 877.552 714.058 877.885 713.431 877.911C712.804 877.937 712.628 878.1 713.052 878.277C713.516 878.466 712.889 879.596 711.446 881.164C708.129 884.77 705.093 884.548 703.839 880.609C703.382 879.165 701.515 878.564 701.515 879.858C701.515 880.237 701.221 880.367 700.862 880.145C700.503 879.923 700.209 880.054 700.209 880.432C700.209 880.818 699.693 881.158 699.067 881.19C698.348 881.236 698.531 881.426 699.556 881.706C701.025 882.118 701.208 882.543 701.384 885.953C701.522 888.494 701.358 889.598 700.888 889.31C700.51 889.075 700.026 889.343 699.811 889.905C699.595 890.467 698.988 890.924 698.459 890.924C697.388 890.924 695.639 889.389 695.639 888.448C695.639 887.285 692.152 888.513 690.226 890.356C689.162 891.375 688.032 892.048 687.719 891.852C687.105 891.473 686.935 892.328 687.131 894.745C687.275 896.483 685.179 898.756 683.422 898.776C682.43 898.783 682.397 898.881 683.233 899.416C683.932 899.867 683.083 900.076 680.295 900.141C678.14 900.187 676.155 900.194 675.887 900.148C675.62 900.109 675.398 901.102 675.398 902.356C675.398 903.773 674.901 905.139 674.092 905.949C673.374 906.667 672.956 907.255 673.158 907.255C673.361 907.255 673.145 907.66 672.668 908.15C672.192 908.64 671.167 909.744 670.383 910.6C668.679 912.462 666.746 914.115 666.27 914.115C666.087 914.115 666.002 914.337 666.093 914.604C666.185 914.872 665.669 915.094 664.951 915.094C664.233 915.094 663.645 915.382 663.645 915.735C663.645 916.087 662.881 916.571 661.954 916.799C660.374 917.198 660.289 917.42 660.667 919.955C660.987 922.097 660.811 922.992 659.845 924.103C659.166 924.887 658.421 925.331 658.193 925.102C657.958 924.867 657.768 925.135 657.768 925.697C657.768 926.252 657.031 926.899 656.136 927.121C655.235 927.35 654.504 927.82 654.504 928.173C654.504 928.525 653.753 928.813 652.832 928.813C651.722 928.813 651.317 929.074 651.631 929.577C651.951 930.093 651.748 930.204 651.017 929.923C650.423 929.695 649.933 929.76 649.933 930.061C649.933 930.368 649.052 930.982 647.974 931.426C646.897 931.877 646.016 932.517 646.016 932.863C646.016 933.203 644.618 933.412 642.914 933.32C640.649 933.203 639.865 933.386 640.002 934.006C640.12 934.529 639.806 934.705 639.186 934.47C638.585 934.235 638.18 934.438 638.18 934.973C638.18 935.77 635.314 937.024 634.1 936.763C633.832 936.704 633.61 936.959 633.61 937.338C633.61 937.71 633.094 937.932 632.467 937.828C631.827 937.717 631.396 937.991 631.488 938.448C631.579 938.899 631.429 939.193 631.161 939.102C630.894 939.01 630.535 939.232 630.371 939.592C629.94 940.545 627.041 941.93 626.362 941.512C626.036 941.31 625.775 941.46 625.775 941.839C625.775 942.224 625.331 942.531 624.795 942.531C624.253 942.531 623.816 942.825 623.816 943.185C623.816 943.544 623.228 943.838 622.51 943.838C621.792 943.838 621.204 944.06 621.204 944.334C621.204 944.602 620.297 945.229 619.187 945.719C617.541 946.451 616.888 946.457 615.621 945.778C614.361 945.105 613.872 945.105 613.069 945.778C612.52 946.235 611.482 946.457 610.757 946.268C610.039 946.078 609.451 946.19 609.451 946.516C609.451 946.843 608.716 947.111 607.818 947.111C606.921 947.111 606.186 947.405 606.186 947.764C606.186 948.123 605.598 948.417 604.88 948.417C604.162 948.417 603.574 948.711 603.574 949.07C603.574 949.43 603.133 949.724 602.595 949.724C602.056 949.724 601.615 950.05 601.615 950.449C601.615 950.887 600.835 951.063 599.673 950.893C598.604 950.736 597.64 950.873 597.529 951.207C597.419 951.54 595.112 951.801 592.401 951.788C588.269 951.775 587.328 951.977 586.565 953.036C586.066 953.728 585.264 954.297 584.783 954.297C584.302 954.297 584.059 954.538 584.241 954.832C584.424 955.126 582.238 955.897 579.383 956.55C576.528 957.197 574.192 957.981 574.192 958.294C574.192 958.608 573.294 958.869 572.195 958.869C571.03 958.869 570.366 959.137 570.601 959.523C570.836 959.901 570.186 960.176 569.046 960.176C567.968 960.176 566.903 960.47 566.677 960.836C566.452 961.201 565.993 961.332 565.659 961.123C565.325 960.921 565.051 961.058 565.051 961.443C565.051 961.822 564.023 962.136 562.766 962.136C561.509 962.136 560.48 962.43 560.48 962.789C560.48 963.736 557.378 963.586 557.032 962.626C556.833 962.07 556.323 962.273 555.442 963.266C554.729 964.069 553.954 964.533 553.722 964.298C553.489 964.063 553.298 964.383 553.298 965.003C553.298 965.624 553.004 965.951 552.645 965.729C552.286 965.506 551.992 965.631 551.992 966.016C551.992 966.395 551.552 966.708 551.013 966.708C550.474 966.708 550.034 966.97 550.034 967.29C550.034 967.61 549.299 968.054 548.401 968.283C547.503 968.505 546.769 969.06 546.769 969.511C546.769 970.641 544.395 972.581 543.007 972.594C542.036 972.601 542.013 972.699 542.851 973.241C543.643 973.751 543.55 973.875 542.362 973.881C541.554 973.888 540.892 974.116 540.892 974.391C540.892 974.659 540.266 975.273 539.499 975.756C538.337 976.481 538.014 976.481 537.551 975.75C537.122 975.07 536.992 975.135 536.985 976.017C536.977 976.886 536.427 977.161 534.69 977.161C533.433 977.161 532.404 977.468 532.404 977.846C532.404 978.291 530.126 978.513 526.038 978.461C517.333 978.356 517.491 978.343 518.693 979.12C519.494 979.636 519.419 979.754 518.283 979.761C517.519 979.767 516.528 980.211 516.081 980.753C515.582 981.354 514.15 981.733 512.372 981.733C510.607 981.733 509.633 981.988 509.878 982.387C510.114 982.766 509.45 983.04 508.284 983.04C507.186 983.04 506.287 982.772 506.287 982.452C506.287 982.132 505.112 981.753 503.675 981.616C501.863 981.446 501.063 981.622 501.063 982.204C501.063 982.772 499.991 983.04 497.69 983.04C495.835 983.04 494.498 983.216 494.721 983.438C495.755 984.477 490.587 987.338 488.872 986.679C488.395 986.496 488.005 986.652 488.005 987.025C488.005 987.423 486.477 987.658 484.25 987.6C482.186 987.547 479.908 987.547 479.19 987.6C477.884 987.704 477.884 987.704 479.19 988.305C480.187 988.769 479.838 988.873 477.721 988.736C475.752 988.606 474.946 988.808 474.946 989.429C474.946 989.906 474.683 990.134 474.362 989.938C474.04 989.742 473.602 990.036 473.387 990.592C473.172 991.153 472.701 991.428 472.339 991.206C471.977 990.984 471.681 991.14 471.681 991.565C471.681 992.048 470.856 992.231 469.396 992.061C467.913 991.885 467.111 992.068 467.111 992.571C467.111 993.107 465.368 993.375 461.517 993.427C457.886 993.479 456.066 993.276 456.332 992.845H456.33ZM355.62 964.291C356.248 964.128 357.277 964.128 357.905 964.291C358.534 964.455 358.019 964.592 356.762 964.592C355.505 964.592 354.992 964.455 355.62 964.291ZM282.859 959.725C283.33 959.536 283.893 959.562 284.11 959.777C284.327 959.993 283.941 960.15 283.253 960.117C282.492 960.084 282.338 959.934 282.859 959.725ZM208.321 921.085C207.727 920.432 207.24 919.249 207.24 918.465C207.24 917.681 206.886 916.473 206.453 915.774C205.81 914.748 205.871 914.291 206.781 913.285C207.394 912.606 207.7 911.854 207.46 911.613C207.219 911.371 207.383 911.175 207.823 911.175C208.263 911.175 208.442 910.881 208.22 910.522C207.553 909.444 210.899 909.783 213.06 911.012C214.9 912.063 215.068 912.442 215.072 915.584C215.073 917.472 214.782 919.014 214.423 919.014C214.063 919.014 213.77 919.471 213.77 920.033C213.77 920.595 213.507 920.889 213.185 920.693C212.864 920.49 212.432 920.771 212.227 921.307C211.712 922.646 209.627 922.529 208.321 921.085ZM179.993 914.644C180.628 914.48 181.509 914.487 181.951 914.67C182.394 914.846 181.874 914.983 180.796 914.97C179.719 914.957 179.358 914.807 179.993 914.644ZM702.331 885.371C702.338 883.934 702.468 883.424 702.625 884.235C702.782 885.051 702.775 886.227 702.612 886.848C702.449 887.475 702.325 886.808 702.331 885.371ZM207.73 874.135C208.538 873.978 209.86 873.978 210.668 874.135C211.476 874.285 210.815 874.416 209.199 874.416C207.583 874.416 206.922 874.285 207.73 874.135ZM215.606 860.43C216.078 860.24 216.641 860.266 216.858 860.482C217.075 860.698 216.689 860.854 216.001 860.822C215.24 860.789 215.085 860.639 215.606 860.43ZM213.486 858.124C212.262 856.373 212.139 853.12 213.28 852.682C213.863 852.46 214.037 850.912 213.887 847.267C213.722 843.243 213.894 841.988 214.703 841.315C215.267 840.845 215.728 840.172 215.728 839.813C215.728 838.879 220.39 834.744 221.445 834.744C221.935 834.744 222.162 834.463 221.952 834.123C221.741 833.783 222.605 833.306 223.872 833.071C226.3 832.614 230.694 833.176 230.82 833.96C231.263 836.69 231.226 838.265 230.705 838.892C230.361 839.303 229.206 840.675 228.138 841.93C227.07 843.19 226.192 844.458 226.186 844.745C226.18 845.039 225.882 845.091 225.522 844.869C225.163 844.647 224.869 845.013 224.869 845.686C224.869 846.359 224.439 847.476 223.911 848.175C223.384 848.874 222.922 850.18 222.886 851.075C222.824 852.578 222.774 852.604 222.258 851.402C221.761 850.245 221.692 850.298 221.651 851.892C221.626 852.878 221.294 853.688 220.913 853.688C220.533 853.688 220.404 853.982 220.625 854.341C220.847 854.701 220.718 854.995 220.337 854.995C219.957 854.995 219.626 855.805 219.6 856.791C219.56 858.385 219.491 858.437 218.993 857.281C218.432 855.975 218.432 855.975 218.309 857.281C218.242 858 218.2 858.751 218.218 858.94C218.236 859.136 217.408 859.358 216.379 859.443C215.075 859.541 214.197 859.136 213.486 858.124ZM724.531 850.755C724.081 850.239 723.715 849.507 723.715 849.122C723.715 848.736 723.31 848.266 722.814 848.077C721.377 847.528 721.691 842.537 723.264 840.786C726.294 837.429 734.162 840.388 734.162 844.882C734.162 846.385 733.502 847.489 731.524 849.305C728.729 851.879 726.013 852.44 724.531 850.755ZM734.86 844.164C734.893 843.399 735.05 843.249 735.259 843.765C735.448 844.242 735.422 844.804 735.206 845.019C734.991 845.235 734.834 844.85 734.86 844.164ZM699.001 820.372C699.001 819.477 699.151 819.105 699.334 819.555C699.517 820.006 699.517 820.738 699.334 821.189C699.151 821.639 699.001 821.273 699.001 820.372ZM796.844 792.569C796.844 792.014 796.569 791.72 796.236 791.929C795.466 792.406 794.728 790.172 795.231 788.872C795.433 788.336 796.295 787.526 797.137 787.075C798.43 786.383 798.985 786.442 800.696 787.448C803.092 788.865 803.21 789.747 801.297 791.949C799.697 793.791 796.844 794.183 796.844 792.569ZM702.005 791.158C703.167 791.015 705.08 791.015 706.249 791.158C707.411 791.302 706.458 791.42 704.127 791.42C701.789 791.42 700.836 791.302 702.005 791.158ZM790.491 730.222C790.491 728.609 790.615 727.942 790.771 728.752C790.928 729.562 790.928 730.882 790.771 731.692C790.615 732.502 790.491 731.842 790.491 730.222ZM780.618 717.157C780.618 716.262 780.768 715.89 780.951 716.341C781.134 716.791 781.134 717.523 780.951 717.974C780.768 718.424 780.618 718.059 780.618 717.157ZM813.213 666.477C813.245 665.713 813.402 665.563 813.611 666.079C813.8 666.556 813.774 667.117 813.559 667.333C813.343 667.549 813.186 667.163 813.213 666.477ZM818.266 652.693C818.736 652.504 819.298 652.53 819.513 652.746C819.735 652.961 819.35 653.118 818.658 653.085C817.901 653.053 817.744 652.903 818.266 652.693ZM816.529 610.676C816.529 609.781 816.68 609.409 816.862 609.859C817.045 610.31 817.045 611.042 816.862 611.492C816.68 611.943 816.529 611.577 816.529 610.676ZM806.735 602.185C806.735 601.287 806.886 600.919 807.068 601.368C807.251 601.817 807.251 602.552 807.068 603.001C806.886 603.45 806.735 603.083 806.735 602.185ZM823.085 575.728C823.098 574.65 823.242 574.288 823.411 574.924C823.575 575.559 823.568 576.441 823.385 576.883C823.209 577.326 823.072 576.806 823.085 575.728ZM751.184 478.337C751.216 477.576 751.373 477.422 751.582 477.943C751.771 478.414 751.745 478.978 751.53 479.195C751.314 479.412 751.158 479.026 751.184 478.337ZM757.818 453.895C757.818 452.638 757.948 452.123 758.111 452.752C758.281 453.38 758.281 454.409 758.111 455.038C757.948 455.667 757.818 455.153 757.818 453.895ZM670.997 326.057C671.637 325.891 672.518 325.902 672.956 326.081C673.4 326.26 672.884 326.395 671.807 326.382C670.729 326.369 670.364 326.222 670.997 326.057ZM702.214 316.982C702.246 316.221 702.403 316.067 702.612 316.588C702.801 317.06 702.775 317.623 702.56 317.84C702.344 318.057 702.188 317.671 702.214 316.982ZM666.381 301.359C666.394 300.281 666.537 299.919 666.707 300.555C666.87 301.191 666.864 302.073 666.681 302.515C666.505 302.957 666.368 302.437 666.381 301.359ZM517.915 279.682C518.386 279.493 518.949 279.516 519.167 279.733C519.384 279.951 518.998 280.105 518.309 280.077C517.549 280.045 517.394 279.89 517.915 279.682ZM519.395 269.948C519.426 269.187 519.581 269.032 519.79 269.553C519.978 270.025 519.955 270.589 519.738 270.806C519.521 271.022 519.367 270.636 519.395 269.948ZM648.464 270.55C648.908 270.369 649.646 270.369 650.096 270.55C650.54 270.731 650.175 270.879 649.28 270.879C648.379 270.879 648.014 270.731 648.464 270.55ZM640.237 264.45C640.237 263.552 640.387 263.184 640.57 263.633C640.753 264.082 640.753 264.817 640.57 265.267C640.387 265.715 640.237 265.348 640.237 264.45ZM604.276 245.124C604.307 244.363 604.462 244.208 604.671 244.729C604.859 245.201 604.836 245.765 604.62 245.982C604.402 246.199 604.248 245.813 604.276 245.124ZM545.46 241.547C545.46 241.167 545.167 241.037 544.807 241.259C543.84 241.857 544.002 237.725 544.984 236.743C547 234.726 548.627 234.328 550.01 235.513C551.595 236.871 551.802 239.626 550.319 239.626C549.759 239.626 549.483 239.92 549.704 240.279C549.926 240.639 549.486 240.933 548.725 240.933C547.965 240.933 547.524 241.227 547.746 241.586C547.968 241.945 547.545 242.239 546.805 242.239C546.066 242.239 545.46 241.928 545.46 241.547ZM582.933 192.149C581.255 189.929 580.774 189.674 578.597 189.854C577.106 189.978 576.148 189.771 576.148 189.326C576.148 188.924 575.855 188.776 575.497 188.997C574.746 189.462 571.629 186.16 571.599 184.869C571.588 184.394 571.15 183.577 570.626 183.053C569.626 182.053 569.921 180.464 571.385 178.984C571.857 178.505 572.048 177.799 571.81 177.412C571.552 176.996 571.684 176.901 572.135 177.18C572.556 177.441 573.062 177.209 573.273 176.659C573.499 176.069 574.882 175.5 576.696 175.25C580.014 174.793 583.374 173.592 583.004 172.994C582.324 171.893 585.915 172.596 587.522 173.878C589.037 175.087 589.272 175.606 588.738 176.563C588.264 177.409 588.329 178.239 588.963 179.455C590.038 181.516 590.113 183.585 589.147 184.551C588.641 185.058 588.634 185.641 589.124 186.556C589.503 187.266 589.629 188.032 589.402 188.259C589.175 188.486 589.332 188.672 589.752 188.672C590.807 188.672 590.707 190.531 589.592 191.646C589.086 192.153 588.571 192.846 588.45 193.185C588.328 193.524 587.461 193.992 586.524 194.224C585.084 194.581 584.527 194.26 582.933 192.149ZM649.933 114.38C649.391 114.176 648.712 113.605 648.418 113.111C648.131 112.617 647.615 112.385 647.276 112.595C646.571 113.03 644.71 111.384 644.71 110.327C644.71 109.943 644.416 109.628 644.057 109.628C643.117 109.628 643.247 107.838 644.22 107.447C644.664 107.266 644.403 107.094 643.626 107.066C641.386 106.984 639.982 101.135 642.202 101.135C642.548 101.135 642.646 100.841 642.424 100.482C642.203 100.123 642.431 99.8288 642.934 99.8288C643.436 99.8288 644.383 99.2409 645.036 98.5223C645.702 97.7802 647.047 97.2158 648.131 97.2158C649.502 97.2158 650.149 97.5895 650.397 98.5223C650.625 99.4193 651.285 99.8288 652.486 99.8288C655.228 99.8288 656.946 102.048 654.667 102.644C653.577 102.929 653.577 102.947 654.667 103.019C655.294 103.061 655.81 103.462 655.816 103.912C655.823 104.463 656.045 104.41 656.502 103.748C657.063 102.94 657.148 102.998 656.965 104.075C656.848 104.794 657.331 105.858 658.043 106.44C659.257 107.437 659.27 107.565 658.225 108.61C657.612 109.221 657.109 110.214 657.102 110.817C657.096 111.764 657.005 111.78 656.463 110.934C655.927 110.111 655.823 110.151 655.816 111.184C655.797 113.624 652.565 115.378 649.933 114.38ZM623.209 107.831C623.182 107.382 622.425 107.015 621.531 107.015C620.629 107.015 619.898 106.703 619.898 106.323C619.898 105.942 619.624 105.797 619.298 106.001C618.971 106.204 617.646 105.14 616.359 103.635C614.551 101.523 614.022 100.327 614.022 98.3838C614.022 96.8898 614.374 95.7323 614.89 95.5337C615.804 95.1816 616.118 93.2963 615.262 93.2963C614.982 93.2963 614.57 92.7038 614.342 91.9799C614.113 91.2561 613.65 90.8328 613.317 91.0386C612.984 91.245 612.716 90.661 612.716 89.7419C612.716 88.8221 613.01 88.0702 613.369 88.0702C613.728 88.0702 614.022 87.6116 614.022 87.0518C614.022 86.4913 614.316 86.2149 614.675 86.437C615.034 86.6591 615.328 86.522 615.328 86.1326C615.328 85.7433 616.059 85.1449 616.96 84.8039C617.855 84.4622 618.592 83.7802 618.592 83.2877C618.592 82.7958 619.167 81.8675 619.879 81.2247C620.59 80.5819 620.982 79.7562 620.76 79.389C620.532 79.0226 620.649 78.9115 621.028 79.1428C621.4 79.374 622.066 79.1258 622.51 78.5908C623.431 77.4848 629.692 77.2065 629.692 78.2713C629.692 78.6306 630.424 78.9246 631.325 78.9246C632.291 78.9246 632.957 79.2989 632.957 79.843C632.957 80.4401 633.414 80.642 634.263 80.4199C635.066 80.2095 635.569 80.4003 635.569 80.917C635.569 81.3776 635.745 81.5729 635.967 81.3508C636.555 80.7687 638.18 82.5626 638.18 83.7861C638.18 84.8013 639.421 87.4248 640.211 88.0702C641.458 89.0952 642.751 93.0042 642.751 95.7754C642.751 98.9744 641.458 101.135 639.558 101.135C639.114 101.135 638.938 101.429 639.16 101.789C639.382 102.148 639.232 102.442 638.833 102.442C638.429 102.442 638.285 102.736 638.507 103.095C638.729 103.454 638.448 103.748 637.887 103.748C637.332 103.748 636.875 104.042 636.875 104.402C636.875 104.761 636.306 105.055 635.614 105.055C634.922 105.055 633.91 105.496 633.375 106.035C632.343 107.062 628.386 107.409 628.386 106.47C628.386 106.171 627.942 105.926 627.407 105.926C626.865 105.926 626.428 106.171 626.428 106.47C626.428 106.77 625.86 107.015 625.174 107.015C624.482 107.015 623.777 107.382 623.594 107.831C623.326 108.485 623.254 108.485 623.209 107.831ZM796.243 70.9555C793.559 70.3564 791.79 68.9434 787.84 64.2517C786.919 63.1575 786.932 58.7957 787.853 57.5754C788.173 57.1508 788.61 55.1544 788.812 53.1385C789.159 49.799 789.459 49.2359 792.201 46.8091C793.853 45.3445 795.133 43.887 795.041 43.5702C794.898 43.0593 796.315 42.7059 797.653 42.9176C797.927 42.9601 798.143 42.6837 798.143 42.3035C798.143 41.909 798.495 41.8345 798.959 42.1298C800.108 42.8575 801.003 42.8255 801.551 42.037C801.871 41.5817 802.446 41.6235 803.321 42.165C804.137 42.6707 804.764 42.7308 805.012 42.3284C805.789 41.0656 808.368 41.6555 809.099 43.2651C809.497 44.132 810.438 45.0387 811.202 45.2798C812.364 45.6489 812.547 46.1499 812.383 48.4304C812.22 50.6711 811.822 51.3714 810.085 52.4584C808.936 53.1816 807.989 53.9211 807.989 54.1007C807.989 54.2804 808.936 55.0192 810.085 55.7424C812.168 57.0495 813.474 60.6333 811.861 60.6333C811.456 60.6333 811.273 60.8737 811.456 61.167C811.639 61.461 811.215 62.1143 810.516 62.6179C809.817 63.1222 809.243 63.7768 809.243 64.0734C809.243 64.9964 806.004 67.9087 805.39 67.5317C805.077 67.3358 804.646 67.8446 804.444 68.6638C804.13 69.9018 800.65 71.9791 799.403 71.6688C799.253 71.6303 797.829 71.3089 796.243 70.9555ZM813.265 48.2214C813.265 47.3232 813.415 46.9554 813.598 47.4048C813.781 47.8536 813.781 48.5885 813.598 49.038C813.415 49.4868 813.265 49.1196 813.265 48.2214ZM820.512 19.8071C820.062 19.297 819.696 18.409 819.696 17.8336C819.696 17.2583 819.455 16.9369 819.154 17.1194C818.083 17.7811 816.647 15.0813 816.562 12.2502C816.503 10.3046 816.863 8.88497 817.659 7.9303C819.984 5.14095 826.572 5.44713 827.342 8.38026C827.525 9.09453 827.943 9.67887 828.256 9.67887C828.576 9.67887 828.837 10.8938 828.837 12.3786C828.837 14.3291 828.446 15.4169 827.427 16.2981C826.657 16.969 826.226 17.518 826.474 17.518C826.722 17.518 826.546 17.9281 826.082 18.4293C825.625 18.9306 825.018 19.2059 824.75 19.0412C824.476 18.8765 824.077 19.2013 823.862 19.763C823.379 21.0256 821.603 21.0491 820.512 19.8071Z" fill="black"/>
<circle cx="396" cy="484" fill="#5CE50D"/>
<circle cx="653" cy="306" fill="#E52A0D"/>
<circle cx="396" cy="689" fill="#E52A0D"/>
<circle cx="683" cy="816" fill="#E52A0D"/>
</svg>
