<svg width="1000" height="1000" viewBox="0 0 1000 1000" fill="none" xmlns="http://www.w3.org/2000/svg">
<rect width="1000" height="1000" />
<path d="M364.695 2.08887C361.863 3.84668 361.472 4.62793 361.472 8.33887C361.472 12.3428 361.668 12.7334 364.89 13.8076C368.699 15.2725 368.797 15.3701 367.136 20.6436C366.355 23.4756 366.355 25.3311 367.136 28.1631C368.113 31.2881 369.09 32.2646 373.679 34.5107C376.609 35.9756 379.246 37.1475 379.441 37.1475C379.734 37.1475 380.125 35.7803 380.515 34.2178C381.004 31.7764 381.687 31.2881 383.933 31.2881C385.496 31.2881 387.254 31.0928 388.035 30.7998C388.816 30.5068 390.183 31.874 391.55 34.2178C393.211 37.2451 393.601 38.9053 393.113 41.9326C392.527 45.8389 392.625 46.0342 400.925 55.0186L409.324 64.1982L407.371 75.3311C406.297 81.4834 405.222 87.3428 404.929 88.5146C404.636 90.0771 406.004 91.7373 411.57 96.2295C420.652 103.651 428.758 111.366 429.929 113.515C430.515 114.687 430.515 116.737 429.832 119.276C428.953 122.304 429.05 125.038 429.929 130.214C431.101 136.366 431.883 138.124 438.133 146.425C441.941 151.601 445.359 156.288 445.75 156.972C446.14 157.655 443.699 160.39 439.402 164.003C435.496 167.226 429.246 173.769 425.535 178.456L418.797 187.05L410.3 186.757C402.097 186.366 401.707 186.464 399.851 188.905C398.484 190.565 396.824 191.444 395.164 191.444C392.82 191.444 389.89 193.593 389.793 195.351C389.793 195.644 391.355 196.718 393.211 197.694L396.629 199.55L396.14 205.507L395.554 211.464L401.804 221.132L408.054 230.702L400.34 244.96C396.14 252.772 392.722 260.194 392.722 261.464C392.722 264.003 391.55 264.394 389.793 262.343C388.914 261.269 388.133 261.171 386.472 261.854C384.422 262.831 384.324 263.222 385.203 267.714C386.082 272.011 385.886 273.183 383.933 277.382C381.297 283.046 381.883 284.511 386.961 284.022C390.379 283.729 390.769 283.925 392.234 287.147C393.504 289.979 393.601 291.737 392.918 296.425C392.136 301.308 392.234 302.968 393.894 307.362L395.945 312.538L393.406 315.761C390.965 318.983 390.965 319.081 392.527 323.476C393.992 327.675 393.992 328.163 391.843 335.585C390.574 339.784 388.523 345.155 387.254 347.401C384.226 352.772 384.226 355.8 387.449 357.948C389.597 359.315 389.89 360.097 389.402 362.831C388.816 365.565 389.5 367.421 392.918 373.671C395.261 377.772 397.605 381.288 398.093 381.483C398.679 381.581 402.879 382.265 407.664 382.851C413.035 383.632 416.16 384.511 416.16 385.194C416.16 385.878 414.89 387.636 413.328 389.101C411.668 390.663 410.3 393.007 410.105 394.374C409.91 396.229 408.933 397.108 406.492 397.987C404.05 398.769 402.781 399.94 402.097 402.187C400.34 407.265 398.875 408.046 392.332 407.362L386.57 406.679L380.125 411.659C373.679 416.737 373.679 416.737 371.238 414.979C369.871 414.003 366.453 413.124 363.426 412.929L358.054 412.538L350.926 422.499C344.773 431.19 343.894 432.948 343.894 436.659C343.894 442.909 344.773 445.155 347.312 445.741C351.023 446.718 351.414 453.554 348.386 466.933C346.043 477.382 345.945 478.456 347.312 483.339L348.679 488.71L345.164 493.397C343.015 496.425 340.769 501.503 338.914 507.46C335.593 518.495 335.886 518.007 332.273 519.472C330.418 520.253 328.953 522.011 327.976 524.452C326.707 527.675 325.535 528.749 320.75 530.897C317.625 532.265 313.816 533.729 312.156 534.12C309.519 534.706 309.226 535.097 309.519 538.222C310.008 542.128 310.593 542.616 316.258 543.495C319.773 543.983 320.847 544.765 323.289 548.28L326.121 552.382L321.824 555.019C318.015 557.265 317.625 557.948 318.504 559.511C319.09 560.683 321.726 562.05 325.242 563.026L330.906 564.687L334.617 572.206C336.765 576.796 339.402 580.507 341.062 581.679C343.113 583.046 343.992 584.608 344.48 587.733C345.457 593.983 350.047 595.741 353.953 591.347C355.418 589.687 357.761 588.612 360.984 588.026C363.621 587.538 365.867 587.147 365.965 587.245C365.965 587.343 367.332 589.198 369.09 591.444C371.043 594.081 373.386 595.741 375.925 596.522C380.808 597.987 382.468 601.405 381.59 608.144C380.808 613.612 382.957 617.909 387.742 620.741C390.086 622.108 391.453 624.452 394.578 632.362C398.191 641.737 398.777 642.616 407.175 650.917C415.183 658.925 415.965 660.097 416.648 664.394C417.136 668.495 417.722 669.276 420.554 670.644C423.582 672.108 424.07 672.108 426.316 670.546C428.562 669.179 428.855 668.202 428.855 663.71C428.855 659.315 429.148 658.437 430.808 657.948C432.273 657.558 433.64 658.534 436.082 661.366L439.402 665.272L441.062 662.733C442.039 661.366 445.066 658.925 447.898 657.265L453.074 654.335L462.058 655.604C470.945 656.972 471.043 656.972 472.019 654.823C472.898 652.87 473.972 652.577 481.004 651.991C485.301 651.601 492.332 650.526 496.531 649.55C503.953 647.792 504.148 647.792 505.418 649.647C506.199 650.722 510.789 655.897 515.769 661.269L524.754 670.937L524.461 678.554C524.168 686.171 525.633 693.69 527.586 694.96C528.367 695.351 528.465 698.28 528.074 703.554C527.488 710.878 527.586 711.952 530.32 718.202L533.152 725.038L530.808 728.456C528.855 731.386 528.465 733.144 528.465 739.003C528.465 742.812 529.148 748.964 530.027 752.675L531.59 759.315L526.121 764.394C523.093 767.226 520.652 770.155 520.652 770.937C520.652 771.718 519.09 773.573 517.332 774.94C511.179 779.628 509.91 782.948 510.593 792.421L511.179 800.624L506.59 807.948C503.074 813.612 500.144 816.737 494.676 820.937L487.449 826.503V833.632C487.449 840.565 487.449 840.761 490.183 841.347C491.941 841.737 495.066 844.472 499.265 849.452C502.781 853.554 506.004 857.558 506.394 858.144C506.785 858.925 505.906 860.878 504.051 863.124L501.121 866.835L503.66 876.796L506.297 886.757L513.035 888.905C520.652 891.347 522.898 893.886 524.07 901.308C524.851 905.8 528.465 910.097 531.687 910.194C532.566 910.194 533.347 910.878 533.347 911.757C533.347 912.636 538.133 918.007 543.992 923.671C552.488 932.167 554.636 934.804 555.222 937.733C555.711 940.565 557.175 942.519 561.765 946.522C565.183 949.452 568.797 953.651 570.066 956.288C572.019 960.194 572.996 960.976 576.023 961.562C578.172 961.952 580.222 961.757 581.394 961.073C583.347 959.804 584.422 960.194 587.84 963.222C589.5 964.784 589.988 966.249 589.988 970.058C589.988 974.062 589.5 975.233 587.156 977.479C585.593 978.944 582.566 980.897 580.32 981.874C575.73 984.022 574.558 986.464 576.609 989.687C577.488 990.956 578.269 993.397 578.465 995.253C578.758 998.183 579.148 998.573 582.664 999.257C584.812 999.745 590.476 999.94 595.359 999.843L604.148 999.55V989.979C604.148 984.608 603.855 980.116 603.465 979.823C602 978.944 602.781 973.378 605.222 967.226C607.273 962.05 607.566 960.39 606.687 957.753C606.199 956.093 605.418 952.479 605.027 949.843C604.441 945.741 603.562 944.276 599.363 940.077C596.629 937.343 593.504 933.437 592.429 931.483L590.574 927.772L593.894 924.94C595.75 923.28 598.582 921.718 600.047 921.425C603.172 920.644 604.636 917.812 604.636 912.147C604.636 909.999 605.515 906.874 606.59 905.116C607.566 903.358 608.25 901.112 607.957 899.94C607.761 898.866 608.152 894.862 608.933 891.151C610.203 885.292 610.984 883.827 614.109 881.093C621.726 874.452 624.851 872.792 628.562 873.476C630.418 873.866 632.371 874.94 632.957 876.015C634.031 878.065 638.425 878.651 641.55 877.089C642.429 876.601 647.215 875.038 652 873.573C656.883 872.108 661.863 869.96 663.23 868.69C664.597 867.519 667.527 865.37 669.773 864.003C675.047 860.683 675.437 859.999 673.386 856.581C671.726 853.749 671.726 852.87 673.777 836.269C674.949 826.698 677.488 809.804 679.441 798.866L683.054 778.847L681.004 770.058C679.832 765.272 678.465 758.339 677.879 754.726L676.902 748.085L683.738 733.534C687.449 725.526 690.574 718.397 690.574 717.616C690.574 715.761 683.64 713.515 680.418 714.296L677.781 714.979L679.832 711.269C680.906 709.218 682.664 706.093 683.64 704.335C685.105 701.796 685.496 699.452 685.3 693.397L685.008 685.683L666.062 660.78C650.535 640.37 646.824 634.804 645.066 629.628C643.406 624.843 639.988 619.374 630.222 606.386C612.742 582.948 573.093 533.729 571.922 533.925C570.554 534.218 568.308 544.96 568.797 549.062C569.09 551.308 568.699 553.358 567.82 554.628C567.039 555.8 566.746 557.265 567.136 557.851C567.625 558.534 568.015 559.804 568.015 560.78C568.308 563.71 572.508 566.542 575.828 565.858C587.937 563.612 592.332 564.589 593.894 570.253C594.383 572.206 594.871 574.159 594.871 574.55C594.871 575.038 595.652 576.601 596.726 577.968C598.484 580.604 599.754 585.878 600.34 593.202C600.535 595.253 601.902 599.452 603.367 602.479C605.32 606.386 606.004 609.12 605.808 611.952C605.613 614.198 605.906 616.347 606.492 616.737C607.078 617.03 607.566 618.593 607.566 620.058C607.566 621.62 608.25 623.378 609.031 624.062C609.91 624.843 610.496 626.894 610.496 629.53C610.496 632.753 610.984 634.022 612.449 634.804C613.718 635.487 614.402 636.854 614.402 638.71C614.402 640.565 615.086 641.933 616.355 642.616C619.187 644.179 618.797 647.694 615.379 650.917C612.84 653.358 612.254 653.554 611.472 652.382C610.984 651.601 610.496 650.624 610.496 650.136C610.496 649.745 609.422 648.866 608.054 648.28C606.687 647.694 605.32 646.132 605.027 644.862C604.636 643.593 602.488 641.249 600.144 639.589C597.019 637.44 595.75 635.878 595.261 633.339C594.578 629.335 589.5 622.597 587.254 622.499C586.277 622.499 584.519 621.913 583.152 621.327C581.785 620.741 580.027 620.058 579.148 619.862C577.586 619.374 575.34 610.976 575.34 605.8C575.34 604.237 574.265 602.87 572.019 601.503C570.164 600.429 568.211 598.28 567.527 596.718C566.355 593.886 564.109 592.323 562.547 593.397C562.058 593.69 562.742 595.253 564.109 596.913C566.843 600.136 566.55 602.187 563.621 600.624C561.57 599.55 559.617 601.308 561.472 602.479C563.035 603.358 567.527 610.292 567.527 611.659C567.527 612.343 566.355 613.515 564.89 614.296C562.547 615.663 562.058 616.737 561.179 622.987L560.203 630.116L554.832 631.874C551.902 632.948 548.484 633.729 547.215 633.827C545.359 633.827 545.164 633.534 546.043 631.972C547.605 628.944 547.312 628.261 542.136 625.136C539.207 623.378 536.765 620.937 536.179 619.374C535.593 617.909 533.933 615.37 532.371 613.808C529.929 611.269 529.441 609.608 528.367 601.21L527.195 591.444L530.125 589.003C533.347 586.171 536.277 580.897 536.277 577.772C536.277 576.601 536.961 574.647 537.84 573.476C538.621 572.304 539.207 570.351 539.109 569.081C538.914 567.909 539.597 565.663 540.672 564.101C542.527 561.269 542.527 561.269 540.379 559.804C539.207 559.022 538.23 557.558 538.23 556.581C538.23 555.507 537.644 554.726 536.961 554.726C535.008 554.726 532.664 551.698 531.883 548.183C531.297 545.058 529.441 542.714 529.441 545.058C529.441 545.839 528.855 545.644 527.683 544.667C526.121 543.3 525.437 543.202 522.703 544.276C519.871 545.253 519.383 545.253 518.504 543.69C518.015 542.714 516.258 540.468 514.695 538.71C513.133 536.854 511.57 533.925 511.277 532.167C510.886 530.312 509.617 527.772 508.445 526.405C505.32 522.987 502.683 515.37 503.562 512.538C504.051 511.366 505.32 508.925 506.59 507.265C509.422 503.651 509.617 498.769 507.273 492.226C505.711 487.929 505.711 487.245 507.468 480.116C508.933 473.671 509.031 472.011 507.957 468.886C507.078 466.151 507.078 464.687 507.859 463.124C509.324 460.487 509.226 459.999 507.468 459.999C506.59 459.999 506.004 459.12 506.004 457.655C506.004 456.386 505.125 454.237 504.051 452.87C502 450.233 501.316 442.03 503.074 440.956C504.832 439.882 504.148 437.929 501.609 436.757C500.34 436.171 497.996 433.925 496.433 431.776C492.82 426.796 491.453 416.347 493.894 412.538C494.968 410.976 495.261 409.022 494.871 406.581C494.578 404.53 493.992 401.015 493.699 398.671C493.015 394.472 490.183 391.347 487.254 391.737C484.422 392.03 482.468 391.542 483.054 390.663C483.445 390.077 482.371 388.417 480.906 386.854C479.343 385.292 477.488 382.265 476.902 380.116C476.218 377.87 475.34 375.917 474.851 375.624C473.484 374.745 475.633 364.394 478.562 358.046C480.613 353.651 481.199 351.015 480.906 348.085C480.515 344.765 480.906 343.69 483.347 341.054C485.008 339.296 486.765 337.929 487.351 337.929C487.84 337.929 489.109 337.05 490.086 336.073C491.062 335.097 492.722 334.022 493.797 333.827C495.457 333.534 495.75 332.753 495.457 329.433C495.359 327.187 495.652 325.136 496.238 324.745C496.726 324.452 497.215 323.085 497.215 321.815C497.215 320.155 497.801 319.374 499.363 319.179C500.535 318.983 502.879 317.03 504.539 314.784C506.101 312.538 508.836 310.194 510.496 309.608C514.988 308.046 516.16 305.116 515.476 296.62C515.086 291.249 514.304 288.124 512.156 284.413C509.812 280.214 509.617 279.14 510.691 277.675C512.84 274.452 513.133 273.28 512.058 271.425C511.375 270.448 510.886 267.714 510.886 265.565C510.886 262.831 510.008 259.901 508.25 256.972C506.004 253.163 505.808 252.187 506.687 248.866C507.468 246.034 507.371 244.765 506.394 243.495C504.636 241.151 504.734 236.562 506.492 234.706C507.664 233.632 507.957 231.386 507.859 226.308C507.761 222.401 507.761 211.073 507.761 201.015C507.859 190.468 507.468 181.581 506.883 180.116C506.199 178.163 506.297 176.112 507.078 172.694C508.152 168.69 508.152 167.812 506.687 166.249C504.246 163.612 504.636 161.659 508.054 158.827C510.593 156.679 510.984 155.897 510.398 153.261C509.617 149.745 511.375 145.546 513.621 145.546C514.402 145.546 515.672 146.327 516.453 147.206C517.722 148.866 517.82 148.769 517.234 146.522C516.843 145.155 516.258 142.128 516.062 139.784C515.672 136.366 514.5 134.12 510.789 129.726C508.152 126.503 506.004 123.378 506.004 122.597C506.004 121.815 504.246 120.058 502.097 118.69C500.047 117.421 497.801 115.272 497.117 114.101C496.433 112.831 494.48 110.39 492.722 108.729C487.937 103.944 486.472 101.503 486.472 97.9873C486.472 93.9834 482.761 86.6592 479.343 84.0225C476.902 82.0693 476.707 81.4834 477.293 77.2842C477.683 73.8662 477.488 71.7178 476.316 69.4717C475.34 67.7139 474.949 65.5654 475.242 64.5889C475.535 63.6123 475.34 60.6826 474.754 58.1436C473.777 53.749 473.875 53.2607 476.218 50.8193L478.855 48.085L474.558 45.1553C472.312 43.4951 468.797 40.5654 466.941 38.6123C465.086 36.5615 462.254 34.2178 460.789 33.2412C458.152 31.5811 457.566 31.5811 452.683 32.9482C447.703 34.4131 447.215 34.4131 442.429 32.46C437.84 30.5068 437.254 30.5068 434.031 31.7764C427.586 34.5107 419.773 33.1436 418.211 29.1396C417.722 27.8701 414.695 24.0615 411.472 20.5459C406.687 15.3701 405.418 14.3936 404.246 15.3701C403.269 16.249 399.851 16.4443 393.211 16.1514L383.543 15.7607L375.73 7.94824L367.82 0.135742L364.695 2.08887Z" fill="black"/>
<circle cx="439" cy="599" fill="#5CE50D"/>
<circle cx="619" cy="644" fill="#E52A0D"/>
<circle cx="470" cy="254" fill="#E52A0D"/>
<circle cx="559" cy="866" fill="#E52A0D"/>
</svg>
