<svg width="1000" height="1000" viewBox="0 0 1000 1000" fill="none" xmlns="http://www.w3.org/2000/svg">
<g clip-path="url(#clip0_1_2453)">
<rect width="1000" height="1000" />
<path d="M0 152.855C0 155.395 6.93359 172.973 9.08203 175.707C11.6211 178.93 11.6211 181.469 9.08203 181.469C8.00781 181.469 7.8125 182.055 8.30078 183.617C8.69141 184.887 9.17969 187.621 9.47266 189.77C9.76562 191.918 10.5469 194.359 11.2305 195.141C13.5742 197.777 16.6016 205.98 16.6016 209.691C16.6016 212.328 17.5781 214.574 20.6055 218.578C23.4375 222.387 24.4141 224.438 23.9258 225.805C23.5352 226.977 23.0469 230.004 22.7539 232.641C22.2656 237.035 22.2656 237.328 24.2188 236.742C27.2461 235.766 28.125 238.402 28.7109 249.633C29.2969 260.863 30.7617 264.672 35.2539 267.016C36.9141 267.797 40.1367 270.238 42.3828 272.289C44.5312 274.242 47.3633 276.195 48.5352 276.586C50.5859 277.27 51.3672 278.246 58.0078 288.695C59.8633 291.527 62.5 294.945 63.8672 296.215C65.2344 297.484 66.4062 299.242 66.4062 300.023C66.4062 300.805 68.457 303.93 70.8984 306.957C75.0977 312.035 75.3906 312.719 74.8047 316.527C74.4141 318.773 74.1211 323.168 74.1211 326.195C74.1211 329.32 73.6328 331.859 73.1445 331.859C72.6562 331.859 72.2656 331.176 72.2656 330.395C72.2656 329.613 71.582 328.93 70.8008 328.93C70.0195 328.93 69.3359 329.711 69.3359 330.785C69.3359 331.762 68.6523 333.129 67.8711 333.812C66.1133 335.277 67.5781 338.695 69.9219 338.695C70.7031 338.695 71.6797 339.672 72.168 340.844C73.2422 343.773 72.5586 344.359 70.8008 342.016C69.3359 340.16 69.3359 340.16 69.9219 342.113C70.3125 343.188 71.2891 344.848 72.0703 345.824C72.8516 346.703 73.2422 347.777 72.9492 348.168C71.9727 349.145 68.3594 345.434 68.3594 343.48C68.3594 342.504 67.4805 341.43 66.4062 341.137C65.332 340.844 64.4531 339.672 64.4531 338.598C64.4531 336.449 62.6953 336.254 59.1797 337.816C57.3242 338.695 56.3477 338.695 55.2734 337.816C53.8086 336.547 41.9922 333.52 41.3086 334.105C40.5273 334.984 44.1406 341.723 45.7031 342.309C46.582 342.699 48.5352 344.066 49.9023 345.434C51.2695 346.801 53.5156 348.754 54.9805 349.633C56.8359 350.902 57.6172 352.465 58.1055 356.078C58.5938 359.984 59.2773 361.156 61.3281 362.23C62.793 362.914 64.8438 363.5 65.918 363.598C66.9922 363.598 68.2617 364.574 68.8477 365.746C69.3359 366.918 71.7773 368.773 74.3164 369.75C78.0273 371.312 79.3945 372.68 81.9336 377.172L85.1562 382.641L87.8906 380.688C89.9414 379.223 91.2109 378.93 92.4805 379.516C93.457 380.004 95.6055 380.98 97.168 381.762C99.2188 382.836 100.391 384.203 100.977 386.84C101.465 388.793 102.344 390.453 102.93 390.453C104.102 390.551 109.375 394.848 109.375 395.727C109.375 397.094 116.992 403.148 119.336 403.637C124.121 404.711 130.371 419.457 130.176 429.516C130.176 435.375 129.297 442.797 128.516 443.969C128.223 444.457 127.344 447.484 126.465 450.609C125.195 455.59 125.195 456.469 126.465 458.422C127.344 459.789 129.395 460.961 131.348 461.352C134.082 461.84 135.156 462.621 136.23 465.258C137.109 467.309 138.477 468.773 140.039 469.164C141.406 469.457 142.578 470.336 142.578 471.117C142.578 471.801 143.945 473.363 145.508 474.633C147.168 475.805 148.438 477.27 148.438 477.855C148.438 478.93 153.613 483.227 154.785 483.227C156.348 483.227 166.309 493.188 168.945 497.289C170.605 499.828 172.559 502.074 173.34 502.367C174.219 502.758 175.488 504.125 176.172 505.492C176.953 506.957 179.199 508.617 181.738 509.594C186.328 511.449 186.719 512.133 189.941 525.707C191.211 531.078 192.285 533.129 194.629 535.082C197.559 537.621 197.754 537.621 200.879 536.059C202.539 535.18 204.395 533.52 204.98 532.25C205.566 531.078 206.934 530.102 208.008 530.102C210.742 530.102 213.867 528.344 213.867 526.879C213.867 526.195 214.648 524.047 215.723 522.094L217.48 518.48L214.746 514.281C213.184 512.035 211.133 509.789 209.961 509.398C208.594 508.91 208.008 507.836 208.008 505.883C208.008 504.418 206.934 501.684 205.566 499.828C204.102 497.875 203.125 495.238 203.125 493.285C203.125 490.844 202.734 490.062 201.367 490.062C200.488 490.062 198.145 488.109 196.289 485.668C192.871 481.273 189.551 479.516 187.5 480.785C186.816 481.176 186.523 482.348 186.816 483.324C187.109 484.301 186.719 485.863 185.938 486.84C185.059 488.012 184.668 488.207 184.57 487.23C184.57 486.352 183.789 486.156 182.129 486.547C179.492 487.23 178.613 486.059 175.586 478.344C173.438 472.973 173.34 469.164 175.293 467.602C176.074 466.918 176.758 465.355 176.758 463.988C176.758 461.645 172.656 452.66 170.312 450.023C169.629 449.145 168.75 445.824 168.359 442.699C167.773 437.914 167.09 436.352 164.258 433.422C159.375 428.441 157.91 424.926 157.715 417.797C157.422 411.156 155.664 400.414 154.199 396.508C153.711 395.238 153.32 393.48 153.32 392.504C153.32 391.527 152.148 389.77 150.781 388.402C149.316 387.133 147.559 384.496 146.777 382.641C145.508 379.711 145.215 379.516 144.336 381.078C143.652 382.25 143.652 383.52 144.336 384.984C147.363 391.527 147.559 392.602 145.801 392.211C144.727 392.016 143.652 390.16 142.773 387.035C141.992 384.301 140.332 380.883 138.965 379.32C136.816 376.684 136.719 376.391 138.184 374.242C139.648 371.996 139.551 371.898 137.695 371.898C135.254 371.898 132.52 367.602 129.785 359.496C128.418 355.297 126.855 352.562 124.707 350.902C115.625 343.578 115.723 343.676 115.723 335.375C115.723 331.176 115.332 327.562 114.941 327.27C114.453 326.977 114.355 325.707 114.746 324.34C115.625 320.629 114.551 318.48 111.426 317.895C109.57 317.504 108.301 316.527 107.91 315.062C106.348 309.984 102.93 303.539 101.758 303.539C101.074 303.539 100 302.465 99.4141 301.098C98.6328 299.34 97.7539 298.754 96.582 299.145C94.7266 299.73 94.8242 300.023 93.2617 289.574C92.9688 287.719 91.2109 284.594 89.3555 282.445C87.4023 280.395 85.6445 277.66 85.3516 276.391C84.9609 275.219 83.4961 273.559 81.9336 272.777C80.4688 271.996 78.0273 269.359 76.6602 267.016C75.0977 264.281 73.2422 262.523 71.9727 262.328C70.4102 262.133 69.7266 261.254 69.5312 259.398C69.3359 257.934 68.3594 256.078 67.3828 255.395C64.4531 253.344 63.0859 246.215 64.7461 241.527C66.2109 237.426 65.918 221.996 64.4531 220.043C63.9648 219.457 63.3789 215.355 62.9883 210.766C62.6953 206.176 62.207 201 61.9141 199.242C61.5234 196.996 61.8164 196.117 62.793 196.117C66.3086 196.117 64.8438 189.379 59.9609 182.934C55.8594 177.562 57.4219 177.074 62.9883 182.055C65.918 184.691 70.8984 189.086 74.0234 191.82C83.4961 200.316 90.332 202.465 92.5781 197.582C93.9453 194.555 94.7266 194.555 98.0469 197.387C99.6094 198.754 100.879 201.098 101.27 203.344C101.562 205.395 102.344 207.152 102.93 207.348C113.184 210.375 116.309 213.402 115.527 219.555C114.648 226.293 116.797 238.012 119.727 242.309C122.07 245.824 122.461 247.68 123.047 256.176C123.633 264.77 124.121 267.016 127.734 275.121C129.98 280.199 131.836 284.789 131.836 285.277C131.836 285.766 133.203 287.719 134.766 289.574C136.426 291.43 138.281 294.945 138.965 297.387C140.039 301.488 142.09 304.027 147.07 307.152C148.828 308.227 148.828 308.324 146.777 308.324C143.848 308.422 143.945 310.082 146.875 312.426C148.145 313.402 149.707 315.453 150.293 317.016C151.562 319.945 155.859 323.07 158.887 323.07C160.352 323.07 161.133 324.438 162.5 328.93C163.477 332.055 164.844 335.18 165.527 335.766C166.211 336.352 166.992 338.109 167.285 339.672C167.773 341.82 168.652 342.699 170.605 343.188C172.07 343.578 174.219 344.652 175.391 345.727C177.148 347.289 177.637 347.387 178.613 346.117C180.273 344.164 185.938 346.215 184.961 348.461C183.203 352.172 183.398 357.348 185.449 360.668C187.012 363.402 187.109 364.086 186.035 364.086C183.789 364.086 184.277 366.82 186.816 368.09C187.988 368.773 191.016 370.922 193.457 372.973C196.68 375.707 198.926 376.781 201.172 376.781C203.125 376.781 204.883 377.465 205.664 378.441C207.422 380.785 207.324 381.664 205.566 381.664C203.223 381.664 203.809 383.52 207.812 388.695L211.426 393.48L216.797 393.188L222.168 392.992L225.586 399.535C227.441 403.148 229.785 406.371 230.762 406.664C233.105 407.445 232.91 410.863 230.469 410.668C229.395 410.57 228.32 409.984 228.125 409.301C227.148 406.762 225.684 408.129 223.73 413.402C222.559 416.43 221.68 421.215 221.68 424.047C221.68 429.711 222.07 430.199 230.762 438.012C234.277 441.234 238.281 442.309 238.281 440.062C238.281 439.477 239.258 439.867 240.43 440.941C243.945 444.164 255.664 451.879 256.152 451.391C256.445 451.098 257.422 452.27 258.496 453.93C259.473 455.688 261.816 457.836 263.867 458.91C270.02 462.035 272.07 469.652 266.309 468.188C262.402 467.211 262.5 468.773 266.504 473.461C269.629 477.074 270.508 477.66 271.68 476.586C272.852 475.609 273.438 475.609 274.316 476.781C274.902 477.465 276.758 478.344 278.32 478.734C279.98 479.027 281.25 479.711 281.25 480.297C281.25 481.566 279.688 481.566 277.246 480.199C276.172 479.613 274.805 479.32 274.219 479.516C272.559 480.102 283.203 488.109 285.547 488.109C288.477 488.109 294.824 495.043 299.121 502.855C301.074 506.469 303.418 509.594 304.199 509.984C304.98 510.277 305.664 511.156 305.664 512.035C305.664 512.816 307.812 516.332 310.449 519.652C313.086 523.07 315.625 526.977 315.918 528.441C316.406 530.199 317.285 531.078 318.555 531.078C321.484 531.078 326.66 535.57 328.613 539.867C330.078 543.09 330.957 543.871 333.887 544.359C339.453 545.238 339.648 545.434 340.82 549.633C341.602 552.66 341.602 554.027 340.82 555.004C340.039 555.98 340.039 557.836 340.723 561.938C341.309 565.062 341.797 568.871 341.797 570.531C341.797 572.191 343.164 576.195 344.727 579.418C346.289 582.641 347.656 585.863 347.656 586.547C347.656 588.5 351.465 593.578 352.93 593.578C355.176 593.578 357.227 596.801 356.445 598.949C355.957 600.023 355.566 602.562 355.566 604.613C355.469 609.105 354.492 611.156 349.512 617.113C345.605 621.801 345.02 622.875 346.582 622.875C347.949 622.875 355.469 628.051 355.469 628.93C355.469 630.102 349.219 632.641 346.484 632.641C345.215 632.641 342.676 634.008 340.82 635.668L337.5 638.793L340.625 641.43C342.383 642.797 343.75 644.75 343.75 645.629C343.75 646.508 345.312 649.73 347.168 652.855C349.023 655.98 350.586 659.203 350.586 660.082C350.586 660.961 351.562 661.938 352.832 662.328C354.004 662.621 355.469 663.891 356.055 665.062C360.84 674.535 362.695 677.27 365.234 678.637C366.797 679.516 368.75 680.785 369.531 681.371C371.582 683.129 382.91 687.328 383.887 686.742C384.375 686.449 384.766 687.328 384.766 688.695C384.766 691.625 386.035 692.406 394.531 694.652C401.66 696.605 405.664 699.73 407.227 704.516C407.812 706.273 409.082 708.031 409.961 708.324C410.84 708.617 412.695 710.473 414.062 712.426C415.332 714.477 417.09 716.82 417.969 717.602C419.629 719.262 429.199 722.484 432.422 722.484C433.594 722.484 435.449 723.559 436.719 724.828C438.477 726.586 440.332 727.27 444.922 727.66C448.145 727.855 453.027 729.125 455.859 730.297C460.254 732.152 461.328 732.348 463.77 731.273C466.211 730.297 467.09 730.395 468.945 731.664C470.117 732.543 471.875 733.227 472.754 733.227C473.73 733.227 476.27 735.375 478.516 738.012C480.664 740.746 483.398 743.188 484.375 743.48C485.352 743.773 486.523 744.848 486.816 745.922C487.109 746.898 489.746 748.852 492.773 750.316C495.703 751.781 498.828 754.027 499.707 755.297C500.488 756.566 501.855 757.641 502.637 757.641C503.418 757.641 505.273 758.227 506.641 758.91C513.477 762.426 516.602 763.598 522.949 765.355C526.758 766.332 532.227 768.09 535.156 769.359C538.086 770.531 541.504 771.703 542.773 771.996C543.945 772.289 545.41 773.363 545.996 774.34C547.461 777.172 550.879 778.539 555.859 778.246C558.398 778.148 562.695 778.734 565.332 779.516C567.969 780.297 570.312 780.785 570.508 780.492C570.801 780.297 572.656 780.98 574.707 782.055C576.855 783.129 579.688 784.008 581.055 784.008C582.715 784.008 584.863 785.375 587.598 788.305C590.625 791.527 593.164 793.09 597.363 794.359C600.488 795.336 603.809 796.02 604.785 795.922C605.859 795.824 607.91 796.605 609.375 797.68C616.309 802.562 624.023 805.59 630.664 805.883C634.277 805.98 638.184 806.664 639.355 807.25C640.527 807.934 642.578 808.422 643.848 808.422C645.215 808.422 648.633 809.594 651.465 811.059C655.957 813.402 657.715 813.793 664.844 813.695C671.875 813.598 673.73 813.207 678.906 810.473C682.129 808.812 685.547 807.445 686.426 807.445C690.332 807.348 705.176 801.391 707.031 799.145C709.18 796.508 713.965 794.457 719.531 793.676C722.461 793.285 725 792.699 725.293 792.406C726.27 791.43 724.414 789.867 722.168 789.867C718.652 789.867 718.457 788.305 721.777 786.938C724.121 785.961 725.195 785.961 727.051 786.938C728.223 787.621 729.785 787.816 730.371 787.523C731.738 786.645 735.352 787.719 735.352 788.988C735.352 789.477 734.277 789.672 733.008 789.281C731.25 788.891 730.371 789.184 729.492 790.746C728.516 792.699 728.711 792.797 732.422 792.797C734.668 792.797 740.332 794.359 745.215 796.215C755.371 800.121 754.883 800.023 754.883 798.363C754.883 797.777 751.562 795.922 747.559 794.457C743.066 792.797 740.234 791.137 740.234 790.258C740.234 788.402 739.941 788.402 748.145 792.309C752.148 794.164 756.348 795.727 757.52 795.727C759.375 795.727 759.668 796.117 759.277 797.875C758.887 799.828 759.668 800.512 764.16 802.758C767.676 804.418 769.531 805.004 769.531 804.125C769.531 803.539 769.043 802.465 768.359 801.781C767.676 801.098 767.578 800.609 768.066 800.609C768.848 800.609 777.441 808.52 791.602 822.191C793.75 824.34 797.07 826.488 799.023 826.977C801.27 827.66 803.32 829.223 804.98 831.664C807.422 835.082 819.727 847.484 820.801 847.484C822.07 847.484 824.219 841.137 824.219 837.23C824.219 834.691 825 831.371 825.879 829.809C827.539 826.977 827.539 826.879 825 824.34L822.461 821.801L830.273 805.98L838.184 790.258L860.742 789.086C873.145 788.402 883.594 787.523 883.887 787.133C884.277 786.742 884.766 784.008 884.961 781.176L885.254 775.805L881.836 775.121C878.027 774.34 875 771.117 875 767.895C875 766.332 873.535 764.77 869.238 762.133C866.113 760.18 863.086 758.617 862.598 758.617C862.012 758.617 859.766 756.469 857.52 753.734C854.59 750.316 852.539 748.754 850.098 748.266C844.141 747.191 846.387 745.922 854.492 745.922H862.305V735.18V724.535L865.527 723.949C870.312 723.168 906.836 720.531 914.062 720.531C924.414 720.531 927.734 719.652 927.734 717.113C927.734 714.281 930.273 713.305 932.91 715.16C934.082 715.941 935.547 716.625 936.133 716.625C936.719 716.625 939.648 711.352 942.676 704.906C946.094 697.777 948.73 693.188 949.609 693.188C952.539 693.188 955.957 690.941 956.445 688.695C956.836 687.426 957.91 685.961 958.984 685.375C960.254 684.691 960.938 683.324 960.938 681.371C960.938 679.418 961.328 678.539 962.207 678.832C962.988 679.027 963.379 681.371 963.379 685.473C963.379 691.332 963.477 691.723 966.113 692.602C968.066 693.285 968.75 694.164 968.75 696.117C968.75 697.582 969.531 699.535 970.605 700.414C972.363 701.977 972.461 701.977 973.535 698.949C974.121 697.289 975.293 692.016 976.074 687.328C976.855 682.641 978.223 676.684 979.004 674.047C979.785 671.41 980.469 668.383 980.469 667.211C980.469 666.137 981.348 664.379 982.422 663.402C983.496 662.426 984.375 661.254 984.375 660.766C984.375 659.496 981.055 659.887 978.809 661.449C977.246 662.523 976.66 662.621 976.27 661.645C975.684 659.984 977.344 657.055 978.809 657.055C979.59 657.055 981.348 655.785 982.812 654.223C984.961 651.977 985.352 650.902 984.766 648.754C984.082 646.215 983.984 646.117 982.812 647.777C982.031 648.852 981.445 649.047 981.445 648.461C981.445 647.582 980.566 647.68 978.418 648.852L975.293 650.414L975.977 647.582C976.367 646.117 977.734 643.285 979.102 641.332C980.762 638.891 981.445 636.547 981.445 633.324C981.445 630.688 982.422 626.195 983.789 622.875C985.059 619.652 985.938 616.234 985.645 615.062C985.254 613.695 985.645 613.109 986.621 613.109C988.867 613.109 994.141 608.324 994.141 606.176C994.141 605.199 995.508 602.27 997.07 599.73C999.414 596.117 1000 594.066 1000 589.965C1000 586.742 999.414 584.105 998.535 583.031C997.656 582.152 995.996 580.199 994.824 578.734C992.676 576 988.574 574.633 988.281 576.488C987.793 579.418 986.035 579.906 977.637 579.223C973.047 578.93 967.578 578.051 965.43 577.27C961.035 575.805 951.562 575.512 950.684 576.977C950.391 577.465 948.535 577.953 946.582 577.953C942.188 577.953 931.641 581.957 931.641 583.52C931.641 584.203 930.859 584.789 929.98 584.789C929.004 584.789 926.855 585.57 925.293 586.645C923.438 587.719 919.336 588.695 914.16 589.086C903.809 590.062 897.168 591.82 887.891 596.02C874.219 602.367 873.73 603.441 873.047 625.805C872.559 641.918 872.461 643.09 870.117 646.801C868.262 649.828 867.578 652.465 867.09 658.812L866.602 666.918L860.742 672.777C857.617 676 852.246 680.395 848.926 682.641C844.922 685.18 842.773 687.23 842.773 688.5C842.773 690.062 843.262 690.258 846.191 689.672C849.121 689.184 849.609 689.281 849.609 691.039C849.609 692.113 850.293 693.48 851.074 694.164C853.418 696.117 852.832 696.703 849.121 696.312C846.387 696.02 845.215 696.41 842.773 698.949C840.625 701.098 838.77 701.977 836.523 701.977C834.863 701.977 832.91 702.465 832.227 703.148C831.348 704.027 831.055 703.93 831.055 702.66C831.055 701.684 829.688 700.414 827.93 699.633C824.902 698.266 824.805 698.266 827.148 698.07C829.395 697.973 829.492 697.875 827.832 696.703C825.391 694.75 807.129 693.578 805.176 695.141C804.395 695.824 804.004 696.703 804.297 697.191C804.59 697.68 803.516 698.07 801.953 698.07C800 698.07 797.559 699.242 795.02 701.391C790.82 704.906 785.645 706.371 779.199 705.785C777.344 705.59 774.609 705.883 772.949 706.273C771.387 706.664 768.359 707.445 766.406 707.934C763.77 708.617 762.695 709.398 762.695 710.766C762.695 712.426 759.277 714.477 758.203 713.402C757.91 713.109 754.199 713.988 749.902 715.258C740.137 718.285 731.152 718.285 730.566 715.16C730.371 714.086 729.395 712.621 728.418 711.938C727.344 711.254 726.562 709.984 726.562 709.203C726.562 707.055 722.852 703.93 720.312 703.93C718.848 703.93 717.188 702.855 716.016 701.293C714.16 698.754 713.574 698.559 706.348 698.461C702.148 698.461 697.754 697.875 696.484 697.191C692.773 695.238 691.895 696.508 694.922 699.438C697.754 702.172 697.754 702.172 695.312 701.488C693.945 701.098 691.211 700.609 689.258 700.316C687.207 700.023 685.547 699.242 685.547 698.559C685.547 697.973 684.57 696.898 683.398 696.312C681.543 695.434 681.445 695.238 682.91 695.238C683.887 695.141 685.547 695.629 686.719 696.215C690.918 698.461 689.551 695.727 683.789 690.258C680.469 687.133 677.734 684.008 677.734 683.324C677.734 682.641 676.172 680.395 674.219 678.441C671.484 675.609 670.117 672.973 668.359 666.625C666.504 660.277 665.332 657.934 662.793 655.59C660.938 653.93 659.18 651.391 658.789 649.828C658.398 648.363 657.324 646.898 656.348 646.605C655.176 646.312 654.688 645.531 654.98 644.359C655.469 642.406 649.902 637.523 647.168 637.523C646.191 637.523 645.508 636.938 645.508 636.254C645.508 635.57 644.238 633.715 642.676 632.25C641.113 630.688 638.867 627.367 637.695 624.73C636.621 622.094 635.059 619.945 634.277 619.945C633.496 619.945 633.105 619.359 633.398 618.578C633.691 617.797 633.301 615.844 632.422 614.379C631.641 612.914 630.273 609.301 629.297 606.371C628.418 603.441 626.66 599.535 625.391 597.68C624.121 595.824 622.559 592.504 621.973 590.258C621.387 588.012 620.508 585.473 620.02 584.594C619.531 583.617 619.141 581.664 619.141 580.199C619.043 576.684 615.625 571.996 614.453 573.852C613.77 574.926 613.281 574.828 611.914 573.559C609.766 571.41 609.961 570.922 612.598 571.312C614.648 571.605 614.746 571.312 614.746 563.793C614.746 559.496 615.137 555.395 615.625 554.613C616.211 553.734 616.016 552.855 614.941 552.074C613.77 551.195 613.574 550.316 614.258 548.07C614.648 546.508 615.137 546.02 615.137 546.898C615.234 549.145 617.188 550.219 618.262 548.559C619.336 546.801 619.434 542.113 618.262 541.43C617.871 541.137 617.188 538.891 616.895 536.449C616.504 532.445 616.797 529.809 618.652 521.605C619.043 519.848 618.75 519.359 617.09 519.359C615.332 519.359 615.137 518.969 615.723 517.113C616.113 515.941 616.211 514.086 616.113 513.012C615.918 511.938 615.82 506.078 615.918 500.023C615.918 494.066 615.723 489.086 615.332 489.086C614.941 489.086 614.16 489.574 613.477 490.258C612.598 491.137 612.305 490.453 612.305 487.133C612.305 483.812 612.598 483.129 613.477 484.008C615.723 486.254 616.309 485.18 616.113 479.32C616.016 476.098 616.406 472.973 616.992 472.191C617.871 471.215 617.773 470.434 616.797 468.969C615.918 467.895 615.625 466.039 615.918 464.477C616.211 462.914 615.918 461.059 615.137 460.18C614.062 458.91 614.16 458.52 615.625 457.641C616.992 456.859 617.09 456.371 616.113 455.297C614.551 453.344 615.625 452.562 617.969 454.027C620.703 455.785 623.438 454.516 622.07 452.074C621.582 451 621.094 449.926 621.094 449.633C621.094 448.754 623.34 448.949 625 450.023C626.172 450.805 626.074 451.391 624.316 454.613C623.145 456.664 621.973 459.984 621.582 461.938C620.996 464.965 621.191 465.648 622.461 465.648C623.34 465.648 624.219 464.477 624.609 462.914C624.902 461.449 626.172 458.031 627.441 455.395C628.613 452.66 630.762 447.289 632.227 443.48C634.57 437.23 634.766 435.961 633.789 432.934C632.617 429.223 629.688 428.246 628.125 431.078C627.344 432.445 626.562 432.25 621.484 429.711C617.188 427.562 613.477 426.586 606.836 425.902C599.609 425.121 596.387 424.145 589.648 420.922C585.059 418.676 579.297 416.43 576.855 415.746C574.414 415.16 571.777 413.988 570.996 413.012C568.848 410.57 558.594 389.965 558.594 388.109C558.594 387.23 557.91 384.984 557.129 383.031C556.152 380.59 555.957 378.93 556.738 377.074C557.52 375.023 557.227 374.047 555.176 371.312C553.809 369.457 552.051 367.992 551.367 367.992C549.805 367.992 541.992 359.691 541.992 358.129C541.992 357.445 539.648 354.418 536.914 351.391C529.59 343.383 529.59 343.383 527.832 337.23C526.953 334.203 525.586 331.469 524.805 331.176C524.023 330.883 521.289 326.391 518.652 321.215C516.113 316.039 512.891 310.668 511.621 309.301C510.352 307.934 508.496 305.395 507.617 303.637C506.641 301.879 504.492 299.926 502.539 299.145C500.684 298.363 498.926 296.801 498.535 295.727C498.242 294.652 497.168 293.773 496.289 293.773C495.312 293.773 494.043 292.895 493.457 291.918C492.09 289.672 484.668 287.914 476.66 287.914C473.438 287.914 469.727 287.23 468.164 286.449C464.355 284.496 462.207 284.594 460.938 286.84C460.352 287.914 458.496 288.988 456.25 289.379C451.367 290.16 447.754 294.75 445.996 302.27C445.312 305.492 443.848 309.008 442.773 310.082C441.797 311.156 439.941 313.207 438.672 314.672C437.012 316.625 435.84 317.211 434.277 316.82C433.105 316.527 431.348 316.234 430.469 316.234C429.492 316.234 427.539 314.867 426.074 313.305C424.707 311.645 422.559 310.375 421.484 310.375C420.312 310.375 417.871 309.301 415.918 308.031C414.062 306.762 410.742 305.004 408.691 304.125C406.641 303.246 403.125 300.805 400.781 298.656C398.438 296.508 396.094 294.75 395.605 294.75C395.117 294.75 393.066 292.016 390.918 288.598C387.988 284.008 386.816 280.688 385.84 275.219C385.254 271.215 383.984 266.625 383.203 265.062C382.52 263.5 381.836 261.645 381.836 260.863C381.836 257.641 378.516 253.637 373.34 250.414C368.359 247.387 360.352 239.184 360.352 237.133C360.352 236.645 359.18 235.961 357.715 235.375C356.152 234.887 352.148 231.762 348.633 228.441C345.215 225.219 342.09 222.484 341.797 222.484C341.504 222.484 339.941 220.336 338.379 217.602C336.816 214.965 334.668 212.426 333.496 212.133C332.422 211.742 330.859 210.961 330.078 210.18C329.004 209.301 322.656 208.617 308.594 207.934C297.559 207.348 285.645 206.664 282.031 206.371L275.391 205.883V214.672C275.391 219.457 275 223.461 274.609 223.461C273.828 223.461 224.414 219.066 193.848 216.332L180.176 215.062L145.02 196.996C125.684 187.133 100.977 174.828 90.1367 169.848C79.1992 164.77 70.3125 160.18 70.3125 159.691C70.3125 159.105 71.2891 157.641 72.4609 156.371C73.6328 155.102 74.4141 153.93 74.1211 153.734C73.2422 152.953 0 151.977 0 152.855Z" fill="black"/>
<circle cx="578" cy="688" fill="#5CE50D"/>
<circle cx="486" cy="402" fill="#E52A0D"/>
<circle cx="63" cy="224" fill="#E52A0D"/>
<circle cx="893" cy="658" fill="#E52A0D"/>
</g>
<defs>
<clipPath id="clip0_1_2453">
<rect width="1000" height="1000" />
</clipPath>
</defs>
</svg>
