<svg width="1000" height="1000" viewBox="0 0 1000 1000" fill="none" xmlns="http://www.w3.org/2000/svg">
<rect width="1000" height="1000" />
<path d="M89.264 46.6302C83.893 48.681 78.1312 51.3177 76.3734 52.4896C72.2719 55.517 59.8695 60.4974 56.8422 60.4974C55.475 60.4974 51.8617 60.9857 48.8344 61.6693C43.4633 62.7435 43.3656 62.7435 36.0414 58.7396C31.8422 56.3959 27.4476 54.6381 25.7875 54.7357C24.225 54.7357 18.3656 56.5912 12.7992 58.8373C0.592174 63.7201 1.08045 62.8412 0.299205 81.9818C-0.189077 94.6771 -0.0914204 95.9467 3.4242 112.255C6.93983 128.466 7.33045 129.443 10.2601 132.079C12.5062 133.837 14.3617 137.06 16.2172 141.845C20.0258 151.904 22.8578 157.568 28.6195 166.161C32.7211 172.411 34.2836 173.974 37.7992 175.244C41.5101 176.708 42.975 178.173 49.0297 187.255C56.5492 198.388 76.9594 233.447 95.1234 266.357C104.498 283.251 107.916 290.771 116.12 312.158C125.592 336.767 126.373 338.329 136.53 354.15C150.885 376.415 166.412 405.517 165.631 408.642C165.143 410.595 166.412 412.158 173.639 419.091C180.573 425.536 183.209 428.857 186.823 435.595C189.557 440.869 193.17 445.849 196.393 448.876C201.764 454.052 201.471 453.368 204.108 470.165C204.596 473.388 205.084 479.443 205.084 483.642C205.084 490.966 204.987 491.161 203.131 490.185C201.764 489.404 200.592 489.404 199.225 490.185C196.686 491.552 196.686 494.775 199.323 512.451C201.276 525.146 201.276 526.708 200.006 530.126C198.639 533.447 198.737 534.228 200.397 538.427C201.373 540.966 202.838 547.314 203.62 552.587C204.401 557.861 205.28 562.841 205.573 563.525C205.866 564.306 205.28 567.431 204.205 570.556C202.252 576.122 202.252 576.122 204.205 587.451C205.28 593.603 207.428 601.904 208.991 605.81C210.553 609.814 212.506 615.771 213.385 619.091C214.264 622.509 216.608 627.685 218.659 630.712C225.885 641.357 227.252 645.068 228.034 656.298C228.62 665.087 228.424 667.236 227.057 669.97C225.592 672.704 225.495 674.072 226.471 679.736C227.057 683.349 227.545 692.04 227.545 698.876V711.474L231.452 719.579C235.553 728.173 236.53 733.349 233.795 733.349C232.526 733.349 232.33 734.13 232.916 737.451C234.577 748.388 234.381 747.997 239.459 751.122C243.659 753.759 244.83 755.224 249.03 763.72C251.764 768.994 253.912 773.583 253.912 773.779C253.912 774.072 252.741 774.365 251.276 774.56C248.639 774.853 248.541 775.146 248.248 780.517C247.955 785.4 248.346 786.767 250.397 789.404C252.252 791.845 253.131 794.677 253.912 801.318C255.768 815.087 259.967 825.732 269.733 841.357C275.885 851.318 278.327 856.103 278.327 858.349C278.327 860.79 279.596 862.939 284.088 868.017C287.311 871.63 290.241 875.927 290.729 877.587C291.217 879.638 293.952 882.958 298.834 887.255C310.26 897.607 340.827 929.833 342.194 933.056L343.463 935.986L346.881 932.275C350.104 928.759 350.592 928.564 358.014 927.978C369.049 927.197 369.733 926.513 372.077 913.525C372.662 910.4 373.737 908.154 375.006 907.275C376.08 906.591 376.959 905.224 376.959 904.345C376.959 903.466 377.838 900.927 378.815 898.779C380.28 895.654 381.452 894.384 384.284 893.505C389.752 891.65 392.291 892.822 393.659 897.704C395.123 903.271 395.612 903.661 402.252 905.712C409.87 907.958 410.944 910.107 407.135 915.673C403.717 920.654 403.522 923.681 406.745 926.708C408.209 928.076 409.577 931.005 410.26 934.13C411.627 939.99 412.702 940.478 420.123 938.232C423.737 937.158 424.03 937.255 427.057 940.185C429.791 942.822 431.354 943.408 437.311 944.189C444.342 945.068 445.416 945.556 450.202 949.755C453.034 952.197 457.428 952.88 472.37 953.271C482.526 953.466 483.502 953.369 485.651 951.318C487.116 949.951 489.166 949.169 491.315 949.169C493.17 949.169 496.979 948.486 499.909 947.704C506.842 945.947 513.385 947.021 515.827 950.439C521.198 957.763 520.709 957.568 527.057 956.201C530.28 955.615 534.186 955.029 535.748 955.029C539.948 955.029 541.022 953.466 540.338 948.583C539.557 942.724 540.924 941.357 547.467 941.357C552.35 941.357 552.741 941.161 554.303 938.232C557.721 931.396 562.799 925.732 565.436 925.732C571.393 925.732 589.362 919.482 591.803 916.454C592.877 915.185 596.1 824.951 600.592 668.896C602.252 612.255 604.401 537.255 605.475 502.392C606.549 467.431 607.428 436.376 607.428 433.251V427.49L643.366 427.783C678.327 428.076 679.205 428.076 679.401 426.22C680.573 416.161 690.436 174.365 690.436 156.884V154.443L707.33 153.759C722.174 153.173 727.252 152.49 750.495 147.802C783.991 140.966 865.338 125.732 865.827 126.122C865.924 126.318 866.998 130.126 868.17 134.716C869.44 139.794 871.588 145.068 873.639 148.095C876.471 152.49 876.959 154.052 876.959 158.935C876.959 163.427 877.35 165.087 878.815 166.357C881.745 168.994 886.432 167.626 888.385 163.525C889.557 160.986 891.315 159.716 896.002 157.665C901.178 155.517 902.35 154.54 903.912 151.122C908.112 141.747 910.455 139.306 922.467 131.689L934.088 124.365L946.979 123.193C955.573 122.411 961.53 121.337 965.045 119.97C968.659 118.505 973.639 117.626 981.647 117.138C992.291 116.454 993.366 116.161 996.491 113.622C998.346 112.06 999.909 110.497 999.909 110.107C1000.01 109.814 998.248 107.275 996.198 104.638C992.584 100.146 991.608 99.5599 982.916 96.6302C974.323 93.7982 972.955 93.6029 965.631 94.1888C958.209 94.8724 957.233 94.6771 944.83 90.7709L931.842 86.5717L907.135 92.0404C893.463 95.0677 876.666 98.5834 869.635 99.9506C862.702 101.318 842.877 105.517 825.69 109.228C790.045 117.138 729.987 128.857 725.202 128.857C723.346 128.857 720.026 128.076 717.682 127.197C714.069 125.732 710.26 125.536 694.83 125.536C684.674 125.634 673.541 126.122 670.221 126.708C664.362 127.685 663.873 127.587 655.573 124.267C643.073 119.189 638.287 118.115 627.838 118.115C618.756 118.115 564.85 113.622 563.483 112.744C563.092 112.548 558.307 111.865 552.741 111.376C537.702 109.911 535.065 108.349 515.534 88.6224L499.323 72.2162H343.17H186.92L183.6 74.6576C177.448 79.2474 165.827 77.392 157.428 70.556C153.717 67.5287 151.373 66.3568 149.127 66.3568C145.221 66.3568 144.44 65.7709 141.412 60.9857C140.045 58.8373 136.53 54.4427 133.502 51.2201L128.131 45.3607L120.123 45.556C114.655 45.6537 111.139 45.2631 109.284 44.2865C104.987 42.1381 99.9086 42.724 89.264 46.6302Z" fill="black"/>
<circle cx="403" cy="470" fill="#5CE50D"/>
<circle cx="500" cy="231" fill="#E52A0D"/>
<circle cx="257" cy="779" fill="#E52A0D"/>
<circle cx="500" cy="852" fill="#E52A0D"/>
</svg>
