<svg width="1000" height="1000" viewBox="0 0 1000 1000" fill="none" xmlns="http://www.w3.org/2000/svg">
<rect width="1000" height="1000" />
<path d="M617.401 209.554L484.504 288.989L428.957 334.489C398.339 359.514 371.987 380.747 370.376 381.6C368.67 382.548 349.143 386.624 322.886 391.458C298.43 396.008 278.239 399.705 278.144 399.8C277.955 399.989 273.31 500.752 271.699 539.711C270.94 559.238 269.992 579.144 269.708 583.884L269.139 592.51L261.556 596.207L253.973 599.903L248.854 608.909C243.925 617.724 243.451 618.198 233.782 625.023C226.389 630.237 223.64 632.701 222.881 634.881L221.933 637.82L204.207 636.967C188.946 636.208 186.197 636.303 183.638 637.63C181.268 638.768 170.462 639.621 131.882 641.612C105.056 642.939 81.7374 644.266 80.0312 644.55C77.6614 644.929 76.1448 646.161 73.3958 650.143L69.7938 655.356H59.8407C51.8783 655.356 47.897 655.925 39.745 658.105L29.6024 660.854L25.8107 658.01L22.0191 655.261L18.7014 657.821L15.4785 660.38L15.2889 669.954C14.6254 695.832 14.7202 696.116 19.8389 698.391C23.5358 700.098 23.5358 700.192 24.1993 706.543C24.6733 711.662 25.5264 714.316 28.5597 719.624C32.067 725.691 33.1097 726.734 43.4419 733.559C49.6033 737.635 56.4282 741.711 58.6084 742.469C61.4522 743.512 64.2011 745.787 67.8979 750.147C70.7417 753.56 73.1115 756.783 73.1115 757.351C73.1115 757.825 72.4479 759.152 71.6896 760.195C70.3625 761.996 70.2677 761.996 66.5709 759.816C64.4855 758.678 62.4949 757.73 62.2105 757.73C61.9261 757.73 61.8313 762.565 61.9261 768.347L62.2105 779.058L70.8365 783.798C76.3343 786.831 82.1166 791.097 86.5718 795.268L93.5863 801.903L102.497 803.325L111.502 804.747L117.568 802.093C120.886 800.576 124.014 799.533 124.393 799.628C124.867 799.818 127.711 802.851 130.839 806.548L136.527 813.183L130.27 819.534C125.626 824.274 124.204 826.17 124.962 827.117C125.436 827.781 130.27 833.848 135.579 840.483L145.342 852.711L147.238 849.583C149.039 846.644 149.039 845.886 147.996 839.914C147.333 836.407 147.048 833.279 147.143 833.184C147.333 832.995 151.504 830.625 156.433 827.876L165.343 822.947L173.495 831.004C177.95 835.364 183.733 840.199 186.197 841.715C189.799 843.895 191.6 845.981 194.539 851.194C196.529 854.986 198.899 858.209 199.657 858.588C200.416 858.872 204.207 861.527 208.094 864.465L215.203 869.773L218.331 867.593C220.038 866.456 221.554 865.413 221.744 865.223C221.933 865.129 221.175 861.716 220.132 857.64C218.426 850.91 218.331 850.057 219.753 847.498C220.701 845.507 220.985 843.327 220.606 840.388C220.322 838.113 220.701 831.857 221.554 826.644L223.071 816.975L231.223 810.719C238.996 804.747 239.944 803.704 247.337 791.476L255.11 778.49V768.821V759.058L261.935 753.37C265.632 750.337 269.518 747.209 270.561 746.45C271.509 745.787 278.334 743.512 285.728 741.521L298.998 737.824L302.126 739.815C305.065 741.616 305.823 741.616 315.302 740.668C324.402 739.72 325.729 739.341 329.805 736.403C339.095 729.767 352.65 731.663 370.471 742.09C379.192 747.209 379.571 747.303 386.68 747.303L393.979 747.398L402.7 755.171C409.714 761.333 413.127 765.409 419.478 774.888C426.397 785.22 427.914 786.926 430.474 787.495C435.213 788.443 435.497 788.348 441.469 783.798C446.778 779.817 447.346 779.627 453.413 779.532C459.1 779.532 461.186 778.964 472.466 773.94L485.073 768.347L495.879 770.338L506.78 772.234L512.089 778.016C516.544 782.85 519.956 785.22 531.521 791.476L545.645 799.154L568.679 800.955L591.808 802.756L598.917 794.983C602.993 790.433 610.197 784.177 615.695 780.196L625.269 773.181L632.568 774.129C639.298 774.888 640.436 774.793 649.156 772.139C663.185 767.873 675.603 766.167 685.935 767.304C702.334 769.011 718.354 772.802 729.634 777.731L740.25 782.376H753.9H767.645L784.613 769.579C796.177 760.859 802.339 756.783 804.045 756.783C810.111 756.783 812.102 755.74 814.756 751.285C816.652 748.157 817.221 746.166 816.842 744.27C816.273 741.237 812.292 735.075 806.509 728.061L802.718 723.511L803.95 717.918L805.182 712.231H809.448C812.766 712.231 814.567 711.567 818.358 708.724C823.003 705.311 823.667 705.311 824.994 708.629C825.183 708.913 826.795 709.387 828.596 709.577L831.913 709.861L831.629 704.079L831.25 698.297L835.515 697.159C839.497 696.022 839.876 695.642 840.918 691.472C841.677 688.723 843.573 685.595 846.132 682.846C850.018 678.77 850.208 678.201 850.872 671.186L851.535 663.698L903.954 603.221L956.279 542.745L956.943 520.563C958.175 479.519 963.294 421.033 968.412 389.467C970.213 378.472 971.92 365.106 972.299 359.703C972.962 350.034 973.152 349.56 977.607 341.693C980.261 337.238 982.915 332.877 983.674 332.024C984.432 331.266 985.001 329.465 985.001 328.232C985.001 325.768 983.105 324.441 974.1 320.744C966.99 317.805 962.441 314.203 959.786 309.748C958.175 306.999 956.374 305.388 954.194 304.63C951.54 303.776 950.971 303.018 950.402 299.89C949.833 296.572 950.118 295.53 953.056 291.643C958.459 284.249 958.459 284.534 949.075 271.737C944.43 265.386 940.165 259.319 939.501 258.182C938.932 257.139 938.079 247.945 937.605 237.518C936.563 215.716 935.804 208.891 932.392 192.871C930.97 186.33 929.358 176.851 928.79 171.733L927.652 162.443L904.713 173.06L881.773 183.581L859.971 168.225C848.028 159.884 837.222 152.585 835.989 152.016C834.094 151.258 752.099 130.214 750.867 130.214C750.583 130.214 690.485 165.95 617.401 209.554Z" fill="black"/>
<circle cx="128" cy="755" fill="#5CE50D"/>
<circle cx="766" cy="263" fill="#E52A0D"/>
<circle cx="493" cy="530" fill="#E52A0D"/>
<circle cx="748" cy="706" fill="#E52A0D"/>
</svg>
