<svg width="1000" height="1000" viewBox="0 0 1000 1000" fill="none" xmlns="http://www.w3.org/2000/svg">
<rect width="1000" height="1000" />
<path d="M821.33 349.584L819.941 349.926L819.483 349.29L820.874 347.72L820.088 346.153L823.424 343.752L823.9 344.046L823.948 345.94L821.33 349.584Z" fill="black"/>
<path d="M985.652 193.655L986.159 200.874L983.296 205.629L978.799 205.857L977.801 204.599L975.183 203.945L971.455 205.17L971.144 204.696L971.962 203.471L974.431 202.231L974.971 200.483L977.114 197.755L977.393 195.402L978.668 193.997L980.483 193.295L982.872 193.997L984.884 193.295L985.652 193.655Z" fill="black"/>
<path d="M902.003 83.0874L899.254 83.6754L896.311 83.2997L895.967 82.7933L896.311 82.4504L899.37 83.1036L902.396 82.3033L902.003 83.0874Z" fill="black"/>
<path d="M905.062 77.2069L903.426 80.3922L902.837 80.0164L903.131 78.5137L902.756 78.236L902.199 79.51L901.234 79.3305L901.381 77.5827L905.519 75.3938L905.863 76.2922L905.062 77.2069Z" fill="black"/>
<path d="M251.147 607.86L251.571 607.731L252.701 606.504L253.993 605.41L253.502 604.333L251.343 603.793L250.05 604.48L250.132 605.948L251.147 607.86Z" fill="black"/>
<path fill-rule="evenodd" clip-rule="evenodd" d="M864.088 74.4301L864.938 75.2142L866.1 74.9365L866.509 72.4209L867.064 72.2414L869.829 72.8946L875.244 75.4919L879.611 74.6261L880.085 75.0019L879.905 76.1616L877.305 78.432L879.054 79.6571L879.692 79.6735L880.919 77.7296L885.042 77.599L888.263 78.3831L893.709 75.8675L897.227 76.4555L900.744 78.9711L900.547 81.3069L898.927 81.7479L898.618 81.4049L899.86 80.4085L899.614 80.0329L898.618 80.7189L897.914 79.51L896.375 79.6408L894.872 78.187H894.152L892.386 81.258L893.202 81.4049L893.889 80.4901L894.414 80.5555L894.642 81.1926L893.889 82.4504L888.737 88.3306L887.609 88.8535L882.112 95.4689L880.28 99.8301L879.626 105.89L874.033 118.778L869.535 119.039L868.929 118.353L870.483 117.455L870.287 116.017L872.642 114.106L872.446 113.143L870.434 114.417L869.96 114.106L869.715 111.542L870.926 109.778L872.069 109.222L872.822 110.055L875.128 110.562L876.355 111.901L876.765 111.46L876.306 108.83L873.772 103.995L872.969 96.9879L872.299 95.3708L871.202 94.5704L866.673 94.8971L863.384 96.8735L861.585 99.0298L857.317 107.311L856.253 107.458L853.374 105.711L852.408 105.857L854.519 107.899L854.618 111.885L853.848 113.028L851.362 113.845L850.462 115.25L850.593 116.197L851.934 116.426L853.325 114.351L853.832 114.433L854.291 116.753L856.465 115.74L857.185 120.003L859.083 123.335L859.066 125.312L864.725 129.983L869.502 129.624L870.009 127.174L868.323 124.495L862.829 123.417L863.009 122.339L868.095 122.666L869.862 124.299L870.974 126.292L872.102 126.635L872.119 125.851L870.761 124.234L871.382 123.319L870.958 121.784L872.135 120.232L873.035 120.362L877.287 143.018L879.561 150.744L880.429 156.641L886.791 176.814L887.969 178.219L888.574 182.367L887.232 179.852L883.716 180.146L881.197 178.137L881.033 177.108L881.704 176.34L880.673 173.253L876.894 167.406L875.424 167.34L875.995 168.827L875.472 169.562L875.604 170.035L877.697 170.656L877.157 174.494L877.533 174.674L878.481 173.269L879.381 173.629L878.907 175.295L880.625 180.767L880.313 183.937L881.507 184.132L883.356 182.71L884.763 182.776L885.548 181.044L886.202 181.028L887.036 182.662L888.164 183.136L889.196 185.798L889.882 186.222L890.586 185.406L891.19 185.504L891.682 186.762L891.355 189.163L894.789 210.12L890.831 222.485L883.962 237.464L878.858 246.594L878.957 245.125L881.017 241.677L881.164 239.359L883.029 236.729L882.997 232.662L884.337 230.489L887.036 222.828L887.003 220.132L884.566 216.066L881.917 213.812L882.343 212.636L884.272 214.53L884.631 213.272L881.164 205.971L876.993 199.959L875.145 199.47L873.445 202.835L875.898 204.468L878.334 208.829L876.633 208.208L874.671 206.134L871.76 205.611L870.614 204.11H869.519L872.855 211.084L869.993 211.54L869.403 209.336L868.323 210.12L866.884 210.283L866.443 212.179L867.702 212.798L869.208 215.428L870.581 213.191L872.005 212.897L872.398 216.016L871.301 219.97L872.74 222.158L873.182 224.658L875.571 225.899L875.881 225.604L874.981 223.971L875.718 223.58L877.254 224.167L879.856 226.324L879.677 224.037L881.18 224.674L881.443 226.829L880.46 227.271L880.019 228.61L883.144 230.93L881.95 232.22L882.244 235.063L879.889 240.061L877.68 238.9L876.405 241.352L874.735 241.874L874.458 242.445L875.931 242.772L878.727 240.437L879.92 240.926L877.68 244.733L877.452 249.013L876.438 249.649L875.374 252.589L871.481 255.84L866.427 261.85L864.595 266.293L860.979 269.871L859.131 272.518L857.234 272.632L853.161 276.307L851.265 279.279L850.576 281.485L848.893 282.89L849.382 284.328L847.42 288.231L846.962 286.435L844.869 284.016L845.064 281.044L845.637 279.9L849.22 277.532L850.069 274.167L846.439 277.025L844.869 274.02L840.649 269.919L842.448 265.298L839.486 263.141L839.782 260.561L836.1 260.103L835.839 259.466L836.919 259.499L837.066 258.878L836.673 256.182L835.529 254.336L835.709 251.937L834.972 251.12L830.948 250.826L828.462 249.584L828.036 246.644L826.27 245.255L826.386 242.07L825.322 239.179L826.336 239.93L826.893 239.473L828.708 239.572L827.661 238.608L829.607 233.724L821.87 228.006L821.282 226.487L821.855 224.004L819.434 223.596L817.372 218.874L817.012 216.278L814.853 215.902L813.071 217.764L811.941 216.752L808.507 215.854L805.595 217.34L804.14 217.177L799.952 214.693L796.355 213.681L791.431 210.97L792.003 212.407L793.18 213.092L798.514 214.547L804.827 218.499L806.315 218.516L807.673 217.079L810.208 217.535L812.138 219.153L815.131 217.373L816.292 218.466L816.391 220.982L818.026 224.674L819.254 225.508L820.514 225.539L820.022 227.646L820.824 229.165L826.107 232.743L828.185 235.193L826.32 238.591L824.962 238.608L824.389 239.179L825.043 242.037V245.876L826.81 247.722L827.661 250.532L834.351 252.72L836.166 257.26L834.891 259.22L835.137 260.805L835.74 261.411L838.358 261.492L838.047 263.729L840.829 265.803L840.73 266.996L839.242 269.103L839.405 269.952L841.825 273.04L845.522 276.373L845.327 277.907L844.557 278.871L841.99 279.771L841.711 277.727L841.042 277.156L835.823 274.527L834.891 274.575L833.581 276.16L832.144 279.802L831.964 281.681L832.568 282.253L838.031 281.028L839.455 282.04L839.602 283.2L837.476 286.124V287.774L838.49 289.098L840.583 289.179L843.216 288.182L845 288.525L845.67 289.243L844.77 293.361L845.048 295.615L843.903 298.816L843.822 300.22L844.787 301.739L842.317 305.528L839.339 312.438L835.644 329.345L830.932 361.997L829.64 360.952L828.528 355.054L828.725 352.262L830.932 345.679L829.739 342.085L830.671 339.897L833.353 336.826L833.647 335.649L831.292 330.978L829.919 330.603L830.638 331.762L825.894 332.269L824.946 333.2L826.107 335.502L828.365 336.352L827.825 337.708L825.01 338.982L819.941 337.985L816.751 339.162L816.048 340.125L816.195 342.755L815.557 343.589L812.744 340.975L810.486 337.219L809.979 335.355L810.175 332.596L809.424 331.011L807.967 329.688L804.713 329.132L800.296 323.873L799.592 319.772L798.578 320.703L798.808 323.186L800.607 327.727L808.311 332.35L808.753 335.829L809.946 338.475L814.592 344.061L814.51 344.52L812.204 344.16L811.91 344.829L813.791 345.663L814.657 345.124L815.753 345.696L818.631 349.419L820.595 354.189L823.474 355.153L822.754 356.329L823.048 356.786L824.701 356.672L825.894 357.39L827.007 356.426L827.514 356.933L828.102 359.857L826.566 360.919L825.943 359.466L825.061 358.992L825.126 361.016L825.796 361.802L828.315 361.67L830.834 363.81L830.687 365.869L829.412 365.15L827.988 365.035L827.612 365.542L830.72 367.845L831.308 368.874L829.952 370.688L829.689 372.663L827.007 378.61L826.81 380.423L824.619 377.466L822.95 376.388L820.218 375.08L817.929 375.521L819.81 377.449L824.275 379.883L822.623 381.566L822.851 382.333L823.294 382.627L825.436 380.438L823.981 390.925L822.787 392.167L822.247 391.954L823.277 388.573L820.514 389.015L817.83 391.873L816.849 393.947L814.837 393.31L813.414 393.881L811.974 398.374L809.095 397.688L807.445 399.321L801.081 403.258L799.543 402.817L798.644 399.893L799.249 398.816L798.824 397.786L793.36 396.79L791.071 395.565L786.948 396.625L785.296 396.463L783.955 394.895L783.106 391.693L779.981 389.258L778.002 386.466L774.239 385.175L773.782 384.359L773.945 380.291L767.844 373.366L767.647 371.129L771.213 367.714L769.479 361.246L765.194 356.444L762.708 356.134L757.981 353.928L755.87 354.532L753.483 356.803L749.59 356.426L750.799 358.092L752.599 358.158L755.069 357.047L757.277 354.729L759.19 355.414L760.353 356.819L763.068 357.816L764.933 357.636L768.481 362.847L768.63 365.869L769.332 367.323L769.104 368.335L766.798 369.707L767.01 371.258L766.24 373.561L768.874 376.551L769.431 377.989L771.246 378.265L770.64 379.442L772.472 379.72L772.865 380.537L772.964 385.551L772.145 386.842L768.612 387.739L763.82 391.971L761.645 391.873L759.289 392.674L756.689 389.864L755.085 389.423L751.585 389.717L745.452 389.177L743.668 390.452L742.147 390.402L739.612 389.276L739.318 388.264L737.993 387.331L733.969 386.532L733.348 385.094L731.189 384.26L732.301 382.35L728.652 381.745L727.344 382.921L726.903 382.774L726.804 381.272L723.239 379.997L721.931 381.239L720.131 380.864L718.381 381.549L716.566 379.214L713.195 381.582L709.45 382.056L699.014 377.76L697.052 377.418L696.381 378.528L694.14 380.015L693.208 383.053L694.369 383.558L695.268 383.281L695.465 380.618L697.984 379.066L707.651 383.281L713.327 383.118L716.27 380.945L717.349 382.579L718.479 382.906L719.952 382.089L723.877 381.336L726.657 383.755L729.749 382.677L729.879 384.669L732.709 386.319L733.984 387.805L737.894 388.982L743.292 391.971L746.63 390.795L751.291 390.402L755.592 391.302L759.78 394.061L761.907 393.016L763.427 393.049L768.154 389.765L772.784 388.295L773.846 387.054L774.616 386.989L777.151 388.051L781.403 392.281L783.235 396.871L786.524 397.9L790.138 396.741L794.13 398.309L797.156 398.291L797.99 402.506L800.491 404.466L802.602 404.189L804.875 402.931L807.166 400.482L809.751 399.305L811.419 399.926L812.874 399.288L813.839 397.736L813.692 395.451L814.609 394.698L815.704 395.238L819.614 400.53L822.311 397.345L823.751 393.31L824.275 393.326L824.668 394.323L823.817 396.904L821.822 421.307L824.176 446.739L827.612 470.049L827.603 470.048L831.26 484.048L831.914 489.211L833.5 493.327L833.125 494.813L831.668 496.152L830.621 496.283L829.739 495.434L829.592 492.673L830.768 489.406L830.557 487.839L829.886 487.233L829.133 487.185L828.462 487.936L829.853 488.802L828.365 492.264L829.002 493.489L829.346 496.92L827.531 496.202L824.047 496.119L819.171 493.441L816.718 493.717L816.081 494.242L816.375 495.155L819.369 497.019L819.417 497.605L818.452 497.835L816.49 497.394L811.958 494.681L810.747 494.846L809.064 496.185L807.477 494.878L800.427 493.309L801.393 491.955L801.081 490.207L795.308 487.692L793.77 488.785L792.199 486.531L791.266 486.629L790.27 488.295L789.68 488.394L788.945 485.894L785.247 483.264L784.299 479.508L777.201 477.041L770.673 473.742L770.151 472.484L770.036 468.629L764.785 462.406L767.01 460.266L765.227 456.705L764.147 452.801L763.085 452.147L760.5 451.968L760.369 451.477L761.76 450.792L762.054 449.991L760.958 448.162L761.382 446.316L760.221 445.5L758.668 445.548L757.981 445.058L757.064 442.951L754.448 440.892L755.118 435.861L750.292 432.268L747.659 431.157L743.865 427.662L740.692 426.486L740.431 427.531L741.509 430.145L740.938 430.979L737.829 430.832L736.014 431.827L734.197 431.484L729.668 434.686L728.261 434.114L726.346 431.697L724.694 431.712L723.844 432.48L724.432 434.065L723.926 435.389L714.356 437.707L713.016 440.567V442.396L714.635 444.275L718.381 445.091L718.92 445.875L718.152 446.463L716.713 445.956L716.009 446.643L713.621 451.347L711.723 452.261L705.263 452.294L697.182 453.323L692.683 456.525L683.818 460.282L676.884 470.377L670.275 475.081L666.874 475.816L664.91 478.806L662.898 477.449L660.412 472.697L650.941 470.164L647.213 466.489L640.211 466.816L636.204 466.015L634.699 466.913L633.881 469.185L636.253 466.963L641.258 467.877L643.63 467.174L645.773 467.11L647.753 468.285L650.32 471.112L652.266 471.128L656.355 472.875L659.086 472.974L662.08 478.299L663.782 479.539L665.891 479.491L668.002 476.894L671.763 475.816L678.453 470.671L683.95 461.524L689.953 459.482L696.462 454.859L697.967 454.32L711.69 453.209L714.848 451.494L716.713 447.378L719.362 447.835L720.017 444.797L716.173 443.669L714.536 442.429L714.422 441.237L715.6 438.133L721.308 436.842L725.905 436.891L724.843 433.69L725.479 432.856L726.69 432.906L727.656 434.816L728.948 435.714L732.823 434.114L734.869 432.105L737.223 433.543L737.813 432.006L738.516 431.697L742.066 431.778L742.54 430.832L741.46 428.266L742.033 427.645L744.438 430.129L748.952 432.252L751.078 434.311L753.548 435.47L754.154 436.416L753.516 438.868L753.678 441.105L758.08 446.382L760.386 446.446L760.614 446.937L759.043 448.814L759.699 449.42L760.695 449.354L760.843 450.366L758.896 452.311L759.273 452.833L762.822 453.275L763.673 455.529L765.145 457.162L766.061 459.775L764.017 461.327L763.509 462.47L766.177 464.577L768.939 468.531L768.727 471.961L770.052 474.82L771.606 476.06L775.369 477.695L777.576 477.759L783.498 479.866L784.201 483.787L787.817 487.022L789.746 490.124L790.711 489.994L791.022 488.851L791.545 488.688L794.358 490.958L795.815 489.275L799.903 491.349L799.118 493.849L800.607 495.091L806.365 495.695L807.919 497.05L811.974 496.659L817.765 498.799L820.628 498.88L821.003 497.427L817.602 494.764L818.958 494.567L826.827 498.129L830.981 498.064L831.457 501.657L833.059 501.363L833.844 497.019L834.939 496.25L835.413 497.394L833.14 503.977L828.675 532.856L827.514 542.069L826.926 553.077L827.661 561.897L831.946 576.109L836.102 580.683L838.112 584.472L838.424 590.631L837.362 599.37L836.282 600.775L835.185 600.856L829.149 599.418L825.519 599.223L815.656 601.771L814.052 603.993L812.678 604.564L811.125 603.567L810.666 602.358L815.77 595.368L816.652 593.294L812.792 584.406L810.666 582.169L809.881 580.455L809.391 571.422L810.192 565.133L811.419 562.894L811.926 563.596L811.467 565.508L811.796 566.373L815.573 565.655L820.334 566.439L821.837 565.557L822.476 563.269L824.668 560.901L825.109 553.747L823.753 542.003L825.6 538.098L826.059 534.456L827.334 531.925L827.253 531.058L826.599 530.977L824.734 532.103L823.915 531.565L824.832 529.311L827.187 527.432L827.988 525.979L828.381 520.899L827.285 517.403L822.035 515.802L818.043 513.728L814.052 512.944L813.104 513.451L811.419 516.145L809.031 516.178L808.228 518.024L806.609 517.615L807.002 511.164L805.612 504.124L801.081 501.2L799.201 500.726L798.007 501.231L796.502 506.493L797.057 508.027L799.003 510.461L802.734 510.87L801.867 512.389L799.396 512.944L796.469 512.764L783.498 506.541L780.782 506.019L778.46 506.508L772.768 509.186L772.081 514.415L767.287 514.25L765.014 518.024L762.512 517.012L759.894 517.958L758.881 516.897L756.41 516.031L753.384 513.923L752.337 511.882L751.324 511.131L750.178 511.294L749.623 512.911L746.138 512.536L745.779 510.788L743.047 508.093L743.308 506.1L740.708 505.968L736.587 502.768L733.168 502.588L728.948 501.134L727.753 501.852L727.851 503.257L726.969 504.302L725.299 505.022L723.616 504.794L724.939 505.707L726.919 505.103L728.048 504.238L729.225 501.738L730.469 501.967L731.548 503.176L735.522 503.323L737.453 505.235L739.007 505.332L740.135 506.328L742.048 506.671L741.952 509.089L743.457 509.807L745.452 513.157L749.671 514.152L751.275 512.143L752.599 514.332L755.381 516.667L757.784 517.321L760.401 519.036L763.673 517.828L764.884 519.347L765.652 518.906L767.827 514.986L770.51 515.589L773.258 514.757L773.618 514.268L773.192 512.193L774.059 510.624L773.782 509.399L779.72 506.901L782.991 507.325L793.491 512.666L798.022 513.875L803.453 513.287L805.612 515.231L805.4 516.799L798.137 515.901L790.972 512.455L787.161 511.702L785.721 509.792L784.365 510.02L781.912 511.801L782.206 515.295L783.334 515.525L786.311 513.5L789.566 513.157L790.171 513.941L789.092 516.897L787.424 517.192L787.128 517.925L790.678 519.33L790.957 520.377L790.024 522.14L796.028 522.107L797.417 518.596L798.382 517.534L801.474 516.913L805.088 519.053L807.215 519.609L807.82 520.524L808.18 523.186L807.1 526.42L807.247 527.465L810.618 528.314L811.68 527.221L812.694 528.102L813.922 532.202L812.744 533.624V535.372L815.998 538.197L817.552 541.283L816.358 547.998L817.732 550.171L817.389 551.804L817.782 554.107L815.932 553.356L815.197 553.731L812.417 557.634L808.9 557.358L809.161 559.448L808.737 560.281L803.388 564.463L800.362 565.361L797.711 567.828L795.978 568.333L792.216 567.91L788.273 569.117L783.334 573.202L783.022 579.524L783.465 584.048L784.872 584.586L787.178 581.859L788.323 581.598L788.912 582.856L790.924 582.496L792.151 586.678L792.396 592.934L793.983 598.046L791.709 603.468L792.036 607.536L792.984 609.937L796.272 612.942L797.908 612.78L799.495 611.244L801.997 610.82L804.173 609.595L805.121 610.477L804.941 614.038L803.289 618.529L803.192 622.809L804.272 622.695L804.434 619.183L806.021 616.046L806.086 613.14L806.758 611.129L809.881 607.275L811.386 606.245L812.27 606.148L813.446 607.635L811.746 610.591L808.377 614.07L807.199 616.34L801.033 632.349L800.721 640.923L799.888 641.512L799.69 642.427L799.675 646.053L798.841 649.974L798.694 656.524L800.083 664.02L799.609 670.474L800.149 674.197L799.773 674.557L797.597 672.155L794.882 670.276L792.249 665.605L791.758 662.192L790.645 662.633L791.071 660.607L794.031 658.352L794.244 659.839L796.535 659.757L797.875 660.655L797.483 657.96L798.268 657.112L796.469 655.167L796.452 653.795L797.401 655.005L798.055 655.036L797.99 654.449L794.702 647.114L789.763 642.737L788.993 642.655L788.699 643.586L790.106 645.807L791.742 645.955L793.002 647.065L793.116 647.996L795.341 651.148L795.389 652.081L793.164 655.624L792.265 659.136L790.711 660.672L789.647 663.726L788.83 662.714L788.552 660.949V653.501L787.931 651.737L785.265 648.224L785.412 647.785L788.486 647.017L788.863 645.955L788.078 645.219L787.014 646.624L783.988 647.392L776.022 645.465L768.597 646.2L768.123 645.399L768.106 642.64L767.239 642.982L767.223 645.269L766.536 646.266L765.161 646.086L762.692 643.814L762.938 644.697L765.244 646.852L767.664 647.179L767.223 648.356L764.737 649.923L760.68 650.577L759.633 651.231L758.995 654.922L754.595 654.645L751.945 655.281L750.325 658.173L749.344 658.548L748.804 659.889L747.479 660.117L746.711 662.141L745.91 662.174L742.246 658.761L740.446 658.679L739.841 658.058L739.073 658.304L738.779 659.577L737.583 659.496L736.946 660.117L735.67 660.067L733.609 657.602L732.578 658.974L730.059 658.859L728.898 659.856L725.382 655.788L723.68 654.743L721.817 654.792L720.327 653.192L716.548 653.681L713.997 655.086L713.147 654.351L712.017 650.577L710.547 648.143L706.472 646.314L703.512 647.294L703.022 645.939L702.138 645.384L696.102 646.2L693.796 645.84L690.46 641.823L687.695 641.724L684.948 639.617L681.545 634.145L680.285 628.852L678.83 627.48L681.365 625.799L682.33 624.148L683.524 623.365L683.785 621.012L681.431 615.605L680.187 614.314L679.844 611.326L678.061 608.109L676.801 607.128L672.303 607.226L670.782 606.361L672.599 608.271L674.986 607.911L677.047 608.598L679.239 612.306L679.68 615.133L681.299 616.211L682.477 621.42L677.685 628.297L679.403 630.29L679.73 632.692L682.526 638.996L685.683 641.316L685.896 642.247L685.095 642.802L678.699 643.096L671.976 648.551L663.765 649.776L660.756 651.46L656.535 652.538L658.334 653.027L663.389 650.953L673.547 649.304L676.491 647.702L680.154 644.501L688.317 642.802L690.083 642.884L692.701 646.543L694.86 647.261L694.336 649.368L694.958 651.214L694.695 652.423L696.512 654.873L694.272 657.977L694.074 660.297L691.997 663.465L692.144 666.34L689.789 668.333L689.708 669.1L693.256 666.013L695.007 658.892L697.427 655.56L697.394 654.008L695.612 652.015L695.595 647.996L700.96 646.444L703.479 648.193L705.785 647.245L709.777 648.635L710.907 650.479L712.362 655.446L714.029 656.671L715.453 656.197L717.792 654.138L720.441 654.057L721.211 655.591L724.58 656.441L729.176 661.946L729.732 661.88L730.109 660.541L732.284 660.655L733.478 659.595L735.801 661.162L738.239 660.967L739.955 659.692L741.085 660.737L741.542 659.953L742.164 660.067L744.061 662.501L746.81 663.759L748.003 663.041L748.379 661.555L750.163 660.493L750.292 659.349L751.668 658.287L752.043 656.458L752.862 655.674L755.315 656.179L760.843 655.249L761.318 654.219L760.107 652.832L760.5 651.934L765.571 651.247L774.175 647.311L778.721 647.425L784.086 649.467L785.886 651.28L787.766 656.506L787.325 661.294L788.208 664.233L788.699 669.754L787.784 670.342L786.867 668.79L786.18 670.309L785.133 670.505L781.862 667.173L778.754 666.259L776.317 666.65L776.791 667.337L781.028 667.434L785.901 672.564L786.408 676.223L785.805 677.84L785.772 680.354L784.005 682.136L783.661 685.532L784.971 687.117L781.192 691.626L778.64 692.638L778.329 696.183L777.593 697.425L772.931 699.972L770.723 702.162L770.576 703.697L771.099 704.807L775.384 706L774.715 709.283L775.09 710.557L777.315 713.564L781.372 715.197L781.535 717.221L782.401 717.809L785.313 717.074L789.403 717.352L789.958 716.911L789.713 715.327L788.078 712.192L790.204 703.42H791.119L791.676 704.351L796.208 706.605L797.336 713.204L801.867 725.814L802.472 733.458L803.927 738.832L802.144 737.721L802.014 736.448L800.296 736.61L800.329 737.166L802.716 739.354L804.368 739.894L804.958 741.005L804.581 744.337L806.218 751.133L805.891 751.866L806.839 752.7L807.805 752.766L807.542 754.366L808.033 755.249L806.888 757.927L804.893 756.849L803.568 756.963L802.128 755.705L799.69 756.441L797.81 759.103L796.469 759.773L794.031 763.48L792.396 762.958L786.557 764.231L782.533 773.477L777.903 772.906L777.723 773.558L778.901 773.576L779.49 774.686L781.616 774.098L781.829 777.121L780.488 781.351L779.621 781.252L776.823 787.787L776.104 787.181L771.393 787.247L771.05 788.522L768.367 790.498L767.566 792.719L765.848 794.205L765.913 795.577L764.228 797.93L763.689 800.887L762.938 811.16L763.265 816.47L762.789 817.972L763.706 820.586L764.654 827.446L767.206 834.013L768.303 840.333L768.138 842.392L770.739 848.73L774.631 860.98L778.526 869.344L788.273 883.278L791.773 886.887L791.578 887.247L790.883 887.74L791.234 887.95L791.464 889.044L790.939 889.893L791.529 890.481L794.817 890.613L794.586 889.077L792.036 886.725L793.917 886.888L795.438 886.317L798.725 886.888L798.562 888.064L801.882 892.115L801.147 895.137L802.914 897.374L803.159 898.763L802.569 904.824L804.419 910.165L803.96 912.222L801.801 915.424L800.149 916.256L796.682 916.928L793.753 916.289L792.412 917.417L789.893 917.613L787.815 918.544L784.708 920.554L779.261 920.455L774.811 925.061L771.557 924.8L769.251 925.583L768.597 927.006L764.704 930.386L757.948 929.93L756.656 931.122L752.616 932.526L751.144 932.346L749.72 929.635L744.813 928.231L743.832 927.186L743.194 924.85L737.01 921.32L733.675 916.322L731.63 916.601L731.009 919.083L729.192 918.282L727.476 918.333L726.543 919.263L725.986 921.109L724.792 921.452L722.83 921.305L718.396 919.263L715.519 920.57L713.751 920.177L712.476 916.616L704.249 917.433L701.01 916.665L698.884 918.333L697.754 915.44L696.069 914.362L693.715 913.807L693.208 912.746L691.768 912.075L691.391 910.867L694.957 909.381L694.926 908.319L695.792 906.898L694.908 904.137L695.432 902.945L694.957 901.523L694.123 900.478L690.787 899.352L689.363 897.881L682.82 896.608L679.86 892.507L676.458 891.673L674.495 891.772L673.497 890.776L671.535 886.365L669.588 885.026L669.474 883.98L670.929 879.8L668.263 875.928L667.201 875.961L664.272 878.885L659.317 880.338L656.355 882.985L654.965 883.457L652.249 883.148L649.403 881.58L642.796 874.36L638.984 872.253L628.254 868.218L626.275 864.592L619.306 866.878L605.519 858.841L604.914 858.744L559.147 886.137L544.474 880.028L505.021 865.833L505.644 863.464L504.384 858.286L506.216 857.436L507.017 856.049L509.176 857.372L511.695 857.814L513.855 860.213L515.441 860.966L518.287 860.672L519.529 859.936L521.739 860.883L527.005 860.753L527.791 861.455L528.445 863.383L530.865 863.284L532.322 864.428L540.369 863.416L541.481 864.232L541.645 866.994L542.855 867.94L545.424 867.841L551.884 866.061L554.779 869.263L555.564 870.945L556.841 871.485L560.08 871.092L567.08 867.793L573.41 868.006L576.272 866.322L578.088 864.004L580.917 862.353L584.221 862.566L582.176 861.341L584.533 855.575L582.962 852.57L581.391 851.622L580.704 848.715L581 844.158L580.263 837.623L581.211 835.483L580.247 833.997L581.588 831.22L579.642 829.62L577.924 820.326L574.391 818.381L571.839 818.006L569.059 815.246L565.329 813.905L565.346 813.056L567.014 812.68L566.279 809.137L562.597 806.98L560.734 806.865L559.457 803.762L559.621 801.885L558.476 794.665L559.391 793.128L558.05 790.286L557.021 789.698L555.237 791.333L554.142 793.374L553.111 793.291L550.723 789.928V788.146L548.907 785.876L549.185 783.279L547.844 783.066L546.24 780.763L541.856 777.3L536.77 769.542L535.201 768.84L533.581 766.798L530.964 765.67L529.329 763.286L528.609 759.365L524.798 755.037L523.652 752.308L520.839 751.836L520.365 749.388L519.562 750.351L519.841 752.215H519.22L516.65 744.864L512.497 742.528L512.464 738.608L510.109 735.765L509.225 735.374L507.836 736.5L506.903 735.113L505.986 734.867L506.069 732.63L504.384 731.175L503.926 728.448L502.486 726.504L500.753 725.279L499.035 724.886L495.877 725.002L492.754 722.698L488.926 721.734L484.576 717.078L480.471 710.938L477.607 708.014L472.503 705.106L470.197 703.113L468.775 702.345L466.026 702.263L463.116 701.969L457.979 699.846L457.244 700.239L456.735 702.476L456.099 702.966L451.616 699.324L449.163 699.357L447.33 697.445L437.974 682.189L429.747 673.286L426.64 671.262L422.779 670.493L419.884 672.078L418.28 672.502L416.481 672.144L415.125 673.189L412.246 671.326L413.848 670.623L413.931 669.628L410.725 668.287L410.707 668.245L410.708 668.249L405.54 666.763L403.74 663.659L403.675 661.863L400.125 662.548L396.69 661.879L392.699 659.804L390.066 656.505L388.986 656.424L388.839 657.6L388.135 657.829L387.746 657.066L384.341 658.076L383.031 659.626L382.23 659.692L381.135 658.827L380.742 659.284L381.495 660.559L380.578 661.587L376.49 662.697L372.433 661.637L371.73 660.737L371.779 659.17L368.555 655.919L360.1 656.507L354.882 656.099L351.104 654.972L347.374 653.061L344.285 649.486H344.283L347.308 653.03L348.405 654.321L348.192 655.154L349.221 656.869L348.978 660.397L349.86 661.018L352.346 660.691L352.723 661.084L350.285 663.86L350.645 665.314L352.182 665.037L352.183 665.035L354.244 661.114L353.54 658.729L354.112 657.422L362.26 657.716L366.593 656.41L367.182 656.606L366.576 658.353L368.948 658.287L369.734 658.876L369.815 660.412L362.995 671.73L358.365 682.315L357.957 686.53L357.858 691.675L359.085 695.628L360.083 696.493L362.324 695.889L365.529 697.229L367.901 701.377L367.329 702.734L366.266 702.538L364.14 700.332L361.867 699.239L360.787 699.516L360.46 700.381L361.147 705.445L361.702 705.919L362.308 705.201L363.339 706L365.497 710.199L366.348 713.858L368.18 716.014L368.735 718.479L367.002 720.587L368.36 724.704L368.164 726.206L366.905 727.317L366.036 729.196L364.026 728.917L363.666 729.832L360.82 732.234L361.964 733.948L361.54 736.545L363.339 739.126L365.58 739.519L365.856 740.107L365.154 741.071L365.095 741.11L365.285 741.899L368.18 744.301L370.273 747.306L370.927 747.405L370.912 746.098L369.604 744.187L368.768 738.438L371.517 739.858L372.433 747.96L374.166 755.228L377.242 764.311L385.715 777.1L386.353 779.714L386.434 783.83L388.234 790.233L388.576 793.598L391.898 801.194L395.038 806.11L398.882 810.325L402.202 811.73L408.728 821.237L412.638 824.372L417.464 829.403L420.031 829.534L420.571 828.211L421.258 828.112L424.464 828.7L426.868 830.645L432.315 832.654L436.862 837.668L438.09 838.403L439.872 838.354L441.116 840.086L444.305 842.552L445.941 843.221L447.805 842.585L448.656 842.977L449.915 843.908L455.019 846.424L460.106 846.228L470.836 847.976L474.941 850.149L477.804 849.315L480.142 849.462L491.903 856.763L493.114 856.943L494.848 856.093L499.035 858.543L503.32 858.822L504.22 858.282L505.479 863.46L504.858 865.828L501.505 864.621L471.9 849.804L460.694 849.854L439.905 842.226L438.858 841.555L432.413 833.161L422.403 831.444L420.67 832.147L419.197 836.199L405 859.834L402.154 859.59L399.699 857.384L395.497 857.303L394.597 855.832L392.502 855.718L391.374 854.019L390.36 854.427L389.085 853.643L388.708 854.232L386.386 852.566L386.173 851.323L384.716 849.854L384.962 847.943L384.749 846.669L384.062 846.211L384.291 845.297L380.955 839.237L376.964 834.728L376.047 834.86L374.886 832.114L373.92 831.936L371.844 829.354H370.879L370.208 827.982L369.031 827.524L368.72 826.104L369.505 825.875L369.701 824.683L367.002 824.161L366.185 823.245L367.199 822.477L367.019 821.889L364.27 821.726L363.796 818.884L362.979 817.463L361.604 816.989L361.571 815.894L360.574 815.029L360.035 814.849L359.561 815.438L358.005 814.604L357.875 813.412L356.91 813.085L354.424 809.917L350.597 807.564L349.599 807.237L348.765 807.875L347.635 806.681L346.441 807.45L345.901 807.173L345.739 805.898L343.382 803.725L343.253 802.256L341.208 801.145L340.111 801.275L337.609 799.479L338.574 798.432L338.116 797.387L335.531 794.905L331.836 793.598L328.253 788.045L319.879 781.723L314.251 780.041L312.125 776.773L312.419 774.128L310.946 771.939L311.04 771.677L310.832 771.828L306.4 768.25L304.028 765.572L298.059 762.469L295.687 759.806L290.239 757.846L277.187 750.038L276.566 748.437L274.83 747.098L270.235 741.119L264.216 735.598L261.254 734.209L258.854 732.235L258.851 732.237L250.607 726.552L243.917 720.476L243.279 716.849L240.465 711.623L233.04 702.688L225.106 696.105L223.962 693.344L223.666 690.503L220.526 685.047L214.818 679.297L214.687 678.334L212.348 676.945L211.334 674.642V674.477L206.607 665.455L201.405 657.926L200.997 656.912L201.422 655.639L199.785 653.433L199.836 651.784L198.607 648.435L196.924 647.144L197.021 645.037L194.519 640.758L195.647 640.594L194.273 636.871L192.801 636.82L191.427 635.352L187.208 633.13L183.315 630.042L160.955 616.239L146.381 606.374L145.743 605.819L145.923 605.182L144.549 604.756L138.628 599.971L135.176 595.708L132.346 593.796L131.987 592.604L126.736 587.492L126.311 585.891L130.188 584.466L130.155 584.455L126.245 585.893L124.691 586.317L123.366 585.957L122.483 586.464L120.242 584.683L120.291 584.176L122.156 583.426L119.31 582.348L118.656 581.514L116.627 577.235L116.693 575.503L116.071 572.562H115.237L115.139 574.261L112.571 573.429L111.966 573.739L114.763 576.124L115.908 578.721L116.071 580.403L115.662 581.432L114.959 581.498L113.912 580.697L109.676 574.393L106.683 571.469L105.145 568.349L99.0275 563.253L92.9917 560.394L98.2913 560.59L99.2074 558.645L93.3842 558.924L91.7159 556.54L91.2579 556.996L89.9003 556.735L88.0029 555.543L87.365 556.066L87.6922 556.457L91.1761 558.744L91.4052 559.233L90.5218 559.725L83.3903 554.171L86.2528 554.694L86.6943 554.055L86.7599 552.619L85.3204 550.903L85.3367 549.221L87.4304 548.192L89.0007 546.559L88.7389 546.036L87.7249 546.673L87.5612 546.249L87.1524 543.356L87.7249 541.512L86.5799 542.311L86.7272 545.382L86.2201 546.592L83.1939 549.483L82.4906 553.403L78.2052 550.315L77.9599 549.597L78.565 548.567L77.0438 547.162L75.7842 543.341L72.5292 539.029L69.9777 537.085L64.8415 534.488L64.9071 533.915L66.2156 533.753L66.0683 533.002L55.2401 524.932L56.3524 524.197L59.4929 525.602L60.2453 526.941L64.1874 527.692L65.3977 527.137L64.7434 526.451L62.11 525.668L60.2616 523.642L60.2453 521.616L62.2408 519.443L62.0446 518.578L58.0208 520.375L56.3524 517.728L55.191 517.124L55.4036 515.474L53.7353 516.47L53.31 516.128L50.9709 511.521L52.214 509.839L50.5457 509.496L50.6929 508.14L52.0832 505.772L51.5926 504.351L50.9874 504.285L50.3657 505.086L49.7605 504.432L49.1881 505.315L47.0126 505.429L44.9842 506.54L42.7599 506.458L41.4022 508.206L42.1382 508.842L43.6431 507.6L46.8 510.247L46.5055 513.874L49.8097 515.033L51.5761 518.169L54.4059 520.538L55.0111 522.483L54.4059 523.576L47.1599 517.32L22.1502 502.015L14.4787 495.334L13.8408 491.936L14.7568 491.299L14.2497 489.879L16.4252 483.818L18.6334 481.483L19.5493 478.771L26.0922 475.977L29.7398 472.401L32.1932 468.137L33.8616 462.355L34.9739 460.329L36.0861 459.496L36.724 460.329L36.2661 461.848L35.301 462.306L35.2029 464.152L34.0415 466.683L36.8059 465.915L40.2081 466.521L47.9777 472.057L54.046 478.232L56.2541 482.92L54.1441 482.413L53.5881 482.92L53.2609 485.124L57.2519 489.912L60.0654 490.336L64.9398 492.638L69.814 493.815L71.6133 492.932L75.0318 492.638L77.7799 499.074L78.336 498.275L78.2706 496.657L76.8476 492.656L81.133 492.443L82.6052 493.341L82.7033 494.796L86.6943 496.69L86.5472 497.948L88.1502 500.92L89.246 500.74L87.9048 498.536L88.1991 497.621L87.4631 496.673L87.6266 495.727L83.5375 493.815L84.9932 491.464L87.5123 490.581L89.2625 490.614L94.6275 496.15L98.1932 495.727L100.876 494.028L104.409 493.848L106.159 497.033L108.007 497.294L110.494 496.462L112.129 496.886L115.744 502.701L122.189 506.18L125.836 507.536L127.047 506.197L127.21 502.718L127.701 502.015L134.178 502.782L134.636 502.619L134.293 501.851L132.968 500.936L129.975 501.623L127.816 501.263L126.851 501.965L125.755 504.889L123.792 505.642L116.562 502.259L115.499 499.564L112.865 496.003L107.059 495.481L105.063 491.903L106.077 488.882L106.895 488.114L108.907 488.522L111.083 490.254L114.91 491.071L116.873 490.483L117.723 489.242L117.511 488.687L114.566 489.747L113.274 489.567L109.561 487.607L106.519 486.955L105.129 487.477L104.621 491.185L103.624 492.344L96.7865 495.351L94.6602 495.187L93.7932 493.047L90.669 490.14L90.2765 488.687L91.5524 487.102L98.3405 484.488L99.6163 482.626L94.2349 479.18L125.362 476.566L132.723 476.517L136.37 476.794L139.887 479.31L144.025 478.46L145.17 475.014L147.051 475.716L151.304 472.612L153.921 473.086L153.872 472.221L157.52 469.803L158.779 464.479L165.485 458.386L162.558 452.031L164.504 449.516L163.997 447.948L165.502 447.147L163.49 442.1L163.408 439.797L165.878 435.649L165.894 433.149L166.958 431.777L168.07 426.991L167.563 424.965L173.647 421.258L174.891 418.514L176.069 417.403L184.983 414.969L189.595 417.517L196.138 422.32L198.607 422.498L198.609 422.499L200.31 421.847L206.983 416.979L207.751 414.448L207.768 411.082L206.23 402.148L205.723 401.543L201.144 400.024L199.851 397.444L200.424 395.484L203.875 390.958L203.924 389.195L203.303 385.633L200.946 380.34L199.296 365.819L198.249 363.435L195.107 361.932L194.862 361.361L195.042 359.14L198.166 348.75L196.058 346.872L196.057 346.873L191.952 345.29L191.542 342.888L195.91 332.956L196.121 331.731L194.879 325.9L195.941 321.227L200.112 321.016L203.483 318.925L205.265 318.435L214.768 319.284L217.37 320.281L219.725 320.134L221.72 319.153L225.728 319.644L232.401 318.108L235.607 315.691L238.192 315.757L240.777 316.262L243.116 319.627L247.728 322.013L252.65 321.587L257.133 319.269L258.375 320.02L259.586 323.418L260.747 324.136L263.349 323.532L268.355 324.054L269.728 323.743L271.837 321.899L272.59 321.98L274.111 323.646L276.581 323.956L277.742 323.515L282.618 319.627L284.27 315.674L286.559 313.044L287.116 310.447L286.265 307.508L286.739 306.724L290.715 304.731L291.564 302.002L296.227 298.949L298.156 295.404L300.609 293.558L302.099 290.259L306.04 288.233L307.349 285.684L309.213 284.705L308.412 281.094L308.723 279.821L309.18 279.281L314.562 278.464L318.734 275.525L319.028 273.989L315.903 271.572L316.182 269.17L321.792 266.819L325.538 263.797L327.566 262.848L331.59 262.554L333.176 261.788L338.967 261.885L343.334 260.219L344.446 261.461L344.756 263.797L343.856 266.802L341.583 271.082L341.142 274.169L342.68 277.746L356.01 287.989L359.789 291.582L361.424 294.195L365.154 295.779L366.135 295.061L366.429 292.888L367.721 291.336L372.481 291.876L374.919 293.101L376.375 295.143L376.244 300.354L378.55 302.492L379.45 304.992L380.595 305.449L381.412 307.165L382.803 307.784L386.728 307.949L390.704 306.871L392.225 307.393L393.73 309.435L393.725 309.441L393.73 309.436L396.052 307.851L397 304.945L396.151 302.396L391.832 299.455L393.254 293.151L393.01 284.069L394.04 282.729L396.526 282.614L398.112 281.798L400.763 278.874L402.169 278.107L404.754 278.45L408.059 280.035L410.986 277.666L412.18 273.14L413.784 272.699L417.938 273.434L419.983 271.41L422.714 270.609L424.791 267.391L426.64 267.244L427.735 266.526L428.881 263.161L431.841 262.606L431.742 265.235L432.806 266.019L439.381 266.379L440.052 263.585L441.443 263.227L442.112 259.306L442.865 258.343L443.782 259.829L444.877 260.024L445.336 256.938L447.528 259.453L448.1 257.002L449.817 257.248L450.291 255.45L452.057 254.552L452.533 253.164L453.595 253L455.149 254.765L456.36 254.128L457.979 254.372L458.633 252.576L460.024 252.51L460.63 251.448L462.493 250.632L462.919 249.113L464.13 248.346L463.524 244.36L467.581 240.44L467.908 239.606L467.237 237.793L468.268 236.519L468.481 233.742L467.105 232.076L467.531 230.917L469.298 230.524L469.822 232.436L471.882 232.73L475.022 229.021L475.562 226.555L477.574 226.016L479.751 224.547L481.713 224.562L483.806 225.706L487.389 223.974L493.621 223.893L496.434 224.824L498.545 224.139L500.753 224.889L503.353 224.04L504.351 225.853L505.365 225.952L506.019 225.346L511.057 216.722L509.863 215.251L507.426 214.746L507.066 214.239L506.51 209.796L504.694 210.336L502.535 208.081L502.028 204.062L498.936 203.474L497.792 201.988L501.472 197.398L503.697 191.502L505.218 189.395L507.066 183.04L512.481 177.339L513.561 173.926L514.77 172.652L514.704 169.63L513.74 167.555L514.46 165.514L512.415 161.789L512.841 161.054L515.064 160.842L517.208 159.062L519.694 160.238L523.488 165.138L524.453 165.285L526.09 164.06L528.543 164.272L530.227 162.067L533.221 160.613L537.13 154.651L536.956 154.38L536.836 154.387L534.349 154.109L533.99 153.407L536.656 150.712L537.13 149.372L536.23 147.51L532.599 145.06L532.109 143.525L532.484 142.414L533.794 141.466L536.035 141.695L537.72 138.608L536.656 137.71L536.77 135.864L540.009 132.613L542.708 130.98L544.687 128.497L546.78 127.958L549.872 125.116L556.268 123.793L556.758 120.967L558.721 118.174L559.555 115.87L562.156 113.42L565.754 113.257L569.811 113.894L574.031 111.346L577.744 110.627L579.609 111.754L581.031 111.771L581.915 113.143L583.01 113.42L583.682 116.589L585.073 118.615L590.519 122.11L591.01 123.923L590.159 125.132L588.426 124.789L587.247 125.998L588.195 127.37L589.292 127.648L591.631 126.521L592.253 127.958L591.32 130.326L592.057 133.169L596.784 137.301L598.844 137.775L600.251 143.214L602.05 143.361L604.962 138.118L606.059 138.461L605.846 139.555L606.99 140.797L609.166 141.989L613.5 141.074L614.45 143.149L617.869 143.329L621.138 144.668L622.758 144.047L624.41 145.55L626.881 144.88L628.599 146.318L629.907 145.436L635.664 144.815L635.91 145.534L634.993 146.743L633.244 147.298L633.734 149.879L636.318 149.601L638.33 148.735L639.099 148.948L639.344 150.303L640.882 151.447L646.574 152.753L647.163 152.558L648.799 149.601L653.64 149.274L658.187 146.971L658.498 144.864L663.455 140.143L664.599 137.416L666.529 135.161L666.398 133.822L667.118 133.201L669.228 134.72L671.355 135.227L669.817 138.428L669.801 139.768L670.341 140.405L671.747 141.14L674.576 141.417L675.772 141.042L676.507 139.8L678.012 139.278L679.173 140.241L679.761 142.773L680.547 143.574L683.998 144.652L688.791 140.715L687.237 139.278L687.843 136.06L685.945 131.78L686.223 129.118L687.024 128.023L691.882 124.642L693.763 124.822L695.088 125.867L693.862 129.314L695.825 130.212L698.311 132.45L703.413 134.018L710.055 132.858L711.348 131.306L713.49 130.392L719.46 131.111L719.329 128.023L717.874 126.912L715.6 121.457L715.699 119.807L716.5 118.713L719.346 118.435L721.701 119.105L722.159 119.823L722.175 124.315L722.633 124.871L723.581 125.05L728.586 122.535L729.291 122.633L730.239 127.06L733.462 127.893L738.14 125.687L742.671 127.566L747.677 125.442L748.625 125.459L750.571 126.912L752.142 127.011L752.469 126.226L750.882 122.421L751.291 121.881L753.81 121.996L754.922 121.065L758.668 123.727L760.483 123.041L759.943 122.094L760.614 119.513L761.253 119.366L762.185 120.248L762.92 123.172L765.619 121.963L767.974 122.159L771.099 118.745L778.836 118.092L774.469 115.348L774.239 114.711L775.105 114.253L779.016 115.887L780.374 115.037L780.407 113.077L780.962 112.538L783.137 114.694L785.265 115.037L785.673 114.025L785.394 112.212L786.524 110.742L790.678 112.31L790.547 110.888L789.467 109.451L790.106 109.141L792.151 109.418L793.737 108.977L795.536 110.268L796.715 110.284L796.502 109.255L797.074 107.85L794.26 106.707L794.979 105.776L796.566 105.645L797.761 104.714L797.564 102.117L798.284 101.97L799.756 103.26L803.339 101.121L805.694 101.235L806.74 100.304L808.081 100.32L810.747 100.761L811.452 101.48L811.337 103.375L812.417 104.42L813.137 104.044L812.547 101.905L814.493 99.2585L813.561 98.1476L813.578 97.282L817.618 96.0895L817.029 93.6395L818.926 93.5251L820.562 94.505L822.311 93.5087L824.194 94.2438L824.683 88.9841L825.486 88.5267L827.76 89.0331L828.168 88.249L826.713 85.7825L827.187 85.4722L829.607 86.7789L830.081 86.3869L828.855 84.7862L828.119 81.699L828.855 80.3758L831.194 81.9929L831.979 81.7642L831.064 80.0164L830.785 77.8931L831.358 77.1907L833.533 79.1182L834.367 77.0109L835.74 75.3775L838.604 74.3322L840.239 75.1325L840.19 77.746L843.298 80.1635L845.751 79.6571L848.86 77.5173L851.772 77.4194L854.978 74.4791L855.272 69.2031L856.76 69.4808L858.346 71.3919L860.702 71.441L862.811 72.323L864.088 74.4301ZM522.841 746.189L524.612 743.89L523.211 744.128L522.841 746.189ZM243.079 626.071L248.929 620.823L253.208 621.816L258.704 626.097L262.99 627.925L267.275 623.041L272.164 619.988L277.661 619.382L283.173 619.988L287.443 627.925L289.291 629.15L288.67 634.034L285.611 637.09L283.173 638.315L281.325 644.424L295.408 645.028L301.509 641.368H319.862L320.483 625.491L322.92 621.213V617.554L324.147 613.273L319.256 612.048L314.971 609.599L311.306 610.823L307.626 616.329L306.417 616.932L305.19 618.761L300.905 619.382V610.22L297.24 604.714L294.787 599.227L289.896 592.512L288.064 582.124L284.384 576.015L273.614 576.812L273.637 576.841L276.042 577.462L276.63 578.231L275.616 579.699L276.386 580.86L275.159 582.019L275.6 583.032L275.175 583.391L271.381 581.971L265.426 584.045L264.967 584.682L259.308 585.808L255.612 587.492L252.701 589.713L251.261 591.836L249.51 596.279L246.37 599.073L245.225 599.481L239.632 599.154L230.194 594.955L229.375 594.237L229.555 593.763L230.815 593.601L230.979 593.028L229.67 591.314L226.661 592.457L223.846 595.103L224.175 596.786L225.336 598.288L224.272 604.267L226.758 607.926L228.067 612.336L229.948 613.48L233.121 613.675L237.145 614.753L242.052 618.052L245.896 618.886L248.929 620.817L243.099 626.025L243.079 626.071ZM546.295 201.597L546.317 201.662L546.258 201.628L546.295 201.597ZM771.851 443.146L771.742 444.113L771.623 443.948L771.753 442.788L773.83 437.839L777.969 430.586L777.712 429.534L777.723 429.54L778.068 430.945L773.929 438.198L771.851 443.146Z" fill="black"/>
<path d="M794.145 703.223L794.325 704.285L793.05 702.799L789.583 700.936L788.177 695.121L789.157 690.891L788.144 687.313L788.388 685.697L790.597 683.214L790.924 679.669L793.263 677.316L794.784 677.496L791.398 683.965L790.744 691.103L791.512 697.702L792.445 700.005L794.064 701.998L794.145 703.223Z" fill="black"/>
<path d="M117.887 585.631L115.63 583.426L115.123 583.116L114.861 583.524L115.483 584.749L114.616 584.275L113.945 585.043L118.623 588.178L121.894 589.519L134.767 598.616L138.578 599.988L135.127 595.725L132.297 593.815L131.938 592.621L131.332 593.291L123.007 589.714L120.324 587.754L118.345 587.427L117.887 585.631Z" fill="black"/>
<path d="M74.5576 489.585L82.9813 489.943L88.7881 489.387L91.1107 486.432L94.0059 484.848L98.2424 483.524L98.7822 482.887L95.4453 480.633L86.3017 479.277L83.8318 480.699L78.4996 482.528L71.9078 487.052L72.4476 488.522L74.5576 489.585Z" fill="black"/>
<path d="M376.407 726.353L375.656 725.374L374.429 724.753L373.365 725.815L371.73 725.831L372.187 727.905L370.175 729.914L370.061 730.813L368.867 731.63L371.287 733.573L372.367 735.386L372.433 736.088L371.419 736.367L370.879 735.092L370.355 735.026L369.832 737.216L370.405 737.919L371.893 737.967L375.36 736.106L384.471 737.331L387.285 736.301L387.76 732.756L386.303 730.552L386.353 727.611L385.142 725.831L383.49 725.275L383.114 726.974L378.026 726.876L376.407 726.353Z" fill="black"/>
<path d="M448.067 780.922L448.377 783.014L450.471 785.301L451.109 787.946L451.37 791.034L450.455 794.872L448.737 796.751L445.974 797.993L442.391 799.365L439.986 799.512L437.353 798.972L435.08 797.747L433.346 795.265L430.63 792.977L429.061 788.322L430.123 784.484L429.486 783.209L425.592 780.105L423.498 779.354L419.246 779.453L419.164 781.429L417.317 782.327L416.138 781.053L414.666 780.841L410.872 783.209L409.073 783.406L404.46 780.792L400.943 777.508L401.189 776.055L404.689 770.469L404.917 767.626L406.716 765.96L412.491 763.053L418.151 761.42L420.849 761.502L422.943 760.079L426.689 759.917L430.647 763.053L431.17 764.114L431.202 765.356L430.189 768.818L431.007 775.418L431.856 778.424L434.294 780.906L437.19 780.564L438.727 781.135L441.932 780.072L445.483 781.446L446.382 780.841L446.464 779.681L447.625 780.008L448.067 780.922Z" fill="black"/>
<path d="M554.026 849.532L554.664 847.293L550.543 847.211L547.19 845.104L548.253 847.196L553.912 851.801L555.957 851.9L556.545 850.789L554.026 849.532Z" fill="black"/>
<path d="M545.668 845.122L545.391 844.713L544.72 843.994L544.753 840.205L544.016 841.021L542.102 841.495L542.642 843.732L542.036 845.154L542.282 845.563L543.247 845.056L545.424 845.464L545.668 845.122Z" fill="black"/>
<path d="M528.085 843.781L528.87 841.577L529.05 839.616L527.038 840.907L526.924 842.507L525.91 844.206L527.381 846.575L528.1 846.329L528.085 843.781Z" fill="black"/>
<path d="M536.427 838.653L534.823 836.35L534.088 836.464L533.843 837.379L530.766 836.758L529.932 837.199L530.784 839.878L529.263 843.063L531.275 847.196L535.69 844.044L538.26 843.912L539.306 843.276L538.08 841.234L537.507 838.686L536.427 838.653Z" fill="black"/>
<circle cx="293" cy="659" fill="#5CE50D"/>
<circle cx="591" cy="849" fill="#E52A0D"/>
<circle cx="293" cy="447" fill="#E52A0D"/>
<circle cx="768" cy="224" fill="#E52A0D"/>
</svg>
