<svg width="1000" height="1000" viewBox="0 0 1000 1000" fill="none" xmlns="http://www.w3.org/2000/svg">
<rect width="1000" height="1000" />
<path d="M750.665 19L748.823 19.7824L746.124 20.7379L745.363 22.6964L743.078 23.7162L741.207 22.8917L739.097 23.0198L738.706 20.3479L736.813 19.2138L735.051 22.6075L735.442 24.6082L736.573 26.7601L737.528 28.5454L736.813 30.5881L735.331 28.239L729.438 28.9138L730.61 30.741L732.242 31.4999L733.768 33.2851L728.804 34.0019L731.154 37.3538L735.701 35.3736L737.965 37.6552L738.991 40.3086L742.751 40.7849L735.506 41.3284L735.33 43.4401L736.245 46.896L732.548 48.9186L734.507 51.7893L733.831 53.8118L734.961 55.6374L738.292 57.7054L735.484 57.5093L733.027 58.0965L733.462 60.8779L733.352 63.141L736.051 66.1394L733.483 66.2937L730.679 69.0331L730.136 71.1229L727.654 73.1454L727.395 75.2085L725.521 76.3426L725.367 74.2326L724.544 72.2101L724.63 70.0358L724.502 67.5558L724.153 65.3819L724.216 63.2064L722.955 56.8359L719.976 56.9248L716.644 58.6831L722.325 53.0733L722.933 50.8337L722.236 48.3537L720.714 44.6168L720.324 42.3957L720.953 40.4624L720.17 38.6369L717.187 37.0265L713.317 43.7468L712.467 46.4423L711.945 49.1613L710.577 52.8561L710.312 55.2469L709.272 57.2677L709.4 63.4009L707.377 66.9056L704.678 76.3418L701.31 85.3421L703.722 85.7797L704.309 88.0177L703.242 90.2823L702.133 94.499L701.33 96.3043L700.243 102.304L698.241 103.329L697.112 101.154L696.587 98.6095L694.978 100.389L696.172 103.065L695.976 105.134L693.888 102.87L693.06 99.1279L692.906 96.7589L692.647 94.3681L694.016 92.019L696.107 86.039L694.433 87.3901L692.78 84.8459L693.931 82.1269L696.238 80.7976L695.303 78.9298L694.495 75.9936L690.081 76.1897L694.344 75.4509L693.714 72.6443L690.472 73.7313L693.149 69.6239L694.824 66.7533L697.325 61.618L697.933 59.4896L699.349 57.4688L698.367 54.7715L700.806 52.7257L702.502 48.7024L702.982 45.921L700.589 45.5728L699.284 47.5297L697.76 45.5307L695.889 46.4864L695.083 49.2039L692.431 49.115L693.561 47.1397L693.473 44.5922L688.577 43.5944L690.013 46.0744L690.885 47.9218L690.995 53.0303L689.188 54.9466L689.058 52.5508L687.469 49.5103L684.12 47.7048L683.575 51.4638L681.659 49.5303L682.487 46.7458L681.311 43.9206L680.486 45.9212L681.182 48.006L677.571 49.2462L677.33 46.8553L675.525 45.4201L672.915 45.3339L672.219 47.6155L673.676 51.1153L675.898 53.0942L673.698 53.5535L673.96 55.9026L673.806 57.8392L670.761 55.9646L667.976 54.5292L666.477 57.8591L666.54 60.4032L669.196 61.2949L672.089 61.6431L675.374 62.9472L677.613 64.8368L680.094 67.4246L679.439 69.6877L677.571 69.2534L671.936 66.558L670.172 66.6625L669.454 69.5112L668.954 74.0138L667.495 77.6669L671.197 78.6007L672.739 81.039L669.846 80.3001L663.387 80.5354L661.381 82.536L660.467 85.4284L658.535 88.494L656.227 92.1687L655.772 95.6045L658.708 96.9757L654.88 98.5807L652.879 101.431L657.598 101.083L655.335 101.953L652.16 103.563L654.51 104.714L656.444 105.194L654.88 107.021L657.03 107.955L656.358 109.849L654.464 110.477L652.399 112.241L656.054 115.239L661.778 115.85L659.902 118.828L657.621 120.982L656.423 118.437L653.486 120.263L652.357 117.85L651.68 115.85H649.071L648.328 113.74L647.983 111.544L646.959 109.544L644.894 112.717L640.127 115.761L634.339 117.851L631.969 119.503L634.186 117.413L635.844 115.482L637.734 115.503L641.847 113.587L644.436 111.391L645.783 105.391L638.691 105.626L636.736 105.061L634.428 104.258L631.272 105.367L631.381 107.499L631.23 110.935L636.536 113.042L633.383 111.976L629.639 112.414L629.925 109.912L628.747 106.998L629.402 105.083L628.077 102.517L625.247 103.778L625.009 106.585L623.355 102.691L621.593 103.625L621.091 101.778L617.721 107.019L619.809 110.149L620.33 112.149L620.81 114.239L619.157 112.565L618.198 110.519L614.913 107.605L612.236 105.847L610.324 104.955L610.629 107.346L610.561 109.452L610.909 111.607L609.473 109.801L608.191 107.933L605.339 110.433L604.425 112.846L606.078 114.218L608.364 115.153L611.216 114.499L610.63 116.672L612.975 119.481L615.741 118.826L618.286 120.741L620.72 118.088L623.657 118.129L626.444 116.783L624.617 119.849L620.483 122.025L622.42 123.459L624.441 123.069L627.14 122.177L627.316 124.156L627.028 126.2L626.968 126.631L626.879 126.2L626.551 124.588L624.226 125.614L624.289 126.2L624.383 127.063L624.461 127.787L625.286 130.089L627.287 132.723L628.005 134.918L625.919 135.028L628.548 136.416L630.291 139.072L631.378 141.028L628.596 140.806L630.401 140.483L627.243 138.393L625.83 135.96L621.547 132.677L619.698 132.481L617.608 131.305L616.978 128.369L615.978 127.057L615.367 126.259L615.174 126.196L609.47 124.369L608.155 126.196L607.907 126.542L607.829 127.057L607.601 128.585L607.734 131.367L610.865 132.76L608.055 133.241L609.165 137.416L607.45 139.11L607.534 135.543L605.601 136.544L605.163 139.004L604.316 141.849L601.598 137.131L602.663 134.348L603.815 131.304L598.724 137.632L599.724 140.112L599.159 142.091L596.07 144.61L593.962 147.896L594.394 151.529L595.504 156.071L598.81 157.919L600.836 160.986L602.858 161.985L599.18 161.767L597.028 160.442L594.48 158.527L594.003 160.702L593.849 163.595L592.63 166.487L590.412 172.707L586.737 177.622L584.386 180.319L586.562 175.011L588.911 172.271L589.324 168.967L590.475 166.813L589.999 164.464L590.523 161.462L590.718 158.79L591.716 156.617L591.11 154.527L589.305 151.723V147.591L589.242 145.242L589.632 142.762L589.436 139.695L589.24 137.415L584.799 132.674L583.668 135.89L583.405 139.003L582.276 136.238L582.08 139.326L581.58 141.721L579.841 147.723L579.819 145.395L579.317 143.089L577.513 148.046L576.925 151.744L577.248 153.831L578.099 155.877L580.427 157.963L582.212 159.028L584.146 159.984L582.429 159.552L580.644 158.68L576.509 159.661L576.075 164.553L576.683 167.162L576.531 170.486L573.097 174.075L573.964 171.378L575.121 168.814L574.312 166.354L574.38 164.096L575.359 158.918L574.899 156.027L573.879 153.703L574.467 151.332L574.16 149.005L573.706 145.131L569.506 146.635L566.984 148.589L563.328 148.699L560.958 151.331L558.999 152.546L559.103 155.507L556.473 161.312L557.821 165.661L559.779 165.292L561.956 164.115L564.172 164.616L565.218 166.575L562.826 164.987L560.366 166.528L559.082 168.596L559.389 171.467L561.87 174.359L564.108 176.947L568.873 176.165L572.093 179.945L572.135 182.384L573.118 184.668L573.704 186.557L570.155 186.754L568.223 186.299L568.027 184.168L566 184.013L568.35 183.47L570.224 181.489L569.178 178.555L563.455 178.315L560.386 176.034L559.953 173.923L557.366 172.186L556.801 170.032L555.428 167.965L554.863 165.921L548.03 168.597L545.875 170.423L546.116 172.509L547.986 174.535L549.706 175.75L552.009 179.058L559.603 180.947L561.298 183.709L559.322 183.255L556.383 181.576L554.206 181.924L552.489 184.667L550.727 183.037L549.116 180.12L549.225 182.231L549.638 185.731L549.05 188.125L549.226 185.904L548.487 183.862L548.419 181.708L546.397 178.077L544.463 178.341L544.438 175.686L541.917 172.118L539.416 173.621L538.998 175.817L539.653 177.904L538.783 180.688L537.13 184.494L536.369 186.796L537.218 190.649L539.436 190.385L538.914 192.67L539.371 194.581L541.284 195.409L536.501 196.343L534.479 198.476L529.255 199.388L528.343 203.411L527.471 205.496L527.122 208.673L526.167 211.502L527.493 213.524L532.213 213.196L534.13 215.915L532.388 214.611L530.103 216.395L528.692 218.242L526.839 219.546L531.65 221.393L535.302 222.305L535.567 224.328L533.761 222.459L529.668 222.2L526.796 220.655L523.771 222.96L523.1 226.549L525.926 225.699L528.692 229.157L530.889 230.071L528.798 230.877L526.426 229.812L523.839 228.482L521.14 228.502L518.77 229.764L519.271 231.965L519.815 234.05L518.332 232.091L516.531 230.202L514.091 230.503L511.24 231.637L508.588 234.008L506.172 235.702L505.564 238.4L506.693 240.684L507.111 242.617L505.389 241.75L503.757 244.728L504.151 245.512L504.582 246.374L504.761 246.729L505.976 249.034L509.434 248.707L511.156 247.556L514.006 247.531L514.725 246.374L515.179 245.64L515.276 245.512L517.141 242.964L519.469 244.162L519.788 245.512L519.965 246.268L519.924 246.374L519.252 248.01L523.583 246.374L524.601 245.988L524.913 245.512L526.93 242.421L529.782 240.901L531.413 240.833L530.157 245.513L530.042 245.947L532.579 245.513L533.739 245.314L534.034 245.513L535.315 246.374L539.594 249.252L536.591 247.705L532.064 247.056L527.651 248.576L533.611 251.731L531.457 251.536L526.759 249.033L523.864 251.794L524.581 254.054L525.998 255.927L529.519 258.602L530.544 260.645L528.869 261.537L528.5 263.95L527.868 261.817L528.064 259.515L524.061 256.317L523.321 254.032L521.842 252.012L518.621 254.316L514.334 256.186L515.357 254.254L513.357 252.424L510.353 250.902L501.824 254.122L498.412 255.774L501.105 257.056L503.783 258.947L508.002 260.124L508.942 262.604L510.553 265.058L513.642 267.798L515.226 269.45L513.509 269.149L508.482 265.777L506.614 261.711L502.02 260.43L499.454 258.973L496.845 258.602L496.343 261.363L498.301 262.255L502.61 263.95L499.131 264.429L498.192 266.082L505.373 263.691L506.176 265.67L508.223 267.845L504.655 267.079L505.937 268.843L503.525 269.734L500.89 271.54L503.609 274.042L505.959 271.498L507.982 271.561L509.661 273.282L512.159 275.431L509.07 274.65L506.614 272.933L504.892 275.519L504.459 277.604L507.59 279.521L507.961 281.478L509.635 281.912L506.461 281.215L503.916 280.128L506.071 282.673L506.329 285.109L501.501 280.349L502.435 282.303L502.828 284.935L504.132 288.478L507.961 291.089V292.764L503.35 288.329L501.28 286.128L500.89 282.868L499.215 280.174L496.168 277.584L496.909 275.193L496.126 272.606L496.711 270.518L494.821 267.909L494.926 265.819L493.754 263.275L492.122 264.145L492.45 266.516L490.554 269.102L491.709 271.604L489.794 274.564L487.575 276.127L484.703 276.738L485.031 274.65L486.836 275.344L487.138 273.346L486.62 271.127L484.396 269.909L484.418 272.061L483.331 273.736L481.593 274.996L481.223 272.474L478.658 274.606L476.112 278.802L478.066 282.218L478.631 280.282L482.918 276.433L484.292 278.783L490.078 277.282L491.71 276.781L492.274 279.129L496.648 279.736L494.186 280.935L493.516 283.584L492.101 285.869L491.752 287.892L491.077 285.913L488.795 284.393L483.419 289.175L483.093 291.523L482.962 289.241L481.895 287.348L477.242 289.611L474.607 292.805L474.349 290.135L471.497 290.26L469.149 289.87L466.645 291.612L465.472 293.633L471.193 293.654L468.43 293.96L466.211 295.111L463.577 295.786L464.167 298.045L466.582 298.526L469.713 298.589L471.366 300.158L473.172 300.244L466.777 301.442L464.321 302.767L466.972 303.573L463.925 307.422L466.191 307.638L469.191 305.963L471.497 304.835L475.068 302.006L477 299.225L478.088 297.503L479.746 294.654L479.615 291.872L480.355 293.962L480.898 291.392L481.42 293.33L480.703 295.873L486.162 296.829L487.815 295.873L487.794 297.721L491.819 303.135L487.684 299.593L485.945 298.765L480.898 300.137L483.311 302.439L485.967 301.853L488.011 303.352L484.943 304.07L480.093 301.92L478.22 301.377L479.376 303.573L476.742 309.009L479.656 308.835L482.05 309.095L483.486 310.878L481.05 310.594L477.983 311.31L478.463 314.968L486.294 314.942L489.079 312.202L495.234 311.335L492.276 312.029L487.467 315.27L486.965 319.38L485.728 321.207L487.836 323.186L488.925 325.73L489.685 327.99L491.516 329.319L489.035 331.103L488.967 328.686L487.186 326.385L486.748 324.404L485.074 320.901L484.377 318.879L481.484 317.27L477.697 319.248L475.827 320.577L477.154 317.117L476.003 315.358L473.541 317.29L471.219 319.555L468.345 318.335L471.737 318.055L472.259 315.834L472.499 313.68L475.457 314.397L472.542 311.727L470.735 312.312L465.688 315.834L464.448 318.509L466.865 321.185L470.06 321.38L472.996 320.748L471.343 322.49L469.474 323.381L466.449 325.491L464.838 323.207L461.51 324.405L461.251 326.405L458.554 330.384L457.572 332.296L456.115 334.907L454.462 336.275L456.705 335.71L462.424 334.339L464.253 333.689L464.036 337.384L466.516 333.537L470.149 332.929L473.999 331.168L476.915 329.948L474.479 334.492L480.113 334.296L481.503 336.665L483.963 334.602L489.576 336.449L491.925 335.969L492.773 338.253L485.399 336.038L484.069 337.927L486.445 340.192L485.505 342.625L487.532 345.844L485.68 345.607L483.941 344.213L482.982 339.538L480.896 339.189L479.068 338.016L474.975 336.84L473.191 338.08L473.066 342.91L473.434 344.91L470.604 342.149L470.994 340.018L472.388 336.972L469.801 337.711L465.993 338.212L462.858 338.819L459.859 340.212L463.623 340.191L466.079 341.475L466.147 343.627L464.405 341.342L457.398 343.886L458.226 341.3L454.92 342.821L454.832 345.126L454.225 347.823L456.595 347.518L459.968 348.303L462.795 349.54L461.708 351.324L460.947 349.281L457.793 348.453L453.787 348.932L453.876 351.435L451.936 354.849L449.633 353.999L448.785 351.301L447.955 349.239L447.085 351.435L447.782 353.804L446.218 356.782L445.109 359.023L444.954 356L444.909 354.021L442.279 356.259L439.775 358.307L434.838 358.87L434.489 361.177L436.776 361.045L438.45 363.632L439.058 365.61L441.888 367.026L447.305 368.113L441.038 368.266L438.73 367.374L436.622 367.285L435.404 369.634L439.819 371.242L435.361 371.264L435.165 373.311L436.97 373.919L439.712 372.331L444.67 372.049L442.236 373.83L439.364 375.375L433.686 374.093L427.418 375.265L433.465 376.789L434.748 379.138L431.987 377.982L429.921 379.027L427.398 378.484L424.895 378.832L427.224 380.03L429.509 380.4L427.201 382.463L426.2 385.398L428.073 385.899L429.855 385.225L432.314 384.659L434.379 381.529L436.95 381.44L434.575 383.07L433.925 385.14L439.448 387.594L436.512 386.835L432.9 386.227L429.79 386.442L428.639 389.314L428.874 391.965L430.986 392.185L427.11 392.054L426.914 389.922L425.784 387.836L423.37 386.486L419.76 388.074L422.543 389.399L425.372 392.118L423.672 392.639L425.589 395.164L424.982 397.295L421.085 399.469L422.283 402.013L423.936 402.144L425.674 402.969L427.723 403.337L430.764 401.079L430.789 399.032L432.919 399.923L432.66 401.749L435.317 402.774L430.396 402.989L425.283 406.926L424.09 408.818L423.673 412.079L427.416 409.777L430.764 406.774L433.226 406.818L435.706 405.602L439.055 404.319L439.097 406.689L441.948 404.926L444.166 403.861L447.366 404.078L448.606 401.729L450.935 400.751L453.565 399.427L452.827 401.665L450.042 403.992L449.15 406.341L445.344 407.665L443.274 409.339L443.014 406.384L439.794 408.057L439.033 410.516L441.795 411.277L443.817 410.928L445.233 412.887L442.058 412.254L439.381 412.843L437.011 415.192L437.316 412.951L438.252 410.558L436.53 409.973L436.467 406.885L430.268 408.733L428.091 411.06L426.175 412.299L423.129 413.604L418.085 415.083L414.823 417.235L413.883 421.626L421.26 420.608L421.173 423.562L421.781 427.043L423.824 427.845L426.37 429.306L426.982 431.502L427.284 434.394L424.284 430.738L421.519 429.412L420.039 427.586L418.017 426.715L416.322 426.909L413.359 429.696L412.319 432.173L412.078 434.394L413.166 436.11L413.061 437.83L410.494 440.918L411.166 443.589L413.363 446.133L414.561 448.223L417.259 449.57L414.518 449.266L412.016 448.85L411.318 446.243L409.361 443.197L406.708 445.658L405.859 447.7L404.77 450.656L406.292 454.44L406.38 457.158L408.207 456.963L410.035 453.68L409.385 456.071L408.207 458.008L410.273 457.032L411.186 453.159L411.471 455.964L411.361 458.072L412.147 460.162L412.559 462.162L417.608 461.966L413.8 462.769L413.646 465.138L414.909 467.619L413.277 464.812L411.429 463.597L409.143 464.182L410.342 466.01L411.037 468.858L413.32 469.229L415.389 471.077L412.648 469.446L409.406 468.574L407.12 471.904L409.1 470.839L407.337 472.839L405.162 473.34L404.053 477.405L405.357 475.753L407.992 475.273L410.405 475.579L412.539 475.969L415.193 476.686L410.557 476.75L407.923 477.098L406.423 478.945L408.229 479.405L409.275 481.537L406.665 481.992L408.165 484.603L412.233 482.534L415.082 480.408L420.348 473.25L422.481 472.01L419.065 477.034L418.173 479.188L416.52 481.121L414.909 483.273L413.451 485.321L409.93 486.319L408.578 488.386L405.642 488.626L403.967 490.236L401.117 491.343L400.963 493.823L398.723 491.343L395.981 490.799L393.912 490.388L391.847 491.866L390.149 493.56L388.844 496.865L387.191 497.866L384.533 498.822L382.685 498.258L380.273 499.736L383.795 500.65L381.361 502.085L378.007 500.496L375.937 502.567L375.075 503.43L373.418 505.086L375.075 504.689L375.937 504.482L384.037 502.542L385.927 502.348L381.75 504.565L375.936 507.001L375.074 507.363L373.767 507.911L375.074 508.273L375.936 508.512L376.529 508.675L378.772 508.413L376.75 511.284L375.936 511.997L375.074 512.754L374.073 513.632L375.074 513.197L378.313 511.785L379.596 510.002L382.559 507.522L384.56 504.021L388.146 502.433L393.194 498.258L397.391 496.495L400.09 496.67L402.571 498.671L397.35 497.582L395.654 499.519L393.41 499.931L390.41 502.106L388.366 502.913L387.301 504.74L385.558 505.827L387.649 505.911L389.713 506.24L386.255 507.368L389.908 509.848L382.796 511.153L383.926 513.285L382.188 512.763L380.663 514.525L378.926 514.959L378.207 516.938L379.096 519.287L380.077 521.441L382.971 525.007L383.076 522.569L385.34 521.048L386.317 523.113L389.083 523.636L386.254 524.832L383.772 525.832L381.727 526.396L382.25 528.485L380.182 530.048L379.79 532.181L385.102 531.812L381.03 533.094L378.596 533.595L378.074 536.988L375.934 538.743L375.744 538.899L375.072 539.92L373.527 542.271L374.79 539.184L375.072 538.768L375.933 537.504L376.331 536.922L376.917 534.62L375.933 534.165L375.072 533.766L373.96 533.249L371.458 533.729L371.546 530.725L369.501 528.529L368.215 526.726L367.934 524.466L365.04 523.031L364.148 525.051L364.999 527.333L364.259 529.136L364.824 531.185L362.495 530.661L360.188 531.51L357.142 532.377L356.772 534.4L360.34 534.815L360.451 537.011L360.947 539.143L358.053 535.835L353.966 534.857L354.336 536.989L351.659 534.943L350.222 536.816L353.464 537.772L354.356 540.901L351.484 539.641L353.184 542.057L351.158 540.185L349.895 541.946L350.659 544.407L348.264 546.602L346.31 546.882L343.611 548.755L345.442 549.353L346.003 549.537L347.308 552.123L345.442 550.603L345.2 550.407L341.542 551.864L340.781 555.232L339.413 556.863L342 557.95L338.694 557.975L335.953 558.365L336.889 560.669L335.822 563.238L335.236 566.131L334.122 567.825L335.863 567.476L338.779 567.345L334.322 570.696L337.062 569.587L339.064 568.585L340.999 567.519L341.478 569.587L339.671 569.107L338.194 570.737L332.733 571.782L330.837 574.628L325.593 577.589L323.027 581.721L329.164 581.152L327.336 581.479L322.593 585.352L323.181 587.829L325.118 585.896L329.205 584.243L331.645 583.653L334.712 581.262L337.015 580.064L337.04 582.524L339.259 581.178L336.081 584.197L333.71 584.787L329.816 586.439L330.362 588.721L330.165 590.917L332.907 593.765L333.08 595.983L333.515 598.747L336.038 599.767L338.604 599.244L341.303 597.201L343.652 595.439H346.134L349.113 594.225L352.682 591.416L355.227 589.939L357.076 586.676L359.231 586.418L361.405 584.33L364.473 583.527L366.691 580.392L368.846 576.48L368.888 574.412L367.151 573.303L364.015 572.153L360.012 575.282L356.162 576.522L358.448 573.958L363.122 571.999L364.321 570.28L365.888 568.432L373.24 562.779L373.851 559.691L375.07 558.9L375.659 558.518L375.932 558.341L377.506 557.322L375.932 558.782L375.07 559.584L374.698 559.928L375.045 562.151L375.07 562.159L375.932 562.309L378.287 562.718L382.03 564.064L380.506 565.739L376.307 567.046L375.932 567.275L375.07 567.803L373.957 568.483L372.563 571.025L370.107 572.415L370.631 575.201L375.07 574.428L375.932 574.276L376.502 574.177L378.178 575.155L380.052 575.007L381.161 577.134L381.007 579.418L377.722 579.635L375.931 580.472L375.069 580.873L374.786 581.007L373.697 583.203L371.042 585.288L368.344 584.312L364.382 586.766L362.514 589.595L360.73 590.27L359.096 591.768L358.992 594.661L360.731 594.182L362.775 592.794L364.997 592.465L365.039 595.792L362.167 596.118L359.928 598.445L361.972 601.317L364.211 603.121L362.579 603.513L359.99 603.924L357.837 602.99L353.291 604.251L351.267 602.881L349.176 603.054L347.265 603.597L345.543 602.098L340.998 603.1L338.715 604.469L337.411 607.102L338.737 609.425L343.827 610.622L344.698 613.341L344.307 615.948L342.76 611.689L339.239 611.948L337.585 610.057L335.431 609.276L332.755 611.514L330.817 611.689L334.233 607.123L334.428 603.296L332.908 601.359L331.882 599.882L330.252 597.553L329.359 594.551L327.923 592.64L327.447 590.269L325.685 590.18L323.814 591.617L321.877 592.074L320.112 593.51L321.854 594.139L322.267 596.552L320.985 594.509L319.156 595.421L316.568 597.575L314.695 596.662L312.345 598.704L309.736 599.142L311.215 602.468L314.087 601.228L316.089 602.034L319.786 601.576L310.344 604.188L309.847 606.447L312.736 607.925L318.244 608.036L312.868 609.187L308.997 611.383L307.388 613.927L307.736 610.513L308.802 607.665L308.168 605.296L304.645 601.903L302.233 604.817L300.797 606.62L299.011 604.383L297.185 604.684L294.244 604.859L293.135 606.86L294.681 608.927L297.053 609.925L295.03 611.645L289.091 612.776L289.439 614.665L291.461 617.733L293.181 619.821L302.534 619.558L290.917 621.954L290.764 624.061L292.787 626.519L289.724 624.867L279.975 623.886L282.108 625.215L281.39 628.651L280.758 626.408L279.431 624.498L278.799 627.389L279.585 629.476L279.342 631.518L281.934 632.499L286.086 633.324L284.675 635.868L287.742 634.458L290.917 632.694L288.804 634.826L290.505 635.497L292.681 636.411L286.187 637.547L285.589 637.651L288.635 641.566L291.787 642.634L293.833 646.112L291.873 644.718L290.309 642.76L286.481 642.132L287.501 644.264L282.452 642.216L282.738 640.043L281.934 637.76L281.259 635.149L280.039 633.301L277.8 632.388L276.341 630.281L276.581 628.193L273.643 626.192L271.728 627.976L270.032 630.953L269.399 633.432L272.187 633.195L274.864 636.021L276.949 637.587L278.101 640.195L277.276 642.369L277.733 644.392L279.67 646.655L282.367 647.805L283.805 649.459L286.306 650.982L289.745 654.72L289.048 657.94L288.853 655.744L287.059 653.753L284.968 653.077L280.659 648.707L277.834 647.883L276.287 645.207L275.853 642.969L275.22 639.163L274.481 637.138L270.176 635.206L266.672 637.032L261.364 639.054L263.973 637.443L264.933 635.011L261.517 634.769L259.775 636.031L257.905 637.987L256.572 638.931L255.966 639.359L255.71 639.279L254.098 638.79L253.532 636.446L251.118 634.467L249.725 632.615L247.856 631.812L245.701 632.899L242.587 633.835L240.067 635.923L236.086 638.552L238.436 640.336L240.24 643.555L244.678 643.641L246.547 645.689L241.567 644.686L238.805 646.601L238.759 649.23L238.367 651.558L249.463 650.73L252.161 649.969L253.965 648.992L255.71 648.474L256.572 648.218L259.168 647.447L261.475 647.643L256.572 648.827L255.71 649.036L254.642 649.293L252.033 652.428L251.637 654.757L255.71 654.619L256.162 654.602L256.572 654.355L260.166 652.185L268.719 650.037L271.698 649.663L273.873 649.578L273.7 651.861L275.594 655.077L272.917 652.622L269.914 652.336L266.301 652.143L257.62 655.342L256.572 656.468L255.71 657.394L255.576 657.537L255.71 658.072L256.21 660.081L255.71 660.776L254.991 661.776L254.489 658.191L252.552 658.582L252.619 661.015L255.186 663.321L255.71 663.305L256.572 663.278L264.062 663.038L257.077 666.08L256.572 665.755L256.011 665.392L255.71 665.199L254.62 664.493H252.725L249.161 660.408L244.113 658.514L243.742 661.798L242.85 663.734L242.437 661.648L240.74 658.646L242.069 656.904L235.431 657.147L236.213 659.733L236.192 661.997L235.103 660.06L231.883 656.514L228.905 657.538L226.708 659.691L226.031 662.472L224.009 658.56L216.939 658.688L215.155 659.691L214.98 661.798L214.805 664.235L223.878 664.646L221.638 665.582L226.143 665.323L228.013 667.323L223.444 666.516L219.574 667.127L217.024 668.216L214.525 669.408H216.332L218.766 671.582L221.596 671.323L228.471 668.41L231.211 669.757L233.647 670.236L234.406 672.822L230.21 671.498L226.988 671.303L224.141 672.368L223.989 674.522L223.946 676.695L222.748 674.193L219.854 673.63L218.287 675.757L218.984 679.521L221.29 683.695L224.052 692.002L221.945 693.765L222.901 691.765L222.812 689.522L220.139 684.001L218.07 681.631L217.548 679.219L215.742 675.129L213.634 675.784L209.784 677.846L208.127 678.174L206.236 679.219L204.515 680.934L203.364 683.262L204.69 685.241L207.018 686.307L204.821 685.742L203.037 684.37L202.539 686.459L204.236 687.59L206.216 690.937L207.409 693.005L216.375 696.811L211.242 695.158L208.496 694.916L205.999 695.786L205.909 693.612L203.127 690.609L201.32 696.003L199.012 698.765L199.383 696.589L201.928 691.96L202.212 689.87L202.17 687.891L199.6 686.133L197.25 687.61L193.837 687.916L194.577 691.327L196.188 693.785L193.226 690.503L192.332 688.217L189.159 687.395L186.962 686.065L185.505 687.981L185.437 691.675L190.528 694.699H188.811L186.329 698.874L186.243 695.047L184.392 693.047L182.089 691.633L180.912 688.217L179.956 686.155L178.15 683.959L175.256 685.11L174.258 687.109L175.452 688.872L175.234 691.004L178.456 691.698L181.239 694.267L183.567 698.046L181.434 697.179L180.564 699.481L178.239 701.613L175.54 700.874L173.887 704.332L176.19 705.656L177.933 704.77L182.215 704.157L185.547 704.527L187.808 703.767L191.985 704.965L201.406 707.049L194.618 707.593L198.295 709.05L200.45 708.485L202.212 709.42L204.715 709.574L206.564 711.14L212.002 710.877L220.246 712.771L221.919 709.858L226.555 709.725L230.299 711.14L227.316 711.466L224.708 710.117L221.64 711.921L218.942 714.857L215.156 714.16L212.979 712.402L206.347 713.247L207.715 715.337L209.067 716.989L206.368 715.986L205.169 713.858L202.103 712.857L199.666 717.574L200.687 715.401L201.167 713.141L200.84 710.681L194.576 711.357L190.636 712.529L194.054 709.487L191.528 707.44L188.397 706.682L186.697 705.81L182.563 705.704L180.039 710.053L178.213 711.572L173.385 713.467L171.949 715.161L176.169 714.813L173.95 715.816L173.644 718.033L170.993 715.618L169.161 717.073L168.422 719.248L167.466 721.295L168.881 723.97L177.193 724.535L179.78 724.836L178.063 725.645L180.694 726.447L182.305 728.383L180.214 727.207L174.626 727.513L180.694 730.1L175.428 730.272L173.407 729.623L174.453 732.797L178.063 735.146L181.698 734.865L183.652 737.362L185.805 736.69L188.852 735.43L190.7 734.644L193.399 735.166L195.163 738.189L192.247 735.515L188.288 737.69L186.348 738.649L184.305 738.886L178.581 737.278L175.582 735.799L173.666 736.844L170.054 737.061L167.619 739.192L170.534 739.864L169.879 741.911L169.404 739.906L167.751 741.605L167.857 743.67L169.489 745.453L173.211 743.431L186.438 742.756L189.005 744.06L182.542 743.258L176.733 744.888L178.455 747.3L177.669 749.955L175.297 744.735L173.58 744.629L172.124 746.846L169.51 747.543L167.857 747.865L167.488 751.369L169.273 750.868L167.641 752.805L171.712 752.52L173.58 753.607L174.21 756.979L170.794 755.154L168.818 754.87L168.643 756.959L170.819 757.999L173.644 758.632L173.317 760.805L176.58 759.523L177.669 761.825L180.608 763.24L182.436 762.326L185.393 759.565L189.437 759.414L192.353 758.088L193.314 755.871L193.858 758.738L196.251 758.695L199.208 758.542L200.928 759.587L202.93 759.804L206.493 757.525L207.365 760L209.931 761.763L212.936 762.697L215.048 762.764L217.593 760.653V758.305L216.633 756.109L218.506 756.131L218.2 753.67L218.808 750.911L221.353 751.65L222.593 749.543L225.314 744.736L224.748 746.693L223.423 748.805L221.4 753.127L219.616 755.328L223.117 757.566L228.012 758.717L232.362 760.959L232.035 763.568L234.603 762.676L238.98 761.698L240.346 759.651L243.895 760.633L246.657 758.828L245.046 756.911L244.218 752.979L243.087 750.541L245.417 746.735L244.698 744.583L246.742 745.041L252.423 741.147L250.375 742.692L249.287 744.651L247.481 746.604L246.895 749.412L245.506 752.478L246.156 754.542L246.265 756.696L247.634 758.369L249.705 758.5L256.014 756.828L256.571 756.704L258.1 756.368L256.685 758.088L255.709 758.406L255.011 758.633L249.856 758.828L248.114 760.543L246.393 762.523L248.964 765.199L246.721 764.851L244.592 763.003L241.392 762.284L239.845 764.221L236.234 764.285L234.299 766.154L235.453 769.852L237.173 774.615L239.217 775.289L238.932 779.006L237.062 781.445L237.586 776.027L235.495 774.18L232.558 773.985L229.362 775.833L232.821 772.873L234.232 771.026L233.429 768.397L232.083 765.199L229.448 764.048L228.773 761.698L227.12 760.871L220.635 759.414L217.94 764.175L215.983 764.502L214.134 765.959L211.784 768.481L212.302 765.915L209.107 766.375L208.975 763.916L206.889 763.067L203.689 761.652L201.341 762.047L199.534 761.525L195.706 761.504L192.723 764.154L192.638 761.568L189.939 762.48L187.959 762.739L186.766 764.808L184.088 763.742L182.172 765.004L181.5 767.066L181.042 769.136L178.712 766.807L175.581 765.784L173.016 763.763L170.792 762.786L168.533 762.849L166.615 764.611L166.029 766.676L166.509 769.373L168.859 769.853L170.533 770.07L168.77 772.265L168.294 776.504L167.988 774.504L166.88 770.502L164.943 771.157L165.703 773.658L166.183 775.785L168.837 779.332L171.345 780.225L173.061 781.074L175.865 779.355L177.064 777.095L178.848 776.92H181.589L183.507 777.66L181.547 778.53L179.847 777.875L176.543 779.723L176.066 782.052L173.738 782.832L173.367 785.053L175.105 786.269L178.458 789.334L178.696 792.226L176.847 791.292L178.067 794.249L175.913 793.599L174.778 791.033L173.975 787.792L169.623 785.487L168.362 783.791L166.598 783.292L164.185 781.027L162.269 781.506L164.164 783.053L165.6 785.835L167.666 786.833L169.297 788.727L167.232 788.051L169.646 791.119L171.472 795.077L169.365 792.575L167.338 792.423L170.211 796.47L172.169 798.729L173.864 799.036L176.456 797.838L179.044 795.599L182.35 794.074L182.546 790.03L184.875 789.857L187.964 787.16L187.05 789.879L189.616 789.946L188.92 792.533L188.75 794.491L188.205 796.987L187.901 799.774L187.811 801.838L187.858 804.23L186.875 806.752L184.157 809.711L181.068 809.296L178.438 807.317L176.456 804.472L174.889 802.339L172.999 801.663L171.257 804.926L171.494 807.95L171.82 811.037L168.774 810.709L167.882 813.93L170.189 815.539L167.95 816.299L167.992 818.342L172.232 820.691L170.426 823.499L173.954 823.478L172.19 824.781L173.69 827.304L175.892 828.65L178.131 825.409L180.242 822.564L182.197 818.518L183.11 815.497L184.482 813.56L187.462 813.19L185.312 814.627L184.373 816.974L183.089 819.54L182.329 821.498L184.025 819.821L185.112 823.062L181.722 825.584L182.023 829.041L184.113 827.953L186.701 824.866L189.205 824.913L186.225 826.671L186.743 829.759L186.051 832.629L188.965 832.567L186.66 834.806L185.006 834.673L186.484 839.392L189.553 838.632L191.444 835.739L191.575 833.195L192.488 828.196L194.162 826.148L195.884 823.257L196.644 821.082L199.627 822.259L201.581 822.106L202.216 819.583L202.236 817.476L203.673 815.191L201.824 813.82L205.346 812.474L204.106 809.797L204.348 807.602L205.173 811.276L206.673 812.928L208.394 812.538L210.264 810.669L212.264 810.146L215.31 809.122L217.032 808.342L221.009 805.907L218.009 809.735L220.839 810.342L224.383 807.122L227.341 806.013L230.825 801.167L233.175 800.361L230.409 803.817L228.888 805.907L233.349 808.036L230.281 806.906L225.386 808.036L223.427 809.798L220.555 813.561L219.033 815.799L216.684 821.606L216.747 824.956L214.81 829.11L214.53 831.089L214.092 834.874L213.964 832.806L214.201 829.849L214.636 827.565L215.227 822.259L216.615 820.128L216.9 817.563L217.703 815.303L219.577 811.714L216.094 810.299L213.986 811.191L212.592 813.298L209.175 814.866L207.808 816.608L205.912 818.586L203.911 819.062L203.039 821.869L201.518 824.825L199.105 825.87L199.3 827.977L201.974 831.85L205.478 829.459L206.325 831.634L199.475 833.327L196.253 835.565L194.817 840.547L194.254 842.485L189.074 843.028L187.378 843.894L185.287 848.634L185.636 850.919L188.77 855.051L192.272 853.115L193.513 850.507L192.489 853.702L193.381 856.182L195.991 855.986L199.147 853.356L203.63 850.898L205.283 851.202L200.541 853.986L195.948 857.357L194.056 857.901L191.248 855.702L190.139 857.705L187.289 859.289L186.771 862.747L187.878 862.922L185.81 864.204L183.939 866.252L183.481 861.88L178.892 861.116L177.651 863.575L177.239 865.834L177.476 868.011L176.151 870.97L172.581 872.383L174.562 869.229L175.823 867.186L175.671 864.795L176.436 862.794L176.89 859.88L176.52 856.683L174.541 858.64L173.04 861.226L173.843 863.661L172.803 865.707L171.821 862.357L170.126 863.248L168.842 865.771L166.773 868.51L165.733 870.753L164.687 872.687L164.665 875.125L165.859 877.924L169.08 882.757L170.016 878.776L170.21 880.801L169.908 883.015L171.604 885.841L171.667 882.86L172.976 879.733L173.082 882.214L172.301 884.91L173.256 887.891L174.952 888.761L176.631 887.322L177.761 885.057L179.129 881.146L179.545 883.67L179.74 885.754L179.283 888.02L181.262 886.909L183.548 885.298L185.201 884.798L187.962 884.428L187.856 882.042L185.592 878.82L183.875 878.69L180.59 879.965L182.481 878.621L183.068 875.779L184.398 877.579L186.225 876.494L186.573 874.296L185.767 872.08L187.44 871.599L190.007 875.598L194.357 876.192L197.276 875.035L198.952 876.209L189.314 877.794L189.051 880L191.184 883.971L192.403 881.258L193.228 879.319L194.685 881.034L196.838 879.207L199.253 876.864L201.497 872.755L202.584 870.511L202.997 868.185L204.369 865.905L204.062 868.555L203.234 870.971L203.387 872.903L205.759 871.251L213.178 871.188L209.001 871.599L201.301 875.555L199.559 878.578L197.864 880.362L195.99 881.301L193.813 883.756L193.423 886.297L195.034 884.626L196.141 887.081L199.015 887.124L200.102 885.057L201.279 887.822L195.82 887.977L198.143 890.82L199.908 890.26L204.998 887.064L209.35 887.753L206.063 887.477L204.41 887.848L201.692 890.346L198.734 891.277L196.971 893.103L194.685 894.843L193.338 896.98L193.554 898.952L196.015 899.435L192.837 900.408L188.031 901.692L187.312 904.285L189.943 907.92L191.964 907.395L192.642 909.695L190.878 910.221L190.704 912.486L192.356 915.829L197.319 909.592L202.367 908.679L204.368 907.524L214.312 906.637L198.491 910.651L195.143 912.814L193.206 916.096L195.229 919.568L199.168 920.739L194.251 919.964L189.636 915.088L188.4 912.814L184.942 911.323L184.05 913.477L181.678 913.572L180.306 916.354L180.369 914.158L181.155 910.134L175.474 905.5L174.888 909.247L176.673 909.876L176.631 911.771V914.158L174.735 912.719L175.301 914.812L174.322 916.854L173.668 919.223L173.388 921.247L172.452 923.16L170.668 925.288L171.909 927.338L172.538 929.466L172.907 932.076L174.365 934.101L175.474 937.65L176.737 939.821L179.631 942.207L180.76 944.473L188.031 946.101L188.072 948.324L188.507 950.452L189.767 952.209L192.033 953.889L193.966 955.414L196.838 956.258L198.513 957.43L201.516 960.798L206.913 961.453L209.174 962.935L211.349 961.548L211.544 957.74L212.221 959.54L212.068 961.608L214.136 964.477L216.376 962.504L219.724 961.453L216.682 963.064L215.093 964.718L213.197 965.648L212.285 967.656H210.219L209.523 969.723L207.933 972.351L210.632 975.219L215.616 976.158L214.354 972.635L213.874 970.61L214.876 968.155L215.943 972.109L218.029 971.369L217.792 967.802L219.445 970.094L221.425 971.334L223.099 972.109L220.141 972.092L217.965 973.962L221.466 973.479L221.948 975.934L224.076 974.375L223.184 977.399L227.212 975.263L230.038 974.806L228.385 976.003L226.732 977.028L224.645 978.459L225.406 981L227.407 980.268L227.756 978.174L231.778 977.976L234.605 978.502L239.13 979.958L246.2 978.26L247.463 979.94L249.401 976.848L252.796 976.761L256.57 976.064L260.301 975.375L260.278 973.178L262.3 971.842L263.848 967.742L265.021 970.697L263.324 972.868L263.911 974.065L267.02 974.022L270.263 972.368L271.615 969.697L271.742 967.69L273.595 966.872L276.594 965.416L277.402 963.322L279.098 963.917L280.988 962.633L282.468 960.583L284.796 959.239L286.198 957.826L287.843 956.172L288.649 953.588L289.452 951.175L292.236 949.918L297.526 942.957L296.371 940.329L299.2 940.829L302.026 939.563L304.766 937.047L305.311 934.764L303.113 934.609L306.425 934.566L307.487 932.481L303.336 931.327L304.869 933.274L302.593 930.827L308.749 931.654L310.839 931.327L312.492 929.457L313.843 926.847L316.123 924.788L314.429 923.996L312.645 924.28L309.601 924.719L312.123 922.695L313.754 922.393L313.384 920.412L316.932 920.067L316.907 918.138L321.412 917.155L326.11 914.33L323.608 910.591L322.435 907.938L319.501 904.767L322.804 904.026L323.174 906.042L324.786 908.834L324.869 906.878L326.132 909.049L328.223 909.652L329.591 911.435L330.503 913.959L330.529 916.303L335.51 915.958L337.315 913.675L338.862 911.745L341.949 911.306L340.231 912.874L342.428 912.848L344.496 910.393L343.779 907.765L344.429 905.241L345.455 908.601L345.843 909.867L345.907 905.241L346.778 907.309L347.322 903.458L347.519 900.675L348.13 898.22L349.066 896.109L351.046 894.697L352.958 895.885L353.569 893.37L352.63 889.76L352.086 887.753L353.264 884.428L352.503 882.429L349.281 881.447L345.648 876.606L345.691 874.232L347.957 876.063L349.673 875.865L350.111 872.317L349.978 868.706L348.868 866.294L345.216 864.335L344.561 861.704L345.455 861.905L346.604 862.164L349.261 863.925L350.608 866.403L350.848 868.428L351.37 871.516L351.129 874.557L351.652 877.036L353.348 877.303L355.439 875.822L357.201 873.384L357.789 869.689L355.244 866.102L353.892 863.753L353.284 860.337L353.243 858.184L352.83 854.51L355.613 851.508L358.004 850.637L360.355 849.55L362.379 851.598L362.88 853.813L362.51 856.315L361.855 858.966L361.506 861.641L360.789 858.924L360.139 855.444L359.226 853.401L357.355 856.399L356.047 860.991L357.898 864.534L358.027 866.904L358.813 870.187L359.115 873.21L359.29 876.433L360.725 879.603L359.268 882.171L358.487 879.759L357.398 883.601L359.575 885.953L359.729 888.063L360.273 891.104L364.033 891.259L362.796 894.412L363.641 896.911L364.143 899.874L365.731 901.632L368.405 900.417L370.105 902.588L370.236 900.219L372.386 901.873L373.3 904.044L375.084 903.346L377.412 902.441L378.479 900.288L378.262 903.484L379.958 905.155L383.464 904.767L385.528 905.741L386.42 907.852L386.461 908.136L386.894 908.317L389.223 914.373L393.337 921.73L397.536 919.163L398.972 912.047L400.19 903.742L402.234 894.55L401.082 888.322L397.382 870.147L404.431 863.56L403.998 857.469L405.651 850.402L412.764 850.444L417.79 846.072L424.253 837.311L425.295 829.135L424.38 820.242L427.623 813.586L426.993 806.931L422.749 797.145L417.832 787.819L416.312 780.294L414.938 772.423L424.687 769.616L429.561 768.702L430.432 762.375L433.781 754.984L434.192 746.894L422.664 733.673L418.119 732.759L413.768 728.105L409.263 723.106L413.201 687.464L411.939 680.439L405.282 659.824L406.781 652.824L404.674 639.666L408.281 634.123L400.297 614.333L406.998 599.654L405.218 592.634L408.936 588.412L414.439 577.608L422.402 564.646L429.213 559.668L436.849 557.102L460.194 560.861L464.892 547.619L456.888 528.158L447.487 522.22L461.671 493.018L466.002 483.602L467.222 474.297L470.158 466.486L469.419 459.551L469.915 441.979L471.441 433.086L467.021 413.69L481.51 410.755L492.609 396.837L490.128 386.551L496.286 378.506L506.794 354.26L513.971 345.366L513.538 335.1L503.53 320.512L504.92 314.42L512.191 310.293L514.932 303.79L518.279 285.111L530.287 270.301L548.409 274.498L552.195 261.298L548.916 246.418L548.78 245.796L548.777 245.558L548.695 238.14L556.42 235.378L562.683 239.248L571.275 237.421L583.548 241.491L597.841 243.665L602.625 234.987L594.62 231.705L600.3 222.595L601.691 212.155L600.079 204.999L592.792 198.216L605.672 195.26L607.889 190.152L615.873 193.324L614.158 183.733L619.729 175.076H628.014L640.983 191.107L645.179 194.3L649.447 200.501L654.189 208.523L666.456 210.197L670.527 208.654L675.422 212.308L682.208 206.459L686.104 204.999L688.344 200.239L691.453 195.324L697.135 196.976L703.245 200.501L707.294 201.024L712.253 201.588L717.606 205.542L723.045 201.695V193.758L726.828 183.495L732.203 182.43L734.051 176.972L733.77 171.097L731.877 165.144L729.482 158.335L729.028 151.68L728.506 144.285L728.592 138.264L729.422 131.957L727.641 127.102L727.327 126.241L727.31 126.199L731.424 122.61L733.119 116.218L735.099 111.347L739.755 104.539L746.41 103.69L754.05 101.298L755.746 95.5355L762.751 89.6869L764.226 90.7317L774.793 98.3002L780.58 99.4729L802.01 106.604L805.578 111.976L811.54 119.064L810.669 125.678L810.439 126.243L810.089 127.105L805.315 138.831L806.708 146.399L811.45 150.838L813.564 146.511L813.781 138.703L815.432 132.592L816.959 128.571L820.94 127.156L820.974 127.106L821.556 126.244L823.528 123.33L828.661 119.065L830.402 113.455L830.424 106.583L830.514 102.038L837.516 106.017L843.583 105.215L846 99.0617L841.952 91.187L839.474 86.6424L836.624 87.0598L835.013 88.7745L834.121 86.5584L828.336 88.2309L829.008 90.1257L830.142 92.2994L830.53 94.5173L830.926 97.3626L828.771 98.0372L829.836 95.6463L829.14 93.3615L828.052 90.385L827.182 88.3844L825.659 86.3417L823.31 87.2334L821.896 85.1654L820.131 85.7088L820.94 87.8627L822.745 91.1657L823.331 93.2557L822.175 94.9719L824.704 98.3859L822.852 97.516L821.087 95.5825L818.913 98.0376L819.916 96.1058L818.632 94.2749L817.196 97.0193L815.152 97.082L812.038 98.6234L809.234 103.69L809.888 100.624L810.257 98.4735L810.538 96.4274L811.888 93.7772L811.995 91.144L810.474 88.7731L808.931 86.5991L806.665 88.1656L804.423 88.2519L803.861 89.9715L802.553 91.6876L803.708 88.3628L805.229 86.0779L807.056 83.0996L798.095 82.3138L793.175 83.7291L792.483 80.9681L789.177 82.055L787.192 81.3163L784.583 80.2073L782.255 80.9257L780.537 78.836L781.298 76.206L778.689 75.8795L793.047 76.2699L814.888 71.7892L818.87 67.8569L817.934 64.9646L818.369 63.2231L820.544 61.0489L820.569 58.6579L828.944 54.9158L830.53 51.1099L829.119 49.2843L829.467 47.2199L826.161 44.2855L824.287 42.327L821.985 45.6535L819.651 42.9141L814.587 39.1081L811.322 38.7178L805.578 43.1734L802.404 42.6971L804.598 41.0228L806.839 39.4781L807.623 36.5857L804.86 35.4349L802.468 34.5433L803.012 32.5207L799.206 31.2133L796.982 32.6687L795.894 35.9311L795.525 38.2802L792.699 38.6959L793.374 34.9116L790.329 31.846L787.106 35.5411L784.171 37.6308L783.516 40.434L782.693 38.1744L782.365 35.6942L784.213 34.2152L781.299 34.5216L782.15 30.6955L779.387 30.278L777.254 27.5807L772.989 26.7581L766.831 29.9515L766.028 32.6488L765.765 35.6506L764.612 38.8023L764.549 40.8719L767.527 43.5002L765.589 43.5891L765.135 45.3053L765.483 47.5012L765.505 53.3752L767.897 55.0695L769.745 55.2002L768.942 56.8944L768.812 58.9371L766.223 56.8944L765.31 58.8529L765.201 61.5283L764.571 64.1566L765.158 66.3745L765.613 68.8328L765.965 72.0532L767.027 74.5283L767.529 76.5541L768.616 78.4014L769.246 80.5552L769.229 83.3163L767.838 85.6773L768.315 82.9883L768.293 80.8144L767.729 78.9248L765.943 74.7282L765.183 72.2684L764.835 70.1163L764.094 67.8566L763.267 64.7691L763.679 62.8106L764.376 57.8972L764.465 55.6323L762.744 56.657L761.719 59.3324L760.501 60.7896L759.263 62.3089L759.501 59.9179L761.35 57.527L758.676 58.9842L756.412 61.264L756.806 59.2009L755.804 61.1997L756.001 64.373L754.696 61.7448L754.369 59.7441L756.545 57.1563L757.415 54.8292L759.221 52.0227L760.155 49.7846L760.59 46.8704L758.547 42.9332L757.089 46.1099L750.281 52.5662L747.562 53.1567L749.78 51.0449L750.889 48.5009L751.934 46.8484L754.739 44.9118L754.063 42.0412L751.735 41.8687L748.692 42.237L747.209 44.0423L747.342 40.5846L751.825 39.2603L754.544 39.106L756.456 38.4988L757.655 36.2558L755.542 35.4109L757.892 33.7536L757.633 30.8882L759.329 30.6242L760.047 28.4703L760.089 26.4276L758.003 22.6232L754.628 23.2558L751.277 24.7129L751.888 21.4721L750.665 19ZM695.543 28.5234L692.867 28.9357L690.104 29.0455L693.78 32.3922L695.28 34.9799L692.908 33.5008L690.887 33.1105L689.123 34.9796L686.604 34.7418L686.081 38.2415L687.254 40.0051L689.755 37.8296L692.365 38.1359L689.714 41.1814L692.761 43.5306L694.762 43.6352L698.025 42.156L696.937 40.0462L698.718 40.5259L700.982 40.0934L704.595 38.2408L706.485 35.8078L706.812 33.676L704.875 33.6978L703.963 35.7439L701.506 37.0698L701.027 34.6352L701.116 32.5254L701.071 29.0004L698.83 30.2187L696.461 31.5696L695.543 28.5234ZM674.812 36.5881L673.745 36.9583L672.177 38.7637L671.026 40.7002L673.376 41.7652L674.048 39.2852L674.812 36.5881ZM656.188 45.2873L655.032 47.8314L657.972 48.1359L658.146 50.9865L660.691 52.4219L662.561 50.549L663.78 48.8548L659.799 49.203L660.037 46.9399L661.953 46.8537L659.972 46.3743L656.188 45.2873ZM645.093 59.162L644.83 61.7061L645.679 63.685L644.786 65.4485L641.979 63.2056L639.782 63.7711L639.978 66.9697L642.481 68.2517L640.153 70.1196L639.915 72.3152L637.676 73.2542L637.521 71.0583L634.344 69.7089L633.477 72.014L635.453 75.2075L634.454 79.0809L633.214 76.4696L631.126 77.6256L631.497 75.4077L629.21 72.8856L628.361 75.2545L626.381 74.886L626.818 78.9074L624.251 77.43L621.964 76.9067L622.748 79.1663L617.872 78.6901L615.873 79.8831L618.876 80.3424L618.095 82.0169L625.207 80.6439L623.444 83.3629L623.142 85.885L622.62 88.281L622.531 90.3017L624.839 89.4101L624.859 86.6236L626.994 88.3447L628.689 87.2138L629.994 88.1055L629.952 85.4939L632.148 87.1042L632.692 85.4083L633.084 82.6437L636.393 82.9078L638.718 83.3201L638.373 80.6011L640.201 81.1244L641.178 78.2943L643.243 77.2544L644.007 74.579L643.179 72.6626L645.855 71.9037L646.031 69.8393L646.227 67.5746L648.095 65.4697L648.533 63.6643L647.574 61.1624L645.093 59.162ZM654.883 65.3591L654.145 68.2514L655.687 70.9268L655.922 73.1007L655.621 75.751L657.84 78.2328L659.318 80.3648L662.19 80.5817L664.646 76.1481L666.388 74.2972L666.498 72.0577L664.429 69.5993L661.666 66.9274L659.099 67.2756L657.839 65.6232L654.883 65.3591ZM651.14 74.8642L652.534 78.4062L650.902 79.3836L651.271 81.4517L648.658 80.6237L649.202 82.7556L649.27 85.1939L648.268 82.798L646.504 81.0397L647.095 82.798L646.267 84.4504L642.744 85.5374L641.372 88.3455L642.59 90.9097L640.764 91.7813L642.85 94.9531L645.506 96.0197L646.658 90.6034L647.117 92.5836L646.831 96.652L647.898 99.6285L650.533 99.1541L653.859 95.9758L651.573 95.4759L653.97 93.4954L657.318 88.4542L657.926 86.7344L658.101 84.4273L657.318 82.4268L657.428 82.1915L656.251 81.8012L655.078 79.8647L655.01 77.3205L653.62 75.6681L651.14 74.8642ZM812.698 85.3889L811.784 87.3424L813.287 90.7145L812.155 94.5845L814.307 96.4099L815.807 94.1283L817.529 92.2354L819.202 91.0407L817.856 89.8006L816.81 87.886L815.876 85.9324L812.698 85.3889ZM638.128 93.6287L638.107 95.7387L637.976 97.7392L636.824 94.5405L634.823 95.3013L631.929 95.5235L632.016 97.7191L629.971 98.5217L632.3 102.001L639.524 103.088L645.986 102.417L645.679 100.244L643.309 99.0032L640.675 97.4569L639.524 95.3502L638.128 93.6287ZM614.545 99.0651L613.695 99.718L613.936 102.173L614.326 105.678L616.37 105.177L616.566 102.563L616.091 100.216L614.545 99.0651ZM593.793 112.962L589.22 113.197L586.744 116.438L585.894 118.244L585.936 121.615L586.547 124.159L589.42 125.637L590.482 121.874L591.528 124.831L593.313 124.333L595.726 124.703L595.794 122.243L595.03 120.111L595.008 118.11L595.313 115.156L593.793 112.962ZM565.706 113.679L565.465 115.763L566.773 117.722L569.731 122.113L570.882 125.94L571.153 126.205L572.034 127.068L572.951 127.966L576.758 127.423L576.913 127.068L577.287 126.205L578.106 124.309L580.371 123.201L575.867 121.464L574.647 120.483L574.362 118.307L572.386 119.374L570.601 117.785L568.511 116.111L567.641 113.806L565.706 113.679ZM555.176 117.68L554.653 120.113L554.695 123.68L552.366 123.939L554.927 126.205L555.218 126.464L555.654 126.205L557.98 124.832L558.132 122.071L557.675 120.266L557.044 118.028L555.176 117.68ZM596.706 118.418L595.966 122.161L597.746 123.571L598.401 122.726L598.532 120.725L596.706 118.418ZM563.025 122.726L561.134 123.075L560.933 125.592L562.59 126.205L562.871 126.311L564.719 126.77L565.875 126.636L565.561 126.205L563.025 122.726ZM602.123 123.418L601.077 124.268L600.55 126.206L602.123 123.418ZM598.727 125.617L597.685 126.206L596.421 126.921L596.417 127.068L596.358 129.509L597.857 132.009L600.074 132.401L601.664 129.075L603.707 127.068L604.145 126.636L602.826 127.068L600.883 127.704L600.226 127.068L599.335 126.205L598.727 125.617ZM557.914 127.377L556.04 129.445L555.41 131.075L555.565 133.444L553.346 133.182L550.711 133.53L549.883 135.355L551.213 137.033L551.69 138.902L548.844 138.575L549.123 141.357L551.124 141.901L556.631 145.707L558.111 148.145L563.94 146.535L565.507 144.032L566.528 141.014L567.266 138.967L567.314 136.728L569.812 134.728L569.837 131.401L568.64 131.618L568.008 133.355L567.573 131.292L566.703 129.073L564.701 130.072L563.854 132.51L561.917 132.488L560.676 129.291L557.914 127.377ZM551.059 128.378L549.101 130.336L547.664 128.484L545.23 132.553L545.664 133.946L546.012 135.879L548.102 134.227L551.344 131.967L551.059 128.378ZM572.489 131.898L571.616 133.815L568.944 137.337L567.334 140.402L566.093 143.035L571.791 142.47L573.338 139.683L573.792 137.293L574.558 135.467L574.034 132.38L573.444 131.921L572.489 131.898ZM593.441 135.793L592.375 139.488L592.702 141.753L594.941 143.316L597.073 141.336L596.509 138.359L596.14 136.465L593.441 135.793ZM547.336 143.6L547.601 146.298L550.536 149.511V152.557L550.473 154.778L551.319 156.928L548.647 155.516L547.685 152.668L547.513 149.274L545.86 149.558L544.818 151.275L544.38 153.471L543.209 151.518L540.985 150.557L540.531 153.95L541.899 155.887L546.968 155.865L544.185 156.362L541.16 157.015L537.68 156.78L540.245 161.716L542.903 161.278L541.075 163.674L539.03 162.54L536.46 162.323L534.438 162.998L533.613 165.174L534.918 167.021L538.16 168.846L540.552 169.237L545.796 166.651L547.622 166.455L551.757 165.432L553.759 163.39L553.542 161.171L552.016 158.385L553.147 156.58L554.91 155.693L555.913 153.149L557.587 149.19L556.304 147.469L555.649 146.536L553.019 145.511L551.344 143.644L549.56 144.449L547.336 143.6ZM520.406 166.76L520.776 169.478L523.495 171.717L524.367 173.955L524.863 175.717L522.887 174.107L520.687 172.455L517.86 171.346L518.859 174.476L516.382 175.607L514.291 174.128L516.076 177.304L518.23 178.13L522.538 178.435L517.38 180.002L519.798 181.613L517.38 181.416L514.01 181.307L511.464 181.697L509.264 181.935L508.439 184.066L510.115 184.741L512.158 183.981L513.963 186.087L509.025 187.566L511.487 188.678L512.527 190.632L514.38 191.613L510.399 193.07L511.465 195.852L513.442 196.638L516.36 194.918L513.79 198.027L513.419 200.028L509.918 200.767L508.091 201.463L507.221 203.706L515.727 203.094L515.337 205.532L516.815 208.076L517.707 202.963L518.684 201.289L521.905 197.615L522.734 195.657L525.3 193.963L524.668 196.264L527.735 196.982L529.979 195.397L532.85 195.308L536.199 194.158L535.134 191.029L535.697 188.459L534.046 185.221L534.678 183.048L537.483 182.261L537.635 180.088L537.002 177.021L536.681 176.151L535.524 176.088L535.243 178.284L533.565 177.197L534.108 173.37L533.523 170.804L531.716 172.499L531.284 175.781L530.522 173.781L530.824 171.39L530.628 167.452L528.78 167.52L527.929 170.021L526.429 167.083L525.779 170.26L526.472 172.37L522.733 168.217L520.406 166.76ZM490.143 191.223L485.791 191.873L484.879 193.615L482.942 196.766L482.027 200.941L478.875 202.768L476.805 205.227L475.807 208.901L474.608 211.835L474.085 214.336L474.153 216.49L474.175 218.774L474.675 220.775L476.372 219.842L476.958 218.532L477.613 215.882L477.285 213.207L479.132 213.293L482.244 211.73L484.53 209.575L484.836 207.575L486.531 204.42L487.813 202.398L489.403 196.833L489.968 194.158L490.143 191.223ZM526.67 201.4L524.319 202.161L522.862 203.813L522.254 205.88L522.296 208.076L524.646 206.879L526.474 204.51L526.868 202.139L526.67 201.4ZM496.127 211.228L495.193 213.185L497.521 215.38L499.043 217.445L501.217 218.358L503.526 218.035L503.68 215.664L503.415 212.858L502.894 212.468L501.784 212.989L499.044 212.532L496.127 211.228ZM466.91 213.164L463.342 214.923L463.543 215.909L463.842 217.381L465.168 219.493L465.474 221.842L468.104 225.906L466.082 224.144L464.713 225.994L463.278 224.144L461.452 224.448L462.84 226.296V228.624L461.995 230.345L461.228 228.297L459.143 228.513L457.184 230.472L456.227 227.188L454.074 227.625L454.033 230.386L454.879 232.54L452.925 230.255L452.577 227.949L450.009 231.432L452.095 232.235L449.92 234.321L449.006 237.518L449.418 238.105L450.137 240.889L452.139 241.65L455.273 240.13L456.187 236.737L456.425 234.366L457.708 236.695L459.645 233.886L459.905 235.976L462.274 235.801L463.278 233.407L465.823 232.17L464.713 229.949L468.279 230.172L468.326 232.279L468.348 234.39L466.152 235.932L464.192 236.67L461.842 238.258L460.189 240.477L467.019 242.587L473.634 236.913L474.633 231.409L472.393 230.083L471.304 227.455L473.439 224.277L470.152 225.234L470.805 223.17L471.067 219.475L469.152 221.386L469.631 219.127L467.086 215.949L466.91 213.164ZM485.641 214.034L483.032 215.185L480.398 214.859L478.723 218.88L477.831 221.34L478.31 223.599L475.94 225.82L475.982 228.666L477.309 230.366L480.855 230.079L483.011 232.798L480.354 230.862L476.068 231.43L476.157 234.693L477.265 236.43L479.55 237.669L476.458 239.016L476.765 242.172L473.369 242.104L471.129 243.781L470.545 245.522L470.325 246.173L471.899 246.384L472.76 246.499L474.609 248.258L472.217 249.391L474.609 249.913L471.936 251.587L469.628 255.282L468.498 259.087L467.104 260.957L467.235 263.089L467.21 265.156L469.342 263.743L470.388 261.11L472.39 259.068L472.085 256.955L473.784 256.328L475.807 253.889L479.593 249.888L479.438 252.457L476.978 254.781L475.959 257.435L480.484 258.264L483.245 260.633L484.703 257.568L484.095 255.651L485.422 253.455L487.638 253.847L486.552 252.151L488.489 249.497L488.14 247.322L488.923 249.322L488.991 252.215L489.292 254.216L490.97 254.433L492.033 250.933L493.317 248.346L493.547 246.382L493.579 246.097L493.647 245.522L493.73 244.8L497.121 242.277L500.235 241.146L502.128 241.125L504.171 241.167L503.823 239.233V237.144L504.715 235.34L504.937 232.905L505.089 230.383L503.74 229.511L503.456 227.401L503.763 225.295L503.35 223.074L501.195 223.272L500.52 220.945L497.214 219.811L495.471 217.684L495.931 220.181L492.187 222.64L492.104 225.053L494.453 226.926L495.583 229.316L492.842 229.206L491.686 232.425L492.973 235.08L491.253 233.992L488.925 235.644L487.166 237.123L486.246 238.818L486.533 242.036L484.791 244.539L485.554 242.254L485.359 240.211L485.01 237.408L486.791 236.168L487.857 234.446L489.404 230.098L489.663 227.903L488.623 226.056L487.36 228.098L485.117 230.035L486.315 226.858L486.469 224.424L487.055 220.772L486.575 218.423L486.316 216.159L485.641 214.034ZM519.948 214.034L519.713 216.01L521.387 217.535L518.909 216.601L517.627 214.684L518.714 218.01L519.628 221.472L521.931 222.709L523.805 219.619L525.87 217.25L523.584 214.469L519.948 214.034ZM462.407 218.796L459.841 219.186L459.577 221.382L462.666 222.296L463.496 220.405L462.407 218.796ZM515.512 219.666L512.947 223.403L511.421 225.209L511.163 227.536L518.211 225.579L516.97 221.948L516.405 221.62L515.512 219.666ZM501.937 243.519L497.259 243.91L496.222 245.523L496.086 245.735L495.9 246.385L495.473 247.889L495.193 250.348L495.298 251.979L495.713 254.111L498.301 251.762L502.633 251.088L501.676 248.803L503.414 247.588L502.973 246.385L502.695 245.63L502.658 245.525L501.937 243.519ZM467.756 251.545L464.366 252.587L463.343 256.218L461.015 258.589L461.801 256.064L461.452 254.043L458.818 253.939L458.886 256.33L454.444 255.438L455.596 257.089L450.485 258.024L453.315 260.741L452.011 264.114L450.073 261.655L448.941 264.916L450.4 267.07L447.332 268.791L446.894 272.375L449.614 272.271L451.986 270.423L454.361 269.964L457.275 267.856L457.665 264.485L458.838 261.788L459.8 259.808L460.143 262.701L459.82 265.028L465.128 260.135L466.586 257.44L470.196 252.065L467.756 251.545ZM436.756 264.72L433.798 266.615L432.669 264.937L428.339 268.769L431.253 269.788L428.577 271.376L427.71 273.572L427.837 275.963L429.929 273.661L428.297 277.942L427.49 280.249L429.078 282.269L429.887 280.115L429.602 278.009L431.819 279.028L434.387 279.418L433.996 277.439L437.085 277.244L436.909 274.747L438.456 272.178L442.243 271.829L444.699 267.853L443.417 266.069L441.72 266.174L439.851 267.742L436.756 264.72ZM423.835 274.528L422.616 276.443L423.771 278.117L424.141 280.923L422.683 279.271L420.18 281.399L419.895 283.748L421.638 285.532L424.077 283.247L426.316 279.467L426.77 276.464L423.835 274.528ZM417.419 278.421L416.786 278.856L416.7 281.183L413.869 286.555L413.326 288.534L412.956 290.772L412.239 292.862L412.042 295.512L410.78 298.361L413.088 296.815L415.892 294.555L416.894 292.836L416.545 290.62L415.151 287.859L416.938 289.796L418.678 289.707L419.048 286.466L418.505 283.641L418.96 280.835L417.419 278.421ZM492.062 279.508L483.642 279.725L481.683 281.271L485.035 282.401L487.211 280.357L489.429 281.488L492.084 281.9L493.151 280.115L492.062 279.508ZM474.807 280.159L473.091 283.224L475.895 284.401L475.917 282.422L474.807 280.159ZM470.545 283.858L468.195 284.64L467.911 286.75L469.675 288.207L472.24 288.229L475.504 287.706L476.745 285.837L475.767 286.25L473.176 285.51L470.545 283.858ZM454.704 322.414L452.117 325.412L454.794 325.894L455.771 323.413L454.704 322.414ZM453.335 341.616L451.899 342.396L450.812 345.57L447.809 344.092L446.984 346.726L448.135 348.615L450.29 350.831L450.944 353.18L452.228 349.791L451.487 347.422L452.638 345.157L453.335 341.616ZM419.092 392.411L418.59 394.412L416.003 393.435L416.7 396.021L416.763 398.651L419.048 397.325L419.55 394.28L419.092 392.411ZM416.742 404.108L414.456 405.285L414.414 408.373L416.59 409.48L417.745 407.808L418.026 405.196L417.81 404.588L416.742 404.108ZM409.671 409.892L405.473 412.896L407.56 412.611L408.193 415.028L404.777 417.699L404.321 421.007L401.973 423.964L408.715 420.57L409.847 419.461L411.695 418.396L408.911 415.657L410.391 412.135L409.671 409.892ZM418.18 422.548L416.463 422.766L414.805 423.616L413.611 424.744L412.523 425.943L412.197 423.593L407.691 425.463L406.451 428.746L404.82 431.401L407.585 431.881L406.276 433.812L408.04 433.163L411.631 428.682L414.72 426.249L418.179 424.376L418.18 422.548ZM393.203 446.385L389.136 446.711L388.048 449.012L387.373 451.974L389.961 452.17L392.311 453.34L393.53 450.86L393.075 448.537L394.4 446.797L393.203 446.385ZM403.187 455.124L401.536 456.798L401.361 458.908L400.49 461.605H402.295L401.013 464.91L400.014 466.605L400.49 469.887L397.901 471.999L397.99 476.828L396.835 479.35L400.641 477.35L401.687 475.672L401.535 473.587L404.929 471.345L408.018 468.521L408.059 464.673L407.822 462.43L406.255 459.083L404.406 457.755L403.187 455.124ZM401.45 480.089L398.684 481.197L398.187 483.373L398.384 485.547L396.99 488.699L399.578 490.636L402.471 489.702L404.668 486.72L402.887 486.175L402.148 485.873L403.431 483.003L401.45 480.089ZM388.417 486.567L387.373 487.483L383.041 487.372L381.522 490.719L384.521 490.941L386.328 489.568L387.981 488.264L388.417 486.567ZM369.096 497.507L364.878 498.287L362.157 500.377L359.548 500.679L358.307 503.249L358.239 505.836L360.589 504.506L361.306 503.899L363.007 501.724L364.962 500.965L369.096 497.507ZM370.992 499.592L360.986 505.223L364.27 504.031L366.203 502.356L368.469 502.331L368.748 502.116L367.945 504.833L370.058 506.444L372.576 504.532L373.797 502.749L370.992 499.592ZM375.818 517.336L375.083 517.437L371.884 517.88L371.446 519.928L374.362 521.405L375.083 521.254L375.945 521.074L376.648 520.925L376.883 519.337L375.942 517.574L375.818 517.336ZM368.315 519.49L367.465 522.076L368.923 523.882L372.165 523.316L370.685 525.036L371.926 529.45L373.949 528.864L375.083 529.418L375.944 529.838L378.391 531.037L379.325 527.057L375.944 527.099H375.887L375.082 525.822L374.513 523.506L370.621 520.878L368.315 519.49ZM378.497 521.316L376.821 524.751L379.541 526.864L380.454 523.686L378.497 521.316ZM332.656 561.613L331.591 564.397L333.897 564.808L333.96 563.092L332.656 561.613ZM298.85 577.792L295.063 579.924L289.862 584.009L286.199 584.717L284.012 585.139L282.12 586.252L284.86 587.272L286.557 586.511L290.037 585.967L287.84 587.339L290.648 586.97L296.848 586.358L299.479 583.206L299.067 579.902L298.85 577.792ZM306.333 588.511L305.635 590.512L308.942 590.665L309.834 589.362L308.682 589.187L306.333 588.511ZM303.745 588.685L300.698 589.339L299.979 591.424L298.175 589.729L292.909 591.708L290.538 592.185L294.757 593.927L292.756 594.449L287.015 594.924L286.199 595.637L283.23 598.234L281.9 601.447L285.384 603.797L288.103 604.061L291.192 602.167L293.996 601.581L295.783 600.536L300.197 600.408L308.053 597.298L310.25 595.32L309.073 594.904L307.288 592.207L305.245 592.818L303.745 588.685ZM273.307 600.798L270.7 603.189L267.954 603.691L266.041 604.841L266.237 606.842L271.761 609.059L270.198 609.756L272.024 610.974L275.593 610.863L278.725 606.669L276.984 604.145L276.307 601.473L273.307 600.798ZM286.883 614.279L286.198 615.943L285.621 617.344L283.033 615.867L281.249 616.976L283.488 621.672L285.949 622.803L290.516 621.716L290.014 618.869L288.013 616.87L286.883 614.279ZM276.265 617.107L274.132 617.672L272.284 619.847L270.588 620.649L271.717 623.673L278.483 622.871L277.985 620.502L276.85 617.824L276.265 617.107ZM278.614 618.152L278.593 621.652L282.268 622.28L282.554 621.304L281.402 619.958L278.614 618.152ZM259.188 625.13L259.774 627.805L258.316 629.695V631.807L257.164 629.937L256.571 629.736L255.709 629.443L253.902 628.83L253.791 631.132L254.968 635.502L255.709 635.412L256.303 635.34L256.571 635.308L259.278 634.98L261.405 633.807L261.475 630.372L260.797 629.48L261.146 626.871L259.188 625.13ZM268.76 626.608L265.26 627.763L263.867 626.76L262.688 629.067L263.778 630.893L267.215 631.263L269.109 629.198L268.76 626.608ZM233.015 642.114L233.338 644.595L235.276 647.635L235.736 645.703L237.801 644.547L237.32 642.395L235.212 643.092L234.32 643.308L233.015 642.114ZM234.649 649.984L231.078 651.419L228.967 653.052L228.381 654.988L231.078 654.66L236.475 653.377L236.279 650.987L234.649 649.984ZM206.648 670.056L208.695 672.622L211.087 673.166L216.11 672.906L214.393 671.429L212.936 670.145L206.648 670.056ZM204.017 670.557L202.121 670.753L200.426 672.078L199.185 674.865L199.84 677.187L199.752 680.169L199.165 682.233L200.992 682.428L206.668 677.187L206.431 675.429L205.344 672.839L204.017 670.557ZM190.853 673.973L189.83 676.211L191.661 676.295L192.226 676.016L190.853 673.973ZM197.142 674.865L194.226 675.752L193.509 677.514L194.772 677.362L196.557 677.187L197.142 674.865ZM195.4 678.866L192.179 678.992L190.267 680.538L189.286 682.561L192.094 683.952L188.7 683.737L189.701 685.975L195.051 686.56L197.643 685.585L198.034 683.43L198.773 681.494L196.598 680.427L195.4 678.866ZM171.558 696.215L171.014 698.564L172.709 700.348L173.189 703.545L175.539 700.045L175.581 697.238L175.17 696.806L173.732 698.041L171.558 696.215ZM168.965 705.351L166.029 705.679L164.399 708.069L166.79 710.091L166.272 712.982L170.423 712.523L173.168 710.461L174.821 709.24L177.647 709.351L168.965 705.351ZM165.617 719.18L163.922 720.529L165.422 721.354L165.617 719.18ZM162.55 753.951L162.202 757.039L161.831 758.997L160.939 756.04L159.545 759.059L159.308 761.519L159.371 764.085L160.136 761.952L162.265 762.67L165.206 761.302L165.422 755.364L164.118 754.321L163.442 756.801L162.55 753.951ZM156.241 761.756L154 764.39L154.697 766.739L157.111 765.236L156.568 764.301L156.241 761.756ZM158.527 771.543L159.614 773.326L160.459 775.458L161.594 777.37L162.486 776.804L161.831 773.981L160.549 772.128L158.527 771.543ZM186.046 790.591L184.152 793.985L182.499 795.636L180.063 797.115L176.775 799.768L175.142 799.726L176.823 802.618L178.125 805.184L179.714 807.553L183.957 807.834L185.956 806.14L186.611 802.049L187.309 797.421L187.743 791.831L186.046 790.591ZM157.849 791.224L156.719 793.832L156.826 796.006L158.741 793.768L158.568 793.245L157.849 791.224ZM162.856 798.814L162.571 800.788L163.832 802.551L165.702 805.812L167.508 806.768L166.857 808.879L169.446 808.662L170.01 806.572L168.4 802.814L164.223 801.01L162.856 798.814ZM162.243 806.9L161.267 809.555L161.155 811.619L161.329 814.099L160.088 816.902L160.136 819.187L161.526 821.621L163.573 822.95L165.528 823.646L165.553 821.621L164.963 819.34L163.832 817.535L165.553 816.816L164.857 813.317L162.766 809.512L162.243 806.9ZM168.965 829.69L168.596 831.648L169.335 834.04L168.294 831.775L166.921 833.975L167.704 836.125L170.338 837.712L171.251 835.385L171.12 832.841L169.859 831.997L168.965 829.69ZM182.631 833.606L181.348 834.149L178.866 834.324L176.168 836.082L173.776 838.019L174.08 840.585L177.149 840.996L177.345 844.326L180.281 843.999L182.02 844.933L181.607 842.151L183.476 838.757L184.046 834.213L182.631 833.606ZM171.141 839.585L170.381 842.325L168.923 844.216L168.965 846.653L170.359 851.024L170.924 853.197L173.796 853.651L176.494 853.197L177.038 850.717L177.102 848.759L177.08 848.131L175.82 844.52L174.013 841.17L171.141 839.585ZM164.465 846.304L164.661 848.717L162.222 851.784L162.09 853.742L165.987 854.544L163.748 857.654L162.745 861.744L163.051 863.939L163.896 866.093L165.749 862.763L166.335 859.874L164.487 861.674L165.703 858.439L165.945 856.112L167.794 855.805L169.509 855.415L169.837 857.611L168.532 859.546L170.966 857.479L170.534 855.304L170.185 854.827L168.728 851.651L165.75 848.152L164.465 846.304ZM165.009 878.44L164.138 880.62L163.875 882.55L163.615 885.048L165.073 887.555L163.331 886.969L161.309 892.362L161.831 896.127L165.184 896.669L166.79 892.948L167.186 889.778L166.921 887.185L166.879 886.728L167.161 884.574L166.072 881.766L165.009 878.44ZM193.312 888.839L190.983 889.269L190.002 892.052L192.636 893.077L194.529 892.491L196.249 890.07L193.312 888.839ZM171.905 891.449L170.248 894.206L173.056 895.231L173.099 893.292L171.905 891.449ZM178.928 899.211L179.953 901.451L182.847 903.579L183.957 901.623L183.522 900.443L181.997 899.822L178.928 899.211ZM368.921 904.862L367.531 905.586L366.618 907.74L369.075 905.973L368.921 904.862ZM383.737 905.818L379.17 907.257L378.236 908.756L382.607 906.577L384.936 907.49L383.737 905.818ZM384.936 907.49L385.523 908.317L386.478 911.366L387.804 913.279L386.805 910.014L386.457 908.101L384.936 907.49ZM378.236 908.756L378.061 908.842L377.992 909.126L378.236 908.756ZM377.992 909.126L376.559 911.427L377.345 912.081L377.992 909.126ZM373.406 906.732L371.906 909.686L373.342 911.47L374.557 909.316L374.906 907.3L374.73 907.386L373.406 906.732Z" fill="black"/>
<circle cx="356" cy="846" fill="#5CE50D"/>
<circle cx="416" cy="569" fill="#E52A0D"/>
<circle cx="206" cy="890" fill="#E52A0D"/>
<circle cx="751" cy="107" fill="#E52A0D"/>
</svg>
