<svg width="1000" height="1000" viewBox="0 0 1000 1000" fill="none" xmlns="http://www.w3.org/2000/svg">
<rect width="1000" height="1000" />
<path d="M500.047 43.4099L476.053 49.8083L459.022 65.334C445.472 77.7545 440.673 82.8356 435.121 90.6456C429.758 98.2672 422.607 105.889 403.223 124.802C389.485 138.258 363.139 164.134 344.79 182.388C319.573 207.417 309.222 217.015 302.636 221.626C295.484 226.519 292.944 228.965 289.462 234.234C284.099 242.233 278.924 246.843 251.636 268.391C239.968 277.612 228.301 287.586 225.76 290.503C222.749 294.079 211.364 303.3 192.921 317.132C159.517 342.161 96.5677 393.161 84.8059 404.735C72.6676 416.685 59.212 438.138 45.0978 468.343C33.9005 492.337 29.3839 505.04 22.7032 532.327L19.4099 545.501L18.7512 586.432L18.0925 627.363L21.8563 643.359C24.0205 652.487 27.1256 670.365 29.1016 685.043L32.6772 710.731L37.0997 714.401C41.334 717.977 41.9927 718.165 47.6383 718.165C53.0959 718.165 53.9427 718.447 56.2951 720.894L58.8357 723.622L55.9187 729.362L53.0018 735.196L57.4242 750.534L61.7526 765.871L86.5937 791.465C107.859 813.389 111.435 817.529 111.905 820.54C112.282 822.422 112.658 824.492 112.846 825.057C113.034 825.621 131.759 839.453 154.53 855.826L195.838 885.56L213.434 889.982L231.029 894.405L241.098 902.403C246.649 906.825 251.636 910.777 252.201 911.248C252.859 911.718 264.057 915.858 277.136 920.563C294.638 926.679 314.492 932.607 350.906 942.487L400.777 956.037L441.99 959.518L483.204 963L492.331 959.236C503.152 954.814 515.573 951.803 540.79 947.286L559.421 943.993L578.428 935.148C594.236 927.903 601.67 923.668 622.841 910.119C636.861 901.086 667.254 882.455 690.495 868.529L732.838 843.311L738.013 843.876C740.93 844.158 744.412 844.534 745.729 844.723C747.611 845.005 750.34 843.593 757.114 838.795C764.077 833.902 768.688 831.455 778.474 827.786L790.895 823.081L806.42 804.638L821.852 786.101V774.434C821.852 765.683 821.381 760.79 819.97 755.238C818.464 749.687 817.806 742.724 817.147 727.574C816.677 716.471 815.641 697.84 814.701 686.173C813.76 673.47 813.383 660.579 813.665 653.992C814.23 642.983 814.324 642.795 821.664 622.941C825.804 611.932 829.662 600.546 830.32 597.723C830.885 594.9 833.237 586.62 835.496 579.375C837.754 572.129 841.141 560.274 842.929 553.028C846.222 539.855 853.656 517.084 856.196 512.003C856.949 510.591 858.078 507.204 858.643 504.569C859.302 501.652 860.995 498.077 863.065 495.348C864.947 492.902 870.217 484.151 874.827 475.87C882.167 462.603 884.143 459.78 891.482 452.347C899.48 444.254 900.327 443.69 908.043 441.055C916.135 438.232 916.323 438.138 921.592 431.175C924.603 427.317 932.413 418.19 939 410.945C945.587 403.7 955.561 392.126 961.206 385.351C969.581 375.189 971.463 372.272 971.463 369.825C971.463 368.132 972.592 365.026 973.815 362.956C975.791 359.851 976.167 357.969 976.167 351.853C976.167 345.549 976.544 343.761 979.084 338.868L981.907 333.128L981.249 319.767L980.684 306.499L974.097 288.621C968.264 272.531 967.417 269.426 966.099 258.04L964.5 245.338L960.642 241.103C957.066 237.245 956.125 235.175 951.138 219.179L945.587 201.489L938.341 197.255C931.661 193.303 929.685 191.327 914.629 173.543C890.541 144.938 881.414 136.282 861.372 123.202L844.811 112.476L842.176 105.513C840.671 101.655 839.353 98.4554 839.259 98.2672C839.165 98.1732 830.885 95.068 820.911 91.4924C803.033 84.9998 802.656 84.8116 794.846 78.1309C790.518 74.3671 785.437 70.0388 783.649 68.5332C781.391 66.6513 772.922 63.2639 755.044 57.1477L729.733 48.3969L673.84 46.8914C621.524 45.48 617.195 45.1977 607.127 43.1276C598.753 41.3398 589.249 40.3988 562.62 38.8933C543.989 37.7642 527.711 36.9173 526.394 37.0114C525.076 37.0114 513.22 39.9283 500.047 43.4099Z" fill="black"/>
<circle cx="158" cy="832" fill="#5CE50D"/>
<circle cx="899" cy="175" fill="#E52A0D"/>
<circle cx="255" cy="281" fill="#E52A0D"/>
<circle cx="806" cy="661" fill="#E52A0D"/>
</svg>
