<svg width="1000" height="1000" viewBox="0 0 1000 1000" fill="none" xmlns="http://www.w3.org/2000/svg">
<rect width="1000" height="1000" />
<path d="M530.72 17.8075C530.248 18.5624 528.832 18.6567 526.756 18.2793C524.303 17.8075 522.982 18.0906 521.661 19.3173C520.057 20.7327 519.302 20.8271 516.66 19.8835C512.319 18.2793 510.715 18.468 510.148 20.7327C509.771 22.1481 510.62 23.5636 513.451 26.1114C524.209 35.8307 529.493 41.8699 533.833 49.4189C535.626 52.5329 537.702 55.7412 538.363 56.5905C540.061 58.4777 542.515 66.5929 542.515 70.273C542.515 73.5757 540.439 75.8404 538.269 74.9911C535.438 73.9532 535.626 77.3502 538.552 80.3698C540.156 82.0683 542.326 85.4654 543.553 88.1075C544.874 91.1271 547.422 94.3354 550.63 97.0719C553.367 99.431 555.631 101.979 555.631 102.828C555.726 103.677 556.386 104.904 557.141 105.565C557.896 106.225 558.556 107.452 558.556 108.301C558.556 109.245 563.275 115.378 569.031 121.984C581.487 136.515 593.659 154.35 595.547 160.767C596.773 165.202 597.056 165.485 600.076 165.673C601.869 165.862 604.133 165.39 604.983 164.635C606.493 163.503 606.587 163.126 605.266 160.483C604.417 158.974 603.19 157.464 602.529 157.181C601.774 156.898 599.793 154.633 598.094 152.18C595.924 148.971 595.547 147.839 596.679 148.311C597.622 148.688 598.66 148.971 599.132 148.971C599.51 148.971 601.68 150.481 603.85 152.274C609.607 157.086 614.23 156.709 609.04 151.802C606.493 149.443 605.926 147.084 607.908 147.084C608.569 147.084 609.89 148.594 610.833 150.387C611.871 152.18 613.192 153.689 613.853 153.689C614.513 153.689 615.551 154.539 616.118 155.577C616.684 156.615 617.816 157.464 618.571 157.464C619.42 157.464 619.892 157.936 619.703 158.596C618.948 160.672 617.439 160.389 616.118 157.936C614.608 155.105 611.871 154.727 612.626 157.464C612.909 158.502 612.72 159.351 612.249 159.351C611.777 159.351 611.399 160.861 611.399 162.654C611.399 165.39 611.777 166.051 613.947 166.523C615.268 166.9 617.156 166.711 618.099 166.051C619.043 165.485 620.081 165.013 620.364 165.013C620.647 165.013 620.836 169.259 620.836 174.449C620.836 183.13 620.741 183.885 619.043 183.885C616.401 183.885 615.551 181.904 617.533 180.488C619.137 179.262 619.043 179.073 615.929 177.846C613.853 176.997 612.343 175.581 612.06 174.26C611.683 173.034 610.833 171.241 610.173 170.203C608.946 168.693 608.569 168.599 607.247 169.637C606.398 170.297 605.738 170.58 605.738 170.108C605.738 168.882 603.85 171.901 603.85 173.222C603.85 173.789 605.832 176.525 608.191 179.356C614.136 186.339 619.798 196.907 621.024 203.418C622.912 213.704 625.459 217.195 628.385 213.61C629.045 212.76 630.178 212.288 630.932 212.572C631.593 212.855 632.159 212.477 632.159 211.722C632.159 210.024 636.217 207.853 641.124 207.099C643.954 206.721 644.426 206.815 642.822 207.476C641.595 207.948 640.652 208.608 640.652 208.891C640.652 210.684 642.822 213.138 644.332 213.138C645.276 213.138 647.54 213.704 649.239 214.459C652.541 215.874 652.258 216.157 647.068 217.29C643.105 218.139 638.576 222.48 639.331 224.65C639.708 226.065 639.519 226.443 638.67 226.16C637.915 225.877 637.255 224.367 637.066 222.763C636.877 221.064 636.405 219.743 635.839 219.743C635.367 219.743 635.084 218.799 635.273 217.573C635.462 215.78 634.99 215.497 631.97 215.214C629.989 215.025 628.385 215.308 628.385 215.686C628.385 216.157 630.272 221.253 632.631 227.009C634.896 232.765 637.632 240.409 638.67 243.994C639.614 247.486 641.501 254.091 642.916 258.715C644.238 263.244 645.37 267.962 645.37 269.189C645.37 271.076 645.747 271.265 647.823 270.888C649.144 270.699 650.465 269.85 650.749 269.189C651.503 267.113 653.768 267.585 653.202 269.661C652.919 270.982 651.598 271.548 648.578 271.926C642.445 272.586 641.407 273.813 642.162 279.569C643.011 286.08 644.238 287.59 646.408 284.664C647.918 282.777 648.201 282.683 648.673 284.098C649.522 286.363 648.484 287.684 645.747 287.684C643.86 287.684 643.483 288.156 643.483 290.609V293.44L646.314 291.742C648.484 290.515 649.427 290.421 650.182 291.176C652.258 293.251 649.333 295.422 644.992 295.139C637.821 294.573 637.255 295.233 637.632 303.254C637.915 308.727 637.727 310.803 636.594 312.03C635.651 313.162 634.99 316.936 634.518 324.485C634.141 330.43 633.292 338.262 632.537 341.942C631.216 348.076 630.744 349.02 625.271 354.398L619.515 360.343H613.287C608.097 360.343 606.493 360.721 602.907 363.174C600.548 364.684 598 366.005 597.151 366.005C596.301 366.005 595.075 366.571 594.509 367.326C593.942 367.987 590.923 369.685 587.903 371.1C583.279 373.176 581.958 374.309 580.354 377.611C579.222 379.876 578.373 382.424 578.373 383.273C578.373 386.198 581.487 392.898 584.695 396.861C588.941 402.146 592.999 404.41 599.132 405.165C609.135 406.203 614.608 408.374 617.061 411.959C618.288 413.752 620.458 415.923 621.779 416.772C623.1 417.527 625.459 419.603 627.158 421.396C628.856 423.189 631.121 424.51 632.348 424.51C633.575 424.51 635.556 425.17 636.689 426.019C638.01 426.869 639.897 427.34 641.407 427.057C645.936 426.208 653.202 429.794 658.864 435.644C670.376 447.817 672.641 459.046 667.734 479.712C665.941 487.166 661.034 497.169 657.543 500.566C656.033 501.981 654.806 504.057 654.806 505.095C654.712 507.832 652.919 510.757 649.899 513.21C648.389 514.343 647.257 515.852 647.257 516.702C647.257 517.457 644.049 521.231 640.086 524.911C632.159 532.366 631.404 535.008 636.028 537.65C638.198 538.877 639.142 538.877 642.445 537.745C645.181 536.895 646.314 535.952 646.314 534.725C646.314 533.687 645.936 533.121 645.464 533.498C644.992 533.781 644.238 533.498 643.954 532.932C643.2 531.705 646.125 529.346 648.484 529.252C650.56 529.252 650.654 533.121 648.673 536.235C647.635 537.839 647.446 539.066 648.106 540.764C649.427 544.256 651.598 544.633 656.033 542.085C660.185 539.821 664.431 539.443 666.318 541.33C666.979 541.991 668.017 542.463 668.772 542.463C669.81 542.463 669.998 543.312 669.527 546.143C668.866 550.578 670.848 556.994 673.112 557.372C675.188 557.844 683.587 554.258 687.456 551.333C689.06 550.106 690.853 549.068 691.419 549.068C692.079 549.068 694.155 547.653 696.137 545.86C698.118 544.067 700.855 542.274 702.27 541.991C703.592 541.613 706.517 539.349 708.781 536.99C710.952 534.536 713.971 531.8 715.387 530.95C716.802 530.007 718.029 528.78 718.029 528.12C718.029 527.459 719.444 525.1 721.237 522.93C722.936 520.759 725.106 516.985 726.05 514.437C726.993 511.984 729.069 508.398 730.768 506.605C732.466 504.812 734.165 501.792 734.542 500C735.675 494.81 739.544 487.732 741.431 487.732C742.374 487.638 744.639 485.185 746.715 481.976C748.885 478.579 751.433 475.843 752.849 475.371C757.944 473.578 758.416 472.634 761.341 459.99C761.719 458.197 763.417 456.215 766.059 454.234C771.816 450.271 773.514 447.628 774.741 441.023C775.307 437.909 777.005 433.002 778.515 430.077C780.025 427.152 781.252 423.755 781.252 422.528C781.252 420.263 782.479 417.904 786.725 412.337L788.895 409.412H785.215C780.497 409.412 778.421 407.241 778.421 402.051C778.421 398.749 778.138 398.088 776.534 398.088C772.854 398.088 774.741 390.822 779.836 385.066C782.101 382.613 784.083 379.499 784.271 378.272C784.649 375.347 790.971 371.761 801.351 368.364C807.201 366.477 810.693 366.005 818.053 366.005C823.809 366.005 827.584 366.382 828.056 367.043C828.433 367.609 829.848 367.892 831.453 367.515C834.567 366.949 835.982 368.836 834.095 371.195C833.057 372.422 833.246 375.252 834.661 380.348C835.416 383.085 836.926 382.33 838.435 378.461C839.285 376.573 840.795 374.026 841.833 372.893C843.72 370.817 843.437 368.836 841.266 368.836C838.624 368.836 838.152 366.477 839.002 357.04C839.473 351.945 840.323 347.132 840.795 346.566C841.266 345.906 841.455 344.396 841.172 343.169C840.511 340.621 843.72 336.753 844.946 338.545C845.984 340.433 848.91 339.678 849.948 337.224C850.608 335.809 851.835 334.865 852.967 334.865C854.005 334.865 854.855 334.488 854.855 334.11C854.855 333.639 856.553 331.657 858.629 329.581C861.082 327.222 862.404 325.052 862.404 323.447C862.404 322.032 863.441 320.145 864.951 318.824L867.499 316.653L865.329 315.804C863.63 315.238 863.347 314.766 864.196 313.728C864.763 313.068 864.951 312.218 864.574 311.935C864.291 311.558 864.574 310.709 865.14 309.954C865.895 309.01 865.989 308.444 865.234 307.972C863.819 307.123 864.102 304.103 865.706 302.782C867.027 301.65 867.027 301.367 865.706 299.951C863.725 297.781 863.913 296.648 866.367 295.044C868.348 293.723 868.443 293.44 867.122 291.081C865.989 288.816 865.989 288.25 867.405 285.891C868.254 284.381 869.009 282.117 869.009 280.796C869.009 278.531 875.426 267.774 877.502 266.453C877.973 266.169 878.445 265.037 878.445 264.093C878.445 261.829 874.199 259.564 868.537 258.715C865.046 258.243 864.196 257.771 863.725 255.978C863.347 254.657 862.404 253.714 861.554 253.714C860.611 253.714 859.573 253.431 859.195 253.053C858.818 252.676 855.326 252.298 851.457 252.298C844.663 252.204 844.286 252.298 842.776 254.846C841.927 256.261 840.134 257.677 838.719 257.96C837.303 258.337 835.888 259.187 835.605 259.942C835.322 260.696 834.284 261.263 833.246 261.263C832.208 261.263 831.075 261.64 830.792 262.206C830.509 262.678 829.377 263.15 828.244 263.15C827.018 263.15 826.546 263.622 826.829 264.471C827.112 265.32 826.451 266.453 825.036 267.302C823.809 268.151 822.771 269.661 822.771 270.699C822.771 271.642 822.016 272.68 821.073 272.964C820.224 273.247 818.431 275.228 817.11 277.304C815.883 279.286 813.146 282.117 811.165 283.438C808.051 285.419 806.447 285.797 800.124 285.797C794.085 285.797 792.481 286.08 791.726 287.401C790.971 288.816 790.499 288.816 788.235 287.778C786.253 286.929 785.876 286.457 786.819 285.797C788.706 284.664 783.233 282.022 779.081 282.022C777.383 282.022 775.118 281.362 774.08 280.607C773.137 279.852 771.627 279.191 770.872 279.191C768.985 279.191 756.623 273.247 751.056 269.755C748.697 268.34 745.3 266.83 743.507 266.453C741.714 266.075 738.034 264.093 735.392 262.112C730.579 258.62 727.937 258.149 730.862 261.357C731.712 262.301 732.089 263.527 731.712 263.999C730.768 265.603 729.541 265.226 729.73 263.339C729.824 262.301 729.258 261.829 728.126 262.017C727.182 262.206 724.54 261.357 722.275 260.225C717.84 257.96 715.576 254.28 716.614 250.977C716.991 249.845 716.802 248.995 716.236 248.995C715.67 248.995 715.198 248.335 715.198 247.58C715.198 246.825 715.67 246.165 716.236 246.165C717.557 246.165 716.519 239.559 714.443 234.935C713.594 233.048 712.65 227.67 712.273 223.046C711.518 212.76 710.574 207.287 709.442 206.061C708.97 205.589 708.593 204.079 708.593 202.664C708.593 199.172 706.611 197.757 703.497 198.983C702.176 199.455 701.044 200.304 701.044 200.871C701.044 201.342 700.572 201.814 700.1 201.814C697.552 201.814 703.875 194.36 706.517 194.265C707.272 194.265 707.649 193.416 707.46 192.095C707.177 189.925 705.29 189.642 699.911 190.963C696.326 191.906 691.419 188.226 692.268 185.112C693.117 181.526 688.871 174.166 686.512 175.015C685.851 175.298 684.719 174.827 684.059 173.977C683.398 173.222 681.699 172.562 680.19 172.562C677.831 172.562 677.453 172.939 677.453 175.298C677.453 177.28 678.302 178.695 680.756 180.488C683.492 182.659 683.964 183.508 683.964 186.999C684.059 195.398 684.153 196.247 685.474 195.209C686.323 194.454 686.795 194.643 687.267 195.775C688.116 197.945 688.022 198.04 685.568 198.04C681.888 198.04 681.794 201.437 685.38 207.948C687.078 211.062 688.777 215.308 689.06 217.384C689.343 219.46 689.815 221.819 690.192 222.763C690.664 223.801 690.003 224.744 688.116 225.782C681.605 229.274 681.039 229.368 678.68 227.198C676.887 225.405 676.51 224.178 676.51 219.554C676.51 215.025 676.038 213.326 674.15 210.779C671.508 207.382 666.318 205.966 662.921 207.759C661.412 208.514 661.223 208.325 661.789 207.004C662.072 206.061 661.883 204.74 661.317 204.079C660.09 202.569 655.278 202.286 656.222 203.702C657.448 205.589 653.957 204.551 652.541 202.569C651.22 200.776 651.032 200.776 650.465 202.097C649.711 204.079 648.201 204.173 648.201 202.38C648.201 200.588 638.859 199.266 637.821 200.871C637.255 201.72 636.783 201.437 635.934 199.927C634.707 197.568 635.179 196.53 637.066 197.662C638.481 198.512 645.37 198.889 645.37 198.134C645.37 197.757 644.332 195.02 643.011 191.906L640.746 186.244L643.954 184.546C648.012 182.47 648.295 180.771 644.426 182.187C640.18 183.602 638.387 182.564 639.142 178.979C639.425 177.374 639.236 175.487 638.67 174.827C637.821 173.789 638.198 173.317 640.086 172.562C642.822 171.524 643.294 169.92 641.124 169.165C638.953 168.316 641.029 166.24 644.709 165.39C647.635 164.824 647.635 164.73 645.464 163.975C644.049 163.409 643.483 162.654 643.86 161.71C644.143 160.955 644.709 159.729 644.992 158.974C645.276 158.124 644.804 157.37 643.577 156.992C640.746 156.143 636.311 150.481 631.687 142.177C631.216 141.234 630.083 140.479 629.14 140.479C628.29 140.479 626.686 139.346 625.554 137.837C623.761 135.666 623.572 134.534 624.044 129.91C624.61 124.154 624.138 123.493 618.948 123.493C617.061 123.493 616.212 122.927 615.74 121.323C614.796 117.926 615.08 117.737 618.288 119.719C619.892 120.757 621.874 121.606 622.534 121.606C623.195 121.606 624.799 122.739 626.026 124.06C627.441 125.569 628.951 126.324 629.8 125.947C631.404 125.381 631.687 123.871 630.272 123.022C628.951 122.172 629.14 117.171 630.555 116.605C631.216 116.322 631.027 116.039 630.083 116.039C627.63 115.944 626.403 112.83 627.064 108.018C627.63 104.432 627.441 103.677 626.12 103.677C625.176 103.677 624.61 102.922 624.61 101.413C624.61 100.186 623.95 98.9592 623.195 98.5817C622.44 98.2986 621.779 96.9776 621.779 95.6565C621.779 93.958 621.307 93.2975 620.081 93.2975C617.722 93.2975 616.872 92.3538 618.005 90.9384C618.571 90.2778 617.91 88.8624 616.118 86.6921C613.947 84.1443 613.475 82.9176 613.947 80.6529C614.23 79.0487 614.891 77.1615 615.457 76.5009C616.118 75.6517 615.834 75.3686 614.325 75.3686C613.098 75.3686 612.343 75.9348 612.343 76.8784C612.343 78.0107 611.777 78.2938 609.984 77.822C608.097 77.3502 607.531 77.6333 607.059 79.6149C606.587 81.6909 606.021 81.9739 603.473 81.7852C601.491 81.5965 600.359 80.936 599.982 79.6149C599.604 78.2938 598.755 77.822 597.151 77.9164C595.263 78.1995 594.886 77.7276 594.697 75.746C594.603 73.9532 594.886 73.5757 595.641 74.3306C596.868 75.5573 600.736 75.746 601.491 74.5193C602.341 73.1039 598 70.6505 594.697 70.6505C592.338 70.6505 591.583 70.273 591.583 68.9519C591.583 67.0647 588.847 64.0451 587.148 64.0451C586.582 64.0451 585.638 63.3846 584.978 62.6296C584.129 61.5917 582.902 61.3086 581.109 61.686C579.222 62.1578 577.995 61.7804 576.58 60.365C575.447 59.2326 573.749 58.3833 572.805 58.3833C571.767 58.3833 570.635 57.9115 570.352 57.4397C570.069 56.8735 568.748 56.4961 567.521 56.4961C565.822 56.4961 565.067 57.1566 564.596 58.7608C563.935 61.5917 561.859 62.5353 559.5 61.2142C555.348 58.9495 554.876 53.3821 558.651 52.4385C560.632 51.8723 560.632 51.8723 558.84 49.5133C556.764 46.588 556.103 46.4937 555.442 48.9471C555.159 50.0794 554.121 50.8344 552.989 50.8344C550.158 50.8344 549.592 53.099 551.574 56.4961C553.555 59.7988 552.612 62.4409 549.215 62.9128C546.384 63.3846 545.629 60.5537 547.61 57.1566C548.46 55.6468 549.026 54.3257 548.931 54.2314C548.743 54.137 547.516 53.5709 546.006 52.9103C544.308 52.1554 543.27 50.8344 542.892 49.0414C542.609 47.626 540.628 44.3234 538.646 41.7756C536.57 39.2278 534.211 35.5476 533.267 33.566C532.135 31.207 530.72 29.6971 528.549 28.9423C526.568 28.1874 525.624 27.3381 526.001 26.4888C526.284 25.8283 526.473 24.6959 526.473 24.1298C526.473 23.5636 527.417 24.0354 528.644 25.1678C531.286 27.6212 532.135 27.055 532.135 22.8087C532.135 20.6384 532.607 19.6948 533.645 19.6948C535.532 19.6948 534.871 17.4301 532.89 17.0526C532.041 16.8639 531.097 17.2413 530.72 17.8075ZM578.75 66.4041C578.373 67.1591 577.712 67.8196 577.24 67.8196C576.674 67.8196 576.768 67.2534 577.429 66.4041C578.089 65.6493 578.75 64.9887 578.939 64.9887C579.127 64.9887 579.033 65.6493 578.75 66.4041ZM559.406 94.9016C558.179 96.4114 556.858 97.9212 556.48 98.393C556.009 98.9592 555.726 98.393 555.726 97.355C555.726 94.996 558.085 92.3538 560.161 92.3538C561.387 92.3538 561.293 92.92 559.406 94.9016Z" fill="black"/>
<path d="M678.491 140.764C677.925 141.33 677.453 142.745 677.453 143.972C677.453 145.199 677.075 146.142 676.604 146.142C676.226 146.142 675.849 147.086 675.943 148.218C676.037 149.445 676.698 150.389 677.453 150.389C678.302 150.389 678.774 151.144 678.585 152.087C678.208 154.069 686.7 162.373 688.776 161.995C691.041 161.524 691.041 157.749 688.871 156.334C686.795 155.107 686.229 152.276 687.833 151.332C689.437 150.389 688.871 148.973 686.606 147.935C685.379 147.369 683.775 145.482 683.115 143.689C681.699 140.198 680.095 139.16 678.491 140.764Z" fill="black"/>
<path d="M660.185 150.584C659.807 150.867 659.524 152 659.524 152.943C659.524 155.397 661.789 154.548 662.166 152C662.449 150.018 661.411 149.263 660.185 150.584Z" fill="black"/>
<path d="M651.032 192.195C651.032 192.667 649.994 193.516 648.672 194.082C645.936 195.309 645.559 197.102 648.012 197.102C649.616 197.102 653.862 193.516 653.862 192.1C653.862 191.723 653.202 191.44 652.447 191.44C651.692 191.44 651.032 191.817 651.032 192.195Z" fill="black"/>
<path d="M664.997 193.039C664.054 193.227 663.299 193.888 663.299 194.36C663.299 194.832 662.355 195.209 661.223 195.115C657.92 194.832 655.75 195.115 655.75 195.87C655.75 197.096 664.148 200.21 665.658 199.55C666.601 199.267 667.073 199.644 667.073 200.776C667.073 201.72 667.734 203.041 668.489 203.702C669.715 204.74 669.904 204.457 669.904 201.909C669.904 200.305 669.432 198.984 668.866 198.984C668.3 198.984 668.017 197.662 668.205 195.964C668.489 192.944 667.828 192.284 664.997 193.039Z" fill="black"/>
<path d="M718.973 249.095C718.973 249.944 719.633 251.171 720.388 251.832C721.143 252.492 721.803 254.002 721.803 255.229C721.803 258.059 725.861 260.419 727.654 258.626C728.598 257.682 727.748 256.361 723.879 252.492C720.765 249.378 718.973 248.151 718.973 249.095Z" fill="black"/>
<path d="M506.468 476.507C503.637 478.583 502.883 480.754 505.242 479.81C507.318 479.055 506.94 480.942 504.864 482.075C502.505 483.301 501.656 483.301 502.411 482.075C502.694 481.509 502.411 481.131 501.656 481.131C500.901 481.131 497.126 483.962 493.258 487.453C489.389 491.039 484.104 495.38 481.557 497.173L476.933 500.475L476.461 515.102C476.178 523.217 475.423 530.954 474.763 532.37C474.102 533.88 473.63 536.428 473.63 538.126C473.63 539.919 472.97 541.901 472.026 542.561C471.177 543.316 468.063 547.279 465.043 551.431C462.024 555.583 458.721 559.735 457.872 560.679C455.135 563.51 449.945 565.774 444.567 566.435C435.885 567.567 435.13 568.133 435.602 572.946C436.074 576.437 435.791 577.475 434.092 578.891C432.771 580.117 432.111 581.721 432.111 584.175C432.111 586.157 431.733 587.761 431.167 587.761C430.695 587.761 430.223 588.61 430.223 589.648C430.223 590.78 429.374 592.479 428.431 593.517C427.109 594.932 426.543 597.197 426.26 601.915C425.977 607.482 425.505 608.898 422.958 612.106C421.259 614.182 419.655 617.107 419.277 618.523C418.051 623.807 411.068 634.093 404.557 640.415C400.877 643.906 397.291 647.87 396.442 649.285C395.592 650.795 394.554 651.927 394.083 651.927C393.611 651.927 391.252 653.626 388.704 655.796C385.873 658.155 381.91 660.325 378.23 661.458C375.021 662.496 370.398 664.572 368.039 666.082C365.774 667.686 363.415 668.912 362.849 668.912C361.716 668.912 356.621 673.631 356.621 674.763C356.621 675.14 357.376 675.518 358.319 675.518C359.735 675.612 359.735 675.706 358.131 676.933C357.093 677.688 355.677 678.349 355.017 678.349C353.318 678.349 343.599 685.709 342.466 687.785C341.995 688.729 339.919 689.672 337.843 690.05C334.162 690.616 330.011 694.202 328.878 697.976C328.123 700.146 320.008 705.336 317.932 704.959C317.083 704.864 315.762 705.336 315.101 706.186C314.441 706.94 312.648 707.601 311.138 707.601C308.307 707.601 298.493 712.885 291.982 717.981C289.906 719.585 286.981 721.85 285.377 723.076C283.867 724.303 281.036 726.002 279.244 726.945C277.451 727.889 274.337 730.059 272.355 731.758C269.43 734.494 268.109 734.966 264.24 734.966C260.937 734.966 259.427 734.589 259.05 733.551C258.578 732.23 258.012 732.324 254.804 734.022C252.728 735.06 249.991 735.91 248.859 735.91C244.801 735.91 242.914 736.948 240.555 740.439C237.441 745.063 234.516 747.705 228.571 751.102C223.192 754.216 222.815 754.877 224.891 756.669C226.967 758.274 225.646 760.444 222.626 760.444C220.833 760.444 219.701 761.01 219.323 762.143C219.04 763.18 217.814 764.407 216.587 764.973C213.945 766.106 208.566 772.805 209.132 774.221C209.887 776.297 207.622 780.26 205.735 780.26C202.527 780.26 197.148 783.28 197.148 785.073C197.148 786.111 196.299 786.865 195.072 787.054C193.657 787.243 192.808 788.092 192.619 789.413C192.43 790.734 191.675 791.584 190.543 791.584C189.599 791.584 188.656 792.244 188.278 792.999C187.995 793.754 187.051 794.414 186.108 794.414C185.164 794.509 183.371 795.264 182.239 796.302C179.974 798.095 179.974 798.189 181.578 802.907C182.428 805.455 182.994 808.097 182.805 808.758C182.522 809.418 181.861 807.908 181.201 805.549C179.219 798.378 174.973 798.661 169.972 806.115L167.141 810.362L169.123 811.777C171.104 813.193 171.104 813.193 168.462 812.155C166.103 811.117 165.631 811.211 164.121 813.098C163.178 814.231 161.951 815.174 161.479 815.174C161.007 815.174 159.969 815.835 159.309 816.684C158.271 818.005 158.46 818.477 160.63 820.081C162.045 821.119 163.178 822.346 163.178 822.818C163.178 823.289 162.328 822.818 161.196 821.685C160.158 820.647 158.743 819.987 158.177 820.175C156.855 820.553 156.667 826.781 157.893 830.178C159.12 833.669 156.667 831.593 155.063 827.724L153.647 824.516L151.854 826.686C150.344 828.574 150.25 829.045 151.477 830.367C153.364 832.443 153.175 832.914 150.533 832.443C147.608 831.876 144.305 833.669 144.305 835.934C144.305 836.878 143.739 838.293 143.079 838.954C142.418 839.614 141.286 841.69 140.531 843.483C139.776 845.276 138.927 846.974 138.455 847.257C138.077 847.635 137.417 849.145 137.134 850.843C136.379 854.712 138.455 855.656 142.701 853.391C144.4 852.542 146.664 851.976 147.608 852.164C148.929 852.447 147.985 853.108 144.588 854.24C140.719 855.561 139.587 856.316 139.493 857.92C139.398 859.525 139.304 859.619 138.927 858.392C138.643 857.26 137.606 856.694 135.907 856.694C130.623 856.694 127.886 858.487 125.055 863.582L122.413 868.489L126.282 864.809L130.057 861.129L131 863.393C131.755 865.469 131.472 865.752 128.735 866.602C124.583 867.828 123.168 869.433 126.848 868.583C128.452 868.3 131.189 867.734 132.982 867.451C134.775 867.168 136.945 866.696 137.7 866.413C138.455 866.13 142.324 865.752 146.192 865.564C152.703 865.186 153.081 865.281 151.477 866.602C150.25 867.545 147.608 868.017 143.739 868.017C140.531 868.017 136.379 868.678 134.586 869.433C132.699 870.188 130.057 870.848 128.83 870.848C125.716 870.848 121.658 874.528 121.564 877.453C121.47 878.775 122.13 881.417 122.979 883.398C124.395 886.512 124.772 886.89 127.131 886.323C128.547 885.946 130.528 884.908 131.661 883.964C132.699 882.926 134.775 882.172 136.379 882.172L139.115 882.266L136.284 883.681C132.604 885.663 131.094 887.645 131.094 890.475C131.094 892.268 131.378 892.551 132.321 891.702C133.265 890.947 133.925 891.042 134.68 891.797C135.53 892.646 136.096 892.457 137.134 891.042C138.455 889.343 138.549 889.343 139.115 890.947C139.87 892.74 138.172 895.382 136.284 895.382C135.53 895.382 134.869 894.91 134.68 894.344C134.492 893.684 133.831 893.872 133.076 894.816C130.245 898.213 141.946 904.913 146.098 902.271C147.136 901.61 148.646 901.705 151.099 902.554C152.987 903.214 157.705 903.969 161.479 904.347C165.254 904.63 170.821 905.102 173.841 905.385C179.031 905.857 179.219 905.762 179.219 903.592C179.219 897.741 187.901 896.232 194.6 900.95C199.79 904.535 202.244 907.272 201.017 908.121C199.507 908.97 199.79 910.48 201.395 910.48C202.149 910.48 202.81 911.33 202.81 912.273C202.81 913.689 203.659 914.16 207.339 914.444C210.076 914.727 212.246 914.444 213.001 913.783C214.039 912.839 215.171 912.839 217.625 913.594C220.456 914.444 221.116 914.349 222.154 913.028C223.192 911.518 223.57 911.518 226.967 912.934C231.779 914.915 233.761 916.803 235.459 920.766C237.158 924.729 237.158 924.446 234.704 924.823C232.628 925.106 232.628 925.295 235.931 928.787C239.328 932.467 239.328 932.467 245.745 932.278C249.331 932.184 253.671 931.429 255.464 930.674C257.257 929.919 261.409 929.353 264.712 929.353C269.902 929.353 270.751 929.636 270.751 931.051C270.751 935.015 272.733 936.053 281.036 936.241C287.547 936.336 289.057 936.053 290.095 934.731C291.133 933.316 291.322 933.222 291.888 934.543C292.454 936.147 295.757 936.43 296.701 935.015C296.984 934.448 298.682 934.071 300.286 934.071C305.004 934.071 309.534 932.467 311.138 930.202C312.27 928.598 313.214 928.315 315.667 928.692C317.649 929.07 319.159 928.787 319.819 927.937C320.386 927.182 322.178 926.333 323.783 926.05C325.387 925.673 326.802 924.635 327.085 923.785C327.274 922.842 328.973 921.521 330.765 920.86C333.124 919.917 333.879 919.162 333.502 918.124C333.124 917.274 332.653 915.481 332.37 914.16C331.992 911.99 332.275 911.613 334.823 911.141C338.126 910.48 355.3 898.874 356.621 896.326C357.187 895.382 357.564 893.495 357.564 892.08C357.564 886.418 369.171 880.19 380.494 879.812C386.062 879.624 387.194 879.246 389.176 877.076C391.818 874.245 392.384 869.904 390.119 869.904C389.27 869.904 388.421 869.244 388.043 868.395C387.76 867.64 386.439 866.507 385.213 866.036C382.948 865.186 382.948 865.092 384.363 863.016C385.213 861.884 386.251 860.091 386.722 859.053C387.194 857.92 388.327 856.505 389.176 855.75C391.818 853.58 396.253 846.597 396.253 844.521C396.253 843.483 397.008 842.256 397.951 841.69C399.273 840.935 399.367 840.463 398.423 838.859C397.763 837.727 397.197 836.123 397.197 835.273C397.291 832.631 400.782 825.365 403.33 822.723C404.557 821.402 407.01 818.854 408.803 817.061C412.012 813.759 416.069 808.286 416.069 807.248C416.069 806.965 414.654 806.304 413.049 805.832L409.936 804.983L413.427 804.889C416.635 804.794 417.013 804.511 417.485 801.68C418.051 798.944 418.145 793.093 417.862 782.902C417.768 780.449 418.711 777.901 420.598 774.693C422.203 772.145 423.618 768.465 423.807 766.483C424.09 763.369 425.034 762.143 431.167 756.764C436.734 751.857 438.244 750.064 438.056 748.177C437.961 746.856 438.15 746.573 438.433 747.422C438.622 748.366 439.282 749.12 439.848 749.12C441.264 749.12 456.645 740.345 456.645 739.496C456.645 739.118 457.211 739.024 457.872 739.212C458.438 739.496 462.118 738.174 465.892 736.382C480.33 729.493 490.898 726.002 500.523 725.058C503.637 724.775 508.072 724.02 510.243 723.454C513.451 722.605 514.583 722.699 515.055 723.548C515.999 725.058 525.152 729.304 527.511 729.304C529.681 729.304 529.87 728.078 527.889 726.473C526.284 725.152 525.907 717.981 527.417 717.981C527.983 717.981 528.455 718.736 528.549 719.585C528.643 720.529 528.738 722.133 528.832 723.171C528.927 724.209 529.115 725.624 529.21 726.19C529.398 727.983 533.173 727.606 535.626 725.719C537.419 724.303 540.628 717.509 540.628 715.056C540.628 713.829 531.474 709.488 525.718 707.978C521.944 706.94 519.679 706.846 517.131 707.601C512.885 708.733 512.319 708.733 512.319 707.601C512.319 707.035 513.545 706.657 514.961 706.657C518.547 706.657 519.302 705.714 517.32 703.638C515.338 701.373 514.489 686.747 516.093 680.33C517.792 673.253 521.283 670.422 532.795 666.648C535.532 665.704 538.363 664.194 539.023 663.251C539.684 662.307 541.949 660.797 544.119 659.948C546.289 659.099 548.365 657.495 548.931 656.079C549.592 654.852 550.441 653.814 551.007 653.814C551.479 653.814 551.951 652.965 551.951 651.833C551.951 650.795 552.989 648.53 554.216 646.926C557.99 641.83 564.312 628.337 563.746 626.544C563.369 625.317 564.407 623.807 567.049 621.354C570.823 617.957 573.088 617.202 574.126 618.9C575.164 620.504 576.297 619.089 575.825 616.73C575.353 614.182 576.58 612.484 585.261 604.085C589.696 599.65 590.64 598.235 590.64 595.593C590.64 593.139 591.583 591.346 594.697 587.949C600.831 581.344 612.343 567.001 612.343 565.963C612.343 565.491 611.022 565.114 609.512 565.114C606.115 565.114 604.794 562.566 604.794 556.149C604.794 552.658 604.511 551.997 602.529 551.526C596.962 550.11 595.735 545.109 599.604 540.013C600.925 538.315 601.963 536.522 601.963 535.956C601.963 535.39 602.435 534.918 602.907 534.918C603.473 534.918 603.85 535.578 603.85 536.333C603.85 537.088 604.511 537.749 605.266 537.749C606.021 537.749 606.681 537.277 606.681 536.805C606.681 536.239 607.153 535.861 607.719 535.861C609.229 535.861 611.305 532.936 611.399 530.954C611.399 530.011 612.815 528.312 614.608 527.18C616.778 525.765 618.005 524.16 618.288 522.179C618.854 518.687 618.665 518.499 616.212 519.914C614.891 520.858 614.608 521.518 615.268 522.368C616.023 523.217 615.74 523.689 614.041 524.066C612.815 524.443 611.305 524.538 610.833 524.349C610.361 524.16 608.663 525.198 607.153 526.614C605.643 528.124 603.473 529.256 602.435 529.256C601.397 529.35 599.51 529.917 598.189 530.671C596.868 531.426 594.792 531.992 593.565 532.087C589.13 532.087 593.942 528.784 600.076 527.557C606.304 526.236 608.002 524.443 605.171 522.084C603.473 520.763 603.567 520.669 606.021 521.235C608.191 521.707 608.852 521.424 609.229 519.82C609.512 518.782 610.078 517.932 610.55 517.932C611.682 517.932 611.588 515.385 610.456 514.63C609.89 514.252 608.852 514.535 608.097 515.102C606.964 516.045 606.681 515.951 606.681 514.252C606.681 513.214 607.247 512.271 607.908 512.176C608.474 512.176 607.814 511.705 606.209 511.233C604.133 510.667 603.095 510.855 601.774 511.988C600.17 513.403 600.076 513.309 600.076 510.572C600.076 507.27 598.283 506.515 597.528 509.44C596.962 511.516 596.207 511.799 594.792 510.383C594.225 509.817 593.376 510.1 592.338 511.233C591.017 512.743 591.017 513.309 592.055 514.158C592.904 514.913 593.47 514.913 593.942 514.158C594.792 512.743 596.301 513.026 596.301 514.63C596.301 515.385 595.924 516.045 595.358 516.045C594.886 516.045 594.697 516.706 594.98 517.461C595.358 518.31 594.98 518.876 594.131 518.876C593.376 518.876 592.527 518.31 592.244 517.649C591.961 516.895 591.017 517.272 589.319 518.782C586.676 521.235 585.827 526.897 588.092 527.652C588.658 527.841 587.903 528.69 586.205 529.539C582.43 531.521 580.071 531.615 582.902 529.633C585.261 528.029 585.638 524.727 583.562 523.972C581.486 523.122 581.864 521.707 584.034 521.707C585.072 521.707 586.299 520.952 586.582 520.008C586.959 519.159 588.092 517.649 589.224 516.706C591.111 515.007 591.017 515.007 587.431 515.479C585.45 515.762 583.279 516.706 582.619 517.649C581.486 519.159 581.298 519.065 581.392 516.234C581.486 513.592 581.77 513.214 584.034 513.214C586.865 513.214 592.527 508.968 592.527 506.798C592.527 505.948 593.187 505.76 594.414 506.137C595.735 506.609 596.301 506.326 596.301 505.288C596.301 502.834 592.904 503.495 589.413 506.609C587.62 508.119 585.921 509.44 585.544 509.44C584.129 509.44 585.167 504.722 587.148 502.551C592.432 496.418 592.999 495.38 592.621 492.266C592.149 487.642 591.489 487.17 590.073 490.473C589.13 492.832 588.375 493.398 587.054 493.021C583.091 491.7 577.806 505.005 581.298 507.175C582.524 507.93 577.901 512.271 575.825 512.271C575.164 512.271 574.598 513.309 574.598 514.535C574.598 515.762 573.937 517.366 573.088 518.027C571.861 519.065 571.484 518.97 570.729 517.649C569.408 515.29 568.276 515.668 564.784 519.348C562.991 521.141 560.727 522.651 559.689 522.651C556.009 522.651 552.8 524.821 552.234 527.557C551.857 529.445 550.819 530.483 548.554 531.332C546.761 531.992 545.346 533.03 545.346 533.691C545.346 534.352 544.968 534.918 544.402 534.918C543.93 534.918 543.458 534.446 543.458 533.974C543.458 533.408 542.42 532.559 541.099 532.087C539.873 531.615 538.08 529.822 537.23 528.124C536.381 526.425 534.777 524.443 533.833 523.783C532.607 522.934 532.324 522.084 532.89 521.424C533.833 520.197 533.739 513.497 532.701 512.554C531.569 511.421 532.135 510.383 533.833 510.383C535.249 510.383 535.626 509.629 535.721 506.137C535.721 503.306 535.249 501.608 534.305 501.136C533.55 500.664 532.89 499.909 532.89 499.437C532.607 496.89 531.757 495.285 530.625 495.285C529.87 495.285 529.304 495.757 529.304 496.418C529.304 496.984 529.021 497.173 528.738 496.89C528.36 496.607 527.228 496.89 526.096 497.645C523.642 499.437 519.868 499.437 519.868 497.739C519.868 496.984 518.358 495.569 516.565 494.436C514.678 493.398 512.979 491.7 512.696 490.85C512.413 489.907 511.753 488.397 511.281 487.453C510.715 486.415 510.715 485.849 511.375 485.849C511.847 485.849 512.319 484.717 512.319 483.207C512.319 481.792 513.168 479.621 514.112 478.395C516.376 475.469 523.548 474.62 528.643 476.696C532.795 478.489 533.267 478.017 529.304 475.941C527.417 474.998 523.831 474.526 517.792 474.526C510.432 474.62 508.639 474.903 506.468 476.507ZM213.095 782.053C213.756 782.525 214.228 783.374 213.945 784.035C213.756 784.695 213.001 784.412 211.869 783.185C210.076 781.204 210.736 780.543 213.095 782.053ZM158.46 835.179C158.46 836.406 154.402 835.745 154.025 834.424C153.836 833.764 154.591 833.481 156.101 833.764C157.422 834.047 158.46 834.707 158.46 835.179ZM386.251 872.263C385.307 873.018 383.891 873.679 383.325 873.679C382.665 873.679 382.099 874.339 382.099 875.094C382.099 875.849 381.344 876.51 380.494 876.51C379.173 876.415 379.551 875.755 381.91 873.679C383.608 872.075 385.684 870.848 386.534 870.848C387.949 870.848 387.855 871.037 386.251 872.263ZM241.404 920.766C242.159 922.181 242.065 922.653 240.744 922.936C239.423 923.314 239.045 922.936 239.234 921.426C239.611 918.218 239.989 918.124 241.404 920.766ZM242.253 929.258C242.631 931.806 241.121 931.24 239.517 928.315C238.668 926.616 238.762 926.428 240.272 926.711C241.215 926.899 242.065 928.032 242.253 929.258Z" fill="black"/>
<path d="M203.942 938.414C202.621 939.357 201.866 940.867 201.866 942.66C201.866 944.17 201.395 945.397 200.734 945.397C200.073 945.397 201.017 946.812 202.716 948.511C205.452 951.436 205.641 951.908 204.603 954.172C203.942 955.588 202.904 956.72 202.149 956.72C201.395 956.72 200.923 957.947 200.923 960.4C200.923 963.892 200.828 964.08 197.243 964.647C193.185 965.307 192.241 966.722 192.996 970.874C193.562 973.328 193.279 973.8 190.165 975.309C187.146 976.725 186.674 977.291 186.957 979.839C187.24 982.198 187.712 982.764 189.977 982.953C191.77 983.142 192.996 982.764 193.562 981.82C194.034 981.066 194.978 980.594 195.733 980.971C196.676 981.254 198.469 980.122 200.451 978.046C203.376 974.932 204.037 974.649 206.962 975.215C209.415 975.593 210.925 975.309 212.907 973.988C215.738 972.007 222.815 969.931 226.778 969.931C228.382 969.931 229.231 969.459 229.231 968.421C229.231 967.289 229.798 967.006 231.213 967.383C232.723 967.76 233.006 967.666 232.251 966.911C231.496 966.156 231.59 965.496 232.628 964.552C234.61 962.571 234.233 960.589 231.779 960.023C230.553 959.645 229.231 959.551 228.665 959.645C228.193 959.74 227.155 959.74 226.401 959.645C225.363 959.551 225.268 959.362 226.212 958.796C226.967 958.324 225.646 957.569 222.626 956.72C220.078 956.06 217.908 955.116 217.908 954.644C217.908 953.229 220.739 952.662 222.154 953.889C223.853 955.305 230.458 954.267 229.892 952.662C229.703 952.096 228.099 950.87 226.306 949.832C222.437 947.756 219.795 944.83 219.795 942.566C219.795 939.735 216.492 937.753 211.114 937.376C207.528 937.093 205.358 937.376 203.942 938.414Z" fill="black"/>
<circle cx="646" cy="530" fill="#5CE50D"/>
<circle cx="661" cy="194" fill="#E52A0D"/>
<circle cx="195" cy="810" fill="#E52A0D"/>
<circle cx="510" cy="705" fill="#E52A0D"/>
</svg>
