<svg width="1000" height="1000" viewBox="0 0 1000 1000" fill="none" xmlns="http://www.w3.org/2000/svg">
<rect width="1000" height="1000" />
<path d="M572.017 301.801C561.141 304.166 559.533 305.206 560.384 309.462C560.857 312.299 560.479 313.056 556.317 317.217C553.858 319.676 551.115 323.081 550.264 324.689C549.318 326.391 547.049 328.472 544.59 329.702C542.32 330.837 539.482 332.539 538.348 333.485C535.983 335.471 535.51 339.159 537.307 340.956C538.158 341.807 538.158 342.375 537.402 343.132C536.551 343.983 535.699 343.888 534.092 342.848C529.93 340.2 526.809 340.01 523.215 342.186C520.283 344.077 519.905 344.645 520.378 347.387C520.756 349.657 520.378 350.887 519.148 352.022C516.973 354.008 515.555 353.251 513.852 349.09C513.096 347.293 511.866 345.874 511.015 345.874C510.258 345.874 504.489 351.265 498.152 357.791C491.816 364.317 485.479 370.275 484.155 370.937C481.318 372.45 462.875 377.179 449.351 380.016C444.338 380.962 439.231 382.665 437.623 383.8C436.11 384.934 432.138 386.637 429.017 387.677C425.801 388.623 418.897 391.46 413.695 394.014C408.494 396.567 402.724 398.932 400.833 399.216C398.847 399.594 396.388 401.012 394.685 402.715C393.172 404.417 386.741 410.092 380.31 415.483C371.23 423.143 368.015 425.319 365.84 425.319C362.718 425.319 358.368 427.21 356.571 429.48C355.909 430.237 354.017 431.182 352.41 431.466C350.707 431.845 346.64 433.641 343.425 435.438C336.426 439.316 328.103 441.113 311.08 442.437C304.554 443.005 297.839 443.761 296.136 444.234C294.056 444.802 290.367 444.612 285.26 443.667C281.004 443.005 273.911 442.343 269.466 442.343C262.089 442.343 261.048 442.059 256.509 439.222C251.685 436.195 230.5 413.686 228.514 409.43C228.041 408.295 226.717 407.349 225.771 407.349C224.826 407.349 223.596 406.309 223.029 405.079C221.988 402.904 218.867 401.675 214.138 401.675C212.909 401.675 211.396 400.729 210.544 399.405C209.126 397.324 209.22 396.946 210.923 393.73L212.72 390.325H210.45C209.126 390.325 207.423 389.38 206.383 387.961C205.437 386.637 203.262 385.313 201.37 384.934C198.628 384.462 198.249 384.556 199.101 385.691C199.668 386.448 200.425 387.961 200.614 389.096C201.181 391.082 200.898 391.177 196.547 390.609C192.291 390.136 191.913 390.231 191.913 392.028C191.913 393.257 193.521 394.96 196.736 397.04C200.236 399.216 202.127 401.296 203.357 404.134C204.87 407.538 205.721 408.2 208.653 408.768C210.639 409.052 213.855 410.376 215.841 411.7C218.773 413.591 219.34 414.537 219.34 417.185C219.34 419.833 218.867 420.59 216.503 421.536C214.233 422.481 213.003 422.481 211.206 421.63C209.882 421.063 207.423 420.59 205.626 420.59C202.884 420.59 202.222 420.212 201.749 418.225C200.898 414.726 198.439 415.294 194.466 420.117C192.48 422.481 190.305 424.373 189.643 424.373C188.981 424.373 187.751 422.671 186.9 420.59C185.671 417.469 185.009 416.807 182.928 416.807C181.226 416.807 180.185 417.374 179.902 418.604C179.429 420.495 174.038 422.481 169.593 422.481C166.093 422.387 163.445 420.874 160.23 416.996C158.243 414.632 157.014 413.97 154.271 413.97C150.11 413.97 143.206 411.983 141.598 410.376C140.747 409.524 140.841 408.484 141.787 405.552C142.827 402.242 142.827 401.202 141.409 397.702C139.234 391.933 139.423 389.852 142.355 388.528C144.435 387.677 145.286 387.677 147.083 388.907C148.313 389.663 150.11 390.325 151.245 390.325C152.853 390.325 153.136 389.758 153.136 386.259C153.136 382.854 152.569 381.624 150.015 379.165L146.894 376.139L144.152 378.976C142.449 380.773 140.463 381.813 138.855 381.813C137.437 381.813 135.072 382.286 133.654 382.759C130.06 384.178 127.979 383.232 122.21 377.747C118.427 374.153 117.197 372.356 117.197 370.37C117.197 367.911 117.575 367.627 120.034 367.627C123.534 367.627 123.912 364.884 120.886 361.858C118.805 359.777 118.805 358.642 120.98 350.792C122.399 345.969 121.548 344.645 113.509 339.443C110.671 337.646 104.618 332.823 100.079 328.756C95.5391 324.594 91.5668 321.284 91.2831 321.284C91.094 321.284 90.7157 322.419 90.5265 323.838C90.2428 326.202 89.8645 326.486 87.3109 326.202C84.5682 325.919 84.2844 326.108 83.717 329.702C83.4333 331.877 82.7712 333.579 82.3929 333.579C81.258 333.579 75.3942 329.796 71.3274 326.486C69.2467 324.784 65.1799 322.135 62.248 320.433C57.8975 317.974 56.006 317.501 50.8988 317.501C36.6177 317.501 33.9696 319.771 37.8472 328.094C38.9822 330.553 39.8333 332.823 39.5496 333.012C39.3605 333.201 36.6177 334.62 33.5913 336.133L27.9167 338.781L28.1058 354.859C28.2004 363.655 28.5787 378.03 28.8624 386.731L29.5245 402.431L32.3618 402.999C35.2937 403.566 43.049 409.052 47.1158 413.402C48.5344 414.915 50.8988 416.05 53.4524 416.428C57.2355 416.996 57.6138 417.28 59.5053 422.103L61.586 427.21L59.4107 431.655C57.3301 435.722 56.2897 436.668 48.3453 440.735C39.7388 445.18 39.3605 445.558 37.0906 450.665C34.1587 457.38 34.6316 460.69 40.0225 468.824C43.9002 474.688 44.0893 475.35 45.1297 485.848C46.6429 501.737 46.17 504.385 40.59 508.735C38.0364 510.722 33.4967 513.086 30.3757 514.032C23.7553 516.207 16 521.22 16 523.489C16 526.138 22.715 532.001 26.498 532.663C29.7136 533.231 30.2811 533.987 35.1991 543.067L40.4954 552.808L39.8333 561.036C39.3605 565.482 39.3605 569.359 39.6442 569.548C39.9279 569.737 41.5357 569.265 43.2381 568.508C46.4537 567.184 46.6429 566.238 44.373 559.618C43.9002 558.294 43.3327 553.565 42.9544 549.025C42.4815 541.554 42.5761 540.419 44.7513 536.257C46.9266 531.812 47.3995 531.528 54.4928 529.069C60.7348 526.989 63.7613 526.516 74.1647 526.327L86.4597 526.043L93.3638 529.542C97.1469 531.528 101.308 533.136 102.538 533.136C105.753 533.136 107.077 530.11 106.321 524.53C105.753 520.652 105.943 519.896 107.172 519.896C108.023 519.896 108.874 520.936 109.158 522.26C111.144 532.096 111.239 532.096 117.386 529.542C120.129 528.407 124.007 527.462 125.993 527.462C128.83 527.462 129.492 527.083 129.492 525.665C129.492 524.341 130.438 523.679 132.802 523.3C136.869 522.544 138.004 523.111 138.004 526.138C138.004 527.935 138.477 528.407 140.179 528.407C143.017 528.407 145.57 525.665 145.57 522.544C145.57 520.463 146.043 520.085 148.88 519.706C153.798 519.139 154.839 520.936 151.812 524.908C148.88 528.786 148.691 530.583 151.15 532.853C152.474 534.082 152.758 535.028 152.191 535.974C150.204 539 151.056 540.702 154.555 540.702C157.676 540.702 158.054 541.081 159.757 544.958C161.081 547.985 162.121 549.214 163.54 549.214C164.958 549.214 165.431 548.552 165.431 546.944C165.431 545.62 164.958 544.296 164.391 543.918C162.216 542.594 166.755 541.364 173.943 541.175C177.915 541.081 181.699 540.702 182.266 540.324C182.833 540.04 183.685 540.324 184.063 541.175C184.536 541.932 186.144 542.783 187.751 543.161C190.494 543.634 190.872 543.445 192.48 540.04C193.615 537.865 195.034 536.352 196.263 536.163C198.155 535.879 198.249 536.068 197.304 539.757C195.98 544.391 196.547 544.864 204.208 546.377C207.045 546.944 212.72 548.552 216.692 549.782C225.015 552.525 228.419 552.241 227.379 548.931C227.001 547.796 226.528 545.337 226.244 543.54L225.677 540.23L228.041 543.067C231.068 546.755 232.581 549.593 232.581 551.862C232.581 552.808 234.283 554.983 236.364 556.686C238.445 558.294 240.147 560.091 240.147 560.564C240.147 561.036 238.728 561.509 237.121 561.698C234.378 561.982 233.999 562.266 233.999 564.819C233.999 567.089 234.472 567.751 236.175 567.941C237.404 568.13 238.728 569.265 239.201 570.4C239.674 571.629 240.714 572.859 241.471 573.142C242.322 573.521 242.984 574.466 242.984 575.412C242.984 576.358 243.835 578.155 244.781 579.384C246.2 581.276 246.578 581.37 247.051 580.046C247.902 577.871 249.51 578.155 250.645 580.803C251.402 582.411 251.402 583.546 250.645 584.964C249.321 587.518 251.78 593.665 254.523 594.422C256.414 594.895 256.414 595.368 256.036 605.677C255.752 611.54 255.658 616.364 255.847 616.364C255.941 616.364 257.265 615.891 258.779 615.323C262.94 613.621 268.52 612.77 269.087 613.716C269.371 614.189 268.236 615.796 266.628 617.31L263.697 620.052L266.534 621.471C268.142 622.322 270.601 622.984 272.019 622.984C273.438 622.984 277.883 624.025 281.761 625.254C285.638 626.484 292.353 627.808 296.704 628.186C302.662 628.753 304.743 629.321 305.405 630.55C305.878 631.496 307.675 632.442 309.377 632.82C311.08 633.104 313.16 634.333 313.917 635.374C316.376 638.495 318.078 636.792 319.402 630.077C321.199 620.525 321.105 620.241 316.943 620.809C314.295 621.187 313.066 620.809 311.742 619.39C310.134 617.593 310.134 617.593 313.349 617.026C315.241 616.742 318.173 615.323 320.064 613.905C324.131 610.784 324.415 606.906 321.105 599.624C318.835 594.8 318.835 594.8 320.726 594.327C321.861 593.949 324.509 594.8 327.158 596.314C331.035 598.489 331.981 598.678 334.156 597.638L336.615 596.503L335.102 592.72C333.494 588.653 333.778 587.045 335.953 588.747C336.71 589.409 337.656 589.409 338.507 588.937C341.912 586.761 342.574 587.707 342.006 594.138C341.817 597.638 340.966 601.042 340.115 601.988C337.372 605.109 337.277 607.568 339.925 609.649C341.344 610.689 343.33 611.824 344.276 612.108C345.695 612.581 345.884 613.054 345.127 613.999C344.56 614.661 344.371 616.364 344.749 617.688C345.033 619.107 344.843 620.714 344.181 621.566C342.479 623.646 343.898 626.767 346.64 626.767C348.343 626.767 349.194 627.618 350.234 629.983C351.086 632.064 352.504 633.482 354.49 634.144C356.382 634.806 357.422 635.847 357.422 636.982C357.422 638.022 358.273 639.913 359.314 641.238C361.394 643.791 361.773 646.156 360.259 647.101C359.125 647.763 359.976 652.019 361.773 654.573C362.435 655.613 363.759 659.585 364.61 663.368C365.556 667.719 367.069 671.408 368.488 673.11C371.23 676.42 370.758 679.447 367.164 680.298C365.177 680.865 364.894 681.338 365.272 683.892C365.461 685.499 365.083 687.675 364.326 688.81C362.624 691.458 363.664 693.917 366.502 693.917C368.299 693.917 368.771 694.39 368.771 696.187C368.771 699.308 373.689 700.726 378.229 698.835C380.783 697.794 383.809 697.605 391.659 698.173C401.306 698.74 402.062 698.646 407.17 696.376C411.142 694.579 414.074 693.917 418.519 693.917C421.829 693.917 424.761 693.444 425.139 692.876C425.517 692.214 427.125 692.025 429.395 692.404C431.381 692.687 433.178 692.593 433.556 692.025C434.408 690.607 442.73 690.985 444.811 692.498C447.176 694.295 449.162 692.782 449.162 689.093C449.162 686.256 454.553 679.73 456.917 679.73C457.674 679.73 459.092 678.879 460.038 677.839C461.646 676.136 461.551 675.853 459.187 671.786C457.863 669.516 456.728 667.152 456.728 666.679C456.728 666.206 458.903 664.503 461.457 662.801C466.185 659.68 466.28 659.68 475.454 660.153C480.467 660.437 486.236 661.004 488.222 661.382C490.87 661.761 492.383 661.572 494.369 660.247C495.788 659.302 498.814 658.261 501.179 657.883C511.582 656.181 518.297 651.925 519.811 645.872C520.283 643.791 519.716 642.845 516.027 639.63C512.339 636.414 511.488 635.09 511.015 631.496C510.447 627.429 509.407 626.105 491.816 608.23C476.778 592.814 472.238 588.842 467.982 586.856C463.254 584.681 462.213 583.64 459.187 578.155C455.12 570.967 451.904 568.319 445.851 567.468C441.596 566.9 441.406 566.806 438.191 560.469C435.164 554.416 434.975 553.376 434.975 544.864C434.975 536.446 435.164 535.406 437.529 532.285C442.636 525.381 447.554 520.841 450.107 520.841C451.526 520.841 456.728 520.179 461.835 519.423C469.779 518.288 472.522 517.342 483.115 511.951C489.83 508.546 499.287 503.25 504.111 500.034C508.934 496.913 514.325 494.076 516.027 493.792C518.392 493.319 519.148 492.657 519.621 490.482C520 488.685 521.891 486.604 525.107 484.24C527.85 482.349 531.916 479.133 534.281 477.241C536.645 475.35 541.279 472.513 544.684 470.999C554.142 466.743 562.654 460.123 562.654 457.002C562.654 456.718 561.046 457.759 559.06 459.272C554.236 463.244 550.548 463.811 543.644 461.731C537.307 459.745 536.456 457.569 541.658 456.34C543.266 455.962 546.008 455.3 547.711 454.827C550.359 454.259 550.832 453.503 552.061 449.152L553.48 444.14L550.643 441.113C545.346 435.533 545.346 434.966 550.075 428.913C553.574 424.278 554.709 423.427 557.263 423.427C561.613 423.427 564.545 422.481 564.545 421.063C564.545 419.55 567.572 418.698 573.436 418.698C577.975 418.698 578.164 418.604 585.068 411.227C593.391 402.242 599.539 398.837 607.389 398.837C610.226 398.837 614.387 398.175 616.657 397.419C619.873 396.284 624.412 396 636.235 396.095C650.516 396.284 651.745 396.473 654.488 398.459C656.19 399.688 661.297 401.485 666.783 402.715C673.782 404.323 677.943 405.836 682.577 408.673C688.252 412.173 689.292 413.307 692.319 419.171C695.629 425.697 695.723 425.792 699.317 425.697C701.398 425.602 703.195 425.13 703.289 424.657C703.479 424.089 704.141 422.954 704.803 422.103C705.843 420.59 706.505 421.063 710.477 426.548C716.057 434.114 717.476 435.344 722.016 436.952C724.475 437.803 725.893 438.938 726.272 440.356C726.745 442.248 726.839 442.343 728.92 440.924C730.055 440.073 731 438.843 731 438.087C731 436.006 734.5 434.493 735.162 436.195C735.446 436.952 735.067 437.897 734.311 438.37C731.946 439.694 731.568 444.518 733.649 446.504C735.446 448.112 735.635 448.112 738.094 446.504C740.553 444.896 740.742 444.896 741.971 446.504C742.633 447.544 743.39 448.679 743.485 449.152C743.674 449.625 745.565 450.287 747.646 450.571C750.767 450.949 751.713 451.611 753.51 454.732C756.063 459.177 756.253 462.204 753.794 462.204C752.848 462.204 751.524 462.866 750.862 463.622C749.821 464.852 750.01 465.419 751.618 467.216C752.753 468.351 753.888 471.188 754.266 473.553C755.118 479.417 756.82 482.443 761.17 485.942C763.251 487.55 765.143 490.009 765.521 491.428C766.656 495.968 770.534 500.98 773.087 500.98C774.884 500.98 775.546 500.318 776.303 497.386C777.532 493.036 777.627 490.104 776.397 486.415C774.506 480.362 772.614 470.621 773.087 469.77C774.128 468.067 776.397 470.054 777.343 473.364C777.816 475.35 778.289 478.66 778.289 480.835C778.289 485.091 779.14 485.848 781.126 483.483C782.072 482.349 782.072 481.497 781.126 479.322C778.383 472.702 783.491 470.337 787.463 476.39C788.598 478.187 790.3 480.741 791.151 481.97L792.759 484.24L793.894 480.552C794.461 478.471 795.502 475.917 796.164 474.972C797.204 473.175 797.299 473.269 796.92 475.444C796.731 476.768 796.353 478.376 796.164 479.133C795.691 481.024 798.812 481.592 800.704 480.079C802.122 478.849 802.028 474.309 800.42 469.013C799.947 467.311 800.231 466.933 801.744 466.933C804.392 466.933 804.96 468.067 804.96 473.931C805.054 479.795 803.635 482.727 800.798 483.2C798.434 483.483 796.731 488.78 798.434 490.482C801.649 493.698 810.445 486.794 810.445 481.119C810.445 478.755 810.823 478.282 812.809 478.282C814.133 478.282 816.876 479.417 818.957 480.741C821.038 482.159 823.024 483.105 823.307 482.821C823.591 482.538 822.645 479.511 821.227 476.012C819.903 472.607 818.957 469.108 819.335 468.351C820.092 466.27 822.74 467.689 822.74 470.243C822.74 471.378 823.591 473.08 824.631 474.026C825.577 474.877 826.996 477.241 827.563 479.133C828.225 481.024 829.36 483.011 830.117 483.578C831.441 484.524 831.346 484.713 829.549 485.28C826.807 486.226 826.901 488.307 829.928 490.198C832.671 491.995 835.035 496.157 835.035 499.089C835.035 500.224 836.17 502.588 837.494 504.29C840.142 507.79 844.398 509.492 850.262 509.492C855.274 509.492 868.515 519.044 871.542 524.814C874.095 529.731 870.123 527.935 862.935 520.936C858.017 516.112 855.274 514.221 852.721 513.748C847.235 512.708 846.952 513.559 851.586 517.058C855.936 520.274 855.936 520.368 853.572 520.652C852.153 520.841 849.6 520.179 847.897 519.139C846.195 518.099 843.169 516.774 841.088 516.112C837.21 514.883 833.143 511.762 833.143 510.06C833.143 509.492 832.198 506.182 831.157 502.683C829.739 498.427 828.509 496.157 827.374 495.778C826.334 495.4 825.577 494.265 825.577 493.13C825.483 486.983 822.267 484.335 821.227 489.631C820.47 493.036 818.957 493.414 818.957 490.198C818.957 487.739 816.687 485.375 815.268 486.321C814.701 486.604 813.377 489.915 812.242 493.698C811.202 497.481 809.215 502.304 807.891 504.574L805.622 508.641L802.311 506.749C800.514 505.614 798.812 504.763 798.717 504.763C798.528 504.763 797.299 506.466 795.88 508.546C793.516 512.046 793.421 512.708 794.461 516.112C795.124 518.193 796.353 520.558 797.393 521.409C800.136 523.962 799.663 529.731 796.164 535.217C794.556 537.771 792.286 539.946 791.151 540.135C785.098 541.364 783.301 541.364 781.126 540.23C778.383 538.622 774.128 538.433 771.763 539.757C770.344 540.513 770.155 541.27 770.723 544.202C771.006 546.188 771.763 548.647 772.331 549.687C772.898 550.728 773.655 553.47 774.033 555.74C774.979 561.698 777.532 566.806 781.504 570.778C792.192 581.654 798.623 592.625 797.677 598.111C797.015 601.894 799.19 605.582 802.69 606.433C806.851 607.474 812.999 614.567 813.755 619.39C814.133 621.566 815.268 624.781 816.214 626.389C818.862 630.74 827.28 638.306 833.333 641.805C837.683 644.264 839.48 646.061 842.223 650.601C845.817 656.843 860.571 673.11 863.597 674.245C864.543 674.623 866.718 675.947 868.421 677.177C873.906 681.244 874.568 681.149 875.23 676.136C875.514 673.677 876.176 669.8 876.743 667.435C877.311 665.071 878.446 660.531 879.108 657.221C880.621 650.411 885.917 642.372 891.119 639.157C896.226 636.036 896.604 632.631 893.673 618.255C891.97 609.933 891.97 608.703 893.2 605.677C894.429 602.65 894.807 602.461 897.55 603.029C900.293 603.596 900.86 604.258 902.563 609.554C904.076 613.999 906.062 617.026 910.98 622.511C916.749 628.943 917.79 629.605 920.911 629.605C923.653 629.605 924.788 629.037 926.112 626.956C927.153 625.538 931.125 622.7 935.097 620.525C941.718 616.931 942.569 616.175 946.541 609.46C949.567 604.447 951.648 601.894 953.54 601.326C957.039 600.097 957.512 598.205 955.81 592.814C954.769 589.599 954.58 587.14 955.147 584.87C955.715 582.316 955.526 581.181 954.58 580.33C952.31 578.439 953.067 576.074 957.701 570.683C960.917 566.711 964.038 564.441 969.523 561.604C973.685 559.429 978.319 557.726 979.737 557.726C981.534 557.726 982.858 557.064 983.521 555.74C984.372 554.132 984.183 553.281 982.196 550.633C979.17 546.755 974.063 532.853 974.063 528.691C974.063 523.868 966.307 509.208 962.524 506.844C957.417 503.723 954.485 499.845 953.351 494.833C952.688 492.185 950.513 486.604 948.338 482.349C944.933 475.255 944.082 474.309 939.637 471.945L934.813 469.297L934.53 462.96C934.341 457.569 934.53 456.34 936.232 454.638C937.272 453.597 938.975 452.746 940.015 452.746C941.056 452.746 941.907 452.273 941.907 451.8C941.907 449.53 938.88 445.18 935.192 442.059C932.071 439.411 930.179 438.559 925.923 437.992C921.573 437.519 919.965 436.763 916.938 433.925C914.952 432.034 912.682 429.196 912.02 427.494C911.264 425.886 909.561 423.9 908.143 423.238C906.63 422.576 904.454 420.022 903.13 417.563C899.253 410.376 897.739 409.241 892.632 409.241C888.471 409.241 887.903 408.957 885.539 405.647C884.12 403.755 881.756 400.54 880.243 398.648C878.446 396.378 877.594 394.014 877.594 391.839C877.594 388.055 876.27 386.448 870.028 382.759C867.38 381.151 865.394 379.071 864.165 376.328C862.368 372.639 853.194 363.844 851.018 363.844C849.694 363.844 849.978 365.546 851.775 368.384L853.383 370.937L851.018 368.951C849.789 367.816 847.046 366.019 844.966 364.979C842.885 363.938 840.142 361.952 838.913 360.628C834.373 355.805 825.388 350.792 819.146 349.657C815.836 349.09 811.958 348.144 810.634 347.671C809.215 347.104 804.487 346.063 800.136 345.307C795.407 344.456 786.706 341.807 779.14 338.781C772.047 335.944 765.71 333.579 765.143 333.579C764.575 333.579 763.44 332.539 762.589 331.215C761.454 329.418 760.225 328.85 757.577 328.85C755.685 328.85 751.429 328.188 748.024 327.337C743.485 326.297 739.702 326.108 733.554 326.581C725.704 327.148 725.137 327.053 721.732 324.784C718.8 322.703 717.192 322.325 712.558 322.419C709.437 322.419 706.127 322.892 705.276 323.365C704.33 323.838 701.776 324.594 699.601 325.067C697.331 325.54 693.264 326.486 690.522 327.053C685.793 328.094 685.414 328.094 683.523 326.013C681.631 324.027 680.969 323.932 670.566 324.216L659.595 324.594L659.311 320.055C658.933 314.664 660.162 312.772 664.04 312.772C668.58 312.772 674.254 308.895 674.254 305.774C674.254 305.49 668.391 305.585 661.297 305.868C651.272 306.247 647.584 306.814 645.409 308.044C640.301 311.07 636.045 311.165 629.047 308.706C623.94 306.814 620.819 306.341 612.779 306.341C607.294 306.341 601.336 305.868 599.539 305.301C597.742 304.733 593.297 304.26 589.797 304.26C583.934 304.26 583.366 304.071 583.934 302.463C584.785 299.815 582.231 299.626 572.017 301.801Z" fill="black"/>
<path d="M132.329 344.076C129.587 345.211 128.546 346.535 128.546 349.372C128.546 351.642 133.559 356.277 136.113 356.277C136.964 356.277 138.288 356.939 138.95 357.695C139.99 358.925 140.368 358.925 140.936 357.979C143.017 354.763 141.031 345.589 138.004 343.982C135.923 342.847 135.45 342.847 132.329 344.076Z" fill="black"/>
<path d="M151.907 358.735C151.623 359.113 152.38 360.153 153.609 361.194C155.217 362.423 155.879 363.937 155.879 366.017C155.879 367.72 156.257 370.557 156.73 372.354L157.676 375.664L158.905 372.732C159.567 371.124 161.459 369.044 163.256 368.098C167.039 366.017 167.228 364.126 163.823 363.275C162.31 362.896 159.662 361.572 157.865 360.343C154.555 358.167 152.947 357.694 151.907 358.735Z" fill="black"/>
<path d="M132.424 367.911C131.006 369.708 133.181 378.977 135.072 378.977C137.815 378.977 142.733 375.099 142.733 372.829C142.733 368.479 135.072 364.885 132.424 367.911Z" fill="black"/>
<path d="M159.189 377.846C156.92 379.359 159 392.221 161.648 392.221C162.027 392.221 163.067 392.505 163.824 392.789C164.864 393.167 165.621 392.316 166.377 389.951C167.323 386.925 167.228 385.979 165.431 382.385C164.391 380.115 162.783 377.94 162.027 377.656C160.23 376.994 160.419 376.994 159.189 377.846Z" fill="black"/>
<path d="M172.714 387.112C171.863 388.057 173.754 391.084 175.835 392.219C177.821 393.259 181.509 392.03 181.509 390.327C181.509 388.719 173.943 385.977 172.714 387.112Z" fill="black"/>
<path d="M676.429 480.174C673.498 481.309 673.781 483.012 677.186 485.66L679.929 487.93V485.092C679.929 483.485 680.213 481.593 680.496 480.742C681.158 479.039 679.74 478.85 676.429 480.174Z" fill="black"/>
<path d="M685.982 484.145C683.428 485.374 682.766 488.495 682.766 499.75C682.766 508.356 682.861 508.924 685.604 511.95C687.117 513.653 688.63 516.584 689.008 518.476C689.576 521.881 690.143 522.165 693.832 521.219L696.007 520.651L694.116 518.003C693.075 516.49 692.224 514.315 692.224 513.085C692.224 511.194 692.886 510.626 696.196 509.87C699.128 509.207 700.641 508.262 701.871 506.181C703.479 503.344 703.479 503.06 700.263 493.413L697.142 483.483L692.508 483.293C690.049 483.199 687.022 483.577 685.982 484.145Z" fill="black"/>
<path d="M654.393 493.317C654.393 494.736 659.217 498.141 661.108 498.141C663.378 498.141 663.567 493.885 661.392 493.033C659.122 492.182 654.393 492.371 654.393 493.317Z" fill="black"/>
<path d="M658.555 509.49C656.474 510.341 655.623 512.8 654.677 520.934C654.299 524.812 654.488 525.379 656.663 526.892L659.122 528.5L661.014 524.149C662.054 521.785 663.473 519.61 664.229 519.326C666.688 518.38 666.688 516.205 664.135 512.327C661.392 508.261 661.487 508.261 658.555 509.49Z" fill="black"/>
<path d="M223.123 636.786C220.286 639.624 217.259 642.083 216.314 642.461C215.462 642.745 214.422 643.88 214.138 645.015C213.76 646.15 211.585 648.892 209.126 650.973L204.775 654.945L208.369 660.147C210.923 663.93 213.098 665.821 215.746 666.956C218.867 668.186 219.907 669.321 221.421 673.009C223.028 676.698 224.163 678.022 227.663 679.63C231.73 681.616 244.592 684.359 249.888 684.453C252.253 684.453 252.442 684.169 252.442 680.765C252.442 678.779 251.969 675.847 251.402 674.144C250.361 671.307 250.172 671.212 245.065 671.212C240.431 671.118 239.485 670.834 237.877 668.753C235.418 665.254 236.269 657.688 239.674 654.567C242.606 651.824 242.795 648.892 239.958 647.946C236.648 647.001 234.472 644.636 234.472 642.177C234.472 639.435 231.257 632.814 229.554 632.247C228.892 631.963 225.96 634.044 223.123 636.786Z" fill="black"/>
<path d="M332.359 641.711C331.319 642.089 328.103 643.886 325.266 645.778C322.429 647.67 319.024 649.561 317.7 649.939C312.214 651.547 311.458 654.195 316.47 654.195C318.835 654.195 321.956 652.966 326.306 650.318C330.657 647.764 333.305 646.629 334.629 647.102C337.75 648.048 345.033 644.359 345.127 641.617C345.127 640.765 335.007 640.86 332.359 641.711Z" fill="black"/>
<path d="M218.111 688.902C216.881 690.226 216.881 690.699 218.678 693.82C219.719 695.712 220.759 697.414 220.948 697.603C221.516 698.36 225.771 693.82 226.244 692.023C226.528 690.794 225.771 689.943 223.123 688.902C219.908 687.673 219.34 687.673 218.111 688.902Z" fill="black"/>
<circle cx="575" cy="403" fill="#5CE50D"/>
<circle cx="872" cy="522" fill="#E52A0D"/>
<circle cx="122" cy="522" fill="#E52A0D"/>
<circle cx="428" cy="558" fill="#E52A0D"/>
</svg>
