<svg width="1000" height="1000" viewBox="0 0 1000 1000" fill="none" xmlns="http://www.w3.org/2000/svg">
<rect width="1000" height="1000" />
<path d="M385.911 217.611C382.968 218.656 380.213 222.074 380.213 224.638C380.213 226.158 379.454 227.677 378.124 228.532C376.035 229.957 376.035 230.052 377.649 232.426C379.454 235.275 380.688 235.465 386.006 233.85C388.571 233.091 389.71 232.236 389.71 231.001C389.71 228.722 391.894 228.817 400.441 231.476C406.424 233.375 407.849 233.565 410.698 232.616C412.502 231.951 415.921 231.096 418.2 230.716C420.574 230.336 423.708 229.007 425.133 227.772C426.652 226.538 429.121 225.493 430.641 225.493C433.11 225.493 433.395 225.208 433.395 222.359V219.225L425.608 219.605C420.859 219.795 414.307 219.415 409.178 218.466C400.916 217.041 388.855 216.566 385.911 217.611Z" fill="black"/>
<path d="M458.373 235.176C457.803 235.841 456.853 237.361 456.283 238.5C455.429 240.305 455.524 240.779 457.138 241.634C458.563 242.394 459.702 242.299 461.791 241.159C465.4 239.355 465.97 238.31 464.735 235.936C463.596 233.847 459.797 233.372 458.373 235.176Z" fill="black"/>
<path d="M607.47 245.623C602.626 248.092 601.677 250.086 604.241 252.081C605.286 252.84 606.425 254.645 606.71 256.069C607.66 259.963 613.738 263.477 619.436 263.477C625.798 263.477 628.742 262.052 629.407 258.538C630.737 251.606 630.547 251.321 622 247.237C617.631 245.243 613.453 243.534 612.788 243.629C612.028 243.629 609.654 244.578 607.47 245.623Z" fill="black"/>
<path d="M650.488 261.299C647.544 263.768 645.17 266.048 645.17 266.332C645.17 266.617 647.069 267.567 649.443 268.517C652.672 269.941 654.951 270.131 659.13 269.751L664.638 269.086L674.135 276.589C679.358 280.767 685.341 284.661 687.335 285.326C689.424 285.991 693.793 288.365 697.022 290.644C700.346 292.828 703.764 294.917 704.714 295.202C705.664 295.487 708.608 298.336 711.172 301.565C713.831 304.794 717.914 308.973 720.384 310.872C724.562 314.291 725.322 314.481 733.584 315.05C738.427 315.43 742.416 315.81 742.511 316C742.606 316.095 748.494 323.502 755.616 332.524C775.179 357.216 774.8 356.551 776.604 371.746C777.933 382.572 778.693 385.231 781.162 389.789C782.777 392.638 785.436 396.152 787.145 397.577L790.184 400.141L793.413 397.766C797.212 395.012 799.776 389.789 799.871 384.851C799.966 382.952 801.01 379.343 802.245 376.779C803.48 374.31 804.809 370.796 805.094 369.181C805.569 366.332 805.284 365.953 801.39 363.578C799.016 362.249 795.122 358.64 792.748 355.601C788.095 349.713 781.162 343.445 774.61 339.267C769.481 335.943 754.667 321.793 753.907 319.514C753.622 318.564 751.438 317.045 749.253 316.19C746.215 315.05 744.125 313.246 741.466 309.542C737.193 303.654 732.919 300.805 722.948 297.292C719.054 295.867 713.641 293.208 710.982 291.214C692.843 277.823 688.57 275.164 684.011 274.405C678.978 273.645 664.448 264.623 661.409 260.445C660.08 258.45 658.275 256.836 657.421 256.836C656.566 256.836 653.432 258.83 650.488 261.299Z" fill="black"/>
<path d="M23.8981 379.621C24.183 498.52 24.183 498.615 22.1887 500.419C21.144 501.369 20.2893 503.363 20.2893 504.978C20.2893 506.592 18.7699 510.581 16.8705 513.904C13.5467 519.887 13.5467 520.077 14.6863 524.731C15.636 528.244 16.9655 530.429 20.0044 533.278L24.088 536.981L24.183 573.354C24.2779 593.297 24.6578 627.105 24.9427 648.567L25.5125 687.504L30.4508 688.358C35.0092 689.118 35.579 689.023 38.238 686.744C43.1763 682.66 46.0253 682.565 53.3378 686.554C59.7005 690.068 59.7005 690.068 65.4935 689.023C68.7224 688.453 73.7556 687.979 76.6996 687.979C79.7385 687.979 85.6265 687.124 89.9 685.984C100.536 683.23 107.564 684.37 119.625 690.923L128.361 695.576L141.752 687.979C152.673 681.711 156.377 680.096 162.36 678.957C166.348 678.197 170.907 676.772 172.616 675.823C175.56 674.113 175.56 674.113 175.845 665.187L176.13 656.26L170.622 650.752C161.6 641.54 154.003 636.602 147.735 635.842C144.506 635.462 140.517 634.132 137.953 632.613C134.439 630.524 132.445 630.049 127.222 630.049C123.708 630.049 121.049 629.669 121.334 629.194C122.189 627.77 133.11 625.965 137.098 626.63C139.188 626.915 142.891 628.149 145.266 629.289L149.539 631.473L156.852 628.909C161.41 627.295 167.203 626.155 172.236 625.775C181.733 625.111 191.04 623.496 191.799 622.357C192.844 620.647 187.906 613.81 184.202 611.72C182.113 610.581 179.549 608.206 178.504 606.402L176.7 603.268L178.979 603.933C180.213 604.313 182.588 605.642 184.202 606.877C186.576 608.776 188.286 609.156 193.224 609.156C196.643 609.156 199.871 609.631 200.346 610.106C200.916 610.676 202.72 610.771 204.43 610.486C206.804 610.011 207.374 609.441 207.089 608.112C206.709 606.687 207.089 606.497 209.748 606.972C212.312 607.352 212.977 607.162 213.547 605.452C214.022 603.933 212.027 600.419 205.095 590.258C200.061 582.945 195.693 576.298 195.408 575.443C194.078 572.119 198.922 576.298 202.151 581.236C205 585.699 205.949 586.364 214.686 590.068C226.082 595.006 229.026 595.006 230.641 590.163C232.065 585.889 233.87 585.604 237.288 589.213C239.378 591.397 240.802 592.062 243.651 592.062H247.355L244.886 587.979C241.657 582.376 241.847 580.571 245.266 583.895L248.02 586.459L248.684 582.945L249.349 579.337L251.248 582.376C253.433 585.794 254.477 586.079 256.946 583.8C258.561 582.376 258.751 582.376 260.365 583.8C261.315 584.655 263.404 585.604 264.924 585.984C267.203 586.459 267.963 586.174 268.722 584.56C269.292 583.23 269.957 582.85 270.907 583.42C271.951 584.085 271.951 584.845 271.002 587.789C270.052 590.638 270.052 591.587 271.097 592.537C272.331 593.772 289.615 597.76 293.604 597.76C294.648 597.76 297.687 599.28 300.441 601.084C305 604.218 305.854 604.408 312.882 604.408C318.96 604.408 321.714 604.978 327.507 607.257C331.495 608.871 336.719 610.581 339.188 611.055C341.657 611.625 344.601 612.195 345.645 612.48C346.785 612.765 348.21 614.284 348.969 615.994C349.634 617.703 352.198 621.217 354.572 623.876C357.041 626.535 359.89 631.188 361.125 634.322C362.739 638.311 365.304 642.015 369.672 646.668C384.202 662.053 383.632 661.198 382.208 663.477C381.068 665.281 381.448 665.946 387.336 671.834C391.704 676.203 394.933 678.672 398.257 679.811C402.626 681.426 402.91 681.616 402.341 684.18C401.581 688.263 402.626 691.302 405.285 692.537C406.614 693.107 408.608 695.481 409.748 697.665C412.407 702.888 412.312 702.888 413.737 700.989C414.781 699.47 415.731 699.944 423.613 705.547C433.585 712.575 440.422 720.647 441.467 726.535C442.417 731.473 442.512 731.663 449.064 737.266C453.718 741.255 455.427 742.11 458.371 742.11C460.84 742.11 463.309 743.059 466.158 744.959C469.672 747.428 471.192 747.808 476.415 747.808C481.733 747.808 482.777 747.523 483.917 745.718C485.342 743.629 485.342 743.629 489.14 745.338C491.229 746.193 493.699 748.282 494.553 749.802C495.978 752.176 496.738 752.556 498.732 752.176C500.156 751.891 504.145 751.226 507.659 750.657C511.173 750.087 515.066 749.327 516.301 748.852C518.2 748.093 519.625 748.757 525.133 752.556C528.741 755.12 532.16 757.209 532.825 757.304C533.395 757.304 536.529 756.165 539.663 754.835L545.361 752.366L550.204 755.31C553.908 757.589 556.092 758.254 559.795 758.254C562.455 758.254 565.494 758.919 566.728 759.678C568.153 760.628 572.426 761.388 578.789 761.768C586.386 762.148 589.71 762.812 593.034 764.522C595.408 765.661 599.017 766.896 601.106 767.276C606.709 768.225 607.184 768.51 606.519 770.22C606.044 771.359 605.19 771.644 602.436 771.169C600.061 770.79 598.542 771.074 597.877 771.834C597.117 772.784 598.922 774.208 605.664 778.007C614.022 782.66 614.781 782.945 621.334 782.945C626.842 782.945 629.596 782.376 635.104 780.096C648.589 774.493 648.494 772.689 634.724 766.706C629.406 764.522 625.228 762.148 625.228 761.388C625.228 759.678 630.451 759.394 639.093 760.723C642.322 761.198 644.126 760.818 648.589 758.634C653.908 756.165 654.003 755.975 651.343 755.69C642.891 754.835 640.422 754.265 640.422 753.221C640.422 752.366 639.188 752.176 636.624 752.366C629.311 753.126 624.373 751.701 620.099 747.808C616.396 744.389 615.826 744.199 607.564 743.534L598.922 742.869L591.989 735.937C586.481 730.334 585.247 728.624 585.816 727.01C586.291 725.3 587.146 725.016 591.989 725.016C596.548 725.016 598.067 724.636 600.441 722.546C602.056 721.217 603.385 719.792 603.385 719.318C603.385 718.938 601.106 717.323 598.447 715.709C593.699 713.145 592.559 712.955 579.833 712.385L566.253 711.815L559.036 707.257C555.047 704.788 551.438 702.508 551.059 702.224C550.584 701.939 550.014 700.039 549.729 697.95C549.159 694.341 549.539 693.772 554.857 687.219L560.65 680.191L559.036 677.437C557.896 675.538 556.377 674.493 554.003 674.113C552.198 673.829 548.969 673.164 546.88 672.689C543.461 672.024 542.796 672.214 540.232 674.683C537.763 677.057 536.529 677.532 532.825 677.532C529.691 677.532 528.172 678.007 527.792 678.957C526.937 681.141 520.669 680.666 513.927 678.007L507.944 675.633L505.285 664.237L502.626 652.936L497.877 649.327C491.704 644.674 487.526 638.216 487.526 633.278C487.431 631.283 486.291 625.965 484.867 621.502L482.208 613.43L476.32 612.005C471.571 610.866 470.242 610.106 469.862 608.491C469.292 606.307 468.153 605.927 459.416 604.883L454.477 604.218L451.533 597.76C447.83 589.783 445.645 587.789 429.881 578.197L417.535 570.695L416.871 562.243C416.301 554.55 415.921 553.316 412.977 549.327C411.267 546.953 408.608 544.389 407.279 543.629C404.905 542.3 404.81 542.015 405.38 536.981C406.329 527.865 406.804 526.535 409.083 525.965C410.318 525.68 419.055 525.87 428.646 526.44C445.266 527.39 446.215 527.295 449.159 525.585C450.774 524.541 453.623 523.686 455.427 523.686C457.326 523.686 460.27 523.021 462.17 522.262L465.494 520.932L464.259 515.424C463.499 512.385 462.455 507.447 461.885 504.503C461.03 500.039 460.27 498.71 457.801 497.19C456.092 496.146 453.243 492.917 451.438 489.973C449.064 486.269 446.31 483.515 442.227 480.856C433.395 475.063 429.881 474.113 422.474 475.253C415.731 476.298 414.211 475.823 404.24 469.555C401.296 467.656 398.542 466.706 396.168 466.706C393.319 466.706 390.185 465.187 381.733 460.058C372.901 454.645 370.242 453.411 367.013 453.411C364.354 453.411 360.84 452.271 356.187 449.897C350.774 447.143 346.88 445.908 337.478 444.389L325.607 442.395L325.323 438.786C325.038 435.747 325.512 434.607 327.982 432.043L331.021 428.909L329.976 416.374L329.026 403.838L321.049 395.576C316.681 391.112 310.793 384.94 307.944 381.996C302.91 376.583 302.626 376.488 295.883 375.538C289.52 374.683 288.286 374.113 282.398 369.46C278.789 366.706 273.471 361.768 270.527 358.539C266.823 354.55 264.354 352.746 262.834 352.746C257.421 352.746 253.528 350.087 250.109 344.009C245.93 336.696 244.316 336.127 229.311 337.361L218.39 338.216L210.603 331.378C206.139 327.39 201.676 324.161 199.966 323.781C198.352 323.496 196.263 322.167 195.313 320.837C192.749 317.323 165.588 308.112 157.896 308.112C153.243 308.112 146.88 306.402 123.993 298.995C98.0671 290.543 95.503 289.498 91.9892 286.174C88.5704 282.945 87.5258 282.47 83.5372 282.47C80.0234 282.47 78.1241 281.901 75.8449 280.096C74.1355 278.862 68.5324 276.203 63.4042 274.303C58.1811 272.309 50.2039 268.795 45.4555 266.326C38.428 262.622 35.6739 261.673 30.2608 261.198L23.6132 260.628L23.8981 379.621Z" fill="black"/>
<path d="M654.667 280.385C651.438 281.904 650.773 284.183 653.717 283.614C655.427 283.234 660.935 283.234 663.689 283.614C666.538 284.088 666.538 281.05 663.689 279.815C660.365 278.296 658.56 278.39 654.667 280.385Z" fill="black"/>
<path d="M739.186 361.77C737.857 362.53 735.673 363.099 734.343 363.194C732.349 363.194 731.684 363.764 731.304 366.043C730.734 368.607 730.354 368.892 727.031 368.892C724.182 368.892 722.757 368.228 720.193 365.569L716.964 362.245L708.417 362.34C695.597 362.435 695.597 362.34 701.2 370.792C703.859 374.685 705.948 378.864 705.948 380.098C705.948 381.238 706.613 383.232 707.372 384.467C708.607 386.366 711.361 407.544 710.506 408.399C710.316 408.494 705.473 409.158 699.775 409.728C693.982 410.298 687.145 411.722 684.485 412.672C680.212 414.381 678.977 415.521 674.229 422.359C670.145 428.342 668.911 431.001 668.911 433.66C668.911 439.168 666.632 440.972 658.749 441.637C652.102 442.302 651.817 442.397 649.348 445.91L646.879 449.519L639.376 445.815C635.293 443.726 631.399 442.017 630.734 442.017C630.069 442.017 627.79 443.346 625.796 444.866C619.813 449.424 617.534 448.854 611.836 441.257C607.467 435.369 607.088 434.609 607.467 430.431C607.657 427.677 608.797 424.448 610.411 422.074C613.355 417.515 613.355 417.705 610.791 417.041C606.993 415.996 601.674 420.269 597.686 427.392L594.077 433.85L596.736 438.123L599.395 442.397L594.077 446.385C589.044 450.184 588.569 450.374 585.815 449.234C579.737 446.67 576.603 446.67 572.14 449.139C568.626 451.229 566.822 451.513 559.509 451.513C551.342 451.513 550.772 451.418 544.504 447.715C540.896 445.626 537.572 443.916 537.002 443.916C536.432 443.916 533.583 444.961 530.639 446.29C526.746 448 524.846 448.38 523.612 447.715C521.333 446.48 514.02 446.48 510.696 447.715C508.417 448.569 507.657 448.38 504.428 445.72C498.541 441.067 494.742 443.061 493.127 451.988C492.558 455.217 492.843 456.262 495.312 459.871C498.636 464.714 502.624 466.708 513.64 469.082C519.908 470.507 521.997 471.456 525.986 474.78C528.645 476.965 532.539 479.719 534.818 480.858C537.097 481.998 539.661 484.182 540.516 485.796C541.371 487.316 542.415 488.55 542.7 488.55C542.985 488.55 544.599 487.506 546.404 486.176C549.063 484.182 550.677 483.802 555.805 483.802C563.593 483.802 566.537 485.417 572.045 492.919L576.128 498.522L589.994 498.427C597.591 498.332 605.948 497.857 608.417 497.192C610.981 496.623 613.45 496.338 614.02 496.718C614.495 497.003 617.059 497.857 619.623 498.522C624.087 499.757 624.656 499.662 629.785 497.287C632.729 495.958 637.192 493.679 639.566 492.159C642.51 490.355 645.264 489.5 647.923 489.5C651.342 489.5 652.102 489.12 653.526 486.556C656.47 481.238 656.945 480.953 664.353 479.624C670.715 478.579 672.9 477.629 680.687 472.501C685.625 469.177 691.893 464.239 694.647 461.295C699.205 456.547 699.395 456.072 697.971 454.457C697.116 453.508 696.451 451.893 696.451 450.754C696.451 448.854 696.736 448.759 706.233 449.234C713.165 449.614 716.204 450.089 716.964 451.134C719.053 453.793 723.327 452.558 732.349 446.765L741.086 441.162V436.984C741.086 432.995 740.801 432.71 735.483 428.816C729.31 424.353 728.075 421.504 729.88 416.281L730.924 413.242L739.186 413.812L747.448 414.476L752.767 407.734C758.939 399.947 760.174 395.293 757.895 388.55C756.945 385.607 756.755 383.137 757.325 379.719C758.56 372.121 758.37 370.887 755.9 369.747C754.286 368.987 753.146 368.987 751.722 369.747C749.728 370.792 748.683 369.652 748.683 366.043C748.683 364.809 743.08 360.155 741.75 360.345C741.655 360.44 740.516 361.01 739.186 361.77Z" fill="black"/>
<path d="M338.524 388.357C336.625 391.206 336.34 392.251 337.099 394.34C338.049 396.999 339.379 397.189 344.887 395.955C346.881 395.48 347.071 395.005 346.786 390.446C346.501 385.698 346.406 385.508 343.652 385.223C341.278 385.033 340.423 385.603 338.524 388.357Z" fill="black"/>
<path d="M897.117 418.465C895.977 419.7 894.647 422.169 894.173 423.973C893.413 426.917 893.793 428.247 896.927 434.609L900.63 441.922L903.479 440.972C906.043 440.023 906.328 439.548 906.328 435.844C906.328 429.671 904.429 422.074 902.245 419.035C899.871 415.806 899.586 415.806 897.117 418.465Z" fill="black"/>
<path d="M411.363 427.485C408.229 429.479 407.184 434.892 409.559 437.646C411.933 440.495 418.295 442.964 420.29 441.92C423.234 440.305 422.569 434.037 418.96 429.574C415.636 425.395 414.972 425.3 411.363 427.485Z" fill="black"/>
<path d="M459.132 445.149C457.233 446.099 457.043 446.669 457.422 449.992C457.897 453.031 459.132 454.931 464.83 460.629L471.762 467.656L474.422 465.092C476.606 463.003 477.081 461.768 477.081 457.97C477.081 453.791 476.796 453.316 473.567 451.227C463.405 444.864 461.506 444.104 459.132 445.149Z" fill="black"/>
<path d="M910.129 446.768C910.129 447.908 909.464 449.997 908.704 451.516C907.09 454.65 906.52 465.002 907.66 471.269C908.324 474.688 909.084 475.733 912.313 477.822C914.497 479.152 919.056 482.855 922.474 485.894C925.893 489.028 930.357 492.447 932.446 493.492C935.105 494.821 936.72 496.436 937.859 499.095C939.474 502.893 939.474 502.893 937.099 503.938C935.295 504.793 934.82 505.742 934.82 508.306C934.82 511.061 935.77 512.39 942.038 518.278C946.026 522.077 951.724 526.35 954.668 527.87C959.796 530.529 960.271 530.624 970.813 530.054C983.158 529.484 984.963 528.534 985.817 522.172C986.672 515.904 984.678 511.44 977.08 502.324C971.572 495.771 967.964 492.637 961.411 488.363C955.618 484.66 951.914 481.431 949.54 478.202C947.261 474.973 945.267 473.264 943.272 472.884C940.138 472.219 938.334 469.275 937.289 463.482C936.53 459.304 931.971 452.086 929.597 451.137C928.742 450.852 926.558 450.567 924.754 450.567C922.949 450.567 918.961 449.237 915.827 447.718C910.319 444.964 910.129 444.964 910.129 446.768Z" fill="black"/>
<path d="M670.812 635.845C669.482 636.32 667.678 637.934 666.823 639.359C665.208 642.018 665.303 642.113 668.057 643.727C670.242 645.057 670.812 646.007 670.812 648.571C670.812 650.47 670.242 652.179 669.387 652.654C668.152 653.319 668.247 653.794 670.337 655.693C671.761 657.118 673.091 657.593 673.566 657.023C674.04 656.548 674.8 651.325 675.085 645.437C675.845 633.946 675.845 633.946 670.812 635.845Z" fill="black"/>
<path d="M766.727 673.162C766.727 673.352 768.626 674.492 771 675.631C773.849 676.961 776.033 678.955 777.458 681.329C779.072 684.178 780.402 685.223 783.631 686.173C787.334 687.217 788.189 687.122 791.988 685.318C794.267 684.178 796.166 682.849 796.166 682.374C796.166 680.475 788.284 674.872 784.295 673.827C780.402 672.877 766.727 672.308 766.727 673.162Z" fill="black"/>
<path d="M617.156 685.316C610.698 688.735 608.419 694.053 611.363 699.276C612.692 701.651 620.005 706.969 621.904 706.969C622.664 706.969 623.328 704.785 623.708 701.366C624.183 696.997 623.898 694.718 622.379 690.445C620.005 684.367 619.72 683.987 617.156 685.316Z" fill="black"/>
<path d="M629.975 699.283C629.975 701.752 630.734 703.177 633.298 705.456L636.527 708.4L633.583 711.439C628.93 716.187 630.544 716.852 643.08 715.427C653.241 714.288 653.526 714.288 656.185 716.377C658.56 718.276 658.939 718.276 659.699 716.852C660.269 715.902 660.174 714.478 659.604 713.148C659.034 711.914 658.845 710.014 659.129 708.875C659.984 705.551 655.236 701.277 650.582 701.277C648.303 701.277 645.739 700.517 643.935 699.188C642.035 697.763 638.901 696.814 635.483 696.529L629.975 695.959V699.283Z" fill="black"/>
<path d="M653.149 725.111C653.434 726.726 653.719 728.53 653.719 729.005C653.719 729.48 654.954 730.335 656.473 730.809C658.183 731.379 659.512 732.709 659.797 734.133C660.177 735.463 661.317 738.787 662.361 741.636C664.071 746.289 664.545 746.859 667.015 746.859C668.534 746.859 672.048 747.714 674.707 748.758C677.366 749.898 679.74 750.563 679.835 750.468C680.88 749.423 685.058 737.552 685.058 735.843C685.058 730.999 678.98 731.759 677.936 736.602C676.606 742.395 672.997 742.775 670.054 737.457C668.914 735.463 665.875 732.139 663.311 730.24C660.747 728.245 658.088 725.681 657.423 724.447C656.758 723.212 655.429 722.167 654.384 722.167C652.77 722.167 652.58 722.642 653.149 725.111Z" fill="black"/>
<circle cx="427" cy="715" fill="#5CE50D"/>
<circle cx="701" cy="404" fill="#E52A0D"/>
<circle cx="133" cy="627" fill="#E52A0D"/>
<circle cx="334" cy="442" fill="#E52A0D"/>
</svg>
