<svg width="1000" height="1000" viewBox="0 0 1000 1000" fill="none" xmlns="http://www.w3.org/2000/svg">
<rect width="1000" height="1000" />
<path d="M463.691 13.452C460.736 15.4538 462.356 18.2183 467.313 19.6482C470.65 20.6968 471.317 20.6015 473.033 19.0763C475.416 16.9791 475.416 15.5492 473.224 13.5473C471.031 11.5454 466.455 11.4501 463.691 13.452Z" fill="black"/>
<path d="M450.726 30.61C450.059 33.2792 451.584 36.7109 453.395 36.7109C454.921 36.7109 455.874 33.6605 455.207 31.0866C454.444 28.2268 451.394 27.9408 450.726 30.61Z" fill="black"/>
<path d="M493.051 42.149C490.763 45.0088 490.858 47.9639 493.241 49.4892C495.243 50.6331 497.912 48.5359 500.105 44.0555C501.153 41.7677 501.249 40.9097 500.391 40.3378C498.103 38.9078 495.052 39.6705 493.051 42.149Z" fill="black"/>
<path d="M459.115 44.4366C457.589 46.0572 457.589 46.5338 458.733 47.2011C461.498 48.917 464.167 48.2497 464.644 45.7712C464.93 44.5319 464.93 43.1973 464.644 42.9114C463.5 41.8628 460.831 42.53 459.115 44.4366Z" fill="black"/>
<path d="M422.511 65.6864C419.556 68.7369 417.554 70.0715 415.743 70.0715C412.597 70.0715 412.216 71.0247 411.548 80.8435C410.69 91.8061 409.451 96.8585 405.257 105.819C403.255 110.109 400.967 116.019 400.204 118.879C399.442 121.834 398.203 125.552 397.345 127.077C395.152 131.272 395.438 135.371 398.203 140.518C401.253 146.238 402.492 153.864 402.492 166.638V177.029L399.251 180.747L396.105 184.464L396.487 202.386C396.963 219.926 396.963 220.307 399.632 224.692C402.397 229.173 402.111 231.175 398.679 231.175C397.821 231.175 395.724 232.414 393.913 234.035C388.765 238.324 381.52 237.562 381.52 232.605C381.52 229.935 379.232 227.552 372.75 223.358C369.128 221.07 368.174 219.926 368.174 217.924C368.174 216.494 367.602 214.588 366.935 213.73C365.887 212.205 365.601 212.205 363.789 213.539C361.978 214.778 361.692 216.113 361.216 225.169C360.93 230.889 360.453 236.608 360.072 237.943C359.5 239.945 359.976 240.707 362.836 242.709C366.744 245.379 367.126 247.19 367.602 266.446C367.888 279.506 368.079 280.268 374.371 288.371C377.898 293.042 378.47 294.377 379.042 300.287C380.186 312.489 380.758 315.539 382.283 317.16C384.094 319.257 387.145 319.353 390.004 317.351C392.769 315.349 394.58 316.779 392.96 319.829C391.148 323.166 392.578 327.265 395.819 327.932C397.917 328.409 399.346 329.743 401.253 333.366C404.589 339.276 408.975 342.326 411.548 340.42C414.027 338.609 414.694 329.171 412.597 324.214C411.072 320.592 411.072 320.401 413.074 318.304L415.171 316.111L419.079 318.876C421.272 320.401 426.324 322.594 430.423 323.738C436.715 325.549 438.049 326.311 439.765 329.076C441.481 331.745 441.672 332.794 440.719 334.7C439.67 337.083 435.571 337.941 434.427 336.035C433.188 334.033 431.186 335.177 430.519 338.323C430.137 340.706 428.04 343.47 422.797 348.523L415.647 355.482L417.077 368.256C417.935 375.31 418.793 381.22 419.079 381.601C419.842 382.364 424.418 377.884 424.418 376.358C424.418 374.261 428.803 374.928 431.853 377.502C433.664 379.028 435.094 381.411 435.762 384.271C436.619 387.607 437.191 388.465 438.049 387.607C439.861 385.796 442.148 386.368 446.248 389.8C450.633 393.422 458.163 395.71 462.835 394.661C464.55 394.375 468.173 393.803 470.937 393.517C475.322 393.136 475.894 392.85 475.894 390.848C475.894 389.609 474.941 387.798 473.702 386.844C470.27 384.08 471.509 382.078 477.515 380.743C480.47 380.076 484.093 378.456 485.618 377.216C488.096 375.119 488.954 374.928 493.816 375.5C500.965 376.358 510.308 381.887 517.076 389.323C521.461 394.185 522.986 395.138 528.992 397.044C538.143 399.904 540.812 403.145 541.861 412.678C542.624 420.114 544.625 422.687 549.487 422.783C553.205 422.783 554.444 420.018 553.586 413.345C552.824 406.863 551.203 403.241 546.818 398.093C543.767 394.566 543.481 393.803 543.672 388.751C543.767 385.033 543.196 381.601 541.766 378.17C540.717 375.405 539.764 372.545 539.764 371.783C539.764 368.732 543.767 370.639 550.536 376.93C554.444 380.553 558.543 383.985 559.687 384.652C560.831 385.224 562.833 388.084 564.072 390.943C566.074 395.519 566.646 396.091 569.22 396.091C570.84 396.091 573.319 397.14 575.226 398.665C580.945 403.336 592.67 414.585 594.672 417.54C596.579 420.114 596.674 420.59 595.34 423.069C594.577 424.594 594.1 427.073 594.291 428.693C594.577 431.458 594.958 431.839 599.439 432.792C602.108 433.364 605.73 434.985 607.542 436.319C609.353 437.654 612.403 438.988 614.405 439.274C616.312 439.56 619.076 440.704 620.506 441.753L622.985 443.755L627.846 439.656C634.329 434.127 634.519 434.031 638.428 434.794C643.766 435.747 642.431 440.895 636.902 440.895C632.136 440.895 631.278 441.753 631.278 446.519C631.278 452.144 632.327 453.669 636.235 453.669C638.809 453.764 639.476 454.146 639.667 456.052C640.048 458.626 642.527 462.82 643.671 462.82C644.052 462.82 645.958 460.342 647.96 457.387C652.059 451.286 653.299 444.803 651.297 440.037C650.439 437.749 650.439 436.796 651.773 434.222C652.631 432.602 653.203 429.646 653.013 427.74C652.822 424.88 652.25 424.117 650.629 423.927C649.009 423.641 648.437 424.117 648.437 425.547C648.437 426.596 647.77 428.121 646.912 428.884C645.577 430.314 645.196 430.218 642.622 427.454C640.143 424.785 639.381 424.499 634.9 424.689C625.368 425.071 624.7 424.308 628.514 416.968C629.562 414.775 630.325 412.964 630.134 412.869C629.943 412.773 628.704 411.915 627.274 411.058C625.463 409.914 624.605 408.579 624.605 406.958C624.605 403.431 619.362 397.044 616.407 397.044C614.882 397.044 613.738 396.186 612.689 394.185C609.353 387.702 611.831 386.082 625.463 386.082H635.472L637.188 383.127L639 380.076L626.13 373.785C619.076 370.353 612.785 367.493 612.117 367.493C611.45 367.493 610.211 368.16 609.353 368.923C608.018 370.067 607.16 370.162 604.491 369.209C600.678 367.97 599.82 366.921 599.82 363.394C599.82 360.248 598.295 360.057 592.48 362.441C588.285 364.156 586.951 366.54 590.192 366.54C592.67 366.54 592.956 367.874 592.289 375.882C591.431 385.033 589.239 386.654 582.852 382.745C579.897 380.934 579.706 380.553 580.278 376.74C581.326 370.067 578.753 362.441 573.796 357.198C570.745 353.861 569.411 351.573 568.934 348.523C568.457 345.091 568.076 344.519 566.646 345.186C565.788 345.663 559.211 345.949 552.156 346.044H539.287L534.807 349.285C531.089 351.955 530.231 353.098 530.231 355.482C530.231 358.913 528.134 362.441 523.939 365.968C519.459 369.685 511.356 369.495 503.253 365.491C496.199 361.964 492.1 358.341 492.1 355.672C492.1 354.528 491.051 351.478 489.907 348.904C488.668 346.235 487.334 342.612 486.952 340.801C486.666 338.99 485.332 336.035 483.997 334.128C481.137 329.934 481.709 326.502 485.522 324.214C488.764 322.308 488.859 321.736 486.38 319.543C485.332 318.685 484.474 317.065 484.474 316.016C484.474 315.063 483.235 312.775 481.709 311.059C480.279 309.343 478.468 306.197 477.801 304.1C477.134 302.003 476.085 299.62 475.418 298.857C474.75 298.095 473.892 296.093 473.607 294.472C473.225 292.852 471.605 290.278 470.079 288.752C465.313 284.272 463.025 278.838 465.885 278.838C466.648 278.838 468.364 277.218 469.603 275.216C470.842 273.309 472.653 270.926 473.607 270.068C480.184 264.253 480.565 263.681 481.137 259.392C481.709 255.96 481.519 254.53 480.279 253.195C478.087 250.717 478.373 247.666 481.519 241.184C485.522 233.177 487.429 231.27 493.816 229.364C496.866 228.41 501.251 226.313 503.539 224.597C508.401 221.07 509.259 221.833 506.494 227.266C502.109 235.846 505.16 236.322 512.405 228.22C516.885 223.263 517.743 221.833 518.029 218.02C518.887 208.773 522.7 197.143 526.609 192.281C531.184 186.657 535.855 175.408 536.523 168.735C537.095 163.302 536.904 162.444 534.616 159.107C533.281 157.105 532.138 154.627 532.138 153.674C532.138 150.814 527.371 145.38 524.893 145.38C521.08 145.38 516.027 136.515 514.883 127.745C514.502 124.599 513.835 120.786 513.453 119.356C513.167 117.83 513.263 115.066 513.835 113.159C514.407 111.158 515.265 106.391 515.837 102.483C516.694 96.8585 517.552 94.7613 519.65 92.4734C525.846 85.8958 526.323 83.1313 522.414 77.507C521.461 76.0771 520.031 73.4079 519.268 71.5967C516.98 66.163 513.072 67.307 513.072 73.3126C513.072 76.3631 506.399 82.464 502.014 83.5126C495.818 84.9425 492.291 84.4659 486.571 81.6061C483.616 80.1762 478.182 77.8883 474.464 76.7444C470.842 75.5051 463.692 71.978 458.735 68.8322L449.679 63.2079L441.577 62.9219C437.096 62.8266 431.948 62.4453 430.137 62.064C427.087 61.3967 426.515 61.6826 422.511 65.6864Z" fill="black"/>
<path d="M500.107 301.239C498.963 302.001 497.819 302.383 497.629 302.097C497.343 301.906 496.58 302.287 496.008 303.05C494.578 304.766 496.485 309.818 499.631 312.583C500.965 313.822 501.632 315.538 501.632 317.921C501.632 321.162 502.776 322.688 505.159 322.688C505.445 322.688 505.445 320.4 505.159 317.635C504.969 314.966 505.159 310.39 505.731 307.626C506.78 302.955 506.685 302.383 504.969 301.144C502.776 299.523 502.49 299.523 500.107 301.239Z" fill="black"/>
<path d="M649.199 359.108C647.769 360.156 647.769 361.395 648.531 369.022L649.485 377.792L646.053 384.56C644.242 388.373 642.907 391.805 643.193 392.281C643.956 393.521 648.055 393.521 650.343 392.281C651.582 391.614 653.012 391.614 654.728 392.377C656.253 392.853 659.017 393.044 661.019 392.758C664.165 392.186 664.832 391.614 666.548 387.801C667.597 385.418 668.455 381.7 668.455 379.603C668.455 376.362 667.787 375.027 663.688 370.738C661.115 367.973 658.922 364.923 658.922 363.874C658.922 361.586 655.109 357.964 652.63 357.964C651.582 357.964 650.057 358.536 649.199 359.108Z" fill="black"/>
<path d="M498.391 397.615C498.105 398.473 497.819 399.807 497.819 400.761C497.819 401.619 496.58 403.62 494.959 405.146C493.434 406.671 492.1 408.196 492.1 408.673C492.1 409.054 494.864 411.247 498.201 413.439C501.823 415.918 504.587 418.492 505.255 420.112C505.827 421.542 506.589 422.781 507.066 422.781C507.447 422.781 509.449 421.351 511.356 419.54C517.838 413.534 518.315 404.383 512.118 403.144C509.926 402.667 509.259 402 509.259 400.284C509.259 397.805 508.21 397.424 505.35 398.949C503.825 399.807 503.539 399.617 503.539 397.996C503.539 395.613 499.249 395.327 498.391 397.615Z" fill="black"/>
<path d="M431.757 402.769C428.801 405.152 422.51 405.247 411.071 403.245C398.297 400.957 398.487 400.957 396.771 408.298C395.913 411.634 396.39 411.92 402.968 412.492C405.256 412.683 405.923 413.255 406.114 415.161C406.304 416.972 408.592 419.165 414.884 423.741C419.459 427.172 423.558 430.795 423.844 431.844C424.13 432.892 424.893 437.563 425.56 442.234L426.704 450.718L432.233 455.961C436.809 460.346 437.762 461.776 437.762 464.35C437.762 468.545 445.102 478.363 449.202 479.889C450.822 480.365 452.443 481.89 452.919 483.13C453.396 484.369 455.112 485.989 456.828 486.657C459.497 487.705 459.973 487.705 461.88 485.894C463.024 484.846 465.502 483.606 467.314 483.13C470.078 482.367 470.841 481.604 471.794 478.459C472.366 476.457 472.938 473.406 472.938 471.69C473.033 469.784 474.082 467.401 475.798 465.494C477.228 463.778 479.039 461.395 479.611 460.156C481.041 457.391 480.088 452.434 477.704 450.146C475.131 447.668 475.226 437.754 477.8 433.464C480.564 428.984 480.278 425.838 477.132 424.599C470.65 422.025 468.458 420.5 467.028 417.544C465.026 413.35 456.828 408.488 451.775 408.488C448.248 408.488 442.624 406.2 437.572 402.673C434.521 400.481 434.712 400.481 431.757 402.769Z" fill="black"/>
<path d="M570.649 426.12C569.886 428.122 570.839 429.17 573.89 429.742C575.796 430.123 577.798 431.839 579.991 434.89C583.899 440.323 588.856 443.374 592.479 442.421C595.815 441.658 595.72 440.514 592.002 437.845C590.286 436.701 586.473 433.269 583.613 430.219C579.037 425.357 577.893 424.69 574.748 424.69C572.46 424.69 570.935 425.166 570.649 426.12Z" fill="black"/>
<path d="M615.167 451.952L611.83 453.382L615.357 456.909C617.264 458.815 619.647 462.438 620.696 464.916C622.316 468.729 624.89 471.398 626.892 471.398C627.178 471.398 627.464 469.683 627.464 467.585C627.464 464.916 626.987 463.582 625.653 462.819C624.604 462.342 622.983 459.483 622.03 456.432C620.982 453.477 619.838 450.903 619.266 450.808C618.789 450.617 616.978 451.189 615.167 451.952Z" fill="black"/>
<path d="M698.292 457.768C697.91 458.722 697.243 459.77 696.862 460.056C695.718 460.819 668.74 460.342 665.404 459.484C664.069 459.103 661.972 459.294 660.828 459.961C658.731 461.105 658.731 461.105 660.637 463.107C663.402 466.157 665.308 470.447 665.88 475.118C666.643 481.505 673.983 487.892 683.325 490.37C686.376 491.228 687.52 492.086 688.854 494.946C691.809 501.142 696.099 505.718 701.724 508.483C704.679 509.912 707.729 510.961 708.492 510.77C709.731 510.484 709.922 511.438 709.445 516.585C708.968 522.019 708.492 523.258 705.727 526.118L702.581 529.359L705.537 530.885C707.157 531.742 708.873 533.268 709.445 534.316C710.017 535.365 712.4 538.511 714.783 541.275C725.079 553.382 726.223 553.858 740.617 553.096L751.389 552.524L757.299 556.242C760.445 558.339 763.972 560.055 765.116 560.055C766.641 560.055 765.593 558.72 760.636 553.954C757.109 550.617 754.249 547.376 754.249 546.9C754.249 546.328 753.296 545.756 752.152 545.565C750.531 545.374 750.054 544.707 750.245 543.372C751.77 534.507 751.866 535.174 747.671 531.552L743.668 528.12L742.142 516.204C740.712 504.955 740.426 500.761 740.903 495.232C740.998 493.897 740.712 490.18 740.331 486.843C739.759 481.41 739.378 480.552 735.851 477.596C733.754 475.785 731.656 474.26 731.18 474.26C730.798 474.26 730.417 472.83 730.417 471.019C730.417 468.636 729.464 466.729 726.89 463.869C723.553 460.152 722.696 459.77 717.071 459.008C713.639 458.626 709.636 457.768 708.206 457.196C704.011 455.576 698.959 455.862 698.292 457.768Z" fill="black"/>
<path d="M512.404 461.295C509.734 463.011 509.353 463.869 509.258 467.396C509.258 469.683 508.495 472.829 507.637 474.355C506.207 476.738 506.112 477.691 507.161 481.409C507.828 483.792 508.304 486.938 508.304 488.368C508.304 489.988 509.258 491.99 510.592 493.229L512.88 495.422L513.548 486.938C513.929 482.362 514.882 475.308 515.74 471.399C518.314 459.007 517.837 457.577 512.404 461.295Z" fill="black"/>
<path d="M594.097 460.92C592.096 462.159 592.572 481.796 594.669 483.417C595.432 483.989 596.004 484.847 596.004 485.324C596.004 486.086 593.049 490.853 589.045 496.477C587.424 498.765 587.424 499.146 588.854 501.815C589.617 503.436 590.475 504.77 590.761 504.77C592.096 504.77 600.008 494.952 601.819 491.139C603.725 487.23 604.297 486.658 606.967 486.658C609.159 486.658 610.78 487.611 613.258 490.09C617.548 494.666 628.987 502.292 644.812 511.253L650.245 514.398L649.483 511.729C649.006 510.204 647.767 507.249 646.623 505.056C645.574 502.864 644.621 500.004 644.621 498.765C644.621 497.525 643.477 495.524 642.142 494.189C640.808 492.95 638.997 490.281 638.234 488.279C637.09 485.419 635.66 484.084 631.275 481.892C628.225 480.367 624.698 477.793 623.363 476.172C621.933 474.552 617.357 471.406 613.068 469.118L605.251 464.924L601.628 467.211C598.006 469.499 598.006 469.499 596.957 467.497C596.385 466.449 596.195 464.352 596.481 462.731C597.148 459.871 596.481 459.395 594.097 460.92Z" fill="black"/>
<path d="M539.383 468.45C537.571 470.452 537.571 470.547 539.764 472.835C541.003 474.17 542.433 475.218 543.005 475.218C543.577 475.218 545.674 476.267 547.581 477.602C551.68 480.366 553.586 480.557 554.826 478.46C555.969 476.362 555.207 473.121 552.824 470.071C549.869 466.448 542.052 465.495 539.383 468.45Z" fill="black"/>
<path d="M367.41 485.036L365.312 487.228L367.696 489.516C369.03 490.756 370.079 492.662 370.079 493.711C370.079 494.855 371.699 497.619 373.701 499.907C377.324 504.101 377.419 504.101 379.612 502.576C382.09 500.86 385.808 500.384 386.666 501.814C388.382 504.578 399.63 503.339 399.63 500.384C399.63 499.621 397.914 497.238 395.817 495.141C392.671 491.899 391.146 491.137 387.524 490.66C384.569 490.374 381.137 488.944 377.324 486.466C374.273 484.464 371.223 482.843 370.556 482.843C369.984 482.843 368.554 483.797 367.41 485.036Z" fill="black"/>
<path d="M365.505 504.487C367.412 508.777 372.178 517.166 372.941 517.642C373.417 517.928 373.608 520.025 373.227 522.599L372.655 526.984L375.705 525.173C379.518 522.981 380.185 521.741 381.043 516.117C381.711 511.827 381.615 511.732 378.946 511.16C377.326 510.874 374.275 509.063 372.083 507.252C368.46 504.201 364.647 502.676 365.505 504.487Z" fill="black"/>
<path d="M505.635 505.911C505.158 506.578 504.396 509.152 504.014 511.535C503.347 515.92 503.442 516.015 508.304 520.591L513.261 525.167L512.594 539.18C512.117 548.999 512.212 555.672 513.166 561.487L514.405 569.875L511.354 572.354C506.874 576.072 506.207 578.931 507.541 588.274C508.399 594.565 508.399 597.52 507.541 601.715C506.969 604.67 506.588 607.244 506.779 607.53C507.065 607.72 508.495 607.625 510.115 607.244C512.403 606.767 512.88 606.195 512.784 604.193C512.594 602.191 513.738 600.761 518.123 597.139C524.224 592.182 530.039 589.799 543.575 586.844C555.396 584.174 561.211 580.552 562.736 575.023C564.166 569.303 571.792 561.868 579.418 558.627C583.517 556.911 585.519 555.481 585.519 554.432C585.519 547.855 587.807 531.554 589.046 529.743C589.809 528.503 590.19 527.264 589.809 526.883C588.76 525.834 580.371 528.694 575.986 531.554L571.697 534.414L571.411 532.03C571.22 530.41 569.79 528.694 567.598 527.169C563.499 524.309 561.973 524.214 559.495 526.406C558.16 527.645 556.063 528.122 551.678 528.122C546.435 528.122 545.196 527.741 542.908 525.643C539.857 522.784 527.941 515.92 518.79 511.726C515.358 510.105 511.736 507.913 510.782 506.864C508.685 504.481 507.065 504.195 505.635 505.911Z" fill="black"/>
<path d="M670.838 519.923C669.313 524.88 674.746 531.267 679.513 530.123C681.61 529.551 681.896 529.075 681.61 525.929C681.419 523.164 680.657 522.02 678.083 520.305C674.174 517.635 671.601 517.54 670.838 519.923Z" fill="black"/>
<path d="M663.974 530.218C664.26 531.171 664.927 534.031 665.594 536.7C666.262 539.274 667.596 543.468 668.645 545.947C670.075 549.092 670.456 551.285 669.979 553.763C669.312 557.291 671.695 568.158 673.411 569.206C673.888 569.492 675.508 570.064 677.034 570.541C679.798 571.304 679.989 571.208 682.372 566.633L684.755 561.866L689.045 565.012C694.669 569.016 694.574 568.825 697.243 578.263L699.626 586.461L697.338 589.035C694.765 592.085 694.669 593.61 696.576 599.139C697.338 601.332 698.006 606.289 698.006 610.007C698.006 618.586 699.626 621.446 704.107 620.779C706.49 620.397 707.538 620.874 709.54 623.257C710.97 624.973 712.4 625.831 713.067 625.45C714.879 624.401 714.402 618.014 712.305 614.868C709.922 611.246 709.922 610.483 712.4 607.337L714.402 604.764L716.785 608.1C719.454 612.104 722.505 612.58 727.271 609.625L730.417 607.719L728.32 602.762C727.271 599.997 725.555 595.04 724.602 591.704C723.363 587.223 721.742 584.364 718.12 580.36C712.972 574.545 712.781 573.973 711.828 561.008C711.066 549.95 708.873 541.085 706.109 537.653C704.011 534.984 703.821 534.889 702.581 536.509C701.819 537.462 698.292 539.083 694.669 540.132C684.088 543.087 679.894 542.324 679.894 537.653C679.894 534.698 678.082 533.268 675.794 534.412C674.269 535.27 673.507 534.889 671.123 532.029C669.217 529.741 667.501 528.597 665.88 528.597C664.069 528.597 663.593 528.978 663.974 530.218Z" fill="black"/>
<path d="M359.403 538.898C354.541 541.853 356.352 543.188 363.788 542.33C368.554 541.758 369.126 541.472 369.126 539.47C369.126 537.468 368.65 537.182 365.599 537.182C363.597 537.182 360.833 537.945 359.403 538.898Z" fill="black"/>
<path d="M338.621 545.281C338.621 546.997 338.144 547.664 336.714 547.664C334.522 547.664 333.092 553.193 334.617 555.767C335.666 557.673 334.14 562.916 332.234 564.156C329.946 565.586 330.994 569.494 335.38 575.786C339.002 580.933 339.669 582.554 339.097 584.651L338.43 587.225L336.428 584.746C335.284 583.412 333.568 581.982 332.71 581.696C331.852 581.41 330.613 579.408 329.946 577.311C328.897 573.784 327.467 572.544 326.037 573.879C325.561 574.451 327.944 583.316 330.423 590.085L331.757 593.898L327.277 598.664C324.894 601.238 321.938 604.67 320.699 606.195C318.983 608.388 318.316 608.674 317.267 607.816C314.884 605.814 308.593 610.866 305.828 616.872C304.207 620.494 302.396 622.687 300.013 624.021C297.916 625.356 296.772 626.595 297.058 627.358C297.344 628.12 297.821 629.264 298.107 629.836C298.393 630.504 298.202 631.743 297.63 632.505C296.963 633.649 296.486 633.649 295.533 632.696C293.436 630.599 292.196 631.457 288.192 637.653C285.809 641.276 278.946 648.711 271.32 655.956C262.835 663.868 257.688 669.588 256.162 672.543C254.923 674.926 253.207 677.5 252.445 678.167C251.587 678.93 250.919 680.455 250.919 681.694C250.919 683.887 250.634 683.982 244.914 683.982C239.576 683.982 238.527 684.268 236.525 686.461C235.286 687.795 233.284 689.321 232.14 689.797C230.996 690.178 229.185 692.18 228.232 694.087C227.088 696.184 225.276 697.995 223.561 698.663C220.701 699.711 199.824 721.541 195.344 728.309C193.723 730.597 192.77 733.362 192.77 735.459C192.77 737.27 191.912 740.225 190.863 741.941C188.861 745.087 188.385 747.852 189.719 747.852C190.101 747.852 192.388 745.945 194.676 743.562C198.489 739.749 199.347 739.272 203.256 739.272C208.499 739.272 211.931 736.317 214.028 730.216C215.267 726.689 216.22 725.926 226.992 720.016C241.101 712.294 243.675 710.197 248.25 702.666C252.826 695.231 253.97 694.468 260.262 694.468C265.219 694.468 265.505 694.278 270.938 688.939C273.989 685.889 277.516 682.648 278.755 681.885C280.09 681.027 282.664 677.405 284.57 673.782C286.572 669.874 289.05 666.633 290.671 665.679C293.34 664.154 293.436 663.868 293.054 658.053C292.673 652.81 292.768 652.238 294.007 653.287C295.342 654.335 295.628 653.763 296.2 649.188C296.772 644.04 296.963 643.849 302.587 639.941C306.209 637.558 310.785 635.461 314.694 634.507L320.985 632.887L325.275 624.689C331.566 612.582 333.473 610.961 341.576 610.389C348.725 609.817 350.537 608.769 353.396 603.621C355.017 600.475 355.017 600.475 352.062 595.614C350.06 592.373 349.107 589.608 349.107 587.13C349.107 584.746 348.249 582.173 346.724 579.885C344.15 576.072 343.768 572.735 345.484 568.064C346.247 565.872 346.247 563.965 345.484 560.915C344.626 557.578 344.722 556.339 345.961 554.337C347.391 551.858 347.295 551.477 344.817 547.283C341.862 542.326 338.621 541.182 338.621 545.281Z" fill="black"/>
<path d="M644.05 544.521C643.669 545.475 642.43 548.62 641.095 551.48C639.665 554.626 638.521 559.392 638.235 563.396C637.854 569.02 636.996 571.499 632.992 579.125C630.323 584.082 626.034 593.52 623.269 600.097C620.6 606.675 614.976 617.542 610.876 624.406C601.344 640.039 599.342 648.333 601.344 663.395L602.011 667.875L605.633 664.348C608.589 661.488 609.351 660.058 609.351 657.294C609.351 654.815 610.4 652.241 613.164 648.428C615.738 644.71 618.026 639.467 620.409 631.841C624.89 617.542 629.561 610.965 637.663 607.628C641.286 606.198 643.764 604.387 645.576 601.908L648.149 598.286L646.815 589.897C645.671 582.652 645.671 580.841 647.006 575.121C647.768 571.594 648.435 565.207 648.435 560.822C648.531 556.437 648.912 551.004 649.389 548.62C649.77 546.237 650.151 544.331 650.056 544.235C649.961 544.14 648.721 543.854 647.196 543.473C645.194 542.996 644.432 543.282 644.05 544.521Z" fill="black"/>
<path d="M590.762 568.733C588.093 569.686 584.375 570.449 582.469 570.544C579.895 570.544 578.274 571.211 576.463 573.118C574.175 575.501 573.984 576.359 574.461 580.935C574.938 585.892 574.842 586.082 570.648 590.563C568.36 593.041 566.454 595.901 566.454 596.854C566.454 597.903 567.311 601.621 568.36 605.243C569.313 608.866 570.457 614.299 570.839 617.254C571.411 622.116 571.125 623.26 569.409 625.738C568.074 627.645 566.454 628.694 565.024 628.694C563.498 628.694 562.164 629.647 561.115 631.458C559.685 633.937 558.637 634.318 552.44 635.271C548.532 635.843 544.338 636.32 543.098 636.32C541.287 636.32 540.62 636.987 539.857 639.847C539.285 641.849 538.809 645.662 538.809 648.331C538.809 653.097 538.999 653.383 547.483 663.107C553.68 670.256 556.825 673.116 558.637 673.307C563.975 673.974 568.741 678.741 574.175 688.655C576.463 692.944 578.179 695.042 579.513 695.232C585.614 696.09 596.005 689.894 596.005 685.318C596.005 684.079 596.863 681.696 597.912 679.98C601.439 674.26 599.818 669.494 592.001 662.249L587.902 658.34L589.618 653.669C590.571 650.714 591.239 646.139 591.239 641.468C591.239 633.269 592.192 630.6 598.293 620.686C600.867 616.396 601.725 613.918 601.725 610.867C601.725 606.578 603.441 602.288 605.824 600.191C606.682 599.619 608.97 594.662 611.067 589.323C618.312 570.83 617.454 568.161 603.631 567.493C597.435 567.207 594.289 567.493 590.762 568.733Z" fill="black"/>
<path d="M550.343 589.798C544.624 596.757 543.861 598.949 545.672 602.667C546.816 604.955 547.483 605.336 550.248 605.05C553.68 604.86 556.921 602 556.921 599.331C556.921 598.473 557.874 595.899 558.923 593.611C560.543 590.37 560.829 588.749 560.162 586.843C558.541 582.363 555.777 583.22 550.343 589.798Z" fill="black"/>
<path d="M753.486 599.428C750.055 601.049 747.767 606.483 747.481 614.014C747.195 619.257 747.481 621.163 748.72 622.307C749.483 623.165 750.531 625.929 750.913 628.408C751.675 633.937 753.677 637.273 756.06 637.273C758.539 637.273 759.015 635.462 759.015 626.406C759.015 619.733 758.729 618.208 757.109 616.778C754.916 614.776 754.63 610.868 756.632 608.294C758.062 606.387 758.539 602.288 757.49 599.714C756.823 597.999 756.442 597.903 753.486 599.428Z" fill="black"/>
<path d="M659.399 619.539C658.351 620.207 655.968 621.255 654.061 621.923C651.01 622.876 650.534 623.543 649.962 626.689C649.199 631.837 646.721 634.41 639.285 638.224C635.663 640.035 632.517 641.655 632.326 641.751C632.136 641.941 632.708 643.943 633.661 646.326C635.377 650.997 635.091 651.951 630.801 655.573L628.895 657.289H630.992C632.136 657.289 634.233 656.812 635.758 656.24C637.188 655.668 645.196 655.192 653.394 655.097L668.36 654.906L672.936 650.521C676.082 647.375 678.655 645.85 681.134 645.468C684.47 644.801 684.756 644.515 684.089 642.704C683.708 641.56 683.231 637.938 683.136 634.601C682.945 627.166 681.706 625.545 677.035 626.308C673.698 626.88 673.412 626.689 672.268 623.829C670.267 619.158 663.308 616.775 659.399 619.539Z" fill="black"/>
<path d="M723.744 621.548C723.744 624.789 726.223 628.412 729.654 630.223C733.277 632.13 733.849 631.462 732.514 626.982C731.275 622.978 729.273 620.69 725.937 619.737C724.03 619.165 723.744 619.356 723.744 621.548Z" fill="black"/>
<path d="M782.179 627.454C778.557 630.886 776.174 634.223 776.174 636.034C776.174 637.368 786.469 643.946 788.852 644.232C790.568 644.423 791.045 643.851 791.236 641.277C791.426 638.989 791.14 638.226 790.092 638.226C788.185 638.226 788.185 637.845 789.996 634.413C791.331 631.839 791.331 631.267 790.092 628.884C787.422 623.737 786.374 623.546 782.179 627.454Z" fill="black"/>
<path d="M740.141 639.75C738.044 641.18 737.949 641.752 738.616 647.567C738.997 651.475 740.427 656.432 742.524 660.913C746.624 669.873 749.483 680.264 749.483 685.984C749.483 689.32 749.007 690.845 747.291 692.371C743.192 696.184 734.517 694.563 731.085 689.415C730.037 687.795 728.416 686.937 726.223 686.651L722.792 686.27V690.273C722.792 697.137 721.648 703.047 720.313 703.047C717.453 703.047 714.308 700.759 712.401 697.232C710.59 693.991 709.827 693.515 706.872 693.515C702.201 693.515 696.1 695.421 696.1 696.946C696.1 697.614 696.577 699.33 697.244 700.664C698.102 702.475 698.007 703.905 697.053 706.956C695.909 710.292 695.909 711.722 697.149 716.393C698.864 722.971 698.007 725.449 694.003 726.307C687.902 727.546 684.089 726.974 681.801 724.496C679.036 721.541 675.128 721.446 672.459 724.21C671.41 725.449 669.122 729.358 667.502 733.075C664.642 739.367 664.547 739.939 665.977 742.799L667.406 745.754L659.113 746.898C646.244 748.614 645.672 748.709 645.005 750.997C644.719 752.427 642.717 753.857 639.19 755.382C636.234 756.717 632.517 759.195 630.991 760.911C629.371 762.627 627.75 764.057 627.274 764.057C625.462 764.057 626.797 761.197 629.943 758.337C632.993 755.668 633.661 754.333 635.472 746.135L637.664 736.889L635.662 730.978C633.661 724.591 631.659 722.971 626.034 723.161C622.221 723.257 616.406 721.827 611.259 719.444C606.397 717.156 605.539 717.442 605.444 720.969C605.444 722.875 604.3 724.401 600.773 727.07C596.578 730.311 595.434 730.692 590.573 730.692C584.376 730.692 578.847 733.266 578.847 736.126C578.752 737.079 578.18 739.558 577.417 741.56C576.464 744.324 576.369 745.849 577.131 747.279C578.752 750.234 574.653 753.094 566.741 754.524C563.214 755.191 554.348 758.051 547.199 760.911C540.049 763.676 532.899 766.249 531.279 766.535C529.277 767.012 527.275 768.633 524.606 772.16L520.888 777.117L522.795 785.029C524.987 793.513 525.083 793.036 520.126 795.992C518.982 796.754 518.41 798.661 518.028 802.664C517.742 805.81 516.98 809.242 516.312 810.291C515.55 811.339 514.978 812.864 514.978 813.722C514.978 814.58 513.643 815.82 512.023 816.487C508.114 818.107 506.97 821.444 508.305 826.973C510.116 834.122 512.499 836.22 520.412 837.459C524.225 838.031 527.752 838.317 528.228 838.031C528.705 837.745 529.372 835.934 529.754 833.932C530.135 832.025 531.184 828.784 532.232 826.782C533.185 824.876 534.043 821.73 534.043 820.014C534.043 818.203 534.711 816.201 535.473 815.534C536.236 814.866 537.571 812.007 538.428 809.242C539.572 805.048 540.621 803.522 544.148 801.044C547.485 798.661 548.343 797.517 548.343 795.229C548.343 793.227 547.771 792.369 546.341 791.988C544.434 791.416 544.434 791.416 546.531 789.223C547.675 787.984 549.2 786.935 549.772 786.935C550.344 786.935 551.87 785.887 553.014 784.648C555.397 782.169 561.974 780.834 564.739 782.264C566.073 783.027 566.455 784.362 566.455 788.747C566.455 793.894 566.741 794.657 569.315 796.849C571.793 798.947 572.556 799.137 574.653 798.184C576.369 797.326 577.227 797.326 578.085 798.184C578.847 798.947 579.896 798.661 581.898 796.945C583.423 795.61 585.139 794.562 585.616 794.562C586.092 794.562 586.473 793.322 586.473 791.892C586.473 789.319 589.715 785.029 590.763 786.173C591.049 786.363 591.526 787.889 591.812 789.509C592.288 791.988 592.002 792.56 590.287 793.132C588.38 793.704 588.38 793.894 589.81 795.515C591.049 796.945 592.384 797.135 596.292 796.754L601.249 796.373L602.965 800.186C603.918 802.283 606.016 804.952 607.541 806.096C610.305 808.003 610.496 808.003 612.307 806.478C614.786 804.094 614.69 803.618 610.305 798.661L606.492 794.276L609.829 790.653C611.64 788.556 613.165 786.745 613.165 786.459C613.165 786.173 612.498 784.362 611.735 782.455C609.161 776.354 609.352 776.163 618.218 776.926C624.7 777.498 626.606 778.07 629.371 780.263C633.279 783.408 641.001 787.031 648.818 789.414C653.87 790.939 654.823 791.797 658.827 797.135C662.354 801.997 663.689 803.046 665.977 803.141C668.455 803.141 668.646 803.332 667.978 805.715C667.692 807.24 664.356 812.388 660.638 817.25C657.016 822.207 653.393 827.64 652.631 829.356C651.963 831.167 650.915 832.788 650.343 833.169C649.771 833.551 648.722 835.362 647.864 837.268L646.434 840.795L650.057 843.846L653.775 846.896L652.821 854.046L651.963 861.195L655.872 867.678C657.969 871.205 662.449 876.734 665.786 879.975C671.601 885.599 672.459 886.076 692.573 893.988C717.358 903.807 720.885 904.379 726.223 899.04C728.416 896.848 729.465 894.941 729.465 893.035C729.465 889.412 733.278 886.934 735.661 888.936C738.521 891.319 739.093 893.416 737.567 896.276C736.805 897.706 736.138 899.326 736.138 899.708C736.138 900.184 735.184 901.328 734.04 902.186C731.466 904.379 732.134 907.143 736.519 912.958C738.425 915.437 739.951 918.583 740.141 920.489C740.618 925.732 743.192 925.255 750.151 918.297C754.345 914.102 756.538 911.147 757.205 908.478C757.777 906.381 759.874 902.949 761.876 900.756C764.259 898.183 765.784 895.323 766.642 891.891C767.882 886.648 767.691 885.027 764.545 870.633L762.543 861.291L756.633 857.573C750.246 853.665 746.338 849.089 745.289 844.704C744.145 839.937 752.915 825.162 756.919 825.066C759.588 825.066 762.829 820.491 762.829 816.773C762.829 813.532 763.496 812.388 768.072 807.907L773.315 802.76V806.668C773.315 810.1 773.792 810.958 777.605 814.008C779.988 816.01 781.895 818.298 781.895 819.156C781.895 820.014 782.753 823.827 783.897 827.545C785.517 832.883 786.47 834.599 788.663 835.934C791.332 837.554 791.427 837.84 791.427 844.99C791.427 853.951 793.429 860.528 797.719 865.295C800.579 868.536 800.865 868.631 801.341 866.724C801.627 865.581 801.913 859.194 801.913 852.616C801.913 843.179 801.627 840.319 800.484 839.365C798.958 838.126 797.528 832.025 798.482 831.072C798.768 830.691 800.579 832.216 802.485 834.408C807.252 840.033 809.254 839.651 808.586 833.169C808.491 832.121 808.014 830.881 807.538 830.405C806.108 828.784 806.584 827.926 808.968 827.926C812.399 827.926 815.736 824.685 817.642 819.633C818.596 817.154 820.979 812.578 823.076 809.623C827.556 802.95 827.938 798.089 824.315 793.799C822.218 791.32 821.932 790.081 821.932 783.408V775.782L818.214 774.066C816.117 773.208 813.067 771.016 811.446 769.3L808.396 766.154L810.398 760.053C811.541 756.717 812.781 751.378 813.067 748.042L813.639 742.132H810.112C805.822 742.132 804.773 740.13 807.061 736.412C808.968 732.98 808.968 731.169 806.966 727.642C804.678 723.829 799.53 720.874 794.287 720.206C789.426 719.634 787.805 717.06 791.618 715.821C792.857 715.44 795.812 713.152 798.196 710.674C800.579 708.195 803.153 706.002 803.82 705.716C804.773 705.431 803.439 702.38 799.054 694.849C793.906 686.079 792.857 683.601 792.571 678.929C792.19 673.782 791.999 673.496 789.616 673.496C788.282 673.4 785.994 672.924 784.564 672.257C781.418 670.827 777.128 664.726 777.128 661.58C777.128 659.769 775.889 658.625 771.123 655.86C767.786 654.049 764.545 652.524 763.973 652.524C763.496 652.524 758.73 649.283 753.487 645.374C748.244 641.466 743.573 638.225 743.096 638.225C742.62 638.225 741.285 638.892 740.141 639.75Z" fill="black"/>
<path d="M692.573 678.457C692.001 679.124 691.238 681.221 690.857 683.128C690.285 686.083 690.571 686.846 692.382 688.18C696.958 691.326 700.866 689.324 700.866 683.795C700.866 682.556 700.294 680.745 699.722 679.887C698.006 677.789 693.812 676.931 692.573 678.457Z" fill="black"/>
<path d="M616.691 682.553C614.117 685.699 614.022 685.89 615.643 688.273C616.882 690.084 618.026 690.656 620.79 690.656C622.792 690.656 625.271 689.894 626.415 688.94L628.512 687.32L624.508 683.221C622.315 681.028 620.314 679.217 619.932 679.312C619.646 679.312 618.121 680.838 616.691 682.553Z" fill="black"/>
<path d="M196.584 752.718C195.726 754.243 195.726 755.006 196.488 755.769C197.632 756.913 199.443 755.197 199.443 752.909C199.443 750.812 197.632 750.621 196.584 752.718Z" fill="black"/>
<path d="M175.993 767.871C171.322 769.682 172.943 777.499 178.186 778.834C181.045 779.501 180.664 779.787 181.999 775.211C183.905 768.824 181.331 765.679 175.993 767.871Z" fill="black"/>
<path d="M511.832 850.814C509.354 852.339 506.113 853.673 504.588 853.673C503.158 853.673 501.251 854.436 500.393 855.389C498.868 857.01 499.059 857.296 503.158 860.728L507.447 864.35L502.967 869.116C499.059 873.311 498.677 874.074 499.916 875.313C501.251 876.552 502.681 876.075 512.881 871.118C520.793 867.305 524.797 864.827 525.846 863.016C526.989 861.204 528.801 860.06 531.756 859.298C537.761 857.773 537.094 855.961 530.04 854.722C525.274 853.864 523.653 853.197 521.842 850.814C519.077 847.191 517.457 847.191 511.832 850.814Z" fill="black"/>
<path d="M445.007 897.228C441.766 899.611 441.48 900.183 441.957 903.138C442.529 907.142 442.529 907.047 447.39 908.095C450.441 908.858 452.443 908.667 456.065 907.428C459.402 906.379 462.261 906.093 465.598 906.475C468.267 906.856 471.699 906.665 473.415 906.093C476.084 905.235 476.465 904.759 476.084 902.376C475.703 899.325 475.035 899.039 466.074 897.895C462.738 897.514 460.259 896.751 459.974 895.989C459.688 895.035 457.781 894.654 454.063 894.654C449.773 894.654 447.962 895.131 445.007 897.228Z" fill="black"/>
<path d="M382.759 948.617C376.563 951.668 367.221 959.77 367.221 962.154C367.221 963.87 380.757 959.675 383.331 957.197C385.238 955.29 386.953 954.718 389.909 954.718C394.58 954.718 395.533 953.384 394.198 948.713C393.054 944.613 391.053 944.613 382.759 948.617Z" fill="black"/>
<path d="M344.626 980.167C344.626 983.79 345.103 986.936 345.675 987.317C347.867 988.842 348.916 987.889 349.488 983.694C349.869 980.453 349.679 978.642 348.439 976.545C345.77 971.969 344.531 973.113 344.626 980.167Z" fill="black"/>
<circle cx="430" cy="335" fill="#5CE50D"/>
<circle cx="705" cy="457" fill="#E52A0D"/>
<circle cx="557" cy="580" fill="#E52A0D"/>
<circle cx="748" cy="700" fill="#E52A0D"/>
</svg>
