<svg width="1000" height="1000" viewBox="0 0 1000 1000" fill="none" xmlns="http://www.w3.org/2000/svg">
<rect width="1000" height="1000" />
<path d="M834.261 42.7854C831.692 45.9261 830.645 46.4971 828.836 46.1164C827.314 45.7357 824.649 46.4971 820.842 48.4006C817.701 49.9233 813.894 51.2557 812.372 51.2557C810.373 51.2557 809.041 51.9219 807.994 53.5399C805.614 57.0612 802.854 57.1564 792.671 54.0157C783.63 51.1605 782.868 51.0654 773.256 51.7316C767.736 52.2074 758.98 52.5881 753.746 52.6833C748.511 52.7785 742.325 53.3495 739.946 53.9205C737.566 54.3964 730.714 55.1578 724.718 55.5385C718.722 55.9192 712.917 56.7757 711.87 57.4419C710.823 58.1081 706.635 59.6309 702.638 60.6778C698.546 61.8198 694.453 63.3426 693.597 64.104C685.888 70.6708 683.889 72.1936 682.747 72.1936C681.986 72.1936 679.131 73.7163 676.466 75.5246C673.706 77.3329 671.136 78.8556 670.66 78.8556C670.184 78.8556 669.042 79.7122 668.186 80.6639C666.663 82.377 666.663 82.5674 668.186 83.4239C669.042 83.8998 669.518 84.7563 669.137 85.3274C668.281 86.7549 664.474 85.4225 662.571 82.948C660.477 80.3784 658.288 80.0929 657.336 82.377C655.623 86.2791 652.863 89.9908 649.913 92.1797C648.2 93.5122 646.296 95.5108 645.63 96.6528C644.964 97.8901 644.107 98.8418 643.631 98.8418C642.489 98.8418 633.162 106.36 631.64 108.454C630.593 109.977 630.783 110.548 633.543 113.022C635.256 114.64 637.635 115.973 638.873 115.973C640.395 115.973 640.966 116.544 640.966 117.971C640.966 119.113 641.918 120.731 643.155 121.683C644.393 122.635 646.201 125.014 647.153 127.108C648.2 129.107 649.722 131.2 650.484 131.867C651.721 132.818 651.721 133.389 650.579 136.435C649.913 138.338 649.532 140.051 649.722 140.147C649.818 140.337 651.34 141.193 652.958 141.955C655.623 143.287 656.004 144.049 656.48 148.522C656.86 152.424 656.575 154.232 655.147 156.516C652.577 160.704 652.863 162.702 656.289 165.557L659.335 168.032L655.433 172.315C652.102 175.931 651.435 177.264 651.435 180.595C651.435 184.306 651.15 184.687 647.819 186.21C641.918 188.875 637.255 193.062 635.256 197.44C634.114 200.2 632.877 201.628 631.735 201.628C628.689 201.628 625.834 204.293 625.549 207.624C625.358 210.098 624.787 210.764 622.789 210.955C620.79 211.145 620.124 211.906 619.648 214.19C618.982 217.521 622.027 222.946 626.5 226.468C628.784 228.181 628.784 228.371 627.167 230.75C626.024 232.464 625.739 234.177 626.215 236.841C626.691 239.697 626.405 241.124 624.597 243.789C621.076 249.309 608.227 254.163 598.044 253.877C595.665 253.782 592.429 254.353 590.906 255.21C588.431 256.542 587.86 256.447 585.291 255.114C583.768 254.353 579.39 253.401 575.583 253.021C571.872 252.64 567.018 251.498 564.829 250.356C561.307 248.643 560.451 248.548 557.405 249.594C553.313 251.022 551.695 255.114 553.408 260.063C554.645 263.87 561.498 270.532 565.305 271.77C567.113 272.341 568.255 273.388 568.445 274.72C568.636 275.862 569.207 276.814 569.683 276.814C570.254 276.814 570.539 278.527 570.444 280.621C570.158 283.761 570.634 284.903 573.109 287.473C577.963 292.517 578.914 299.655 574.822 299.655C574.251 299.655 572.062 300.892 569.968 302.51C567.969 304.033 565.78 305.365 565.209 305.365C564.638 305.365 563.211 306.507 561.878 307.84C558.262 311.742 556.454 312.313 545.89 312.598C537.038 312.884 535.516 313.17 532.185 315.454C528.663 317.738 528.473 318.118 528.949 321.83C529.139 324.019 529.71 326.779 530.091 327.826C530.567 329.444 530.281 330.015 528.473 330.491C527.236 330.776 525.523 332.109 524.571 333.441C522.953 335.63 522.953 335.916 524.476 338.2C525.808 340.198 525.903 341.531 525.237 345.147C524.476 349.145 524 349.716 521.05 350.667C518.956 351.334 516.957 353.047 515.53 355.331C513.531 358.471 513.436 359.233 514.483 361.422C515.149 362.754 516.005 369.226 516.386 375.793C516.767 382.36 517.338 389.212 517.719 391.02C518.29 394.161 518.099 394.542 513.626 397.968C510.39 400.442 508.487 402.822 507.345 405.677C505.917 409.484 505.156 410.15 499.16 412.815C495.448 414.433 491.451 415.765 490.214 415.765C486.883 415.765 483.266 412.434 482.6 408.627C482.029 405.962 481.553 405.296 479.745 405.296C478.508 405.296 476.414 404.44 474.986 403.298L472.512 401.394L469.466 403.678C466.611 405.772 465.755 405.867 460.33 405.391C456.142 404.915 453.858 404.154 452.43 402.727L450.432 400.728L443.389 407.866C437.203 414.242 436.061 415.004 433.872 414.433C431.683 413.862 430.541 414.433 426.448 418.525C421.595 423.284 421.499 423.379 417.883 422.332C415.884 421.761 414.076 421.475 413.886 421.761C413.695 421.951 414.076 424.235 414.647 426.9L415.789 431.659L418.93 430.326C423.213 428.613 426.829 429.565 426.829 432.515C426.829 434.133 426.258 434.8 425.021 434.8C424.069 434.8 422.261 435.561 421.024 436.608C416.17 440.32 406.557 442.604 396.184 442.413C382.193 442.128 380.861 441.842 381.527 438.987C382.193 436.703 382.098 436.608 377.149 437.274C373.342 437.75 371.344 438.606 368.774 440.986C366.966 442.699 364.682 444.317 363.73 444.602C362.778 444.983 361.256 447.172 360.209 449.646C356.782 457.45 354.974 459.259 349.169 460.591C342.982 462.019 343.458 461.162 339.176 478.103L336.035 489.999L338.224 492.284C340.222 494.377 340.318 495.139 339.747 500.659C339.366 503.99 338.034 509.605 336.796 513.221C333.751 521.977 333.846 523.214 338.034 526.831L341.65 529.877L338.795 532.637C336.32 535.111 330.515 537.205 298.537 547.007C269.319 556.049 260.754 558.333 259.326 557.572C256.947 556.239 231.155 556.334 224.969 557.667C222.209 558.238 218.021 559.761 215.547 560.998C212.977 562.235 210.503 563.282 210.027 563.282C209.456 563.282 208.695 564.805 208.314 566.613C207.648 570.325 207.267 570.515 204.602 568.612C203.555 567.945 196.893 565.947 189.85 564.329L177.002 561.283L141.789 565.281L106.575 569.183L60.1308 553.384C34.5295 544.723 13.4013 537.585 13.1158 537.585C11.593 537.585 25.2026 554.907 33.1971 562.996C42.2384 572.323 42.7143 572.989 42.4288 576.416C42.3336 578.89 42.7143 580.508 43.7612 581.365C44.6177 582.031 44.9984 583.363 44.7129 584.315C44.3322 585.552 44.9033 586.409 46.997 587.456C49.186 588.598 49.9474 589.835 50.4232 592.88C51.2798 597.829 64.8894 618.291 70.3142 622.574C75.6439 626.857 84.7804 630.759 94.0121 632.567C101.531 634.185 101.911 634.376 108.383 640.752L115.045 647.319L120.755 646.272C123.896 645.701 126.656 645.32 126.846 645.511C127.037 645.796 126.751 649.508 126.18 653.886C125.419 660.262 125.514 662.166 126.561 663.879C127.418 665.116 128.464 671.873 129.321 682.057C130.463 696.047 130.463 698.997 129.226 704.137C128.464 707.468 128.084 710.704 128.369 711.275C128.56 711.941 128.179 713.273 127.513 714.32C125.324 717.08 125.704 719.364 128.369 719.364C129.511 719.364 131.891 719.84 133.509 720.411C135.697 721.173 137.411 721.077 140.837 719.935C147.594 717.556 152.638 717.937 155.779 720.982C158.253 723.362 158.348 723.647 156.826 725.265C154.922 727.454 153.875 738.018 155.493 739.636C157.016 741.159 156.826 741.92 154.351 742.586C152.543 742.967 152.067 744.109 151.115 750.295C150.449 754.292 149.688 757.909 149.402 758.48C148.546 759.812 143.977 759.527 139.314 757.814C134.27 756.006 127.227 756.577 122.944 759.146C121.231 760.193 116.853 761.526 113.047 762.097C109.335 762.763 105.433 763.905 104.481 764.571C103.529 765.332 101.816 765.999 100.579 765.999C99.4369 765.999 98.1997 766.665 98.0093 767.426C97.7238 768.188 97.248 769.615 96.9624 770.472C96.5817 771.423 96.3914 773.422 96.4866 774.945C96.7721 777.895 97.0576 777.8 90.2052 775.897C88.5873 775.421 88.1114 775.801 87.5404 778.181C87.1597 780.274 86.3032 781.131 84.3997 781.512C82.9721 781.797 79.1652 782.939 76.0246 784.081L70.1239 786.175L68.506 794.931C67.6494 799.69 66.6977 805.971 66.4122 808.826C65.8411 814.632 64.7942 816.44 62.2246 816.44C60.8922 816.44 60.4163 817.106 60.4163 819.105C60.4163 820.532 60.8922 822.245 61.5584 822.912C62.3198 823.673 62.3198 824.339 61.6536 825.196C61.0825 825.862 60.1308 831.667 59.5598 838.139C58.7032 847.752 58.037 850.512 56.1336 853.557L53.8494 857.269L56.4191 857.745C57.8467 858.03 60.6067 858.506 62.5101 858.887C66.5073 859.553 66.7929 860.219 64.6039 863.55C62.4149 866.881 63.4618 868.785 67.4591 868.785C69.8384 868.785 70.8853 868.309 71.3611 866.976C71.9322 865.168 75.9294 864.026 82.5914 864.026C86.3032 864.026 86.8742 863.265 84.9707 861.361C83.0673 859.458 85.6369 858.03 91.9183 857.554L97.7238 857.078L97.3431 861.076C97.0576 864.787 97.1528 864.978 99.6273 864.978C102.387 864.978 103.91 863.645 102.292 862.598C100.389 861.456 101.436 860.029 105.147 858.601C107.241 857.745 108.669 856.793 108.478 856.412C107.146 854.318 124.848 853.938 134.651 855.841C139.79 856.793 141.408 856.793 144.168 855.651C146.357 854.794 148.926 854.509 151.782 854.889C154.161 855.27 157.968 855.651 160.347 855.841C162.726 855.936 165.582 856.603 166.819 857.269C168.056 857.935 169.674 858.22 170.435 857.935C171.577 857.554 171.482 856.888 169.864 854.318C168.817 852.605 167.961 850.892 167.961 850.512C167.961 847.561 186.519 844.516 189.47 846.99C190.421 847.752 194.514 848.608 199.273 848.894C209.932 849.655 219.449 851.463 221.257 852.986C222.019 853.747 224.112 854.604 225.826 854.985C228.205 855.46 228.871 855.27 228.871 854.128C228.871 853.272 229.632 852.605 230.584 852.605C233.059 852.605 236.485 855.365 236.485 857.364C236.485 859.743 237.912 860.505 240.958 859.743C243.147 859.172 243.242 859.077 241.814 857.459C239.911 855.365 239.911 854.128 241.814 852.129C243.147 850.797 245.431 850.607 256.661 850.797C269.89 850.987 269.985 850.987 272.27 848.513C275.315 845.182 282.167 844.706 293.874 846.99C298.918 848.037 299.774 847.942 305.294 845.658C310.719 843.278 315.097 842.517 334.512 840.328C341.46 839.472 341.745 839.567 345.076 842.232C347.836 844.42 348.693 844.706 349.073 843.564C349.454 842.803 349.264 841.946 348.693 841.565C348.217 841.28 348.027 840.233 348.312 839.186C348.788 837.758 348.407 837.378 346.694 837.378C345.457 837.378 343.458 836.521 342.126 835.474C339.08 833.095 336.891 833.095 335.274 835.379C334.036 837.187 326.232 839.376 327.089 837.758C329.468 832.429 330.325 831.572 333.941 830.621C339.651 829.098 344.505 830.24 348.407 834.047C350.12 835.855 351.643 837.663 351.643 838.139C351.643 838.615 352.5 839.757 353.451 840.614C354.974 842.041 355.164 842.803 354.403 844.801C353.547 846.99 353.927 847.752 358.4 852.225C363.73 857.649 363.635 857.269 361.256 867.833C360.78 870.212 360.304 873.924 360.209 876.113C360.209 878.302 359.828 880.396 359.257 880.681C356.782 882.204 358.876 882.87 365.538 882.68C370.202 882.585 373.342 882.965 374.484 883.727C375.627 884.583 376.388 884.583 376.578 883.917C376.769 883.346 378.006 883.822 379.529 884.964C381.146 886.296 382.764 886.772 384.002 886.391C387.333 885.345 389.617 886.772 390.283 890.389C390.759 892.958 390.569 894.005 389.331 894.671C387.047 895.909 387.523 897.336 390.188 897.336C392.758 897.336 393.329 899.049 391.425 900.953C390.569 901.809 390.569 902.095 391.52 902.095C392.282 902.095 392.567 902.666 392.186 903.618C391.52 905.236 393.614 909.709 395.898 911.612C397.04 912.564 397.231 913.896 396.755 917.227C396.089 922.366 398.753 931.313 402.655 937.023C403.988 939.022 405.32 941.782 405.606 943.209C406.272 946.35 407.128 947.206 411.887 948.729C414.266 949.491 415.884 950.728 416.36 952.155C417.597 955.296 419.691 955.962 422.546 954.059C424.355 952.917 425.402 952.726 426.734 953.488C429.399 954.82 429.494 954.725 429.875 951.489L430.16 948.444L434.253 951.965C440.534 957.2 441.676 956.533 441.105 948.253C440.915 944.732 442.152 945.969 443.865 950.918C444.912 954.059 444.817 954.82 443.579 956.914C442.057 959.103 442.057 959.293 444.436 960.15C445.864 960.721 447.386 961.102 447.862 961.102C449.385 961.102 452.526 955.011 452.526 951.965C452.526 949.11 454.905 945.874 456.999 945.874C457.57 945.874 458.236 944.922 458.521 943.875C458.997 942.162 459.568 941.877 462.328 942.448C466.135 943.114 483.932 943.4 484.599 942.733C484.789 942.448 485.265 937.499 485.55 931.693C486.121 921.51 487.073 918.369 488.786 921.224C489.167 921.986 490.119 923.413 490.975 924.46C492.308 926.364 492.403 926.269 493.354 923.699C494.497 920.749 495.163 920.558 496.781 922.747C497.732 923.984 498.494 924.175 500.683 923.318C502.205 922.747 509.629 922.271 517.148 922.176C524.666 922.081 531.519 921.605 532.375 921.224C533.517 920.558 534.945 921.415 538.371 924.555L542.844 928.743H551.695C556.549 928.743 561.117 928.362 561.783 927.982C562.354 927.506 563.972 925.793 565.305 923.984C567.398 921.129 569.207 920.273 580.247 916.656C587.194 914.467 593.095 912.564 593.38 912.564C593.666 912.564 593.856 914.753 593.951 917.322C593.951 919.987 594.522 922.652 595.189 923.318C595.855 923.984 599.757 924.651 604.516 924.841C612.51 925.126 612.7 925.126 612.129 923.128C611.749 921.51 612.415 920.558 615.08 918.845C616.983 917.513 619.933 916.275 621.647 915.895C626.881 914.848 628.309 910.66 623.455 910.66C620.409 910.66 618.791 906.758 619.648 901.429C620.029 898.764 620.885 896.956 622.122 896.289C624.692 894.957 623.931 892.197 618.125 882.109C615.556 877.636 612.891 871.354 612.129 868.118C611.273 864.502 609.56 860.6 607.371 857.554C605.372 854.985 603.849 852.034 603.849 850.987C603.849 849.94 602.802 848.132 601.47 846.895C599.186 844.801 599.091 844.135 599.091 833.856C599.091 823.292 599.091 823.102 596.807 822.531C595.569 822.245 593.666 822.436 592.619 823.007C591.477 823.578 587.385 824.054 583.387 824.054C576.725 824.054 576.154 823.863 575.393 821.865C574.917 820.627 572.823 817.201 570.825 814.346C566.066 807.589 563.972 799.499 565.685 795.216C570.254 784.272 570.729 781.797 570.158 773.898C569.492 764.761 569.112 763.715 566.352 761.811C564.638 760.764 562.83 760.669 558.072 761.24C552.171 762.001 551.695 761.811 542.273 757.719C536.943 755.339 531.994 752.77 531.138 751.913C530.186 750.866 529.71 747.916 529.52 743.157C529.425 736.686 529.71 735.353 532.851 728.691C536.372 721.268 540.179 716.509 555.026 701.282C560.641 695.381 562.545 692.621 565.305 686.244C567.113 681.866 568.636 677.679 568.636 677.013C568.636 676.346 570.063 674.824 571.872 673.682C573.68 672.635 575.964 670.255 577.011 668.447C579.295 664.735 583.102 663.308 589.383 663.974C592.619 664.26 593.951 665.021 596.14 667.686C597.663 669.589 599.376 672.825 599.947 675.014C601.375 680.249 604.801 684.151 608.703 685.007C611.178 685.578 612.986 685.197 616.698 683.389C631.354 676.156 635.256 674.919 647.248 674.253C656.48 673.777 660.001 673.111 665.616 671.017L672.659 668.257L674.372 661.309C676.085 654.552 676.466 653.981 684.079 646.558L691.884 638.944L695.119 628.189C697.975 618.862 698.831 617.054 702.067 614.199C704.066 612.391 706.35 610.868 707.206 610.868C708.063 610.868 710.728 609.44 713.202 607.632C715.581 605.824 721.768 602.303 726.907 599.828C735.663 595.45 736.234 594.974 737.186 591.358C737.757 589.264 739.66 586.028 741.373 584.22C743.181 582.412 747.179 575.94 750.319 569.849C755.554 559.951 756.41 557.381 758.885 545.294C760.408 537.871 761.74 531.685 761.93 531.494C762.121 531.304 767.545 529.401 773.827 527.212C784.772 523.405 785.723 522.834 791.243 517.219C796.763 511.699 797.049 511.128 796.097 508.653C795.621 507.226 794.099 504.656 792.861 503.038L790.482 499.992L795.431 495.615C798.191 493.14 801.332 490.951 802.569 490.57C803.806 490.095 804.663 489.048 804.758 487.81C804.758 486.478 806.471 484.479 809.421 482.1C812.181 480.101 815.132 476.675 816.464 474.01C818.653 469.823 822.65 465.255 830.549 457.926C833.119 455.547 834.071 455.166 835.498 455.928C838.163 457.45 840.543 454.691 839.21 451.645C838.354 449.837 837.592 449.456 835.213 449.837C830.74 450.503 830.454 447.267 834.166 436.227C835.974 430.897 837.021 425.949 836.736 424.521C836.545 423.093 834.737 418.335 832.834 413.862L829.407 405.772L835.784 399.871C839.4 396.54 843.017 393.875 843.969 393.875C844.92 393.875 847.49 391.877 849.679 389.498C853.486 385.405 853.867 385.215 856.246 386.262C858.34 387.309 859.482 387.213 862.718 385.881C864.811 385.024 867.571 384.358 868.809 384.358C870.046 384.358 871.283 383.692 871.569 382.931C871.949 382.169 873.853 380.742 875.947 379.695C881.562 376.745 882.038 373.318 877.469 366.656C874.329 362.183 873.472 361.517 870.712 361.517C868.238 361.517 867.191 360.946 865.858 358.662C864.05 355.521 859.577 354.665 858.53 357.329C858.054 358.662 857.769 358.662 855.865 357.329C854.438 356.282 851.583 355.807 847.49 355.807H841.209L839.686 351.143C838.639 347.812 838.449 346.194 839.21 345.433C839.876 344.767 839.876 343.72 839.02 342.102C837.973 340.198 837.973 339.437 839.305 337.629C840.162 336.392 840.828 334.869 840.828 334.203C840.828 332.014 837.973 332.87 836.831 335.345C835.974 337.153 835.023 337.724 832.548 337.724C829.788 337.724 829.122 337.153 826.552 332.585C824.268 328.587 823.031 327.35 820.652 326.874L817.701 326.303L819.7 324.114L821.794 321.83L819.795 320.022C818.653 319.07 815.988 317.833 813.799 317.262C810.754 316.501 809.516 315.549 808.089 312.979C807.137 311.171 805.043 308.982 803.425 308.221C799.333 306.222 799.333 305.175 803.711 302.701C812.657 297.561 812.372 285.95 803.045 282.048C800.475 281.001 799.904 280.145 799.428 276.433C798.572 270.818 801.141 266.63 808.279 261.967C813.894 258.35 814.561 255.971 811.23 251.688C809.326 249.214 808.945 249.119 802.759 249.785C798.667 250.166 795.621 249.975 794.384 249.309L792.29 248.262L795.336 242.171L798.286 236.175L795.241 231.797C792.481 227.705 792.1 227.515 788.959 227.99C785.819 228.466 785.628 228.371 785.628 225.992C785.628 224.184 786.58 222.851 789.435 221.043C792.671 218.854 793.242 217.997 793.242 215.237C793.242 212.953 794.194 210.669 796.192 208.099C798.952 204.673 799.523 204.388 803.14 204.673C806.471 204.864 807.994 204.293 812.943 200.866C818.272 197.25 819.414 196.869 824.649 196.869C829.883 196.869 831.025 197.25 836.355 200.866C841.685 204.578 843.017 205.054 850.345 205.815C854.818 206.196 861.29 206.672 864.716 206.767C870.141 206.862 871.378 207.243 874.805 210.003C879.087 213.429 886.32 214.857 898.693 214.952C906.307 214.952 912.588 212.573 916.871 207.909C918.869 205.815 920.011 205.435 924.77 205.435C928.957 205.435 931.527 204.768 934.858 203.055C937.333 201.723 939.997 200.676 940.854 200.676C941.711 200.676 943.519 199.819 944.851 198.773L947.231 196.869L950.657 198.868C952.655 200.01 955.225 200.676 957.128 200.486C959.888 200.2 960.364 199.724 962.458 194.204C964.266 189.541 965.123 188.304 966.741 188.304C967.883 188.304 969.691 187.637 970.738 186.781C972.07 185.829 973.688 185.544 976.258 185.924C979.589 186.495 979.779 186.4 979.779 184.021C979.779 182.688 980.16 181.737 980.636 182.022C981.112 182.308 982.825 182.117 984.443 181.546C986.917 180.69 987.298 180.119 986.822 178.406C985.87 175.265 983.491 170.887 981.683 168.793C980.826 167.746 979.779 165.843 979.399 164.511C979.113 163.178 975.877 158.134 972.166 153.28C967.312 146.809 965.313 143.287 964.933 140.432C964.457 137.291 963.219 135.388 959.698 131.962C957.128 129.487 954.464 125.871 953.607 124.062C952.275 120.731 952.084 120.636 948.658 121.302C946.66 121.683 943.804 122.54 942.377 123.301C940.759 124.062 937.713 124.538 934.763 124.348C930.004 124.062 929.814 123.967 929.053 120.541C928.196 116.829 922.391 111.214 919.535 111.214C916.49 111.214 916.109 105.599 918.964 103.029C920.678 101.507 920.773 100.65 920.297 95.0349C919.06 83.1384 917.061 75.9053 914.206 72.6695C912.683 70.8612 910.97 68.006 910.399 66.1977C909.352 63.0571 909.162 62.9619 901.643 61.915L893.934 60.7729L890.413 63.6281L886.987 66.4833L885.94 60.1067C884.988 54.6819 884.322 53.3495 881.467 50.5895C879.563 48.8764 876.993 47.4488 875.661 47.4488C874.424 47.4488 872.901 46.7826 872.235 46.0213C870.712 44.213 863.765 44.1178 861.195 45.9261C860.148 46.6875 857.769 47.544 855.96 47.9247C852.82 48.4957 852.534 48.3054 850.821 45.1647C848.918 41.6433 847.966 41.1675 845.587 42.6902C844.635 43.2613 843.303 42.8806 841.114 41.1675C839.496 39.9302 837.973 38.8833 837.783 38.8833C837.592 38.8833 836.069 40.6916 834.261 42.7854Z" fill="black"/>
<circle cx="706" cy="287" fill="#5CE50D"/>
<circle cx="196" cy="659" fill="#E52A0D"/>
<circle cx="357" cy="835" fill="#E52A0D"/>
<circle cx="556" cy="629" fill="#E52A0D"/>
</svg>
