<svg width="1000" height="1000" viewBox="0 0 1000 1000" fill="none" xmlns="http://www.w3.org/2000/svg">
<rect width="1000" height="1000" />
<path d="M388.007 126.053C385.436 126.529 376.583 128.433 368.491 130.432C358.495 132.812 350.213 134.144 342.788 134.62C328.318 135.572 310.135 141.379 299.187 148.519C292.904 152.803 281.099 158.134 275.388 159.467C272.912 160.038 266.82 160.8 261.869 161.181C255.301 161.657 251.493 162.513 248.161 164.037C241.878 167.083 233.596 175.08 229.026 182.505C225.789 187.741 224.076 189.359 217.698 193.262C207.987 199.26 202.847 201.069 195.421 201.164C192.185 201.259 187.044 202.116 183.998 203.068C181.046 204.02 173.431 205.828 167.148 206.971C160.865 208.018 154.486 209.446 152.868 209.922C151.345 210.493 144.205 211.921 137.065 213.159C121.929 215.729 121.262 215.824 114.313 218.775C105.65 222.393 100.224 224.202 85.7534 228.01C78.1376 230.009 67.5706 233.341 62.1444 235.435C56.7181 237.625 51.863 239.338 51.2918 239.338C50.7206 239.338 48.2455 240.861 45.6751 242.67L41.1056 245.907L33.6802 245.05C26.826 244.288 26.0644 244.384 24.1604 246.192C21.5901 248.572 21.3045 251.904 23.3988 253.618C24.2556 254.284 27.0164 255.903 29.6819 257.045C33.6802 258.949 34.537 259.044 34.9178 257.902C35.2986 257.045 36.7265 256.474 38.5353 256.474C40.1537 256.474 42.5336 255.617 43.8664 254.57C47.0079 252.095 57.7653 251.809 56.8133 254.189C55.9565 256.379 57.8605 259.33 60.1452 259.33C62.906 259.33 62.2396 263.518 59.4788 263.899C58.3365 264.09 56.6229 265.042 55.7661 265.993C54.3381 267.612 54.243 268.659 54.9093 272.848C55.5757 276.941 56.1469 277.988 57.8605 278.179C60.526 278.56 61.3828 281.035 59.574 283.129C58.8124 283.986 58.1461 285.319 58.1461 286.08C58.0509 286.842 57.3845 286.08 56.5277 284.557C53.5766 278.94 49.4831 275.513 45.6751 275.513C40.5345 275.513 37.5833 274.181 35.6794 270.849C33.2994 266.755 31.4907 266.374 29.0155 269.516C25.6836 273.609 25.874 279.702 29.4915 282.939C32.2522 285.223 32.3474 285.604 31.7763 291.126C31.3003 296.266 31.5859 297.409 33.585 300.36C35.5842 303.406 38.7257 313.307 40.6297 323.112C41.0105 324.921 42.0576 327.491 43.0096 328.729C45.3896 331.775 45.3896 332.061 41.296 337.011C37.7737 341.105 37.7737 341.39 38.0593 348.244C38.3449 356.146 37.1073 359.097 32.633 361.096C31.2051 361.763 26.7308 364.428 22.6373 367.094L15.2118 371.949L15.8782 376.042C16.3542 379.279 16.0686 380.802 14.4503 383.468C13.3079 385.276 12.7367 386.99 13.1175 387.18C13.4983 387.466 16.0686 387.942 18.8294 388.323C23.0181 388.894 24.3508 389.56 27.2068 392.702C29.0155 394.701 30.9195 396.415 31.3955 396.415C31.8715 396.415 35.2986 399.366 38.9161 402.888C43.5808 407.458 46.8175 409.742 49.6735 410.599C54.9093 412.217 61.0972 416.406 62.8108 419.643C64.0483 421.928 63.9531 422.308 61.954 424.498C59.9548 426.687 59.8596 426.973 61.1924 428.115C64.6195 430.781 64.1435 433.161 59.574 436.874C54.4333 441.158 54.243 442.966 57.5749 453.438C60.05 461.244 61.2876 462.577 66.8091 463.529C70.7122 464.195 70.9978 465.147 68.5226 469.717C68.0466 470.574 68.3322 471.811 69.2842 472.858C70.5218 474.096 70.617 474.762 69.7602 475.619C69.0938 476.286 68.6178 478.19 68.6178 479.903C68.6178 482.569 69.0938 483.33 71.9497 484.663C74.3297 485.805 75.1865 486.757 74.7105 487.709C74.4249 488.566 73.7585 491.612 73.1873 494.468C70.7122 508.653 70.3314 509.7 68.9986 509.7C67.761 509.7 59.098 517.601 59.098 518.744C59.098 518.934 60.3356 520.553 61.8588 522.266C63.3819 523.98 65.0955 527.121 65.6667 529.216C66.4283 531.976 67.9514 533.88 70.9978 536.07C74.5201 538.735 75.2817 539.783 75.8529 543.59C76.424 547.589 76.2336 548.16 73.3777 551.111C71.6642 552.825 70.5218 554.824 70.7122 555.395C70.9026 556.061 76.424 559.013 82.8975 561.964C93.0837 566.628 94.7972 567.676 95.0828 569.675C95.5588 574.339 98.4147 582.241 99.6523 582.717C100.414 583.002 100.985 584.145 100.985 585.287C101.08 586.334 101.651 588.809 102.318 590.713C103.46 594.045 103.27 594.902 96.5108 612.038C92.7029 621.843 89.5613 630.411 89.5613 631.077C89.5613 631.744 87.8478 633.648 85.8486 635.266C82.6119 637.836 82.2311 638.598 82.8023 640.883C83.4687 643.263 83.9447 643.453 88.895 643.739C95.654 644.119 98.1292 642.882 98.1292 639.169C98.1292 637.741 98.8907 635.171 99.7475 633.552C101.366 630.792 101.366 630.601 99.5571 629.269C97.6532 627.841 97.6532 627.841 99.8427 625.651C100.985 624.509 101.937 624.033 101.937 624.699C101.937 625.461 102.889 625.556 104.793 625.175C106.887 624.794 108.22 625.175 109.648 626.413C111.266 627.841 111.838 627.936 113.551 626.889C114.979 626.032 115.741 625.937 116.502 626.698C117.074 627.269 118.597 627.745 119.739 627.745C120.977 627.745 123.261 628.697 124.785 629.84C127.45 631.839 127.545 631.934 126.117 635.171C124.88 638.217 124.975 638.788 126.498 641.454C127.545 643.263 129.259 644.595 130.782 644.881C132.496 645.167 134.114 646.595 135.637 649.165C137.541 652.306 138.493 652.973 141.159 653.068C148.679 653.449 160.96 656.114 164.196 658.209C167.052 659.922 168.671 660.303 172.955 659.922L178.095 659.446L181.046 664.587C184.188 670.108 184.283 670.108 187.425 668.3C188.662 667.633 190.947 667.348 192.47 667.538C195.231 667.919 195.517 668.3 197.706 674.297C197.992 675.344 198.753 675.059 200.752 673.25C202.18 671.917 204.465 670.108 205.893 669.156C208.273 667.728 208.654 667.728 210.653 669.061C213.699 671.251 216.841 670.965 218.554 668.3C219.982 666.11 220.268 666.11 224.647 667.252C229.978 668.585 237.975 674.107 238.07 676.391C238.07 677.248 237.308 678.962 236.452 680.199C235.5 681.437 234.262 683.341 233.691 684.388C233.12 685.53 231.406 686.387 229.788 686.578C227.884 686.768 225.028 688.577 221.791 691.528L216.65 696.097L220.458 700.001C223.314 703.047 224.837 703.904 227.408 703.904C230.073 703.904 230.74 704.38 231.501 706.76C232.263 708.949 233.31 709.711 235.88 710.187C238.26 710.663 239.688 711.615 240.831 713.709C241.688 715.232 243.687 717.803 245.4 719.326C247.59 721.42 248.732 723.61 249.494 727.132C250.351 731.225 251.207 732.653 254.444 735.129C259.109 738.746 265.201 739.412 266.153 736.461C266.439 735.414 267.581 734.177 268.819 733.701C269.961 733.129 272.722 731.225 274.912 729.417C277.196 727.513 281.385 725.323 284.622 724.276C287.858 723.324 290.429 722.182 290.429 721.801C290.429 721.325 291.286 721.42 292.238 721.896C293.856 722.848 294.046 722.467 294.427 718.659C294.713 714.471 294.618 714.375 291.571 713.804C288.906 713.233 288.334 712.662 287.382 708.854C286.811 706.569 285.098 703.237 283.67 701.524C281.004 698.573 281.004 698.382 282.718 696.859C284.336 695.431 284.812 695.526 290.524 698.097C294.808 700.001 297.569 700.667 299.758 700.381C303.947 699.715 311.372 702.571 311.372 704.76C311.372 706.855 320.892 710.092 324.414 709.14C326.699 708.568 326.794 708.759 326.223 711.805C325.842 713.899 326.033 715.423 326.794 715.994C327.461 716.565 334.22 717.041 342.216 717.136C354.307 717.327 356.591 717.041 358.114 715.708C359.162 714.851 359.923 713.519 359.923 712.757C359.923 711.139 361.351 711.139 364.207 713.043C366.206 714.28 366.301 714.851 365.445 716.851C364.588 718.659 364.683 719.516 365.921 720.849C366.873 721.801 367.539 723.038 367.539 723.514C367.444 725.038 360.494 728.845 356.782 729.417C354.783 729.607 352.974 730.273 352.688 730.749C351.831 731.987 356.972 737.128 360.494 738.556C362.303 739.412 364.778 741.983 367.158 745.6C370.109 750.36 371.823 751.883 375.536 753.502L380.105 755.501L384.389 753.216C386.674 751.979 389.625 749.694 390.863 747.98C393.052 745.22 393.433 745.029 396.194 746.076C397.812 746.743 399.811 748.456 400.668 750.075C402.857 754.454 404.666 755.406 407.237 753.692C409.616 752.074 412.282 752.645 412.282 754.739C412.282 755.501 413.424 756.548 414.948 757.119C416.376 757.69 418.946 759.023 420.755 760.166C422.754 761.308 424.848 761.879 426.086 761.594C427.323 761.308 430.75 761.879 433.702 762.926C436.748 763.973 440.556 764.83 442.269 764.83C444.84 764.83 445.411 765.306 446.268 768.067C446.839 770.066 446.934 771.685 446.458 772.161C445.887 772.732 446.648 775.968 448.172 780.348L450.742 787.678L458.167 790.534C462.166 792.057 466.354 793.39 467.402 793.39C468.925 793.39 469.401 794.437 470.257 799.387C470.829 802.719 471.305 806.527 471.305 807.955C471.305 809.288 471.781 811.477 472.352 812.715C473.304 814.714 473.78 814.904 478.54 814.524L483.68 814.143V817.094C483.68 818.712 484.156 821.949 484.823 824.329C486.156 829.089 488.25 830.326 492.915 829.089C494.438 828.708 497.294 828.232 499.388 828.137C504.719 827.946 510.241 822.711 511.002 817.284C511.478 813.572 511.669 813.476 515.952 812.905C524.044 811.858 524.615 811.572 524.615 809.097C524.615 806.432 527.091 804.813 531.184 804.813C533.564 804.813 534.706 805.575 536.991 808.812C538.514 810.906 539.847 813.286 539.847 814.048C539.847 814.809 540.799 817.57 541.846 820.14C543.655 824.234 544.226 824.805 546.606 824.805C548.701 824.805 549.652 825.376 550.319 827.185C551.271 829.66 551.747 829.85 559.267 829.946C564.694 830.041 565.265 830.993 565.455 839.656C565.551 842.226 566.122 844.987 566.788 845.653C567.55 846.51 567.645 847.081 566.883 847.367C566.312 847.557 564.503 848.7 562.885 849.937L559.839 852.127L562.219 854.316C564.123 856.03 565.265 856.411 568.311 855.935C570.406 855.649 573.357 854.507 574.785 853.364C577.736 851.08 581.163 851.46 583.924 854.411C584.971 855.459 586.78 856.696 588.112 857.267C593.063 859.171 593.634 858.6 596.299 849.556C599.441 839.18 601.726 837.181 610.484 837.181H615.91L616.577 833.849C617.148 830.612 617.338 830.422 620.67 830.612C622.574 830.802 625.335 830.136 626.953 829.374C629.619 827.946 629.999 827.946 635.235 830.612C638.282 832.135 641.138 833.373 641.709 833.373C642.28 833.373 642.946 832.135 643.232 830.612C643.803 827.946 644.089 827.851 648.277 827.946C650.657 828.042 653.418 827.756 654.37 827.28C655.703 826.614 656.274 827.09 657.226 829.47C657.797 831.088 658.749 832.421 659.32 832.421C659.892 832.421 661.605 833.658 663.033 835.181C664.842 837.085 666.27 837.752 667.888 837.371C669.507 837.085 670.268 837.371 670.268 838.323C670.268 839.085 671.315 840.703 672.553 841.845C676.075 845.177 680.645 844.035 683.977 838.989C685.405 836.895 687.594 834.706 688.832 834.134C690.641 833.278 691.212 832.326 691.212 829.946C691.212 827.375 691.688 826.614 693.592 826.138C695.4 825.662 696.448 826.138 698.161 828.137C700.16 830.517 700.541 830.612 702.445 829.47C703.587 828.708 704.539 827.47 704.539 826.614C704.539 823.472 710.537 822.996 718.819 825.376C725.102 827.185 725.007 827.185 734.051 825.471C740.048 824.329 741.286 824.329 742.143 825.471C742.619 826.138 745.284 826.994 748.045 827.28C752.614 827.851 752.995 828.137 754.613 831.659C755.851 834.42 756.517 834.991 757.089 834.039C757.469 833.278 759.088 832.135 760.611 831.469C763.276 830.422 763.848 830.517 768.227 833.754C770.797 835.657 773.463 837.181 774.129 837.181C776.128 837.181 781.65 845.844 781.65 848.89C781.65 851.08 782.506 851.841 788.599 854.887C793.359 857.363 796.501 858.41 799.071 858.219C801.641 858.124 802.593 858.41 802.593 859.457C802.593 861.551 807.924 864.026 811.827 863.646C814.398 863.455 815.54 863.931 816.873 865.55C818.396 867.358 819.824 867.739 827.535 868.215C832.676 868.596 836.96 869.358 837.816 870.119C840.482 872.404 846.575 874.403 851.525 874.689C855.523 874.879 857.237 874.403 860.949 872.118L865.424 869.358L861.711 866.692C859.712 865.169 857.713 863.55 857.332 862.979C857.046 862.408 855.999 861.932 855.047 861.932C854.095 861.932 852.382 860.885 851.144 859.552C849.431 857.648 849.145 856.887 850.002 856.03C850.668 855.363 851.144 853.745 851.144 852.412C851.144 850.984 852.001 849.08 853.048 848.128C855.047 846.32 856.856 841.179 856.856 837.371C856.856 835.943 854.857 832.802 851.525 829.279C846.86 823.948 846.289 822.996 846.765 820.045C847.051 817.951 846.765 816.047 845.908 814.904C843.814 812.144 844.195 808.05 846.575 805.765C847.717 804.718 848.955 803.861 849.335 803.861C849.716 803.861 851.335 801.577 852.858 798.816C854.476 796.15 863.139 785.869 872.278 775.968C881.322 766.163 890.937 755.31 893.698 751.788C900.933 742.554 909.215 734.367 922.067 723.99C928.35 718.85 934.061 713.899 934.823 713.043C935.585 712.091 937.869 710.567 939.773 709.52C942.629 708.092 943.581 706.95 944.057 704.475C944.819 700.096 949.483 698.192 959.098 698.192C967 698.192 975.948 696.764 976.805 695.336C977.091 694.765 978.614 689.243 980.137 682.96L982.898 671.536L980.804 667.252C979.661 664.873 978.709 662.302 978.709 661.541C978.709 660.779 977.852 659.256 976.805 658.209C975.758 657.162 974.901 655.258 974.901 653.925C974.901 652.021 974.425 651.545 972.521 651.545C969.951 651.545 969.475 649.831 971.093 646.69C971.95 645.262 973.188 644.881 977.662 644.881C982.327 644.881 983.469 644.5 985.373 642.406C986.896 640.883 987.372 639.74 986.706 639.36C972.617 630.316 970.332 628.412 968.713 624.889C967.761 622.795 966.429 620.606 965.667 620.034C965.001 619.463 964.43 617.94 964.43 616.702C964.43 615.465 963.287 613.37 961.954 612.038C960.526 610.61 959.765 608.991 960.05 608.23C960.336 607.468 960.812 606.231 961.098 605.564C961.383 604.898 960.336 603.66 958.718 602.708C957.195 601.756 955.862 600.138 955.862 599.186C955.862 597.948 954.624 596.996 951.863 596.14C948.817 595.188 947.294 593.95 946.152 591.57C945.295 589.857 943.2 587.191 941.582 585.763C938.25 582.717 937.965 580.432 940.535 577.195C943.296 573.578 943.962 567.961 941.868 565.676C940.916 564.629 940.154 563.106 940.154 562.249C940.154 561.392 938.345 559.489 936.061 557.965C932.538 555.585 931.967 554.824 932.538 552.825C932.919 551.301 932.253 549.017 930.634 545.97C928.159 541.496 928.159 541.306 929.492 536.165C930.825 531.12 930.825 530.739 928.921 528.93C926.446 526.455 927.588 524.741 933.776 522.076C937.965 520.172 938.06 520.077 937.298 516.554C935.204 505.511 936.346 498.657 940.63 496.372C942.344 495.42 942.439 495.135 941.201 492.755C940.535 491.327 939.583 488.376 939.297 486.281C938.631 482.664 938.06 481.997 932.538 478.761C929.206 476.857 925.779 474.191 924.922 472.954C924.066 471.621 922.542 470.669 921.21 470.669C919.877 470.669 915.783 469.431 911.88 467.908C908.072 466.385 903.122 464.576 900.837 463.91C897.791 463.053 896.934 462.387 897.315 461.244C897.696 460.388 897.029 459.15 895.792 458.198L893.602 456.58L898.172 446.298C902.265 437.159 903.503 435.255 909.12 429.924C919.877 419.738 926.16 416.692 946.342 411.646L963.954 407.267L966.524 386.514L968.999 365.761L966.143 361.001C963.573 356.907 963.192 355.384 963.382 350.339C963.478 345.864 963.097 343.865 961.574 341.676C960.526 340.057 959.67 338.153 959.67 337.392C959.67 336.63 957.575 334.631 955.005 332.918C951.483 330.633 950.15 329.11 949.674 326.73C948.341 321.113 945.295 312.545 940.535 301.312C936.156 291.221 935.775 289.888 936.346 285.033C936.822 280.654 936.441 278.369 933.966 271.229C932.348 266.469 930.349 259.044 929.587 254.665C928.826 250.286 927.588 245.812 926.826 244.764C926.065 243.622 925.398 241.908 925.398 240.861C925.398 239.814 924.732 238.291 923.875 237.339C922.542 235.911 922.542 235.435 923.78 232.96C924.827 230.961 925.018 228.676 924.542 223.726C923.97 218.299 923.399 216.871 921.591 215.634C920.353 214.777 917.402 212.112 915.022 209.636C911.69 206.304 909.31 204.876 905.312 203.734C902.361 202.877 899.695 201.64 899.409 200.783C899.029 200.021 897.125 198.593 894.935 197.451C892.841 196.404 891.127 195.166 891.127 194.69C891.127 194.214 888.652 193.929 885.701 194.024C880.655 194.119 880.179 193.929 880.37 192.12C880.56 190.787 879.799 189.74 878.275 189.074C876.943 188.407 875.896 187.36 875.896 186.503C875.896 185.742 875.42 185.075 874.848 185.075C874.277 185.075 870.945 183.647 867.423 181.839C860.283 178.221 856.475 178.507 857.046 182.41C857.427 185.361 856.57 185.456 816.016 188.883C785.648 191.549 780.222 191.739 760.325 191.168C745.855 190.787 735.574 190.882 730.243 191.644C723.293 192.501 717.296 192.31 687.404 189.835C668.269 188.312 634.474 184.885 612.197 182.219C589.921 179.554 569.263 177.174 566.312 176.793L560.886 176.222L559.553 179.459C557.173 185.075 553.27 187.836 545.845 189.264C541.37 190.121 537.658 191.549 534.802 193.548C530.232 196.689 528.899 197.07 519.189 197.832C513.477 198.308 513.192 198.308 513.192 196.213C513.192 194.976 512.716 193.548 512.145 192.977C510.621 191.454 515.286 189.264 522.331 187.931C533.945 185.932 536.325 185.266 537.182 183.743C538.324 181.743 542.989 179.363 545.94 179.363C547.273 179.363 548.891 178.507 549.843 177.174C552.318 173.652 549.462 174.032 540.038 178.792C530.423 183.647 519.665 186.884 509.86 187.836C501.863 188.693 472.161 188.026 470.829 186.979C470.353 186.503 467.402 185.932 464.355 185.551C460.643 185.075 457.882 184.123 456.073 182.6C454.645 181.363 452.36 180.315 451.028 180.315C446.934 180.315 444.554 175.746 444.268 167.654C444.173 162.894 443.602 159.848 442.46 158.134C441.603 156.802 440.841 154.612 440.841 153.374C440.841 151.661 440.365 151.185 438.747 151.185C437.033 151.28 436.462 150.709 436.272 148.424C436.081 146.711 434.558 144.331 432.559 142.427C430.655 140.428 429.513 138.619 429.798 137.762C430.084 137 430.37 135.763 430.37 135.001C430.37 133.954 431.226 134.049 434.939 135.477C451.123 141.855 458.929 146.901 465.878 155.469C467.973 158.039 468.734 158.42 469.877 157.468C471.971 155.754 469.972 152.708 462.261 146.235C457.787 142.522 454.169 140.332 451.313 139.571C448.933 139 443.602 136.524 439.413 134.144C435.225 131.765 430.941 129.861 429.894 129.861C428.846 129.861 426.276 128.813 424.182 127.481C420.564 125.291 419.612 125.196 406.57 125.291C398.954 125.291 390.672 125.672 388.007 126.053Z" fill="black"/>
<circle cx="727" cy="465" fill="#5CE50D"/>
<circle cx="446" cy="182" fill="#E52A0D"/>
<circle cx="272" cy="435" fill="#E52A0D"/>
<circle cx="582" cy="739" fill="#E52A0D"/>
</svg>
