<svg width="1000" height="1000" viewBox="0 0 1000 1000" fill="none" xmlns="http://www.w3.org/2000/svg">
<rect width="1000" height="1000" />
<path fill-rule="evenodd" clip-rule="evenodd" d="M245.493 717.211L252.302 722.744L259.396 728.276L262.659 731.114L264.644 732.675L266.206 733.951L269.752 736.788L274.718 741.329L278.264 744.166L278.689 744.875L281.243 747.003L283.23 748.28L284.081 749.131L286.209 751.259L291.883 755.657L292.876 756.65L293.302 757.643L292.167 762.609L291.599 763.601L288.195 766.155L287.769 766.865L287.627 768.708L285.499 770.411L284.79 771.546L285.073 773.39L282.52 774.809L280.392 777.505L277.555 778.781L275.284 779.633L269.61 782.612L268.759 783.463L266.631 785.023L258.97 786.583L256.417 788.428L253.863 790.698L248.756 795.095L246.344 797.365L244.216 799.919L241.662 801.905L238.967 803.324L237.123 804.743L234.995 807.863L230.455 813.113L228.894 815.808L225.774 818.788L224.071 820.49L221.659 822.476L220.382 824.32L219.248 826.023L216.836 828.576L214.566 829.144L211.445 831.13L209.317 834.251L207.331 837.797L205.912 839.5L204.777 841.202L203.075 843.614L201.23 844.749L199.67 845.317L198.536 846.309L197.542 847.728L194.705 850.282L193.003 852.268L191.3 851.842L190.024 853.119L188.179 855.531L185.625 858.368L185.058 859.362L181.512 862.766L180.944 863.617L179.809 864.326L178.533 865.745L175.837 868.44V869.859L172.432 875.25L171.297 878.513V880.074L170.304 881.208L170.587 882.769L169.453 883.336L168.744 882.911L167.608 883.195L166.757 884.897L166.331 887.025L166.048 889.011L168.318 907.454L169.453 914.973L171.439 929.868L168.885 937.671L167.183 941.36L153.848 949.02L151.861 950.297L151.436 951.574L148.314 957.532L145.335 961.646L143.491 963.491L140.512 966.186L137.674 968.457L135.546 969.875L130.865 971.861L124.765 975.124L121.36 976.826L119.516 978.387L116.111 982.501L111.855 986.899L109.301 989.169L105.613 992.573L105.045 992.999L102.917 986.19L98.5192 971.577L97.3846 968.881L93.1286 954.837L92.2774 952L91.284 948.878L87.7378 937.387L87.1703 937.104L84.9005 936.82L80.9282 929.301L77.5234 923.059L74.5442 917.243L74.4023 916.958L76.2466 915.256L79.3676 912.419L83.3399 908.446L86.461 905.326L88.3053 903.339L91.284 900.644L92.2774 899.793L94.831 897.24L103.06 889.295L104.336 887.592L109.869 882.059L112.848 878.371L116.679 874.115L118.239 872.129L119.09 871.562L122.211 868.157L123.346 867.163L124.623 865.461L126.183 864.043L128.028 862.198L127.176 861.064L127.034 860.354L128.311 862.056L128.737 861.773H129.162L130.723 860.638L132.709 858.51L136.256 854.821L140.37 850.85L143.633 847.445L144.768 846.451L147.889 843.33L150.727 840.351L159.381 830.136L164.488 823.611L167.893 819.781L171.864 814.957L173.425 812.829L173.567 812.97L179.667 805.735L184.491 799.777L185.768 797.791L187.186 796.089L189.456 793.535L196.833 784.74L200.096 780.484L203.784 775.234L206.763 770.411L205.629 768.85L205.486 767.999L206.196 767.148L206.338 766.58L207.473 765.446L205.771 767.999L205.912 768.85L208.04 769.844L209.742 768.141L209.459 767.431L211.019 766.58L213.147 763.601L216.411 759.629L220.524 754.663L224.497 749.415L226.625 746.01L229.604 742.038L232.583 737.356L235.137 733.242L237.406 729.838L240.385 725.439L245.493 717.211Z" fill="black"/>
<path fill-rule="evenodd" clip-rule="evenodd" d="M502.554 832.978L502.837 832.837L505.674 829.858L507.661 827.588L509.504 824.466L515.888 816.664L518.016 813.401L520.429 808.436L521.563 806.308L522.415 804.18L525.677 797.37L526.387 795.1L528.799 787.439L529.792 783.468L530.075 779.921L529.366 776.516L528.656 773.395L527.805 770.558L527.664 769.707L528.373 767.579L528.656 766.159L528.515 761.762V758.641L528.09 751.548L528.373 749.561L528.941 747.575L529.507 745.305V741.617L530.643 739.063L531.069 734.95L531.21 732.822L531.778 727.715L532.346 726.721L533.622 722.323L534.899 718.209L535.182 717.358L537.878 714.379L540.432 711.542L540.715 710.974L542.985 708.278L545.113 705.441L549.653 700.192L551.213 697.922L554.051 692.815L557.597 687.424L562.846 680.331L564.691 679.054L564.549 678.77L566.109 677.493L568.379 675.082L570.933 673.663L572.209 673.379L576.608 671.819L577.742 671.109L580.155 670.4L581.998 669.974L584.126 668.981L585.545 667.846L588.524 665.861L590.227 665.151L593.489 662.739L602.427 656.355L605.548 653.944L607.251 652.383L608.385 651.532L610.939 650.114L618.6 646.709L618.316 644.155L619.31 642.168L622.856 639.757L623.707 639.048L625.694 636.352L627.537 633.373L631.935 628.692L633.354 628.408L636.049 629.259L638.745 629.543L639.738 629.117L641.015 627.698L641.298 624.436L641.582 623.727L644.42 618.477L645.554 617.058L647.54 615.356L649.81 614.221L650.804 614.789L650.662 617.484L652.081 618.477L653.783 618.194L655.06 616.917L656.903 614.647L658.322 613.228L659.883 612.519L661.159 612.235L661.869 611.668L664.423 606.844L665.7 606.418L666.551 606.844L668.111 608.688L670.807 608.972H674.921L676.623 607.979L678.893 607.837L680.17 606.703L680.596 605.851L682.156 604.432L684.993 605.567L685.986 605.426L686.98 604.716L687.831 602.872L688.54 602.447L689.249 602.872L689.959 604.575L691.236 605.141H692.512L693.93 603.865L694.924 603.723L695.917 603.865L696.91 604.575L697.761 606.135L698.896 608.831L699.605 611.525L700.882 613.228L702.301 614.363L703.436 614.647L704.57 614.363L705.564 613.087L706.698 608.831L708.117 606.703H705.847L705.421 605.426L706.131 604.716L706.415 602.447L705.989 602.021L706.273 598.757L706.557 597.481L707.408 597.34L708.259 597.765L708.685 594.218L708.259 592.941L708.543 591.097L709.536 587.125L709.394 585.99H708.117L706.698 582.869V581.167L707.975 580.173L707.408 579.322V578.045L707.975 577.478L707.692 575.492L707.834 574.357L707.549 572.087L706.131 569.676L705.706 568.54H706.557L705.847 567.689L705.706 565.42L703.861 563.717L701.591 562.156L699.18 561.873H696.91L693.93 559.886L689.108 558.609H688.114L683.007 558.894L680.596 559.177L679.46 559.603L676.906 560.028L673.218 559.745L668.394 558.894L665.983 559.177L663.572 557.9L660.734 557.617L658.89 557.332L657.471 556.481L655.06 556.056L650.945 554.495L647.825 552.367L644.845 549.53L643.284 548.254L640.873 547.118L639.738 546.835L637.61 547.118L635.057 548.254L633.212 548.395L631.368 547.402L630.375 545.558L629.807 541.444L628.247 541.727L627.112 541.16L625.268 539.599L623.423 536.762L622.147 534.35L620.728 530.662L619.025 528.534L617.465 527.115L614.06 525.555L610.798 524.42L608.385 523.995L605.265 523.852L602.995 523.995L601.86 524.278L599.873 525.271L594.483 528.817L590.085 534.35L587.815 536.62L586.113 538.748L584.268 540.734L581.431 542.862L578.878 543.855L575.331 544.707L571.358 544.281L563.13 543.43L558.874 543.288L554.902 542.862L551.497 542.011L551.072 541.585V538.89L551.497 538.039L557.597 533.216L560.151 531.23L561.286 528.108L561.995 526.974L564.123 525.98L564.691 525.838L566.677 525.129L569.939 524.561L572.777 524.278L575.614 523.852L582.708 524.278L584.126 524.136L585.12 523.71L586.254 522.292L586.68 520.873L587.39 517.894L588.524 513.638L588.667 509.382L589.092 508.956L589.659 502.289L588.95 500.728L589.659 496.189L589.233 494.486V493.493L589.518 489.379V486.825L588.95 483.988L587.531 479.59L586.822 477.462L584.552 474.483L582.992 473.206L581.147 472.781L578.027 472.638L573.771 471.787L571.075 470.227L568.237 467.39L567.102 466.113L566.534 464.127L566.819 462.85L570.649 459.587L568.805 457.176L568.379 455.615L565.683 454.763L564.549 453.912L561.712 450.65L561.853 450.224L559.016 446.677L557.739 441.712H557.314L556.888 439.584L558.307 439.442L561.427 438.024L561.853 436.037L562.704 431.781L563.13 430.363L564.406 423.695L564.691 420.007L564.549 414.332L564.832 407.522V404.826L566.534 403.975L568.379 401.706L567.954 398.017L567.245 390.356L566.677 386.951L565.4 381.277L564.832 379.433L564.691 379.149L564.123 376.17L561.002 367.232L559.584 362.551V362.409L557.03 352.903L556.462 351.343L554.618 352.052L554.051 351.201L554.902 348.932L555.753 347.655L556.605 344.391L556.462 343.54L557.739 342.548L559.442 341.98L558.874 340.42L560.861 339.001L561.002 337.582L560.718 335.738L559.867 334.177L558.165 332.617L558.023 329.354L556.462 326.942L556.32 326.375L555.895 324.673L556.179 321.409L557.881 318.43L557.171 316.444L557.314 315.167L558.307 315.025L559.158 312.614L556.746 307.79L553.767 307.364L552.064 307.507L549.085 304.953L549.511 303.393L550.93 300.98L550.787 300.129L548.944 297.434L546.674 295.873V294.455L544.403 292.469L542.701 292.611L542.843 289.348L541.141 289.064L539.722 287.646L538.162 276.864L539.438 274.878L540.006 274.452L540.147 272.75L541.424 270.48L543.694 269.061L546.531 268.777L548.518 269.345L549.795 269.061L551.213 267.217L553.058 267.075L554.618 265.94L555.611 264.521H557.314L557.597 264.238L558.307 263.953L559.584 261.259V260.123L561.427 257.995L563.84 256.151L564.549 255.158L568.379 251.753L571.926 246.504L571.642 245.936L572.352 244.944L572.919 244.659L574.054 243.099L575.899 244.376L576.608 244.659L577.742 243.95L577.601 243.099L577.742 239.837L577.175 237.992L580.012 233.453L580.155 233.31L580.012 228.912L581.431 225.792L582.992 224.656L583.559 222.245L584.268 220.968L581.289 214.726L579.87 214.159L579.161 212.173L578.452 211.747L577.601 210.47L575.756 209.903L574.48 210.045L574.054 210.47L572.777 210.328L571.216 209.903L570.79 209.335L571.216 208.058V207.775L572.352 203.944L573.486 200.823L573.628 199.972L572.919 199.83L574.48 193.162L574.763 187.346V185.076L574.905 178.551L575.189 169.754L575.331 166.634L577.884 164.647L580.438 165.215L580.721 165.498L582.14 165.357L582.424 163.37L582.708 162.661L582.992 160.391L586.396 161.101L587.957 160.959L589.376 161.242L590.795 160.675L591.504 159.114V157.412L590.795 154.575L591.787 152.873L592.355 152.589L593.064 151.312L593.632 151.596L595.192 151.17L595.902 150.177L597.036 147.623L596.894 147.056L597.462 145.495L595.902 138.402L594.341 137.834L591.361 137.551L591.22 137.409L590.369 135.423L590.795 134.288L592.071 132.444L593.064 130.316L593.489 128.756L594.625 128.33L595.051 127.337L595.334 126.911L595.902 125.351V123.932L596.185 123.223L599.022 118.683L599.307 115.562L599.448 115.278L599.732 112.157L599.164 111.732L598.739 108.894L599.307 107.617L600.867 106.766L601.009 105.489L600.724 104.212L601.009 102.084L602.001 100.807L602.711 98.9628L602.853 97.686V97.5448L603.137 95.1324L604.129 91.7277L605.832 90.0258L606.399 88.749L606.257 84.3511L606.399 84.0674L606.967 82.9324L608.385 81.7975L610.088 81.23L611.223 79.3857L610.513 77.9672L610.939 76.8322L612.358 74.8461L613.209 74.4205L614.911 72.5762L615.054 72.2925L616.472 70.732L617.323 70.1645L618.884 69.597L620.586 67.3272L621.438 66.6178L622.147 65.1992L623.14 64.2061L627.254 62.7874L628.956 62.6455L631.084 63.3549L632.219 64.7736L633.638 64.348L635.908 62.6455L636.475 61.6525L639.738 60.6595L641.441 59.9502L643.994 58.2478L644.42 57.5384L647.399 55.1267L653.073 51.2963L651.655 50.4451L652.364 49.1683H656.052L662.436 44.9123L662.862 44.3448L665.841 43.4937L668.111 39.947L668.253 39.8052L670.522 38.2446L671.942 37.1097L673.218 35.691L676.34 32.9955L676.765 30.5838L678.751 28.1721H679.886L682.014 29.0233L682.724 28.7395L682.865 28.4558L684 27.0371V26.8953L688.114 21.7882L688.965 19.9439L691.945 17.1065L693.505 15.9716L696.484 14.8367L698.186 13.8436L700.173 13.2761L700.882 11.9993V10.7225L702.301 9.87135L706.131 7.60156L706.557 7.88526L709.962 13.418L711.948 16.8228L713.792 19.6602L718.757 24.3418L723.723 29.307L737.342 35.4073L740.037 36.2585L746.421 38.5284L750.536 39.2377H753.656L757.912 38.954L759.331 38.5284L764.722 37.6772L768.552 36.6841L770.822 35.8329L772.808 34.9817H773.944L775.078 34.4142L779.618 32.4281L781.604 32.1443L784.016 32.8537L785.293 32.9955L786.995 32.4281L789.974 32.7118L791.677 33.2793L794.939 33.9886L798.628 35.691L800.756 37.3934L803.168 38.6702L805.153 40.2308L806.573 42.6425L807.707 42.7844L810.403 42.6425L814.091 44.6285L818.206 45.6216L819.057 47.324L818.915 49.8776L819.057 51.4382L820.475 55.836L819.908 56.6872L819.624 58.6734L821.043 60.092L821.894 63.0711L823.313 65.7666L824.59 67.0434L826.008 69.7389L826.576 73.2856L828.278 74.5624L829.129 77.116L826.433 79.102L826.15 82.6487L825.157 86.621L824.59 90.1676L823.029 92.0121L822.887 93.7145L824.022 95.8425L826.859 103.22L827.569 106.34L828.278 108.043L830.406 109.745L832.251 110.881L835.655 114.001L838.067 115.278L841.755 116.413H842.323L843.742 115.42L844.876 112.724L846.721 113.009L848.564 112.015L849.416 111.306L850.977 111.447L852.537 111.022L854.665 112.015L855.233 111.732L857.502 111.873L858.495 111.59L861.617 112.441L863.886 112.583L866.724 113.292L868.569 114.285L873.391 118.683L877.79 120.385L888.004 123.081L891.266 124.357L893.537 125.066L895.522 125.351L896.799 126.06L899.778 126.911L901.055 127.62L903.042 129.607L905.028 130.458L907.156 130.032L908.29 129.465L911.269 129.181L912.689 129.607L913.682 129.039L915.384 131.025L916.093 131.45L916.802 130.884L918.505 132.16L918.93 132.869L918.789 134.004L917.938 135.423L916.235 135.14L916.093 136.274L916.802 137.409H917.796L918.789 136.7V138.402L919.215 139.679L919.356 141.098L918.93 142.233L919.356 143.652L918.079 146.205L917.796 147.765L917.37 148.049L916.377 147.482L915.668 146.346L914.674 145.495L912.972 145.637L912.405 146.205L913.256 147.623L912.831 149.468L913.114 151.312L913.54 152.021L914.533 152.164L914.959 153.015L913.54 154.292L914.249 155.284L915.668 158.263L916.661 159.399L916.519 159.965L915.1 160.25L914.533 161.384L912.972 163.229L914.107 165.783V168.477L914.391 169.471L915.242 170.18L915.1 172.308L913.54 173.159L913.397 174.01L913.823 175.004V176.28L912.689 177.983L912.831 179.402H914.674L914.959 180.111L916.235 180.962L917.512 182.522L917.796 183.658L917.512 184.509L918.079 186.211L919.072 187.629L919.215 188.339L917.938 190.042L916.802 191.319L917.228 192.17L916.519 193.304L914.959 193.872L913.823 196.567L914.107 197.135L916.235 197.986L917.228 198.695L918.363 198.837L919.215 200.114L919.356 201.391L920.775 202.81L920.917 204.512L921.768 207.349L921.343 209.194L920.491 210.186L919.072 210.896L918.789 211.888L919.072 213.165L918.363 214.301L917.512 214.726L915.81 214.584L915.242 215.152L916.093 218.272L916.944 219.266L916.377 220.685L917.228 221.819L918.363 221.962L919.215 222.671L919.924 224.089L919.781 225.792L919.072 226.926L918.363 227.21L918.221 228.629L918.93 232.176L920.349 233.027L920.491 232.034L922.477 231.04L923.896 231.75L923.612 234.587L922.477 235.296L922.052 237.85L921.343 238.701H920.349L918.363 237.709L917.37 238.701L917.653 239.269L919.498 240.829V241.255L918.647 242.531V244.518L918.221 244.802V246.504L918.789 246.787L919.64 248.349L920.349 248.49L921.343 247.923L921.626 247.213L923.186 246.93L924.747 247.497L924.605 248.774L923.045 249.767L922.619 250.334L921.626 250.477L920.917 251.895L921.768 253.739L920.917 255.016L921.343 256.009L922.761 257.144L922.903 257.995L922.477 259.698L924.322 259.556L925.314 259.982L925.599 261.117L924.889 262.11L924.18 262.251L923.896 261.542L922.761 260.691L921.768 260.974L921.058 262.11L921.626 263.812L921.058 264.521L920.207 264.805L918.789 265.798L918.647 267.217L919.924 267.926L920.349 270.337L921.343 271.756L923.045 271.189L923.328 272.182L922.335 274.452L923.328 275.729L922.477 276.438L922.194 277.289L921.058 277.998L920.775 278.992L919.781 279.417L918.93 278.424L918.079 277.006L916.944 276.864L915.951 277.998L916.093 279.843L916.802 279.985L918.505 281.12L918.221 282.539L917.228 282.68L916.093 284.524L916.377 286.795L916.093 287.22L916.944 288.638L916.377 289.632L915.384 289.064L914.107 287.787L913.54 286.51L912.689 286.652L912.263 287.504L912.546 288.78L911.837 291.051L912.546 291.76L914.107 291.051L914.959 291.334L915.525 292.753L914.816 294.313L913.54 294.03L912.831 294.455L912.546 293.745L910.986 293.604L910.703 292.894H909.852L910.135 293.462L909.141 294.596L911.412 295.873L911.837 296.724L911.269 298.286L910.135 298.569L910.844 299.278L912.689 299.137L914.107 299.562H915.525L915.81 302.257L914.249 303.818L914.674 305.379L917.228 305.662L916.802 306.372L915.384 311.054L913.54 311.337L912.689 311.054L912.121 309.492L910.703 309.777V310.911L909.852 312.756L908.007 311.054L906.73 312.188L906.447 314.458L907.581 316.586L908.716 317.863H910.844L911.269 318.714L909.284 319.423L907.724 320.275L907.865 321.126L908.432 321.694L910.844 321.977L911.269 322.686L910.418 324.105L909.567 324.531L909.426 325.24L909.993 325.807L910.135 326.942L907.156 330.063L906.447 331.908L905.879 332.049L905.028 334.603L904.034 335.313L902.474 337.298L900.63 337.441L899.778 338.007L899.495 338.717L900.204 339.284L901.481 342.122V343.682L902.758 345.243L903.893 347.513L903.468 348.081L904.319 349.783L905.453 349.924L906.73 351.627L906.305 353.188L906.447 354.039L907.439 356.308L908.149 356.45L907.581 357.159L904.744 357.727L904.46 358.862L903.183 359.287L903.468 360.99L902.616 362.125L900.63 360.849L899.778 362.125L900.346 362.834L901.906 363.402L902.049 364.111L901.197 365.104L901.34 366.239L900.488 366.948L899.212 366.522L898.502 366.807L898.218 367.658L898.927 369.218L898.644 369.786H897.225L897.084 370.212L897.509 371.914L898.786 372.481L897.935 374.042L897.225 374.751V375.744L898.502 377.021L897.084 377.447L896.799 378.014L897.935 379.858L897.793 380.426L896.516 381.277L895.381 380.567H893.537L893.253 382.128L891.266 382.27L891.125 384.682L891.976 385.108L893.537 384.823L894.104 385.249L892.828 387.236L892.118 387.802L892.402 388.796L891.125 391.207L891.266 392.058L892.118 392.91L892.969 394.329L892.402 395.748L893.394 396.031L893.82 396.599L893.679 398.301L892.828 399.861L893.253 401.564H894.104L894.813 403.266L895.807 402.84L896.799 403.124L897.509 404.117L897.084 405.394L896.09 406.103L895.097 405.962L894.388 406.954L893.253 407.239L893.82 408.941H894.388L894.53 407.664L896.232 406.671L896.374 407.948L896.09 410.501L897.367 411.211L896.799 412.914L895.807 413.339L895.239 414.332L895.807 415.183L895.097 415.751L895.948 416.176V416.885L897.935 417.879L898.786 416.744L899.353 417.17L898.927 418.73L899.353 418.872L900.346 418.162L900.204 417.17L899.637 416.46H900.346L901.481 417.311L901.623 418.304L901.055 419.439L903.609 420.858L903.042 422.135L901.34 423.128L901.623 423.979H902.474L902.191 424.83L900.914 426.107L902.474 426.674L902.191 427.667L901.34 427.81L900.204 427.525L900.063 428.376L901.481 429.228L902.191 431.498L903.325 432.491L904.46 432.917L905.453 434.335L905.596 435.186L904.034 435.328L904.319 437.173L905.737 437.314L906.73 438.165V439.301L907.156 440.01L908.858 440.152L909.567 441.003L908.575 441.57L907.439 442.847L906.162 443.414L906.021 443.84L907.298 445.117L908.007 446.677L907.724 447.245L906.872 446.677L905.737 447.245L905.311 447.954L905.17 450.366L906.162 450.65L906.447 451.643V452.778L904.886 454.197L905.879 455.615L906.021 456.608L905.453 457.176L906.162 457.459L906.73 459.445L906.305 459.871L905.596 459.587L904.886 460.155L906.588 461.006L906.73 461.715L904.744 463.843L905.17 465.12L906.872 464.552L908.007 465.12L906.872 466.822L905.311 466.965L905.028 467.957L904.177 467.816L904.46 467.106L903.751 466.822L903.893 467.816L903.468 468.383L901.481 470.085V472.072L901.906 473.49L901.765 473.915L900.772 473.49L898.927 473.915L897.793 474.625L896.941 474.341L895.807 475.051L896.374 478.881L896.799 479.59L896.232 480.584L896.658 481.435L895.665 482.002L895.522 483.563L894.956 484.414L895.097 485.549L894.53 486.683L895.807 487.393L894.813 489.662L895.097 490.372L895.807 489.662L896.941 490.514L896.232 491.933L896.658 492.642L898.927 493.067L898.076 493.777L898.502 494.77L899.069 493.918L899.921 494.77L898.786 495.905L898.218 497.323H899.353L900.346 495.905H901.055L900.063 498.033L898.076 498.742L898.502 500.444L899.212 501.153L899.069 502.005L901.623 502.43V502.998L900.063 503.849L899.921 505.268L900.63 505.409L903.893 506.971L903.609 508.531L904.034 510.942L906.872 509.95L908.432 511.652L909.284 511.793L909.426 510.942L910.561 512.078L909.141 512.787L907.581 513.355L907.865 514.347L909 515.624L908.858 516.759L909.426 516.617L909.852 517.326L909.141 517.752L908.149 517.468L907.439 516.759L907.298 517.468L908.575 518.462L908.29 518.745L907.156 517.894L906.447 518.32L907.156 519.596L906.021 520.731L906.162 521.724L905.453 522.15L904.886 520.731H904.177L904.319 523.143L903.468 523.71H902.474L902.049 524.278L902.474 524.987L903.893 525.838L905.453 525.271L905.737 525.98L904.602 526.689L903.893 527.825L905.17 528.676L906.305 528.534V528.96L905.028 530.094L906.73 529.385L908.29 530.236L908.432 531.088L907.581 531.371L906.588 530.945L906.447 532.081L909.993 533.216L909.709 534.067L908.858 534.35L907.439 534.067L907.581 535.201L908.858 535.769L908.575 536.337L909.141 538.039L908.29 538.606L908.432 539.174L909.993 538.748V539.742L908.575 540.451V543.43L907.298 543.146L907.581 543.855L909.141 544.139L908.716 545.841L909.709 547.26L909.852 548.111L907.865 549.105H906.162V550.239L905.737 551.091L904.46 551.658L905.453 551.942L906.305 552.793L905.737 553.361L904.46 552.651L903.751 554.07L905.596 554.353L904.886 555.914L905.596 556.198L906.305 555.63L907.014 555.772L906.872 556.623L905.879 557.617L906.447 558.609L906.162 560.454V562.156L907.298 563.007L908.29 564.426L908.858 565.987L911.554 568.398L910.844 570.242L911.412 572.796L910.703 573.932L910.135 575.917L908.858 577.903L910.135 581.876L910.986 583.01L911.837 585.138L913.397 585.706L914.249 586.557L914.107 588.118L912.689 589.253L912.405 590.246L913.682 590.671L914.674 590.53L915.668 591.239L916.093 592.941L915.525 594.218L915.668 595.211V596.772L913.965 597.34L912.546 595.921L910.986 596.346L910.418 595.921L909.426 596.488L909.141 596.204L907.298 596.346L906.588 595.495L904.744 595.353L903.751 595.637L902.9 595.069L901.197 595.495L900.346 594.644H898.786L897.084 593.367L896.09 593.225L895.665 593.935L894.671 593.793L892.543 594.644L891.834 594.36L890.132 593.084L887.862 592.658L887.01 593.084H885.734L884.882 591.381L883.606 591.522L882.329 593.225L881.903 595.637L882.045 596.63L881.62 597.906L879.917 599.325L879.492 601.879L878.499 602.588L877.081 605.851L877.222 606.703L876.513 607.269L875.378 609.256L875.519 610.107L874.242 611.668L872.682 612.944V614.079L871.831 615.215V615.924L870.98 616.491L870.129 619.045L869.703 621.882L867.859 626.706L866.156 628.408L865.022 630.394L863.745 631.245L862.184 634.082L859.63 635.218H858.495L856.367 636.495L854.523 638.48L851.544 639.331L850.551 639.757L850.409 641.034L849.132 642.027L848.849 642.878L849.132 644.155L849.558 644.581L848.99 645.432L847.855 645.573L847.288 646.992L847.43 647.986L847.004 648.411L847.43 649.829L846.295 651.106V652.667L847.004 653.234L846.579 654.37L847.004 655.504L847.998 655.93L847.146 656.781L847.004 657.774L847.572 659.192L847.146 662.739L847.713 664.584L845.87 665.435L845.16 667.421L843.742 668.981L843.883 669.974L844.876 670.542L844.308 671.251L844.593 672.954L843.457 672.811L842.606 673.379L842.748 675.082L841.471 675.365L842.039 676.784L840.763 677.777L841.471 678.77L840.763 678.629L839.911 679.621L840.62 680.898L839.769 681.891L839.343 683.451L837.925 683.31L837.073 684.161L837.216 685.154L835.513 685.438L835.655 686.998L835.371 687.424L836.081 688.417L835.513 688.984V689.978L836.507 690.687L835.939 691.254L836.081 693.099L838.209 694.943L836.364 695.085L833.953 697.638L833.243 698.915L831.966 698.206L831.115 698.347L830.548 699.198L830.123 700.901L828.987 700.618L827.995 703.454L827.143 703.597L826.008 705.725L827.001 706.859L827.143 707.71L828.42 708.704L828.561 709.839L827.143 710.548L825.582 710.123L824.59 711.115L823.88 713.102L823.739 714.804L824.448 715.939L823.596 716.507L823.313 719.344L823.739 720.763L823.029 723.174L823.313 723.884L822.887 725.302L824.305 726.153L824.022 727.005L825.015 729.417L826.292 730.977L827.143 733.531L827.001 734.099L828.42 737.503L827.852 739.206L827.143 740.624L824.59 742.752L825.015 744.029L823.313 745.873L823.454 746.866L822.177 746.015L821.185 747.15L821.043 748.569L821.326 749.703L820.334 748.852L818.915 749.42L817.78 750.697L817.638 751.406L818.206 751.689L818.489 752.825L817.921 753.108V754.243L819.198 755.804L817.355 756.23L816.645 756.655L816.503 758.215L817.355 759.492L816.645 759.918L816.929 760.769L818.064 761.478L817.638 762.329L819.057 763.465V764.457L816.645 765.167L815.51 767.579L815.793 768.43L815.368 769.564L816.078 770.841L815.51 771.834L816.219 773.254L815.652 773.537L814.375 776.516L815.936 778.927L816.219 780.489L815.936 782.049L816.645 782.617L815.936 782.758L815.084 783.609L815.652 785.454L814.942 786.021L814.517 788.007L814.942 790.561L816.219 791.412L815.51 792.405L812.956 793.398L813.24 794.391L811.112 795.951L808.558 798.079L806.147 801.059L803.736 803.471L797.918 807.727L795.933 809.57L791.96 812.124L788.555 814.536L785.576 817.373L780.611 821.062L777.064 823.9L770.113 829.29L768.411 830.85L760.75 836.383L757.061 838.795L755.784 839.93L751.954 843.052L749.542 844.754L747.131 848.159L745.429 849.861L743.867 850.853L741.882 851.421L738.76 853.549L733.653 857.805L729.965 861.636L727.128 864.048L725.283 865.324L724.149 866.317L721.879 868.871L719.751 870.858L713.792 875.964L710.103 879.653L708.968 880.22L705.989 881.072H702.727H699.322L694.782 881.639L691.945 882.348L689.249 883.341L685.703 884.192L683.007 884.618L680.311 885.469L676.765 886.746L674.921 887.03L671.374 887.456L665.557 887.739L659.457 889.442L657.755 890.151L653.924 891.712L650.236 893.698L647.825 893.981L642.575 893.698L640.305 893.13L637.326 892.846L629.382 893.13L627.537 893.272L619.593 892.989L615.62 892.563L611.507 891.853L607.393 891.712L600.724 891.853H592.923L589.233 891.427H583.985H580.296H579.587L574.905 891.712L570.79 891.853L568.662 892.137L565.117 892.846L561.57 893.698L560.435 894.123L556.462 895.117L553.909 895.968H553.767L550.646 896.819L546.531 897.67L542.134 898.237L536.885 898.663L536.601 897.386L532.061 897.811L528.09 900.365L524.685 900.224L523.124 902.919L519.293 903.629H518.868L517.165 902.777L514.896 902.352L513.76 901.075L511.917 899.656L509.789 897.67L509.079 897.386V894.832L508.653 893.555L507.802 892.704L502.837 889.016L498.298 884.618L495.885 881.213L495.319 878.659L494.325 874.829L493.9 873.552L491.346 869.296L490.637 866.885L490.353 864.898L490.495 863.055L491.914 857.947L493.474 853.691L496.028 847.591L498.298 843.477L499.149 840.356L500 837.944L502.554 832.978ZM714.218 567.406L715.636 568.824L716.204 570.242L716.346 572.229L718.332 572.37L718.615 572.938L720.318 574.073L719.041 574.357V575.208L720.176 575.917L719.893 576.769L720.885 577.052H722.871V575.492L721.169 574.357L720.602 573.647L720.743 571.945L721.595 570.952L721.879 569.959L721.027 569.25L721.879 567.122V565.278L721.169 564.71L719.466 564.569L718.474 565.561L716.487 566.838L715.495 566.129L714.218 567.406Z" fill="black"/>
<circle cx="708" cy="569" fill="#5CE50D"/>
<circle cx="838" cy="397" fill="#E52A0D"/>
<circle cx="123" cy="904" fill="#E52A0D"/>
<circle cx="738" cy="167" fill="#E52A0D"/>
</svg>
