<svg width="1000" height="1000" viewBox="0 0 1000 1000" fill="none" xmlns="http://www.w3.org/2000/svg">
<rect width="1000" height="1000" />
<path d="M527.053 18.5157C526.018 18.7981 523.476 20.9632 521.311 23.3166L517.545 27.6469L513.027 26.1407C509.261 24.9169 508.508 24.8228 508.038 25.9524C507.473 27.5528 500.13 27.741 498.624 26.2349C496.93 24.5404 495.8 25.9524 495.235 30.1886C494.576 34.8954 490.999 39.0374 485.351 41.4849C480.926 43.3676 479.797 45.0621 481.209 47.6979C481.868 48.9217 481.774 49.9572 480.832 51.2751C480.079 52.2164 479.514 54.0992 479.514 55.4171C479.514 57.3939 478.291 58.6177 472.737 62.1008C464.547 67.2782 462.57 68.1255 462.57 66.431C462.57 64.4542 460.028 62.8538 457.957 63.5128C456.828 63.7952 454.662 65.3955 453.156 66.9958C450.991 69.161 449.956 69.6317 449.108 68.7844C447.414 67.09 445.625 67.5607 442.142 70.573C440.354 72.1733 435.741 74.9974 431.881 76.786C428.022 78.6687 424.915 80.5515 424.915 81.0221C424.915 81.3987 423.221 82.34 421.244 82.9049C417.573 84.0345 417.573 84.0345 419.455 85.5407C422.28 87.8941 422.28 98.908 419.361 102.015C417.761 103.709 417.384 105.309 417.384 110.487C417.384 116.794 417.29 116.888 415.125 116.511C413.054 116.135 412.866 116.323 413.242 118.959C413.713 121.501 413.054 122.536 408.536 127.149C404.017 131.856 403.17 132.326 402.134 131.103C401.475 130.255 400.722 127.431 400.44 124.795C399.969 120.371 399.781 119.995 397.428 119.712C394.792 119.43 394.792 119.43 394.792 125.078C394.792 128.184 395.168 130.914 395.639 131.197C396.016 131.479 396.486 134.115 396.486 137.127C396.58 140.14 397.051 144.093 397.616 145.882C399.969 153.884 396.957 165.745 391.968 168.475C390.932 169.04 390.085 170.263 390.085 171.205C390.085 172.052 389.049 173.84 387.732 175.064C385.284 177.418 385.661 179.865 388.767 181.089C390.179 181.654 390.179 181.465 389.049 180.148C388.014 178.83 388.108 178.641 390.085 179.018C393.568 179.489 393.474 182.03 389.897 184.29C386.696 186.361 384.437 185.702 384.437 182.972C384.437 180.618 382.648 181.56 381.989 184.195C381.613 185.702 380.765 187.678 380.107 188.714C379.259 189.844 378.789 193.233 378.789 197.657C378.789 204.058 379.071 205.094 381.048 206.976C382.836 208.671 383.966 209.047 385.943 208.577C387.543 208.106 389.238 208.483 390.65 209.424C392.533 210.648 392.909 211.683 392.909 215.355C392.909 217.802 393.568 220.626 394.321 221.568C395.639 223.262 395.545 223.639 393.191 226.086C391.215 228.157 390.65 229.569 390.838 231.828C391.12 234.37 390.462 235.594 387.449 238.606C384.343 241.524 378.506 244.631 375.776 244.725C375.4 244.725 376.153 242.466 377.377 239.736C378.694 237.1 379.73 234.088 379.73 233.146C379.73 231.075 373.988 221.285 372.764 221.191C372.293 221.191 371.069 220.532 370.128 219.591C367.586 217.331 364.292 219.214 361.468 224.768C360.056 227.592 357.796 230.134 355.914 231.358C352.995 232.958 352.525 233.899 351.677 238.983C350.642 244.631 350.642 244.725 353.937 249.62C355.631 252.35 357.137 255.08 357.137 255.739C357.137 258.092 354.878 261.67 353.372 261.67C351.677 261.67 348.853 265.153 346.406 270.33C344.9 273.437 344.9 274.66 345.841 282.756C346.5 287.651 346.782 292.452 346.406 293.299C346.123 294.147 346.688 297.441 347.724 300.642C348.665 303.748 349.983 308.173 350.548 310.338C351.113 312.503 352.525 315.045 353.654 315.986C354.878 316.928 356.102 318.434 356.478 319.281C356.855 320.316 358.079 320.975 359.397 320.975C360.809 320.975 362.409 321.917 363.539 323.517L365.421 326.153L368.998 324.458C371.446 323.235 372.764 323.046 373.423 323.705C373.988 324.27 375.023 324.741 375.776 324.741C376.906 324.741 376.906 324.458 375.965 323.329C375.117 322.293 375.117 321.917 375.87 321.917C376.435 321.917 377.188 322.576 377.471 323.329C378.506 325.87 383.966 325.117 386.225 322.105L388.202 319.563L387.073 322.858C386.508 324.647 385.661 326.718 385.096 327.377C384.625 327.941 384.437 329.73 384.719 331.142C385.472 334.625 382.46 339.52 379.165 340.367C377.094 340.932 376.153 340.462 373.611 337.732C372.011 335.849 369.657 334.06 368.622 333.778C367.492 333.401 366.551 332.366 366.457 331.519C366.457 330.107 366.268 330.107 365.327 331.707C364.668 332.648 363.162 334.719 361.938 336.225C360.432 338.108 359.961 339.52 360.338 341.215C360.997 343.662 359.773 346.675 357.42 349.028C356.667 349.875 356.384 351.476 356.761 353.735C357.137 356.371 356.572 358.724 354.407 363.619C352.807 367.196 351.489 370.773 351.489 371.527C351.489 372.28 352.807 373.409 354.313 373.974C356.855 374.915 358.455 378.398 356.29 378.398C355.914 378.398 354.313 379.34 352.901 380.469C350.454 382.352 350.359 382.54 352.054 383.764C354.219 385.365 355.255 385.365 355.255 383.576C355.255 381.317 357.796 383.011 359.114 386.024C360.15 388.753 360.056 389.036 356.196 392.99C352.336 396.943 352.242 397.132 352.901 401.838C353.654 407.204 353.089 407.769 350.359 404.192C347.159 400.144 343.111 401.838 340.569 408.334C340.475 408.428 339.816 408.334 339.063 408.051C337.933 407.581 337.651 405.886 337.745 400.238C337.839 394.119 338.122 392.99 339.534 392.707C340.381 392.519 341.134 391.578 341.134 390.542C341.134 388.377 342.734 388.189 344.9 390.166C346.312 391.389 346.688 391.389 347.63 390.354C348.383 389.318 348.383 388.377 347.253 386.306C345.653 383.105 345.464 381.223 346.782 381.223C348.571 381.223 347.724 379.622 345.37 378.587C344.052 377.928 342.829 377.457 342.734 377.457C342.546 377.457 342.64 378.869 342.734 380.469C342.923 382.164 342.64 384.235 342.075 384.988C341.228 386.212 340.663 385.835 338.31 383.105C332.85 376.798 332.191 374.915 332.474 365.408C332.662 357.877 332.474 356.653 330.967 356.088C326.637 354.488 326.731 347.992 331.156 342.156C332.944 339.897 334.639 336.602 335.015 334.908C335.392 333.213 336.051 331.33 336.427 330.86C337.369 329.73 337.275 319.093 336.427 319.093C336.145 319.093 335.392 319.563 334.827 320.128C334.168 320.787 333.227 320.128 331.815 317.681C330.12 314.762 329.367 314.292 327.579 314.762C324.19 315.61 322.495 314.574 321.366 310.997C319.859 306.478 317.977 307.42 318.353 312.409C318.541 314.574 318.165 317.022 317.506 317.775C316.094 319.563 317.694 321.446 324.095 325.212C329.273 328.318 330.591 330.86 326.449 329.824C324.472 329.354 324.095 329.448 324.566 330.483C324.943 331.236 324.378 330.766 323.342 329.542C322.213 328.318 321.366 326.812 321.366 326.153C321.366 325.023 316.659 323.517 315.811 324.364C315.623 324.553 317.6 326.812 320.33 329.448C322.966 331.989 325.131 334.343 325.131 334.719C325.131 335.378 315.906 327.094 314.211 324.835C313.364 323.799 312.611 323.705 309.787 324.647C307.81 325.306 306.304 326.153 306.304 326.435C306.304 326.812 305.927 327.659 305.456 328.412C304.798 329.448 304.233 329.542 303.291 328.789C301.22 327 297.078 328.506 295.007 331.801C292.56 335.755 292.654 337.167 295.29 339.614C297.831 342.062 299.244 342.156 302.632 340.367C304.044 339.708 306.21 339.332 307.622 339.52C309.504 339.897 310.257 340.838 311.011 343.945C311.575 346.016 312.234 348.463 312.517 349.216C312.799 349.969 313.176 354.111 313.364 358.253C313.74 365.596 313.646 366.067 311.199 368.608C309.787 370.115 307.998 373.409 307.151 375.951C305.645 380.375 305.645 380.564 307.339 380.94C308.375 381.223 309.787 382.635 310.634 384.141C311.387 385.647 312.423 386.871 313.082 386.871C313.74 386.871 313.929 388.189 313.552 390.542C313.176 393.366 313.552 394.684 315.341 396.849C317.882 400.05 318.071 400.991 316.188 400.991C315.435 400.991 314.399 401.838 313.835 402.78C312.987 404.38 313.458 405.133 316.659 407.675C321.271 411.346 321.648 414.453 317.882 416.335C313.27 418.689 308.186 415.112 308.186 409.558C308.092 404.192 306.586 398.826 304.609 397.226C303.48 396.379 302.256 393.649 301.597 390.448C299.526 379.999 292.277 375.951 285.688 381.505C283.993 382.917 282.111 384.047 281.546 384.047C280.416 384.141 274.674 391.295 273.638 394.119C273.168 395.249 273.45 395.531 274.58 395.061C275.804 394.59 276.557 395.343 277.686 397.979C279.475 402.309 278.816 407.957 275.615 415.017C274.297 417.842 273.074 422.737 272.791 425.843C272.509 429.044 271.85 433.656 271.285 436.104C270.438 440.246 270.532 440.811 272.415 442.882C274.297 444.859 274.392 445.423 273.356 448.436C272.509 451.166 272.603 452.107 273.733 453.896C274.768 455.496 275.333 459.732 275.709 468.675C275.992 475.547 276.651 482.042 277.216 482.984C277.686 484.019 278.439 490.515 278.722 497.387C279.192 507.836 279.004 510.566 277.78 513.202C276.839 515.178 275.992 520.544 275.615 527.322C275.05 536.265 275.239 538.995 276.463 542.007C277.498 544.643 277.78 546.62 277.216 548.503C275.804 553.304 277.592 574.014 279.851 579.662C281.828 584.463 281.828 585.31 280.887 598.489C280.322 606.114 279.663 613.833 279.381 615.622C278.91 618.822 279.098 619.105 284.182 622.588C290.583 627.012 292.466 629.554 296.514 639.438C299.338 646.122 299.714 648.099 299.714 655.159C299.62 660.807 299.244 663.725 298.208 665.043C295.76 668.244 293.125 678.599 293.125 685C293.125 691.684 294.254 693.755 302.162 702.227C304.798 705.051 306.68 708.252 307.81 711.923C309.316 716.724 310.257 718.042 315.435 722.184C320.612 726.42 321.366 727.456 321.366 730.28C321.366 732.068 322.213 734.516 323.248 735.834C324.284 737.152 325.131 739.223 325.131 740.352C325.131 741.482 325.978 744.777 326.92 747.695C328.708 752.872 328.708 752.967 326.92 754.567C325.79 755.602 325.319 756.826 325.696 758.05C326.731 761.251 326.449 768.499 325.131 772.359C323.342 777.724 323.813 780.925 327.484 787.703C329.273 790.903 330.779 794.198 330.779 794.857C330.779 795.516 329.932 798.811 328.896 802.012C327.861 805.212 327.014 809.448 327.014 811.331C327.014 813.308 326.449 815.473 325.884 816.226C323.719 818.862 315.341 823.475 309.881 824.981C306.963 825.828 304.327 826.863 304.044 827.334C303.762 827.711 308.092 835.43 313.552 844.467C319.483 854.069 331.815 877.226 343.393 900.384L363.256 939.921L379.73 951.876L396.204 963.926L423.974 972.963L451.65 982L502.107 972.398C529.783 967.221 553.223 962.608 554.259 962.326C555.576 961.949 555.859 961.29 555.388 959.125C555.106 957.619 555.482 955.359 556.235 953.853C557.271 951.876 557.647 947.829 557.647 938.321C557.647 931.261 558.024 925.236 558.495 924.953C558.965 924.671 559.624 922.977 559.907 921.094C560.283 919.305 561.413 917.234 562.543 916.481C564.331 915.257 564.425 914.693 563.484 912.622C562.166 909.892 560.472 909.515 560.472 912.057C560.472 912.998 559.907 914.316 559.154 914.881C558.212 915.728 557.365 915.257 555.388 912.716C553.976 910.833 551.811 909.233 550.117 908.856C547.951 908.385 547.292 907.727 547.292 906.032C547.292 904.902 548.046 903.585 548.893 903.302C550.305 902.737 550.305 902.549 549.175 901.796C548.14 901.137 547.292 901.419 546.163 902.737C544.186 905.091 543.339 905.091 541.833 902.737C540.985 901.231 540.044 900.949 538.067 901.419C536.655 901.796 535.337 902.455 535.055 902.831C534.302 903.867 523.099 903.208 521.687 902.078C521.028 901.514 518.863 900.76 516.981 900.384C513.686 899.725 513.498 899.537 514.062 896.995C514.439 894.736 514.251 894.265 512.839 894.265C511.238 894.171 511.238 894.077 513.215 892.476C514.345 891.441 515.286 889.935 515.286 888.899C515.38 887.299 519.24 882.027 520.464 882.027C520.746 882.027 520.558 882.875 519.993 883.816C519.522 884.851 519.052 886.546 519.052 887.675C519.052 889.558 519.146 889.558 521.876 888.146C523.382 887.393 524.982 886.075 525.453 885.228C526.112 884.004 527.241 883.722 530.819 884.098C534.396 884.569 535.62 884.287 537.032 882.875C537.973 881.933 539.856 881.086 541.174 881.086C542.962 881.086 543.621 881.745 544.186 883.91C544.939 886.64 545.033 886.64 546.916 885.322C548.61 884.192 548.893 883.251 548.516 879.674C547.951 875.438 548.705 874.496 550.964 876.567C551.905 877.603 551.999 877.132 551.529 874.308C551.058 872.049 551.246 870.731 551.811 870.731C553.788 870.731 553.976 874.779 552.376 880.709C551.152 885.322 551.058 887.205 551.811 888.899L552.847 890.97V888.805C552.941 886.263 554.541 882.969 555.671 882.969C556.141 882.969 556.706 884.192 556.989 885.699C557.553 888.523 560.377 890.311 561.413 888.617C562.26 887.205 565.555 887.864 567.438 889.841C569.603 891.912 570.262 891.912 569.603 889.652C569.038 887.299 570.827 886.546 573.18 888.24C575.816 890.217 576.475 889.841 576.475 886.452C576.569 884.381 577.228 882.969 578.828 881.745L581.087 880.145L580.617 886.452C580.334 890.029 579.675 894.924 579.111 897.372C578.452 900.478 578.452 902.267 579.111 902.926C580.428 904.243 580.899 903.114 582.876 895.112C583.817 891.347 585.135 888.052 585.794 887.864C587.677 887.205 586.265 897.56 583.817 902.267C582.782 904.338 581.464 906.973 580.805 908.103C580.146 909.515 578.922 910.268 577.228 910.268C572.333 910.268 571.674 911.021 572.333 915.822C572.615 918.176 573.651 920.906 574.498 921.941C575.627 923.165 575.91 925.048 575.722 928.625C575.533 931.355 575.816 933.896 576.286 934.179C576.851 934.461 579.111 933.237 581.37 931.355C583.535 929.472 587.677 926.648 590.313 925.142C593.043 923.541 595.49 921.941 595.773 921.47C596.055 921 596.714 917.14 597.185 912.904C597.938 905.279 599.256 899.16 601.233 894.171C602.174 892.006 602.927 891.629 607.728 891.064C614.129 890.405 618.177 888.523 620.342 885.322C621.189 884.004 622.413 882.969 623.166 882.969C625.708 882.969 629.097 876.756 631.168 868.378C632.297 863.671 633.992 858.211 634.933 856.046C635.969 853.975 636.722 851.527 636.722 850.586C636.722 848.515 638.322 845.502 646.23 832.323C652.725 821.498 654.325 816.509 653.384 810.296C653.102 808.036 653.761 805.871 655.643 802.388C657.714 798.811 658.373 796.363 658.373 792.786C658.373 788.738 659.126 786.479 662.609 780.078C664.963 775.748 666.845 771.135 666.845 769.911C666.845 767.275 674.753 758.332 677.954 757.391C678.989 757.014 680.495 755.132 681.248 753.249C682.001 751.272 685.484 746.754 688.873 743.082C693.015 738.564 696.216 733.857 698.852 728.491C700.923 724.161 703.464 719.831 704.5 718.983C706.1 717.76 711.089 708.158 711.089 706.463C711.089 706.181 710.054 705.993 708.736 705.993C706.571 705.993 706.383 705.616 706.383 701.945C706.383 697.144 709.207 693.755 713.255 693.755C716.549 693.755 720.503 691.872 720.503 690.272C720.503 689.519 722.103 686.789 724.174 684.059C726.528 680.858 728.128 677.469 728.693 674.269C729.634 669.374 729.634 669.374 726.151 666.079C722.668 662.784 720.597 657.324 722.009 655.065C722.292 654.5 721.821 652.429 720.974 650.358C719.468 647.063 719.373 645.934 720.409 640.285C721.068 636.802 722.009 633.319 722.48 632.566C723.233 631.531 723.327 631.719 722.951 633.696C722.668 635.014 722.103 636.802 721.821 637.65C721.444 638.685 721.727 639.156 722.762 639.156C723.61 639.156 724.551 638.591 724.833 637.932C725.116 637.179 724.928 629.366 724.457 620.329C723.798 607.997 723.892 603.29 724.833 600.748C725.775 597.736 725.775 597.077 724.174 595.006C723.233 593.782 721.727 590.676 720.974 588.134C719.656 583.71 719.75 583.333 721.915 578.626L724.269 573.731L723.892 578.438C723.515 582.58 723.704 582.862 724.833 581.356C725.775 580.038 725.963 577.591 725.586 571.943C724.833 561.023 724.645 560.458 719.844 555.28C715.796 550.95 715.42 550.009 714.667 544.361C714.102 539.371 714.196 537.771 715.326 536.547C716.079 535.7 716.738 533.629 716.738 532.029C716.738 530.429 717.208 528.828 717.679 528.546C718.244 528.263 718.62 526.475 718.62 524.686V521.486L716.267 522.992C714.384 524.216 713.631 524.31 712.502 523.368C711.748 522.709 711.089 521.58 711.089 520.921C711.089 520.168 710.148 519.603 708.83 519.603C707.324 519.603 705.535 518.379 703.559 515.837C700.17 511.601 697.346 510.942 694.616 513.955C692.545 516.214 688.967 516.402 688.12 514.331C687.179 511.884 687.461 511.131 689.438 511.131C690.474 511.131 691.321 510.472 691.321 509.719C691.321 508.965 690.944 508.306 690.38 508.306C688.591 508.306 682.849 511.601 682.849 512.731C682.849 514.519 676.071 513.107 674.188 510.942C672.211 508.777 671.929 501.717 673.623 500.022C674.282 499.364 675.412 498.893 676.259 498.893C678.518 498.893 681.907 495.41 681.907 493.151C681.907 491.456 681.437 491.174 678.895 491.55C677.2 491.833 675.035 492.303 674.188 492.774C672.117 493.621 670.423 489.856 671.646 487.408C672.117 486.561 672.494 481.478 672.588 476.112C672.588 470.181 672.964 467.169 673.435 468.299C674 469.899 674.282 469.616 674.847 466.604C675.224 464.439 675.129 462.65 674.565 461.897C673.812 461.05 673.906 459.167 674.753 455.402C675.883 450.695 675.788 449.848 674.094 446.647C672.682 443.917 672.4 442.035 672.87 438.74C674 430.079 673.906 428.291 671.835 424.337C670.705 422.078 668.822 418.501 667.787 416.335C665.81 412.193 662.421 408.993 659.032 407.957C656.208 407.11 655.455 405.698 656.114 402.403C656.585 399.956 656.02 398.92 652.819 395.625C648.395 391.107 648.018 388.942 650.466 379.905C652.254 373.315 653.666 371.15 653.666 375.01C653.666 376.422 654.043 377.363 654.608 376.986C655.173 376.704 655.549 374.539 655.549 372.28C655.549 369.644 656.49 366.443 658.373 362.866L661.197 357.5L658.373 354.205C655.737 351.193 655.549 350.722 656.114 345.639C656.585 341.403 657.338 339.614 659.597 337.167C661.197 335.567 663.362 334.154 664.398 334.154C668.069 334.154 669.199 332.742 667.881 329.824C666.845 327.377 666.94 327 669.952 323.988C673.623 320.316 676.259 320.599 673.812 324.364C672.964 325.588 672.4 326.906 672.682 327.094C673.717 328.224 677.954 327.753 681.154 326.247C686.143 323.894 688.12 319.94 688.779 310.997C689.344 303.466 689.344 303.372 686.991 302.242C683.978 300.924 681.437 302.148 680.589 305.443C680.213 306.761 679.554 307.796 679.083 307.796C678.048 307.796 678.048 307.89 677.765 301.677C677.483 296.218 677.859 294.617 679.554 294.617C680.213 294.617 680.966 293.958 681.342 293.205C682.19 290.852 680.966 288.969 678.518 288.969C676.73 288.969 676.259 289.44 676.259 291.322C676.259 293.017 675.883 293.488 674.847 293.111C674 292.735 673.435 292.076 673.529 291.417C673.812 288.875 673.247 288.216 669.67 287.745C662.892 286.898 660.162 282.38 666.375 282.38C668.163 282.38 671.835 281.532 674.565 280.497C677.295 279.367 682.284 278.332 685.579 278.143C691.038 277.673 691.509 277.861 689.815 278.991C688.12 280.309 688.12 280.403 689.721 280.967C693.204 282.38 693.863 287.369 690.662 287.651C690.003 287.745 688.591 287.839 687.555 287.839C686.52 287.934 685.673 288.687 685.673 289.534C685.673 290.664 686.614 290.946 690.568 290.758C693.674 290.569 695.557 290.852 695.839 291.605C696.028 292.264 697.534 292.735 699.322 292.735C701.958 292.735 702.429 292.358 702.994 289.816C703.276 288.216 703.559 285.392 703.559 283.603C703.559 281.626 704.123 280.214 704.971 279.932C705.724 279.555 706.383 278.426 706.383 277.296C706.383 276.261 707.042 274.472 707.795 273.531C708.548 272.495 709.207 270.707 709.207 269.577C709.207 266.753 705.912 259.504 703.653 257.528C701.958 255.927 701.77 256.021 700.452 257.998C698.758 260.352 699.228 264.964 701.488 267.506C702.711 268.918 702.617 269.295 701.205 270.801C699.605 272.401 699.417 272.307 698.005 270.142C694.804 265.153 689.815 260.446 685.579 258.281C683.131 257.057 680.872 255.268 680.495 254.233C680.213 253.197 678.707 251.974 677.2 251.409C674.094 250.373 673.906 250.091 675.412 247.455C676.165 245.949 676.636 245.761 677.765 246.608C678.424 247.267 679.742 247.549 680.495 247.173C682.378 246.514 686.332 249.903 686.991 252.821C687.461 254.421 688.214 255.08 689.815 255.08C692.451 255.08 693.204 253.574 693.204 247.737C693.204 244.631 693.768 242.842 695.275 241.242C697.816 238.606 696.875 237.288 694.333 239.83C693.298 240.865 691.415 242.277 690.191 242.936C688.026 244.066 688.026 243.972 689.721 242.183C690.662 241.148 691.321 239.924 691.227 239.453C690.756 236.912 691.603 236.253 695.086 236.253C700.358 236.253 704.123 234.182 704.782 230.793C705.065 229.287 706.1 227.781 706.948 227.404C708.171 226.933 708.36 227.216 707.889 228.91C707.606 230.134 707.324 233.429 707.324 236.347C707.324 240.677 706.853 242.089 704.971 244.16C702.9 246.419 701.958 248.49 702.994 248.49C703.182 248.49 704.877 247.832 706.759 247.078L710.242 245.572L709.677 238.324C709.301 233.24 709.489 229.757 710.431 226.745C712.031 221.662 711.466 220.061 706.665 214.884C703.841 211.871 702.711 209.612 701.864 205.47C700.358 197.845 700.358 194.833 702.147 194.833C702.994 194.833 704.029 193.797 704.594 192.574C705.535 190.597 705.159 189.279 702.711 183.819C699.793 177.606 699.699 177.229 700.264 168.004L700.829 158.59L696.404 154.919C691.98 151.154 681.907 146.823 677.671 146.823C676.353 146.823 674 145.505 672.305 143.905L669.199 141.081L672.211 142.493C679.836 146.259 676.73 142.022 667.975 136.751C664.116 134.492 663.362 134.397 654.796 134.868C649.148 135.15 643.594 136.092 640.205 137.316C632.486 140.046 627.779 138.728 614.694 130.35C608.858 126.678 608.293 124.984 608.104 111.522C608.01 107.38 607.634 103.521 607.257 102.862C606.881 102.203 604.527 100.602 602.08 99.1904C597.467 96.6488 593.419 91.6595 593.419 88.7413C593.419 87.8941 591.819 85.2583 589.842 82.9049C585.229 77.3508 584.759 76.0329 585.888 71.232C586.359 69.0668 586.924 63.6069 587.112 59.1825L587.583 50.9927L582.688 47.4155C580.052 45.4386 576.381 42.238 574.498 40.2611C572.615 38.2843 570.356 36.684 569.414 36.684C568.473 36.684 566.402 35.7426 564.802 34.5188C563.202 33.2951 558.306 31.1299 553.882 29.7179C549.458 28.2117 543.998 25.9524 541.644 24.5404C539.291 23.2225 536.279 21.4339 534.866 20.7749C533.36 20.0219 532.231 19.0805 532.231 18.6098C532.231 17.8567 530.16 17.7626 527.053 18.5157Z" fill="black"/>
<circle cx="666" cy="510" fill="#5CE50D"/>
<circle cx="666" cy="247" fill="#E52A0D"/>
<circle cx="390" cy="327" fill="#E52A0D"/>
<circle cx="515" cy="894" fill="#E52A0D"/>
</svg>
