<svg width="1000" height="1000" viewBox="0 0 1000 1000" fill="none" xmlns="http://www.w3.org/2000/svg">
<rect width="1000" height="1000" />
<path fill-rule="evenodd" clip-rule="evenodd" d="M132.405 86.6386L133.753 85.1684L134.243 86.2712L134.488 86.7613L134.733 87.6189L141.84 86.026L141.35 84.5556L141.227 83.5755L141.472 84.0655L141.84 84.4331L142.33 84.8008L142.942 84.9233L143.433 84.8008L143.8 84.6783L144.413 84.1881L144.903 83.698L145.393 83.3303L145.761 83.4528V82.9627L146.986 81.8599L147.966 80.3895L148.457 80.022L153.48 81.1248L155.318 81.8599L157.646 82.1051L158.259 82.3501L159.607 81.7374L162.915 80.7572L163.038 81.2473L164.018 82.8402L166.469 82.9627L165.978 81.4925L164.631 77.2037L165.978 74.0179L167.571 73.1603L168.307 72.9151L170.757 72.5476H172.841L174.678 72.3025L175.168 72.5476L176.026 72.7926H176.394L177.496 72.9151H178.232L178.967 72.7926L178.355 70.4646L177.742 68.1364L176.516 63.6028L177.742 62.0098L178.355 61.1521L179.58 59.4368L180.804 57.5987L182.644 54.6579L183.256 53.5551L184.848 54.0452L188.401 54.2904L189.382 56.6184L190.24 60.5395L190.853 61.6423L190.484 63.2352L190.853 64.5829L194.038 64.7056V65.0731L200.9 65.4407L199.92 64.0928L201.145 63.9703L203.228 63.8478H205.801L206.413 64.8281L209.6 64.7056L214.991 64.4604L216.951 66.666L218.055 65.8084L214.991 61.0297L214.379 59.9269L228.837 50.4919L229.695 51.5947L231.656 54.5354L234.228 53.0649L236.557 52.4523L237.782 52.0848L239.13 49.7566L240.967 47.9188L241.825 46.9385L242.317 46.4483L243.785 45.3456L245.379 44.1201L246.849 43.0174V41.1795L246.483 39.5866L247.585 39.2189V38.9739L248.566 38.2387L249.178 37.871L249.422 37.1359H250.035L250.157 37.5035L250.893 37.1359L251.996 36.6457L254.201 35.6655L256.652 33.8276L257.387 33.0923L256.284 31.9895L254.08 29.9065L253.957 29.6615L254.323 28.9262L253.099 27.7009L255.059 25.863H254.936L255.548 25.2502L257.265 26.3532L258 25.6179L258.612 25.1278L258.735 25.2502L263.268 21.5743L262.901 21.2068L263.759 20.7167L263.147 19.6139L263.881 19.2463L263.759 18.8786L264.495 18.3885L271.111 19.8589L271.356 20.104L271.6 19.9814L275.766 20.8392L281.036 15.5703L281.403 15.8154L281.649 16.3055L282.138 16.9182L282.384 17.0407L282.507 16.428L282.874 16.7956L282.996 17.1632L283.486 17.4084L283.609 17.6534L283.855 17.7758L284.711 18.1435H285.325V17.6534L285.569 17.5309L287.163 16.183L287.408 16.0604L287.652 16.183L288.265 17.1632L289.246 17.8983L290.839 19.1238V19.6139V19.8589V20.2265L291.574 20.7167L292.064 20.8392L292.431 21.0843L293.043 20.9617L293.535 20.5942L293.657 20.7167L294.882 21.697L295.618 23.0447L296.23 24.025L296.474 24.2701L297.088 25.1278L297.823 25.863L297.945 26.2305L298.557 26.5982L299.292 26.7207L299.661 26.9658L300.273 27.2108H301.009L301.867 27.0883L302.233 27.3333L302.969 27.9461L303.827 28.4362L304.194 28.1911L304.439 28.4362L304.806 28.3136L305.175 29.1714L305.541 29.539L306.4 30.0291L306.768 30.2741L307.381 30.3966L307.747 30.6418L308.36 31.3769L309.095 30.6418L313.017 27.9461L313.996 26.8432L314.486 25.863L314.732 25.7404H316.325L318.163 25.3729L319.633 24.6376L322.451 23.1672L323.799 22.7997L324.657 22.4321L325.393 22.1871L326.618 21.4518L327.72 20.349L328.946 19.1238H330.661H332.99L334.214 19.2463L335.439 19.1238H338.381L340.586 19.0013H343.036L343.159 18.8786L344.263 19.8589H344.384L344.507 20.5942L344.753 21.3293L344.875 22.0644L345.119 23.1672L345.365 24.6376L345.611 25.3729L345.855 26.108L346.1 26.4757L346.346 26.8432L346.836 27.0883H347.202H347.938L348.919 26.7207L350.021 26.2305H350.756L351.124 26.4757L351.368 26.7207L351.491 27.3333L351.614 27.0883L352.349 25.6179L352.839 24.8828L353.451 24.025L354.555 22.4321L354.922 21.8194L356.515 19.6139L357.128 18.7561L357.374 19.0013L357.986 18.8786L358.476 19.0013L358.965 19.4912L359.088 19.8589L358.599 20.2265L358.721 21.8194L359.088 22.5546L360.559 23.78L362.519 25.2502L362.642 25.1278L363.623 25.6179L363.99 26.3532H364.358V27.0883L364.479 27.2108L366.073 26.9658L369.993 25.0053L371.832 23.78L372.199 23.1672L373.792 24.5151L376.856 27.2108L377.223 29.4163L380.654 31.0092L381.266 32.3572L383.839 30.7643L384.208 31.3769L384.453 31.622V31.9895L384.085 32.4797L384.208 32.9698L384.085 33.3374L384.453 33.7051L384.574 33.9501L385.066 34.3177L386.291 32.1122L386.657 31.7445L386.903 31.9895L386.536 32.2347L386.291 32.7248V33.215L386.536 33.7051L387.272 34.0726L388.005 34.1951L388.619 33.9501L389.355 33.7051L389.967 33.8276V34.0726L389.109 34.4402L388.619 35.1753L387.515 35.4205L387.149 35.298L386.78 36.1556L387.149 36.7682L387.393 37.381L388.128 38.2387L388.374 38.8513L389.844 39.7091L391.682 40.6893L393.398 41.7921L393.521 42.6499L394.01 43.5075L394.377 44.4878L394.746 44.3653L394.99 45.1004L394.623 45.4681L396.829 47.5511L399.77 50.4919L400.382 50.9819L400.995 51.7172H400.626L399.891 53.1876L400.137 54.4129L400.872 56.3734L402.586 60.7845L403.078 61.7648V62.1324L402.342 62.3774L402.097 62.7451L402.22 63.6028H401.362V63.7253L401.974 64.2155L402.955 64.9506L405.528 67.2788L406.875 68.3816L407.488 68.9942L408.346 69.6068L409.694 70.8321L411.41 72.425L417.291 71.4447L418.884 71.0772L421.58 72.9151L424.031 74.508L425.133 75.3658L425.623 77.0812L427.583 83.4528L427.829 84.4331L428.318 86.1485L429.666 88.5992L430.77 90.8047L436.773 88.8444L436.161 87.3739L440.204 86.2712L441.92 92.6428L441.062 92.8878L441.552 94.1132L441.308 94.2357L441.552 94.7259H441.675L441.797 94.8483L442.287 96.5637L444.616 95.9511L445.351 98.5243L447.557 97.9117L450.742 101.097L452.948 103.303L456.256 106.734L454.541 111.023L455.277 112.125L455.644 112.003L455.766 112.615L456.624 115.556L459.932 114.699L461.403 119.232L462.138 122.418L461.524 122.541L461.893 124.133L462.628 123.888L463.24 126.339L463.607 126.217L464.099 126.339L464.465 126.217L464.834 126.461L465.323 126.339L465.569 126.707L466.182 126.584V126.094L466.548 126.217L466.794 125.971L468.265 125.359L468.387 125.481L468.754 125.114H469.856L472.062 125.359H475.003L476.105 125.481L476.351 123.766L476.597 122.786L476.841 121.683L477.332 119.722L477.699 117.517L481.007 118.865L483.948 120.09L484.683 120.335L484.56 121.193L484.194 122.908L483.948 124.746L483.704 126.217L483.458 126.829L481.988 127.074L481.498 128.422L481.13 129.647V130.75L480.886 134.794V138.715L480.517 138.592V138.715L481.007 139.205L480.886 140.063L480.028 142.391L481.13 143.738L481.007 144.474L480.64 146.189L481.498 149.865L478.68 153.051L478.067 155.134L477.576 157.095L476.964 158.687L476.105 159.668L474.637 161.138L474.758 161.996L475.249 164.937L475.616 167.387L475.739 168.735L479.905 167.387L481.007 169.348L483.09 172.288L482.723 172.901L483.704 174.494L484.683 176.332L484.194 176.823L485.052 178.048L486.031 179.885L486.4 180.375L485.664 180.866L484.929 181.601L483.948 182.704L483.458 183.562L482.846 184.42L481.865 185.522L480.15 186.38L477.822 187.851L475.249 189.321L476.72 191.648L475.616 192.261V194.344H476.474H482.477H486.521L488.114 195.569L489.708 196.672L491.301 197.897L492.28 198.02L492.526 198.387L493.138 199.245L493.016 199.614L493.261 199.98L493.016 200.349L493.505 200.47L493.751 200.716L493.874 200.47H494.24L494.486 200.716V201.084L494.24 201.451V201.818L494.853 202.799H494.732L494.119 202.922L493.505 202.799L493.384 202.922L493.751 203.534L493.874 204.515L493.751 204.759L493.505 204.882H493.016L492.526 205.127L492.157 205.371L492.28 205.74L492.893 205.984L492.649 206.229L492.036 206.352L493.874 207.823L494.609 208.313L496.446 209.171L498.407 210.15L500.123 210.029H501.837L502.45 212.479L502.818 212.968L503.064 213.091V213.826L503.431 213.949L503.676 213.826L504.412 216.155H503.431L503.676 217.626L505.637 217.749L506.003 218.238L506.249 218.361L506.372 218.238L506.739 217.87L507.107 219.709L507.23 220.688L508.332 221.915L508.822 222.527L509.68 222.894L510.415 223.262L511.763 224.364L512.621 224.977L513.6 226.693L514.336 227.55L515.562 228.897H516.052H517.4L517.766 230.245L518.135 231.472L518.258 232.084L518.624 233.063L519.483 232.942L523.403 232.084L525.855 231.595L526.957 231.349L526.467 235.269L528.182 235.515V235.761L529.898 234.78L530.633 236.25L531.368 237.721L532.593 240.294L532.96 240.048L534.922 239.069H535.778L536.759 238.823L538.23 238.21L540.067 238.088H541.048L542.028 236.863L542.763 236.25L542.028 235.269L542.763 234.657L542.519 234.411L543.254 233.799L544.111 233.063L544.602 233.555L544.969 234.411L546.562 232.942L547.175 233.678L547.42 233.432L548.033 234.044L547.42 234.534L548.033 235.269L547.42 235.761L547.298 236.127L547.541 237.229L548.156 238.21L548.768 240.171L549.012 240.66V241.152L549.258 242.622L550.116 243.601L551.341 244.705L552.322 245.441L551.341 247.89L554.159 251.567L554.894 250.954L555.753 251.444L558.815 253.037L559.919 253.527V253.773L560.408 253.894L560.531 254.14L561.144 254.385L563.839 256.591L564.085 256.712L567.147 253.527L568.495 254.14H569.353L569.23 254.385L570.455 254.508L571.804 254.752L572.048 254.14L572.906 254.385L572.784 255.12L574.131 255.61L574.254 255.12L575.356 255.242L575.112 255.977L576.092 256.223L578.91 258.674L580.503 257.693L585.159 259.531L586.384 256.835L587.365 257.693L587.733 258.06L587.977 258.795L588.346 258.918L588.958 259.408L589.202 259.653L590.796 260.389L591.164 260.878L591.531 261.124L591.9 261.614L592.266 262.472L592.512 263.207L592.756 263.453L593.124 263.574L593.491 263.942L593.614 263.697L596.31 264.555L600.476 266.148L600.599 266.638L601.334 268.475L602.315 270.927L602.804 271.171L603.171 270.927L603.784 271.171L604.642 271.539H605.131L605.99 271.294L607.093 273.499L607.583 274.235L607.706 274.97L608.441 277.299L608.195 279.503L607.46 279.994L603.907 281.954V282.321L603.048 282.69L602.804 283.056L602.192 282.935L601.823 283.056L601.334 282.935L600.844 283.056L599.74 283.915L599.618 284.65L599.374 285.14L599.128 285.508L599.005 286.243L598.515 286.61L598.393 287.591L598.149 287.714L598.638 288.693L599.128 289.428L599.74 289.797L600.232 290.287L600.476 291.268L599.618 291.88L599.005 292.615L598.882 293.228L598.27 293.717L597.657 294.576L597.291 295.311L596.799 295.678L596.31 295.923L595.943 297.761L595.574 298.25L594.716 298.864L594.595 299.354L594.349 299.6L594.227 300.089L594.472 300.825L594.716 301.191L595.208 302.416L595.697 303.887L591.531 304.868L590.306 305.114L590.183 305.603L589.817 305.847L589.448 305.48L589.571 304.868H588.958L587.733 304.991L587.365 305.114H587.119L586.875 304.622V305.235L586.63 305.603L586.017 305.847L586.14 306.582H586.017L585.65 306.093H585.282L585.65 306.582L585.282 306.705L585.036 306.461V306.828L584.915 307.074L584.424 307.318L584.18 307.074V306.582L583.567 306.951L583.445 307.074L583.076 306.828L582.832 307.563L582.586 307.686L582.464 307.563L582.709 307.074L582.464 306.951L582.218 307.318V306.951L582.097 306.828L581.851 307.441L581.728 307.318V306.828L581.484 306.951L580.993 307.441L580.626 307.563L580.014 307.686L579.401 308.422L578.91 308.911L579.522 309.524L581.851 312.096L582.097 311.729L583.567 312.71L582.832 313.323L583.934 314.302L584.424 314.548L587.119 315.773L586.875 316.385L588.467 317.121L587.119 319.204L588.836 320.674L591.285 322.512L592.633 323.615L593.86 323.247L596.432 323.738L598.27 324.228L598.882 324.717L599.863 325.209L600.599 325.698L601.701 326.311L603.784 327.292L604.765 327.781L606.848 329.252L607.583 328.517L608.441 328.883L608.564 328.761L609.666 329.496L610.156 329.619L610.645 329.987V330.11L611.626 331.089L611.503 331.579L611.626 331.825L612.607 332.56L612.728 333.295L612.484 333.541H612.362L612.239 334.031L612.362 334.643L612.851 335.133L613.22 336.114L613.586 336.603L613.709 337.338L613.464 337.707L613.586 337.951L613.832 338.563V339.544V340.157L613.955 341.382L612.851 341.75L611.259 342.24L608.931 343.098L607.093 343.221L605.377 343.588L604.519 344.569L603.294 345.181V345.425L603.048 345.304L602.192 345.794L601.823 345.548L601.088 345.794V346.16L600.844 346.406L600.476 346.283L600.232 346.039L599.863 345.916L599.618 346.039V346.529L599.251 346.652L598.515 345.794L598.27 345.671L597.78 345.916L597.535 346.16V346.652L596.922 346.773L596.678 346.529V346.283L596.555 346.039L595.82 345.794L595.451 345.181H595.085L594.839 345.548L594.962 345.794V346.039L594.349 345.916V345.304L594.104 345.181H593.737L593.614 345.548V346.039L593.86 346.529L593.614 346.896H593.124L592.756 346.652L592.266 346.283V345.916L592.021 345.671L591.654 345.794L591.408 346.039L591.164 345.916H590.919L590.429 345.425L589.571 345.671L589.202 345.794L588.836 346.16H588.346L588.1 346.039L587.977 346.529L587.855 346.652L587.119 346.406L586.875 346.529L586.998 347.018L586.507 346.896L585.65 346.529L585.282 346.896H585.036L584.669 346.529L583.811 346.16L583.199 346.529L583.322 347.018L582.953 347.264L582.464 347.018L581.362 346.773L580.87 346.896L580.503 347.018L579.891 347.508V347.999L579.645 348.243V348.735L579.033 349.47L578.787 350.572L578.42 351.062L578.91 351.553L578.42 352.165L578.666 352.288L578.543 352.409L578.91 352.778L579.278 352.655L579.156 353.513L578.787 353.636L578.666 353.39H578.42L578.298 353.022L577.685 353.268V353.636L577.931 353.88V354.126L578.298 354.249V354.492L578.543 354.615L578.787 354.126L578.91 354.249V354.615L578.543 355.105L578.175 355.228L578.298 355.473L579.278 355.351L579.401 355.473L579.645 356.209L579.401 356.454H579.156L578.91 356.209L578.175 356.698L578.543 357.802L582.464 359.271L583.689 363.56L584.424 367.603L585.036 368.461L585.894 368.953L588.1 369.809L597.291 369.074L601.58 369.809L610.156 370.055L613.097 370.667L616.405 372.383L619.958 374.344L622.531 379.245L622.654 379.735L623.266 384.146L623.022 392.11L624.002 394.562L624.86 396.031L625.718 396.766L626.697 397.38L628.291 397.87L634.294 395.909L635.521 396.153L637.112 396.766L639.195 397.87L641.035 399.095L641.891 399.463H642.872L644.955 399.34L645.813 399.095L649.979 397.747L652.306 397.501L654.268 397.747L655.616 398.236L656.595 398.728L658.678 399.953L660.149 400.076L662.477 399.095L663.457 398.972L681.102 403.138L684.164 404.119L685.881 404.363L688.822 403.996L690.292 404.854L691.517 408.774L691.64 409.755L693.846 412.695L695.315 413.922L695.683 414.778L695.438 418.21L696.908 425.193L699.114 427.276L703.035 430.586L703.647 431.198L704.138 433.648L704.874 436.956L712.96 442.961L713.695 443.328L714.554 443.574L715.656 443.697L717.616 443.574L719.332 443.328H720.803L721.538 443.084L722.273 442.716L722.886 442.226L723.375 441.736L723.865 441.001L724.356 440.143L724.6 439.039L725.458 436.1L727.541 432.056L730.237 425.439L733.422 419.067L736.486 415.392L737.221 414.411L737.588 413.186L738.446 411.103L738.692 409.878L739.059 409.143L738.938 408.039L739.182 406.814L739.304 406.446L739.671 406.079L741.265 405.221L743.471 403.261L744.083 399.953L744.818 397.87L745.799 396.645L747.514 395.541L749.474 395.174L758.664 393.581L759.4 393.214L760.258 392.6L761.483 391.62L762.83 389.169L764.913 386.596L766.507 385.615L772.51 384.39L773.368 384.759L775.206 385.738L777.901 389.048L780.23 391.987L782.926 394.316L786.112 397.624L788.073 399.707L789.543 400.565L790.645 402.402L791.258 403.015L796.772 407.304L798.732 408.408L800.694 409.02L801.673 409.264H802.898L807.31 408.285L809.147 408.408L810.251 409.143L810.863 410.245L811.842 411.103L814.661 412.082L821.401 418.7L823.974 422.008L825.322 425.685V426.541L825.076 427.399L824.586 428.257L822.749 428.992L819.195 430.953L815.273 433.036L813.682 433.159L813.069 433.036L810.74 432.178L805.104 427.768L802.285 425.439L797.996 423.968L794.322 424.826L791.993 426.174L790.156 429.115L789.052 437.691L787.704 440.266L785.744 442.472L784.886 442.961L781.946 443.574L779.005 443.084L774.227 441.98H773.858L773.123 442.103L771.898 442.716L771.285 443.574L771.163 444.186L771.04 445.044L771.408 447.494L771.531 447.863L772.021 448.721V449.577L773 451.783L773.858 452.887L775.697 453.989L776.922 455.582L778.27 456.562L779.128 457.665L779.005 458.155L778.637 458.768L778.514 459.134L778.882 464.159L779.495 466.733L780.476 468.816L781.701 472.124L782.313 474.084L782.926 476.534L783.415 477.392L785.254 478.986L786.846 480.579L787.827 482.048L788.439 483.274L788.929 484.254L789.297 484.499L789.91 485.112L790.645 485.235L791.993 485.358L792.483 485.601L793.218 485.847L795.301 486.705L797.261 487.563L799.344 488.053L802.775 487.93L804.002 488.176L808.903 490.38L809.638 491.115L810.128 491.729L810.986 493.444L811.23 494.915L811.353 496.629L811.109 498.468L810.863 499.204L809.638 502.022L809.27 502.878L809.026 503.859L808.903 505.453L809.026 506.188L809.27 506.8L809.393 507.044L808.045 507.902V508.148L808.412 508.638V509.006L808.045 508.883L807.799 508.392V508.025L808.168 507.78L807.922 507.413L807.432 507.659L806.82 508.515L806.329 508.638L806.208 509.25L805.962 509.742L805.716 509.863L805.349 509.373L804.368 508.638L804.124 508.761V509.127L804.368 509.496L804.614 509.742L804.737 510.108L804.368 510.598V511.456L804.246 511.579L803.756 512.314V512.558L803.633 512.681L802.898 512.804L802.775 512.927V513.416L803.144 513.662H803.51L803.879 513.908V514.274L803.389 515.133L802.898 515.499L802.408 515.255L802.163 514.641L801.55 514.764L801.427 515.01L801.796 515.377L802.041 515.745L802.408 515.991L802.775 516.48L802.654 516.724L802.408 517.216H802.041L801.796 516.97L801.427 517.093L801.06 517.339L801.183 517.828L800.815 518.074L800.448 517.951V517.705L800.202 517.339H799.958L799.467 517.705L799.223 518.318L799.344 518.686L799.223 519.176H798.732L798.611 519.543L799.1 519.788L799.223 520.278V520.401L799.836 520.278L800.202 520.034L800.325 520.89L800.815 521.136L801.183 521.013L801.306 521.136V521.626L801.06 522.117V522.484L800.938 522.852L801.06 523.832L800.694 523.709L800.325 523.342L800.202 522.852L799.59 522.973L799.467 523.096L799.713 523.832L798.855 529.223L798.119 533.757L798.365 534.492L798.611 534.982L799.223 535.472L799.836 535.84V537.8L799.59 538.659L799.836 538.781V539.638L799.59 540.129L799.1 540.496L799.223 540.986L799.59 541.354L799.713 541.477L800.694 541.966L799.958 542.579L799.59 543.191L799.713 543.683L800.079 544.295H799.1L798.488 544.539H798.119L797.875 544.662L797.261 544.539L796.282 544.295L795.669 544.539H794.076L793.095 544.662L792.974 546.622L792.116 546.378L790.645 546.01L789.297 545.766L788.317 546.745L787.46 546.622L785.621 546.868L784.886 546.991L784.519 547.357L784.15 547.97L785.009 548.584L785.867 549.074L786.112 549.441V549.686L785.377 550.422L785.99 551.157L786.479 551.524L785.99 552.136L785.867 552.627L785.621 553.484L784.519 553.607L784.396 554.219L784.273 554.71L783.661 554.954L782.803 555.077L781.823 555.2L780.72 555.077L780.107 555.323H778.024L777.045 555.077L776.064 554.833L775.329 555.077L774.471 555.567L774.104 555.935L773.123 556.058L771.898 555.935L770.796 555.69L769.938 555.567L768.713 555.69L768.59 556.794L768.467 557.283L767.242 557.406L766.507 557.65L765.159 558.264L764.547 558.141L763.688 558.264L762.953 558.754L763.32 559.733L762.83 560.468L763.688 560.837L764.301 561.572L763.076 562.551L762.83 562.92L762.953 563.532L762.708 564.268L763.443 564.634L763.199 565.982L763.566 566.596L763.443 567.821L763.199 569.046V570.271V570.762L762.585 571.742L762.341 572.477L762.585 572.966L762.83 574.437L762.585 574.928L762.095 575.172L761.36 575.541L760.747 576.031L760.012 576.52L759.522 577.011L759.277 577.624V578.359L759.645 579.339L760.135 580.074L759.889 580.932L760.258 581.422V582.157L760.135 582.892L759.889 583.505L759.4 585.221L759.522 585.833L759.4 587.427L759.154 588.039L759.277 588.283V589.264L758.91 590.366L758.419 593.307L758.175 594.409L757.806 596.003L757.685 596.861L757.439 597.473L756.827 598.821L756.092 599.925V600.659L755.846 601.394L755.356 602.252L754.621 602.742H754.375V602.987L754.131 603.6V604.581L753.763 605.193V606.174L754.253 606.541L754.375 606.787L754.498 607.399L754.621 607.643V608.378L754.744 608.747L755.233 609.236L755.602 609.849V610.339L755.969 611.319L756.336 611.809L756.704 612.178L756.827 612.79L756.95 613.28L757.194 613.648L757.317 614.505L758.052 615.24L758.419 616.221L758.91 616.466L759.645 617.079L760.135 617.937L760.381 618.304H761.483L761.728 618.427L761.605 618.671L761.116 619.285V620.02L760.993 620.51V620.999V621.489V621.612L760.87 622.103L760.993 622.96L761.237 623.451L760.993 623.695L760.747 624.186L760.624 624.553L760.258 625.288L760.624 626.024L760.993 626.513L761.605 627.003L761.728 627.738L761.972 628.473L762.095 628.596L761.972 629.577L762.095 630.19L762.464 630.802L762.341 631.292L762.464 632.15L762.341 632.64L762.585 633.252L762.708 633.743L763.199 634.11L763.443 634.845L764.055 635.214L764.178 635.704L764.668 636.316L765.036 636.562L764.791 637.174L765.159 637.297L765.526 637.909L765.894 638.153L766.384 638.276L766.63 638.522L767.365 638.768L767.609 639.134H767.977H768.221L768.467 639.38L768.713 639.747L768.957 639.87V640.359L769.325 640.851H769.569L770.06 641.217L770.182 641.463L770.673 641.83L771.04 642.076L771.285 642.319L771.898 642.688H772.265L773 642.934H773.368L773.614 643.055L774.349 642.934L774.716 643.055L775.451 643.79L775.818 644.403V645.017L775.941 645.629L776.187 645.996L776.799 646.364L777.412 647.466L777.289 648.814L776.554 649.672L776.31 650.039L776.064 650.285L775.574 650.774V651.02L776.064 651.387L776.676 652.491V652.735L777.166 654.328L777.045 655.063L777.412 655.799L777.657 656.901L777.535 657.024L776.922 658.249L776.554 658.617V659.107L776.676 659.352L776.922 659.965L778.147 660.946V661.435L777.78 662.537L777.412 662.906L777.289 663.273V663.885L776.676 664.498V664.743L776.799 665.968L776.922 666.337L777.045 667.072V667.562L777.657 668.543L777.78 669.399L778.27 669.645L778.393 669.89L778.882 670.626L779.249 671.115L779.495 671.605L779.372 672.095L779.249 672.586L779.372 673.444L779.128 673.811V674.178L779.618 675.036V675.648V675.771L779.984 676.629V677.242L780.107 677.364L780.842 678.223L781.332 678.712V679.079V679.325L781.211 679.693L781.578 680.306L782.19 681.162L782.436 681.531L783.048 681.897L783.171 682.633V683.001V683.491V684.103L783.048 684.472L783.661 685.328L784.029 685.574L784.273 685.941L784.519 686.186L784.642 686.799L784.519 687.78L784.642 688.146L785.621 688.759L786.725 689.373L787.214 689.74L787.827 689.986L788.073 690.352H788.317H788.929L789.297 690.107H790.156L790.522 689.986L791.135 690.107L792.116 689.863L792.605 690.965L792.851 691.21L793.341 691.577L794.076 692.558L794.566 693.906L794.688 695.254L794.811 695.622L795.301 696.112L795.669 696.479L795.913 696.724L796.405 696.847H796.894L797.261 697.091L797.753 697.337L799.223 697.949H799.59L799.836 698.195L800.325 698.439L801.306 698.562L801.919 698.318L802.163 698.072L802.408 697.705L803.266 697.337L803.879 697.705H804.246L804.858 697.949L805.593 698.562H805.962L806.941 699.053L806.82 699.909L807.064 700.522L807.555 701.626L808.045 702.361V702.728L808.168 703.463V703.954L808.045 704.688L808.903 705.423L809.27 706.037L809.638 706.281L809.759 706.404L810.374 706.65L811.109 706.771H811.476L812.088 706.894L812.578 706.527L813.069 706.65L813.436 706.894H813.804L814.294 706.771H814.906L815.765 706.404L816.377 706.527L817.112 706.404H817.848L818.95 707.14L819.439 707.629L819.562 707.875L820.054 708.121L820.666 708.242H821.768L822.137 708.61L822.872 709.1L823.361 709.589L823.484 709.835L823.728 710.081L824.586 710.448L825.567 710.693L825.811 711.06L825.934 711.428V711.795L826.18 712.287L826.057 712.653V713.143L825.934 713.389L826.18 714.124L826.792 714.614L827.038 714.736L827.528 715.103L828.263 715.595L828.386 715.839L828.875 716.207L829.733 717.309L830.1 717.8L830.223 718.657L830.469 719.025L830.713 719.392L831.325 719.638L832.06 720.25L832.673 720.373H832.919L833.531 720.496H833.777L834.021 720.74L834.512 720.863L835.002 721.352L835.614 721.598L836.227 722.456V722.579L836.349 723.314L836.227 723.558L836.472 723.804V724.783L836.839 725.152L836.595 725.518L836.718 725.887L836.962 726.01L836.839 726.254L837.33 726.989L837.574 727.112V727.48L837.943 727.724L837.82 728.093L838.187 728.337L838.066 728.951L838.187 729.195L838.678 729.441L839.291 730.176V731.034L839.045 731.401L839.168 731.89L839.045 732.259L838.801 732.749L839.168 733.729L839.413 733.973L839.78 734.342V734.954L839.903 735.321H840.149L840.638 735.444L841.74 735.567L842.353 736.057L842.599 736.425V736.792L843.088 737.16L843.457 737.281V738.262L843.579 738.875L843.701 739.12V739.61L843.579 739.979L843.823 740.468L844.559 740.958L844.804 741.939H845.171L845.663 742.306L845.906 742.674L846.029 743.287L846.152 743.776L846.642 744.512L846.887 744.88L847.377 745.247L847.746 745.859L848.235 746.105L848.358 747.084L848.725 747.453L849.46 747.697L849.95 748.065L850.318 748.432L850.808 748.311L851.789 748.555L852.524 749.046L852.768 749.536L853.137 750.025L853.626 750.148L854.116 750.883H854.239L854.851 751.25L855.097 751.373L855.342 751.863L855.832 752.598L856.199 752.844L857.18 752.354L857.915 752.108L858.405 751.986L859.263 751.863H859.753L860.488 752.354H860.856L861.836 752.477L862.571 752.598L862.817 752.844L863.062 753.089H863.183L863.552 752.844L863.919 753.089L864.531 753.825L865.145 754.191L866.002 754.927L866.37 755.05L867.105 755.295L867.595 755.172L867.472 755.662L867.595 756.52L867.472 756.887L866.737 757.622L866.493 758.358L866.247 758.48L865.022 759.951L864.164 761.422V761.666L864.9 762.157L865.635 762.892L866.002 763.627V763.994L865.881 764.484L865.389 765.465L865.635 766.2V766.69L865.512 767.179L865.635 767.548L865.758 768.037L865.635 768.406V769.018L865.389 769.385L865.145 770.489L864.777 770.979L864.287 771.837L863.919 772.081V772.572V772.939V773.551L863.675 774.041L863.552 774.899L862.694 775.512L861.469 776.37L861.223 776.738L860.488 777.228L859.386 778.207L859.017 778.33L858.528 778.698L858.161 779.311L857.303 779.678L856.69 779.8L855.586 780.046L854.851 780.413L854.484 780.536L853.626 781.271L852.278 782.252L852.156 782.496L852.278 782.987L852.033 783.6L851.666 785.07L851.299 785.927L851.054 786.295V786.539L850.931 787.397L850.685 787.766L850.441 788.01L850.564 788.133L849.829 788.868L848.97 789.849L848.848 790.093L848.725 791.197V792.911L845.663 794.505L842.353 796.465L840.026 800.387L838.678 801.243L837.574 801.979L835.737 802.96L832.183 804.553L830.836 805.043L829.855 805.532L828.875 805.778L828.507 806.022L828.753 806.513V807.126L828.998 807.492L828.63 807.738L828.507 808.105L828.63 808.717L828.998 809.086V809.453L828.507 809.821L828.386 810.067L828.507 810.434V811.046H828.753V811.415L828.63 811.781L828.017 812.15V812.64H828.263L828.386 813.006L828.14 813.498L828.017 813.252L828.14 813.129L828.017 812.762H827.772L827.528 813.129L827.65 813.375L827.405 813.498L827.038 813.252V813.619L826.669 813.864L826.424 813.619L825.934 813.742V814.11L826.057 814.354L825.934 814.6L826.057 815.089L826.303 815.212L826.547 815.825L826.792 816.437L826.547 816.56V816.928L827.282 817.172L827.405 817.418L827.894 817.908L827.772 818.276L827.65 818.52L827.405 819.501L827.159 819.624V820.114L826.915 820.603V820.849L826.547 821.339L825.811 821.216L825.567 821.707L825.076 822.074L824.955 822.442L824.464 822.809V823.299L824.709 823.544V823.667L824.22 824.525L824.341 824.892L824.097 825.138L823.116 825.75L823.361 826.24L823.239 826.486L823.361 826.731L823.116 827.098L822.749 827.588L822.381 827.956L822.137 828.079V828.446L821.645 828.814L821.278 828.691L820.91 828.814L820.543 829.181L820.175 829.058L819.931 828.935L819.562 828.446L819.195 828.2L818.706 828.323L818.583 828.691L818.214 828.814L817.725 828.935L817.479 829.058L816.867 828.814L816.254 828.691L816.131 828.814L815.642 829.181L815.396 829.548L815.273 829.916L814.784 830.406L814.171 829.304H813.436L813.069 829.427V829.916V830.652L812.088 831.141L811.353 831.754L810.986 831.877L810.863 832.122H810.618V832.735L810.74 833.101L810.495 833.47L810.005 833.714L809.516 833.593V833.224L809.393 833.101L809.516 832.612L809.393 832.245L809.147 831.877L809.27 831.51L809.026 831.141L808.168 831.018L807.676 830.406L807.187 830.162L807.064 829.916L806.208 829.548L806.085 829.794L805.593 829.548L804.858 830.039L804.614 830.283L803.633 830.774H803.389L802.654 830.039L802.041 829.304L801.673 829.058L801.427 828.814V828.446L800.694 827.71L800.571 827.344L800.325 827.221L799.836 826.731L799.713 826.486H799.223L798.855 826.608H798.488L797.875 827.098H797.261L797.017 827.465L796.894 827.344L796.282 826.975L795.669 826.852L794.934 827.71L794.322 827.833L793.83 827.588L793.586 827.344L793.464 827.71L793.095 828.323V828.446L792.851 829.548L792.483 830.039L791.87 830.529L791.747 831.018L791.503 831.387L791.747 831.877L791.503 832.245L791.626 832.858V833.224L791.87 833.714L791.993 834.449L790.278 832.858L790.033 832.612H789.787L789.297 832.245L788.562 832.366L788.195 832.122L787.704 831.51L787.337 831.387L786.969 831.018L786.356 830.897L785.744 830.162L785.254 829.794H785.009L784.763 830.162V830.406L784.273 830.652L784.029 830.897L783.538 831.141L783.171 831.264L782.68 831.018L782.436 831.264L782.313 831.754L782.067 831.877L781.701 832.858L781.455 832.979L781.578 833.224L781.823 833.593V834.082L781.455 834.205V834.328L781.823 834.695L781.578 835.797L781.332 836.165L780.72 836.411L780.23 836.901L779.984 837.39H779.249L778.514 837.759L778.393 838.003L777.535 838.861L777.045 838.984L776.799 839.351L776.676 839.719L776.31 839.963L775.818 840.332L775.451 841.067L774.716 841.434L774.471 841.802L774.104 841.925H773.858L773.491 842.169L773.246 841.925L772.879 841.557L772.633 841.434L772.51 841.679L772.021 842.046L771.531 842.292L770.917 842.415L770.06 843.15L769.569 843.273L769.325 843.517L768.713 843.394H768.467L768.344 843.64L768.221 844.129V844.743L768.467 845.477L768.344 845.723L768.221 846.212L768.467 848.051L768.59 848.295L769.815 848.909L769.938 849.889V850.378L770.427 850.501L770.673 850.747L770.917 850.87L771.408 851.849L771.285 852.217L771.531 852.584L771.408 852.83L771.775 853.442V853.932L771.652 854.423L771.898 854.913L772.633 855.403L772.756 855.771L773 856.015L773.246 856.261L773.491 856.506L773.858 856.873L774.104 857.119L774.593 857.242L774.471 857.975L774.593 858.221L774.962 858.589V859.079L775.451 859.325L775.574 859.814L775.697 860.181L776.187 861.162L776.431 861.285L776.554 861.652H777.166L777.657 862.02H777.901L778.27 862.51L778.759 862.877L778.882 863.245L779.005 863.858L778.759 864.103L778.514 864.716V865.082L778.393 865.328H778.147V865.574L778.27 866.063L778.147 867.411V867.901L777.289 868.024H776.676L776.31 868.269L776.431 868.39L776.31 868.882L776.064 869.126L775.697 869.861L775.206 870.23L774.471 870.842V871.454L774.227 871.823L774.104 872.679L773.735 873.292L773.858 873.66L773.981 873.906L773.858 874.518L773.368 875.254L773 875.375L771.898 875.498L771.531 875.866V876.233L771.775 876.723L771.898 877.214L772.756 877.458L773.491 877.581L773.735 878.072L773.981 878.316L774.104 878.562L774.593 879.051L774.349 879.787L774.227 880.276L773.981 881.134L773.614 881.624L773.246 881.87L773 882.236V882.728L772.265 883.586L771.531 884.076L771.898 884.442L772.021 884.688V885.669L771.163 885.913L770.673 886.036L771.408 886.403L773.123 887.384L772.633 888.854V889.344L772.387 889.467L772.021 889.835L771.531 889.712L771.408 890.079L771.652 890.448V891.06L771.531 891.55V891.918L771.285 892.408L771.163 892.652L770.917 893.143L770.55 893.266V893.633L770.304 894.245V894.858L770.182 895.593V896.574L769.938 897.186L769.815 897.922L769.938 898.288H769.815L769.569 898.534L769.202 899.146L768.59 899.636L768.344 899.882L768.467 900.494L768.344 900.74L768.099 901.598L768.344 902.454L768.099 903.067L768.221 903.19L767.855 903.802L768.099 904.171L768.221 904.906L768.099 905.396L768.467 905.273H769.448L770.304 905.029L770.796 905.273L772.879 905.885L773.368 906.254L773.614 906.131L773.858 906.498V906.743L774.471 907.479L774.716 908.091L775.697 908.826H775.941L776.431 909.072H776.676L777.045 909.684L777.412 909.93L778.147 911.155L778.27 911.645L778.637 912.257V912.503L779.005 912.748L779.863 913.115L780.353 913.605L780.842 913.851L781.211 914.586L781.701 914.34H782.313L783.048 914.953L783.294 915.321L783.538 915.934L783.906 916.423L784.763 916.913L785.254 917.648L785.498 918.017L785.867 918.383L786.479 918.875L786.725 918.752L787.092 919.242L787.214 920.223L787.46 920.835L787.827 921.202V921.937L787.95 922.183L788.317 922.306V922.672L788.929 924.02L789.052 924.511V925.368L789.175 925.614L788.808 925.98L788.685 926.472L788.317 926.961L788.073 927.207L787.95 927.451L788.195 927.697L788.073 927.942L787.46 928.799L787.214 929.167L786.846 929.29L786.479 929.657V930.146V930.761L786.356 931.005L786.233 931.617L785.867 931.863L786.356 932.598L786.479 932.844V933.088L785.99 933.823L786.112 934.191L785.99 934.681L786.112 934.927L785.744 935.539L785.377 936.029V936.764L785.131 936.887L785.009 937.254L785.254 937.866L785.131 938.112V938.847L785.009 938.97L784.886 939.46L785.009 939.705L784.15 940.195L783.415 940.685L783.171 941.176L782.803 941.666L782.926 941.909L782.559 942.89V943.38L782.68 943.871L782.436 943.992L782.313 944.361L782.436 944.728L782.313 945.342L781.578 945.954H781.211L780.842 945.586L780.23 945.342L779.618 945.709H778.882L777.78 945.586L777.166 945.709L776.676 945.954L775.941 946.198H775.329L775.083 946.076L774.962 946.198V946.811L775.206 947.056L775.451 947.792L775.329 948.037L775.451 948.527L775.329 949.017L775.451 949.385L774.962 949.752L774.104 949.998L773.368 950.487L773.246 951.223V951.591L772.756 952.081L772.633 952.448L772.021 953.183L771.652 953.918L771.898 954.531L771.775 955.022V955.512L772.144 956.124L772.021 957.105V957.472L772.387 957.839L772.021 958.33V958.574L771.775 958.942L771.652 959.065L771.531 959.309L771.285 959.923L770.917 960.29L771.04 960.536L770.55 960.902H769.815L769.569 961.148L769.079 961.392L768.834 961.515L768.221 961.761V962.006L767.855 962.373L767.609 962.619L766.874 962.986L766.751 962.863V962.496L766.384 962.006L766.261 961.638L765.649 960.902L765.403 960.413L765.282 960.78L764.913 961.148L764.668 961.271L763.934 961.515L763.32 961.392L762.953 960.902L761.972 960.78L761.851 961.271L761.483 961.638L761.36 962.006L761.483 962.25H760.87L760.747 962.373H760.381H759.768H759.277L758.91 962.986L758.664 962.863L758.175 963.108L757.806 962.863V962.74L757.562 962.863H757.317L756.827 962.986L756.336 963.231L755.969 963.354L755.233 962.74V962.986L755.356 963.475L754.744 964.211L754.621 964.823L754.253 965.314V965.804L754.009 965.558L753.64 965.804L753.519 965.437L753.15 965.069V964.702L752.784 964.088L752.415 963.966L752.292 964.211H752.048L751.803 963.721L750.945 963.475L750.822 963.598L750.578 963.475L750.701 963.231H750.332L749.965 963.721V963.354L749.597 962.863L749.23 962.74L748.984 962.127H748.862L748.739 961.883L748.372 961.515V961.271L748.003 961.025L748.126 960.657L747.637 960.29L747.514 960.044L747.024 960.167L746.778 960.29L746.535 960.902L745.799 960.413L745.92 959.8L745.554 959.555L745.187 959.065L744.941 958.942L744.329 958.33L743.593 957.961L743.348 957.472H743.104L742.368 956.614L742.246 956.001L742.735 954.531L742.858 953.795L743.348 953.183L743.471 952.448L743.348 951.712L743.104 951.223L742.612 950.977L742.368 951.223L741.51 951.345L740.898 951.835L740.529 952.081L739.917 952.816L739.794 953.183L739.427 953.428L738.938 953.918H738.692L738.323 953.672L738.202 953.428L737.834 952.939L737.711 952.57L737.221 952.448L736.732 952.693L736.24 953.306L735.505 953.795L735.384 954.287L735.261 954.653L735.384 955.634L735.261 956.001L735.015 956.124L735.138 956.37L735.015 956.491L734.036 956.736L733.913 956.491L733.545 956.247L732.566 956.491V956.614L732.688 956.982L733.178 957.105L733.422 957.472H733.913L733.545 957.839H733.422L733.178 958.33L732.81 958.697L732.32 958.942L732.197 959.309L731.83 959.678L731.462 959.923H730.972L730.727 960.044L730.114 960.167L729.991 959.923L730.114 959.678L729.502 959.188L728.889 959.432L728.4 959.555H727.787L727.296 959.8L727.052 959.432L726.439 958.942H725.704L725.336 959.065L724.723 959.8L724.233 960.044L723.742 960.413L723.13 960.536L722.886 960.78L723.009 961.271V962.496L722.64 962.863L722.15 963.108L722.028 963.231L721.538 963.354L721.659 963.598L721.415 963.844L721.169 964.333L721.292 964.702L720.926 964.823L720.311 965.437L719.576 965.191L719.455 964.823L719.086 964.702L718.964 964.456L718.597 964.088L718.351 964.211L717.862 963.966L717.493 963.721L716.637 963.354V963.598L716.145 964.333L715.778 964.702L715.656 965.437L715.043 966.05L714.676 966.539L714.431 966.662L713.941 966.539L713.45 966.416L713.083 966.171L712.96 965.804H712.714L712.471 965.314L711.979 964.823L711.612 965.069L711.49 965.437L711.123 965.558L710.51 966.171L710.142 966.416L709.529 966.171L708.794 967.152H708.548L708.304 966.785L707.692 967.152L707.201 967.397H706.957L706.344 967.52L705.976 967.887L705.486 968.01L704.751 967.887L704.505 967.764L704.138 967.641L704.015 968.133L703.526 968.499L703.28 968.377L702.668 968.745L702.545 968.377H702.178L701.932 967.887L701.443 967.397L701.197 967.52L700.585 967.152L700.216 966.785L699.972 966.662L699.481 966.785L698.991 966.662L698.502 966.906L698.256 967.152L697.889 968.01L697.398 968.499L696.785 968.868L696.541 968.622H696.296L695.929 968.377L695.683 968.499L695.194 968.254L694.948 967.887V967.641L694.458 967.275L694.336 966.785L694.213 966.539H693.846L693.232 966.294L692.619 965.804L692.375 965.558L692.496 965.069L692.375 964.946L691.763 964.702L691.272 964.211L690.536 963.844L690.659 963.598L690.413 963.475L690.047 963.108L689.801 962.986L689.557 963.108L689.189 962.863L688.822 962.74L688.699 962.373L688.332 962.496L687.718 962.373L687.597 962.25L687.105 962.006L686.983 961.761H686.616L686.37 961.271H686.003L685.881 961.025L685.635 960.902L685.268 960.536L685.145 960.167L684.9 960.044L684.533 960.167L684.287 959.678L683.797 959.309L683.675 959.065L683.185 958.819H682.939L682.695 958.574H682.327L682.083 958.33V958.084L681.714 957.961L681.102 958.33L680.367 958.697H680.121L679.754 958.942H679.386L679.631 959.065L679.386 959.432L679.631 959.8L679.386 960.044L679.265 960.902L679.386 961.271L679.142 962.25L678.773 962.863L679.142 963.231L679.019 963.475L678.773 964.211L678.896 964.456L678.65 966.05L678.284 966.416L677.548 967.029H677.059L676.446 967.275L675.955 967.397H675.588L674.853 967.52L674.607 967.764L674.118 967.887L673.505 968.254L673.259 968.133L672.647 968.254L672.401 968.377H672.28L672.157 967.887L671.668 967.397L671.545 966.785L671.299 966.662L671.176 966.05L671.054 965.927L670.932 965.437L670.441 965.314L670.197 965.558H669.706L669.585 965.804L669.462 966.171L669.093 965.804L668.971 966.05V966.416L668.114 966.171L667.868 965.437V964.946L667.623 964.823V964.456L667.133 963.966H666.766L666.275 963.475V963.231L666.031 962.986L665.296 962.74L665.05 962.373H664.069H663.825L663.457 962.619L662.844 962.863L661.986 963.354V963.844L662.109 964.211L661.986 964.579L662.109 965.069L662.355 965.681L662.109 965.804L661.865 966.171L661.374 966.416L661.13 966.785L660.638 967.152L660.149 967.764L660.517 968.133L660.272 968.622L659.782 968.989L659.291 969.235L658.924 969.724L658.555 969.97H658.066L657.699 970.093L657.576 969.97H656.718L656.351 969.724L655.983 969.358L655.124 968.868L654.881 969.235L655.003 970.093L654.758 970.216L654.635 971.072L654.389 971.318L654.145 972.176L653.654 972.053L653.533 972.543H653.777L653.654 973.034L653.041 973.524L652.92 973.769L652.185 975.117L651.694 975.238L652.185 975.852L651.817 976.342L651.204 975.973L651.45 976.586L651.327 976.709H650.592L650.469 976.832L650.102 977.444L649.856 977.567V977.935L649.244 978.425L648.998 978.302L648.509 978.548L647.65 978.057L647.405 977.69L647.161 977.567L646.915 977.69H646.18L645.813 977.813L644.342 977.69L643.607 977.077L643.24 976.954V977.2L643.484 977.444L643.24 977.69L642.749 977.813V978.057L643.118 977.935L642.872 978.425L642.137 978.548L642.014 979.037L641.647 979.404L641.524 979.527L641.278 980.631L641.401 980.998L641.035 981.733H640.543V981.979H640.789L640.666 982.468L640.054 982.835L639.808 982.958L639.564 983.081L639.441 983.449H638.829V984.185L638.216 984.062L638.339 984.428H637.971L637.481 984.306L636.868 982.958L636.5 982.591H636.133L635.887 982.223L635.521 982.102V982.223H634.908V982.345L634.294 982.468L633.804 981.979L633.438 982.223H633.192V981.979L632.946 982.102L632.334 981.979L632.09 981.733L631.967 981.121L630.986 980.631L630.619 980.998L630.007 980.875L629.761 980.631L628.659 980.508L627.678 980.385H627.31L627.188 980.14L626.453 980.018L626.085 980.14L625.472 980.018L624.737 979.773H624.493L623.758 979.16L623.022 978.669L622.287 979.16L621.796 979.283L621.675 978.915L620.939 978.792L621.06 979.404L620.204 978.792L619.713 978.548L619.469 978.302L619.346 977.935L619.1 977.813L618.733 977.69L618.611 977.321L618.488 977.077L618.977 976.709L619.1 976.219L618.856 975.484L618.244 974.994V974.626L617.875 974.259L617.998 973.769L617.753 973.155L617.998 972.911V972.42L616.161 970.705L615.547 969.97L615.057 969.603L614.813 969.235L614.445 968.989L614.078 968.745L614.199 968.622L614.813 968.499V968.254L614.322 968.01L614.445 967.764L614.69 967.52V966.539L614.567 966.416L614.813 966.171L614.445 965.804L614.322 965.558L614.078 965.437L613.955 964.946L613.586 964.823V965.069H612.974L612.484 965.558L612.239 965.191L611.995 965.314L611.749 965.804L611.259 965.927V965.804L610.645 966.294L610.524 966.05L610.156 965.927L610.278 965.681V965.069L610.401 964.702L610.768 964.211V963.966L610.524 964.211L610.033 963.844V963.721L610.645 963.475L610.278 963.231H609.789L609.054 962.496L608.564 962.373L608.318 962.006L608.441 961.638L608.685 961.392L608.808 960.902L608.931 960.536L608.808 960.413V959.923L608.685 959.309L608.808 959.188V958.819L608.564 958.453L608.808 957.839L609.298 957.105H609.543L609.42 956.736V956.37L609.666 955.878L610.156 955.755L609.912 954.899H610.033L610.401 954.653L610.524 954.287L610.278 953.551V953.306L609.912 952.57L610.278 952.448H610.645V951.958L611.014 951.591H611.259L611.381 951.1L611.626 951.345L611.749 951.835L612.116 952.325L612.484 952.204L612.607 952.693L612.484 952.939L613.097 953.428L613.464 953.672L613.586 953.06L613.832 952.693L614.567 952.448L614.934 952.57L615.426 952.939L615.303 953.306L615.426 953.551H615.915L616.161 953.06H616.405L616.528 953.428L616.773 953.551L617.263 953.06L618.244 952.57L619.836 952.325L620.327 952.081L620.817 952.204L621.796 951.958L622.041 951.835L622.777 951.712L623.266 951.591H623.758L624.124 951.223L624.247 950.977L624.614 950.733H625.349L625.595 950.364L625.718 949.752L625.841 949.385L626.943 948.159L627.432 946.321L627.801 945.342L628.045 944.973L628.291 944.607L628.78 943.992L628.903 943.503L629.149 942.645L629.026 942.032H628.659V941.297L628.413 940.562L628.045 939.826L627.924 939.214L627.678 938.724L627.555 937.989V937.622L627.31 937.377L627.188 937.01L626.576 936.518L626.453 936.029L626.697 935.66L626.576 935.293L626.208 934.681L625.349 933.577L625.227 933.21L624.983 932.229L625.227 931.863L625.718 931.494L625.962 931.127L626.085 930.638L626.33 930.515L626.697 930.146L626.82 929.903L627.432 929.534L627.924 928.922L628.045 928.678L628.413 928.432L628.903 928.309L629.638 927.451L630.007 927.328L630.986 926.716L631.109 926.595L630.986 926.226L631.355 925.98L631.476 925.736L631.109 925.247V924.755L631.599 924.633L631.721 924.511L632.09 924.633L633.069 924.755L633.438 924.633L633.559 924.266L633.315 924.02L633.069 923.531V923.041L632.702 922.672L632.825 922.55L633.438 922.428L633.927 921.814L635.152 921.079L635.398 920.958L636.868 920.345L637.112 919.854L637.358 919.731L636.991 919.119L637.112 918.629L636.991 918.383L637.112 917.404L637.848 917.159L638.829 917.527H639.441L639.687 917.771L639.931 917.527L640.054 917.281L640.299 917.036L640.176 916.792L639.808 915.688L639.074 915.198L638.583 914.34L638.216 914.217L637.971 913.482L638.093 912.748L637.848 912.257L638.46 911.278H638.706L638.951 911.032L638.829 910.787L638.951 910.543L638.829 910.174L639.564 909.562V909.195L639.808 909.072L640.176 909.195L641.035 909.072L642.014 909.195L642.382 909.562L643.484 909.807L643.73 909.562L644.709 908.826L645.813 908.214L646.057 907.724L646.915 906.989L646.792 906.131L646.915 905.885L646.426 905.641V905.15L646.915 904.294L646.792 903.681L646.915 903.435L646.671 902.823L646.915 902.333L646.792 901.719L646.303 901.23L646.18 900.863L646.303 900.371L646.057 900.25L645.936 899.882L645.567 899.269L645.445 898.901L645.323 898.411L645.201 897.922V897.432V896.818L645.813 896.084L646.057 895.961L646.303 896.205L646.548 894.98L646.915 895.349H647.405L647.65 894.735L647.528 894.122L648.019 893.387L648.14 892.897L648.509 892.652L648.386 891.795L648.019 891.672V891.304V890.325V889.467L648.14 889.589L648.631 889.221V888.731H648.509L648.631 888.364L648.998 888.119L649.244 888.242L649.979 888.608L650.469 889.1L650.837 888.854L651.081 888.487L651.573 888.119L651.939 887.506L652.062 887.138L652.306 886.771V886.036H653.041L654.145 884.934L653.9 884.076L653.777 883.83L653.041 882.972L652.797 882.605L652.675 882.236L652.185 881.747L651.45 881.503L651.204 881.257V880.276L651.081 879.787V879.051L650.714 878.316L650.223 877.949L649.611 877.581L649.244 877.458L648.509 875.866L648.263 875.008L647.773 874.518L647.65 874.273V873.171L647.405 873.048L646.915 873.171L646.548 873.292L645.69 874.15L645.078 874.518L644.22 874.762L643.974 874.518L643.607 874.396L643.24 874.518H642.749L642.505 875.254L642.137 875.131L641.524 875.743L640.912 875.498L640.176 875.743H639.931L639.195 875.131L639.074 875.254L638.339 875.498L637.604 875.375H636.868L636.256 875.989L635.275 876.11L635.152 876.479H634.663L634.785 876.723L634.294 877.458L634.417 878.316L634.54 878.562V878.928L634.05 879.174L633.804 879.787L633.438 880.032L632.946 880.276L632.702 880.522H632.457L631.844 880.768H631.355L631.109 880.153L630.619 879.664L630.374 879.051H630.128L629.515 878.193V877.704V876.723L629.149 876.479L629.026 876.233L628.659 875.621L628.168 875.498L627.924 875.131L627.801 874.762L627.678 873.783L627.31 874.15L627.066 873.66L626.697 873.292L626.208 873.537V874.027L625.962 874.15H625.227L624.983 874.518L624.37 874.027H624.124L623.879 874.273L623.512 874.15L622.531 873.906L622.287 873.66L622.041 873.048L621.796 872.802L620.817 872.435H620.327L619.592 872.679L619.469 872.435L619.346 871.944V871.7L619.713 871.332L619.958 870.842L619.836 870.107V868.882L619.713 868.146L619.592 867.657V867.165L618.733 866.676L617.998 866.799L617.753 867.288L617.14 866.43L616.773 866.553L615.915 866.676L615.792 866.43L615.303 865.818L614.445 865.574L614.199 865.205V864.716L614.078 864.224H613.586L613.464 864.593L612.974 865.082L612.607 865.941L611.014 866.307L610.768 866.553L610.645 867.411L610.401 867.657L609.789 867.534L608.808 867.165H607.95L607.583 867.043L607.093 866.553L606.725 866.43L606.358 866.186H605.746L605.377 865.574H604.398L603.663 865.328V865.082L603.171 864.716L603.048 864.347L602.559 864.103L602.436 863.858L601.088 863.368L600.844 863.245L600.476 862.633L599.986 862.264L599.74 862.02H599.374L599.005 862.264L598.638 862.755L598.515 863.245L598.149 863.858L597.903 864.103L598.026 864.347L597.657 864.716L597.291 864.47L596.922 863.98L596.678 863.858L595.943 863.245H595.697L595.451 862.877L594.962 862.633L594.716 862.02L594.349 861.162L594.227 861.408L593.368 862.02L593.124 861.652L592.144 861.774L591.9 862.02L591.408 861.774L590.55 862.387L589.571 862.264H589.448L588.958 862.755L588.467 862.264L587.733 862.877H587.365L586.753 862.755L586.507 862.999L586.14 862.633H585.65L585.405 862.02L585.036 861.529L584.915 860.916V859.569H585.159L585.282 859.202V858.71L585.65 858.098L586.017 857.854L586.384 857.363H586.63H587.119L587.242 857.242L587.365 856.261L587.855 855.159L587.733 854.667L587.365 854.3L587.242 853.809L587.611 853.319L587.488 852.83L587.365 852.34L587.611 852.095H587.733L588.1 851.728L587.977 851.236L587.611 851.114H587.119L586.998 850.87V850.134L587.242 850.012L587.611 848.909V848.295L587.977 847.928L588.346 847.806L588.59 847.928L589.325 848.051H589.817V846.948H590.183L589.694 846.458L589.571 845.968L588.958 845.233L589.202 844.621L589.081 844.252L588.958 843.762L588.836 843.273L589.081 842.537L589.325 842.292H589.571L589.938 841.802L590.06 841.679V840.454L589.938 839.963L590.06 839.23L589.938 838.494V838.126L590.673 838.003L590.919 837.513L591.408 837.39L592.389 837.024L592.144 835.43V833.96L591.9 833.224V832.612L592.021 831.999L591.164 831.754L590.55 831.51L590.306 831.631L590.06 831.51L589.694 831.631L588.713 831.387L588.346 831.264L587.977 831.631H587.488L586.998 831.754L586.753 831.51H586.263L585.772 831.631V831.877L584.915 832.245V832.612L585.159 832.979L584.669 833.347L584.057 833.224L583.322 833.47L582.832 832.612L582.464 832.366L582.341 831.999L581.851 831.877L581.605 831.999L580.503 831.754L580.014 832.245L579.768 832.366L579.033 831.999V831.631L578.666 831.018V830.897L578.298 830.529H577.808L577.562 830.406L577.073 829.916L577.195 828.814L577.318 828.446L576.95 827.956L576.337 827.71L576.092 827.465L575.969 827.098L576.337 826.975L576.214 826.363L575.969 825.75L575.725 825.505L575.356 825.261L574.621 825.627L574.254 825.261L573.765 824.769H573.029L572.538 825.015L571.926 824.892L571.436 825.015L570.946 824.892L570.334 824.525H569.965L569.476 824.403L569.107 824.034L568.863 824.28L568.618 824.892L568.251 825.138L567.759 824.892L567.024 824.648L566.78 824.892L565.922 825.261V825.627L565.187 826.486L564.329 826.731H563.839L563.227 826.117L563.349 825.505V825.015L562.981 823.913L563.104 823.055L562.246 822.442L562.002 821.83L561.879 821.707L561.633 820.972L561.266 820.849L560.898 820.114L560.408 819.255H560.163L560.04 819.012L559.919 818.52L559.796 817.908L558.938 817.541L558.692 817.418L558.815 816.683L558.692 816.316L558.325 815.825L558.08 815.581L557.836 814.966L557.713 814.233L557.344 813.498L557.1 813.375L556.977 813.006L556.855 812.027V811.169L557.1 810.8L557.59 810.311L557.836 809.698V808.717L558.08 808.473L557.957 807.861L557.836 807.615L558.325 806.513L558.571 806.145V806.022L558.202 805.043L558.08 804.797L557.836 804.185L557.59 803.939L557.713 803.449L557.59 802.591L557.713 802.224L557.59 801.856V800.141L557.467 800.018L557.223 799.652L557.1 799.037L556.609 799.283L556.365 799.16L556.119 798.671V798.181L555.996 797.935L555.261 797.323L555.384 796.588L555.14 796.465L554.772 796.71L554.526 796.588L553.791 796.219L553.178 796.342L553.057 796.098L552.199 795.729L551.83 795.486L551.464 795.607L550.974 795.975L550.36 795.852V796.219L549.87 797.323L549.503 797.812L549.625 798.548L549.747 799.16L549.625 799.529L548.891 799.896L548.522 800.141L547.42 800.877L547.052 801.12L546.439 801.489L546.317 801.366L545.827 801.243L545.95 800.877V800.631L545.458 800.508V799.652L544.969 799.16L544.725 798.425L544.356 797.812L544.969 796.954L545.092 796.588L544.969 795.607L545.092 795.117L544.846 794.627L544.602 794.505L544.233 794.627H543.621L543.009 794.259V793.646V793.403L542.642 792.544V792.176L542.396 791.809L542.519 791.074L542.763 790.584L542.519 790.093L542.396 789.358L542.519 789.114V788.501L542.642 787.766L542.519 787.031L542.273 786.539V786.172L542.028 785.683V785.314L541.415 784.948V784.335L541.048 783.966L540.803 783.723L540.926 783.108L540.436 782.496L540.19 781.761L540.559 781.517V781.271L541.048 780.659H541.415L541.661 780.29L541.906 779.8L542.028 779.557L541.784 779.311L541.661 778.698L541.292 778.086L541.171 777.351L540.926 776.982L540.803 776.615L540.559 776.247L540.436 775.268L540.067 774.776L539.701 774.287L539.455 774.164L539.209 774.409L538.72 774.655L537.862 774.899L537.372 774.655L536.882 774.899H536.393H536.27L536.024 774.287L535.045 773.307L534.554 773.428L534.187 773.185V772.572L533.695 771.345L533.083 770.733L532.593 770.243L532.348 769.631L531.858 769.018L530.51 770.366L530.144 770.61L530.021 770.979L530.144 771.591L530.265 772.204V772.816V773.307L529.898 773.551L529.775 774.041L529.04 773.92L527.692 774.409V774.655L527.446 775.022L525.242 775.757L524.996 775.512L524.507 774.532H524.016L523.772 774.164L523.28 773.428L523.159 773.062L522.668 772.816L522.178 772.693L521.689 771.714L521.32 771.591L521.076 771.101L520.708 770.489L520.341 770.243H519.728L519.114 769.998L518.993 769.754L518.747 769.262H518.012L517.766 769.018H516.787L515.806 768.406L515.562 768.283L515.317 768.406L515.071 768.773H514.458L513.846 769.018L513.356 768.896L513.233 769.018L512.744 768.896L512.253 769.018L512.009 769.141L511.517 769.262L510.782 770.12L510.905 770.243L511.028 771.224L510.905 771.468L510.538 771.591H510.169L509.434 771.345L508.822 771.224L508.332 770.856H507.965L507.351 770.489L506.984 770.243L506.372 769.385L506.003 769.508L505.759 769.141H505.391L504.778 769.262L504.533 768.406L504.289 768.283L504.166 767.915L503.799 766.69L503.308 766.444L502.941 766.323L502.573 766.077L502.206 765.954L501.471 766.077L501.102 765.954L500.735 765.71L500.246 765.832L499.754 765.096L499.387 764.852L498.652 763.994L498.04 764.484L497.794 764.24L497.182 764.117L496.201 763.382V763.013V762.646L496.08 762.401L495.344 761.666L495.221 761.422L495.467 761.299L494.976 761.176L493.996 761.422L493.628 761.543L493.261 761.911L492.28 761.788L492.157 761.543L491.545 760.686L491.422 760.441L491.301 759.951L490.932 759.582L490.566 759.705L490.443 759.46H489.585L489.462 759.582L488.483 759.705L487.991 759.828L486.766 758.603L486.644 758.358L487.012 757.622L487.135 757.255L487.256 757.133L487.502 757.255L488.483 757.133L488.604 757.01L489.339 756.887L489.585 756.764L490.566 756.275L490.687 756.029L490.074 755.172L489.708 755.05V754.681L488.604 753.825L488.483 753.212L488.237 752.721L488.604 751.742L488.849 751.986L489.708 752.231L490.074 751.986L490.443 752.108L491.422 751.986L491.913 751.619L492.157 751.742L492.403 752.108L493.016 751.986L493.628 752.231L494.486 752.354L495.099 752.108L495.467 752.477H495.957L496.323 752.844L496.569 752.598L496.446 752.231L496.08 751.742L494.853 750.883V750.271L494.732 749.78V749.29V748.8L494.853 748.432L494.732 748.065L494.24 747.942L494.363 747.453L494.24 747.084L493.874 746.84L493.505 745.982L493.261 745.859L492.649 745.37L491.055 743.531L490.566 742.551L490.32 742.428L490.074 742.062L489.708 741.204L488.972 741.081L488.727 740.835L488.114 740.345L487.135 739.856L486.889 738.752L485.908 738.631L485.787 738.017L485.541 737.65L483.213 737.527L482.6 737.281L481.742 737.404L481.253 737.16L480.763 737.404L480.394 738.017L480.272 738.14V738.508L479.292 739.12V739.487V740.468L479.538 740.835L479.292 741.57L479.538 741.816V742.306L479.415 742.797L479.169 742.918L478.189 742.551H477.699L477.332 742.797L476.964 743.041L476.841 743.287L476.474 742.551L475.984 742.797L475.249 742.062L474.268 742.674L473.901 742.918L472.554 742.551L471.45 742.674L470.592 742.183L469.49 742.062L469.244 741.816H468.019L467.652 742.306L466.794 743.653L466.548 744.022L466.304 743.899V744.266L466.426 744.634L466.304 744.757L466.182 745.247L465.569 745.492L464.957 745.859L464.834 746.349V746.84L464.465 747.207L462.995 747.453L462.505 748.188H462.382L462.138 748.432L461.893 748.555L461.28 748.923L461.035 749.167L460.912 749.659L461.157 749.903L460.912 750.271L459.81 750.883L459.074 751.373L458.093 751.25H457.36L456.868 751.129L456.746 751.25H455.277L454.785 750.761L454.419 751.25H454.173H453.806H453.56L453.315 751.619L452.825 751.863L452.336 751.742L452.09 751.863L451.723 751.742L451.477 751.373L451.355 751.129L450.742 751.373H450.375L449.394 751.742L448.905 752.231L448.292 752.354L447.924 752.108L447.189 752.231L446.576 751.619L446.209 751.742L446.086 751.373L445.841 750.883H445.595L445.228 751.129L444.983 751.619L444.616 751.863L444.37 752.231L444.983 752.966L445.595 753.212L445.718 753.456L445.964 754.191L446.576 754.804L446.822 754.927L446.945 755.172L447.189 755.295L447.311 755.785L447.557 756.643V756.887L447.801 757.378V757.991L447.924 758.235L447.557 758.726L447.066 758.97L446.945 759.46L447.189 759.705L447.557 760.809H448.536L449.394 761.176L449.884 761.788H450.253L450.375 761.911L450.742 762.157H451.477L452.458 762.401L452.948 762.646L453.683 763.382L454.05 763.259L454.663 763.627V763.994L455.154 764.361L455.766 764.484L455.889 764.607L455.644 765.342L456.01 765.954L456.133 766.323L456.502 766.812L455.889 767.671L455.766 767.794V768.406L456.624 768.896L457.114 769.018L457.237 769.262L457.972 769.631L458.462 769.998V770.979L459.564 771.345L460.545 771.958L460.668 772.326L460.791 772.939L461.157 773.797L461.28 773.92V774.409L461.524 774.655L462.016 775.757L462.138 776.615L462.016 776.738L461.524 776.859L461.157 777.351L461.524 778.207L461.77 778.33L462.016 779.065L461.893 779.311V779.923L461.77 780.046V780.413L461.524 780.904L461.403 781.271L461.035 781.883L460.791 782.006L460.422 782.373L460.055 782.496L459.564 782.742H459.197L457.972 783.231L457.36 783.354L457.237 783.231L456.991 783.477L456.624 783.231L456.01 783.6L455.889 784.089L455.521 784.335L455.644 784.579L456.01 785.437L456.256 785.56L456.502 785.927H456.746L457.237 786.172L457.604 785.927H457.727L457.849 786.539V787.275L457.727 787.766L457.972 787.889L458.093 788.622L457.604 789.114L457.114 790.093H457.36L457.972 790.461L458.093 790.828V792.544L457.972 793.157L457.481 793.524L457.36 793.403L456.746 793.646L455.521 793.524H455.277L454.785 793.892V794.382L454.541 794.994V795.729V796.465H454.173L454.05 796.219H453.438L452.825 796.465V797.077L452.58 797.446L452.09 797.935V798.302L452.336 798.794L452.458 798.916L452.702 799.283V800.141H452.458L452.09 799.896L450.865 799.529L450.496 799.773L450.375 800.264L449.64 800.877L449.028 801.12L448.782 800.999H448.536L448.169 800.631L448.413 800.264L448.536 799.896V799.652L448.659 799.406L448.782 798.302L448.905 797.69L448.659 797.569L448.169 797.812L447.924 798.058H447.311L446.945 797.69L446.699 797.569L445.841 797.935L445.228 798.058L444.003 797.69L443.758 798.302L442.9 798.548L442.287 798.671L441.92 798.916L442.287 799.652L442.164 801.243L441.185 801.735L440.817 801.856L440.45 802.47L440.327 803.204L439.96 804.185L439.837 804.553L439.714 804.92L439.837 805.409L439.714 805.778L439.225 806.022V806.39L439.102 806.513L438.244 806.634L437.998 807.249L437.631 807.492V808.228L437.998 808.717V809.086L437.754 809.453L437.386 809.698L436.896 810.434L436.529 810.8H436.038L435.671 810.557L435.426 810.311L435.059 809.821L434.446 807.615H433.465L433.097 807.492L432.118 807.984L431.872 808.351L431.137 808.717L430.77 808.84L430.893 809.086L430.524 809.944L430.157 810.188L429.545 810.311L429.054 811.046L428.197 812.027L427.951 812.64L427.583 813.252V814.6L427.462 814.845L427.093 815.212L426.848 816.07L426.481 816.437L426.235 817.05L425.5 817.541L425.746 817.664L425.868 818.766L425.991 818.889L428.197 821.339L428.441 822.319L428.564 822.809L428.81 823.79L429.176 824.403L430.647 825.505L431.628 825.873V826.731L431.749 827.098L432.24 827.344L432.853 827.71L433.832 827.833V828.2L434.078 827.956L434.323 828.2V828.691V828.935L434.813 829.058V829.304L434.323 829.671L433.22 830.039L431.872 830.406L430.647 830.774L429.912 831.387L428.318 832.489L427.462 832.858H426.848L425.746 833.224L425.256 833.593L424.152 835.185L421.702 836.655L421.334 837.024L419.986 838.615L418.761 840.086L418.149 840.821L417.903 841.434L417.413 841.557L416.801 841.434L416.189 841.19L415.33 840.577L414.472 839.719L413.37 838.494L412.022 838.126L411.287 838.249L410.429 838.615L410.306 838.861L409.817 838.738H409.45L408.958 838.984L408.592 839.351L407.979 839.107L407.611 839.23L406.753 839.719L406.631 839.842L406.019 840.454L405.161 840.944L404.303 841.679L403.813 841.434H403.445L402.832 841.679L402.342 841.313L402.097 840.454L402.22 839.719L401.853 838.861L401.607 838.738L401.484 838.371L401.362 836.901L401.73 836.411L401.607 836.043L401.362 835.185L400.995 834.818L400.872 834.328L400.995 833.837L400.503 833.101V832.489L400.872 831.877L400.995 831.387L401.118 831.264L401.239 830.529V830.039L400.995 828.814V828.323L401.484 826.975L401.974 826.486L401.853 826.24L401.73 825.627L401.484 825.261V824.769L401.362 824.28L401.484 824.034H401.239L401.118 823.667L401.239 823.544L401.118 822.809L400.749 823.178L400.259 823.055L399.891 823.422L399.524 823.667L398.912 822.809L398.299 822.197L397.687 822.565L397.441 822.319L397.318 821.951L396.952 821.707L396.706 821.951H396.46V821.707L395.971 821.339L395.604 821.461L394.99 821.339V820.482L395.358 820.359L395.112 819.868L394.868 820.114L394.5 820.236L393.887 820.114L393.521 820.236L393.398 820.114L392.907 820.236L392.171 819.747L391.682 819.378L390.946 818.889H390.702L390.457 819.012L390.211 818.276V817.908L389.967 817.785L389.355 817.664V817.05H389.109L388.863 817.418L388.74 817.295L388.251 817.664L387.884 817.541L387.761 817.664L386.657 817.05H386.291L386.045 816.806L385.189 816.316L384.697 815.825H382.614L382.002 815.335L381.758 815.089L381.266 814.6L380.777 814.845L380.654 814.354L379.919 813.864L379.429 813.375L379.306 813.129L378.939 812.883L378.694 812.394L377.836 811.659L377.1 811.292H376.856L376.242 811.415L375.875 811.659L375.14 811.415L374.773 811.536L374.159 811.046L372.322 809.698L370.484 808.228L370.116 808.105L368.768 807.984L368.645 807.615H368.278V807.37L368.033 807.249L367.666 807.37L367.298 807.615L367.054 807.37L367.176 806.513L366.931 806.145L367.176 805.778L366.931 805.532L367.176 805.043L366.931 804.92V804.43L366.808 804.185L366.195 804.062L365.95 804.307L365.583 805.043L364.971 805.901L364.479 806.268L364.358 807.615L363.99 807.861L363.744 808.351L363.377 808.84L362.887 809.209H362.642L362.275 809.453L362.152 809.821L361.661 810.311L361.294 809.698H361.048L360.927 809.332L359.946 808.473L359.334 808.228L358.476 808.105L357.74 808.351H357.374L357.128 807.984L356.761 807.492L356.147 807.37L355.903 806.634L355.657 804.797L355.045 804.185L354.31 803.818L353.697 803.572H353.085L352.349 803.695L351.491 803.326L350.756 802.837L350.512 801.735L350.389 801.12L349.777 800.387L350.879 799.652L349.898 799.16V798.671L350.144 797.569V797.2L348.919 796.219L349.041 795.975L348.796 795.607L348.673 795.117L347.694 794.505L347.448 794.382L346.223 793.157L345.242 792.544L343.282 791.686L342.424 791.319L340.832 790.216L339.974 789.726L338.993 789.114L338.381 787.766L337.768 786.418L337.522 785.806L336.175 784.089L335.562 782.987L334.95 781.394L334.704 780.781L335.073 780.413L335.195 779.557L335.562 777.105L335.685 776.738L335.808 776.003L335.317 775.39L335.195 774.776L334.95 774.899H334.583L333.848 775.022L333.479 775.268L333.356 775.634L332.744 775.757L331.886 776.492L331.642 776.982L331.273 776.859L330.661 777.351H330.171L329.436 777.473L329.067 777.963H328.823L328.334 778.576H327.842L327.72 778.453L327.107 778.576H326.863L326.372 779.065L326.005 779.8L325.882 780.659L325.637 781.025L324.78 780.413L324.045 779.678L323.799 779.188L323.187 777.84L322.697 777.963L322.574 777.84H321.962L321.227 778.086L320.735 778.207V777.963L320.368 777.473V777.228L320.123 776.982L319.633 776.859L320.002 776.37L319.387 776.003L319.266 775.512L319.021 775.145H318.652L318.04 774.776L317.919 774.532L317.427 774.409L317.183 774.655L316.692 774.776V775.022L315.957 775.268V776.124H315.713L315.221 776.492L314.977 776.738L314.486 777.105L314.365 776.982L314.242 777.228V777.473L313.753 777.351L313.384 777.595L313.138 777.963L312.772 778.453L312.282 778.942L312.036 778.821L311.301 778.453L311.791 777.473L311.424 777.105L311.178 775.88L312.036 775.145H312.282L312.403 774.655L311.913 773.797L311.055 773.674L310.934 773.428L310.566 773.307H310.32L309.83 773.185L309.341 773.428L308.851 773.797H307.381L307.012 773.428H306.645L306.522 773.062L306.645 772.572L306.277 772.204H305.787L305.052 771.958H304.073L303.214 771.224L302.969 770.61V769.998L302.723 769.875L301.621 768.896L301.744 768.406H301.254V768.037L301.744 767.915L301.867 767.794L302.111 767.058L301.744 766.444V765.096L301.621 763.871L301.375 763.382L300.763 763.136L300.15 762.401L300.028 761.666L299.171 762.278L298.313 762.034L297.701 762.524L297.578 763.013L295.984 763.382L295.618 763.259L295.126 763.382L294.637 762.769L294.27 762.646L294.514 762.157L293.901 761.543L294.024 761.422L293.778 760.441H293.412L293.043 760.318H292.676L291.329 760.441L291.083 760.563L290.716 760.441L289.981 760.686L288.51 760.563L286.794 761.053L285.815 760.93L285.325 761.176L285.08 760.563L284.711 760.318L284.467 759.705V759.093L284.221 758.603L284.099 758.48L283.732 758.112L282.996 757.499L282.507 757.378L281.526 756.764L280.913 757.133L280.545 756.887L279.566 756.764L279.443 756.887L278.708 756.397H278.218L277.972 756.275H277.605L277.36 755.539L276.993 754.681V754.069L276.87 753.456V752.598L277.36 751.863L276.747 751.619L276.624 751.373L276.258 751.129L275.766 750.148L275.644 749.536L275.4 749.046L274.787 748.188L274.541 747.819L273.929 747.453H273.683V747.084L273.439 746.963L273.56 746.349L272.704 746.105L271.846 745.982L271.233 745.736L270.744 745.614L270.13 745.247L269.64 744.88L268.661 744.266L268.292 744.389L267.926 744.145H267.067L266.822 743.899L266.455 743.776L266.209 744.022L265.351 743.899L265.107 743.653L264.372 743.409L264.003 743.653H263.514L263.147 743.287L262.656 743.164L260.818 742.551L260.573 742.306L260.45 741.939L260.329 741.693L260.573 741.081L260.329 740.468L260.206 740.223L259.96 739.364L260.206 739.12L259.714 738.875L259.471 738.508V738.14L259.102 737.773L258.612 736.792L258.246 736.425L257.877 736.302L257.754 735.321L257.51 734.832V734.465V733.361L258.246 731.89V731.401L258.49 730.543L258.735 730.299L258.981 729.93V729.563L259.348 728.828L258.858 727.48L258.367 727.358L258 726.499L257.631 725.518L257.265 725.152L256.407 724.662L255.794 724.783L253.711 724.05L252.24 723.681L250.77 723.191L250.157 723.069L249.422 721.475L249.178 721.231L247.83 720.005L247.095 719.761L245.747 718.657L245.868 717.555L246.114 716.942L245.624 716.453V716.207L245.868 715.472V715.349L245.379 714.614L245.133 713.755L244.031 713.389V710.325V709.468L243.785 708.364L243.05 708.121L242.683 707.629L242.071 707.385L241.825 707.629L240.846 707.506L240.111 707.14L239.865 707.506H239.498L238.763 707.262L238.64 706.894L237.292 707.262L236.68 706.771L236.189 706.281L235.576 705.915H235.332L235.209 705.423L234.105 705.057L233.249 703.832L233.493 703.586L233.003 703.096L232.145 702.361H231.656L231.287 702.238H229.204L228.225 702.728L227.612 702.115L226.387 701.626L225.161 699.666L224.304 698.439L223.569 696.601L222.955 696.479L221.976 695.743H221.73L221.486 695.499H220.995L220.751 695.622L220.259 695.377L220.016 695.743H219.035L217.564 694.764L216.706 694.641L216.216 694.764L215.972 694.518L215.604 694.396L214.868 693.539L214.623 693.66L213.644 692.313L213.154 692.435L212.908 692.313L212.54 691.823H212.296L211.927 691.456L210.336 690.721L209.6 690.598L208.865 689.25L208.496 688.759H208.253L207.64 688.146L206.905 687.78L206.536 687.657L205.924 686.799H205.678L205.311 686.555L204.699 686.063L204.086 685.574V685.328L204.453 684.839L204.822 684.716V684.349L204.453 683.491H204.208V683.124L204.453 683.001L204.699 682.389L204.453 681.653L204.208 680.306L204.699 679.937L204.822 679.079L204.943 678.589V677.977L204.699 677.364V676.629L204.208 675.281V674.792L204.699 674.423H205.434L205.801 674.546L207.272 674.3L208.988 674.178L208.619 673.444V672.83L208.496 672.586V672.217L208.253 671.605L208.374 670.992L208.13 669.522L208.496 669.032V668.787V668.174L208.619 667.685L208.374 667.316L208.742 666.826L208.865 666.46L209.109 665.968L208.988 665.724L208.865 665.112L209.109 664.866V664.498L209.232 663.885L209.477 663.396V662.906L209.232 662.415L209.355 661.802L208.988 660.946L208.619 660.332L208.374 660.088L208.253 659.596L208.374 659.352L208.13 658.984V658.74L208.865 658.863L209.355 659.107H210.213L210.457 659.229L210.702 659.352L211.071 659.475L211.438 658.984V658.617L211.927 658.371L212.908 657.759L212.663 657.392L212.419 656.78L212.05 656.534L211.683 656.78H211.315L211.071 657.024H210.336L209.844 657.515L209.967 656.78L210.825 656.044L210.948 655.799L211.192 655.309L211.683 655.553L212.05 656.411L212.419 656.78L212.908 657.759L213.275 657.636L214.01 657.759L214.502 657.882L215.604 658.005L215.972 657.269L216.093 656.901L216.462 657.269L217.074 658.127H217.32L217.687 658.984L218.299 659.475L219.524 659.596L220.016 659.842L220.382 659.596L220.995 659.842L221.486 659.719H222.221L223.078 659.229L223.69 659.475L224.059 659.719L224.917 658.74L225.284 658.494L225.529 658.005L225.896 657.392L226.265 657.024L226.509 656.657L227.735 655.43H228.102L228.471 655.553L228.592 655.063L229.327 654.451L229.695 654.328L229.818 655.43L230.062 655.676L231.287 656.288L231.901 656.534L232.022 656.78V657.636V658.249L232.391 658.984L232.514 659.107L233.126 659.229H233.616L234.228 658.984L234.718 659.107L235.453 659.965L235.209 660.21L235.086 660.823V661.435L234.597 661.679L234.105 661.925L233.493 662.415L233.003 662.537L233.126 662.66L233.37 663.029H233.739L233.862 663.273L234.105 663.029L235.086 662.537L235.209 662.294L236.067 662.415L235.822 662.906L235.576 664.131L236.311 664.254H236.557L236.924 664.131V664.008L237.415 663.762L238.15 663.396L238.394 663.15L239.007 662.906L238.884 662.537L238.517 662.415H238.15L238.272 662.171L239.007 661.925L239.375 662.048L240.355 661.925L240.846 661.679L241.948 661.558L242.438 661.802L243.173 661.313L243.541 661.435L243.785 661.679H244.031L244.154 662.048H244.889L245.256 662.294H245.747L246.483 662.537L246.727 662.415L247.216 662.537L247.585 662.783L247.708 662.66L247.951 662.783L248.32 662.906L248.932 663.518V663.885L249.545 663.762L249.791 663.518L250.893 663.029L252.24 662.415L253.711 660.823L254.201 660.454H254.569V660.332L253.221 659.352L252.853 658.863L252.609 658.371L252.486 657.882L251.996 657.392H251.628L251.505 657.882L251.261 657.759V657.515L251.138 656.901L251.505 656.288L251.751 655.799L251.628 655.553L251.751 654.818L252.24 653.961L252.486 653.593L252.609 653.103L252.486 652.857L251.996 652.735L251.382 652.245L251.138 651.999V651.633L251.382 650.897L251.138 650.285L250.526 649.304L250.77 648.814L251.138 648.448L251.505 647.956L251.996 647.589L252.363 647.466L252.609 647.712L252.486 648.202L252.609 648.691L252.853 648.937L253.711 648.814L253.957 648.937L254.08 649.181L253.834 649.672V650.162L254.201 650.285L254.569 650.162V649.427L254.692 648.937V648.448L254.936 647.956L255.182 647.712L255.304 646.977L255.182 646.608L254.815 646.242L255.059 645.996L255.304 645.629L255.794 645.506L256.407 645.261L257.265 644.894L257.631 643.667V643.055L257.877 642.565L258 642.076L258.123 641.34L258.246 640.482L258.123 640.236L257.631 639.992L257.51 639.38L257.387 639.257L257.019 638.399L256.775 637.909L256.652 637.541L256.284 636.562L256.04 636.193L255.917 635.704L255.671 635.214L255.917 634.601V633.62L255.671 633.498L255.427 632.762L255.182 632.518L255.427 631.904L256.04 631.292L256.163 630.067L256.04 629.821L255.917 629.209L255.059 628.965L254.323 628.107L254.201 627.738L253.711 627.617L253.099 627.126H252.853L252.363 626.882L251.996 626.269L251.261 625.901L250.77 625.534L250.28 625.288L249.299 624.43L249.178 624.063L248.687 622.716V622.103L248.81 621.735L248.687 621.245L247.951 620.51L247.462 620.264L246.972 619.652V619.285L246.727 618.794V618.058L246.604 617.079L246.114 616.711L245.379 616.466L244.889 615.854L244.766 615.363L244.154 615.24L244.031 614.996L243.419 614.505L243.05 614.261L241.948 614.138L241.458 614.261L240.846 614.138L240.6 614.015L240.477 613.648L240.723 612.913V612.544L240.111 611.197L239.619 610.83L239.375 610.339L239.13 609.605L238.763 609.236L238.272 609.114L238.028 609.482L237.905 609.849H237.169H236.801L236.189 609.114L235.576 608.991L235.209 609.114L234.597 608.991L234.105 608.87V607.889L233.862 607.153L233.739 606.418L233.493 606.174L233.249 606.051L233.003 605.56L232.758 605.193L232.391 604.704L231.656 604.091L231.287 603.477L230.552 602.864L230.185 602.498L230.062 601.885L230.308 601.517L230.675 600.415V600.046L230.431 599.802H229.939L228.96 599.434L228.592 598.944L228.471 598.698L227.612 597.596L227 597.228V596.984L226.509 596.126H226.265L225.652 595.513V595.024L225.161 594.532V594.166L224.917 593.797L224.671 593.553L224.304 593.062L224.182 592.695L224.059 591.837L223.813 591.593V591.47L223.323 590.857L222.955 590.243L222.588 589.877L222.221 589.387L221.486 588.896H220.995L220.382 588.283L220.016 587.427L220.259 586.813V586.569L219.893 586.077L219.28 585.588L219.157 585.221L219.403 584.729L219.157 584.24L218.789 583.994L218.668 583.627L218.422 583.261L217.687 582.646L217.32 582.034L217.074 581.544L216.951 580.563L216.829 580.197V579.951L216.585 579.339L216.093 578.726L215.727 578.114L214.746 577.624V577.255V576.889V576.52H214.379L214.01 576.031L213.889 575.908L213.521 575.295H213.031L212.908 574.928L212.663 574.806L212.54 574.437L212.296 574.314L212.419 573.825L212.296 573.702L212.173 573.335L211.806 572.723L211.192 572.477H210.948L210.58 572.11H210.09L209.6 571.742H209.477L209.232 571.006L208.988 570.762L209.355 570.271L209.844 569.292L209.6 568.065L209.477 567.698L208.865 566.596L208.619 566.105L208.253 565.861L207.761 565.126L207.272 564.513L206.905 563.899L206.782 563.532L206.413 562.797V562.185L206.291 561.082V559.856V559.612V558.754L206.169 557.65L206.291 556.916L206.905 556.302L207.517 556.181L208.253 556.302L208.742 556.425L209.109 556.794L210.09 558.264L210.702 558.877L211.683 559.612L212.785 559.979L213.275 560.102L213.889 560.347L214.746 560.468H215.481H215.972L217.564 560.347H218.176L219.403 560.714L220.382 561.449L221.363 562.307L222.221 562.797L223.323 563.778L223.813 564.145H224.182H224.917L225.407 564.268L226.387 564.022L227 564.145L227.49 564.268L227.856 564.513L227.735 565.003L227.612 565.126V565.37L227.856 565.982L228.471 566.596L228.837 566.84L229.818 567.33H230.062L230.798 567.944L231.043 568.188L231.287 568.8L231.533 568.923L232.268 569.169L233.126 569.415H233.493H233.984L234.351 569.169L234.597 568.8L234.718 568.311L234.964 567.821L235.332 567.453H235.699H236.434L236.801 568.188L237.292 568.557L237.659 568.8L238.15 569.169L238.884 569.659L239.375 569.781L240.111 569.904L240.846 570.027L242.071 569.904L242.806 569.659H243.541H244.154H245.256L245.868 569.781L246.237 569.904L248.32 570.394L250.28 570.64H252.732L255.794 570.517H256.898H257.265L257.754 570.148L257.877 569.904L258.123 569.046L258.858 567.453L259.348 566.351L259.714 565.982L260.083 565.738L260.818 565.126L261.185 564.757L261.92 564.39L262.412 564.268L263.881 563.899L264.249 563.778L264.495 563.287L264.616 562.551L264.372 562.062L263.881 561.082L263.759 560.468V560.224L264.003 559.856L264.372 559.733L265.23 559.612L266.822 559.12L268.047 558.999L268.538 558.754L269.394 557.773L269.64 557.529L270.253 557.16H270.621L271.356 556.916L273.194 556.548L273.439 556.425L273.806 555.935L273.929 555.567L274.175 554.833L274.052 554.098L273.439 552.871L272.948 552.259L272.704 551.646L272.581 551.28L272.704 550.911L273.071 550.176L273.806 549.074L274.175 548.216L274.296 547.849V547.357L274.175 546.991L273.929 546.745L273.317 546.622L273.071 546.745L272.336 547.48L272.092 547.603L271.111 547.48L270.988 547.357L270.744 546.868L270.498 545.52L270.621 544.662V544.172L270.375 543.069L270.13 542.579L269.763 542.335L268.782 542.089L267.926 542.212L267.19 542.825L267.067 543.314V544.295L267.19 545.643V547.235L267.067 547.726L266.822 548.216L266.455 548.461L265.964 548.584L265.597 548.339L265.23 548.093L264.862 547.603L264.616 546.868L264.249 545.031L264.126 544.662L263.637 543.804L263.024 542.948L262.656 542.579L261.676 541.966L259.96 541.354L259.348 541.108H258.981L258 540.864L256.04 540.496L254.815 540.006L254.569 539.761L254.08 539.025L253.344 537.434L252.732 536.453L252.118 535.472L251.874 534.859L251.751 533.88V532.532L251.628 532.041L251.505 531.674L251.016 531.306H250.157H249.422H248.566L248.197 531.185L247.83 530.816L247.462 530.326L247.339 529.958L247.462 529.591L247.339 528.979L247.585 528.12L248.074 527.508L249.299 526.406L249.545 526.037L249.791 525.179L249.668 524.323L249.422 524.2L249.055 523.832L248.566 523.465L248.197 523.219H247.462L246.727 523.465L245.991 523.954L245.256 524.813L244.766 525.425L244.521 525.792L243.908 527.262L243.664 527.631L243.173 527.754L242.806 527.631L241.948 527.14L241.336 526.896L240.846 526.65L240.355 526.16L239.619 525.425L239.007 525.056L238.64 524.567L238.517 524.2L238.272 523.588L238.15 523.096L238.028 522.484L237.782 521.994L237.169 520.524L237.047 519.543L236.801 518.807L236.311 518.318L235.945 518.074L235.699 518.195L234.597 517.951L234.105 517.582L233.739 517.093L232.635 516.358L232.022 515.991L231.043 515.622H229.573L228.96 515.499L228.225 515.01L227.979 514.764L227.735 514.274L227.612 513.908L227.49 512.314L227.244 511.456L227.367 510.598L227.856 509.742L228.102 509.127L227.856 508.638L227.121 507.536H226.877L226.142 507.167L225.652 506.8L225.284 506.309L225.038 505.453L225.284 504.961L225.773 503.982L226.142 503.37V503.124L226.019 502.634L225.284 500.918L224.671 500.06L223.446 499.204L222.955 498.835L222.834 498.591L222.588 497.733L222.465 496.629L222.588 495.527L222.465 494.056L221.976 493.444L221.118 493.077L220.382 492.954L219.524 493.077L219.157 493.198L218.422 493.69L217.932 493.934H217.564L216.951 493.811L215.972 493.444L214.868 492.586L214.502 492.219L214.01 492.096L213.889 492.219L213.398 492.832L212.785 493.444L211.56 494.302L210.702 494.669L209.967 495.037L209.109 495.527L207.517 495.773H206.782L205.924 495.527L205.557 495.404L204.822 495.037L203.964 493.811L203.595 493.077L203.474 492.096L203.228 491.238L203.105 489.89L202.86 489.278L202.739 489.032L201.758 488.543H201.268L200.41 488.42L199.798 488.543L198.939 489.401L198.694 489.768L198.081 490.503L196.979 491.238L196.367 491.361H195.754L194.407 490.503L193.792 490.013L193.426 489.524L193.18 488.788V487.684L192.936 487.195L192.813 486.46L192.69 486.214L192.201 485.358L191.343 484.377L190.484 483.887L189.749 483.764L189.014 483.274L188.157 482.293L187.912 481.681L187.666 480.823L187.789 480.21L187.666 479.475L187.789 478.986L188.035 478.617L188.893 477.761L189.014 477.269L188.893 476.902L188.524 476.657L187.422 476.413H186.564L186.318 476.167L185.706 476.044L185.093 475.678L184.727 474.697L184.358 473.839L184.112 472.982V472.124L184.358 471.878L184.727 471.389L185.583 471.02L186.074 470.531L185.951 469.918L185.706 469.672L184.971 469.428H184.481L184.112 469.672V469.918L183.868 470.041H183.5L183.133 469.428L183.01 468.937V468.081L183.133 467.223L183.623 466.487L183.746 465.875L183.623 465.262L183.746 464.65V463.546L183.868 463.3L184.235 462.567L185.706 461.219L187.299 460.605L189.259 459.626L189.995 459.134L190.484 458.645L190.73 458.278L190.853 456.318V455.582V454.847L190.976 453.499L191.22 452.887L190.976 451.906L190.73 451.537L190.484 451.416L190.24 450.681V450.069L190.362 449.454H190.118L189.628 448.842L189.382 448.721L189.014 448.352L188.893 447.863V447.371L189.137 447.25L189.259 446.638L189.382 446.392L189.505 445.534L189.382 445.288L189.749 445.044L189.628 444.186L189.259 443.574L188.647 442.472L188.401 441.858L188.524 441.001L188.401 440.143L188.157 439.408L187.789 438.918L187.299 438.306L186.931 437.691L186.687 437.447L186.564 437.202V436.467L186.931 435.364L187.054 435.242L187.176 434.752L187.299 433.648V433.036L187.545 432.423L187.912 431.811L188.77 431.442L189.628 431.321L189.995 430.83L190.24 430.707L190.853 430.83L191.465 431.442L191.832 431.321L192.078 431.076H192.201L192.567 431.442L193.059 431.321L193.915 431.688L194.407 431.442L195.019 430.83L195.509 430.095L195.754 429.482V428.992L195.998 428.38L196.611 427.399L198.327 425.807L198.45 425.439L198.694 424.581L198.573 423.845H198.694L197.714 423.11L197.102 422.498L196.979 422.131L197.225 421.885H196.979L196.856 421.15L196.979 420.292L197.225 419.313L197.346 419.435L197.592 418.577L197.958 418.7L198.45 418.454L199.308 418.823L199.92 418.944L200.41 418.21L201.145 418.454V418.088L201.022 417.352L201.268 416.74L201.391 416.617L201.758 415.882L202.003 415.513L202.616 415.392L202.983 415.024L202.247 414.657H201.881L201.758 414.534L202.247 414.411L203.105 414.534L203.351 414.411L203.595 414.165L203.718 412.941L203.841 412.328L203.964 411.961L204.208 411.347L204.33 411.226L204.453 410.735L204.822 410.122L204.576 409.633L204.208 409.264L203.964 409.02H203.474L202.983 408.774L202.616 408.285V407.916L203.105 407.672L203.474 407.795H204.453L205.189 407.427H205.557L206.413 407.06L207.149 406.446L207.394 405.712L207.64 405.589L208.496 405.098V404.854L208.988 404.363H209.477L210.09 404.119L210.457 403.75L210.825 402.894L210.948 402.771L210.825 402.525L211.192 402.28L211.315 401.667L211.56 401.546L211.683 400.932L211.438 400.688L211.315 399.953L210.948 399.584L210.457 399.217L210.336 398.849L210.58 398.359L211.192 397.87L212.419 398.482L212.785 398.605H213.644L213.766 398.359L214.133 397.992V397.501L214.502 397.624V397.38L214.01 396.889L213.766 396.766L213.398 396.031L213.644 395.541L213.766 395.418L214.01 394.928V394.193L214.256 393.458H214.746L214.991 393.214L215.727 393.091V392.6L216.093 392.356L215.849 391.743L215.358 391.131V390.885L215.604 390.273L215.972 390.027L216.093 390.15L216.585 391.008L217.564 391.252L217.932 391.131L218.299 390.885L218.422 390.396L217.687 389.781L217.564 389.292L218.055 388.313L218.422 387.821L218.545 387.332L218.912 387.086L219.157 386.596L218.789 385.861L218.055 385.984L217.932 385.738L217.687 384.759L217.932 384.513L218.545 384.39L219.524 384.146L219.77 383.778L220.016 383.043V382.799L219.77 382.307L219.403 382.063L219.035 381.941L218.422 381.572L218.176 381.328L217.932 380.837V380.47L218.176 380.101L218.668 379.122L219.157 378.633L219.28 378.264L219.647 377.897H220.138L220.751 378.141V378.264L221.73 378.141L221.853 377.652L221.976 377.774L222.342 377.529V376.671L222.711 376.304H222.955L222.834 375.814L221.976 375.691V375.569H221.607L221.24 375.814L220.751 375.691L220.382 375.323L220.138 374.956L220.259 374.467L220.382 374.221L220.872 373.852H221.73V373.363L221.976 373.119L221.73 372.383L221.118 372.138H220.751L219.893 372.261H219.035L218.545 372.138L217.932 371.525L217.81 371.036L218.055 370.422L218.299 370.055L218.668 369.932L219.77 369.809L220.751 369.565L221.486 369.686L221.73 369.442L222.099 368.83L221.976 367.482L221.486 366.991L220.751 366.87L220.259 367.359L220.138 367.972L220.016 368.095L219.524 368.217L219.035 367.972L218.912 367.482L218.545 367.359L218.055 367.482V367.726H217.81L217.32 367.849L216.829 367.603L216.585 367.236V366.87L216.951 366.501L217.81 366.011L218.055 365.766L218.422 364.787L218.789 364.664H219.157L219.524 364.787L220.138 364.908L220.505 364.664L220.628 364.418L220.751 363.928L220.382 363.193L220.016 362.947H219.647L219.403 362.581V361.968V361.6L219.647 360.498L219.893 360.252L220.138 360.129L220.751 360.498H221.607L221.73 360.375L221.853 359.885L221.607 359.271L220.628 358.781V358.415L220.751 358.046L221.24 357.802H221.607L222.221 357.679L222.465 357.802L222.834 358.046L223.078 358.659L223.446 359.027L223.813 358.659L223.569 357.923L223.446 357.434L223.569 356.698L224.182 356.332L224.548 356.454L225.161 356.821L226.265 356.576L226.877 356.821V356.209L227.121 355.963L227.367 354.861L226.877 354.492L226.387 354.249L226.019 353.757H225.652L225.529 353.513L225.773 352.288L225.896 351.797L225.652 350.939V350.449L226.019 349.591L226.387 348.979L226.754 348.856L227.121 348.979L227.856 349.47L228.348 349.591L228.96 349.96H229.083L229.45 349.47V349.224L229.204 348.735L228.592 347.999L228.348 347.754L228.102 347.018L228.225 346.16L228.837 345.671L228.96 345.058L229.45 344.569L229.939 344.446L230.185 344.077L229.939 343.71L229.695 343.465L228.471 343.098L227.244 342.363L226.754 342.117V341.75V341.505L226.631 341.259L226.265 341.382L225.529 341.138L224.917 340.646L224.182 340.034L223.323 339.544L221.363 338.686L221.24 338.442L220.382 337.338L220.016 337.093L219.28 336.726L218.668 336.603L217.81 336.358L217.074 336.236L216.216 336.358L215.604 336.48L214.379 337.216L213.766 337.461L212.785 337.338L212.54 337.093L211.192 335.991L210.825 335.745L210.336 335.501L209.355 335.255L208.742 335.378L208.253 335.624L207.517 336.236L206.659 336.972L205.678 337.707L204.453 339.055L204.208 339.299L203.595 339.544L202.983 339.667L202.493 339.544L201.881 339.299L201.758 339.176L201.391 338.442L201.145 338.074L200.9 336.849L200.533 335.868L200.041 334.889L199.552 334.153L198.939 333.662L197.837 333.418L197.102 333.295H196.121H195.631L194.896 333.662L194.161 334.276L193.303 335.378L192.69 336.114L191.832 336.972L190.73 337.828L189.749 338.197L189.014 338.319L187.912 338.809L187.422 339.055L187.299 339.299L186.81 340.646L186.318 341.382L185.951 341.873L185.462 342.117L184.848 342.486H184.112L182.152 342.975L181.417 343.221L180.56 343.588L179.946 344.323L179.457 345.058L178.844 346.16L178.355 346.896L177.496 347.631L176.516 348.122L175.659 348.489L174.678 348.612H172.841L171.982 348.856L170.267 349.347L169.164 349.591L168.307 349.714L167.449 346.283L165.488 342.486L164.876 342.363L163.65 340.157L163.528 337.951L163.038 337.216L164.14 335.868L164.386 335.745L164.631 335.255V334.766L166.714 333.908L166.836 333.662L167.571 333.418L169.409 333.05H170.635L171.125 333.295L171.492 333.785L171.982 334.52L172.718 335.501L173.33 335.991L174.311 336.48L175.291 337.338L176.272 338.074L176.638 338.319H177.251L177.742 337.584L177.986 337.338L178.477 337.093H179.334L180.192 335.991L179.09 335.255L179.58 334.643L179.825 334.52H180.315L180.438 334.153L179.946 334.031L179.702 333.785L179.825 332.927L180.315 332.683V332.314L182.029 331.458L182.521 331.212H182.765L183.256 330.967V330.6L184.112 330.231L184.481 330.6L186.81 329.006H188.77L190.118 328.394L189.995 328.027L190.24 327.413L189.995 327.292L190.24 326.923L190.607 326.8L191.097 326.311L191.709 326.065V325.821L192.445 325.576L191.955 324.963L192.078 324.84V324.351H191.709L191.097 324.473L190.853 324.351V322.145V320.797L190.73 320.307L190.853 319.939L189.749 318.96L189.259 318.591H188.893L188.401 318.714L187.422 319.449L186.441 319.816L185.829 319.939L185.339 320.307L184.971 321.043L184.727 321.287H184.112L182.765 320.92H182.275L181.417 321.043L180.927 320.797L180.438 320.307L179.702 320.185L179.457 320.307L178.967 320.551L178.232 321.043L177.863 320.92L177.496 320.551H176.516L176.149 320.428L175.903 320.185L174.555 319.695L174.189 319.572L174.066 319.326L174.311 319.081L174.801 318.591L175.659 318.101H175.903L177.13 317.489L177.863 317.243L179.213 316.631L179.58 316.262L179.825 315.896L180.069 315.529L180.315 315.283L181.05 315.037L181.417 314.302L181.54 313.935L181.663 313.813L181.908 312.588L183.01 311.24L182.398 310.136V309.769L182.152 308.544L182.029 308.299V307.563L182.152 307.074L182.398 306.828L182.152 306.461L182.275 305.726L181.785 305.48L181.54 304.622V304.499L182.521 303.397L182.887 302.785L182.765 302.295L183.133 302.05L183.379 301.56L183.5 301.069L183.256 300.947V300.579L182.765 300.456V299.967L182.029 299.354H181.663L182.029 298.25L182.887 296.167L183.256 295.188L183.5 294.207L183.379 293.717L182.887 293.351H182.521L182.275 292.859L181.908 292.124L181.54 291.757L181.296 291.389L181.05 290.776L181.417 290.041L181.54 289.551L181.296 289.185V288.939L181.417 288.693L180.682 287.958L180.315 287.345L180.192 287.468L179.702 287.223L179.457 286.487L179.702 286.243L179.213 285.875L178.477 285.631L178.599 282.2L179.213 281.096V280.484L179.702 280.117L180.315 279.503L180.192 277.788L184.971 279.626L186.074 280.607L189.749 281.586H189.872L191.832 279.503L193.915 277.176L197.837 272.641L198.081 272.029L199.062 269.456L197.592 268.231L195.263 267.127L194.038 266.761L194.65 264.8L195.019 264.065L195.875 263.574L196.367 264.065L196.979 263.942L197.469 263.697L198.081 263.942H198.45L199.062 264.555L199.92 265.044L200.164 265.413L201.268 266.148L201.881 266.515L202.247 266.761L202.616 267.25L203.351 267.619L204.822 267.986L205.311 268.354L205.434 268.598L205.924 269.21L206.169 269.579L206.659 270.314L208.374 269.702L208.865 271.05L210.09 270.558H211.192L211.806 270.314H212.05L212.785 270.191L213.031 270.437L213.154 270.681L213.521 270.927L213.644 271.294H214.256H214.379L215.604 271.416L215.849 271.05L215.972 270.927L216.339 271.171L216.585 271.294L216.951 271.416L216.706 270.927L216.216 269.456L214.379 266.271L214.133 265.902V265.536L215.237 265.78L215.358 265.657L215.481 265.167L215.114 264.555L214.256 263.574L214.133 261.982V261.859L214.746 261.982V262.226L215.114 262.595L215.481 262.717L217.687 262.595H218.176L219.77 262.226H220.872L221.118 262.472L221.24 262.961L221.118 263.942L221.363 264.8L221.853 265.78L223.323 267.986L223.201 268.598L222.711 269.823L224.917 270.681L225.529 270.927L226.019 271.05L225.896 271.294L226.265 273.01L227.121 272.887V271.785L228.102 271.539L227.979 270.927L228.592 270.804L228.714 270.314L229.327 271.171L230.308 271.539L230.431 271.171L231.901 271.294H232.514L232.758 270.927L233.37 271.05L234.597 271.539L236.68 272.029L237.292 272.397H237.659L238.272 272.52L238.394 272.641L238.884 272.274H239.375L240.111 271.906L240.723 271.294L241.336 271.05L241.458 270.927L241.09 270.069L240.723 269.579L240.233 268.231L240.111 267.373L240.233 267.25L240.846 267.005L241.213 266.638L241.336 265.902L241.702 265.78H242.438L242.56 265.657L243.419 265.044L241.825 262.717L240.6 260.757L240.111 260.143L239.742 259.408L239.007 257.939L238.763 255.856L235.086 256.223L230.062 256.345L223.813 256.1L220.138 255.487L216.829 255.12L214.991 254.875L211.071 253.65L210.58 253.527L207.272 252.302L202.37 249.851L200.287 248.626L199.552 248.013L197.102 247.155L194.528 245.807L190.362 244.214L186.931 242.131L185.216 241.152L183.991 240.048L183.256 239.558L183.01 238.823L182.398 236.617V235.392L182.521 233.555L182.398 232.574L181.785 231.349L181.296 230.491L179.946 229.633L178.599 229.02L177.496 228.653L175.047 228.408H174.189H172.349H170.267L168.797 227.795L167.326 226.693L165.978 224.854L165.366 224.61L162.548 222.771L161.445 221.792L160.71 220.934L159.975 219.953L159.729 219.34L159.607 218.605V217.626L159.729 217.013L160.342 216.155L160.832 215.787L161.567 215.174L162.67 214.562L163.405 214.439L164.631 214.195H165.121L167.694 214.072L169.042 213.582L169.654 212.847L170.145 212.112L170.39 211.499V210.885L170.145 209.66L169.899 208.802L169.409 208.067L168.184 206.842L167.326 206.352L165.733 205.617L164.876 205.127L163.405 203.78L162.915 202.553L162.67 201.451V200.47L162.915 199.735L163.528 197.897L163.405 194.835L163.773 193.119L164.508 191.648L164.998 190.669L165.611 190.423L166.223 190.3H166.959L167.939 190.669L170.022 192.138L170.635 192.506L172.841 193.119L174.066 192.996L179.457 192.261L180.192 192.017L181.663 190.546L182.644 188.707L182.887 187.972V186.624L182.765 185.768L182.398 184.909L181.785 184.174L180.069 183.316L177.496 181.601L176.394 181.356L174.555 181.11L172.228 180.989L171.492 180.866L171.002 180.498L170.635 179.885L169.777 176.332L169.287 175.473L168.674 174.984L167.939 174.861H167.204L166.591 175.107L165.978 175.719L164.753 177.802L163.65 179.15L162.18 180.008L159.975 180.62L157.891 180.866H156.299L155.441 180.375L153.603 179.15L152.745 178.415L151.03 176.088L150.54 175.719L150.049 175.473H149.069L147.354 174.861L146.496 174.249L146.006 173.636L145.516 172.778L145.393 172.166L145.271 171.431L145.761 170.205L146.251 169.225L147.721 167.387L148.947 166.407L149.559 165.917L149.804 165.427L149.682 164.569L149.314 163.834L148.579 162.486L148.457 161.506V160.158L148.824 159.545L149.314 158.932L149.927 158.32L150.907 157.83L152.745 156.972L153.358 156.237L153.725 155.502V154.521L154.093 153.786L154.828 152.806L155.808 151.826L157.646 150.233L158.381 149.497L158.872 148.64L159.117 147.66L158.872 146.679L158.504 145.699L157.769 144.964L156.421 143.984L154.216 142.758L151.765 141.533L150.54 140.308L149.927 139.082L148.824 137.489L148.211 136.142L147.599 133.691L147.354 131.118L146.618 126.339V126.217L146.006 123.153L145.761 121.315L145.516 120.212L144.781 119.11L144.045 118.374L143.555 118.129L142.82 117.884L140.982 117.394L140.369 116.904L139.389 115.801L138.654 113.841L138.286 112.37V111.023V110.655L138.409 109.92L138.654 108.817L139.267 107.469L139.512 106.734L139.757 105.754L139.879 104.161L140.002 102.078L139.757 99.8722L139.512 99.0144L139.022 98.6468L138.531 98.2793L136.326 97.299L135.836 96.8089L135.1 95.461V93.3779L134.733 91.0499L134.488 89.9471L134.243 88.8444L133.753 87.8641L132.405 86.6386ZM234.228 668.051L234.718 668.297L235.086 668.664H235.209L235.453 668.909L235.822 669.155H236.067L236.434 669.399L236.557 669.522L237.047 669.645L237.169 670.011L237.292 670.747L237.536 671.605L238.028 671.361H238.394L238.884 670.992L239.007 670.626L239.13 670.503L239.253 670.134L239.619 669.522V669.155L239.988 668.787L240.233 668.297L239.988 667.439L239.619 667.316L239.253 666.826L239.375 666.337V665.724L239.498 664.989L239.253 664.62H238.884L237.782 664.989L237.292 665.356V665.601L236.924 665.845L236.68 667.195L236.557 667.562V667.807L235.822 667.928L235.699 668.051L234.841 667.928L234.718 668.051H234.228Z" fill="black"/>
<circle cx="399" cy="327" fill="#5CE50D"/>
<circle cx="703" cy="500" fill="#E52A0D"/>
<circle cx="327" cy="690" fill="#E52A0D"/>
<circle cx="703" cy="891" fill="#E52A0D"/>
</svg>
