<svg width="1000" height="1000" viewBox="0 0 1000 1000" fill="none" xmlns="http://www.w3.org/2000/svg">
<rect width="1000" height="1000" />
<path d="M223.128 89.3042L218.956 93.4762L174.866 106.371C150.592 113.483 129.827 119.551 128.595 119.93C126.509 120.594 127.931 122.49 148.032 145.341C159.885 158.9 170.22 170.657 170.883 171.511C171.926 172.838 171.168 173.597 164.625 177.579C157.135 182.035 157.135 182.035 153.532 190.19C151.541 194.646 149.549 198.723 149.075 199.292C148.601 199.766 140.731 201.757 131.629 203.654C122.527 205.55 114.941 207.257 114.752 207.446C114.562 207.636 111.717 211.903 108.399 216.928C104.132 223.376 99.6756 228.401 93.2281 234.185L84.0308 242.434L58.3354 238.357L32.5451 234.185L31.2177 236.745C29.511 240.063 26.0976 258.268 25.1494 269.646C24.296 278.938 20.5982 290.032 16.1418 296.954C14.5299 299.324 14.6247 299.514 16.4262 302.453L18.4174 305.487V303.022C18.4174 299.609 20.5033 297.902 22.9686 299.229C25.2442 300.462 32.3555 300.841 35.1052 299.893C39.372 298.376 53.9738 315.917 56.7235 325.778C58.0509 330.519 59.2835 332.605 63.9296 337.251C67.0585 340.475 69.9031 344.173 70.1875 345.595C71.3253 350.999 72.8424 353.56 77.3936 357.637C80.4278 360.386 82.4189 363.041 83.0826 365.317C83.5567 367.308 85.7375 370.911 87.9183 373.376C90.0991 375.936 94.4607 383.237 97.5897 389.59C103.184 401.063 103.848 401.821 110.959 406.088C112.571 407.036 112.666 407.51 111.528 410.639C109.442 416.234 112.286 420.974 117.691 421.164C119.208 421.164 126.13 429.508 128.5 434.154C129.448 436.05 130.302 438.705 130.302 439.938C130.302 441.265 131.913 443.731 134.568 446.291C138.74 450.368 138.835 450.652 138.835 456.246C138.835 463.737 138.077 466.202 135.896 466.202C133.525 466.202 133.62 466.771 136.844 470.848C141.395 476.632 147.369 486.683 147.369 488.579C147.463 492.941 152.773 496.07 157.04 494.268C158.083 493.794 159.221 494.173 160.359 495.596C162.255 497.871 172.116 503.181 174.392 503.181C175.15 503.181 177.426 504.603 179.322 506.31C181.313 508.111 184.916 510.861 187.381 512.568C190.131 514.369 192.122 516.55 192.407 517.878C192.691 519.205 193.07 521.291 193.355 522.429C193.545 523.661 196.105 527.833 198.949 531.721C202.837 537.125 204.354 540.16 205.492 545.185C206.345 549.262 207.862 552.77 209.663 554.856C215.637 562.157 216.775 563.864 215.447 563.864C214.689 563.864 213.551 563.295 212.887 562.631C211.37 561.304 211.37 561.114 216.016 570.975C218.007 575.147 220.188 579.319 221.042 580.172C221.8 581.026 222.843 583.396 223.222 585.387C223.981 588.327 223.791 589.275 222.179 590.982C220.188 593.068 217.533 603.782 217.533 609.85C217.533 612.126 218.292 614.781 219.524 616.487C220.567 618.004 222.559 621.702 223.791 624.547C226.351 630.046 226.351 635.925 223.981 641.14C223.128 643.036 223.696 644.743 228.058 652.992C232.23 660.957 233.747 662.948 236.307 664.086C238.867 665.129 239.246 665.698 238.393 666.74C237.635 667.689 237.824 668.258 239.246 669.301C240.289 670.059 242.755 673.662 244.746 677.36C247.306 682.006 249.961 685.419 253.279 687.98C257.641 691.488 258.684 691.867 263.33 691.867C268.166 691.867 268.924 692.151 273.096 696.039C275.656 698.315 280.302 701.444 283.431 703.055C288.172 705.426 289.5 706.658 291.206 710.262C293.103 714.054 293.766 714.623 296.232 714.623C297.749 714.623 299.076 714.718 299.076 714.813C299.076 715.002 299.74 716.804 300.403 718.89C301.541 722.114 301.541 722.777 300.309 723.631C299.171 724.484 299.74 725.432 303.627 729.035C307.42 732.638 308.463 734.44 309.885 739.56C311.592 745.913 313.299 748.283 316.617 748.947C318.514 749.326 318.608 749.705 317.376 755.394C317.091 757.101 317.565 758.334 318.893 759.566C320.125 760.704 320.884 762.506 320.884 764.497C320.884 768.859 322.306 772.177 324.487 772.841C326.857 773.599 330.935 779.668 331.598 783.46C331.883 785.167 333.495 788.486 335.107 791.046C336.624 793.511 337.951 796.261 337.951 797.209C337.951 798.062 338.615 799.295 339.373 799.959C340.132 800.527 341.839 802.993 343.166 805.363C344.968 808.397 346.864 810.104 349.708 811.337C351.984 812.285 354.734 814.371 355.871 815.983C357.009 817.595 359.854 820.155 362.035 821.766C366.586 824.801 369.241 830.205 371.137 839.877C372.085 844.807 372.37 845.186 374.456 844.712C377.395 844.238 381.567 848.505 381.567 852.108C381.567 853.815 382.515 855.237 384.411 856.659C387.825 859.219 390.385 864.813 389.626 868.227C389.247 870.028 389.721 871.261 391.523 872.968C392.85 874.2 393.893 876.002 393.893 876.95C393.893 879.131 393.988 879.131 399.487 876.381C404.513 873.821 407.168 870.502 407.168 866.805C407.168 864.813 407.642 864.434 410.107 864.434C413.236 864.434 413.236 864.055 410.391 856.944C408.779 853.056 408.779 851.255 410.107 840.54L411.245 832.196L415.701 828.878C422.054 824.232 427.364 824.232 433.432 828.878C439.311 833.334 444.336 834.662 449.835 833.239C452.206 832.576 454.766 831.438 455.619 830.679C456.567 829.826 459.222 829.352 463.204 829.352C469.462 829.352 476.005 831.817 545.411 860.262L556.03 864.624V889.75C556.03 903.594 556.41 914.687 556.884 914.498C557.263 914.308 582.674 885.958 613.3 851.444C643.926 816.836 669.242 788.58 669.526 788.58C669.906 788.58 702.807 780.9 742.725 771.513L815.355 754.351L885.615 729.604L955.874 704.952L970.761 656.216C978.915 629.383 985.362 606.911 984.983 606.247C983.087 602.929 965.261 574.673 964.503 573.82C963.934 573.251 963.175 573.535 962.322 574.673C961.089 576.38 959.098 576.19 904.768 568.7C873.857 564.433 847.403 560.735 846.076 560.451C844.18 560.071 838.111 553.055 820.76 531.247C800.848 506.215 797.909 502.043 797.624 498.819C797.34 495.596 796.866 494.932 793.642 493.32C790.608 491.803 789.66 491.708 788.048 492.656C786.815 493.51 785.867 493.51 785.298 492.941C783.686 491.329 785.393 487.157 789.375 482.795C792.504 479.382 792.978 478.434 791.746 477.96C790.987 477.675 789.186 478.244 787.763 479.382C785.203 481.373 785.203 481.373 783.876 479.477C782.738 477.865 781.885 477.675 776.765 478.244L770.886 478.813L767.283 474.641C764.818 471.796 762.921 470.469 761.12 470.374C759.129 470.374 758.37 469.616 757.422 467.056C756.758 465.254 756.189 462.884 756.189 461.746C756.095 460.608 754.862 458.332 753.25 456.721C750.121 453.497 749.647 452.264 748.699 443.446C748.035 437.567 747.845 437.188 744.432 435.387C741.303 433.68 731.442 423.724 731.442 422.207C731.442 421.828 732.77 422.207 734.287 423.06C735.898 423.914 737.131 424.293 737.131 423.914C737.131 423.629 735.898 421.828 734.287 420.026C732.77 418.32 731.442 415.949 731.442 414.811C731.442 413.768 729.925 411.208 728.123 409.217C725.658 406.467 724.805 404.666 724.805 402.296C724.805 398.124 725.848 397.46 728.882 399.83L731.252 401.727L732.77 399.356C733.623 398.029 734.287 395.089 734.287 392.529C734.287 388.452 733.907 387.694 730.115 384.185C725.658 380.108 724.236 376.695 725.184 372.807C725.753 370.532 725.848 370.437 728.218 371.954C732.106 374.609 731.821 372.713 727.649 368.161C724.426 364.653 723.003 363.8 720.443 363.8C718.737 363.8 716.745 363.136 716.082 362.283C715.418 361.429 712.858 358.585 710.487 355.835C708.117 353.18 705.557 350.051 704.988 348.819C704.135 347.302 703.281 346.828 702.238 347.207C698.066 348.913 697.687 348.724 695.412 343.888C694.179 341.233 691.714 337.725 690.007 336.208L686.783 333.458H689.628C693.136 333.458 693.8 332.415 691.998 329.855C690.86 328.149 689.628 327.769 685.456 327.769C681.284 327.769 680.146 327.39 679.293 325.873C678.534 324.545 677.301 323.977 674.931 323.977C672.276 323.977 671.518 323.503 670.759 321.511C669.526 318.382 669.526 314.21 670.759 314.969C671.328 315.253 671.707 316.486 671.802 317.624C671.802 319.425 671.992 319.331 672.845 317.055C673.983 313.831 672.561 311.271 666.872 306.72C661.562 302.453 657.864 294.868 657.011 286.524C655.968 276.378 656.442 276.568 636.151 276.568H618.799L616.334 273.344C615.007 271.543 613.869 268.888 613.869 267.466C613.869 266.043 612.352 262.251 610.55 259.027L607.326 253.148L586.562 250.114C570.537 247.649 565.322 247.175 563.805 248.028C562.762 248.597 560.202 249.071 558.211 249.071C553.755 249.071 482.168 241.675 481.315 241.106C480.935 240.917 453.628 218.35 420.632 191.043L360.707 141.359L345.252 134.532C331.503 128.464 327.047 125.809 307.515 112.345C295.283 104.001 284.474 96.7948 283.431 96.3207C282.388 95.9414 269.778 93.3814 255.46 90.7265C241.143 88.0716 228.911 85.7012 228.342 85.5115C227.774 85.3219 225.403 87.0286 223.128 89.3042Z" fill="black"/>
<path d="M348.381 848.888C348.381 849.267 349.139 850.026 349.993 850.689C351.32 851.732 351.415 852.112 350.372 853.344C349.424 854.577 349.424 855.335 350.467 857.516C351.131 858.938 352.458 860.266 353.406 860.456C354.734 860.74 355.018 860.076 355.018 857.137C355.018 852.396 353.122 848.888 350.467 848.509C349.329 848.319 348.381 848.509 348.381 848.888Z" fill="black"/>
<path d="M345.252 856.466C344.399 857.415 346.864 861.681 350.088 864.81C352.648 867.181 353.312 867.37 355.682 866.612C358.811 865.569 360.708 865.948 360.708 867.75C360.708 868.413 361.371 869.267 362.225 869.551C366.492 871.163 366.681 865.379 362.509 861.492C359.001 858.268 357.863 858.078 357.863 860.638C357.863 863.767 352.648 863.198 350.562 859.88C348.192 856.277 346.58 855.139 345.252 856.466Z" fill="black"/>
<circle cx="582" cy="484" fill="#5CE50D"/>
<circle cx="173" cy="500" fill="#E52A0D"/>
<circle cx="287" cy="629" fill="#E52A0D"/>
<circle cx="841" cy="659" fill="#E52A0D"/>
</svg>
