<svg width="1000" height="1000" viewBox="0 0 1000 1000" fill="none" xmlns="http://www.w3.org/2000/svg">
<rect width="1000" height="1000" />
<path d="M605.508 12.9648C605.508 13.5366 604.46 15.0614 603.125 16.3003C601.41 18.1111 599.79 18.6829 596.645 18.6829H592.356L595.12 25.7352L597.884 32.7876L595.025 39.554C593.5 43.2708 591.117 47.8453 589.688 49.6561C588.258 51.5621 587.305 53.1822 587.496 53.2775C587.686 53.4681 589.306 54.4212 591.022 55.4695L594.072 57.3755L591.117 61.3782C589.497 63.5702 587.972 65.3809 587.782 65.3809C587.591 65.3809 583.112 63.2843 577.966 60.7111L568.626 55.946L556.808 55.7554C549.661 55.6601 543.943 55.946 542.418 56.6131C539.94 57.6614 539.749 58.1379 539.749 62.7124C539.749 65.4762 540.417 70.4319 541.179 73.7675L542.608 79.7715L538.796 87.3004L534.984 94.8292L526.979 91.0171L518.878 87.1098L516.21 89.0158C514.78 90.0641 511.54 93.0185 509.062 95.5916C504.678 100.071 503.439 103.216 498.198 121.609C498.007 122.467 496.387 123.801 494.672 124.754C492.194 126.088 491.145 127.613 489.906 131.33L488.382 136.19L491.241 140.384C494.1 144.482 494.1 144.577 493.433 153.631L492.766 162.684L487.333 167.64C482.949 171.643 481.234 174.025 479.137 179.267C477.517 183.365 474.086 188.892 470.37 193.562L464.366 201.186L464.842 207.19C465.509 215.291 464.556 217.006 457.504 220.056C452.643 222.153 450.166 222.629 443.876 222.629H436.156L436.919 226.632C439.968 242.738 439.968 243.215 436.919 258.272C435.298 266.087 433.964 274.855 433.964 277.714C433.964 281.335 433.392 283.623 432.058 285.529C431.01 287.053 429.866 289.627 429.485 291.342C429.199 293.057 423.386 302.778 416.619 312.88C409.948 322.982 404.421 331.464 404.421 331.56C404.421 331.75 407.184 333.942 410.615 336.515C417.382 341.662 417.096 340.899 418.144 355.671C418.811 363.962 416.524 370.443 412.045 372.73C409.281 374.16 408.9 374.064 399.751 369.394C389.649 364.343 387.457 364.058 381.357 367.202C376.402 369.68 368.682 377.4 364.298 384.166C361.821 387.978 358.294 392.839 356.293 395.031C352.576 399.129 352.576 399.319 354.387 406.658C354.768 408.373 353.815 410.565 350.194 415.425L345.524 421.906L348.383 430.674L351.337 439.441L348.383 444.302C345.619 448.781 345.429 449.448 346.191 454.213C346.953 458.788 346.763 459.931 344.571 464.506L341.998 469.557L344.666 479.754L347.239 489.952L344.857 509.012C343.618 519.495 342.474 529.597 342.474 531.503C342.474 535.982 346.953 542.368 350.765 543.13C352.957 543.607 354.292 545.131 357.913 551.707L362.392 559.713L361.058 565.24C360.391 568.29 359.152 571.149 358.294 571.625C357.437 572.102 355.912 574.103 354.863 576.105C353.053 579.631 352.957 579.726 346.667 580.298C342.855 580.584 339.806 581.346 338.948 582.204C337.614 583.538 337.709 583.919 339.52 586.302C340.568 587.636 341.521 589.923 341.521 591.162C341.521 594.593 346.191 612.605 347.716 614.892C349.717 618.037 348.478 625.566 345.143 629.855C342.474 633.286 342.284 633.953 342.855 639.099L343.523 644.722L335.612 652.346C327.988 659.78 327.607 660.066 324.081 659.494C318.649 658.636 316.743 660.733 317.982 666.26C319.22 671.597 317.505 676.267 314.36 676.267C311.692 676.267 309.118 679.984 309.118 683.605C309.118 685.035 309.786 688.656 310.548 691.515C312.263 697.901 312.549 704.762 311.31 707.24C310.739 708.288 310.071 710.671 309.69 712.482C309.404 714.293 308.261 717.533 307.308 719.629C306.259 721.726 305.02 724.585 304.449 726.015C303.877 727.635 302.638 728.778 301.494 728.874C296.253 729.255 296.253 729.255 296.539 726.205C297.015 721.821 293.203 712.482 291.011 712.482C287.961 712.482 284.245 716.484 284.34 719.629C284.435 721.154 284.626 729.446 284.912 738.023C285.102 746.6 285.674 754.415 286.246 755.368C287.676 758.036 287.39 759.18 285.293 759.18C282.148 759.18 283.006 762.42 286.532 764.04C288.438 764.898 289.677 766.137 289.867 767.471C290.058 768.71 290.535 769.663 291.011 769.663C292.345 769.663 295.776 773.666 295.776 775.191C295.776 776.144 295.109 776.334 293.489 775.953C291.774 775.572 290.725 775.858 289.677 777.382C288.438 779.193 288.438 779.574 290.153 781.48C291.869 783.196 294.728 784.054 299.874 784.054C300.732 784.054 301.494 784.435 301.494 785.007C301.494 785.483 300.541 785.864 299.302 785.864C298.159 785.864 295.586 786.913 293.584 788.247C290.153 790.629 290.058 790.725 291.583 793.012C293.203 795.585 294.347 795.966 295.3 794.442C295.586 793.87 297.11 792.821 298.635 792.059L301.399 790.629L300.827 794.251C300.541 796.157 299.493 798.73 298.445 799.778C296.825 801.589 296.729 802.161 297.778 803.876C298.54 804.925 299.684 805.973 300.541 806.164C301.494 806.354 301.113 806.926 299.302 807.784C295.681 809.499 296.348 811.977 300.541 812.549C302.733 812.835 303.496 813.311 302.733 813.788C301.018 814.836 301.208 816.838 303.019 818.648C303.782 819.506 304.163 820.65 303.877 821.221C301.78 824.462 302.638 839.234 304.83 839.234C305.497 839.234 307.022 837.232 308.165 834.659C310.548 829.703 311.692 830.466 310.167 835.898C309.5 838.376 309.5 839.901 310.262 841.14C311.12 842.474 311.12 843.236 310.071 844.475C309.023 845.714 309.023 846.191 309.976 846.858C310.834 847.334 310.929 847.715 310.167 848.192C309.404 848.668 309.69 849.717 311.025 851.432C312.263 852.957 312.835 854.672 312.549 856.007C312.168 857.436 312.835 859.056 314.551 861.058C315.98 862.678 317.124 865.156 317.219 866.585C317.219 868.682 317.886 869.54 320.269 870.588C323.986 872.208 327.035 877.831 327.416 883.74C327.607 886.027 328.179 887.838 328.751 887.838C329.418 887.838 330.085 888.791 330.371 889.839C330.847 891.459 331.514 891.84 333.897 891.459C336.375 891.078 336.851 891.364 337.423 893.365C338.281 896.701 335.612 904.42 333.516 904.801C332.563 904.992 331.419 904.611 331.038 904.039C330.466 903.086 329.608 903.086 327.321 904.134C323.89 905.659 323.604 906.898 326.273 909.281C327.321 910.234 328.179 911.568 328.179 912.33C328.179 912.997 328.846 913.855 329.608 914.141C330.371 914.522 331.038 915.761 331.038 917C331.038 920.336 327.321 920.05 323.89 916.428C321.031 913.378 317.696 912.616 317.696 914.999C317.696 917 320.555 924.148 322.651 927.102C323.604 928.532 325.225 932.153 326.273 935.107C327.988 940.54 327.988 940.54 326.082 942.16C323.604 944.161 324.272 945.4 329.227 947.878C332.467 949.593 332.944 950.165 332.753 952.834C332.467 955.311 332.944 956.169 335.136 957.217C339.806 959.505 337.518 964.365 331.229 965.604C327.702 966.366 327.226 968.654 330.085 971.227C332.658 973.609 332.467 975.897 329.608 977.231C326.845 978.47 326.463 980.281 328.941 980.281C329.799 980.281 331.705 980.852 333.039 981.615C334.374 982.282 337.137 983.14 339.234 983.521C341.235 983.902 344.38 985.046 346.191 986.094L349.431 988L353.72 984.95C356.96 982.568 359.152 981.805 362.392 981.71C364.775 981.615 367.729 981.234 368.968 980.852C370.493 980.376 372.304 980.852 375.353 982.568C380.404 985.617 385.36 985.903 385.36 983.235C385.36 982.282 386.027 981.234 386.79 980.948C387.552 980.566 389.077 978.565 390.125 976.373C392.222 972.275 392.127 971.227 389.077 965.985C386.885 962.268 386.504 960.362 387.361 956.169C388.219 951.309 391.364 946.353 394.128 945.4C394.986 945.114 396.51 943.685 397.463 942.064C399.37 938.824 400.513 938.634 403.563 941.111C406.803 943.589 410.615 942.255 409.757 938.824C407.851 931.105 407.756 931.676 411.187 931.486C412.998 931.486 415.094 931.486 415.857 931.581C421.098 932.248 424.529 932.248 425.006 931.581C425.863 930.152 429.199 930.628 429.199 932.058C429.199 934.345 431.01 934.821 433.488 933.201C434.727 932.344 436.442 931.962 437.3 932.248C438.062 932.63 439.301 932.439 439.968 931.962C442.827 929.961 451.119 932.725 451.119 935.679C451.119 937.871 453.501 937.871 455.788 935.584C458.266 933.106 462.174 925.387 463.984 919.287C464.842 916.428 466.367 912.14 467.32 909.757C468.273 907.374 469.321 904.23 469.702 902.8C469.988 901.275 471.132 899.846 472.371 899.369C475.135 898.321 476.374 894.223 477.898 881.643C478.566 875.639 479.519 871.827 480.281 871.35C482.092 870.302 481.996 864.489 480.186 862.678C478.566 861.058 478.28 858.675 479.709 857.817C480.281 857.531 480.662 856.197 480.662 854.863C480.662 853.624 481.139 852.576 481.615 852.576C482.187 852.576 482.568 852.004 482.568 851.242C482.568 850.479 483.331 849.24 484.379 848.573C485.332 847.906 486.666 845.619 487.238 843.522C487.905 841.425 488.858 838.376 489.43 836.851C491.05 831.991 490.859 831.133 488.572 831.323C485.427 831.705 485.713 827.988 488.953 825.319L491.527 823.318L488 818.553C483.426 812.263 483.426 811.215 488.191 811.977C491.527 812.454 491.908 812.358 492.48 810.262C492.766 808.927 492.575 806.736 491.908 805.401C491.05 803.4 491.05 802.733 492.003 802.066C492.766 801.589 493.147 800.35 492.861 798.921C492.575 797.301 492.861 796.252 493.814 795.871C494.576 795.585 494.957 794.823 494.672 794.06C494.386 793.393 494.672 792.25 495.243 791.678C496.006 790.915 495.72 789.867 494.195 787.866C492.766 785.864 492.48 784.911 493.337 784.625C494.1 784.34 493.719 783.482 492.289 781.766C490.764 780.146 490.383 779.289 491.241 779.003C493.242 778.336 491.431 775.476 488 774.047C486.19 773.284 484.379 772.236 484.093 771.664C483.235 770.235 483.712 770.33 488.382 772.141C491.717 773.475 492.766 773.57 496.006 772.522C498.865 771.569 499.723 770.807 499.723 769.187C499.723 767.566 499.055 766.899 496.959 766.518C494.767 766.042 494.29 765.565 494.672 764.04C495.053 762.515 494.481 761.944 492.003 761.181C488.858 760.228 488.953 760.228 493.051 760.609C502.105 761.562 504.106 760.8 502.963 756.893C502.486 755.368 502.772 755.177 504.869 755.749C506.68 756.225 507.633 755.844 508.49 754.415C509.348 753.176 510.778 752.509 512.779 752.509C515.257 752.509 516.019 752.032 516.496 750.126C516.782 748.792 517.639 747.744 518.402 747.744C519.164 747.744 519.736 746.791 519.736 745.266C519.736 743.931 520.117 743.074 520.689 743.455C521.261 743.741 521.642 743.36 521.642 742.597C521.642 741.74 522.214 741.168 522.881 741.263C523.548 741.454 523.929 740.596 523.834 738.88C523.643 736.117 524.406 735.64 526.121 737.356C526.788 738.023 527.36 737.07 527.837 733.829C528.218 731.256 529.076 728.493 529.647 727.54C530.696 726.015 530.791 726.491 530.41 730.494C530.124 734.306 530.505 736.212 532.697 740.786L535.366 746.314L535.937 743.264C537.081 738.023 541.465 731.637 545.372 729.636C547.374 728.683 549.28 727.158 549.566 726.301C549.947 725.538 551.281 724.395 552.615 723.727C555.76 722.298 556.523 719.534 554.426 717.152C552.615 715.15 553.187 714.864 555.951 716.294C557.476 717.056 558.429 716.675 561.097 714.007C564.147 710.862 564.337 710.48 563.289 707.717C562.05 704.286 559.953 703.428 553.568 703.428C548.708 703.428 546.421 701.808 550.423 701.141C551.662 701.046 554.14 699.14 556.046 697.138C557.952 695.042 560.335 693.421 561.478 693.421C562.717 693.421 563.575 692.85 563.575 691.992C563.575 691.134 564.337 690.181 565.29 689.895C567.482 689.037 568.435 687.513 567.768 685.511C567.292 684.082 567.578 683.986 569.865 684.844C573.105 686.083 573.868 685.416 571.676 682.938C569.77 680.842 570.723 680.079 575.011 680.365C577.108 680.556 577.394 680.174 577.489 677.22C577.584 675.409 577.87 673.122 578.251 672.264C579.109 670.454 575.869 666.737 573.582 666.737C572.819 666.737 572.152 665.974 572.152 665.021C572.152 663.115 570.246 657.683 568.531 654.729C567.578 652.918 566.815 652.727 563.098 653.109C559 653.585 558.81 653.585 558.81 651.203C558.81 649.773 559.572 647.962 560.621 647.009C563.194 644.531 564.147 641.005 562.241 641.005C561.383 641.005 560.525 639.957 560.144 638.623C559.858 637.384 559 635.859 558.238 635.192C557.476 634.62 556.904 632.905 556.904 631.475C556.904 628.235 554.521 625.852 552.901 627.472C552.043 628.33 552.139 629.474 553.378 631.952C554.235 633.858 554.998 635.764 554.998 636.24C554.998 637.956 551.186 637.193 549.566 635.287C548.613 634.239 547.564 633.381 547.088 633.381C545.944 633.381 542.704 629.378 542.608 627.854C542.608 627.282 541.941 626.71 541.179 626.71C540.131 626.71 539.749 625.662 539.749 622.898C539.749 619.372 539.559 619.086 537.081 619.086C535.651 619.086 532.888 620.134 530.886 621.468C528.98 622.803 526.884 623.66 526.407 623.374C525.835 623.088 525.454 621.087 525.454 618.99V615.274H520.213C515.638 615.274 514.971 615.083 514.971 613.368C514.971 612.224 514.304 611.462 513.351 611.462C511.921 611.462 512.017 611.271 513.637 610.127C515.733 608.507 516.21 603.837 514.208 603.837C513.446 603.837 512.97 602.98 513.16 601.646C513.255 600.502 512.874 598.31 512.302 596.88C510.873 593.45 510.873 593.354 512.779 591.258C514.208 589.637 514.208 589.542 512.779 589.542C510.968 589.542 511.064 589.733 510.587 583.348C510.396 580.107 510.682 578.201 511.731 577.058C512.684 576.009 512.97 574.58 512.493 572.96C512.112 571.435 512.302 570.482 512.97 570.482C514.494 570.482 514.208 567.623 512.588 567.051C510.587 566.288 510.015 563.429 511.254 560.57C512.112 558.76 512.112 557.521 511.349 555.901C509.253 551.612 509.062 549.42 510.682 547.037C511.635 545.513 512.017 543.702 511.731 542.272C511.064 539.604 511.349 539.604 515.543 541.129C517.639 541.891 519.069 543.225 519.641 544.941C521.261 549.611 522.595 548.467 524.025 541.224C524.596 538.46 524.501 538.27 521.833 538.46C519.164 538.651 519.069 538.46 519.736 535.982C520.403 533.886 520.213 533.314 518.878 532.837C517.449 532.456 517.258 531.503 517.544 528.263C517.735 526.071 518.402 523.117 518.974 521.687C519.45 520.258 519.736 518.733 519.45 518.352C519.164 517.875 519.927 515.397 521.166 512.824C522.595 509.87 523.262 507.296 522.881 505.867C522.404 503.77 522.5 503.675 524.311 504.819C525.931 505.867 526.598 505.867 527.551 504.914C528.408 504.056 527.837 503.484 525.073 502.341C523.167 501.483 521.261 500.149 520.975 499.196C520.594 498.338 519.736 497.099 519.069 496.623C518.021 495.86 517.925 495.003 518.783 492.811C519.355 491.286 519.641 489.189 519.355 488.045C519.069 486.997 519.259 485.472 519.736 484.805C520.403 483.662 520.784 483.662 522.023 484.615C522.881 485.377 523.548 486.425 523.548 487.188C523.548 488.713 526.979 490.714 528.313 489.952C528.79 489.666 528.98 488.808 528.599 488.045C527.741 485.758 529.076 483.376 530.505 484.615C531.935 485.758 534.031 484.329 534.031 482.232C534.031 481.66 534.889 480.898 535.937 480.612C538.415 479.945 539.559 477.086 537.653 476.037C535.747 474.989 535.747 469.652 537.653 466.412C539.368 463.458 540.702 462.981 540.702 465.173C540.702 467.174 541.465 466.984 544.038 463.934C545.277 462.505 546.135 460.694 545.849 459.741C545.277 457.739 547.183 456.5 547.945 458.407C548.613 460.217 550.233 460.313 552.425 458.692C553.854 457.644 553.854 457.263 552.711 454.976C551.472 452.593 551.472 452.403 553.378 452.117C554.521 451.926 555.474 451.164 555.474 450.401C555.474 449.353 554.331 448.972 551.662 448.876C546.135 448.686 545.944 448.59 546.992 447.542C547.564 446.97 549.661 446.494 551.662 446.398C556.046 446.208 558.905 443.825 558.143 440.871C557.762 439.251 558.619 437.821 562.145 434.39L566.72 430.007L568.531 432.294C570.246 434.39 570.341 434.39 572.152 432.77C573.2 431.817 574.249 430.197 574.63 429.054C574.916 428.005 575.964 426.194 576.917 425.146C577.87 424.098 578.823 422.001 579.014 420.476C579.204 418.189 579.872 417.522 582.54 416.855C585.78 415.997 585.876 415.521 584.065 411.041C583.684 410.184 583.779 409.421 584.351 409.421C585.399 409.421 590.26 415.521 590.26 416.855C590.26 417.427 591.117 417.617 592.166 417.331C593.5 416.95 594.072 415.997 594.072 413.996C594.072 410.47 597.407 406.086 600.076 406.086C601.791 406.086 602.077 405.609 601.886 403.322C601.6 400.939 601.791 400.653 603.602 401.13C606.27 401.797 608.367 401.035 608.367 399.224C608.367 398.462 608.843 396.937 609.415 395.888C610.464 393.982 610.559 393.982 611.988 397.127L613.418 400.368L614.276 396.746C614.847 394.84 615.8 393.22 616.563 393.22C617.325 393.22 617.897 392.648 617.897 391.886C617.897 391.123 618.85 390.361 619.898 390.17C621.423 389.98 622.281 388.741 623.234 385.786C623.901 383.499 625.045 380.926 625.807 380.068C627.332 378.353 631.239 368.06 631.239 365.678C631.239 364.915 634.003 361.675 637.339 358.53C640.674 355.29 644.486 350.525 645.916 347.761C648.584 342.424 649.347 338.517 647.25 340.613C645.725 342.138 644.582 342.043 644.582 340.327C644.582 339.565 644.105 338.898 643.629 338.898C643.057 338.898 642.866 337.945 643.247 336.611C643.629 334.895 643.343 334.037 641.913 333.275C640.865 332.703 639.817 332.513 639.626 332.798C639.34 332.989 638.482 332.227 637.625 330.892C636.195 328.796 636.195 328.51 637.625 328.033C638.959 327.462 638.959 327.271 637.529 325.746C636.672 324.793 636.004 323.554 636.004 323.078C636.004 322.601 635.147 321.457 634.098 320.504C631.811 318.598 631.716 317.55 633.622 315.644C634.384 314.882 635.051 313.547 635.051 312.69C635.051 311.641 635.528 311.26 636.481 311.546C637.529 312.023 637.72 311.546 637.243 309.354C636.767 306.876 636.958 306.495 638.768 306.495C639.912 306.495 640.674 306.114 640.388 305.637C639.626 304.494 643.438 299.824 645.153 299.824C646.202 299.824 646.392 299.252 645.916 297.632C645.535 296.488 645.249 294.773 645.344 293.82C645.344 292.867 644.391 289.913 643.057 287.149C641.818 284.385 640.77 281.335 640.77 280.192C640.77 278 643.819 274.664 644.868 275.713C645.249 275.998 645.535 275.903 645.535 275.331C645.535 274.664 646.964 274.474 649.251 274.759C655.16 275.522 659.353 270.852 655.065 268.184C652.301 266.373 652.778 265.515 656.399 265.515C658.21 265.515 660.021 265.039 660.307 264.562C660.592 263.99 662.308 263.609 664.023 263.609H667.168L666.12 260.274C665.453 258.177 664.786 257.319 664.214 257.891C663.642 258.463 662.88 258.844 662.498 258.844C661.355 258.844 661.545 254.27 662.689 253.602C663.261 253.317 663.642 253.507 663.642 254.079C663.642 254.651 664.023 254.937 664.405 254.651C664.881 254.365 665.262 252.268 665.262 249.886C665.358 244.549 666.12 243.119 668.026 244.644C668.788 245.216 669.36 246.264 669.36 247.027C669.36 248.456 672.696 249.695 674.221 248.742C674.888 248.361 675.078 246.455 674.792 243.977C674.602 241.69 674.602 239.593 674.888 239.307C675.745 238.449 678.89 241.88 678.89 243.691C678.89 244.644 679.367 245.692 679.843 245.978C680.415 246.264 680.796 247.598 680.796 248.742C680.796 251.315 683.56 254.365 683.751 252.078C683.846 251.315 683.846 250.457 683.751 249.981C683.751 249.6 684.323 249.314 685.085 249.314C685.943 249.314 686.515 250.172 686.515 251.41C686.515 253.602 686.515 253.602 688.421 251.22C689.469 249.886 690.327 247.408 690.327 245.692C690.327 242.929 690.613 242.547 692.233 243.024C693.281 243.31 694.996 243.882 696.045 244.168C698.713 244.93 711.007 242.738 714.438 241.023C716.439 239.974 717.011 239.212 716.439 238.068C716.058 237.21 715.105 234.542 714.247 232.159C713.39 229.777 712.151 226.918 711.484 225.774C710.817 224.631 710.34 222.82 710.34 221.676C710.34 220.437 709.196 219.198 707.005 218.15C703.192 216.339 700.524 211.574 699.19 204.045C698.427 199.757 698.618 198.708 701.096 193.562C703.669 188.321 703.86 187.368 703.383 180.506C703.002 175.931 703.097 173.072 703.669 173.072C705.098 173.072 704.717 170.118 702.907 166.782C702.049 165.162 700.238 161.922 698.999 159.635C697.76 157.347 696.521 155.251 696.14 154.965C694.615 153.726 691.28 146.292 691.28 144.1C691.28 142.29 691.947 141.337 693.758 140.574C696.235 139.716 696.235 139.431 695.664 134.284C694.901 127.708 694.234 126.755 689.278 125.993C685.562 125.421 685.466 125.326 686.038 122.276C686.324 120.656 687.086 118.274 687.754 117.035C688.611 115.319 688.516 114.176 687.372 111.793C683.751 104.359 683.656 101.31 687.182 94.7339C688.325 92.4467 688.325 91.7796 687.086 89.4923C686.324 88.0628 684.609 85.8708 683.274 84.7272C681.94 83.4883 680.796 81.6775 680.796 80.6292C680.796 78.7232 679.939 78.342 676.889 78.6279C675.745 78.7232 675.078 77.7702 674.602 75.197C673.649 69.9554 671.552 66.4292 668.598 65.095C667.168 64.5232 665.834 63.7608 665.548 63.3796C664.405 61.95 656.876 58.7098 654.588 58.7098C653.254 58.7098 652.206 58.2332 652.206 57.7567C652.206 57.1849 651.158 56.8037 649.823 56.8037C646.202 56.8037 641.913 54.3259 640.388 51.1809C639.531 49.6561 637.911 48.2265 636.576 47.8453C635.242 47.5594 634.003 46.4158 633.622 45.4628C633.336 44.4144 631.621 42.699 629.81 41.6507C627.999 40.6024 626.474 39.0775 626.474 38.2198C626.474 37.4574 624.854 35.8373 622.853 34.503C620.947 33.2641 618.755 31.5487 617.992 30.691C617.23 29.8332 615.324 29.1661 613.418 29.1661C610.559 29.1661 610.178 28.8802 610.749 27.4507C612.274 23.7339 612.37 22.3997 610.845 20.1124C609.987 18.8735 609.32 16.9675 609.32 16.0144C609.32 14.299 607.604 12.0118 606.27 12.0118C605.889 12.0118 605.508 12.4883 605.508 12.9648Z" fill="black"/>
<path d="M582.348 805.883C580.347 808.17 579.108 808.742 576.153 808.742C573.199 808.742 572.246 809.123 571.865 810.648C571.579 811.697 570.912 812.554 570.34 812.554C569.768 812.554 569.292 811.697 569.292 810.648C569.292 808.17 566.051 808.075 564.336 810.553C563.669 811.506 561.667 813.031 559.952 813.889C557.665 815.032 556.14 817.033 554.043 821.703C552.233 825.706 549.755 829.327 547.182 831.615C543.084 835.236 543.084 835.236 544.418 838.381C546.514 843.527 546.896 850.77 545.085 851.819C543.179 852.867 543.084 855.059 544.894 856.107C546.038 856.774 547.086 860.301 547.753 865.923C547.849 867.258 548.706 868.401 549.564 868.592C551.28 868.973 551.851 870.689 550.136 870.689C549.659 870.689 548.611 872.118 547.849 873.929C547.086 875.74 546.038 877.55 545.466 877.836C543.655 878.98 545.561 880.219 549.183 880.219C553.376 880.219 554.996 877.836 554.329 872.88C553.948 870.784 554.425 869.354 555.663 868.115C556.712 867.067 557.379 865.828 557.188 865.352C556.712 863.922 564.05 858.299 566.337 858.299C569.196 858.299 569.863 856.298 567.386 854.487C565.384 853.058 565.384 852.772 566.909 851.342C567.767 850.485 570.34 848.578 572.723 847.244C575.01 845.91 576.916 844.385 576.916 843.909C576.916 843.432 575.677 842.479 574.247 841.717C570.245 839.62 568.815 837.619 570.149 835.999C570.816 835.236 571.198 833.235 571.102 831.424C570.626 825.229 571.102 823.038 572.913 823.038C574.914 823.038 576.916 821.322 576.916 819.511C576.916 818.749 578.441 816.938 580.251 815.318C582.062 813.698 583.587 811.792 583.587 811.029C583.587 810.267 584.635 808.742 585.874 807.694C588.257 805.693 588.257 803.024 585.969 803.024C585.302 803.024 583.587 804.263 582.348 805.883Z" fill="black"/>
<path d="M499.913 850.855C498.864 853.142 497.053 858.384 495.91 862.577C493.813 870.392 488.19 881.733 485.427 883.734C483.997 884.783 483.235 886.307 477.421 899.65C474.848 905.558 474.086 913.278 475.992 915.184C476.659 915.851 476.945 918.805 476.659 922.999C476.278 929.574 476.373 929.67 478.279 928.431C481.043 926.62 483.425 921.283 483.521 916.804C483.521 913.183 484.855 908.608 488.667 898.792C489.429 896.695 490.096 894.122 490.192 892.979C490.192 891.835 491.145 889.548 492.384 887.737C495.052 883.734 496.577 879.827 497.149 875.252C497.435 873.251 498.96 868.962 500.58 865.532C502.2 862.196 503.534 858.384 503.534 857.05C503.534 855.811 504.392 853.619 505.44 852.38C507.251 850.093 507.251 849.902 505.535 848.377C502.962 846.09 502.104 846.471 499.913 850.855Z" fill="black"/>
<circle cx="537" cy="709" fill="#5CE50D"/>
<circle cx="664" cy="246" fill="#E52A0D"/>
<circle cx="313" cy="812" fill="#E52A0D"/>
<circle cx="401" cy="929" fill="#E52A0D"/>
</svg>
