<svg width="1000" height="1000" viewBox="0 0 1000 1000" fill="none" xmlns="http://www.w3.org/2000/svg">
<rect width="1000" height="1000" />
<path d="M868.089 176.424C865.159 177.206 861.643 178.67 860.276 179.549C858.909 180.526 855.198 181.893 852.073 182.577C846.409 183.944 846.116 183.846 841.624 181.307C837.132 178.768 836.936 178.768 832.737 180.331C830.491 181.21 826.585 183.749 824.143 185.995C819.554 190.292 814.182 192.928 812.522 191.854C811.936 191.561 809.397 192.147 806.956 193.221C804.417 194.393 801.585 195.272 800.608 195.272C798.069 195.272 797.288 198.788 799.241 201.815C800.413 203.573 800.706 205.233 800.218 207.87C799.827 209.823 799.339 217.342 799.143 224.569L798.851 237.753L806.565 245.565L814.378 253.378L814.964 260.897C815.647 268.221 814.378 274.374 812.327 274.374C810.081 274.374 802.464 267.928 800.511 264.315C798.655 260.995 797.19 259.823 792.308 257.772C789.085 256.405 784.593 253.573 782.347 251.327C777.854 246.932 773.753 245.37 761.643 243.612C751.878 242.245 746.897 243.807 738.987 250.643L733.03 255.721L721.702 255.233C712.522 254.745 709.886 254.256 707.64 252.694C703.929 250.155 700.804 251.034 698.167 255.331C695.237 260.116 689.378 262.948 684.397 262.167C679.905 261.385 674.534 262.948 670.14 266.366C667.503 268.319 666.917 269.393 666.917 272.518C666.917 274.569 666.331 278.28 665.745 280.721C664.671 284.725 663.89 285.604 659.104 288.436C656.175 290.292 651.976 291.952 649.827 292.245C647.679 292.538 645.14 293.026 644.261 293.417C642.21 294.295 638.597 288.827 638.597 284.823C638.597 281.991 635.862 280.233 631.37 280.233C630.101 280.233 628.44 279.452 627.561 278.475C626.097 276.815 624.143 276.717 606.175 276.815C587.522 277.01 586.058 277.108 582.151 279.256C578.05 281.405 577.561 281.405 569.456 280.331C564.28 279.549 559.886 278.378 558.323 277.206C555.979 275.643 553.929 275.35 542.308 275.35C530.686 275.35 528.538 275.643 525.804 277.303C523.069 278.963 522.483 279.061 520.823 277.792C517.698 275.448 511.643 276.034 507.054 279.061C502.659 281.991 497.483 288.436 496.507 292.147C496.116 293.417 495.042 295.467 493.968 296.737C492.405 298.592 491.819 298.788 490.647 297.811C489.866 297.128 489.183 295.663 489.183 294.491C489.183 293.417 488.401 291.268 487.425 289.803C485.862 287.362 485.472 287.264 483.714 288.436C482.737 289.12 480.198 290.292 478.147 290.878C476.097 291.561 473.753 293.124 472.972 294.393C471.507 296.639 471.311 296.639 467.503 295.272C464.183 294.1 463.304 294.1 460.862 295.37C457.933 296.835 452.073 304.745 448.362 311.971C446.214 316.366 443.186 331.6 443.577 336.776C443.675 339.217 443.186 340.487 441.331 341.854C438.499 344.003 429.905 345.663 427.073 344.588C426.097 344.198 422.581 343.807 419.261 343.807C412.425 343.71 411.741 344.198 408.128 352.206C405.882 356.991 403.147 359.335 399.827 359.335C398.948 359.335 398.362 360.311 398.362 361.581C398.362 364.901 395.433 367.147 390.94 367.147C388.89 367.245 386.058 367.831 384.69 368.612C383.323 369.393 380.979 369.979 379.417 370.077C375.706 370.077 370.335 374.276 369.554 377.694C369.261 379.256 369.456 381.6 369.944 382.967C370.921 385.506 370.237 389.803 367.991 395.565C366.136 400.35 359.3 399.178 359.3 394.198C359.3 393.319 357.933 389.413 356.175 385.702C352.464 377.303 349.046 374.667 346.018 377.987C342.796 381.503 341.233 381.893 336.253 380.135C327.757 377.303 324.632 374.569 324.632 370.077C324.632 367.928 324.241 367.635 321.214 367.831C313.987 368.124 300.999 370.174 297.483 371.542C292.308 373.592 289.28 373.397 284.202 370.37L279.808 367.831L271.214 369.588C263.987 371.053 262.132 371.151 259.886 370.077C258.226 369.393 253.44 368.905 247.386 369.003L237.522 369.1L234.202 363.631C227.464 352.499 227.073 352.108 222.093 350.35C219.358 349.374 214.671 347.909 211.546 347.128C206.077 345.663 205.784 345.663 200.999 348.006C195.042 350.838 192.698 350.35 186.448 344.979C180.101 339.51 171.507 335.897 161.058 334.237C151.878 332.87 151.585 332.87 140.745 335.506L129.71 338.143L124.046 335.018C119.163 332.479 117.308 331.991 111.351 331.991C104.808 331.991 104.417 332.088 104.417 334.139C104.319 335.409 103.733 337.46 102.952 338.827C102.171 340.194 101.585 343.905 101.487 347.128C101.487 351.229 100.706 354.549 99.0458 358.163C97.6786 361.092 96.6044 364.217 96.6044 365.194C96.6044 368.221 92.0146 368.905 84.6904 367.049C81.8583 366.268 77.9521 366.17 72.7763 366.756L65.1591 367.635L62.62 372.03C61.2529 374.471 59.8857 377.694 59.5927 379.354C59.0068 381.795 57.7372 382.772 51.1943 385.995C46.8974 388.045 41.8193 391.268 39.9638 393.026C35.9599 396.932 30.5888 399.374 26.0966 399.374C18.9677 399.374 18.4794 399.862 18.4794 407.284C18.4794 412.167 18.0888 414.315 16.9169 415.194C13.6943 417.831 11.9365 419.588 10.5693 421.444C9.78802 422.518 7.24896 424.471 4.80755 425.838C-0.270575 428.573 -0.954168 430.428 1.78021 434.237C2.85443 435.702 4.41693 439.803 5.39349 443.319C6.27239 446.835 7.73724 450.448 8.51849 451.327C9.88568 452.889 9.88568 455.428 8.51849 464.315C8.32318 465.878 8.81146 466.366 11.7411 466.561C14.7685 466.854 15.8427 466.268 18.6747 463.436C21.3115 460.702 22.288 460.311 23.7529 461.092C24.7294 461.581 27.0732 461.874 29.0263 461.581C32.0536 461.288 33.0302 461.581 35.081 464.022C37.3271 466.659 37.7177 466.756 40.5497 465.682C43.1865 464.608 44.0654 464.706 47.0927 466.659C51.3896 469.295 54.6122 473.202 54.6122 475.643C54.6122 477.596 56.8583 477.792 74.1435 477.987C79.7099 478.085 84.3974 479.745 85.2763 481.991C86.0575 484.042 81.4677 496.639 78.7333 499.862C77.3661 501.522 75.999 503.67 75.706 504.549C75.413 505.526 72.874 507.577 70.1396 509.139C67.3075 510.702 62.0341 514.706 58.3232 518.124C53.4404 522.616 50.8036 524.374 48.8505 524.374C46.7997 524.374 45.5302 525.253 43.7724 527.987C41.8193 531.014 40.7451 531.795 37.5224 532.186C33.7138 532.674 33.6161 532.772 33.3232 536.678C33.1279 539.315 33.5185 541.073 34.5927 541.952C37.5224 544.393 36.4482 549.276 31.663 554.647C29.2216 557.381 27.2685 560.116 27.2685 560.799C27.2685 562.753 31.1747 567.538 37.3271 573.202L42.9911 578.378L47.3857 576.327C49.7294 575.155 52.1708 574.178 52.7568 574.178C53.3427 574.178 54.9052 573.299 56.2724 572.225C58.3232 570.565 60.2763 570.272 67.3075 570.272H75.8036L76.4872 573.885C76.7802 575.936 77.0732 580.819 77.0732 584.725C77.0732 591.561 76.9755 591.952 73.5575 595.467C71.6044 597.42 69.456 600.253 68.7724 601.62C67.9911 602.987 65.745 605.819 63.5966 607.967C60.8622 610.702 59.495 613.045 59.0068 615.682C58.6161 617.831 57.7372 620.956 56.956 622.713C55.1005 626.815 55.1982 629.745 57.5419 633.26C58.7138 635.116 59.495 637.85 59.495 640.585C59.495 646.542 63.1083 651.815 68.0888 653.182C70.0419 653.768 74.4365 654.256 77.8544 654.256H84.0068L92.1122 661.874C103.245 672.42 106.175 674.471 111.448 675.643C113.987 676.229 117.112 677.206 118.382 677.792C122.19 679.549 131.761 693.319 137.132 705.038L142.015 715.682L149.632 720.565C158.909 726.62 159.397 728.67 153.05 734.823C150.706 737.069 147.972 740.389 146.897 742.245C144.456 746.346 134.69 751.815 129.808 751.913C125.315 751.913 118.675 749.764 112.913 746.542C108.518 744.003 107.64 743.905 101.194 744.491C94.6513 745.077 92.0146 745.858 94.163 746.639C94.749 746.835 96.6044 748.006 98.4599 749.276C100.315 750.448 102.659 751.913 103.733 752.596C106.468 754.159 107.347 755.917 106.761 758.456C106.272 760.213 106.761 760.897 108.714 761.678C111.936 762.85 111.936 765.194 108.714 765.975C107.054 766.463 105.589 766.17 104.515 765.096C102.366 763.241 101.585 763.241 99.4365 765.194C98.1669 766.366 97.288 766.463 95.7255 765.682C94.6513 765.096 92.9911 764.608 91.9169 764.608C88.6943 764.608 79.7099 767.831 77.8544 769.686C76.0966 771.444 73.3622 771.346 66.624 769.393C63.9872 768.514 63.3036 768.71 60.9599 771.053C58.8115 773.202 57.8349 773.495 55.0029 773.006C51.9755 772.42 51.6825 772.518 51.6825 774.667C51.6825 777.499 54.5146 780.233 57.3466 780.233C59.9833 780.233 59.9833 780.819 57.5419 785.604C55.2958 789.999 55.0029 793.807 56.8583 796.053C60.5693 800.643 76.5849 809.042 83.4208 809.92C87.4247 810.409 89.2802 810.018 93.4794 808.065C96.4091 806.698 99.2411 805.624 99.8271 805.624C100.413 805.624 102.268 804.354 103.929 802.694L106.858 799.862L112.62 801.913C118.186 803.963 118.479 803.963 122.972 802.401C130.101 799.862 130.784 800.057 130.784 804.94C130.784 810.799 133.128 812.85 138.597 811.971C141.917 811.385 142.893 811.581 143.968 813.143C144.944 814.413 145.726 814.608 146.702 813.924C147.483 813.338 149.143 812.167 150.511 811.288C152.171 810.018 155.491 809.432 162.62 809.042C175.12 808.456 178.147 807.479 183.226 802.596L187.327 798.495L185.472 795.858C184.202 794.1 183.909 792.831 184.593 791.854C185.081 791.17 185.472 788.924 185.472 787.069C185.472 783.944 185.96 783.358 190.354 780.917L195.335 778.085L199.632 781.6C201.976 783.553 204.808 786.385 205.882 787.948C207.737 790.487 208.616 790.78 215.452 791.366C226.194 792.245 226.292 792.245 230.589 790.096L234.593 788.143L239.378 793.514C242.601 797.03 245.042 798.788 246.507 798.788C248.655 798.788 255.784 795.272 255.784 794.198C255.784 793.905 254.808 792.928 253.733 792.049C249.143 788.436 254.808 780.233 261.839 780.233C264.476 780.233 264.476 780.233 264.768 788.241C265.061 795.467 265.257 796.346 267.015 796.639C268.382 796.737 269.651 795.76 271.214 793.417C273.558 789.706 275.413 789.315 282.737 790.975C291.917 793.124 296.702 792.538 305.589 788.338C310.179 786.092 315.843 783.846 318.284 783.163C323.948 781.698 324.436 781.112 328.245 774.276C330.491 770.272 332.054 768.514 333.323 768.514C334.397 768.514 336.741 767.538 338.499 766.268L341.722 764.12V751.815C341.722 740.975 341.917 739.315 343.577 737.85C344.651 736.874 346.311 736.288 347.288 736.483C348.265 736.581 350.413 736.19 352.073 735.506C354.808 734.335 355.393 733.358 356.663 728.182C357.542 724.862 358.518 719.881 358.909 717.245C359.69 711.288 360.96 709.432 362.913 710.995C363.89 711.874 364.866 711.874 366.722 710.995C368.089 710.409 369.554 709.92 370.042 709.92C370.628 709.92 371.018 714.217 371.018 719.979V730.038L375.511 734.432C377.952 736.776 380.979 740.389 382.347 742.44C385.374 747.03 392.015 751.913 395.433 751.913C396.995 751.913 399.143 753.085 401.097 755.135L404.222 758.358L402.757 762.753C401.878 765.096 400.901 769.979 400.608 773.592L400.022 780.233H402.659C404.222 780.233 406.468 779.354 407.835 778.28C410.276 776.327 410.276 776.327 413.108 778.378C414.671 779.452 416.624 781.698 417.405 783.26C418.577 785.409 419.651 786.092 421.702 786.092C423.265 786.092 424.729 786.678 425.022 787.46C425.315 788.241 427.659 789.413 430.198 790.194C434.397 791.366 435.081 791.952 437.815 797.323C439.476 800.545 441.331 804.256 441.819 805.624C443.186 809.139 447.483 809.237 458.811 806.112C471.995 802.401 472.972 801.327 473.558 789.217L474.046 779.745L476.976 779.94C478.831 780.135 480.784 781.21 482.347 783.065C487.132 788.827 493.284 792.928 497.19 792.928C499.143 792.928 501.976 793.417 503.538 794.003C505.003 794.588 508.421 795.272 511.058 795.467C518.968 796.053 522.386 797.616 523.948 801.327C525.901 806.014 530.784 811.19 534.397 812.362C536.448 813.045 538.987 815.292 541.233 818.319C545.53 824.081 550.706 826.229 555.979 824.374C557.737 823.69 560.765 823.202 562.718 823.202C566.038 823.202 566.722 822.713 570.823 816.952C576.585 808.944 580.393 807.381 588.206 809.823C591.038 810.702 595.14 811.483 597.386 811.483C600.999 811.483 602.073 810.897 607.542 805.526C610.96 802.303 614.671 798.69 615.94 797.518C617.112 796.444 618.089 794.784 618.089 793.905C618.089 792.147 613.987 788.729 610.569 787.655C609.495 787.264 606.761 785.702 604.515 784.139C599.241 780.233 592.698 767.635 592.015 759.823C591.819 756.795 590.745 752.596 589.768 750.448C586.448 743.221 586.351 741.756 589.671 740.487C591.526 739.803 593.186 738.045 594.358 735.702C596.116 731.991 596.214 731.991 601.292 732.284C606.175 732.479 606.37 732.381 606.37 730.038C606.37 728.378 606.761 727.694 607.737 728.085C609.495 728.768 613.206 723.983 613.206 720.956C613.206 718.221 609.3 711.092 606.37 708.456C605.003 707.284 603.636 706.893 601.487 707.284C597.581 708.163 597.581 705.917 601.487 701.913C603.44 699.96 604.222 698.592 603.538 697.811C603.05 697.225 602.073 694.198 601.39 691.073C600.706 687.948 599.632 684.725 598.948 683.749C597.19 681.307 593.382 683.749 590.55 689.315C588.401 693.514 588.304 694.198 589.476 699.667C591.429 708.944 589.866 710.213 583.714 704.549C581.663 702.694 579.612 699.471 578.929 697.225C577.854 693.905 577.366 693.319 574.925 693.319C572.288 693.319 572.19 693.124 572.19 689.022C572.19 684.042 572.972 683.163 576.487 684.53C578.733 685.311 579.319 684.92 583.128 680.721C585.472 678.085 588.792 675.253 590.55 674.374C593.186 673.006 593.675 672.225 593.675 669.1C593.772 663.631 596.8 660.799 605.296 658.26C610.179 656.795 613.206 655.233 614.476 653.573C616.331 651.229 616.722 651.229 626.683 651.522L636.936 651.815L636.741 645.663C636.546 640.585 636.839 639.217 638.304 638.045C641.136 635.897 644.163 636.385 646.409 639.413C648.069 641.561 649.046 642.049 651.292 641.756C654.417 641.268 657.737 638.143 658.323 635.213C658.616 633.456 659.3 633.26 664.28 633.553C669.847 633.944 669.847 633.944 671.311 630.526C672.093 628.67 673.265 626.913 673.948 626.62C674.632 626.424 679.124 628.866 683.811 631.991L692.405 637.753L694.358 635.311C695.628 633.651 697.288 632.772 699.046 632.772C700.608 632.772 703.147 632.284 704.808 631.698C707.347 630.819 708.03 629.745 709.69 624.667C710.862 620.858 711.253 618.026 710.667 616.952C708.909 613.436 709.788 607.772 712.425 605.331C713.792 604.061 715.843 601.229 716.917 599.178C718.968 595.077 718.968 595.467 717.015 574.569C716.722 570.565 716.917 567.831 717.796 566.268C718.479 564.999 719.358 562.167 719.749 560.018C720.042 557.87 721.409 553.378 722.581 550.155L724.827 544.1L722.679 541.463C719.358 537.167 713.694 533.358 709.397 532.674C706.663 532.186 704.417 530.819 701.976 528.182C699.925 526.034 697.093 524.081 695.335 523.788C693.479 523.397 692.112 522.42 691.722 521.053C691.331 519.979 690.061 517.831 688.89 516.366C685.667 512.557 684.886 502.987 687.327 496.053C688.401 493.124 689.671 490.585 690.257 490.389C690.843 490.194 693.382 486.971 695.823 483.26C699.827 477.401 700.315 476.131 699.339 474.178C697.679 470.37 699.436 469.686 710.862 469.686C718.675 469.686 721.702 469.295 723.362 468.124C726.097 466.268 728.147 467.538 728.636 471.444C728.929 473.788 729.417 474.081 732.835 474.276C736.155 474.471 737.132 474.081 739.183 471.444C741.429 468.514 742.893 461.19 743.284 450.545C743.284 448.788 745.628 447.518 757.151 442.831C768.87 438.045 772.093 437.069 779.222 436.581C785.667 436.092 788.499 435.409 791.917 433.456C794.358 432.088 797.776 430.624 799.632 430.233C801.683 429.842 805.296 427.694 808.421 424.862C811.448 422.323 814.964 419.784 816.331 419.393C820.042 418.221 824.827 414.217 825.999 411.19C826.878 409.335 826.878 407.284 826.194 404.159C825.608 401.815 825.12 399.569 825.12 399.178C825.12 398.885 827.464 398.397 830.296 398.104C838.499 397.42 842.698 395.858 846.507 392.147C848.46 390.194 850.706 388.631 851.39 388.631C852.073 388.631 854.515 390.585 856.858 393.026C861.35 397.616 862.132 397.811 876.39 397.518C878.05 397.518 881.077 397.42 883.225 397.42C886.155 397.323 887.522 397.811 888.499 399.374C889.475 400.838 890.843 401.327 894.358 401.327C900.999 401.327 901.585 400.643 901.097 393.417C900.804 388.143 900.12 386.288 896.8 381.307C893.284 376.131 892.893 374.96 893.284 370.956C893.577 367.733 893.089 365.292 891.624 362.46C890.159 359.628 889.573 356.6 889.573 352.108C889.573 346.444 889.866 345.565 892.307 343.319C893.772 342.049 896.897 339.12 899.339 336.971C902.171 334.335 904.515 332.967 906.272 332.967C909.886 332.967 912.034 332.088 912.034 330.526C912.034 328.67 914.671 327.987 917.6 329.159C919.163 329.745 921.702 329.94 923.362 329.549C925.413 329.159 926.78 329.452 927.659 330.526C928.343 331.307 929.612 331.991 930.589 331.991C931.468 331.991 933.03 332.87 934.007 333.944C936.253 336.385 942.112 338.436 943.479 337.069C945.432 335.116 957.542 344.393 961.057 350.643C963.206 354.549 964.573 355.233 966.429 353.378C967.112 352.694 968.87 353.085 972.386 354.842C977.366 357.381 982.054 357.967 985.765 356.503C986.839 356.014 988.987 356.112 990.55 356.698C992.6 357.381 994.065 357.284 996.604 356.112C1002.46 353.28 1000.02 351.229 991.331 351.62C987.425 351.815 985.374 351.229 980.784 348.592C969.651 342.342 967.698 340.878 967.698 338.534C967.698 336.288 966.331 327.108 965.159 321.542C964.378 317.635 960.96 314.413 956.761 313.534C954.124 312.948 953.44 312.264 952.561 309.237C950.999 303.67 943.87 295.174 938.401 292.44C935.765 291.073 933.421 289.217 933.128 288.338C932.835 287.362 930.589 285.409 928.147 283.944C922.776 280.624 922.093 279.256 923.948 274.569C925.218 271.346 925.706 270.956 928.44 271.151C931.175 271.444 931.565 271.151 932.054 268.221C932.444 266.561 932.542 262.85 932.347 260.213L932.054 255.331L928.147 255.038C925.999 254.94 922.581 254.354 920.53 253.67C917.307 252.694 916.819 252.206 917.112 250.057C917.405 246.542 916.233 245.077 913.011 245.077C910.472 245.077 909.983 244.588 908.421 239.51C907.347 236.092 905.491 232.772 903.44 230.819C900.218 227.694 900.218 227.596 901.682 224.667C903.538 221.249 902.854 218.905 899.729 217.635C897.972 217.049 897.386 216.073 897.386 214.022C897.386 211.776 898.069 210.897 901.585 209.237C905.1 207.479 905.979 206.503 907.249 202.499C908.518 198.202 908.518 197.225 907.151 192.538C906.077 188.729 905.1 187.264 903.538 186.874C902.268 186.483 901.292 185.702 901.292 184.92C901.292 184.237 900.12 183.358 898.655 182.967C897.093 182.674 894.749 181.014 893.382 179.354C891.331 177.01 889.671 176.229 885.569 175.643C878.245 174.569 874.339 174.764 868.089 176.424Z" fill="black"/>
<circle cx="306" cy="520" fill="#5CE50D"/>
<circle cx="721" cy="331" fill="#E52A0D"/>
<circle cx="160" cy="730" fill="#E52A0D"/>
<circle cx="530" cy="654" fill="#E52A0D"/>
</svg>
