<svg width="1000" height="1000" viewBox="0 0 1000 1000" fill="none" xmlns="http://www.w3.org/2000/svg">
<rect width="1000" height="1000" />
<path d="M463.884 264.987C463.031 266.219 459.241 270.483 455.261 274.653L448.154 282.044L441.994 281.381C436.498 280.812 435.456 281.002 432.897 282.802C431.097 284.129 430.054 285.645 430.054 287.066C430.054 288.298 429.201 291.425 428.254 293.984C426.927 297.301 426.738 299.006 427.401 300.238C428.443 302.039 427.117 303.65 424.748 303.65C423.611 303.65 420.578 310.188 420.578 312.557C420.578 314.263 409.965 315.495 407.406 314.073C404.658 312.652 398.215 312.936 396.888 314.547C395.467 316.348 385.517 316.537 385.517 314.831C385.517 314.263 385.99 312.368 386.559 310.757C387.507 308.293 387.317 307.061 385.611 303.271C384.569 300.712 383.621 296.732 383.621 294.268C383.621 287.066 382.105 286.119 369.218 285.266C360.5 284.603 359.647 284.697 353.582 287.351C347.138 290.004 347.044 290.004 344.296 288.298C340.979 286.308 337.378 286.119 330.555 287.635C326.291 288.583 325.533 288.488 324.49 286.972C323.543 285.74 322.501 285.455 319.563 285.929C315.109 286.687 313.024 288.962 312.266 293.889C311.793 296.922 311.034 297.869 308.381 299.196C306.107 300.238 304.212 302.228 302.695 305.261C299 312.273 297.863 313.41 295.209 312.747C292.082 311.989 290.187 314.452 289.524 320.138C288.955 325.445 286.681 327.908 278.152 332.552C274.741 334.447 254.841 340.606 252.283 340.606C252.093 340.606 251.904 341.175 251.904 341.838C251.904 342.596 250.672 344.207 249.155 345.629C247.165 347.334 246.123 349.324 245.744 352.357C245.365 354.631 245.365 357 245.649 357.474C245.934 358.042 245.176 360.696 243.849 363.539C242.522 366.287 241.48 369.603 241.48 370.93C241.48 372.257 240.627 374.341 239.585 375.668C238.258 377.374 237.689 379.553 237.689 383.249C237.595 391.683 235.415 399.169 232.098 402.58C229.161 405.518 229.066 405.518 217.316 405.802L205.565 406.181L203.67 409.119C202.723 410.824 201.585 414.236 201.206 416.889C200.827 419.448 199.69 423.333 198.648 425.418L196.658 429.303L188.508 429.492C179.411 429.682 181.022 428.734 171.925 439.632C167.851 444.559 163.681 446.739 158.659 446.739C154.584 446.739 148.804 449.392 148.14 451.572C147.477 453.467 140.654 454.699 135.347 453.846C132.884 453.467 131.462 452.614 130.799 451.098C129.472 448.065 123.692 447.307 121.323 449.866C118.29 453.277 114.879 454.414 110.71 453.467C107.203 452.709 104.171 450.34 104.076 448.444C104.076 448.065 103.034 447.213 101.802 446.549C92.326 441.337 89.5779 440.105 85.5032 439.632C81.1442 438.968 80.4808 439.253 76.8799 442.095C74.7004 443.896 71.4785 446.17 69.7729 447.213C67.5933 448.539 65.6981 451.098 63.6134 455.457C61.7182 459.342 59.8229 461.995 58.591 462.374C57.5487 462.659 55.7482 464.743 54.6111 466.923C53.5687 469.102 51.6735 472.135 50.5364 473.746C49.3045 475.262 48.0726 477.631 47.6935 478.958C47.3145 480.284 45.9878 482.558 44.8507 484.169C43.7136 485.686 42.2922 488.907 41.6288 491.276C39.7336 498.289 38.5965 500.563 36.2274 502.174C34.3322 503.406 33.9532 504.448 33.9532 508.428C33.9532 510.987 34.427 515.061 34.9956 517.43C36.0379 521.6 36.0379 521.789 33.1951 524.727C31.6789 526.433 30.068 528.707 29.7837 529.844C29.4047 530.981 28.2675 532.213 27.2251 532.497C25.8985 532.971 25.5195 533.635 25.8985 534.867C26.2775 536.193 25.8985 536.667 24.2876 536.951C22.9609 537.141 21.1604 538.846 19.4547 541.689C16.991 545.669 16.8014 546.238 18.0333 548.607C19.2652 550.786 19.2652 551.734 18.0333 555.335C17.2752 557.609 16.3276 559.504 15.8538 559.504C15.38 559.504 15.001 561.873 15.001 564.716C15.001 569.17 15.2853 569.928 16.8014 569.928C19.6443 569.928 25.6142 576.372 24.8561 578.646C24.098 581.11 26.2775 588.88 27.7937 588.88C30.3523 588.88 32.3422 592.481 31.6789 596.272C31.2999 598.83 31.5842 601.01 32.6265 603C33.4794 604.705 34.6165 608.591 35.1851 611.812C36.5117 618.635 40.2074 623.468 45.7035 625.269C48.7359 626.311 49.9678 627.543 52.3368 631.902C54.9901 636.829 55.1797 637.398 53.6635 638.44C51.863 639.862 51.6735 640.62 51.863 648.295L51.9578 654.265H54.8006C56.4115 654.265 59.1596 655.118 61.0548 656.066C63.9924 657.677 65.6981 657.866 72.4262 657.393C79.0594 656.919 80.3861 657.013 80.3861 658.245C80.3861 660.993 84.6503 663.741 89.7674 664.405C94.4107 664.973 94.8845 665.258 98.2012 669.996C100.096 672.839 102.371 675.302 103.129 675.587C105.308 676.439 111.752 685.347 112.794 688.948C113.742 692.738 120.28 698.329 124.639 699.277C127.103 699.751 127.861 700.604 128.809 703.352C130.42 708.469 133.168 711.122 136.864 711.122C139.801 711.122 143.876 713.965 143.876 716.05C143.876 716.429 147.098 719.461 150.983 722.872C155.816 726.947 159.322 729.127 161.691 729.6C163.586 729.979 165.766 730.738 166.524 731.306C167.756 732.348 175.81 732.822 190.783 732.917C193.436 732.917 197.132 732.254 199.027 731.401C202.533 729.79 202.628 729.885 204.428 732.064L206.229 734.338L208.503 732.159C211.346 729.6 214.473 729.506 223.001 731.969C226.602 733.012 233.804 734.244 239.016 734.812C244.323 735.381 251.051 736.139 253.988 736.707C258.726 737.466 261.001 737.181 271.045 734.718C277.489 733.107 283.08 731.496 283.459 731.117C283.933 730.643 285.828 731.117 287.723 732.064C291.608 734.054 294.641 734.338 296.157 732.822C297.294 731.685 301.179 731.59 311.982 732.538C316.625 732.917 320.7 732.728 322.88 732.064C327.239 730.738 331.977 726.379 333.777 722.114C335.009 719.271 335.578 718.798 339.842 718.229C342.779 717.85 345.338 718.04 346.475 718.608C349.792 720.314 353.298 719.935 353.298 717.755C353.298 716.808 352.445 715.481 351.497 714.912C350.455 714.439 349.507 713.017 349.318 711.88C349.128 710.459 347.707 709.132 345.054 707.9C340.884 705.815 339.652 703.92 338.61 697.476C338.136 694.634 338.515 692.928 340.221 689.706C342.116 686.01 342.211 685.347 341.074 682.125C339.937 678.903 339.937 678.429 341.547 677.292C342.495 676.629 344.106 676.06 345.148 676.06C348.655 676.06 349.886 674.449 349.981 670.185C350.076 664.31 351.308 661.088 353.582 660.33C355.477 659.667 366.849 659.003 375.093 659.003C377.557 659.098 378.978 658.435 380.4 656.54L382.484 653.981L385.801 656.54C389.118 659.098 389.212 659.098 392.245 657.582C394.14 656.54 396.414 656.161 398.309 656.445C400.015 656.729 401.815 656.54 402.289 656.066C403.047 655.308 408.923 656.634 419.062 659.951C421.431 660.709 422.094 660.52 423.231 658.909C423.895 657.866 427.117 655.782 430.339 654.36C435.266 652.086 437.161 651.707 441.899 651.991C445.027 652.181 448.817 652.654 450.238 652.939C452.228 653.413 453.46 653.034 455.166 651.423L457.44 649.243L459.241 651.423L460.946 653.507L463.505 650.475C465.4 648.295 466.063 646.4 466.063 643.557C466.063 641.094 466.822 638.725 467.959 637.208C469.001 635.882 469.854 633.513 469.854 631.807C469.854 630.196 470.328 628.49 470.802 628.206C471.37 627.922 471.749 626.595 471.749 625.363C471.749 623.563 472.412 623.089 475.445 622.52C478.098 622.047 480.562 620.625 483.973 617.309C488.238 613.139 489.185 612.665 491.933 613.139C496.766 613.992 497.05 614.181 497.714 617.024C499.135 622.426 503.778 624.889 506.337 621.478C507.379 620.057 507.758 620.057 511.644 621.762C513.918 622.805 516.666 624.605 517.708 625.742C519.509 627.827 519.509 628.017 517.898 630.765C516.761 632.849 516.476 633.987 517.234 634.745C517.898 635.408 518.561 635.313 519.224 634.65C519.888 633.987 521.593 633.797 523.015 634.081C525.005 634.46 525.858 634.176 526.331 633.039C526.9 631.618 527.184 631.712 530.027 633.418C531.733 634.46 533.723 635.313 534.576 635.313C536.281 635.313 537.419 639.104 536.092 640.715C535.523 641.283 535.334 642.326 535.713 642.894C536.945 644.884 539.409 643.747 543.768 639.198C549.358 633.418 553.433 631.523 559.214 632.186C563.288 632.66 563.667 632.47 564.52 630.386C564.994 629.059 567.837 625.742 570.68 622.994C574.754 619.204 575.986 617.309 575.986 615.319C575.986 612.665 576.081 612.571 581.198 612.571C586.694 612.571 592.096 609.917 592.096 607.169C592.096 605.369 593.422 605.653 598.634 608.306L603.183 610.581L605.078 608.496C606.215 607.359 608.205 604.611 609.532 602.336C610.953 600.062 612.659 598.072 613.417 597.788C614.08 597.504 615.028 595.893 615.312 594.282C615.691 592.576 617.302 589.828 618.913 588.122C621.756 585.185 622.514 583.195 625.167 571.823C626.494 566.422 627.252 565.19 629.621 564.621C632.085 563.958 634.264 561.021 633.317 559.504C633.032 559.031 633.317 558.367 633.98 557.893C638.813 554.861 642.224 546.522 639.287 544.722C637.581 543.679 641.371 541.5 643.93 542.068C645.541 542.542 646.109 542.258 646.109 541.215C646.109 538.846 647.91 538.373 650.468 540.078C652.648 541.5 653.027 541.5 655.396 539.889C659.281 537.236 664.872 534.867 667.241 534.867C668.378 534.867 670.179 534.298 671.221 533.54C672.263 532.877 677.191 532.024 682.592 531.645C687.804 531.266 692.921 530.792 693.964 530.508C695.385 530.128 696.143 530.697 696.996 532.971C697.754 534.961 698.702 535.814 700.313 535.909C710.168 536.193 710.831 536.383 711.874 538.088C714.527 542.637 716.138 543.49 721.729 543.3C727.983 543.111 736.132 544.248 737.838 545.574C738.407 546.048 738.975 547.28 738.975 548.228C738.975 549.365 740.018 550.407 741.439 550.976C744.661 552.208 744.566 552.208 745.609 549.649C746.177 548.133 747.978 546.806 751.01 545.669C753.474 544.816 756.222 543.49 757.075 542.732C757.833 542.068 759.254 541.5 760.107 541.5C760.96 541.5 761.907 541.026 762.192 540.457C762.665 539.794 763.329 539.984 764.371 540.836C766.74 542.921 773.089 544.437 774.984 543.395C775.932 542.921 776.88 540.836 777.259 538.752C777.922 534.487 778.775 534.108 789.672 533.635C794.505 533.445 795.358 533.161 795.642 531.55C796.211 528.518 797.443 527.949 799.338 529.655C802.37 532.308 808.34 536.762 809.098 536.762C809.477 536.762 810.141 538.562 810.615 540.742C811.657 545.764 816.205 548.417 823.786 548.512C827.577 548.607 827.577 548.607 828.24 552.871C829.377 560.262 830.135 562.726 832.031 564.621C834.4 566.801 836.579 571.918 836.579 575.045C836.579 576.751 837.148 577.414 838.759 577.698C840.085 577.888 840.938 578.741 841.128 579.973C841.317 581.11 842.265 582.816 843.307 583.763C844.255 584.616 845.108 585.943 845.108 586.701C845.108 587.364 846.15 587.933 847.761 587.933C849.182 588.027 851.362 588.596 852.594 589.259C854.11 590.112 855.816 590.302 857.521 589.828C859.037 589.354 861.122 589.259 862.259 589.544C864.534 590.207 865.955 588.596 865.955 585.279C865.955 582.91 868.04 582.531 869.745 584.616C871.262 586.416 872.967 586.416 874.578 584.521C875.431 583.479 876.758 583.195 878.937 583.479C880.643 583.763 882.064 583.668 882.064 583.195C882.064 581.299 885.286 579.404 888.319 579.404C890.119 579.404 892.867 578.741 894.478 577.983C897.131 576.561 897.51 576.656 899.974 578.362C902.438 580.162 902.722 580.162 904.238 578.646C905.565 577.319 905.944 577.225 906.607 578.362C907.65 580.068 917.126 578.836 917.126 577.035C917.126 576.277 917.884 575.329 918.737 574.856C920.253 574.003 920.253 573.813 918.737 572.297C916.652 570.212 916.557 559.599 918.642 550.502C919.495 546.806 920.443 539.794 920.822 534.772C921.485 525.485 923.285 520.652 926.034 520.652C926.792 520.652 927.55 519.989 927.929 519.231C928.213 518.378 929.919 516.862 931.814 515.82C933.709 514.682 935.131 513.071 935.131 512.029C935.131 510.892 937.784 508.428 942.522 505.112C949.724 500.089 950.008 499.71 951.524 494.214C953.419 487.486 953.514 485.022 952.093 484.075C950.482 483.127 951.809 478.389 954.651 475.641C956.831 473.461 957.115 472.609 956.641 468.723C956.452 466.26 956.073 463.796 955.978 463.322C955.883 462.753 955.788 460.574 955.883 458.394C955.978 454.793 956.357 454.035 959.768 451.856L963.559 449.297V442.948C963.559 437.831 963.938 436.315 965.454 434.894C966.496 433.946 968.771 430.061 970.571 426.27C973.888 419.448 973.983 419.353 977.015 419.827C981.09 420.49 984.406 418.31 982.606 416.131C981.753 414.994 981.658 414.141 982.416 412.72C982.985 411.677 983.459 409.119 983.459 407.034C983.459 404.949 983.932 402.106 984.406 400.685C986.491 395.378 982.795 392.251 977.868 395.189C975.214 396.705 974.835 396.705 970.95 395.284C968.392 394.241 965.644 393.862 963.843 394.241C961.19 394.715 960.716 394.431 957.589 389.598C953.704 383.817 951.145 382.586 944.701 383.723C942.806 384.007 938.258 383.817 934.752 383.249C929.634 382.301 928.592 381.827 929.445 380.785C930.108 380.122 930.393 378.606 930.203 377.374C929.919 375.478 929.255 375.099 923.949 374.626C919.874 374.247 917.41 373.488 915.894 372.067C914.757 371.025 910.493 369.129 906.323 367.803C901.775 366.381 898.458 364.77 897.889 363.728C897.321 362.686 896.752 359.18 896.658 355.768C896.468 350.462 896.184 349.514 894.004 347.903C892.678 346.955 891.54 345.723 891.54 345.25C891.54 344.776 889.93 341.838 888.034 338.711C884.339 332.836 880.832 330.467 877.421 331.604C876 331.983 875.052 331.415 873.346 329.046C871.83 326.866 870.598 326.013 869.082 326.203C867.661 326.392 866.618 325.634 865.386 323.644C863.491 320.422 861.88 320.422 857.332 323.644C855.342 324.971 854.963 325.918 855.342 327.908C855.721 330.088 855.531 330.372 854.205 329.898C853.257 329.519 852.309 329.235 852.12 329.235C851.93 329.235 851.741 328.287 851.741 327.056C851.741 325.824 850.509 323.644 848.993 322.223C847.477 320.707 845.96 318.527 845.676 317.295C845.202 315.495 844.444 315.021 841.886 315.021C836.2 315.021 832.694 313.884 829.851 311.041C827.293 308.388 826.819 308.293 824.355 309.335C822.839 309.904 820.849 310.283 819.901 310.188C818.859 309.999 815.637 310.662 812.605 311.61C809.667 312.652 806.919 313.126 806.635 312.841C806.35 312.557 804.645 312.936 802.939 313.694C798.39 315.589 794.6 315.4 791.757 313.126C790.43 312.083 788.44 311.23 787.209 311.23C786.071 311.23 784.176 310.472 783.134 309.525C780.765 307.44 770.815 305.071 769.109 306.208C768.446 306.587 766.361 307.44 764.561 307.914C761.623 308.767 761.244 309.335 760.96 312.462C760.77 314.926 760.012 316.442 758.401 317.485C755.464 319.38 753.284 318.622 748.451 313.979C744.945 310.567 744.377 310.283 742.955 311.515C742.102 312.273 739.354 313.22 736.89 313.505C732.721 314.168 732.342 314.358 732.342 316.821C732.342 319.38 736.227 324.497 738.122 324.497C738.596 324.497 738.975 325.16 738.975 325.918C738.975 326.961 737.933 327.34 735.374 327.34C732.721 327.34 731.015 328.098 728.741 330.088C727.13 331.699 725.709 333.405 725.709 334.068C725.709 334.636 724.666 336.153 723.34 337.385C722.013 338.616 720.971 340.322 720.971 341.27C720.971 342.596 719.739 343.354 716.517 344.207C712.347 345.344 712.063 345.344 709.505 342.881C707.704 341.175 706.377 340.606 704.956 341.08C702.871 341.744 702.492 340.985 703.819 338.806C704.387 337.858 704.008 336.532 702.682 334.731C700.692 332.078 700.692 332.078 698.797 333.878C696.996 335.489 696.428 335.584 693.3 334.636C690.931 333.878 689.7 332.931 689.7 331.794C689.7 330.846 689.036 329.898 688.278 329.614C687.52 329.235 686.857 328.193 686.857 327.15C686.857 325.729 686.383 325.445 685.246 325.824C683.54 326.487 682.119 324.971 682.119 322.318C682.119 321.37 680.981 319.096 679.655 317.295C676.717 313.505 672.643 313.031 668.852 315.969C665.82 318.338 664.967 318.338 661.84 315.874L659.376 313.979V316.158C659.376 317.579 657.86 319.854 655.586 322.128C651.89 325.824 651.795 325.824 648.289 324.592C646.299 323.928 643.646 322.318 642.319 321.18C639.287 318.432 636.065 316.821 632.085 315.874C629.431 315.305 628.768 315.495 627.536 317.295C626.778 318.527 625.072 319.948 623.651 320.612C621.472 321.654 620.903 321.559 619.861 320.138C618.913 318.811 617.586 318.527 614.08 318.717C611.616 318.811 609.532 319.096 609.342 319.19C609.247 319.38 609.532 320.612 610.1 322.033C610.764 323.834 610.764 325.918 610.005 328.856L608.963 333.026L604.036 332.931C601.382 332.836 598.16 332.552 596.834 332.173C592.948 330.941 587.831 334.542 583.946 341.175C583.093 342.691 582.62 342.786 581.388 341.744C580.061 340.606 579.682 341.08 578.45 345.439C577.597 348.187 576.934 350.935 576.934 351.504C576.934 352.167 576.081 353.778 575.039 355.105C573.996 356.431 572.67 359.748 572.101 362.591C569.448 375.763 568.784 376.995 566.605 374.436C566.036 373.678 563.952 372.636 561.867 372.067C559.308 371.214 557.982 370.267 557.603 368.656C556.939 366.097 548.979 359.559 546.421 359.559C543.483 359.559 541.304 361.17 540.072 364.107C539.409 365.623 537.798 367.329 536.566 367.992C531.07 370.456 516.287 367.992 516.287 364.676C516.287 362.117 521.972 351.978 524.247 350.556C526.805 348.851 526.616 345.818 523.773 344.302C522.446 343.639 522.162 342.975 522.825 341.838C524.057 339.564 523.015 324.592 521.214 320.043C520.267 317.769 518.94 315.969 518.277 315.969C517.519 315.969 515.244 317.106 513.16 318.527C510.885 320.138 509.275 320.707 508.895 320.043C507.948 318.622 503.968 316.727 500.651 315.969C497.903 315.4 497.808 315.21 497.335 309.335L496.861 303.176L493.355 303.46C489.185 303.839 485.016 301.47 485.016 298.533C485.016 297.49 484.352 295.69 483.594 294.742C482.836 293.7 482.173 291.71 482.173 290.194C482.173 288.488 481.51 287.256 480.183 286.498C478.382 285.55 478.193 284.887 478.761 280.054C479.33 275.221 479.14 274.463 477.245 272.663C476.013 271.62 474.118 270.199 472.981 269.63C471.654 268.967 470.802 267.64 470.802 266.314C470.802 262.523 466.158 261.67 463.884 264.987Z" fill="black"/>
<circle cx="58" cy="629" fill="#5CE50D"/>
<circle cx="766" cy="487" fill="#E52A0D"/>
<circle cx="341" cy="374" fill="#E52A0D"/>
<circle cx="431" cy="611" fill="#E52A0D"/>
</svg>
