<svg width="1000" height="1000" viewBox="0 0 1000 1000" fill="none" xmlns="http://www.w3.org/2000/svg">
<rect width="1000" height="1000" />
<path d="M466.522 16.6949C464.063 17.1678 463.496 18.0189 461.51 24.3551C460.28 28.2324 459.524 32.5826 459.713 33.9066C460.186 36.3654 460.186 36.3654 427.465 46.1061C390.772 57.1708 395.878 56.6033 378.478 51.3074C369.115 48.4704 364.86 45.917 363.536 42.3233C362.968 40.8102 361.644 39.3917 360.509 39.108C358.618 38.6351 336.016 44.2147 318.52 49.416C314.17 50.74 309.253 51.7803 307.456 51.7803C302.633 51.7803 293.743 55.4685 290.055 58.9676C288.164 60.7644 285.988 62.183 285.043 62.183C284.192 62.183 281.733 62.8449 279.558 63.7906C275.775 65.3038 275.68 65.3983 276.153 68.8974C276.721 73.4368 273.694 83.7448 268.966 93.1072C264.427 102.091 260.644 106.252 256.388 107.009C253.646 107.576 253.173 107.955 253.646 109.562C254.024 110.697 254.024 112.967 253.74 114.669C253.267 117.223 252.416 118.074 249.295 119.303C245.513 120.816 245.418 121.005 246.08 124.221C246.364 126.112 246.364 129.895 246.08 132.637C245.418 137.555 245.418 137.65 241.446 138.406C237.947 139.163 237.285 139.825 235.015 144.269C233.219 147.863 232.651 150.133 233.029 152.402C233.502 155.334 233.219 155.712 229.909 157.32C225.748 159.306 224.896 161.859 226.693 166.304C227.733 168.574 227.639 169.425 226.504 170.749C222.721 175.005 218.371 184.84 217.898 190.041C217.236 196.566 216.858 197.418 213.926 197.418C212.413 197.418 211.467 198.08 210.995 199.498C209.671 203.943 207.874 204.983 201.632 204.983C196.431 204.983 195.674 205.267 194.54 207.253C193.594 209.05 193.594 210.468 194.54 214.346C195.107 216.899 195.391 219.452 195.107 219.925C194.823 220.493 193.026 221.155 191.23 221.438C188.298 222.006 187.92 222.479 187.92 224.843C187.92 226.64 187.258 228.058 186.028 228.815C184.799 229.571 184.326 230.612 184.704 231.936C185.083 233.543 184.326 234.3 180.449 236.097C176.193 238.177 174.964 238.272 166.831 237.704L157.846 237.042L153.496 240.825C148.484 245.175 148.484 245.175 144.796 243.284C141.58 241.582 139.311 241.487 136.757 242.811C135.339 243.568 134.961 244.797 134.961 248.201C134.961 251.701 134.393 253.214 132.407 255.294L129.854 257.942L131.556 265.981C132.407 270.425 132.975 274.397 132.596 274.87C132.313 275.343 130.894 276.005 129.381 276.383C126.355 277.045 123.423 281.585 121.721 288.394C120.87 291.609 119.546 293.784 117.087 295.865C111.696 300.404 102.239 306.173 100.159 306.173C99.0241 306.173 96.6599 308.064 94.3902 310.807C90.8911 314.968 90.1346 315.441 85.2169 316.008C78.9753 316.765 74.8143 314.779 71.7881 309.483C69.613 305.889 66.2084 303.808 60.818 302.863C57.7917 302.295 56.9406 302.484 54.7655 304.565C53.2524 305.889 47.8619 308.442 41.8095 310.428C36.1353 312.414 30.272 314.589 28.8534 315.346C25.1652 317.143 24.6923 320.358 27.1512 326.505C28.948 330.855 29.0426 332.179 28.1914 334.638C27.0566 337.948 26.7729 344.852 27.7186 347.216C28.6643 349.675 32.7308 349.013 35.757 345.987C37.9321 343.717 38.4995 342.393 38.4995 338.894C38.4995 336.624 38.9724 334.354 39.5398 333.976C40.3909 333.503 40.4855 335.016 40.0126 339.556C39.2561 346.554 40.1072 347.878 43.89 345.419C45.4977 344.284 47.2945 344.001 49.7533 344.379C51.6447 344.663 53.7252 345.041 54.3872 345.135C56.2786 345.325 55.7112 346.838 53.347 347.689C51.7393 348.351 51.0773 348.162 50.4153 346.743C49.375 344.568 48.0511 344.473 47.3891 346.365C46.5379 348.445 56.0895 356.862 61.8582 359.037C67.4378 361.212 68.951 360.929 73.0175 357.24C75.098 355.349 77.6514 354.403 82.9473 353.458C91.6477 352.039 92.4042 351.755 92.4042 350.053C92.4042 349.296 93.0662 348.729 93.8228 348.729C95.6196 348.729 95.6196 349.58 93.7282 351.661C92.4042 353.174 92.4042 353.363 94.2011 354.403C97.1327 355.916 107.346 354.592 110.845 352.228C112.453 351.188 115.101 349.013 116.803 347.405C119.546 344.852 119.829 344.757 119.829 346.554C119.829 347.878 117.843 349.769 113.304 352.796L106.684 357.146L97.4164 356.295C92.3097 355.822 87.4866 355.254 86.6355 355.16C84.8387 354.876 70.6532 368.021 70.6532 369.913C70.6532 371.615 74.1523 375.965 76.5165 377.195C78.1242 378.046 83.5147 378.613 96.6599 379.181C98.2676 379.275 102.807 378.802 106.968 378.14C114.817 376.911 120.491 377.384 124.842 379.653C129.192 381.828 127.206 381.923 120.964 379.843L115.101 377.857L103.374 379.843C96.9436 380.977 90.4183 381.923 88.9052 381.923C82.6636 382.112 63.7496 379.843 60.6288 378.519C58.7374 377.762 56.6569 377.1 55.9949 377.1C54.009 377.1 41.6203 387.408 40.9583 389.583C39.4452 395.352 41.5258 411.24 44.7411 417.954C45.6868 420.035 46.0651 422.021 45.5922 423.155C44.9303 424.763 44.8357 424.763 44.1737 422.966C43.6063 421.359 43.4171 421.548 42.7552 424.385C42.3769 426.182 41.9986 430.248 41.9986 433.369C41.9986 439.611 44.6466 446.23 47.9565 448.027C50.699 449.54 53.2524 455.025 55.1438 463.915C56.6569 471.008 57.2243 472.237 61.5745 476.966C67.3433 483.302 71.3152 484.626 77.8405 482.356C81.0559 481.316 83.0418 479.614 86.1626 475.547C92.1205 467.887 92.5934 467.509 96.5653 468.833C101.105 470.346 102.05 471.67 100.443 474.507C99.6861 475.831 98.4567 478.29 97.6056 479.992C96.6599 481.978 93.7282 484.72 89.2834 487.557C75.1926 496.92 73.4903 498.338 73.4903 501.081C73.4903 502.499 73.8686 504.769 74.436 506.093C74.9089 507.417 75.0034 508.552 74.7197 508.552C74.3414 508.552 71.3152 505.715 67.9107 502.31C59.494 493.894 53.7252 491.529 41.3366 491.529C34.3385 491.529 31.5014 491.151 28.7588 489.732C26.8675 488.787 25.2598 488.125 25.2598 488.314C25.2598 488.598 26.1109 490.489 27.2457 492.57C28.948 495.974 29.0426 497.393 28.4751 505.147C28.0023 512.051 28.1914 514.415 29.3263 516.685C31.6905 521.319 38.2158 528.033 45.1194 533.14C52.2121 538.247 55.9949 543.164 56.9406 548.555C57.3189 550.541 58.9266 553.283 61.0071 555.269C67.0596 561.322 69.8967 573.616 67.8161 584.68C67.1541 588.085 66.8704 591.206 67.2487 591.489C67.5324 591.773 70.2749 590.355 73.2066 588.274C76.2328 586.194 81.3396 583.167 84.4604 581.56C87.6758 579.952 91.0803 577.493 92.026 576.169C93.0662 574.845 95.525 573.143 97.6056 572.386C101.956 570.873 110.183 570.59 113.493 571.819C115.196 572.481 116.33 572.386 117.56 571.441C118.6 570.684 119.64 570.022 120.113 570.022C121.059 570.022 120.964 574.183 119.829 577.02C119.073 579.101 119.829 580.519 127.111 590.071C131.556 595.934 136.663 602.27 138.365 604.162C139.973 606.053 141.675 608.607 142.053 609.836C143.188 613.524 145.458 615.416 149.335 615.983C153.685 616.74 153.875 617.591 149.903 618.726C147.349 619.482 146.687 620.333 145.931 623.359C144.796 628.277 146.782 639.436 149.619 644.354C150.848 646.529 151.699 648.515 151.321 648.799C151.037 649.082 151.132 651.352 151.416 653.716L152.078 657.972L160.778 662.133C165.601 664.497 171.181 667.429 173.261 668.847L177.044 671.212L173.261 670.644C171.181 670.361 168.344 669.32 167.02 668.375C165.601 667.429 161.818 665.443 158.603 664.119C151.51 661.093 148.2 661.471 142.999 665.538C141.013 667.145 137.325 669.131 134.866 669.982C130.989 671.401 130.327 671.968 130.8 673.576C131.745 676.413 139.5 684.735 142.904 686.532C145.742 688.045 150.375 692.679 157.846 701.663C160.778 705.257 162.48 706.297 169.479 708.661C178.557 711.688 177.895 711.877 181.489 705.351C183.475 701.758 188.582 700.245 194.067 701.474C196.147 701.947 199.173 702.42 200.687 702.42C204.091 702.42 206.361 703.744 205.51 705.162C205.037 705.919 203.996 705.824 202.105 704.784C198.039 702.703 188.676 702.893 186.596 705.162C184.704 707.243 182.907 717.173 184.042 719.348C185.272 721.617 188.96 724.644 192.364 726.44C193.972 727.292 196.242 729.561 197.377 731.547C198.984 734.479 200.403 735.519 204.375 736.843C207.779 738.073 210.616 738.356 213.075 737.978C215.25 737.6 218.087 737.789 219.6 738.356C226.693 741.099 238.893 744.22 242.865 744.314C246.931 744.409 247.688 743.936 255.537 737.316C260.076 733.439 265.75 728.899 268.115 727.102C271.992 724.265 275.207 720.955 278.234 716.889C278.896 715.943 280.125 715.754 281.827 716.132C284.854 716.889 285.232 718.497 282.489 718.497C281.071 718.497 280.031 719.726 278.801 722.658C277.666 725.116 276.248 726.913 275.018 727.292C273.032 727.764 270.763 731.925 269.722 736.749C269.439 738.451 268.115 740.058 266.223 741.004C261.117 743.841 257.901 746.962 257.901 749.232C257.901 751.596 261.684 755.757 265.75 757.932C268.682 759.445 268.304 759.54 275.018 754.338C276.815 753.015 279.936 750.839 282.016 749.61L285.799 747.435L284.286 749.705C283.435 751.029 280.882 753.487 278.612 755.284C276.342 756.986 274.356 759.067 274.167 759.824C273.978 760.486 275.302 762.85 277.193 764.836C279.085 766.916 280.598 769.091 280.598 769.659C280.598 770.226 281.449 773.631 282.584 777.224C284.948 785.074 287.123 786.587 295.445 786.587C298.377 786.587 302.727 787.249 304.997 788.194C308.212 789.424 309.915 789.518 313.224 788.762C316.534 788.005 317.196 788.1 316.818 789.14C315.967 791.221 311.239 793.207 306.983 793.207C302.538 793.207 292.23 794.909 290.055 796.044C289.298 796.422 287.123 799.543 285.232 803.042C283.34 806.541 280.692 810.513 279.274 811.931C276.248 815.147 276.248 817.133 278.99 822.05C281.071 825.739 281.26 825.833 286.65 826.117C289.771 826.306 293.459 825.928 294.973 825.266C297.242 824.32 297.999 824.415 299.606 825.928C301.403 827.535 301.403 827.725 299.89 828.197C298.093 828.859 300.552 830.467 313.603 837.276C322.587 841.91 320.695 842.667 311.049 838.222C303.106 834.534 295.162 832.926 284.948 832.926C279.463 832.926 277.761 833.304 274.356 835.479C272.087 836.992 270.195 838.411 270.195 838.789C270.195 839.64 273.127 840.491 293.838 845.315C311.333 849.476 339.893 859.5 375.168 873.875C385.287 877.941 394.744 881.44 396.068 881.44C397.486 881.535 399.472 882.386 400.512 883.332C401.458 884.277 407.794 887.114 414.509 889.762C421.223 892.41 428.694 895.436 431.247 896.382C433.706 897.328 436.449 898.179 437.394 898.179C438.34 898.179 441.272 899.219 443.825 900.543C446.379 901.867 452.526 904.704 457.443 906.785C462.361 908.96 469.454 912.648 473.047 915.107C476.735 917.566 489.692 924.469 501.891 930.333C514.469 936.48 525.25 942.248 526.668 943.762C528.087 945.18 529.884 946.41 530.829 946.41C531.68 946.41 533.856 947.639 535.652 949.247C537.355 950.76 539.435 952.084 540.097 952.084C540.759 952.084 542.083 953.881 542.934 956.056C543.88 958.609 546.055 961.446 548.798 963.621L553.148 967.215L557.12 964.378C559.2 962.865 562.51 961.257 564.307 960.973L567.617 960.311L565.347 962.77C564.118 964.189 562.132 966.837 560.997 968.823L558.822 972.322L563.74 974.402C566.388 975.537 572.156 977.996 576.506 979.887C587.193 984.521 591.543 985.089 595.988 982.346C599.014 980.455 599.865 980.36 603.553 981.306C609.322 982.724 609.606 982.724 610.741 979.887C611.403 977.901 611.308 976.956 609.984 975.537C608.471 973.835 608.566 973.74 610.457 972.322C611.592 971.565 612.538 970.525 612.538 970.147C612.538 969.295 617.171 964 623.318 957.758C626.156 954.921 626.628 953.597 626.818 949.719C626.912 947.072 626.723 943.572 626.25 941.87L625.494 938.655L630.506 938.939C635.045 939.222 635.613 939.033 636.369 936.858C637.599 933.832 636.464 923.24 634.667 919.741L633.154 916.904L637.126 917.566L641.098 918.228L639.49 915.391C637.882 912.837 637.882 912.459 639.395 910.378C640.246 909.149 640.908 906.69 641.003 904.799C641.098 900.827 642.989 895.153 644.502 894.585C645.07 894.396 645.826 895.815 646.204 897.612C646.488 899.503 647.055 901.016 647.434 901.016C647.812 901.016 649.231 898.652 650.649 895.815C652.919 891.086 653.486 890.613 656.985 890.046C659.633 889.573 661.43 888.627 662.376 887.209C663.227 885.885 665.402 884.561 667.766 883.994C676.845 881.629 681.668 879.076 684.978 874.726C686.775 872.361 688.193 870.092 688.193 869.619C688.193 869.052 690.085 866.498 692.449 863.85C694.813 861.108 696.705 857.987 696.705 856.852C696.705 854.866 700.109 851.462 703.135 850.421C704.081 850.232 705.783 848.152 707.013 845.882C708.62 842.95 710.701 840.964 714.105 839.073C716.753 837.654 721.482 833.966 724.603 830.94C727.723 827.914 732.263 824.604 734.722 823.469C737.18 822.429 739.45 820.726 739.734 819.592C740.112 818.551 744.841 814.39 750.326 810.229C758.553 804.082 760.728 802.853 762.809 803.231C764.795 803.609 766.308 803.042 769.618 800.394C771.887 798.503 777.656 794.436 782.29 791.221C792.598 784.223 794.584 782.426 797.232 777.886C798.651 775.238 799.596 774.387 800.92 774.86C801.866 775.144 803.852 774.576 805.46 773.631C807.54 772.401 808.297 771.266 808.297 769.281C808.297 763.606 810.566 758.878 815.579 753.866C818.321 751.123 821.537 748.759 822.671 748.57C824.279 748.381 825.887 746.111 829.102 740.058C833.358 732.02 836.668 728.521 842.342 726.062C843.666 725.495 845.557 724.171 846.692 723.131C847.827 722.09 851.326 720.766 854.447 720.199C864.093 718.402 863.526 721.05 864.093 673.103L864.566 632.06L870.524 630.263C874.874 628.939 876.387 628.088 876.387 626.764C876.387 625.818 877.995 622.981 879.981 620.428C881.967 617.969 885.371 612.579 887.546 608.607C891.613 601.419 891.613 601.325 897.76 599.339C903.339 597.447 905.042 597.353 915.539 597.92C926.793 598.582 927.36 598.488 930.197 596.407C933.034 594.327 933.223 594.327 936.628 595.934C939.37 597.258 940.222 597.353 940.6 596.407C941.262 594.421 948.355 587.139 952.988 583.735C958.757 579.574 959.514 576.831 956.488 571.63C954.974 568.982 954.029 565.483 953.65 561.227C953.083 555.458 953.272 554.229 955.353 550.352C956.677 547.893 957.717 544.961 957.717 543.921C957.717 542.786 958.568 540.044 959.608 537.774C960.649 535.504 961.5 532.194 961.5 530.492C961.5 528.79 962.635 525.669 964.053 523.399C966.323 519.806 966.606 518.387 966.985 507.417L967.458 495.501L971.051 493.799C973.132 492.948 974.739 491.908 974.739 491.529C974.739 490.3 962.445 485.666 956.298 484.437C951.286 483.491 950.151 483.585 946.558 485.099C944.288 486.044 940.978 486.801 939.181 486.801C933.507 486.801 929.724 490.3 924.996 499.946C920.362 509.403 920.173 509.687 908.352 519.144C903.812 522.832 898.233 528.222 895.963 531.249C890.194 539.003 881.588 546.001 876.671 546.758C872.793 547.42 872.699 547.42 870.24 543.164L867.687 538.814H859.837C852.366 538.814 851.893 538.72 850.002 536.261L848.111 533.613L844.422 541.651C839.221 552.716 833.831 558.296 833.831 552.527C833.831 551.297 833.358 549.217 832.79 547.987C831.939 546.096 832.223 544.961 834.682 540.989C836.479 538.152 837.613 534.937 837.613 533.045C837.613 528.411 839.599 526.142 846.503 522.926L852.555 520.089V515.266C852.555 509.592 855.203 498.055 857.568 493.232C858.608 491.246 859.364 488.219 859.364 486.517C859.364 484.342 860.31 482.072 862.296 479.614C867.497 473.183 873.55 463.348 873.55 461.362C873.55 459.943 874.117 459.376 875.725 459.376C876.86 459.376 879.413 458.335 881.305 457.011C883.669 455.404 886.128 454.647 888.87 454.647C892.464 454.647 893.693 453.985 899.084 449.351C905.987 443.488 906.46 442.637 906.555 436.679C906.649 430.532 905.325 426.56 902.11 423.912C898.895 421.264 896.814 414.644 898.233 411.996C899.462 409.537 899.367 409.254 896.625 409.254C894.544 409.254 893.693 408.213 890.005 400.364C886.506 392.893 885.466 391.475 883.196 391.002C880.643 390.434 880.548 390.34 878.94 378.424C877.995 371.331 876.292 363.671 874.779 359.699C872.604 353.836 872.226 351.282 871.848 340.029C871.564 327.64 871.658 326.883 874.023 322.25L876.482 317.521L867.687 311.847C860.405 307.118 858.23 306.173 854.825 306.173C852.65 306.173 849.813 305.511 848.678 304.754C846.976 303.619 845.084 303.525 838.086 304.281C826.454 305.511 825.508 305.511 824.941 303.525C824.657 302.674 825.698 297.189 827.211 291.514C830.615 279.126 830.71 276.856 828.156 276.194C827.116 275.91 826.265 275.154 826.265 274.492C826.265 272.317 829.102 270.898 833.641 270.709C837.046 270.615 839.127 269.858 842.626 267.399C847.922 263.616 848.205 261.82 844.517 255.105L841.869 250.377L844.044 246.688C847.165 241.109 846.787 237.893 842.626 233.259C840.64 231.084 837.424 228.247 835.438 227.018C833.547 225.788 830.426 222.668 828.535 220.114C826.643 217.466 824.563 215.386 823.806 215.386C823.144 215.386 821.915 214.062 821.064 212.549C819.361 209.144 818.983 209.144 816.241 211.698C814.255 213.589 813.971 213.589 811.228 212.076C809.621 211.319 806.5 210.563 804.23 210.468H800.258L800.542 205.456L800.92 200.538L794.868 196.188C785.316 189.095 783.141 187.015 785.6 187.015C786.167 187.015 787.586 186.353 788.815 185.596C790.896 184.272 790.991 183.8 789.95 181.246C789.005 178.693 789.194 177.747 791.558 173.586C793.071 170.938 794.111 168.763 793.922 168.574C793.733 168.479 790.896 166.966 787.491 165.264C784.087 163.562 781.155 162.049 780.966 161.859C780.777 161.67 781.155 160.252 781.817 158.739C782.858 156.091 782.668 155.618 779.548 151.457C777.656 148.998 776.143 146.445 776.143 145.783C776.143 145.026 774.535 143.418 772.549 142.189C769.24 140.108 768.767 139.257 767.726 133.867C767.064 130.651 766.308 127.341 766.119 126.679C765.93 125.923 763.754 125.545 759.688 125.545C754.298 125.545 753.541 125.261 752.122 123.18C751.271 121.951 750.609 119.019 750.609 116.75C750.609 112.683 746.543 99.1597 743.706 93.8638C742.855 92.2561 739.45 88.5679 736.046 85.5417C732.641 82.5154 729.804 79.4892 729.804 78.8272C729.804 77.0304 718.739 66.7223 713.633 63.7906C711.268 62.3721 707.202 60.9536 704.648 60.6698C699.731 60.0079 695.948 58.4002 693.584 56.1305C692.733 55.1848 691.976 51.5912 691.503 45.917C690.463 32.6772 685.545 24.3551 678.642 24.3551C675.332 24.3551 675.143 24.1659 674.575 20.7614L674.008 17.0732L636.464 16.5058C590.408 15.7492 470.305 15.8438 466.522 16.6949Z" fill="black"/>
<path d="M262.819 736.742C260.644 739.012 260.076 742.133 261.684 742.133C263.954 742.133 267.358 738.917 267.358 736.837C267.358 734 265.467 733.905 262.819 736.742Z" fill="black"/>
<path d="M102.807 754.91C101.01 756.706 98.835 758.219 97.8893 758.219C94.1065 758.219 97.7002 762.381 102.145 763.137C105.077 763.705 105.266 763.232 103.28 760.678C101.388 758.125 101.483 757.558 104.036 756.706C106.779 755.95 109.521 753.491 108.859 752.451C107.914 750.843 106.022 751.6 102.807 754.91Z" fill="black"/>
<path d="M256.01 753.869C256.01 754.153 256.955 756.328 258.09 758.692C260.265 763.042 261.4 763.704 264.521 762.002C266.696 760.867 266.034 758.219 263.575 758.219C262.63 758.219 260.549 757.084 258.941 755.76C257.334 754.436 256.01 753.585 256.01 753.869Z" fill="black"/>
<path d="M212.98 758.403C211.467 758.97 209.292 760.105 208.252 761.051C205.415 763.415 202.956 764.077 201.348 762.753C199.362 761.051 180.827 760.483 178.935 761.997C177.611 763.037 177.611 763.415 179.03 764.928C181.205 767.292 179.976 768.427 177.611 766.347C176.287 765.117 175.625 765.023 175.058 765.874C174.585 766.725 174.112 766.536 173.167 765.306C172.126 763.983 171.275 763.793 168.344 764.455C166.358 764.834 162.197 765.117 158.981 764.928C154.726 764.739 153.023 765.023 152.078 766.158C151.321 767.009 150.186 767.671 149.524 767.671C148.768 767.671 146.687 768.616 144.89 769.751C141.297 772.116 140.445 775.236 143.377 775.236C144.323 775.236 145.458 775.898 145.741 776.749C146.593 778.83 146.498 779.208 145.269 778.546C144.701 778.168 141.58 777.695 138.27 777.506C133.92 777.317 131.934 777.601 131.178 778.546C129.665 780.343 130.894 782.329 132.596 780.91C134.109 779.587 141.391 781.572 146.309 784.599C148.389 785.828 151.226 786.585 153.969 786.585C156.711 786.585 158.792 787.152 159.549 788.003C160.4 789.043 162.859 789.422 169.573 789.422C177.99 789.422 178.557 789.516 181.583 792.259C184.042 794.434 185.744 795.096 188.676 795.096C190.851 795.096 192.932 795.663 193.594 796.514C194.445 797.555 195.769 797.744 198.417 797.366C203.24 796.609 206.171 797.46 209.86 800.676C213.548 803.796 218.087 805.499 222.91 805.499C225.085 805.499 227.45 806.35 229.53 807.863C231.327 809.187 233.407 810.227 234.353 810.227C235.204 810.227 236.434 810.889 237.096 811.646C237.758 812.402 239.271 813.064 240.595 813.064C242.202 813.064 244.567 814.766 248.066 818.455C253.645 824.318 253.645 824.223 252.038 834.248C251.565 836.99 254.118 838.031 258.563 836.801C263.197 835.572 263.575 834.626 263.575 822.805V814.104L268.304 808.241C272.465 803.04 273.032 801.81 273.032 797.933C273.032 794.434 272.559 793.11 270.668 791.313C268.02 788.854 267.358 785.072 269.722 786.017C271.425 786.679 273.032 783.842 273.032 780.154C273.032 777.506 271.708 775.804 267.831 773.723C266.791 773.156 263.859 771.548 261.4 770.224C256.199 767.292 254.402 767.103 249.863 769.089C245.796 770.697 244.85 772.872 247.026 775.236C249.011 777.411 248.444 778.546 245.796 777.695C242.108 776.466 241.73 769.468 245.229 767.671C251.092 764.455 249.673 761.335 241.068 758.781C236.055 757.363 227.166 757.646 226.126 759.254C225.274 760.673 221.019 760.2 220.451 758.687C219.789 757.079 217.142 756.984 212.98 758.403Z" fill="black"/>
<path d="M270.195 766.252C270.195 767.576 276.531 771.453 278.707 771.453C280.787 771.453 279.463 768.994 276.248 766.914C272.37 764.455 270.195 764.266 270.195 766.252Z" fill="black"/>
<path d="M120.775 774.286C120.775 774.759 121.248 775.421 121.721 775.705C122.288 775.989 122.667 776.651 122.667 777.218C122.667 778.637 120.87 778.164 118.979 776.272C117.276 774.57 116.047 774.57 116.047 776.272C116.047 777.407 122.288 780.906 124.369 780.906C125.598 780.906 126.45 780.055 126.828 778.447C127.206 777.029 127.395 775.894 127.206 775.705C125.977 774.759 120.775 773.624 120.775 774.286Z" fill="black"/>
<path d="M273.979 791.317C273.979 792.263 274.83 793.587 275.87 794.154C278.045 795.289 278.423 794.249 276.816 791.222C275.492 788.858 273.979 788.953 273.979 791.317Z" fill="black"/>
<path d="M280.315 791.223C279.653 793.966 282.868 796.708 284.854 795.1C285.611 794.438 286.273 792.925 286.273 791.696C286.273 789.804 285.8 789.426 283.53 789.426C281.639 789.426 280.693 789.994 280.315 791.223Z" fill="black"/>
<circle cx="55" cy="500" fill="#5CE50D"/>
<circle cx="644" cy="823" fill="#E52A0D"/>
<circle cx="248" cy="727" fill="#E52A0D"/>
<circle cx="381" cy="308" fill="#E52A0D"/>
</svg>
