<svg width="1000" height="1000" viewBox="0 0 1000 1000" fill="none" xmlns="http://www.w3.org/2000/svg">
<g clip-path="url(#clip0_1_3406)">
<rect width="1000" height="1000" />
<path d="M832.625 1.21478C830.867 1.99603 828.426 2.67963 827.254 2.67963C824.324 2.67963 820.027 7.36713 819.246 11.4687C818.855 13.3242 817.683 15.9609 816.707 17.3281C814.851 19.9648 813.484 20.746 801.765 26.2148C798.054 27.9726 794.734 29.7304 794.441 30.121C793.172 31.8788 784.773 34.2226 780.086 34.0273C776.668 33.9296 773.347 34.5156 770.418 35.8828C766.804 37.4453 763.777 37.8359 756.258 37.8359C747.078 37.8359 746.492 37.9335 745.515 40.082C744.148 43.1093 737.117 46.6249 732.429 46.6249C730.281 46.6249 725.886 47.6992 722.664 49.0663C719.441 50.3359 715.242 51.5078 713.386 51.5078C711.531 51.5078 708.406 51.8984 706.551 52.4843C704.011 53.1679 701.668 53.0703 697.469 51.996C694.344 51.2148 690.144 50.5312 688.191 50.5312C685.945 50.5312 683.894 49.7499 682.429 48.4804C680.574 46.6249 679.988 46.5273 678.719 47.6015C677.84 48.2851 675.984 48.9687 674.519 49.164C668.367 49.7499 660.457 51.5078 657.918 52.8749C656.453 53.6562 653.816 55.0234 652.156 55.9023C650.398 56.6835 648.933 57.7578 648.933 58.1484C648.933 59.6132 636.336 62.3476 626.961 62.7382C621.59 63.0312 615.34 63.5195 612.996 63.8124C609.285 64.3007 608.211 64.0078 604.5 61.371C599.519 57.7578 596.297 57.5624 587.508 60.2968C579.597 62.8359 567.195 68.6953 566.219 70.4531C565.828 71.2343 563.875 72.5038 562.019 73.3828C556.16 76.2148 552.547 78.3632 549.226 81.2929C543.953 85.6874 530.965 91.3515 522.469 93.0117C512.019 94.9648 511.531 94.9648 509.871 91.6445C507.918 87.9335 503.914 86.664 495.906 87.3476C489.265 87.8359 486.238 87.1523 475.301 82.6601C472.273 81.3906 471.687 81.4882 466.316 84.5156C463.191 86.1757 459.773 87.6406 458.699 87.6406C457.722 87.6406 455.867 88.8124 454.5 90.1796C450.008 94.9648 446.101 96.7226 441.121 96.1367C436.726 95.6484 436.433 95.8437 431.16 100.629C425.984 105.414 417.683 110.102 414.461 110.102C413.582 110.102 412.215 111.078 411.433 112.25C410.066 114.301 409.383 114.398 400.789 114.203C394.734 114.008 390.242 114.398 387.703 115.277C384.676 116.352 382.234 116.449 376.961 115.766C373.25 115.277 368.269 114.594 365.926 114.398C362.605 114.008 360.554 112.836 356.355 109.027C353.426 106.391 350.594 104.242 350.008 104.242C349.422 104.242 346.883 102.582 344.344 100.531C341.902 98.4804 338.191 95.8437 336.238 94.5742C330.769 91.3515 314.851 73.2851 310.554 65.7656C308.504 62.1523 306.258 58.9296 305.574 58.6367C304.89 58.4413 303.621 55.9023 302.644 53.1679C300.594 46.8203 298.738 43.6953 296.785 43.6953C296.004 43.6953 293.855 42.1328 291.902 40.2773C290.047 38.4218 287.996 36.8593 287.312 36.8593C286.629 36.957 277.351 49.9453 266.609 65.7656C255.867 81.5859 246.101 95.8437 244.929 97.4062C242 101.019 242.097 102.68 245.515 106.977C247.176 109.027 249.519 114.203 250.984 119.086C253.523 127.68 255.281 130.023 264.265 136.957C265.828 138.227 267.586 141.352 268.855 145.258L271.004 151.605L277.351 153.461L283.601 155.219L285.164 162.738C286.043 166.84 287.019 170.941 287.312 171.918C287.508 172.797 289.461 174.457 291.511 175.531C294.441 176.996 295.613 178.363 296.492 181.195C297.859 185.98 303.035 190.18 308.992 191.449C312.996 192.328 314.754 193.793 326.179 205.414L338.875 218.402L379.402 232.074C401.668 239.594 451.57 256.098 490.34 268.695L560.75 291.742H595.711H630.672L623.933 298.871C595.613 328.559 523.152 403.168 472.273 455.023L411.14 517.328L403.328 516.84C387.703 515.863 339.363 514.301 338.582 514.789C338.191 514.984 329.402 517.426 318.953 520.16C304.207 524.066 297.566 526.312 288.289 530.902C272.371 538.52 269.051 541.156 266.804 547.406C265.828 550.336 262.801 555.121 259.676 558.832C254.597 564.789 254.011 565.18 250.105 565.18C247.761 565.18 242.976 566.254 239.461 567.621C233.992 569.672 230.379 570.16 215.926 570.844L198.836 571.723L195.027 575.043C192.879 576.898 190.34 579.828 189.461 581.586C188.582 583.344 187.215 585.102 186.433 585.395C185.652 585.687 184.09 587.641 183.015 589.789C181.941 591.937 178.719 596.82 175.886 600.727C173.054 604.535 164.949 615.766 157.82 625.727C147.761 639.887 142.097 646.625 131.844 656.977L118.66 670.16L118.465 804.535L118.269 938.91L138.777 966.449C150.008 981.586 159.676 995.355 160.261 997.016L161.238 1000.14L166.804 991.645C169.929 986.957 172.664 982.367 173.054 981.488C173.347 980.512 175.105 978.07 176.863 976.117C178.719 974.066 180.379 971.332 180.769 969.965C181.062 968.598 181.941 967.523 182.722 967.523C184.187 967.523 186.043 964.203 189.07 956.391C190.144 953.363 191.414 950.922 191.902 950.922C192.976 950.922 198.738 942.426 198.738 940.863C198.738 940.18 200.105 939.203 201.668 938.715C203.621 938.031 206.941 934.809 211.726 928.852C223.543 914.008 235.554 900.629 252.058 884.125C260.652 875.531 269.929 865.766 272.566 862.641C275.203 859.418 278.719 855.414 280.281 853.754C281.941 851.996 286.629 846.918 290.73 842.328C294.832 837.836 302.058 830.805 306.844 826.801C311.531 822.797 317.195 817.816 319.344 815.668C324.129 810.883 332.039 804.437 333.211 804.437C333.699 804.437 334.773 803.656 335.652 802.68C336.629 801.801 339.363 799.262 341.804 797.113C344.246 794.965 348.836 790.766 351.863 787.836C367.683 772.406 409.383 743.5 426.668 735.883C430.476 734.223 443.074 727.094 454.597 719.965C466.121 712.836 478.035 705.707 480.965 704.047C485.945 701.215 508.308 679.73 508.308 677.777C508.308 677.289 509.48 676.215 511.043 675.336C512.508 674.457 516.316 671.137 519.539 668.012C522.761 664.887 527.351 660.59 529.793 658.441C532.234 656.195 535.75 652.68 537.605 650.629C539.461 648.48 542.39 645.551 544.148 644.184C545.906 642.719 548.054 640.18 549.129 638.52C551.668 634.418 575.301 609.027 583.797 601.41C587.605 597.992 592.586 592.719 594.929 589.789C598.64 585.004 604.402 578.559 623.64 557.855C626.668 554.633 630.769 548.871 632.82 545.16C634.871 541.352 637.312 537.445 638.289 536.273C639.265 535.199 642.488 529.828 645.515 524.262C648.445 518.793 654.597 509.32 659.187 503.363C663.777 497.309 670.711 488.129 674.812 482.855C689.851 463.129 713.484 419.769 712.019 414.398C711.433 412.25 717.39 393.402 719.832 389.691C720.613 388.519 721.199 386.469 721.199 385.102C721.199 383.734 723.25 380.023 725.886 376.508C728.426 373.09 733.308 365.766 736.726 360.102C740.144 354.437 744.441 348.285 746.199 346.43C749.422 343.012 759.48 323.871 760.75 318.793C761.14 317.23 762.508 315.375 763.679 314.594C765.535 313.324 765.926 312.055 766.316 305.414C766.707 298.187 767 297.406 770.515 293.109C772.664 290.57 776.277 287.348 778.621 285.98C786.629 281.293 789.656 278.07 790.242 273.187C790.535 270.746 791.414 268.402 792.097 268.012C792.879 267.621 794.148 265.863 795.027 264.105C795.906 262.348 798.445 258.832 800.496 256.098C803.719 252.094 804.304 250.629 803.914 248.187C803.523 245.746 803.914 244.574 805.672 242.914C807.527 241.156 808.113 239.301 808.699 234.027L809.285 227.387L815.144 222.797C821.98 217.426 826.668 211.371 826.668 207.953C826.668 205.121 829.988 199.457 832.039 198.578C832.82 198.285 833.504 197.602 833.504 197.016C833.504 196.43 835.359 193.402 837.508 190.18L841.609 184.516L839.656 182.074C837.801 179.633 837.801 179.437 839.461 169.477C840.437 163.91 842.39 156.098 843.855 152.094C846.101 145.844 846.297 144.184 845.418 140.961C844.734 138.422 844.734 136.273 845.418 134.32C846.004 132.758 846.199 129.535 845.808 127.094C845.32 122.992 845.418 122.699 848.933 120.355C853.914 117.133 868.953 113.812 870.808 115.57C871.492 116.254 873.836 117.133 875.984 117.426C879.695 118.012 880.086 117.914 881.16 115.473C882.527 112.445 881.355 110.102 878.523 110.102C877.644 110.102 874.812 109.32 872.273 108.441C868.269 106.977 867.488 106.977 866.707 108.148C866.219 109.027 866.219 110.004 866.804 110.687C868.074 112.25 865.73 113.031 859.578 113.031H854.5L857.722 110.883C860.359 109.32 860.847 108.344 860.457 106.586C859.969 104.828 860.359 104.34 862.019 104.047C863.972 103.754 864.265 103.266 863.972 100.336C863.777 98.4804 863.191 96.5273 862.703 95.9413C862.215 95.4531 861.824 90.082 861.824 84.0273C861.824 74.5546 862.117 72.3085 864.168 67.621C866.804 61.8593 866.316 60.2968 861.922 58.832C860.75 58.539 859.676 56.7812 859.187 54.6328C858.406 51.7031 858.699 50.0429 860.457 46.039C861.629 43.3046 862.41 39.8867 862.117 38.6171C861.531 35.3945 863.875 30.8046 868.269 26.8984C871.101 24.2617 871.687 23.1874 871.297 20.746C871.004 19.1835 871.492 16.5468 872.273 15.082C873.836 11.957 873.347 9.32025 871.297 10.0038C870.613 10.2968 868.367 9.90619 866.414 9.02728C864.461 8.24603 861.531 7.56244 859.969 7.56244C858.406 7.56244 856.746 7.17181 856.453 6.58588C856.16 6.0976 852.742 4.73041 848.836 3.65619C844.929 2.58197 841.023 1.21478 840.144 0.726501C837.898 -0.54303 836.629 -0.445374 832.625 1.21478Z" fill="black"/>
<circle cx="434" cy="731" fill="#5CE50D"/>
<circle cx="667" cy="68" fill="#E52A0D"/>
<circle cx="214" cy="731" fill="#E52A0D"/>
<circle cx="827" cy="128" fill="#E52A0D"/>
</g>
<defs>
<clipPath id="clip0_1_3406">
<rect width="1000" height="1000" />
</clipPath>
</defs>
</svg>
