<svg width="1000" height="1000" viewBox="0 0 1000 1000" fill="none" xmlns="http://www.w3.org/2000/svg">
<rect width="1000" height="1000" />
<path d="M712.517 31.2675C711.049 32.0019 708.386 32.5527 706.734 32.6445C705.082 32.6445 701.685 33.6543 699.206 34.9395C693.056 38.0607 693.148 39.8049 700.216 47.6079C705.449 53.3913 706 53.7585 709.672 53.7585C711.875 53.7585 716.006 54.6765 719.035 55.6863C722.707 57.0633 727.573 57.7977 734.549 58.0731C740.057 58.3485 745.933 59.1747 747.677 59.9091L750.706 61.1943L748.687 64.1319C747.493 65.7843 746.575 67.1613 746.483 67.3449C746.392 67.4367 743.087 66.0597 739.231 64.2237C732.254 60.9189 732.163 60.9189 729.225 62.4795C726.379 63.9483 726.104 63.9483 721.422 62.1123C714.353 59.3583 713.068 59.6337 709.029 64.8663C707.193 67.3449 705.173 69.3645 704.714 69.3645C702.878 69.3645 702.603 66.3351 703.98 63.7647C705.357 61.3779 705.357 61.1943 703.062 58.9911C697.738 54.0339 689.659 52.1979 682.04 54.1257C677.725 55.3191 677.542 55.2273 672.584 51.9225C667.352 48.4341 649.635 41.9163 638.251 39.3459C633.294 38.1525 627.419 37.8771 613.833 37.9689C604.01 38.0607 592.719 37.6935 588.863 37.1427C580.876 36.1329 571.329 37.0509 559.579 40.0803C555.723 40.9983 548.379 42.2835 543.33 42.8343L534.058 43.9359L530.478 48.1587C527.541 51.7389 522.951 60.7353 522.951 62.9385C522.951 63.3975 524.052 64.0401 525.521 64.5909C527.816 65.4171 528 65.7843 527.724 69.6399C527.449 72.6693 526.714 74.4135 524.878 76.1577L522.4 78.5445L513.036 77.4429C504.866 76.5249 503.489 76.0659 502.296 74.2299C501.01 72.3021 500.184 72.1185 494.125 72.1185C488.25 72.1185 486.965 71.8431 483.844 69.5481C479.162 66.1515 478.336 65.8761 468.238 64.4073C461.904 63.3975 458.14 62.2041 453.366 59.7255C446.94 56.4207 435.465 53.7585 427.111 53.7585C424.725 53.7585 422.521 53.0241 420.685 51.5553C417.197 48.9849 413.984 47.8833 402.693 45.4047C386.536 41.8245 383.69 41.6409 375.612 43.5687L368.268 45.4047L361.383 42.2835C351.468 37.9689 350.918 37.7853 340.636 38.0607C332.741 38.2443 330.354 37.8771 324.663 35.9493C320.899 34.6641 316.217 33.5625 314.198 33.5625C312.086 33.5625 306.303 32.9199 301.254 32.1855C295.838 31.3593 290.054 30.9921 287.208 31.3593C282.527 31.9101 282.251 32.0937 280.048 36.4083L277.845 40.9065H272.796C268.206 40.9065 267.655 41.1819 265.544 43.9359C264.167 45.7719 263.157 48.2505 263.157 49.9029C263.157 51.5553 260.311 59.3583 256.823 67.2531C249.754 83.5935 249.387 84.7869 248.469 96.9045C247.184 113.245 243.879 128.208 240.023 134.91C238.187 138.031 237.086 138.857 232.22 140.418C226.712 142.162 226.529 142.345 224.234 147.486C223.04 150.332 221.48 156.207 220.837 160.43C219.644 169.151 218.542 171.079 210.188 179.157C206.975 182.278 204.405 185.216 204.405 185.675C204.405 186.134 204.956 187.327 205.69 188.245C206.792 189.806 207.434 189.898 211.198 188.98L215.421 188.062V196.232C215.421 202.383 215.788 205.137 216.981 207.156C217.899 208.625 218.817 209.818 219.185 209.818C219.735 209.818 222.214 205.137 222.122 204.31C222.03 204.035 221.755 202.75 221.388 201.465C220.837 199.353 221.112 198.986 223.132 198.619C225.152 198.252 226.345 198.986 230.292 203.301C238.646 212.389 239.381 216.795 233.505 222.487L229.466 226.434L226.896 222.211C224.417 218.356 223.958 218.08 220.378 218.08C214.962 218.08 211.749 220.834 211.749 225.333C211.749 227.26 210.739 231.3 209.454 234.421C206.516 241.673 206.608 242.866 209.913 246.079C211.473 247.548 212.667 249.476 212.667 250.486C212.667 251.955 212.208 252.138 209.178 251.587C206.424 251.128 204.864 251.496 201.559 253.332C199.356 254.617 196.602 255.718 195.408 255.718C194.215 255.718 192.195 256.269 190.818 257.004C187.422 258.748 169.337 258.748 165.023 257.004C160.249 254.984 155.384 255.443 149.508 258.381L144.184 261.043L140.604 258.381C137.575 256.086 136.198 255.718 131.516 255.718C126.191 255.718 125.549 255.994 119.765 260.4C115.267 263.705 113.064 266.184 111.779 269.029C110.31 272.426 109.484 273.16 106.638 273.711C104.802 273.987 100.487 274.078 96.9989 273.895L90.7565 273.436L85.3403 280.413C82.4027 284.268 78.1799 289.042 75.9767 291.153L71.9376 294.917L73.0392 300.884C74.1408 306.667 74.3244 306.851 77.5373 307.677C80.9339 308.503 80.9339 308.503 81.3929 314.195C81.7601 319.152 82.2191 320.346 85.1567 323.375C88.2779 326.588 88.5533 327.414 89.0123 333.748C89.8385 343.938 88.0943 349.721 78.6389 368.54C74.1408 377.537 70.377 385.34 70.377 385.799C70.377 386.258 69.1836 387.543 67.623 388.645C64.41 391.031 64.1346 393.785 66.246 401.68C66.9804 404.434 67.623 408.749 67.5312 411.319V415.909L57.8922 423.253C51.3744 428.21 47.0598 432.25 44.5812 435.83C41.3682 440.603 41.001 441.613 41.001 446.846C41.001 450.059 41.6436 454.649 42.378 457.127C43.1124 459.606 43.755 464.563 43.755 468.143C43.755 478.15 45.6828 484.208 49.9056 487.513C51.8334 488.982 55.0464 492.103 57.066 494.306C59.0856 496.51 63.033 500.824 65.8788 503.945C69.2754 507.617 71.8458 511.748 73.59 515.971C75.0588 519.46 78.5471 525.243 81.3929 528.731C86.4419 535.066 86.4419 535.157 86.9927 542.777C87.4517 549.754 87.7271 550.763 91.1237 555.537C94.2449 560.035 95.9891 561.412 103.884 565.727C113.431 570.868 115.634 572.795 119.674 579.864C121.51 582.985 123.437 584.913 127.201 586.933C132.067 589.595 132.434 590.054 134.453 596.021L136.565 602.263L134.27 611.443C132.893 616.492 131.883 621.082 131.883 621.725C131.883 623.653 138.493 627.325 143.817 628.334C146.571 628.793 149.876 629.62 151.069 630.079C152.538 630.629 154.649 630.538 157.036 629.803C160.433 628.793 161.167 628.977 167.318 631.823C170.99 633.475 174.57 634.852 175.212 634.852C177.599 634.76 184.576 628.61 185.678 625.489C186.596 622.826 187.055 622.459 189.625 622.735C191.277 622.826 194.215 623.744 196.143 624.754C201.467 627.508 203.946 627.141 206.516 623.377C208.995 619.705 209.362 619.889 212.483 626.131C214.87 631.088 215.788 639.259 214.411 643.849C213.585 646.878 213.585 648.255 214.962 652.294C216.431 656.792 216.431 657.251 214.962 661.107C213.493 664.962 213.493 665.605 214.962 671.572C216.614 678.182 217.165 678.732 221.204 677.172C223.04 676.437 223.866 676.621 224.968 677.906C226.437 679.467 226.345 679.65 224.142 680.201C222.214 680.66 221.847 681.303 221.847 684.332C221.847 687.27 222.398 688.463 225.427 691.125C231.853 697.001 232.771 700.122 230.935 710.495C230.201 714.902 230.292 717.013 231.21 720.226C232.312 723.898 232.863 724.449 235.617 724.816C238.095 725.183 238.83 725.826 239.381 727.845C240.023 730.324 239.84 730.599 236.076 732.252L232.037 733.996L233.414 737.209C234.148 738.953 234.699 742.166 234.699 744.461C234.699 748.409 234.791 748.592 239.748 751.346C242.502 752.907 245.99 754.192 247.551 754.192C249.754 754.192 250.305 754.559 250.305 756.212C250.305 760.343 251.406 762.179 254.528 763.647C256.823 764.749 257.649 765.759 257.649 767.411C257.649 768.696 258.934 771.175 260.403 772.919C263.432 776.316 265.911 782.375 265.911 786.322C265.911 788.433 266.462 788.984 269.675 789.902C273.989 791.187 274.815 792.84 273.347 796.971C272.337 799.633 272.52 800.367 274.356 803.213C275.55 805.049 277.845 807.161 279.497 808.079C281.15 808.997 282.435 810.374 282.435 811.383C282.435 813.954 284.73 817.718 288.769 821.665C291.615 824.419 292.533 825.98 292.533 828.183C292.533 830.57 293.084 831.579 295.287 832.773C296.756 833.691 298.5 835.619 299.051 837.087C300.06 839.566 299.969 839.841 296.756 842.504L293.267 845.349L299.693 848.287C304.1 850.398 306.578 852.143 307.496 853.887C308.781 856.365 308.69 856.824 306.67 860.864L304.467 865.27L308.781 867.84C311.168 869.217 315.116 872.155 317.594 874.45L322.092 878.581L321.633 884.089C321.174 890.882 323.01 894.462 332.19 904.744C335.679 908.508 341.003 915.209 344.124 919.524L349.908 927.419L364.045 927.878L378.182 928.337L381.854 932.284C385.618 936.231 391.493 939.536 394.982 939.628C396.542 939.628 397.185 940.454 398.011 943.667C398.929 947.523 399.204 947.798 403.794 949.175C412.148 951.562 415.728 951.837 421.512 950.277C426.652 948.991 427.203 948.991 430.967 950.644C433.17 951.654 437.026 953.949 439.504 955.785C445.288 960.007 451.347 960.742 459.976 958.447L465.943 956.794L472.002 960.65C478.978 964.965 494.952 969.922 502.112 969.922C504.499 969.922 508.997 969.187 512.21 968.361C516.892 967.076 518.728 965.883 522.583 962.027C528.091 956.427 529.193 952.755 527.082 947.614C525.337 943.392 525.337 939.628 527.082 931.182C527.908 927.51 528.275 923.471 528 922.278C527.724 921.084 523.318 915.944 518.361 910.711C513.312 905.57 509.181 900.705 509.181 899.879C509.181 898.134 508.354 897.492 502.296 895.013C497.797 893.177 497.706 893.085 497.063 888.312C496.604 884.273 495.961 882.987 493.391 880.876C490.453 878.306 483.018 875.368 479.805 875.368C474.939 875.368 473.562 871.329 477.326 868.299C478.428 867.381 479.988 865.178 480.723 863.434C481.365 861.69 482.926 858.201 484.119 855.815L486.322 851.408L489.444 853.336C493.116 855.631 492.932 855.723 501.194 848.379C506.702 843.422 507.253 842.504 506.794 840.209C506.518 838.74 506.518 833.324 506.886 827.999C507.528 819.554 507.895 817.993 509.823 815.606C511.476 813.678 512.944 812.944 514.964 812.944C519.462 812.944 527.082 816.983 532.131 822.032C536.629 826.53 537.088 826.714 545.717 828.458C558.385 830.937 559.303 831.396 559.946 835.619C560.497 838.556 561.139 839.382 564.536 841.218C568.3 843.238 568.667 843.238 572.523 841.861C574.818 841.035 579.132 840.117 582.162 839.841C585.558 839.474 589.322 838.373 591.984 836.812C596.023 834.609 596.666 834.517 601.715 835.251C605.662 835.986 610.069 835.802 618.698 834.701L630.357 833.232L636.691 835.343L643.025 837.546L646.054 834.425C648.258 832.222 649.359 829.927 650.094 826.071L651.103 820.931L657.07 818.636C661.293 817.075 663.955 816.616 666.617 816.983C679.745 818.819 678.276 819.095 682.958 813.862C685.345 811.2 687.272 808.813 687.272 808.446C687.272 807.344 693.882 805.6 697.738 805.6C700.675 805.6 701.226 805.967 702.603 808.813C704.898 813.587 707.744 813.954 711.875 809.915C717.75 804.315 726.655 799.174 730.51 799.174C732.989 799.174 735.1 798.348 738.13 795.961C740.516 794.217 742.536 792.748 742.811 792.748C744.28 792.748 742.811 797.613 740.057 801.653C738.313 804.315 736.844 807.069 736.844 807.895C736.844 808.629 739.048 810.741 741.71 812.485C745.106 814.78 747.218 816.983 748.595 819.921C749.788 822.216 751.9 825.704 753.46 827.632C756.031 830.845 756.857 831.212 764.384 832.681L772.555 834.242L777.42 829.927L782.285 825.704L788.711 826.255C792.292 826.53 796.606 827.081 798.442 827.357L801.655 827.816L800.737 832.222C800.186 835.251 800.186 837.363 800.737 838.74C801.563 840.576 801.288 841.218 799.085 843.054C796.055 845.625 795.872 848.012 798.35 851.5C799.36 852.877 800.554 855.08 801.013 856.274C801.563 857.834 802.849 858.752 804.776 859.211C810.927 860.405 813.589 859.854 819.464 855.998L825.156 852.326L830.848 854.346L836.631 856.457L839.936 853.887C842.965 851.5 844.159 849.48 847.463 839.75C847.739 839.107 849.667 838.648 852.788 838.648H857.745L865.64 830.111C872.341 822.767 873.718 820.747 875.003 816.065C875.83 813.128 878.125 808.17 880.052 805.141C881.98 802.02 884.092 797.246 884.734 794.309C885.652 789.994 886.846 787.883 890.701 783.568C893.363 780.63 899.055 773.011 903.37 766.769C910.255 756.671 911.264 754.835 911.264 751.346C911.264 748.041 911.815 746.848 914.569 744.002C917.782 740.697 917.874 740.606 915.946 739.596C912.917 737.943 913.284 730.416 916.589 724.908C918.7 721.511 921.362 715.452 921.362 714.167C921.362 713.984 920.077 712.423 918.425 710.587C915.946 707.649 915.487 706.456 915.12 700.673C914.844 695.256 915.028 693.788 916.221 692.778C917.231 691.952 917.69 690.024 917.69 686.627C917.69 681.854 917.599 681.578 915.028 681.119C913.468 680.752 911.54 679.742 910.714 678.824C909.336 677.264 909.428 676.713 912.274 669.736C914.477 664.412 916.13 661.933 917.782 661.015C920.628 659.454 924.943 654.314 927.605 649.081C928.615 647.061 931.552 643.389 934.122 640.819C938.712 636.413 938.804 636.229 938.804 630.813C938.804 625.672 938.988 625.213 942.384 622.276C944.404 620.531 947.801 615.941 950.188 611.443C954.043 604.375 954.41 603.089 954.41 597.306C954.41 590.696 956.43 578.395 958.174 574.172C959 571.969 958.725 571.051 955.695 566.553C953.217 562.789 951.84 561.504 950.83 561.871C944.312 564.442 941.834 562.422 938.345 552.232C937.06 548.468 933.939 542.226 931.368 538.37C926.962 531.669 926.503 531.21 919.526 528.089L912.366 524.876L911.264 519.827C910.438 515.512 909.704 514.411 906.583 512.207C904.563 510.83 902.084 508.168 901.166 506.424C900.248 504.588 897.403 501.1 894.832 498.621C891.436 495.316 890.15 493.205 889.691 490.543C889.049 486.779 884.367 480.536 879.593 477.048C872.892 472.183 873.167 472.825 875.462 469.612C876.564 468.052 878.125 464.38 878.859 461.534C879.593 458.688 880.97 454.832 881.98 452.996L883.724 449.508L879.869 446.295C877.757 444.459 875.371 442.99 874.636 442.99C873.81 442.99 871.699 442.531 869.863 442.072C867.109 441.338 866.374 440.512 865.548 437.574C864.905 435.646 864.446 432.066 864.446 429.771C864.446 420.958 862.335 407.464 859.765 399.202C857.929 393.235 856.735 386.717 855.817 377.261C854.624 364.593 854.716 363.583 856.184 360.921C857.653 358.443 857.837 355.78 857.745 339.44L857.653 320.805L852.88 317.683L848.198 314.562L847.647 302.353C847.372 295.651 846.637 287.94 845.995 285.186L844.801 280.229L848.014 277.383C851.778 274.078 853.43 268.938 853.43 260.308C853.43 252.414 856.368 246.997 863.896 240.939C869.587 236.44 870.872 234.513 870.872 230.382C870.872 229.372 872.341 227.077 874.177 225.333C876.013 223.68 878.951 219.274 880.695 215.785C882.531 212.205 885.652 206.514 887.672 203.025C891.344 196.783 891.619 196.599 899.881 192.744C910.714 187.695 914.753 183.196 926.87 163C928.156 160.889 933.939 154.647 939.814 149.139L950.555 139.132L950.922 133.349C951.289 129.126 950.922 126.464 949.728 123.251C946.883 115.999 947.433 110.491 951.748 102.229C954.594 96.7209 959 85.9803 959 84.5115C959 84.4197 957.348 83.5935 955.236 82.6755C953.033 81.6657 951.014 79.8297 950.096 78.1773C949.361 76.6167 947.25 73.7709 945.414 71.8431C942.568 68.9055 941.558 68.4465 937.886 68.4465C931.828 68.4465 927.788 67.0695 918.976 61.9287C911.723 57.7977 910.714 57.4305 906.766 57.9813C903.828 58.3485 898.871 57.7059 890.609 56.0535C884.092 54.6765 876.013 53.2077 872.708 52.7487C869.404 52.2897 864.263 51.5553 861.233 51.0963C858.204 50.6373 851.594 50.1783 846.545 50.1783C833.143 50.0865 823.779 48.1587 814.966 43.7523C808.999 40.7229 806.612 39.9885 802.481 39.9885C799.36 39.9885 795.321 39.1623 791.741 37.7853C786.416 35.7657 783.938 35.4903 760.253 34.5723C740.792 33.8379 732.438 33.1953 725.92 31.7265C716.006 29.6151 716.189 29.6151 712.517 31.2675Z" fill="black"/>
<circle cx="676" cy="60" fill="#5CE50D"/>
<circle cx="275" cy="40" fill="#E52A0D"/>
<circle cx="530" cy="223" fill="#E52A0D"/>
<circle cx="718" cy="635" fill="#E52A0D"/>
</svg>
