<svg width="1000" height="1000" viewBox="0 0 1000 1000" fill="none" xmlns="http://www.w3.org/2000/svg">
<g clip-path="url(#clip0_1_3419)">
<rect width="1000" height="1000" />
<path d="M276.891 216.944C276.402 217.139 273.375 217.92 270.348 218.799C266.246 219.971 264.586 220.948 264.098 222.51C263.805 223.682 261.754 226.514 259.605 228.76C254.918 233.545 250.523 234.717 246.227 232.471C244.566 231.69 242.418 231.006 241.246 231.006C239.488 231.006 239.293 231.592 239.293 237.647C239.293 242.432 238.512 246.729 236.363 252.979C234.801 257.764 233.434 261.768 233.434 261.963C233.434 262.159 235.777 262.256 238.609 262.256C243.297 262.256 244.176 262.647 249.84 267.139L255.895 272.12V283.155V294.092L251.305 300.733C247.008 306.885 246.031 307.667 238.805 310.792C227.867 315.577 220.543 317.432 203.746 319.776C195.738 320.948 188.512 322.413 187.633 323.096C169.859 338.233 168.492 339.6 160.582 352.198C156.187 359.131 152.086 365.381 151.5 366.065C151.012 366.749 140.074 371.436 127.379 376.514C105.895 385.108 103.844 386.085 97.8867 391.358C94.3711 394.581 89.8789 397.51 87.6328 398.194C84.5078 399.17 83.3359 400.245 80.9922 404.444C77.1836 411.182 70.25 417.53 66.7344 417.53C65.0742 417.53 62.2422 418.897 59.8008 420.948C57.457 422.803 52.7695 425.928 49.3516 427.881C43.5898 431.299 43.1016 431.788 41.5391 436.963C39.9766 442.335 39.5859 442.725 33.1406 446.338C28.0625 449.17 25.6211 451.319 23.375 454.835C21.7148 457.374 18.5898 460.889 16.4414 462.549C14.0977 464.502 11.3633 468.213 9.11719 472.608L5.60156 479.542L7.26172 486.573L9.01953 493.604L4.42969 501.905L-0.0625 510.206L4.13672 512.549C29.5273 527.1 29.8203 527.198 38.8047 525.342C41.6367 524.756 43.7852 528.272 41.9297 530.42C41.2461 531.299 41.0508 532.178 41.6367 532.764C43.1992 534.327 74.1562 552.198 82.8476 556.69C94.1758 562.354 112.926 578.76 112.633 582.569C112.437 584.62 114.293 595.557 115.855 601.319C116.148 602.198 118.199 604.346 120.445 606.006L124.547 609.034L139.195 608.838C147.594 608.741 156.578 609.131 160.191 609.815C165.855 610.792 167.125 610.792 171.812 609.131L177.086 607.374L194.566 612.94C209.898 617.92 213.414 618.702 222.984 619.288C233.629 619.971 234.02 620.069 237.828 623.292C241.734 626.71 241.832 626.71 249.059 626.124C253.062 625.831 266.051 625.928 277.867 626.417C297.105 627.1 299.742 627.002 303.355 625.538L307.262 623.877L310.973 626.807C315.074 630.03 318.883 630.713 331.676 630.518L339.684 630.323L358.043 640.284C368.199 645.752 382.652 653.272 390.27 656.885C398.082 660.596 408.824 666.846 415.172 671.241C422.398 676.319 432.75 682.081 444.664 687.842C454.723 692.725 462.926 696.436 462.926 696.241C462.926 695.948 461.754 694.19 460.387 692.335C458.043 689.307 457.945 689.014 459.703 689.014C460.777 689.014 462.633 690.088 463.902 691.456C465.172 692.823 466.637 693.897 467.125 693.897C467.613 693.897 469.566 694.581 471.422 695.557L474.84 697.12L472.008 698.292C469.371 699.463 469.566 699.659 484.312 706.983C493.395 711.573 500.133 714.405 501.598 714.21C503.648 713.917 503.16 713.233 497.008 708.35C489.781 702.393 489.488 701.026 496.422 705.03C498.668 706.299 502.281 707.667 504.43 708.057C507.945 708.545 508.629 709.229 511.461 714.307C513.805 718.506 514.293 720.264 513.512 721.045C512.144 722.413 511.168 721.631 523.18 728.956C537.73 737.842 554.625 743.702 576.305 747.51C594.566 750.733 616.148 755.616 642.711 762.647C656.48 766.26 660.387 767.725 669.566 772.803C675.426 776.026 680.309 778.37 680.504 777.881C680.699 777.393 680.309 775.342 679.723 773.194C678.258 767.53 673.375 763.624 666.832 762.745C664 762.354 659.898 760.987 657.75 759.717C655.602 758.545 651.402 757.178 648.473 756.788C645.543 756.397 641.539 755.323 639.684 754.444L636.363 752.686L641.441 752.002C644.273 751.612 646.519 751.026 646.519 750.635C646.519 750.342 643.102 746.631 639 742.432L631.383 734.913L622.105 735.987C616.93 736.573 612.437 737.549 611.852 738.233C610.582 739.795 605.016 741.749 601.793 741.749C600.426 741.749 597.496 740.674 595.348 739.405C593.102 738.135 589.098 736.768 586.266 736.377C583.238 735.987 580.602 735.01 579.527 733.838C577.965 732.081 577.965 731.983 580.699 731.983C582.262 731.983 584.117 732.374 584.898 732.862C585.875 733.448 587.242 733.35 588.805 732.569C591.539 731.202 600.914 731.104 603.844 732.471C605.113 732.96 606.187 732.667 607.262 731.592C608.824 730.03 608.824 729.737 607.262 727.1L605.602 724.17L608.727 723.389C610.875 722.803 611.949 721.924 612.144 720.46C612.633 717.335 614.098 717.823 615.855 721.631L617.418 724.854L626.402 725.538C636.559 726.319 637.633 727.1 646.324 738.526L650.914 744.678H659.312C665.66 744.678 668.102 745.069 668.98 746.143C670.055 747.413 669.273 747.608 663.219 747.608C655.992 747.608 655.699 747.803 656.871 752.198C657.457 754.249 658.043 754.444 665.074 754.444C669.176 754.444 673.961 754.932 675.621 755.518C678.062 756.397 679.625 756.202 683.141 754.932C687.828 753.077 688.609 751.319 686.07 748.585C683.922 746.241 682.945 739.795 684.703 739.795C687.144 739.795 688.219 741.163 692.809 750.245L697.301 759.229L694.371 765.381C692.711 768.799 691.441 772.022 691.441 772.608C691.441 773.975 695.738 775.928 698.57 775.928C702.086 775.928 717.809 772.803 717.809 772.12C717.809 771.827 716.734 770.85 715.269 769.971C712.828 768.506 712.926 768.409 720.934 766.749C725.426 765.772 730.894 764.014 733.043 762.647L737.144 760.303L737.73 762.549C738.609 765.87 738.512 765.967 734.898 767.139C731.773 768.116 731.676 768.409 732.652 770.655C733.238 771.924 734.703 773.292 735.777 773.487C736.949 773.78 743.59 775.245 750.621 776.905C769.664 781.299 779.723 781.983 804.43 780.909C822.496 780.03 825.816 779.639 826.891 778.272C827.867 776.905 829.234 776.71 835.68 777.198C839.879 777.588 851.598 778.272 861.754 778.858C871.812 779.444 880.504 780.127 880.992 780.42C881.578 780.713 889.293 781.397 898.277 781.885C907.262 782.374 915.758 783.057 917.32 783.35C919.762 783.838 919.957 783.643 919.957 780.616C919.957 777.881 919.273 776.905 915.074 774.073C906.773 768.409 907.359 767.823 928.551 758.838L946.812 751.026L958.336 739.795C972.398 726.221 972.398 726.221 961.656 715.772C955.406 709.62 953.844 708.545 947.789 706.69L940.953 704.639L937.73 696.045C935.094 689.112 934.703 686.963 935.484 684.815C936.949 680.909 949.254 661.67 950.328 661.67C951.695 661.67 951.402 663.428 949.644 666.065C946.715 670.557 948.473 674.268 955.602 678.956C959.117 681.299 962.34 683.155 962.73 683.155C964.781 683.155 967.809 678.272 968.394 674.17C968.98 669.971 969.273 669.581 974.059 667.237C976.793 665.87 980.894 664.405 983.238 664.112C986.656 663.526 987.926 662.647 990.758 659.034C993.59 655.42 994.176 653.663 994.176 649.952C994.176 645.85 993.785 645.069 990.465 642.432C987.535 640.088 985.582 639.405 980.016 638.819C968.98 637.745 968.98 637.745 967.223 631.69C966.051 627.588 965.855 624.366 966.344 617.725C966.93 609.717 967.32 608.741 970.348 605.127C977.086 597.217 981.48 583.643 981.48 570.46C981.48 560.694 983.141 556.495 990.66 547.413C993.102 544.483 995.152 541.749 995.152 541.456C995.152 541.163 993.59 538.917 991.734 536.573C986.754 530.323 987.144 527.393 993.394 522.51C1001.3 516.26 1002.09 511.573 996.227 504.639C994.176 502.1 990.855 496.924 988.902 493.018C985.777 486.67 984.898 485.694 979.332 482.569C973.863 479.542 972.594 478.272 968.297 471.143C965.66 466.749 962.73 462.647 961.754 462.061C960.484 461.28 958.238 462.354 951.012 467.139L941.832 473.194L934.215 471.729C927.477 470.46 925.621 470.46 919.176 471.631C912.34 472.901 911.461 472.901 908.336 471.241L904.918 469.483L893.98 474.952C883.824 479.932 882.652 480.323 879.234 479.444C876.012 478.663 875.133 477.784 871.715 471.729C861.266 452.881 856.48 442.627 856.48 439.014C856.48 435.499 856.383 435.303 849.547 432.276C841.441 428.76 840.758 428.76 828.355 430.811C819.762 432.276 818.297 432.276 810.094 430.811C799.254 428.858 792.027 428.76 792.027 430.42C792.027 431.104 792.906 434.522 794.078 438.038C795.934 444.092 795.934 444.483 794.273 447.51C792.418 451.026 787.535 453.272 783.824 452.295C782.066 451.905 780.699 452.686 777.477 456.104C772.301 461.67 769.566 463.038 762.242 463.721C753.355 464.6 743.59 468.018 739.488 471.631C732.555 477.686 731.383 478.077 720.738 478.077C711.363 478.077 710.582 478.272 706.578 481.006C703.844 482.862 701.109 483.936 698.863 483.936C696.91 483.936 695.152 484.522 694.664 485.303C694.273 486.085 692.32 486.963 690.465 487.256C687.34 487.842 686.559 487.452 681.578 482.96C676.891 478.858 675.816 477.295 674.742 472.999C674.156 470.167 672.301 464.112 670.836 459.62C669.273 455.127 668.199 451.221 668.394 450.831C668.59 450.538 669.469 447.901 670.25 445.167C671.812 440.088 671.812 439.991 669.371 437.159C667.906 435.401 664.195 433.252 660.094 431.592C656.285 430.03 651.793 427.491 650.035 425.928C643.785 419.776 641.441 418.506 636.754 418.506C633.531 418.506 631.676 417.92 630.504 416.749C627.477 413.331 621.715 412.354 612.828 413.721C603.453 415.088 601.5 414.307 597.008 407.178C594.273 402.979 594.176 402.881 588.902 402.881C585.973 402.881 581.383 402.1 578.648 401.026C574.449 399.463 573.668 398.682 572.496 395.264C571.324 391.553 571.324 391.065 573.668 387.354C576.207 383.35 576.793 377.979 575.426 372.803C574.742 370.655 574.742 370.655 568.98 374.268L563.219 377.881L558.629 376.221C556.09 375.342 550.523 374.073 546.324 373.389C537.34 372.12 534.996 370.46 533.238 364.112C530.602 354.932 521.031 342.237 511.168 334.913C505.016 330.42 503.355 329.639 499.742 329.639C490.855 329.639 479.527 324.073 479.527 319.776C479.527 315.186 476.598 311.085 469.957 306.299C460.973 299.756 458.238 295.46 456.578 285.206C455.895 280.811 454.82 276.319 454.332 275.245C453.746 274.268 449.645 271.436 445.152 268.897C437.535 264.698 436.461 264.405 427.281 263.721C416.637 262.94 412.34 261.573 404.82 256.788C401.402 254.639 397.789 253.37 393.004 252.588C388.902 252.002 380.504 249.268 371.91 245.752C360.387 240.967 356.383 239.795 350.035 239.209L342.32 238.624L326.695 228.565C305.895 215.186 303.453 214.502 294.957 218.799C289 221.827 288.219 221.827 282.457 218.897C279.918 217.627 277.477 216.749 276.891 216.944Z" fill="black"/>
<circle cx="351" cy="529" fill="#5CE50D"/>
<circle cx="208" cy="448" fill="#E52A0D"/>
<circle cx="586" cy="714" fill="#E52A0D"/>
<circle cx="790" cy="654" fill="#E52A0D"/>
</g>
<defs>
<clipPath id="clip0_1_3419">
<rect width="1000" height="1000" />
</clipPath>
</defs>
</svg>
