<svg width="1000" height="1000" viewBox="0 0 1000 1000" fill="none" xmlns="http://www.w3.org/2000/svg">
<rect width="1000" height="1000" />
<path d="M956.285 59.1513C954.201 61.2357 948.421 66.5413 943.4 70.8996C935.157 78.1002 933.83 78.9529 927.767 80.4688C924.167 81.3215 919.145 83.2164 916.492 84.6375C911.187 87.4799 899.912 90.3222 893.564 90.3222C889.49 90.3222 884.942 92.1223 878.121 96.4805C873.668 99.4176 861.351 100.744 840.697 100.839C827.243 100.839 823.453 100.555 817.769 98.9439C812.463 97.428 808.01 96.9543 798.82 96.9543C792.093 96.8596 782.24 96.4805 776.744 96.0068C762.248 94.8699 757.227 95.9121 748.037 102.449C739.605 108.324 729.372 112.966 724.919 113.061C720.94 113.061 704.644 121.683 690.053 131.441C679.821 138.168 678.021 139.115 672.052 140.063C666.083 141.01 664.378 141.768 655.187 148.116C649.597 152.001 642.965 156.359 640.407 157.78C635.386 160.717 624.585 163.275 617.669 163.275C615.111 163.275 611.416 163.939 609.426 164.791C603.931 167.16 597.014 168.865 589.624 169.907C586.024 170.381 579.108 171.613 574.465 172.56C569.728 173.602 562.717 174.739 558.832 175.024C554.948 175.403 549.358 176.161 546.516 176.729C541.778 177.582 540.831 177.392 537.894 175.687C532.304 172.371 521.977 171.613 498.67 172.56C471.668 173.697 471.952 173.792 468.067 167.918C465.509 164.033 462.288 161.475 451.487 154.369C433.391 142.526 430.643 141.01 422.874 138.831C406.294 134.094 395.872 135.989 380.713 146.411C366.596 156.075 360.343 159.107 351.437 160.812C347.079 161.665 341.678 162.328 339.31 162.328C332.488 162.328 315.055 169.149 301.602 177.013C294.117 181.466 288.243 183.172 284.548 182.035C278.673 180.235 266.167 179.003 256.124 179.192C247.313 179.382 245.323 179.666 243.144 181.277C239.734 183.74 238.786 183.645 235.565 180.708C233.291 178.434 233.101 177.676 233.575 174.171C233.954 171.329 233.575 169.244 232.249 166.591C230.449 163.086 229.975 162.802 214.342 157.401C195.204 150.674 187.529 149.253 184.024 151.622C180.613 154.085 174.17 167.16 174.17 171.613C174.17 173.508 173.507 176.161 172.655 177.392C171.518 179.003 171.044 181.94 170.949 188.288C170.854 196.341 170.665 197.383 168.296 200.51C165.833 203.636 165.643 204.584 165.643 212.637V221.448L169.623 225.522C173.034 228.933 173.413 229.881 172.655 231.681C171.139 235.186 172.086 237.176 175.118 237.176C176.634 237.176 179.097 238.218 180.708 239.639C183.361 241.818 183.645 242.671 183.645 247.219C183.645 253.946 182.413 254.609 170.949 253.851C163.18 253.282 161.569 253.472 155.316 255.556C151.432 256.977 147.926 258.02 147.453 258.02C146.979 258.02 146.126 256.693 145.652 255.177C144.894 253.188 144.042 252.335 142.526 252.335C139.399 252.335 139.02 253.188 140.536 256.788C142.242 260.957 142.242 260.862 140.441 260.862C139.21 260.862 139.02 261.62 139.494 264.367C139.778 266.357 140.252 271.663 140.536 276.305C141.199 284.264 141.105 284.738 138.547 288.812C136.178 292.507 135.42 292.98 132.104 293.265C128.504 293.549 128.219 293.833 127.462 297.244L126.514 300.844L122.345 300.276C114.197 299.139 111.734 302.455 110.123 316.382C109.176 324.341 106.334 325.951 103.87 319.793C102.544 316.477 102.07 316.098 98.1855 315.529C90.606 314.487 89.0901 313.35 88.4268 308.045L87.7636 303.307L82.079 303.876C73.8362 304.823 70.1412 306.908 69.3832 310.887C68.9095 313.066 68.0568 314.393 66.2567 315.15C64.9303 315.719 62.7511 316.951 61.5195 317.898C60.2878 318.846 58.3929 319.603 57.4455 319.603C56.0243 319.603 55.7401 319.982 56.2138 321.214C57.6349 325.004 59.5298 334.573 59.5298 338.173C59.5298 342.626 56.5928 346.037 50.7186 348.5C47.4973 349.827 47.3078 350.206 48.2553 352.006C49.6764 354.754 48.729 361.007 46.4551 363.47C45.4129 364.607 44.276 366.691 43.897 368.113C43.3286 370.197 43.6128 370.671 45.5077 371.239C47.971 372.092 65.3092 387.819 67.7726 391.514C69.1938 393.599 69.3832 395.967 69.099 407.242C68.9095 420.127 68.9095 420.601 71.3729 425.054C73.7415 429.317 73.8362 429.886 72.794 434.055C72.2256 436.423 70.2359 441.634 68.4358 445.519C66.1619 450.54 65.2145 453.856 65.2145 457.362C65.2145 462.478 64.267 466.836 62.2774 471.952C61.1405 474.605 61.2352 476.026 63.1301 483.322C64.267 487.869 65.2145 492.986 65.2145 494.691C65.2145 497.344 67.2041 504.923 73.0783 524.63C75.1626 531.357 77.1523 532.115 96.2906 532.968C105.481 533.347 114.671 534.01 116.566 534.484C119.977 535.336 120.261 535.242 122.156 532.21L124.051 528.988L127.556 530.504C129.451 531.262 132.483 532.778 134.188 533.82C135.894 534.768 138.168 535.621 139.115 535.621C142.147 535.621 143.852 536.663 143.852 538.558C143.852 539.884 143.189 540.358 141.389 540.358C137.599 540.358 135.325 542.063 135.325 544.811C135.325 546.421 134.378 548.127 132.957 549.358C131.725 550.401 130.493 552.485 130.399 553.906C130.114 556.559 130.399 556.749 136.367 558.264C142.905 559.875 147.926 563.191 153.327 569.444C156.169 572.571 156.359 573.234 155.885 577.592C155.222 583.087 158.159 591.52 160.812 591.52C161.664 591.52 162.896 591.899 163.654 592.372C164.791 593.13 164.791 593.604 163.464 595.688C161.475 598.626 161.38 602.131 163.18 605.542C165.549 610.09 165.359 612.269 162.801 613.595C161.096 614.448 160.338 615.68 160.148 617.859C159.864 620.227 159.011 621.554 156.074 623.449C152.853 625.533 152.379 626.386 152.379 629.417C152.379 632.639 152 633.112 148.4 634.723C145.842 635.86 142.905 636.428 140.347 636.239L136.273 635.86V639.176C136.273 642.113 135.515 643.155 129.925 647.987C126.325 651.019 121.872 654.904 119.977 656.704L116.566 660.02L118.082 663.146C119.408 666.083 119.882 666.368 123.956 666.368C127.367 666.368 128.883 666.841 130.493 668.642C132.483 670.821 132.578 671.01 131.157 673.853C128.504 678.874 126.798 679.063 121.208 674.895L116.282 671.2L106.618 671.768C99.0382 672.147 96.5749 672.716 94.9642 674.042C93.8273 675.179 91.5534 675.842 89.2795 675.937C85.8688 675.937 85.1108 676.505 80.3736 682.285C72.6045 691.57 70.0465 695.359 69.3832 698.297C69.0043 699.718 67.9621 701.613 66.9199 702.465C64.1723 704.644 65.404 708.434 68.6253 707.771C70.5202 707.487 71.2781 707.96 72.4151 710.045C73.173 711.656 74.5942 712.792 75.6364 712.792C76.6786 712.792 78.8577 714.119 80.5631 715.635L83.6896 718.477L81.0368 720.846C79.6156 722.172 77.3418 723.214 76.0153 723.214C74.6889 723.214 71.9413 724.067 69.9517 725.109C66.4462 726.909 66.1619 727.288 66.1619 731.173C66.1619 734.584 65.4987 736.1 62.1827 740.174C59.8141 743.111 57.4455 745.006 56.3085 745.006C52.045 745.006 50.4344 746.237 47.6868 751.353C45.1287 756.185 44.276 756.943 38.0229 759.88C34.2331 761.586 30.7276 763.86 30.2538 764.807C29.6854 765.755 27.8852 767.081 26.1798 767.649C21.0636 769.544 15 772.671 15 773.524C15 774.85 18.6003 775.418 22.2006 774.755L25.7061 774.092L25.0429 777.313C24.6639 779.113 24.0955 782.619 23.8112 785.272C23.527 787.83 22.2953 792.946 21.0636 796.452C19.7372 800.241 18.7898 805.168 18.7898 808.295C18.695 811.232 18.1266 814.737 17.3686 816.064C16.4212 817.769 16.0422 821.843 15.9474 830.844C15.9474 846.192 17.0844 852.54 20.4004 856.046C23.8112 859.646 23.148 864.857 18.3161 870.163C16.4212 872.342 15 874.142 15.1895 874.332C15.379 874.521 16.9896 874.805 18.8845 874.9C21.4426 875.089 23.7165 874.142 29.5906 870.258C37.9281 864.762 39.823 864.573 47.7815 868.268C49.8659 869.215 53.3715 870.068 55.4558 870.068C58.4876 870.068 59.6246 870.542 60.8563 872.437C61.9932 874.237 63.3196 874.805 65.9724 874.9L69.478 874.995L66.6357 875.942C62.9406 877.269 63.0354 877.174 63.7933 879.448C64.267 881.153 65.2145 881.437 69.0043 881.437H73.6467L74.2152 885.89C74.4994 888.448 76.0153 892.996 77.5313 896.123C79.0472 899.249 80.4683 902.66 80.5631 903.608C80.8473 905.218 81.6053 905.408 87.4794 905.218C91.1744 905.123 95.1537 904.744 96.2906 904.46C98.0908 904.081 99.6067 905.029 103.87 909.103C106.902 911.945 111.45 915.64 114.197 917.345C116.945 919.051 121.303 923.125 123.956 926.346C128.788 932.315 128.883 932.315 134.567 932.978C137.789 933.262 140.915 934.02 141.578 934.589C142.242 935.157 148.874 936.294 156.359 937.052C163.843 937.905 170.57 939.042 171.328 939.705C172.086 940.368 174.455 940.937 176.539 941.032C178.623 941.032 183.455 941.884 187.245 942.926L194.256 944.727L195.677 942.168C196.72 940.463 220.121 924.925 268.346 894.038C351.437 840.887 512.881 743.3 692.138 637.944L804.125 572.097L809.526 559.307C815.684 544.811 824.969 525.957 831.98 513.45L836.718 504.923L834.159 469.868C832.833 450.54 831.696 432.539 831.696 429.886C831.696 426.57 832.643 422.875 834.917 417.569C837.949 410.653 838.233 409.042 839.181 394.546C840.318 377.398 839.655 379.387 849.603 363.186L854.529 355.133L854.245 338.079C853.961 321.214 853.961 320.93 850.929 313.919C849.224 309.94 844.676 301.318 840.792 294.686L833.686 282.653L835.202 255.841L836.623 229.123L844.866 213.206C852.54 198.331 853.203 197.289 856.33 196.436C858.13 195.962 871.868 192.551 886.837 188.762L914.124 182.035L949.653 141.389C983.192 103.113 987.835 96.9543 983.761 96.9543C982.055 96.9543 982.055 97.2385 983.382 91.3644C984.329 87.0061 984.234 86.2482 982.34 83.5953C980.35 80.9425 980.255 80.2793 981.297 75.3526L982.34 69.9521L977.887 65.9729C974.381 63.0358 972.297 61.8989 968.886 61.5199C964.528 60.9514 964.433 60.8567 965.001 58.1091C965.475 55.4562 965.286 55.2668 962.727 55.2668C960.738 55.2668 958.938 56.309 956.285 59.1513Z" fill="black"/>
<circle cx="104" cy="749" fill="#5CE50D"/>
<circle cx="305" cy="304" fill="#E52A0D"/>
<circle cx="74" cy="434" fill="#E52A0D"/>
<circle cx="634" cy="464" fill="#E52A0D"/>
</svg>
