<svg width="1000" height="1000" viewBox="0 0 1000 1000" fill="none" xmlns="http://www.w3.org/2000/svg">
<rect width="1000" height="1000" />
<path d="M480.518 5.61719L453.662 11.1836L436.377 32.1797L419.189 53.1758L380.127 80.0312L341.064 106.789L325.244 149.367L309.424 191.848L295.557 215.773C287.842 228.957 272.217 255.91 260.791 275.637C241.748 308.645 239.502 312.062 234.033 316.848C230.713 319.68 220.361 328.566 210.986 336.574C194.58 350.539 193.604 351.516 187.158 361.77C182.275 369.68 177.588 375.441 169.775 383.352L159.131 394.191L152.197 412.648C139.307 447.121 139.404 446.926 132.471 501.418L126.221 550.246L127.1 601.516C127.881 643.605 128.369 653.859 129.639 659.035L131.299 665.188L136.182 664.602C140.576 664.016 141.65 663.43 145.557 659.133C149.658 654.543 150.244 654.25 154.443 654.25C158.154 654.25 159.912 653.469 165.576 649.562C171.826 645.266 172.412 644.582 174.463 638.625C175.635 635.109 176.709 632.57 176.709 632.863C176.807 633.156 177.881 641.457 179.15 651.418C180.518 661.281 182.275 671.242 183.057 673.586C185.01 678.957 194.287 689.699 200.732 693.898C203.467 695.754 208.447 699.758 211.865 702.883L218.115 708.645L216.943 720.754C215.967 730.031 214.6 736.672 210.986 748.684L206.201 764.602L211.67 777.883L217.139 791.164L237.744 810.207L258.447 829.25L279.834 862.746L301.318 896.242L394.092 938.82L486.865 981.398L618.799 990.676C691.357 995.754 751.416 999.953 752.197 999.953C754.834 999.953 755.127 992.922 755.42 937.453L755.615 884.23L760.986 862.258C765.283 844.68 766.553 838.039 766.943 829.055C767.432 819.484 768.311 815.383 772.51 801.027C775.146 791.848 778.271 778.664 779.346 771.73C780.322 764.895 784.229 745.949 787.744 729.641L794.385 699.953L798.584 696.535C802.393 693.41 802.979 693.215 805.518 694.191C807.178 694.875 809.033 696.828 810.01 698.879C811.572 702.199 811.768 702.297 816.26 701.809C818.799 701.613 822.607 700.637 824.756 699.855C828.662 698.293 840.283 697.707 844.58 698.781C846.338 699.27 846.729 700.051 846.729 702.98C846.729 708.449 850.83 716.359 854.053 717.141C855.518 717.531 856.885 717.629 857.08 717.434C857.275 717.238 861.182 673.586 865.674 620.461L873.779 523.879L859.619 487.746L845.459 451.613L847.412 415.48L849.365 379.348L860.01 341.457L870.557 303.469L867.432 262.551L864.307 221.535L868.213 213.723C871.045 208.254 871.826 205.812 870.947 205.52C870.264 205.324 860.498 202.688 849.17 199.758C829.736 194.582 828.662 194.387 826.318 195.949C824.951 196.828 823.779 197.121 823.584 196.633C821.826 191.75 810.4 168.312 809.619 168.117C809.131 167.922 795.654 172.414 779.834 178.176C760.01 185.402 750.635 188.332 749.756 187.746C749.17 187.16 695.068 144.68 629.639 93.3125C564.209 41.9453 510.01 -0.046875 509.033 0.0507812C508.154 0.148438 495.264 2.58984 480.518 5.61719Z" fill="black"/>
<circle cx="335" cy="344" fill="#5CE50D" id='218'/>
<circle cx="365" cy="449" fill="#FFE81E" id='866'/>
<circle cx="736" cy="314" fill="#E52A0D"/>
<circle cx="275" cy="749" fill="#E52A0D"/>
<circle cx="676" cy="905" fill="#E52A0D"/>
</svg>
