<svg width="1000" height="1000" viewBox="0 0 1000 1000" fill="none" xmlns="http://www.w3.org/2000/svg">
<rect width="1000" height="1000" />
<path d="M318.922 29.2498L291.396 42.9655L295.558 70.1132C298.68 90.9233 299.815 101.328 300.288 114.76L300.95 132.26L311.733 148.056C322.044 163.38 322.422 164.042 321.382 166.88C320.814 168.583 320.341 171.704 320.341 173.974C320.341 177.853 320.625 178.231 324.03 180.028C326.3 181.163 330.557 185.231 334.624 190.15C338.408 194.785 342.003 199.136 342.759 199.987C343.8 201.217 343.043 203.203 337.746 213.419C331.598 225.338 331.598 225.432 328.381 243.594C324.503 265.35 323.557 275.471 317.976 351.239C313.909 406.858 313.625 409.412 311.544 411.682C310.409 413.007 297.261 426.628 282.315 442.046C253.087 472.221 240.317 487.356 226.696 507.882C221.966 515.071 216.764 522.354 215.25 523.868C212.885 526.422 212.507 527.557 212.507 532.097C212.507 537.3 212.412 537.394 208.534 539.759C204.94 541.84 204.656 542.408 204.561 546.191C204.467 549.88 204.183 550.353 201.629 551.11C193.683 553.569 194.251 552.624 194.724 563.407C195.102 569.177 196.521 578.542 198.413 586.771C201.44 600.392 201.534 600.487 210.237 614.959C215.061 622.905 219.223 630.094 219.507 631.04C219.791 631.891 221.966 633.877 224.331 635.391C228.493 637.945 228.966 638.039 236.25 637.472C242.965 636.81 244.006 636.999 246.56 638.796C249.871 641.161 251.762 646.931 250.911 652.228C250.344 655.633 250.533 655.917 255.168 659.606C257.816 661.687 260.559 663.39 261.222 663.39C261.884 663.39 263.019 664.052 263.681 664.998C264.438 665.849 266.424 667.079 268.127 667.836C270.302 668.782 271.154 669.728 271.154 671.336C271.154 672.565 271.816 675.403 272.667 677.673C273.708 680.7 273.991 683.538 273.518 688.267C272.762 696.213 273.235 697.821 277.302 700.186C280.424 701.983 280.518 702.172 279.951 706.807C279.478 710.969 279.667 711.915 281.937 714.469C284.68 717.78 285.153 721.564 282.883 724.023C281.559 725.442 281.748 726.009 284.302 730.171L287.234 734.712L285.342 736.698C284.302 737.833 283.451 740.009 283.451 741.617C283.451 743.13 282.599 746.914 281.464 750.036C279.762 754.954 279.572 756.941 280.045 766.967C280.518 776.805 280.991 778.981 283.451 784.278C285.059 787.588 286.288 791.561 286.288 792.98C286.288 794.777 286.856 795.912 287.991 796.196C290.167 796.953 292.91 801.588 292.91 804.709C292.91 806.317 293.95 807.926 296.315 809.628C298.112 811.047 300.666 814.169 301.896 816.533C303.504 819.655 305.585 821.83 309.369 824.195C312.301 825.992 314.666 827.79 314.666 828.073C314.666 828.452 311.544 829.587 307.855 830.627C301.234 832.33 300.761 832.425 297.639 830.817C293.193 828.641 286.95 827.79 283.924 828.925C282.221 829.587 280.234 829.587 278.059 829.019C275.41 828.263 273.708 828.546 268.789 830.344C263.208 832.519 262.451 832.519 259.046 831.384C253.371 829.303 236.817 826.938 233.223 827.601C229.534 828.357 227.453 830.533 224.709 836.587C223.29 839.897 221.872 841.411 219.128 842.641C216.102 844.059 213.453 847.181 213.453 849.546C213.453 849.924 215.156 851.248 217.237 852.573C219.507 853.897 222.628 857.302 224.804 860.613C226.79 863.734 230.385 867.896 232.75 869.788C235.02 871.775 237.385 874.707 238.047 876.41C238.803 878.774 242.398 881.991 252.614 889.842C260.087 895.517 267.748 900.814 269.64 901.571C272.1 902.517 273.046 903.463 273.046 905.071C273.046 907.436 275.789 910.273 278.059 910.273C278.91 910.273 279.667 910.557 279.667 911.03C279.667 911.408 281.559 913.868 283.924 916.611C287.045 920.205 289.315 924.367 292.531 932.691C294.991 938.84 297.734 945.461 298.68 947.353C299.72 949.434 300.477 952.839 300.477 955.583C300.477 960.028 300.761 960.501 303.977 962.772C305.963 964.096 308.328 965.136 309.179 965.136C311.26 965.136 311.26 964.569 308.99 970.623C307.95 973.366 307.098 976.582 307.098 977.906C307.098 980.082 307.382 980.271 311.828 980.271C315.422 980.271 317.03 980.744 318.544 982.257C320.341 984.055 321.287 984.244 325.733 983.771C329.044 983.392 332.26 982.352 334.624 980.838C336.611 979.514 339.354 978.379 340.678 978.379C343.8 978.379 349.57 975.92 352.124 973.555C353.259 972.514 355.34 971.379 356.853 970.906C358.934 970.433 359.691 969.582 359.88 967.596C360.07 966.177 360.921 964.758 361.772 964.474C362.624 964.096 364.61 962.866 366.029 961.636C369.623 958.704 370.191 958.893 370.948 962.961C371.326 964.947 371.988 967.123 372.556 967.69C373.123 968.352 373.312 969.487 373.029 970.244C372.65 971.19 374.447 973.082 378.515 975.92C383.623 979.42 384.758 979.893 385.704 978.757C386.271 978.001 387.312 977.433 387.879 977.433C388.542 977.433 390.623 976.582 392.704 975.541C394.69 974.501 397.811 973.366 399.514 973.082C401.406 972.704 405 970.339 408.784 967.028C414.554 961.92 415.595 961.447 421.838 960.312C426.189 959.555 429.783 958.326 431.864 956.812C434.797 954.637 435.459 954.542 442.932 955.11C449.742 955.583 451.445 955.393 454.472 953.88C457.309 952.366 461.093 951.988 474.998 951.421C484.363 951.042 492.497 950.285 493.16 949.812C493.822 949.34 494.957 946.786 495.808 944.326C497.132 940.259 498.078 939.313 502.429 936.759C507.632 933.827 515.294 925.124 519.74 917.178C520.969 915.003 522.767 912.922 523.807 912.638C526.266 911.787 526.077 910.746 522.956 908.665C519.267 906.3 512.078 898.26 512.74 897.22C513.024 896.747 514.916 895.233 516.997 893.814C520.307 891.45 522.01 891.071 532.415 890.315C561.927 888.139 573.184 886.436 579.048 883.126C581.224 881.801 583.683 881.518 590.116 881.801C597.683 881.991 598.818 881.801 603.169 879.437C605.818 878.018 608.466 875.747 609.128 874.423C609.98 872.531 611.209 871.869 614.047 871.491C617.074 871.113 617.925 870.545 618.115 868.937C618.398 867.234 619.061 866.761 621.142 866.761C623.033 866.761 624.452 865.91 626.06 863.924C627.29 862.316 630.222 858.721 632.682 855.883C635.614 852.573 637.6 849.167 638.263 846.424C639.019 843.397 639.776 842.168 641.006 842.168C641.952 842.168 643.938 840.276 645.641 837.627C648.762 832.803 654.343 828.925 658.411 828.925C660.302 828.925 661.248 828.073 662.856 824.857C666.451 817.668 669.005 815.114 673.64 813.79C679.126 812.277 679.788 810.763 679.788 799.601C679.788 787.683 681.207 785.507 688.396 785.413C689.815 785.413 691.517 784.751 692.18 783.899C692.842 783.048 694.355 782.007 695.585 781.535C696.815 781.062 697.761 779.926 697.761 778.981C697.761 776.332 699.747 775.008 703.625 775.008C706.368 775.008 709.395 773.778 715.165 770.278C723.962 764.981 726.422 764.603 741.178 766.589C745.435 767.157 749.218 767.44 749.407 767.157C750.259 766.4 754.515 749.279 754.515 746.82C754.515 745.117 752.434 739.82 751.205 738.306C751.11 738.212 749.218 738.685 747.137 739.441C743.164 740.86 743.164 740.86 743.164 738.59C743.164 736.793 742.218 735.942 739.192 734.523C736.921 733.482 733.611 731.023 731.624 729.036L728.219 725.347L728.976 717.307C729.449 712.861 730.489 707.091 731.246 704.537C732.097 701.889 732.759 699.713 732.759 699.618C732.759 699.524 730.962 699.335 728.786 699.145L724.908 698.862L722.26 687.038C720.841 680.511 719.611 672.944 719.611 670.201L719.517 665.187L713.652 662.539L707.693 659.89L703.909 661.782C700.598 663.485 690.95 666.511 690.666 665.944C690.572 665.849 689.342 664.241 688.018 662.349C684.802 658.093 684.707 653.931 687.639 645.134C689.247 639.931 690.288 638.134 692.558 636.81C706.085 628.959 707.125 628.202 708.26 623.472C709.111 619.594 709.111 618.554 707.787 616.567C706.936 615.338 706.274 612.973 706.274 611.459C706.274 609.568 705.517 608.149 704.193 607.108C702.679 606.162 701.544 603.703 700.504 599.541L699.085 593.487L704.76 587.812C707.976 584.785 713.841 580.244 717.908 577.785C724.152 574.001 727.084 571.353 727.084 569.461C727.084 569.177 724.908 568.42 722.354 567.758C718.571 566.812 717.719 566.245 718.192 565.11C719.517 561.988 717.908 553.664 715.638 551.961C714.219 551.015 714.125 550.353 714.976 547.989C715.827 545.435 716.773 544.867 724.341 542.597C731.151 540.516 732.665 539.759 732.192 538.624C729.07 531.246 728.976 530.584 731.908 528.881C733.8 527.746 734.651 526.422 734.651 524.719C734.651 521.503 739.097 515.828 742.881 514.219C744.867 513.463 746.002 512.328 746.002 511.098C746.002 510.152 746.38 509.017 746.948 508.733C747.421 508.449 748.461 505.99 749.313 503.247L750.826 498.328L747.421 495.207C742.502 490.666 742.881 488.018 749.218 482.531L754.326 477.991L762.745 478.559C770.123 479.126 771.636 478.937 774.947 477.234C779.771 474.775 790.649 473.734 798.973 474.964C802.379 475.437 805.311 475.721 805.5 475.532C805.689 475.342 803.987 424.074 801.811 361.454C799.068 280.863 797.554 247.377 796.798 246.621C795.663 245.486 350.327 16.8583 347.773 16.007C347.016 15.8178 333.962 21.777 318.922 29.2498Z" fill="black"/>
<circle cx="293" cy="713" fill="#5CE50D"/>
<circle cx="450" cy="221" fill="#E52A0D"/>
<circle cx="336" cy="920" fill="#E52A0D"/>
<circle cx="632" cy="500" fill="#E52A0D"/>
</svg>
