<svg width="1000" height="1000" viewBox="0 0 1000 1000" fill="none" xmlns="http://www.w3.org/2000/svg">
<rect width="1000" height="1000" />
<path d="M322.001 36.8279C321.365 38.1006 320.91 39.3734 320.91 39.4642C320.91 39.6461 323.637 41.0096 327.092 42.3732C331.637 44.2822 335.273 45.1003 341.364 45.464L349.545 45.9185L352.454 54.2818L355.363 62.6451L350.727 66.0086C346.455 69.1903 346.182 69.6448 346.636 72.4629C347 74.281 346.273 79.8263 344.909 85.7351C342.727 95.8256 342.637 95.9165 337.637 100.825C332.819 105.462 332.637 105.916 332.182 111.28C331.728 115.825 332.092 117.825 333.91 122.279C336.182 127.733 336.182 127.733 345.546 132.824C351.727 136.188 355.545 138.915 356.545 140.642C357.727 142.642 359.818 143.915 365.363 145.915L372.635 148.551L376.453 158.55C378.544 164.096 380.635 169.186 381.18 169.732C381.635 170.368 383.908 170.914 386.271 171.004C396.725 171.186 397.543 171.55 404.089 180.277L410.179 188.367L414.179 187.731L418.179 187.186V191.731C418.179 196.094 418.088 196.367 415.27 197.094C412.725 197.731 412.27 198.367 410.816 203.821C409.27 209.276 409.27 210.276 410.452 213.73C411.179 215.821 411.816 220.093 411.816 223.184V228.82L417.27 232.638C422.361 236.275 422.724 236.729 422.724 240.093C422.724 242.002 422.633 243.638 422.542 243.638C422.361 243.638 419.997 243.002 417.27 242.274C411.725 240.82 410.907 241.274 410.907 245.82C410.907 247.547 412.179 249.91 414.634 252.819L418.361 257.274L415.543 260.637C413.088 263.637 412.725 264.728 412.725 269.91C412.725 275.091 412.361 276.182 409.088 281.091C405.907 285.909 405.452 287.182 405.452 291.818C405.452 296.727 405.634 297.272 408.27 299.181C410.725 300.908 410.997 301.545 410.634 304.181C410.27 306.363 410.997 309.363 413.27 315.09C414.997 319.362 416.361 323.089 416.179 323.18C415.997 323.362 410.179 324.18 403.18 324.998C396.18 325.816 390.271 326.635 390.089 326.907C389.907 327.089 389.544 329.271 389.271 331.816L388.817 336.362H395.816C399.634 336.362 402.725 336.543 402.725 336.725C402.725 336.907 401.634 338.907 400.362 341.27L398.089 345.452L392.544 342.634C389.544 341.089 386.908 340.089 386.726 340.27C386.453 340.452 387.18 342.998 388.18 345.816C390.453 351.725 390.18 351.634 401.725 348.997C409.361 347.27 409.907 346.997 410.452 344.452C410.816 342.998 411.361 341.634 411.816 341.361C412.27 341.089 417.815 341.452 424.27 342.27C430.633 342.998 436.178 343.634 436.633 343.634C436.996 343.634 437.269 345.452 437.269 347.634C437.269 351.543 437.451 351.725 443.451 355.997C446.814 358.361 449.632 360.361 449.723 360.451C449.905 360.542 448.996 363.997 447.723 368.088C446.36 372.724 444.178 377.542 441.905 380.633L438.36 385.632L440.633 390.541C441.814 393.268 442.542 395.905 442.178 396.541C441.814 397.177 439.996 399.723 438.087 402.268C436.087 404.995 433.724 410.086 432.178 414.813L429.633 422.813L435.269 434.085C441.724 447.084 442.36 450.902 438.724 455.72C436.815 458.266 436.633 459.175 437.269 462.993L437.906 467.447L432.997 466.811C428.633 466.265 427.724 466.447 425.815 468.265C423.724 470.265 423.633 470.265 419.997 468.629C416.361 466.993 416.361 466.993 414.088 469.084L411.816 471.265L413.997 473.538C415.452 475.174 415.997 476.447 415.543 477.629C415.088 478.81 416.815 483.174 421.179 491.719C424.633 498.537 428.179 504.718 428.997 505.537C429.815 506.355 433.178 508.082 436.451 509.536C440.542 511.173 443.996 513.445 446.905 516.445C451.087 520.718 451.45 520.9 456.45 520.9C461.45 520.9 461.541 520.9 463.086 524.445C464.632 527.627 464.632 528.172 463.268 530.717C460.996 535.081 461.45 535.99 466.632 537.899C470.904 539.535 471.631 540.172 473.995 545.081C475.449 547.989 476.813 552.535 477.086 555.08L477.449 559.716L470.904 562.353C466.45 564.08 463.632 565.807 462.177 567.716C460.996 569.261 457.723 572.17 454.905 574.079L449.814 577.625L453.087 580.261L456.359 582.897L454.087 585.806C451.905 588.715 451.814 589.261 451.814 603.715C451.814 617.987 451.905 618.987 454.45 625.441C457.905 634.441 458.814 642.44 456.905 646.258C455.632 648.713 455.541 649.44 456.632 652.076C457.814 654.803 457.723 655.258 455.814 658.167L453.723 661.258L455.541 664.258L457.45 667.257H454.632C452.178 667.257 451.814 667.621 451.36 670.621C449.36 681.984 448.996 682.802 444.087 684.62C441.633 685.62 438.633 686.711 437.633 687.166L435.633 688.075L437.451 696.529C438.451 701.438 438.996 706.438 438.633 708.438C438.178 711.347 438.815 713.074 442.36 719.619C444.633 723.801 446.723 727.255 446.905 727.255C447.178 727.255 448.632 726.619 450.178 725.801C452.178 724.801 454.087 724.528 457.268 724.982C462.45 725.71 462.359 725.346 463.268 739.982C463.995 752.618 462.814 757.799 456.268 770.981L451.905 779.708L452.45 787.889L452.996 795.98L445.542 800.798C441.542 803.434 438.178 805.979 438.178 806.252C438.178 806.616 439.996 808.706 442.269 810.888C444.542 813.07 446.36 815.252 446.36 815.706C446.36 816.161 444.542 818.888 442.269 821.797L438.178 827.16L442.269 829.524C445.814 831.706 446.36 832.342 446.36 835.069C446.36 837.887 446.905 838.523 452.905 842.341C456.541 844.705 459.632 846.705 459.814 846.796C459.996 846.978 459.45 850.432 458.541 854.432L456.996 861.795L460.541 866.977C463.541 871.249 464.904 872.34 469.086 873.886C477.449 876.886 478.813 878.976 475.449 883.613L473.54 886.249L476.722 892.43C480.358 899.794 480.722 900.066 491.994 906.793C496.903 909.611 501.176 912.43 501.63 912.975C502.085 913.611 502.903 915.793 503.448 917.793C504.721 922.156 505.812 922.611 514.084 922.793C517.084 922.884 520.72 923.156 522.175 923.52C524.811 924.065 524.902 924.156 529.356 936.429C530.538 939.519 531.72 940.974 533.993 942.065C536.083 943.065 537.902 945.065 539.72 948.337L542.265 953.155L551.81 953.61L561.355 954.064L561.901 959.337C562.264 962.246 562.628 964.791 562.901 964.973C563.082 965.246 569.446 963.428 576.9 960.882C600.535 953.155 624.08 946.428 633.352 944.883C640.443 943.792 677.714 934.065 678.896 933.156C679.35 932.701 668.169 896.885 667.442 896.339C666.987 896.067 665.169 894.976 663.351 893.794C660.442 891.885 659.988 891.158 659.988 888.067C659.988 884.612 659.806 884.431 650.897 878.613L641.807 872.795V867.522C641.807 863.341 641.352 861.886 639.625 860.068C638.443 858.704 637.261 856.159 636.989 854.341C636.443 850.977 636.534 850.887 640.079 849.978C643.534 849.068 643.625 848.887 643.625 845.16C643.534 842.432 642.806 840.251 640.988 837.796L638.443 834.251L639.716 827.069L640.988 819.797L638.625 816.706C635.716 812.888 630.716 801.889 631.443 800.798C631.716 800.343 632.989 799.979 634.352 799.889C635.716 799.889 638.898 799.343 641.534 798.798L646.261 797.707L646.715 684.53L647.17 571.352L644.352 561.444C640.807 548.444 641.079 544.444 646.261 534.354L650.17 526.809L648.17 521.809C646.352 517.082 646.261 515.9 646.806 502.264C647.17 494.083 646.988 477.447 646.352 464.266C645.534 445.63 645.534 439.539 646.443 435.085L647.534 429.358L641.352 417.54L635.08 405.632L628.443 401.723C622.807 398.268 620.989 396.541 615.717 389.178C612.262 384.451 609.262 380.178 608.99 379.633C608.626 379.087 607.444 371.451 606.353 362.724C605.263 353.997 603.808 345.816 603.172 344.543C602.444 343.089 600.445 341.816 597.626 340.907C593.354 339.452 593.172 339.271 592.899 335.543C592.627 332.362 593.172 330.998 595.899 327.18L599.172 322.544L597.717 287C596.99 267.364 595.99 251.092 595.627 250.819C595.263 250.456 571.446 233.547 542.72 213.185C513.993 192.822 490.267 176.095 490.176 175.913C489.994 175.732 490.358 169.55 490.903 162.096L492.085 148.551L495.54 146.096C499.721 143.096 499.63 143.278 497.449 127.097L495.812 115.552L503.448 106.825L511.084 98.0983L513.63 82.4625C514.993 73.9174 516.084 66.7359 515.902 66.5541C515.812 66.4631 505.903 65.9177 493.994 65.3723L472.177 64.3723L458.996 68.554C451.723 70.8266 445.269 72.7357 444.723 72.7357C444.087 72.7357 443.633 71.9175 443.633 71.0084C443.633 70.0085 442.996 68.6449 442.269 67.9177C441.633 67.1904 440.724 65.5541 440.451 64.3723C439.905 62.1906 437.633 61.6451 383.362 48.7366C352.273 41.3732 326.001 35.1008 324.91 34.9189C323.546 34.5554 322.819 35.1008 322.001 36.8279Z" fill="black"/>
<circle cx="568" cy="959" fill="#5CE50D"/>
<circle cx="598" cy="449" fill="#E52A0D"/>
<circle cx="408" cy="112" fill="#E52A0D"/>
<circle cx="508" cy="681" fill="#E52A0D"/>
</svg>
