<svg width="1000" height="1000" viewBox="0 0 1000 1000" fill="none" xmlns="http://www.w3.org/2000/svg">
<rect width="1000" height="1000" />
<path d="M391.992 0.778931C391.406 1.16956 390.137 2.92737 389.063 4.68518C387.598 7.3219 386.719 7.81018 384.766 7.51721C383.496 7.22424 381.25 7.61487 379.785 8.29846C377.734 9.47034 376.66 9.47034 373.438 8.29846C367.676 6.34534 362.305 5.46643 362.305 6.54065C362.305 7.12659 363.184 8.29846 364.258 9.27502C365.234 10.1539 366.895 12.8883 367.774 15.3297L369.434 19.6266L366.113 22.9469C363.281 25.7789 362.012 26.2672 357.91 26.4625C355.274 26.5602 350.977 26.0719 348.535 25.3883C344.434 24.2164 343.652 24.2164 339.649 26.2672L335.156 28.4156L334.57 34.9586C333.399 46.2867 333.301 46.6774 329.297 47.8492C324.316 49.2164 324.512 49.2164 323.731 45.1149L323.047 41.5016L320.508 44.5289C318.945 46.3844 316.211 48.0446 313.965 48.7281C311.816 49.3141 308.594 50.6813 306.738 51.8531C304.883 52.9274 303.125 53.4156 302.832 52.9274C301.856 51.3649 288.184 51.6578 285.156 53.2203C281.445 55.0758 281.641 55.1735 280.469 51.8531C279.785 49.9977 278.027 48.2399 275.488 46.9703C269.043 43.65 267.578 44.4313 267.578 51.2672C267.578 54.1969 267.09 54.6852 261.719 57.2242C256.152 59.9586 255.859 60.2516 255.859 63.5719C255.859 66.2086 255.274 67.5758 253.711 68.65C251.758 69.8219 251.465 70.7985 251.66 75.2906C251.758 78.2203 251.465 80.7594 250.781 81.15C250.098 81.6383 250.195 82.5172 251.367 84.0797C253.613 87.3024 253.223 89.8414 250 93.7477C248.34 95.6031 247.07 97.6539 247.07 98.3375C247.07 99.0211 246.192 100.486 245.02 101.658L242.969 103.709L245.508 106.345C247.461 108.298 248.047 109.959 248.047 113.181C248.047 115.427 248.731 118.552 249.414 120.017C251.465 123.923 250.488 126.658 246.68 127.439C245.02 127.83 242.09 129.002 240.234 130.076C235.547 132.81 227.93 132.029 225.098 128.416C223.926 127.048 222.266 125.974 221.289 125.974C219.238 125.974 219.336 126.17 223.535 132.029C226.465 136.033 226.856 137.302 226.953 143.162C227.051 149.021 227.344 149.9 229.004 150.193C230.176 150.486 231.641 149.607 233.008 147.849C234.961 145.408 235.449 145.213 237.695 146.287C239.356 147.068 240.234 148.24 240.234 149.705C240.234 150.974 240.918 152.83 241.699 153.904C242.481 154.88 243.164 157.127 243.164 158.787C243.164 160.349 243.848 162.595 244.629 163.67C246.68 166.306 246.387 169.627 244.141 170.896C243.067 171.482 242.188 172.556 242.188 173.24C242.188 175.974 254.492 192.869 258.887 196.287C263.574 199.802 279.297 217.966 281.738 222.654C283.594 226.365 290.625 232.42 292.969 232.42C294.043 232.42 295.215 233.201 295.606 234.08C295.899 235.056 297.07 236.814 298.145 237.986C299.219 239.256 299.805 240.818 299.414 241.697C299.121 242.576 299.219 244.138 299.805 245.115C300.488 246.384 300.391 246.97 299.316 247.459C297.852 248.045 297.461 251.756 298.438 255.564C298.731 256.736 300.293 258.103 301.856 258.689C304.004 259.47 304.688 260.252 304.688 262.302C304.688 263.767 305.274 265.72 305.957 266.502C307.422 268.259 310.547 277.634 310.547 280.369C310.547 282.908 311.035 282.713 315.625 278.318C319.922 274.216 323.926 273.24 325.977 275.681C327.344 277.341 325.684 284.275 323.633 285.447C322.852 285.838 322.266 287.595 322.266 289.353C322.266 294.334 321.191 295.213 316.797 294.041C311.426 292.576 310.645 292.674 309.375 295.408C308.496 297.361 308.008 297.556 306.934 296.677C305.859 295.799 305.176 295.896 304.004 297.166C302.637 298.435 302.637 299.119 303.711 301.756C304.59 303.904 304.688 306.638 304.102 311.814C303.711 315.623 303.418 324.705 303.516 331.834C303.613 344.236 303.613 344.724 301.758 343.748C300.781 343.259 299.121 342.771 298.047 342.771C295.801 342.771 291.992 346.677 291.992 349.021C291.992 350.291 291.504 350.584 290.332 350.095C286.035 348.24 284.57 348.435 283.399 350.974C282.813 352.439 281.445 353.513 280.371 353.513C277.149 353.513 276.27 361.912 279.004 367.283C279.883 369.138 280.957 372.752 281.348 375.486C281.738 378.123 282.91 382.81 284.082 385.74C285.742 390.232 286.816 391.502 290.527 393.552C293.848 395.408 294.922 396.482 294.922 398.24C294.922 400.095 295.313 400.486 296.777 400.095C298.34 399.705 298.926 400.388 299.902 404.49C300.684 407.81 301.66 409.568 302.832 409.861C303.809 410.154 305.078 411.814 305.664 413.67C306.641 416.404 308.203 417.674 315.234 421.58C326.367 427.634 330.469 431.443 332.031 437.107C333.008 440.427 333.984 441.795 335.84 442.478C338.867 443.65 339.844 445.017 339.844 448.435C339.844 450.095 340.625 451.463 341.797 452.146C343.457 453.025 343.75 454.197 343.75 459.08C343.75 462.498 344.434 466.209 345.313 467.966C346.387 470.017 346.68 472.166 346.191 474.998C345.899 477.146 345.41 481.443 345.117 484.568C344.727 488.67 344.141 490.134 342.871 490.525C340.137 491.209 339.453 499.802 341.895 502.537C342.871 503.611 343.75 505.662 343.75 507.127C343.75 510.545 348.828 520.115 352.051 522.654C353.418 523.631 354.492 525.193 354.492 525.877C354.492 526.56 355.957 528.318 357.715 529.685C360.547 531.931 360.84 532.713 360.938 537.302C360.938 540.134 361.621 544.92 362.5 547.849C363.281 550.779 364.063 554.002 364.16 554.881C364.16 555.857 364.356 557.908 364.453 559.373C364.551 561.814 364.844 562.107 367.481 561.716C370.41 561.228 370.508 561.521 368.457 567.088C368.164 567.771 368.652 568.65 369.531 568.943C370.801 569.431 371.094 571.287 371.094 579.588C371.094 588.572 370.899 589.744 369.043 591.404C367.871 592.381 365.82 595.603 364.551 598.533C363.281 601.463 361.328 604.978 360.254 606.248C359.277 607.615 358.399 609.47 358.399 610.447C358.399 611.619 357.422 612.498 355.957 612.888C353.906 613.377 353.516 614.06 353.613 616.599C354.004 622.166 339.063 641.013 335.059 639.939C332.813 639.353 331.641 641.111 331.543 645.017C331.543 647.361 331.152 647.947 329.492 647.947C328.223 647.947 325.684 649.998 322.852 653.22C318.457 658.396 318.359 658.787 318.359 665.134C318.359 668.748 317.676 673.24 316.895 675.095C316.113 677.048 315.43 679.881 315.43 681.443C315.43 683.298 313.281 687.302 308.984 693.455C300.879 704.978 300.879 704.881 299.805 703.123C298.926 701.853 298.731 701.853 297.852 703.123C297.363 703.904 296.875 705.759 296.875 707.322C296.875 710.154 296.777 710.447 292.676 718.357C291.211 721.189 290.039 723.923 290.039 724.509C290.039 726.072 291.602 725.877 293.359 724.021C296.387 720.994 297.852 724.705 295.996 730.857C295.508 732.517 294.141 737.4 292.871 741.697C289.356 754.685 288.965 755.759 287.988 756.443C287.402 756.736 286.426 756.443 285.645 755.857C284.375 754.881 283.887 755.271 282.617 758.396C280.957 762.302 280.859 766.599 281.543 830.271L281.738 852.439L284.57 855.369C288.281 859.177 292.09 859.373 294.629 855.857C296.289 853.611 296.387 852.634 295.606 848.435C294.922 845.017 294.922 842.088 295.703 838.67C296.387 836.033 296.875 832.615 296.875 831.052C296.875 828.806 297.168 828.416 298.828 828.806C300.488 829.295 300.781 830.173 300.781 834.568C300.781 845.115 304.785 848.435 305.664 838.572C305.957 835.642 306.348 832.908 306.641 832.615C307.617 831.736 317.871 837.595 318.164 839.158C318.457 840.427 319.531 840.72 323.535 840.525C328.418 840.33 328.516 840.33 329.199 843.748C329.785 846.384 329.59 847.459 328.418 848.338C326.953 849.509 326.953 849.802 328.809 851.756C331.152 854.392 333.008 860.252 333.008 865.427C333.008 868.162 333.789 870.017 336.133 872.556L339.16 876.072L340.527 873.045C341.211 871.287 341.797 867.478 341.797 864.646C341.797 861.716 342.188 859.373 342.774 859.373C343.262 859.373 344.824 861.131 346.191 863.279C347.461 865.33 349.512 867.576 350.586 868.162C351.758 868.748 352.539 870.213 352.539 871.677C352.539 873.045 353.418 875.779 354.492 877.732C355.469 879.685 356.641 882.517 356.934 883.982C357.617 887.693 361.328 889.939 364.551 888.767C367.09 887.791 367.383 888.084 369.531 894.822C369.824 895.896 371.094 896.482 372.949 896.482C377.441 896.482 378.418 898.24 378.125 905.369C378.027 908.787 377.637 913.084 377.344 914.841C376.856 917.381 377.051 917.869 378.125 917.478C378.906 917.185 380.176 917.576 380.859 918.455C381.543 919.236 382.617 919.92 383.203 919.92C384.863 919.92 388.672 924.119 388.672 925.974C388.672 926.853 389.746 927.83 391.113 928.123C392.481 928.513 393.555 929.295 393.555 929.978C393.555 930.662 394.922 933.103 396.582 935.447C399.512 939.353 399.902 939.548 403.223 938.963C412.793 937.4 412.109 937.888 412.109 932.029V926.658L415.82 927.341C420.508 928.22 420.899 928.416 420.899 930.662C420.899 934.47 423.047 937.498 426.367 938.084C428.125 938.377 430.078 939.256 430.762 940.037C431.348 940.818 432.52 941.404 433.399 941.404C434.18 941.404 437.207 942.185 440.039 943.064C444.922 944.529 445.41 944.529 447.07 943.064C449.316 941.013 450.195 941.013 450.195 942.869C450.195 943.65 451.074 944.334 452.051 944.334C454.395 944.334 455.274 946.287 455.957 953.123C456.543 958.103 456.738 958.494 459.277 958.787C460.84 958.982 462.695 958.591 463.477 957.908C464.551 957.029 465.234 957.127 466.797 958.494C468.555 960.056 468.848 960.154 471.191 958.591C473.633 957.029 473.633 957.029 473.633 959.47C473.633 960.935 473.242 962.888 472.656 963.865C471.973 965.134 472.07 965.916 473.145 966.795C474.121 967.576 474.609 969.724 474.609 972.849C474.609 977.244 474.316 977.732 471.191 979.588C469.336 980.759 467.774 982.42 467.774 983.298C467.774 984.177 467.285 985.447 466.602 986.131C465.234 987.498 469.531 993.455 473.535 995.603C475.098 996.384 476.66 997.752 476.953 998.631C477.539 1000.1 478.027 999.9 480.566 997.459C482.227 995.896 484.18 993.162 484.863 991.404C485.938 989.06 486.816 988.279 488.77 988.279C490.137 988.279 491.992 987.4 492.871 986.326C493.848 985.252 495.41 984.373 496.289 984.373C497.266 984.373 499.805 983.201 501.953 981.834C506.445 978.806 507.227 979.197 511.231 985.935C512.598 988.377 514.16 990.037 514.649 989.744C515.137 989.451 517.285 990.037 519.434 991.111L523.242 993.064L524.414 990.33C525.098 988.67 526.856 987.009 528.613 986.228C530.371 985.545 531.836 984.861 532.031 984.763C532.227 984.666 531.738 983.298 530.957 981.736C529.688 979.392 529.688 978.513 530.762 975.779C531.543 974.119 532.617 972.654 533.203 972.654C534.375 972.654 537.598 969.431 542.09 963.767L544.922 960.154L538.672 956.541C527.93 950.291 520.801 942.966 511.816 928.709C507.324 921.677 502.93 915.623 502.051 915.33C501.172 915.037 497.168 913.572 493.164 912.009C489.16 910.447 485.742 909.568 485.547 910.056C485.352 910.642 484.277 912.205 483.203 913.572C481.25 916.111 480.859 916.209 472.559 915.818C464.746 915.525 463.77 915.232 461.231 912.888C459.668 911.423 457.031 909.959 455.371 909.568C452.832 909.08 451.27 907.42 446.777 900.584C443.652 895.994 439.258 890.232 436.914 887.693C431.445 881.834 427.539 870.994 424.805 853.513C420.313 825.584 415.039 808.689 409.961 806.052C406.152 804.099 405.566 804.392 408.008 806.931C409.18 808.201 410.449 810.642 410.742 812.498L411.426 815.916L408.691 813.474C407.227 812.107 405.274 809.47 404.199 807.517C403.223 805.564 401.27 803.123 399.805 802.048C397.363 800.291 397.266 799.607 395.996 784.275C395.117 774.412 394.043 767.283 393.066 765.427C392.285 763.767 391.602 760.935 391.602 759.177C391.602 752.634 384.277 750.193 374.609 753.513C372.07 754.392 369.727 754.783 369.434 754.49C369.043 754.197 367.871 754.685 366.797 755.759C364.453 757.81 358.984 758.494 353.027 757.42C350.098 756.834 348.633 755.857 347.363 753.806C345.801 750.974 345.801 750.877 348.731 748.24C351.66 745.701 351.66 745.506 350.195 742.673C349.316 741.013 348.633 738.181 348.633 736.228C348.633 733.591 347.852 732.029 345.215 729.49C341.797 726.17 341.797 726.17 341.797 717.381C341.895 711.814 342.383 707.615 343.164 706.15C344.043 704.588 344.336 701.853 344.043 698.338C343.555 693.65 343.848 692.576 345.606 691.013C348.34 688.572 348.242 687.498 345.117 687.498C343.164 687.498 342.676 687.107 343.164 685.935C343.457 685.056 343.75 683.982 343.75 683.494C343.75 682.908 344.531 682.713 345.606 683.103C349.902 684.47 356.25 675.095 352.051 673.435C348.926 672.263 351.66 663.084 356.445 658.689C359.082 656.248 361.328 652.146 361.328 649.412C361.328 647.263 362.305 646.873 363.965 648.533C367.188 651.756 369.336 636.228 366.211 632.127C363.867 629.002 364.746 624.998 367.774 624.998C369.727 624.998 370.117 624.509 370.117 621.775C370.117 617.185 372.852 609.373 375.488 606.443C376.66 605.076 378.223 602.439 378.809 600.486C379.395 598.533 381.25 595.701 382.91 594.138C387.109 590.134 387.988 588.279 388.867 581.541C390.137 570.798 390.625 569.627 394.629 566.99C398.633 564.256 401.856 558.298 400.781 555.759C400.488 554.881 400 550.193 399.902 545.31C399.707 540.33 399.121 535.447 398.535 534.373C396.484 530.564 397.266 520.213 399.902 514.451C401.27 511.619 402.637 507.713 402.93 505.857C403.32 504.002 404.102 501.658 404.785 500.681C405.859 499.216 405.469 497.947 402.832 492.673C401.172 489.256 399.121 485.74 398.535 484.959C396.582 482.615 399.902 477.927 405.371 475.584C407.91 474.509 410.84 473.631 411.719 473.631C412.695 473.631 414.746 472.459 416.211 470.994C418.75 468.552 418.945 468.552 418.945 470.31C418.945 473.435 419.727 473.631 425.488 471.58C428.516 470.603 432.52 469.724 434.473 469.724C436.426 469.724 438.574 469.334 439.356 468.845C440.234 468.259 441.797 468.65 443.75 469.724C445.508 470.701 449.805 471.677 454.102 471.97C459.375 472.459 461.719 473.045 462.598 474.314C464.063 476.267 464.356 491.795 462.988 495.31C462.402 496.873 462.598 498.631 463.379 500.486C464.551 503.22 464.356 503.611 461.133 507.029C458.008 510.349 457.813 510.935 458.789 513.181C460.547 516.892 460.254 519.529 458.203 519.529C455.957 519.529 453.711 525.193 455.176 527.048C455.762 527.732 457.422 528.318 458.691 528.318C460.547 528.318 461.426 529.099 462.598 532.224C464.356 536.619 465.82 535.935 465.82 530.564C465.82 527.927 466.309 527.244 468.359 526.756C472.07 525.779 486.328 526.951 489.453 528.318C493.359 530.173 509.473 528.025 512.012 525.291C515.918 521.091 521.191 523.826 527.734 533.689C529.492 536.326 530.274 537.009 530.274 535.74C530.274 534.373 530.762 534.08 532.52 534.568C533.691 534.861 534.961 535.154 535.449 535.154C535.84 535.154 535.938 536.228 535.547 537.595C535.059 539.744 535.254 540.037 537.5 540.037C541.406 540.037 544.238 542.283 550.293 550.388C553.32 554.392 556.25 557.615 556.934 557.517C559.961 557.127 561.719 557.908 566.504 561.521C569.434 563.67 572.266 565.427 572.852 565.427C573.535 565.427 573.926 563.963 573.828 561.716C573.731 559.47 574.219 558.103 574.902 558.103C576.367 558.103 577.734 560.447 586.328 577.146C589.844 583.884 593.75 591.111 595.117 593.259L597.559 597.166L596.973 591.306C596.582 587.009 595.801 584.763 594.141 582.908C592.871 581.541 591.797 579.588 591.797 578.513C591.797 577.341 590.918 575.681 589.844 574.705C588.672 573.631 587.891 571.677 587.891 569.822C587.891 568.064 586.914 565.427 585.742 563.865C583.887 561.521 583.496 559.861 583.496 554.099C583.496 548.142 583.789 546.677 585.742 544.627L587.891 542.283L585.547 541.209C584.277 540.623 582.227 538.181 581.055 535.642C579.688 532.81 577.441 530.271 575 528.709C570.41 525.779 568.457 522.263 570.215 520.115C570.996 519.236 571.191 517.771 570.703 516.404C570.02 514.353 569.434 509.08 569.238 504.49C569.238 503.416 567.481 500.388 565.43 497.752C563.281 495.115 561.524 492.283 561.524 491.502C561.524 490.818 560.645 488.474 559.668 486.424C558.399 484.08 558.106 482.322 558.594 481.345C559.082 480.564 559.277 476.756 558.887 472.849L558.301 465.72L564.063 466.306C568.945 466.892 570.508 466.697 573.047 465.134C574.805 464.06 575.781 462.888 575.293 462.302C573.731 460.642 573.047 457.029 574.316 457.029C574.902 457.029 577.246 456.15 579.492 454.978C582.91 453.318 583.984 451.951 586.621 446.287C588.867 441.306 590.527 438.963 592.969 437.498C595.703 435.935 596.582 434.568 597.559 430.466C599.316 423.631 600.293 421.873 602.441 421.873C603.32 421.873 605.957 420.31 608.106 418.455C611.426 415.623 613.281 414.939 619.238 414.06C623.242 413.474 627.539 412.498 628.906 411.912C630.273 411.326 631.934 410.838 632.52 411.033C633.203 411.131 635.156 410.447 636.816 409.568C638.672 408.591 641.016 408.201 642.773 408.591C644.727 408.982 645.703 408.689 646.191 407.713C646.582 406.443 647.363 406.638 650.977 408.689C654.199 410.545 657.324 411.326 664.258 412.009C677.051 413.181 684.57 412.4 686.719 409.763L688.379 407.713L692.09 409.763C696.68 412.4 707.52 412.693 710.156 410.349C711.133 409.568 712.402 409.177 713.184 409.47C713.965 409.763 715.137 409.568 715.82 409.177C716.602 408.689 717.969 408.787 719.043 409.275C720.41 410.056 721.289 409.861 722.656 408.689C724.219 407.322 724.707 407.322 728.613 408.689C730.957 409.568 733.691 410.545 734.668 410.838C736.328 411.326 737.012 413.084 737.5 418.357C737.695 420.701 738.379 421.384 741.016 422.068C743.75 422.849 744.531 422.556 746.094 420.701C747.168 419.431 747.949 417.771 748.047 416.892C748.047 414.646 752.148 412.205 757.52 411.228C761.328 410.447 763.086 409.373 767.383 404.783L772.754 399.314L772.266 390.427C771.777 382.029 771.875 381.345 774.023 379.197C775.977 377.341 776.172 376.463 775.293 374.314C774.609 372.361 774.707 371.384 775.977 370.017C776.953 368.943 777.148 368.162 776.563 368.162C776.074 368.162 773.926 366.013 771.973 363.279L768.359 358.396L770.508 355.076C771.875 352.83 773.438 351.56 775.195 351.365C777.051 351.17 777.832 350.486 777.832 349.119C777.832 347.556 777.051 347.068 774.414 346.873C772.559 346.677 770.41 345.994 769.727 345.408C768.652 344.627 768.945 344.041 771.191 342.966C775.293 340.818 777.344 338.767 777.344 336.716C777.344 335.74 778.027 333.884 778.906 332.517C780.859 329.49 780.957 324.9 779.102 322.068C778.223 320.701 775.391 318.943 772.363 317.966C765.918 315.72 760.449 309.568 761.816 305.857C762.305 304.685 763.086 303.709 763.672 303.709C764.16 303.709 764.648 302.634 764.648 301.365C764.648 299.216 764.16 298.924 756.152 297.752C745.703 296.287 740.234 293.845 740.234 290.72C740.234 287.595 735.254 280.076 732.031 278.318C730.566 277.537 728.516 275.291 727.441 273.338C726.367 271.091 724.707 269.529 723.145 269.138C720.605 268.455 720.508 268.357 720.605 259.47C720.703 254.49 720.313 246.384 719.727 241.404C718.75 232.713 718.848 232.224 721.191 227.537C723.242 223.533 723.633 221.287 723.633 214.744C723.633 205.466 722.07 202.341 715.527 199.021C705.566 194.041 700.293 189.548 697.363 183.689C694.922 178.806 693.945 177.927 690.527 176.951C687.207 175.877 686.523 175.291 685.938 172.361C685.645 170.505 683.106 166.013 680.273 162.302C677.539 158.494 673.633 152.83 671.68 149.509C669.727 146.287 667.676 143.552 667.09 143.552C666.602 143.552 664.844 144.724 663.184 146.091C660.449 148.338 660.156 148.435 660.156 146.775C660.156 145.213 658.984 144.627 654.199 143.748C650.977 143.162 646.289 141.697 643.945 140.525C641.504 139.353 638.672 138.67 637.5 138.963C636.328 139.255 634.18 138.865 632.617 138.084C629.492 136.423 623.731 136.912 621.094 138.963C620.215 139.646 619.531 141.599 619.629 143.552C619.629 146.58 619.336 146.97 616.016 147.752C612.793 148.533 612.305 149.021 612.305 151.365C612.305 152.83 611.426 155.173 610.352 156.541C609.277 157.908 608.398 159.959 608.398 161.033C608.398 166.013 603.613 169.627 600.781 166.795C599.902 165.916 598.047 166.306 593.066 168.455C584.961 171.873 583.984 172.556 582.324 176.463C581.543 178.513 580.566 179.392 579.688 179.099C577.539 178.318 575 173.826 575.586 172.166C576.563 169.724 574.219 167.966 569.922 167.966C567.774 167.966 563.965 167.088 561.621 165.916C559.18 164.841 556.738 164.158 556.055 164.451C554.688 165.037 549.316 159.373 548.34 156.345C547.754 154.392 546.875 154.002 541.504 152.83C538.867 152.341 537.988 152.927 533.399 157.615L528.223 162.888L523.926 161.521C519.629 160.252 519.531 160.252 518.164 162.888C517.481 164.353 516.504 166.892 516.211 168.455C515.723 170.701 514.356 172.068 510.645 174.216C507.031 176.267 505.762 177.439 506.152 178.709C506.543 180.076 505.469 180.759 501.074 182.224C496.387 183.689 494.238 185.349 486.816 192.966L478.027 201.951L473.633 199.607C471.191 198.338 468.75 197.263 468.066 197.263C466.504 197.263 466.309 190.134 467.774 187.498C468.359 186.521 468.359 184.763 467.969 183.591C466.992 180.857 470.41 173.338 473.34 171.775C474.707 171.091 475.586 169.627 475.586 168.357C475.586 167.088 476.465 165.623 477.539 165.037C479.688 163.865 479.883 161.521 478.906 149.119C478.32 142.283 478.027 141.599 475.684 140.72C470.703 138.865 470.02 137.986 471.973 136.033C475.879 131.931 478.516 128.513 478.516 127.83C478.516 127.341 479.199 126.951 479.981 126.951C480.762 126.951 482.422 124.9 483.691 122.459C485.645 118.455 485.645 117.869 484.277 116.892C482.91 115.916 482.91 115.232 483.984 112.302C484.668 110.447 485.254 107.517 485.254 105.857C485.352 103.611 486.328 101.755 488.867 99.3141C492.285 96.0914 492.285 95.8961 490.332 95.2125C487.5 94.3336 484.375 87.8883 484.375 82.7125C484.375 80.4664 483.984 78.1227 483.496 77.5367C483.106 77.0485 482.227 75.193 481.641 73.4352C480.566 70.4078 480.664 70.1149 483.399 68.5524C486.719 66.6969 487.305 63.1813 484.766 60.4469C483.399 58.8844 482.91 58.8844 479.199 60.1539C475.586 61.4235 475.098 61.4235 473.242 59.6656C471.289 57.8102 468.066 57.1266 462.695 57.4196C461.328 57.5172 458.106 59.1774 455.566 61.1305C451.172 64.4508 450.879 64.5485 448.535 62.986C446.094 61.3258 441.016 61.7164 439.941 63.5719C439.063 64.9391 433.594 61.7164 433.594 59.7633C433.594 58.8844 432.715 57.5172 431.641 56.8336C430.566 56.15 429.688 54.7828 429.688 53.7086C429.688 52.6344 429.199 50.8766 428.516 49.9C426.758 47.068 428.906 43.0641 432.52 42.3805C435.449 41.7946 436.426 39.6461 437.988 29.7828C438.379 27.6344 438.867 24.6071 439.16 23.0446C439.649 20.4078 439.551 20.3102 437.305 20.7985C434.668 21.4821 431.25 18.5524 426.758 11.7164C422.266 4.97815 417.578 2.82971 416.406 7.22424C415.82 9.56799 409.18 14.6461 406.543 14.6461C405.274 14.6461 405.078 13.8649 405.566 10.3492C406.25 5.7594 404.492 2.92737 400.977 2.92737C400.098 2.92737 399.121 2.24377 398.828 1.46252C398.242 -0.0999756 393.848 -0.490601 391.992 0.778931Z" fill="black"/>
<path d="M551.758 561.03C551.758 561.225 552.832 563.862 554.199 566.889C556.25 571.577 557.227 572.651 561.035 574.311C566.406 576.752 567.578 576.166 564.648 572.455C563.477 570.991 561.621 568.256 560.645 566.303C559.57 564.448 557.617 562.397 556.152 561.713C553.516 560.541 551.758 560.248 551.758 561.03Z" fill="black"/>
<path d="M570.508 589.155C569.238 590.717 570.117 597.748 571.68 598.823C573.535 600.092 573.926 599.701 574.512 595.502C575.293 589.545 573.047 586.03 570.508 589.155Z" fill="black"/>
<path d="M278.613 702.144C277.344 702.632 276.367 703.901 276.367 704.976C276.367 706.05 275.488 707.417 274.414 708.003C272.461 709.077 271.777 712.983 273.047 716.108C273.926 718.355 284.375 706.538 283.984 703.804C283.692 701.362 281.836 700.874 278.613 702.144Z" fill="black"/>
<path d="M398.73 721.582C397.754 725.293 397.754 725.391 400.977 726.367L404.297 727.344V723.535C404.297 720.801 403.809 719.531 402.441 718.75C399.707 717.383 399.805 717.383 398.73 721.582Z" fill="black"/>
<path d="M397.266 734.277C394.336 734.766 393.75 735.156 394.531 736.328C395.02 737.109 395.508 739.844 395.508 742.383C395.508 745.02 395.898 747.07 396.484 747.07C398.242 747.07 404.102 741.211 405.273 738.184C406.348 735.645 406.348 735.059 405.176 734.277C403.711 733.398 402.832 733.398 397.266 734.277Z" fill="black"/>
<path d="M255.078 741.403C253.711 742.77 253.516 745.7 254.785 746.579C256.055 747.262 258.789 743.258 258.106 741.598C257.52 739.938 256.641 739.84 255.078 741.403Z" fill="black"/>
<path d="M374.023 926.562C374.023 927.539 373.34 929.199 372.559 930.468C370.898 932.812 371.484 934.765 374.805 937.792C377.93 940.624 379.492 939.062 379.688 932.714C379.883 927.539 379.59 926.953 377.344 925.976C374.121 924.511 374.023 924.511 374.023 926.562Z" fill="black"/>
<path d="M349.219 934.474C345.41 935.45 342.188 936.72 341.992 937.306C341.602 938.575 345.996 939.942 348.047 939.161C348.73 938.868 350.293 939.259 351.465 940.04C353.418 941.407 353.613 941.31 354.492 938.966C355.078 937.501 355.957 935.548 356.445 934.474C357.617 932.325 358.008 932.325 349.219 934.474Z" fill="black"/>
<path d="M386.23 943.848C384.668 944.531 381.348 945.605 378.906 945.996L374.512 946.875L377.637 948.828C380.957 950.781 381.836 952.637 381.836 957.715C381.836 960.254 382.227 960.938 383.789 960.938C384.961 960.938 386.23 959.961 386.914 958.496C387.598 956.934 388.77 956.055 390.137 956.055C395.312 956.055 396.387 950.684 392.188 945.02C390.039 941.992 390.137 942.09 386.23 943.848Z" fill="black"/>
<circle cx="434" cy="464" fill="#5CE50D"/>
<circle cx="633" cy="404" fill="#E52A0D"/>
<circle cx="380" cy="764" fill="#E52A0D"/>
<circle cx="357" cy="137" fill="#E52A0D"/>
</svg>
