<svg width="1000" height="1000" viewBox="0 0 1000 1000" fill="none" xmlns="http://www.w3.org/2000/svg">
<g clip-path="url(#clip0_1_3660)">
<rect width="1000" height="1000" />
<path d="M406.25 160.746C405.469 160.941 403.125 161.234 401.172 161.625C397.656 162.211 397.461 162.406 397.363 165.824C397.266 167.777 396.973 170.414 396.68 171.683C395.605 175.297 382.226 185.258 371.094 190.629C365.527 193.266 357.617 197.855 353.516 200.687C347.559 204.887 344.922 206.058 339.355 207.035C329.98 208.793 314.453 214.164 310.059 217.094L306.348 219.633L298.437 213.187C291.211 207.328 279.004 200.199 276.172 200.199C275.586 200.199 272.168 202.055 268.652 204.301C265.137 206.547 262.109 208.402 262.012 208.402C262.012 208.5 261.23 213.578 260.351 219.73C258.203 235.062 258.301 234.672 254.785 236.723L251.66 238.578L252.246 245.121C252.637 249.808 253.711 253.519 255.762 257.719C257.422 260.941 258.789 264.066 258.789 264.652C258.789 265.141 256.348 267.191 253.418 269.144C250.488 271.098 248.047 273.246 248.047 273.832C248.047 274.418 248.73 277.055 249.512 279.691L250.976 284.379L247.656 287.699C243.848 291.508 241.894 291.703 233.105 289.457C221.289 286.43 194.434 288.48 174.609 294.047C166.113 296.39 163.867 298.148 165.137 301.469C165.82 303.422 166.699 303.715 170.898 303.715C174.121 303.715 177.441 302.933 180.469 301.371C189.16 297.074 194.531 295.805 203.223 296.097C208.691 296.293 211.426 296.781 211.426 297.562C211.426 298.148 208.496 300.883 204.98 303.519C194.336 311.625 193.359 313.187 193.359 322.562C193.359 328.226 192.773 331.742 191.504 334.476C189.648 338.676 183.105 345.023 181.445 344.535C180.859 344.34 179.785 341.996 179.199 339.457C178.125 335.258 176.562 333.109 174.609 333.012C173.535 333.012 169.922 339.555 169.922 341.605C169.922 343.07 168.75 344.242 165.723 345.512C163.476 346.586 160.937 348.246 160.059 349.223C158.496 351.176 149.609 373.051 147.266 380.765C146.191 384.476 145.41 385.258 141.601 386.82C136.133 388.969 129.394 389.164 123.926 387.113C121.582 386.234 115.82 385.453 111.133 385.258C106.445 385.062 101.66 384.379 100.488 383.695C99.2187 383.012 90.9179 382.133 81.1523 381.644C66.6991 380.961 63.0859 380.473 57.2265 378.324C51.3671 376.176 49.3163 375.883 43.9452 376.469C38.4765 377.055 36.328 377.933 28.0273 383.012C22.7538 386.332 16.9921 390.824 15.1366 393.07C12.207 396.781 11.621 398.441 10.1562 407.523C8.59367 417.582 8.49602 417.777 4.78508 420.512C0.683517 423.539 -0.586015 426.371 0.390548 429.887C1.36711 433.598 3.90617 435.844 13.1835 441.312C18.0663 444.242 25.0976 448.832 29.0038 451.566C35.4491 456.058 36.2304 457.133 38.1835 462.406C41.1132 470.316 46.582 475.98 55.371 480.082C61.2304 482.816 63.4765 483.402 69.1405 483.402C72.8515 483.402 77.6366 482.816 79.7851 482.035L83.6913 480.668L89.6484 486.039C93.0663 489.066 95.703 492.191 95.703 493.265C95.703 494.242 94.1405 496.586 92.1874 498.344L88.6718 501.566L90.4296 505.18C91.7968 508.012 91.9921 509.476 91.2109 512.406C90.4296 515.531 90.9179 518.558 94.3359 532.035C96.582 540.726 99.0234 550.98 99.707 554.691C100.684 560.551 101.562 562.211 105.664 567.094C110.449 572.758 122.949 581.644 134.082 587.308C141.601 591.117 142.285 591.996 140.332 596.488C139.453 598.441 137.988 603.129 137.109 606.937C135.84 612.211 134.473 614.945 131.25 618.656C126.269 624.613 122.168 637.601 123.828 642.387L124.805 645.219L116.992 645.805C106.055 646.683 102.344 649.222 94.3359 661.137C90.9179 666.215 87.4023 671.683 86.621 673.344C85.0585 676.371 74.121 687.894 62.1093 699.222C51.953 708.793 49.8046 714.164 48.7304 732.719C47.7538 748.637 48.3398 751.273 53.2226 754.496C55.2734 755.863 55.664 756.84 55.664 760.844C55.664 767.387 57.8124 772.269 61.2304 773.539C68.0663 776.078 72.4609 778.812 78.9062 784.672C82.8124 788.187 87.7929 791.898 89.9413 793.07L93.9452 795.023L97.4609 792.68C104.199 788.187 111.816 784.379 116.211 783.207C118.652 782.621 121.973 780.863 123.535 779.398C128.711 774.613 134.961 771.781 145.996 769.144C151.953 767.68 158.691 765.922 161.133 765.14C163.574 764.457 167.09 763.383 168.945 762.992C171.68 762.308 172.461 761.625 172.851 759.281C173.242 757.23 174.121 756.156 176.172 755.375C178.613 754.594 179.199 754.789 181.055 757.133L183.301 759.867L186.719 756.058C188.672 753.91 190.527 751.176 190.918 750.004C191.406 748.344 192.09 748.051 193.652 748.441C199.707 750.199 201.172 750.199 201.66 748.637C201.953 747.758 202.344 746.293 202.637 745.414C203.027 744.242 203.418 744.047 204.297 744.926C206.25 746.879 209.961 746.39 209.961 744.242C209.961 741.703 212.402 739.945 214.844 740.726C216.016 741.117 218.359 742.582 220.019 744.047C225.098 748.539 242.09 759.867 245.312 760.941C248.926 762.211 258.008 760.453 261.914 757.719C263.281 756.644 265.137 754.008 265.918 751.664C267.285 747.66 267.187 747.367 264.941 744.633C261.133 739.945 257.812 732.719 257.812 729.203C257.812 726.957 259.473 723.344 263.281 717.191C269.922 706.644 271.875 704.496 276.562 702.055C278.613 700.98 280.957 698.832 281.738 697.269C282.91 694.926 283.691 694.437 285.449 694.828C291.406 696.39 317.48 693.949 322.07 691.508C323.144 690.922 325.781 690.433 327.832 690.433C330.859 690.433 331.836 690.922 333.105 693.265C334.18 695.023 337.305 697.269 342.187 699.711C346.387 701.762 350.488 704.496 351.269 705.765C353.613 709.281 358.008 708.89 359.766 704.789C361.621 700.785 362.891 699.32 367.48 695.902C370.312 693.754 371.484 691.898 372.656 687.601C373.535 684.574 375.293 680.57 376.562 678.715C380.273 673.344 379.101 665.726 374.023 661.137C370.703 658.207 369.238 652.64 369.141 643.265V636.722H371.973C373.437 636.722 375.879 635.844 377.246 634.769C378.613 633.597 381.445 632.133 383.496 631.449C387.598 630.082 389.648 626.859 391.699 618.754C392.676 614.945 393.457 613.773 395.898 612.797C400.976 610.648 404.394 607.328 406.836 602.152C408.105 599.418 409.18 595.707 409.18 593.949C409.18 591.996 410.156 589.457 411.523 587.601C412.891 585.844 414.941 580.961 416.113 576.664C420.019 563.09 425.098 558.5 439.062 555.961C443.848 555.082 449.121 554.398 450.684 554.301C452.344 554.203 454.492 553.617 455.566 553.031C457.031 552.152 458.008 552.25 459.961 553.324C461.328 554.105 463.574 555.082 465.137 555.668C466.601 556.156 467.773 557.133 467.773 557.816C467.773 559.769 473.242 564.457 475.488 564.457C476.855 564.457 477.539 565.043 477.539 566.41C477.539 567.387 478.418 568.754 479.492 569.34C480.566 569.926 481.445 571 481.445 571.781C481.445 573.734 485.84 575.785 492.969 576.957C500 578.226 506.836 582.719 506.836 586.234C506.836 587.406 507.91 589.164 509.277 590.336C511.523 592.191 511.621 592.484 510.547 596.976C509.863 599.711 508.691 602.055 507.617 602.64C506.348 603.324 505.859 604.789 505.859 608.207C505.859 610.844 505.371 613.383 504.883 613.871C503.418 615.336 502.148 624.515 503.125 626.273C503.516 627.152 503.32 629.105 502.441 631.254C501.66 633.109 500.976 636.43 500.976 638.578C500.976 641.996 501.367 642.777 503.906 644.047C505.469 644.828 507.324 645.512 508.105 645.512C508.887 645.512 509.863 646.39 510.351 647.465C511.23 649.32 511.328 649.32 515.527 646.586C518.164 644.828 521.68 643.558 525 643.07C529.199 642.582 530.566 641.898 532.227 639.652C533.984 637.113 534.473 637.015 537.109 637.992C540.332 639.164 540.527 640.043 538.965 644.242C537.598 647.953 535.937 660.062 535.644 668.949C535.449 676.859 533.789 688.676 532.715 690.433C532.324 691.019 532.617 694.535 533.301 698.148C534.18 703.617 534.18 705.765 533.203 709.672C532.519 712.211 531.836 718.558 531.738 723.637C531.641 730.18 530.762 735.648 529.004 742.191C526.074 752.738 525.781 759.183 527.832 769.047C528.613 772.758 529.297 777.152 529.297 778.715C529.297 780.277 530.469 783.012 532.227 785.16C534.668 788.285 534.961 789.262 534.277 791.703C533.594 794.144 533.887 795.512 535.937 798.93C537.305 801.273 538.672 804.789 538.965 806.644C539.453 809.281 540.137 810.16 541.797 810.355C543.164 810.551 544.531 811.82 545.117 813.285C545.801 814.75 547.266 816.996 548.437 818.363C549.707 819.73 552.051 824.125 553.711 828.031C555.273 832.035 557.129 835.844 557.715 836.625C558.301 837.308 560.84 837.894 563.379 837.992C565.82 838.09 568.945 838.383 570.312 838.773C573.047 839.555 583.984 835.648 585.156 833.5C585.547 832.816 587.109 831.742 588.574 831.156C590.137 830.472 592.578 827.933 594.141 825.492C596.387 821.976 598.242 820.512 603.125 818.363C606.445 816.801 611.035 813.773 613.184 811.625C615.332 809.476 618.359 807.426 619.824 807.035C621.387 806.644 623.34 805.57 624.219 804.594C625.098 803.715 627.246 802.64 628.906 802.25C631.055 801.762 632.91 800.101 635.84 795.805C638.574 791.801 640.332 790.043 641.797 790.043C643.848 790.043 645.801 788.969 656.25 781.937L660.644 779.008L668.75 780.18C675.684 781.156 677.344 781.156 679.883 779.887C681.543 779.008 684.961 778.031 687.598 777.738C693.652 776.957 699.707 772.562 700.586 768.558C700.879 766.898 701.465 764.359 701.758 762.699C702.148 760.941 704.687 757.719 708.594 753.91C712.012 750.687 714.844 747.465 714.844 746.683C714.844 745.902 716.406 744.73 718.262 744.047C721.094 742.972 721.68 742.289 721.68 740.043C721.68 738.578 722.07 737.308 722.656 737.308C723.144 737.308 724.219 735.844 725 733.988C726.269 730.961 726.758 730.668 732.031 730.082C735.254 729.691 739.746 729.301 742.187 729.105C744.629 729.008 747.754 728.129 749.316 727.152C751.562 725.687 751.953 724.711 751.953 721C751.953 717.582 752.539 716.215 754.492 714.359C755.957 712.992 757.519 711.918 758.008 711.918C758.594 711.918 760.059 711.039 761.328 710.062C763.379 708.402 764.844 708.207 770.312 708.695C775.684 709.086 777.148 708.89 778.223 707.621C778.906 706.742 780.176 706.058 781.055 706.058C782.617 706.058 786.426 704.984 793.457 702.543C795.996 701.664 797.559 701.469 798.242 702.152C798.828 702.738 800.684 703.129 802.539 703.129C804.687 703.129 807.129 704.105 809.473 705.961C814.551 709.965 816.699 710.355 820.996 708.109C824.219 706.547 825.195 706.449 827.637 707.426C830.078 708.5 830.957 709.867 832.617 715.043L834.668 721.488L831.445 723.051C829.59 723.832 827.539 724.32 826.66 724.027C825.684 723.637 824.902 724.32 824.219 726.078C822.852 729.691 822.949 730.277 825.098 730.961C826.172 731.254 827.441 732.816 828.027 734.476C829.004 737.406 829.102 737.406 834.668 736.722C840.918 736.039 840.43 736.234 850.488 728.129L857.519 722.367L859.57 724.32L861.523 726.371L864.355 723.246C866.309 720.902 868.555 719.73 872.363 718.851C884.277 716.215 884.766 715.922 886.719 711.625C888.281 707.816 888.965 707.328 896.094 704.691C903.516 701.957 903.809 701.957 908.594 703.422C912.207 704.496 915.332 704.691 919.922 704.105C925.781 703.519 926.465 703.617 928.223 705.668C929.297 706.84 931.543 708.5 933.203 709.281C936.035 710.746 936.328 710.648 938.965 708.597C940.527 707.328 942.578 706.547 943.457 706.742C944.434 707.035 946.777 706.742 948.73 706.058C951.953 704.984 953.125 705.18 959.668 707.621C966.894 710.355 967.09 710.551 969.922 716.312C971.582 719.535 972.949 722.269 973.144 722.465C973.242 722.562 976.66 720.805 980.566 718.461C984.57 716.117 989.941 713.383 992.578 712.308C998.633 709.965 1000.1 707.133 997.656 702.836C995.996 699.808 995.996 699.711 997.949 698.148C999.316 696.976 1000 695.316 1000 693.07C1000 687.504 996.484 684.281 985.84 680.082C976.855 676.566 976.465 676.273 973.828 671.39C969.238 662.894 968.457 660.453 969.141 656.058C969.727 652.347 970.605 651.273 975.586 647.465C982.617 642.094 983.105 639.75 977.637 637.211C975.488 636.332 972.559 634.281 971.094 632.719L968.359 629.887L971.387 626.176C977.539 618.558 976.367 611.332 967.285 600.199C963.281 595.316 962.109 592.777 959.668 584.574C954.199 565.043 953.906 562.406 956.641 551.078C959.668 538.187 959.57 536.234 956.055 530.472C949.609 520.023 941.797 515.922 918.262 510.648C908.496 508.5 908.105 508.5 904.394 510.258C900.488 512.015 900.488 512.015 894.141 509.281C890.625 507.816 886.914 506.84 885.84 507.133C884.766 507.328 883.008 506.937 881.836 506.156C879.492 504.496 870.703 504.789 864.062 506.84C860.644 507.816 860.352 508.207 860.352 511.527C860.254 513.48 859.668 516.215 858.984 517.582C857.812 519.633 857.812 520.414 859.375 523.539L861.23 527.055L855.762 528.324C847.949 529.984 840.82 528.91 836.23 525.297C833.594 523.148 831.738 522.465 829.785 522.758C827.539 523.051 826.562 522.465 824.609 520.023C823.34 518.265 822.266 515.629 822.266 514.066C822.266 511.82 820.996 509.867 816.894 505.863C812.598 501.566 811.523 499.906 811.523 497.367C811.523 495.609 810.644 492.777 809.668 491.117C808.594 489.359 807.227 484.965 806.543 481.351C805.469 475.492 805.566 474.32 807.227 470.316C808.984 466.117 809.375 465.824 814.355 464.652C820.801 463.285 822.266 460.844 819.922 456.156C818.848 454.105 816.504 452.152 812.988 450.492C808.301 448.148 807.422 447.269 805.078 441.996C803.516 438.676 801.367 432.719 800.195 428.715C798.242 422.074 797.852 421.39 795.312 420.902C792.578 420.414 792.48 420.219 791.699 412.113C790.723 401.664 791.211 399.808 795.508 397.269L798.926 395.316L796.582 392.191C793.945 388.871 791.309 387.992 783.496 387.797C778.027 387.699 772.754 390.043 758.691 399.027L752.148 403.129L731.348 405.668C719.824 407.035 698.437 409.086 683.789 410.16C658.691 412.015 656.445 412.308 645.215 415.726C630.859 420.121 627.637 422.367 620.898 432.816C612.988 445.219 610.742 445.219 592.48 432.23C585.449 427.348 579.297 423.441 578.809 423.637C578.223 423.832 575.293 425.101 572.363 426.469C567.09 429.008 566.797 429.008 561.426 427.64C556.25 426.273 555.664 426.273 553.32 428.031C549.609 430.765 546.875 429.496 546.875 425.004C546.875 423.051 546.191 418.07 545.215 413.969C543.75 406.84 543.457 406.351 540.137 404.887C538.086 403.91 534.375 403.422 531.152 403.519C523.73 403.715 517.773 400.101 513.672 392.875C506.836 380.765 500.781 379.984 481.738 388.383C474.805 391.508 467.285 395.512 464.941 397.367C462.695 399.223 454.59 403.519 446.973 407.035C439.355 410.453 431.934 414.164 430.566 415.14C424.512 419.437 417.48 416.117 414.551 407.719C412.793 402.543 412.793 402.055 414.355 399.125C415.234 397.367 416.211 394.34 416.601 392.289C417.187 388.969 416.894 388.187 413.965 385.16C410.937 382.035 410.351 381.84 404.199 381.84C400.684 381.84 395.898 382.523 393.652 383.305C390.234 384.476 388.281 384.574 382.519 383.598C375.586 382.523 375.488 382.621 370.312 385.648C367.48 387.308 364.941 388.676 364.648 388.676C364.355 388.676 361.523 387.113 358.398 385.16L352.734 381.644L348.437 384.086C344.238 386.527 344.043 386.625 313.965 387.113C297.363 387.504 279.199 387.992 273.73 388.285L263.769 388.773L261.816 384.867C260.156 381.742 259.766 379.105 259.766 371.586C259.766 362.601 259.57 361.918 255.371 352.836C252.93 347.66 250.976 342.875 250.976 342.094C250.976 341.312 252.344 337.601 253.906 333.793C255.664 329.691 256.836 325.199 256.836 322.66C256.836 319.437 257.324 318.168 258.789 317.387C261.426 315.922 261.816 316.312 265.137 323.148C266.699 326.469 268.359 329.105 268.945 329.105C269.531 329.105 272.363 328.031 275.195 326.664L280.273 324.32V317.484C280.273 311.625 280.566 310.453 282.226 309.574C283.496 308.89 284.18 307.523 284.18 305.765C284.18 303.324 284.473 303.031 286.23 303.422C287.402 303.812 289.355 303.129 291.211 301.762C293.848 299.808 294.726 299.711 296.973 300.492C299.414 301.469 300.488 301.078 306.641 297.172L313.574 292.68L322.851 293.363C332.324 294.047 352.539 299.32 368.262 305.277L375.684 308.012L386.523 304.789L397.363 301.469L407.422 302.836C415.43 304.008 417.48 304.594 417.383 305.765C417.285 306.644 416.992 309.281 416.601 311.722C415.918 316.019 416.016 316.215 418.945 317.387C421.875 318.558 422.168 318.461 426.269 314.457C429.101 311.722 430.664 309.183 431.055 306.84C431.934 301.469 437.598 294.242 441.601 293.461C443.457 293.07 446.68 290.922 449.414 288.285L454.101 283.793L467.48 282.328L480.957 280.766L481.25 276.078C481.543 271.781 481.445 271.488 479.199 271.488C477.832 271.488 474.902 272.367 472.559 273.344C470.215 274.418 465.625 275.59 462.402 275.98C457.617 276.566 454.98 277.641 447.559 282.426C441.894 286.039 438.086 287.992 437.305 287.504C436.621 287.113 433.301 284.574 430.078 282.035C424.609 277.738 424.023 276.957 423.34 272.66C422.559 267.387 421.387 265.629 418.848 265.629C417.871 265.629 416.504 264.75 415.82 263.676C414.941 262.406 413.086 261.527 409.961 261.137C407.324 260.746 405.273 260.16 405.273 259.672C405.273 259.183 402.148 255.473 398.34 251.469C392.383 245.219 391.601 244.047 393.164 243.461C394.238 243.168 396.387 241.801 398.047 240.531C399.707 239.262 402.148 238.285 403.516 238.285C405.176 238.285 407.129 237.113 408.887 235.062C410.449 233.402 413.965 230.863 416.601 229.496C419.531 228.031 421.484 226.273 421.68 225.101C422.07 223.148 424.316 221.098 438.281 210.258C446.387 204.008 446.387 204.105 437.5 199.613C434.57 198.148 431.934 196.781 431.738 196.683C431.543 196.488 432.324 194.828 433.496 192.875C435.84 188.871 435.254 186.918 431.152 184.183C429.785 183.305 427.637 180.18 426.367 177.25C424.121 172.172 423.828 172.074 418.652 170.902C413.769 169.73 413.086 169.242 411.523 165.922C409.668 161.625 408.398 160.355 406.25 160.746Z" fill="black"/>
<circle cx="186" cy="530" fill="#5CE50D"/>
<circle cx="481" cy="486" fill="#E52A0D"/>
<circle cx="216" cy="689" fill="#E52A0D"/>
<circle cx="636" cy="679" fill="#E52A0D"/>
</g>
<defs>
<clipPath id="clip0_1_3660">
<rect width="1000" height="1000" />
</clipPath>
</defs>
</svg>
