<svg width="1000" height="1000" viewBox="0 0 1000 1000" fill="none" xmlns="http://www.w3.org/2000/svg">
<rect width="1000" height="1000" />
<path d="M419.641 166.58C419.26 169.246 418.499 170.579 416.69 171.341C413.738 172.674 407.645 172.769 402.408 171.531C398.79 170.674 398.41 170.865 395.077 174.102C390.603 178.386 391.364 180.671 397.553 181.528C401.361 182.099 401.932 182.575 403.17 185.717C403.932 187.621 404.503 189.24 404.408 189.43C404.217 189.526 402.313 188.954 400.028 188.193C394.601 186.289 391.555 186.384 383.557 188.764C379.749 189.906 376.607 190.954 376.512 190.954C376.416 191.049 376.702 192.763 377.273 194.667C378.035 197.523 377.845 198.951 375.75 203.807C374.417 206.949 373.37 210.471 373.37 211.519C373.37 212.566 373.275 213.423 373.179 213.423C372.989 213.423 366.515 214.661 358.612 216.279C350.805 217.803 343.284 219.135 342.046 219.135C339 219.135 332.335 224.753 329.003 229.894C326.622 233.798 325.956 234.178 321.1 234.94C316.245 235.702 315.673 236.083 313.674 239.605C311.865 242.747 311.484 244.842 311.484 251.982C311.484 260.266 311.579 260.742 314.817 265.502C316.816 268.549 318.149 271.595 318.149 273.404C318.149 275.023 318.625 278.26 319.196 280.64C320.053 283.782 320.815 285.02 322.528 285.401L324.813 285.972L322.148 288.543C320.719 289.875 318.815 292.065 317.863 293.303L316.34 295.588L310.342 293.874C306.248 292.732 299.107 291.97 288.158 291.494C278.161 291.018 268.164 289.971 261.976 288.733C249.694 286.258 240.649 286.162 231.414 288.543C217.799 291.97 217.989 291.97 213.8 287.876C202.661 276.927 198.757 271.405 195.711 262.17C193.235 254.743 192.093 252.744 189.046 250.269C187.047 248.555 184.666 246.556 183.714 245.794C182.572 244.842 181.429 241.414 180.477 236.273L178.859 228.18L169.814 219.612C164.768 214.851 157.246 208.948 153.057 206.378C144.584 201.236 123.923 191.049 119.925 190.097C118.306 189.716 113.736 190.478 107.071 192.382C98.5979 194.762 94.98 195.333 87.0777 195.333C77.9376 195.333 77.0808 195.524 69.4641 198.951C65.1797 200.951 58.8007 203.14 55.4684 203.807C49.5655 204.949 48.899 205.425 31.1902 220.278C21.1933 228.752 12.9102 235.892 12.815 236.178C12.6246 236.463 13.9575 237.701 15.7665 238.939C18.4323 240.748 19.0035 241.89 19.4796 245.413C19.67 247.793 19.3844 251.602 18.6227 253.887L17.385 258.171L21.955 263.122C29.0957 271.119 32.3327 275.975 32.9992 280.355C33.38 282.544 34.9034 288.923 36.4267 294.541C39.9494 307.679 39.9494 310.536 36.3315 315.772C33.9513 319.2 33.1896 321.675 32.428 328.34C31.4759 335.576 30.9998 337.099 27.7627 341.383C25.3825 344.62 23.4783 348.81 22.0502 353.856C20.1461 360.52 20.0508 362.139 21.0029 367.851C21.5742 371.374 22.0502 377.658 22.0502 381.847C22.0502 386.322 22.4311 389.749 23.0975 390.13C23.6688 390.416 25.8586 393.367 27.9532 396.604L31.7615 402.412L31.1902 397.271C30.619 392.605 30.619 392.225 32.2375 392.986C33.1896 393.367 38.7117 393.938 44.4242 394.319C55.9445 394.891 70.6066 398.984 70.6066 401.46C70.6066 402.222 69.7497 404.983 68.7024 407.648C66.227 413.932 66.227 419.359 68.7976 422.787C70.7018 425.357 70.7018 425.643 69.1785 428.023C67.7503 430.213 66.8935 430.499 61.9426 430.499C56.5157 430.499 56.3253 430.403 56.3253 428.023C56.3253 426.69 56.8013 424.786 57.3726 423.739C59.6576 419.454 57.3726 420.311 51.0888 426.024C46.3284 430.308 43.6626 433.736 41.7584 437.734L39.1878 443.352L42.9009 452.872L46.7092 462.393V456.014L46.8044 449.635L49.9463 450.587C51.5649 451.064 55.0876 451.92 57.6582 452.396C68.8928 454.681 69.1785 454.777 71.8443 460.775C73.1772 463.726 74.5101 467.249 74.891 468.582C75.4622 470.677 78.3185 475.913 80.9843 480.007C81.5556 480.864 84.1262 481.625 87.4585 481.911C92.5046 482.387 92.9806 482.578 93.2662 484.767C93.4566 486.1 95.2656 488.671 97.4554 490.575L101.264 494.098L98.6931 502C96.7889 507.713 94.7896 511.426 91.9333 514.758C88.4106 518.947 87.8393 520.375 86.9825 526.183C86.5064 529.896 86.4112 535.228 86.8873 538.084C88.2202 547.415 87.7441 555.698 85.3639 567.599C82.4124 582.166 82.222 594.638 84.8879 609.967C85.9352 616.06 86.792 623.391 86.792 626.152C86.792 630.246 87.1729 631.389 88.5058 631.674C96.0273 633.769 101.93 634.626 109.737 634.626C118.782 634.721 119.068 634.626 126.875 630.627C131.445 628.247 136.777 626.247 139.252 625.962C147.535 625.01 151.534 618.535 151.534 606.063C151.534 601.969 151.629 601.779 155.723 599.97C158.675 598.732 160.483 597.113 162.102 594.352C163.816 591.306 165.53 589.878 170.29 587.688C173.622 586.069 178.859 582.832 182.001 580.452L187.713 576.072L201.328 574.359C213.039 572.931 215.324 572.835 218.656 573.978C220.75 574.739 226.749 575.692 231.985 576.168C253.788 578.167 260.452 576.834 262.357 569.979C263.214 567.028 264.451 565.504 268.164 563.124C271.497 560.934 273.496 560.173 274.829 560.649C275.876 561.029 280.827 561.315 285.778 561.41C293.585 561.505 295.489 561.886 299.678 563.981C302.249 565.409 306.057 566.837 308.057 567.123C311.103 567.789 312.055 567.408 315.293 564.838C317.482 563.124 320.053 561.886 321.672 561.886C324.147 561.886 324.813 562.648 328.431 569.979C330.621 574.454 332.43 579.214 332.43 580.452C332.43 587.021 339.19 590.83 358.517 595.209C365.372 596.733 375.274 599.589 380.51 601.684L389.936 605.397L391.079 609.967C392.412 615.203 392.697 615.489 397.077 617.012C402.599 618.821 408.216 618.345 412.596 615.584L416.595 613.013L421.736 614.632C426.02 616.06 427.544 616.155 431.257 615.203C435.541 614.061 435.922 614.156 440.968 617.107C443.824 618.821 448.394 621.011 451.155 621.963C453.916 622.82 457.725 624.724 459.724 626.057C462.295 627.866 464.58 628.532 467.817 628.532H472.387V634.435C472.387 639.577 473.053 641.671 476.481 648.526C480.003 655.667 481.051 656.904 484.764 658.713C487.144 659.951 489.81 661.76 490.667 662.903C492.095 664.616 493.237 664.807 499.997 664.616L507.614 664.426L509.804 667.663C511.422 670.138 512.946 670.995 516.183 671.662C521.8 672.804 523.514 674.423 526.846 681.849C531.13 691.37 535.129 696.987 538.557 698.415C540.366 699.177 542.079 700.891 542.746 702.605C543.412 704.128 544.84 705.746 545.983 706.032C547.125 706.318 559.503 706.603 573.498 706.603H598.919L600.347 711.554C601.109 714.315 601.966 720.409 602.346 725.169C602.632 729.834 603.489 736.689 604.251 740.402C605.488 746.496 605.393 747.924 603.489 757.921C601.394 768.679 601.394 768.775 603.299 770.012C608.916 773.725 608.821 773.535 609.106 782.294C609.297 786.864 609.677 791.815 609.963 793.338C610.534 795.814 610.915 796.099 614.628 796.099C618.437 796.099 619.008 796.48 623.768 802.002C630.243 809.809 633.67 812.094 640.811 813.808C646.238 815.046 647.38 814.951 653.569 813.427C662.994 811.047 668.612 812.094 671.468 816.664C672.515 818.473 674.8 820.663 676.419 821.425C681.465 823.995 683.655 826.566 685.178 831.898C686.035 834.754 686.987 837.039 687.463 837.039C687.939 837.039 691.747 833.612 695.936 829.327L703.648 821.71L708.409 824.091C711.36 825.614 714.788 826.566 717.454 826.566C721.357 826.566 722.119 826.09 730.021 818.759C734.686 814.379 740.494 809.809 743.065 808.476C747.254 806.191 747.539 805.906 747.539 802.193C747.539 800.003 747.825 796.29 748.111 793.91C748.682 789.816 748.872 789.53 752.966 788.387L757.156 787.245L752.395 782.389C749.444 779.438 747.349 776.296 746.968 774.392L746.397 771.345L750.681 771.916C754.299 772.488 756.489 772.012 763.915 768.965C768.771 767.061 774.96 764.205 777.625 762.681C780.291 761.158 783.719 759.92 785.242 759.92C786.765 759.92 790.383 758.968 793.24 757.826C796.191 756.683 801.618 755.541 805.617 755.16C813.329 754.684 813.138 754.779 811.996 748.495C811.52 746.401 812.091 745.829 817.327 743.449C820.564 742.021 824.373 740.878 825.896 740.878C827.515 740.878 828.467 740.402 828.467 739.45C828.467 738.689 830.276 737.26 832.561 736.308C835.607 734.975 837.892 732.786 841.034 728.406C850.079 715.553 850.365 714.791 850.365 703.081V692.512L855.125 681.849C858.838 673.471 859.886 670.138 859.886 666.14C859.886 663.379 860.171 659.189 860.457 656.714C861.123 652.334 861.123 652.334 869.311 647.955C877.023 643.766 877.88 643.48 883.973 643.67C887.496 643.766 892.637 643.29 895.398 642.433C898.064 641.671 903.206 640.529 906.633 639.957L913.012 638.815L915.011 632.055C916.154 628.247 917.011 624.153 917.011 623.01C917.011 620.154 921.39 613.965 924.723 611.966C927.103 610.538 927.388 610.538 928.721 612.632C929.578 613.965 932.244 615.489 935.672 616.536C938.813 617.488 943.479 619.488 946.24 621.011C951.857 624.153 963.092 626.819 969.375 626.628C976.135 626.438 979.182 624.153 980.134 618.535C980.705 615.394 980.515 612.537 979.848 610.157C979.087 607.396 979.087 605.301 979.848 601.588C980.61 598.351 980.705 595.495 980.134 593.305C978.992 588.926 980.42 582.071 983.085 579.024C987.751 573.787 987.751 573.692 985.656 569.789C983.562 565.504 980.42 563.79 975.088 563.79C972.422 563.79 968.709 562.458 962.52 559.125C957.665 556.555 952.333 554.174 950.715 553.794C949.096 553.508 946.716 552.175 945.478 550.842C942.812 547.986 938.242 546.653 931.102 546.653C926.341 546.653 925.484 546.939 923.39 549.509C922.057 551.033 920.343 552.365 919.677 552.365C914.726 552.365 897.303 543.13 876.547 529.611C869.787 525.231 859.219 519.233 853.221 516.377C842.558 511.235 835.512 506.38 822.564 494.955L816.28 489.337L810.948 491.051L805.712 492.67L788.479 482.292C772.008 472.39 771.056 471.533 765.058 464.012C759.345 456.871 757.917 455.729 750.491 451.92C746.016 449.635 740.78 446.208 738.971 444.304C735.353 440.4 707.742 421.93 694.984 414.789C687.653 410.695 686.701 409.838 684.416 405.173C682.702 401.65 681.846 398.413 681.846 395.271C681.846 391.749 681.179 389.559 678.989 386.036C677.371 383.465 675.847 379.657 675.562 377.563C675.276 375.563 674.134 371.85 673.086 369.375C671.373 365.566 670.516 364.709 666.231 363.091C661.852 361.472 661.376 360.996 661.09 358.14C660.9 356.331 659.567 353.189 658.139 351.095C652.426 342.716 648.523 333.671 648.427 328.435C648.427 325.674 647.666 321.294 646.809 318.819C643.191 308.632 627.482 294.35 619.865 294.35C617.961 294.35 614.533 293.684 612.343 292.922C610.154 292.16 608.154 291.494 608.059 291.494C607.869 291.494 607.488 293.398 607.202 295.683C606.25 301.491 603.203 303.586 597.681 301.967C595.491 301.396 592.159 299.872 590.255 298.539C585.971 295.778 585.495 295.778 583.305 298.159C581.686 299.872 581.496 299.872 578.639 298.444C573.689 295.778 565.977 295.302 560.074 297.302C550.172 300.729 541.984 297.778 525.894 285.02C522.371 282.164 521.99 281.497 522.466 278.831C522.847 277.117 523.895 273.976 524.942 271.691L526.846 267.597L523.895 260.932C520.562 253.411 520.372 252.268 522.371 250.554C523.609 249.507 524.561 249.697 527.703 251.411C529.797 252.649 531.797 253.411 531.987 253.125C532.273 252.839 532.178 251.126 531.892 249.317C531.321 246.556 530.083 245.127 523.99 240.748C519.896 237.892 514.945 235.035 512.946 234.369L509.137 233.131L511.232 231.417C512.374 230.561 513.802 229.608 514.279 229.418C514.85 229.228 514.755 227.799 514.088 225.514C513.136 222.373 513.231 221.42 514.659 218.755C516.183 215.898 516.183 215.327 514.945 212.852C512.374 207.806 506.376 204.188 497.427 201.998C492.857 200.951 491.904 201.046 487.144 203.045L481.908 205.235L473.624 202.379L465.246 199.618L464.96 195.714C464.77 192.572 463.913 191.049 460.581 187.812C456.963 184.289 456.106 183.908 454.488 184.765C453.44 185.336 450.679 185.812 448.394 185.812C444.395 185.812 443.919 185.432 432.875 174.387C426.591 168.104 421.165 162.962 420.879 162.962C420.498 162.962 420.022 164.581 419.641 166.58Z" fill="black"/>
<circle cx="404" cy="585" fill="#5CE50D"/>
<circle cx="73" cy="406" fill="#E52A0D"/>
<circle cx="404" cy="316" fill="#E52A0D"/>
<circle cx="789" cy="599" fill="#E52A0D"/>
</svg>
