<svg width="1000" height="1000" viewBox="0 0 1000 1000" fill="none" xmlns="http://www.w3.org/2000/svg">
<rect width="1000" height="1000" />
<path d="M532.896 20.4186C530.357 22.299 526.221 23.4271 511.836 26.2476C506.759 27.1877 501.965 28.504 501.306 29.0681C499.614 30.4783 486.546 31.3245 484.384 30.1022C482.879 29.2561 481.657 30.0082 476.486 34.9911C470.657 40.632 469.999 41.0081 464.64 41.6662C459.093 42.2303 458.623 42.5123 452.888 48.4354C449.598 51.8199 443.675 57.1788 439.82 60.2814L432.769 66.1104L425.718 66.2044C421.769 66.2984 417.162 66.9565 415.188 67.8027C411.991 69.1189 411.709 69.589 410.205 76.3581L408.607 83.5033L400.521 88.3922C396.009 91.0246 392.06 93.657 391.684 94.2211C391.308 94.7852 390.932 98.4518 390.932 102.401V109.546L381.06 111.52L371.094 113.494L363.573 120.358L356.052 127.221L368.744 133.332L381.342 139.443L375.231 153.075C366.958 171.408 361.505 192.092 360 211.459L358.872 225.185L364.137 234.211L369.308 243.236V255.647C369.308 267.681 369.214 268.151 366.394 273.039L363.573 278.022L364.795 286.296L366.112 294.569L371.282 294.851L376.453 295.133L378.052 301.338L379.65 307.637L375.701 311.868C373.445 314.219 369.214 318.731 366.3 321.834L360.847 327.475L352.855 354.927C348.437 370.064 344.864 382.662 344.864 382.944C344.864 383.132 341.479 384.919 337.343 386.799L329.915 390.183L330.479 394.226C331.138 399.021 331.232 399.021 318.445 399.867L309.42 400.525L301.993 411.337C295.506 420.739 294.283 423.277 292.121 431.174C289.3 441.61 290.993 440.67 276.514 439.542L268.899 438.884L263.258 443.584C257.993 447.909 257.523 448.755 255.267 455.995C253.386 462.012 252.54 467.465 251.788 479.311L250.754 494.823L253.668 507.045C256.301 518.139 257.147 520.302 263.446 531.019C269.369 540.985 271.155 545.216 275.386 558.566L280.369 574.455L288.83 578.779C294.659 581.788 298.984 584.891 302.557 588.557C306.693 592.788 308.856 594.198 313.275 595.608C318.727 597.207 319.104 597.583 327.847 608.583C332.736 614.788 337.061 620.335 337.437 620.805C337.813 621.369 339.505 631.522 341.103 643.368C342.608 655.308 344.112 665.932 344.394 667.06C344.676 668.377 359.248 679.941 386.889 700.812C410.111 718.205 429.102 732.59 429.196 732.684C429.29 732.684 440.948 788.435 454.957 856.409C468.965 924.288 480.811 980.228 481.093 980.604C481.469 980.98 489.931 978.441 499.99 974.869C513.811 969.98 521.52 967.818 531.298 966.219L544.272 963.963L561.947 942.245L579.622 920.528L582.63 901.348C584.229 890.818 585.545 881.229 585.545 880.195C585.545 879.066 582.16 867.126 578.024 853.682L570.502 829.238L571.066 819.648L571.724 810.153L580.562 800.375L589.399 790.691L600.869 787.683L612.339 784.674L616.852 778.469C619.391 774.991 622.681 770.196 624.185 767.752C625.69 765.307 628.886 761.735 631.331 759.948C635.185 757.128 636.501 756.658 640.168 756.846L644.587 757.128L653.518 746.786L662.45 736.444L686.8 723.846C708.424 712.752 712.09 710.59 718.577 704.667C724.03 699.684 727.885 697.052 733.526 694.607L741.047 691.317L743.868 685.018L746.594 678.718L739.261 667.625L731.928 656.625L733.056 651.36C733.62 648.539 734.372 645.155 734.748 643.933C735.218 641.864 735.124 641.864 733.15 642.898C730.988 644.027 730.988 643.933 731.552 640.454C731.928 638.48 733.432 635.001 735.03 632.745C737.569 629.172 737.945 627.668 738.509 620.052C738.979 612.813 738.791 611.215 737.569 610.087C735.406 608.3 730.423 609.617 729.201 612.343C727.227 616.668 725.817 615.822 724.5 609.711C723.372 604.258 723.09 603.882 719.988 603.036C716.979 602.189 715.381 600.967 715.287 599.557C715.287 599.275 718.013 599.557 721.304 600.121C726.193 601.061 727.697 601.061 729.765 599.933C731.646 598.899 732.68 598.899 734.184 599.745C735.312 600.309 738.509 600.779 741.423 600.873C746.312 600.873 746.594 600.779 747.816 597.771C749.415 594.01 749.133 593.446 744.714 592.6C742.74 592.318 738.979 590.625 736.346 588.933C730.329 584.891 723.654 581.506 723.09 582.164C722.808 582.352 723.748 584.232 725.065 586.207C726.381 588.087 727.509 590.155 727.509 590.625C727.509 591.096 723.56 591.284 718.107 590.908C706.731 590.343 703.253 588.557 699.68 581.694C697.612 577.557 697.518 576.993 698.928 576.429C699.774 576.147 703.253 576.523 706.637 577.275C710.21 578.215 713.595 578.497 714.723 578.027C716.321 577.463 715.287 576.899 709.646 575.207C705.133 573.891 701.561 572.104 699.68 570.318C697.424 568.156 696.202 567.686 694.603 568.156C692.535 568.814 692.441 568.626 693.005 565.053C693.381 562.985 693.193 560.07 692.629 558.472C691.877 556.122 691.971 554.993 693.569 551.797C694.697 549.729 695.543 547.096 695.543 545.968C695.543 543.806 690.937 534.78 689.903 534.78C689.526 534.78 686.612 533.088 683.603 531.019L677.963 527.259L673.356 528.857C670.817 529.703 668.655 530.455 668.467 530.549C668.373 530.643 668.655 531.96 669.219 533.37C671.757 540.045 666.493 545.31 654.741 547.754C648.63 548.976 648.159 548.976 645.809 547.284C644.493 546.25 642.707 544.276 641.954 542.959C640.638 540.609 640.732 540.327 644.211 536.754C647.407 533.464 647.971 532.242 648.253 528.011C648.818 520.866 647.971 520.019 641.672 521.336C638.852 521.9 633.775 523.498 630.39 524.814C624.938 527.071 623.903 527.165 619.297 526.319C608.203 524.062 602.656 520.96 590.152 509.678C575.673 496.704 573.229 493.601 569.562 484.481C567.964 480.533 565.707 475.268 564.391 472.729C561.195 466.524 561.195 459.285 564.297 453.174C565.519 450.73 567.118 446.969 567.776 444.713C568.622 441.61 569.938 439.918 572.947 437.849C575.203 436.345 577.835 433.901 578.87 432.397C580.468 430.14 581.596 429.67 586.015 429.294C588.835 429.012 591.938 428.166 592.784 427.414C593.724 426.568 595.981 425.627 597.767 425.251C601.716 424.405 607.262 420.551 609.613 417.072C610.647 415.568 613.844 413.405 617.04 411.995C629.638 406.448 632.177 404.944 633.963 402.217C634.997 400.713 636.595 399.115 637.536 398.833C638.382 398.551 639.792 397.047 640.544 395.542C641.39 393.944 643.083 392.628 644.587 392.252C650.228 390.842 652.296 389.149 652.296 385.859C652.296 383.32 653.142 382.004 656.339 378.996C658.501 377.021 661.604 374.859 663.108 374.201C664.706 373.449 668.185 369.876 671.381 365.739C675.518 360.192 676.74 357.842 676.74 355.209C676.834 350.791 678.245 348.628 683.98 344.116C688.022 340.825 688.868 339.697 689.432 336.218C690.655 328.133 691.031 327.099 692.911 326.441C693.945 326.159 695.355 324.56 696.014 322.868C696.766 321.176 697.894 319.295 698.646 318.637C699.398 318.073 700.338 316.475 700.62 315.253C701.09 313.56 702.031 312.808 704.475 312.338C707.39 311.868 707.672 311.586 706.637 310.27C705.979 309.518 703.253 307.919 700.62 306.697C696.954 305.099 695.261 303.595 693.381 300.492C691.313 296.92 691.125 295.697 691.501 289.868C691.783 286.202 692.535 282.441 693.193 281.407C695.355 277.928 695.261 275.86 692.911 272.663C691.031 270.031 690.655 268.715 691.031 264.86C691.501 260.347 691.407 260.159 686.424 254.706C682.287 250.1 680.783 249.065 677.398 248.501C670.253 247.373 670.159 247.373 670.159 242.86C670.159 239.1 669.783 238.442 666.681 236.373C663.484 234.117 663.014 234.117 661.04 235.339C659.911 236.091 657.373 236.749 655.399 236.655C652.108 236.655 651.356 236.091 645.339 228.57C640.544 222.647 638.1 218.51 635.937 212.869C634.339 208.639 631.801 203.656 630.296 201.681L627.664 198.203L628.04 185.323L628.51 172.348L633.211 162.007L638.006 151.665L642.707 151.195C645.245 150.913 648.065 150.161 648.912 149.409C649.758 148.656 654.741 146.964 659.911 145.46C665.176 144.05 669.595 142.733 669.689 142.545C669.783 142.357 672.039 138.033 674.672 132.862C682.945 116.315 701.843 92.1528 705.321 93.469C706.073 93.751 707.484 92.8109 708.612 91.4947C710.398 89.0503 710.492 88.7682 708.988 85.5717C708.142 83.5974 707.296 80.5888 707.013 78.8026C706.825 77.0162 705.791 74.3838 704.757 72.8795C703.535 71.0932 703.065 69.4949 703.535 67.7086C703.911 65.6403 703.441 64.5121 700.996 62.1617L697.894 59.1532L691.031 62.3497C685.578 64.9822 683.886 66.2984 682.663 69.0248C680.031 74.4778 667.339 81.435 655.399 84.0674L647.783 85.6657L643.929 92.4348C641.766 96.1014 640.074 99.7681 640.074 100.614C640.074 101.648 638.382 102.307 633.587 103.153C624.279 104.657 620.331 104.469 616.758 102.307C615.066 101.272 613.091 99.0159 612.433 97.4177C611.211 94.5032 611.023 94.4092 605.758 94.6912C600.117 94.9733 598.707 94.1271 598.707 90.7426C598.707 88.3922 603.69 86.5118 611.775 85.7597C615.442 85.3837 618.45 84.8195 618.45 84.4435C618.45 82.8452 611.117 77.2042 607.074 75.7C602.186 73.8197 600.963 71.9393 599.177 63.3839C597.673 56.6147 598.143 55.2985 601.622 55.2985C603.69 55.2985 604.348 54.8284 604.348 53.4182C604.348 52.384 603.784 51.3499 603.22 51.1618C602.562 50.9738 599.929 50.2217 597.391 49.5635C593.254 48.5294 592.972 48.2473 594.57 47.1191C595.51 46.4611 597.391 45.8969 598.895 45.8969C601.904 45.8969 609.049 43.2645 609.049 42.1363C609.049 40.8201 607.357 40.0679 592.596 34.521L578.494 29.2561L574.545 31.0424C571.16 32.5467 569.938 32.6407 566.836 31.7946C563.639 30.9484 562.887 30.2903 562.041 27.2818C561.571 25.4014 561.101 23.2391 561.101 22.675C561.101 22.0169 560.16 21.2648 559.032 21.0767C552.263 19.6665 549.537 19.3845 542.768 19.1024C536.656 18.8203 534.776 19.1024 532.896 20.4186Z" fill="black"/>
<path d="M669.595 493.786C668.749 495.949 663.954 496.607 661.51 494.915C658.971 493.128 653.424 493.034 651.262 494.633C647.501 497.453 646.467 509.205 649.476 515.034C651.262 518.513 653.236 520.017 653.236 517.855C653.236 516.256 658.501 516.82 660.099 518.607C661.04 519.547 661.698 521.897 661.698 523.684C661.698 525.564 662.262 527.538 663.014 528.102C664.142 529.042 664.706 528.76 666.023 526.88C668.185 523.401 675.8 518.419 675.8 520.299C675.8 522.649 677.492 520.863 678.151 517.761C678.715 515.504 679.749 514.47 683.039 512.966L687.176 511.179L686.894 506.291C686.612 501.684 686.424 501.402 683.792 500.932C680.313 500.368 677.586 498.487 675.424 495.009C673.544 492.282 670.441 491.624 669.595 493.786Z" fill="black"/>
<circle cx="601" cy="91" fill="#5CE50D"/>
<circle cx="657" cy="246" fill="#E52A0D"/>
<circle cx="571" cy="462" fill="#E52A0D"/>
<circle cx="717" cy="616" fill="#E52A0D"/>
</svg>
