<svg width="1000" height="1000" viewBox="0 0 1000 1000" fill="none" xmlns="http://www.w3.org/2000/svg">
<rect width="1000" height="1000" />
<path d="M958.769 53.8569C955.283 55.1758 955.283 55.3642 956.319 61.5817C956.884 64.973 956.696 65.6324 954.812 66.8571C950.479 69.7774 947.37 69.6832 939.457 66.5745C932.58 63.9368 931.355 63.7484 924.855 64.3136C919.862 64.7846 916.565 65.6324 913.645 67.3281C907.333 71.0021 902.246 75.9949 902.246 78.5384C902.246 80.7051 901.869 80.7993 896.876 80.7993C892.354 80.7993 889.717 81.553 881.992 85.1327C876.811 87.582 869.18 90.4082 864.941 91.4444C857.405 93.3285 857.311 93.4227 853.919 98.6039C847.607 108.213 840.919 114.242 833.194 117.162C820.853 121.778 819.817 122.532 813.788 131.575C810.679 136.191 806.817 140.902 805.216 142.032C803.52 143.257 799.94 146.931 797.114 150.416C792.781 155.692 791.179 156.916 786.563 158.518L781.193 160.402L780.911 165.301C780.628 169.728 780.346 170.388 778.273 170.859C777.048 171.141 775.164 172.649 774.128 174.062C772.432 176.511 771.961 176.605 768.758 175.851C761.693 174.25 761.599 174.344 762.258 180.373C763.577 191.678 762.729 190.83 772.527 191.207C780.722 191.489 781.476 191.678 786.375 195.069C790.331 197.707 792.498 198.555 795.512 198.555C798.904 198.555 799.563 198.272 799.563 196.765C799.563 195.258 800.317 194.881 803.143 194.598C806.063 194.41 806.723 193.939 806.911 191.96C807.1 190.736 808.513 188.192 810.114 186.402C811.621 184.707 813.317 182.257 813.882 181.033C814.542 179.714 816.614 178.207 819.158 177.17C821.513 176.322 824.622 174.533 826.223 173.214C828.861 170.953 829.143 170.953 834.325 172.083C844.781 174.533 846.571 174.533 847.513 171.895C848.078 170.482 849.303 169.351 850.528 169.163C852.035 168.975 852.883 167.844 853.637 165.112L854.767 161.344L871.63 160.779C892.637 160.119 897.442 158.8 901.21 152.677C902.717 150.228 905.26 147.779 907.992 146.271C910.442 144.952 914.021 142.126 916 139.96C918.355 137.228 920.804 135.626 923.348 134.967C926.645 134.119 927.21 133.554 927.493 131.199C927.681 129.597 928.906 127.242 930.225 125.829C931.543 124.51 932.297 122.909 932.014 122.343C931.261 121.119 940.21 121.025 946.239 122.155C949.536 122.814 950.479 122.626 953.022 120.648C955.377 118.764 955.942 117.633 955.942 114.713C955.942 111.981 956.508 110.662 958.015 109.532C960.087 108.213 960.276 108.213 961.877 110.474C964.421 113.865 968.189 113.582 971.109 109.72C973.182 106.988 973.37 105.858 973.37 96.8141C973.276 91.3502 972.899 85.3211 972.522 83.3428C971.769 80.0457 971.957 79.4805 974.783 76.5601C976.573 74.7703 978.646 71.0963 979.588 68.3644C980.436 65.6324 981.472 62.6179 981.849 61.7701C982.32 60.5454 981.754 59.886 979.211 58.7555C976.95 57.8135 975.819 56.683 975.537 55.1758C975.254 53.1975 974.783 53.0091 968.66 52.8207C965.08 52.7265 960.558 53.1975 958.769 53.8569Z" fill="black"/>
<path d="M696.881 401.656C688.874 405.047 683.598 405.613 671.823 404.294C642.054 400.902 628.865 401.279 622.648 405.613C620.387 407.308 618.974 407.591 616.054 407.12C611.343 406.366 589.959 409.192 582.423 411.547C578.372 412.772 573.85 413.337 566.785 413.337C557.364 413.337 556.705 413.432 553.125 416.069C551.147 417.577 542.857 422.098 534.85 426.149L520.248 433.591H501.878C490.008 433.685 482.849 434.062 481.53 434.816C480.023 435.664 478.327 435.475 473.523 433.968C465.704 431.425 457.602 430.388 439.703 429.446C426.515 428.787 424.631 428.504 420.203 426.243C416.812 424.548 413.797 423.7 410.688 423.7H406.167L402.21 429.823L398.348 435.946H392.036C386.195 435.946 385.536 436.135 382.144 439.243C379.224 441.787 377.623 442.541 374.796 442.541C370.086 442.541 365.282 446.686 365.282 450.736C365.282 453.28 364.905 453.563 360.477 454.599C352.658 456.389 351.151 456.2 351.151 453.092C351.151 451.584 350.398 449.7 349.456 448.852C347.854 447.345 347.571 447.439 345.499 449.606C344.18 451.019 342.202 451.961 340.6 451.961C338.434 451.961 337.963 451.584 337.963 449.7C337.963 447.251 337.209 446.874 331.18 445.744L327.6 445.178V450.36V455.541L318.839 457.048C310.078 458.65 309.984 458.65 306.498 456.577L303.013 454.599L298.868 457.802C294.723 461.005 294.534 461.099 283.041 461.758C276.541 462.041 269.288 462.983 266.744 463.737C263.541 464.679 257.701 465.15 247.997 465.15C234.338 465.15 233.773 465.244 229.439 467.787C222.657 471.65 211.917 480.411 210.787 482.954C209.845 485.027 209.562 485.121 202.591 484.462L195.431 483.802L195.997 486.063C196.374 487.193 196.656 488.983 196.656 489.831C196.656 490.679 197.692 492.657 199.011 494.259C201.272 496.802 201.366 497.556 200.801 503.02L200.236 509.049L203.627 510.085C206.548 510.933 207.301 510.839 209.28 509.331C210.504 508.389 212.765 507.542 214.367 507.542C216.816 507.542 217.381 508.107 219.736 513.665C221.149 517.056 222.751 519.788 223.316 519.788C225.012 519.788 232.454 516.774 232.454 516.114C232.454 515.737 231.135 514.419 229.439 513.194L226.519 511.027L231.606 508.389C237.729 505.186 239.142 505.092 241.403 507.542C242.439 508.672 244.324 509.426 246.302 509.426C247.997 509.426 251.012 510.085 252.99 510.839C254.874 511.687 260.432 512.629 265.425 512.911C275.788 513.571 282.099 516.114 286.433 521.295C287.94 523.085 291.143 525.629 293.498 527.042C295.947 528.455 300.375 531.47 303.39 533.73C308.759 537.97 308.759 537.97 308.759 543.057C308.759 547.578 309.23 548.897 313.469 555.115C319.499 563.97 330.803 592.797 333.158 605.231L334.854 613.992L331.839 618.42C329.673 621.717 328.26 625.58 326.846 632.362C325.716 637.544 323.361 647.529 321.571 654.5C319.781 661.471 317.897 670.421 317.332 674.283C316.484 680.124 315.825 681.725 313.658 683.515L311.114 685.682L313.375 687.472C314.6 688.508 316.201 689.356 316.955 689.356C317.803 689.356 318.085 690.015 317.803 690.957C317.614 691.899 316.861 695.102 316.201 698.023L315.071 703.487L319.404 709.045C321.854 712.153 323.832 715.545 323.832 716.769C323.832 720.443 327.694 731.842 330.426 736.364C332.405 739.661 333.347 742.77 334.194 749.647C334.76 754.545 335.702 761.422 336.173 764.908C336.926 770.748 336.832 771.502 334.194 777.437C332.687 780.922 330.709 786.292 329.861 789.401C327.977 796.749 323.173 802.778 317.426 804.662C315.165 805.51 310.738 808.148 307.44 810.691C299.904 816.626 299.527 816.814 289.447 819.64C281.817 821.713 280.027 821.807 272.02 821.148C260.056 820.111 253.838 818.416 246.867 814.271C241.309 811.068 240.65 810.879 232.36 810.879H223.693L220.584 814.271C217.852 817.191 217.381 818.227 217.381 822.372C217.381 826.612 216.91 827.742 212.953 832.735C207.584 839.329 193.547 849.409 187.801 850.539C185.728 851.01 182.997 851.576 181.866 851.858C180.359 852.235 179.699 853.271 179.228 856.097C178.757 859.018 177.627 860.619 174.236 863.445C164.721 871.359 150.119 874.938 127.604 874.938C120.539 874.938 114.604 875.315 114.322 875.692C112.814 878.141 105.184 882.004 95.7633 885.207C85.8719 888.598 85.024 889.069 84.4588 891.613C83.611 895.663 77.0167 906.968 73.8137 909.888C71.2702 912.055 69.9514 912.432 61.7556 912.997C56.7628 913.374 50.1685 914.504 47.2481 915.446C44.2336 916.482 39.806 917.33 37.2625 917.33C29.8203 917.33 26.5232 920.251 21.7188 931.084C19.1752 936.831 17.668 941.541 17.668 943.896V947.664L26.9 947.287C36.8856 946.91 37.9219 946.534 52.5236 938.055C56.3859 935.794 61.473 933.439 63.7339 932.686C65.9948 932.026 69.1977 930.425 70.7992 929.2C75.5094 925.714 84.6472 921.381 91.2415 919.685C98.4953 917.801 101.133 918.367 112.249 924.396L119.691 928.541L124.496 926.091C127.133 924.678 131.749 923.077 134.764 922.417C142.583 920.816 165.663 921.664 176.025 924.019C180.547 924.961 186.294 925.809 188.931 925.809C193.547 925.809 193.736 925.903 196.562 930.33C198.163 932.78 200.707 936.171 202.214 937.961C204.946 941.07 204.946 941.07 209.845 940.034C212.482 939.468 216.251 938.997 218.135 938.997C220.019 938.997 225.954 937.961 231.323 936.642C236.693 935.323 242.722 934.287 244.7 934.287C246.773 934.287 250.164 933.628 252.237 932.78C255.44 931.461 258.548 931.367 272.302 931.838C321.759 933.722 318.18 933.722 326.187 931.461C332.593 929.671 334.948 929.483 342.673 930.048C355.673 930.99 359.63 930.99 372.912 930.048C382.521 929.483 387.326 929.671 397.5 930.99C410.123 932.686 410.123 932.686 422.746 930.613C431.413 929.106 436.218 927.881 438.102 926.562C441.211 924.396 450.348 922.135 456.472 922.04C458.732 922.04 467.493 924.113 476.16 926.751C486.805 929.954 494.342 931.649 499.711 932.12C507.53 932.686 507.625 932.686 511.298 929.671C515.538 926.28 517.704 926.091 531.27 928.164C538.052 929.2 541.821 929.294 545.306 928.635C548.038 928.07 551.806 927.693 553.69 927.693C556.046 927.693 559.908 926.28 565.089 923.548C569.423 921.287 575.452 918.461 578.466 917.236C582.234 915.729 584.401 914.222 585.343 912.526C586.662 909.888 587.792 909.511 596.553 908.287C606.633 906.968 614.358 901.692 616.901 894.439C617.749 891.989 619.633 889.728 622.46 887.656C624.815 885.96 628.3 882.757 630.279 880.591C634.329 876.069 635.366 875.975 645.728 879.743C649.685 881.062 651.851 882.38 652.228 883.699C652.511 884.736 653.453 886.996 654.206 888.786L655.525 891.989L658.257 890.011L661.083 888.033L656.844 879.743C651.192 868.344 648.177 855.721 649.59 848.467C650.25 844.699 650.25 841.025 649.59 836.032C648.837 830.662 648.837 827.554 649.685 823.409C650.344 820.394 651.286 810.503 651.663 801.459C652.511 783.937 654.018 777.249 658.728 770.843C659.953 769.241 662.025 765.756 663.438 762.929L665.982 757.937L668.525 760.386L671.069 762.835L672.199 758.408C672.765 755.864 673.518 753.132 673.801 752.19C674.366 750.871 673.989 750.589 671.823 750.589C670.315 750.494 668.054 749.929 666.736 749.176C664.569 747.951 664.192 748.045 662.402 750.4L660.33 752.85L656.091 749.647L651.757 746.349L641.866 716.675C630.561 682.856 624.344 659.399 624.344 650.544C624.344 647.247 624.815 641.312 625.474 637.355L626.51 630.101L633.67 625.956C637.626 623.601 641.771 621.435 642.996 621.058C645.445 620.304 645.445 620.022 643.656 612.579C642.902 609.471 642.337 603.724 642.242 599.768C642.242 595.152 641.583 590.724 640.358 587.05C639.322 584.035 637.155 573.956 635.648 564.535C634.141 555.209 631.786 542.586 630.467 536.557C627.452 522.426 627.358 515.078 630.279 510.556C631.409 508.672 632.822 505.469 633.293 503.302L634.329 499.534L643.09 498.875L651.851 498.215L657.786 491.81C661.083 488.324 664.098 484.273 664.38 482.86C664.757 481.259 665.699 480.222 667.018 480.034C668.337 479.846 669.939 478.244 671.446 475.418C672.765 473.063 675.497 469.671 677.475 467.882C683.881 462.324 689.345 454.034 689.345 449.794C689.345 447.816 689.816 445.273 690.475 444.142C691.135 443.012 691.888 439.715 692.171 436.888L692.642 431.801L699.424 427.939C708.562 422.852 711.954 419.461 711.954 415.598C711.954 413.526 712.802 411.642 714.309 410.134C718.736 405.613 717.7 405.236 707.149 407.308C705.077 407.685 704.323 407.214 702.439 404.011L700.178 400.243L696.881 401.656Z" fill="black"/>
<path d="M137.967 495.013C137.59 495.296 137.308 496.238 137.308 497.086C137.308 497.839 136.365 499.441 135.235 500.665C133.916 502.078 132.974 504.716 132.503 508.296C132.126 511.216 131.749 514.325 131.561 515.079C131.278 516.115 132.126 516.586 134.481 516.774C137.496 517.057 138.061 516.68 139.474 513.666C140.322 511.781 141.076 509.709 141.076 508.955C141.076 506.883 143.808 505.847 147.858 506.318C153.04 507.071 152.663 504.528 146.54 498.876C141.924 494.636 139.38 493.506 137.967 495.013Z" fill="black"/>
<path d="M180.924 496.426C177.627 497.085 176.496 498.027 174.518 501.325C173.199 503.491 172.163 505.658 172.163 505.941C172.163 507.071 175.931 506.6 182.902 504.528C189.497 502.643 189.779 502.455 190.721 498.875L191.663 495.296L188.272 495.39C186.388 495.484 183.091 495.861 180.924 496.426Z" fill="black"/>
<circle cx="293" cy="530" fill="#5CE50D"/>
<circle cx="625" cy="627" fill="#E52A0D"/>
<circle cx="233" cy="833" fill="#E52A0D"/>
<circle cx="780" cy="169" fill="#E52A0D"/>
</svg>
