<svg width="1000" height="1000" viewBox="0 0 1000 1000" fill="none" xmlns="http://www.w3.org/2000/svg">
<rect width="1000" height="1000" />
<path d="M705.112 22.422C699.038 23.263 696.889 24.4778 688.292 32.2337C683.526 36.5322 680.349 40.27 678.573 43.9143C677.078 46.8111 674.742 50.1751 673.434 51.3899C671.191 53.4457 671.191 53.726 672.686 54.7539C673.527 55.408 675.864 56.4359 677.826 56.9965C680.069 57.7441 681.844 59.1458 682.685 60.8278C685.115 65.5 683.9 65.8738 679.414 62.136C677.265 60.2671 675.49 59.7064 672.126 59.613C668.295 59.5195 666.519 60.2671 660.632 63.818C654.091 67.9296 653.157 68.2099 643.906 69.2378C628.207 70.8264 624.562 71.8542 610.733 78.5823C603.537 82.1332 595.968 85.4972 593.913 86.0579C585.689 88.5809 581.484 91.4777 577.653 97.1777C575.597 100.168 572.794 105.401 571.486 108.671C569.804 112.783 567.655 116.147 564.478 119.231C561.207 122.501 559.805 124.557 559.805 126.333C559.805 127.734 558.497 130.351 556.909 132.406C551.208 139.415 542.985 160.253 542.985 167.542C542.985 168.476 541.116 171.279 538.874 173.709C534.015 178.848 528.034 190.716 528.034 195.014C528.034 197.911 527.941 198.005 523.082 198.378C515.326 199.032 509.439 202.396 506.075 208.097C504.486 210.806 501.402 214.357 499.16 216.039C496.076 218.562 494.394 220.898 491.684 227.159C487.666 236.317 483.181 243.606 471.874 258.93C461.034 273.788 458.885 277.152 458.885 280.049C458.885 281.451 457.203 285.562 455.241 289.207C453.185 292.851 450.008 299.392 448.139 303.784C446.27 308.176 443.56 313.596 442.065 315.932C440.57 318.268 438.608 323.314 437.673 327.052C436.178 333.406 435.617 334.247 431.225 338.078C427.768 341.068 426.086 343.311 425.338 346.114C424.684 348.264 422.255 353.87 419.919 358.542C416.274 365.831 415.153 367.326 411.602 369.102C408.238 370.877 407.023 372.372 404.594 377.512C403.005 380.876 400.482 387.043 399.08 391.155C397.679 395.266 394.408 402.835 391.885 407.975C389.269 413.114 386.185 420.029 384.97 423.3C383.195 428.159 381.887 429.841 378.71 432.177C376 434.139 373.103 437.597 370.206 442.549C360.675 458.622 360.768 458.341 360.768 464.883C360.768 470.956 360.768 471.05 358.245 471.05C352.919 471.143 344.883 488.524 344.883 500.018C344.883 502.821 346.004 510.39 347.312 516.838C348.994 524.781 349.835 531.041 349.742 536.368C349.648 541.507 350.209 546.74 351.424 551.506C353.76 560.476 353.76 561.224 351.424 564.495C350.396 565.99 348.901 568.886 348.153 570.942L346.845 574.68L349.648 575.614C351.143 576.082 352.358 577.016 352.358 577.483C352.358 578.044 350.489 581.034 348.247 584.118C345.91 587.202 343.201 592.154 342.079 595.144C340.958 598.041 339.182 601.218 338.061 602.059C336.286 603.461 336.005 604.489 336.005 611.591C336.005 618.319 335.725 619.814 334.043 621.683C332.922 622.897 331.8 625.047 331.427 626.542C330.866 628.971 331.24 629.719 334.791 632.803L338.809 636.353L335.818 636.447C333.856 636.447 332.361 637.101 331.333 638.503C329.931 640.652 329.931 640.652 334.043 641.586C336.286 642.054 338.528 642.801 338.902 643.175C340.304 644.577 336.099 647.567 331.24 648.688L326.287 649.809L327.595 652.239C330.586 657.939 330.959 658.126 335.912 656.911C340.023 655.883 340.584 655.977 341.705 657.472C342.453 658.5 343.014 661.116 343.014 663.359C343.014 667.19 343.201 667.471 345.163 666.91C346.284 666.63 347.779 666.349 348.433 666.349C349.088 666.349 350.302 664.854 351.143 663.079L352.732 659.808L355.348 662.331C357.778 664.667 357.871 665.041 357.311 671.582C356.47 681.768 358.526 695.317 362.263 703.914C364.88 709.988 365.44 712.604 366.001 721.482L366.655 731.947L373.196 743.254L379.737 754.654L378.71 761.663L377.775 768.578L381.139 774.465C383.662 778.67 385.344 780.539 387.4 781.286C391.885 782.781 397.118 789.696 398.333 795.77C399.174 800.255 400.202 801.844 406.276 808.385C412.723 815.3 413.564 815.861 416.928 815.861C422.161 815.861 430.478 820.346 435.991 826.326C438.608 829.036 445.522 834.456 451.503 838.287C462.249 845.202 462.343 845.389 464.025 850.435C465.146 854.08 467.015 857.07 470.566 860.714C476.453 866.881 488.694 889.028 492.619 900.802C496.169 911.174 496.356 921.453 493.273 927.34C491.497 930.704 491.217 932.666 491.31 940.142C491.404 948.272 491.684 949.58 494.768 956.028C496.637 959.859 498.132 964.344 498.132 966.026C498.132 969.016 498.225 969.11 502.243 969.11C505.701 969.11 506.729 968.643 508.317 966.587L510.186 963.97L513.924 966.12C515.98 967.241 518.503 968.175 519.624 968.175C522.427 968.175 524.857 969.577 530.744 974.53L535.697 978.828L535.136 974.623C533.267 961.354 533.36 959.111 535.697 955.841C537.005 954.159 539.808 949.393 542.051 945.375C545.789 938.273 545.976 937.712 545.415 932.293C544.107 920.986 543.826 871.647 544.854 860.247C545.882 849.407 546.069 848.753 551.863 836.418C556.722 826.233 558.123 822.121 559.338 814.926C561.114 804.18 561.955 801.377 565.692 793.154C568.309 787.267 568.776 786.799 572.514 785.865L576.532 784.837L577.934 778.389C578.775 774.932 579.429 771.381 579.429 770.633C579.429 769.792 582.139 767.083 585.316 764.466C588.586 761.85 591.95 758.299 592.791 756.617C593.913 754.281 596.155 752.412 601.575 749.421C611.387 744.002 617.087 738.488 621.105 730.639C623.535 725.78 624.282 722.977 624.282 719.332C624.282 714.567 624.376 714.38 629.235 710.548C635.869 705.409 642.224 695.691 651.568 676.628C655.773 668.125 659.978 659.995 661.006 658.593C662.034 657.098 663.155 654.295 663.622 652.239C664.183 649.996 665.865 647.1 668.108 644.857C673.808 638.97 679.228 629.999 679.882 625.14C680.255 622.617 680.069 618.599 679.414 615.609C677.639 607.946 680.723 596.172 687.824 583.183C693.057 573.559 693.151 573.091 694.739 560.757C695.861 552.253 697.543 544.31 700.066 536.555C702.122 530.013 703.71 523.099 703.71 520.669C703.71 518.333 704.645 514.034 705.766 511.231C707.074 507.68 708.009 502.728 708.476 495.345C709.877 474.601 710.345 471.797 713.335 465.91C715.671 461.145 716.232 458.809 716.792 450.492C717.26 442.736 718.007 439.185 720.25 433.672C724.455 423.393 728.006 411.619 728.006 408.068C728.006 404.517 732.771 389.846 734.921 386.763C737.257 383.492 736.883 377.792 734.173 375.643C731.183 373.307 729.501 368.074 730.342 363.775C730.716 362 732.585 356.954 734.64 352.842C736.976 347.983 738.285 343.778 738.285 341.536C738.285 338.639 739.126 336.77 742.583 332.471C745.013 329.481 747.629 327.145 748.564 327.145C751.554 327.145 753.236 326.024 753.236 324.155C753.236 321.725 762.954 305.933 766.318 302.849C767.72 301.541 769.402 299.485 770.056 298.271C770.99 296.402 770.99 295.841 769.775 295C768.561 294.066 768.654 292.477 770.71 281.357C772.018 274.442 773.233 267.808 773.42 266.593C773.7 265.472 776.69 261.547 780.054 257.903L786.315 251.268L786.128 244.54L785.848 237.905L789.399 236.036C791.922 234.635 792.856 233.607 792.669 232.299C792.576 231.271 792.202 227.44 791.828 223.702L791.268 217.067L793.978 216.693C796.314 216.413 795.753 216.039 790.52 214.264L784.353 212.115L782.671 206.508C781.176 201.649 781.082 200.06 782.017 193.706C782.858 188.66 782.858 185.576 782.204 183.24C780.989 178.942 778.466 159.973 778.466 154.646C778.466 149.133 781.736 142.872 787.717 136.985C791.548 133.247 792.483 131.752 792.483 129.229C792.483 122.221 801.173 114.465 813.227 110.727C819.768 108.671 821.45 107.644 824.067 104.56C825.655 102.504 827.057 100.075 827.057 99.1401C827.057 97.4581 825.095 96.9908 812.106 96.0564C809.116 95.8695 808.555 95.4023 806.219 90.6367C804.817 87.7399 803.229 82.8807 802.761 79.7971C801.734 72.4149 799.771 68.5837 796.501 67.9296C795.006 67.5558 789.212 66.9951 783.512 66.5279C775.569 65.8738 772.205 65.2197 768.561 63.3508C766.038 62.136 761.272 60.0802 757.908 58.9589C751.834 56.8096 743.891 50.6423 743.891 48.0259C743.891 46.9045 742.396 46.3439 737.911 45.6898C736.603 45.5029 734.64 42.5126 731.463 36.1584C727.071 27.2811 726.697 26.9073 721.745 24.6647C716.045 22.0482 711.933 21.4876 705.112 22.422Z" fill="black"/>
<path d="M199.481 479.93C196.958 481.706 197.519 485.443 200.603 486.752C201.818 487.312 203.78 489.275 204.901 491.143C206.116 492.919 207.331 494.414 207.611 494.414C208.452 494.414 210.321 486.752 210.321 483.668C210.321 481.799 209.574 480.958 207.051 479.837C203.032 478.155 201.911 478.155 199.481 479.93Z" fill="black"/>
<path d="M181.448 492.355C180.046 494.504 179.018 497.681 178.738 500.671C178.364 505.437 178.177 505.624 175.654 505.624C172.757 505.624 172.383 506.558 173.879 509.268C174.626 510.763 175.28 510.857 179.112 510.016C184.438 508.801 185.746 506.932 187.989 497.401C190.138 488.243 190.231 488.804 186.774 488.804C184.251 488.804 183.223 489.458 181.448 492.355Z" fill="black"/>
<path d="M208.642 499.361C204.717 500.576 199.764 507.397 200.232 511.042C200.418 513.097 201.073 513.658 203.315 513.845C205.838 514.125 207.427 515.34 207.52 516.835C207.52 517.116 204.717 517.209 201.353 517.022L195.186 516.648L195.84 519.732C197.054 525.339 197.895 526.18 202.194 526.18C206.866 526.18 210.791 523.937 215.65 518.704C219.668 514.219 222.658 512.443 227.985 511.602C231.349 511.042 231.816 510.668 231.816 508.519C231.816 506.556 230.975 505.528 228.172 503.94C226.209 502.819 223.219 501.884 221.537 501.884C219.948 501.884 217.519 501.043 216.211 500.015C213.594 497.959 213.127 497.866 208.642 499.361Z" fill="black"/>
<path d="M694.086 758.484C693.712 758.858 693.432 760.54 693.432 762.128C693.432 764.558 694.179 765.586 697.637 768.109C702.496 771.566 702.87 771.286 703.15 763.25L703.243 758.391L699.038 758.11C696.702 757.923 694.46 758.11 694.086 758.484Z" fill="black"/>
<path d="M715.39 927.151C709.597 928.085 706.7 929.581 705.953 932.01C705.485 933.505 706.794 935.374 712.307 940.7C719.315 947.615 722.399 949.204 726.604 948.176C729.594 947.428 729.687 943.971 726.884 939.299C725.669 937.523 724.268 933.879 723.8 931.263C722.679 926.123 722.399 925.936 715.39 927.151Z" fill="black"/>
<circle cx="716" cy="92" fill="#5CE50D"/>
<circle cx="607" cy="375" fill="#E52A0D"/>
<circle cx="356" cy="659" fill="#E52A0D"/>
<circle cx="449" cy="826" fill="#E52A0D"/>
</svg>
