<svg width="1000" height="1000" viewBox="0 0 1000 1000" fill="none" xmlns="http://www.w3.org/2000/svg">
<rect width="1000" height="1000" />
<path d="M140.581 19.971C137.76 20.7231 134.658 22.6034 132.496 24.6718C129.581 27.5862 127.983 28.3383 123.376 28.9964C113.787 30.3126 112.471 30.8766 113.035 33.133C113.317 34.1672 113.975 37.9277 114.633 41.3123L115.761 47.6112L125.445 56.2605C134.47 64.4397 135.316 65.4739 139.359 74.1232C143.683 83.2426 143.683 83.3365 143.683 93.3961C143.683 102.609 143.871 103.832 145.94 106.464C150.922 113.045 151.298 114.737 149.794 121.6C148.854 125.361 148.572 129.497 148.854 131.848C149.418 135.608 149.324 135.984 146.222 138.335C144.341 139.745 141.709 140.873 140.205 140.873C138.795 140.873 135.786 142.095 133.53 143.6C131.273 145.198 127.607 146.608 124.975 146.984C119.71 147.736 119.522 147.924 112.753 158.642C107.3 167.197 107.3 167.667 113.881 168.701C119.052 169.641 118.77 172.932 113.035 177.915C109.65 181.017 108.616 182.521 108.24 185.53C107.77 189.102 107.958 189.384 111.248 190.983C114.069 192.299 115.291 192.393 118.206 191.547C121.402 190.607 122.248 190.795 127.607 193.521C132.778 196.059 133.906 196.341 136.35 195.495C137.948 194.931 139.641 194.461 140.017 194.461C141.803 194.461 143.589 201.418 143.871 209.88C144.153 218.905 144.153 218.905 141.239 221.819C139.453 223.606 135.786 225.58 132.308 226.802C126.573 228.682 126.291 228.964 126.009 232.067C125.633 235.827 122.812 239.212 113.411 246.827L107.018 251.904V257.921V263.938L103.163 266.1C100.155 267.792 98.0865 270.331 93.3858 278.134C88.9671 285.467 85.9587 289.227 81.728 292.706C76.8393 296.749 75.8992 298.159 74.4889 302.953C72.8907 308.406 72.7967 308.5 66.6858 311.227C61.797 313.389 60.0108 313.859 58.1305 313.107C56.0622 312.355 55.216 312.825 50.8914 316.962L46.0027 321.662L42.3361 320.252L38.5755 318.842L38.0115 323.073C37.7294 325.329 37.4474 330.97 37.4474 335.388C37.3534 339.807 36.7893 346.2 36.0372 349.585C35.2851 352.969 34.721 358.234 34.627 361.336C34.627 366.507 35.003 367.541 38.1055 371.96C40.2678 374.874 42.9942 377.319 44.9685 378.165C47.4129 379.105 49.0111 380.797 51.0794 384.652C53.8058 389.823 53.8058 389.917 52.6777 396.498C50.0453 411.728 51.2675 420.189 57.0023 426.676C59.6347 429.685 63.1132 435.701 66.2157 442.282L71.1984 453.094L69.0361 456.291C67.8139 457.983 66.3097 460.709 65.6516 462.307C64.7115 464.658 63.9594 465.222 61.703 465.222C60.1988 465.222 57.1903 465.692 54.934 466.256C51.2675 467.196 50.8914 467.572 49.7632 471.615C49.0111 474.059 48.259 479.324 47.8829 483.367L47.3189 490.7L50.1393 491.358C52.3956 492.016 53.7118 493.52 56.7203 498.879C58.7886 502.545 62.5491 507.716 65.0875 510.255L69.6942 514.955L74.3949 512.605C81.728 508.844 84.6425 509.785 92.6337 518.622C96.2062 522.57 102.693 531.126 106.924 537.613C111.248 544.1 116.419 551.151 118.488 553.219C122.154 557.074 122.248 557.168 120.744 559.988C119.898 561.586 119.24 563.561 119.24 564.407C119.24 565.159 118.206 566.381 116.889 566.945C115.573 567.509 114.539 568.261 114.539 568.637C114.539 569.578 118.676 579.731 121.872 586.5C123.47 589.885 125.257 595.807 125.821 599.662C126.761 605.303 127.701 607.747 130.709 611.884C138.983 623.448 140.863 626.832 140.863 630.217C140.863 633.131 141.145 633.507 143.213 633.507C145 633.507 146.034 634.447 147.82 637.926C149.042 640.464 150.922 643.191 151.957 644.225C153.649 645.635 153.837 646.669 153.367 650.524C153.085 653.25 153.273 655.6 153.837 656.353C154.401 657.011 154.777 658.421 154.777 659.361C154.495 662.934 157.879 671.113 159.572 671.113C162.392 671.113 165.307 673.933 165.307 676.66C165.307 678.164 166.247 680.138 167.657 681.454C168.973 682.677 170.007 684.745 170.007 686.061C170.007 687.377 170.289 689.54 170.665 690.668C171.135 692.642 171.606 692.83 174.144 692.266C182.417 690.574 182.981 690.668 188.998 693.582C192.289 695.086 196.143 697.437 197.553 698.753C199.904 700.915 199.998 701.573 199.622 706.556L199.152 712.009L206.015 717.274L212.878 722.539L215.416 720.752C217.484 719.248 218.519 719.06 220.963 719.812C222.655 720.376 225.664 721.034 227.544 721.41C230.834 721.88 231.022 722.162 230.552 724.607C230.176 726.581 230.646 728.367 232.527 731.188C235.347 735.418 235.629 735.512 240.424 734.102C245.689 732.598 250.765 733.914 255.184 738.051C259.133 741.623 259.227 741.717 265.15 741.153C268.346 740.871 273.141 740.965 275.773 741.341C280.286 742.093 280.38 742.187 281.414 746.23C282.354 750.179 282.448 750.273 289.123 752.435C292.884 753.563 298.149 754.879 300.875 755.161C305.106 755.725 306.328 756.29 308.49 759.016C310.558 761.648 311.781 762.306 314.413 762.306C316.857 762.306 318.644 763.153 321.746 766.067C324.284 768.417 326.729 769.828 328.233 769.828C329.549 769.828 331.053 770.392 331.43 771.144C333.404 774.622 341.207 779.229 348.258 781.109C352.301 782.143 356.249 782.99 357.095 782.99C357.942 782.99 360.104 784.494 361.89 786.374C367.061 791.827 368.941 792.391 380.787 792.391C391.317 792.391 391.505 792.391 397.051 795.776C400.154 797.656 403.632 800.006 404.855 801.134C406.735 802.921 407.111 802.921 408.427 801.604C409.273 800.758 410.119 797.75 410.401 794.365C410.871 789.383 411.342 788.254 413.504 786.75C417.734 783.742 419.333 784.306 422.905 790.135C424.598 793.049 427.23 796.34 428.734 797.374C430.144 798.408 431.649 800.194 431.931 801.228C432.307 802.262 434.845 805.553 437.571 808.373C440.298 811.288 443.306 815.33 444.152 817.399C444.999 819.373 448.007 824.074 450.733 827.74L455.904 834.415L456.374 849.834C456.656 858.295 456.844 866.286 456.938 867.602C456.938 868.918 456.75 871.927 456.28 874.277C455.716 878.132 455.998 879.354 459.477 886.405C463.425 894.584 464.083 898.157 462.297 903.234C461.451 905.678 461.545 906.618 462.861 908.592C464.366 911.037 464.366 911.131 461.545 914.045C459.007 916.678 458.631 917.712 458.631 922.319C458.631 927.301 458.913 927.865 462.767 931.814C465.024 934.164 468.22 938.959 470.006 942.438C472.827 948.078 473.767 949.207 477.621 951.087C482.416 953.343 483.638 955.6 482.886 960.676C482.51 963.215 482.792 963.591 485.801 964.343C487.681 964.813 501.031 965.377 515.509 965.565C546.628 965.941 549.072 965.471 551.329 959.736C552.175 957.668 553.491 955.976 554.243 955.976C554.901 955.976 556.687 954.847 558.098 953.437C560.26 951.275 561.294 950.993 565.243 951.181C570.413 951.463 574.644 953.719 573.892 955.6C573.516 956.352 573.046 957.48 572.764 958.232C572.388 959.266 573.328 959.924 576.336 960.676C588.37 963.779 591.567 966.129 592.507 972.334C593.071 975.907 593.541 976.565 596.643 977.787C599.558 978.915 600.686 978.915 603.412 977.975C605.199 977.317 607.925 976.753 609.335 976.753C610.84 976.659 612.814 976.189 613.848 975.719C615.352 974.872 616.198 975.248 618.831 978.069C621.557 980.889 622.497 981.359 626.352 981.359C629.736 981.359 631.711 980.701 634.249 978.821C640.172 974.496 644.779 969.796 644.779 968.009C644.779 965.847 645.625 965.847 648.539 967.915C650.419 969.326 653.804 969.702 666.872 970.172C680.692 970.642 683.418 971.018 686.803 972.804C690.093 974.402 692.444 974.778 700.059 974.778C710.306 974.778 708.614 975.436 725.349 965.377C730.143 962.557 730.331 962.275 732.776 954.659L735.126 946.856L749.416 946.292C768.407 945.446 773.202 946.668 777.339 953.155L780.159 957.574L785.142 956.728C787.962 956.164 790.971 954.941 792.381 953.625C795.013 951.181 802.346 949.395 809.585 949.395C814.192 949.395 814.85 949.019 820.209 944.412L826.038 939.335L841.174 938.771L856.31 938.301L860.917 935.01C863.455 933.13 867.686 930.968 870.413 930.216C873.045 929.464 877.652 927.301 880.66 925.421C883.669 923.635 886.771 922.13 887.523 922.13C894.104 922.13 918.36 911.695 929.547 903.986C933.496 901.259 938.761 897.123 941.205 894.584C945.342 890.448 946.094 890.166 950.419 890.166C955.401 890.166 957.188 888.943 960.102 883.585C961.982 880.106 962.64 873.243 961.418 869.389C960.572 866.286 960.666 865.816 962.922 863.56C966.119 860.363 966.025 859.423 962.358 857.825C959.82 856.791 959.068 856.791 958.222 857.825C957.564 858.577 955.965 858.859 953.333 858.483L949.478 857.919L949.196 852.184L948.914 846.449L945.436 846.167C942.991 845.979 941.863 846.261 941.863 847.107C941.863 847.765 941.487 848.893 941.017 849.646C940.265 850.774 939.137 850.304 934.812 847.295C931.898 845.321 928.043 842.03 926.257 840.15L923.06 836.578V839.398C923.06 841.56 922.684 842.218 921.18 842.218C919.676 842.218 919.3 841.56 919.3 839.304C919.3 837.612 918.83 834.697 918.172 832.629C915.915 825.014 906.514 823.698 899.933 830.091L896.736 833.193V830.373C896.736 828.398 897.771 826.612 900.309 824.074C902.283 822.193 904.352 820.595 905.01 820.595C905.668 820.595 906.138 819.937 906.138 819.185C906.138 818.433 906.89 817.117 907.924 816.271C909.616 814.766 909.616 814.484 906.42 805.647C904.634 800.664 902.471 793.989 901.625 790.699C900.403 786.186 899.275 784.212 896.924 782.331C895.138 781.015 893.352 778.947 892.882 777.725C892.412 776.409 891.002 774.998 889.591 774.528C887.523 773.682 887.335 773.306 888.275 772.178C888.933 771.426 890.25 770.768 891.19 770.768C892.13 770.768 893.54 769.64 894.292 768.135C895.42 765.973 895.42 765.221 894.292 763.247C893.634 761.93 892.976 759.58 892.976 758.076C892.976 754.503 892.224 753.563 888.557 751.589L885.455 749.991V752.905C885.455 755.443 885.173 755.82 883.386 755.537C881.6 755.349 881.13 754.597 880.942 751.683C880.66 748.486 880.848 748.204 883.104 748.204C885.925 748.204 887.335 745.384 887.335 739.743C887.335 735.324 884.797 733.162 879.532 733.162C876.241 733.162 875.959 732.974 876.617 731C877.558 727.991 877.37 727.991 884.139 729.308C889.403 730.436 890.532 730.342 891.19 729.308C892.882 726.581 892.036 723.949 888.745 721.88C886.865 720.752 884.797 718.684 884.139 717.274C883.386 715.864 881.694 714.171 880.378 713.419C877.746 712.009 877.276 709.565 878.874 705.334C879.626 703.454 879.532 702.419 878.498 701.291C875.489 697.907 872.481 689.916 871.541 683.335C870.695 676.942 870.789 676.002 872.387 673.745C873.609 671.959 874.173 669.609 874.173 665.942V660.771L878.028 661.335L881.882 661.993L881.6 657.857C881.318 654.19 881.506 653.72 883.574 653.25C885.361 652.874 886.019 652.028 886.207 649.678C886.583 645.823 885.267 645.823 877.746 649.584L872.011 652.498L872.575 649.113C873.045 646.293 872.857 645.729 871.447 645.729C870.224 645.729 869.472 644.789 869.096 642.815C868.25 638.396 869.378 635.575 872.857 633.413L876.053 631.439L875.395 616.115L874.831 600.696L877.182 600.132C879.156 599.662 879.908 598.346 881.694 592.423C882.916 588.568 884.797 584.808 885.737 584.15C887.241 583.116 887.335 582.551 886.395 580.859C884.985 578.227 885.549 577.663 888.557 579.073C891.848 580.577 895.702 579.449 896.736 576.535C898.335 572.492 897.771 562.338 895.702 555.945C893.822 550.023 893.634 549.741 889.779 548.8C886.677 548.048 885.361 547.108 884.327 544.852C883.01 542.219 880.19 538.647 871.729 529.057C869.378 526.425 862.233 520.408 856.78 516.46C854.712 514.955 851.234 512.135 849.165 510.067C846.251 507.34 844.747 506.588 843.336 506.964C841.55 507.622 841.456 507.434 842.302 504.52C842.772 502.828 843.148 498.597 843.148 495.024C843.148 489.101 842.866 488.349 839.482 483.743C834.405 476.974 834.029 474.341 836.943 466.162C838.26 462.495 839.388 458.453 839.388 457.325C839.388 456.103 840.704 452.624 842.208 449.616C843.807 446.513 845.311 441.812 845.687 438.898C846.063 435.513 847.191 432.411 848.789 429.967C852.362 424.702 854.43 419.531 854.43 415.676C854.43 413.608 855.746 410.318 858.191 406.275C862.233 399.506 862.703 398.002 860.541 398.848C858.473 399.6 858.755 396.874 861.481 389.635C862.797 386.062 863.832 381.361 863.832 378.729C863.832 374.122 865.336 369.327 866.746 369.327C867.216 369.327 867.968 370.268 868.626 371.302C869.66 373.276 869.66 373.276 871.353 370.738C872.951 368.293 872.951 368.105 871.165 365.003C869.66 362.464 869.378 360.866 869.848 357.764C870.413 354.097 870.224 353.533 867.404 350.807C865.712 349.208 863.173 347.61 861.857 347.234C860.541 346.952 835.345 327.021 805.919 303.048C756.937 263.092 752.237 258.955 749.886 254.442C748.382 251.434 744.998 247.203 741.237 243.819L735.126 238.178L738.887 232.067L742.647 225.956L742.365 214.862C742.083 206.777 741.613 203.487 740.579 202.546C739.921 201.888 716.041 187.88 687.555 171.428C659.163 154.975 624.001 134.574 609.617 125.925C595.139 117.37 550.106 91.0457 509.492 67.4482L435.597 24.5777L433.153 26.27C431.837 27.2101 428.358 30.3126 425.444 33.133C422.529 36.0474 419.145 38.5858 417.923 38.8679C416.512 39.2439 415.008 40.8422 414.068 42.9105C412.47 46.1069 412.47 46.389 414.068 47.5172C415.008 48.1753 416.888 48.7393 418.393 48.7393C420.273 48.7393 421.307 49.4915 422.435 51.5598C423.281 53.064 423.751 54.3802 423.657 54.3802C423.469 54.3802 419.803 53.7221 415.384 52.97C410.965 52.2179 407.299 51.5598 407.205 51.5598C407.111 51.5598 407.393 52.6879 407.863 54.0042C409.367 57.8587 408.991 58.5168 406.265 56.7305C403.914 55.1323 403.82 55.1323 404.479 56.8246C404.855 57.8587 405.419 59.739 405.701 61.2432C406.077 63.0295 406.923 63.9696 408.709 64.3457C410.025 64.6277 411.906 65.2858 412.846 65.7559C414.068 66.414 415.008 66.414 415.948 65.5679C416.982 64.7217 417.264 64.8157 417.264 65.9439C417.264 70.5506 413.974 71.5848 408.615 68.8584C407.017 68.0123 404.479 67.5422 402.974 67.7302C401.47 68.0123 399.872 67.6362 399.308 66.8841C398.086 65.4739 395.077 65.2858 394.231 66.6021C393.949 67.0721 394.137 68.3883 394.701 69.4224C395.641 71.1147 395.453 71.3027 393.009 71.3027C388.59 71.3027 388.684 72.5249 393.385 76.5675C399.59 81.9263 398.838 83.5246 389.906 83.5246C382.479 83.5246 381.633 84.6527 387.18 87.4731C388.872 88.3193 390.752 89.5415 391.223 90.0115C393.009 91.7978 391.223 92.1739 388.214 90.6696C384.453 88.6954 384.359 88.6954 384.359 92.3619C384.359 94.8063 383.889 95.6524 382.291 96.1224C378.061 97.2506 375.24 96.6865 373.078 94.3362C370.915 91.9858 370.821 91.9858 368.941 93.7721C367.813 94.7123 366.027 96.0284 364.899 96.5925C363.676 97.1566 362.736 98.2848 362.736 98.9429C362.736 99.601 361.89 101.293 360.856 102.515L359.07 104.866L361.232 105.9C362.924 106.652 363.77 106.558 364.805 105.524C366.779 103.55 374.77 101.293 375.522 102.421C375.804 102.985 376.368 104.49 376.744 105.9C377.308 107.968 378.249 108.532 382.103 109.378C384.642 109.849 386.71 110.789 386.71 111.259C386.71 113.045 382.573 112.763 378.155 110.883C373.078 108.532 368.847 109.096 369.599 111.823C369.975 113.327 369.505 113.609 365.933 113.609C363.488 113.609 361.796 114.079 361.796 114.643C361.796 115.677 360.104 115.489 355.685 114.079C353.899 113.515 353.805 113.891 354.087 119.25C354.369 124.233 354.651 124.891 355.967 124.327C359.728 122.822 361.89 122.822 363.77 124.515C365.369 125.925 367.343 126.301 372.984 126.395C376.932 126.395 382.385 127.053 385.206 127.805C389.248 128.839 390.376 128.839 390.752 127.899C391.317 126.113 400.812 120.19 403.068 120.19C405.983 120.19 409.743 124.233 409.743 127.429C409.649 131.566 407.017 133.916 399.12 136.737C394.795 138.241 391.129 140.121 390.094 141.437C389.06 142.659 387.65 143.694 386.898 143.694C385.112 143.694 381.539 148.112 381.539 150.275C381.539 151.403 380.787 151.873 379.001 151.873C377.496 151.873 374.582 152.625 372.42 153.471C370.163 154.317 365.463 155.257 361.89 155.539C354.745 156.198 354.745 156.292 349.574 148.77C347.6 145.856 346.096 144.728 343.557 144.258C338.763 143.318 334.532 144.352 330.959 147.266C327.951 149.711 327.857 150.181 327.293 158.36C326.823 165.223 327.011 167.385 328.327 169.924C330.207 173.496 329.831 174.248 326.635 173.402C324.943 173.026 324.096 171.992 323.72 170.206C323.438 168.795 322.498 165.505 321.746 162.872C320.524 159.018 320.43 157.608 321.37 156.009C322.874 153.189 322.216 152.813 316.481 152.719L311.499 152.625L308.96 147.454C306.61 142.753 306.422 142.565 306.328 145.104C306.328 148.864 302.849 152.719 299.089 153.471C296.456 153.941 295.986 153.753 295.986 152.155C295.986 150.745 295.328 150.275 293.354 150.275C291.85 150.275 289.875 149.428 289.029 148.488C287.431 146.702 287.431 146.608 290.533 145.292C293.824 143.882 297.866 139.275 297.866 136.925C297.866 136.266 297.208 134.856 296.456 133.916C295.046 132.13 295.046 132.13 292.884 134.104C290.251 136.549 289.405 136.737 289.405 134.668C289.405 133.728 288.747 133.352 287.807 133.54C286.867 133.728 286.209 134.292 286.209 134.856C286.303 135.326 286.585 137.489 286.961 139.651L287.525 143.694H282.824C279.252 143.694 277.936 143.318 277.183 141.907C275.773 139.181 275.961 138.993 279.816 138.899C282.918 138.899 283.106 138.711 281.508 137.771C280.568 137.113 278.688 135.514 277.465 134.104C276.149 132.694 274.551 131.848 273.799 132.13C273.047 132.412 271.825 132.13 271.072 131.472C269.286 130.062 269.38 129.968 267.876 134.95C266.654 139.369 263.363 141.813 258.569 141.813C257.064 141.813 255.278 142.377 254.714 143.13C253.116 145.01 256.5 150.181 260.167 151.779C261.765 152.437 263.081 153.659 263.081 154.599C263.081 155.727 262.611 155.915 261.483 155.351C260.543 154.975 258.663 154.599 257.158 154.505C255.748 154.411 253.586 153.377 252.458 152.249L250.201 150.275L249.167 152.625C248.509 154.035 248.321 156.668 248.603 158.83C249.073 161.838 248.979 162.496 247.663 162.496C245.595 162.496 245.783 163.813 248.415 167.949C249.731 169.83 251.047 172.65 251.424 174.154L252.082 176.881L249.073 174.624C247.005 173.12 246.159 171.71 246.159 169.83C246.159 165.881 243.526 165.317 240.894 168.701C239.672 170.206 237.98 171.428 237.227 171.428C235.441 171.428 233.937 173.59 233.937 176.222C233.937 177.351 233.279 178.761 232.527 179.419C231.305 180.453 231.116 179.795 231.116 174.812C231.116 168.325 232.245 165.317 234.689 165.223C235.535 165.223 234.125 164.189 231.493 163.06C228.766 161.838 225.758 159.488 224.535 157.796C222.373 154.787 222.373 154.693 224.065 153.471C225.006 152.719 226.51 152.155 227.356 152.155C228.202 152.155 229.706 151.497 230.74 150.745C232.527 149.334 232.527 149.334 230.364 147.454C228.954 146.326 228.296 145.01 228.672 143.976C229.33 141.813 227.45 139.369 224.441 138.147C222.467 137.489 221.809 137.677 220.963 139.087C219.741 141.061 215.134 141.531 215.134 139.651C215.134 139.087 216.262 135.514 217.578 131.942C221.057 122.634 221.433 120.19 219.365 120.19C217.766 120.19 217.766 120.096 219.177 118.498C220.869 116.618 221.433 109.849 219.929 109.849C219.459 109.849 217.954 110.225 216.638 110.789C214.57 111.541 214.194 111.447 214.194 110.037C214.194 108.062 217.484 101.575 219.929 98.9429C221.245 97.5327 221.903 94.9943 222.279 89.5415C222.561 85.4988 223.689 79.952 224.724 77.2256C226.04 73.7471 226.416 71.3027 225.946 68.6703C225.476 65.9439 225.758 64.7217 226.792 63.7816C228.014 62.8415 228.296 62.8415 228.296 63.8756C228.39 66.9781 231.116 61.2432 231.116 57.9528C231.116 56.0724 232.057 52.6879 233.185 50.4316C234.877 47.1411 235.253 44.8848 235.347 36.7996C235.347 31.4407 235.723 27.1161 236.099 27.1161C236.475 27.1161 236.381 26.27 235.817 25.2358C234.783 23.2615 231.587 22.7914 229.236 24.2957C228.202 24.9538 227.732 24.6718 227.356 23.0735C226.886 21.1932 225.946 20.9112 218.425 20.1591C213.724 19.689 205.921 19.4069 201.032 19.595C187.87 20.0651 180.819 19.971 162.016 19.3129C148.948 18.7488 144.059 18.9369 140.581 19.971Z" fill="black"/>
<path d="M334.532 95.6465C334.532 98.4669 335.096 99.7831 336.695 100.911C338.669 102.321 338.857 102.227 340.831 99.9711C343.934 96.3986 341.959 91.9799 337.259 91.9799C334.72 91.9799 334.532 92.262 334.532 95.6465Z" fill="black"/>
<path d="M324.566 104.112C320.336 106.744 319.772 107.966 322.31 109.846L324.472 111.445L322.31 112.949C320.618 114.077 320.43 114.735 321.276 116.239C322.404 118.402 323.626 118.872 330.489 119.718C333.404 120.094 335.942 121.034 336.976 122.162C337.822 123.102 339.609 123.949 340.925 123.949C342.241 123.949 344.78 124.419 346.472 125.077C350.42 126.487 351.172 125.641 350.702 119.812C350.42 116.239 349.95 115.393 348.258 114.923C347.13 114.641 345.72 113.231 345.156 111.633C344.121 109 343.933 108.906 338.01 108.906C331.43 108.906 328.891 107.59 328.891 104.112C328.891 101.855 328.233 101.855 324.566 104.112Z" fill="black"/>
<path d="M229.236 130.533C229.236 133.73 229.612 136.174 230.176 136.174C232.057 136.174 234.877 142.191 234.407 144.824C233.655 148.02 234.689 148.584 239.014 147.268C241.928 146.328 242.398 145.858 241.834 144.26C241.552 143.131 241.176 140.969 241.082 139.465C240.988 137.302 240.33 136.268 238.168 135.234C236.099 134.2 235.253 133.072 235.065 131.004C234.783 128.465 231.869 124.987 229.988 124.893C229.518 124.893 229.236 127.431 229.236 130.533Z" fill="black"/>
<path d="M246.442 131.093C243.058 133.726 242.493 135.23 244.844 135.23C245.878 135.23 246.254 135.794 245.878 137.11C245.502 138.52 246.066 139.367 247.946 140.307C251.801 142.375 253.681 140.777 253.681 135.418C253.681 128.367 251.425 127.051 246.442 131.093Z" fill="black"/>
<path d="M911.967 377.506C911.967 382.112 912.625 385.403 914.318 389.446C916.48 394.71 916.574 395.18 915.07 396.215C913.565 397.343 913.565 397.531 915.07 400.163C916.668 402.796 916.668 402.89 913.283 407.308C909.429 412.479 909.335 412.761 911.497 416.428C912.907 418.872 913.565 419.154 916.01 418.59C919.206 417.932 920.24 416.804 920.24 413.795C920.24 412.667 921.745 409.283 923.531 406.274C927.103 400.351 927.668 396.309 925.787 389.916C924.847 387.001 924.941 385.497 926.257 381.642C927.103 379.104 927.762 375.813 927.762 374.403C927.762 371.865 927.762 371.865 925.881 373.557C924.001 375.249 923.719 375.249 919.018 373.651C916.386 372.711 913.659 371.771 913.001 371.583C912.249 371.207 911.967 372.993 911.967 377.506Z" fill="black"/>
<path d="M878.592 448.863C878.404 449.333 877.84 451.213 877.464 452.999C877.088 454.786 875.866 457.324 874.644 458.64C873.515 459.956 872.199 462.025 871.823 463.247L871.071 465.597L869.473 463.529C868.533 462.495 867.592 461.837 867.216 462.119C866.934 462.495 866.652 466.443 866.652 470.956C866.652 482.144 869.191 490.417 873.421 492.767C875.396 493.895 876.618 494.177 876.806 493.519C876.994 492.955 878.78 493.707 880.754 495.306C883.387 497.374 884.985 498.032 886.583 497.656C888.464 497.186 888.934 497.75 890.814 502.545C892.6 506.963 893.54 508.28 895.891 509.126C899.181 510.348 902.848 509.22 902.096 507.245C901.908 506.587 900.685 502.357 899.557 497.844L897.395 489.571L893.258 488.443C889.404 487.408 889.216 487.22 889.216 483.93C889.216 480.263 887.241 474.717 884.515 470.862C882.447 467.854 881.695 461.649 882.729 456.572C883.575 453.093 883.481 452.435 881.413 450.367C880.096 449.145 878.874 448.487 878.592 448.863Z" fill="black"/>
<circle cx="572" cy="479" fill="#5CE50D"/>
<circle cx="880" cy="569" fill="#E52A0D"/>
<circle cx="236" cy="200" fill="#E52A0D"/>
<circle cx="785" cy="826" fill="#E52A0D"/>
</svg>
