<svg width="1000" height="1000" viewBox="0 0 1000 1000" fill="none" xmlns="http://www.w3.org/2000/svg">
<rect width="1000" height="1000" />
<path d="M623.145 165.625C618.555 166.602 615.918 166.699 613.379 166.016C608.301 164.648 603.516 164.844 602.93 166.406C602.637 167.188 599.512 169.727 596.094 171.973C590.918 175.293 589.551 175.781 588.379 174.805C587.11 173.828 586.524 173.828 585.059 175.195C583.789 176.367 582.422 176.562 579.981 176.074C575.684 175.293 570.606 173.145 569.825 171.875C569.532 171.387 568.164 170.898 566.895 170.898C565.625 170.898 564.258 170.41 563.965 169.922C563.672 169.336 562.696 168.945 561.914 168.945C560.742 168.945 560.547 169.824 561.035 173.145C561.524 176.367 561.328 177.637 560.157 178.613C558.789 179.688 558.789 180.176 560.059 181.836C561.231 183.594 561.231 184.18 559.766 186.328C558.887 187.695 556.446 190.039 554.297 191.504C548.926 195.41 543.653 195.41 539.551 191.406C536.914 188.77 536.133 188.574 533.887 189.355C532.325 189.941 530.274 190.039 528.125 189.355C526.367 188.867 523.145 188.477 521.094 188.477C518.946 188.477 516.504 187.793 515.625 187.012C514.16 185.645 513.672 185.742 511.426 187.598C509.961 188.672 508.789 190.43 508.789 191.406C508.789 193.164 504.883 194.922 503.907 193.457C502.539 191.406 497.559 190.723 494.434 192.188C492.676 193.066 491.211 194.141 491.211 194.629C491.211 195.508 488.086 199.707 483.008 205.371C481.543 207.129 479.395 210.156 478.418 212.207C477.344 214.258 475 217.578 473.242 219.531C471.387 221.484 469.629 224.609 469.239 226.367C468.262 230.957 468.36 236.426 469.434 237.207C470.899 238.184 471.778 242.969 470.606 243.652C469.922 244.141 470.02 244.824 470.996 245.898C473.34 248.633 473.926 252.051 472.657 255.957C471.582 259.18 470.996 259.766 468.555 259.766C466.992 259.766 465.528 259.18 465.235 258.301C464.844 257.52 463.867 256.836 462.989 256.836C462.012 256.836 460.352 255.859 459.082 254.785C457.227 253.125 456.934 252.051 457.52 249.316C458.008 246.582 457.617 245.312 455.664 242.676C452.246 238.281 447.071 237.305 441.504 240.137C438.184 241.895 437.207 241.992 435.45 241.016C433.789 239.941 433.301 240.039 432.129 241.504C430.274 244.141 427.344 243.262 426.953 239.941C426.66 237.891 426.075 237.305 424.317 237.305C423.047 237.305 421.094 238.184 420.02 239.355C418.946 240.527 417.676 241.113 417.09 240.82C416.504 240.43 415.821 241.602 415.43 243.652C414.746 247.461 414.746 247.461 412.012 245.996C410.45 245.215 409.473 245.312 407.617 246.582C405.567 247.949 405.274 247.949 405.274 246.582C405.274 245.801 404.492 244.629 403.418 243.945C402.051 243.066 401.66 241.992 402.051 239.258C402.93 232.617 395.41 226.855 391.211 230.957C390.43 231.738 388.575 232.324 387.012 232.227C380.664 231.836 379.2 232.324 376.563 236.328C375.196 238.477 373.438 240.234 372.754 240.234C372.071 240.234 371.094 238.379 370.508 236.035C369.629 231.934 369.629 231.934 363.965 231.055C359.18 230.273 358.008 230.371 356.739 231.738C355.176 233.203 354.883 233.105 352.344 229.199C350.879 226.953 349.61 224.512 349.61 223.828C349.61 221.973 345.703 222.461 345.02 224.316C343.067 230.078 336.719 232.227 333.008 228.516C331.934 227.441 329.883 226.562 328.516 226.562C326.172 226.562 325.977 226.758 326.563 229.883C327.149 232.812 326.856 233.496 324.219 235.352C319.434 238.77 317.578 235.645 321.289 230.469L323.34 227.637L318.262 226.074C312.207 224.316 310.157 224.219 307.52 225.586C306.25 226.27 305.078 226.27 303.809 225.586C302.442 224.902 301.075 224.902 299.219 225.586C296.778 226.562 296.68 226.465 297.071 223.73C297.364 221.777 297.071 220.605 296.094 220.215C295.02 219.824 294.825 218.652 295.313 215.332L295.996 210.938H290.821C287.891 210.938 285.059 211.426 284.473 212.012C283.692 212.793 282.813 212.793 281.446 212.012C280.371 211.426 278.516 210.938 277.344 210.938C276.27 210.938 274.219 209.766 272.95 208.398C269.727 204.98 265.918 204.102 262.012 205.859C258.301 207.617 255.86 206.348 255.86 202.441C255.86 200.586 255.371 200.098 253.711 200.195C245.801 200.879 242.09 200.195 239.649 197.559C237.598 195.41 236.231 194.824 232.617 194.727C230.078 194.727 226.758 193.945 225.098 193.164C222.657 191.992 220.313 191.895 212.012 192.578C202.832 193.359 201.66 193.262 199.805 191.602C195.606 187.891 193.36 187.598 186.524 189.844C179.981 191.895 173.828 192.188 158.789 191.113C152.344 190.625 151.856 190.723 147.754 193.652C144.532 196.094 143.653 197.363 143.75 199.219C144.043 202.441 143.164 203.711 138.575 206.641C136.426 208.008 133.496 210.352 132.032 212.012C129.59 214.648 129.102 214.844 126.075 213.965C124.219 213.379 122.364 213.184 121.875 213.574C121.289 213.867 121.192 213.281 121.582 212.012C122.071 210.449 121.68 209.766 119.825 209.082C118.457 208.496 117.09 207.715 116.797 207.227C116.504 206.641 114.453 206.934 111.817 207.91C108.594 209.082 107.52 209.863 108.008 210.938C108.399 211.719 108.496 213.086 108.399 213.867C108.301 214.648 108.301 218.457 108.301 222.363C108.301 226.27 107.91 229.688 107.422 229.98C106.153 230.762 106.153 238.281 107.422 238.281C107.91 238.281 109.18 240.137 110.157 242.383C111.133 244.727 112.696 247.168 113.575 247.949C114.551 248.633 115.235 250.684 115.235 252.539C115.235 254.297 115.723 256.055 116.211 256.348C116.797 256.641 117.188 257.715 117.188 258.691C117.188 259.668 117.774 261.035 118.555 261.621C119.239 262.207 120.117 264.062 120.508 265.723C120.801 267.383 122.364 269.922 124.024 271.484C125.586 272.949 126.953 275.098 126.953 276.172C126.953 277.93 126.563 278.125 124.024 277.344C121.289 276.562 120.899 276.758 120.02 279.004C119.336 280.957 119.434 282.422 120.606 284.863C121.485 286.621 122.559 288.086 123.047 288.086C124.805 288.086 123.926 299.219 121.778 305.176L119.629 311.035L111.524 311.523L103.418 312.012L98.8284 317.09C96.2894 319.922 90.723 324.707 86.5237 327.734C77.4417 334.082 58.7894 352.637 53.3206 360.645C50.9769 363.965 48.7308 366.211 47.6565 366.211C46.5823 366.211 45.8987 366.895 45.8987 367.969C45.8987 368.945 44.4339 370.41 42.6761 371.387C38.6722 373.633 36.2308 379.102 38.2815 381.543C39.1605 382.715 39.5511 386.23 39.3558 394.434C39.3558 400.684 39.0628 406.836 38.8675 408.203C38.6722 409.961 39.2581 410.938 41.2112 411.914C44.6292 413.477 46.094 416.211 45.7034 419.922L45.4105 422.754L38.2815 419.824C29.1995 416.211 27.8323 416.211 26.5628 419.922C25.8792 421.777 24.219 423.438 22.0706 424.512C18.9456 425.977 18.555 426.562 18.555 429.785C18.555 432.031 17.969 433.789 17.0901 434.277C16.3089 434.766 15.0394 437.012 14.1605 439.453C12.598 443.848 9.27764 448.73 4.78546 453.32C0.195612 457.91 -0.487981 461.914 1.85577 469.043C4.00421 475.488 8.20342 482.422 9.86358 482.422C10.4495 482.422 13.2815 484.668 16.2112 487.402C19.9222 491.016 21.4847 493.164 21.4847 495.02C21.4847 499.121 22.7542 500.098 28.5159 500.391C35.9378 500.781 36.5237 501.367 35.7425 506.641C35.3519 509.375 35.5472 511.523 36.2308 512.305C37.8909 514.355 39.0628 513.965 39.0628 511.23C39.0628 508.887 39.3558 508.789 42.7737 509.375C45.8011 509.863 46.8753 509.57 48.8284 507.617C50.1956 506.348 51.7581 504.395 52.344 503.418C53.7112 500.977 58.2034 502.148 59.0823 505.176C59.473 506.348 61.1331 508.789 62.7933 510.547C65.6253 513.477 66.3089 513.672 72.0706 513.672C80.1761 513.672 86.719 515.332 87.9886 517.773C88.8675 519.434 89.6487 519.629 94.6292 519.043C99.805 518.457 100.586 518.652 106.153 521.875C112.305 525.488 114.453 525.586 120.508 522.363C122.266 521.289 130.469 521.973 132.52 523.242C133.008 523.633 134.375 525.977 135.45 528.418C136.719 531.152 138.672 533.691 140.528 534.766C142.188 535.742 144.141 538.086 145.02 540.234C146.192 543.359 146.973 543.945 149.317 543.945C155.86 543.945 158.399 542.676 164.844 536.133C170.996 529.98 171.778 529.492 176.758 528.906C179.785 528.516 185.938 528.516 190.43 528.809C195.41 529.199 200.684 529.004 203.614 528.32C206.348 527.637 211.231 527.148 214.551 527.148C220.41 527.148 220.703 527.051 222.657 523.828C223.828 522.07 225.782 519.727 226.953 518.848C228.125 517.871 229.492 516.016 229.785 514.648C230.762 510.938 231.543 510.352 236.817 508.984C242.676 507.52 250.586 502.344 251.465 499.512C251.953 497.656 252.051 497.656 253.028 499.219C254.395 501.66 259.766 501.562 259.766 499.219C259.766 498.34 258.887 496.973 257.813 496.289C255.274 494.727 255.274 492.188 257.715 492.188C258.789 492.188 261.719 493.262 264.16 494.531C269.239 497.266 271.485 496.973 271.485 493.555C271.485 490.723 272.559 490.625 274.903 493.164C276.27 494.727 277.442 495.02 279.59 494.531C281.641 494.141 282.715 494.434 283.594 495.703C285.059 497.656 287.11 496.777 287.11 494.238C287.11 493.359 287.696 491.699 288.477 490.625C289.844 488.867 289.942 488.867 290.528 491.504C291.407 494.824 294.141 495.02 296.289 491.797C298.535 488.281 301.563 487.598 303.418 490.234C304.688 491.992 305.469 492.188 309.082 491.699C313.086 491.016 313.282 491.113 315.43 494.824C319.239 501.074 321.387 502.93 324.805 502.93C328.223 502.93 329.297 503.906 329.492 507.227C329.59 508.691 330.371 509.375 332.325 509.57C333.789 509.766 334.961 510.547 334.961 511.23C334.961 513.477 336.719 513.867 339.063 512.305C342.09 510.156 344.727 510.352 344.727 512.598C344.727 513.574 344.141 514.941 343.36 515.527C342.578 516.113 341.797 517.578 341.504 518.555C340.821 521.191 343.262 521.094 345.117 518.359L346.582 516.309L347.461 518.652C347.95 519.922 348.535 521.875 348.731 522.852C349.317 525.879 351.27 525.684 351.856 522.656C352.539 519.043 357.617 516.602 360.45 518.359C361.426 519.043 363.575 519.238 365.332 518.848C369.043 518.164 371.094 520.215 371.094 524.707C371.094 526.27 371.973 528.613 373.047 529.98C374.121 531.348 375 533.301 375 534.375C375 535.84 375.391 536.035 376.563 535.352C377.637 534.766 379.2 534.961 381.055 535.84C383.692 537.207 384.082 537.207 386.328 535.059C389.16 532.422 390.332 533.203 390.821 538.086C391.016 540.625 391.504 541.504 392.871 541.406C394.922 541.211 394.825 540.918 393.067 545.312C391.7 548.633 391.797 549.316 393.848 548.926C394.336 548.828 393.946 549.805 393.164 550.977C392.285 552.148 391.602 555.078 391.602 557.422C391.602 560.449 390.918 562.598 389.063 564.941C387.5 567.09 386.817 568.75 387.305 569.531C387.793 570.215 387.989 573.145 387.793 575.977C387.598 580.273 387.696 580.957 389.063 580.469C389.942 580.176 391.211 580.273 391.895 580.859C392.481 581.348 394.239 582.031 395.606 582.324C398.047 582.91 398.828 584.277 400.782 590.137C401.758 593.262 404.297 593.164 407.813 589.746L411.133 586.523V590.039C411.133 591.992 410.645 593.945 410.059 594.238C409.375 594.727 409.278 596.68 409.668 599.707C410.254 603.613 410.059 604.492 408.887 604.492C406.153 604.492 406.055 606.348 408.594 608.789C411.231 611.133 412.207 617.383 410.157 618.652C408.399 619.727 410.059 620.898 414.16 621.582C417.09 622.07 418.36 622.852 419.043 624.707C419.825 626.855 420.41 627.148 423.828 626.758C426.953 626.465 427.735 626.758 427.735 628.027C427.735 628.906 428.614 630.371 429.688 631.348C431.348 632.91 431.641 634.375 431.641 642.773C431.641 651.66 431.543 652.344 429.688 652.344C426.953 652.344 427.246 653.906 430.371 656.836C431.934 658.203 434.18 660.352 435.547 661.621C436.914 662.793 439.063 664.355 440.332 665.039C442.383 666.113 442.481 666.309 441.114 667.676C439.844 668.945 438.867 669.043 435.45 668.164C430.957 666.992 429.688 667.285 429.688 669.531C429.688 672.852 425.196 669.531 422.364 664.16C420.703 660.938 418.946 660.156 418.946 662.695C418.946 663.77 418.36 663.965 417.09 663.574C415.625 663.086 414.746 663.77 413.379 666.211C411.817 669.043 411.621 669.238 411.328 667.285C411.133 666.113 409.864 664.746 408.399 664.16C406.934 663.574 405.274 662.109 404.785 660.938C403.418 658.008 401.66 657.715 400.879 660.059C400.098 662.695 398.731 662.695 397.95 660.156C397.657 659.082 396.973 658.203 396.485 658.203C395.313 658.203 394.141 662.695 395.02 663.965C395.313 664.551 394.922 665.039 394.141 665.039C393.36 665.039 392.285 665.82 391.7 666.699C391.211 667.676 390.43 668.164 390.137 667.773C389.746 667.383 389.844 666.602 390.235 665.82C390.625 665.137 391.016 662.109 391.114 658.984C391.211 653.809 391.016 653.32 389.063 653.32C387.891 653.32 386.426 654.004 385.742 654.785C385.059 655.566 383.301 656.25 381.739 656.25C379.883 656.25 378.418 657.031 377.442 658.594C376.563 659.863 375.098 661.133 374.121 661.426C372.364 661.816 372.364 662.305 373.438 667.676C374.317 671.777 374.414 674.121 373.633 675.684C372.754 677.637 373.047 678.32 375.782 680.762C377.539 682.324 378.907 683.789 378.907 684.082C378.907 684.277 377.539 686.523 375.782 688.965C373.047 692.871 372.754 693.652 373.926 695.41C374.61 696.582 375 697.559 374.805 697.754C374.61 697.852 372.071 698.73 369.141 699.707C361.426 702.148 360.547 703.223 361.133 709.082C361.524 713.477 361.328 714.062 359.473 714.551C358.301 714.844 357.422 715.82 357.422 716.895C357.422 718.359 356.739 718.75 354.004 718.75C351.563 718.75 350.586 719.141 350.586 720.312C350.586 721.289 350 721.68 349.121 721.289C347.266 720.605 345.41 727.051 346.289 731.348C346.68 733.301 346.582 734.375 345.801 734.375C345.215 734.375 344.727 735.645 344.727 737.305C344.727 740.527 342.871 741.211 340.821 738.77C338.965 736.621 332.422 736.914 330.078 739.258C327.735 741.602 327.539 743.164 329.59 743.164C330.469 743.164 331.055 744.043 331.055 745.605C331.055 749.121 333.301 753.027 336.621 755.469C341.797 759.277 349.317 762.598 354.297 763.281C359.668 763.965 363.672 763.184 361.524 761.816C360.547 761.23 360.547 760.352 361.231 758.496C362.403 755.371 363.672 755.273 367.969 757.812C371.875 760.156 371.778 760.156 372.364 757.812C372.852 755.859 374.414 754.98 381.543 752.832C383.887 752.246 386.426 750.879 387.305 749.805C388.575 748.535 390.332 748.047 394.727 748.047C401.172 748.047 405.176 749.512 410.157 753.711C412.989 756.152 413.575 757.422 414.063 761.621C415.137 772.168 419.141 765.625 419.532 752.734L419.825 744.238L415.43 744.824C412.403 745.215 411.133 745.02 411.133 744.238C411.133 741.797 422.657 731.055 433.301 723.438C439.942 718.75 446.973 712.793 450.977 708.301C459.18 699.219 460.45 697.07 459.473 694.727C458.985 693.652 457.91 690.918 457.129 688.574C455.762 685.059 454.785 683.984 451.563 682.715C449.414 681.836 446.485 680.273 445.215 679.199C440.528 675.488 440.918 668.945 445.899 668.945C447.364 668.945 448.145 669.336 447.754 670.02C446.875 671.387 449.903 674.609 454.297 676.855C458.594 679.004 459.473 680.273 459.18 683.691C459.082 685.449 459.668 686.523 461.426 687.5C463.379 688.574 463.575 689.062 462.793 690.625C462.207 691.602 461.914 693.262 462.11 694.141C462.403 695.508 462.696 695.312 463.77 693.359C467.188 687.012 476.075 672.168 477.539 670.41C478.516 669.336 479.688 667.09 480.274 665.43C481.055 662.793 480.957 662.012 479.395 660.449C476.172 657.324 477.93 655.566 484.668 654.785C487.989 654.395 493.262 653.223 496.387 652.148C500.977 650.488 502.442 650.293 504.492 651.27C508.887 653.223 511.719 652.539 515.235 648.73C517.09 646.777 518.848 645.508 519.239 645.801C519.629 646.191 519.336 647.07 518.75 647.656C518.067 648.34 517.578 649.121 517.578 649.512C517.578 650.781 522.657 651.465 524.024 650.391C524.903 649.609 527.637 649.414 532.422 649.902C542.871 650.879 544.532 648.828 542.481 637.598C541.7 633.594 544.043 627.93 546.387 627.93C548.145 627.93 548.34 629.492 546.778 630.469C546.192 630.762 545.117 632.52 544.336 634.375C543.164 637.109 543.164 637.988 544.336 640.332C545.117 641.797 546.387 644.727 547.266 646.875C548.633 650.098 549.219 650.586 551.367 650.098C553.223 649.805 554.297 650.293 555.86 652.344C557.52 654.59 558.887 655.273 563.575 655.762C569.727 656.445 571.094 658.203 567.188 660.254C564.551 661.621 547.266 660.547 541.7 658.594C539.551 657.812 534.668 657.227 530.86 657.227C526.758 657.227 523.34 656.738 522.657 656.055C520.313 653.711 520.508 656.055 522.852 658.887C526.172 662.891 530.371 664.551 533.106 663.086C534.473 662.402 535.742 662.402 536.914 662.988C537.793 663.477 541.114 664.16 544.239 664.551C548.34 665.039 550.098 665.82 550.879 667.188C551.465 668.262 551.758 669.238 551.563 669.336C548.145 671.875 543.555 673.828 541.309 673.828C537.5 673.828 535.352 676.074 537.11 678.223C538.867 680.371 541.992 680.078 541.992 677.734C541.992 674.902 543.457 675.293 545.899 678.711C547.364 680.762 548.828 681.641 550.782 681.641C552.246 681.641 553.711 682.324 554.102 683.105C554.395 683.887 555.762 684.57 557.032 684.57C559.571 684.57 562.5 687.695 562.5 690.43C562.5 691.504 564.942 692.578 570.899 694.238L579.395 696.582L584.375 694.727C587.891 693.457 592.09 692.871 598.633 692.773C610.938 692.676 610.84 692.773 609.375 690.918C607.52 688.672 609.082 687.891 612.11 689.648C615.235 691.504 618.164 690.43 618.164 687.5C618.164 686.426 618.653 685.547 619.141 685.547C619.727 685.547 620.117 687.207 620.117 689.16C620.117 692.383 620.215 692.578 621.387 690.918C622.852 688.965 625.489 689.746 624.61 691.895C624.317 692.676 624.707 693.75 625.489 694.336C626.465 695.117 626.856 695.117 627.246 694.141C627.539 693.262 628.418 693.75 629.883 695.605C631.934 698.145 632.129 698.242 634.375 696.777C635.645 695.996 637.403 695.312 638.282 695.312C639.551 695.312 639.649 695.02 638.77 693.945C637.793 692.773 637.989 692.09 639.453 690.625C641.016 689.062 641.602 688.965 642.969 689.941C644.239 690.918 644.434 692.09 643.946 695.117C643.653 697.363 643.653 700.684 643.946 702.637C644.532 705.762 644.922 706.055 647.95 706.055C649.805 706.055 651.367 706.445 651.367 707.031C651.367 707.52 650.684 707.715 649.903 707.422C648.828 706.934 648.242 707.715 647.852 709.863C647.168 713.086 646.778 713.379 644.629 712.012C643.653 711.328 642.383 711.719 640.821 712.988C639.063 714.355 638.086 714.551 637.11 713.77C636.231 712.988 634.961 713.574 632.129 716.113C625.684 721.875 621.875 723.047 619.532 720.02C618.36 718.457 618.164 718.555 616.797 721.777C615.821 724.121 614.258 725.781 612.11 726.66C606.739 728.809 599.61 734.375 599.024 736.914C598.731 738.184 597.754 739.258 597.071 739.258C596.289 739.258 594.434 740.039 592.969 741.016C589.453 743.359 587.11 744.727 582.715 747.07C578.907 749.219 576.953 752.051 578.907 752.734C579.59 752.93 580.078 754.102 580.078 755.273C580.078 756.934 580.957 757.617 584.18 758.496C587.696 759.473 588.575 759.375 590.625 757.812C591.895 756.738 594.825 755.664 597.168 755.371C601.953 754.59 603.321 755.371 613.77 764.258C616.992 766.992 621.094 770.02 622.852 770.898C625.782 772.461 626.27 772.461 629.395 770.898C631.25 770.02 632.813 768.945 632.813 768.555C632.813 767.09 637.305 766.016 640.43 766.797C643.848 767.676 644.434 769.531 641.992 771.582C640.235 773.047 640.821 776.367 643.555 780.176C644.629 781.543 645.996 785.254 646.582 788.379C647.657 793.652 647.559 794.238 645.508 797.07C643.653 799.609 643.457 800.781 643.946 805.078C644.336 807.91 644.141 811.328 643.653 812.793C642.969 814.551 642.969 815.527 643.75 816.016C644.922 816.797 639.453 819.336 636.621 819.336C634.278 819.336 634.278 819.824 636.621 823.145C637.891 824.805 640.723 826.562 644.825 828.027C650.196 829.883 651.367 830.762 652.246 833.203L653.321 836.133L661.719 835.449C671.485 834.668 676.075 833.008 679.297 829.102C680.664 827.539 683.203 825.781 685.059 825.195C686.914 824.609 688.477 823.535 688.477 822.949C688.477 822.266 689.356 821.191 690.332 820.605C691.309 819.922 692.871 817.285 693.75 814.648C695.215 810.156 696.094 809.277 703.223 804.785C711.817 799.219 714.746 797.852 718.164 797.852C720.801 797.852 730.957 793.555 731.934 791.992C732.227 791.406 734.668 789.941 737.305 788.574C739.844 787.305 742.188 785.742 742.383 785.059C742.774 783.887 748.633 783.594 751.856 784.668C753.418 785.156 753.809 784.961 753.321 783.789C753.028 782.91 753.028 781.445 753.418 780.469C753.809 779.59 754.297 778.125 754.395 777.148C754.492 776.27 755.274 774.414 756.153 773.047C757.617 770.801 758.496 770.508 763.282 770.508C769.434 770.508 775.684 773.145 777.442 776.66C779.004 779.59 780.371 780.273 782.422 779.199C783.399 778.613 785.059 778.418 786.035 778.809C787.207 779.199 788.086 778.613 788.867 776.855C790.137 774.219 790.137 774.219 799.903 775.977C801.563 776.27 802.93 775.781 804.2 774.414C805.176 773.34 806.836 772.461 807.813 772.461C810.059 772.461 815.43 769.824 815.43 768.652C815.43 768.164 814.746 767.188 813.867 766.504C811.817 764.844 812.5 754.59 814.844 752.051C815.723 751.074 816.407 749.902 816.407 749.316C816.407 748.73 817.188 748.438 818.164 748.633C819.141 748.926 820.899 748.047 822.461 746.387L825.098 743.652L821.485 740.723C818.164 738.086 817.09 737.793 809.18 737.402C801.856 737.109 799.903 737.402 796.387 739.16C793.75 740.527 791.992 742.09 791.602 743.555C790.723 747.168 786.133 747.852 782.227 744.922C780.274 743.457 779.297 742.09 779.59 741.016C780.371 738.184 776.465 738.867 775.391 741.699C774.903 743.066 774.024 744.141 773.438 744.141C772.95 744.141 772.461 744.922 772.461 745.801C772.461 746.777 771.875 748.34 771.192 749.219C769.532 751.367 760.938 755.859 758.496 755.859C757.422 755.859 756.055 756.445 755.469 757.227C753.907 759.082 749.024 760.156 749.024 758.594C749.024 757.227 738.672 751.953 736.133 751.953C734.375 751.953 730.469 747.949 730.469 746.094C730.469 745.312 731.348 743.848 732.422 742.676C734.082 740.918 734.18 740.137 733.301 736.816C731.836 731.738 724.707 724.512 721.778 725.293C720.313 725.684 719.727 725.391 719.727 724.219C719.727 723.34 719.141 722.656 718.36 722.656C717.578 722.656 716.797 722.168 716.602 721.484C716.309 720.605 715.43 720.605 713.086 721.582C711.426 722.266 709.18 722.559 708.301 722.168C706.739 721.582 706.934 721.289 709.278 720.117C712.696 718.262 712.598 714.551 709.278 714.062C706.25 713.574 706.446 711.133 709.473 710.352C712.305 709.668 712.793 708.008 710.157 708.008C708.301 708.008 704.004 710.938 700.391 714.551C699.219 715.82 697.559 716.797 696.68 716.797C695.41 716.797 695.508 716.406 697.071 714.16C698.145 712.598 700.196 710.352 701.563 709.082C704.102 706.641 704.883 703.32 703.125 701.562C702.637 701.074 702.442 697.168 702.832 692.09L703.418 683.594H707.422C709.766 683.594 712.5 682.812 713.867 681.934C715.137 680.957 718.848 678.809 722.168 677.246C726.367 675.195 728.418 673.438 729.297 671.289C730.078 669.727 731.641 667.969 732.715 667.383C735.45 666.211 736.035 662.5 733.887 660.156C733.008 659.18 732.422 657.715 732.617 657.031C732.91 656.25 733.496 656.543 734.278 658.008C734.864 659.18 736.035 660.156 736.817 660.156C737.696 660.156 738.282 661.426 738.477 663.77C738.867 668.359 741.602 669.336 743.36 665.527C744.336 663.281 744.239 662.305 742.481 658.887C739.551 653.027 739.063 651.465 738.672 645.508C738.282 639.648 739.551 636.133 741.114 638.574C741.602 639.355 742.285 642.383 742.676 645.312C743.067 648.242 744.141 651.953 745.215 653.711C746.192 655.371 747.071 657.812 747.071 659.082C747.071 661.23 747.168 661.328 748.828 659.961C749.707 659.082 751.563 658.105 752.832 657.715C754.102 657.324 758.985 653.223 763.575 648.535C770.703 641.406 772.657 639.941 776.563 639.16C779.004 638.574 782.032 638.379 783.106 638.867C784.18 639.258 786.426 639.062 788.086 638.574C792.188 637.109 793.946 637.988 793.946 641.602C793.946 643.652 792.871 645.801 790.332 648.535C786.914 652.344 786.817 652.539 789.063 652.148C791.016 651.953 792.481 650 796.192 643.066C798.731 638.184 801.27 634.18 801.758 633.984C802.246 633.789 804.2 632.617 806.153 631.25C808.106 629.98 810.45 628.906 811.524 628.906C812.5 628.906 813.672 628.418 813.965 627.93C814.844 626.465 821.485 626.855 823.633 628.418C825.098 629.59 825.293 630.566 824.805 633.984C824.219 637.793 824.317 637.988 825.489 636.23C826.27 635.156 827.832 631.348 829.004 627.734C830.664 622.852 832.129 620.41 834.571 618.359C843.164 611.328 852.344 609.277 853.516 614.258C854.102 616.602 854.2 616.504 856.934 612.305C858.496 609.863 861.133 605.664 862.891 602.93L866.114 597.949L873.145 597.363C877.246 596.973 880.762 596.191 881.739 595.312C882.617 594.531 884.864 593.945 886.719 594.043C888.575 594.141 891.309 593.848 892.871 593.457C895.02 592.871 895.508 593.066 895.508 594.434C895.606 598.73 897.071 598.438 902.637 593.262C906.153 590.039 908.203 587.305 908.203 585.938C908.203 584.766 908.985 582.617 910.059 581.25C911.035 579.785 912.012 577.441 912.305 575.977C912.696 573.73 912.403 573.34 910.254 573.047C907.422 572.754 907.52 573.242 908.789 561.23C909.375 555.078 909.766 554.395 913.282 551.27C915.43 549.512 918.262 547.754 919.629 547.363C920.996 547.07 923.535 545.703 925.196 544.434C926.856 543.164 929.395 541.699 930.957 541.113C932.422 540.527 933.594 539.551 933.594 538.867C933.594 538.184 934.668 535.352 935.938 532.617L938.282 527.637L955.664 527.539C975.586 527.344 983.008 526.66 985.938 524.707C987.696 523.633 988.379 521.387 989.746 512.402C991.309 502.051 995.215 491.504 998.047 489.746C999.317 488.965 999.317 483.301 998.047 479.98C997.461 478.516 994.825 474.902 992.188 471.875C988.184 467.383 987.305 465.723 987.305 462.793C987.305 459.473 987.012 459.082 982.325 456.934C977.442 454.59 977.442 454.59 977.93 450.684C979.004 441.602 979.981 438.965 982.129 438.672C983.301 438.477 985.157 438.867 986.328 439.453C990.039 441.504 996.778 434.277 994.141 431.152C992.774 429.492 989.258 429.199 989.258 430.762C989.258 431.25 988.867 431.445 988.282 431.152C987.793 430.859 984.864 430.176 981.934 429.688C977.93 429.004 975.782 428.027 973.633 425.879C971.973 424.316 970.703 422.754 970.703 422.559C970.703 422.07 976.367 420.996 980.567 420.605C984.278 420.312 985.938 418.457 987.207 413.379C988.477 408.496 992.774 403.711 997.364 402.148C998.828 401.562 1000 400.879 1000 400.488C1000 400.098 998.926 397.168 997.657 393.945C995.508 388.574 995.02 388.086 990.821 386.719C986.719 385.352 984.473 383.594 984.375 381.641C984.375 381.348 985.938 380.469 987.793 379.883C989.649 379.297 991.407 378.418 991.7 377.93C992.774 376.172 990.918 371.973 988.379 370.703C986.133 369.531 984.864 369.531 979.395 370.801C973.438 372.266 972.657 372.266 968.555 370.703C964.453 369.141 962.989 367.48 961.524 362.988C961.035 361.523 959.668 361.328 951.27 361.328H941.602L938.477 357.422C935.059 353.125 931.836 352.344 929.981 355.469C929.297 356.543 927.344 358.105 925.684 358.984C922.754 360.449 922.559 360.449 920.02 358.105C918.653 356.738 916.211 355.273 914.746 354.883C912.598 354.395 912.11 353.809 912.403 352.344C912.793 350.977 911.914 349.805 908.887 347.852C906.153 345.996 904.785 345.605 904.492 346.484C904.297 347.168 902.344 347.656 899.707 347.656C896.094 347.656 894.825 347.168 892.481 344.629C890.918 342.969 889.649 341.211 889.649 340.723C889.649 340.234 886.621 339.844 882.813 339.844C875.684 339.844 875.391 340.039 876.953 344.336C877.539 345.703 877.735 348.34 877.344 350.098C876.856 352.93 876.465 353.223 874.414 352.637C873.047 352.344 871.192 350.684 870.117 349.121C869.043 347.461 864.844 344.336 860.157 341.699L852.051 337.207L851.758 332.715C851.563 329.102 850.879 327.734 848.535 325.684C846.875 324.316 845.02 323.242 844.336 323.242C843.653 323.242 842.285 322.363 841.309 321.289C839.746 319.531 839.746 319.336 841.211 318.75C842.09 318.359 842.774 317.09 842.774 315.43C842.774 312.793 842.676 312.695 839.649 313.574C837.891 314.062 835.059 314.453 833.399 314.453C831.543 314.453 828.125 315.918 824.317 318.359C819.629 321.387 817.383 322.266 813.965 322.266C810.547 322.266 808.301 323.145 803.516 326.172C795.996 331.055 793.946 331.641 790.235 329.688C788.575 328.809 785.45 328.125 783.301 328.125C781.153 328.125 779.102 327.637 778.809 327.148C778.516 326.562 775.586 324.414 772.461 322.266C765.235 317.383 761.133 317.188 749.805 321.387C737.989 325.684 738.282 325.586 738.282 323.926C738.282 323.047 736.914 320.801 735.254 318.945C731.055 314.062 730.371 310.938 732.129 303.125C733.692 295.605 733.008 291.406 729.2 285.254C728.125 283.398 726.856 279.492 726.465 276.562C725.684 270.898 723.828 268.652 719.922 268.555C716.309 268.555 714.063 266.895 712.891 263.184C710.742 256.641 706.543 255.664 695.508 259.375C689.746 261.328 687.5 261.133 687.5 258.887C687.5 257.812 686.231 256.055 684.668 254.98C682.325 253.32 680.371 252.93 673.926 252.93C665.43 252.93 664.649 252.344 667.578 248.145C669.239 245.898 668.75 245.02 665.625 243.848C665.039 243.652 665.137 242.383 665.723 240.625C667.285 236.328 666.114 231.738 662.696 228.027L659.571 224.805L663.086 223.73C664.942 223.145 667.969 221.777 669.629 220.703C672.657 218.848 672.754 218.555 672.266 214.16C671.582 208.887 668.555 204.98 662.989 202.051C659.961 200.586 658.887 199.023 656.348 192.969C654.688 188.965 653.321 185.059 653.321 184.18C653.321 183.398 652.344 181.543 651.075 179.98C649.805 178.516 647.364 175.098 645.606 172.461C642.188 167.578 636.426 164.062 631.836 164.16C630.469 164.258 626.563 164.844 623.145 165.625Z" fill="black"/>
<circle cx="456" cy="337" fill="#5CE50D"/>
<circle cx="486" cy="659" fill="#E52A0D"/>
<circle cx="122" cy="397" fill="#E52A0D"/>
<circle cx="761" cy="500" fill="#E52A0D"/>
</svg>
