<svg width="1000" height="1000" viewBox="0 0 1000 1000" fill="none" xmlns="http://www.w3.org/2000/svg">
<rect width="1000" height="1000" />
<path d="M749.509 60.3143L708.858 99.0032L680.355 98.4425L651.852 97.8818L638.115 87.2283C630.639 81.4343 624.003 76.6683 623.443 76.6683C622.976 76.6683 618.209 79.7522 612.883 83.5837C603.444 90.3122 602.977 90.5926 588.305 94.7045L573.353 98.9098L545.878 99.564L518.403 100.218L500.928 111.058L483.452 121.992L482.798 129.842C482.518 134.234 482.144 137.879 481.957 137.973C481.864 138.066 478.312 137.786 474.014 137.225L466.351 136.197L463.454 131.244L460.65 126.291L451.959 126.852C441.679 127.506 441.866 127.599 440.091 116.946C439.25 111.9 438.409 109.75 436.913 108.535C435.698 107.694 433.269 104.61 431.493 101.807C429.717 99.0032 425.699 94.2372 422.615 91.2468L416.915 85.7331L412.055 90.1253C406.542 95.0782 403.551 98.8163 401.869 102.835C400.748 105.638 400.093 105.732 381.403 108.068C377.758 108.535 375.516 109.47 373.273 111.526L370.095 114.236L362.339 110.217C358.134 108.068 348.788 103.115 341.686 99.377L328.603 92.4616L318.136 91.9009L307.67 91.3402L302.063 95.7324C298.979 98.1622 294.867 100.592 292.904 101.153C290.848 101.62 287.297 103.489 284.961 105.264C282.344 107.134 279.541 108.442 277.859 108.442C274.681 108.442 271.037 111.806 271.037 114.797C271.037 116.105 269.822 117.413 267.299 118.815C262.906 121.338 257.767 128.721 255.711 135.543C254.87 138.346 254.215 140.87 254.215 141.243C254.215 142.458 260.196 140.122 261.505 138.44C262.626 137.038 262.813 137.131 263.841 138.814C264.495 139.842 265.43 143.58 265.897 147.224C266.831 153.672 266.831 153.859 263.654 159.84C260.29 166.195 256.552 171.522 252.253 176.194C250.384 178.157 248.702 182.269 246.459 189.745C244.683 195.632 242.16 203.389 240.852 207.033C236.833 218.341 236.833 218.434 241.039 222.266C253.842 234.228 253.748 234.134 254.963 239.181C257.393 249.928 255.43 260.114 250.197 263.478C247.861 264.973 247.02 266.375 245.711 271.702C244.87 275.16 242.627 281.608 240.758 286C238.422 291.701 237.394 295.345 237.394 298.896C237.394 302.821 236.833 304.503 234.591 307.681C232.441 310.671 231.787 312.447 231.974 314.97L232.254 318.241L240.665 319.362C245.337 319.923 249.169 320.484 249.169 320.484C249.262 320.577 249.636 322.166 249.917 324.035C250.29 325.997 251.318 329.362 252.159 331.604C253.468 334.782 254.402 335.716 257.019 336.464C258.794 336.931 260.757 337.398 261.318 337.398C262.439 337.398 265.336 333.66 267.672 329.175C270.289 324.128 273.747 324.969 283.933 333.006C288.886 336.931 289.727 338.053 289.353 339.828C288.886 341.604 289.447 342.351 293.091 344.501C297.203 346.93 297.577 347.024 303.277 345.996C312.249 344.314 311.875 344.127 314.024 351.603C315.239 355.435 316.921 358.986 318.043 359.92C319.912 361.415 326.36 363.565 328.883 363.565C329.444 363.565 331.78 360.948 334.117 357.771C338.041 352.257 338.322 352.164 339.069 354.313C339.537 355.528 340.845 358.986 341.966 361.976C343.088 364.967 344.116 369.92 344.209 373.003C344.396 377.022 345.05 379.265 346.639 381.414C348.788 384.311 348.788 384.405 347.2 389.638C345.798 394.31 345.798 395.899 346.732 402.254L347.854 409.543L341.312 419.542C337.668 425.336 334.584 431.224 334.21 433.28C333.275 438.326 329.911 443.186 324.117 447.765C321.407 449.821 317.669 453.372 315.707 455.615C309.352 462.81 306.922 463.838 295.334 463.745H285.148L283.746 467.39C282.531 470.287 281.223 471.501 276.737 473.744C273.373 475.52 270.102 478.043 268.14 480.566C266.458 482.809 262.719 487.295 259.822 490.659C256.925 494.023 253.187 499.07 251.599 501.873C250.01 504.677 244.683 511.032 239.73 515.891C232.721 522.9 230.852 525.33 230.852 527.386C230.852 531.124 226.741 538.693 223.657 540.656C222.255 541.59 218.05 545.235 214.405 548.786L207.77 555.141L201.415 554.3C197.957 553.832 194.967 553.178 194.687 552.898C194.406 552.617 194.687 550.468 195.247 548.132C196.182 544.581 196.088 543.459 194.874 541.777C194.126 540.656 193.472 538.319 193.378 536.45C193.378 534.675 193.005 532.339 192.631 531.311C192.07 530.002 192.444 528.694 193.565 526.918L195.341 524.489L191.696 523.834C188.986 523.367 187.117 523.741 184.407 525.049C182.444 525.984 178.987 527.105 176.65 527.386C174.314 527.759 170.856 528.414 168.894 528.974C165.904 529.909 165.436 530.376 165.436 532.806C165.436 535.516 165.436 535.609 162.633 534.114C158.895 532.152 158.427 532.245 154.316 536.077C148.428 541.31 145.064 547.384 143.475 555.701C140.858 568.411 139.737 571.121 134.784 575.42C132.167 577.569 128.429 579.718 126.093 580.373C123.85 580.933 117.496 583.83 111.982 586.727C102.263 591.867 101.983 592.054 100.955 596.166C100.3 598.689 100.207 603.081 100.581 607.567C101.142 613.828 100.955 615.23 99.2725 617.94C97.5904 620.744 97.4969 621.772 98.338 628.5C98.8053 632.612 99.8332 636.631 100.581 637.472C101.422 638.406 101.889 641.023 101.889 644.667V650.368L94.1327 659.152C86.5631 667.843 86.3762 668.124 83.3857 678.31C81.1429 686.253 80.3953 690.365 80.3953 696.253V703.822L75.2555 703.262L70.1156 702.607V705.411C70.1156 707.56 69.5549 708.401 67.4055 709.336C65.443 710.084 64.0413 711.859 62.6395 715.223C60.677 719.802 60.5835 720.176 62.0788 724.755C63.3871 728.961 63.3871 729.989 62.1722 734.568C60.2097 741.951 60.3032 742.698 64.0413 743.913C65.8168 744.474 68.7138 746.623 70.4894 748.773C72.265 750.828 75.3489 753.912 77.4048 755.688C81.0495 758.772 81.2364 758.865 84.5072 757.464C86.2827 756.716 88.9928 756.062 90.3012 756.062H92.8244L90.9553 758.118C89.4601 759.8 88.8994 761.949 88.5256 767.276C87.5911 780.826 81.0495 795.311 75.8162 795.311C74.3209 795.311 71.0501 796.9 67.9662 799.049C65.1627 801.105 61.9853 802.788 60.9574 802.788C58.1538 802.788 51.1449 810.824 51.7056 813.348C51.986 814.469 52.5467 818.394 52.8271 821.945C53.4812 828.3 53.3878 828.58 51.3318 829.515C49.7432 830.262 49.089 831.384 48.9955 833.253C48.9955 834.748 48.1545 838.486 47.3134 841.57C46.3789 844.654 45.3509 852.878 44.8837 859.793L44.1361 872.409L46.8462 876.334C48.3414 878.483 49.5563 880.446 49.5563 880.726C49.5563 881.007 47.0331 881.287 43.9492 881.287H38.4355L37.501 884.745C36.9403 886.707 36.473 889.791 36.3796 891.567C36.3796 893.342 35.632 897.174 34.6974 899.977C33.1088 904.93 33.1088 905.211 34.8843 909.322C36.1927 912.313 36.7534 915.957 36.8468 921.938C37.0337 928.947 37.4075 931.003 39.2766 933.994C41.1456 937.078 41.3325 938.106 40.5849 941.003C40.0242 942.965 39.9307 945.675 40.398 947.264C40.8652 948.759 41.5194 952.871 41.9867 956.422C42.4539 959.973 43.3884 963.151 44.0426 963.618C44.6968 963.992 47.0331 964.552 49.3693 964.926C52.9205 965.487 53.855 965.207 56.0044 963.337C61.4246 958.385 63.2002 957.73 68.9007 958.852C75.7227 960.067 75.2555 960.16 76.4703 957.45C77.3114 955.674 78.2459 955.114 80.5822 955.114C84.5072 955.114 89.1797 960.44 90.0208 965.767C90.7684 970.346 95.3476 977.916 97.5904 978.29C98.5249 978.477 102.637 976.888 106.655 974.832C111.795 972.122 114.692 971.094 116.187 971.468C117.963 971.935 118.804 971.468 120.112 969.412C122.635 965.487 127.308 961.749 129.738 961.655C133.382 961.655 137.12 959.039 138.242 955.861C140.952 948.105 142.541 945.862 145.811 944.741C147.587 944.18 150.204 942.217 151.699 940.535C153.101 938.853 155.063 937.171 156.091 936.891C157.119 936.61 160.016 932.872 162.539 928.667C165.997 922.873 167.305 919.696 167.773 915.677L168.427 910.35H179.734C189.08 910.444 191.696 910.724 194.687 912.313L198.331 914.088L200.387 912.219C202.91 909.883 206.835 909.696 214.031 911.659C216.835 912.406 219.171 913.06 219.171 913.06C219.264 913.06 220.853 910.911 222.816 908.388C225.806 904.463 227.208 903.435 231.694 902.22C234.591 901.379 237.301 900.071 237.674 899.417C238.702 897.734 243.188 897.734 247.393 899.51C250.29 900.725 261.878 900.912 332.341 900.912C421.307 900.912 415.887 901.286 412.896 895.959C412.149 894.651 411.868 891.099 412.055 886.146C412.429 876.614 411.214 874.745 405.14 874.745C400.934 874.745 400 873.811 400 869.605C400 866.054 404.299 857.644 407.943 854.186C409.812 852.41 411.868 849.607 412.616 848.018C413.27 846.336 414.952 844.654 416.728 844C420.279 842.505 420.279 842.131 417.195 839.701C414.859 837.832 414.859 837.832 415.98 831.01C416.634 827.365 417.569 824.281 418.13 824.281C418.69 824.281 420.559 821.665 422.335 818.394C427.194 809.703 429.904 806.526 432.895 806.526C435.138 806.526 439.25 803.442 439.25 801.853C439.25 800.732 449.436 787.648 451.305 786.34C452.8 785.219 453.267 785.312 454.202 786.434C454.856 787.181 455.697 787.835 456.164 787.835C457.473 787.835 457.192 785.592 455.043 780.546C453.548 776.995 452.333 775.593 450.37 774.846C448.127 774.098 447.66 773.35 447.66 771.014C447.66 766.435 446.165 764.472 442.614 764.472H439.53L439.997 759.052C440.278 754.94 440.932 753.165 442.801 751.109C445.137 748.679 445.604 748.586 454.482 748.586H463.734L462.426 746.53C461.585 745.221 459.809 744.287 458.127 744.1C455.697 743.82 453.454 741.577 454.482 740.455C454.763 740.268 457.286 739.427 460.183 738.586C465.323 737.185 465.509 737.185 467.565 738.96C470.369 741.577 476.35 744.474 480.368 745.221C483.359 745.689 483.826 745.502 484.761 743.259C485.415 741.764 486.443 739.895 487.097 739.054C488.031 737.745 487.844 737.091 485.975 735.035C482.611 731.391 485.975 731.951 491.115 735.97C494.853 738.773 495.694 739.054 497.657 738.119C500.928 736.624 500.928 731.484 497.657 729.335C496.349 728.493 495.321 727.279 495.321 726.531C495.321 725.597 496.909 725.877 501.675 727.652C509.245 730.549 510.273 731.297 510.273 734.194C510.273 737.091 511.675 737.091 513.637 734.194C514.572 732.699 515.132 729.895 515.039 726.157C515.039 720.55 515.132 720.363 518.216 719.055C519.898 718.401 521.58 716.905 521.954 715.878C522.328 714.569 523.356 714.009 525.319 714.009C526.814 714.009 528.029 714.382 528.029 714.85C528.029 715.317 526.627 717.84 524.851 720.457C522.328 724.195 521.954 725.316 522.889 726.157C524.571 727.559 528.683 726.344 529.243 724.288C529.711 722.606 535.224 721.111 536.065 722.513C536.72 723.634 547.56 723.354 548.214 722.232C548.588 721.672 547.747 720.176 546.345 718.961C544.476 717.373 543.915 716.251 544.383 714.85C544.756 713.728 545.504 713.167 546.345 713.448C547.093 713.728 548.308 714.289 549.149 714.569C550.27 715.036 550.457 714.663 549.896 712.7C549.523 710.925 549.709 710.177 550.831 709.71C552.046 709.242 551.952 708.869 549.896 707.28C546.532 704.57 546.999 699.991 550.924 698.776C552.513 698.309 554.475 697.281 555.317 696.533C556.158 695.692 558.868 694.851 561.204 694.664C564.942 694.197 565.409 694.384 565.409 695.972C565.409 697.094 564.755 698.402 563.914 699.056C563.166 699.804 562.606 701.393 562.793 702.701C563.166 706.252 566.531 706.345 571.297 702.794L575.222 699.897L576.81 701.953C578.399 703.822 578.399 704.009 576.343 705.598C575.128 706.532 572.512 707.56 570.456 707.934C563.727 709.056 563.54 709.242 563.54 712.794V716.158L569.428 715.504C572.605 715.13 575.969 714.102 576.904 713.354C578.212 712.046 579.053 712.046 581.95 712.887C583.819 713.448 585.408 713.822 585.408 713.728C585.969 711.672 588.585 709.336 593.258 707C596.342 705.411 599.613 703.542 600.36 702.888C601.575 701.86 601.949 702.327 602.79 705.691C603.724 709.242 603.724 709.803 602.229 710.925C600.641 712.139 600.641 712.326 602.136 714.85C602.977 716.345 603.724 718.214 603.724 719.055C603.724 720.83 605.78 720.55 614.752 717.186C621.293 714.756 626.34 711.392 632.975 705.318C637.928 700.551 638.395 698.869 635.031 696.626C631.947 694.664 633.442 692.515 637.928 692.515C640.451 692.515 641.105 692.888 641.105 694.384C641.105 695.412 641.479 696.253 641.946 696.253C643.815 696.253 645.778 695.038 645.778 693.916C645.778 693.262 646.712 692.141 647.834 691.393C649.703 690.178 649.796 689.711 648.675 687.281C647.553 684.291 648.581 679.431 650.357 679.431C651.478 679.431 667.085 670.273 667.645 669.245C667.926 668.778 666.524 667.283 664.561 665.974L661.01 663.451L662.692 659.993C663.72 658.124 664.468 656.068 664.468 655.414C664.468 653.732 665.122 653.826 669.795 656.629C673.439 658.685 674.28 658.872 676.897 657.938C678.486 657.377 681.009 655.695 682.504 654.106C684.56 651.77 685.308 651.396 686.429 652.33C687.551 653.265 687.457 653.919 685.495 656.442C684.093 658.218 683.158 660.741 683.158 662.517C683.158 664.946 682.878 665.414 681.57 665.04C675.122 663.171 674.935 663.171 674.28 666.629C673.346 671.488 674.187 672.236 679.701 671.675C684.28 671.114 684.28 671.114 682.691 672.89C678.953 677.002 687.364 679.525 692.223 675.693C695.307 673.357 697.737 673.357 699.232 675.693C699.98 676.815 701.475 677.562 702.97 677.562C705.12 677.562 705.587 677.936 705.587 679.899C705.587 681.207 706.147 682.515 706.895 682.796C707.643 683.076 708.016 683.917 707.736 684.665C707.175 686.16 703.624 686.44 702.222 685.038C701.662 684.478 699.886 684.571 697.363 685.225C694.186 685.973 693.625 686.44 694.466 687.468C695.307 688.496 695.12 689.337 693.905 691.206C692.971 692.608 692.69 694.01 693.158 694.477C694.559 695.879 705.867 699.991 708.297 699.991C709.605 699.991 711.941 700.645 713.437 701.393C716.053 702.794 716.334 702.701 718.67 700.458C719.978 699.15 721.754 698.122 722.595 698.122C724.184 698.122 725.679 694.851 726.613 689.244C726.894 687.188 727.641 684.104 728.296 682.422C729.23 679.712 729.604 679.431 732.314 679.992C734.276 680.366 736.706 679.899 739.416 678.684C742.407 677.375 743.995 677.189 745.491 677.843L747.547 678.777L744.836 682.235C741.192 686.814 741.192 688.777 744.836 688.777H747.64L745.771 692.515C744.743 694.477 743.902 697.281 743.902 698.589C743.902 700.832 744.089 700.925 749.976 700.925C755.957 700.925 756.051 700.925 756.051 698.309C756.144 695.879 756.144 695.879 757.452 697.561C758.2 698.589 758.854 701.206 758.854 703.448C758.854 706.813 759.135 707.467 760.63 707.467C761.938 707.467 762.592 706.532 763.06 704.476C764.087 699.991 764.274 699.897 767.545 701.86C771.283 704.196 773.526 704.196 774.274 701.953C774.554 700.925 775.395 699.897 776.143 699.617C776.89 699.337 777.544 698.309 777.544 697.281C777.544 696.066 778.386 695.318 780.255 694.851C781.75 694.571 783.993 693.075 785.394 691.487C786.703 689.991 788.198 688.777 788.665 688.777C789.039 688.777 789.039 691.206 788.572 694.103C787.357 701.86 787.918 702.981 790.815 698.122C792.123 695.785 795.394 692.141 797.917 689.991C800.627 687.655 803.991 683.45 805.954 679.992C808.757 674.946 809.318 673.077 809.318 668.217C809.318 664.573 809.972 661.302 811.094 659.059C813.15 654.947 818.103 641.303 819.504 635.883C820.532 632.145 820.719 631.958 828.569 628.874L836.606 625.697L839.877 619.155C841.746 615.51 843.708 610.464 844.269 607.941L845.297 603.268L849.783 602.801C855.857 602.147 860.717 598.315 860.717 594.11C860.717 591.774 861.651 590.185 864.548 587.382C866.604 585.326 869.501 581.681 871.09 579.345C873.426 575.7 873.8 574.205 873.8 568.598C873.8 561.776 875.388 556.356 879.313 550.188C880.715 547.851 881.93 546.823 883.051 547.104C889.593 549.066 889.313 549.253 891.556 542.618L893.612 536.45H897.817C901.181 536.45 902.863 535.796 905.76 533.46C908.564 531.311 911.274 530.189 916.227 529.255C919.871 528.6 925.105 527.572 927.815 527.012L932.674 526.077V520.937C932.674 518.134 932.02 514.302 931.179 512.34C930.431 510.471 929.404 507.2 928.936 505.144C928.469 503.088 927.815 500.471 927.534 499.35C926.88 497.481 927.534 496.92 932.768 494.584C939.216 491.687 941.926 488.042 942.113 481.968C942.3 475.333 943.047 474.398 949.028 473.371C954.355 472.436 954.635 472.249 955.85 468.698C956.598 466.642 958.373 461.689 959.869 457.671C962.485 450.662 962.579 449.727 962.579 434.308C962.579 419.823 962.766 417.954 964.448 415.43C966.971 411.599 966.784 410.384 963.326 406.833C960.71 404.123 960.149 402.721 959.308 395.993C958.373 389.171 958.373 387.956 959.962 384.872L961.644 381.321L958.841 375.807C954.542 367.209 949.028 352.818 945.197 340.295C941.365 327.492 941.365 327.492 948.374 323.194C951.365 321.325 951.552 321.044 950.991 317.213C950.71 315.063 949.215 311.232 947.627 308.802C946.131 306.372 944.823 303.195 944.823 301.793C944.823 300.485 944.543 298.055 944.262 296.56L943.702 293.756L940.057 295.719C935.758 297.962 936.599 298.709 930.618 287.589C927.628 282.262 927.067 280.299 927.067 275.72C927.067 269.926 923.049 257.123 921.086 256.563C920.526 256.376 919.03 256.002 917.722 255.722C916.04 255.348 914.732 253.946 913.236 250.862L911.087 246.47L908.283 249.18L905.386 251.89L900.807 246.75C898.191 243.947 895.481 240.302 894.639 238.807C892.49 234.882 890.621 227.312 890.621 222.733C890.621 220.303 889.406 216.098 887.257 211.426L883.893 204.043L878.846 202.921C874.36 201.893 873.519 201.333 871.931 198.155C870.903 196.099 870.062 193.483 870.062 192.174C870.062 190.866 869.221 187.689 868.193 185.072C867.165 182.456 866.324 178.624 866.324 176.475C866.324 173.858 865.296 170.868 863.053 166.849L859.875 161.055L861.371 156.289C862.866 151.803 862.866 151.243 861.371 148.252L859.875 144.981L862.866 144.701C865.763 144.421 865.856 144.234 866.417 139.281C866.791 136.477 867.632 131.805 868.286 129.001C869.781 123.114 869.594 116.011 867.912 115.451C867.258 115.264 865.669 114.89 864.268 114.61C861.838 114.049 861.651 113.675 861.651 109.376V104.704H855.016C849.876 104.704 847.633 105.171 845.204 106.666L842.026 108.629L840.998 106.012C840.531 104.517 839.596 101.246 839.036 98.6294C838.475 96.1062 838.008 93.8634 837.914 93.77C837.821 93.583 834.457 94.1437 830.438 94.8914C820.906 96.7604 820.719 96.6669 823.336 93.9568C824.551 92.6485 825.392 91.5271 825.111 91.3402C824.925 91.2468 823.242 90.4057 821.467 89.6581L818.196 88.1628L823.616 86.5742C826.513 85.7331 828.943 84.7986 828.943 84.5182C828.943 84.3313 828.382 82.6492 827.635 80.8736C826.42 78.0701 825.859 77.6962 822.214 77.4159C819.972 77.229 815.953 77.8832 813.15 78.7242L808.197 80.4064L808.851 72.9302C809.505 65.5475 809.505 65.4541 806.515 61.716L803.431 57.8845L805.487 55.7351C806.515 54.6137 807.729 51.8101 808.01 49.4739C808.57 45.5489 808.477 45.2686 804.646 42.1846C801.468 39.6614 800.814 38.6335 801.281 36.8579C801.562 35.643 802.122 33.6805 802.403 32.4656C802.776 30.5966 802.029 29.5687 797.73 26.2979C794.833 24.1484 791.936 22.2794 791.375 21.9991C790.721 21.8122 771.844 39.0073 749.509 60.3143Z" fill="black"/>
<path d="M661.664 682.892C660.262 683.265 653.721 691.489 654.375 692.05C654.468 692.237 656.805 693.358 659.328 694.573C663.066 696.255 664.094 697.283 664.281 699.339C664.561 701.582 664.281 701.862 661.945 701.862C657.646 701.862 656.337 703.358 659.608 704.479C661.103 704.946 663.907 707.376 665.869 709.712C668.953 713.357 669.608 713.731 670.542 712.516C671.383 711.207 671.757 711.581 672.691 714.665C673.719 718.029 674 718.31 676.616 717.936C679.887 717.469 679.887 717.562 677.925 713.918C677.084 712.142 676.71 710.086 677.084 708.31C677.644 705.974 677.457 705.6 675.775 705.6C673.065 705.6 673.159 701.862 676.056 699.152C677.551 697.657 678.859 697.283 680.541 697.657C683.345 698.405 685.868 695.788 686.522 691.396C686.99 688.686 686.709 687.938 684.653 686.63C682.317 685.041 682.224 685.041 680.915 687.751C678.859 691.583 677.084 691.863 673.719 688.873C671.196 686.536 671.009 685.882 671.85 684.2C672.878 682.331 672.785 682.237 668.019 682.331C665.309 682.424 662.412 682.611 661.664 682.892Z" fill="black"/>
<path d="M716.521 709.613L713.811 710.735L716.24 713.352C719.231 716.529 722.875 716.903 722.034 713.725C721.754 712.604 721.474 710.922 721.474 709.987C721.474 708.118 720.165 708.025 716.521 709.613Z" fill="black"/>
<path d="M752.5 715.69C751.658 716.251 751.472 717.373 751.939 718.961C752.5 721.391 752.686 721.484 759.882 721.484C766.33 721.484 767.358 721.297 768.573 719.428C769.975 717.466 769.975 717.279 768.106 716.625C764.929 715.41 753.808 714.756 752.5 715.69Z" fill="black"/>
<path d="M583.352 729.152C581.016 729.993 580.175 730.927 579.427 733.638C578.399 737.563 574.381 743.45 568.774 749.431L564.942 753.449L569.428 752.795C572.886 752.328 574.474 752.515 576.343 753.823C578.68 755.318 578.96 755.318 582.792 753.262C584.941 752.048 587.371 749.898 588.212 748.403C589.987 745.506 589.707 745.412 585.221 746.627C582.605 747.468 582.231 747.282 582.231 745.693C582.231 743.73 584.754 739.618 588.679 735.32C590.828 732.89 590.828 732.703 589.333 730.367C587.651 727.75 587.745 727.844 583.352 729.152Z" fill="black"/>
<path d="M461.397 773.63C459.248 775.967 459.341 776.247 463.453 778.49C465.416 779.611 467.658 781.854 468.313 783.443C469.434 785.779 470.742 786.714 476.069 788.489C479.714 789.704 483.545 790.639 484.76 790.639C487.377 790.639 489.713 794.751 489.713 799.517C489.713 802.227 489.433 802.787 487.657 802.787C485.601 802.787 477.564 810.357 474.294 815.216C472.798 817.553 472.798 817.833 474.761 821.01L476.817 824.281L480.929 820.076C483.171 817.74 485.04 814.936 485.04 813.908C485.04 812.133 485.414 812.039 488.592 812.6C490.461 812.974 492.33 813.815 492.703 814.469C493.077 815.123 494.386 815.403 495.694 815.216C497.283 814.843 498.124 813.908 498.497 811.946C499.432 807.273 499.152 803.255 497.656 799.703C496.909 797.834 496.255 795.872 496.255 795.405C496.255 794.937 498.311 793.349 500.927 791.854C505.506 789.237 505.506 789.143 504.105 786.994C502.796 785.125 502.049 784.938 498.684 785.499C492.797 786.527 480.461 786.433 479.34 785.312C478.779 784.751 478.125 782.695 477.845 780.639C477.377 777.275 477.658 776.808 480.368 775.032L483.265 773.163L476.91 772.602C466.257 771.575 463.079 771.761 461.397 773.63Z" fill="black"/>
<circle cx="548" cy="691" fill="#5CE50D"/>
<circle cx="512" cy="296" fill="#E52A0D"/>
<circle cx="195" cy="828" fill="#E52A0D"/>
<circle cx="828" cy="500" fill="#E52A0D"/>
</svg>
