<svg width="1000" height="1000" viewBox="0 0 1000 1000" fill="none" xmlns="http://www.w3.org/2000/svg">
<rect width="1000" height="1000" />
<path d="M291.21 29.8525C289.919 31.2353 288.352 31.6962 284.572 31.6962C281.899 31.6962 279.686 32.0649 279.686 32.6181C279.686 33.079 278.211 34.1852 276.46 35.015C274.708 35.8446 273.233 37.043 273.233 37.5962C273.233 38.1493 271.85 41.5602 270.191 45.0633C267.886 49.9492 267.333 52.1617 267.794 54.282C268.993 59.4444 268.716 60.0897 265.674 60.735C264.107 61.1038 261.341 62.9475 259.497 64.7913L256.271 68.1099L255.902 65.8053C255.718 64.5146 255.073 63.2241 254.427 62.8553C252.768 61.7491 251.109 62.0256 251.109 63.4084C251.109 64.1459 250.371 65.6209 249.449 66.7272C247.605 68.9396 245.024 68.4787 244.195 65.7131C243.641 64.1459 243.457 64.0537 241.337 65.4365C239.677 66.5428 238.018 66.8193 234.976 66.3584C231.104 65.7131 230.827 65.8053 230.274 68.0178C229.537 70.9677 229.26 70.9677 226.956 68.1099C225.388 66.174 224.374 65.8053 219.857 65.8053C216.446 65.8053 213.865 66.3584 212.39 67.3724C210.823 68.4787 210.085 68.5709 209.809 67.8334C209.625 67.1881 208.426 65.4365 207.228 64.0537C205.476 61.9335 205.107 60.735 205.568 58.5225C206.121 56.1257 205.753 55.1116 203.632 52.8992C201.696 50.871 200.037 50.1335 195.612 49.6726C192.662 49.3039 189.989 49.2117 189.712 49.3961C189.528 49.6726 189.989 51.332 190.726 53.1757C191.556 55.296 192.109 59.4444 192.109 64.1459C192.109 71.0599 191.832 72.1661 189.343 75.9458C187.868 78.2505 180.033 86.5473 171.92 94.3831L157.262 108.672L156.156 114.664C154.589 123.975 156.525 131.811 162.241 138.633C166.205 143.334 168.048 151.631 167.495 162.325C166.942 172.281 168.233 181.407 170.537 183.896C171.644 185.187 171.736 185.924 170.906 187.399C170.353 188.506 170.169 189.704 170.445 190.165C170.722 190.626 174.04 192.931 177.728 195.143L184.642 199.292L186.67 197.079C187.868 195.788 189.804 194.867 191.279 194.867C192.662 194.867 194.137 194.406 194.414 193.945C195.428 192.285 196.718 193.023 196.718 195.235C196.718 197.079 195.704 197.724 188.79 200.306C184.365 201.873 180.678 203.071 180.586 202.979C180.586 202.795 180.033 201.688 179.572 200.49C178.834 198.646 177.175 197.909 171.183 196.249C164.361 194.498 163.347 194.406 159.383 195.604L155.05 196.802L157.262 199.292C159.014 201.227 159.752 203.532 160.581 209.616C161.227 213.949 161.964 218.374 162.241 219.48C162.702 221.14 162.241 221.785 160.305 222.707C158.737 223.352 157.078 225.38 156.064 227.501C154.681 230.727 154.589 231.465 155.788 234.783C156.525 236.812 157.908 239.761 158.83 241.329C160.673 244.279 163.162 252.668 162.425 253.497C162.148 253.682 160.397 252.575 158.369 251.1L154.866 248.243L153.206 250.363C152.284 251.561 151.086 254.235 150.533 256.355C149.611 259.674 148.874 260.596 145.37 262.255C140.669 264.56 137.811 269.446 137.719 275.253C137.719 280.139 134.677 286.224 130.897 288.897C126.103 292.216 125.089 296.641 127.671 302.172C129.146 305.122 130.713 306.689 133.202 307.795C138.549 310.284 139.102 314.433 136.428 331.856C134.492 344.854 134.124 346.053 129.33 355.271L124.352 364.951L119.097 366.795C111.999 369.376 109.418 371.957 108.68 377.396C108.127 381.452 108.404 382.374 110.8 385.877C112.275 388.09 114.027 391.501 114.58 393.529C115.871 398.23 115.871 406.804 114.58 411.874C113.75 415.193 113.843 416.391 115.133 418.788C115.871 420.355 116.977 424.043 117.53 426.9C118.083 429.943 119.558 433.446 120.941 435.289C123.153 438.239 123.43 439.438 123.707 447.735C124.167 460.641 122.785 466.909 117.899 473.823C115.686 476.866 112.921 481.844 111.722 484.886L109.51 490.325L113.474 502.493C116.977 513.371 117.53 516.045 118.36 528.306C120.111 554.948 120.019 554.395 128.869 564.443C135.691 572.094 135.875 574.03 131.174 588.411C126.657 602.7 122.969 608.508 117.069 610.905C113.289 612.472 103.886 614.039 96.2349 614.5C92.6397 614.777 91.9022 615.146 90.2428 618.003C88.5834 620.861 88.3991 622.797 88.3991 636.441C88.3069 652.481 88.1225 653.587 83.5132 659.026L81.3007 661.7L83.8819 663.82L86.5553 665.94H83.1444C78.996 665.94 78.8117 666.678 81.946 670.365C84.896 673.868 84.896 677.003 81.8538 684.378C79.6413 689.909 79.5492 690.831 79.5492 710.559C79.457 721.713 80.0101 736.094 80.6554 742.455C81.3007 748.816 81.7616 756.468 81.6694 759.51C81.3929 768.636 83.3288 772.877 90.6115 778.777C95.774 782.925 97.0646 784.492 97.6177 787.35C97.9865 789.655 99.9224 792.697 103.333 796.661L108.404 802.377L108.865 809.844C109.51 818.325 110.708 819.892 116.977 819.892C119.005 819.892 122.785 820.169 125.366 820.445C129.699 820.998 130.252 821.367 133.202 825.792C137.442 832.245 144.172 840.265 151.916 848.286L158.461 854.923L158.83 862.39L159.106 869.765L163.9 872.438C169.247 875.573 175.331 876.034 180.586 873.913C182.337 873.176 185.748 872.254 188.145 871.885C190.542 871.609 194.69 870.503 197.179 869.581C202.711 867.46 208.518 867.368 210.915 869.212C213.496 871.148 216.354 870.963 219.304 868.659C221.609 866.815 222.162 866.723 226.679 867.737C230.551 868.567 232.118 868.659 233.685 867.737C235.068 866.999 237.557 866.907 241.337 867.368C244.471 867.737 251.385 867.921 256.732 867.829C274.985 867.553 282.636 870.41 286.508 878.984C288.352 883.04 298.677 892.996 309.186 900.924C311.491 902.676 315.178 905.81 317.483 907.93C319.788 910.051 323.106 912.632 324.95 913.646C328.822 915.858 344.494 921.482 351.131 923.049C353.712 923.694 358.137 925.354 361.087 926.921C365.973 929.41 367.171 929.594 376.206 929.594C385.701 929.594 386.346 929.779 393.352 933.005L400.635 936.416L397.316 937.43C395.381 937.983 393.076 939.642 391.693 941.578L389.388 944.713L391.417 945.542C392.615 945.911 394.551 947.202 395.842 948.4C397.132 949.599 399.621 951.074 401.373 951.719C403.124 952.364 405.613 953.931 406.996 955.13C408.748 956.789 410.407 957.25 414.002 957.25C418.427 957.25 418.796 957.066 419.718 954.392L420.64 951.627L423.498 953.194C425.433 954.392 426.263 955.591 426.263 957.342C426.263 959.002 427.093 960.292 428.752 961.399C432.347 963.795 435.113 963.427 438.155 960.108C440.275 957.803 441.566 957.25 444.516 957.25C447.374 957.25 449.218 956.513 452.26 954.116C460.28 947.663 490.978 932.36 495.956 932.268C497.431 932.268 500.473 931.53 502.778 930.608L506.926 928.857L510.43 932.083C513.379 934.664 514.209 935.033 515.315 934.111C516.422 933.189 517.344 933.189 519.74 934.019C528.037 937.061 538.178 938.352 546.29 937.522C555.232 936.6 557.168 936.969 557.168 939.735C557.168 941.302 557.721 941.578 561.593 941.578C566.479 941.578 570.074 943.975 570.074 947.202C570.074 949.506 572.471 954.3 574.96 956.974C577.173 959.463 579.662 959.647 584.179 957.711C586.483 956.789 590.724 956.328 597.177 956.328C608.424 956.328 610.083 956.697 608.793 959.094C608.055 960.569 608.516 960.938 612.757 961.859C620.5 963.703 623.174 965.086 625.294 968.681L627.414 972L632.116 967.944C638.2 962.874 636.357 963.703 666.594 951.166C684.57 943.699 697.015 937.799 708.354 931.53C726.423 921.39 735.918 917.794 747.165 916.872L754.816 916.227L756.291 911.341C758.78 902.86 770.949 889.954 782.565 883.501C785.607 881.841 792.428 877.877 797.775 874.743C803.122 871.517 809.206 868.382 811.419 867.737C814.738 866.723 815.291 866.262 815.291 864.049C815.291 862.39 815.936 861.099 817.134 860.454C819.531 859.164 819.439 858.242 816.581 854.37C814.645 851.881 814.277 850.59 814.645 847.917C815.752 841.279 818.241 837.592 831.516 822.565C832.622 821.367 838.522 815.651 844.606 810.028C854.839 800.441 855.669 799.334 856.129 795.739C856.775 790.116 858.158 784.769 859.356 782.372C860.001 781.266 860.462 777.763 860.462 774.536V768.728L866.915 761.907C873.276 755.177 881.665 744.115 881.665 742.455C881.665 741.902 880.282 741.533 878.531 741.533C875.212 741.533 874.29 740.151 874.29 734.896C874.29 732.776 873.829 732.407 870.418 731.854C859.079 730.194 859.079 730.194 858.987 718.579C858.987 712.31 858.434 708.623 857.328 706.042L855.761 702.354L854.562 704.567L853.272 706.779L852.626 704.751C852.165 703.092 852.626 701.985 854.839 699.681L857.789 696.638L855.484 695.624C853.548 694.795 853.087 693.504 851.704 685.76C849.953 676.265 850.506 671.195 853.548 668.706C855.576 667.047 855.3 666.309 852.073 664.926L849.215 663.82L849.769 658.197C850.229 653.864 850.875 652.112 852.903 649.992L855.392 647.411L852.719 648.425C851.244 648.978 849.769 649.07 849.492 648.609C849.215 648.241 847.187 645.567 845.067 642.801C841.103 637.731 840.642 636.072 841.656 632.108C842.117 630.541 842.947 629.988 844.883 629.988C847.925 629.988 848.017 629.527 846.173 626.3C843.869 622.244 844.422 619.294 848.017 617.081L851.244 615.146L849.4 611.55C847.095 607.033 847.095 606.019 849.4 606.019C850.414 606.019 851.244 606.664 851.244 607.402C851.244 609.614 853.917 608.969 856.406 606.203C857.604 604.821 859.909 601.318 861.568 598.368C865.44 591.177 869.681 587.582 874.198 587.582C876.134 587.582 880.835 587.305 884.707 587.029C891.437 586.383 891.806 586.291 891.806 584.171C891.806 581.036 893.373 578.363 897.429 574.583C900.656 571.541 901.024 570.712 901.024 566.747C901.024 564.258 901.301 561.309 901.577 560.202C902.038 558.359 901.577 557.99 896.507 556.515C892.359 555.316 890.884 554.395 890.884 553.196C890.884 551.26 893.742 551.076 896.692 552.827C897.982 553.657 900.379 553.934 903.145 553.657C906.74 553.38 907.754 552.827 909.045 550.707C910.704 547.849 913.009 546.559 917.987 545.637C921.49 544.899 921.582 544.715 919.277 535.681C917.987 530.518 910.243 523.42 905.081 522.682C901.762 522.314 886.643 514.846 882.956 511.896C882.403 511.436 881.389 509.315 880.651 507.195C879.821 504.614 878.531 502.862 876.687 501.94C875.212 501.111 872.539 499.175 870.695 497.608C868.851 496.04 864.979 493.92 861.937 492.998C858.342 491.892 856.037 490.509 855.115 488.942C854.286 487.651 852.35 485.162 850.69 483.319C847.833 480.092 847.74 479.723 848.201 473.916C848.662 468.384 848.386 467.186 845.436 460.641C843.592 456.677 841.656 450.5 841.011 446.997C840.181 441.835 839.351 439.899 836.955 437.317C834.005 434.183 830.041 427.269 830.041 425.333C830.041 424.872 831.055 424.411 832.253 424.411C837.139 424.411 837.508 423.674 834.834 419.341C832.622 415.654 832.069 415.285 827.736 414.64C825.247 414.363 821.559 413.165 819.716 412.058C816.858 410.491 816.213 409.569 816.213 407.172C816.213 404.499 815.752 404.038 809.575 400.996C805.98 399.152 801.094 395.833 798.789 393.713C794.18 389.38 784.593 382.005 783.671 382.005C783.302 382.005 781.366 383.849 779.246 386.154L775.374 390.302L773.807 386.707C772.516 384.034 770.672 382.282 766.155 379.516C762.099 377.12 758.504 373.893 755.369 370.021C752.788 366.795 748.087 362.37 744.952 360.249C741.818 358.129 733.798 350.846 727.16 344.025C715.36 332.04 714.992 331.672 713.978 326.325C712.595 318.95 707.156 307.887 703.745 305.491C702.178 304.384 700.15 301.895 699.136 299.867L697.292 296.272H690.747C685.953 296.272 683.372 295.811 680.422 294.244C677.287 292.584 674.522 292.216 665.487 291.847L654.425 291.478L649.724 286.5C645.76 282.26 644.653 281.522 641.703 281.522C638.938 281.522 638.292 281.153 638.292 279.771C638.292 278.849 637.278 277.374 635.988 276.544C634.144 275.346 633.683 274.239 633.683 271.013C633.683 268.339 633.038 266.127 631.655 264.375C630.549 262.9 629.627 261.61 629.535 261.518C629.443 261.425 627.875 260.688 626.032 259.858L622.621 258.475L620.316 263.085C618.196 267.233 617.735 267.694 614.785 267.694C612.572 267.694 611.374 267.141 610.636 265.85C610.083 264.836 607.502 262.347 605.013 260.319C601.049 257.185 599.666 256.632 596.071 256.632C592.015 256.632 591.646 256.447 590.171 253.129C585.562 243.357 580.491 235.797 577.173 234.046C575.329 233.032 573.762 231.465 573.762 230.635C573.762 226.394 569.521 218.098 564.82 213.212C562.146 210.354 559.381 206.574 558.828 204.823C557.445 200.859 550.07 192.931 542.418 187.031C539.468 184.726 535.504 180.946 533.568 178.734C529.604 173.848 526.562 173.295 522.229 176.89C520.017 178.826 519.372 180.209 518.819 184.542C518.542 187.399 517.62 191.363 516.883 193.207C515.592 196.526 515.223 196.71 511.444 196.71C508.033 196.71 507.295 197.079 506.097 199.292C505.175 201.043 503.055 202.518 499.552 203.993C494.758 206.021 494.205 206.021 493.375 204.638C492.914 203.809 491.623 203.163 490.517 203.163C489.411 203.163 484.341 200.213 479.27 196.618C468.208 188.782 469.038 189.704 470.513 187.953C471.619 186.662 471.25 185.924 467.931 182.882C465.811 180.946 464.06 178.826 464.06 178.181C464.06 177.443 462.769 174.217 461.294 171.082C458.621 165.459 454.933 161.403 442.027 150.064C439.354 147.667 439.077 147.022 439.907 145.362C440.829 143.703 440.46 143.242 437.602 141.306C435.666 140.108 431.979 135.959 429.305 132.18C425.341 126.648 423.498 124.897 419.81 123.238C416.399 121.67 415.201 120.656 415.201 119.274C415.201 115.494 407.734 110.516 399.345 108.764C397.409 108.303 396.763 107.658 396.763 105.999C396.763 103.049 393.813 99.6378 385.978 93.5535C382.382 90.7878 376.851 85.1645 373.625 80.9239C368.37 74.1943 367.171 73.1802 362.931 71.7974L358.229 70.3224L358.322 66.4506C358.414 61.3803 355.464 55.296 352.698 54.9272C351.592 54.7429 350.67 54.0976 350.67 53.4523C350.67 51.332 347.997 49.6726 346.798 50.871C345.139 52.5304 344.401 52.1617 343.756 49.3039C343.203 46.5383 341.359 45.5242 336.658 45.5242C332.141 45.5242 331.311 44.6945 331.311 40.454C331.311 36.8587 330.942 36.1212 327.255 33.1712C324.12 30.4978 322.461 29.8525 319.419 29.8525C317.299 29.8525 314.441 30.4056 313.058 31.1431C307.711 33.8165 304.577 33.7243 299.414 30.7744C293.514 27.4556 293.33 27.4556 291.21 29.8525Z" fill="black"/>
<circle cx="430" cy="955" fill="#5CE50D"/>
<circle cx="460" cy="271" fill="#E52A0D"/>
<circle cx="235" cy="689" fill="#E52A0D"/>
<circle cx="749" cy="555" fill="#E52A0D"/>
</svg>
