<svg width="1000" height="1000" viewBox="0 0 1000 1000" fill="none" xmlns="http://www.w3.org/2000/svg">
<rect width="1000" height="1000" />
<path d="M684.18 146.582C648.243 160.937 618.751 172.949 618.653 173.047C618.458 173.242 619.239 177.93 620.215 183.594C621.29 189.16 621.778 194.043 621.29 194.434C620.899 194.727 611.426 197.949 600.196 201.562L579.883 208.105L577.735 206.152C575.782 204.297 574.317 204.199 552.247 204.004L528.809 203.906L505.176 214.453C483.106 224.316 481.446 225.293 481.446 227.637C481.446 229.004 480.86 230.762 480.274 231.641C479.102 233.105 438.77 246.777 438.087 245.996C437.891 245.801 436.329 241.309 434.669 236.133C431.641 226.953 431.446 226.66 428.907 227.148C427.442 227.344 412.305 229.297 395.215 231.348C378.126 233.496 363.965 235.352 363.77 235.547C363.575 235.644 359.669 247.852 355.079 262.598C348.243 284.766 346.973 289.551 348.145 290.43C348.829 291.016 352.54 293.848 356.348 296.777C362.989 301.953 363.184 302.148 361.524 304.199C360.645 305.273 342.969 323.926 322.266 345.605L284.669 384.961L279.59 379.297L274.415 373.73L260.255 380.371C248.829 385.742 246.094 387.402 245.997 389.062C245.997 390.234 245.215 398.242 244.337 407.031C243.36 415.82 242.872 423.145 243.165 423.34C243.458 423.437 246.192 424.121 249.317 424.805C252.637 425.586 254.883 426.562 254.883 427.344C254.883 429.199 226.563 524.805 225.782 525.586C225.391 525.879 220.508 525.195 214.844 523.926C204.786 521.582 204.59 521.582 203.126 523.437C190.528 539.355 188.673 541.211 175.684 550.488L162.501 559.961L156.055 571.582L149.61 583.301L155.665 588.184C158.887 590.82 162.208 593.652 162.989 594.238C164.063 595.312 158.399 601.953 130.372 632.52C111.719 652.832 95.0202 670.898 93.2624 672.754L90.0397 675.977L81.446 669.531C76.7585 665.918 72.5592 663.184 72.1686 663.281C68.653 664.648 0.293619 706.738 0.7819 707.227C1.75846 708.203 65.7233 738.281 66.7975 738.281C67.2858 738.281 70.8014 735.449 74.7077 731.934L81.7389 725.684L127.051 763.184C151.954 783.887 172.755 801.367 173.243 802.148C173.926 803.125 173.243 804.883 171.094 808.203C168.555 812.207 168.262 813.184 169.337 814.453C170.02 815.234 173.731 819.727 177.637 824.414C181.837 829.59 185.352 833.008 186.426 833.008C187.989 833.008 236.426 824.219 242.774 822.754C244.63 822.363 245.02 821.094 246.192 813.281L247.559 804.199L250.977 804.297C252.833 804.395 287.696 807.031 328.321 810.156L402.247 815.918L402.54 826.562L402.833 837.207L444.825 851.27L486.817 865.234L523.438 867.578C543.555 868.848 560.352 869.727 560.743 869.531C561.036 869.336 561.622 865.82 562.012 861.816C562.501 857.031 563.184 854.492 563.965 854.492C564.551 854.492 594.337 860.254 629.981 867.187C665.626 874.219 695.118 879.883 695.508 879.883C695.899 879.883 698.438 876.074 701.172 871.484L706.251 863.184L778.028 863.867L849.708 864.551L849.219 861.23C847.852 853.32 843.653 821.973 842.872 813.965C842.188 807.031 841.114 803.027 837.891 795.41L833.79 785.645L833.301 768.066C832.813 750.781 833.985 731.152 835.645 728.125C836.329 726.855 838.672 729.883 846.192 741.406C861.133 764.453 868.458 770.41 893.946 780.371C902.247 783.594 905.372 784.277 913.575 784.766C918.946 785.059 927.54 784.863 932.715 784.375C941.309 783.398 943.067 782.812 953.711 777.539C968.458 770.117 974.122 765.43 982.422 753.906C996.876 733.594 998.438 727.93 998.633 692.871C998.633 678.906 999.024 662.207 999.415 655.762C1000.39 639.746 998.243 622.168 994.141 611.523C989.649 599.902 980.958 586.133 974.122 579.883C970.899 576.953 964.063 571.973 958.985 568.848C953.907 565.723 949.61 563.086 949.415 562.988C949.219 562.793 947.852 499.316 946.29 421.875C944.727 344.434 943.36 280.957 943.165 280.859C942.969 280.664 906.836 271.094 862.794 259.375C818.751 247.754 782.715 238.086 782.618 237.988C782.422 237.891 775.489 212.109 767.09 180.664C749.317 114.16 750.977 120.117 750.196 120.215C749.805 120.215 720.118 132.129 684.18 146.582Z" fill="black"/>
</svg>
