<svg width="1000" height="1000" viewBox="0 0 1000 1000" fill="none" xmlns="http://www.w3.org/2000/svg">
<rect width="1000" height="1000" />
<path d="M239.157 120.566C238.111 120.851 235.261 122.942 232.79 125.222C230.319 127.503 227.469 129.404 226.328 129.404C225.283 129.404 224.428 129.974 224.428 130.734C224.428 131.399 223.193 134.725 221.672 138.051L218.917 144.132L220.817 147.458C221.957 149.264 223.668 151.734 224.808 152.969C226.518 154.87 226.613 155.535 225.568 158.101C223.763 163.042 225.378 163.517 233.74 160.476C237.731 158.956 242.387 157.531 243.908 157.246C245.523 156.961 247.994 155.915 249.419 154.87C252.745 152.494 254.265 153.54 257.401 160.571C259.872 166.178 259.682 166.843 255.976 168.743C251.225 171.119 249.134 171.499 249.134 169.884C249.134 168.934 248.279 168.363 246.854 168.363C245.523 168.363 244.193 167.888 243.908 167.413C242.958 165.798 239.347 166.273 240.012 167.888C240.677 169.694 237.921 171.119 234.691 170.549C232.505 170.169 232.125 170.454 231.555 173.02C230.604 177.581 220.817 184.517 215.401 184.517C211.695 184.517 208.274 185.943 207.039 187.938C206.563 188.889 204.188 189.269 199.722 189.269C196.111 189.269 192.88 189.649 192.595 190.219C192.31 190.694 190.979 191.169 189.649 191.169C188.224 191.169 186.323 192.214 184.898 193.735C179.767 199.531 178.436 200.672 176.726 200.672C175.776 200.672 174.73 201.337 174.445 202.097C174.065 202.857 173.115 203.522 172.165 203.522C170.454 203.522 156.486 210.459 154.68 212.169C154.11 212.645 152.685 213.025 151.354 213.025C146.318 213.025 144.608 214.07 144.608 216.921C144.608 218.441 145.083 219.676 145.558 219.676C146.223 219.676 146.223 220.247 145.653 221.387C145.083 222.337 144.988 224.048 145.273 225.188C145.748 227.183 145.463 227.278 140.047 227.278C136.816 227.278 134.06 227.658 133.775 228.134C133.49 228.514 134.25 229.844 135.58 231.079C138.241 233.55 139.571 238.396 138.051 239.917C136.056 241.912 137.006 244.383 140.617 246.758C144.323 249.134 145.748 251.224 147.078 255.691C148.124 259.587 153.92 267.949 157.341 270.514C159.336 272.035 161.142 274.6 161.902 276.881C162.947 280.017 163.898 280.967 166.463 281.822C169.029 282.582 170.454 284.008 172.355 287.619C174.635 291.8 174.92 293.32 174.825 300.447C174.73 304.913 175.205 311.66 175.776 315.556C176.441 319.452 176.726 323.348 176.441 324.203C176.156 325.058 174.065 327.149 171.69 328.859C168.554 331.045 167.318 332.755 166.843 335.131C166.463 337.506 165.418 338.932 162.947 340.357C158.481 343.018 149.264 345.108 142.137 345.108C135.2 345.108 131.304 342.733 131.304 338.647C131.304 335.796 130.164 333.515 128.834 333.8C128.359 333.895 127.408 333.895 126.743 333.8C125.033 333.61 127.503 329.904 129.404 329.904C130.449 329.904 130.924 328.954 131.019 326.578C131.114 323.538 130.924 323.348 129.214 324.298C126.933 325.533 124.653 324.773 124.653 322.778C124.653 320.972 123.322 320.972 121.422 322.778C120.662 323.538 119.616 324.203 119.046 324.203C117.336 324.203 117.906 322.492 119.996 321.067C121.897 319.642 121.897 319.642 119.141 318.977C117.431 318.596 115.53 318.882 114.295 319.642C113.25 320.307 112.014 320.497 111.634 320.022C111.254 319.642 111.634 318.882 112.585 318.406C114.01 317.551 114.105 317.171 112.775 314.035L111.349 310.709L113.725 312.23C115.055 313.085 116.1 313.37 116.1 312.895C116.1 311.755 107.833 304.913 104.222 303.013C102.702 302.252 100.326 300.447 99.0912 299.117C97.0007 296.931 96.9056 296.456 98.1409 295.411C98.9962 294.84 101.372 291.23 103.557 287.619C105.648 283.913 109.164 279.066 111.254 276.786C113.44 274.505 115.15 272.13 115.15 271.56C115.15 270.989 116.671 268.424 118.476 265.858C120.282 263.292 121.802 260.632 121.802 259.967C121.802 258.351 128.074 253.03 130.734 252.365C133.49 251.7 134.535 249.609 133.205 247.233C132.635 246.283 132.255 243.622 132.255 241.437C132.255 238.681 131.304 235.926 129.024 232.125C127.313 229.179 125.318 225.283 124.748 223.382C122.942 217.871 121.042 216.731 114.2 217.016C110.779 217.206 108.118 216.921 107.928 216.351C107.358 214.925 112.3 212.93 114.105 213.88C116.956 215.4 128.169 215.875 129.309 214.545C130.069 213.69 128.549 212.55 122.562 209.604C117.336 207.038 113.63 204.473 110.874 201.432C106.503 196.586 105.933 194.78 104.983 182.712C104.508 176.345 104.603 175.775 106.123 176.25C106.978 176.63 109.354 175.965 111.634 174.635C113.82 173.4 118.001 171.594 120.852 170.739C123.702 169.789 126.838 167.983 127.788 166.748C128.739 165.608 130.354 164.562 131.304 164.562C133.585 164.562 139.952 161.902 142.042 160.001C142.897 159.241 143.657 157.816 143.657 156.77C143.657 153.92 139.096 154.68 132.825 158.766C129.594 160.856 124.748 162.947 121.992 163.517C114.2 165.133 104.793 170.454 100.326 175.68C98.236 178.151 93.1047 185.943 88.9236 192.785L81.4167 205.423L76.0954 206.468L70.679 207.513L59.4661 223.667C53.2896 232.6 45.9727 242.007 43.217 244.668C39.036 248.564 38.1808 249.989 38.1808 252.65C38.1808 254.55 36.2803 259.967 33.6196 265.573L29.0584 275.265L30.1987 282.392C30.8639 286.288 32.2893 291.515 33.4295 294.08C35.4251 298.546 35.4251 298.641 33.9047 314.035L32.3843 329.429L27.7281 333.705C25.1625 336.081 22.2167 339.692 21.1714 341.877C19.9361 344.348 18.2257 346.248 16.4202 347.009C11.384 349.004 13.5695 351.76 20.1262 351.76C23.452 351.76 25.3525 351.095 28.2983 348.909C31.5291 346.629 32.7644 346.248 35.7101 346.724C37.7056 347.009 39.8912 348.149 40.9365 349.479C42.7419 351.855 46.1628 352.425 48.5384 350.905C50.819 349.479 52.9095 351.285 54.2398 355.751C56.1403 362.213 69.1586 385.018 74.0999 390.53C77.8058 394.616 79.3262 395.661 82.747 396.231C86.8331 396.896 87.0231 397.086 88.0684 401.267C88.7336 403.643 89.4938 409.535 89.8738 414.286L90.539 422.933L87.5933 424.453C84.9326 425.879 84.6475 426.259 85.3127 429.014C85.6928 430.725 85.9779 435.476 85.8828 439.657C85.8828 445.264 86.2629 448.114 87.6883 450.775C88.6385 452.675 90.1589 456.666 90.9191 459.612C92.6295 466.549 92.6295 466.549 97.8559 467.974C101.657 469.02 102.607 469.875 104.508 473.486C106.313 477.097 107.263 477.857 110.874 478.712C113.155 479.377 119.046 482.608 124.083 486.124C129.974 490.21 133.965 492.396 135.77 492.396C138.811 492.396 156.866 488.975 157.531 488.309C157.816 488.024 159.431 488.214 161.047 488.69C165.323 489.83 182.332 487.549 185.753 485.269C188.319 483.653 188.699 483.653 193.45 485.079C196.206 486.029 198.961 486.694 199.627 486.694C200.862 486.694 210.649 479.757 211.6 478.142C212.74 476.336 218.631 474.436 221.862 475.006C224.048 475.291 225.378 475.006 226.233 473.961C227.374 472.63 227.849 472.726 230.985 475.196C237.351 480.232 249.609 482.608 254.17 479.662C256.546 478.047 256.926 478.047 258.447 479.282C259.302 480.137 272.89 492.11 288.474 506.079L316.886 531.355H323.253C329.43 531.355 329.525 531.26 333.706 527.079L337.887 522.803H346.534C354.421 522.898 365.159 524.419 369.055 526.034C370.1 526.509 370.955 526.129 371.62 524.894C373.046 522.233 380.933 519.857 391.1 519.002C395.851 518.622 401.458 517.577 403.643 516.722C407.159 515.296 407.729 515.296 411.055 516.627C414.571 518.147 414.571 518.147 419.227 514.726C425.974 509.785 430.44 508.455 436.522 509.595C439.277 510.165 444.409 510.83 447.925 511.115L454.386 511.59L457.712 517.102C459.517 520.143 461.703 523.088 462.463 523.753C463.699 524.799 463.508 525.369 460.943 528.22C459.422 530.025 457.047 533.826 455.812 536.677C454.576 539.432 452.296 543.613 450.68 545.989C448.21 549.6 447.734 551.12 447.734 555.967C447.734 564.044 445.834 567.37 439.467 570.79C434.716 573.451 434.336 573.831 434.811 576.397C435.096 577.917 435.381 579.343 435.381 579.723C435.381 580.103 436.617 581.053 438.042 581.908C439.847 582.953 441.178 584.949 441.938 587.42C443.173 591.601 443.268 591.221 438.707 597.397C437.947 598.537 436.617 603.859 435.856 609.275C435.001 614.787 433.766 621.818 433.006 624.954C432.056 629.515 431.961 630.941 432.911 632.081C435.001 634.552 436.237 638.923 436.902 646.335C437.662 654.887 439.087 658.783 442.413 661.158C443.839 662.204 446.879 665.719 449.35 669.14C455.907 678.453 459.137 681.493 462.083 681.493C466.644 681.493 469.59 683.204 470.73 686.435C471.395 688.145 473.011 691.851 474.531 694.702C476.717 698.788 477.192 700.973 477.192 706.105V712.376L473.011 714.752C470.065 716.367 465.789 720.928 458.947 729.481C449.73 740.978 444.124 748.961 445.169 748.961C445.454 748.961 447.449 748.105 449.73 747.155C452.961 745.635 454.196 745.54 455.717 746.395C456.857 746.965 458.947 747.535 460.563 747.535C463.033 747.535 463.413 747.915 463.984 750.861C464.269 752.666 465.029 755.422 465.599 756.848C466.644 759.318 466.834 759.413 468.925 757.988C471.015 756.657 471.3 756.752 473.961 759.508C475.482 761.124 478.902 763.879 481.468 765.59C488.405 770.151 493.726 775.947 493.061 778.323C492.586 780.318 496.007 786.02 499.428 788.776C500.853 790.011 501.043 791.151 500.473 796.473C499.808 802.744 499.903 802.934 502.658 805.12C504.559 806.64 506.554 809.871 508.455 814.812C510.07 818.803 512.446 823.839 513.776 825.93C516.437 830.111 521.283 841.704 523.659 849.686L525.274 854.912L541.333 863.56C550.075 868.406 559.388 874.012 561.858 876.198C566.42 880.094 566.42 880.094 574.307 880.094C583.239 880.094 583.999 879.619 589.605 870.876C594.357 863.37 600.818 860.139 610.796 860.139C615.927 860.139 616.972 860.424 617.828 862.134C618.683 863.655 618.588 864.415 617.543 865.65C615.927 867.551 612.791 873.537 613.266 873.822C613.456 874.012 614.882 874.582 616.592 875.152C619.443 876.103 619.823 875.913 623.814 871.732C626.095 869.261 628.375 866.6 628.85 865.745C629.325 864.89 633.031 862.039 637.022 859.379C641.108 856.623 644.909 853.392 645.575 852.157C647.38 848.926 652.226 845.125 656.692 843.509C658.878 842.749 662.014 841.134 663.724 839.899C667.62 836.953 674.082 834.482 677.788 834.482C681.494 834.482 691.661 827.355 695.842 821.844C700.594 815.667 700.689 815.667 699.928 819.658C699.168 824.03 699.073 824.125 708.766 816.238C713.992 811.961 716.463 809.111 719.408 803.789C722.924 797.423 723.209 796.378 722.639 792.006C722.259 788.11 722.544 786.495 724.255 783.359L726.44 779.558L733.662 779.273C740.789 778.893 741.074 778.798 746.3 774.427C749.151 771.861 752.762 769.676 754.282 769.391C755.803 769.201 758.653 768.726 760.554 768.44C765.305 767.68 768.346 762.739 767.49 756.943C766.92 752.952 766.825 752.952 762.359 752.286C758.938 751.811 755.803 752.286 749.436 754.092C739.268 757.038 734.422 757.228 728.056 754.662C725.395 753.617 721.974 752.761 720.454 752.761C716.843 752.761 706.96 749.151 705.535 747.25C704.87 746.395 704.299 744.399 704.299 742.879C704.299 741.264 703.159 737.558 701.829 734.707C700.499 731.856 698.598 726.915 697.553 723.779C696.603 720.643 694.417 713.802 692.612 708.575L689.381 699.073L691.566 696.222C692.802 694.607 694.607 691.471 695.557 689.285L697.363 685.294L694.132 673.131C692.326 666.48 690.616 660.778 690.236 660.493C689.856 660.208 684.725 658.213 678.738 656.217L668 652.511L660.969 643.484C657.073 638.543 653.937 633.696 653.937 632.746C653.937 630.751 656.027 630.656 668.19 632.556C673.132 633.316 679.973 633.981 683.299 633.981C688.621 633.981 689.856 633.696 692.041 631.511C694.512 629.135 694.702 629.135 697.458 630.561C699.073 631.416 701.259 633.411 702.494 635.027C705.725 639.588 711.046 641.583 718.458 640.918C723.589 640.538 727.96 641.203 742.024 644.339C751.621 646.525 761.124 648.235 763.119 648.235C765.4 648.235 769.486 649.47 773.762 651.561C785.07 656.977 787.826 655.837 789.916 645.289L790.961 639.778L803.41 634.932C810.346 632.271 817.093 628.945 818.899 627.33C820.704 625.809 823.745 624.194 825.645 623.814C830.396 622.864 840.564 622.864 845.885 623.814C850.066 624.574 850.161 624.574 851.967 621.248C853.772 617.922 853.867 617.827 858.144 618.397C864.415 619.253 870.117 617.447 872.682 613.931C874.583 611.366 875.248 611.081 878.384 611.556C881.614 612.126 882.09 611.841 886.461 606.614C889.121 603.669 891.972 600.058 892.827 598.632C893.778 597.207 895.678 595.782 897.198 595.497C898.814 595.117 900.809 593.501 902.425 591.221C904.8 587.8 905.18 587.61 907.936 588.465C909.647 588.94 914.683 589.32 919.149 589.32C927.226 589.32 927.416 589.225 927.986 586.849C929.222 582.003 933.118 577.252 938.249 574.306C943.76 571.265 947.086 567.084 950.222 559.292C954.308 549.41 956.778 552.926 922.38 519.762C905.37 503.418 891.497 489.64 891.497 489.165C891.497 488.785 893.873 486.219 896.818 483.463C899.764 480.803 902.71 477.477 903.47 476.051C905.846 471.395 904.705 460.562 900.809 451.44C899.099 447.354 899.099 446.784 900.429 444.123C901.855 441.273 905.085 440.132 911.642 440.132C915.538 440.132 919.054 438.137 920.669 435.096L922.095 432.34L923.9 434.336C926.181 436.806 931.027 436.996 934.163 434.716C935.398 433.861 938.154 432.245 940.339 431.105C957.634 421.888 959.439 420.462 961.055 415.331C962.575 410.105 960.865 406.494 956.208 405.068C950.982 403.548 945.661 403.738 943.57 405.639C942.24 406.874 941.195 407.064 939.199 406.304C936.823 405.448 936.633 404.973 936.348 399.367C936.063 393.665 935.778 393 931.787 388.439C927.131 383.118 925.516 379.222 927.701 378.462C929.697 377.796 933.403 373.615 938.344 366.299C941.955 360.787 943.57 359.267 947.466 357.556C950.032 356.511 952.883 355.561 953.738 355.561C956.113 355.561 965.141 349.194 967.896 345.583C969.227 343.873 971.792 341.972 973.503 341.402C976.734 340.262 978.919 337.221 978.919 333.705C978.919 332.755 980.439 330.76 982.245 329.334C986.711 326.008 987.186 323.348 984.621 317.456C982.245 311.85 978.539 308.144 975.308 308.049C974.073 308.049 968.371 307.004 962.575 305.673C956.778 304.343 950.792 303.298 949.272 303.298C946.611 303.298 946.421 303.488 946.801 306.148C947.181 308.334 946.801 309.094 945.281 309.569C944.14 309.949 942.905 310.804 942.335 311.47C941.575 312.515 939.864 312.515 932.357 311.28C918.579 308.904 908.316 310.044 904.99 314.13C903.945 315.461 901.379 316.601 897.198 317.456C893.778 318.121 890.357 319.262 889.501 320.022C888.076 321.257 884.085 321.732 876.388 321.447C875.058 321.352 871.732 320.497 868.976 319.452C866.126 318.406 862.895 317.551 861.754 317.551C858.429 317.456 855.958 315.176 857.098 313.18C857.953 311.66 859.569 311.47 870.117 311.47L882.09 311.375L884.845 308.049C886.366 306.243 887.696 304.248 887.696 303.678C887.696 303.203 888.741 301.207 890.072 299.497C891.402 297.691 892.447 295.126 892.352 293.795C891.687 285.433 892.257 283.913 897.198 280.017C901.284 276.786 901.95 275.741 901.76 273.46C901.57 271.94 900.904 270.514 900.334 270.229C899.669 270.039 896.723 272.415 893.778 275.456C889.121 280.302 888.741 280.587 890.547 277.451C891.687 275.456 892.352 273.46 892.067 272.985C891.782 272.51 892.637 271.845 893.968 271.56C895.393 271.179 898.529 269.184 900.904 267.093C903.375 265.098 906.036 263.387 906.891 263.387C908.981 263.387 913.352 259.016 913.352 257.021C913.257 254.835 911.832 253.03 907.461 249.704C904.23 247.233 903.755 247.138 902.425 248.564C901.57 249.419 900.714 250.084 900.429 250.084C900.239 250.084 899.004 247.709 897.674 244.763L895.298 239.346L889.596 239.917C885.13 240.297 883.23 240.012 880.379 238.491C878.384 237.541 874.678 235.83 872.017 234.785C869.451 233.74 865.745 231.364 863.94 229.654C858.714 224.523 849.686 221.577 849.686 224.903C849.686 225.663 850.352 226.328 851.112 226.328C851.872 226.328 853.107 227.848 853.867 229.559C854.628 231.364 856.148 233.455 857.193 234.12C859.664 235.64 859.854 240.297 857.668 246.663C856.813 249.134 856.053 251.034 855.863 250.844C855.768 250.654 856.053 247.613 856.528 244.003C857.288 238.491 857.193 237.256 855.863 235.83C852.632 232.315 839.614 229.369 840.754 232.41C841.039 233.075 840.564 233.93 839.614 234.31C837.998 234.975 836.858 233.835 833.817 228.989C832.962 227.563 830.967 225.948 829.351 225.378C827.831 224.903 825.265 223.382 823.65 222.242C822.034 221.007 818.613 219.486 816.048 218.821C812.057 217.871 811.202 217.871 809.681 219.296C808.731 220.152 807.686 222.052 807.401 223.477C807.021 225.378 806.355 226.043 805.405 225.663C804.36 225.283 804.075 226.138 804.075 229.559C804.075 232.03 803.315 235.545 802.269 237.541C801.319 239.441 800.274 242.102 799.894 243.432C799.229 246.283 795.903 250.749 795.143 249.989C794.382 249.229 797.613 240.582 798.563 240.582C799.704 240.582 799.514 236.021 798.278 233.645C797.708 232.505 796.188 230.414 794.857 229.084C793.527 227.563 792.292 224.808 791.817 221.862C791.342 218.441 790.106 215.78 787.541 212.74C782.314 206.373 779.369 205.803 779.369 211.124C779.369 212.645 778.893 215.02 778.418 216.446C777.468 218.726 777.088 218.916 773.382 218.441C770.151 217.966 769.011 218.251 767.3 219.866C765.685 221.387 765.115 221.577 765.115 220.532C765.115 218.251 767.205 216.826 770.341 216.826C772.242 216.826 774.142 215.97 775.377 214.64C777.373 212.55 777.373 212.265 776.043 209.509C774.807 206.943 774.807 206.373 776.138 203.617C777.658 200.672 777.563 200.482 775.473 198.106C774.237 196.776 771.196 194.685 768.726 193.45C762.454 190.219 762.929 186.133 769.866 184.042C772.052 183.377 772.147 183.377 770.816 184.993C769.486 186.608 769.486 186.608 771.672 185.563C773.097 184.803 775.568 184.517 778.798 184.993C781.459 185.278 786.685 185.753 790.391 186.038C796.948 186.513 797.138 186.513 800.939 183.377C804.265 180.526 805.975 179.956 813.102 178.911C818.518 178.056 822.034 177.011 823.08 175.965C824.03 175.015 825.74 173.78 826.786 173.115C827.926 172.544 828.781 171.404 828.781 170.549C828.781 169.694 829.541 168.173 830.492 167.128C832.012 165.323 832.012 165.323 829.731 165.988C826.596 166.938 822.034 169.219 820.229 170.739C818.709 172.069 811.297 173.305 806.45 173.02C804.93 172.925 794.762 172.925 783.93 172.925C767.205 173.02 763.88 173.21 761.124 174.635C759.413 175.585 756.658 176.25 755.042 176.155C753.427 175.965 748.391 177.011 743.925 178.341C737.843 180.051 733.377 180.717 727.2 180.717C718.743 180.717 718.648 180.717 716.273 183.757C713.897 186.798 713.802 186.798 706.58 186.513C700.784 186.323 698.503 185.848 695.652 183.947C691.281 181.192 690.046 181.097 690.046 183.472C690.046 184.422 689.096 185.943 687.86 186.703C684.725 188.794 677.028 189.744 675.412 188.413C674.367 187.463 673.322 187.558 670.946 188.794C668.76 190.029 666.67 190.219 663.439 189.839C658.593 189.174 657.738 189.839 657.738 194.495C657.738 197.631 659.543 197.821 663.439 195.16C666.67 192.975 667.05 192.88 679.403 193.545C687.1 193.925 693.467 194.78 695.462 195.635L698.883 196.966L695.937 198.771C691.661 201.337 683.204 202.667 671.421 202.382C660.113 202.192 653.937 203.522 653.842 206.183C653.842 207.513 653.652 207.418 653.082 205.898C652.321 204.187 652.131 204.282 650.516 207.038C649.471 208.749 648.14 210.174 647.57 210.174C646.905 210.174 646.335 210.839 646.335 211.694C646.335 212.835 647 213.025 649.186 212.55C650.991 212.169 652.036 212.265 652.036 212.93C652.036 214.64 646.43 216.921 640.443 217.776C634.362 218.631 627.805 222.337 626.855 225.378C625.81 228.609 623.814 229.179 609.656 229.654C594.927 230.224 585.139 229.274 559.388 224.523C553.686 223.477 548.365 222.527 547.605 222.527C545.609 222.527 547.225 223.762 550.646 225.093L553.686 226.138L550.265 226.233C548.46 226.328 546.084 225.663 545.039 224.903C544.089 224.143 542.473 223.477 541.618 223.477C539.528 223.477 539.338 221.577 541.333 221.577C542.093 221.577 542.759 220.912 542.759 220.056C542.759 219.201 540.098 217.396 535.727 215.305C528.125 211.789 526.699 210.649 528.41 208.939C530.215 207.133 529.55 205.613 526.509 204.568C522.328 203.142 514.821 203.237 511.021 204.853C508.645 205.803 506.649 205.993 503.229 205.328C500.283 204.758 496.007 204.758 491.636 205.423C487.835 205.898 482.228 206.373 479.282 206.373C476.052 206.468 473.106 207.038 472.061 207.798C469.97 209.414 465.124 209.699 463.033 208.369C462.083 207.798 459.613 208.274 455.526 209.794C452.201 211.029 447.83 212.074 445.834 212.074C443.743 212.074 437.282 213.975 430.915 216.541C423.408 219.486 418.182 221.007 414.951 221.007C412.386 221.102 408.965 221.862 407.349 222.622C403.738 224.523 385.494 224.998 380.457 223.382C373.806 221.292 369.72 215.4 369.625 207.608C369.53 205.233 369.055 203.427 368.199 203.142C366.204 202.287 366.774 201.147 369.815 200.006C371.43 199.436 372.665 198.201 372.665 197.346C372.665 196.205 372.19 195.92 371.05 196.396C367.439 197.916 365.349 198.011 364.778 196.586C364.398 195.635 364.969 194.97 366.489 194.59C368.579 194.02 368.674 193.735 367.819 191.549C367.344 190.124 364.969 186.893 362.688 184.327C360.312 181.667 358.412 179.196 358.412 178.721C358.412 178.246 356.987 177.866 355.276 177.866C353.281 177.866 351.38 177.106 350.43 176.06C349.48 175.015 347.579 173.875 346.059 173.59C344.633 173.305 342.543 171.974 341.403 170.739C339.977 169.029 338.457 168.363 335.796 168.363C333.801 168.363 331.33 167.698 330.285 166.938C328.859 165.798 326.674 165.703 319.452 166.083C310.995 166.653 310.33 166.558 308.619 164.657C304.723 160.286 290.755 158.671 289.329 162.282C288.949 163.232 287.144 163.612 283.248 163.612C278.687 163.612 276.881 164.087 273.84 166.178L269.944 168.648L267.854 166.653C262.438 161.617 257.496 150.024 255.311 137.481C254.361 131.874 250.655 126.078 245.808 122.752C243.528 121.231 241.532 119.996 241.342 119.996C241.152 120.091 240.202 120.376 239.157 120.566Z" fill="black"/>
<path d="M677.788 155.157C672.371 160.288 671.516 160.763 667.525 160.763C665.245 160.763 662.014 160.003 660.588 159.148C658.213 157.817 657.358 157.722 653.842 158.768C649.566 160.098 643.959 164.849 644.909 166.465C645.194 166.94 648.615 167.415 652.511 167.415C658.023 167.415 659.733 167.035 660.398 165.894C661.349 164.089 662.774 164.659 669.901 169.695C674.272 172.641 676.267 172.451 677.693 168.84C678.833 165.704 682.919 165.419 681.969 168.46C681.114 171.216 683.489 170.456 684.915 167.51C685.485 166.37 686.91 164.754 688.05 163.994C689.096 163.234 690.046 161.713 690.046 160.668C690.046 158.483 686.15 150.501 684.725 149.93C684.249 149.74 681.114 152.116 677.788 155.157Z" fill="black"/>
<path d="M576.302 173.113C575.067 173.588 574.116 174.633 574.116 175.489C574.116 176.629 575.257 176.914 579.248 176.914C585.614 176.914 587.42 176.249 587.42 173.968C587.42 172.448 586.755 172.163 582.954 172.258C580.388 172.258 577.442 172.638 576.302 173.113Z" fill="black"/>
<path d="M662.299 175.681C660.588 175.966 659.923 176.536 660.303 177.486C660.968 179.197 664.769 179.197 666.195 177.581C667.145 176.346 666.67 174.826 665.435 175.111C665.15 175.206 663.724 175.491 662.299 175.681Z" fill="black"/>
<path d="M676.077 176.535C675.412 178.435 677.313 179.766 680.828 179.766C684.344 179.766 683.774 177.865 679.783 176.25C677.123 175.109 676.647 175.204 676.077 176.535Z" fill="black"/>
<path d="M912.022 266.711C910.312 268.421 909.171 271.842 909.932 272.697C910.597 273.268 916.203 268.231 916.203 267.091C916.203 265.666 913.352 265.476 912.022 266.711Z" fill="black"/>
<path d="M903.85 270.989C903.28 272.034 903.09 273.365 903.375 273.84C904.04 274.98 906.701 275.075 906.701 274.03C906.701 273.65 906.986 272.414 907.271 271.179C908.031 268.423 905.275 268.233 903.85 270.989Z" fill="black"/>
<path d="M901.474 279.067C898.624 281.348 899.574 282.298 902.805 280.493C904.61 279.542 906.226 276.692 904.99 276.692C904.61 276.692 903.09 277.737 901.474 279.067Z" fill="black"/>
<path d="M904.325 282.587C902.9 284.298 901.284 286.768 900.714 288.099C900.144 289.429 899.099 291.235 898.244 292.185C897.483 293.04 897.103 294.085 897.483 294.37C897.768 294.655 901.094 291.9 904.895 288.099C910.122 282.872 911.452 281.067 910.407 280.402C908.126 278.976 906.986 279.452 904.325 282.587Z" fill="black"/>
<path d="M895.583 284.005C894.253 284.48 893.873 287.141 895.108 287.141C895.488 287.141 896.343 286.666 897.008 286C899.099 283.91 898.339 282.865 895.583 284.005Z" fill="black"/>
<path d="M908.886 287.432C904.42 290.758 903.85 291.898 906.606 291.898C908.221 291.898 915.253 286.102 915.253 284.772C915.253 283.536 912.497 284.677 908.886 287.432Z" fill="black"/>
<path d="M897.293 287.711C894.538 291.227 894.823 292.937 897.673 289.706C899.859 287.331 900.714 285.24 899.669 285.24C899.384 285.24 898.339 286.38 897.293 287.711Z" fill="black"/>
<path d="M908.886 293.51C907.651 293.7 906.701 294.555 906.701 295.316C906.701 296.456 907.081 296.456 909.076 295.126C910.407 294.27 911.452 293.415 911.452 293.225C911.452 293.035 911.357 292.94 911.262 292.94C911.072 293.035 910.027 293.32 908.886 293.51Z" fill="black"/>
<path d="M899.764 295.701C898.434 296.747 896.818 297.602 896.058 297.602C894.348 297.697 891.022 300.453 889.786 302.923C888.171 305.964 889.691 307.294 893.967 306.629C900.524 305.394 902.52 303.493 904.23 296.367C904.99 293.231 903.28 292.946 899.764 295.701Z" fill="black"/>
<path d="M909.076 297.594C906.986 298.64 906.036 299.305 906.986 299.02C907.936 298.735 909.266 298.545 909.932 298.545C910.597 298.545 911.927 297.879 912.972 297.119C915.538 295.124 913.543 295.409 909.076 297.594Z" fill="black"/>
<path d="M914.303 300.639L910.977 302.73L913.828 303.395C918.389 304.44 929.507 304.345 929.507 303.3C929.507 302.73 927.796 302.349 925.706 302.349C922.095 302.349 921.905 302.159 922.855 300.449C923.805 298.739 923.615 298.549 920.764 298.549C919.054 298.549 916.108 299.499 914.303 300.639Z" fill="black"/>
<path d="M906.416 302.06C902.805 303.961 903.66 304.626 907.651 303.01C909.361 302.25 910.407 301.395 909.932 301.11C909.457 300.825 907.841 301.3 906.416 302.06Z" fill="black"/>
<path d="M905.275 306.152C904.515 307.387 905.751 307.387 907.651 306.152C908.886 305.391 908.886 305.201 907.461 305.201C906.606 305.201 905.561 305.581 905.275 306.152Z" fill="black"/>
<path d="M887.696 309.473C886.746 310.613 886.841 310.898 888.361 310.898C889.311 310.898 891.022 310.233 892.067 309.473C893.777 308.143 893.777 308.143 891.402 308.048C889.976 308.048 888.361 308.713 887.696 309.473Z" fill="black"/>
<path d="M889.121 311.558C887.601 311.844 885.891 312.414 885.415 312.889C884.845 313.364 880.854 313.744 876.388 313.744C868.216 313.744 865.08 314.599 866.126 316.405C867.836 319.065 884.655 320.491 884.18 317.925C884.085 317.26 886.366 316.69 890.167 316.31C895.963 315.93 900.049 313.934 900.049 311.653C900.049 310.893 894.443 310.798 889.121 311.558Z" fill="black"/>
<circle cx="470" cy="216" fill="#5CE50D"/>
<circle cx="454" cy="530" fill="#E52A0D"/>
<circle cx="160" cy="349" fill="#E52A0D"/>
<circle cx="863" cy="317" fill="#E52A0D"/>
</svg>
