<svg width="1000" height="1000" viewBox="0 0 1000 1000" fill="none" xmlns="http://www.w3.org/2000/svg">
<rect width="1000" height="1000" />
<path d="M456.045 18.643C454.438 20.061 449.239 22.6133 444.512 24.3149C437.517 26.8672 435.343 28.0961 433.357 30.743C431.183 33.5789 430.9 34.7133 431.372 37.7383C431.939 41.1414 431.656 41.614 428.631 43.9773C426.457 45.5843 425.322 47.2859 425.322 48.7038C425.322 50.7835 424.944 50.9726 420.407 50.9726C416.247 50.9726 414.546 51.6343 408.685 55.2264C401.312 59.8584 400.65 60.0475 396.112 58.4405C392.804 57.3061 392.52 56.1717 394.694 53.7139C396.396 51.8233 395.734 50.0272 393.465 50.0272C390.724 50.0272 384.674 54.1866 382.783 57.3061C381.649 59.2913 380.893 62.2217 380.893 65.0576C380.893 71.5803 379.948 72.0529 372.48 69.3115C368.32 67.7045 365.106 65.7194 362.743 63.2616C358.3 58.535 355.653 57.8733 351.494 60.3311C349.698 61.4655 347.618 62.3162 346.767 62.3162C345.066 62.3162 341.19 58.535 341.19 56.8335C341.19 56.1717 340.812 55.6991 340.339 55.6991C338.07 55.6991 336.274 57.1171 334.384 60.5202C333.249 62.5053 331.548 64.3959 330.603 64.774C329.279 65.1522 328.901 66.0975 329.09 68.2717C329.374 71.1076 329.185 71.2967 326.254 71.5803C323.796 71.8638 322.662 72.6201 321.244 75.0779C318.786 79.2372 316.99 79.8044 315.099 76.9685C314.343 75.7396 310.94 72.9982 307.537 70.824C304.228 68.6498 301.487 66.4756 301.487 66.0029C301.487 65.5303 300.542 65.1522 299.407 65.1522C298.178 65.1522 294.492 63.8287 291.089 62.2217C287.78 60.6147 284.85 59.6694 284.755 60.142C283.243 64.4905 280.785 67.4209 277.854 68.3662C275.018 69.217 274.546 69.8787 274.262 72.7146C273.884 76.4959 271.899 79.1427 268.212 80.6552L265.66 81.7896L269.158 86.9888C271.048 89.9192 278.8 98.7106 286.268 106.557L299.975 120.925L299.691 126.314L299.407 131.607L302.621 129.622C305.363 127.826 305.835 127.07 306.214 122.438C306.497 119.602 306.97 116.955 307.348 116.577C308.388 115.537 311.602 118.751 312.264 121.492C312.831 123.478 313.303 123.761 315.005 123.194C318.975 121.965 319.921 122.249 319.731 124.707C319.542 126.03 319.259 129.055 319.07 131.513C318.786 135.483 318.219 136.523 314.721 139.642C311.696 142.289 310.751 143.707 311.224 144.936C311.696 146.07 312.453 146.354 313.776 145.976C317.557 144.747 315.478 148.717 311.602 150.135C309.428 150.986 309.05 151.553 309.617 153.349C310.467 156.091 320.677 170.554 325.025 175.091C329.846 180.291 339.583 184.544 344.593 183.788C348.091 183.316 348.752 183.599 352.628 186.908C354.897 188.987 358.111 191.256 359.813 192.201C365.295 195.037 369.455 193.525 366.146 189.838C364.35 187.853 364.35 187.853 367.47 186.246C369.171 185.301 369.455 184.828 368.604 183.788C367.659 182.654 368.226 182.559 372.102 183.032C376.544 183.505 376.923 183.41 379.569 180.291C381.082 178.495 383.445 176.226 384.958 175.28C387.226 173.768 387.794 173.768 389.212 174.997C390.062 175.753 392.615 176.887 394.694 177.455C397.814 178.4 398.948 179.345 400.366 182.181C402.257 186.246 410.103 195.605 411.521 195.605C412.088 195.605 413.128 195.983 413.79 196.361C416.153 197.873 413.601 201.371 408.212 203.923C405.093 205.53 403.013 207.232 402.729 208.272C402.257 210.919 406.227 213.565 409.441 212.904C410.954 212.62 412.75 212.904 413.506 213.565C414.735 214.605 415.397 214.416 417.287 212.62L419.461 210.54L420.974 213.376C422.865 217.063 422.865 217.063 420.596 217.63C419.65 217.914 418.043 219.615 417.193 221.412C415.869 224.247 415.775 225.098 416.815 226.327C418.516 228.312 419.934 228.123 422.486 225.382C425.322 222.357 430.049 222.073 430.049 224.909C430.049 226.422 430.711 226.8 433.263 226.8C436.761 226.8 439.124 229.352 440.069 234.268C440.542 236.442 440.258 237.293 438.557 238.333C436.193 239.75 433.452 244.761 432.412 249.487C431.561 253.647 430.332 255.159 427.875 255.159C426.74 255.159 424.566 256.482 422.865 258.089C420.312 260.547 419.367 260.925 416.815 260.358C414.924 259.98 413.601 258.94 413.033 257.522C412.277 255.443 411.899 255.348 409.063 256.199C404.147 257.711 393.182 259.224 387.794 259.035L382.783 258.94L384.674 261.965C385.714 263.667 386.565 265.746 386.565 266.597C386.565 268.771 383.067 272.08 376.261 276.239C373.141 278.224 370.494 280.21 370.494 280.682C370.494 282.289 382.594 288.245 385.903 288.245C388.644 288.245 389.873 288.906 392.52 292.026C394.694 294.578 396.207 295.618 397.247 295.24C398.097 294.956 399.894 295.524 401.312 296.658C402.729 297.792 404.431 298.643 405.187 298.643C405.944 298.643 408.212 300.534 410.292 302.802C413.317 306.111 415.869 307.624 423.243 310.459C428.253 312.445 432.979 314.808 433.736 315.753C434.681 317.077 436.193 317.549 439.691 317.549C443.756 317.549 444.89 318.022 448.955 321.52L453.492 325.395L453.02 330.405C452.547 334.943 452.831 335.983 456.99 343.923C460.96 351.391 462 352.62 464.931 353.565C471.926 355.834 475.235 358.103 475.896 360.844C476.18 362.357 477.692 364.531 479.205 365.665C481.19 367.083 482.041 368.501 482.041 370.297C482.041 371.81 483.553 375.402 485.349 378.427C489.32 385.044 498.584 395.726 501.041 396.482C502.27 396.861 502.838 397.995 502.838 399.696C502.838 403.1 505.484 405.841 512.291 409.244C515.41 410.851 518.813 413.309 519.853 414.727C521.271 416.617 522.5 417.374 523.918 417.09C525.714 416.807 526.47 417.846 529.306 423.613C531.102 427.299 534.411 432.31 536.68 434.578C541.122 439.21 541.028 438.738 539.705 446.489C538.854 451.877 538.948 452.161 541.501 455.092C543.013 456.793 544.431 459.724 544.809 461.52C545.282 463.977 546.511 465.773 549.252 467.948C553.601 471.351 553.979 471.162 555.964 464.734C557.098 461.047 558.894 460.48 559.367 463.694C559.556 464.639 561.258 467.853 563.148 470.689C566.551 475.699 566.835 475.888 571.372 476.172C578.084 476.55 580.353 477.873 580.353 481.56C580.353 483.451 581.109 485.247 582.527 486.57C584.985 488.934 586.781 489.123 590.184 487.61C593.776 485.909 597.368 488.555 597.368 492.904C597.368 496.401 595.194 499.048 590.278 501.601C588.766 502.451 587.159 503.586 586.781 504.153C586.403 504.72 586.025 504.815 586.025 504.342C586.025 503.775 584.796 504.626 583.189 506.138C579.691 509.447 579.502 512.85 582.716 514.362C583.945 514.929 585.363 516.631 585.93 518.049C586.403 519.561 587.348 520.79 587.821 520.79C588.388 520.79 589.428 522.303 590.184 524.099C591.129 526.368 592.264 527.408 593.492 527.408C594.627 527.408 595.478 527.88 595.478 528.447C595.478 529.204 596.612 529.393 598.692 529.015C601.528 528.542 602 528.731 602.284 530.527C602.473 531.756 603.513 532.701 604.931 533.079C607.861 533.741 608.428 536.199 606.349 539.413C604.836 541.682 604.836 542.06 606.916 546.408L609.09 551.04L606.065 554.16C604.458 555.767 602.851 558.414 602.473 559.832C602.189 561.344 600.866 562.951 599.542 563.613L597.274 564.558L600.393 567.772C602.473 569.946 602.946 570.892 601.906 570.892C599.164 570.892 598.975 575.335 601.622 579.21C603.418 581.763 603.985 583.937 603.985 587.624C603.985 590.27 604.458 593.674 604.931 595.092C605.781 597.171 605.592 598.022 604.174 599.629C598.881 605.773 594.154 615.227 594.721 618.63C595.005 619.67 594.532 621.182 593.776 621.938C592.547 623.073 592.642 623.356 594.154 624.491C595.194 625.247 596.99 626.098 598.314 626.381C601.433 627.137 602.189 628.461 601.528 631.675C601.149 633.66 602.284 636.874 606.349 645.004C609.279 650.959 611.926 657.387 612.21 659.467C612.588 662.114 611.737 666.179 609.279 674.025L605.781 684.99L606.632 699.832C607.483 714.106 607.578 714.862 610.224 718.643L612.966 722.519L608.334 731.31L603.702 740.102L600.677 738.211C598.881 737.077 595.95 736.32 593.492 736.32C589.9 736.32 588.955 736.793 585.079 740.858C576.193 749.838 576.288 749.838 572.129 748.704C566.835 747.286 563.432 748.704 558.611 754.376C555.113 758.535 554.262 759.008 550.954 759.008C548.874 759.008 545.66 758.346 543.769 757.59C539.137 755.605 537.814 757.495 541.312 761.087L543.769 763.64L541.217 766.948C538.759 770.162 538.759 770.446 540.177 773.187C540.933 774.7 542.068 776.023 542.54 776.023C543.108 776.023 543.486 776.685 543.486 777.536C543.486 778.67 542.446 778.954 538.097 778.765C535.072 778.576 531.858 778.859 530.913 779.237C529.59 779.899 529.212 779.426 528.739 777.063C528.077 773.849 525.998 773.282 520.231 774.984C517.49 775.74 517.112 775.551 516.072 773.376C514.937 770.919 514.937 770.919 513.519 772.715C512.763 773.755 511.912 775.74 511.629 777.158C511.156 779.616 510.967 779.71 506.808 779.143C503.31 778.67 502.365 778.859 501.325 780.277C499.623 782.64 499.623 787.083 501.42 792.094C502.176 794.268 502.838 797.482 502.838 799.089C502.932 800.696 503.405 802.965 504.066 804.099C505.768 807.219 514.748 813.552 519.853 815.254C523.351 816.388 524.58 817.333 524.958 819.129C525.336 820.547 525.147 822.154 524.485 822.911C523.351 824.329 523.54 825.652 525.998 831.229L527.51 834.916L523.067 834.349C519.569 833.971 517.962 833.214 516.45 831.324C513.519 827.543 510.778 828.582 509.077 833.876C508.793 834.916 507.659 835.578 506.241 835.578C504.255 835.578 503.783 835.011 503.216 832.269C502.932 830.379 501.798 828.488 500.852 827.921C499.529 827.259 499.056 825.936 499.056 823.194C499.056 818.846 497.071 817.428 494.424 819.886C493.479 820.736 489.792 822.438 486.2 823.667C482.608 824.896 478.07 826.881 476.085 828.015C472.588 830.095 472.304 830.095 469.185 828.582C467.294 827.732 463.04 826.597 459.542 826.125C453.587 825.274 453.114 825.368 451.696 827.259C449.711 829.811 450.278 831.513 454.06 834.821L456.99 837.374L449.428 845.031C442.243 852.215 441.676 852.593 437.611 852.593C431.845 852.593 422.297 854.673 419.556 856.564C418.138 857.414 416.625 859.967 415.586 863.086L413.979 868.191L418.327 872.539C422.392 876.699 422.959 876.888 425.417 876.037C429.576 874.619 434.681 875.848 435.91 878.684C436.666 880.385 437.989 881.142 440.825 881.614C444.323 882.181 449.9 886.53 449.9 888.704C449.9 889.177 447.064 892.107 443.661 895.416L437.422 901.277L436.95 909.784C436.666 914.511 435.815 919.426 435.059 920.939C434.397 922.357 433.83 925.098 433.925 927.083C434.019 928.974 433.357 933.133 432.507 936.253C430.616 943.154 430.522 950.716 432.318 952.701C433.357 954.025 433.357 955.159 432.318 960.264C431.656 963.667 431.278 966.597 431.561 966.881C431.939 967.354 433.452 966.881 438.84 964.612C440.069 964.045 440.447 964.423 440.447 966.314C440.447 967.637 440.92 969.055 441.393 969.339C441.96 969.622 442.338 970.946 442.338 972.175C442.338 974.821 440.258 975.483 436.288 974.254C434.019 973.498 433.357 973.593 431.939 975.389C430.711 977.09 429.671 977.468 427.118 977.185C424.755 976.996 423.904 977.279 423.621 978.508C423.432 979.643 424.282 980.399 427.118 981.061C429.293 981.628 432.696 982.573 434.775 983.046C437.517 983.802 440.825 983.802 446.403 982.951C454.91 981.722 456.99 980.304 457.935 975.2C458.408 972.647 459.259 971.797 462.851 970.379C467.672 968.393 472.588 962.438 472.588 958.562C472.588 957.239 473.06 954.592 473.533 952.796C475.613 945.422 500.663 933.039 513.519 932.944C516.072 932.944 517.773 932.283 519.38 930.581C521.555 928.501 521.744 927.556 521.744 919.805V911.391L524.958 914.605C528.361 918.009 529.779 918.292 539.705 917.914C543.675 917.725 545.471 917.158 547.078 915.551L549.347 913.377L546.889 908.745C544.053 903.262 541.784 900.52 538.948 899.008C537.719 898.346 536.869 897.023 536.869 895.699C536.869 892.391 539.515 893.431 542.919 897.968C546.227 902.316 550.765 904.68 552.088 902.6C554.262 899.102 552.088 894.848 546.416 891.634C539.61 887.853 540.083 886.624 548.212 886.624C551.899 886.624 554.829 886.246 554.829 885.774C554.829 885.206 556.342 885.112 558.138 885.395L561.447 885.963V881.992C561.447 878.4 561.163 878.022 558.705 877.549C557.287 877.266 554.829 875.942 553.317 874.713L550.576 872.539L554.168 872.445C557.665 872.445 561.447 869.892 561.447 867.529C561.447 866.867 560.312 865.26 558.894 863.748C556.058 860.817 556.436 859.399 559.556 861.101C560.69 861.668 562.297 861.952 563.054 861.668C564.377 861.101 564.377 860.817 562.865 859.305C560.312 856.374 561.352 854.673 564.944 855.618C567.78 856.374 567.969 856.564 566.929 858.832C565.984 860.817 566.173 861.479 567.875 863.181C569.009 864.315 570.049 865.071 570.143 864.788C570.332 864.599 571.183 863.086 572.034 861.574C573.925 858.076 575.343 857.792 579.786 859.589C582.621 860.817 583.189 861.479 583.189 863.937C583.189 867.435 583.283 867.435 595.572 861.952C600.204 859.872 605.214 858.265 607.199 858.265C609.09 858.265 610.603 857.887 610.603 857.509C610.603 857.131 612.021 855.146 613.817 853.255C616.18 850.703 617.787 849.757 619.867 849.757C621.474 849.757 623.931 848.812 625.444 847.489C629.131 844.464 631.872 843.14 634.519 843.14C637.827 843.14 646.052 834.16 646.902 829.622C647.47 826.597 647.942 826.125 650.116 826.125C651.534 826.125 653.803 826.692 655.127 827.448C658.152 828.961 660.042 828.11 661.649 824.234C662.5 822.249 663.634 821.304 665.903 820.831C668.077 820.453 669.306 819.507 670.346 817.239C671.575 814.686 672.615 814.025 676.774 813.079C680.555 812.229 682.068 812.134 683.108 812.985C684.147 813.93 685.187 813.363 688.401 810.338C694.073 805.044 697.287 803.248 700.69 803.626C703.054 803.815 703.715 803.532 703.999 802.019C704.188 800.979 704.85 798.616 705.511 796.82C706.268 794.835 706.646 791.526 706.362 788.501C705.795 783.586 707.213 781.506 708.253 785.571C709.387 789.919 713.263 784.815 715.721 775.456C716.761 771.58 716.761 770.824 714.87 767.421C713.736 765.436 713.263 763.734 713.736 763.734C714.208 763.734 715.059 762.695 715.532 761.371L716.382 759.008L718.746 761.371C721.96 764.585 724.228 764.491 723.85 761.087C723.661 759.291 722.716 758.157 720.636 757.212C716.382 755.416 714.492 750.973 716.099 746.719C717.706 742.276 716.761 733.579 714.492 731.31C712.412 729.325 712.129 726.867 713.925 726.867C716.382 726.867 718.651 729.42 719.218 733.012C719.502 734.997 720.353 736.793 721.014 737.077C722.338 737.455 725.646 730.649 726.119 726.395C726.403 723.653 726.308 723.559 722.905 723.842C719.691 724.126 719.313 723.937 719.313 721.952C719.313 720.628 718.273 718.643 716.95 717.414C713.925 714.578 714.019 713.822 717.139 713.822C719.029 713.822 720.731 712.688 723.283 709.852C725.268 707.678 726.875 705.22 726.875 704.558C726.875 703.802 727.726 703.235 728.86 703.235C731.224 703.235 734.438 701.628 734.438 700.399C734.438 699.926 732.169 697.846 729.522 695.767C722.621 690.568 721.865 689.15 723.189 683.95C724.039 680.453 723.945 679.224 722.716 676.672C721.771 674.686 721.487 673.268 722.054 672.607C723.283 671.189 722.149 669.487 719.88 669.109C717.989 668.731 715.815 663.91 716.95 662.776C717.328 662.397 718.557 663.248 719.786 664.666C721.204 666.273 722.621 667.124 723.472 666.746C724.701 666.273 724.701 665.611 723.094 661.452C722.149 658.805 720.447 655.875 719.313 654.835C718.084 653.606 717.422 651.904 717.422 649.352C717.422 647.367 716.95 644.531 716.477 643.208C715.91 641.601 715.815 640.088 716.382 639.143C717.139 637.819 717.422 637.914 718.368 640.372C720.447 646.233 720.447 646.138 721.393 643.491C721.96 641.695 721.865 639.994 720.825 637.536C719.975 635.551 719.313 632.62 719.313 631.013C719.218 627.61 717.422 624.774 715.154 624.774C714.303 624.774 713.168 623.734 712.696 622.505C712.223 621.277 711.372 619.953 710.9 619.575C710.332 619.291 709.86 618.535 709.86 617.968C709.86 617.401 710.805 617.779 712.034 618.819C716.288 622.694 716.761 622.6 716.288 618.062C715.815 613.998 710.805 604.828 707.686 602.276C705.7 600.574 704.566 592.067 706.173 590.176C707.969 588.002 704.472 578.549 701.447 577.414C699.745 576.753 699.367 575.996 699.745 574.106C699.934 572.688 699.367 569.379 698.422 566.543C697.382 563.802 696.626 560.966 696.626 560.304C696.626 559.643 695.775 558.508 694.64 557.846L692.655 556.618L694.735 554.349C696.342 552.647 696.72 551.513 696.247 549.433C695.869 548.015 695.302 545.368 695.018 543.667C694.64 541.493 693.979 540.642 692.75 540.642C691.804 540.642 690.576 539.791 690.008 538.751C688.779 536.482 686.7 536.293 685.849 538.279C684.998 540.642 683.391 539.886 682.824 536.861C682.162 533.647 681.784 533.457 679.515 535.537C677.152 537.617 676.301 536.766 674.883 530.716C674.127 527.408 672.426 524.099 670.441 521.83C668.739 519.751 666.565 516.442 665.808 514.457C664.107 510.392 660.987 506.611 659.191 506.611C658.624 506.611 657.584 505.287 656.923 503.775C656.261 502.168 654.937 500.466 653.992 499.899C651.44 498.576 651.723 495.551 654.559 493.755C655.883 492.904 656.923 491.58 656.923 490.919C656.923 489.028 650.873 489.217 648.982 491.108C648.131 491.864 646.524 492.431 645.39 492.242L643.216 491.958L645.39 489.784C646.524 488.65 647.47 486.948 647.47 485.909C647.47 484.491 646.808 484.207 643.688 484.302C638.962 484.396 637.449 483.073 638.962 480.048C640.002 478.252 639.907 477.779 638.395 476.645C636.882 475.51 636.504 475.605 635.559 476.834C634.991 477.59 633.384 478.252 632.061 478.252C630.738 478.252 629.32 478.724 629.036 479.197C628.28 480.331 624.688 479.48 623.648 477.873C623.27 477.306 622.892 475.699 622.892 474.376C622.892 472.202 622.135 471.54 617.598 469.744C612.588 467.664 596.045 457.549 596.707 456.888C597.463 456.037 605.687 459.724 607.389 461.709C609.185 463.599 609.752 463.788 611.075 462.748C612.588 461.709 612.493 461.425 610.035 459.44C606.254 456.509 600.299 452.728 599.448 452.728C599.07 452.728 596.801 450.838 594.532 448.474C590.846 444.788 589.806 444.22 586.308 444.22C582.527 444.22 582.243 444.031 581.393 440.628C580.825 438.738 580.353 436.185 580.353 434.956C580.353 432.31 577.989 427.583 575.248 424.464C574.208 423.235 570.238 420.871 566.457 419.17C562.014 417.09 559.556 415.389 559.083 413.971C558.705 412.836 556.436 410.473 553.884 408.677C548.874 405.085 546.889 401.587 545.944 394.97C545.471 391.567 544.809 390.338 543.013 389.582C541.69 388.92 540.65 387.786 540.65 387.029C540.65 386.179 539.705 384.288 538.665 382.775L536.585 380.034L539.137 377.104C542.068 373.511 542.162 373.133 539.61 370.959C538.476 369.825 537.814 368.218 538.003 366.705C538.287 363.68 537.247 361.979 534.978 361.979C533.938 361.979 531.669 360.466 529.873 358.67C527.983 356.874 525.714 355.362 524.674 355.362C523.729 355.362 522.594 354.7 522.311 353.849C521.933 352.904 520.798 352.526 519.097 352.715C516.923 352.904 515.694 352.148 512.48 348.461C510.305 345.909 508.509 343.545 508.509 342.978C508.509 342.505 507.942 342.127 507.186 342.127C504.823 342.127 502.838 339.291 502.838 335.794C502.838 333.903 501.987 331.445 500.947 330.122C499.907 328.798 499.056 326.246 499.056 324.545C499.056 322.087 498.678 321.425 496.977 321.141C495.464 320.952 494.613 319.913 494.046 317.455C493.574 315.186 492.345 313.579 490.454 312.445C487.618 310.743 485.822 307.624 485.822 304.315C485.822 302.992 486.862 302.235 489.603 301.479C494.519 300.156 496.315 297.036 493.952 293.538C492.061 290.513 492.061 290.419 494.33 289.852C495.559 289.568 496.22 288.528 496.22 287.016C496.22 285.692 496.693 283.424 497.26 281.911C498.773 277.941 500.285 268.488 500.191 263.478C500.191 259.602 500.38 259.035 502.554 258.468C504.539 257.995 504.823 257.428 504.539 255.159C504.255 253.174 504.634 251.85 505.863 250.716C506.808 249.865 507.564 247.975 507.564 246.557C507.564 243.343 508.226 242.87 516.544 240.507C521.933 238.994 523.445 238.049 525.241 235.402C526.47 233.606 528.644 231.432 530.157 230.486C531.669 229.636 533.182 227.651 533.465 226.138C534.127 223.775 534.316 223.68 535.356 225.193C536.774 227.083 539.988 227.367 541.312 225.571C543.58 222.451 546.322 211.675 546.511 204.68C546.7 197.968 546.889 197.495 548.023 199.291C548.779 200.426 550.197 201.276 551.143 201.276C553.317 201.276 553.411 200.331 551.521 197.873C549.441 195.132 549.819 194.47 552.844 195.132C556.626 195.983 558.043 193.241 557.854 185.395C557.854 181.992 558.138 179.723 558.705 180.007C559.178 180.385 559.556 181.141 559.556 181.709C559.65 183.032 562.865 187.097 563.81 187.097C564.188 187.097 564.282 185.962 563.999 184.544C563.432 181.52 567.686 176.698 570.805 176.698C572.129 176.698 572.79 176.131 572.79 174.808C572.79 172.255 574.586 172.445 577.611 175.375L580.258 177.833L583 175.848C584.607 174.808 586.97 173.863 588.293 173.863C589.806 173.863 591.318 173.012 592.264 171.405C593.682 169.325 594.06 169.231 594.721 170.459C595.761 172.35 597.368 172.445 597.368 170.648C597.368 169.892 599.732 167.245 602.567 164.882C607.483 160.628 609.279 158.076 606.632 159.021C605.971 159.21 604.553 159.021 603.607 158.454C602.189 157.792 601.433 157.981 600.204 159.399C597.746 162.519 594.91 162.991 594.249 160.439C593.492 157.792 594.91 156.847 599.921 156.847C602.946 156.847 604.269 156.374 605.12 154.956C605.781 153.917 607.01 153.066 607.767 152.971C608.523 152.971 610.319 152.215 611.642 151.364C616.653 148.15 619.583 145.976 620.528 144.936C621.946 143.235 626.673 142.478 628.091 143.613C629.981 145.125 632.912 143.329 633.668 140.21C634.235 138.224 633.952 137.374 632.628 136.712C631.683 136.145 629.225 133.971 627.24 131.891C618.26 122.532 614.762 121.871 603.891 127.07C595.856 130.946 594.91 131.04 594.249 128.488C593.871 126.975 592.925 126.597 589.806 126.597C586.686 126.597 585.741 126.219 585.363 124.707C584.985 123.289 584.039 122.816 581.676 122.816C577.139 122.816 569.009 116.671 569.009 113.174C569.009 109.014 568.158 107.596 566.268 108.825C563.337 110.621 559.934 109.014 558.422 105.233L557.004 101.736L554.924 104.761C553.601 106.651 551.993 107.691 550.576 107.691C548.401 107.691 548.401 107.596 548.779 98.2379L549.252 88.8794L545.565 86.9888C540.177 84.2474 539.61 83.113 539.894 76.4013L540.177 70.4459L543.675 69.5951C546.794 68.8389 547.361 68.1771 549.725 62.6944C551.143 59.3858 552.844 56.1717 553.601 55.6046C555.491 53.9975 555.113 53.1468 551.993 51.3507C550.481 50.4054 548.59 48.1366 547.834 46.1515C546.511 42.8429 546.227 42.6539 540.933 42.0867C532.709 41.1414 532.142 41.2359 527.037 43.8827C523.067 45.9624 522.122 46.1515 521.271 45.0171C519.759 42.9374 514.559 40.5742 511.345 40.5742C509.738 40.5742 506.146 41.3304 503.405 42.3703C497.071 44.5445 493.857 43.9773 490.359 40.007C488.847 38.3054 486.2 36.4148 484.499 35.8476C482.702 35.2805 480.528 33.957 479.677 33.0117C478.354 31.5938 477.692 31.4047 476.747 32.1609C475.707 33.0117 475.329 32.35 474.856 29.325C474.384 26.2055 473.344 24.693 470.319 22.2352C466.443 19.1157 461.055 15.9962 459.637 15.9962C459.259 15.9962 457.557 17.2251 456.045 18.643Z" fill="black"/>
<circle cx="500" cy="181" fill="#5CE50D"/>
<circle cx="679" cy="539" fill="#E52A0D"/>
<circle cx="355" cy="105" fill="#E52A0D"/>
<circle cx="572" cy="859" fill="#E52A0D"/>
</svg>
