<svg width="1000" height="1000" viewBox="0 0 1000 1000" fill="none" xmlns="http://www.w3.org/2000/svg">
<rect width="1000" height="1000" />
<path d="M323.953 276.392C320.426 279.442 319.95 279.537 310.323 280.109C300.125 280.681 287.353 283.826 282.968 286.972C281.825 287.829 280.395 290.212 279.823 292.309C279.061 295.169 278.393 296.026 277.345 295.645C276.487 295.359 274.867 295.073 273.723 295.073C271.817 295.073 271.626 294.692 272.007 292.5C272.389 290.594 272.198 290.117 271.054 290.498C270.292 290.879 267.337 291.356 264.478 291.737C260.379 292.214 258.282 291.928 254.279 290.403C245.892 287.067 241.126 287.639 227.115 293.739L214.819 299.076L210.244 297.075C203.001 293.93 199.569 294.406 188.322 299.934C182.794 302.603 175.455 306.511 171.929 308.512C165.828 312.134 165.352 312.23 156.678 312.23C148.291 312.23 147.242 312.516 137.806 316.423C129.514 319.95 127.608 321.094 126.464 323.477L125.13 326.336L120.936 324.334C118.267 323 116.933 321.856 117.314 320.998C117.6 320.236 118.077 318.711 118.362 317.472L118.934 315.28L108.45 317.567C102.731 318.806 94.7248 320.998 90.531 322.428C83.4779 325.002 82.5247 325.097 76.8059 324.144C73.3747 323.572 67.9418 322.142 64.6059 320.998C61.3652 319.855 57.362 318.902 55.837 318.902C54.2167 318.902 52.9776 318.616 52.9776 318.139C52.9776 317.758 51.7386 316.042 50.2136 314.231C47.926 311.467 47.3542 311.181 45.6385 312.039C44.1135 312.897 42.3979 312.706 38.0135 311.086C32.4853 309.084 32.1994 309.084 28.1009 310.609C25.8134 311.467 21.143 314.708 17.8071 317.758L11.707 323.191L14.6617 329.1C16.3774 332.341 17.9977 336.82 18.2836 339.013C18.7602 342.063 20.0946 344.35 23.3352 347.877C31.2462 356.36 42.4932 364.652 53.073 369.704C62.6043 374.374 63.3668 374.946 66.8934 380.379C74.0419 391.435 85.1935 401.538 92.8186 403.826C95.7733 404.683 97.3936 405.923 98.9186 408.401C100.062 410.307 105.972 416.979 112.072 423.27C119.22 430.513 124.653 437.185 127.131 441.379C132.85 451.292 141.428 459.107 150.006 462.348C153.724 463.778 156.869 465.398 156.869 465.97C156.869 466.637 157.346 470.926 157.917 475.692C159.061 485.128 160.396 488.464 164.685 492.943C166.21 494.659 168.497 498.662 169.736 501.998L171.929 508.098L178.124 509.909C183.461 511.434 184.605 512.197 185.558 514.58C186.225 516.2 189.276 520.87 192.421 525.064L198.044 532.594L204.335 532.022C219.871 530.687 223.207 529.925 231.785 525.922C243.89 520.298 245.415 520.108 250.753 523.634C253.231 525.255 256.471 526.875 258.092 527.161C260.57 527.733 261.523 527.352 264.954 523.92C268.767 520.203 269.243 520.012 274.867 520.012C279.061 520.012 282.015 519.441 284.779 518.011L288.782 516.009L290.593 518.487C291.547 519.822 292.786 520.966 293.167 520.966C293.643 520.966 296.598 519.441 299.743 517.63L305.558 514.198L324.62 514.389L343.588 514.484L345.97 511.815C347.305 510.29 349.211 507.05 350.069 504.476C351.689 500.092 351.88 499.997 355.692 499.997C357.885 499.997 362.174 500.283 365.414 500.569L371.228 501.236L371.8 507.24C372.467 513.15 372.563 513.245 379.807 520.298L387.05 527.352L396.868 529.353C409.735 532.117 411.26 532.022 416.693 528.305C425.652 522.3 427.368 516.295 424.223 501.903C423.46 498.472 422.888 493.897 422.793 491.704C422.793 487.701 422.888 487.511 429.941 482.65C437.757 477.217 438.234 476.073 436.041 468.543C434.516 463.492 436.804 459.203 445.382 450.624C454.056 442.046 454.437 439.473 448.623 431.181C441.474 420.887 438.234 414.119 437.566 407.543C436.899 401.443 434.04 394.58 428.798 386.288C427.177 383.715 426.51 381.522 426.701 378.949C426.987 375.994 426.415 374.66 423.841 371.61C422.126 369.608 417.932 363.699 414.501 358.457C411.069 353.214 405.732 346.542 402.777 343.683C398.679 339.775 396.677 337.011 395.057 332.722C392.388 325.478 391.816 324.811 388.004 324.048C385.716 323.667 384.572 322.809 383.905 320.998C383.333 319.569 379.33 313.945 374.946 308.417C369.894 302.222 365.891 296.026 364.271 292.214C362.174 287.162 360.935 285.447 357.694 283.445C349.402 278.298 345.78 276.964 340.156 276.964C336.344 276.964 333.675 276.392 331.483 275.058C329.767 274.009 328.147 273.151 327.956 273.151C327.67 273.151 325.859 274.581 323.953 276.392Z" fill="black"/>
<path d="M691.291 527.25C691.005 527.536 685.476 528.203 678.995 528.68C644.301 531.253 646.112 530.967 632.196 535.638C625.048 538.021 617.137 540.308 614.563 540.689C611.609 541.071 609.416 541.928 608.177 543.453C604.841 547.266 594.834 549.554 581.013 549.554C569.766 549.554 568.146 549.839 559.282 552.699L549.75 555.939L538.408 567.282C525.636 579.958 524.778 581.769 526.875 592.254C527.828 597.019 528.4 597.782 535.072 603.405C542.125 609.315 542.602 609.506 554.04 612.365C560.426 613.985 567.002 615.32 568.622 615.32C571.482 615.32 571.482 615.32 569.957 617.702C568.432 620.085 568.718 624.851 570.433 624.851C572.054 624.851 580.727 632.476 583.301 636.193C585.684 639.624 586.255 639.91 588.066 638.957C590.83 637.528 591.498 636.289 591.498 632.667C591.498 630.093 591.879 629.617 593.785 629.617C597.121 629.617 601.315 635.145 603.507 642.198C604.556 645.915 606.843 650.014 609.893 653.826C612.467 656.971 615.231 660.879 615.993 662.404C616.946 664.311 619.615 666.122 625.143 668.79C629.432 670.792 634.674 673.747 636.867 675.367L640.775 678.322L646.875 676.892C654.404 675.176 669.273 668.409 672.609 665.264C674.706 663.262 675.183 663.072 675.659 664.311C676.136 665.55 677.947 665.836 684.333 665.836C691.672 665.836 692.53 666.026 693.959 667.932C695.389 670.029 695.389 670.125 692.148 670.601L688.908 671.078L693.483 676.034C696.247 679.084 698.916 681.086 700.155 681.086C702.728 681.086 728.558 687.567 730.846 688.806C733.61 690.236 739.805 699.291 741.33 703.961L742.76 708.25L752.005 708.536L761.346 708.822L768.59 704.533C778.121 699.005 782.791 697.766 791.083 698.719C797.374 699.386 797.755 699.576 801.949 704.056L806.238 708.727H813.196C818.82 708.727 821.298 708.155 826.445 705.867C830.543 704.056 834.356 703.008 837.215 703.008C839.693 703.008 843.22 702.531 845.126 702.055C847.985 701.197 849.415 701.483 853.704 703.294C857.993 705.2 861.329 705.772 873.148 706.344C881.059 706.82 891.734 707.106 896.976 707.011C902.219 706.82 917.85 706.725 931.766 706.534L957.024 706.344L965.602 709.87C970.272 711.872 974.371 713.492 974.752 713.492C975.896 713.492 976.754 710.442 977.516 703.961C977.897 700.244 979.613 694.43 981.71 689.664C983.807 684.708 985.141 680.228 985.141 677.654C985.141 673.842 984.95 673.556 978.946 669.648C975.514 667.361 970.844 663.453 968.652 660.879C965.411 657.067 963.696 656.018 959.407 654.875C956.547 654.112 952.83 653.445 951.21 653.445C948.922 653.445 947.588 652.682 945.681 650.204C944.347 648.393 942.822 645.82 942.25 644.485C941.583 642.77 940.249 641.817 937.294 641.054C932.338 639.91 927.667 638.385 923.473 636.574C920.709 635.431 920.328 634.859 920.328 631.523C920.328 628.092 919.947 627.52 915.372 624.47L910.511 621.134L907.651 623.517C902.886 627.52 895.356 630.951 888.97 632.095L882.965 633.143L883.537 629.235C883.918 627.138 884.681 625.042 885.348 624.66C885.92 624.279 890.304 622.659 895.07 620.943C899.74 619.323 903.934 617.607 904.411 617.321C905.65 616.082 896.881 610.554 893.736 610.554C891.162 610.554 890.781 610.173 890.781 608.076C890.781 606.074 890.019 605.312 886.015 603.691C882.775 602.357 881.25 601.213 881.25 599.974C881.25 597.782 879.915 596.924 874.387 595.78L869.812 594.827L872.672 590.538C874.197 588.155 875.531 585.963 875.531 585.677C875.531 584.915 864.093 582.913 859.423 582.913C856.945 582.913 853.418 583.962 849.796 585.773C843.22 589.108 841.599 589.299 840.36 586.821C839.598 585.487 837.882 585.01 832.068 584.533C825.015 584.057 824.538 583.866 820.345 579.768C814.054 573.668 809.765 572.81 796.04 574.907L785.365 576.527L781.076 573.191C778.693 571.38 775.166 568.14 773.26 566.043C770.686 563.279 768.399 561.849 764.586 560.705C761.727 559.943 757.343 557.75 754.96 555.844C752.482 554.033 749.908 552.794 749.146 553.08C745.81 554.319 740.853 552.222 736.088 547.361L731.227 542.405L730.369 546.789L729.511 551.269L721.409 546.408C714.738 542.31 712.927 540.689 711.116 537.163C709.114 533.255 708.256 532.588 701.394 529.728C693.769 526.583 692.339 526.202 691.291 527.25Z" fill="black"/>
<path d="M468.543 547.172C468.543 549.173 469.02 549.555 471.402 549.555C473.785 549.555 474.262 549.173 474.262 547.172C474.262 545.17 473.785 544.789 471.402 544.789C469.02 544.789 468.543 545.17 468.543 547.172Z" fill="black"/>
<path d="M493.61 561.659C489.988 563.47 489.893 563.947 492.371 569.284C494.087 573.192 494.373 573.383 498.471 573.383C502.57 573.383 502.76 573.287 503.237 570.237C503.523 568.617 503.428 565.662 503.046 563.851C502.379 560.992 501.903 560.516 499.52 560.325C497.899 560.23 495.231 560.801 493.61 561.659Z" fill="black"/>
<path d="M978.659 721.306L978.945 725.405L983.52 725.691L988 725.977V722.641C988 719.209 987.809 719.019 981.518 717.78L978.373 717.112L978.659 721.306Z" fill="black"/>
<circle cx="736" cy="557" fill="#5CE50D"/>
<circle cx="423" cy="497" fill="#E52A0D"/>
<circle cx="124" cy="321" fill="#E52A0D"/>
<circle cx="931" cy="702" fill="#E52A0D"/>
</svg>
