<svg width="1000" height="1000" viewBox="0 0 1000 1000" fill="none" xmlns="http://www.w3.org/2000/svg">
<rect width="1000" height="1000" />
<path fill-rule="evenodd" clip-rule="evenodd" d="M220.874 315.668L222.84 315.063H223.748L225.261 315.668L227.832 313.399L230.102 311.886L231.917 310.373L232.371 309.768L235.094 308.407L236.153 308.255L237.968 308.86L239.027 307.801L240.086 307.196L241.296 307.045L242.506 307.348L243.262 306.591L245.532 305.684L247.801 305.23L251.583 306.289L254.759 309.919L257.482 312.491L260.054 314.306L261.869 314.911L263.382 315.214L264.744 314.76L265.651 313.096L267.466 310.978L271.097 306.742L275.03 302.204L276.089 301.145L283.048 296.607L286.376 292.069L287.737 290.859L290.763 289.951L292.881 289.8L295.452 288.741L299.688 285.715L302.108 283.9L305.436 282.69L309.37 281.631L312.849 280.572L314.059 279.513V278.757L312.849 278.454L312.698 277.698L312.849 276.488L311.941 275.731L311.336 276.336V275.429L308.462 274.975L306.798 273.765L305.285 273.159L304.831 272.101V269.68L302.108 268.47L297.721 265.142L296.814 263.629L295.906 260.604L295.604 259.242L294.847 256.368L288.494 249.258L287.889 248.653L287.737 245.779L287.132 245.325L289.25 243.963L289.855 241.997L290.914 241.089L291.822 238.669L292.729 237.61L292.881 236.853L293.183 232.618L294.091 231.105L294.847 228.987L297.419 226.113L298.78 224.298L300.444 223.995L301.655 223.239L302.562 220.667L302.26 219.759L303.47 219.608L305.436 218.7L306.193 217.49L309.218 215.978L310.126 216.431L313 216.28L314.816 222.785L315.874 223.995L316.782 225.054L317.841 225.508H319.051L320.11 224.449L321.774 222.482L322.682 221.575L323.287 220.516L323.438 219.608L322.379 218.095L322.228 216.129L323.287 215.221L324.195 213.557L326.615 213.255L327.069 212.952L327.22 211.742L328.43 210.985L329.035 209.927L328.43 208.414L328.582 207.355L329.338 206.296L330.397 203.573V201.153L331.758 199.337L332.817 199.186L335.691 197.825L336.145 192.984L334.935 190.866L335.994 190.11L337.658 189.958L340.381 189.051L340.835 187.387L344.617 188.294H346.281L349.004 187.235H349.458L350.516 188.445H352.483L353.088 187.538L354.45 187.084L355.206 187.538L354.752 189.051L354.601 192.379L353.996 193.286L354.298 193.74L353.996 194.95L353.239 195.858L354.147 197.068L354.752 196.917L355.66 197.522L357.475 196.614L359.442 195.102L360.047 193.286L360.803 192.832L364.434 193.891L365.644 194.648H366.249L366.552 192.076L365.644 191.017L365.19 190.715L364.585 189.202V187.992L366.098 186.63L366.552 185.723V183.907L368.518 183.151L370.182 183L370.636 183.756L371.846 183.907V181.638L371.544 179.52L372.451 177.705L372.3 176.192L373.964 175.133L374.569 175.285L378.2 175.587L379.864 174.831L380.318 175.133L381.528 174.074L382.284 172.41L382.133 167.418L381.83 166.359L379.712 165.3H379.259L380.469 162.426L381.982 160.913L381.83 158.947L381.074 158.493L381.528 156.98L381.225 154.862L380.923 153.198L380.469 153.047L379.561 153.955L378.2 153.198L377.443 153.047L376.838 151.988L376.082 151.534L374.872 149.265L374.569 148.358L375.477 147.753L376.082 146.24L377.746 145.03L378.805 145.786L379.561 145.483L380.015 145.635L381.83 145.332L385.31 143.819L386.369 143.971L387.579 143.063L388.789 142.609L389.697 141.55L390.756 141.399L391.815 139.432L391.966 138.373L392.873 137.163V135.953L393.327 135.802L393.025 133.835L393.479 133.23L392.571 130.81L392.117 130.507L390.907 128.238L392.117 126.725L393.479 126.423L393.63 126.12L393.479 123.549L391.966 120.22L391.361 119.615V118.254L390.907 117.649L389.999 115.38L389.697 113.413L389.243 112.505L386.217 110.69L383.192 109.631L383.041 106.606L381.528 105.396L379.712 104.488L379.259 103.732L377.897 103.429L375.174 101.916V100.252L375.628 99.9497L377.292 97.378L376.233 95.8652L376.082 94.8063L374.872 93.1423L375.477 90.8732L375.174 90.5706L373.359 90.2681L371.997 89.2091L372.149 87.9989L370.333 87.0913L369.275 87.3938L367.005 85.276L365.644 84.5196L362.618 83.7632H360.501L359.442 83.1581L358.988 82.7043L358.08 82.553L356.719 80.889L354.147 79.8301L351.273 79.6788L350.365 76.8046L349.458 76.0482L349.76 74.5355L351.424 73.6278L352.483 72.4176L352.18 71.51V69.9972L351.273 68.6357L351.424 67.7281L350.516 65.1564L350.214 63.9462L349.609 63.6437L349.306 62.736L348.55 62.2822L346.735 60.6182L345.978 58.5003L345.373 57.8952L343.709 56.9876L342.196 55.021L342.65 53.8108L344.012 53.0544L344.465 51.693L345.676 50.9366L346.281 51.0879L347.037 52.4493L347.491 53.5083L348.55 53.2057L350.365 54.8697L352.332 54.5672L353.391 55.3236L355.206 54.7185L356.719 53.357L359.593 52.6006H360.501L362.316 51.693L362.77 52.6006L363.677 53.357L364.585 53.8108L365.039 53.357L366.552 53.6595L368.216 53.2057L368.972 52.1468L369.577 51.8442L370.636 52.1468L371.392 51.8442L372.3 50.4828L373.964 52.1468L378.048 51.8442L378.502 51.693L379.864 52.1468L382.133 51.9955L384.856 52.2981L386.822 50.9366L390.302 49.2726L390.907 48.0624L390.302 47.306L390.756 45.7932L391.209 45.1881L393.025 43.9779H393.781L394.386 43.0703H394.991L396.353 40.8012L400.588 40.0448L401.647 39.2884V37.6244L402.101 36.4142L403.765 35.3553L405.581 34.5989L405.883 32.9349L406.337 32.6323L406.034 31.7247V30.5145L406.639 30.817L407.396 29.9094L409.816 25.9762L411.178 24.4635L414.354 24.6147L415.413 25.0686L418.288 25.6737L420.859 27.0351L424.187 26.7326L427.969 27.6402L429.028 27.1864L432.205 25.2198L434.02 27.3377L435.533 26.7326L436.743 28.8504L437.046 28.0941L437.953 27.3377L439.315 26.7326L440.676 26.5813L443.399 27.6402L444.004 27.3377L444.609 25.9762L444.458 24.4635L443.853 23.8584L444.458 21.7405L443.853 20.379V17.5048V16.7484L446.576 14.9331V13.8742L447.181 13.4204L447.938 11.9076L449.602 11L450.963 11.6051L453.535 11.4538L455.501 11.9076L461.855 12.5127L462.914 13.4204L463.216 15.387H465.939L466.544 18.8663L469.57 20.2278L471.234 21.7405L472.142 22.3456L474.259 22.6482L475.167 25.2198L475.772 26.1275L476.68 26.7326L478.193 29.6068L482.882 34.7502L484.546 36.4142L485.151 36.5655L486.361 39.1371L487.269 40.0448L487.723 41.1037L487.42 42.3139L488.933 42.6165L489.084 43.8267L488.63 44.8856L488.782 46.3983L488.63 47.9111L489.387 48.97V50.9366L492.866 53.6595L493.925 55.021L494.228 55.9287L493.471 56.5338L492.412 55.6261L491.051 55.7774L489.992 54.4159L488.025 55.021H485.605L483.941 54.1134L482.277 54.5672L481.369 53.2057L480.462 53.0544L479.251 53.9621L476.226 54.7185L475.318 54.2646L474.108 54.8697L471.839 54.2646L470.78 53.357L469.721 56.3825L470.477 57.744L471.083 59.7105L474.108 61.8284L474.259 63.1898L475.167 63.3411L476.982 65.7615L476.68 66.5179L473.957 67.8794L472.898 68.6357L471.083 68.787L470.629 69.3921H467.754L467.149 69.0896L466.544 69.5434L466.393 70.451L465.032 72.7202L465.485 73.3253L469.116 77.1071L470.477 76.6533L473.352 76.502L473.957 76.0482H476.226L476.831 76.502L477.739 76.1995L478.949 77.4097L479.1 78.7712L479.554 79.6788L481.521 81.9479V82.8556L484.546 83.1581L485.605 82.0992L486.664 81.6454L489.387 80.889L490.9 81.3428L490.446 81.6454L490.597 82.4018L492.866 84.3683L493.32 85.1247L493.017 86.3349L493.169 87.2426L496.043 89.663L497.707 89.9655L498.463 90.4193L500.43 89.2091L502.396 91.7808L503.455 92.5372L505.119 94.5038L506.178 94.2012L507.389 94.9576L508.599 95.2601L510.565 95.1089H511.776L512.834 96.0165L513.893 96.1678L515.255 97.2267L516.465 100.403L516.616 101.614L517.373 102.219L518.129 104.337L519.944 104.034L520.852 104.337L521.911 105.244L522.667 104.942L524.483 107.513L525.844 108.118L527.357 109.329L528.416 109.177L530.08 110.236L531.593 110.539L533.862 111.295L535.072 111.447L535.979 110.841L536.282 110.085L535.979 107.362L535.526 107.06L537.795 104.639L539.005 104.337L539.913 103.732L541.425 103.429L542.787 103.732L543.089 103.429L544.602 103.883L546.417 103.126H547.93L548.989 101.916L549.443 101.765L550.351 101.916L553.074 103.883H555.797L556.855 104.488L558.973 104.639L559.73 106.152V106.757L561.848 107.513H563.512L564.722 108.118L565.629 109.783L566.386 111.295L567.596 111.9L568.957 114.472L570.168 114.775L571.68 115.834L571.983 116.59L573.647 118.708L574.252 119.918H575.614L577.126 122.792L577.883 123.397L584.236 121.431L584.993 120.22V119.464L588.774 118.254H590.892L591.195 117.195L592.405 116.287L592.254 114.926V112.959L591.951 111.144L591.8 109.48L592.102 108.421L593.161 107.665L597.095 103.732L598.456 105.547L599.061 107.513L600.725 108.875L602.238 110.539L603.902 114.17V115.834L604.961 116.892L606.474 116.439L609.045 119.01L609.802 120.826L610.104 120.977H611.617L612.978 120.372L614.491 120.826L616.912 120.372L618.727 119.615L619.181 119.01L620.088 119.162L621.147 120.372L622.055 121.885L622.357 124.759L623.265 125.969L623.416 127.179L624.173 128.238L624.778 130.356L625.534 131.869L625.988 133.835L626.593 134.44L626.442 135.197L625.686 136.861L624.929 137.617H623.719L622.357 139.432L622.509 140.189L621.299 140.945L622.055 143.214L623.416 145.03L623.265 146.845L624.022 147.299L625.08 148.509L624.929 150.173L626.744 151.232V152.291L627.35 153.652L627.501 155.014L628.257 156.224L628.409 158.493L628.106 160.611V162.426L627.803 163.031L628.106 165.3L628.711 166.662L628.106 168.175L627.955 170.141L628.56 171.351V172.562L629.619 174.679V175.738L629.77 177.554L631.434 178.461L633.249 178.31L634.157 178.008L635.065 178.31L635.821 179.823L635.216 181.184L635.518 184.059L635.216 185.42L633.552 187.992L634.611 189.656L635.367 191.774L636.729 192.984V195.404L638.09 196.009V196.766L637.636 197.825L639.3 197.976L639.754 198.43L641.267 197.219L642.477 196.614L645.805 194.345L646.561 193.74L648.679 192.832L649.284 191.774L648.982 189.958L648.377 187.689L649.587 186.328L650.948 183.151V182.243L652.764 182.395L654.125 181.487L655.487 181.033L656.243 181.638L658.966 182.697L659.269 183.302H661.084L663.202 184.059L663.807 184.512L665.017 183.907L665.471 184.21V186.176L667.589 188.143L667.891 188.899V190.11L668.648 191.925L669.253 192.076L670.614 191.32L671.068 193.135L671.522 194.194L672.127 194.496L671.976 199.64L672.581 200.699L671.976 201.606L672.43 204.178L671.976 205.691L672.883 206.447L673.64 208.262L673.791 208.868L675.001 211.742V212.196L674.396 213.103L672.883 216.129L673.186 217.036L673.337 218.852L672.883 219.457L672.732 222.331L671.976 224.298L670.765 225.508L670.009 226.718L669.858 228.987L670.312 232.013L670.614 233.223L671.371 233.525L672.43 235.643L672.732 237.761L673.64 239.425L674.396 240.182L675.304 241.694L675.455 242.753V244.871L675.909 245.325L678.329 246.384L678.934 248.199L679.086 249.561L679.539 250.166L680.145 250.468L681.809 252.737L682.867 255.006L683.775 255.46L684.683 257.578L684.985 257.729L685.742 259.545L688.011 261.209L687.859 263.78L688.767 267.108V268.319L688.465 270.134L690.28 271.949L691.793 272.101L694.213 271.495L696.331 268.772L696.482 267.714L698.751 266.503L699.356 266.05L701.626 266.655L702.987 267.411L704.197 266.655L704.954 264.991L705.71 264.083L706.92 265.142L707.979 265.747L709.341 265.596L711.005 266.806L712.669 266.957L713.879 266.655L715.543 266.957L717.056 266.503L719.173 266.352L720.837 267.714L721.896 268.924L723.712 267.865L724.922 268.47L725.678 269.378L726.283 270.89L726.586 272.857L725.83 273.159V274.218L726.737 274.975L728.704 275.58L729.611 276.941L729.309 278L729.006 281.48L730.216 282.841L730.973 283.144L732.334 282.992L733.545 284.203V284.656L734.452 286.472V287.379L736.721 288.438L737.326 288.136L738.99 286.623L742.016 287.228L742.621 287.077L744.285 287.379L744.436 288.59L745.798 289.346L747.159 291.766L749.126 291.01L751.092 291.464L752.454 290.102L751.698 289.043V287.984L754.118 286.925L754.42 286.472L755.479 286.018L757.143 285.867L757.9 286.774L759.11 286.32L760.774 286.472L761.682 285.413L762.741 285.715L765.917 286.472L766.522 285.867L767.43 286.32L768.187 286.169L770.002 286.774L772.573 287.379L772.12 289.346V291.161L773.027 293.128L772.725 297.363L773.481 302.204L770.758 303.263L769.094 303.566L768.489 304.927L766.522 305.23L766.371 306.44L766.522 308.407L766.371 310.524L766.674 312.188L766.825 315.516L766.522 316.122L765.464 317.332L764.556 317.483L763.951 318.239L763.346 320.206V321.567L764.102 322.929V324.139L763.648 325.954L765.161 328.224L765.766 329.585L767.128 330.795H766.22L766.069 334.123L764.556 334.275L762.589 333.821L761.682 333.518L760.774 333.669L759.413 335.031V336.695L758.505 340.023L757.9 340.477L757.749 342.292L758.202 343.2L759.564 343.048L760.774 343.502L761.077 345.015L760.018 345.923H759.564L758.807 346.83L759.261 348.041L759.413 349.705L758.505 350.915L758.807 352.276L759.866 353.335L760.169 354.848L758.959 358.176L758.656 360.899L758.354 361.504H756.69L756.085 361.201L754.723 362.866L753.815 363.471L752.605 365.286L752.756 366.647L752.303 367.706H751.698V371.791L752 373.455L753.21 375.119L753.664 376.783L755.328 376.934L756.538 377.69L756.992 377.085L758.807 377.539L759.715 377.237L762.287 375.724L763.648 377.085L765.01 375.724L765.464 375.573L768.338 375.875L770.758 374.362L772.271 374.816L772.876 374.362L775.448 373.909L776.355 374.967L778.927 373.152L779.078 372.547L780.44 374.967L781.045 376.632L782.406 377.539L783.314 378.447L783.919 378.598L786.037 380.413L786.793 380.565L787.852 381.926L788.911 382.682L789.819 381.624V380.867L790.424 380.262L791.332 378.447L791.937 376.934L792.693 375.724L793.903 374.816H794.962L795.567 375.573L797.231 376.632L798.139 378.447L798.744 378.749L802.828 380.262L803.282 381.018L804.644 381.624L804.795 382.682L806.308 383.741L806.459 384.649L808.577 385.254L811.602 385.405L812.51 387.221H814.174L815.384 387.977H816.443L817.956 389.49L819.015 390.095H821.284L824.31 391.003L826.125 391.305L826.73 390.549L827.032 387.977L827.94 387.372L832.478 386.162L833.537 384.044L835.05 382.38L835.353 381.17L836.714 381.321L837.168 382.682V384.347L837.924 385.254L840.345 386.011L841.555 387.977L842.16 388.431L844.58 388.28L845.791 387.826L847.303 390.246L848.211 388.733L850.329 388.582L852.749 389.792V391.456L853.354 392.667L853.506 394.784L853.657 398.566L853.959 400.684L853.203 402.046L852.295 402.953L852.144 404.012L852.447 405.374L852.901 405.828L854.867 405.374L856.38 405.071L859.103 406.281L860.01 407.189L860.767 408.853L861.372 409.458L864.095 410.366L865.456 410.517L866.213 409.912L866.818 410.063L868.633 411.425L869.389 410.366L871.507 410.215L872.264 409.912L872.112 408.399L873.474 407.643L874.533 408.853L875.289 410.215L876.348 409.307L876.651 412.03L877.104 413.089L877.861 414.148L879.222 414.753L880.432 416.114L880.886 417.173L881.643 417.93L881.945 420.652L881.643 422.165L883.609 424.586L884.214 424.434L884.971 426.401L886.332 427.762L886.937 429.426L888.601 429.578L890.417 428.821H891.173L891.627 428.065L893.14 427.46L894.047 426.552L895.106 425.04L896.468 424.283L896.316 423.073L895.863 422.317L895.711 420.047L897.073 417.778L896.922 417.022H898.132L898.737 416.114L901.308 415.509L903.275 413.996L905.393 413.845L907.662 414.299L909.629 413.543L909.931 413.089L912.049 414.904L912.957 415.055L915.074 414.299L916.738 414.904L918.554 413.24L919.613 413.543L920.52 411.273L921.731 411.425L922.941 411.122L923.848 411.425L924.605 412.181L927.176 411.576L928.689 410.366L931.412 407.945L932.622 407.492L933.984 407.189L934.74 407.492V410.668L934.891 411.425L936.556 412.938L937.161 415.207L939.278 419.896L940.186 420.199L942.153 421.409L943.514 422.619L944.573 424.586V426.855L944.876 428.216L945.178 430.939L945.783 431.696L947.75 432.452L949.111 433.813L949.414 434.872L950.322 436.234L952.439 438.352L952.893 439.108L953.65 441.68L950.473 445.008L948.052 444.856L948.355 447.126L947.447 448.185L947.145 449.092L946.086 450.907L944.573 452.118L943.968 453.328L942.758 453.782L941.245 452.572L939.127 451.513L938.522 450.907L937.615 451.815L937.161 452.723L937.615 452.874L937.312 454.084L936.102 455.143L935.799 454.992L935.497 457.564V460.287L935.799 461.345L936.858 461.799L937.161 464.068L936.253 464.825L935.497 466.489L934.286 468.607L934.589 470.422L933.984 472.086H932.471L931.261 471.178L930.807 474.658L929.899 474.053L929.446 474.204L927.63 476.473L927.328 477.986L927.479 479.498L927.63 480.86L928.235 482.524L928.387 483.583L929.597 485.398L929.899 486.457L930.656 486.76L930.505 487.97L930.807 489.029L932.169 490.542L932.32 492.357L931.866 493.87L932.32 495.685L932.169 496.139L932.622 497.954L931.11 500.828L930.958 502.038L932.471 502.644L932.169 503.702L932.32 505.972L930.202 508.089L929.143 509.753L926.269 511.266L923.092 513.535L922.487 514.14L919.31 513.535L918.1 512.628L915.377 512.023L912.957 512.628L911.595 512.174L911.141 512.476L910.99 513.535L908.872 515.199L909.175 516.41L908.872 516.863L909.175 517.771L908.57 518.376H907.965L905.998 521.25L906.754 522.763L906.301 525.032L907.208 526.848L908.267 527.301L909.78 529.873L911.746 531.386L912.957 534.714L913.411 535.168L912.503 535.924L912.2 536.832L911.444 537.437L910.536 536.68L909.023 536.832L906.149 535.773L903.88 536.227L903.426 539.252L903.88 540.008L903.578 541.219L904.788 543.034L903.88 543.488L903.124 545.152L899.039 546.967H897.98L894.652 549.236L893.14 550.9L891.476 551.505L891.173 551.808L892.081 552.867L891.929 554.077L892.686 555.741L893.593 556.497L893.291 557.405L892.081 557.708L889.206 557.556L888.299 556.951L887.845 557.556L886.635 558.01L886.483 559.069L887.391 560.582L886.937 561.489L886.03 562.246L886.332 563.154L886.03 563.607L883.004 565.423L882.097 565.574L879.827 568.146L878.466 568.448L877.407 569.356L877.256 569.961L875.592 571.625L873.928 572.684L873.625 573.591L872.566 574.802H871.659L871.507 576.466L870.751 577.373L869.238 578.735L868.633 579.642L869.389 582.365L869.541 583.424L872.112 586.601L873.323 588.416L873.474 589.475L873.02 590.686L873.323 592.047L874.835 593.56L875.138 594.619L876.046 595.375L876.197 596.283L876.348 598.401L877.104 599.913L877.558 601.729L878.617 603.998L879.222 605.964L879.374 608.082L880.432 608.385L880.735 609.897L880.13 612.318L879.374 613.982L878.163 615.797L877.407 616.554L876.802 617.764L875.592 620.789L874.23 625.933L871.205 629.563L870.751 630.622L870.448 632.286L869.541 633.496L867.574 633.648L866.515 634.404L866.213 635.009L865.154 635.917H863.641L861.977 636.371L860.01 636.673L859.405 636.976L856.531 637.732L855.018 637.581L853.657 638.186L848.967 638.791L845.942 640.304L844.732 641.816L843.824 641.211L843.37 640.304L842.916 640.455L842.009 641.665L840.799 641.514L840.193 641.06L840.496 639.85L839.286 638.942L838.227 638.488L835.958 639.245L835.201 640.304L835.05 641.968L833.84 641.363L832.176 640.152L832.327 639.094L832.025 637.883L830.966 638.186L830.058 636.673L829.755 635.16L828.999 634.404L828.545 636.068L827.94 635.917L826.73 637.127V638.488H825.52L824.612 639.094L825.52 640.909L825.671 641.816L826.276 643.934L825.822 644.842L825.066 645.75L824.612 645.901L825.217 648.17L824.007 648.473L823.099 650.137V651.196L823.402 651.952L822.797 652.254L821.435 654.372L820.83 656.188L821.435 657.095V658.154L820.83 658.457L821.435 660.272V661.785L821.738 662.239L821.284 662.995L821.133 664.659L820.376 665.415L820.074 666.323L820.679 667.685L822.04 667.836L824.31 669.954L825.52 669.802L826.73 670.861L825.066 671.315L824.763 671.769L826.427 672.677L827.335 672.223L827.032 672.828L825.974 674.189L825.822 675.248L825.52 677.215L825.217 677.669L826.276 678.274L826.579 678.879L828.394 677.669L828.697 677.971L830.058 677.517L830.512 676.156L831.268 675.702L832.176 676.61L833.689 675.248L835.201 675.4L835.504 674.492L836.26 675.097L836.714 676.458L837.622 676.912L837.773 677.669L838.832 678.425L838.227 679.333L838.681 679.635V682.358L837.773 683.266L837.622 684.022L838.983 684.627L838.681 685.232L837.168 685.535L836.714 685.989L837.773 686.896L838.983 687.502L839.74 688.56L840.95 689.468L842.614 691.737L848.211 696.729V698.091L847.303 698.847L848.211 700.662L847.908 702.024L848.816 703.083V704.293L850.631 705.503L851.236 707.772L851.085 709.134L849.724 710.495L850.026 710.949L849.27 712.311L848.362 712.916L848.211 713.521L847.455 713.067L847.001 714.428L844.732 715.639L844.278 717.151L840.95 719.269L840.345 719.118L837.924 719.42L835.504 717.756L835.806 718.362L834.748 719.42H833.083L832.478 718.059L831.419 718.21L830.966 717.303L830.058 717.454L828.697 717.151L828.091 717.454L828.243 718.967L827.335 718.664L825.671 719.269L824.915 720.328L824.461 721.841L823.099 722.9L823.402 723.354L822.192 724.866L822.797 725.471L821.889 726.228L819.62 725.925L816.594 725.774L816.292 725.018L816.594 723.202H816.141L816.292 721.992L815.536 719.874L815.989 718.815V717.605L815.384 716.395L814.779 713.218L815.384 712.311L815.989 712.462L815.536 711.252L814.628 710.647L812.964 710.344L812.813 709.436L811.451 708.831L811.3 707.167L812.056 706.713L811.451 705.503L809.938 705.352L809.333 704.747L808.274 705.201L807.367 706.108L806.308 705.049L805.551 703.99H804.795L804.19 703.385V702.78L803.282 703.234L802.375 703.083L801.618 703.688L799.047 703.234L795.567 701.268L793.147 699.452L790.878 698.998L788.609 699.301L788.457 700.209L784.978 701.268H782.558L782.255 700.965L780.137 701.116L779.532 699.755H779.078L777.112 700.209L776.658 700.965L777.112 702.175L775.599 702.932L774.994 703.537L775.599 704.596L774.843 706.26L775.448 707.47V710.344L775.145 711.403L773.481 712.462L771.212 713.218L771.666 716.395L772.271 718.059V719.874L773.33 721.841L774.843 723.051L776.053 725.32L776.961 725.925L776.053 726.984L776.658 727.741L775.902 727.892L774.994 726.984L773.027 727.741L772.725 728.497L771.212 728.346L768.338 729.253L766.976 726.833L765.766 725.925V725.018H764.859L764.405 724.261L764.859 724.11L764.102 723.051L763.8 723.354L763.043 722.446L762.589 723.051L762.741 723.807L761.53 723.959L760.32 723.354L760.018 722.597L759.261 721.841L757.9 721.538L756.538 721.992L755.933 720.782L755.177 720.328L753.513 720.479L753.059 721.538L752.756 721.387L749.882 722.295V722.749L748.672 722.9L747.613 721.992L746.554 722.446V723.051L745.798 722.749L745.495 723.959L746.252 725.018L747.311 725.623L746.403 726.228L746.554 726.682L744.89 727.589L744.134 728.497L742.924 728.043L742.772 728.648L742.016 729.405L741.26 731.069L741.713 732.884L740.806 733.187L740.352 734.397L739.142 735.304L740.049 736.363L740.201 737.422L738.385 738.481L737.932 739.389L737.326 739.691L736.721 739.237L734.906 738.784L733.393 739.54L732.334 740.599L731.881 741.658L730.973 742.566V744.23H730.519L729.611 746.65L728.552 747.406L728.401 748.617L726.435 748.768L724.771 749.524L723.863 751.339L722.955 751.491L722.199 749.524L721.443 749.222L721.896 750.734L720.686 750.886V751.642L719.93 752.55L719.476 753.76V755.121L720.081 757.542L721.291 759.055L721.594 760.567L720.989 762.383L720.232 762.988L720.081 764.349L719.325 765.559H718.72L718.568 766.77L717.812 767.98L718.266 768.887L716.299 771.157H715.24L714.786 772.367H714.03L712.669 772.972L714.03 774.182L712.517 775.241L713.122 779.023L714.03 780.233L714.333 780.838L713.879 782.048L711.912 783.864L711.458 785.981L709.643 787.948L708.584 789.612V791.427L708.887 792.184L707.525 793.394L707.071 793.243L704.651 794.755L705.256 795.663L704.651 796.571L706.013 798.083L706.769 799.596L705.71 799.899L706.618 801.714L708.584 803.681L708.887 804.286L708.735 805.345L709.341 806.404L709.492 808.068L709.794 808.824H710.551L711.307 809.429L711.912 811.244L710.853 812.606L711.458 813.816L713.274 815.48L713.879 817.144L714.484 817.598L713.274 818.203L712.215 817.901L711.156 818.506L707.828 818.959L706.466 819.413L705.256 820.17V819.111L704.651 818.959L703.592 817.295L702.079 814.572L700.718 815.026L701.172 815.934L699.659 817.295L699.961 817.598L699.508 818.052L699.961 818.657L699.054 819.716L697.541 820.472L694.667 822.287L694.062 821.985L693.608 822.59L692.7 822.439L692.247 823.346L691.036 824.254L689.372 825.918L687.406 826.826L686.044 827.128L681.657 827.582L680.901 827.885L678.329 828.49L675.758 828.187L675.304 827.733L672.278 827.431L670.765 826.674L669.404 826.372L669.555 824.405L668.496 824.557L667.286 825.464L666.53 825.162L666.076 826.069L664.866 826.221L663.807 827.582L663.202 825.918L663.656 824.859L663.504 823.498L662.597 822.439L662.748 821.985L661.992 821.531L660.933 820.472L660.781 819.867L659.722 817.749L658.815 815.783L659.722 814.572L660.025 813.06L659.874 812.606L660.176 810.034L660.479 809.278V808.068L660.933 806.555L660.781 805.345L660.176 804.134L660.63 803.378L660.176 802.622L659.722 800.806L659.117 800.05L658.815 799.142L657.756 798.991L657.907 797.932L656.848 797.478L656.546 796.268L656.848 795.209L655.335 794.302V792.789L654.882 792.032L653.974 792.184V790.822L652.31 790.217L652.007 788.251L650.495 787.797L649.89 787.192L649.738 785.83L648.377 784.923L647.923 783.561L648.074 783.259L647.62 781.897L646.864 781.594L645.2 780.233V779.477H644.292L645.503 779.174L644.746 778.266L642.477 777.208L642.326 776.602L641.267 774.938L641.418 774.333L640.964 772.972L640.51 772.367L639.3 769.644L638.695 768.585L638.544 767.828H637.939L637.031 766.013L636.577 764.198L637.636 763.29L636.426 762.231L635.821 761.324L635.972 760.416L634.308 758.752L633.249 756.785L632.644 756.332L630.829 755.575L630.073 755.878L628.409 755.726L628.106 755.575L625.837 754.819L622.357 754.214H621.299L619.029 753.306L617.063 753.004L614.189 752.701L612.071 751.491L611.012 749.675H609.499L607.23 750.281L606.02 750.129L604.356 750.432L603.146 750.281L602.389 751.339L600.876 752.096L599.818 752.55L599.515 753.457L598.607 754.365L598.305 756.18L597.397 756.937L596.641 758.298L595.279 758.601L594.674 759.508L593.918 759.962L592.708 761.324L591.195 762.08L588.774 762.685L588.472 762.988L585.144 763.744L584.387 764.349L583.934 765.559L582.875 766.467L581.513 767.072L579.244 770.854L578.336 771.308L576.824 774.333L576.067 775.544L575.462 777.208L574.252 778.115H572.891L572.134 777.51L571.983 778.418L571.378 779.325L569.26 780.989L567.445 782.351L566.234 783.864L564.57 784.317L563.814 786.889L562.604 787.343H561.242L559.881 788.099L556.25 788.553L554.738 788.251L553.527 789.915L552.317 790.52L550.956 791.73L549.746 792.184L547.93 792.032L547.476 792.789L546.266 793.091L545.51 792.94L545.056 793.394L542.938 793.999L541.123 796.268H540.366L539.61 795.663L538.249 796.117L536.131 796.268L534.921 797.781L533.862 798.083H531.744L531.29 797.781L530.382 798.235L527.811 798.083L526.752 797.025H525.239L523.726 797.63L521.911 796.873L520.398 797.478L519.642 798.537L517.978 800.05L517.373 800.353L516.465 801.411L515.104 802.017L514.196 802.773L513.44 804.134L512.381 804.588H511.019L509.204 803.529L508.901 804.286L508.75 805.95L507.389 807.311L507.237 808.673L507.389 810.488L506.632 811.698L506.33 812.606L505.271 813.06L503.909 813.967L501.64 816.993L501.489 817.447L498.161 819.867L497.556 820.775L496.951 822.287L495.287 823.8L494.681 825.01L492.564 825.767L491.505 825.313L490.748 825.918L489.841 825.464L488.933 825.918H487.269L485.151 825.162H484.243L483.336 824.708H480.008L478.798 823.346L474.259 824.405L472.595 823.8L470.024 824.405L469.419 824.859L467.906 827.582L466.393 831.515L465.334 832.725L461.098 833.482L459.132 833.633L456.863 834.238L456.258 834.692L452.93 835.448L452.022 835.297L450.509 835.448L449.148 835.902L447.635 834.843L446.879 835.146L444.156 834.541L443.248 834.843L440.071 837.869L439.617 840.743L439.769 841.651L440.676 842.558L439.315 843.315L437.953 844.979L436.894 846.189V847.55L435.684 848.004L433.113 851.03L432.054 851.937L431.297 852.24L429.179 853.904L426.456 855.417L427.062 859.047L428.877 861.165L430.087 861.014L429.482 862.073L429.179 864.039L428.12 865.401L427.213 865.855L424.49 869.334L423.885 871.603L422.977 872.208L422.372 873.116L421.464 873.872V875.385L422.069 875.839L422.221 877.049L421.918 878.713L422.675 879.318L422.523 881.133L423.28 881.587L422.977 883.705L422.675 885.823L422.221 887.033L422.372 889L421.767 891.118L422.069 891.723L421.918 893.538L421.313 895.202L421.464 896.563L421.313 898.076L421.464 899.74L421.313 901.707L421.918 903.976L422.826 905.035L424.49 905.942L425.246 907.607L426.154 908.817L426.305 909.573L427.667 912.145L428.574 913.204L429.331 914.716L429.784 916.532L430.995 917.742V919.86L430.692 921.221L430.541 923.188L430.39 924.095L427.969 925.154L426.305 926.365L425.7 927.726L424.792 928.634L426.456 931.054L426.608 931.811L428.574 934.08V934.836L429.179 936.197L429.936 936.803L431.146 939.072L431.751 940.736L432.356 941.038L432.81 941.946L434.02 942.4L433.869 942.702L432.659 943.156L433.566 946.333L435.836 947.997L433.869 949.358L432.356 950.115L430.843 952.384L429.179 953.14L426.91 955.258L425.851 956.317L425.095 956.62L424.187 958.737V959.796L423.128 961.914L422.977 963.276L422.372 964.335L420.557 964.486L418.439 965.242H417.682L415.867 968.722V969.781L415.413 971.142L415.262 972.352L415.565 973.411L414.96 976.588L410.875 985.362L399.681 985.059L398.622 985.816H397.714L397.26 986.27L395.899 986.421L394.991 987.328L393.327 988.387L390.756 988.841L388.94 989.9L387.73 989.749L387.428 988.539L387.125 988.236V987.328L385.461 982.488L381.679 979.008L377.746 977.798L370.333 978.252L367.157 982.185L366.098 983.395L364.131 985.816L362.013 987.48L358.534 988.539L356.416 989.749H355.206L352.937 987.933L347.642 982.941L345.827 980.975L344.012 978.252L343.255 976.89L342.65 976.437L342.348 971.445L339.927 967.965L338.414 962.973L338.112 961.612L336.902 959.191L336.145 956.771L334.481 952.233L333.422 949.207L333.12 948.602L334.481 949.358L335.238 949.207L337.053 949.358L338.112 948.753L339.322 946.787L340.23 944.82L340.532 942.4L340.835 942.248L345.222 940.584L345.676 940.736L348.247 939.677L351.878 936.197L355.357 934.08L355.811 932.869L356.114 929.844L356.416 929.39L356.719 926.062L357.626 921.978L358.534 920.919L359.139 918.952L358.837 916.229L357.929 912.901V909.724L356.567 906.85L354.752 905.942L352.786 903.825L352.483 902.463L351.575 902.161L351.424 900.497L351.575 899.135L350.668 897.925L350.365 896.866L347.642 884.915L346.432 880.226L345.373 879.016L344.163 878.411L343.407 869.788V869.031L342.65 867.216L343.407 865.552L342.953 864.039L342.801 862.678L341.591 861.619L339.322 859.047L337.961 857.686L337.053 856.627L333.574 852.694L333.271 852.089L330.094 851.483L330.246 850.273L328.128 846.945L327.523 845.584L325.707 842.71L324.043 840.44L324.648 837.869L323.287 836.659L322.379 834.995L323.438 832.574L324.951 830.456L326.312 828.641L326.464 827.582L328.884 825.01L329.187 824.405L327.371 820.472L325.707 817.447L326.161 815.48L327.22 813.816L327.523 811.85L328.582 811.396L328.733 810.185L329.338 808.673L328.582 807.463V805.647L328.43 805.042L325.707 800.201L323.287 796.722L322.682 795.663L323.59 793.091L324.346 792.184L324.497 791.579L323.892 790.368L322.833 789.763L320.715 787.04L319.505 786.133L318.597 784.923L318.295 784.015L316.48 781.443L318.446 778.872L317.539 778.569L317.085 777.359L316.328 777.661L316.026 775.09L316.328 773.728L315.118 773.123L314.664 772.518L312.849 769.039L310.58 763.895L308.311 753.76L306.798 746.953L301.503 737.422L299.083 737.271L295.604 734.851L294.999 733.792L295.15 732.733L294.696 731.674L293.486 727.589L293.032 726.379L292.427 725.471L291.217 724.715L289.401 723.807L288.796 721.992L287.737 721.085L285.317 719.572L282.594 717.303L281.989 714.882L281.838 713.521L279.115 711.403L278.51 711.1L275.938 709.134L274.879 706.713L273.82 706.26L272.307 704.444L269.887 703.688L268.223 703.385L267.164 702.629L265.954 702.478L264.744 700.814H264.29L260.962 700.965L259.903 700.662H258.087L255.97 700.057V699.15L255.213 697.183L253.852 697.486L250.07 696.729L247.801 695.67H245.683L244.321 694.158L242.657 690.83L242.506 690.073L241.75 687.804L240.691 686.14L238.422 686.291L237.212 685.384L236.455 684.476L234.942 683.871L230.102 681.148L227.681 681.451L225.563 680.845L224.202 679.938L223.899 679.333L219.512 678.425L220.117 675.551V674.492L219.664 673.282L218.151 672.223L216.941 670.71L216.487 669.046L215.428 667.987L212.705 667.079L211.949 666.02H210.133H206.957L204.839 667.079L203.023 669.954L202.418 670.256L199.998 670.71L199.242 671.315L198.636 672.223L197.426 672.828L197.124 674.038L196.67 674.643L195.006 674.946L192.585 672.525L190.921 671.466L189.106 670.861L188.501 669.046L187.745 668.895L185.627 669.046L183.811 669.954L182.147 670.256L179.878 671.013H178.214L177.76 671.769L176.55 671.618L175.945 671.769L174.432 671.618L173.071 672.374H171.407L170.197 672.071L169.44 669.651L168.987 669.349L165.81 669.651L164.448 668.592L162.633 666.323L162.936 665.415L163.692 664.356L165.507 662.541L164.448 659.213L163.087 656.641L162.028 655.28L161.271 654.675L159.607 652.557L161.423 649.985L162.028 649.531L163.692 649.078L163.843 646.96L164.448 643.632L164.6 642.422L164.146 639.699L164.751 638.64L164.6 637.43L162.936 635.312L161.725 634.253L162.633 632.891L161.574 629.714L160.969 628.958L159.154 629.109L159.305 627.748L158.7 626.689L156.733 625.328L155.22 624.42L152.044 620.789L151.136 620.638L149.623 619.579L147.657 617.612L145.993 617.159L145.085 615.343L145.388 614.587L146.447 613.982L147.052 613.074L146.9 611.713L148.111 609.595L149.472 608.536L151.59 607.628L154.162 606.267L154.767 603.241L155.22 602.788L154.313 600.67L154.767 599.913L154.464 599.459L153.556 599.308L152.649 598.098L152.346 597.039L152.498 596.131L152.044 594.77L151.741 592.803L150.682 591.291L148.716 589.778L147.959 590.08L146.9 588.87L146.295 587.206L145.236 587.055L145.085 585.088L143.118 584.181L142.665 583.122L141.152 582.668L139.488 580.853L138.429 580.55L137.521 579.642L137.068 576.617L137.824 576.163L138.58 574.953L139.488 572.835L138.732 571.474L137.521 570.869L137.219 569.658L135.706 567.389L134.798 567.087L132.227 565.271L132.378 564.212L131.773 562.246L131.017 560.582L131.47 558.313L131.168 556.497L130.865 555.892L129.806 555.59L126.478 551.657L124.814 550.446L123.755 548.329V547.27L124.814 546.211V544.244L124.512 542.731L123.907 542.126L121.486 541.219L120.579 540.462L118.763 540.008L117.402 538.344L116.192 537.739L114.981 536.529L113.015 536.227L111.048 535.319L109.687 534.109L106.964 533.05L104.846 532.293L103.787 532.142L101.518 531.234L100.913 530.176L101.064 528.965L100.005 528.512L98.795 528.36L97.1309 527.755L96.6771 527.15L95.9207 526.999L93.8029 525.789L92.744 524.881L91.8363 525.183L90.021 524.125L88.9621 522.612L88.357 519.284L87.7519 517.771L86.5417 516.561L85.4828 516.107L84.5751 515.199L84.7264 513.081L84.2726 512.628L83.97 511.417L83.3649 510.812L82.1547 510.51L81.0958 509.753L79.1292 508.089L78.5241 507.938L79.1292 507.182L78.9779 506.123L80.3394 502.492L81.8522 499.467L81.7009 497.651L83.6675 495.382L83.97 494.928L83.8187 492.811L83.3649 492.054V490.542L82.4573 489.634V487.667L82.7598 486.155L81.5496 484.188L80.9445 483.734L80.0369 481.465L79.583 480.557L79.1292 479.045L77.7677 477.834L77.0114 476.17L76.7088 473.901L75.9524 472.691V472.086L77.1626 469.514L77.6165 466.943L77.4652 465.732V462.858L78.2216 462.102L78.8267 460.74L79.4318 460.438L80.7932 458.774L82.6085 458.017L83.8187 456.958L84.7264 455.748L85.0289 454.236L85.7853 453.63L86.0879 451.664L86.3904 451.361L86.9955 449.395L89.1134 446.974L92.5927 444.856L94.2567 443.949L94.8618 443.041L95.0131 441.982L95.9207 438.805L87.1468 431.242L84.1213 429.578L81.3983 421.711L73.6833 421.56L71.4142 418.535L69.1451 418.837L67.6323 418.383H66.4221L66.1196 418.081L65.6657 415.963L64.0017 414.45L63.6992 413.391L62.6402 412.635L62.489 411.727L61.5813 410.82L60.8249 410.517L57.0431 410.215L55.6816 409.761L55.8329 409.458L55.0765 406.584L54.9252 403.256L56.1354 399.928H55.2278L52.8074 401.138L50.6895 400.987L50.0844 401.289L46.9076 400.987L47.2102 399.02L48.2691 398.415L49.328 398.869L50.0844 398.566L50.9921 397.659L52.6561 396.902L53.1099 395.39L54.1688 395.087L54.9252 394.331L55.2278 393.423H54.0176L52.9586 392.969L51.8997 392.213H51.1433L50.0844 391.91L49.328 391.154L48.4204 391.003L46.6051 388.431L46.3025 387.372L46.9076 385.254L47.0589 383.288L46.6051 381.926L46.3025 379.96L46 379.506L46.7564 377.539L47.2102 376.783H48.5717L49.1768 376.329L49.0255 374.06L49.4793 373.001L50.9921 370.732L50.0844 367.706L50.387 365.891L51.2946 364.53L50.9921 363.773L51.4459 362.412L52.051 362.563L54.1688 361.958L55.379 362.714L55.8329 361.353V359.84L58.102 358.63L58.5558 357.571L60.9762 355.907H61.8839L62.9428 356.663L63.6992 356.209L64.3043 355.15L66.4221 353.789L69.4476 352.73H70.0527L72.0193 353.789L73.0782 354.999L74.2884 355.604H80.1881L82.1547 356.058L83.5162 355.756L84.4238 354.848L86.9955 354.394H88.9621L92.2901 356.966L91.8363 358.932L92.4414 359.235L92.744 359.991L96.2233 362.412L96.8284 362.563L97.5848 363.471L99.4001 363.773L99.8539 364.378L101.669 364.076L103.484 364.378L104.543 365.135L107.418 366.345L110.141 368.311L110.897 368.009L111.199 368.917L113.771 369.975L114.981 363.622L118.007 360.143L119.822 361.958L123.453 364.378L124.663 364.681L125.722 366.345L127.083 367.404V368.463L127.688 369.219L130.714 369.975L131.017 370.581L132.227 370.429L135.706 375.421L136.614 376.329L137.975 373.909L138.883 372.85L139.639 373.001L141.908 372.698L143.118 373.303L144.177 373.455L145.539 374.362L146.295 375.119L147.657 375.724L147.808 373.909L148.867 373.606L150.682 372.093L152.044 371.186L153.859 370.883L158.095 371.337L158.7 371.034L159.002 370.429L159.607 368.463L159.91 368.311L162.028 368.16L164.6 367.252L166.869 366.647L168.835 361.353L169.44 359.084L170.953 358.327L171.558 357.117L171.861 355.907L173.222 355.15L174.735 353.486L174.886 352.428L173.525 345.62L173.071 339.267L173.222 335.182L170.953 334.88L169.289 333.064L168.533 331.249L167.928 330.644L168.381 330.039L169.138 328.072L170.802 327.618L171.558 327.921L174.735 326.862L175.491 325.652L176.399 325.501L178.819 324.442L179.878 322.626L179.424 321.87L179.727 321.265L179.424 320.357L181.24 317.937L182.299 316.878L183.206 317.483L184.719 319.903L188.35 320.509L189.106 320.357L188.955 318.693L189.862 315.063L190.468 314.609L191.073 313.096L193.493 312.945L195.157 313.55L197.577 313.247L200.149 313.096L200.452 314.155V315.97L200.603 317.786L202.267 318.542L202.418 319.752L206.503 314.911L208.318 314.609L210.436 313.096L212.554 312.945L213.461 314.306L214.52 315.063L217.395 315.516L219.21 314.911L220.874 315.668Z" fill="black"/>
<circle cx="630" cy="442" fill="#5CE50D"/>
<circle cx="491" cy="188" fill="#E52A0D"/>
<circle cx="242" cy="599" fill="#E52A0D"/>
<circle cx="500" cy="750" fill="#E52A0D"/>
</svg>
