<svg width="1000" height="1000" viewBox="0 0 1000 1000" fill="none" xmlns="http://www.w3.org/2000/svg">
<rect width="1000" height="1000" />
<path d="M659.929 94.3774C618.335 99.4937 584.132 103.852 583.753 104.136C583.469 104.515 584.322 106.6 585.554 108.873C587.827 112.663 587.922 113.421 587.164 119.769L586.406 126.591L576.648 138.908C567.647 150.182 565.752 151.983 554.003 160.415C541.781 169.226 539.792 170.837 539.792 172.353C539.792 172.732 542.065 174.722 544.908 176.806L550.024 180.596L554.382 193.765C558.077 204.756 558.646 207.409 557.793 209.493C556.562 212.904 556.372 212.62 560.067 213.851L563.288 214.894L561.015 221.62C559.688 225.505 558.741 230.621 558.741 233.558C558.741 236.401 557.793 242.275 556.656 246.633C554.856 253.36 554.761 255.066 555.709 257.718C556.372 259.424 556.846 261.698 556.846 262.74C556.846 263.687 557.698 265.772 558.646 267.193C560.067 269.372 560.257 270.604 559.499 273.73C558.835 276.668 559.025 278.089 560.162 279.794C560.92 281.026 561.583 283.3 561.583 284.816C561.583 286.426 562.246 288.037 563.099 288.511C564.52 289.269 564.52 289.648 563.004 292.49C562.152 294.195 560.636 295.711 559.688 295.996C556.751 296.754 551.161 306.133 551.161 310.302C551.161 312.766 550.498 314.566 549.266 315.703C547.94 316.934 547.371 318.64 547.371 321.766C547.371 328.02 542.729 348.106 540.076 353.411C538.844 355.969 537.518 360.043 537.233 362.507C536.76 366.581 536.949 367.244 539.223 368.95C541.213 370.56 541.687 371.697 541.687 375.203C541.687 377.95 542.255 379.845 543.202 380.698C544.624 381.835 544.529 382.119 542.729 383.54C540.265 385.53 540.929 387.709 544.624 389.604C546.045 390.362 547.466 391.878 547.845 392.92C548.319 394.436 549.266 394.815 552.582 394.815C556.277 394.815 556.846 395.194 558.646 398.131C560.162 400.689 561.204 401.447 563.288 401.447C566.889 401.447 568.12 402.584 573.426 411.111C576.742 416.417 578.542 418.501 579.964 418.501C581.385 418.596 583.469 420.965 587.638 427.597L593.228 436.598L602.324 435.934C611.419 435.366 611.419 435.366 613.03 437.829C614.167 439.535 615.493 440.293 617.483 440.293C618.999 440.293 621.746 441.24 623.641 442.282L627.052 444.367L630.368 441.145L633.684 437.924L631.221 437.166C629.136 436.408 628.852 435.84 628.852 432.145C628.852 428.45 629.136 427.786 631.505 426.839C632.926 426.27 635.958 425.702 638.327 425.607C645.054 425.323 648.37 424.281 650.644 421.723C651.875 420.491 653.676 419.449 654.718 419.449C656.518 419.449 656.613 420.017 655.949 440.956C655.665 452.894 655.097 476.58 654.812 493.634L654.149 524.806L651.97 525.753C648.37 527.458 643.254 525.848 641.169 522.437L639.369 519.5L642.211 514.573L645.054 509.552L640.98 508.509C638.706 507.941 636.242 507.278 635.484 506.993C634.632 506.804 631.979 508.32 629.61 510.31C626.863 512.583 620.988 515.615 614.261 518.268C603.555 522.626 603.46 522.626 599.671 521.205C596.165 519.784 595.691 519.784 591.523 521.584L587.164 523.574L583.848 519.216C581.101 515.521 580.532 514.099 580.532 510.025C580.532 505.762 580.248 504.909 577.5 502.635C574.563 500.267 574.374 499.698 574.089 493.066L573.71 485.96L566.699 479.044L559.688 472.127L556.846 474.875C554.098 477.528 554.003 477.528 552.108 475.822C551.066 474.875 550.214 473.643 550.214 473.169C550.214 472.601 548.982 470.232 547.466 467.864C545.097 464.169 544.813 462.937 545.382 459.716C545.95 456.494 545.666 455.357 543.392 451.946C541.118 448.63 540.739 447.02 540.739 441.619V435.271L532.875 435.934C528.138 436.313 523.969 436.219 522.169 435.555C520.085 434.798 518.474 434.798 516.484 435.555C514.116 436.503 513.547 436.313 512.221 434.703C511.179 433.471 509.473 432.713 507.768 432.713C502.936 432.713 499.999 431.102 499.999 428.544C499.999 426.744 499.051 425.891 494.788 424.186C489.956 422.196 489.387 422.196 487.871 423.523C486.355 424.849 485.408 424.944 480.292 423.997C475.744 423.144 474.417 422.481 474.417 421.249C474.417 420.301 472.428 418.407 469.68 416.701C467.027 415.091 464.943 413.101 464.943 412.248C464.943 411.395 463.711 409.122 462.1 407.132C460.111 404.574 459.163 402.11 458.69 398.321C458.026 393.015 458.026 392.92 450.731 387.235L443.436 381.456L442.299 373.308C441.73 368.855 441.162 365.065 440.972 364.875C440.783 364.686 437.277 364.875 433.203 365.254L425.623 365.918L425.908 369.707C426.097 372.55 425.623 374.255 424.108 376.15C422.402 378.424 422.213 379.561 422.686 383.351L423.255 387.899L418.328 392.067C409.801 399.173 410.464 398.889 407.432 397.373C405.064 396.047 404.495 396.141 401.369 397.752L397.863 399.458L386.873 395.573L375.882 391.688L372.187 393.299C368.776 394.91 368.303 394.91 362.713 393.299C357.596 391.878 356.365 391.878 353.049 392.92C347.364 394.815 344.427 393.489 343.384 388.562C342.816 385.246 342.153 384.488 339.595 383.825C337.321 383.161 336.468 382.309 336.279 380.414C335.9 377.382 333.626 376.624 330.404 378.519C328.13 379.75 327.467 379.561 321.498 376.245C315.15 372.834 314.961 372.739 310.413 373.876C304.918 375.297 302.928 374.35 302.928 370.181C302.928 367.907 302.076 367.055 296.959 364.212C292.506 361.654 290.611 359.949 289.285 357.296C287.864 354.169 287.769 353.601 289.001 352.653C290.232 351.801 290.232 350.379 289.38 343.368C288.622 336.831 288.716 334.273 289.664 331.241C290.801 327.925 290.801 327.262 289.569 326.504C287.579 325.272 286.158 325.461 281.326 327.925C278.105 329.535 273.841 330.483 265.978 331.336C259.63 331.999 253.661 333.136 251.766 334.178C249.966 335.031 246.46 336.073 244.091 336.452C240.302 337.02 238.88 337.873 234.333 342.705C231.206 345.926 227.511 348.769 225.616 349.337C222.584 350.379 221.731 350.285 218.51 348.485C216.141 347.158 214.057 346.59 212.825 346.969C210.173 347.821 203.446 344.789 204.109 343.179C204.298 342.421 206.193 341.663 208.183 341.284C211.309 340.715 211.973 340.242 213.204 336.736C214.057 334.462 214.626 329.63 214.626 325.367V318.071L211.025 315.229C208.751 313.429 206.288 312.387 204.298 312.292C197.761 312.102 196.434 311.25 195.676 306.797C194.824 301.586 192.645 299.122 188.95 299.122C186.581 299.122 186.297 299.312 187.339 300.543C188.286 301.68 188.286 302.817 187.339 306.228C186.391 309.449 186.391 311.439 187.244 314.471C187.813 316.745 188.76 323.566 189.234 329.63L190.276 340.81L184.781 351.137L179.286 361.465L181.559 366.581C182.886 369.328 183.833 372.834 183.739 374.445C183.644 375.961 183.265 383.54 182.981 391.215L182.507 405.237L186.676 414.143L190.939 423.049L186.77 427.786C184.212 430.723 181.18 435.84 179.096 440.766L175.685 449.009L176.822 455.831C178.528 465.4 178.528 465.4 182.128 467.39C184.97 468.906 185.444 469.569 185.444 472.696V476.296L162.516 475.822C149.82 475.538 111.732 475.159 77.8133 474.875L16.0393 474.401L15.4708 476.485C15.1866 477.717 14.9023 540.439 14.9023 615.951V753.142L18.9764 757.595C22.0082 761.006 23.4294 763.848 25.1348 769.343L27.2192 776.639L34.7041 780.334C42.4732 784.313 43.3259 785.45 43.3259 792.461C43.3259 794.167 48.0632 799.662 61.9908 814.158C80.2766 833.107 81.3188 833.96 103.489 849.782L126.133 866.078L139.492 863.331C146.788 861.91 158.536 858.972 165.547 856.983C172.559 854.993 179.665 853.383 181.37 853.383C183.075 853.383 189.234 855.088 195.108 857.172C205.909 861.057 215.857 863.141 229.027 864.373C232.911 864.657 238.407 865.794 241.06 866.836C248.355 869.489 256.882 875.553 260.672 880.669C262.756 883.512 266.925 887.017 272.325 890.523L280.758 895.923L293.075 896.586C308.992 897.344 319.035 900.187 323.867 905.113L327.088 908.524L334.194 908.051C338.079 907.766 343.195 906.819 345.564 905.966C348.88 904.734 351.627 904.545 357.881 905.019C372.377 906.061 377.019 907.198 379.767 910.514C382.135 913.356 382.514 913.451 391.326 913.83C399.379 914.209 400.8 914.02 403.643 912.219C405.443 911.177 407.527 910.23 408.285 910.23C410.464 910.23 418.612 905.587 422.118 902.271C423.823 900.66 426.76 896.302 428.561 892.512C431.403 886.543 433.014 884.648 441.067 877.732C446.088 873.469 453.194 867.594 456.7 864.752C463.806 859.067 466.08 855.941 467.785 849.593C468.638 846.656 471.385 842.487 477.26 835.286L485.692 825.243L497.346 819.937C508.715 814.726 509.094 814.442 515.726 806.768L522.358 798.904L544.055 791.324L565.847 783.65L567.457 779.292C568.31 776.923 569.257 771.238 569.447 766.596C569.731 761.953 570.584 756.553 571.437 754.658C572.289 752.668 572.952 749.542 572.952 747.741C572.952 743.004 577.879 736.846 581.669 736.846C584.89 736.846 592.944 732.108 598.249 727.087C602.513 723.013 608.671 720.644 623.925 716.854C628.284 715.812 633.021 714.486 634.347 714.012C635.769 713.444 640.506 712.212 644.864 711.264C652.728 709.559 652.918 709.559 657.655 711.359C661.634 712.78 663.813 713.065 669.782 712.591C673.762 712.212 677.836 712.307 678.783 712.686C679.73 713.159 684.373 713.538 689.016 713.538L697.637 713.633L697.827 702.074L698.111 690.515L693.753 684.262C688.731 676.967 688.352 675.545 688.731 668.25L689.016 662.755L712.418 652.996C735.63 643.332 736.104 643.143 763.485 636.984C790.962 630.731 791.056 630.731 795.794 626.752C799.773 623.436 801.573 622.678 807.542 621.635C812.469 620.783 816.448 619.267 820.901 616.709C826.681 613.298 832.744 611.592 882.296 598.991C912.52 591.317 937.438 584.969 937.533 584.779C937.722 584.59 936.68 582.979 935.259 581.179C932.985 578.242 932.227 577.863 929.29 578.337C927.395 578.621 925.026 579.663 923.984 580.611C921.9 582.411 918.773 581.558 918.773 579.189C918.773 578.431 917.257 575.4 915.457 572.463C913.657 569.431 911.951 566.209 911.667 565.262C911.288 564.22 909.677 563.462 906.93 562.988C904.087 562.609 902.287 561.756 901.719 560.525C901.15 559.577 901.056 558.724 901.435 558.724C901.814 558.63 903.235 557.777 904.466 556.735L906.74 554.84L904.182 552.187C902.761 550.671 900.298 549.25 898.782 548.871C896.792 548.492 896.034 547.829 896.034 546.408C896.034 545.365 896.697 544.513 897.455 544.513C900.203 544.513 906.172 540.818 907.877 538.165C908.825 536.744 910.53 534.47 911.667 533.143C912.899 531.817 914.13 529.259 914.509 527.458C915.362 523.195 919.341 515.426 920.857 514.952C921.71 514.668 921.615 513.72 920.478 510.973C919.247 507.657 919.247 506.804 920.857 501.119C921.805 497.614 922.563 492.782 922.563 490.413C922.563 486.813 922.184 485.865 920.668 485.486C919.152 485.107 918.773 484.16 918.773 480.939C918.773 477.812 919.626 475.538 922.658 470.896C926.353 465.306 926.826 464.927 930.237 464.927C932.227 464.927 934.974 465.4 936.301 466.064C938.48 467.011 939.049 466.821 942.08 463.884C944.449 461.61 946.818 460.379 950.323 459.716C954.681 458.863 955.25 458.484 955.534 456.21C955.818 454.126 956.482 453.462 959.135 452.989C960.935 452.704 962.356 451.946 962.356 451.378C962.356 450.809 963.209 449.388 964.346 448.251L966.335 446.167L963.588 444.651C961.977 443.893 958.85 442.756 956.482 442.188C952.976 441.335 951.934 440.482 950.607 437.829C949.755 436.029 949.092 433.85 949.092 432.903C948.997 432.05 948.428 429.681 947.765 427.692C946.628 424.565 946.628 423.712 947.765 421.533C948.523 420.112 949.092 418.312 949.092 417.459C949.092 416.606 949.755 414.333 950.513 412.438C951.555 409.974 951.744 408.079 951.081 405.332C950.418 402.395 950.607 401.258 951.744 400.121C953.071 398.794 953.071 398.321 951.744 395.004C950.607 392.067 950.513 390.741 951.46 387.52C952.502 383.919 952.502 383.446 950.418 381.266C949.186 379.94 947.291 378.614 946.249 378.235C944.26 377.571 943.975 376.529 945.207 373.497C945.681 372.455 945.681 370.655 945.207 369.613C944.828 368.476 944.733 366.676 945.017 365.633C945.491 363.833 945.681 363.739 947.576 364.97C949.755 366.486 950.986 366.012 950.986 363.928C950.986 363.265 953.355 358.812 956.197 354.074C959.04 349.337 961.408 344.979 961.408 344.316C961.408 343.653 959.703 340.621 957.619 337.494C954.966 333.515 953.829 330.767 953.829 328.399C953.829 326.409 953.166 324.419 952.313 323.756C951.555 322.998 950.418 321.672 949.849 320.629C948.997 319.019 949.092 318.829 950.513 319.398C951.555 319.777 952.881 319.398 953.829 318.545C954.871 317.598 958.092 316.84 962.072 316.461C968.23 315.987 968.893 315.703 970.409 312.955C971.357 311.344 975.052 306.986 978.652 303.386L985 296.659L979.694 288.7L974.389 280.836L974.957 273.825L975.525 266.814L966.525 259.708C961.598 255.729 957.619 252.223 957.619 251.844C957.713 251.56 958.471 247.865 959.514 243.696C960.461 239.527 961.029 235.738 960.65 235.169C960.366 234.695 958.092 231.663 955.629 228.537C952.029 223.8 951.271 222.378 951.65 219.915C952.408 215.178 950.607 212.904 946.249 212.904C943.123 212.904 942.459 213.188 942.459 214.799C942.459 217.073 941.607 217.167 937.248 215.367C934.501 214.136 933.932 213.472 933.932 211.009C933.932 209.398 934.311 207.219 934.88 206.272C935.638 204.851 935.259 204.187 932.511 202.577C930.237 201.25 929.195 199.924 929.195 198.408C929.195 195.66 927.679 194.239 919.436 189.691C915.173 187.323 912.141 184.859 910.53 182.491C907.972 178.606 907.593 178.417 894.802 175.48C887.981 173.774 887.697 173.679 885.707 169.605L883.717 165.531H874.622C866.568 165.531 865.242 165.247 862.589 163.257C857.473 159.468 852.451 157.762 847.714 158.331C843.64 158.804 843.356 158.615 840.892 155.393C839.376 153.499 838.239 151.035 838.239 149.804C838.239 147.719 836.25 146.677 826.87 143.55C826.112 143.266 823.743 143.929 821.754 144.877L818.059 146.772L813.227 141.94C808.584 137.297 808.489 137.013 808.395 131.707V126.212L805.079 125.928C802.994 125.738 799.868 124.127 796.741 121.664C792.004 118.064 791.435 117.874 788.119 118.727C785.087 119.58 784.14 119.39 781.298 117.59C778.739 115.79 776.655 115.411 770.876 115.411L763.675 115.316L752.116 100.157C742.073 86.8926 740.273 84.9976 737.999 85.0924C736.578 85.1871 701.427 89.3559 659.929 94.3774Z" fill="black"/>
<circle cx="500" cy="689" fill="#5CE50D"/>
<circle cx="440" cy="445" fill="#E52A0D"/>
<circle cx="98" cy="749" fill="#E52A0D"/>
<circle cx="899" cy="242" fill="#E52A0D"/>
</svg>
