<svg width="1000" height="1000" viewBox="0 0 1000 1000" fill="none" xmlns="http://www.w3.org/2000/svg">
<rect width="1000" height="1000" />
<path d="M598.351 52.2139C591.826 52.8759 584.449 53.5379 581.991 53.5379C579.059 53.6324 574.993 54.6727 570.926 56.4695C566.292 58.55 562.982 59.3065 559.105 59.3065C555.039 59.3065 551.729 60.1576 545.109 62.9947C540.286 64.9806 533.288 67.8176 529.505 69.2361C520.521 72.546 509.835 79.7332 505.674 85.1236C503.121 88.4335 501.702 89.4737 499.716 89.5683C498.109 89.5683 494.231 91.5542 490.07 94.2967L482.978 99.1196V104.037C482.978 107.631 482.316 109.995 480.614 112.737C478.817 115.669 478.249 117.844 478.249 122.667C478.249 126.072 477.587 131.556 476.831 134.961C476.074 138.365 475.412 143.472 475.412 146.309C475.223 153.213 473.71 157.657 469.927 161.913C464.726 167.776 438.625 178.462 399.758 190.567C398.15 191.04 396.259 193.404 393.611 198.227L389.828 205.225L378.953 209.102C367.321 213.358 356.257 218.843 347.746 224.611C341.41 228.867 328.832 245.038 319.848 260.264C316.538 265.938 310.297 275.3 305.947 281.069C299.138 289.958 297.152 291.944 291.288 295.443C273.793 305.751 260.743 319.463 259.324 329.204C258.757 332.608 258.001 334.121 255.825 335.729C254.312 336.864 251.759 340.174 250.246 343.011C247.693 347.739 246.652 348.685 238.425 353.224C233.035 356.156 227.644 358.425 225.091 358.803C222.538 359.182 218.944 360.6 216.201 362.586C210.717 366.369 209.96 366.369 208.541 363.437L207.501 361.073L202.962 363.437C197.761 365.991 192.181 366.369 189.155 364.288C188.02 363.437 186.129 361.073 184.899 358.993C183.386 356.345 181.59 354.642 178.469 353.318C174.686 351.616 172.322 351.427 155.773 351.427C139.601 351.427 136.481 351.711 130.712 353.508C125.038 355.21 122.579 355.494 112.271 355.115C105.746 354.832 99.7882 354.359 98.9371 353.98C98.086 353.602 97.1403 351.711 96.7621 349.819C96.2892 346.51 95.8164 346.037 88.1564 342.254L80.1181 338.282H63.285C38.7919 338.188 29.4296 337.147 22.0533 333.743L16.001 330.906L16.4738 341.025C16.9467 349.819 17.4195 352.278 20.9185 361.262C24.7012 371.192 24.8904 371.57 29.5242 374.218C34.2526 376.866 34.3472 377.055 39.3593 389.538C47.4921 409.681 51.1803 416.017 57.7055 421.218C61.7719 424.434 63.947 426.987 65.6492 430.581C67.7297 435.214 68.2971 435.687 73.3092 437.389L78.6996 439.186L78.4159 447.508C78.2267 454.223 78.6996 457.343 80.5909 463.49L82.9551 471.15L90.3314 475.311L97.8023 479.472L98.8426 488.362C99.5991 494.698 99.5991 498.102 98.8426 500.183C97.8969 502.831 98.2752 503.965 102.247 511.72C105.841 518.718 107.637 524.297 111.988 541.32L117.189 562.219L122.674 564.3C125.794 565.435 129.577 566.191 131.658 566.002C134.968 565.718 135.44 566.002 136.292 568.366C137.048 570.352 136.859 571.581 135.63 573.757C134.022 576.404 134.022 576.499 136.102 577.823C137.332 578.58 139.791 579.525 141.587 579.809C144.141 580.282 145.465 581.227 147.261 584.159C149.342 587.563 150.193 588.036 157.286 589.928L165.04 591.914L167.594 598.723C171.471 608.747 172.227 609.692 176.483 609.692C179.415 609.692 181.211 610.544 185.561 614.137C190.763 618.393 191.425 618.676 205.232 621.703C213.175 623.405 221.497 624.823 223.861 624.823C227.644 624.823 228.779 625.391 234.264 630.119C240.411 635.509 240.411 635.509 244.477 647.425L248.449 659.341L247.882 673.431L247.22 687.522L249.489 686.954C259.514 684.59 266.795 684.212 280.791 685.347C288.735 685.914 295.26 686.576 295.355 686.576C295.355 686.671 296.111 688.468 296.868 690.453C298.192 693.858 298.192 694.709 296.868 699.343C295.639 703.598 295.544 705.774 296.395 711.637C297.341 718.067 297.246 719.297 295.639 723.552C293.085 729.888 291.099 741.804 291.667 747.005C291.95 749.558 291.572 753.436 290.532 756.746C289.019 762.231 289.019 762.42 291.005 766.77C293.085 771.12 294.693 772.255 299.043 772.349C302.164 772.444 311.904 787.386 315.876 798.166C317.862 803.179 319.375 808.853 319.375 810.555C319.375 812.352 320.699 816.513 322.307 820.012C325.995 827.861 326.846 828.145 347.746 829.09C362.498 829.658 363.917 829.941 373.279 833.251C381.506 836.183 384.06 836.75 388.315 836.277C392.949 835.899 394.273 836.277 404.392 841.006C411.106 844.221 420.658 847.72 428.885 849.99C440.801 853.3 446.947 855.758 447.042 857.461C447.042 857.744 445.34 860.77 443.354 864.27L439.666 870.511L442.124 877.32C443.638 881.67 445.907 885.547 448.366 888.384L452.243 892.64L461.416 893.113L470.589 893.68L475.129 899.165L479.668 904.65H487.233C491.394 904.745 497.163 904.083 500 903.326C503.121 902.475 506.904 902.191 509.457 902.475C511.821 902.759 514.753 902.57 516.171 902.097C518.157 901.246 519.576 901.813 526.101 905.785C532.91 910.04 534.045 910.419 538.773 910.23L543.88 910.04L545.676 917.228C547.852 925.928 548.797 926.401 559.389 924.131C569.224 922.051 570.17 922.24 578.302 926.968C586.53 931.791 589.934 932.264 599.391 929.616C604.876 928.103 605.443 928.103 609.699 929.616C615.468 931.697 618.399 931.602 622.749 929.427C625.397 928.103 629.369 927.536 638.731 926.968C656.226 926.022 659.347 926.59 666.818 932.264C672.303 936.425 673.532 936.898 677.788 936.898C681.003 936.898 684.124 936.141 687.245 934.534C689.798 933.21 692.919 932.169 694.148 932.169C696.796 932.169 704.078 937.56 710.13 943.99L714.575 948.719L733.299 930.183C743.607 919.97 764.129 900.489 778.976 886.777C793.823 873.064 819.64 848.288 836.379 831.644C869.005 799.112 867.113 800.531 873.828 803.084C875.246 803.651 875.435 803.179 875.435 798.828C875.435 794.573 874.773 792.776 870.612 785.967C867.775 781.239 866.167 777.551 866.546 776.889C866.924 776.227 871.463 769.985 876.665 762.987L886.027 750.22L884.987 734.995C883.568 714.285 883.379 715.798 888.202 710.218C892.174 705.679 892.836 705.301 897.942 704.733C900.874 704.45 904.184 703.977 905.319 703.788C906.643 703.504 910.142 698.965 915.721 690.17C921.773 680.713 925.083 676.363 927.637 674.85C930.379 673.148 931.609 671.445 932.743 668.041C933.784 665.015 933.973 663.123 933.311 662.461C932.743 661.894 933.5 659.435 935.391 655.652C937.661 651.019 938.985 649.411 941.254 648.56C942.957 647.992 944.47 646.668 944.754 645.628C945.037 644.399 946.077 643.737 947.591 643.737C948.82 643.737 951.184 643.453 952.697 643.169L955.534 642.602L956.575 632.01C957.236 626.242 958.56 618.298 959.601 614.421C960.641 610.544 961.492 607.044 961.492 606.761C961.492 606.477 956.575 602.222 950.617 597.399L939.647 588.509L940.309 582.173L940.876 575.837L936.526 569.69C932.554 564.111 932.176 563.165 932.176 558.058V552.479L936.81 549.169L941.444 545.859L942.578 536.875C943.146 531.957 944.47 525.149 945.605 521.839C947.401 516.07 947.496 515.692 945.983 513.138C944.848 511.153 944.564 509.45 945.037 506.992L945.699 503.493L939.174 504.154C932.838 504.722 932.554 504.722 929.623 501.979C927.92 500.466 926.502 498.575 926.502 497.913C926.502 497.156 928.015 495.171 929.717 493.374C932.933 490.348 932.933 490.158 931.609 487.605C930.947 486.187 930.285 484.484 930.285 484.011C930.285 483.444 932.838 481.647 936.053 480.134L941.822 477.203L947.307 479.094C953.643 481.174 952.981 481.553 957.709 473.136L960.83 467.557L958.655 460.842C957.52 457.154 955.723 452.993 954.778 451.575C953.737 450.251 952.981 447.697 952.981 445.901C952.981 442.969 953.359 442.685 958.088 440.794C962.816 438.903 963.383 438.903 964.802 440.321C966.22 441.74 966.504 441.55 969.057 438.524C971.138 436.066 971.895 434.269 971.895 431.243C971.895 428.027 972.367 426.987 974.07 426.136C976.15 425.001 977.569 423.488 977.569 422.259C977.569 421.88 975.866 420.367 973.786 419.043L970.003 416.49V409.397C970.003 402.872 969.625 401.454 965.18 391.619L960.263 380.838L963.289 374.123C965.275 369.49 966.22 365.896 966.22 362.586C966.22 356.628 967.923 350.765 970.098 349.63C972.273 348.401 973.786 343.767 973.786 338.282C973.786 335.445 974.353 333.365 975.204 332.608C975.961 331.946 976.623 330.055 976.623 328.258C976.623 323.624 974.07 314.64 972.178 312.56C970.098 310.29 970.381 305.656 972.746 302.346C973.691 301.022 974.732 298.658 975.11 297.145C975.488 295.348 976.812 293.646 978.609 292.7L981.446 290.998L979.271 287.972C977.758 285.797 977.096 283.433 977.001 280.123C976.907 277.475 975.394 268.869 973.597 260.926C970.476 247.213 970.098 246.267 965.748 240.783C961.019 234.73 961.019 234.068 965.842 232.744C967.072 232.461 970.571 227.543 975.772 218.937C980.122 211.561 983.81 205.32 983.999 205.036C984.094 204.752 975.677 204.658 965.275 204.847L946.361 205.13V198.511V191.891L924.327 180.07C902.765 168.533 902.198 168.249 893.876 167.209C889.148 166.641 880.164 166.168 873.733 166.168C862.668 166.168 861.912 166.074 856.427 163.331C851.793 160.967 850.658 159.927 850.185 157.563C849.807 155.388 848.483 153.875 845.363 151.889C842.904 150.376 839.121 146.404 836.189 142.337L831.177 135.434L818.127 132.218C810.845 130.422 801.767 127.868 797.889 126.45C791.742 124.18 790.702 123.424 789.946 120.965C789.567 119.452 788.149 117.56 786.919 116.993C785.69 116.331 783.704 114.345 782.569 112.643C780.016 108.86 769.33 104.415 763.372 104.605C756.563 104.794 749.281 106.78 745.215 109.522C740.297 112.927 738.122 112.927 735.096 109.711L732.827 107.252L702.659 106.023C686.11 105.361 672.398 104.794 672.208 104.794C672.019 104.699 672.114 93.9184 672.398 80.6789L672.965 56.7532L667.48 56.1858C664.454 55.8075 660.86 55.0509 659.536 54.4835C657.361 53.5379 656.699 53.727 653.106 56.564L649.134 59.6848L646.108 56.2803L643.082 52.9704L629.464 52.3085C621.993 52.0248 614.617 51.5519 613.009 51.3628C611.496 51.1737 604.876 51.5519 598.351 52.2139Z" fill="black"/>
<circle cx="766" cy="317" fill="#5CE50D"/>
<circle cx="132" cy="409" fill="#E52A0D"/>
<circle cx="426" cy="659" fill="#E52A0D"/>
<circle cx="878" cy="629" fill="#E52A0D"/>
</svg>
